<?xml version="1.0" encoding="UTF-8" standalone="no"?>
<!DOCTYPE svg PUBLIC "-//W3C//DTD SVG 1.1//EN"
 "http://www.w3.org/Graphics/SVG/1.1/DTD/svg11.dtd">
<!-- Generated by graphviz version 2.38.0 (20140413.2041)
 -->
<!-- Title: application::ImageSecurityXteaHmac::Secure Pages: 1 -->
<svg width="643pt" height="198pt"
 viewBox="0.00 0.00 643.00 198.01" xmlns="http://www.w3.org/2000/svg" xmlns:xlink="http://www.w3.org/1999/xlink">
<g id="graph0" class="graph" transform="scale(1 1) rotate(0) translate(4 194.01)">
<title>application::ImageSecurityXteaHmac::Secure</title>
<polygon fill="white" stroke="none" points="-4,4 -4,-194.01 639,-194.01 639,4 -4,4"/>
<!-- Node4 -->
<g id="node1" class="node"><title>Node4</title>
<polygon fill="#bfbfbf" stroke="black" points="0,-114.5 0,-144.5 131,-144.5 131,-114.5 0,-114.5"/>
<text text-anchor="start" x="8" y="-132.5" font-family="Helvetica,sans-Serif" font-size="10.00">application::ImageSecurity</text>
<text text-anchor="middle" x="65.5" y="-121.5" font-family="Helvetica,sans-Serif" font-size="10.00">XteaHmac::Secure</text>
</g>
<!-- Node5 -->
<g id="node2" class="node"><title>Node5</title>
<g id="a_node2"><a xlink:href="../../d8/d94/classapplication_1_1_image_authenticator_hmac.html#a1d897afa745cf6f2a8ecd33e621967e8" target="_top" xlink:title="application::ImageAuthenticator\lHmac::GenerateMac">
<polygon fill="white" stroke="black" points="167,-139.5 167,-169.5 320,-169.5 320,-139.5 167,-139.5"/>
<text text-anchor="start" x="175" y="-157.5" font-family="Helvetica,sans-Serif" font-size="10.00">application::ImageAuthenticator</text>
<text text-anchor="middle" x="243.5" y="-146.5" font-family="Helvetica,sans-Serif" font-size="10.00">Hmac::GenerateMac</text>
</a>
</g>
</g>
<!-- Node4&#45;&gt;Node5 -->
<g id="edge1" class="edge"><title>Node4&#45;&gt;Node5</title>
<path fill="none" stroke="midnightblue" d="M131.037,-138.667C139.428,-139.859 148.126,-141.095 156.794,-142.326"/>
<polygon fill="midnightblue" stroke="midnightblue" points="156.544,-145.825 166.937,-143.767 157.528,-138.895 156.544,-145.825"/>
</g>
<!-- Node8 -->
<g id="node5" class="node"><title>Node8</title>
<g id="a_node5"><a xlink:href="../../d2/dd4/classapplication_1_1_image_encryptor_xtea.html#a63b9db4c449ad449d9ae11f447805fa9" target="_top" xlink:title="application::ImageEncryptor\lXtea::Secure">
<polygon fill="white" stroke="black" points="175,-90.5 175,-120.5 312,-120.5 312,-90.5 175,-90.5"/>
<text text-anchor="start" x="183" y="-108.5" font-family="Helvetica,sans-Serif" font-size="10.00">application::ImageEncryptor</text>
<text text-anchor="middle" x="243.5" y="-97.5" font-family="Helvetica,sans-Serif" font-size="10.00">Xtea::Secure</text>
</a>
</g>
</g>
<!-- Node4&#45;&gt;Node8 -->
<g id="edge4" class="edge"><title>Node4&#45;&gt;Node8</title>
<path fill="none" stroke="midnightblue" d="M131.037,-120.7C141.928,-119.214 153.336,-117.659 164.526,-116.133"/>
<polygon fill="midnightblue" stroke="midnightblue" points="165.284,-119.562 174.719,-114.743 164.338,-112.626 165.284,-119.562"/>
</g>
<!-- Node6 -->
<g id="node3" class="node"><title>Node6</title>
<g id="a_node3"><a xlink:href="../../d0/d6d/classinfra_1_1_memory_range.html#a7a83ceae17802af5ecebfb9557912ece" target="_top" xlink:title="infra::MemoryRange\l::begin">
<polygon fill="white" stroke="black" points="531,-93.5 531,-123.5 635,-123.5 635,-93.5 531,-93.5"/>
<text text-anchor="start" x="539" y="-111.5" font-family="Helvetica,sans-Serif" font-size="10.00">infra::MemoryRange</text>
<text text-anchor="middle" x="583" y="-100.5" font-family="Helvetica,sans-Serif" font-size="10.00">::begin</text>
</a>
</g>
</g>
<!-- Node5&#45;&gt;Node6 -->
<g id="edge2" class="edge"><title>Node5&#45;&gt;Node6</title>
<path fill="none" stroke="midnightblue" d="M289.305,-169.608C340.511,-184.397 426.127,-201.496 495,-177.5 521.283,-168.343 545.591,-147.568 561.793,-131.193"/>
<polygon fill="midnightblue" stroke="midnightblue" points="564.691,-133.226 569.069,-123.577 559.63,-128.39 564.691,-133.226"/>
</g>
<!-- Node7 -->
<g id="node4" class="node"><title>Node7</title>
<g id="a_node4"><a xlink:href="../../d0/d6d/classinfra_1_1_memory_range.html#ae8fbbf531d3696b6a64ac13385acdc66" target="_top" xlink:title="infra::MemoryRange\l::size">
<polygon fill="white" stroke="black" points="373.5,-137.5 373.5,-167.5 477.5,-167.5 477.5,-137.5 373.5,-137.5"/>
<text text-anchor="start" x="381.5" y="-155.5" font-family="Helvetica,sans-Serif" font-size="10.00">infra::MemoryRange</text>
<text text-anchor="middle" x="425.5" y="-144.5" font-family="Helvetica,sans-Serif" font-size="10.00">::size</text>
</a>
</g>
</g>
<!-- Node5&#45;&gt;Node7 -->
<g id="edge3" class="edge"><title>Node5&#45;&gt;Node7</title>
<path fill="none" stroke="midnightblue" d="M320.054,-153.661C334.39,-153.501 349.229,-153.336 363.063,-153.183"/>
<polygon fill="midnightblue" stroke="midnightblue" points="363.461,-156.679 373.422,-153.068 363.384,-149.679 363.461,-156.679"/>
</g>
<!-- Node8&#45;&gt;Node6 -->
<g id="edge5" class="edge"><title>Node8&#45;&gt;Node6</title>
<path fill="none" stroke="midnightblue" d="M312.392,-106.103C373.315,-106.645 461.94,-107.433 520.739,-107.955"/>
<polygon fill="midnightblue" stroke="midnightblue" points="520.965,-111.458 530.996,-108.047 521.027,-104.458 520.965,-111.458"/>
</g>
<!-- Node8&#45;&gt;Node7 -->
<g id="edge9" class="edge"><title>Node8&#45;&gt;Node7</title>
<path fill="none" stroke="midnightblue" d="M301.948,-120.5C321.576,-125.625 343.591,-131.374 363.489,-136.569"/>
<polygon fill="midnightblue" stroke="midnightblue" points="362.812,-140.01 373.372,-139.15 364.58,-133.237 362.812,-140.01"/>
</g>
<!-- Node9 -->
<g id="node6" class="node"><title>Node9</title>
<g id="a_node6"><a xlink:href="../../d2/dd4/classapplication_1_1_image_encryptor_xtea.html#a58b7ef3d24aec2d489cea9efca7da39b" target="_top" xlink:title="application::ImageEncryptor\lXtea::CheckDecryption">
<polygon fill="white" stroke="black" points="357,-49.5 357,-79.5 494,-79.5 494,-49.5 357,-49.5"/>
<text text-anchor="start" x="365" y="-67.5" font-family="Helvetica,sans-Serif" font-size="10.00">application::ImageEncryptor</text>
<text text-anchor="middle" x="425.5" y="-56.5" font-family="Helvetica,sans-Serif" font-size="10.00">Xtea::CheckDecryption</text>
</a>
</g>
</g>
<!-- Node8&#45;&gt;Node9 -->
<g id="edge6" class="edge"><title>Node8&#45;&gt;Node9</title>
<path fill="none" stroke="midnightblue" d="M310.503,-90.4659C322.854,-87.6527 335.855,-84.6913 348.48,-81.8157"/>
<polygon fill="midnightblue" stroke="midnightblue" points="349.532,-85.1658 358.505,-79.5323 347.977,-78.3406 349.532,-85.1658"/>
</g>
<!-- Node10 -->
<g id="node7" class="node"><title>Node10</title>
<g id="a_node7"><a xlink:href="../../d8/de9/classapplication_1_1_random_number_generator.html#a226fdf347dd939a50def6dec3ea8a4ca" target="_top" xlink:title="application::RandomNumber\lGenerator::Generate">
<polygon fill="white" stroke="black" points="356,-0.5 356,-30.5 495,-30.5 495,-0.5 356,-0.5"/>
<text text-anchor="start" x="364" y="-18.5" font-family="Helvetica,sans-Serif" font-size="10.00">application::RandomNumber</text>
<text text-anchor="middle" x="425.5" y="-7.5" font-family="Helvetica,sans-Serif" font-size="10.00">Generator::Generate</text>
</a>
</g>
</g>
<!-- Node8&#45;&gt;Node10 -->
<g id="edge8" class="edge"><title>Node8&#45;&gt;Node10</title>
<path fill="none" stroke="midnightblue" d="M266.844,-90.4842C288.858,-76.126 323.779,-54.5012 356,-39.5 359.856,-37.705 363.885,-35.9661 367.976,-34.2998"/>
<polygon fill="midnightblue" stroke="midnightblue" points="369.536,-37.4481 377.578,-30.5511 366.99,-30.9274 369.536,-37.4481"/>
</g>
<!-- Node9&#45;&gt;Node6 -->
<g id="edge7" class="edge"><title>Node9&#45;&gt;Node6</title>
<path fill="none" stroke="midnightblue" d="M479.579,-79.5192C492.96,-83.3055 507.429,-87.3995 521.158,-91.2843"/>
<polygon fill="midnightblue" stroke="midnightblue" points="520.423,-94.7137 530.999,-94.0687 522.329,-87.9782 520.423,-94.7137"/>
</g>
</g>
</svg>
