<?xml version="1.0" encoding="UTF-8" standalone="no"?>
<!DOCTYPE svg PUBLIC "-//W3C//DTD SVG 1.1//EN"
 "http://www.w3.org/Graphics/SVG/1.1/DTD/svg11.dtd">
<!-- Generated by graphviz version 2.38.0 (20140413.2041)
 -->
<!-- Title: infra::MemoryRange::clear Pages: 1 -->
<svg width="698pt" height="105pt"
 viewBox="0.00 0.00 698.00 105.00" xmlns="http://www.w3.org/2000/svg" xmlns:xlink="http://www.w3.org/1999/xlink">
<g id="graph0" class="graph" transform="scale(1 1) rotate(0) translate(4 101)">
<title>infra::MemoryRange::clear</title>
<polygon fill="white" stroke="none" points="-4,4 -4,-101 694,-101 694,4 -4,4"/>
<!-- Node118 -->
<g id="node1" class="node"><title>Node118</title>
<polygon fill="#bfbfbf" stroke="black" points="0,-33 0,-63 104,-63 104,-33 0,-33"/>
<text text-anchor="start" x="8" y="-51" font-family="Helvetica,sans-Serif" font-size="10.00">infra::MemoryRange</text>
<text text-anchor="middle" x="52" y="-40" font-family="Helvetica,sans-Serif" font-size="10.00">::clear</text>
</g>
<!-- Node119 -->
<g id="node2" class="node"><title>Node119</title>
<g id="a_node2"><a xlink:href="../../d2/d3d/classservices_1_1_connection_serial_1_1_state_connected.html#a36342b53a064924a384a612e1c009d2a" target="_top" xlink:title="services::ConnectionSerial\l::StateConnected::Reset">
<polygon fill="white" stroke="black" points="140,-33 140,-63 271,-63 271,-33 140,-33"/>
<text text-anchor="start" x="148" y="-51" font-family="Helvetica,sans-Serif" font-size="10.00">services::ConnectionSerial</text>
<text text-anchor="middle" x="205.5" y="-40" font-family="Helvetica,sans-Serif" font-size="10.00">::StateConnected::Reset</text>
</a>
</g>
</g>
<!-- Node118&#45;&gt;Node119 -->
<g id="edge1" class="edge"><title>Node118&#45;&gt;Node119</title>
<path fill="none" stroke="midnightblue" d="M114.371,-48C122.758,-48 131.388,-48 139.832,-48"/>
<polygon fill="midnightblue" stroke="midnightblue" points="114.291,-44.5001 104.291,-48 114.291,-51.5001 114.291,-44.5001"/>
</g>
<!-- Node120 -->
<g id="node3" class="node"><title>Node120</title>
<g id="a_node3"><a xlink:href="../../d4/d55/classservices_1_1_connection_serial_1_1_state_connected_sending_content.html#a6a03f39255e227790d18e3bce3670d14" target="_top" xlink:title="services::ConnectionSerial\l::StateConnectedSendingContent\l::SendPartialContent">
<polygon fill="white" stroke="black" points="312,-55.5 312,-96.5 473,-96.5 473,-55.5 312,-55.5"/>
<text text-anchor="start" x="320" y="-84.5" font-family="Helvetica,sans-Serif" font-size="10.00">services::ConnectionSerial</text>
<text text-anchor="start" x="320" y="-73.5" font-family="Helvetica,sans-Serif" font-size="10.00">::StateConnectedSendingContent</text>
<text text-anchor="middle" x="392.5" y="-62.5" font-family="Helvetica,sans-Serif" font-size="10.00">::SendPartialContent</text>
</a>
</g>
</g>
<!-- Node119&#45;&gt;Node120 -->
<g id="edge2" class="edge"><title>Node119&#45;&gt;Node120</title>
<path fill="none" stroke="midnightblue" d="M281.186,-59.3039C291.285,-60.8324 301.679,-62.4055 311.861,-63.9465"/>
<polygon fill="midnightblue" stroke="midnightblue" points="281.615,-55.829 271.204,-57.793 280.568,-62.7502 281.615,-55.829"/>
</g>
<!-- Node121 -->
<g id="node4" class="node"><title>Node121</title>
<g id="a_node4"><a xlink:href="../../da/d87/classservices_1_1_connection_serial_1_1_state_sending_update.html#a276b17de9be8100c96e2a946b2a15a81" target="_top" xlink:title="services::ConnectionSerial\l::StateSendingUpdate::SendUpdate">
<polygon fill="white" stroke="black" points="307,-6 307,-36 478,-36 478,-6 307,-6"/>
<text text-anchor="start" x="315" y="-24" font-family="Helvetica,sans-Serif" font-size="10.00">services::ConnectionSerial</text>
<text text-anchor="middle" x="392.5" y="-13" font-family="Helvetica,sans-Serif" font-size="10.00">::StateSendingUpdate::SendUpdate</text>
</a>
</g>
</g>
<!-- Node119&#45;&gt;Node121 -->
<g id="edge3" class="edge"><title>Node119&#45;&gt;Node121</title>
<path fill="none" stroke="midnightblue" d="M281.374,-37.0724C289.811,-35.8411 298.45,-34.5802 306.998,-33.3327"/>
<polygon fill="midnightblue" stroke="midnightblue" points="280.594,-33.6492 271.204,-38.5567 281.605,-40.5758 280.594,-33.6492"/>
</g>
<!-- Node122 -->
<g id="node5" class="node"><title>Node122</title>
<g id="a_node5"><a xlink:href="../../da/d87/classservices_1_1_connection_serial_1_1_state_sending_update.html#a08163e62ae7a8a6c4f70fc7c4983283c" target="_top" xlink:title="services::ConnectionSerial\l::StateSendingUpdate::StateSending\lUpdate">
<polygon fill="white" stroke="black" points="514,-0.5 514,-41.5 690,-41.5 690,-0.5 514,-0.5"/>
<text text-anchor="start" x="522" y="-29.5" font-family="Helvetica,sans-Serif" font-size="10.00">services::ConnectionSerial</text>
<text text-anchor="start" x="522" y="-18.5" font-family="Helvetica,sans-Serif" font-size="10.00">::StateSendingUpdate::StateSending</text>
<text text-anchor="middle" x="602" y="-7.5" font-family="Helvetica,sans-Serif" font-size="10.00">Update</text>
</a>
</g>
</g>
<!-- Node121&#45;&gt;Node122 -->
<g id="edge4" class="edge"><title>Node121&#45;&gt;Node122</title>
<path fill="none" stroke="midnightblue" d="M488.471,-21C496.938,-21 505.483,-21 513.879,-21"/>
<polygon fill="midnightblue" stroke="midnightblue" points="488.198,-17.5001 478.197,-21 488.197,-24.5001 488.198,-17.5001"/>
</g>
</g>
</svg>
