<?xml version="1.0" encoding="UTF-8" standalone="no"?>
<!DOCTYPE svg PUBLIC "-//W3C//DTD SVG 1.1//EN"
 "http://www.w3.org/Graphics/SVG/1.1/DTD/svg11.dtd">
<!-- Generated by graphviz version 2.38.0 (20140413.2041)
 -->
<!-- Title: infra::MemoryRange::end Pages: 1 -->
<svg width="872pt" height="1357pt"
 viewBox="0.00 0.00 872.00 1356.50" xmlns="http://www.w3.org/2000/svg" xmlns:xlink="http://www.w3.org/1999/xlink">
<g id="graph0" class="graph" transform="scale(1 1) rotate(0) translate(4 1352.5)">
<title>infra::MemoryRange::end</title>
<polygon fill="white" stroke="none" points="-4,4 -4,-1352.5 868,-1352.5 868,4 -4,4"/>
<!-- Node148 -->
<g id="node1" class="node"><title>Node148</title>
<polygon fill="#bfbfbf" stroke="black" points="0,-651 0,-670 125,-670 125,-651 0,-651"/>
<text text-anchor="middle" x="62.5" y="-658" font-family="Helvetica,sans-Serif" font-size="10.00">infra::MemoryRange::end</text>
</g>
<!-- Node149 -->
<g id="node2" class="node"><title>Node149</title>
<g id="a_node2"><a xlink:href="../../db/de0/classinfra_1_1_queue_for_one_reader_one_irq_writer.html#a0ea7a2c324d800ed7a815be91fd8f252" target="_top" xlink:title="infra::QueueForOneReader\lOneIrqWriter\&lt; uint8_t\l \&gt;::AddFromInterrupt">
<polygon fill="white" stroke="black" points="177,-1307 177,-1348 309,-1348 309,-1307 177,-1307"/>
<text text-anchor="start" x="185" y="-1336" font-family="Helvetica,sans-Serif" font-size="10.00">infra::QueueForOneReader</text>
<text text-anchor="start" x="185" y="-1325" font-family="Helvetica,sans-Serif" font-size="10.00">OneIrqWriter&lt; uint8_t</text>
<text text-anchor="middle" x="243" y="-1314" font-family="Helvetica,sans-Serif" font-size="10.00"> &gt;::AddFromInterrupt</text>
</a>
</g>
</g>
<!-- Node148&#45;&gt;Node149 -->
<g id="edge1" class="edge"><title>Node148&#45;&gt;Node149</title>
<path fill="none" stroke="midnightblue" d="M63.9025,-680.269C66.2503,-776.961 81.0089,-1199.38 161,-1297.5 165.359,-1302.85 170.767,-1307.24 176.705,-1310.85"/>
<polygon fill="midnightblue" stroke="midnightblue" points="67.3986,-680.054 63.6741,-670.136 60.4004,-680.212 67.3986,-680.054"/>
</g>
<!-- Node150 -->
<g id="node3" class="node"><title>Node150</title>
<g id="a_node3"><a xlink:href="../../dc/de7/classinfra_1_1_bounded_vector.html#a344d22ea5f95b9fead52a4592d73a37a" target="_top" xlink:title="infra::BoundedVector\l\&lt; infra::PolymorphicVariant\l\&lt; infra::JsonSubParser, infra\l::JsonSubObjectParser, infra\l::JsonSubArrayParser \&gt; \&gt;::assign">
<polygon fill="white" stroke="black" points="161,-1225 161,-1288 325,-1288 325,-1225 161,-1225"/>
<text text-anchor="start" x="169" y="-1276" font-family="Helvetica,sans-Serif" font-size="10.00">infra::BoundedVector</text>
<text text-anchor="start" x="169" y="-1265" font-family="Helvetica,sans-Serif" font-size="10.00">&lt; infra::PolymorphicVariant</text>
<text text-anchor="start" x="169" y="-1254" font-family="Helvetica,sans-Serif" font-size="10.00">&lt; infra::JsonSubParser, infra</text>
<text text-anchor="start" x="169" y="-1243" font-family="Helvetica,sans-Serif" font-size="10.00">::JsonSubObjectParser, infra</text>
<text text-anchor="middle" x="243" y="-1232" font-family="Helvetica,sans-Serif" font-size="10.00">::JsonSubArrayParser &gt; &gt;::assign</text>
</a>
</g>
</g>
<!-- Node148&#45;&gt;Node150 -->
<g id="edge2" class="edge"><title>Node148&#45;&gt;Node150</title>
<path fill="none" stroke="midnightblue" d="M64.6342,-680.287C70.0482,-768.75 95.7521,-1127.51 161,-1215.5 163.535,-1218.92 166.436,-1222.07 169.598,-1224.98"/>
<polygon fill="midnightblue" stroke="midnightblue" points="68.1133,-679.83 64.0259,-670.055 61.1256,-680.245 68.1133,-679.83"/>
</g>
<!-- Node151 -->
<g id="node4" class="node"><title>Node151</title>
<g id="a_node4"><a xlink:href="../../da/de0/classapplication_1_1_image_signer_ec_dsa.html#ac731a10f7967a230fa8627a7ffa9b000" target="_top" xlink:title="application::ImageSigner\lEcDsa::CalculateSignature">
<polygon fill="white" stroke="black" points="176,-1175.5 176,-1205.5 310,-1205.5 310,-1175.5 176,-1175.5"/>
<text text-anchor="start" x="184" y="-1193.5" font-family="Helvetica,sans-Serif" font-size="10.00">application::ImageSigner</text>
<text text-anchor="middle" x="243" y="-1182.5" font-family="Helvetica,sans-Serif" font-size="10.00">EcDsa::CalculateSignature</text>
</a>
</g>
</g>
<!-- Node148&#45;&gt;Node151 -->
<g id="edge3" class="edge"><title>Node148&#45;&gt;Node151</title>
<path fill="none" stroke="midnightblue" d="M64.6622,-680.343C69.982,-764.568 94.6649,-1091.54 161,-1165.5 165.225,-1170.21 170.316,-1174.05 175.863,-1177.16"/>
<polygon fill="midnightblue" stroke="midnightblue" points="68.1411,-679.889 64.0377,-670.121 61.1541,-680.316 68.1411,-679.889"/>
</g>
<!-- Node153 -->
<g id="node6" class="node"><title>Node153</title>
<g id="a_node6"><a xlink:href="../../d0/de3/namespaceinfra.html#acc89afc43ed83bbf8d958622c4114dbc" target="_top" xlink:title="infra::ConstCastMemoryRange">
<polygon fill="white" stroke="black" points="168.5,-1137 168.5,-1156 317.5,-1156 317.5,-1137 168.5,-1137"/>
<text text-anchor="middle" x="243" y="-1144" font-family="Helvetica,sans-Serif" font-size="10.00">infra::ConstCastMemoryRange</text>
</a>
</g>
</g>
<!-- Node148&#45;&gt;Node153 -->
<g id="edge5" class="edge"><title>Node148&#45;&gt;Node153</title>
<path fill="none" stroke="midnightblue" d="M64.8749,-680.49C70.8313,-761.215 97.0488,-1061.96 161,-1127.5 164.732,-1131.33 169.078,-1134.44 173.781,-1136.97"/>
<polygon fill="midnightblue" stroke="midnightblue" points="68.3456,-679.955 64.141,-670.231 61.3635,-680.455 68.3456,-679.955"/>
</g>
<!-- Node154 -->
<g id="node7" class="node"><title>Node154</title>
<g id="a_node7"><a xlink:href="../../db/de0/classinfra_1_1_queue_for_one_reader_one_irq_writer.html#ac5d69da54e3c91602f13164262424007" target="_top" xlink:title="infra::QueueForOneReader\lOneIrqWriter\&lt; uint8_t\l \&gt;::Consume">
<polygon fill="white" stroke="black" points="177,-1077 177,-1118 309,-1118 309,-1077 177,-1077"/>
<text text-anchor="start" x="185" y="-1106" font-family="Helvetica,sans-Serif" font-size="10.00">infra::QueueForOneReader</text>
<text text-anchor="start" x="185" y="-1095" font-family="Helvetica,sans-Serif" font-size="10.00">OneIrqWriter&lt; uint8_t</text>
<text text-anchor="middle" x="243" y="-1084" font-family="Helvetica,sans-Serif" font-size="10.00"> &gt;::Consume</text>
</a>
</g>
</g>
<!-- Node148&#45;&gt;Node154 -->
<g id="edge6" class="edge"><title>Node148&#45;&gt;Node154</title>
<path fill="none" stroke="midnightblue" d="M65.7942,-680.5C74.5956,-754.026 108.368,-1008.17 161,-1067.5 165.478,-1072.55 170.885,-1076.75 176.755,-1080.24"/>
<polygon fill="midnightblue" stroke="midnightblue" points="69.2398,-679.831 64.597,-670.307 62.2876,-680.648 69.2398,-679.831"/>
</g>
<!-- Node155 -->
<g id="node8" class="node"><title>Node155</title>
<g id="a_node8"><a xlink:href="../../d0/de3/namespaceinfra.html#ab96774759b2486d88105cd168546dcb4" target="_top" xlink:title="infra::ContentsEqual">
<polygon fill="white" stroke="black" points="191,-1039 191,-1058 295,-1058 295,-1039 191,-1039"/>
<text text-anchor="middle" x="243" y="-1046" font-family="Helvetica,sans-Serif" font-size="10.00">infra::ContentsEqual</text>
</a>
</g>
</g>
<!-- Node148&#45;&gt;Node155 -->
<g id="edge7" class="edge"><title>Node148&#45;&gt;Node155</title>
<path fill="none" stroke="midnightblue" d="M66.0202,-680.166C75.2643,-749.256 109.477,-979.396 161,-1029.5 169.077,-1037.35 179.752,-1042.19 190.691,-1045.11"/>
<polygon fill="midnightblue" stroke="midnightblue" points="69.4816,-679.642 64.7098,-670.183 62.5412,-680.553 69.4816,-679.642"/>
</g>
<!-- Node156 -->
<g id="node9" class="node"><title>Node156</title>
<g id="a_node9"><a xlink:href="../../db/de0/classinfra_1_1_queue_for_one_reader_one_irq_writer.html#aac4934838fab809443a21e15aca4da54" target="_top" xlink:title="infra::QueueForOneReader\lOneIrqWriter\&lt; uint8_t\l \&gt;::ContiguousRange">
<polygon fill="white" stroke="black" points="177,-979 177,-1020 309,-1020 309,-979 177,-979"/>
<text text-anchor="start" x="185" y="-1008" font-family="Helvetica,sans-Serif" font-size="10.00">infra::QueueForOneReader</text>
<text text-anchor="start" x="185" y="-997" font-family="Helvetica,sans-Serif" font-size="10.00">OneIrqWriter&lt; uint8_t</text>
<text text-anchor="middle" x="243" y="-986" font-family="Helvetica,sans-Serif" font-size="10.00"> &gt;::ContiguousRange</text>
</a>
</g>
</g>
<!-- Node148&#45;&gt;Node156 -->
<g id="edge8" class="edge"><title>Node148&#45;&gt;Node156</title>
<path fill="none" stroke="midnightblue" d="M63.9969,-680.268C66.4119,-734.089 80.4129,-884.859 161,-969.5 165.55,-974.279 170.928,-978.301 176.717,-981.686"/>
<polygon fill="midnightblue" stroke="midnightblue" points="67.4867,-679.919 63.6307,-670.051 60.4912,-680.17 67.4867,-679.919"/>
</g>
<!-- Node157 -->
<g id="node10" class="node"><title>Node157</title>
<g id="a_node10"><a xlink:href="../../db/de0/classinfra_1_1_queue_for_one_reader_one_irq_writer.html#a8536f3862b265fa9031a1a06d70623ed" target="_top" xlink:title="infra::QueueForOneReader\lOneIrqWriter\&lt; uint8_t\l \&gt;::Full">
<polygon fill="white" stroke="black" points="177,-919 177,-960 309,-960 309,-919 177,-919"/>
<text text-anchor="start" x="185" y="-948" font-family="Helvetica,sans-Serif" font-size="10.00">infra::QueueForOneReader</text>
<text text-anchor="start" x="185" y="-937" font-family="Helvetica,sans-Serif" font-size="10.00">OneIrqWriter&lt; uint8_t</text>
<text text-anchor="middle" x="243" y="-926" font-family="Helvetica,sans-Serif" font-size="10.00"> &gt;::Full</text>
</a>
</g>
</g>
<!-- Node148&#45;&gt;Node157 -->
<g id="edge9" class="edge"><title>Node148&#45;&gt;Node157</title>
<path fill="none" stroke="midnightblue" d="M65.7217,-680.075C71.9924,-726.384 93.9722,-843.701 161,-909.5 165.602,-914.017 170.943,-917.863 176.645,-921.136"/>
<polygon fill="midnightblue" stroke="midnightblue" points="69.1926,-679.624 64.4746,-670.137 62.2471,-680.495 69.1926,-679.624"/>
</g>
<!-- Node158 -->
<g id="node11" class="node"><title>Node158</title>
<g id="a_node11"><a xlink:href="../../db/de0/classinfra_1_1_queue_for_one_reader_one_irq_writer.html#acd5cc40bb4e8d6cee84c122c2d5e2628" target="_top" xlink:title="infra::QueueForOneReader\lOneIrqWriter\&lt; uint8_t\l \&gt;::Get">
<polygon fill="white" stroke="black" points="177,-859 177,-900 309,-900 309,-859 177,-859"/>
<text text-anchor="start" x="185" y="-888" font-family="Helvetica,sans-Serif" font-size="10.00">infra::QueueForOneReader</text>
<text text-anchor="start" x="185" y="-877" font-family="Helvetica,sans-Serif" font-size="10.00">OneIrqWriter&lt; uint8_t</text>
<text text-anchor="middle" x="243" y="-866" font-family="Helvetica,sans-Serif" font-size="10.00"> &gt;::Get</text>
</a>
</g>
</g>
<!-- Node148&#45;&gt;Node158 -->
<g id="edge10" class="edge"><title>Node148&#45;&gt;Node158</title>
<path fill="none" stroke="midnightblue" d="M68.4717,-680.113C79.0701,-718.082 107.407,-802.055 161,-849.5 165.716,-853.675 171.065,-857.287 176.712,-860.41"/>
<polygon fill="midnightblue" stroke="midnightblue" points="71.8101,-679.049 65.8444,-670.294 65.048,-680.858 71.8101,-679.049"/>
</g>
<!-- Node159 -->
<g id="node12" class="node"><title>Node159</title>
<g id="a_node12"><a xlink:href="../../d3/dc1/classinfra_1_1_io_output_stream_writer.html#a71f6ebe1815abbc957e522e6324ee3af" target="_top" xlink:title="infra::IoOutputStreamWriter\l::Insert">
<polygon fill="white" stroke="black" points="175.5,-809.5 175.5,-839.5 310.5,-839.5 310.5,-809.5 175.5,-809.5"/>
<text text-anchor="start" x="183.5" y="-827.5" font-family="Helvetica,sans-Serif" font-size="10.00">infra::IoOutputStreamWriter</text>
<text text-anchor="middle" x="243" y="-816.5" font-family="Helvetica,sans-Serif" font-size="10.00">::Insert</text>
</a>
</g>
</g>
<!-- Node148&#45;&gt;Node159 -->
<g id="edge11" class="edge"><title>Node148&#45;&gt;Node159</title>
<path fill="none" stroke="midnightblue" d="M71.8307,-679.592C85.8733,-709.565 117.085,-767.533 161,-799.5 166.354,-803.398 172.329,-806.697 178.541,-809.489"/>
<polygon fill="midnightblue" stroke="midnightblue" points="74.9083,-677.905 67.5869,-670.246 68.5346,-680.799 74.9083,-677.905"/>
</g>
<!-- Node160 -->
<g id="node13" class="node"><title>Node160</title>
<g id="a_node13"><a xlink:href="../../dc/d7e/classservices_1_1_connection_mbed_tls_1_1_stream_writer_mbed_tls.html#a8d9030232914327aeeb361059512b0d8" target="_top" xlink:title="services::ConnectionMbed\lTls::StreamWriterMbedTls\l::Insert">
<polygon fill="white" stroke="black" points="177.5,-749 177.5,-790 308.5,-790 308.5,-749 177.5,-749"/>
<text text-anchor="start" x="185.5" y="-778" font-family="Helvetica,sans-Serif" font-size="10.00">services::ConnectionMbed</text>
<text text-anchor="start" x="185.5" y="-767" font-family="Helvetica,sans-Serif" font-size="10.00">Tls::StreamWriterMbedTls</text>
<text text-anchor="middle" x="243" y="-756" font-family="Helvetica,sans-Serif" font-size="10.00">::Insert</text>
</a>
</g>
</g>
<!-- Node148&#45;&gt;Node160 -->
<g id="edge12" class="edge"><title>Node148&#45;&gt;Node160</title>
<path fill="none" stroke="midnightblue" d="M80.5728,-677.277C99.0942,-694.736 130.164,-721.933 161,-739.5 166.994,-742.915 173.449,-746.071 180.006,-748.951"/>
<polygon fill="midnightblue" stroke="midnightblue" points="82.8583,-674.62 73.2162,-670.229 78.0156,-679.674 82.8583,-674.62"/>
</g>
<!-- Node161 -->
<g id="node14" class="node"><title>Node161</title>
<g id="a_node14"><a xlink:href="../../d0/de3/namespaceinfra.html#a983dc4e0847a5d5f535dee16b7ab87c4" target="_top" xlink:title="infra::IntersectingRange">
<polygon fill="white" stroke="black" points="183.5,-711 183.5,-730 302.5,-730 302.5,-711 183.5,-711"/>
<text text-anchor="middle" x="243" y="-718" font-family="Helvetica,sans-Serif" font-size="10.00">infra::IntersectingRange</text>
</a>
</g>
</g>
<!-- Node148&#45;&gt;Node161 -->
<g id="edge13" class="edge"><title>Node148&#45;&gt;Node161</title>
<path fill="none" stroke="midnightblue" d="M93.011,-674.437C112.098,-683.067 137.652,-693.912 161,-701.5 171.99,-705.072 184.021,-708.266 195.369,-710.971"/>
<polygon fill="midnightblue" stroke="midnightblue" points="94.214,-671.138 83.6649,-670.155 91.2982,-677.502 94.214,-671.138"/>
</g>
<!-- Node162 -->
<g id="node15" class="node"><title>Node162</title>
<g id="a_node15"><a xlink:href="../../d0/de3/namespaceinfra.html#ab4d758f9d9b80a67f63bb5a5a09817d6" target="_top" xlink:title="infra::MakeVector">
<polygon fill="white" stroke="black" points="196.5,-673 196.5,-692 289.5,-692 289.5,-673 196.5,-673"/>
<text text-anchor="middle" x="243" y="-680" font-family="Helvetica,sans-Serif" font-size="10.00">infra::MakeVector</text>
</a>
</g>
</g>
<!-- Node148&#45;&gt;Node162 -->
<g id="edge14" class="edge"><title>Node148&#45;&gt;Node162</title>
<path fill="none" stroke="midnightblue" d="M135.188,-669.336C155.831,-671.88 177.779,-674.585 196.376,-676.877"/>
<polygon fill="midnightblue" stroke="midnightblue" points="135.533,-665.852 125.18,-668.102 134.676,-672.799 135.533,-665.852"/>
</g>
<!-- Node163 -->
<g id="node16" class="node"><title>Node163</title>
<g id="a_node16"><a xlink:href="../../d6/d37/classinfra_1_1_asn1_sequence_iterator.html#aa5fac6b4a7fc06e3a6632562e24b0db3" target="_top" xlink:title="infra::Asn1SequenceIterator\l::operator++">
<polygon fill="white" stroke="black" points="174.5,-623.5 174.5,-653.5 311.5,-653.5 311.5,-623.5 174.5,-623.5"/>
<text text-anchor="start" x="182.5" y="-641.5" font-family="Helvetica,sans-Serif" font-size="10.00">infra::Asn1SequenceIterator</text>
<text text-anchor="middle" x="243" y="-630.5" font-family="Helvetica,sans-Serif" font-size="10.00">::operator++</text>
</a>
</g>
</g>
<!-- Node148&#45;&gt;Node163 -->
<g id="edge15" class="edge"><title>Node148&#45;&gt;Node163</title>
<path fill="none" stroke="midnightblue" d="M135.341,-651.646C148.172,-650.064 161.502,-648.421 174.214,-646.855"/>
<polygon fill="midnightblue" stroke="midnightblue" points="134.676,-648.201 125.18,-652.898 135.533,-655.148 134.676,-648.201"/>
</g>
<!-- Node164 -->
<g id="node17" class="node"><title>Node164</title>
<g id="a_node17"><a xlink:href="../../d0/d6d/classinfra_1_1_memory_range.html#aec0e5c696d07f290831eb53d59309795" target="_top" xlink:title="infra::MemoryRange\l\&lt; infra::StaticStorage\l\&lt; infra::detail::BoundedList\lNode\&lt; T \&gt; \&gt; \&gt;::operator==">
<polygon fill="white" stroke="black" points="176,-552.5 176,-604.5 310,-604.5 310,-552.5 176,-552.5"/>
<text text-anchor="start" x="184" y="-592.5" font-family="Helvetica,sans-Serif" font-size="10.00">infra::MemoryRange</text>
<text text-anchor="start" x="184" y="-581.5" font-family="Helvetica,sans-Serif" font-size="10.00">&lt; infra::StaticStorage</text>
<text text-anchor="start" x="184" y="-570.5" font-family="Helvetica,sans-Serif" font-size="10.00">&lt; infra::detail::BoundedList</text>
<text text-anchor="middle" x="243" y="-559.5" font-family="Helvetica,sans-Serif" font-size="10.00">Node&lt; T &gt; &gt; &gt;::operator==</text>
</a>
</g>
</g>
<!-- Node148&#45;&gt;Node164 -->
<g id="edge16" class="edge"><title>Node148&#45;&gt;Node164</title>
<path fill="none" stroke="midnightblue" d="M92.7885,-646.471C112.108,-637.269 138,-625.035 161,-614.5 167.995,-611.296 175.348,-607.97 182.652,-604.692"/>
<polygon fill="midnightblue" stroke="midnightblue" points="91.1234,-643.387 83.6052,-650.852 94.1378,-649.705 91.1234,-643.387"/>
</g>
<!-- Node165 -->
<g id="node18" class="node"><title>Node165</title>
<g id="a_node18"><a xlink:href="../../d0/de3/namespaceinfra.html#a15967542be7a7e0dc81e6de34c86b688" target="_top" xlink:title="infra::operator==">
<polygon fill="white" stroke="black" points="199,-514 199,-533 287,-533 287,-514 199,-514"/>
<text text-anchor="middle" x="243" y="-521" font-family="Helvetica,sans-Serif" font-size="10.00">infra::operator==</text>
</a>
</g>
</g>
<!-- Node148&#45;&gt;Node165 -->
<g id="edge17" class="edge"><title>Node148&#45;&gt;Node165</title>
<path fill="none" stroke="midnightblue" d="M73.7359,-641.977C89.1533,-615.865 120.85,-568.62 161,-543.5 172.297,-536.432 185.936,-531.861 198.774,-528.905"/>
<polygon fill="midnightblue" stroke="midnightblue" points="70.5803,-640.444 68.6405,-650.86 76.6523,-643.927 70.5803,-640.444"/>
</g>
<!-- Node166 -->
<g id="node19" class="node"><title>Node166</title>
<g id="a_node19"><a xlink:href="../../db/de0/classinfra_1_1_queue_for_one_reader_one_irq_writer.html#a83bd9d75ec9c2bd931724c606510ba98" target="_top" xlink:title="infra::QueueForOneReader\lOneIrqWriter\&lt; uint8_t\l \&gt;::operator[]">
<polygon fill="white" stroke="black" points="177,-454 177,-495 309,-495 309,-454 177,-454"/>
<text text-anchor="start" x="185" y="-483" font-family="Helvetica,sans-Serif" font-size="10.00">infra::QueueForOneReader</text>
<text text-anchor="start" x="185" y="-472" font-family="Helvetica,sans-Serif" font-size="10.00">OneIrqWriter&lt; uint8_t</text>
<text text-anchor="middle" x="243" y="-461" font-family="Helvetica,sans-Serif" font-size="10.00"> &gt;::operator[]</text>
</a>
</g>
</g>
<!-- Node148&#45;&gt;Node166 -->
<g id="edge18" class="edge"><title>Node148&#45;&gt;Node166</title>
<path fill="none" stroke="midnightblue" d="M70.6757,-641.235C83.7581,-608.615 114.499,-542.37 161,-504.5 165.767,-500.617 171.085,-497.209 176.655,-494.222"/>
<polygon fill="midnightblue" stroke="midnightblue" points="67.2727,-640.329 66.9187,-650.918 73.7988,-642.861 67.2727,-640.329"/>
</g>
<!-- Node167 -->
<g id="node20" class="node"><title>Node167</title>
<g id="a_node20"><a xlink:href="../../d0/de3/namespaceinfra.html#a09b1f71c9bfab94035419fc270b9b2bf" target="_top" xlink:title="infra::ReinterpretCastMemory\lRange">
<polygon fill="white" stroke="black" points="171.5,-404.5 171.5,-434.5 314.5,-434.5 314.5,-404.5 171.5,-404.5"/>
<text text-anchor="start" x="179.5" y="-422.5" font-family="Helvetica,sans-Serif" font-size="10.00">infra::ReinterpretCastMemory</text>
<text text-anchor="middle" x="243" y="-411.5" font-family="Helvetica,sans-Serif" font-size="10.00">Range</text>
</a>
</g>
</g>
<!-- Node148&#45;&gt;Node167 -->
<g id="edge19" class="edge"><title>Node148&#45;&gt;Node167</title>
<path fill="none" stroke="midnightblue" d="M66.806,-640.743C74.9276,-598.421 99.8338,-498.481 161,-444.5 165.414,-440.605 170.426,-437.316 175.741,-434.54"/>
<polygon fill="midnightblue" stroke="midnightblue" points="63.3527,-640.171 65.017,-650.635 70.241,-641.417 63.3527,-640.171"/>
</g>
<!-- Node169 -->
<g id="node22" class="node"><title>Node169</title>
<g id="a_node22"><a xlink:href="../../db/d2a/classinfra_1_1_byte_input_stream_reader.html#a7f7a65e9d3fa2427135fa44eefa86d5e" target="_top" xlink:title="infra::ByteInputStreamReader\l::Remaining">
<polygon fill="white" stroke="black" points="171,-355.5 171,-385.5 315,-385.5 315,-355.5 171,-355.5"/>
<text text-anchor="start" x="179" y="-373.5" font-family="Helvetica,sans-Serif" font-size="10.00">infra::ByteInputStreamReader</text>
<text text-anchor="middle" x="243" y="-362.5" font-family="Helvetica,sans-Serif" font-size="10.00">::Remaining</text>
</a>
</g>
</g>
<!-- Node148&#45;&gt;Node169 -->
<g id="edge21" class="edge"><title>Node148&#45;&gt;Node169</title>
<path fill="none" stroke="midnightblue" d="M64.9424,-640.754C69.5803,-591.9 88.3825,-464.354 161,-395.5 165.058,-391.652 169.696,-388.396 174.653,-385.64"/>
<polygon fill="midnightblue" stroke="midnightblue" points="61.4382,-640.656 64.0796,-650.916 68.4132,-641.248 61.4382,-640.656"/>
</g>
<!-- Node170 -->
<g id="node23" class="node"><title>Node170</title>
<g id="a_node23"><a xlink:href="../../df/d15/classinfra_1_1_byte_output_stream_writer.html#aec5f3922c0892be680981c32e0255754" target="_top" xlink:title="infra::ByteOutputStreamWriter\l::Remaining">
<polygon fill="white" stroke="black" points="169,-306.5 169,-336.5 317,-336.5 317,-306.5 169,-306.5"/>
<text text-anchor="start" x="177" y="-324.5" font-family="Helvetica,sans-Serif" font-size="10.00">infra::ByteOutputStreamWriter</text>
<text text-anchor="middle" x="243" y="-313.5" font-family="Helvetica,sans-Serif" font-size="10.00">::Remaining</text>
</a>
</g>
</g>
<!-- Node148&#45;&gt;Node170 -->
<g id="edge22" class="edge"><title>Node148&#45;&gt;Node170</title>
<path fill="none" stroke="midnightblue" d="M63.6219,-640.89C65.0508,-586.226 76.7082,-430.648 161,-346.5 164.854,-342.653 169.285,-339.396 174.048,-336.638"/>
<polygon fill="midnightblue" stroke="midnightblue" points="60.1212,-640.902 63.4497,-650.961 67.1202,-641.022 60.1212,-640.902"/>
</g>
<!-- Node172 -->
<g id="node25" class="node"><title>Node172</title>
<g id="a_node25"><a xlink:href="../../df/d97/classinfra_1_1_string_output_stream_writer.html#a43220902968a296a44a094b034bc201a" target="_top" xlink:title="infra::StringOutputStream\lWriter::RestoreState">
<polygon fill="white" stroke="black" points="179.5,-257.5 179.5,-287.5 306.5,-287.5 306.5,-257.5 179.5,-257.5"/>
<text text-anchor="start" x="187.5" y="-275.5" font-family="Helvetica,sans-Serif" font-size="10.00">infra::StringOutputStream</text>
<text text-anchor="middle" x="243" y="-264.5" font-family="Helvetica,sans-Serif" font-size="10.00">Writer::RestoreState</text>
</a>
</g>
</g>
<!-- Node148&#45;&gt;Node172 -->
<g id="edge24" class="edge"><title>Node148&#45;&gt;Node172</title>
<path fill="none" stroke="midnightblue" d="M66.3149,-640.403C76.3047,-571.791 112.095,-348.247 161,-297.5 166.208,-292.095 172.556,-287.852 179.383,-284.522"/>
<polygon fill="midnightblue" stroke="midnightblue" points="62.7945,-640.297 64.8426,-650.692 69.7239,-641.289 62.7945,-640.297"/>
</g>
<!-- Node173 -->
<g id="node26" class="node"><title>Node173</title>
<g id="a_node26"><a xlink:href="../../df/d15/classinfra_1_1_byte_output_stream_writer.html#a83e38710acd31fd9b13a9c2349610abb" target="_top" xlink:title="infra::ByteOutputStreamWriter\l::RestoreState">
<polygon fill="white" stroke="black" points="169,-208.5 169,-238.5 317,-238.5 317,-208.5 169,-208.5"/>
<text text-anchor="start" x="177" y="-226.5" font-family="Helvetica,sans-Serif" font-size="10.00">infra::ByteOutputStreamWriter</text>
<text text-anchor="middle" x="243" y="-215.5" font-family="Helvetica,sans-Serif" font-size="10.00">::RestoreState</text>
</a>
</g>
</g>
<!-- Node148&#45;&gt;Node173 -->
<g id="edge25" class="edge"><title>Node148&#45;&gt;Node173</title>
<path fill="none" stroke="midnightblue" d="M65.5993,-640.645C73.8163,-566.519 106.077,-307.231 161,-248.5 164.619,-244.63 168.822,-241.355 173.373,-238.582"/>
<polygon fill="midnightblue" stroke="midnightblue" points="62.0866,-640.573 64.4872,-650.892 69.0457,-641.328 62.0866,-640.573"/>
</g>
<!-- Node174 -->
<g id="node27" class="node"><title>Node174</title>
<g id="a_node27"><a xlink:href="../../df/d15/classinfra_1_1_byte_output_stream_writer.html#adc54be3c6d5b1a589eda1e4c225dc5d2" target="_top" xlink:title="infra::ByteOutputStreamWriter\l::SaveState">
<polygon fill="white" stroke="black" points="169,-159.5 169,-189.5 317,-189.5 317,-159.5 169,-159.5"/>
<text text-anchor="start" x="177" y="-177.5" font-family="Helvetica,sans-Serif" font-size="10.00">infra::ByteOutputStreamWriter</text>
<text text-anchor="middle" x="243" y="-166.5" font-family="Helvetica,sans-Serif" font-size="10.00">::SaveState</text>
</a>
</g>
</g>
<!-- Node148&#45;&gt;Node174 -->
<g id="edge26" class="edge"><title>Node148&#45;&gt;Node174</title>
<path fill="none" stroke="midnightblue" d="M65.0129,-640.822C71.5069,-561.343 99.5287,-265.101 161,-198.5 164.183,-195.051 167.836,-192.089 171.792,-189.547"/>
<polygon fill="midnightblue" stroke="midnightblue" points="61.5136,-640.676 64.2096,-650.922 68.4915,-641.231 61.5136,-640.676"/>
</g>
<!-- Node175 -->
<g id="node28" class="node"><title>Node175</title>
<g id="a_node28"><a xlink:href="../../db/de0/classinfra_1_1_queue_for_one_reader_one_irq_writer.html#a88a65f2fc6596fef39c5cde661448b68" target="_top" xlink:title="infra::QueueForOneReader\lOneIrqWriter\&lt; uint8_t\l \&gt;::Size">
<polygon fill="white" stroke="black" points="177,-99 177,-140 309,-140 309,-99 177,-99"/>
<text text-anchor="start" x="185" y="-128" font-family="Helvetica,sans-Serif" font-size="10.00">infra::QueueForOneReader</text>
<text text-anchor="start" x="185" y="-117" font-family="Helvetica,sans-Serif" font-size="10.00">OneIrqWriter&lt; uint8_t</text>
<text text-anchor="middle" x="243" y="-106" font-family="Helvetica,sans-Serif" font-size="10.00"> &gt;::Size</text>
</a>
</g>
</g>
<!-- Node148&#45;&gt;Node175 -->
<g id="edge27" class="edge"><title>Node148&#45;&gt;Node175</title>
<path fill="none" stroke="midnightblue" d="M64.7178,-640.776C70.3006,-556.358 96.0178,-226.288 161,-149.5 165.456,-144.234 170.926,-139.892 176.902,-136.312"/>
<polygon fill="midnightblue" stroke="midnightblue" points="61.2215,-640.608 64.0737,-650.812 68.2071,-641.057 61.2215,-640.608"/>
</g>
<!-- Node176 -->
<g id="node29" class="node"><title>Node176</title>
<g id="a_node29"><a xlink:href="../../de/dcb/classservices_1_1_connection_mbed_tls.html#adae626924d72ebf111bc180abe3fea3e" target="_top" xlink:title="services::ConnectionMbed\lTls::SslReceive">
<polygon fill="white" stroke="black" points="177.5,-49.5 177.5,-79.5 308.5,-79.5 308.5,-49.5 177.5,-49.5"/>
<text text-anchor="start" x="185.5" y="-67.5" font-family="Helvetica,sans-Serif" font-size="10.00">services::ConnectionMbed</text>
<text text-anchor="middle" x="243" y="-56.5" font-family="Helvetica,sans-Serif" font-size="10.00">Tls::SslReceive</text>
</a>
</g>
</g>
<!-- Node148&#45;&gt;Node176 -->
<g id="edge28" class="edge"><title>Node148&#45;&gt;Node176</title>
<path fill="none" stroke="midnightblue" d="M64.1761,-640.731C67.6685,-550.017 86.4905,-174.406 161,-89.5 165.562,-84.301 171.18,-80.1683 177.311,-76.8857"/>
<polygon fill="midnightblue" stroke="midnightblue" points="60.6696,-640.848 63.8019,-650.969 67.6649,-641.104 60.6696,-640.848"/>
</g>
<!-- Node180 -->
<g id="node33" class="node"><title>Node180</title>
<g id="a_node33"><a xlink:href="../../d0/de3/namespaceinfra.html#ac5d9d6e65d2ad7fba8e50fde2167f994" target="_top" xlink:title="infra::VolatileCastMemory\lRange">
<polygon fill="white" stroke="black" points="179,-0.5 179,-30.5 307,-30.5 307,-0.5 179,-0.5"/>
<text text-anchor="start" x="187" y="-18.5" font-family="Helvetica,sans-Serif" font-size="10.00">infra::VolatileCastMemory</text>
<text text-anchor="middle" x="243" y="-7.5" font-family="Helvetica,sans-Serif" font-size="10.00">Range</text>
</a>
</g>
</g>
<!-- Node148&#45;&gt;Node180 -->
<g id="edge32" class="edge"><title>Node148&#45;&gt;Node180</title>
<path fill="none" stroke="midnightblue" d="M63.8609,-640.508C65.9928,-544.569 79.8197,-132.201 161,-39.5 165.928,-33.8727 172.107,-29.535 178.843,-26.1964"/>
<polygon fill="midnightblue" stroke="midnightblue" points="60.3599,-640.527 63.6552,-650.597 67.3585,-640.67 60.3599,-640.527"/>
</g>
<!-- Node152 -->
<g id="node5" class="node"><title>Node152</title>
<g id="a_node5"><a xlink:href="../../da/de0/classapplication_1_1_image_signer_ec_dsa.html#a5fee88a7e05c42208b4fccd02e4abbd4" target="_top" xlink:title="application::ImageSigner\lEcDsa::ImageSignature">
<polygon fill="white" stroke="black" points="384,-1175.5 384,-1205.5 507,-1205.5 507,-1175.5 384,-1175.5"/>
<text text-anchor="start" x="392" y="-1193.5" font-family="Helvetica,sans-Serif" font-size="10.00">application::ImageSigner</text>
<text text-anchor="middle" x="445.5" y="-1182.5" font-family="Helvetica,sans-Serif" font-size="10.00">EcDsa::ImageSignature</text>
</a>
</g>
</g>
<!-- Node151&#45;&gt;Node152 -->
<g id="edge4" class="edge"><title>Node151&#45;&gt;Node152</title>
<path fill="none" stroke="midnightblue" d="M320.37,-1190.5C341.35,-1190.5 363.812,-1190.5 383.782,-1190.5"/>
<polygon fill="midnightblue" stroke="midnightblue" points="320.207,-1187 310.207,-1190.5 320.207,-1194 320.207,-1187"/>
</g>
<!-- Node168 -->
<g id="node21" class="node"><title>Node168</title>
<g id="a_node21"><a xlink:href="../../d0/db4/classinfra_1_1_data_input_stream.html#a7768aecc4780ea585f095ebf2af94cea" target="_top" xlink:title="infra::DataInputStream\l::operator\&gt;\&gt;">
<polygon fill="white" stroke="black" points="389,-404.5 389,-434.5 502,-434.5 502,-404.5 389,-404.5"/>
<text text-anchor="start" x="397" y="-422.5" font-family="Helvetica,sans-Serif" font-size="10.00">infra::DataInputStream</text>
<text text-anchor="middle" x="445.5" y="-411.5" font-family="Helvetica,sans-Serif" font-size="10.00">::operator&gt;&gt;</text>
</a>
</g>
</g>
<!-- Node167&#45;&gt;Node168 -->
<g id="edge20" class="edge"><title>Node167&#45;&gt;Node168</title>
<path fill="none" stroke="midnightblue" d="M324.804,-419.5C346.326,-419.5 369.091,-419.5 388.924,-419.5"/>
<polygon fill="midnightblue" stroke="midnightblue" points="324.689,-416 314.689,-419.5 324.689,-423 324.689,-416"/>
</g>
<!-- Node171 -->
<g id="node24" class="node"><title>Node171</title>
<g id="a_node24"><a xlink:href="../../d5/d41/classinfra_1_1_saved_marker_stream_writer.html#a01e3db354dd4bc1a28288f4aad9e73c9" target="_top" xlink:title="infra::SavedMarkerStream\lWriter::~SavedMarkerStreamWriter">
<polygon fill="white" stroke="black" points="361,-306.5 361,-336.5 530,-336.5 530,-306.5 361,-306.5"/>
<text text-anchor="start" x="369" y="-324.5" font-family="Helvetica,sans-Serif" font-size="10.00">infra::SavedMarkerStream</text>
<text text-anchor="middle" x="445.5" y="-313.5" font-family="Helvetica,sans-Serif" font-size="10.00">Writer::~SavedMarkerStreamWriter</text>
</a>
</g>
</g>
<!-- Node170&#45;&gt;Node171 -->
<g id="edge23" class="edge"><title>Node170&#45;&gt;Node171</title>
<path fill="none" stroke="midnightblue" d="M327.338,-321.5C338.443,-321.5 349.833,-321.5 360.942,-321.5"/>
<polygon fill="midnightblue" stroke="midnightblue" points="327.236,-318 317.236,-321.5 327.236,-325 327.236,-318"/>
</g>
<!-- Node177 -->
<g id="node30" class="node"><title>Node177</title>
<g id="a_node30"><a xlink:href="../../de/dcb/classservices_1_1_connection_mbed_tls.html#a68b47358e42e76201da62701a1b8bbfa" target="_top" xlink:title="services::ConnectionMbed\lTls::StaticSslReceive">
<polygon fill="white" stroke="black" points="380,-49.5 380,-79.5 511,-79.5 511,-49.5 380,-49.5"/>
<text text-anchor="start" x="388" y="-67.5" font-family="Helvetica,sans-Serif" font-size="10.00">services::ConnectionMbed</text>
<text text-anchor="middle" x="445.5" y="-56.5" font-family="Helvetica,sans-Serif" font-size="10.00">Tls::StaticSslReceive</text>
</a>
</g>
</g>
<!-- Node176&#45;&gt;Node177 -->
<g id="edge29" class="edge"><title>Node176&#45;&gt;Node177</title>
<path fill="none" stroke="midnightblue" d="M318.581,-64.5C338.669,-64.5 360.23,-64.5 379.734,-64.5"/>
<polygon fill="midnightblue" stroke="midnightblue" points="318.543,-61.0001 308.543,-64.5 318.543,-68.0001 318.543,-61.0001"/>
</g>
<!-- Node178 -->
<g id="node31" class="node"><title>Node178</title>
<g id="a_node31"><a xlink:href="../../de/dcb/classservices_1_1_connection_mbed_tls.html#aa57d924643b363c3f924ee74799cca91" target="_top" xlink:title="services::ConnectionMbed\lTls::InitTls">
<polygon fill="white" stroke="black" points="566,-49.5 566,-79.5 697,-79.5 697,-49.5 566,-49.5"/>
<text text-anchor="start" x="574" y="-67.5" font-family="Helvetica,sans-Serif" font-size="10.00">services::ConnectionMbed</text>
<text text-anchor="middle" x="631.5" y="-56.5" font-family="Helvetica,sans-Serif" font-size="10.00">Tls::InitTls</text>
</a>
</g>
</g>
<!-- Node177&#45;&gt;Node178 -->
<g id="edge30" class="edge"><title>Node177&#45;&gt;Node178</title>
<path fill="none" stroke="midnightblue" d="M521.211,-64.5C535.967,-64.5 551.338,-64.5 565.732,-64.5"/>
<polygon fill="midnightblue" stroke="midnightblue" points="521.113,-61.0001 511.113,-64.5 521.113,-68.0001 521.113,-61.0001"/>
</g>
<!-- Node179 -->
<g id="node32" class="node"><title>Node179</title>
<g id="a_node32"><a xlink:href="../../de/dcb/classservices_1_1_connection_mbed_tls.html#ae5074c013c9085347e77fe1d824eff54" target="_top" xlink:title="services::ConnectionMbed\lTls::Connected">
<polygon fill="white" stroke="black" points="733,-49.5 733,-79.5 864,-79.5 864,-49.5 733,-49.5"/>
<text text-anchor="start" x="741" y="-67.5" font-family="Helvetica,sans-Serif" font-size="10.00">services::ConnectionMbed</text>
<text text-anchor="middle" x="798.5" y="-56.5" font-family="Helvetica,sans-Serif" font-size="10.00">Tls::Connected</text>
</a>
</g>
</g>
<!-- Node178&#45;&gt;Node179 -->
<g id="edge31" class="edge"><title>Node178&#45;&gt;Node179</title>
<path fill="none" stroke="midnightblue" d="M707.239,-64.5C715.821,-64.5 724.516,-64.5 732.948,-64.5"/>
<polygon fill="midnightblue" stroke="midnightblue" points="707.239,-61.0001 697.239,-64.5 707.239,-68.0001 707.239,-61.0001"/>
</g>
</g>
</svg>
