<?xml version="1.0" encoding="UTF-8" standalone="no"?>
<!DOCTYPE svg PUBLIC "-//W3C//DTD SVG 1.1//EN"
 "http://www.w3.org/Graphics/SVG/1.1/DTD/svg11.dtd">
<!-- Generated by graphviz version 2.38.0 (20140413.2041)
 -->
<!-- Title: services::SynchronousFlashRegion::SectorOfAddress Pages: 1 -->
<svg width="322pt" height="88pt"
 viewBox="0.00 0.00 322.00 88.00" xmlns="http://www.w3.org/2000/svg" xmlns:xlink="http://www.w3.org/1999/xlink">
<g id="graph0" class="graph" transform="scale(1 1) rotate(0) translate(4 84)">
<title>services::SynchronousFlashRegion::SectorOfAddress</title>
<polygon fill="white" stroke="none" points="-4,4 -4,-84 318,-84 318,4 -4,4"/>
<!-- Node19 -->
<g id="node1" class="node"><title>Node19</title>
<polygon fill="#bfbfbf" stroke="black" points="0,-24.5 0,-54.5 139,-54.5 139,-24.5 0,-24.5"/>
<text text-anchor="start" x="8" y="-42.5" font-family="Helvetica,sans-Serif" font-size="10.00">services::SynchronousFlash</text>
<text text-anchor="middle" x="69.5" y="-31.5" font-family="Helvetica,sans-Serif" font-size="10.00">Region::SectorOfAddress</text>
</g>
<!-- Node20 -->
<g id="node2" class="node"><title>Node20</title>
<g id="a_node2"><a xlink:href="../../d0/d97/classservices_1_1_synchronous_flash_region.html#a7b36ad4ff58827013f2d093089d43af3" target="_top" xlink:title="services::SynchronousFlash\lRegion::ReadBuffer">
<polygon fill="white" stroke="black" points="175,-49.5 175,-79.5 314,-79.5 314,-49.5 175,-49.5"/>
<text text-anchor="start" x="183" y="-67.5" font-family="Helvetica,sans-Serif" font-size="10.00">services::SynchronousFlash</text>
<text text-anchor="middle" x="244.5" y="-56.5" font-family="Helvetica,sans-Serif" font-size="10.00">Region::ReadBuffer</text>
</a>
</g>
</g>
<!-- Node19&#45;&gt;Node20 -->
<g id="edge1" class="edge"><title>Node19&#45;&gt;Node20</title>
<path fill="none" stroke="midnightblue" d="M149.316,-50.8896C157.844,-52.1219 166.472,-53.3688 174.866,-54.5817"/>
<polygon fill="midnightblue" stroke="midnightblue" points="149.769,-47.4188 139.371,-49.4525 148.768,-54.3468 149.769,-47.4188"/>
</g>
<!-- Node21 -->
<g id="node3" class="node"><title>Node21</title>
<g id="a_node3"><a xlink:href="../../d0/d97/classservices_1_1_synchronous_flash_region.html#a173d778c280bd91b98f849891e919724" target="_top" xlink:title="services::SynchronousFlash\lRegion::WriteBuffer">
<polygon fill="white" stroke="black" points="175,-0.5 175,-30.5 314,-30.5 314,-0.5 175,-0.5"/>
<text text-anchor="start" x="183" y="-18.5" font-family="Helvetica,sans-Serif" font-size="10.00">services::SynchronousFlash</text>
<text text-anchor="middle" x="244.5" y="-7.5" font-family="Helvetica,sans-Serif" font-size="10.00">Region::WriteBuffer</text>
</a>
</g>
</g>
<!-- Node19&#45;&gt;Node21 -->
<g id="edge2" class="edge"><title>Node19&#45;&gt;Node21</title>
<path fill="none" stroke="midnightblue" d="M149.316,-28.566C157.844,-27.3829 166.472,-26.1859 174.866,-25.0215"/>
<polygon fill="midnightblue" stroke="midnightblue" points="148.795,-25.1046 139.371,-29.9456 149.757,-32.0382 148.795,-25.1046"/>
</g>
</g>
</svg>
