<?xml version="1.0" encoding="UTF-8" standalone="no"?>
<!DOCTYPE svg PUBLIC "-//W3C//DTD SVG 1.1//EN"
 "http://www.w3.org/Graphics/SVG/1.1/DTD/svg11.dtd">
<!-- Generated by graphviz version 2.38.0 (20140413.2041)
 -->
<!-- Title: infra::JsonSubParser::FeedToken Pages: 1 -->
<svg width="286pt" height="88pt"
 viewBox="0.00 0.00 286.00 88.00" xmlns="http://www.w3.org/2000/svg" xmlns:xlink="http://www.w3.org/1999/xlink">
<g id="graph0" class="graph" transform="scale(1 1) rotate(0) translate(4 84)">
<title>infra::JsonSubParser::FeedToken</title>
<polygon fill="white" stroke="none" points="-4,4 -4,-84 282,-84 282,4 -4,4"/>
<!-- Node24 -->
<g id="node1" class="node"><title>Node24</title>
<polygon fill="#bfbfbf" stroke="black" points="0,-24.5 0,-54.5 107,-54.5 107,-24.5 0,-24.5"/>
<text text-anchor="start" x="8" y="-42.5" font-family="Helvetica,sans-Serif" font-size="10.00">infra::JsonSubParser</text>
<text text-anchor="middle" x="53.5" y="-31.5" font-family="Helvetica,sans-Serif" font-size="10.00">::FeedToken</text>
</g>
<!-- Node25 -->
<g id="node2" class="node"><title>Node25</title>
<g id="a_node2"><a xlink:href="../../d2/d55/classinfra_1_1_json_sub_object_parser.html#a54ade2c865923d904fee7d9f5b029baf" target="_top" xlink:title="infra::JsonSubObjectParser\l::Feed">
<polygon fill="white" stroke="black" points="143,-49.5 143,-79.5 278,-79.5 278,-49.5 143,-49.5"/>
<text text-anchor="start" x="151" y="-67.5" font-family="Helvetica,sans-Serif" font-size="10.00">infra::JsonSubObjectParser</text>
<text text-anchor="middle" x="210.5" y="-56.5" font-family="Helvetica,sans-Serif" font-size="10.00">::Feed</text>
</a>
</g>
</g>
<!-- Node24&#45;&gt;Node25 -->
<g id="edge1" class="edge"><title>Node24&#45;&gt;Node25</title>
<path fill="none" stroke="midnightblue" d="M117.467,-49.6559C125.83,-51.0048 134.428,-52.3915 142.851,-53.7501"/>
<polygon fill="midnightblue" stroke="midnightblue" points="117.838,-46.1707 107.409,-48.0337 116.724,-53.0814 117.838,-46.1707"/>
</g>
<!-- Node26 -->
<g id="node3" class="node"><title>Node26</title>
<g id="a_node3"><a xlink:href="../../d2/d36/classinfra_1_1_json_sub_array_parser.html#aee8c45bfcf7f58e9422493d56019fbc8" target="_top" xlink:title="infra::JsonSubArrayParser\l::Feed">
<polygon fill="white" stroke="black" points="145.5,-0.5 145.5,-30.5 275.5,-30.5 275.5,-0.5 145.5,-0.5"/>
<text text-anchor="start" x="153.5" y="-18.5" font-family="Helvetica,sans-Serif" font-size="10.00">infra::JsonSubArrayParser</text>
<text text-anchor="middle" x="210.5" y="-7.5" font-family="Helvetica,sans-Serif" font-size="10.00">::Feed</text>
</a>
</g>
</g>
<!-- Node24&#45;&gt;Node26 -->
<g id="edge2" class="edge"><title>Node24&#45;&gt;Node26</title>
<path fill="none" stroke="midnightblue" d="M117.583,-29.7323C126.725,-28.3168 136.143,-26.8585 145.306,-25.4397"/>
<polygon fill="midnightblue" stroke="midnightblue" points="116.755,-26.3187 107.409,-31.3077 117.827,-33.2362 116.755,-26.3187"/>
</g>
</g>
</svg>
