<?xml version="1.0" encoding="UTF-8" standalone="no"?>
<!DOCTYPE svg PUBLIC "-//W3C//DTD SVG 1.1//EN"
 "http://www.w3.org/Graphics/SVG/1.1/DTD/svg11.dtd">
<!-- Generated by graphviz version 2.38.0 (20140413.2041)
 -->
<!-- Title: infra::JsonSubParser::FeedToken Pages: 1 -->
<!--zoomable 123 -->
<svg id="main" version="1.1" xmlns="http://www.w3.org/2000/svg" xmlns:xlink="http://www.w3.org/1999/xlink" xml:space="preserve" onload="init(evt)">
<style type="text/css"><![CDATA[
.edge:hover path { stroke: red; }
.edge:hover polygon { stroke: red; fill: red; }
]]></style>
<script type="text/javascript"><![CDATA[
var edges = document.getElementsByTagName('g');
if (edges && edges.length) {
  for (var i=0;i<edges.length;i++) {
    if (edges[i].id.substr(0,4)=='edge') {
      edges[i].setAttribute('class','edge');
    }
  }
}
]]></script>
        <defs>
                <circle id="rim" cx="0" cy="0" r="7"/>
                <circle id="rim2" cx="0" cy="0" r="3.5"/>
                <g id="zoomPlus">
                        <use xlink:href="#rim" fill="#404040">
                                <set attributeName="fill" to="#808080" begin="zoomplus.mouseover" end="zoomplus.mouseout"/>
                        </use>
                        <path d="M-4,0h8M0,-4v8" fill="none" stroke="white" stroke-width="1.5" pointer-events="none"/>
                </g>
                <g id="zoomMin">
                        <use xlink:href="#rim" fill="#404040">
                                <set attributeName="fill" to="#808080" begin="zoomminus.mouseover" end="zoomminus.mouseout"/>
                        </use>
                        <path d="M-4,0h8" fill="none" stroke="white" stroke-width="1.5" pointer-events="none"/>
                </g>
                <g id="dirArrow">
                        <path fill="none" stroke="white" stroke-width="1.5" d="M0,-3.0v7 M-2.5,-0.5L0,-3.0L2.5,-0.5"/>
                </g>
               <g id="resetDef">
                       <use xlink:href="#rim2" fill="#404040">
                               <set attributeName="fill" to="#808080" begin="reset.mouseover" end="reset.mouseout"/>
                       </use>
               </g>
        </defs>

<script type="text/javascript">
var viewWidth = 574;
var viewHeight = 123;
var sectionId = 'dynsection-5';
</script>
<script xlink:href="../../svgpan.js"/>
<svg id="graph" class="graph">
<g id="viewport">
<title>infra::JsonSubParser::FeedToken</title>
<polygon fill="white" stroke="none" points="-4,4 -4,-119.101 570,-119.101 570,4 -4,4"/>
<!-- Node19 -->
<g id="node1" class="node"><title>Node19</title>
<polygon fill="#bfbfbf" stroke="black" points="0,-37.5 0,-67.5 107,-67.5 107,-37.5 0,-37.5"/>
<text text-anchor="start" x="8" y="-55.5" font-family="Helvetica,sans-Serif" font-size="10.00">infra::JsonSubParser</text>
<text text-anchor="middle" x="53.5" y="-44.5" font-family="Helvetica,sans-Serif" font-size="10.00">::FeedToken</text>
</g>
<!-- Node20 -->
<g id="node2" class="node"><title>Node20</title>
<g id="a_node2"><a xlink:href="../../dd/d09/classinfra_1_1_json_sub_parser.html#ad7720b7d93156301e4855651ff1199de" target="_top" xlink:title="infra::JsonSubParser\l::AddToValueBuffer">
<polygon fill="white" stroke="black" points="296,-23.5 296,-53.5 403,-53.5 403,-23.5 296,-23.5"/>
<text text-anchor="start" x="304" y="-41.5" font-family="Helvetica,sans-Serif" font-size="10.00">infra::JsonSubParser</text>
<text text-anchor="middle" x="349.5" y="-30.5" font-family="Helvetica,sans-Serif" font-size="10.00">::AddToValueBuffer</text>
</a>
</g>
</g>
<!-- Node19&#45;&gt;Node20 -->
<g id="edge1" class="edge"><title>Node19&#45;&gt;Node20</title>
<path fill="none" stroke="midnightblue" d="M107.061,-49.9971C157.18,-47.6105 232.697,-44.0144 285.903,-41.4808"/>
<polygon fill="midnightblue" stroke="midnightblue" points="286.077,-44.9766 295.899,-41.0048 285.744,-37.9845 286.077,-44.9766"/>
</g>
<!-- Node21 -->
<g id="node3" class="node"><title>Node21</title>
<g id="a_node3"><a xlink:href="../../dd/d09/classinfra_1_1_json_sub_parser.html#a0d6841fa369a3fb1f8e421934421de1e" target="_top" xlink:title="infra::JsonSubParser\l::FoundToken">
<polygon fill="white" stroke="black" points="449,-76.5 449,-106.5 556,-106.5 556,-76.5 449,-76.5"/>
<text text-anchor="start" x="457" y="-94.5" font-family="Helvetica,sans-Serif" font-size="10.00">infra::JsonSubParser</text>
<text text-anchor="middle" x="502.5" y="-83.5" font-family="Helvetica,sans-Serif" font-size="10.00">::FoundToken</text>
</a>
</g>
</g>
<!-- Node19&#45;&gt;Node21 -->
<g id="edge4" class="edge"><title>Node19&#45;&gt;Node21</title>
<path fill="none" stroke="midnightblue" d="M75.826,-67.6755C93.0342,-78.9376 118.354,-93.3614 143,-99.5 244.049,-124.668 366.105,-113.53 438.574,-102.787"/>
<polygon fill="midnightblue" stroke="midnightblue" points="439.541,-106.179 448.897,-101.209 438.483,-99.2598 439.541,-106.179"/>
</g>
<!-- Node22 -->
<g id="node4" class="node"><title>Node22</title>
<g id="a_node4"><a xlink:href="../../d1/d2a/classinfra_1_1_bounded_string_base.html#aca8ce15650affe10787e972764ebe08b" target="_top" xlink:title="infra::BoundedStringBase\l::full">
<polygon fill="white" stroke="black" points="439,-0.5 439,-30.5 566,-30.5 566,-0.5 439,-0.5"/>
<text text-anchor="start" x="447" y="-18.5" font-family="Helvetica,sans-Serif" font-size="10.00">infra::BoundedStringBase</text>
<text text-anchor="middle" x="502.5" y="-7.5" font-family="Helvetica,sans-Serif" font-size="10.00">::full</text>
</a>
</g>
</g>
<!-- Node19&#45;&gt;Node22 -->
<g id="edge5" class="edge"><title>Node19&#45;&gt;Node22</title>
<path fill="none" stroke="midnightblue" d="M107.442,-41.4438C156.173,-31.8659 230.594,-18.7473 296,-13.5 343.403,-9.69704 355.447,-13.0173 403,-13.5 411.359,-13.5849 420.117,-13.7102 428.816,-13.8575"/>
<polygon fill="midnightblue" stroke="midnightblue" points="428.913,-17.3597 438.974,-14.0394 429.039,-10.3608 428.913,-17.3597"/>
</g>
<!-- Node23 -->
<g id="node5" class="node"><title>Node23</title>
<g id="a_node5"><a xlink:href="../../dd/d09/classinfra_1_1_json_sub_parser.html#aabaaceb8b7a0e39085bbb6ae43de9dea" target="_top" xlink:title="infra::JsonSubParser\l::ProcessEscapedData">
<polygon fill="white" stroke="black" points="143,-59.5 143,-89.5 260,-89.5 260,-59.5 143,-59.5"/>
<text text-anchor="start" x="151" y="-77.5" font-family="Helvetica,sans-Serif" font-size="10.00">infra::JsonSubParser</text>
<text text-anchor="middle" x="201.5" y="-66.5" font-family="Helvetica,sans-Serif" font-size="10.00">::ProcessEscapedData</text>
</a>
</g>
</g>
<!-- Node19&#45;&gt;Node23 -->
<g id="edge6" class="edge"><title>Node19&#45;&gt;Node23</title>
<path fill="none" stroke="midnightblue" d="M107.209,-60.4425C115.546,-61.6987 124.266,-63.0126 132.885,-64.3114"/>
<polygon fill="midnightblue" stroke="midnightblue" points="132.518,-67.7956 142.928,-65.8248 133.561,-60.8737 132.518,-67.7956"/>
</g>
<!-- Node20&#45;&gt;Node21 -->
<g id="edge2" class="edge"><title>Node20&#45;&gt;Node21</title>
<path fill="none" stroke="midnightblue" d="M393.367,-53.5459C410.661,-59.6162 430.785,-66.6794 448.95,-73.0552"/>
<polygon fill="midnightblue" stroke="midnightblue" points="447.931,-76.407 458.526,-76.4165 450.25,-69.8021 447.931,-76.407"/>
</g>
<!-- Node20&#45;&gt;Node22 -->
<g id="edge3" class="edge"><title>Node20&#45;&gt;Node22</title>
<path fill="none" stroke="midnightblue" d="M403.312,-30.4557C411.565,-29.1988 420.216,-27.8811 428.818,-26.5708"/>
<polygon fill="midnightblue" stroke="midnightblue" points="429.507,-30.0062 438.866,-25.0402 428.453,-23.086 429.507,-30.0062"/>
</g>
<!-- Node23&#45;&gt;Node20 -->
<g id="edge7" class="edge"><title>Node23&#45;&gt;Node20</title>
<path fill="none" stroke="midnightblue" d="M260.203,-60.2718C268.682,-58.1812 277.449,-56.0195 286.018,-53.9065"/>
<polygon fill="midnightblue" stroke="midnightblue" points="287.087,-57.2478 295.958,-51.4555 285.411,-50.4514 287.087,-57.2478"/>
</g>
</g>
</svg>
        <g id="navigator" transform="translate(0 0)" fill="#404254">
                <rect fill="#f2f5e9" fill-opacity="0.5" stroke="#606060" stroke-width=".5" x="0" y="0" width="60" height="60"/>
                <use id="zoomplus" xlink:href="#zoomPlus" x="17" y="9" onmousedown="handleZoom(evt,'in')"/>
                <use id="zoomminus" xlink:href="#zoomMin" x="42" y="9" onmousedown="handleZoom(evt,'out')"/>
                <use id="reset" xlink:href="#resetDef" x="30" y="36" onmousedown="handleReset()"/>
                <g id="arrowUp" xlink:href="#dirArrow" transform="translate(30 24)" onmousedown="handlePan(0,-1)">
                  <use xlink:href="#rim" fill="#404040">
                        <set attributeName="fill" to="#808080" begin="arrowUp.mouseover" end="arrowUp.mouseout"/>
                  </use>
                  <path fill="none" stroke="white" stroke-width="1.5" d="M0,-3.0v7 M-2.5,-0.5L0,-3.0L2.5,-0.5"/>
                </g>
                <g id="arrowRight" xlink:href="#dirArrow" transform="rotate(90) translate(36 -43)" onmousedown="handlePan(1,0)">
                  <use xlink:href="#rim" fill="#404040">
                        <set attributeName="fill" to="#808080" begin="arrowRight.mouseover" end="arrowRight.mouseout"/>
                  </use>
                  <path fill="none" stroke="white" stroke-width="1.5" d="M0,-3.0v7 M-2.5,-0.5L0,-3.0L2.5,-0.5"/>
                </g>
                <g id="arrowDown" xlink:href="#dirArrow" transform="rotate(180) translate(-30 -48)" onmousedown="handlePan(0,1)">
                  <use xlink:href="#rim" fill="#404040">
                        <set attributeName="fill" to="#808080" begin="arrowDown.mouseover" end="arrowDown.mouseout"/>
                  </use>
                  <path fill="none" stroke="white" stroke-width="1.5" d="M0,-3.0v7 M-2.5,-0.5L0,-3.0L2.5,-0.5"/>
                </g>
                <g id="arrowLeft" xlink:href="#dirArrow" transform="rotate(270) translate(-36 17)" onmousedown="handlePan(-1,0)">
                  <use xlink:href="#rim" fill="#404040">
                        <set attributeName="fill" to="#808080" begin="arrowLeft.mouseover" end="arrowLeft.mouseout"/>
                  </use>
                  <path fill="none" stroke="white" stroke-width="1.5" d="M0,-3.0v7 M-2.5,-0.5L0,-3.0L2.5,-0.5"/>
                </g>
        </g>
        <svg viewBox="0 0 15 15" width="100%" height="30px" preserveAspectRatio="xMaxYMin meet">
         <g id="arrow_out" transform="scale(0.3 0.3)">
          <a xlink:href="classinfra_1_1_json_sub_parser_afb1b7fbe41c26db6aef05316d9508caf_cgraph_org.svg" target="_base">
           <rect id="button" ry="5" rx="5" y="6" x="6" height="38" width="38"
                fill="#f2f5e9" fill-opacity="0.5" stroke="#606060" stroke-width="1.0"/>
           <path id="arrow"
             d="M 11.500037,31.436501 C 11.940474,20.09759 22.043105,11.32322 32.158766,21.979434 L 37.068811,17.246167 C 37.068811,17.246167 37.088388,32 37.088388,32 L 22.160133,31.978069 C 22.160133,31.978069 26.997745,27.140456 26.997745,27.140456 C 18.528582,18.264221 13.291696,25.230495 11.500037,31.436501 z"
             style="fill:#404040;"/>
          </a>
         </g>
        </svg>
</svg>
