<?xml version="1.0" encoding="UTF-8" standalone="no"?>
<!DOCTYPE svg PUBLIC "-//W3C//DTD SVG 1.1//EN"
 "http://www.w3.org/Graphics/SVG/1.1/DTD/svg11.dtd">
<!-- Generated by graphviz version 2.38.0 (20140413.2041)
 -->
<!-- Title: infra::JsonSubParser::ProcessEscapedData Pages: 1 -->
<svg width="439pt" height="88pt"
 viewBox="0.00 0.00 439.00 88.00" xmlns="http://www.w3.org/2000/svg" xmlns:xlink="http://www.w3.org/1999/xlink">
<g id="graph0" class="graph" transform="scale(1 1) rotate(0) translate(4 84)">
<title>infra::JsonSubParser::ProcessEscapedData</title>
<polygon fill="white" stroke="none" points="-4,4 -4,-84 435,-84 435,4 -4,4"/>
<!-- Node40 -->
<g id="node1" class="node"><title>Node40</title>
<polygon fill="#bfbfbf" stroke="black" points="0,-24.5 0,-54.5 117,-54.5 117,-24.5 0,-24.5"/>
<text text-anchor="start" x="8" y="-42.5" font-family="Helvetica,sans-Serif" font-size="10.00">infra::JsonSubParser</text>
<text text-anchor="middle" x="58.5" y="-31.5" font-family="Helvetica,sans-Serif" font-size="10.00">::ProcessEscapedData</text>
</g>
<!-- Node41 -->
<g id="node2" class="node"><title>Node41</title>
<g id="a_node2"><a xlink:href="../../dd/d09/classinfra_1_1_json_sub_parser.html#afb1b7fbe41c26db6aef05316d9508caf" target="_top" xlink:title="infra::JsonSubParser\l::FeedToken">
<polygon fill="white" stroke="black" points="153,-24.5 153,-54.5 260,-54.5 260,-24.5 153,-24.5"/>
<text text-anchor="start" x="161" y="-42.5" font-family="Helvetica,sans-Serif" font-size="10.00">infra::JsonSubParser</text>
<text text-anchor="middle" x="206.5" y="-31.5" font-family="Helvetica,sans-Serif" font-size="10.00">::FeedToken</text>
</a>
</g>
</g>
<!-- Node40&#45;&gt;Node41 -->
<g id="edge1" class="edge"><title>Node40&#45;&gt;Node41</title>
<path fill="none" stroke="midnightblue" d="M127.26,-39.5C135.89,-39.5 144.618,-39.5 152.958,-39.5"/>
<polygon fill="midnightblue" stroke="midnightblue" points="127.203,-36.0001 117.203,-39.5 127.203,-43.0001 127.203,-36.0001"/>
</g>
<!-- Node42 -->
<g id="node3" class="node"><title>Node42</title>
<g id="a_node3"><a xlink:href="../../d2/d55/classinfra_1_1_json_sub_object_parser.html#a54ade2c865923d904fee7d9f5b029baf" target="_top" xlink:title="infra::JsonSubObjectParser\l::Feed">
<polygon fill="white" stroke="black" points="296,-49.5 296,-79.5 431,-79.5 431,-49.5 296,-49.5"/>
<text text-anchor="start" x="304" y="-67.5" font-family="Helvetica,sans-Serif" font-size="10.00">infra::JsonSubObjectParser</text>
<text text-anchor="middle" x="363.5" y="-56.5" font-family="Helvetica,sans-Serif" font-size="10.00">::Feed</text>
</a>
</g>
</g>
<!-- Node41&#45;&gt;Node42 -->
<g id="edge2" class="edge"><title>Node41&#45;&gt;Node42</title>
<path fill="none" stroke="midnightblue" d="M270.467,-49.6559C278.83,-51.0048 287.428,-52.3915 295.851,-53.7501"/>
<polygon fill="midnightblue" stroke="midnightblue" points="270.838,-46.1707 260.409,-48.0337 269.724,-53.0814 270.838,-46.1707"/>
</g>
<!-- Node43 -->
<g id="node4" class="node"><title>Node43</title>
<g id="a_node4"><a xlink:href="../../d2/d36/classinfra_1_1_json_sub_array_parser.html#aee8c45bfcf7f58e9422493d56019fbc8" target="_top" xlink:title="infra::JsonSubArrayParser\l::Feed">
<polygon fill="white" stroke="black" points="298.5,-0.5 298.5,-30.5 428.5,-30.5 428.5,-0.5 298.5,-0.5"/>
<text text-anchor="start" x="306.5" y="-18.5" font-family="Helvetica,sans-Serif" font-size="10.00">infra::JsonSubArrayParser</text>
<text text-anchor="middle" x="363.5" y="-7.5" font-family="Helvetica,sans-Serif" font-size="10.00">::Feed</text>
</a>
</g>
</g>
<!-- Node41&#45;&gt;Node43 -->
<g id="edge3" class="edge"><title>Node41&#45;&gt;Node43</title>
<path fill="none" stroke="midnightblue" d="M270.583,-29.7323C279.725,-28.3168 289.143,-26.8585 298.306,-25.4397"/>
<polygon fill="midnightblue" stroke="midnightblue" points="269.755,-26.3187 260.409,-31.3077 270.827,-33.2362 269.755,-26.3187"/>
</g>
</g>
</svg>
