<?xml version="1.0" encoding="UTF-8" standalone="no"?>
<!DOCTYPE svg PUBLIC "-//W3C//DTD SVG 1.1//EN"
 "http://www.w3.org/Graphics/SVG/1.1/DTD/svg11.dtd">
<!-- Generated by graphviz version 2.38.0 (20140413.2041)
 -->
<!-- Title: infra::JsonSubParser::ProcessEscapedData Pages: 1 -->
<svg width="431pt" height="88pt"
 viewBox="0.00 0.00 431.00 88.00" xmlns="http://www.w3.org/2000/svg" xmlns:xlink="http://www.w3.org/1999/xlink">
<g id="graph0" class="graph" transform="scale(1 1) rotate(0) translate(4 84)">
<title>infra::JsonSubParser::ProcessEscapedData</title>
<polygon fill="white" stroke="none" points="-4,4 -4,-84 427,-84 427,4 -4,4"/>
<!-- Node36 -->
<g id="node1" class="node"><title>Node36</title>
<polygon fill="#bfbfbf" stroke="black" points="0,-24.5 0,-54.5 117,-54.5 117,-24.5 0,-24.5"/>
<text text-anchor="start" x="8" y="-42.5" font-family="Helvetica,sans-Serif" font-size="10.00">infra::JsonSubParser</text>
<text text-anchor="middle" x="58.5" y="-31.5" font-family="Helvetica,sans-Serif" font-size="10.00">::ProcessEscapedData</text>
</g>
<!-- Node37 -->
<g id="node2" class="node"><title>Node37</title>
<g id="a_node2"><a xlink:href="../../dd/d09/classinfra_1_1_json_sub_parser.html#ad7720b7d93156301e4855651ff1199de" target="_top" xlink:title="infra::JsonSubParser\l::AddToValueBuffer">
<polygon fill="white" stroke="black" points="153,-24.5 153,-54.5 260,-54.5 260,-24.5 153,-24.5"/>
<text text-anchor="start" x="161" y="-42.5" font-family="Helvetica,sans-Serif" font-size="10.00">infra::JsonSubParser</text>
<text text-anchor="middle" x="206.5" y="-31.5" font-family="Helvetica,sans-Serif" font-size="10.00">::AddToValueBuffer</text>
</a>
</g>
</g>
<!-- Node36&#45;&gt;Node37 -->
<g id="edge1" class="edge"><title>Node36&#45;&gt;Node37</title>
<path fill="none" stroke="midnightblue" d="M117.203,-39.5C125.59,-39.5 134.258,-39.5 142.739,-39.5"/>
<polygon fill="midnightblue" stroke="midnightblue" points="142.958,-43.0001 152.958,-39.5 142.958,-36.0001 142.958,-43.0001"/>
</g>
<!-- Node38 -->
<g id="node3" class="node"><title>Node38</title>
<g id="a_node3"><a xlink:href="../../dd/d09/classinfra_1_1_json_sub_parser.html#a0d6841fa369a3fb1f8e421934421de1e" target="_top" xlink:title="infra::JsonSubParser\l::FoundToken">
<polygon fill="white" stroke="black" points="306,-49.5 306,-79.5 413,-79.5 413,-49.5 306,-49.5"/>
<text text-anchor="start" x="314" y="-67.5" font-family="Helvetica,sans-Serif" font-size="10.00">infra::JsonSubParser</text>
<text text-anchor="middle" x="359.5" y="-56.5" font-family="Helvetica,sans-Serif" font-size="10.00">::FoundToken</text>
</a>
</g>
</g>
<!-- Node37&#45;&gt;Node38 -->
<g id="edge2" class="edge"><title>Node37&#45;&gt;Node38</title>
<path fill="none" stroke="midnightblue" d="M260.312,-48.2438C271.758,-50.1387 283.97,-52.1606 295.756,-54.1118"/>
<polygon fill="midnightblue" stroke="midnightblue" points="295.535,-57.6229 305.972,-55.8034 296.678,-50.7169 295.535,-57.6229"/>
</g>
<!-- Node39 -->
<g id="node4" class="node"><title>Node39</title>
<g id="a_node4"><a xlink:href="../../d1/d2a/classinfra_1_1_bounded_string_base.html#aca8ce15650affe10787e972764ebe08b" target="_top" xlink:title="infra::BoundedStringBase\l::full">
<polygon fill="white" stroke="black" points="296,-0.5 296,-30.5 423,-30.5 423,-0.5 296,-0.5"/>
<text text-anchor="start" x="304" y="-18.5" font-family="Helvetica,sans-Serif" font-size="10.00">infra::BoundedStringBase</text>
<text text-anchor="middle" x="359.5" y="-7.5" font-family="Helvetica,sans-Serif" font-size="10.00">::full</text>
</a>
</g>
</g>
<!-- Node37&#45;&gt;Node39 -->
<g id="edge3" class="edge"><title>Node37&#45;&gt;Node39</title>
<path fill="none" stroke="midnightblue" d="M260.312,-31.106C268.565,-29.7944 277.216,-28.4194 285.818,-27.0522"/>
<polygon fill="midnightblue" stroke="midnightblue" points="286.54,-30.4814 295.866,-25.455 285.441,-23.5682 286.54,-30.4814"/>
</g>
</g>
</svg>
