<?xml version="1.0" encoding="UTF-8" standalone="no"?>
<!DOCTYPE svg PUBLIC "-//W3C//DTD SVG 1.1//EN"
 "http://www.w3.org/Graphics/SVG/1.1/DTD/svg11.dtd">
<!-- Generated by graphviz version 2.38.0 (20140413.2041)
 -->
<!-- Title: infra::JsonSubParser::CopyAndClear Pages: 1 -->
<svg width="286pt" height="39pt"
 viewBox="0.00 0.00 286.00 39.00" xmlns="http://www.w3.org/2000/svg" xmlns:xlink="http://www.w3.org/1999/xlink">
<g id="graph0" class="graph" transform="scale(1 1) rotate(0) translate(4 35)">
<title>infra::JsonSubParser::CopyAndClear</title>
<polygon fill="white" stroke="none" points="-4,4 -4,-35 282,-35 282,4 -4,4"/>
<!-- Node15 -->
<g id="node1" class="node"><title>Node15</title>
<polygon fill="#bfbfbf" stroke="black" points="0,-0.5 0,-30.5 107,-30.5 107,-0.5 0,-0.5"/>
<text text-anchor="start" x="8" y="-18.5" font-family="Helvetica,sans-Serif" font-size="10.00">infra::JsonSubParser</text>
<text text-anchor="middle" x="53.5" y="-7.5" font-family="Helvetica,sans-Serif" font-size="10.00">::CopyAndClear</text>
</g>
<!-- Node16 -->
<g id="node2" class="node"><title>Node16</title>
<g id="a_node2"><a xlink:href="../../d2/d55/classinfra_1_1_json_sub_object_parser.html#a54ade2c865923d904fee7d9f5b029baf" target="_top" xlink:title="infra::JsonSubObjectParser\l::Feed">
<polygon fill="white" stroke="black" points="143,-0.5 143,-30.5 278,-30.5 278,-0.5 143,-0.5"/>
<text text-anchor="start" x="151" y="-18.5" font-family="Helvetica,sans-Serif" font-size="10.00">infra::JsonSubObjectParser</text>
<text text-anchor="middle" x="210.5" y="-7.5" font-family="Helvetica,sans-Serif" font-size="10.00">::Feed</text>
</a>
</g>
</g>
<!-- Node15&#45;&gt;Node16 -->
<g id="edge1" class="edge"><title>Node15&#45;&gt;Node16</title>
<path fill="none" stroke="midnightblue" d="M117.467,-15.5C125.83,-15.5 134.428,-15.5 142.851,-15.5"/>
<polygon fill="midnightblue" stroke="midnightblue" points="117.409,-12.0001 107.409,-15.5 117.409,-19.0001 117.409,-12.0001"/>
</g>
</g>
</svg>
