<?xml version="1.0" encoding="UTF-8" standalone="no"?>
<!DOCTYPE svg PUBLIC "-//W3C//DTD SVG 1.1//EN"
 "http://www.w3.org/Graphics/SVG/1.1/DTD/svg11.dtd">
<!-- Generated by graphviz version 2.38.0 (20140413.2041)
 -->
<!-- Title: services::DatagramExchange Pages: 1 -->
<svg width="160pt" height="252pt"
 viewBox="0.00 0.00 160.00 252.00" xmlns="http://www.w3.org/2000/svg" xmlns:xlink="http://www.w3.org/1999/xlink">
<g id="graph0" class="graph" transform="scale(1 1) rotate(0) translate(4 248)">
<title>services::DatagramExchange</title>
<polygon fill="white" stroke="none" points="-4,4 -4,-248 156,-248 156,4 -4,4"/>
<!-- Node4 -->
<g id="node1" class="node"><title>Node4</title>
<polygon fill="#bfbfbf" stroke="black" points="4.5,-0.5 4.5,-19.5 147.5,-19.5 147.5,-0.5 4.5,-0.5"/>
<text text-anchor="middle" x="76" y="-7.5" font-family="Helvetica,sans-Serif" font-size="10.00">services::DatagramExchange</text>
</g>
<!-- Node5 -->
<g id="node2" class="node"><title>Node5</title>
<g id="a_node2"><a xlink:href="../../d1/db2/classinfra_1_1_subject.html" target="_top" xlink:title="infra::Subject\&lt; Datagram\lExchangeObserver \&gt;">
<polygon fill="white" stroke="black" points="13.5,-57.5 13.5,-87.5 138.5,-87.5 138.5,-57.5 13.5,-57.5"/>
<text text-anchor="start" x="21.5" y="-75.5" font-family="Helvetica,sans-Serif" font-size="10.00">infra::Subject&lt; Datagram</text>
<text text-anchor="middle" x="76" y="-64.5" font-family="Helvetica,sans-Serif" font-size="10.00">ExchangeObserver &gt;</text>
</a>
</g>
</g>
<!-- Node5&#45;&gt;Node4 -->
<g id="edge1" class="edge"><title>Node5&#45;&gt;Node4</title>
<path fill="none" stroke="midnightblue" d="M76,-47.3524C76,-37.5132 76,-26.7753 76,-19.5399"/>
<polygon fill="midnightblue" stroke="midnightblue" points="72.5001,-47.468 76,-57.468 79.5001,-47.4681 72.5001,-47.468"/>
</g>
<!-- Node6 -->
<g id="node3" class="node"><title>Node6</title>
<g id="a_node3"><a xlink:href="../../dc/d4c/classinfra_1_1_single_observer.html" target="_top" xlink:title="infra::SingleObserver\l\&lt; DatagramExchangeObserver,\l ObserverSubjectType \&gt;">
<polygon fill="white" stroke="black" points="0,-135.5 0,-176.5 152,-176.5 152,-135.5 0,-135.5"/>
<text text-anchor="start" x="8" y="-164.5" font-family="Helvetica,sans-Serif" font-size="10.00">infra::SingleObserver</text>
<text text-anchor="start" x="8" y="-153.5" font-family="Helvetica,sans-Serif" font-size="10.00">&lt; DatagramExchangeObserver,</text>
<text text-anchor="middle" x="76" y="-142.5" font-family="Helvetica,sans-Serif" font-size="10.00"> ObserverSubjectType &gt;</text>
</a>
</g>
</g>
<!-- Node6&#45;&gt;Node5 -->
<g id="edge2" class="edge"><title>Node6&#45;&gt;Node5</title>
<path fill="none" stroke="#9a32cd" stroke-dasharray="5,2" d="M76,-125.025C76,-112.258 76,-97.9702 76,-87.6846"/>
<polygon fill="#9a32cd" stroke="#9a32cd" points="72.5001,-125.271 76,-135.271 79.5001,-125.271 72.5001,-125.271"/>
<text text-anchor="middle" x="96" y="-109" font-family="Helvetica,sans-Serif" font-size="10.00"> observer</text>
</g>
<!-- Node7 -->
<g id="node4" class="node"><title>Node7</title>
<polygon fill="white" stroke="#bfbfbf" points="37.5,-224.5 37.5,-243.5 114.5,-243.5 114.5,-224.5 37.5,-224.5"/>
<text text-anchor="middle" x="76" y="-231.5" font-family="Helvetica,sans-Serif" font-size="10.00">SubjectType *</text>
</g>
<!-- Node7&#45;&gt;Node6 -->
<g id="edge3" class="edge"><title>Node7&#45;&gt;Node6</title>
<path fill="none" stroke="#9a32cd" stroke-dasharray="5,2" d="M76,-214.137C76,-202.729 76,-188.207 76,-176.658"/>
<polygon fill="#9a32cd" stroke="#9a32cd" points="72.5001,-214.282 76,-224.282 79.5001,-214.282 72.5001,-214.282"/>
<text text-anchor="middle" x="93.5" y="-198" font-family="Helvetica,sans-Serif" font-size="10.00"> subject</text>
</g>
</g>
</svg>
