<?xml version="1.0" encoding="UTF-8" standalone="no"?>
<!DOCTYPE svg PUBLIC "-//W3C//DTD SVG 1.1//EN"
 "http://www.w3.org/Graphics/SVG/1.1/DTD/svg11.dtd">
<!-- Generated by graphviz version 2.38.0 (20140413.2041)
 -->
<!-- Title: services::MqttClient Pages: 1 -->
<svg width="135pt" height="151pt"
 viewBox="0.00 0.00 135.00 151.00" xmlns="http://www.w3.org/2000/svg" xmlns:xlink="http://www.w3.org/1999/xlink">
<g id="graph0" class="graph" transform="scale(1 1) rotate(0) translate(4 147)">
<title>services::MqttClient</title>
<polygon fill="white" stroke="none" points="-4,4 -4,-147 131,-147 131,4 -4,4"/>
<!-- Node0 -->
<g id="node1" class="node"><title>Node0</title>
<polygon fill="#bfbfbf" stroke="black" points="12.5,-56.5 12.5,-75.5 114.5,-75.5 114.5,-56.5 12.5,-56.5"/>
<text text-anchor="middle" x="63.5" y="-63.5" font-family="Helvetica,sans-Serif" font-size="10.00">services::MqttClient</text>
</g>
<!-- Node2 -->
<g id="node3" class="node"><title>Node2</title>
<g id="a_node3"><a xlink:href="../../d6/d9d/classservices_1_1_mqtt_client_impl.html" target="_top" xlink:title="services::MqttClientImpl">
<polygon fill="white" stroke="black" points="3.5,-0.5 3.5,-19.5 123.5,-19.5 123.5,-0.5 3.5,-0.5"/>
<text text-anchor="middle" x="63.5" y="-7.5" font-family="Helvetica,sans-Serif" font-size="10.00">services::MqttClientImpl</text>
</a>
</g>
</g>
<!-- Node0&#45;&gt;Node2 -->
<g id="edge2" class="edge"><title>Node0&#45;&gt;Node2</title>
<path fill="none" stroke="midnightblue" d="M63.5,-45.8045C63.5,-36.9102 63.5,-26.7798 63.5,-19.7511"/>
<polygon fill="midnightblue" stroke="midnightblue" points="60.0001,-46.083 63.5,-56.083 67.0001,-46.083 60.0001,-46.083"/>
</g>
<!-- Node1 -->
<g id="node2" class="node"><title>Node1</title>
<g id="a_node2"><a xlink:href="../../d1/db2/classinfra_1_1_subject.html" target="_top" xlink:title="infra::Subject\&lt; MqttClient\lObserver \&gt;">
<polygon fill="white" stroke="black" points="0,-112.5 0,-142.5 127,-142.5 127,-112.5 0,-112.5"/>
<text text-anchor="start" x="8" y="-130.5" font-family="Helvetica,sans-Serif" font-size="10.00">infra::Subject&lt; MqttClient</text>
<text text-anchor="middle" x="63.5" y="-119.5" font-family="Helvetica,sans-Serif" font-size="10.00">Observer &gt;</text>
</a>
</g>
</g>
<!-- Node1&#45;&gt;Node0 -->
<g id="edge1" class="edge"><title>Node1&#45;&gt;Node0</title>
<path fill="none" stroke="midnightblue" d="M63.5,-102.289C63.5,-92.857 63.5,-82.6548 63.5,-75.6578"/>
<polygon fill="midnightblue" stroke="midnightblue" points="60.0001,-102.399 63.5,-112.399 67.0001,-102.399 60.0001,-102.399"/>
</g>
</g>
</svg>
