<?xml version="1.0" encoding="UTF-8" standalone="no"?>
<!DOCTYPE svg PUBLIC "-//W3C//DTD SVG 1.1//EN"
 "http://www.w3.org/Graphics/SVG/1.1/DTD/svg11.dtd">
<!-- Generated by graphviz version 2.38.0 (20140413.2041)
 -->
<!-- Title: services::ConnectionSerial::SerialConnectionStreamReader::Extract Pages: 1 -->
<svg width="471pt" height="264pt"
 viewBox="0.00 0.00 471.00 264.00" xmlns="http://www.w3.org/2000/svg" xmlns:xlink="http://www.w3.org/1999/xlink">
<g id="graph0" class="graph" transform="scale(1 1) rotate(0) translate(4 260)">
<title>services::ConnectionSerial::SerialConnectionStreamReader::Extract</title>
<polygon fill="white" stroke="none" points="-4,4 -4,-260 467,-260 467,4 -4,4"/>
<!-- Node12 -->
<g id="node1" class="node"><title>Node12</title>
<polygon fill="#bfbfbf" stroke="black" points="0,-105 0,-146 158,-146 158,-105 0,-105"/>
<text text-anchor="start" x="8" y="-134" font-family="Helvetica,sans-Serif" font-size="10.00">services::ConnectionSerial</text>
<text text-anchor="start" x="8" y="-123" font-family="Helvetica,sans-Serif" font-size="10.00">::SerialConnectionStreamReader</text>
<text text-anchor="middle" x="79" y="-112" font-family="Helvetica,sans-Serif" font-size="10.00">::Extract</text>
</g>
<!-- Node13 -->
<g id="node2" class="node"><title>Node13</title>
<g id="a_node2"><a xlink:href="../../d0/de3/namespaceinfra.html#ad2eae6128b7a057916770ee2ccc8945c" target="_top" xlink:title="infra::Copy">
<polygon fill="white" stroke="black" points="222.5,-220 222.5,-239 285.5,-239 285.5,-220 222.5,-220"/>
<text text-anchor="middle" x="254" y="-227" font-family="Helvetica,sans-Serif" font-size="10.00">infra::Copy</text>
</a>
</g>
</g>
<!-- Node12&#45;&gt;Node13 -->
<g id="edge1" class="edge"><title>Node12&#45;&gt;Node13</title>
<path fill="none" stroke="midnightblue" d="M105.624,-146.015C128.042,-163.331 161.944,-188.024 194,-205.5 201.1,-209.37 208.957,-212.988 216.561,-216.181"/>
<polygon fill="midnightblue" stroke="midnightblue" points="215.397,-219.486 225.98,-219.986 218.019,-212.995 215.397,-219.486"/>
</g>
<!-- Node15 -->
<g id="node4" class="node"><title>Node15</title>
<g id="a_node4"><a xlink:href="../../d0/d6d/classinfra_1_1_memory_range.html#ae8fbbf531d3696b6a64ac13385acdc66" target="_top" xlink:title="infra::MemoryRange\l::size">
<polygon fill="white" stroke="black" points="354.5,-176.5 354.5,-206.5 458.5,-206.5 458.5,-176.5 354.5,-176.5"/>
<text text-anchor="start" x="362.5" y="-194.5" font-family="Helvetica,sans-Serif" font-size="10.00">infra::MemoryRange</text>
<text text-anchor="middle" x="406.5" y="-183.5" font-family="Helvetica,sans-Serif" font-size="10.00">::size</text>
</a>
</g>
</g>
<!-- Node12&#45;&gt;Node15 -->
<g id="edge8" class="edge"><title>Node12&#45;&gt;Node15</title>
<path fill="none" stroke="midnightblue" d="M121.211,-146.023C142.441,-155.676 169.049,-166.386 194,-172.5 243.619,-184.66 301.492,-189.222 344.144,-190.85"/>
<polygon fill="midnightblue" stroke="midnightblue" points="344.258,-194.355 354.371,-191.195 344.495,-187.359 344.258,-194.355"/>
</g>
<!-- Node16 -->
<g id="node5" class="node"><title>Node16</title>
<g id="a_node5"><a xlink:href="../../d5/d4a/classinfra_1_1_stream_error_policy.html#ac1558d645711dd9685f926115719eb15" target="_top" xlink:title="infra::StreamErrorPolicy\l::Failed">
<polygon fill="white" stroke="black" points="194,-132.5 194,-162.5 314,-162.5 314,-132.5 194,-132.5"/>
<text text-anchor="start" x="202" y="-150.5" font-family="Helvetica,sans-Serif" font-size="10.00">infra::StreamErrorPolicy</text>
<text text-anchor="middle" x="254" y="-139.5" font-family="Helvetica,sans-Serif" font-size="10.00">::Failed</text>
</a>
</g>
</g>
<!-- Node12&#45;&gt;Node16 -->
<g id="edge4" class="edge"><title>Node12&#45;&gt;Node16</title>
<path fill="none" stroke="midnightblue" d="M158.149,-135.438C166.679,-136.523 175.319,-137.621 183.732,-138.691"/>
<polygon fill="midnightblue" stroke="midnightblue" points="183.498,-142.19 193.859,-139.979 184.381,-135.246 183.498,-142.19"/>
</g>
<!-- Node17 -->
<g id="node6" class="node"><title>Node17</title>
<g id="a_node6"><a xlink:href="../../d0/de3/namespaceinfra.html#a97dc5194236a205b697e668f00d42353" target="_top" xlink:title="infra::Head">
<polygon fill="white" stroke="black" points="222.5,-94 222.5,-113 285.5,-113 285.5,-94 222.5,-94"/>
<text text-anchor="middle" x="254" y="-101" font-family="Helvetica,sans-Serif" font-size="10.00">infra::Head</text>
</a>
</g>
</g>
<!-- Node12&#45;&gt;Node17 -->
<g id="edge5" class="edge"><title>Node12&#45;&gt;Node17</title>
<path fill="none" stroke="midnightblue" d="M158.149,-115.562C176.806,-113.189 195.986,-110.75 212.174,-108.692"/>
<polygon fill="midnightblue" stroke="midnightblue" points="212.866,-112.132 222.344,-107.398 211.983,-105.188 212.866,-112.132"/>
</g>
<!-- Node19 -->
<g id="node8" class="node"><title>Node19</title>
<g id="a_node8"><a xlink:href="../../d5/d4a/classinfra_1_1_stream_error_policy.html#a708126a1c40b64fd503bed2d8b8f9700" target="_top" xlink:title="infra::StreamErrorPolicy\l::ReportResult">
<polygon fill="white" stroke="black" points="194,-44.5 194,-74.5 314,-74.5 314,-44.5 194,-44.5"/>
<text text-anchor="start" x="202" y="-62.5" font-family="Helvetica,sans-Serif" font-size="10.00">infra::StreamErrorPolicy</text>
<text text-anchor="middle" x="254" y="-51.5" font-family="Helvetica,sans-Serif" font-size="10.00">::ReportResult</text>
</a>
</g>
</g>
<!-- Node12&#45;&gt;Node19 -->
<g id="edge7" class="edge"><title>Node12&#45;&gt;Node19</title>
<path fill="none" stroke="midnightblue" d="M133.79,-104.979C156.255,-96.4086 182.171,-86.5214 204.09,-78.1593"/>
<polygon fill="midnightblue" stroke="midnightblue" points="205.438,-81.391 213.534,-74.5564 202.943,-74.8508 205.438,-81.391"/>
</g>
<!-- Node20 -->
<g id="node9" class="node"><title>Node20</title>
<g id="a_node9"><a xlink:href="../../d0/de3/namespaceinfra.html#a3f099eea3bea698ca5ea5a8a028ee2b5" target="_top" xlink:title="infra::Tail">
<polygon fill="white" stroke="black" points="226,-6 226,-25 282,-25 282,-6 226,-6"/>
<text text-anchor="middle" x="254" y="-13" font-family="Helvetica,sans-Serif" font-size="10.00">infra::Tail</text>
</a>
</g>
</g>
<!-- Node12&#45;&gt;Node20 -->
<g id="edge9" class="edge"><title>Node12&#45;&gt;Node20</title>
<path fill="none" stroke="midnightblue" d="M101.009,-104.791C122.693,-84.4185 158.299,-53.6622 194,-34.5 200.856,-30.8199 208.547,-27.7028 216.053,-25.1243"/>
<polygon fill="midnightblue" stroke="midnightblue" points="217.263,-28.4123 225.729,-22.0428 215.139,-21.7424 217.263,-28.4123"/>
</g>
<!-- Node14 -->
<g id="node3" class="node"><title>Node14</title>
<g id="a_node3"><a xlink:href="../../d0/d6d/classinfra_1_1_memory_range.html#a7a83ceae17802af5ecebfb9557912ece" target="_top" xlink:title="infra::MemoryRange\l::begin">
<polygon fill="white" stroke="black" points="354.5,-225.5 354.5,-255.5 458.5,-255.5 458.5,-225.5 354.5,-225.5"/>
<text text-anchor="start" x="362.5" y="-243.5" font-family="Helvetica,sans-Serif" font-size="10.00">infra::MemoryRange</text>
<text text-anchor="middle" x="406.5" y="-232.5" font-family="Helvetica,sans-Serif" font-size="10.00">::begin</text>
</a>
</g>
</g>
<!-- Node13&#45;&gt;Node14 -->
<g id="edge2" class="edge"><title>Node13&#45;&gt;Node14</title>
<path fill="none" stroke="midnightblue" d="M285.819,-231.753C302.666,-232.984 324.142,-234.554 344.239,-236.022"/>
<polygon fill="midnightblue" stroke="midnightblue" points="344.049,-239.518 354.278,-236.756 344.559,-232.536 344.049,-239.518"/>
</g>
<!-- Node13&#45;&gt;Node15 -->
<g id="edge3" class="edge"><title>Node13&#45;&gt;Node15</title>
<path fill="none" stroke="midnightblue" d="M285.819,-221.718C302.743,-217.445 324.339,-211.993 344.514,-206.898"/>
<polygon fill="midnightblue" stroke="midnightblue" points="345.439,-210.275 354.278,-204.433 343.725,-203.488 345.439,-210.275"/>
</g>
<!-- Node18 -->
<g id="node7" class="node"><title>Node18</title>
<g id="a_node7"><a xlink:href="../../d0/d6d/classinfra_1_1_memory_range.html#a322f6976f2774c6ba7494b9e27f07624" target="_top" xlink:title="infra::MemoryRange\l::shrink_from_back_to">
<polygon fill="white" stroke="black" points="350,-88.5 350,-118.5 463,-118.5 463,-88.5 350,-88.5"/>
<text text-anchor="start" x="358" y="-106.5" font-family="Helvetica,sans-Serif" font-size="10.00">infra::MemoryRange</text>
<text text-anchor="middle" x="406.5" y="-95.5" font-family="Helvetica,sans-Serif" font-size="10.00">::shrink_from_back_to</text>
</a>
</g>
</g>
<!-- Node17&#45;&gt;Node18 -->
<g id="edge6" class="edge"><title>Node17&#45;&gt;Node18</title>
<path fill="none" stroke="midnightblue" d="M285.819,-103.5C301.419,-103.5 320.988,-103.5 339.755,-103.5"/>
<polygon fill="midnightblue" stroke="midnightblue" points="339.768,-107 349.768,-103.5 339.768,-100 339.768,-107"/>
</g>
<!-- Node21 -->
<g id="node10" class="node"><title>Node21</title>
<g id="a_node10"><a xlink:href="../../d0/d6d/classinfra_1_1_memory_range.html#a6b92a527f073dc138ec1a7d779f0d8e2" target="_top" xlink:title="infra::MemoryRange\l::shrink_from_front_to">
<polygon fill="white" stroke="black" points="351.5,-0.5 351.5,-30.5 461.5,-30.5 461.5,-0.5 351.5,-0.5"/>
<text text-anchor="start" x="359.5" y="-18.5" font-family="Helvetica,sans-Serif" font-size="10.00">infra::MemoryRange</text>
<text text-anchor="middle" x="406.5" y="-7.5" font-family="Helvetica,sans-Serif" font-size="10.00">::shrink_from_front_to</text>
</a>
</g>
</g>
<!-- Node20&#45;&gt;Node21 -->
<g id="edge10" class="edge"><title>Node20&#45;&gt;Node21</title>
<path fill="none" stroke="midnightblue" d="M282.254,-15.5C298.779,-15.5 320.603,-15.5 341.289,-15.5"/>
<polygon fill="midnightblue" stroke="midnightblue" points="341.325,-19.0001 351.325,-15.5 341.325,-12.0001 341.325,-19.0001"/>
</g>
</g>
</svg>
