<?xml version="1.0" encoding="UTF-8" standalone="no"?>
<!DOCTYPE svg PUBLIC "-//W3C//DTD SVG 1.1//EN"
 "http://www.w3.org/Graphics/SVG/1.1/DTD/svg11.dtd">
<!-- Generated by graphviz version 2.38.0 (20140413.2041)
 -->
<!-- Title: services::ConnectionSerial::SerialConnectionStreamReader::ExtractContiguousRange Pages: 1 -->
<svg width="458pt" height="176pt"
 viewBox="0.00 0.00 458.00 176.00" xmlns="http://www.w3.org/2000/svg" xmlns:xlink="http://www.w3.org/1999/xlink">
<g id="graph0" class="graph" transform="scale(1 1) rotate(0) translate(4 172)">
<title>services::ConnectionSerial::SerialConnectionStreamReader::ExtractContiguousRange</title>
<polygon fill="white" stroke="none" points="-4,4 -4,-172 454,-172 454,4 -4,4"/>
<!-- Node23 -->
<g id="node1" class="node"><title>Node23</title>
<polygon fill="#bfbfbf" stroke="black" points="0,-61 0,-102 158,-102 158,-61 0,-61"/>
<text text-anchor="start" x="8" y="-90" font-family="Helvetica,sans-Serif" font-size="10.00">services::ConnectionSerial</text>
<text text-anchor="start" x="8" y="-79" font-family="Helvetica,sans-Serif" font-size="10.00">::SerialConnectionStreamReader</text>
<text text-anchor="middle" x="79" y="-68" font-family="Helvetica,sans-Serif" font-size="10.00">::ExtractContiguousRange</text>
</g>
<!-- Node24 -->
<g id="node2" class="node"><title>Node24</title>
<g id="a_node2"><a xlink:href="../../d5/db7/classinfra_1_1_bounded_deque.html#a11e8b6093e259d16920cdcd2b83999c4" target="_top" xlink:title="infra::BoundedDeque\l::begin">
<polygon fill="white" stroke="black" points="194,-137.5 194,-167.5 301,-167.5 301,-137.5 194,-137.5"/>
<text text-anchor="start" x="202" y="-155.5" font-family="Helvetica,sans-Serif" font-size="10.00">infra::BoundedDeque</text>
<text text-anchor="middle" x="247.5" y="-144.5" font-family="Helvetica,sans-Serif" font-size="10.00">::begin</text>
</a>
</g>
</g>
<!-- Node23&#45;&gt;Node24 -->
<g id="edge1" class="edge"><title>Node23&#45;&gt;Node24</title>
<path fill="none" stroke="midnightblue" d="M128.159,-102.036C151.353,-111.927 178.995,-123.714 201.73,-133.409"/>
<polygon fill="midnightblue" stroke="midnightblue" points="200.574,-136.721 211.145,-137.424 203.319,-130.282 200.574,-136.721"/>
</g>
<!-- Node25 -->
<g id="node3" class="node"><title>Node25</title>
<g id="a_node3"><a xlink:href="../../d5/db7/classinfra_1_1_bounded_deque.html#ae7bdbe1764e9168b674e51e2c1ea973c" target="_top" xlink:title="infra::BoundedDeque\l::contiguous_range">
<polygon fill="white" stroke="black" points="194,-88.5 194,-118.5 301,-118.5 301,-88.5 194,-88.5"/>
<text text-anchor="start" x="202" y="-106.5" font-family="Helvetica,sans-Serif" font-size="10.00">infra::BoundedDeque</text>
<text text-anchor="middle" x="247.5" y="-95.5" font-family="Helvetica,sans-Serif" font-size="10.00">::contiguous_range</text>
</a>
</g>
</g>
<!-- Node23&#45;&gt;Node25 -->
<g id="edge2" class="edge"><title>Node23&#45;&gt;Node25</title>
<path fill="none" stroke="midnightblue" d="M158.375,-91.8558C166.89,-92.9809 175.473,-94.115 183.766,-95.2109"/>
<polygon fill="midnightblue" stroke="midnightblue" points="183.342,-98.6852 193.715,-96.5254 184.259,-91.7455 183.342,-98.6852"/>
</g>
<!-- Node26 -->
<g id="node4" class="node"><title>Node26</title>
<g id="a_node4"><a xlink:href="../../d0/de3/namespaceinfra.html#a97dc5194236a205b697e668f00d42353" target="_top" xlink:title="infra::Head">
<polygon fill="white" stroke="black" points="216,-50 216,-69 279,-69 279,-50 216,-50"/>
<text text-anchor="middle" x="247.5" y="-57" font-family="Helvetica,sans-Serif" font-size="10.00">infra::Head</text>
</a>
</g>
</g>
<!-- Node23&#45;&gt;Node26 -->
<g id="edge3" class="edge"><title>Node23&#45;&gt;Node26</title>
<path fill="none" stroke="midnightblue" d="M158.375,-71.1442C174.8,-68.9739 191.478,-66.7701 205.842,-64.8722"/>
<polygon fill="midnightblue" stroke="midnightblue" points="206.4,-68.329 215.855,-63.5492 205.483,-61.3893 206.4,-68.329"/>
</g>
<!-- Node28 -->
<g id="node6" class="node"><title>Node28</title>
<g id="a_node6"><a xlink:href="../../d0/d6d/classinfra_1_1_memory_range.html#ae8fbbf531d3696b6a64ac13385acdc66" target="_top" xlink:title="infra::MemoryRange\l::size">
<polygon fill="white" stroke="black" points="195.5,-0.5 195.5,-30.5 299.5,-30.5 299.5,-0.5 195.5,-0.5"/>
<text text-anchor="start" x="203.5" y="-18.5" font-family="Helvetica,sans-Serif" font-size="10.00">infra::MemoryRange</text>
<text text-anchor="middle" x="247.5" y="-7.5" font-family="Helvetica,sans-Serif" font-size="10.00">::size</text>
</a>
</g>
</g>
<!-- Node23&#45;&gt;Node28 -->
<g id="edge5" class="edge"><title>Node23&#45;&gt;Node28</title>
<path fill="none" stroke="midnightblue" d="M131.769,-60.979C153.293,-52.4471 178.109,-42.61 199.144,-34.2719"/>
<polygon fill="midnightblue" stroke="midnightblue" points="200.51,-37.4952 208.517,-30.5564 197.931,-30.9878 200.51,-37.4952"/>
</g>
<!-- Node27 -->
<g id="node5" class="node"><title>Node27</title>
<g id="a_node5"><a xlink:href="../../d0/d6d/classinfra_1_1_memory_range.html#a322f6976f2774c6ba7494b9e27f07624" target="_top" xlink:title="infra::MemoryRange\l::shrink_from_back_to">
<polygon fill="white" stroke="black" points="337,-44.5 337,-74.5 450,-74.5 450,-44.5 337,-44.5"/>
<text text-anchor="start" x="345" y="-62.5" font-family="Helvetica,sans-Serif" font-size="10.00">infra::MemoryRange</text>
<text text-anchor="middle" x="393.5" y="-51.5" font-family="Helvetica,sans-Serif" font-size="10.00">::shrink_from_back_to</text>
</a>
</g>
</g>
<!-- Node26&#45;&gt;Node27 -->
<g id="edge4" class="edge"><title>Node26&#45;&gt;Node27</title>
<path fill="none" stroke="midnightblue" d="M279.039,-59.5C292.918,-59.5 309.914,-59.5 326.485,-59.5"/>
<polygon fill="midnightblue" stroke="midnightblue" points="326.716,-63.0001 336.716,-59.5 326.716,-56.0001 326.716,-63.0001"/>
</g>
</g>
</svg>
