<?xml version="1.0" encoding="UTF-8" standalone="no"?>
<!DOCTYPE svg PUBLIC "-//W3C//DTD SVG 1.1//EN"
 "http://www.w3.org/Graphics/SVG/1.1/DTD/svg11.dtd">
<!-- Generated by graphviz version 2.38.0 (20140413.2041)
 -->
<!-- Title: infra::FixedPoint::AsUnscaled Pages: 1 -->
<svg width="225pt" height="180pt"
 viewBox="0.00 0.00 225.00 180.00" xmlns="http://www.w3.org/2000/svg" xmlns:xlink="http://www.w3.org/1999/xlink">
<g id="graph0" class="graph" transform="scale(1 1) rotate(0) translate(4 176)">
<title>infra::FixedPoint::AsUnscaled</title>
<polygon fill="white" stroke="none" points="-4,4 -4,-176 221,-176 221,4 -4,4"/>
<!-- Node9 -->
<g id="node1" class="node"><title>Node9</title>
<polygon fill="#bfbfbf" stroke="black" points="0,-71 0,-101 93,-101 93,-71 0,-71"/>
<text text-anchor="start" x="8" y="-89" font-family="Helvetica,sans-Serif" font-size="10.00">infra::FixedPoint::</text>
<text text-anchor="middle" x="46.5" y="-78" font-family="Helvetica,sans-Serif" font-size="10.00">AsUnscaled</text>
</g>
<!-- Node10 -->
<g id="node2" class="node"><title>Node10</title>
<g id="a_node2"><a xlink:href="../../d0/de3/namespaceinfra.html#a6434874f460950c701449f155f87226e" target="_top" xlink:title="infra::operator!=">
<polygon fill="white" stroke="black" points="131,-152.5 131,-171.5 215,-171.5 215,-152.5 131,-152.5"/>
<text text-anchor="middle" x="173" y="-159.5" font-family="Helvetica,sans-Serif" font-size="10.00">infra::operator!=</text>
</a>
</g>
</g>
<!-- Node9&#45;&gt;Node10 -->
<g id="edge1" class="edge"><title>Node9&#45;&gt;Node10</title>
<path fill="none" stroke="midnightblue" d="M74.9577,-107.212C90.3651,-118.593 110.216,-132.414 129,-143 134.973,-146.366 141.655,-149.569 147.939,-152.353"/>
<polygon fill="midnightblue" stroke="midnightblue" points="76.994,-104.364 66.8902,-101.176 72.8005,-109.969 76.994,-104.364"/>
</g>
<!-- Node11 -->
<g id="node3" class="node"><title>Node11</title>
<g id="a_node3"><a xlink:href="../../d0/de3/namespaceinfra.html#aa4ebfeba5eee6feaea4f802c4d271c7c" target="_top" xlink:title="infra::operator\&lt;">
<polygon fill="white" stroke="black" points="132,-114.5 132,-133.5 214,-133.5 214,-114.5 132,-114.5"/>
<text text-anchor="middle" x="173" y="-121.5" font-family="Helvetica,sans-Serif" font-size="10.00">infra::operator&lt;</text>
</a>
</g>
</g>
<!-- Node9&#45;&gt;Node11 -->
<g id="edge2" class="edge"><title>Node9&#45;&gt;Node11</title>
<path fill="none" stroke="midnightblue" d="M102.948,-102.924C115.908,-106.879 129.266,-110.957 140.739,-114.459"/>
<polygon fill="midnightblue" stroke="midnightblue" points="103.738,-99.5058 93.1523,-99.934 101.695,-106.201 103.738,-99.5058"/>
</g>
<!-- Node12 -->
<g id="node4" class="node"><title>Node12</title>
<g id="a_node4"><a xlink:href="../../d0/de3/namespaceinfra.html#a423476fcf66281d2f3f89220cefd24bc" target="_top" xlink:title="infra::operator==">
<polygon fill="white" stroke="black" points="129,-76.5 129,-95.5 217,-95.5 217,-76.5 129,-76.5"/>
<text text-anchor="middle" x="173" y="-83.5" font-family="Helvetica,sans-Serif" font-size="10.00">infra::operator==</text>
</a>
</g>
</g>
<!-- Node9&#45;&gt;Node12 -->
<g id="edge3" class="edge"><title>Node9&#45;&gt;Node12</title>
<path fill="none" stroke="midnightblue" d="M103.429,-86C111.955,-86 120.641,-86 128.838,-86"/>
<polygon fill="midnightblue" stroke="midnightblue" points="103.152,-82.5001 93.1523,-86 103.152,-89.5001 103.152,-82.5001"/>
</g>
<!-- Node13 -->
<g id="node5" class="node"><title>Node13</title>
<g id="a_node5"><a xlink:href="../../d0/de3/namespaceinfra.html#ab86540eda82b1da3e54e48f50bc05ab1" target="_top" xlink:title="infra::operator\&gt;">
<polygon fill="white" stroke="black" points="132,-38.5 132,-57.5 214,-57.5 214,-38.5 132,-38.5"/>
<text text-anchor="middle" x="173" y="-45.5" font-family="Helvetica,sans-Serif" font-size="10.00">infra::operator&gt;</text>
</a>
</g>
</g>
<!-- Node9&#45;&gt;Node13 -->
<g id="edge4" class="edge"><title>Node9&#45;&gt;Node13</title>
<path fill="none" stroke="midnightblue" d="M102.948,-69.0762C115.908,-65.1205 129.266,-61.0433 140.739,-57.5415"/>
<polygon fill="midnightblue" stroke="midnightblue" points="101.695,-65.7991 93.1523,-72.066 103.738,-72.4942 101.695,-65.7991"/>
</g>
<!-- Node14 -->
<g id="node6" class="node"><title>Node14</title>
<g id="a_node6"><a xlink:href="../../d0/de3/namespaceinfra.html#aedb0fae4f603cf979746631982e4bf44" target="_top" xlink:title="infra::operator\&gt;=">
<polygon fill="white" stroke="black" points="129,-0.5 129,-19.5 217,-19.5 217,-0.5 129,-0.5"/>
<text text-anchor="middle" x="173" y="-7.5" font-family="Helvetica,sans-Serif" font-size="10.00">infra::operator&gt;=</text>
</a>
</g>
</g>
<!-- Node9&#45;&gt;Node14 -->
<g id="edge5" class="edge"><title>Node9&#45;&gt;Node14</title>
<path fill="none" stroke="midnightblue" d="M74.9577,-64.7882C90.3651,-53.4069 110.216,-39.5858 129,-29 134.973,-25.6341 141.655,-22.4315 147.939,-19.6473"/>
<polygon fill="midnightblue" stroke="midnightblue" points="72.8005,-62.031 66.8902,-70.8241 76.994,-67.6359 72.8005,-62.031"/>
</g>
</g>
</svg>
