<?xml version="1.0" encoding="UTF-8" standalone="no"?>
<!DOCTYPE svg PUBLIC "-//W3C//DTD SVG 1.1//EN"
 "http://www.w3.org/Graphics/SVG/1.1/DTD/svg11.dtd">
<!-- Generated by graphviz version 2.38.0 (20140413.2041)
 -->
<!-- Title: services::FlashSpi::InstructionAndAddress Pages: 1 -->
<svg width="170pt" height="106pt"
 viewBox="0.00 0.00 169.50 106.00" xmlns="http://www.w3.org/2000/svg" xmlns:xlink="http://www.w3.org/1999/xlink">
<g id="graph0" class="graph" transform="scale(1 1) rotate(0) translate(4 102)">
<title>services::FlashSpi::InstructionAndAddress</title>
<polygon fill="white" stroke="none" points="-4,4 -4,-102 165.5,-102 165.5,4 -4,4"/>
<!-- Node1 -->
<g id="node1" class="node"><title>Node1</title>
<polygon fill="#bfbfbf" stroke="black" points="7.5,-0.5 7.5,-30.5 128.5,-30.5 128.5,-0.5 7.5,-0.5"/>
<text text-anchor="start" x="15.5" y="-18.5" font-family="Helvetica,sans-Serif" font-size="10.00">services::FlashSpi</text>
<text text-anchor="middle" x="68" y="-7.5" font-family="Helvetica,sans-Serif" font-size="10.00">::InstructionAndAddress</text>
</g>
<!-- Node2 -->
<g id="node2" class="node"><title>Node2</title>
<polygon fill="white" stroke="#bfbfbf" points="0,-78.5 0,-97.5 46,-97.5 46,-78.5 0,-78.5"/>
<text text-anchor="middle" x="23" y="-85.5" font-family="Helvetica,sans-Serif" font-size="10.00">uint8_t</text>
</g>
<!-- Node2&#45;&gt;Node1 -->
<g id="edge1" class="edge"><title>Node2&#45;&gt;Node1</title>
<path fill="none" stroke="#9a32cd" stroke-dasharray="5,2" d="M31.0398,-68.9907C34.1759,-62.5226 37.9825,-55.279 42,-49 46.0501,-42.67 51.1005,-36.1194 55.6701,-30.5721"/>
<polygon fill="#9a32cd" stroke="#9a32cd" points="27.7697,-67.7226 26.7297,-78.2663 34.1178,-70.6725 27.7697,-67.7226"/>
<text text-anchor="middle" x="66.5" y="-52" font-family="Helvetica,sans-Serif" font-size="10.00"> instruction</text>
</g>
<!-- Node3 -->
<g id="node3" class="node"><title>Node3</title>
<polygon fill="white" stroke="#bfbfbf" points="64.5,-78.5 64.5,-97.5 161.5,-97.5 161.5,-78.5 64.5,-78.5"/>
<text text-anchor="middle" x="113" y="-85.5" font-family="Helvetica,sans-Serif" font-size="10.00">array&lt; uint8_t, 3 &gt;</text>
</g>
<!-- Node3&#45;&gt;Node1 -->
<g id="edge2" class="edge"><title>Node3&#45;&gt;Node1</title>
<path fill="none" stroke="#9a32cd" stroke-dasharray="5,2" d="M103.412,-69.6756C99.6686,-63.1191 95.2586,-55.6391 91,-49 87.044,-42.8326 82.4208,-36.2006 78.3611,-30.546"/>
<polygon fill="#9a32cd" stroke="#9a32cd" points="100.373,-71.4129 108.324,-78.4156 106.476,-67.9832 100.373,-71.4129"/>
<text text-anchor="middle" x="117" y="-52" font-family="Helvetica,sans-Serif" font-size="10.00"> address</text>
</g>
</g>
</svg>
