<?xml version="1.0" encoding="UTF-8" standalone="no"?>
<!DOCTYPE svg PUBLIC "-//W3C//DTD SVG 1.1//EN"
 "http://www.w3.org/Graphics/SVG/1.1/DTD/svg11.dtd">
<!-- Generated by graphviz version 2.38.0 (20140413.2041)
 -->
<!-- Title: services::MqttClientConnectorImpl::CancelConnect Pages: 1 -->
<svg width="330pt" height="39pt"
 viewBox="0.00 0.00 330.00 39.00" xmlns="http://www.w3.org/2000/svg" xmlns:xlink="http://www.w3.org/1999/xlink">
<g id="graph0" class="graph" transform="scale(1 1) rotate(0) translate(4 35)">
<title>services::MqttClientConnectorImpl::CancelConnect</title>
<polygon fill="white" stroke="none" points="-4,4 -4,-35 326,-35 326,4 -4,4"/>
<!-- Node4 -->
<g id="node1" class="node"><title>Node4</title>
<polygon fill="#bfbfbf" stroke="black" points="0,-0.5 0,-30.5 146,-30.5 146,-0.5 0,-0.5"/>
<text text-anchor="start" x="8" y="-18.5" font-family="Helvetica,sans-Serif" font-size="10.00">services::MqttClientConnector</text>
<text text-anchor="middle" x="73" y="-7.5" font-family="Helvetica,sans-Serif" font-size="10.00">Impl::CancelConnect</text>
</g>
<!-- Node5 -->
<g id="node2" class="node"><title>Node5</title>
<g id="a_node2"><a xlink:href="../../db/db4/classservices_1_1_connection_factory.html#aacab4be27beaf2023a6ea29e57e7b631" target="_top" xlink:title="services::ConnectionFactory\l::CancelConnect">
<polygon fill="white" stroke="black" points="182,-0.5 182,-30.5 322,-30.5 322,-0.5 182,-0.5"/>
<text text-anchor="start" x="190" y="-18.5" font-family="Helvetica,sans-Serif" font-size="10.00">services::ConnectionFactory</text>
<text text-anchor="middle" x="252" y="-7.5" font-family="Helvetica,sans-Serif" font-size="10.00">::CancelConnect</text>
</a>
</g>
</g>
<!-- Node4&#45;&gt;Node5 -->
<g id="edge1" class="edge"><title>Node4&#45;&gt;Node5</title>
<path fill="none" stroke="midnightblue" d="M146.248,-15.5C154.607,-15.5 163.166,-15.5 171.614,-15.5"/>
<polygon fill="midnightblue" stroke="midnightblue" points="171.841,-19.0001 181.841,-15.5 171.841,-12.0001 171.841,-19.0001"/>
</g>
</g>
</svg>
