<?xml version="1.0" encoding="UTF-8" standalone="no"?>
<!DOCTYPE svg PUBLIC "-//W3C//DTD SVG 1.1//EN"
 "http://www.w3.org/Graphics/SVG/1.1/DTD/svg11.dtd">
<!-- Generated by graphviz version 2.38.0 (20140413.2041)
 -->
<!-- Title: infra::DataInputStream::operator&gt;&gt; Pages: 1 -->
<svg width="250pt" height="88pt"
 viewBox="0.00 0.00 250.00 88.00" xmlns="http://www.w3.org/2000/svg" xmlns:xlink="http://www.w3.org/1999/xlink">
<g id="graph0" class="graph" transform="scale(1 1) rotate(0) translate(4 84)">
<title>infra::DataInputStream::operator&gt;&gt;</title>
<polygon fill="white" stroke="none" points="-4,4 -4,-84 246,-84 246,4 -4,4"/>
<!-- Node4 -->
<g id="node1" class="node"><title>Node4</title>
<polygon fill="#bfbfbf" stroke="black" points="0,-24.5 0,-54.5 113,-54.5 113,-24.5 0,-24.5"/>
<text text-anchor="start" x="8" y="-42.5" font-family="Helvetica,sans-Serif" font-size="10.00">infra::DataInputStream</text>
<text text-anchor="middle" x="56.5" y="-31.5" font-family="Helvetica,sans-Serif" font-size="10.00">::operator&gt;&gt;</text>
</g>
<!-- Node5 -->
<g id="node2" class="node"><title>Node5</title>
<g id="a_node2"><a xlink:href="../../db/dda/classinfra_1_1_input_stream.html#a2ba329777e84a8bba1d9d7b29ed6bee1" target="_top" xlink:title="infra::InputStream\l::ErrorPolicy">
<polygon fill="white" stroke="black" points="149,-49.5 149,-79.5 242,-79.5 242,-49.5 149,-49.5"/>
<text text-anchor="start" x="157" y="-67.5" font-family="Helvetica,sans-Serif" font-size="10.00">infra::InputStream</text>
<text text-anchor="middle" x="195.5" y="-56.5" font-family="Helvetica,sans-Serif" font-size="10.00">::ErrorPolicy</text>
</a>
</g>
</g>
<!-- Node4&#45;&gt;Node5 -->
<g id="edge1" class="edge"><title>Node4&#45;&gt;Node5</title>
<path fill="none" stroke="midnightblue" d="M113.223,-49.6685C121.65,-51.2062 130.344,-52.7927 138.771,-54.3304"/>
<polygon fill="midnightblue" stroke="midnightblue" points="138.415,-57.8233 148.881,-56.1754 139.672,-50.937 138.415,-57.8233"/>
</g>
<!-- Node6 -->
<g id="node3" class="node"><title>Node6</title>
<g id="a_node3"><a xlink:href="../../db/dda/classinfra_1_1_input_stream.html#a9f1f392517013e99a0517d3688949a7a" target="_top" xlink:title="infra::InputStream\l::Reader">
<polygon fill="white" stroke="black" points="149,-0.5 149,-30.5 242,-30.5 242,-0.5 149,-0.5"/>
<text text-anchor="start" x="157" y="-18.5" font-family="Helvetica,sans-Serif" font-size="10.00">infra::InputStream</text>
<text text-anchor="middle" x="195.5" y="-7.5" font-family="Helvetica,sans-Serif" font-size="10.00">::Reader</text>
</a>
</g>
</g>
<!-- Node4&#45;&gt;Node6 -->
<g id="edge2" class="edge"><title>Node4&#45;&gt;Node6</title>
<path fill="none" stroke="midnightblue" d="M113.223,-29.7383C121.65,-28.2621 130.344,-26.739 138.771,-25.2628"/>
<polygon fill="midnightblue" stroke="midnightblue" points="139.635,-28.6648 148.881,-23.4917 138.427,-21.7698 139.635,-28.6648"/>
</g>
</g>
</svg>
