<?xml version="1.0" encoding="UTF-8" standalone="no"?>
<!DOCTYPE svg PUBLIC "-//W3C//DTD SVG 1.1//EN"
 "http://www.w3.org/Graphics/SVG/1.1/DTD/svg11.dtd">
<!-- Generated by graphviz version 2.38.0 (20140413.2041)
 -->
<!-- Title: services::SpiMasterWithChipSelect Pages: 1 -->
<svg width="338pt" height="173pt"
 viewBox="0.00 0.00 337.50 173.00" xmlns="http://www.w3.org/2000/svg" xmlns:xlink="http://www.w3.org/1999/xlink">
<g id="graph0" class="graph" transform="scale(1 1) rotate(0) translate(4 169)">
<title>services::SpiMasterWithChipSelect</title>
<polygon fill="white" stroke="none" points="-4,4 -4,-169 333.5,-169 333.5,4 -4,4"/>
<!-- Node3 -->
<g id="node1" class="node"><title>Node3</title>
<polygon fill="#bfbfbf" stroke="black" points="61,-0.5 61,-30.5 203,-30.5 203,-0.5 61,-0.5"/>
<text text-anchor="start" x="69" y="-18.5" font-family="Helvetica,sans-Serif" font-size="10.00">services::SpiMasterWithChip</text>
<text text-anchor="middle" x="132" y="-7.5" font-family="Helvetica,sans-Serif" font-size="10.00">Select</text>
</g>
<!-- Node4 -->
<g id="node2" class="node"><title>Node4</title>
<g id="a_node2"><a xlink:href="../../dd/da3/classhal_1_1_spi_master.html" target="_top" xlink:title="hal::SpiMaster">
<polygon fill="white" stroke="black" points="0,-78.5 0,-97.5 80,-97.5 80,-78.5 0,-78.5"/>
<text text-anchor="middle" x="40" y="-85.5" font-family="Helvetica,sans-Serif" font-size="10.00">hal::SpiMaster</text>
</a>
</g>
</g>
<!-- Node4&#45;&gt;Node3 -->
<g id="edge1" class="edge"><title>Node4&#45;&gt;Node3</title>
<path fill="none" stroke="midnightblue" d="M52.0114,-70.0749C57.5643,-63.0077 64.5717,-55.0521 72,-49 80.6332,-41.9662 91.016,-35.716 100.7,-30.6222"/>
<polygon fill="midnightblue" stroke="midnightblue" points="49.0162,-68.2361 45.8334,-78.3415 54.6234,-72.4266 49.0162,-68.2361"/>
</g>
<!-- Node4&#45;&gt;Node3 -->
<g id="edge3" class="edge"><title>Node4&#45;&gt;Node3</title>
<path fill="none" stroke="#9a32cd" stroke-dasharray="5,2" d="M59.4098,-72.1262C75.4039,-59.8698 97.9294,-42.6084 113.631,-30.5762"/>
<polygon fill="#9a32cd" stroke="#9a32cd" points="57.0896,-69.4947 51.281,-78.3553 61.3474,-75.0509 57.0896,-69.4947"/>
<text text-anchor="middle" x="97" y="-52" font-family="Helvetica,sans-Serif" font-size="10.00"> spi</text>
</g>
<!-- Node5 -->
<g id="node3" class="node"><title>Node5</title>
<g id="a_node3"><a xlink:href="../../d4/d53/classhal_1_1_chip_select_configurator.html" target="_top" xlink:title="hal::ChipSelectConfigurator">
<polygon fill="white" stroke="black" points="98,-78.5 98,-97.5 232,-97.5 232,-78.5 98,-78.5"/>
<text text-anchor="middle" x="165" y="-85.5" font-family="Helvetica,sans-Serif" font-size="10.00">hal::ChipSelectConfigurator</text>
</a>
</g>
</g>
<!-- Node5&#45;&gt;Node3 -->
<g id="edge2" class="edge"><title>Node5&#45;&gt;Node3</title>
<path fill="none" stroke="midnightblue" d="M151.926,-70.0538C149.767,-66.8206 147.687,-63.3859 146,-60 141.329,-50.6269 137.753,-39.3545 135.385,-30.6335"/>
<polygon fill="midnightblue" stroke="midnightblue" points="149.27,-72.3555 157.954,-78.4249 154.95,-68.2648 149.27,-72.3555"/>
</g>
<!-- Node5&#45;&gt;Node3 -->
<g id="edge6" class="edge"><title>Node5&#45;&gt;Node3</title>
<path fill="none" stroke="#9a32cd" stroke-dasharray="5,2" d="M156.557,-68.9637C150.971,-57.0293 143.752,-41.6057 138.589,-30.5762"/>
<polygon fill="#9a32cd" stroke="#9a32cd" points="153.544,-70.7822 160.954,-78.3553 159.884,-67.8146 153.544,-70.7822"/>
<text text-anchor="middle" x="202.5" y="-52" font-family="Helvetica,sans-Serif" font-size="10.00"> chipSelectConfigurator</text>
</g>
<!-- Node6 -->
<g id="node4" class="node"><title>Node6</title>
<g id="a_node4"><a xlink:href="../../df/d03/classhal_1_1_output_pin.html" target="_top" xlink:title="hal::OutputPin">
<polygon fill="white" stroke="black" points="250.5,-78.5 250.5,-97.5 329.5,-97.5 329.5,-78.5 250.5,-78.5"/>
<text text-anchor="middle" x="290" y="-85.5" font-family="Helvetica,sans-Serif" font-size="10.00">hal::OutputPin</text>
</a>
</g>
</g>
<!-- Node6&#45;&gt;Node3 -->
<g id="edge4" class="edge"><title>Node6&#45;&gt;Node3</title>
<path fill="none" stroke="#9a32cd" stroke-dasharray="5,2" d="M278.98,-70.2129C273.255,-62.7069 265.647,-54.3614 257,-49 240.802,-38.9562 221.58,-31.9991 203.127,-27.1863"/>
<polygon fill="#9a32cd" stroke="#9a32cd" points="276.149,-72.2721 284.786,-78.4094 281.862,-68.226 276.149,-72.2721"/>
<text text-anchor="middle" x="293.5" y="-52" font-family="Helvetica,sans-Serif" font-size="10.00"> chipSelect</text>
</g>
<!-- Node7 -->
<g id="node5" class="node"><title>Node7</title>
<g id="a_node5"><a xlink:href="../../d7/d8c/classhal_1_1_gpio_pin.html" target="_top" xlink:title="hal::GpioPin">
<polygon fill="white" stroke="black" points="255,-145.5 255,-164.5 325,-164.5 325,-145.5 255,-145.5"/>
<text text-anchor="middle" x="290" y="-152.5" font-family="Helvetica,sans-Serif" font-size="10.00">hal::GpioPin</text>
</a>
</g>
</g>
<!-- Node7&#45;&gt;Node6 -->
<g id="edge5" class="edge"><title>Node7&#45;&gt;Node6</title>
<path fill="none" stroke="#9a32cd" stroke-dasharray="5,2" d="M290,-135.037C290,-122.67 290,-107.12 290,-97.6273"/>
<polygon fill="#9a32cd" stroke="#9a32cd" points="286.5,-135.234 290,-145.234 293.5,-135.234 286.5,-135.234"/>
<text text-anchor="middle" x="298" y="-119" font-family="Helvetica,sans-Serif" font-size="10.00"> pin</text>
</g>
</g>
</svg>
