<?xml version="1.0" encoding="UTF-8" standalone="no"?>
<!DOCTYPE svg PUBLIC "-//W3C//DTD SVG 1.1//EN"
 "http://www.w3.org/Graphics/SVG/1.1/DTD/svg11.dtd">
<!-- Generated by graphviz version 2.38.0 (20140413.2041)
 -->
<!-- Title: hal::SpiMaster::SetCommunicationConfigurator Pages: 1 -->
<!--zoomable 137 -->
<svg id="main" version="1.1" xmlns="http://www.w3.org/2000/svg" xmlns:xlink="http://www.w3.org/1999/xlink" xml:space="preserve" onload="init(evt)">
<style type="text/css"><![CDATA[
.edge:hover path { stroke: red; }
.edge:hover polygon { stroke: red; fill: red; }
]]></style>
<script type="text/javascript"><![CDATA[
var edges = document.getElementsByTagName('g');
if (edges && edges.length) {
  for (var i=0;i<edges.length;i++) {
    if (edges[i].id.substr(0,4)=='edge') {
      edges[i].setAttribute('class','edge');
    }
  }
}
]]></script>
        <defs>
                <circle id="rim" cx="0" cy="0" r="7"/>
                <circle id="rim2" cx="0" cy="0" r="3.5"/>
                <g id="zoomPlus">
                        <use xlink:href="#rim" fill="#404040">
                                <set attributeName="fill" to="#808080" begin="zoomplus.mouseover" end="zoomplus.mouseout"/>
                        </use>
                        <path d="M-4,0h8M0,-4v8" fill="none" stroke="white" stroke-width="1.5" pointer-events="none"/>
                </g>
                <g id="zoomMin">
                        <use xlink:href="#rim" fill="#404040">
                                <set attributeName="fill" to="#808080" begin="zoomminus.mouseover" end="zoomminus.mouseout"/>
                        </use>
                        <path d="M-4,0h8" fill="none" stroke="white" stroke-width="1.5" pointer-events="none"/>
                </g>
                <g id="dirArrow">
                        <path fill="none" stroke="white" stroke-width="1.5" d="M0,-3.0v7 M-2.5,-0.5L0,-3.0L2.5,-0.5"/>
                </g>
               <g id="resetDef">
                       <use xlink:href="#rim2" fill="#404040">
                               <set attributeName="fill" to="#808080" begin="reset.mouseover" end="reset.mouseout"/>
                       </use>
               </g>
        </defs>

<script type="text/javascript">
var viewWidth = 754;
var viewHeight = 137;
var sectionId = 'dynsection-8';
</script>
<script xlink:href="../../svgpan.js"/>
<svg id="graph" class="graph">
<g id="viewport">
<title>hal::SpiMaster::SetCommunicationConfigurator</title>
<polygon fill="white" stroke="none" points="-4,4 -4,-133 750,-133 750,4 -4,4"/>
<!-- Node68 -->
<g id="node1" class="node"><title>Node68</title>
<polygon fill="#bfbfbf" stroke="black" points="0,-49.5 0,-79.5 168,-79.5 168,-49.5 0,-49.5"/>
<text text-anchor="start" x="8" y="-67.5" font-family="Helvetica,sans-Serif" font-size="10.00">hal::SpiMaster::SetCommunication</text>
<text text-anchor="middle" x="84" y="-56.5" font-family="Helvetica,sans-Serif" font-size="10.00">Configurator</text>
</g>
<!-- Node69 -->
<g id="node2" class="node"><title>Node69</title>
<g id="a_node2"><a xlink:href="../../d4/d41/classservices_1_1_spi_master_with_chip_select.html#ab2c36a9a79408bcbf38d07976b5e773a" target="_top" xlink:title="services::SpiMasterWithChip\lSelect::SetCommunicationConfigurator">
<polygon fill="white" stroke="black" points="205,-98.5 205,-128.5 390,-128.5 390,-98.5 205,-98.5"/>
<text text-anchor="start" x="213" y="-116.5" font-family="Helvetica,sans-Serif" font-size="10.00">services::SpiMasterWithChip</text>
<text text-anchor="middle" x="297.5" y="-105.5" font-family="Helvetica,sans-Serif" font-size="10.00">Select::SetCommunicationConfigurator</text>
</a>
</g>
</g>
<!-- Node68&#45;&gt;Node69 -->
<g id="edge1" class="edge"><title>Node68&#45;&gt;Node69</title>
<path fill="none" stroke="midnightblue" d="M159.806,-81.8309C183.288,-87.2712 209.002,-93.2285 231.728,-98.4938"/>
<polygon fill="midnightblue" stroke="midnightblue" points="160.426,-78.382 149.894,-79.5346 158.846,-85.2014 160.426,-78.382"/>
</g>
<!-- Node70 -->
<g id="node3" class="node"><title>Node70</title>
<g id="a_node3"><a xlink:href="../../d0/d6b/classservices_1_1_spi_multiple_access_master.html#a7585a96b8bfcc323e84a99afafbd0a3c" target="_top" xlink:title="services::SpiMultipleAccess\lMaster::SetCommunicationConfigurator">
<polygon fill="white" stroke="black" points="204,-49.5 204,-79.5 391,-79.5 391,-49.5 204,-49.5"/>
<text text-anchor="start" x="212" y="-67.5" font-family="Helvetica,sans-Serif" font-size="10.00">services::SpiMultipleAccess</text>
<text text-anchor="middle" x="297.5" y="-56.5" font-family="Helvetica,sans-Serif" font-size="10.00">Master::SetCommunicationConfigurator</text>
</a>
</g>
</g>
<!-- Node68&#45;&gt;Node70 -->
<g id="edge2" class="edge"><title>Node68&#45;&gt;Node70</title>
<path fill="none" stroke="midnightblue" d="M178.493,-64.5C186.915,-64.5 195.442,-64.5 203.856,-64.5"/>
<polygon fill="midnightblue" stroke="midnightblue" points="178.287,-61.0001 168.287,-64.5 178.287,-68.0001 178.287,-61.0001"/>
</g>
<!-- Node73 -->
<g id="node6" class="node"><title>Node73</title>
<g id="a_node6"><a xlink:href="../../db/d18/classhal_1_1_low_power_spi_master.html#a8dc3da7aed9681c671792eb5c1b73b70" target="_top" xlink:title="hal::LowPowerSpiMaster\l::SetCommunicationConfigurator">
<polygon fill="white" stroke="black" points="219,-0.5 219,-30.5 376,-30.5 376,-0.5 219,-0.5"/>
<text text-anchor="start" x="227" y="-18.5" font-family="Helvetica,sans-Serif" font-size="10.00">hal::LowPowerSpiMaster</text>
<text text-anchor="middle" x="297.5" y="-7.5" font-family="Helvetica,sans-Serif" font-size="10.00">::SetCommunicationConfigurator</text>
</a>
</g>
</g>
<!-- Node68&#45;&gt;Node73 -->
<g id="edge5" class="edge"><title>Node68&#45;&gt;Node73</title>
<path fill="none" stroke="midnightblue" d="M159.806,-47.1691C183.288,-41.7288 209.002,-35.7715 231.728,-30.5062"/>
<polygon fill="midnightblue" stroke="midnightblue" points="158.846,-43.7986 149.894,-49.4654 160.426,-50.618 158.846,-43.7986"/>
</g>
<!-- Node71 -->
<g id="node4" class="node"><title>Node71</title>
<g id="a_node4"><a xlink:href="../../d9/d2d/classservices_1_1_spi_multiple_access.html#a3395b2a1dcc5d0cd7ff24f30011f800e" target="_top" xlink:title="services::SpiMultipleAccess\l::SendAndReceiveOnClaimed">
<polygon fill="white" stroke="black" points="427,-49.5 427,-79.5 571,-79.5 571,-49.5 427,-49.5"/>
<text text-anchor="start" x="435" y="-67.5" font-family="Helvetica,sans-Serif" font-size="10.00">services::SpiMultipleAccess</text>
<text text-anchor="middle" x="499" y="-56.5" font-family="Helvetica,sans-Serif" font-size="10.00">::SendAndReceiveOnClaimed</text>
</a>
</g>
</g>
<!-- Node70&#45;&gt;Node71 -->
<g id="edge3" class="edge"><title>Node70&#45;&gt;Node71</title>
<path fill="none" stroke="midnightblue" d="M401.389,-64.5C410.034,-64.5 418.648,-64.5 426.97,-64.5"/>
<polygon fill="midnightblue" stroke="midnightblue" points="401.241,-61.0001 391.241,-64.5 401.241,-68.0001 401.241,-61.0001"/>
</g>
<!-- Node72 -->
<g id="node5" class="node"><title>Node72</title>
<g id="a_node5"><a xlink:href="../../d9/d2d/classservices_1_1_spi_multiple_access.html#a88befdf785d01e504a686609a242f7b5" target="_top" xlink:title="services::SpiMultipleAccess\l::SendAndReceive">
<polygon fill="white" stroke="black" points="607,-49.5 607,-79.5 746,-79.5 746,-49.5 607,-49.5"/>
<text text-anchor="start" x="615" y="-67.5" font-family="Helvetica,sans-Serif" font-size="10.00">services::SpiMultipleAccess</text>
<text text-anchor="middle" x="676.5" y="-56.5" font-family="Helvetica,sans-Serif" font-size="10.00">::SendAndReceive</text>
</a>
</g>
</g>
<!-- Node71&#45;&gt;Node72 -->
<g id="edge4" class="edge"><title>Node71&#45;&gt;Node72</title>
<path fill="none" stroke="midnightblue" d="M581.149,-64.5C589.735,-64.5 598.405,-64.5 606.828,-64.5"/>
<polygon fill="midnightblue" stroke="midnightblue" points="581.13,-61.0001 571.13,-64.5 581.13,-68.0001 581.13,-61.0001"/>
</g>
</g>
</svg>
        <g id="navigator" transform="translate(0 0)" fill="#404254">
                <rect fill="#f2f5e9" fill-opacity="0.5" stroke="#606060" stroke-width=".5" x="0" y="0" width="60" height="60"/>
                <use id="zoomplus" xlink:href="#zoomPlus" x="17" y="9" onmousedown="handleZoom(evt,'in')"/>
                <use id="zoomminus" xlink:href="#zoomMin" x="42" y="9" onmousedown="handleZoom(evt,'out')"/>
                <use id="reset" xlink:href="#resetDef" x="30" y="36" onmousedown="handleReset()"/>
                <g id="arrowUp" xlink:href="#dirArrow" transform="translate(30 24)" onmousedown="handlePan(0,-1)">
                  <use xlink:href="#rim" fill="#404040">
                        <set attributeName="fill" to="#808080" begin="arrowUp.mouseover" end="arrowUp.mouseout"/>
                  </use>
                  <path fill="none" stroke="white" stroke-width="1.5" d="M0,-3.0v7 M-2.5,-0.5L0,-3.0L2.5,-0.5"/>
                </g>
                <g id="arrowRight" xlink:href="#dirArrow" transform="rotate(90) translate(36 -43)" onmousedown="handlePan(1,0)">
                  <use xlink:href="#rim" fill="#404040">
                        <set attributeName="fill" to="#808080" begin="arrowRight.mouseover" end="arrowRight.mouseout"/>
                  </use>
                  <path fill="none" stroke="white" stroke-width="1.5" d="M0,-3.0v7 M-2.5,-0.5L0,-3.0L2.5,-0.5"/>
                </g>
                <g id="arrowDown" xlink:href="#dirArrow" transform="rotate(180) translate(-30 -48)" onmousedown="handlePan(0,1)">
                  <use xlink:href="#rim" fill="#404040">
                        <set attributeName="fill" to="#808080" begin="arrowDown.mouseover" end="arrowDown.mouseout"/>
                  </use>
                  <path fill="none" stroke="white" stroke-width="1.5" d="M0,-3.0v7 M-2.5,-0.5L0,-3.0L2.5,-0.5"/>
                </g>
                <g id="arrowLeft" xlink:href="#dirArrow" transform="rotate(270) translate(-36 17)" onmousedown="handlePan(-1,0)">
                  <use xlink:href="#rim" fill="#404040">
                        <set attributeName="fill" to="#808080" begin="arrowLeft.mouseover" end="arrowLeft.mouseout"/>
                  </use>
                  <path fill="none" stroke="white" stroke-width="1.5" d="M0,-3.0v7 M-2.5,-0.5L0,-3.0L2.5,-0.5"/>
                </g>
        </g>
        <svg viewBox="0 0 15 15" width="100%" height="30px" preserveAspectRatio="xMaxYMin meet">
         <g id="arrow_out" transform="scale(0.3 0.3)">
          <a xlink:href="classhal_1_1_spi_master_acab0e0744010de7fcb054cf55ec734ff_icgraph_org.svg" target="_base">
           <rect id="button" ry="5" rx="5" y="6" x="6" height="38" width="38"
                fill="#f2f5e9" fill-opacity="0.5" stroke="#606060" stroke-width="1.0"/>
           <path id="arrow"
             d="M 11.500037,31.436501 C 11.940474,20.09759 22.043105,11.32322 32.158766,21.979434 L 37.068811,17.246167 C 37.068811,17.246167 37.088388,32 37.088388,32 L 22.160133,31.978069 C 22.160133,31.978069 26.997745,27.140456 26.997745,27.140456 C 18.528582,18.264221 13.291696,25.230495 11.500037,31.436501 z"
             style="fill:#404040;"/>
          </a>
         </g>
        </svg>
</svg>
