<?xml version="1.0" encoding="UTF-8" standalone="no"?>
<!DOCTYPE svg PUBLIC "-//W3C//DTD SVG 1.1//EN"
 "http://www.w3.org/Graphics/SVG/1.1/DTD/svg11.dtd">
<!-- Generated by graphviz version 2.38.0 (20140413.2041)
 -->
<!-- Title: infra::TimerService::Progressed Pages: 1 -->
<svg width="629pt" height="284pt"
 viewBox="0.00 0.00 629.00 284.00" xmlns="http://www.w3.org/2000/svg" xmlns:xlink="http://www.w3.org/1999/xlink">
<g id="graph0" class="graph" transform="scale(1 1) rotate(0) translate(4 280)">
<title>infra::TimerService::Progressed</title>
<polygon fill="white" stroke="none" points="-4,4 -4,-280 625,-280 625,4 -4,4"/>
<!-- Node244 -->
<g id="node1" class="node"><title>Node244</title>
<polygon fill="#bfbfbf" stroke="black" points="0,-98.5 0,-128.5 96,-128.5 96,-98.5 0,-98.5"/>
<text text-anchor="start" x="8" y="-116.5" font-family="Helvetica,sans-Serif" font-size="10.00">infra::TimerService</text>
<text text-anchor="middle" x="48" y="-105.5" font-family="Helvetica,sans-Serif" font-size="10.00">::Progressed</text>
</g>
<!-- Node245 -->
<g id="node2" class="node"><title>Node245</title>
<g id="a_node2"><a xlink:href="../../db/d9d/classinfra_1_1_derived_timer_service.html#a561871017cf0ba4564f3d2d576d2710e" target="_top" xlink:title="infra::DerivedTimerService\l::NextTriggerChanged">
<polygon fill="white" stroke="black" points="139,-220.5 139,-250.5 267,-250.5 267,-220.5 139,-220.5"/>
<text text-anchor="start" x="147" y="-238.5" font-family="Helvetica,sans-Serif" font-size="10.00">infra::DerivedTimerService</text>
<text text-anchor="middle" x="203" y="-227.5" font-family="Helvetica,sans-Serif" font-size="10.00">::NextTriggerChanged</text>
</a>
</g>
</g>
<!-- Node244&#45;&gt;Node245 -->
<g id="edge1" class="edge"><title>Node244&#45;&gt;Node245</title>
<path fill="none" stroke="midnightblue" d="M72.153,-135.582C88.4315,-150.744 110.974,-171.026 132,-187.5 146.963,-199.224 164.621,-211.32 178.458,-220.437"/>
<polygon fill="midnightblue" stroke="midnightblue" points="74.3868,-132.878 64.699,-128.589 69.5975,-137.983 74.3868,-132.878"/>
</g>
<!-- Node247 -->
<g id="node4" class="node"><title>Node247</title>
<g id="a_node4"><a xlink:href="../../da/dc4/classinfra_1_1_scalable_derived_timer_service.html#a28598eb5eaf5bdf3d3ff98fabe0824ab" target="_top" xlink:title="infra::ScalableDerivedTimer\lService::NextTriggerChanged">
<polygon fill="white" stroke="black" points="132,-147.5 132,-177.5 274,-177.5 274,-147.5 132,-147.5"/>
<text text-anchor="start" x="140" y="-165.5" font-family="Helvetica,sans-Serif" font-size="10.00">infra::ScalableDerivedTimer</text>
<text text-anchor="middle" x="203" y="-154.5" font-family="Helvetica,sans-Serif" font-size="10.00">Service::NextTriggerChanged</text>
</a>
</g>
</g>
<!-- Node244&#45;&gt;Node247 -->
<g id="edge3" class="edge"><title>Node244&#45;&gt;Node247</title>
<path fill="none" stroke="midnightblue" d="M106.013,-131.759C122.15,-136.927 139.527,-142.492 155.002,-147.448"/>
<polygon fill="midnightblue" stroke="midnightblue" points="106.745,-128.318 96.1535,-128.601 104.609,-134.985 106.745,-128.318"/>
</g>
<!-- Node250 -->
<g id="node7" class="node"><title>Node250</title>
<g id="a_node7"><a xlink:href="../../df/d2e/classinfra_1_1_tick_on_interrupt_timer_service.html#a0d6a1e40e92d3c517cea5ce7da19b72e" target="_top" xlink:title="infra::TickOnInterruptTimer\lService::TimeProgressed">
<polygon fill="white" stroke="black" points="137.5,-98.5 137.5,-128.5 268.5,-128.5 268.5,-98.5 137.5,-98.5"/>
<text text-anchor="start" x="145.5" y="-116.5" font-family="Helvetica,sans-Serif" font-size="10.00">infra::TickOnInterruptTimer</text>
<text text-anchor="middle" x="203" y="-105.5" font-family="Helvetica,sans-Serif" font-size="10.00">Service::TimeProgressed</text>
</a>
</g>
</g>
<!-- Node244&#45;&gt;Node250 -->
<g id="edge6" class="edge"><title>Node244&#45;&gt;Node250</title>
<path fill="none" stroke="midnightblue" d="M106.438,-113.5C116.501,-113.5 127.033,-113.5 137.277,-113.5"/>
<polygon fill="midnightblue" stroke="midnightblue" points="106.154,-110 96.1535,-113.5 106.153,-117 106.154,-110"/>
</g>
<!-- Node253 -->
<g id="node10" class="node"><title>Node253</title>
<g id="a_node10"><a xlink:href="../../d7/d8f/classhal_1_1_timer_service_bsd.html#a6cad4d6f63d52b0eb822c9262b340351" target="_top" xlink:title="hal::TimerServiceBsd\l::WaitForTrigger">
<polygon fill="white" stroke="black" points="149,-49.5 149,-79.5 257,-79.5 257,-49.5 149,-49.5"/>
<text text-anchor="start" x="157" y="-67.5" font-family="Helvetica,sans-Serif" font-size="10.00">hal::TimerServiceBsd</text>
<text text-anchor="middle" x="203" y="-56.5" font-family="Helvetica,sans-Serif" font-size="10.00">::WaitForTrigger</text>
</a>
</g>
</g>
<!-- Node244&#45;&gt;Node253 -->
<g id="edge9" class="edge"><title>Node244&#45;&gt;Node253</title>
<path fill="none" stroke="midnightblue" d="M106.013,-95.2409C122.15,-90.0727 139.527,-84.5076 155.002,-79.5516"/>
<polygon fill="midnightblue" stroke="midnightblue" points="104.609,-92.0152 96.1535,-98.3986 106.745,-98.6817 104.609,-92.0152"/>
</g>
<!-- Node255 -->
<g id="node12" class="node"><title>Node255</title>
<g id="a_node12"><a xlink:href="../../d1/d79/classhal_1_1_timer_service_win.html#ab1bb01d8405ab7b2634952c09a04e249" target="_top" xlink:title="hal::TimerServiceWin\l::WaitForTrigger">
<polygon fill="white" stroke="black" points="149,-0.5 149,-30.5 257,-30.5 257,-0.5 149,-0.5"/>
<text text-anchor="start" x="157" y="-18.5" font-family="Helvetica,sans-Serif" font-size="10.00">hal::TimerServiceWin</text>
<text text-anchor="middle" x="203" y="-7.5" font-family="Helvetica,sans-Serif" font-size="10.00">::WaitForTrigger</text>
</a>
</g>
</g>
<!-- Node244&#45;&gt;Node255 -->
<g id="edge11" class="edge"><title>Node244&#45;&gt;Node255</title>
<path fill="none" stroke="midnightblue" d="M69.4232,-91.0036C85.1755,-74.7909 108.227,-53.4038 132,-39.5 137.767,-36.1273 144.079,-33.1345 150.477,-30.5064"/>
<polygon fill="midnightblue" stroke="midnightblue" points="66.6583,-88.8321 62.3054,-98.4915 71.7319,-93.6549 66.6583,-88.8321"/>
</g>
<!-- Node246 -->
<g id="node3" class="node"><title>Node246</title>
<g id="a_node3"><a xlink:href="../../db/d9d/classinfra_1_1_derived_timer_service.html#a757e398797fa31a9637392778a8693d8" target="_top" xlink:title="infra::DerivedTimerService\l::Shift">
<polygon fill="white" stroke="black" points="313,-245.5 313,-275.5 441,-275.5 441,-245.5 313,-245.5"/>
<text text-anchor="start" x="321" y="-263.5" font-family="Helvetica,sans-Serif" font-size="10.00">infra::DerivedTimerService</text>
<text text-anchor="middle" x="377" y="-252.5" font-family="Helvetica,sans-Serif" font-size="10.00">::Shift</text>
</a>
</g>
</g>
<!-- Node245&#45;&gt;Node246 -->
<g id="edge2" class="edge"><title>Node245&#45;&gt;Node246</title>
<path fill="none" stroke="midnightblue" d="M277.008,-246.112C288.959,-247.849 301.253,-249.636 312.938,-251.334"/>
<polygon fill="midnightblue" stroke="midnightblue" points="277.469,-242.642 267.07,-244.667 276.462,-249.569 277.469,-242.642"/>
</g>
<!-- Node248 -->
<g id="node5" class="node"><title>Node248</title>
<g id="a_node5"><a xlink:href="../../da/dc4/classinfra_1_1_scalable_derived_timer_service.html#a30e873a4b4cf8cbacf09c1cddd55970b" target="_top" xlink:title="infra::ScalableDerivedTimer\lService::Scale">
<polygon fill="white" stroke="black" points="310,-196.5 310,-226.5 444,-226.5 444,-196.5 310,-196.5"/>
<text text-anchor="start" x="318" y="-214.5" font-family="Helvetica,sans-Serif" font-size="10.00">infra::ScalableDerivedTimer</text>
<text text-anchor="middle" x="377" y="-203.5" font-family="Helvetica,sans-Serif" font-size="10.00">Service::Scale</text>
</a>
</g>
</g>
<!-- Node247&#45;&gt;Node248 -->
<g id="edge4" class="edge"><title>Node247&#45;&gt;Node248</title>
<path fill="none" stroke="midnightblue" d="M266.812,-180.394C285.312,-185.664 305.359,-191.376 323.166,-196.448"/>
<polygon fill="midnightblue" stroke="midnightblue" points="267.585,-176.975 257.009,-177.601 265.668,-183.707 267.585,-176.975"/>
</g>
<!-- Node249 -->
<g id="node6" class="node"><title>Node249</title>
<g id="a_node6"><a xlink:href="../../da/dc4/classinfra_1_1_scalable_derived_timer_service.html#a5e73baf089685fb705478e7ad5db4915" target="_top" xlink:title="infra::ScalableDerivedTimer\lService::Shift">
<polygon fill="white" stroke="black" points="310,-147.5 310,-177.5 444,-177.5 444,-147.5 310,-147.5"/>
<text text-anchor="start" x="318" y="-165.5" font-family="Helvetica,sans-Serif" font-size="10.00">infra::ScalableDerivedTimer</text>
<text text-anchor="middle" x="377" y="-154.5" font-family="Helvetica,sans-Serif" font-size="10.00">Service::Shift</text>
</a>
</g>
</g>
<!-- Node247&#45;&gt;Node249 -->
<g id="edge5" class="edge"><title>Node247&#45;&gt;Node249</title>
<path fill="none" stroke="midnightblue" d="M284.67,-162.5C293.09,-162.5 301.578,-162.5 309.81,-162.5"/>
<polygon fill="midnightblue" stroke="midnightblue" points="284.455,-159 274.455,-162.5 284.455,-166 284.455,-159"/>
</g>
<!-- Node251 -->
<g id="node8" class="node"><title>Node251</title>
<g id="a_node8"><a xlink:href="../../df/d2e/classinfra_1_1_tick_on_interrupt_timer_service.html#a0d28d96bcfbeca6cad1712d7fee3fe12" target="_top" xlink:title="infra::TickOnInterruptTimer\lService::ProcessTicks">
<polygon fill="white" stroke="black" points="311.5,-98.5 311.5,-128.5 442.5,-128.5 442.5,-98.5 311.5,-98.5"/>
<text text-anchor="start" x="319.5" y="-116.5" font-family="Helvetica,sans-Serif" font-size="10.00">infra::TickOnInterruptTimer</text>
<text text-anchor="middle" x="377" y="-105.5" font-family="Helvetica,sans-Serif" font-size="10.00">Service::ProcessTicks</text>
</a>
</g>
</g>
<!-- Node250&#45;&gt;Node251 -->
<g id="edge7" class="edge"><title>Node250&#45;&gt;Node251</title>
<path fill="none" stroke="midnightblue" d="M278.837,-113.5C289.682,-113.5 300.768,-113.5 311.389,-113.5"/>
<polygon fill="midnightblue" stroke="midnightblue" points="278.536,-110 268.536,-113.5 278.536,-117 278.536,-110"/>
</g>
<!-- Node252 -->
<g id="node9" class="node"><title>Node252</title>
<g id="a_node9"><a xlink:href="../../df/d2e/classinfra_1_1_tick_on_interrupt_timer_service.html#af615ce0c6415bcc94cd68780136ba165" target="_top" xlink:title="infra::TickOnInterruptTimer\lService::SystemTickInterrupt">
<polygon fill="white" stroke="black" points="480,-98.5 480,-128.5 621,-128.5 621,-98.5 480,-98.5"/>
<text text-anchor="start" x="488" y="-116.5" font-family="Helvetica,sans-Serif" font-size="10.00">infra::TickOnInterruptTimer</text>
<text text-anchor="middle" x="550.5" y="-105.5" font-family="Helvetica,sans-Serif" font-size="10.00">Service::SystemTickInterrupt</text>
</a>
</g>
</g>
<!-- Node251&#45;&gt;Node252 -->
<g id="edge8" class="edge"><title>Node251&#45;&gt;Node252</title>
<path fill="none" stroke="midnightblue" d="M452.909,-113.5C461.909,-113.5 471.072,-113.5 479.992,-113.5"/>
<polygon fill="midnightblue" stroke="midnightblue" points="452.837,-110 442.837,-113.5 452.837,-117 452.837,-110"/>
</g>
<!-- Node254 -->
<g id="node11" class="node"><title>Node254</title>
<g id="a_node11"><a xlink:href="../../d7/d8f/classhal_1_1_timer_service_bsd.html#a7c5aaa118c30ecd78d358acf09e87479" target="_top" xlink:title="hal::TimerServiceBsd\l::TimerServiceBsd">
<polygon fill="white" stroke="black" points="323,-49.5 323,-79.5 431,-79.5 431,-49.5 323,-49.5"/>
<text text-anchor="start" x="331" y="-67.5" font-family="Helvetica,sans-Serif" font-size="10.00">hal::TimerServiceBsd</text>
<text text-anchor="middle" x="377" y="-56.5" font-family="Helvetica,sans-Serif" font-size="10.00">::TimerServiceBsd</text>
</a>
</g>
</g>
<!-- Node253&#45;&gt;Node254 -->
<g id="edge10" class="edge"><title>Node253&#45;&gt;Node254</title>
<path fill="none" stroke="midnightblue" d="M267.02,-64.5C285.359,-64.5 305.204,-64.5 322.87,-64.5"/>
<polygon fill="midnightblue" stroke="midnightblue" points="267.009,-61.0001 257.009,-64.5 267.009,-68.0001 267.009,-61.0001"/>
</g>
<!-- Node256 -->
<g id="node13" class="node"><title>Node256</title>
<g id="a_node13"><a xlink:href="../../d1/d79/classhal_1_1_timer_service_win.html#ae48d7518770ff8663f7c8dab08a6cf78" target="_top" xlink:title="hal::TimerServiceWin\l::TimerServiceWin">
<polygon fill="white" stroke="black" points="323,-0.5 323,-30.5 431,-30.5 431,-0.5 323,-0.5"/>
<text text-anchor="start" x="331" y="-18.5" font-family="Helvetica,sans-Serif" font-size="10.00">hal::TimerServiceWin</text>
<text text-anchor="middle" x="377" y="-7.5" font-family="Helvetica,sans-Serif" font-size="10.00">::TimerServiceWin</text>
</a>
</g>
</g>
<!-- Node255&#45;&gt;Node256 -->
<g id="edge12" class="edge"><title>Node255&#45;&gt;Node256</title>
<path fill="none" stroke="midnightblue" d="M267.02,-15.5C285.359,-15.5 305.204,-15.5 322.87,-15.5"/>
<polygon fill="midnightblue" stroke="midnightblue" points="267.009,-12.0001 257.009,-15.5 267.009,-19.0001 267.009,-12.0001"/>
</g>
</g>
</svg>
