<?xml version="1.0" encoding="UTF-8" standalone="no"?>
<!DOCTYPE svg PUBLIC "-//W3C//DTD SVG 1.1//EN"
 "http://www.w3.org/Graphics/SVG/1.1/DTD/svg11.dtd">
<!-- Generated by graphviz version 2.38.0 (20140413.2041)
 -->
<!-- Title: infra::TimerService::Now Pages: 1 -->
<svg width="1134pt" height="793pt"
 viewBox="0.00 0.00 1134.00 793.00" xmlns="http://www.w3.org/2000/svg" xmlns:xlink="http://www.w3.org/1999/xlink">
<g id="graph0" class="graph" transform="scale(1 1) rotate(0) translate(4 789)">
<title>infra::TimerService::Now</title>
<polygon fill="white" stroke="none" points="-4,4 -4,-789 1130,-789 1130,4 -4,4"/>
<!-- Node199 -->
<g id="node1" class="node"><title>Node199</title>
<polygon fill="#bfbfbf" stroke="black" points="0,-558 0,-577 121,-577 121,-558 0,-558"/>
<text text-anchor="middle" x="60.5" y="-565" font-family="Helvetica,sans-Serif" font-size="10.00">infra::TimerService::Now</text>
</g>
<!-- Node200 -->
<g id="node2" class="node"><title>Node200</title>
<g id="a_node2"><a xlink:href="../../df/dd7/classservices_1_1_tracer_with_date_time.html#ac360c2d929c55c2ac5883721e81614cd" target="_top" xlink:title="services::TracerWithDate\lTime::InsertHeader">
<polygon fill="white" stroke="black" points="170.5,-675.5 170.5,-705.5 295.5,-705.5 295.5,-675.5 170.5,-675.5"/>
<text text-anchor="start" x="178.5" y="-693.5" font-family="Helvetica,sans-Serif" font-size="10.00">services::TracerWithDate</text>
<text text-anchor="middle" x="233" y="-682.5" font-family="Helvetica,sans-Serif" font-size="10.00">Time::InsertHeader</text>
</a>
</g>
</g>
<!-- Node199&#45;&gt;Node200 -->
<g id="edge1" class="edge"><title>Node199&#45;&gt;Node200</title>
<path fill="none" stroke="midnightblue" d="M74.2566,-585.371C90.906,-607.455 122.07,-644.768 157,-666.5 162.456,-669.894 168.436,-672.851 174.565,-675.417"/>
<polygon fill="midnightblue" stroke="midnightblue" points="76.979,-583.165 68.2294,-577.191 71.3434,-587.318 76.979,-583.165"/>
</g>
<!-- Node201 -->
<g id="node3" class="node"><title>Node201</title>
<g id="a_node3"><a xlink:href="../../db/d11/classservices_1_1_tracer_with_time.html#a80689f367c34acb91802815809f148e5" target="_top" xlink:title="services::TracerWithTime\l::InsertHeader">
<polygon fill="white" stroke="black" points="170,-626.5 170,-656.5 296,-656.5 296,-626.5 170,-626.5"/>
<text text-anchor="start" x="178" y="-644.5" font-family="Helvetica,sans-Serif" font-size="10.00">services::TracerWithTime</text>
<text text-anchor="middle" x="233" y="-633.5" font-family="Helvetica,sans-Serif" font-size="10.00">::InsertHeader</text>
</a>
</g>
</g>
<!-- Node199&#45;&gt;Node201 -->
<g id="edge2" class="edge"><title>Node199&#45;&gt;Node201</title>
<path fill="none" stroke="midnightblue" d="M87.2752,-582.083C106.209,-592.458 132.751,-606.308 157,-616.5 165.351,-620.01 174.381,-623.372 183.185,-626.429"/>
<polygon fill="midnightblue" stroke="midnightblue" points="88.8214,-578.939 78.3775,-577.156 85.4305,-585.062 88.8214,-578.939"/>
</g>
<!-- Node202 -->
<g id="node4" class="node"><title>Node202</title>
<g id="a_node4"><a xlink:href="../../d0/de3/namespaceinfra.html#ab53300a9f254119ad1fa94f11bc1fccc" target="_top" xlink:title="infra::Now">
<polygon fill="white" stroke="black" points="203.5,-588 203.5,-607 262.5,-607 262.5,-588 203.5,-588"/>
<text text-anchor="middle" x="233" y="-595" font-family="Helvetica,sans-Serif" font-size="10.00">infra::Now</text>
</a>
</g>
</g>
<!-- Node199&#45;&gt;Node202 -->
<g id="edge3" class="edge"><title>Node199&#45;&gt;Node202</title>
<path fill="none" stroke="midnightblue" d="M125.975,-578.845C152.65,-583.538 182.216,-588.74 203.334,-592.456"/>
<polygon fill="midnightblue" stroke="midnightblue" points="126.371,-575.361 115.916,-577.075 125.158,-582.255 126.371,-575.361"/>
</g>
<!-- Node216 -->
<g id="node18" class="node"><title>Node216</title>
<g id="a_node18"><a xlink:href="../../da/dc4/classinfra_1_1_scalable_derived_timer_service.html#a75ea8d1af15ea8ed0f327138cdd58f22" target="_top" xlink:title="infra::ScalableDerivedTimer\lService::Now">
<polygon fill="white" stroke="black" points="166,-523.5 166,-553.5 300,-553.5 300,-523.5 166,-523.5"/>
<text text-anchor="start" x="174" y="-541.5" font-family="Helvetica,sans-Serif" font-size="10.00">infra::ScalableDerivedTimer</text>
<text text-anchor="middle" x="233" y="-530.5" font-family="Helvetica,sans-Serif" font-size="10.00">Service::Now</text>
</a>
</g>
</g>
<!-- Node199&#45;&gt;Node216 -->
<g id="edge17" class="edge"><title>Node199&#45;&gt;Node216</title>
<path fill="none" stroke="midnightblue" d="M127.729,-556.235C140.293,-554.098 153.437,-551.863 165.994,-549.727"/>
<polygon fill="midnightblue" stroke="midnightblue" points="127.072,-552.797 117.801,-557.924 128.246,-559.698 127.072,-552.797"/>
</g>
<!-- Node218 -->
<g id="node20" class="node"><title>Node218</title>
<g id="a_node20"><a xlink:href="../../db/d9d/classinfra_1_1_derived_timer_service.html#a09b9ef12b60c780c437545c00258c859" target="_top" xlink:title="infra::DerivedTimerService::Now">
<polygon fill="white" stroke="black" points="157,-466 157,-485 309,-485 309,-466 157,-466"/>
<text text-anchor="middle" x="233" y="-473" font-family="Helvetica,sans-Serif" font-size="10.00">infra::DerivedTimerService::Now</text>
</a>
</g>
</g>
<!-- Node199&#45;&gt;Node218 -->
<g id="edge19" class="edge"><title>Node199&#45;&gt;Node218</title>
<path fill="none" stroke="midnightblue" d="M87.0718,-553.061C106.245,-542.296 133.172,-527.304 157,-514.5 176.004,-504.288 197.912,-492.945 213.124,-485.136"/>
<polygon fill="midnightblue" stroke="midnightblue" points="85.3299,-550.026 78.3301,-557.979 88.7618,-556.127 85.3299,-550.026"/>
</g>
<!-- Node222 -->
<g id="node24" class="node"><title>Node222</title>
<g id="a_node24"><a xlink:href="../../d5/da5/classinfra_1_1_timer.html#a0a6147203d9afc7b16456c161b7aaf62" target="_top" xlink:title="infra::Timer::Now">
<polygon fill="white" stroke="black" points="188.5,-214 188.5,-233 277.5,-233 277.5,-214 188.5,-214"/>
<text text-anchor="middle" x="233" y="-221" font-family="Helvetica,sans-Serif" font-size="10.00">infra::Timer::Now</text>
</a>
</g>
</g>
<!-- Node199&#45;&gt;Node222 -->
<g id="edge23" class="edge"><title>Node199&#45;&gt;Node222</title>
<path fill="none" stroke="midnightblue" d="M70.8132,-548.71C102.267,-485.248 203.893,-280.209 227.204,-233.176"/>
<polygon fill="midnightblue" stroke="midnightblue" points="67.5431,-547.426 66.2381,-557.94 73.815,-550.535 67.5431,-547.426"/>
</g>
<!-- Node203 -->
<g id="node5" class="node"><title>Node203</title>
<g id="a_node5"><a xlink:href="../../d0/d0e/classservices_1_1_name_resolver_cache.html#a94507ff8cefc3037d6695fdc82c827e3" target="_top" xlink:title="services::NameResolverCache\l::Cleanup">
<polygon fill="white" stroke="black" points="377,-754.5 377,-784.5 525,-784.5 525,-754.5 377,-754.5"/>
<text text-anchor="start" x="385" y="-772.5" font-family="Helvetica,sans-Serif" font-size="10.00">services::NameResolverCache</text>
<text text-anchor="middle" x="451" y="-761.5" font-family="Helvetica,sans-Serif" font-size="10.00">::Cleanup</text>
</a>
</g>
</g>
<!-- Node202&#45;&gt;Node203 -->
<g id="edge4" class="edge"><title>Node202&#45;&gt;Node203</title>
<path fill="none" stroke="midnightblue" d="M272.839,-600.169C285.807,-602.892 299.386,-608.016 309,-617.5 351.07,-659.003 302.192,-704.759 345,-745.5 353.872,-753.944 365.078,-759.638 376.843,-763.437"/>
<polygon fill="midnightblue" stroke="midnightblue" points="273.1,-596.663 262.659,-598.461 271.942,-603.567 273.1,-596.663"/>
</g>
<!-- Node207 -->
<g id="node9" class="node"><title>Node207</title>
<g id="a_node9"><a xlink:href="../../d5/dcb/classservices_1_1_repeating_button_1_1_fire_timer.html#a02028e13fbd288a5c276fa3cc0fac8fd" target="_top" xlink:title="services::RepeatingButton\l::FireTimer::ComputeNextTriggerTime">
<polygon fill="white" stroke="black" points="361.5,-705.5 361.5,-735.5 540.5,-735.5 540.5,-705.5 361.5,-705.5"/>
<text text-anchor="start" x="369.5" y="-723.5" font-family="Helvetica,sans-Serif" font-size="10.00">services::RepeatingButton</text>
<text text-anchor="middle" x="451" y="-712.5" font-family="Helvetica,sans-Serif" font-size="10.00">::FireTimer::ComputeNextTriggerTime</text>
</a>
</g>
</g>
<!-- Node202&#45;&gt;Node207 -->
<g id="edge8" class="edge"><title>Node202&#45;&gt;Node207</title>
<path fill="none" stroke="midnightblue" d="M272.673,-601.152C285.388,-603.98 298.85,-608.918 309,-617.5 338.464,-642.413 315.094,-672.119 345,-696.5 350,-700.576 355.56,-703.99 361.437,-706.845"/>
<polygon fill="midnightblue" stroke="midnightblue" points="273.184,-597.687 262.713,-599.307 271.909,-604.57 273.184,-597.687"/>
</g>
<!-- Node208 -->
<g id="node10" class="node"><title>Node208</title>
<g id="a_node10"><a xlink:href="../../d8/dbd/classservices_1_1_name_lookup_win.html#afcf5c4d0f1af787356c6af874c8d0541" target="_top" xlink:title="services::NameLookupWin\l::LookupIPv4">
<polygon fill="white" stroke="black" points="385,-656.5 385,-686.5 517,-686.5 517,-656.5 385,-656.5"/>
<text text-anchor="start" x="393" y="-674.5" font-family="Helvetica,sans-Serif" font-size="10.00">services::NameLookupWin</text>
<text text-anchor="middle" x="451" y="-663.5" font-family="Helvetica,sans-Serif" font-size="10.00">::LookupIPv4</text>
</a>
</g>
</g>
<!-- Node202&#45;&gt;Node208 -->
<g id="edge9" class="edge"><title>Node202&#45;&gt;Node208</title>
<path fill="none" stroke="midnightblue" d="M272.672,-604.419C284.72,-607.456 297.78,-611.692 309,-617.5 327.496,-627.075 326.335,-638.259 345,-647.5 357.317,-653.598 371.217,-658.173 384.775,-661.597"/>
<polygon fill="midnightblue" stroke="midnightblue" points="273.384,-600.991 262.852,-602.142 271.803,-607.811 273.384,-600.991"/>
</g>
<!-- Node211 -->
<g id="node13" class="node"><title>Node211</title>
<g id="a_node13"><a xlink:href="../../d5/d9a/classservices_1_1_dns_resolver_1_1_reply_parser.html#a0585c16558767165c4fe5842007fc935" target="_top" xlink:title="services::DnsResolver\l::ReplyParser::ReadAnswer">
<polygon fill="white" stroke="black" points="382.5,-607.5 382.5,-637.5 519.5,-637.5 519.5,-607.5 382.5,-607.5"/>
<text text-anchor="start" x="390.5" y="-625.5" font-family="Helvetica,sans-Serif" font-size="10.00">services::DnsResolver</text>
<text text-anchor="middle" x="451" y="-614.5" font-family="Helvetica,sans-Serif" font-size="10.00">::ReplyParser::ReadAnswer</text>
</a>
</g>
</g>
<!-- Node202&#45;&gt;Node211 -->
<g id="edge12" class="edge"><title>Node202&#45;&gt;Node211</title>
<path fill="none" stroke="midnightblue" d="M272.856,-601.997C303.189,-605.508 346.076,-610.472 382.055,-614.636"/>
<polygon fill="midnightblue" stroke="midnightblue" points="273.019,-598.493 262.683,-600.82 272.214,-605.446 273.019,-598.493"/>
</g>
<!-- Node212 -->
<g id="node14" class="node"><title>Node212</title>
<g id="a_node14"><a xlink:href="../../d5/dcb/classservices_1_1_repeating_button_1_1_fire_timer.html#a35c1ff01ea5125e5d464aba3eeab3122" target="_top" xlink:title="services::RepeatingButton\l::FireTimer::Start">
<polygon fill="white" stroke="black" points="386,-558.5 386,-588.5 516,-588.5 516,-558.5 386,-558.5"/>
<text text-anchor="start" x="394" y="-576.5" font-family="Helvetica,sans-Serif" font-size="10.00">services::RepeatingButton</text>
<text text-anchor="middle" x="451" y="-565.5" font-family="Helvetica,sans-Serif" font-size="10.00">::FireTimer::Start</text>
</a>
</g>
</g>
<!-- Node202&#45;&gt;Node212 -->
<g id="edge13" class="edge"><title>Node202&#45;&gt;Node212</title>
<path fill="none" stroke="midnightblue" d="M272.772,-593.192C304.136,-589.707 348.964,-584.726 385.686,-580.646"/>
<polygon fill="midnightblue" stroke="midnightblue" points="272.235,-589.73 262.683,-594.313 273.009,-596.687 272.235,-589.73"/>
</g>
<!-- Node204 -->
<g id="node6" class="node"><title>Node204</title>
<g id="a_node6"><a xlink:href="../../d0/d0e/classservices_1_1_name_resolver_cache.html#a4bea9f7ed8aa9320e48906769a0ad9f6" target="_top" xlink:title="services::NameResolverCache\l::AddToCache">
<polygon fill="white" stroke="black" points="596.5,-754.5 596.5,-784.5 744.5,-784.5 744.5,-754.5 596.5,-754.5"/>
<text text-anchor="start" x="604.5" y="-772.5" font-family="Helvetica,sans-Serif" font-size="10.00">services::NameResolverCache</text>
<text text-anchor="middle" x="670.5" y="-761.5" font-family="Helvetica,sans-Serif" font-size="10.00">::AddToCache</text>
</a>
</g>
</g>
<!-- Node203&#45;&gt;Node204 -->
<g id="edge5" class="edge"><title>Node203&#45;&gt;Node204</title>
<path fill="none" stroke="midnightblue" d="M535.118,-769.5C555.26,-769.5 576.646,-769.5 596.293,-769.5"/>
<polygon fill="midnightblue" stroke="midnightblue" points="535.029,-766 525.029,-769.5 535.029,-773 535.029,-766"/>
</g>
<!-- Node205 -->
<g id="node7" class="node"><title>Node205</title>
<g id="a_node7"><a xlink:href="../../d0/d0e/classservices_1_1_name_resolver_cache.html#a8d759a5e4b14b66215080996aed525c0" target="_top" xlink:title="services::NameResolverCache\l::TryAddToCache">
<polygon fill="white" stroke="black" points="789,-754.5 789,-784.5 937,-784.5 937,-754.5 789,-754.5"/>
<text text-anchor="start" x="797" y="-772.5" font-family="Helvetica,sans-Serif" font-size="10.00">services::NameResolverCache</text>
<text text-anchor="middle" x="863" y="-761.5" font-family="Helvetica,sans-Serif" font-size="10.00">::TryAddToCache</text>
</a>
</g>
</g>
<!-- Node204&#45;&gt;Node205 -->
<g id="edge6" class="edge"><title>Node204&#45;&gt;Node205</title>
<path fill="none" stroke="midnightblue" d="M754.889,-769.5C766.174,-769.5 777.684,-769.5 788.773,-769.5"/>
<polygon fill="midnightblue" stroke="midnightblue" points="754.607,-766 744.607,-769.5 754.607,-773 754.607,-766"/>
</g>
<!-- Node206 -->
<g id="node8" class="node"><title>Node206</title>
<g id="a_node8"><a xlink:href="../../d0/d0e/classservices_1_1_name_resolver_cache.html#acf7510ed181dff53bc67837c490b6062" target="_top" xlink:title="services::NameResolverCache\l::NameLookupSuccess">
<polygon fill="white" stroke="black" points="978,-754.5 978,-784.5 1126,-784.5 1126,-754.5 978,-754.5"/>
<text text-anchor="start" x="986" y="-772.5" font-family="Helvetica,sans-Serif" font-size="10.00">services::NameResolverCache</text>
<text text-anchor="middle" x="1052" y="-761.5" font-family="Helvetica,sans-Serif" font-size="10.00">::NameLookupSuccess</text>
</a>
</g>
</g>
<!-- Node205&#45;&gt;Node206 -->
<g id="edge7" class="edge"><title>Node205&#45;&gt;Node206</title>
<path fill="none" stroke="midnightblue" d="M947.259,-769.5C957.489,-769.5 967.885,-769.5 977.948,-769.5"/>
<polygon fill="midnightblue" stroke="midnightblue" points="947.103,-766 937.103,-769.5 947.102,-773 947.103,-766"/>
</g>
<!-- Node209 -->
<g id="node11" class="node"><title>Node209</title>
<g id="a_node11"><a xlink:href="../../d8/dbd/classservices_1_1_name_lookup_win.html#a94bebcaf572453651531050398cb47d8" target="_top" xlink:title="services::NameLookupWin::Run">
<polygon fill="white" stroke="black" points="593,-662 593,-681 748,-681 748,-662 593,-662"/>
<text text-anchor="middle" x="670.5" y="-669" font-family="Helvetica,sans-Serif" font-size="10.00">services::NameLookupWin::Run</text>
</a>
</g>
</g>
<!-- Node208&#45;&gt;Node209 -->
<g id="edge10" class="edge"><title>Node208&#45;&gt;Node209</title>
<path fill="none" stroke="midnightblue" d="M527.468,-671.5C548.604,-671.5 571.597,-671.5 592.803,-671.5"/>
<polygon fill="midnightblue" stroke="midnightblue" points="527.257,-668 517.257,-671.5 527.257,-675 527.257,-668"/>
</g>
<!-- Node210 -->
<g id="node12" class="node"><title>Node210</title>
<g id="a_node12"><a xlink:href="../../d8/dbd/classservices_1_1_name_lookup_win.html#ae00677ab7da6b7f7e2aba8eef6804504" target="_top" xlink:title="services::NameLookupWin\l::NameLookupWin">
<polygon fill="white" stroke="black" points="797,-656.5 797,-686.5 929,-686.5 929,-656.5 797,-656.5"/>
<text text-anchor="start" x="805" y="-674.5" font-family="Helvetica,sans-Serif" font-size="10.00">services::NameLookupWin</text>
<text text-anchor="middle" x="863" y="-663.5" font-family="Helvetica,sans-Serif" font-size="10.00">::NameLookupWin</text>
</a>
</g>
</g>
<!-- Node209&#45;&gt;Node210 -->
<g id="edge11" class="edge"><title>Node209&#45;&gt;Node210</title>
<path fill="none" stroke="midnightblue" d="M758.447,-671.5C771.351,-671.5 784.461,-671.5 796.818,-671.5"/>
<polygon fill="midnightblue" stroke="midnightblue" points="758.16,-668 748.16,-671.5 758.16,-675 758.16,-668"/>
</g>
<!-- Node213 -->
<g id="node15" class="node"><title>Node213</title>
<g id="a_node15"><a xlink:href="../../d0/d08/classservices_1_1_repeating_button.html#a18153734f98c67f2096d641f5fb8d66f" target="_top" xlink:title="services::RepeatingButton\l::ButtonPressed">
<polygon fill="white" stroke="black" points="605.5,-558.5 605.5,-588.5 735.5,-588.5 735.5,-558.5 605.5,-558.5"/>
<text text-anchor="start" x="613.5" y="-576.5" font-family="Helvetica,sans-Serif" font-size="10.00">services::RepeatingButton</text>
<text text-anchor="middle" x="670.5" y="-565.5" font-family="Helvetica,sans-Serif" font-size="10.00">::ButtonPressed</text>
</a>
</g>
</g>
<!-- Node212&#45;&gt;Node213 -->
<g id="edge14" class="edge"><title>Node212&#45;&gt;Node213</title>
<path fill="none" stroke="midnightblue" d="M526.131,-573.5C551.789,-573.5 580.317,-573.5 605.126,-573.5"/>
<polygon fill="midnightblue" stroke="midnightblue" points="526.081,-570 516.081,-573.5 526.081,-577 526.081,-570"/>
</g>
<!-- Node214 -->
<g id="node16" class="node"><title>Node214</title>
<g id="a_node16"><a xlink:href="../../d0/d08/classservices_1_1_repeating_button.html#af9db5b4934e4610beb5e5071de6c58b7" target="_top" xlink:title="services::RepeatingButton\l::ButtonChanged">
<polygon fill="white" stroke="black" points="798,-558.5 798,-588.5 928,-588.5 928,-558.5 798,-558.5"/>
<text text-anchor="start" x="806" y="-576.5" font-family="Helvetica,sans-Serif" font-size="10.00">services::RepeatingButton</text>
<text text-anchor="middle" x="863" y="-565.5" font-family="Helvetica,sans-Serif" font-size="10.00">::ButtonChanged</text>
</a>
</g>
</g>
<!-- Node213&#45;&gt;Node214 -->
<g id="edge15" class="edge"><title>Node213&#45;&gt;Node214</title>
<path fill="none" stroke="midnightblue" d="M746.193,-573.5C763.224,-573.5 781.175,-573.5 797.726,-573.5"/>
<polygon fill="midnightblue" stroke="midnightblue" points="745.729,-570 735.729,-573.5 745.729,-577 745.729,-570"/>
</g>
<!-- Node215 -->
<g id="node17" class="node"><title>Node215</title>
<g id="a_node17"><a xlink:href="../../d0/d08/classservices_1_1_repeating_button.html#aa38e30277c5df615ae1a86617c4127c0" target="_top" xlink:title="services::RepeatingButton\l::RepeatingButton">
<polygon fill="white" stroke="black" points="987,-558.5 987,-588.5 1117,-588.5 1117,-558.5 987,-558.5"/>
<text text-anchor="start" x="995" y="-576.5" font-family="Helvetica,sans-Serif" font-size="10.00">services::RepeatingButton</text>
<text text-anchor="middle" x="1052" y="-565.5" font-family="Helvetica,sans-Serif" font-size="10.00">::RepeatingButton</text>
</a>
</g>
</g>
<!-- Node214&#45;&gt;Node215 -->
<g id="edge16" class="edge"><title>Node214&#45;&gt;Node215</title>
<path fill="none" stroke="midnightblue" d="M938.506,-573.5C954.555,-573.5 971.384,-573.5 986.991,-573.5"/>
<polygon fill="midnightblue" stroke="midnightblue" points="938.093,-570 928.093,-573.5 938.093,-577 938.093,-570"/>
</g>
<!-- Node217 -->
<g id="node19" class="node"><title>Node217</title>
<g id="a_node19"><a xlink:href="../../da/dc4/classinfra_1_1_scalable_derived_timer_service.html#a30e873a4b4cf8cbacf09c1cddd55970b" target="_top" xlink:title="infra::ScalableDerivedTimer\lService::Scale">
<polygon fill="white" stroke="black" points="384,-509.5 384,-539.5 518,-539.5 518,-509.5 384,-509.5"/>
<text text-anchor="start" x="392" y="-527.5" font-family="Helvetica,sans-Serif" font-size="10.00">infra::ScalableDerivedTimer</text>
<text text-anchor="middle" x="451" y="-516.5" font-family="Helvetica,sans-Serif" font-size="10.00">Service::Scale</text>
</a>
</g>
</g>
<!-- Node216&#45;&gt;Node217 -->
<g id="edge18" class="edge"><title>Node216&#45;&gt;Node217</title>
<path fill="none" stroke="midnightblue" d="M310.398,-533.548C334.379,-531.994 360.64,-530.292 383.85,-528.787"/>
<polygon fill="midnightblue" stroke="midnightblue" points="310.028,-530.065 300.275,-534.204 310.481,-537.05 310.028,-530.065"/>
</g>
<!-- Node219 -->
<g id="node21" class="node"><title>Node219</title>
<g id="a_node21"><a xlink:href="../../d8/d04/classservices_1_1_sntp_client.html#a221c7cd699661e4440413c96e75cea75" target="_top" xlink:title="services::SntpClient\l::NotifyOffsetAndDelay">
<polygon fill="white" stroke="black" points="393.5,-460.5 393.5,-490.5 508.5,-490.5 508.5,-460.5 393.5,-460.5"/>
<text text-anchor="start" x="401.5" y="-478.5" font-family="Helvetica,sans-Serif" font-size="10.00">services::SntpClient</text>
<text text-anchor="middle" x="451" y="-467.5" font-family="Helvetica,sans-Serif" font-size="10.00">::NotifyOffsetAndDelay</text>
</a>
</g>
</g>
<!-- Node218&#45;&gt;Node219 -->
<g id="edge20" class="edge"><title>Node218&#45;&gt;Node219</title>
<path fill="none" stroke="midnightblue" d="M319.408,-475.5C344.266,-475.5 370.795,-475.5 393.405,-475.5"/>
<polygon fill="midnightblue" stroke="midnightblue" points="319.243,-472 309.243,-475.5 319.243,-479 319.243,-472"/>
</g>
<!-- Node221 -->
<g id="node23" class="node"><title>Node221</title>
<g id="a_node23"><a xlink:href="../../d8/d04/classservices_1_1_sntp_client.html#a11eacb36be58032d1e8fd43d53eae2ef" target="_top" xlink:title="services::SntpClient\l::SendStreamAvailable">
<polygon fill="white" stroke="black" points="393.5,-411.5 393.5,-441.5 508.5,-441.5 508.5,-411.5 393.5,-411.5"/>
<text text-anchor="start" x="401.5" y="-429.5" font-family="Helvetica,sans-Serif" font-size="10.00">services::SntpClient</text>
<text text-anchor="middle" x="451" y="-418.5" font-family="Helvetica,sans-Serif" font-size="10.00">::SendStreamAvailable</text>
</a>
</g>
</g>
<!-- Node218&#45;&gt;Node221 -->
<g id="edge22" class="edge"><title>Node218&#45;&gt;Node221</title>
<path fill="none" stroke="midnightblue" d="M286.048,-463.693C318.364,-456.362 359.914,-446.936 393.098,-439.408"/>
<polygon fill="midnightblue" stroke="midnightblue" points="284.881,-460.369 275.903,-465.994 286.43,-467.195 284.881,-460.369"/>
</g>
<!-- Node220 -->
<g id="node22" class="node"><title>Node220</title>
<g id="a_node22"><a xlink:href="../../d8/d04/classservices_1_1_sntp_client.html#a34f569549a7c6f789382a6dd9f44ba24" target="_top" xlink:title="services::SntpClient\l::DataReceived">
<polygon fill="white" stroke="black" points="619,-460.5 619,-490.5 722,-490.5 722,-460.5 619,-460.5"/>
<text text-anchor="start" x="627" y="-478.5" font-family="Helvetica,sans-Serif" font-size="10.00">services::SntpClient</text>
<text text-anchor="middle" x="670.5" y="-467.5" font-family="Helvetica,sans-Serif" font-size="10.00">::DataReceived</text>
</a>
</g>
</g>
<!-- Node219&#45;&gt;Node220 -->
<g id="edge21" class="edge"><title>Node219&#45;&gt;Node220</title>
<path fill="none" stroke="midnightblue" d="M518.81,-475.5C551.007,-475.5 588.995,-475.5 618.775,-475.5"/>
<polygon fill="midnightblue" stroke="midnightblue" points="518.578,-472 508.578,-475.5 518.578,-479 518.578,-472"/>
</g>
<!-- Node223 -->
<g id="node25" class="node"><title>Node223</title>
<g id="a_node25"><a xlink:href="../../db/d9e/classinfra_1_1_timer_limited_repeating.html#aad715048de6f39f1fdb691a2ebf465b9" target="_top" xlink:title="infra::TimerLimitedRepeating\l::ComputeNextTriggerTime">
<polygon fill="white" stroke="black" points="381,-362.5 381,-392.5 521,-392.5 521,-362.5 381,-362.5"/>
<text text-anchor="start" x="389" y="-380.5" font-family="Helvetica,sans-Serif" font-size="10.00">infra::TimerLimitedRepeating</text>
<text text-anchor="middle" x="451" y="-369.5" font-family="Helvetica,sans-Serif" font-size="10.00">::ComputeNextTriggerTime</text>
</a>
</g>
</g>
<!-- Node222&#45;&gt;Node223 -->
<g id="edge24" class="edge"><title>Node222&#45;&gt;Node223</title>
<path fill="none" stroke="midnightblue" d="M245.412,-241.781C263.299,-268.921 300.533,-319.653 345,-347.5 355.926,-354.342 368.456,-359.666 380.967,-363.796"/>
<polygon fill="midnightblue" stroke="midnightblue" points="248.269,-239.753 239.911,-233.241 242.384,-243.543 248.269,-239.753"/>
</g>
<!-- Node224 -->
<g id="node26" class="node"><title>Node224</title>
<g id="a_node26"><a xlink:href="../../db/d9e/classinfra_1_1_timer_limited_repeating.html#a9b10d097885e6940c419ddbb62502939" target="_top" xlink:title="infra::TimerLimitedRepeating\l::Start">
<polygon fill="white" stroke="black" points="600.5,-340.5 600.5,-370.5 740.5,-370.5 740.5,-340.5 600.5,-340.5"/>
<text text-anchor="start" x="608.5" y="-358.5" font-family="Helvetica,sans-Serif" font-size="10.00">infra::TimerLimitedRepeating</text>
<text text-anchor="middle" x="670.5" y="-347.5" font-family="Helvetica,sans-Serif" font-size="10.00">::Start</text>
</a>
</g>
</g>
<!-- Node222&#45;&gt;Node224 -->
<g id="edge35" class="edge"><title>Node222&#45;&gt;Node224</title>
<path fill="none" stroke="midnightblue" d="M249.291,-240.725C269.092,-261.778 305.746,-296.672 345,-313.5 389.575,-332.61 519.051,-344.912 600.341,-350.987"/>
<polygon fill="midnightblue" stroke="midnightblue" points="251.672,-238.144 242.33,-233.148 246.517,-242.88 251.672,-238.144"/>
</g>
<!-- Node226 -->
<g id="node28" class="node"><title>Node226</title>
<g id="a_node28"><a xlink:href="../../df/d93/classinfra_1_1_timer_limited_repeating_with_closing_action.html#a0d8d9ed0cdc1f0802a79c9acf9ec1f84" target="_top" xlink:title="infra::TimerLimitedRepeating\lWithClosingAction::ComputeNextTriggerTime">
<polygon fill="white" stroke="black" points="345,-274.5 345,-304.5 557,-304.5 557,-274.5 345,-274.5"/>
<text text-anchor="start" x="353" y="-292.5" font-family="Helvetica,sans-Serif" font-size="10.00">infra::TimerLimitedRepeating</text>
<text text-anchor="middle" x="451" y="-281.5" font-family="Helvetica,sans-Serif" font-size="10.00">WithClosingAction::ComputeNextTriggerTime</text>
</a>
</g>
</g>
<!-- Node222&#45;&gt;Node226 -->
<g id="edge27" class="edge"><title>Node222&#45;&gt;Node226</title>
<path fill="none" stroke="midnightblue" d="M272.332,-236.301C293.669,-243.333 320.743,-252.104 345,-259.5 361.502,-264.532 379.54,-269.777 395.936,-274.448"/>
<polygon fill="midnightblue" stroke="midnightblue" points="273.254,-232.919 262.661,-233.103 271.056,-239.565 273.254,-232.919"/>
</g>
<!-- Node227 -->
<g id="node29" class="node"><title>Node227</title>
<g id="a_node29"><a xlink:href="../../df/d93/classinfra_1_1_timer_limited_repeating_with_closing_action.html#a260a7dcf1446a2456aa93e8cfccf73f7" target="_top" xlink:title="infra::TimerLimitedRepeating\lWithClosingAction::Start">
<polygon fill="white" stroke="black" points="600.5,-256.5 600.5,-286.5 740.5,-286.5 740.5,-256.5 600.5,-256.5"/>
<text text-anchor="start" x="608.5" y="-274.5" font-family="Helvetica,sans-Serif" font-size="10.00">infra::TimerLimitedRepeating</text>
<text text-anchor="middle" x="670.5" y="-263.5" font-family="Helvetica,sans-Serif" font-size="10.00">WithClosingAction::Start</text>
</a>
</g>
</g>
<!-- Node222&#45;&gt;Node227 -->
<g id="edge40" class="edge"><title>Node222&#45;&gt;Node227</title>
<path fill="none" stroke="midnightblue" d="M287.959,-229.447C366.884,-238.146 513.814,-254.341 600.498,-263.895"/>
<polygon fill="midnightblue" stroke="midnightblue" points="288.075,-225.939 277.751,-228.322 287.308,-232.897 288.075,-225.939"/>
</g>
<!-- Node229 -->
<g id="node31" class="node"><title>Node229</title>
<g id="a_node31"><a xlink:href="../../d3/d9e/classinfra_1_1_timer_repeating.html#acef61c6675df5a97b7c6ea1f8325adbe" target="_top" xlink:title="infra::TimerRepeating\l::ComputeNextTriggerTime">
<polygon fill="white" stroke="black" points="385,-186.5 385,-216.5 517,-216.5 517,-186.5 385,-186.5"/>
<text text-anchor="start" x="393" y="-204.5" font-family="Helvetica,sans-Serif" font-size="10.00">infra::TimerRepeating</text>
<text text-anchor="middle" x="451" y="-193.5" font-family="Helvetica,sans-Serif" font-size="10.00">::ComputeNextTriggerTime</text>
</a>
</g>
</g>
<!-- Node222&#45;&gt;Node229 -->
<g id="edge30" class="edge"><title>Node222&#45;&gt;Node229</title>
<path fill="none" stroke="midnightblue" d="M287.765,-218.024C317.101,-215.036 353.646,-211.314 384.62,-208.159"/>
<polygon fill="midnightblue" stroke="midnightblue" points="287.305,-214.553 277.711,-219.048 288.014,-221.517 287.305,-214.553"/>
</g>
<!-- Node231 -->
<g id="node33" class="node"><title>Node231</title>
<g id="a_node33"><a xlink:href="../../d3/d9e/classinfra_1_1_timer_repeating.html#ad2eeb1fcc08e3eab3ceb404e2338597b" target="_top" xlink:title="infra::TimerRepeating\l::Start">
<polygon fill="white" stroke="black" points="809,-183.5 809,-213.5 917,-213.5 917,-183.5 809,-183.5"/>
<text text-anchor="start" x="817" y="-201.5" font-family="Helvetica,sans-Serif" font-size="10.00">infra::TimerRepeating</text>
<text text-anchor="middle" x="863" y="-190.5" font-family="Helvetica,sans-Serif" font-size="10.00">::Start</text>
</a>
</g>
</g>
<!-- Node222&#45;&gt;Node231 -->
<g id="edge42" class="edge"><title>Node222&#45;&gt;Node231</title>
<path fill="none" stroke="midnightblue" d="M259.585,-209.172C281.49,-197.773 314.272,-182.737 345,-176.5 520.531,-140.869 569.702,-159.453 748,-176.5 768.065,-178.418 789.85,-182.195 808.948,-186.085"/>
<polygon fill="midnightblue" stroke="midnightblue" points="257.794,-206.16 250.616,-213.953 261.087,-212.337 257.794,-206.16"/>
</g>
<!-- Node234 -->
<g id="node36" class="node"><title>Node234</title>
<g id="a_node36"><a xlink:href="../../d0/d7e/classinfra_1_1_timer_evolving.html#a5635a0cace39581c32bb3e488f83854c" target="_top" xlink:title="infra::TimerEvolving\l::Start">
<polygon fill="white" stroke="black" points="401.5,-98.5 401.5,-128.5 500.5,-128.5 500.5,-98.5 401.5,-98.5"/>
<text text-anchor="start" x="409.5" y="-116.5" font-family="Helvetica,sans-Serif" font-size="10.00">infra::TimerEvolving</text>
<text text-anchor="middle" x="451" y="-105.5" font-family="Helvetica,sans-Serif" font-size="10.00">::Start</text>
</a>
</g>
</g>
<!-- Node222&#45;&gt;Node234 -->
<g id="edge36" class="edge"><title>Node222&#45;&gt;Node234</title>
<path fill="none" stroke="midnightblue" d="M252.312,-207.204C273.33,-189.271 309.493,-160.713 345,-143.5 362.657,-134.94 383.199,-128.398 401.408,-123.642"/>
<polygon fill="midnightblue" stroke="midnightblue" points="249.79,-204.758 244.528,-213.954 254.376,-210.046 249.79,-204.758"/>
</g>
<!-- Node236 -->
<g id="node38" class="node"><title>Node236</title>
<g id="a_node38"><a xlink:href="../../d9/dec/classinfra_1_1_timer_alternating.html#a19acbb208e43bd8cc6bdf6c110830095" target="_top" xlink:title="infra::TimerAlternating\l::Start">
<polygon fill="white" stroke="black" points="395.5,-49.5 395.5,-79.5 506.5,-79.5 506.5,-49.5 395.5,-49.5"/>
<text text-anchor="start" x="403.5" y="-67.5" font-family="Helvetica,sans-Serif" font-size="10.00">infra::TimerAlternating</text>
<text text-anchor="middle" x="451" y="-56.5" font-family="Helvetica,sans-Serif" font-size="10.00">::Start</text>
</a>
</g>
</g>
<!-- Node222&#45;&gt;Node236 -->
<g id="edge38" class="edge"><title>Node222&#45;&gt;Node236</title>
<path fill="none" stroke="midnightblue" d="M243.839,-204.956C260.516,-175.422 297.233,-118.029 345,-88.5 360.031,-79.2083 378.272,-73.5061 395.306,-70.0095"/>
<polygon fill="midnightblue" stroke="midnightblue" points="240.715,-203.374 238.964,-213.823 246.849,-206.746 240.715,-203.374"/>
</g>
<!-- Node238 -->
<g id="node40" class="node"><title>Node238</title>
<g id="a_node40"><a xlink:href="../../d8/d87/classinfra_1_1_timer_single_shot.html#ab75faf32e89fe9f1f1aed1d7d5b28287" target="_top" xlink:title="infra::TimerSingleShot\l::Start">
<polygon fill="white" stroke="black" points="395,-0.5 395,-30.5 507,-30.5 507,-0.5 395,-0.5"/>
<text text-anchor="start" x="403" y="-18.5" font-family="Helvetica,sans-Serif" font-size="10.00">infra::TimerSingleShot</text>
<text text-anchor="middle" x="451" y="-7.5" font-family="Helvetica,sans-Serif" font-size="10.00">::Start</text>
</a>
</g>
</g>
<!-- Node222&#45;&gt;Node238 -->
<g id="edge41" class="edge"><title>Node222&#45;&gt;Node238</title>
<path fill="none" stroke="midnightblue" d="M240.088,-203.735C252.9,-165.599 286.404,-81.8959 345,-39.5 359.468,-29.0319 377.754,-23.0341 394.995,-19.628"/>
<polygon fill="midnightblue" stroke="midnightblue" points="236.64,-203.021 236.894,-213.613 243.301,-205.174 236.64,-203.021"/>
</g>
<!-- Node223&#45;&gt;Node224 -->
<g id="edge25" class="edge"><title>Node223&#45;&gt;Node224</title>
<path fill="none" stroke="midnightblue" d="M531.337,-369.475C553.895,-367.193 578.278,-364.727 600.189,-362.511"/>
<polygon fill="midnightblue" stroke="midnightblue" points="530.714,-366.02 521.117,-370.509 531.419,-372.985 530.714,-366.02"/>
</g>
<!-- Node225 -->
<g id="node27" class="node"><title>Node225</title>
<g id="a_node27"><a xlink:href="../../db/d9e/classinfra_1_1_timer_limited_repeating.html#a791dd159790bfc74601eb909ea9594fa" target="_top" xlink:title="infra::TimerLimitedRepeating\l::TimerLimitedRepeating">
<polygon fill="white" stroke="black" points="793,-340.5 793,-370.5 933,-370.5 933,-340.5 793,-340.5"/>
<text text-anchor="start" x="801" y="-358.5" font-family="Helvetica,sans-Serif" font-size="10.00">infra::TimerLimitedRepeating</text>
<text text-anchor="middle" x="863" y="-347.5" font-family="Helvetica,sans-Serif" font-size="10.00">::TimerLimitedRepeating</text>
</a>
</g>
</g>
<!-- Node224&#45;&gt;Node225 -->
<g id="edge26" class="edge"><title>Node224&#45;&gt;Node225</title>
<path fill="none" stroke="midnightblue" d="M750.647,-355.5C764.664,-355.5 779.159,-355.5 792.872,-355.5"/>
<polygon fill="midnightblue" stroke="midnightblue" points="750.544,-352 740.544,-355.5 750.544,-359 750.544,-352"/>
</g>
<!-- Node226&#45;&gt;Node227 -->
<g id="edge28" class="edge"><title>Node226&#45;&gt;Node227</title>
<path fill="none" stroke="midnightblue" d="M567.539,-279.938C578.732,-279.012 589.829,-278.093 600.353,-277.223"/>
<polygon fill="midnightblue" stroke="midnightblue" points="566.923,-276.477 557.246,-280.79 567.501,-283.453 566.923,-276.477"/>
</g>
<!-- Node228 -->
<g id="node30" class="node"><title>Node228</title>
<g id="a_node30"><a xlink:href="../../df/d93/classinfra_1_1_timer_limited_repeating_with_closing_action.html#ae946a652778084b2413971986f5f0f52" target="_top" xlink:title="infra::TimerLimitedRepeating\lWithClosingAction::TimerLimited\lRepeatingWithClosingAction">
<polygon fill="white" stroke="black" points="784,-251 784,-292 942,-292 942,-251 784,-251"/>
<text text-anchor="start" x="792" y="-280" font-family="Helvetica,sans-Serif" font-size="10.00">infra::TimerLimitedRepeating</text>
<text text-anchor="start" x="792" y="-269" font-family="Helvetica,sans-Serif" font-size="10.00">WithClosingAction::TimerLimited</text>
<text text-anchor="middle" x="863" y="-258" font-family="Helvetica,sans-Serif" font-size="10.00">RepeatingWithClosingAction</text>
</a>
</g>
</g>
<!-- Node227&#45;&gt;Node228 -->
<g id="edge29" class="edge"><title>Node227&#45;&gt;Node228</title>
<path fill="none" stroke="midnightblue" d="M750.545,-271.5C761.546,-271.5 772.843,-271.5 783.827,-271.5"/>
<polygon fill="midnightblue" stroke="midnightblue" points="750.544,-268 740.544,-271.5 750.544,-275 750.544,-268"/>
</g>
<!-- Node230 -->
<g id="node32" class="node"><title>Node230</title>
<g id="a_node32"><a xlink:href="../../d3/d9e/classinfra_1_1_timer_repeating.html#aa967ed7eba7a60ca38ac6f9dd9bc4987" target="_top" xlink:title="infra::TimerRepeating\l::SetDuration">
<polygon fill="white" stroke="black" points="616.5,-186.5 616.5,-216.5 724.5,-216.5 724.5,-186.5 616.5,-186.5"/>
<text text-anchor="start" x="624.5" y="-204.5" font-family="Helvetica,sans-Serif" font-size="10.00">infra::TimerRepeating</text>
<text text-anchor="middle" x="670.5" y="-193.5" font-family="Helvetica,sans-Serif" font-size="10.00">::SetDuration</text>
</a>
</g>
</g>
<!-- Node229&#45;&gt;Node230 -->
<g id="edge31" class="edge"><title>Node229&#45;&gt;Node230</title>
<path fill="none" stroke="midnightblue" d="M527.454,-201.5C556.749,-201.5 589.611,-201.5 616.344,-201.5"/>
<polygon fill="midnightblue" stroke="midnightblue" points="527.257,-198 517.257,-201.5 527.257,-205 527.257,-198"/>
</g>
<!-- Node230&#45;&gt;Node231 -->
<g id="edge32" class="edge"><title>Node230&#45;&gt;Node231</title>
<path fill="none" stroke="midnightblue" d="M734.663,-200.505C758.717,-200.127 785.861,-199.699 808.89,-199.336"/>
<polygon fill="midnightblue" stroke="midnightblue" points="734.508,-197.007 724.565,-200.664 734.619,-204.006 734.508,-197.007"/>
</g>
<!-- Node232 -->
<g id="node34" class="node"><title>Node232</title>
<g id="a_node34"><a xlink:href="../../d3/d9e/classinfra_1_1_timer_repeating.html#a04e65f09da5c159f0a7834c237027cee" target="_top" xlink:title="infra::TimerRepeating\l::Start">
<polygon fill="white" stroke="black" points="998,-208.5 998,-238.5 1106,-238.5 1106,-208.5 998,-208.5"/>
<text text-anchor="start" x="1006" y="-226.5" font-family="Helvetica,sans-Serif" font-size="10.00">infra::TimerRepeating</text>
<text text-anchor="middle" x="1052" y="-215.5" font-family="Helvetica,sans-Serif" font-size="10.00">::Start</text>
</a>
</g>
</g>
<!-- Node231&#45;&gt;Node232 -->
<g id="edge33" class="edge"><title>Node231&#45;&gt;Node232</title>
<path fill="none" stroke="midnightblue" d="M927.08,-206.933C950.044,-210.003 975.756,-213.441 997.781,-216.385"/>
<polygon fill="midnightblue" stroke="midnightblue" points="927.462,-203.453 917.086,-205.597 926.534,-210.391 927.462,-203.453"/>
</g>
<!-- Node233 -->
<g id="node35" class="node"><title>Node233</title>
<g id="a_node35"><a xlink:href="../../d3/d9e/classinfra_1_1_timer_repeating.html#aa9d1504266e538abb13f5d8209bc48e6" target="_top" xlink:title="infra::TimerRepeating\l::TimerRepeating">
<polygon fill="white" stroke="black" points="998,-159.5 998,-189.5 1106,-189.5 1106,-159.5 998,-159.5"/>
<text text-anchor="start" x="1006" y="-177.5" font-family="Helvetica,sans-Serif" font-size="10.00">infra::TimerRepeating</text>
<text text-anchor="middle" x="1052" y="-166.5" font-family="Helvetica,sans-Serif" font-size="10.00">::TimerRepeating</text>
</a>
</g>
</g>
<!-- Node231&#45;&gt;Node233 -->
<g id="edge34" class="edge"><title>Node231&#45;&gt;Node233</title>
<path fill="none" stroke="midnightblue" d="M927.08,-190.404C950.044,-187.457 975.756,-184.157 997.781,-181.33"/>
<polygon fill="midnightblue" stroke="midnightblue" points="926.56,-186.942 917.086,-191.687 927.451,-193.885 926.56,-186.942"/>
</g>
<!-- Node235 -->
<g id="node37" class="node"><title>Node235</title>
<g id="a_node37"><a xlink:href="../../d0/d7e/classinfra_1_1_timer_evolving.html#ab19975502faf4280dc2e25a22f6d6e92" target="_top" xlink:title="infra::TimerEvolving\l::TimerEvolving">
<polygon fill="white" stroke="black" points="621,-98.5 621,-128.5 720,-128.5 720,-98.5 621,-98.5"/>
<text text-anchor="start" x="629" y="-116.5" font-family="Helvetica,sans-Serif" font-size="10.00">infra::TimerEvolving</text>
<text text-anchor="middle" x="670.5" y="-105.5" font-family="Helvetica,sans-Serif" font-size="10.00">::TimerEvolving</text>
</a>
</g>
</g>
<!-- Node234&#45;&gt;Node235 -->
<g id="edge37" class="edge"><title>Node234&#45;&gt;Node235</title>
<path fill="none" stroke="midnightblue" d="M510.926,-113.5C545.335,-113.5 588.233,-113.5 620.732,-113.5"/>
<polygon fill="midnightblue" stroke="midnightblue" points="510.541,-110 500.541,-113.5 510.54,-117 510.541,-110"/>
</g>
<!-- Node237 -->
<g id="node39" class="node"><title>Node237</title>
<g id="a_node39"><a xlink:href="../../d9/dec/classinfra_1_1_timer_alternating.html#a159973a5309091eb4f916dd3c80b4650" target="_top" xlink:title="infra::TimerAlternating\l::TimerAlternating">
<polygon fill="white" stroke="black" points="615,-49.5 615,-79.5 726,-79.5 726,-49.5 615,-49.5"/>
<text text-anchor="start" x="623" y="-67.5" font-family="Helvetica,sans-Serif" font-size="10.00">infra::TimerAlternating</text>
<text text-anchor="middle" x="670.5" y="-56.5" font-family="Helvetica,sans-Serif" font-size="10.00">::TimerAlternating</text>
</a>
</g>
</g>
<!-- Node236&#45;&gt;Node237 -->
<g id="edge39" class="edge"><title>Node236&#45;&gt;Node237</title>
<path fill="none" stroke="midnightblue" d="M516.946,-64.5C548.153,-64.5 585.137,-64.5 614.874,-64.5"/>
<polygon fill="midnightblue" stroke="midnightblue" points="516.604,-61.0001 506.604,-64.5 516.604,-68.0001 516.604,-61.0001"/>
</g>
</g>
</svg>
