<?xml version="1.0" encoding="UTF-8" standalone="no"?>
<!DOCTYPE svg PUBLIC "-//W3C//DTD SVG 1.1//EN"
 "http://www.w3.org/Graphics/SVG/1.1/DTD/svg11.dtd">
<!-- Generated by graphviz version 2.38.0 (20140413.2041)
 -->
<!-- Title: services::SntpClient Pages: 1 -->
<svg width="2089pt" height="556pt"
 viewBox="0.00 0.00 2089.00 556.00" xmlns="http://www.w3.org/2000/svg" xmlns:xlink="http://www.w3.org/1999/xlink">
<g id="graph0" class="graph" transform="scale(1 1) rotate(0) translate(4 552)">
<title>services::SntpClient</title>
<polygon fill="white" stroke="none" points="-4,4 -4,-552 2085,-552 2085,4 -4,4"/>
<!-- Node4 -->
<g id="node1" class="node"><title>Node4</title>
<polygon fill="#bfbfbf" stroke="black" points="1978,-330.5 1978,-349.5 2081,-349.5 2081,-330.5 1978,-330.5"/>
<text text-anchor="middle" x="2029.5" y="-337.5" font-family="Helvetica,sans-Serif" font-size="10.00">services::SntpClient</text>
</g>
<!-- Node5 -->
<g id="node2" class="node"><title>Node5</title>
<g id="a_node2"><a xlink:href="../../d3/d18/classservices_1_1_datagram_exchange_observer.html" target="_top" xlink:title="services::DatagramExchange\lObserver">
<polygon fill="white" stroke="black" points="1226,-302 1226,-332 1369,-332 1369,-302 1226,-302"/>
<text text-anchor="start" x="1234" y="-320" font-family="Helvetica,sans-Serif" font-size="10.00">services::DatagramExchange</text>
<text text-anchor="middle" x="1297.5" y="-309" font-family="Helvetica,sans-Serif" font-size="10.00">Observer</text>
</a>
</g>
</g>
<!-- Node5&#45;&gt;Node4 -->
<g id="edge1" class="edge"><title>Node5&#45;&gt;Node4</title>
<path fill="none" stroke="midnightblue" d="M1379.25,-322.741C1489.26,-330.16 1692.4,-342.433 1866,-345 1907.77,-345.618 1918.25,-346.522 1960,-345 1965.72,-344.792 1971.7,-344.485 1977.65,-344.126"/>
<polygon fill="midnightblue" stroke="midnightblue" points="1379.44,-319.246 1369.23,-322.061 1378.97,-326.23 1379.44,-319.246"/>
</g>
<!-- Node6 -->
<g id="node3" class="node"><title>Node6</title>
<g id="a_node3"><a xlink:href="../../dc/d4c/classinfra_1_1_single_observer.html" target="_top" xlink:title="infra::SingleObserver\l\&lt; DatagramExchangeObserver,\l DatagramExchange \&gt;">
<polygon fill="white" stroke="black" points="907,-346.5 907,-387.5 1059,-387.5 1059,-346.5 907,-346.5"/>
<text text-anchor="start" x="915" y="-375.5" font-family="Helvetica,sans-Serif" font-size="10.00">infra::SingleObserver</text>
<text text-anchor="start" x="915" y="-364.5" font-family="Helvetica,sans-Serif" font-size="10.00">&lt; DatagramExchangeObserver,</text>
<text text-anchor="middle" x="983" y="-353.5" font-family="Helvetica,sans-Serif" font-size="10.00"> DatagramExchange &gt;</text>
</a>
</g>
</g>
<!-- Node6&#45;&gt;Node5 -->
<g id="edge2" class="edge"><title>Node6&#45;&gt;Node5</title>
<path fill="none" stroke="midnightblue" d="M1048.3,-343.399C1057.83,-340.538 1067.6,-337.945 1077,-336 1126.07,-325.846 1182.4,-321.109 1225.7,-318.904"/>
<polygon fill="midnightblue" stroke="midnightblue" points="1046.99,-340.141 1038.49,-346.462 1049.08,-346.823 1046.99,-340.141"/>
</g>
<!-- Node7 -->
<g id="node4" class="node"><title>Node7</title>
<polygon fill="white" stroke="#bfbfbf" points="531.5,-457.5 531.5,-476.5 608.5,-476.5 608.5,-457.5 531.5,-457.5"/>
<text text-anchor="middle" x="570" y="-464.5" font-family="Helvetica,sans-Serif" font-size="10.00">SubjectType *</text>
</g>
<!-- Node7&#45;&gt;Node6 -->
<g id="edge3" class="edge"><title>Node7&#45;&gt;Node6</title>
<path fill="none" stroke="#9a32cd" stroke-dasharray="5,2" d="M618.52,-455.438C689.185,-438.244 822.643,-405.773 906.695,-385.322"/>
<polygon fill="#9a32cd" stroke="#9a32cd" points="617.452,-452.096 608.563,-457.861 619.107,-458.897 617.452,-452.096"/>
<text text-anchor="middle" x="682.5" y="-451" font-family="Helvetica,sans-Serif" font-size="10.00"> subject</text>
</g>
<!-- Node9 -->
<g id="node6" class="node"><title>Node9</title>
<g id="a_node6"><a xlink:href="../../dc/d4c/classinfra_1_1_single_observer.html" target="_top" xlink:title="infra::SingleObserver\l\&lt; SntpResultObserver,\l ObserverSubjectType \&gt;">
<polygon fill="white" stroke="black" points="752.5,-506.5 752.5,-547.5 873.5,-547.5 873.5,-506.5 752.5,-506.5"/>
<text text-anchor="start" x="760.5" y="-535.5" font-family="Helvetica,sans-Serif" font-size="10.00">infra::SingleObserver</text>
<text text-anchor="start" x="760.5" y="-524.5" font-family="Helvetica,sans-Serif" font-size="10.00">&lt; SntpResultObserver,</text>
<text text-anchor="middle" x="813" y="-513.5" font-family="Helvetica,sans-Serif" font-size="10.00"> ObserverSubjectType &gt;</text>
</a>
</g>
</g>
<!-- Node7&#45;&gt;Node9 -->
<g id="edge6" class="edge"><title>Node7&#45;&gt;Node9</title>
<path fill="none" stroke="#9a32cd" stroke-dasharray="5,2" d="M618.523,-478.831C656.812,-488.364 710.871,-501.823 752.117,-512.091"/>
<polygon fill="#9a32cd" stroke="#9a32cd" points="619.206,-475.395 608.656,-476.375 617.514,-482.187 619.206,-475.395"/>
<text text-anchor="middle" x="682.5" y="-506" font-family="Helvetica,sans-Serif" font-size="10.00"> subject</text>
</g>
<!-- Node19 -->
<g id="node16" class="node"><title>Node19</title>
<g id="a_node16"><a xlink:href="../../dc/d4c/classinfra_1_1_single_observer.html" target="_top" xlink:title="infra::SingleObserver\l\&lt; DatagramExchangeObserver,\l ObserverSubjectType \&gt;">
<polygon fill="white" stroke="black" points="737,-446.5 737,-487.5 889,-487.5 889,-446.5 737,-446.5"/>
<text text-anchor="start" x="745" y="-475.5" font-family="Helvetica,sans-Serif" font-size="10.00">infra::SingleObserver</text>
<text text-anchor="start" x="745" y="-464.5" font-family="Helvetica,sans-Serif" font-size="10.00">&lt; DatagramExchangeObserver,</text>
<text text-anchor="middle" x="813" y="-453.5" font-family="Helvetica,sans-Serif" font-size="10.00"> ObserverSubjectType &gt;</text>
</a>
</g>
</g>
<!-- Node7&#45;&gt;Node19 -->
<g id="edge17" class="edge"><title>Node7&#45;&gt;Node19</title>
<path fill="none" stroke="#9a32cd" stroke-dasharray="5,2" d="M618.695,-467C652.365,-467 698.168,-467 736.737,-467"/>
<polygon fill="#9a32cd" stroke="#9a32cd" points="618.656,-463.5 608.656,-467 618.656,-470.5 618.656,-463.5"/>
<text text-anchor="middle" x="682.5" y="-470" font-family="Helvetica,sans-Serif" font-size="10.00"> subject</text>
</g>
<!-- Node8 -->
<g id="node5" class="node"><title>Node8</title>
<g id="a_node5"><a xlink:href="../../d1/db2/classinfra_1_1_subject.html" target="_top" xlink:title="infra::Subject\&lt; SntpResult\lObserver \&gt;">
<polygon fill="white" stroke="black" points="1548,-474 1548,-504 1679,-504 1679,-474 1548,-474"/>
<text text-anchor="start" x="1556" y="-492" font-family="Helvetica,sans-Serif" font-size="10.00">infra::Subject&lt; SntpResult</text>
<text text-anchor="middle" x="1613.5" y="-481" font-family="Helvetica,sans-Serif" font-size="10.00">Observer &gt;</text>
</a>
</g>
</g>
<!-- Node8&#45;&gt;Node4 -->
<g id="edge4" class="edge"><title>Node8&#45;&gt;Node4</title>
<path fill="none" stroke="midnightblue" d="M1689.12,-483.341C1762.1,-475.173 1874.43,-455.414 1960,-408 1986.97,-393.056 2010.56,-364.465 2021.69,-349.565"/>
<polygon fill="midnightblue" stroke="midnightblue" points="1688.66,-479.871 1679.09,-484.419 1689.4,-486.831 1688.66,-479.871"/>
</g>
<!-- Node9&#45;&gt;Node8 -->
<g id="edge5" class="edge"><title>Node9&#45;&gt;Node8</title>
<path fill="none" stroke="#9a32cd" stroke-dasharray="5,2" d="M883.902,-523.673C1036.93,-516.391 1399.73,-499.126 1547.84,-492.077"/>
<polygon fill="#9a32cd" stroke="#9a32cd" points="883.513,-520.188 873.691,-524.159 883.846,-527.18 883.513,-520.188"/>
<text text-anchor="middle" x="1142.5" y="-518" font-family="Helvetica,sans-Serif" font-size="10.00"> observer</text>
</g>
<!-- Node10 -->
<g id="node7" class="node"><title>Node10</title>
<polygon fill="white" stroke="#bfbfbf" points="1117,-258.5 1117,-277.5 1168,-277.5 1168,-258.5 1117,-258.5"/>
<text text-anchor="middle" x="1142.5" y="-265.5" font-family="Helvetica,sans-Serif" font-size="10.00">duration</text>
</g>
<!-- Node10&#45;&gt;Node4 -->
<g id="edge7" class="edge"><title>Node10&#45;&gt;Node4</title>
<path fill="none" stroke="#9a32cd" stroke-dasharray="5,2" d="M1178.47,-269.012C1301.8,-272.686 1716.14,-285.955 1848,-302 1898.54,-308.151 1955.93,-321.32 1992.17,-330.417"/>
<polygon fill="#9a32cd" stroke="#9a32cd" points="1178.21,-265.503 1168.11,-268.706 1178,-272.5 1178.21,-265.503"/>
<text text-anchor="middle" x="1613.5" y="-292" font-family="Helvetica,sans-Serif" font-size="10.00"> originRequestTime</text>
</g>
<!-- Node21 -->
<g id="node18" class="node"><title>Node21</title>
<g id="a_node18"><a xlink:href="../../db/d9d/classinfra_1_1_derived_timer_service.html" target="_top" xlink:title="infra::DerivedTimerService">
<polygon fill="white" stroke="black" points="1394.5,-168.5 1394.5,-187.5 1522.5,-187.5 1522.5,-168.5 1394.5,-168.5"/>
<text text-anchor="middle" x="1458.5" y="-175.5" font-family="Helvetica,sans-Serif" font-size="10.00">infra::DerivedTimerService</text>
</a>
</g>
</g>
<!-- Node10&#45;&gt;Node21 -->
<g id="edge29" class="edge"><title>Node10&#45;&gt;Node21</title>
<path fill="none" stroke="#9a32cd" stroke-dasharray="5,2" d="M1178.06,-263.382C1236.85,-255.392 1351.67,-239.16 1369,-232 1378.12,-228.231 1378.72,-224.376 1387,-219 1404.57,-207.584 1425.39,-195.665 1439.83,-187.639"/>
<polygon fill="#9a32cd" stroke="#9a32cd" points="1177.55,-259.919 1168.11,-264.728 1178.49,-266.855 1177.55,-259.919"/>
<text text-anchor="middle" x="1297.5" y="-260" font-family="Helvetica,sans-Serif" font-size="10.00"> shift</text>
</g>
<!-- Node11 -->
<g id="node8" class="node"><title>Node11</title>
<g id="a_node8"><a xlink:href="../../d7/da1/classservices_1_1_datagram_factory.html" target="_top" xlink:title="services::DatagramFactory">
<polygon fill="white" stroke="black" points="1706,-311.5 1706,-330.5 1839,-330.5 1839,-311.5 1706,-311.5"/>
<text text-anchor="middle" x="1772.5" y="-318.5" font-family="Helvetica,sans-Serif" font-size="10.00">services::DatagramFactory</text>
</a>
</g>
</g>
<!-- Node11&#45;&gt;Node4 -->
<g id="edge8" class="edge"><title>Node11&#45;&gt;Node4</title>
<path fill="none" stroke="#9a32cd" stroke-dasharray="5,2" d="M1849.4,-325.984C1883.26,-328.286 1923.64,-331.14 1960,-334 1965.71,-334.449 1971.69,-334.941 1977.64,-335.443"/>
<polygon fill="#9a32cd" stroke="#9a32cd" points="1849.33,-322.471 1839.12,-325.288 1848.86,-329.455 1849.33,-322.471"/>
<text text-anchor="middle" x="1913" y="-337" font-family="Helvetica,sans-Serif" font-size="10.00"> factory</text>
</g>
<!-- Node12 -->
<g id="node9" class="node"><title>Node12</title>
<g id="a_node9"><a xlink:href="../../d1/d17/classinfra_1_1_shared_ptr.html" target="_top" xlink:title="infra::SharedPtr\&lt; services\l::DatagramExchange \&gt;">
<polygon fill="white" stroke="black" points="1708.5,-388 1708.5,-418 1836.5,-418 1836.5,-388 1708.5,-388"/>
<text text-anchor="start" x="1716.5" y="-406" font-family="Helvetica,sans-Serif" font-size="10.00">infra::SharedPtr&lt; services</text>
<text text-anchor="middle" x="1772.5" y="-395" font-family="Helvetica,sans-Serif" font-size="10.00">::DatagramExchange &gt;</text>
</a>
</g>
</g>
<!-- Node12&#45;&gt;Node4 -->
<g id="edge9" class="edge"><title>Node12&#45;&gt;Node4</title>
<path fill="none" stroke="#9a32cd" stroke-dasharray="5,2" d="M1846.81,-396.179C1881.65,-391.686 1923.55,-384.444 1960,-373 1978.64,-367.148 1998.62,-357.033 2012.16,-349.54"/>
<polygon fill="#9a32cd" stroke="#9a32cd" points="1846.21,-392.727 1836.71,-397.431 1847.07,-399.674 1846.21,-392.727"/>
<text text-anchor="middle" x="1913" y="-396" font-family="Helvetica,sans-Serif" font-size="10.00"> datagramExchange</text>
</g>
<!-- Node13 -->
<g id="node10" class="node"><title>Node13</title>
<g id="a_node10"><a xlink:href="../../dd/d9a/classinfra_1_1detail_1_1_shared_ptr_control.html" target="_top" xlink:title="infra::detail::SharedPtr\lControl">
<polygon fill="white" stroke="black" points="1402,-388 1402,-418 1515,-418 1515,-388 1402,-388"/>
<text text-anchor="start" x="1410" y="-406" font-family="Helvetica,sans-Serif" font-size="10.00">infra::detail::SharedPtr</text>
<text text-anchor="middle" x="1458.5" y="-395" font-family="Helvetica,sans-Serif" font-size="10.00">Control</text>
</a>
</g>
</g>
<!-- Node13&#45;&gt;Node12 -->
<g id="edge10" class="edge"><title>Node13&#45;&gt;Node12</title>
<path fill="none" stroke="#9a32cd" stroke-dasharray="5,2" d="M1525.43,-403C1579.4,-403 1655.24,-403 1708.42,-403"/>
<polygon fill="#9a32cd" stroke="#9a32cd" points="1525.28,-399.5 1515.28,-403 1525.28,-406.5 1525.28,-399.5"/>
<text text-anchor="middle" x="1613.5" y="-406" font-family="Helvetica,sans-Serif" font-size="10.00"> control</text>
</g>
<!-- Node14 -->
<g id="node11" class="node"><title>Node14</title>
<polygon fill="white" stroke="#bfbfbf" points="1109,-345.5 1109,-364.5 1176,-364.5 1176,-345.5 1109,-345.5"/>
<text text-anchor="middle" x="1142.5" y="-352.5" font-family="Helvetica,sans-Serif" font-size="10.00">const void *</text>
</g>
<!-- Node14&#45;&gt;Node13 -->
<g id="edge11" class="edge"><title>Node14&#45;&gt;Node13</title>
<path fill="none" stroke="#9a32cd" stroke-dasharray="5,2" d="M1186.31,-357.903C1231.87,-361.422 1305.93,-368.371 1369,-380 1380.55,-382.13 1392.82,-384.951 1404.43,-387.884"/>
<polygon fill="#9a32cd" stroke="#9a32cd" points="1186.44,-354.403 1176.2,-357.143 1185.91,-361.383 1186.44,-354.403"/>
<text text-anchor="middle" x="1297.5" y="-383" font-family="Helvetica,sans-Serif" font-size="10.00"> object</text>
</g>
<!-- Node15 -->
<g id="node12" class="node"><title>Node15</title>
<polygon fill="white" stroke="#bfbfbf" points="1117,-421.5 1117,-440.5 1168,-440.5 1168,-421.5 1117,-421.5"/>
<text text-anchor="middle" x="1142.5" y="-428.5" font-family="Helvetica,sans-Serif" font-size="10.00">uint16_t</text>
</g>
<!-- Node15&#45;&gt;Node13 -->
<g id="edge12" class="edge"><title>Node15&#45;&gt;Node13</title>
<path fill="none" stroke="#9a32cd" stroke-dasharray="5,2" d="M1178.25,-427.901C1232.3,-423.081 1337.04,-413.742 1401.75,-407.972"/>
<polygon fill="#9a32cd" stroke="#9a32cd" points="1177.79,-424.428 1168.14,-428.803 1178.41,-431.401 1177.79,-424.428"/>
<text text-anchor="middle" x="1297.5" y="-438" font-family="Helvetica,sans-Serif" font-size="10.00"> weakPtrCount</text>
<text text-anchor="middle" x="1297.5" y="-427" font-family="Helvetica,sans-Serif" font-size="10.00">sharedPtrCount</text>
</g>
<!-- Node16 -->
<g id="node13" class="node"><title>Node16</title>
<g id="a_node13"><a xlink:href="../../da/dcd/classinfra_1_1_shared_object_deleter.html" target="_top" xlink:title="infra::SharedObjectDeleter">
<polygon fill="white" stroke="black" points="1077,-383.5 1077,-402.5 1208,-402.5 1208,-383.5 1077,-383.5"/>
<text text-anchor="middle" x="1142.5" y="-390.5" font-family="Helvetica,sans-Serif" font-size="10.00">infra::SharedObjectDeleter</text>
</a>
</g>
</g>
<!-- Node16&#45;&gt;Node13 -->
<g id="edge13" class="edge"><title>Node16&#45;&gt;Node13</title>
<path fill="none" stroke="#9a32cd" stroke-dasharray="5,2" d="M1218.18,-394.014C1262.11,-394.771 1318.72,-396.023 1369,-398 1379.61,-398.417 1390.93,-398.973 1401.81,-399.562"/>
<polygon fill="#9a32cd" stroke="#9a32cd" points="1218.21,-390.514 1208.16,-393.846 1218.1,-397.513 1218.21,-390.514"/>
<text text-anchor="middle" x="1297.5" y="-401" font-family="Helvetica,sans-Serif" font-size="10.00"> deleter</text>
</g>
<!-- Node17 -->
<g id="node14" class="node"><title>Node17</title>
<g id="a_node14"><a xlink:href="../../d9/dc8/classservices_1_1_datagram_exchange.html" target="_top" xlink:title="services::DatagramExchange">
<polygon fill="white" stroke="black" points="1387,-453.5 1387,-472.5 1530,-472.5 1530,-453.5 1387,-453.5"/>
<text text-anchor="middle" x="1458.5" y="-460.5" font-family="Helvetica,sans-Serif" font-size="10.00">services::DatagramExchange</text>
</a>
</g>
</g>
<!-- Node17&#45;&gt;Node12 -->
<g id="edge14" class="edge"><title>Node17&#45;&gt;Node12</title>
<path fill="none" stroke="#9a32cd" stroke-dasharray="5,2" d="M1519.08,-451.542C1573.27,-441.122 1652.98,-425.791 1708.28,-415.158"/>
<polygon fill="#9a32cd" stroke="#9a32cd" points="1518.1,-448.167 1508.94,-453.493 1519.42,-455.041 1518.1,-448.167"/>
<text text-anchor="middle" x="1613.5" y="-449" font-family="Helvetica,sans-Serif" font-size="10.00"> object</text>
</g>
<!-- Node18 -->
<g id="node15" class="node"><title>Node18</title>
<g id="a_node15"><a xlink:href="../../d1/db2/classinfra_1_1_subject.html" target="_top" xlink:title="infra::Subject\&lt; Datagram\lExchangeObserver \&gt;">
<polygon fill="white" stroke="black" points="1080,-460 1080,-490 1205,-490 1205,-460 1080,-460"/>
<text text-anchor="start" x="1088" y="-478" font-family="Helvetica,sans-Serif" font-size="10.00">infra::Subject&lt; Datagram</text>
<text text-anchor="middle" x="1142.5" y="-467" font-family="Helvetica,sans-Serif" font-size="10.00">ExchangeObserver &gt;</text>
</a>
</g>
</g>
<!-- Node18&#45;&gt;Node17 -->
<g id="edge15" class="edge"><title>Node18&#45;&gt;Node17</title>
<path fill="none" stroke="midnightblue" d="M1215.21,-472.259C1266.69,-470.292 1335.72,-467.654 1386.94,-465.697"/>
<polygon fill="midnightblue" stroke="midnightblue" points="1215.02,-468.764 1205.16,-472.644 1215.29,-475.759 1215.02,-468.764"/>
</g>
<!-- Node19&#45;&gt;Node18 -->
<g id="edge16" class="edge"><title>Node19&#45;&gt;Node18</title>
<path fill="none" stroke="#9a32cd" stroke-dasharray="5,2" d="M899.149,-469.08C955.776,-470.463 1028.84,-472.248 1079.88,-473.495"/>
<polygon fill="#9a32cd" stroke="#9a32cd" points="899.218,-465.581 889.135,-468.835 899.047,-472.579 899.218,-465.581"/>
<text text-anchor="middle" x="983" y="-476" font-family="Helvetica,sans-Serif" font-size="10.00"> observer</text>
</g>
<!-- Node20 -->
<g id="node17" class="node"><title>Node20</title>
<g id="a_node17"><a xlink:href="../../da/dc6/classservices_1_1_time_with_localization.html" target="_top" xlink:title="services::TimeWithLocalization">
<polygon fill="white" stroke="black" points="1697,-228.5 1697,-247.5 1848,-247.5 1848,-228.5 1697,-228.5"/>
<text text-anchor="middle" x="1772.5" y="-235.5" font-family="Helvetica,sans-Serif" font-size="10.00">services::TimeWithLocalization</text>
</a>
</g>
</g>
<!-- Node20&#45;&gt;Node4 -->
<g id="edge18" class="edge"><title>Node20&#45;&gt;Node4</title>
<path fill="none" stroke="#9a32cd" stroke-dasharray="5,2" d="M1858.32,-233.75C1891.69,-235.394 1929.29,-241.585 1960,-258 1991.41,-274.788 2014.24,-312.519 2023.69,-330.335"/>
<polygon fill="#9a32cd" stroke="#9a32cd" points="1858.23,-230.245 1848.11,-233.379 1857.98,-237.24 1858.23,-230.245"/>
<text text-anchor="middle" x="1913" y="-261" font-family="Helvetica,sans-Serif" font-size="10.00"> timeWithLocalization</text>
</g>
<!-- Node21&#45;&gt;Node20 -->
<g id="edge19" class="edge"><title>Node21&#45;&gt;Node20</title>
<path fill="none" stroke="#9a32cd" stroke-dasharray="5,2" d="M1532.75,-174.353C1576.02,-174.075 1631.45,-177.013 1679,-190 1708.84,-198.152 1740.09,-216.83 1757.55,-228.335"/>
<polygon fill="#9a32cd" stroke="#9a32cd" points="1532.55,-170.855 1522.59,-174.478 1532.63,-177.854 1532.55,-170.855"/>
<text text-anchor="start" x="1556.5" y="-226" font-family="Helvetica,sans-Serif" font-size="10.00"> localTimeWithoutDaylight</text>
<text text-anchor="middle" x="1613.5" y="-215" font-family="Helvetica,sans-Serif" font-size="10.00">SavingTimerService</text>
<text text-anchor="middle" x="1613.5" y="-204" font-family="Helvetica,sans-Serif" font-size="10.00">localTimeTimerService</text>
<text text-anchor="middle" x="1613.5" y="-193" font-family="Helvetica,sans-Serif" font-size="10.00">utcTimerService</text>
</g>
<!-- Node22 -->
<g id="node19" class="node"><title>Node22</title>
<g id="a_node19"><a xlink:href="../../da/def/classinfra_1_1_timer_service.html" target="_top" xlink:title="infra::TimerService">
<polygon fill="white" stroke="black" points="522,-203.5 522,-222.5 618,-222.5 618,-203.5 522,-203.5"/>
<text text-anchor="middle" x="570" y="-210.5" font-family="Helvetica,sans-Serif" font-size="10.00">infra::TimerService</text>
</a>
</g>
</g>
<!-- Node22&#45;&gt;Node21 -->
<g id="edge20" class="edge"><title>Node22&#45;&gt;Node21</title>
<path fill="none" stroke="midnightblue" d="M628.625,-214.68C760.224,-217.849 1092.81,-222.083 1369,-194 1383.14,-192.563 1398.4,-190.125 1412.21,-187.581"/>
<polygon fill="midnightblue" stroke="midnightblue" points="628.464,-211.175 618.38,-214.425 628.29,-218.173 628.464,-211.175"/>
</g>
<!-- Node22&#45;&gt;Node21 -->
<g id="edge38" class="edge"><title>Node22&#45;&gt;Node21</title>
<path fill="none" stroke="#9a32cd" stroke-dasharray="5,2" d="M628.34,-210.549C695.223,-207.705 809.125,-202.906 907,-199 1083.56,-191.954 1291.99,-184.141 1394.34,-180.337"/>
<polygon fill="#9a32cd" stroke="#9a32cd" points="627.861,-207.067 618.019,-210.989 628.159,-214.06 627.861,-207.067"/>
<text text-anchor="middle" x="983" y="-202" font-family="Helvetica,sans-Serif" font-size="10.00"> baseTimerService</text>
</g>
<!-- Node31 -->
<g id="node28" class="node"><title>Node31</title>
<g id="a_node28"><a xlink:href="../../d5/da5/classinfra_1_1_timer.html" target="_top" xlink:title="infra::Timer">
<polygon fill="white" stroke="black" points="780.5,-71.5 780.5,-90.5 845.5,-90.5 845.5,-71.5 780.5,-71.5"/>
<text text-anchor="middle" x="813" y="-78.5" font-family="Helvetica,sans-Serif" font-size="10.00">infra::Timer</text>
</a>
</g>
</g>
<!-- Node22&#45;&gt;Node31 -->
<g id="edge37" class="edge"><title>Node22&#45;&gt;Node31</title>
<path fill="none" stroke="#9a32cd" stroke-dasharray="5,2" d="M589.382,-196.767C604.04,-184.334 625.45,-167.285 646,-155 692.718,-127.072 751.848,-103.182 785.45,-90.5687"/>
<polygon fill="#9a32cd" stroke="#9a32cd" points="586.879,-194.304 581.589,-203.483 591.449,-199.606 586.879,-194.304"/>
<text text-anchor="middle" x="682.5" y="-158" font-family="Helvetica,sans-Serif" font-size="10.00"> timerService</text>
</g>
<!-- Node23 -->
<g id="node20" class="node"><title>Node23</title>
<g id="a_node20"><a xlink:href="../../d7/d4a/classinfra_1_1detail_1_1_intrusive_forward_list_node.html" target="_top" xlink:title="infra::IntrusiveForwardList\l\&lt; TimerService \&gt;::NodeType">
<polygon fill="white" stroke="black" points="210,-224 210,-254 350,-254 350,-224 210,-224"/>
<text text-anchor="start" x="218" y="-242" font-family="Helvetica,sans-Serif" font-size="10.00">infra::IntrusiveForwardList</text>
<text text-anchor="middle" x="280" y="-231" font-family="Helvetica,sans-Serif" font-size="10.00">&lt; TimerService &gt;::NodeType</text>
</a>
</g>
</g>
<!-- Node23&#45;&gt;Node22 -->
<g id="edge21" class="edge"><title>Node23&#45;&gt;Node22</title>
<path fill="none" stroke="midnightblue" d="M360.381,-239.741C400.585,-239.175 450.064,-237.037 494,-231 507.664,-229.123 522.474,-225.842 535.295,-222.591"/>
<polygon fill="midnightblue" stroke="midnightblue" points="360.328,-236.241 350.368,-239.853 360.407,-243.241 360.328,-236.241"/>
</g>
<!-- Node24 -->
<g id="node21" class="node"><title>Node24</title>
<polygon fill="white" stroke="#bfbfbf" points="0,-122 0,-152 125,-152 125,-122 0,-122"/>
<text text-anchor="start" x="8" y="-140" font-family="Helvetica,sans-Serif" font-size="10.00">IntrusiveForwardListNode</text>
<text text-anchor="middle" x="62.5" y="-129" font-family="Helvetica,sans-Serif" font-size="10.00">&lt; T &gt; *</text>
</g>
<!-- Node24&#45;&gt;Node23 -->
<g id="edge22" class="edge"><title>Node24&#45;&gt;Node23</title>
<path fill="none" stroke="#9a32cd" stroke-dasharray="5,2" d="M98.4259,-157.086C127.698,-173.496 170.865,-196.722 210,-214 217.809,-217.448 226.257,-220.803 234.475,-223.879"/>
<polygon fill="#9a32cd" stroke="#9a32cd" points="99.8626,-153.878 89.4331,-152.013 96.4235,-159.975 99.8626,-153.878"/>
<text text-anchor="middle" x="167.5" y="-208" font-family="Helvetica,sans-Serif" font-size="10.00"> next</text>
</g>
<!-- Node32 -->
<g id="node29" class="node"><title>Node32</title>
<g id="a_node29"><a xlink:href="../../d7/d4a/classinfra_1_1detail_1_1_intrusive_forward_list_node.html" target="_top" xlink:title="infra::IntrusiveForwardList\l\&lt; Timer \&gt;::NodeType">
<polygon fill="white" stroke="black" points="368,-64 368,-94 494,-94 494,-64 368,-64"/>
<text text-anchor="start" x="376" y="-82" font-family="Helvetica,sans-Serif" font-size="10.00">infra::IntrusiveForwardList</text>
<text text-anchor="middle" x="431" y="-71" font-family="Helvetica,sans-Serif" font-size="10.00">&lt; Timer &gt;::NodeType</text>
</a>
</g>
</g>
<!-- Node24&#45;&gt;Node32 -->
<g id="edge34" class="edge"><title>Node24&#45;&gt;Node32</title>
<path fill="none" stroke="#9a32cd" stroke-dasharray="5,2" d="M135.426,-125.617C203.193,-114.893 303.666,-98.9928 367.989,-88.8134"/>
<polygon fill="#9a32cd" stroke="#9a32cd" points="134.587,-122.207 125.257,-127.227 135.681,-129.12 134.587,-122.207"/>
<text text-anchor="middle" x="167.5" y="-127" font-family="Helvetica,sans-Serif" font-size="10.00"> next</text>
</g>
<!-- Node25 -->
<g id="node22" class="node"><title>Node25</title>
<polygon fill="white" stroke="#bfbfbf" points="249,-139.5 249,-158.5 311,-158.5 311,-139.5 249,-139.5"/>
<text text-anchor="middle" x="280" y="-146.5" font-family="Helvetica,sans-Serif" font-size="10.00">time_point</text>
</g>
<!-- Node25&#45;&gt;Node21 -->
<g id="edge30" class="edge"><title>Node25&#45;&gt;Node21</title>
<path fill="none" stroke="#9a32cd" stroke-dasharray="5,2" d="M321.42,-147.169C377.13,-144.808 480.657,-141 569,-141 569,-141 569,-141 1143.5,-141 1237.36,-141 1345.93,-157.509 1407.68,-168.472"/>
<polygon fill="#9a32cd" stroke="#9a32cd" points="321.101,-143.68 311.261,-147.607 321.402,-150.673 321.101,-143.68"/>
<text text-anchor="middle" x="813" y="-144" font-family="Helvetica,sans-Serif" font-size="10.00"> nextTrigger</text>
</g>
<!-- Node25&#45;&gt;Node22 -->
<g id="edge23" class="edge"><title>Node25&#45;&gt;Node22</title>
<path fill="none" stroke="#9a32cd" stroke-dasharray="5,2" d="M321.447,-153.897C364.629,-159.618 434.838,-170.339 494,-186 511.659,-190.675 531.047,-197.707 545.687,-203.423"/>
<polygon fill="#9a32cd" stroke="#9a32cd" points="321.706,-150.401 311.339,-152.584 320.804,-157.343 321.706,-150.401"/>
<text text-anchor="middle" x="431" y="-189" font-family="Helvetica,sans-Serif" font-size="10.00"> nextTrigger</text>
</g>
<!-- Node26 -->
<g id="node23" class="node"><title>Node26</title>
<g id="a_node23"><a xlink:href="../../d3/d66/classinfra_1_1_intrusive_forward_list.html" target="_top" xlink:title="infra::IntrusiveForwardList\l\&lt; infra::Timer \&gt;">
<polygon fill="white" stroke="black" points="217,-312 217,-342 343,-342 343,-312 217,-312"/>
<text text-anchor="start" x="225" y="-330" font-family="Helvetica,sans-Serif" font-size="10.00">infra::IntrusiveForwardList</text>
<text text-anchor="middle" x="280" y="-319" font-family="Helvetica,sans-Serif" font-size="10.00">&lt; infra::Timer &gt;</text>
</a>
</g>
</g>
<!-- Node26&#45;&gt;Node22 -->
<g id="edge24" class="edge"><title>Node26&#45;&gt;Node22</title>
<path fill="none" stroke="#9a32cd" stroke-dasharray="5,2" d="M353.148,-326.019C396.195,-322.783 450.718,-313.876 494,-291 525.557,-274.321 551.585,-239.434 562.908,-222.554"/>
<polygon fill="#9a32cd" stroke="#9a32cd" points="352.774,-322.536 343.028,-326.692 353.238,-329.521 352.774,-322.536"/>
<text text-anchor="middle" x="431" y="-339" font-family="Helvetica,sans-Serif" font-size="10.00"> timerIterator</text>
<text text-anchor="middle" x="431" y="-328" font-family="Helvetica,sans-Serif" font-size="10.00">scheduledTimers</text>
</g>
<!-- Node27 -->
<g id="node24" class="node"><title>Node27</title>
<g id="a_node24"><a xlink:href="../../d7/d4a/classinfra_1_1detail_1_1_intrusive_forward_list_node.html" target="_top" xlink:title="infra::detail::Intrusive\lForwardListNode\&lt; infra\l::Timer \&gt;">
<polygon fill="white" stroke="black" points="4.5,-306.5 4.5,-347.5 120.5,-347.5 120.5,-306.5 4.5,-306.5"/>
<text text-anchor="start" x="12.5" y="-335.5" font-family="Helvetica,sans-Serif" font-size="10.00">infra::detail::Intrusive</text>
<text text-anchor="start" x="12.5" y="-324.5" font-family="Helvetica,sans-Serif" font-size="10.00">ForwardListNode&lt; infra</text>
<text text-anchor="middle" x="62.5" y="-313.5" font-family="Helvetica,sans-Serif" font-size="10.00">::Timer &gt;</text>
</a>
</g>
</g>
<!-- Node27&#45;&gt;Node26 -->
<g id="edge25" class="edge"><title>Node27&#45;&gt;Node26</title>
<path fill="none" stroke="#9a32cd" stroke-dasharray="5,2" d="M130.962,-327C158.344,-327 189.781,-327 216.622,-327"/>
<polygon fill="#9a32cd" stroke="#9a32cd" points="130.684,-323.5 120.684,-327 130.684,-330.5 130.684,-323.5"/>
<text text-anchor="middle" x="167.5" y="-330" font-family="Helvetica,sans-Serif" font-size="10.00"> beginNode</text>
</g>
<!-- Node27&#45;&gt;Node27 -->
<g id="edge26" class="edge"><title>Node27&#45;&gt;Node27</title>
<path fill="none" stroke="#9a32cd" stroke-dasharray="5,2" d="M44.6074,-357.856C47.2682,-362.697 53.2324,-366 62.5,-366 77.3281,-366 83.6996,-357.543 81.6144,-347.864"/>
<polygon fill="#9a32cd" stroke="#9a32cd" points="48.0736,-357.366 43.3856,-347.864 41.1254,-358.215 48.0736,-357.366"/>
<text text-anchor="middle" x="62.5" y="-369" font-family="Helvetica,sans-Serif" font-size="10.00"> next</text>
</g>
<!-- Node28 -->
<g id="node25" class="node"><title>Node28</title>
<polygon fill="white" stroke="#bfbfbf" points="254.5,-273.5 254.5,-292.5 305.5,-292.5 305.5,-273.5 254.5,-273.5"/>
<text text-anchor="middle" x="280" y="-280.5" font-family="Helvetica,sans-Serif" font-size="10.00">uint32_t</text>
</g>
<!-- Node28&#45;&gt;Node22 -->
<g id="edge27" class="edge"><title>Node28&#45;&gt;Node22</title>
<path fill="none" stroke="#9a32cd" stroke-dasharray="5,2" d="M315.667,-280.878C358.438,-277.526 432.981,-269.278 494,-250 515.459,-243.22 538.427,-231.087 553.21,-222.567"/>
<polygon fill="#9a32cd" stroke="#9a32cd" points="315.22,-277.401 305.505,-281.628 315.736,-284.382 315.22,-277.401"/>
<text text-anchor="middle" x="431" y="-279" font-family="Helvetica,sans-Serif" font-size="10.00"> id</text>
</g>
<!-- Node29 -->
<g id="node26" class="node"><title>Node29</title>
<polygon fill="white" stroke="#bfbfbf" points="262.5,-185.5 262.5,-204.5 297.5,-204.5 297.5,-185.5 262.5,-185.5"/>
<text text-anchor="middle" x="280" y="-192.5" font-family="Helvetica,sans-Serif" font-size="10.00">bool</text>
</g>
<!-- Node29&#45;&gt;Node22 -->
<g id="edge28" class="edge"><title>Node29&#45;&gt;Node22</title>
<path fill="none" stroke="#9a32cd" stroke-dasharray="5,2" d="M307.828,-196.677C356.703,-199.731 460.821,-206.239 521.803,-210.05"/>
<polygon fill="#9a32cd" stroke="#9a32cd" points="307.928,-193.176 297.729,-196.046 307.491,-200.163 307.928,-193.176"/>
<text text-anchor="middle" x="431" y="-223" font-family="Helvetica,sans-Serif" font-size="10.00"> holdUpdate</text>
<text text-anchor="middle" x="431" y="-212" font-family="Helvetica,sans-Serif" font-size="10.00">updateNeeded</text>
</g>
<!-- Node30 -->
<g id="node27" class="node"><title>Node30</title>
<g id="a_node27"><a xlink:href="../../d8/d87/classinfra_1_1_timer_single_shot.html" target="_top" xlink:title="infra::TimerSingleShot">
<polygon fill="white" stroke="black" points="1086.5,-82.5 1086.5,-101.5 1198.5,-101.5 1198.5,-82.5 1086.5,-82.5"/>
<text text-anchor="middle" x="1142.5" y="-89.5" font-family="Helvetica,sans-Serif" font-size="10.00">infra::TimerSingleShot</text>
</a>
</g>
</g>
<!-- Node30&#45;&gt;Node21 -->
<g id="edge31" class="edge"><title>Node30&#45;&gt;Node21</title>
<path fill="none" stroke="#9a32cd" stroke-dasharray="5,2" d="M1208.73,-90.4044C1254.86,-91.299 1317.42,-96.6684 1369,-116 1400.97,-127.982 1432.21,-154.264 1447.61,-168.457"/>
<polygon fill="#9a32cd" stroke="#9a32cd" points="1208.6,-86.9026 1198.56,-90.2741 1208.51,-93.902 1208.6,-86.9026"/>
<text text-anchor="middle" x="1297.5" y="-119" font-family="Helvetica,sans-Serif" font-size="10.00"> timer</text>
</g>
<!-- Node31&#45;&gt;Node30 -->
<g id="edge32" class="edge"><title>Node31&#45;&gt;Node30</title>
<path fill="none" stroke="midnightblue" d="M855.726,-82.4015C914.4,-84.3722 1021.38,-87.9654 1086.49,-90.1525"/>
<polygon fill="midnightblue" stroke="midnightblue" points="855.812,-78.9025 845.7,-82.0647 855.576,-85.8985 855.812,-78.9025"/>
</g>
<!-- Node32&#45;&gt;Node31 -->
<g id="edge33" class="edge"><title>Node32&#45;&gt;Node31</title>
<path fill="none" stroke="midnightblue" d="M504.359,-67.6546C506.935,-67.4074 509.488,-67.1874 512,-67 609.752,-59.7094 725.723,-70.6772 780.435,-77.0182"/>
<polygon fill="midnightblue" stroke="midnightblue" points="503.919,-64.1816 494.351,-68.731 504.668,-71.1415 503.919,-64.1816"/>
</g>
<!-- Node33 -->
<g id="node30" class="node"><title>Node33</title>
<g id="a_node30"><a xlink:href="../../da/d07/classinfra_1_1_function.html" target="_top" xlink:title="infra::Function\&lt; void()\&gt;">
<polygon fill="white" stroke="black" points="512,-0.5 512,-19.5 628,-19.5 628,-0.5 512,-0.5"/>
<text text-anchor="middle" x="570" y="-7.5" font-family="Helvetica,sans-Serif" font-size="10.00">infra::Function&lt; void()&gt;</text>
</a>
</g>
</g>
<!-- Node33&#45;&gt;Node31 -->
<g id="edge35" class="edge"><title>Node33&#45;&gt;Node31</title>
<path fill="none" stroke="#9a32cd" stroke-dasharray="5,2" d="M638.207,-9.28634C664.018,-10.7108 693.409,-14.4448 719,-23 751.304,-33.7992 783.901,-57.853 800.588,-71.3458"/>
<polygon fill="#9a32cd" stroke="#9a32cd" points="638.282,-5.78625 628.135,-8.83528 637.968,-12.7792 638.282,-5.78625"/>
<text text-anchor="middle" x="682.5" y="-26" font-family="Helvetica,sans-Serif" font-size="10.00"> action</text>
</g>
<!-- Node34 -->
<g id="node31" class="node"><title>Node34</title>
<polygon fill="white" stroke="#bfbfbf" points="519,-76.5 519,-95.5 621,-95.5 621,-76.5 519,-76.5"/>
<text text-anchor="middle" x="570" y="-83.5" font-family="Helvetica,sans-Serif" font-size="10.00">array&lt; uint32_t, 2 &gt;</text>
</g>
<!-- Node34&#45;&gt;Node31 -->
<g id="edge36" class="edge"><title>Node34&#45;&gt;Node31</title>
<path fill="none" stroke="#9a32cd" stroke-dasharray="5,2" d="M631.241,-82.5373C636.233,-82.3264 641.202,-82.1423 646,-82 692.812,-80.6115 747.081,-80.5828 780.478,-80.7471"/>
<polygon fill="#9a32cd" stroke="#9a32cd" points="630.842,-79.0518 621.012,-83.0032 631.16,-86.0446 630.842,-79.0518"/>
<text text-anchor="middle" x="682.5" y="-85" font-family="Helvetica,sans-Serif" font-size="10.00"> nextTriggerTime</text>
</g>
<!-- Node35 -->
<g id="node32" class="node"><title>Node35</title>
<polygon fill="white" stroke="#bfbfbf" points="1437,-228.5 1437,-247.5 1480,-247.5 1480,-228.5 1437,-228.5"/>
<text text-anchor="middle" x="1458.5" y="-235.5" font-family="Helvetica,sans-Serif" font-size="10.00">size_t</text>
</g>
<!-- Node35&#45;&gt;Node20 -->
<g id="edge39" class="edge"><title>Node35&#45;&gt;Node20</title>
<path fill="none" stroke="#9a32cd" stroke-dasharray="5,2" d="M1490.47,-238C1538.16,-238 1630.96,-238 1696.86,-238"/>
<polygon fill="#9a32cd" stroke="#9a32cd" points="1490.46,-234.5 1480.46,-238 1490.46,-241.5 1490.46,-234.5"/>
<text text-anchor="middle" x="1613.5" y="-252" font-family="Helvetica,sans-Serif" font-size="10.00"> DateTimeSize</text>
<text text-anchor="middle" x="1613.5" y="-241" font-family="Helvetica,sans-Serif" font-size="10.00">TimeOffsetSize</text>
</g>
</g>
</svg>
