<?xml version="1.0" encoding="UTF-8" standalone="no"?>
<!DOCTYPE svg PUBLIC "-//W3C//DTD SVG 1.1//EN"
 "http://www.w3.org/Graphics/SVG/1.1/DTD/svg11.dtd">
<!-- Generated by graphviz version 2.38.0 (20140413.2041)
 -->
<!-- Title: services::ConnectionBsd::ConnectionBsd Pages: 1 -->
<!--zoomable 433 -->
<svg id="main" version="1.1" xmlns="http://www.w3.org/2000/svg" xmlns:xlink="http://www.w3.org/1999/xlink" xml:space="preserve" onload="init(evt)">
<style type="text/css"><![CDATA[
.edge:hover path { stroke: red; }
.edge:hover polygon { stroke: red; fill: red; }
]]></style>
<script type="text/javascript"><![CDATA[
var edges = document.getElementsByTagName('g');
if (edges && edges.length) {
  for (var i=0;i<edges.length;i++) {
    if (edges[i].id.substr(0,4)=='edge') {
      edges[i].setAttribute('class','edge');
    }
  }
}
]]></script>
        <defs>
                <circle id="rim" cx="0" cy="0" r="7"/>
                <circle id="rim2" cx="0" cy="0" r="3.5"/>
                <g id="zoomPlus">
                        <use xlink:href="#rim" fill="#404040">
                                <set attributeName="fill" to="#808080" begin="zoomplus.mouseover" end="zoomplus.mouseout"/>
                        </use>
                        <path d="M-4,0h8M0,-4v8" fill="none" stroke="white" stroke-width="1.5" pointer-events="none"/>
                </g>
                <g id="zoomMin">
                        <use xlink:href="#rim" fill="#404040">
                                <set attributeName="fill" to="#808080" begin="zoomminus.mouseover" end="zoomminus.mouseout"/>
                        </use>
                        <path d="M-4,0h8" fill="none" stroke="white" stroke-width="1.5" pointer-events="none"/>
                </g>
                <g id="dirArrow">
                        <path fill="none" stroke="white" stroke-width="1.5" d="M0,-3.0v7 M-2.5,-0.5L0,-3.0L2.5,-0.5"/>
                </g>
               <g id="resetDef">
                       <use xlink:href="#rim2" fill="#404040">
                               <set attributeName="fill" to="#808080" begin="reset.mouseover" end="reset.mouseout"/>
                       </use>
               </g>
        </defs>

<script type="text/javascript">
var viewWidth = 733;
var viewHeight = 433;
var sectionId = 'dynsection-2';
</script>
<script xlink:href="../../svgpan.js"/>
<svg id="graph" class="graph">
<g id="viewport">
<title>services::ConnectionBsd::ConnectionBsd</title>
<polygon fill="white" stroke="none" points="-4,4 -4,-428.5 729,-428.5 729,4 -4,4"/>
<!-- Node0 -->
<g id="node1" class="node"><title>Node0</title>
<polygon fill="#bfbfbf" stroke="black" points="0,-210.5 0,-240.5 124,-240.5 124,-210.5 0,-210.5"/>
<text text-anchor="start" x="8" y="-228.5" font-family="Helvetica,sans-Serif" font-size="10.00">services::ConnectionBsd</text>
<text text-anchor="middle" x="62" y="-217.5" font-family="Helvetica,sans-Serif" font-size="10.00">::ConnectionBsd</text>
</g>
<!-- Node1 -->
<g id="node2" class="node"><title>Node1</title>
<g id="a_node2"><a xlink:href="../../d3/d0e/classinfra_1_1_interface_connector.html#aed1d9e952d3d0dfa68e59ee4e868b380" target="_top" xlink:title="infra::InterfaceConnector\l\&lt; EventDispatcherWorker\l \&gt;::Instance">
<polygon fill="white" stroke="black" points="364,-383 364,-424 492,-424 492,-383 364,-383"/>
<text text-anchor="start" x="372" y="-412" font-family="Helvetica,sans-Serif" font-size="10.00">infra::InterfaceConnector</text>
<text text-anchor="start" x="372" y="-401" font-family="Helvetica,sans-Serif" font-size="10.00">&lt; EventDispatcherWorker</text>
<text text-anchor="middle" x="428" y="-390" font-family="Helvetica,sans-Serif" font-size="10.00"> &gt;::Instance</text>
</a>
</g>
</g>
<!-- Node0&#45;&gt;Node1 -->
<g id="edge1" class="edge"><title>Node0&#45;&gt;Node1</title>
<path fill="none" stroke="midnightblue" d="M87.8051,-240.593C135.328,-269.101 243.026,-331.743 339,-373.5 343.903,-375.633 349.01,-377.717 354.187,-379.727"/>
<polygon fill="midnightblue" stroke="midnightblue" points="352.96,-383.005 363.552,-383.263 355.433,-376.456 352.96,-383.005"/>
</g>
<!-- Node2 -->
<g id="node3" class="node"><title>Node2</title>
<g id="a_node3"><a xlink:href="../../de/d8b/classservices_1_1_connection_bsd.html#a929956e120d19744a36181b770ebb792" target="_top" xlink:title="services::ConnectionBsd\l::Receive">
<polygon fill="white" stroke="black" points="169.5,-210.5 169.5,-240.5 293.5,-240.5 293.5,-210.5 169.5,-210.5"/>
<text text-anchor="start" x="177.5" y="-228.5" font-family="Helvetica,sans-Serif" font-size="10.00">services::ConnectionBsd</text>
<text text-anchor="middle" x="231.5" y="-217.5" font-family="Helvetica,sans-Serif" font-size="10.00">::Receive</text>
</a>
</g>
</g>
<!-- Node0&#45;&gt;Node2 -->
<g id="edge2" class="edge"><title>Node0&#45;&gt;Node2</title>
<path fill="none" stroke="midnightblue" d="M124.42,-225.5C135.757,-225.5 147.684,-225.5 159.283,-225.5"/>
<polygon fill="midnightblue" stroke="midnightblue" points="159.368,-229 169.368,-225.5 159.368,-222 159.368,-229"/>
</g>
<!-- Node12 -->
<g id="node13" class="node"><title>Node12</title>
<g id="a_node13"><a xlink:href="../../d7/d34/classinfra_1_1_event_dispatcher_worker.html#a5922b8fd5101b15f20b639fcd11fa272" target="_top" xlink:title="infra::EventDispatcherWorker\l::Schedule">
<polygon fill="white" stroke="black" points="160,-161.5 160,-191.5 303,-191.5 303,-161.5 160,-161.5"/>
<text text-anchor="start" x="168" y="-179.5" font-family="Helvetica,sans-Serif" font-size="10.00">infra::EventDispatcherWorker</text>
<text text-anchor="middle" x="231.5" y="-168.5" font-family="Helvetica,sans-Serif" font-size="10.00">::Schedule</text>
</a>
</g>
</g>
<!-- Node0&#45;&gt;Node12 -->
<g id="edge13" class="edge"><title>Node0&#45;&gt;Node12</title>
<path fill="none" stroke="midnightblue" d="M114.622,-210.399C131.898,-205.345 151.322,-199.662 169.259,-194.415"/>
<polygon fill="midnightblue" stroke="midnightblue" points="170.433,-197.719 179.048,-191.552 168.468,-191 170.433,-197.719"/>
</g>
<!-- Node2&#45;&gt;Node1 -->
<g id="edge9" class="edge"><title>Node2&#45;&gt;Node1</title>
<path fill="none" stroke="midnightblue" d="M241.908,-240.942C262.871,-274.922 313.568,-354.651 339,-373.5 343.735,-377.009 348.91,-380.128 354.303,-382.896"/>
<polygon fill="midnightblue" stroke="midnightblue" points="353.005,-386.153 363.545,-387.23 355.977,-379.815 353.005,-386.153"/>
</g>
<!-- Node3 -->
<g id="node4" class="node"><title>Node3</title>
<g id="a_node4"><a xlink:href="../../d5/db7/classinfra_1_1_bounded_deque.html#ac5bf03d3538657af1663cec133161225" target="_top" xlink:title="infra::BoundedDeque\l::full">
<polygon fill="white" stroke="black" points="374.5,-333.5 374.5,-363.5 481.5,-363.5 481.5,-333.5 374.5,-333.5"/>
<text text-anchor="start" x="382.5" y="-351.5" font-family="Helvetica,sans-Serif" font-size="10.00">infra::BoundedDeque</text>
<text text-anchor="middle" x="428" y="-340.5" font-family="Helvetica,sans-Serif" font-size="10.00">::full</text>
</a>
</g>
</g>
<!-- Node2&#45;&gt;Node3 -->
<g id="edge3" class="edge"><title>Node2&#45;&gt;Node3</title>
<path fill="none" stroke="midnightblue" d="M244.586,-240.656C262.77,-262.442 299.289,-302.413 339,-324.5 346.927,-328.909 355.713,-332.547 364.576,-335.537"/>
<polygon fill="midnightblue" stroke="midnightblue" points="363.598,-338.898 374.186,-338.534 365.682,-332.216 363.598,-338.898"/>
</g>
<!-- Node4 -->
<g id="node5" class="node"><title>Node4</title>
<g id="a_node5"><a xlink:href="../../d5/db7/classinfra_1_1_bounded_deque.html#a092bec48cdf6aeba4065e1c9c44f37cd" target="_top" xlink:title="infra::BoundedDeque\l::max_size">
<polygon fill="white" stroke="black" points="374.5,-284.5 374.5,-314.5 481.5,-314.5 481.5,-284.5 374.5,-284.5"/>
<text text-anchor="start" x="382.5" y="-302.5" font-family="Helvetica,sans-Serif" font-size="10.00">infra::BoundedDeque</text>
<text text-anchor="middle" x="428" y="-291.5" font-family="Helvetica,sans-Serif" font-size="10.00">::max_size</text>
</a>
</g>
</g>
<!-- Node2&#45;&gt;Node4 -->
<g id="edge4" class="edge"><title>Node2&#45;&gt;Node4</title>
<path fill="none" stroke="midnightblue" d="M261.303,-240.683C282.409,-251.396 311.971,-265.554 339,-275.5 347.206,-278.52 355.967,-281.353 364.66,-283.941"/>
<polygon fill="midnightblue" stroke="midnightblue" points="363.836,-287.346 374.414,-286.754 365.776,-280.62 363.836,-287.346"/>
</g>
<!-- Node5 -->
<g id="node6" class="node"><title>Node5</title>
<g id="a_node6"><a xlink:href="../../d5/db7/classinfra_1_1_bounded_deque.html#ac32cda72da6791ea7b4e2244b84c09d4" target="_top" xlink:title="infra::BoundedDeque\l::size">
<polygon fill="white" stroke="black" points="374.5,-235.5 374.5,-265.5 481.5,-265.5 481.5,-235.5 374.5,-235.5"/>
<text text-anchor="start" x="382.5" y="-253.5" font-family="Helvetica,sans-Serif" font-size="10.00">infra::BoundedDeque</text>
<text text-anchor="middle" x="428" y="-242.5" font-family="Helvetica,sans-Serif" font-size="10.00">::size</text>
</a>
</g>
</g>
<!-- Node2&#45;&gt;Node5 -->
<g id="edge5" class="edge"><title>Node2&#45;&gt;Node5</title>
<path fill="none" stroke="midnightblue" d="M293.507,-233.342C316.018,-236.235 341.551,-239.517 364.216,-242.43"/>
<polygon fill="midnightblue" stroke="midnightblue" points="364.042,-245.936 374.407,-243.74 364.934,-238.994 364.042,-245.936"/>
</g>
<!-- Node6 -->
<g id="node7" class="node"><title>Node6</title>
<g id="a_node7"><a xlink:href="../../d0/dde/classservices_1_1_connection.html#ae93c3fdf056fd6e66613fd384a365fde" target="_top" xlink:title="services::Connection\l::ResetOwnership">
<polygon fill="white" stroke="black" points="374.5,-186.5 374.5,-216.5 481.5,-216.5 481.5,-186.5 374.5,-186.5"/>
<text text-anchor="start" x="382.5" y="-204.5" font-family="Helvetica,sans-Serif" font-size="10.00">services::Connection</text>
<text text-anchor="middle" x="428" y="-193.5" font-family="Helvetica,sans-Serif" font-size="10.00">::ResetOwnership</text>
</a>
</g>
</g>
<!-- Node2&#45;&gt;Node6 -->
<g id="edge6" class="edge"><title>Node2&#45;&gt;Node6</title>
<path fill="none" stroke="midnightblue" d="M293.507,-217.972C316.018,-215.194 341.551,-212.044 364.216,-209.247"/>
<polygon fill="midnightblue" stroke="midnightblue" points="364.91,-212.688 374.407,-207.99 364.053,-205.741 364.91,-212.688"/>
</g>
<!-- Node7 -->
<g id="node8" class="node"><title>Node7</title>
<g id="a_node8"><a xlink:href="../../d5/db7/classinfra_1_1_bounded_deque.html#ada9c4e05fa965d4d57f3f2faf93c8838" target="_top" xlink:title="infra::BoundedDeque\l::insert">
<polygon fill="white" stroke="black" points="374.5,-137.5 374.5,-167.5 481.5,-167.5 481.5,-137.5 374.5,-137.5"/>
<text text-anchor="start" x="382.5" y="-155.5" font-family="Helvetica,sans-Serif" font-size="10.00">infra::BoundedDeque</text>
<text text-anchor="middle" x="428" y="-144.5" font-family="Helvetica,sans-Serif" font-size="10.00">::insert</text>
</a>
</g>
</g>
<!-- Node2&#45;&gt;Node7 -->
<g id="edge7" class="edge"><title>Node2&#45;&gt;Node7</title>
<path fill="none" stroke="midnightblue" d="M282.089,-210.447C289.228,-207.757 296.39,-204.759 303,-201.5 320.247,-192.996 321.54,-185.558 339,-177.5 347.068,-173.777 355.812,-170.487 364.552,-167.618"/>
<polygon fill="midnightblue" stroke="midnightblue" points="365.873,-170.873 374.381,-164.559 363.793,-164.189 365.873,-170.873"/>
</g>
<!-- Node8 -->
<g id="node9" class="node"><title>Node8</title>
<g id="a_node9"><a xlink:href="../../d5/db7/classinfra_1_1_bounded_deque.html#a5a35a0944e4ed13a840c6be08aa1761c" target="_top" xlink:title="infra::BoundedDeque::end">
<polygon fill="white" stroke="black" points="364,-99 364,-118 492,-118 492,-99 364,-99"/>
<text text-anchor="middle" x="428" y="-106" font-family="Helvetica,sans-Serif" font-size="10.00">infra::BoundedDeque::end</text>
</a>
</g>
</g>
<!-- Node2&#45;&gt;Node8 -->
<g id="edge8" class="edge"><title>Node2&#45;&gt;Node8</title>
<path fill="none" stroke="midnightblue" d="M290.073,-210.361C294.72,-207.843 299.113,-204.912 303,-201.5 330.188,-177.636 310.602,-150.909 339,-128.5 343.649,-124.832 348.843,-121.811 354.321,-119.326"/>
<polygon fill="midnightblue" stroke="midnightblue" points="355.724,-122.535 363.76,-115.63 353.172,-116.017 355.724,-122.535"/>
</g>
<!-- Node9 -->
<g id="node10" class="node"><title>Node9</title>
<g id="a_node10"><a xlink:href="../../de/d88/classinfra_1_1_event_dispatcher_with_weak_ptr_worker.html#a0444150202eeeeb51399634d6e24b13b" target="_top" xlink:title="infra::EventDispatcherWith\lWeakPtrWorker::Schedule">
<polygon fill="white" stroke="black" points="361.5,-49.5 361.5,-79.5 494.5,-79.5 494.5,-49.5 361.5,-49.5"/>
<text text-anchor="start" x="369.5" y="-67.5" font-family="Helvetica,sans-Serif" font-size="10.00">infra::EventDispatcherWith</text>
<text text-anchor="middle" x="428" y="-56.5" font-family="Helvetica,sans-Serif" font-size="10.00">WeakPtrWorker::Schedule</text>
</a>
</g>
</g>
<!-- Node2&#45;&gt;Node9 -->
<g id="edge10" class="edge"><title>Node2&#45;&gt;Node9</title>
<path fill="none" stroke="midnightblue" d="M291.645,-210.349C295.789,-207.838 299.646,-204.912 303,-201.5 339.654,-164.213 301.401,-125.834 339,-89.5 342.828,-85.8009 347.162,-82.6419 351.803,-79.945"/>
<polygon fill="midnightblue" stroke="midnightblue" points="353.685,-82.9169 361.057,-75.3076 350.549,-76.6587 353.685,-82.9169"/>
</g>
<!-- Node11 -->
<g id="node12" class="node"><title>Node11</title>
<g id="a_node12"><a xlink:href="../../dd/df1/classinfra_1_1_enable_shared_from_this.html#af905d6b4aef4f252a28b1f4edebc99b3" target="_top" xlink:title="infra::EnableSharedFromThis\l\&lt; ConnectionBsd \&gt;::SharedFromThis">
<polygon fill="white" stroke="black" points="339,-0.5 339,-30.5 517,-30.5 517,-0.5 339,-0.5"/>
<text text-anchor="start" x="347" y="-18.5" font-family="Helvetica,sans-Serif" font-size="10.00">infra::EnableSharedFromThis</text>
<text text-anchor="middle" x="428" y="-7.5" font-family="Helvetica,sans-Serif" font-size="10.00">&lt; ConnectionBsd &gt;::SharedFromThis</text>
</a>
</g>
</g>
<!-- Node2&#45;&gt;Node11 -->
<g id="edge12" class="edge"><title>Node2&#45;&gt;Node11</title>
<path fill="none" stroke="midnightblue" d="M292.327,-210.47C296.267,-207.932 299.894,-204.966 303,-201.5 352.223,-146.572 288.102,-92.8796 339,-39.5 339.922,-38.533 340.879,-37.6037 341.867,-36.7106"/>
<polygon fill="midnightblue" stroke="midnightblue" points="344.146,-39.3754 350.007,-30.5496 339.921,-33.7938 344.146,-39.3754"/>
</g>
<!-- Node10 -->
<g id="node11" class="node"><title>Node10</title>
<g id="a_node11"><a xlink:href="../../de/d88/classinfra_1_1_event_dispatcher_with_weak_ptr_worker.html#ac68250c0670ca6c8c2bfadb6cdbadff7" target="_top" xlink:title="infra::EventDispatcherWith\lWeakPtrWorker::RequestExecution">
<polygon fill="white" stroke="black" points="553,-49.5 553,-79.5 725,-79.5 725,-49.5 553,-49.5"/>
<text text-anchor="start" x="561" y="-67.5" font-family="Helvetica,sans-Serif" font-size="10.00">infra::EventDispatcherWith</text>
<text text-anchor="middle" x="639" y="-56.5" font-family="Helvetica,sans-Serif" font-size="10.00">WeakPtrWorker::RequestExecution</text>
</a>
</g>
</g>
<!-- Node9&#45;&gt;Node10 -->
<g id="edge11" class="edge"><title>Node9&#45;&gt;Node10</title>
<path fill="none" stroke="midnightblue" d="M494.555,-64.5C509.823,-64.5 526.384,-64.5 542.647,-64.5"/>
<polygon fill="midnightblue" stroke="midnightblue" points="542.721,-68.0001 552.721,-64.5 542.721,-61.0001 542.721,-68.0001"/>
</g>
</g>
</svg>
        <g id="navigator" transform="translate(0 0)" fill="#404254">
                <rect fill="#f2f5e9" fill-opacity="0.5" stroke="#606060" stroke-width=".5" x="0" y="0" width="60" height="60"/>
                <use id="zoomplus" xlink:href="#zoomPlus" x="17" y="9" onmousedown="handleZoom(evt,'in')"/>
                <use id="zoomminus" xlink:href="#zoomMin" x="42" y="9" onmousedown="handleZoom(evt,'out')"/>
                <use id="reset" xlink:href="#resetDef" x="30" y="36" onmousedown="handleReset()"/>
                <g id="arrowUp" xlink:href="#dirArrow" transform="translate(30 24)" onmousedown="handlePan(0,-1)">
                  <use xlink:href="#rim" fill="#404040">
                        <set attributeName="fill" to="#808080" begin="arrowUp.mouseover" end="arrowUp.mouseout"/>
                  </use>
                  <path fill="none" stroke="white" stroke-width="1.5" d="M0,-3.0v7 M-2.5,-0.5L0,-3.0L2.5,-0.5"/>
                </g>
                <g id="arrowRight" xlink:href="#dirArrow" transform="rotate(90) translate(36 -43)" onmousedown="handlePan(1,0)">
                  <use xlink:href="#rim" fill="#404040">
                        <set attributeName="fill" to="#808080" begin="arrowRight.mouseover" end="arrowRight.mouseout"/>
                  </use>
                  <path fill="none" stroke="white" stroke-width="1.5" d="M0,-3.0v7 M-2.5,-0.5L0,-3.0L2.5,-0.5"/>
                </g>
                <g id="arrowDown" xlink:href="#dirArrow" transform="rotate(180) translate(-30 -48)" onmousedown="handlePan(0,1)">
                  <use xlink:href="#rim" fill="#404040">
                        <set attributeName="fill" to="#808080" begin="arrowDown.mouseover" end="arrowDown.mouseout"/>
                  </use>
                  <path fill="none" stroke="white" stroke-width="1.5" d="M0,-3.0v7 M-2.5,-0.5L0,-3.0L2.5,-0.5"/>
                </g>
                <g id="arrowLeft" xlink:href="#dirArrow" transform="rotate(270) translate(-36 17)" onmousedown="handlePan(-1,0)">
                  <use xlink:href="#rim" fill="#404040">
                        <set attributeName="fill" to="#808080" begin="arrowLeft.mouseover" end="arrowLeft.mouseout"/>
                  </use>
                  <path fill="none" stroke="white" stroke-width="1.5" d="M0,-3.0v7 M-2.5,-0.5L0,-3.0L2.5,-0.5"/>
                </g>
        </g>
        <svg viewBox="0 0 15 15" width="100%" height="30px" preserveAspectRatio="xMaxYMin meet">
         <g id="arrow_out" transform="scale(0.3 0.3)">
          <a xlink:href="classservices_1_1_connection_bsd_a99c9de1c7a44deec022efdb1bb12f5e3_cgraph_org.svg" target="_base">
           <rect id="button" ry="5" rx="5" y="6" x="6" height="38" width="38"
                fill="#f2f5e9" fill-opacity="0.5" stroke="#606060" stroke-width="1.0"/>
           <path id="arrow"
             d="M 11.500037,31.436501 C 11.940474,20.09759 22.043105,11.32322 32.158766,21.979434 L 37.068811,17.246167 C 37.068811,17.246167 37.088388,32 37.088388,32 L 22.160133,31.978069 C 22.160133,31.978069 26.997745,27.140456 26.997745,27.140456 C 18.528582,18.264221 13.291696,25.230495 11.500037,31.436501 z"
             style="fill:#404040;"/>
          </a>
         </g>
        </svg>
</svg>
