<?xml version="1.0" encoding="UTF-8" standalone="no"?>
<!DOCTYPE svg PUBLIC "-//W3C//DTD SVG 1.1//EN"
 "http://www.w3.org/Graphics/SVG/1.1/DTD/svg11.dtd">
<!-- Generated by graphviz version 2.38.0 (20140413.2041)
 -->
<!-- Title: application::UpgradePackBuilderFacade::PostBuilder Pages: 1 -->
<svg width="656pt" height="78pt"
 viewBox="0.00 0.00 656.00 77.50" xmlns="http://www.w3.org/2000/svg" xmlns:xlink="http://www.w3.org/1999/xlink">
<g id="graph0" class="graph" transform="scale(1 1) rotate(0) translate(4 73.5)">
<title>application::UpgradePackBuilderFacade::PostBuilder</title>
<polygon fill="white" stroke="none" points="-4,4 -4,-73.5 652,-73.5 652,4 -4,4"/>
<!-- Node16 -->
<g id="node1" class="node"><title>Node16</title>
<polygon fill="#bfbfbf" stroke="black" points="0,-17 0,-47 135,-47 135,-17 0,-17"/>
<text text-anchor="start" x="8" y="-35" font-family="Helvetica,sans-Serif" font-size="10.00">application::UpgradePack</text>
<text text-anchor="middle" x="67.5" y="-24" font-family="Helvetica,sans-Serif" font-size="10.00">BuilderFacade::PostBuilder</text>
</g>
<!-- Node17 -->
<g id="node2" class="node"><title>Node17</title>
<g id="a_node2"><a xlink:href="../../d1/d88/classapplication_1_1_upgrade_pack_builder_facade.html#a6ea40789132d35dccdfc4b33fb31a213" target="_top" xlink:title="application::UpgradePack\lBuilderFacade::TryBuild">
<polygon fill="white" stroke="black" points="171,-17 171,-47 299,-47 299,-17 171,-17"/>
<text text-anchor="start" x="179" y="-35" font-family="Helvetica,sans-Serif" font-size="10.00">application::UpgradePack</text>
<text text-anchor="middle" x="235" y="-24" font-family="Helvetica,sans-Serif" font-size="10.00">BuilderFacade::TryBuild</text>
</a>
</g>
</g>
<!-- Node16&#45;&gt;Node17 -->
<g id="edge1" class="edge"><title>Node16&#45;&gt;Node17</title>
<path fill="none" stroke="midnightblue" d="M145.617,-32C154.096,-32 162.654,-32 170.933,-32"/>
<polygon fill="midnightblue" stroke="midnightblue" points="145.338,-28.5001 135.338,-32 145.338,-35.5001 145.338,-28.5001"/>
</g>
<!-- Node18 -->
<g id="node3" class="node"><title>Node18</title>
<g id="a_node3"><a xlink:href="../../d1/d88/classapplication_1_1_upgrade_pack_builder_facade.html#ab59c039ac37fa26b72c196cd2bae76fe" target="_top" xlink:title="application::UpgradePack\lBuilderFacade::Build">
<polygon fill="white" stroke="black" points="335,-17 335,-47 463,-47 463,-17 335,-17"/>
<text text-anchor="start" x="343" y="-35" font-family="Helvetica,sans-Serif" font-size="10.00">application::UpgradePack</text>
<text text-anchor="middle" x="399" y="-24" font-family="Helvetica,sans-Serif" font-size="10.00">BuilderFacade::Build</text>
</a>
</g>
</g>
<!-- Node17&#45;&gt;Node18 -->
<g id="edge2" class="edge"><title>Node17&#45;&gt;Node18</title>
<path fill="none" stroke="midnightblue" d="M309.374,-32C317.865,-32 326.469,-32 334.808,-32"/>
<polygon fill="midnightblue" stroke="midnightblue" points="309.097,-28.5001 299.097,-32 309.097,-35.5001 309.097,-28.5001"/>
</g>
<!-- Node19 -->
<g id="node4" class="node"><title>Node19</title>
<g id="a_node4"><a xlink:href="../../d7/d2c/namespaceapplication.html#a70bdafd088a61ee3a819c411515f17f5" target="_top" xlink:title="application::BuildReference\lUpgradePack">
<polygon fill="white" stroke="black" points="506.5,-39 506.5,-69 640.5,-69 640.5,-39 506.5,-39"/>
<text text-anchor="start" x="514.5" y="-57" font-family="Helvetica,sans-Serif" font-size="10.00">application::BuildReference</text>
<text text-anchor="middle" x="573.5" y="-46" font-family="Helvetica,sans-Serif" font-size="10.00">UpgradePack</text>
</a>
</g>
</g>
<!-- Node18&#45;&gt;Node19 -->
<g id="edge3" class="edge"><title>Node18&#45;&gt;Node19</title>
<path fill="none" stroke="midnightblue" d="M473.247,-41.3417C484.241,-42.7438 495.524,-44.1828 506.358,-45.5645"/>
<polygon fill="midnightblue" stroke="midnightblue" points="473.616,-37.8604 463.253,-40.0671 472.73,-44.8041 473.616,-37.8604"/>
</g>
<!-- Node20 -->
<g id="node5" class="node"><title>Node20</title>
<g id="a_node5"><a xlink:href="../../d7/d2c/namespaceapplication.html#a09678fd177a0195ac3548b3a9d5a6825" target="_top" xlink:title="application::BuildUpgradePack">
<polygon fill="white" stroke="black" points="499,-0.5 499,-19.5 648,-19.5 648,-0.5 499,-0.5"/>
<text text-anchor="middle" x="573.5" y="-7.5" font-family="Helvetica,sans-Serif" font-size="10.00">application::BuildUpgradePack</text>
</a>
</g>
</g>
<!-- Node18&#45;&gt;Node20 -->
<g id="edge4" class="edge"><title>Node18&#45;&gt;Node20</title>
<path fill="none" stroke="midnightblue" d="M473.386,-22.6407C481.778,-21.5703 490.337,-20.4787 498.735,-19.4078"/>
<polygon fill="midnightblue" stroke="midnightblue" points="472.73,-19.1959 463.253,-23.9329 473.616,-26.1396 472.73,-19.1959"/>
</g>
</g>
</svg>
