<?xml version="1.0" encoding="UTF-8" standalone="no"?>
<!DOCTYPE svg PUBLIC "-//W3C//DTD SVG 1.1//EN"
 "http://www.w3.org/Graphics/SVG/1.1/DTD/svg11.dtd">
<!-- Generated by graphviz version 2.38.0 (20140413.2041)
 -->
<!-- Title: services::FlashQuadSpiCypressFll::ReadBuffer Pages: 1 -->
<svg width="353pt" height="154pt"
 viewBox="0.00 0.00 353.00 154.00" xmlns="http://www.w3.org/2000/svg" xmlns:xlink="http://www.w3.org/1999/xlink">
<g id="graph0" class="graph" transform="scale(1 1) rotate(0) translate(4 150)">
<title>services::FlashQuadSpiCypressFll::ReadBuffer</title>
<polygon fill="white" stroke="none" points="-4,4 -4,-150 349,-150 349,4 -4,4"/>
<!-- Node76 -->
<g id="node1" class="node"><title>Node76</title>
<polygon fill="#bfbfbf" stroke="black" points="0,-61 0,-91 155,-91 155,-61 0,-61"/>
<text text-anchor="start" x="8" y="-79" font-family="Helvetica,sans-Serif" font-size="10.00">services::FlashQuadSpiCypress</text>
<text text-anchor="middle" x="77.5" y="-68" font-family="Helvetica,sans-Serif" font-size="10.00">Fll::ReadBuffer</text>
</g>
<!-- Node77 -->
<g id="node2" class="node"><title>Node77</title>
<g id="a_node2"><a xlink:href="../../dd/df2/classhal_1_1_quad_spi.html#a962b4ce2b2f8ae4fb7b83324db78244c" target="_top" xlink:title="hal::QuadSpi::AddressToVector">
<polygon fill="white" stroke="black" points="191,-126.5 191,-145.5 345,-145.5 345,-126.5 191,-126.5"/>
<text text-anchor="middle" x="268" y="-133.5" font-family="Helvetica,sans-Serif" font-size="10.00">hal::QuadSpi::AddressToVector</text>
</a>
</g>
</g>
<!-- Node76&#45;&gt;Node77 -->
<g id="edge1" class="edge"><title>Node76&#45;&gt;Node77</title>
<path fill="none" stroke="midnightblue" d="M116.694,-91.0458C138.312,-99.2768 165.956,-109.329 191,-117 198.858,-119.407 207.242,-121.736 215.464,-123.891"/>
<polygon fill="midnightblue" stroke="midnightblue" points="214.812,-127.337 225.368,-126.425 216.547,-120.555 214.812,-127.337"/>
</g>
<!-- Node78 -->
<g id="node3" class="node"><title>Node78</title>
<g id="a_node3"><a xlink:href="../../d0/de3/namespaceinfra.html#a0ec8c0f8585063ab97f13228d4888974" target="_top" xlink:title="infra::MakeOptional">
<polygon fill="white" stroke="black" points="217.5,-88.5 217.5,-107.5 318.5,-107.5 318.5,-88.5 217.5,-88.5"/>
<text text-anchor="middle" x="268" y="-95.5" font-family="Helvetica,sans-Serif" font-size="10.00">infra::MakeOptional</text>
</a>
</g>
</g>
<!-- Node76&#45;&gt;Node78 -->
<g id="edge2" class="edge"><title>Node76&#45;&gt;Node78</title>
<path fill="none" stroke="midnightblue" d="M155.17,-84.9482C172.558,-86.9776 190.774,-89.1037 207.336,-91.0366"/>
<polygon fill="midnightblue" stroke="midnightblue" points="207.074,-94.5296 217.412,-92.2126 207.885,-87.5768 207.074,-94.5296"/>
</g>
<!-- Node79 -->
<g id="node4" class="node"><title>Node79</title>
<g id="a_node4"><a xlink:href="../../da/d1d/structhal_1_1_quad_spi_1_1_lines.html#a355cdd0f183ce81c385236c7d850df73" target="_top" xlink:title="hal::QuadSpi::Lines\l::QuadSpeed">
<polygon fill="white" stroke="black" points="217,-39 217,-69 319,-69 319,-39 217,-39"/>
<text text-anchor="start" x="225" y="-57" font-family="Helvetica,sans-Serif" font-size="10.00">hal::QuadSpi::Lines</text>
<text text-anchor="middle" x="268" y="-46" font-family="Helvetica,sans-Serif" font-size="10.00">::QuadSpeed</text>
</a>
</g>
</g>
<!-- Node76&#45;&gt;Node79 -->
<g id="edge3" class="edge"><title>Node76&#45;&gt;Node79</title>
<path fill="none" stroke="midnightblue" d="M155.17,-67.0518C172.39,-65.0421 190.421,-62.9376 206.853,-61.0198"/>
<polygon fill="midnightblue" stroke="midnightblue" points="207.33,-64.488 216.857,-59.8523 206.518,-57.5352 207.33,-64.488"/>
</g>
<!-- Node80 -->
<g id="node5" class="node"><title>Node80</title>
<g id="a_node5"><a xlink:href="../../dd/df2/classhal_1_1_quad_spi.html#a07c583b84750ae9f6276c0d702fa6bcc" target="_top" xlink:title="hal::QuadSpi::ReceiveData">
<polygon fill="white" stroke="black" points="201.5,-0.5 201.5,-19.5 334.5,-19.5 334.5,-0.5 201.5,-0.5"/>
<text text-anchor="middle" x="268" y="-7.5" font-family="Helvetica,sans-Serif" font-size="10.00">hal::QuadSpi::ReceiveData</text>
</a>
</g>
</g>
<!-- Node76&#45;&gt;Node80 -->
<g id="edge4" class="edge"><title>Node76&#45;&gt;Node80</title>
<path fill="none" stroke="midnightblue" d="M112.034,-60.94C134.177,-51.3328 163.984,-39.0347 191,-30 199.367,-27.2018 208.356,-24.5412 217.119,-22.1271"/>
<polygon fill="midnightblue" stroke="midnightblue" points="218.12,-25.4826 226.872,-19.5122 216.307,-18.7214 218.12,-25.4826"/>
</g>
</g>
</svg>
