<?xml version="1.0" encoding="UTF-8" standalone="no"?>
<!DOCTYPE svg PUBLIC "-//W3C//DTD SVG 1.1//EN"
 "http://www.w3.org/Graphics/SVG/1.1/DTD/svg11.dtd">
<!-- Generated by graphviz version 2.38.0 (20140413.2041)
 -->
<!-- Title: infra::BoundedForwardList&lt; T &gt; Pages: 1 -->
<svg width="755pt" height="167pt"
 viewBox="0.00 0.00 755.00 166.50" xmlns="http://www.w3.org/2000/svg" xmlns:xlink="http://www.w3.org/1999/xlink">
<g id="graph0" class="graph" transform="scale(1 1) rotate(0) translate(4 162.5)">
<title>infra::BoundedForwardList&lt; T &gt;</title>
<polygon fill="white" stroke="none" points="-4,4 -4,-162.5 751,-162.5 751,4 -4,4"/>
<!-- Node1 -->
<g id="node1" class="node"><title>Node1</title>
<polygon fill="#bfbfbf" stroke="black" points="595,-72 595,-91 747,-91 747,-72 595,-72"/>
<text text-anchor="middle" x="671" y="-79" font-family="Helvetica,sans-Serif" font-size="10.00">infra::BoundedForwardList&lt; T &gt;</text>
</g>
<!-- Node2 -->
<g id="node2" class="node"><title>Node2</title>
<g id="a_node2"><a xlink:href="../../dc/d46/structinfra_1_1detail_1_1_bounded_forward_list_node.html" target="_top" xlink:title="infra::detail::BoundedForward\lListNode\&lt; T \&gt;">
<polygon fill="white" stroke="black" points="348.5,-111.5 348.5,-141.5 491.5,-141.5 491.5,-111.5 348.5,-111.5"/>
<text text-anchor="start" x="356.5" y="-129.5" font-family="Helvetica,sans-Serif" font-size="10.00">infra::detail::BoundedForward</text>
<text text-anchor="middle" x="420" y="-118.5" font-family="Helvetica,sans-Serif" font-size="10.00">ListNode&lt; T &gt;</text>
</a>
</g>
</g>
<!-- Node2&#45;&gt;Node1 -->
<g id="edge1" class="edge"><title>Node2&#45;&gt;Node1</title>
<path fill="none" stroke="#9a32cd" stroke-dasharray="5,2" d="M501.452,-116.757C525.808,-113.376 552.573,-109.23 577,-104.5 596.268,-100.769 617.533,-95.5907 634.859,-91.0923"/>
<polygon fill="#9a32cd" stroke="#9a32cd" points="500.969,-113.29 491.534,-118.11 501.915,-120.226 500.969,-113.29"/>
<text text-anchor="middle" x="545.5" y="-128.5" font-family="Helvetica,sans-Serif" font-size="10.00"> freeList</text>
<text text-anchor="middle" x="545.5" y="-117.5" font-family="Helvetica,sans-Serif" font-size="10.00">firstNode</text>
</g>
<!-- Node3 -->
<g id="node3" class="node"><title>Node3</title>
<polygon fill="white" stroke="#bfbfbf" points="119.5,-139 119.5,-158 218.5,-158 218.5,-139 119.5,-139"/>
<text text-anchor="middle" x="169" y="-146" font-family="Helvetica,sans-Serif" font-size="10.00">StaticStorage&lt; T &gt;</text>
</g>
<!-- Node3&#45;&gt;Node2 -->
<g id="edge2" class="edge"><title>Node3&#45;&gt;Node2</title>
<path fill="none" stroke="#9a32cd" stroke-dasharray="5,2" d="M228.889,-143.297C264.688,-140.134 310.621,-136.076 348.368,-132.741"/>
<polygon fill="#9a32cd" stroke="#9a32cd" points="228.254,-139.839 218.601,-144.206 228.87,-146.812 228.254,-139.839"/>
<text text-anchor="middle" x="294.5" y="-142.5" font-family="Helvetica,sans-Serif" font-size="10.00"> storage</text>
</g>
<!-- Node4 -->
<g id="node4" class="node"><title>Node4</title>
<polygon fill="white" stroke="#bfbfbf" points="105,-89.5 105,-119.5 233,-119.5 233,-89.5 105,-89.5"/>
<text text-anchor="start" x="113" y="-107.5" font-family="Helvetica,sans-Serif" font-size="10.00">BoundedForwardListNode</text>
<text text-anchor="middle" x="169" y="-96.5" font-family="Helvetica,sans-Serif" font-size="10.00">&lt; T &gt; *</text>
</g>
<!-- Node4&#45;&gt;Node2 -->
<g id="edge3" class="edge"><title>Node4&#45;&gt;Node2</title>
<path fill="none" stroke="#9a32cd" stroke-dasharray="5,2" d="M243.259,-110.973C276.467,-113.907 315.567,-117.361 348.445,-120.266"/>
<polygon fill="#9a32cd" stroke="#9a32cd" points="243.424,-107.474 233.155,-110.08 242.808,-114.447 243.424,-107.474"/>
<text text-anchor="middle" x="294.5" y="-120.5" font-family="Helvetica,sans-Serif" font-size="10.00"> next</text>
</g>
<!-- Node5 -->
<g id="node5" class="node"><title>Node5</title>
<polygon fill="white" stroke="#bfbfbf" points="398.5,-72 398.5,-91 441.5,-91 441.5,-72 398.5,-72"/>
<text text-anchor="middle" x="420" y="-79" font-family="Helvetica,sans-Serif" font-size="10.00">size_t</text>
</g>
<!-- Node5&#45;&gt;Node1 -->
<g id="edge4" class="edge"><title>Node5&#45;&gt;Node1</title>
<path fill="none" stroke="#9a32cd" stroke-dasharray="5,2" d="M452.017,-81.5C487.539,-81.5 546.997,-81.5 594.85,-81.5"/>
<polygon fill="#9a32cd" stroke="#9a32cd" points="451.801,-78.0001 441.801,-81.5 451.801,-85.0001 451.801,-78.0001"/>
<text text-anchor="middle" x="545.5" y="-95.5" font-family="Helvetica,sans-Serif" font-size="10.00"> numAllocated</text>
<text text-anchor="middle" x="545.5" y="-84.5" font-family="Helvetica,sans-Serif" font-size="10.00">numInitialized</text>
</g>
<!-- Node6 -->
<g id="node6" class="node"><title>Node6</title>
<g id="a_node6"><a xlink:href="../../d0/d6d/classinfra_1_1_memory_range.html" target="_top" xlink:title="infra::MemoryRange\l\&lt; infra::StaticStorage\l\&lt; infra::detail::BoundedForward\lListNode\&lt; T \&gt; \&gt; \&gt;">
<polygon fill="white" stroke="black" points="344,-0.5 344,-52.5 496,-52.5 496,-0.5 344,-0.5"/>
<text text-anchor="start" x="352" y="-40.5" font-family="Helvetica,sans-Serif" font-size="10.00">infra::MemoryRange</text>
<text text-anchor="start" x="352" y="-29.5" font-family="Helvetica,sans-Serif" font-size="10.00">&lt; infra::StaticStorage</text>
<text text-anchor="start" x="352" y="-18.5" font-family="Helvetica,sans-Serif" font-size="10.00">&lt; infra::detail::BoundedForward</text>
<text text-anchor="middle" x="420" y="-7.5" font-family="Helvetica,sans-Serif" font-size="10.00">ListNode&lt; T &gt; &gt; &gt;</text>
</a>
</g>
</g>
<!-- Node6&#45;&gt;Node1 -->
<g id="edge5" class="edge"><title>Node6&#45;&gt;Node1</title>
<path fill="none" stroke="#9a32cd" stroke-dasharray="5,2" d="M505.981,-45.2709C546.71,-54.2672 593.734,-64.6542 626.961,-71.9934"/>
<polygon fill="#9a32cd" stroke="#9a32cd" points="506.565,-41.8157 496.046,-43.0764 505.056,-48.6509 506.565,-41.8157"/>
<text text-anchor="middle" x="545.5" y="-64.5" font-family="Helvetica,sans-Serif" font-size="10.00"> storage</text>
</g>
<!-- Node7 -->
<g id="node7" class="node"><title>Node7</title>
<g id="a_node7"><a xlink:href="../../d0/d8c/classinfra_1_1_static_storage.html" target="_top" xlink:title="infra::StaticStorage\l\&lt; infra::detail::BoundedForward\lListNode\&lt; T \&gt; \&gt;">
<polygon fill="white" stroke="black" points="93,-6 93,-47 245,-47 245,-6 93,-6"/>
<text text-anchor="start" x="101" y="-35" font-family="Helvetica,sans-Serif" font-size="10.00">infra::StaticStorage</text>
<text text-anchor="start" x="101" y="-24" font-family="Helvetica,sans-Serif" font-size="10.00">&lt; infra::detail::BoundedForward</text>
<text text-anchor="middle" x="169" y="-13" font-family="Helvetica,sans-Serif" font-size="10.00">ListNode&lt; T &gt; &gt;</text>
</a>
</g>
</g>
<!-- Node7&#45;&gt;Node6 -->
<g id="edge6" class="edge"><title>Node7&#45;&gt;Node6</title>
<path fill="none" stroke="#9a32cd" stroke-dasharray="5,2" d="M255.077,-26.5C283.837,-26.5 315.728,-26.5 343.678,-26.5"/>
<polygon fill="#9a32cd" stroke="#9a32cd" points="255.046,-23.0001 245.046,-26.5 255.046,-30.0001 255.046,-23.0001"/>
<text text-anchor="middle" x="294.5" y="-40.5" font-family="Helvetica,sans-Serif" font-size="10.00"> beginElement</text>
<text text-anchor="middle" x="294.5" y="-29.5" font-family="Helvetica,sans-Serif" font-size="10.00">endElement</text>
</g>
<!-- Node8 -->
<g id="node8" class="node"><title>Node8</title>
<polygon fill="white" stroke="#bfbfbf" points="0,-17 0,-36 35,-36 35,-17 0,-17"/>
<text text-anchor="middle" x="17.5" y="-24" font-family="Helvetica,sans-Serif" font-size="10.00">type</text>
</g>
<!-- Node8&#45;&gt;Node7 -->
<g id="edge7" class="edge"><title>Node8&#45;&gt;Node7</title>
<path fill="none" stroke="#9a32cd" stroke-dasharray="5,2" d="M45.4386,-26.5C58.867,-26.5 75.8427,-26.5 92.8462,-26.5"/>
<polygon fill="#9a32cd" stroke="#9a32cd" points="45.0704,-23.0001 35.0703,-26.5 45.0703,-30.0001 45.0704,-23.0001"/>
<text text-anchor="middle" x="64" y="-29.5" font-family="Helvetica,sans-Serif" font-size="10.00"> data</text>
</g>
</g>
</svg>
