<?xml version="1.0" encoding="UTF-8" standalone="no"?>
<!DOCTYPE svg PUBLIC "-//W3C//DTD SVG 1.1//EN"
 "http://www.w3.org/Graphics/SVG/1.1/DTD/svg11.dtd">
<!-- Generated by graphviz version 2.38.0 (20140413.2041)
 -->
<!-- Title: infra::Unit&lt; Identifier, Dimension &gt; Pages: 1 -->
<svg width="127pt" height="106pt"
 viewBox="0.00 0.00 127.00 106.00" xmlns="http://www.w3.org/2000/svg" xmlns:xlink="http://www.w3.org/1999/xlink">
<g id="graph0" class="graph" transform="scale(1 1) rotate(0) translate(4 102)">
<title>infra::Unit&lt; Identifier, Dimension &gt;</title>
<polygon fill="white" stroke="none" points="-4,4 -4,-102 123,-102 123,4 -4,4"/>
<!-- Node1 -->
<g id="node1" class="node"><title>Node1</title>
<polygon fill="#bfbfbf" stroke="black" points="0,-0.5 0,-30.5 106,-30.5 106,-0.5 0,-0.5"/>
<text text-anchor="start" x="8" y="-18.5" font-family="Helvetica,sans-Serif" font-size="10.00">infra::Unit&lt; Identifier,</text>
<text text-anchor="middle" x="53" y="-7.5" font-family="Helvetica,sans-Serif" font-size="10.00"> Dimension &gt;</text>
</g>
<!-- Node2 -->
<g id="node2" class="node"><title>Node2</title>
<polygon fill="white" stroke="#bfbfbf" points="0.5,-78.5 0.5,-97.5 43.5,-97.5 43.5,-78.5 0.5,-78.5"/>
<text text-anchor="middle" x="22" y="-85.5" font-family="Helvetica,sans-Serif" font-size="10.00">size_t</text>
</g>
<!-- Node2&#45;&gt;Node1 -->
<g id="edge1" class="edge"><title>Node2&#45;&gt;Node1</title>
<path fill="none" stroke="#9a32cd" stroke-dasharray="5,2" d="M19.8894,-67.9506C19.875,-61.7164 20.6094,-54.885 23,-49 25.7744,-42.1704 30.6867,-35.8927 35.7434,-30.7134"/>
<polygon fill="#9a32cd" stroke="#9a32cd" points="16.4125,-68.4311 20.528,-78.1939 23.3989,-67.9954 16.4125,-68.4311"/>
<text text-anchor="middle" x="43" y="-52" font-family="Helvetica,sans-Serif" font-size="10.00"> identifier</text>
</g>
<!-- Node3 -->
<g id="node3" class="node"><title>Node3</title>
<polygon fill="white" stroke="#bfbfbf" points="70.5,-78.5 70.5,-97.5 99.5,-97.5 99.5,-78.5 70.5,-78.5"/>
<text text-anchor="middle" x="85" y="-85.5" font-family="Helvetica,sans-Serif" font-size="10.00">int</text>
</g>
<!-- Node3&#45;&gt;Node1 -->
<g id="edge2" class="edge"><title>Node3&#45;&gt;Node1</title>
<path fill="none" stroke="#9a32cd" stroke-dasharray="5,2" d="M76.8133,-68.9637C71.3963,-57.0293 64.3955,-41.6057 59.3892,-30.5762"/>
<polygon fill="#9a32cd" stroke="#9a32cd" points="73.7559,-70.6961 81.0762,-78.3553 80.13,-67.8028 73.7559,-70.6961"/>
<text text-anchor="middle" x="95" y="-52" font-family="Helvetica,sans-Serif" font-size="10.00"> dimension</text>
</g>
</g>
</svg>
