<?xml version="1.0" encoding="UTF-8" standalone="no"?>
<!DOCTYPE svg PUBLIC "-//W3C//DTD SVG 1.1//EN"
 "http://www.w3.org/Graphics/SVG/1.1/DTD/svg11.dtd">
<!-- Generated by graphviz version 2.38.0 (20140413.2041)
 -->
<!-- Title: services::ConnectionMbedTls::StreamWriterMbedTls::Insert Pages: 1 -->
<svg width="300pt" height="127pt"
 viewBox="0.00 0.00 300.00 127.00" xmlns="http://www.w3.org/2000/svg" xmlns:xlink="http://www.w3.org/1999/xlink">
<g id="graph0" class="graph" transform="scale(1 1) rotate(0) translate(4 123)">
<title>services::ConnectionMbedTls::StreamWriterMbedTls::Insert</title>
<polygon fill="white" stroke="none" points="-4,4 -4,-123 296,-123 296,4 -4,4"/>
<!-- Node6 -->
<g id="node1" class="node"><title>Node6</title>
<polygon fill="#bfbfbf" stroke="black" points="0,-39 0,-80 131,-80 131,-39 0,-39"/>
<text text-anchor="start" x="8" y="-68" font-family="Helvetica,sans-Serif" font-size="10.00">services::ConnectionMbed</text>
<text text-anchor="start" x="8" y="-57" font-family="Helvetica,sans-Serif" font-size="10.00">Tls::StreamWriterMbedTls</text>
<text text-anchor="middle" x="65.5" y="-46" font-family="Helvetica,sans-Serif" font-size="10.00">::Insert</text>
</g>
<!-- Node7 -->
<g id="node2" class="node"><title>Node7</title>
<g id="a_node2"><a xlink:href="../../d0/d6d/classinfra_1_1_memory_range.html#a7a83ceae17802af5ecebfb9557912ece" target="_top" xlink:title="infra::MemoryRange\l::begin">
<polygon fill="white" stroke="black" points="177.5,-88.5 177.5,-118.5 281.5,-118.5 281.5,-88.5 177.5,-88.5"/>
<text text-anchor="start" x="185.5" y="-106.5" font-family="Helvetica,sans-Serif" font-size="10.00">infra::MemoryRange</text>
<text text-anchor="middle" x="229.5" y="-95.5" font-family="Helvetica,sans-Serif" font-size="10.00">::begin</text>
</a>
</g>
</g>
<!-- Node6&#45;&gt;Node7 -->
<g id="edge1" class="edge"><title>Node6&#45;&gt;Node7</title>
<path fill="none" stroke="midnightblue" d="M131.458,-77.143C143.424,-80.393 155.877,-83.7752 167.714,-86.9903"/>
<polygon fill="midnightblue" stroke="midnightblue" points="166.921,-90.4016 177.489,-89.6451 168.756,-83.6463 166.921,-90.4016"/>
</g>
<!-- Node8 -->
<g id="node3" class="node"><title>Node8</title>
<g id="a_node3"><a xlink:href="../../d0/d6d/classinfra_1_1_memory_range.html#a1be4daa094045e4e3bff3b2748646c12" target="_top" xlink:title="infra::MemoryRange::end">
<polygon fill="white" stroke="black" points="167,-50 167,-69 292,-69 292,-50 167,-50"/>
<text text-anchor="middle" x="229.5" y="-57" font-family="Helvetica,sans-Serif" font-size="10.00">infra::MemoryRange::end</text>
</a>
</g>
</g>
<!-- Node6&#45;&gt;Node8 -->
<g id="edge2" class="edge"><title>Node6&#45;&gt;Node8</title>
<path fill="none" stroke="midnightblue" d="M131.458,-59.5C139.781,-59.5 148.34,-59.5 156.764,-59.5"/>
<polygon fill="midnightblue" stroke="midnightblue" points="156.946,-63.0001 166.946,-59.5 156.946,-56.0001 156.946,-63.0001"/>
</g>
<!-- Node9 -->
<g id="node4" class="node"><title>Node9</title>
<g id="a_node4"><a xlink:href="../../d0/d6d/classinfra_1_1_memory_range.html#ae8fbbf531d3696b6a64ac13385acdc66" target="_top" xlink:title="infra::MemoryRange\l::size">
<polygon fill="white" stroke="black" points="177.5,-0.5 177.5,-30.5 281.5,-30.5 281.5,-0.5 177.5,-0.5"/>
<text text-anchor="start" x="185.5" y="-18.5" font-family="Helvetica,sans-Serif" font-size="10.00">infra::MemoryRange</text>
<text text-anchor="middle" x="229.5" y="-7.5" font-family="Helvetica,sans-Serif" font-size="10.00">::size</text>
</a>
</g>
</g>
<!-- Node6&#45;&gt;Node9 -->
<g id="edge3" class="edge"><title>Node6&#45;&gt;Node9</title>
<path fill="none" stroke="midnightblue" d="M131.458,-41.857C143.424,-38.607 155.877,-35.2248 167.714,-32.0097"/>
<polygon fill="midnightblue" stroke="midnightblue" points="168.756,-35.3537 177.489,-29.3549 166.921,-28.5984 168.756,-35.3537"/>
</g>
</g>
</svg>
