<?xml version="1.0" encoding="UTF-8" standalone="no"?>
<!DOCTYPE svg PUBLIC "-//W3C//DTD SVG 1.1//EN"
 "http://www.w3.org/Graphics/SVG/1.1/DTD/svg11.dtd">
<!-- Generated by graphviz version 2.38.0 (20140413.2041)
 -->
<!-- Title: infra::ScalableDerivedTimerService::Shift Pages: 1 -->
<svg width="1312pt" height="313pt"
 viewBox="0.00 0.00 1312.00 313.00" xmlns="http://www.w3.org/2000/svg" xmlns:xlink="http://www.w3.org/1999/xlink">
<g id="graph0" class="graph" transform="scale(1 1) rotate(0) translate(4 309)">
<title>infra::ScalableDerivedTimerService::Shift</title>
<polygon fill="white" stroke="none" points="-4,4 -4,-309 1308,-309 1308,4 -4,4"/>
<!-- Node65 -->
<g id="node1" class="node"><title>Node65</title>
<polygon fill="#bfbfbf" stroke="black" points="0,-122.5 0,-152.5 134,-152.5 134,-122.5 0,-122.5"/>
<text text-anchor="start" x="8" y="-140.5" font-family="Helvetica,sans-Serif" font-size="10.00">infra::ScalableDerivedTimer</text>
<text text-anchor="middle" x="67" y="-129.5" font-family="Helvetica,sans-Serif" font-size="10.00">Service::Shift</text>
</g>
<!-- Node66 -->
<g id="node2" class="node"><title>Node66</title>
<g id="a_node2"><a xlink:href="../../da/dc4/classinfra_1_1_scalable_derived_timer_service.html#a28598eb5eaf5bdf3d3ff98fabe0824ab" target="_top" xlink:title="infra::ScalableDerivedTimer\lService::NextTriggerChanged">
<polygon fill="white" stroke="black" points="170,-122.5 170,-152.5 312,-152.5 312,-122.5 170,-122.5"/>
<text text-anchor="start" x="178" y="-140.5" font-family="Helvetica,sans-Serif" font-size="10.00">infra::ScalableDerivedTimer</text>
<text text-anchor="middle" x="241" y="-129.5" font-family="Helvetica,sans-Serif" font-size="10.00">Service::NextTriggerChanged</text>
</a>
</g>
</g>
<!-- Node65&#45;&gt;Node66 -->
<g id="edge1" class="edge"><title>Node65&#45;&gt;Node66</title>
<path fill="none" stroke="midnightblue" d="M134.008,-137.5C142.451,-137.5 151.167,-137.5 159.804,-137.5"/>
<polygon fill="midnightblue" stroke="midnightblue" points="159.886,-141 169.886,-137.5 159.886,-134 159.886,-141"/>
</g>
<!-- Node67 -->
<g id="node3" class="node"><title>Node67</title>
<g id="a_node3"><a xlink:href="../../d5/da5/classinfra_1_1_timer.html#abf5658fb078dc1dad0705a7791f7b84c" target="_top" xlink:title="infra::Timer::Cancel">
<polygon fill="white" stroke="black" points="545.5,-214 545.5,-233 646.5,-233 646.5,-214 545.5,-214"/>
<text text-anchor="middle" x="596" y="-221" font-family="Helvetica,sans-Serif" font-size="10.00">infra::Timer::Cancel</text>
</a>
</g>
</g>
<!-- Node66&#45;&gt;Node67 -->
<g id="edge2" class="edge"><title>Node66&#45;&gt;Node67</title>
<path fill="none" stroke="midnightblue" d="M268.139,-152.513C289.079,-163.87 319.557,-178.927 348,-187.5 410.302,-206.278 484.494,-215.413 535.195,-219.757"/>
<polygon fill="midnightblue" stroke="midnightblue" points="535.075,-223.258 545.328,-220.588 535.647,-216.282 535.075,-223.258"/>
</g>
<!-- Node73 -->
<g id="node9" class="node"><title>Node73</title>
<g id="a_node9"><a xlink:href="../../da/def/classinfra_1_1_timer_service.html#ae092e0679a0307ceb7ec802c576e9ef2" target="_top" xlink:title="infra::TimerService\l::NextTrigger">
<polygon fill="white" stroke="black" points="367,-98.5 367,-128.5 463,-128.5 463,-98.5 367,-98.5"/>
<text text-anchor="start" x="375" y="-116.5" font-family="Helvetica,sans-Serif" font-size="10.00">infra::TimerService</text>
<text text-anchor="middle" x="415" y="-105.5" font-family="Helvetica,sans-Serif" font-size="10.00">::NextTrigger</text>
</a>
</g>
</g>
<!-- Node66&#45;&gt;Node73 -->
<g id="edge8" class="edge"><title>Node66&#45;&gt;Node73</title>
<path fill="none" stroke="midnightblue" d="M312.455,-127.669C327.237,-125.607 342.652,-123.456 356.875,-121.471"/>
<polygon fill="midnightblue" stroke="midnightblue" points="357.575,-124.907 366.995,-120.059 356.607,-117.974 357.575,-124.907"/>
</g>
<!-- Node74 -->
<g id="node10" class="node"><title>Node74</title>
<g id="a_node10"><a xlink:href="../../da/def/classinfra_1_1_timer_service.html#a62136eeac9187506213715289cb9c560" target="_top" xlink:title="infra::TimerService\l::Progressed">
<polygon fill="white" stroke="black" points="548,-274.5 548,-304.5 644,-304.5 644,-274.5 548,-274.5"/>
<text text-anchor="start" x="556" y="-292.5" font-family="Helvetica,sans-Serif" font-size="10.00">infra::TimerService</text>
<text text-anchor="middle" x="596" y="-281.5" font-family="Helvetica,sans-Serif" font-size="10.00">::Progressed</text>
</a>
</g>
</g>
<!-- Node66&#45;&gt;Node74 -->
<g id="edge9" class="edge"><title>Node66&#45;&gt;Node74</title>
<path fill="none" stroke="midnightblue" d="M258.836,-152.508C278.827,-169.64 313.785,-197.484 348,-214.5 409.695,-245.183 486.377,-266.063 537.791,-277.848"/>
<polygon fill="midnightblue" stroke="midnightblue" points="537.201,-281.303 547.725,-280.084 538.738,-274.473 537.201,-281.303"/>
</g>
<!-- Node75 -->
<g id="node11" class="node"><title>Node75</title>
<g id="a_node11"><a xlink:href="../../da/dc4/classinfra_1_1_scalable_derived_timer_service.html#a772023c9b8ca6d0237b78a9e370c3571" target="_top" xlink:title="infra::ScalableDerivedTimer\lService::ScaleTime">
<polygon fill="white" stroke="black" points="348,-49.5 348,-79.5 482,-79.5 482,-49.5 348,-49.5"/>
<text text-anchor="start" x="356" y="-67.5" font-family="Helvetica,sans-Serif" font-size="10.00">infra::ScalableDerivedTimer</text>
<text text-anchor="middle" x="415" y="-56.5" font-family="Helvetica,sans-Serif" font-size="10.00">Service::ScaleTime</text>
</a>
</g>
</g>
<!-- Node66&#45;&gt;Node75 -->
<g id="edge11" class="edge"><title>Node66&#45;&gt;Node75</title>
<path fill="none" stroke="midnightblue" d="M273.776,-122.478C294.713,-112.737 322.814,-99.9605 348,-89.5 353.021,-87.4145 358.285,-85.3009 363.556,-83.2315"/>
<polygon fill="midnightblue" stroke="midnightblue" points="364.942,-86.4479 373.001,-79.57 362.412,-79.9212 364.942,-86.4479"/>
</g>
<!-- Node76 -->
<g id="node12" class="node"><title>Node76</title>
<g id="a_node12"><a xlink:href="../../d8/d87/classinfra_1_1_timer_single_shot.html#aa76a7526e88f2818fbc6567db181f24d" target="_top" xlink:title="infra::TimerSingleShot\l::Start">
<polygon fill="white" stroke="black" points="359,-147.5 359,-177.5 471,-177.5 471,-147.5 359,-147.5"/>
<text text-anchor="start" x="367" y="-165.5" font-family="Helvetica,sans-Serif" font-size="10.00">infra::TimerSingleShot</text>
<text text-anchor="middle" x="415" y="-154.5" font-family="Helvetica,sans-Serif" font-size="10.00">::Start</text>
</a>
</g>
</g>
<!-- Node66&#45;&gt;Node76 -->
<g id="edge12" class="edge"><title>Node66&#45;&gt;Node76</title>
<path fill="none" stroke="midnightblue" d="M312.455,-147.741C324.438,-149.482 336.838,-151.285 348.681,-153.006"/>
<polygon fill="midnightblue" stroke="midnightblue" points="348.522,-156.52 358.921,-154.494 349.529,-149.592 348.522,-156.52"/>
</g>
<!-- Node85 -->
<g id="node21" class="node"><title>Node85</title>
<g id="a_node21"><a xlink:href="../../da/dc4/classinfra_1_1_scalable_derived_timer_service.html#ac0619755c717dc1ec318ddaa0095f634" target="_top" xlink:title="infra::ScalableDerivedTimer\lService::UnscaleTime">
<polygon fill="white" stroke="black" points="348,-0.5 348,-30.5 482,-30.5 482,-0.5 348,-0.5"/>
<text text-anchor="start" x="356" y="-18.5" font-family="Helvetica,sans-Serif" font-size="10.00">infra::ScalableDerivedTimer</text>
<text text-anchor="middle" x="415" y="-7.5" font-family="Helvetica,sans-Serif" font-size="10.00">Service::UnscaleTime</text>
</a>
</g>
</g>
<!-- Node66&#45;&gt;Node85 -->
<g id="edge25" class="edge"><title>Node66&#45;&gt;Node85</title>
<path fill="none" stroke="midnightblue" d="M254.993,-122.453C273.709,-101.575 310.183,-63.7686 348,-40.5 351.31,-38.4633 354.813,-36.5476 358.41,-34.754"/>
<polygon fill="midnightblue" stroke="midnightblue" points="359.888,-37.9271 367.491,-30.5482 356.946,-31.5753 359.888,-37.9271"/>
</g>
<!-- Node68 -->
<g id="node4" class="node"><title>Node68</title>
<g id="a_node4"><a xlink:href="../../d5/da5/classinfra_1_1_timer.html#a2b0bc71ca10c69d01f4965c576af73fd" target="_top" xlink:title="infra::Timer::UnregisterSelf">
<polygon fill="white" stroke="black" points="720.5,-255 720.5,-274 851.5,-274 851.5,-255 720.5,-255"/>
<text text-anchor="middle" x="786" y="-262" font-family="Helvetica,sans-Serif" font-size="10.00">infra::Timer::UnregisterSelf</text>
</a>
</g>
</g>
<!-- Node67&#45;&gt;Node68 -->
<g id="edge3" class="edge"><title>Node67&#45;&gt;Node68</title>
<path fill="none" stroke="midnightblue" d="M640.604,-233.009C667.675,-238.913 702.664,-246.544 731.42,-252.815"/>
<polygon fill="midnightblue" stroke="midnightblue" points="730.792,-256.26 741.308,-254.971 732.283,-249.421 730.792,-256.26"/>
</g>
<!-- Node72 -->
<g id="node8" class="node"><title>Node72</title>
<g id="a_node8"><a xlink:href="../../d5/da5/classinfra_1_1_timer.html#a11b396e8d4300da06b8ce83624991b73" target="_top" xlink:title="infra::Timer::Convert">
<polygon fill="white" stroke="black" points="1197.5,-121 1197.5,-140 1300.5,-140 1300.5,-121 1197.5,-121"/>
<text text-anchor="middle" x="1249" y="-128" font-family="Helvetica,sans-Serif" font-size="10.00">infra::Timer::Convert</text>
</a>
</g>
</g>
<!-- Node67&#45;&gt;Node72 -->
<g id="edge7" class="edge"><title>Node67&#45;&gt;Node72</title>
<path fill="none" stroke="midnightblue" d="M646.672,-225.061C723.466,-226.602 875.38,-226.175 1002,-204.5 1079.57,-191.222 1167.07,-161.092 1213.97,-143.649"/>
<polygon fill="midnightblue" stroke="midnightblue" points="1215.21,-146.922 1223.34,-140.131 1212.75,-140.369 1215.21,-146.922"/>
</g>
<!-- Node69 -->
<g id="node5" class="node"><title>Node69</title>
<g id="a_node5"><a xlink:href="../../da/def/classinfra_1_1_timer_service.html#a51f86cbeef8dc4866c087b68c24635d8" target="_top" xlink:title="infra::TimerService\l::UnregisterTimer">
<polygon fill="white" stroke="black" points="902,-252.5 902,-282.5 998,-282.5 998,-252.5 902,-252.5"/>
<text text-anchor="start" x="910" y="-270.5" font-family="Helvetica,sans-Serif" font-size="10.00">infra::TimerService</text>
<text text-anchor="middle" x="950" y="-259.5" font-family="Helvetica,sans-Serif" font-size="10.00">::UnregisterTimer</text>
</a>
</g>
</g>
<!-- Node68&#45;&gt;Node69 -->
<g id="edge4" class="edge"><title>Node68&#45;&gt;Node69</title>
<path fill="none" stroke="midnightblue" d="M851.958,-265.703C865.155,-265.947 878.944,-266.203 891.847,-266.442"/>
<polygon fill="midnightblue" stroke="midnightblue" points="891.913,-269.943 901.976,-266.629 892.043,-262.945 891.913,-269.943"/>
</g>
<!-- Node70 -->
<g id="node6" class="node"><title>Node70</title>
<g id="a_node6"><a xlink:href="../../da/def/classinfra_1_1_timer_service.html#afb8a6ef3ee5ba728f1a8f232514bad8c" target="_top" xlink:title="infra::TimerService\l::ComputeNextTrigger">
<polygon fill="white" stroke="black" points="1042.5,-252.5 1042.5,-282.5 1153.5,-282.5 1153.5,-252.5 1042.5,-252.5"/>
<text text-anchor="start" x="1050.5" y="-270.5" font-family="Helvetica,sans-Serif" font-size="10.00">infra::TimerService</text>
<text text-anchor="middle" x="1098" y="-259.5" font-family="Helvetica,sans-Serif" font-size="10.00">::ComputeNextTrigger</text>
</a>
</g>
</g>
<!-- Node69&#45;&gt;Node70 -->
<g id="edge5" class="edge"><title>Node69&#45;&gt;Node70</title>
<path fill="none" stroke="midnightblue" d="M998.402,-267.5C1009.18,-267.5 1020.8,-267.5 1032.16,-267.5"/>
<polygon fill="midnightblue" stroke="midnightblue" points="1032.48,-271 1042.48,-267.5 1032.48,-264 1032.48,-271"/>
</g>
<!-- Node71 -->
<g id="node7" class="node"><title>Node71</title>
<g id="a_node7"><a xlink:href="../../da/def/classinfra_1_1_timer_service.html#a6ae66196dc18d8b383ba5e0f0b6f22fa" target="_top" xlink:title="infra::TimerService\l::NextTriggerChanged">
<polygon fill="white" stroke="black" points="1194,-164.5 1194,-194.5 1304,-194.5 1304,-164.5 1194,-164.5"/>
<text text-anchor="start" x="1202" y="-182.5" font-family="Helvetica,sans-Serif" font-size="10.00">infra::TimerService</text>
<text text-anchor="middle" x="1249" y="-171.5" font-family="Helvetica,sans-Serif" font-size="10.00">::NextTriggerChanged</text>
</a>
</g>
</g>
<!-- Node70&#45;&gt;Node71 -->
<g id="edge6" class="edge"><title>Node70&#45;&gt;Node71</title>
<path fill="none" stroke="midnightblue" d="M1130.24,-252.36C1139.3,-247.773 1149.13,-242.594 1158,-237.5 1178.18,-225.909 1200.14,-211.786 1217.32,-200.378"/>
<polygon fill="midnightblue" stroke="midnightblue" points="1219.46,-203.155 1225.83,-194.688 1215.57,-197.335 1219.46,-203.155"/>
</g>
<!-- Node74&#45;&gt;Node70 -->
<g id="edge10" class="edge"><title>Node74&#45;&gt;Node70</title>
<path fill="none" stroke="midnightblue" d="M644.022,-293.967C719.77,-300.24 873.342,-309.145 1002,-292.5 1014.41,-290.894 1027.51,-288.155 1039.89,-285.064"/>
<polygon fill="midnightblue" stroke="midnightblue" points="1040.84,-288.433 1049.63,-282.524 1039.07,-281.659 1040.84,-288.433"/>
</g>
<!-- Node77 -->
<g id="node13" class="node"><title>Node77</title>
<g id="a_node13"><a xlink:href="../../d5/da5/classinfra_1_1_timer.html#aa5f1d8f856a15a67ddc7c88e40fe4796" target="_top" xlink:title="infra::Timer::SetNextTriggerTime">
<polygon fill="white" stroke="black" points="518,-129 518,-148 674,-148 674,-129 518,-129"/>
<text text-anchor="middle" x="596" y="-136" font-family="Helvetica,sans-Serif" font-size="10.00">infra::Timer::SetNextTriggerTime</text>
</a>
</g>
</g>
<!-- Node76&#45;&gt;Node77 -->
<g id="edge13" class="edge"><title>Node76&#45;&gt;Node77</title>
<path fill="none" stroke="midnightblue" d="M471.166,-155.103C484.687,-153.291 499.441,-151.312 513.899,-149.374"/>
<polygon fill="midnightblue" stroke="midnightblue" points="514.396,-152.839 523.843,-148.041 513.466,-145.901 514.396,-152.839"/>
</g>
<!-- Node83 -->
<g id="node19" class="node"><title>Node83</title>
<g id="a_node19"><a xlink:href="../../d5/da5/classinfra_1_1_timer.html#a729101dbfbc04caf3f1217f9feeeff41" target="_top" xlink:title="infra::Timer::Resolution">
<polygon fill="white" stroke="black" points="538,-58 538,-77 654,-77 654,-58 538,-58"/>
<text text-anchor="middle" x="596" y="-65" font-family="Helvetica,sans-Serif" font-size="10.00">infra::Timer::Resolution</text>
</a>
</g>
</g>
<!-- Node76&#45;&gt;Node83 -->
<g id="edge23" class="edge"><title>Node76&#45;&gt;Node83</title>
<path fill="none" stroke="midnightblue" d="M461.267,-147.489C468.312,-144.74 475.428,-141.714 482,-138.5 515.293,-122.217 551.099,-98.5619 573.279,-83.1051"/>
<polygon fill="midnightblue" stroke="midnightblue" points="575.468,-85.844 581.628,-77.2239 571.437,-80.1211 575.468,-85.844"/>
</g>
<!-- Node77&#45;&gt;Node72 -->
<g id="edge14" class="edge"><title>Node77&#45;&gt;Node72</title>
<path fill="none" stroke="midnightblue" d="M634.143,-128.979C656.061,-123.77 684.432,-117.736 710,-114.5 907.539,-89.4968 960.317,-87.6539 1158,-111.5 1171.77,-113.161 1186.56,-115.882 1200.09,-118.753"/>
<polygon fill="midnightblue" stroke="midnightblue" points="1199.63,-122.236 1210.15,-120.962 1201.13,-115.399 1199.63,-122.236"/>
</g>
<!-- Node78 -->
<g id="node14" class="node"><title>Node78</title>
<g id="a_node14"><a xlink:href="../../d5/da5/classinfra_1_1_timer.html#aaabecdbe93d2f0299f5f1356c9d1337f" target="_top" xlink:title="infra::Timer::RegisterSelf">
<polygon fill="white" stroke="black" points="724.5,-124 724.5,-143 847.5,-143 847.5,-124 724.5,-124"/>
<text text-anchor="middle" x="786" y="-131" font-family="Helvetica,sans-Serif" font-size="10.00">infra::Timer::RegisterSelf</text>
</a>
</g>
</g>
<!-- Node77&#45;&gt;Node78 -->
<g id="edge15" class="edge"><title>Node77&#45;&gt;Node78</title>
<path fill="none" stroke="midnightblue" d="M674.009,-136.452C687.212,-136.101 700.876,-135.737 713.915,-135.391"/>
<polygon fill="midnightblue" stroke="midnightblue" points="714.313,-138.881 724.216,-135.117 714.127,-131.884 714.313,-138.881"/>
</g>
<!-- Node81 -->
<g id="node17" class="node"><title>Node81</title>
<g id="a_node17"><a xlink:href="../../d5/da5/classinfra_1_1_timer.html#a51a6dd500d70207c8163a053db0b6e60" target="_top" xlink:title="infra::Timer::UpdateTriggerTime">
<polygon fill="white" stroke="black" points="710,-165 710,-184 862,-184 862,-165 710,-165"/>
<text text-anchor="middle" x="786" y="-172" font-family="Helvetica,sans-Serif" font-size="10.00">infra::Timer::UpdateTriggerTime</text>
</a>
</g>
</g>
<!-- Node77&#45;&gt;Node81 -->
<g id="edge20" class="edge"><title>Node77&#45;&gt;Node81</title>
<path fill="none" stroke="midnightblue" d="M646.887,-148.053C670.991,-152.669 700.101,-158.243 725.368,-163.081"/>
<polygon fill="midnightblue" stroke="midnightblue" points="724.727,-166.522 735.206,-164.965 726.043,-159.647 724.727,-166.522"/>
</g>
<!-- Node79 -->
<g id="node15" class="node"><title>Node79</title>
<g id="a_node15"><a xlink:href="../../da/def/classinfra_1_1_timer_service.html#ac048d92f92957b56b420dd78bcc84528" target="_top" xlink:title="infra::TimerService\l::RegisterTimer">
<polygon fill="white" stroke="black" points="902,-115.5 902,-145.5 998,-145.5 998,-115.5 902,-115.5"/>
<text text-anchor="start" x="910" y="-133.5" font-family="Helvetica,sans-Serif" font-size="10.00">infra::TimerService</text>
<text text-anchor="middle" x="950" y="-122.5" font-family="Helvetica,sans-Serif" font-size="10.00">::RegisterTimer</text>
</a>
</g>
</g>
<!-- Node78&#45;&gt;Node79 -->
<g id="edge16" class="edge"><title>Node78&#45;&gt;Node79</title>
<path fill="none" stroke="midnightblue" d="M847.784,-132.374C862.161,-132.108 877.445,-131.825 891.664,-131.562"/>
<polygon fill="midnightblue" stroke="midnightblue" points="891.867,-135.059 901.8,-131.374 891.737,-128.06 891.867,-135.059"/>
</g>
<!-- Node79&#45;&gt;Node71 -->
<g id="edge19" class="edge"><title>Node79&#45;&gt;Node71</title>
<path fill="none" stroke="midnightblue" d="M998.285,-141.485C1011.13,-144.289 1025.07,-147.167 1038,-149.5 1086.72,-158.287 1142.17,-166.118 1183.86,-171.573"/>
<polygon fill="midnightblue" stroke="midnightblue" points="1183.51,-175.057 1193.87,-172.874 1184.41,-168.116 1183.51,-175.057"/>
</g>
<!-- Node80 -->
<g id="node16" class="node"><title>Node80</title>
<g id="a_node16"><a xlink:href="../../d5/da5/classinfra_1_1_timer.html#a1efe7b4dc3d40f8357b1fc94855e5145" target="_top" xlink:title="infra::Timer::NextTrigger">
<polygon fill="white" stroke="black" points="1038,-121 1038,-140 1158,-140 1158,-121 1038,-121"/>
<text text-anchor="middle" x="1098" y="-128" font-family="Helvetica,sans-Serif" font-size="10.00">infra::Timer::NextTrigger</text>
</a>
</g>
</g>
<!-- Node79&#45;&gt;Node80 -->
<g id="edge17" class="edge"><title>Node79&#45;&gt;Node80</title>
<path fill="none" stroke="midnightblue" d="M998.402,-130.5C1007.73,-130.5 1017.7,-130.5 1027.59,-130.5"/>
<polygon fill="midnightblue" stroke="midnightblue" points="1027.82,-134 1037.82,-130.5 1027.82,-127 1027.82,-134"/>
</g>
<!-- Node80&#45;&gt;Node72 -->
<g id="edge18" class="edge"><title>Node80&#45;&gt;Node72</title>
<path fill="none" stroke="midnightblue" d="M1158.32,-130.5C1167.73,-130.5 1177.49,-130.5 1186.94,-130.5"/>
<polygon fill="midnightblue" stroke="midnightblue" points="1187.06,-134 1197.06,-130.5 1187.06,-127 1187.06,-134"/>
</g>
<!-- Node82 -->
<g id="node18" class="node"><title>Node82</title>
<g id="a_node18"><a xlink:href="../../da/def/classinfra_1_1_timer_service.html#ac08c18576f1ca147f34136e9f75d124f" target="_top" xlink:title="infra::TimerService\l::UpdateTriggerTime">
<polygon fill="white" stroke="black" points="898,-164.5 898,-194.5 1002,-194.5 1002,-164.5 898,-164.5"/>
<text text-anchor="start" x="906" y="-182.5" font-family="Helvetica,sans-Serif" font-size="10.00">infra::TimerService</text>
<text text-anchor="middle" x="950" y="-171.5" font-family="Helvetica,sans-Serif" font-size="10.00">::UpdateTriggerTime</text>
</a>
</g>
</g>
<!-- Node81&#45;&gt;Node82 -->
<g id="edge21" class="edge"><title>Node81&#45;&gt;Node82</title>
<path fill="none" stroke="midnightblue" d="M862.309,-176.824C870.885,-177.089 879.547,-177.356 887.908,-177.614"/>
<polygon fill="midnightblue" stroke="midnightblue" points="887.827,-181.114 897.93,-177.924 888.043,-174.117 887.827,-181.114"/>
</g>
<!-- Node82&#45;&gt;Node70 -->
<g id="edge22" class="edge"><title>Node82&#45;&gt;Node70</title>
<path fill="none" stroke="midnightblue" d="M976.098,-194.628C1000.12,-209.109 1036.54,-231.061 1063.13,-247.087"/>
<polygon fill="midnightblue" stroke="midnightblue" points="1061.37,-250.111 1071.74,-252.275 1064.98,-244.115 1061.37,-250.111"/>
</g>
<!-- Node84 -->
<g id="node20" class="node"><title>Node84</title>
<g id="a_node20"><a xlink:href="../../da/def/classinfra_1_1_timer_service.html#ab717e40a1a49d2f31f4a9e2e63f0f5ce" target="_top" xlink:title="infra::TimerService\l::Resolution">
<polygon fill="white" stroke="black" points="738,-27.5 738,-57.5 834,-57.5 834,-27.5 738,-27.5"/>
<text text-anchor="start" x="746" y="-45.5" font-family="Helvetica,sans-Serif" font-size="10.00">infra::TimerService</text>
<text text-anchor="middle" x="786" y="-34.5" font-family="Helvetica,sans-Serif" font-size="10.00">::Resolution</text>
</a>
</g>
</g>
<!-- Node83&#45;&gt;Node84 -->
<g id="edge24" class="edge"><title>Node83&#45;&gt;Node84</title>
<path fill="none" stroke="midnightblue" d="M654.172,-59.8974C677.509,-56.794 704.444,-53.2122 727.786,-50.1082"/>
<polygon fill="midnightblue" stroke="midnightblue" points="728.438,-53.5524 737.889,-48.7647 727.515,-46.6135 728.438,-53.5524"/>
</g>
</g>
</svg>
