<?xml version="1.0" encoding="UTF-8" standalone="no"?>
<!DOCTYPE svg PUBLIC "-//W3C//DTD SVG 1.1//EN"
 "http://www.w3.org/Graphics/SVG/1.1/DTD/svg11.dtd">
<!-- Generated by graphviz version 2.38.0 (20140413.2041)
 -->
<!-- Title: infra::JsonObjectIterator::ReadValue Pages: 1 -->
<svg width="1090pt" height="605pt"
 viewBox="0.00 0.00 1090.00 604.94" xmlns="http://www.w3.org/2000/svg" xmlns:xlink="http://www.w3.org/1999/xlink">
<g id="graph0" class="graph" transform="scale(1 1) rotate(0) translate(4 600.935)">
<title>infra::JsonObjectIterator::ReadValue</title>
<polygon fill="white" stroke="none" points="-4,4 -4,-600.935 1086,-600.935 1086,4 -4,4"/>
<!-- Node110 -->
<g id="node1" class="node"><title>Node110</title>
<polygon fill="#bfbfbf" stroke="black" points="0,-143.5 0,-173.5 119,-173.5 119,-143.5 0,-143.5"/>
<text text-anchor="start" x="8" y="-161.5" font-family="Helvetica,sans-Serif" font-size="10.00">infra::JsonObjectIterator</text>
<text text-anchor="middle" x="59.5" y="-150.5" font-family="Helvetica,sans-Serif" font-size="10.00">::ReadValue</text>
</g>
<!-- Node111 -->
<g id="node2" class="node"><title>Node111</title>
<g id="a_node2"><a xlink:href="../../df/dd0/classinfra_1_1_json_iterator.html#a64881daeae1df6109b9de0a523ead550" target="_top" xlink:title="infra::JsonIterator\l::ConvertValue">
<polygon fill="white" stroke="black" points="169,-168.5 169,-198.5 260,-198.5 260,-168.5 169,-168.5"/>
<text text-anchor="start" x="177" y="-186.5" font-family="Helvetica,sans-Serif" font-size="10.00">infra::JsonIterator</text>
<text text-anchor="middle" x="214.5" y="-175.5" font-family="Helvetica,sans-Serif" font-size="10.00">::ConvertValue</text>
</a>
</g>
</g>
<!-- Node110&#45;&gt;Node111 -->
<g id="edge1" class="edge"><title>Node110&#45;&gt;Node111</title>
<path fill="none" stroke="midnightblue" d="M119.216,-168.094C132.249,-170.224 146.011,-172.472 158.873,-174.574"/>
<polygon fill="midnightblue" stroke="midnightblue" points="158.53,-178.064 168.963,-176.223 159.659,-171.156 158.53,-178.064"/>
</g>
<!-- Node131 -->
<g id="node22" class="node"><title>Node131</title>
<g id="a_node22"><a xlink:href="../../dd/d2a/classinfra_1_1_json_object_iterator.html#a9869efba8c2dc8b2cdd380bbb709d581" target="_top" xlink:title="infra::JsonObjectIterator\l::SetError">
<polygon fill="white" stroke="black" points="155,-119.5 155,-149.5 274,-149.5 274,-119.5 155,-119.5"/>
<text text-anchor="start" x="163" y="-137.5" font-family="Helvetica,sans-Serif" font-size="10.00">infra::JsonObjectIterator</text>
<text text-anchor="middle" x="214.5" y="-126.5" font-family="Helvetica,sans-Serif" font-size="10.00">::SetError</text>
</a>
</g>
</g>
<!-- Node110&#45;&gt;Node131 -->
<g id="edge40" class="edge"><title>Node110&#45;&gt;Node131</title>
<path fill="none" stroke="midnightblue" d="M119.216,-149.29C127.635,-147.969 136.359,-146.601 144.947,-145.253"/>
<polygon fill="midnightblue" stroke="midnightblue" points="145.604,-148.693 154.941,-143.686 144.519,-141.778 145.604,-148.693"/>
</g>
<!-- Node112 -->
<g id="node3" class="node"><title>Node112</title>
<g id="a_node3"><a xlink:href="../../da/d2a/classinfra_1_1_variant.html#a5c22ee95a815d91911bf3ce196c852a0" target="_top" xlink:title="infra::Variant::Get">
<polygon fill="white" stroke="black" points="658,-477 658,-496 751,-496 751,-477 658,-477"/>
<text text-anchor="middle" x="704.5" y="-484" font-family="Helvetica,sans-Serif" font-size="10.00">infra::Variant::Get</text>
</a>
</g>
</g>
<!-- Node111&#45;&gt;Node112 -->
<g id="edge2" class="edge"><title>Node111&#45;&gt;Node112</title>
<path fill="none" stroke="midnightblue" d="M218.928,-198.531C234.439,-262.333 304.778,-510.558 474,-578.5 532.979,-602.18 558.664,-603.723 617,-578.5 651.687,-563.502 678.88,-526.99 692.944,-504.736"/>
<polygon fill="midnightblue" stroke="midnightblue" points="695.944,-506.539 698.151,-496.176 689.964,-502.901 695.944,-506.539"/>
</g>
<!-- Node113 -->
<g id="node4" class="node"><title>Node113</title>
<g id="a_node4"><a xlink:href="../../da/d2a/classinfra_1_1_variant.html#a6d0669e4f430569c9019345cfab21a8e" target="_top" xlink:title="infra::Variant::Is">
<polygon fill="white" stroke="black" points="662,-384 662,-403 747,-403 747,-384 662,-384"/>
<text text-anchor="middle" x="704.5" y="-391" font-family="Helvetica,sans-Serif" font-size="10.00">infra::Variant::Is</text>
</a>
</g>
</g>
<!-- Node111&#45;&gt;Node113 -->
<g id="edge3" class="edge"><title>Node111&#45;&gt;Node113</title>
<path fill="none" stroke="midnightblue" d="M241.576,-198.585C260.332,-209.184 286.38,-223.396 310,-234.5 438.7,-295.003 597.01,-354.654 667.126,-380.347"/>
<polygon fill="midnightblue" stroke="midnightblue" points="666.224,-383.743 676.818,-383.887 668.626,-377.168 666.224,-383.743"/>
</g>
<!-- Node114 -->
<g id="node5" class="node"><title>Node114</title>
<g id="a_node5"><a xlink:href="../../d0/de3/namespaceinfra.html#a0ec8c0f8585063ab97f13228d4888974" target="_top" xlink:title="infra::MakeOptional">
<polygon fill="white" stroke="black" points="654,-302 654,-321 755,-321 755,-302 654,-302"/>
<text text-anchor="middle" x="704.5" y="-309" font-family="Helvetica,sans-Serif" font-size="10.00">infra::MakeOptional</text>
</a>
</g>
</g>
<!-- Node111&#45;&gt;Node114 -->
<g id="edge4" class="edge"><title>Node111&#45;&gt;Node114</title>
<path fill="none" stroke="midnightblue" d="M260.126,-175.8C351.696,-160.925 557.242,-132.565 617,-166.5 664.863,-193.68 689.049,-258.998 698.542,-291.884"/>
<polygon fill="midnightblue" stroke="midnightblue" points="695.208,-292.961 701.211,-301.691 701.962,-291.123 695.208,-292.961"/>
</g>
<!-- Node115 -->
<g id="node6" class="node"><title>Node115</title>
<g id="a_node6"><a xlink:href="../../df/dd0/classinfra_1_1_json_iterator.html#a5cbc18726700531f5f5e28ccca321d87" target="_top" xlink:title="infra::JsonIterator\l::ReadArrayValue">
<polygon fill="white" stroke="black" points="327.5,-381.5 327.5,-411.5 420.5,-411.5 420.5,-381.5 327.5,-381.5"/>
<text text-anchor="start" x="335.5" y="-399.5" font-family="Helvetica,sans-Serif" font-size="10.00">infra::JsonIterator</text>
<text text-anchor="middle" x="374" y="-388.5" font-family="Helvetica,sans-Serif" font-size="10.00">::ReadArrayValue</text>
</a>
</g>
</g>
<!-- Node111&#45;&gt;Node115 -->
<g id="edge5" class="edge"><title>Node111&#45;&gt;Node115</title>
<path fill="none" stroke="midnightblue" d="M226.827,-198.818C254.071,-235.662 323.398,-329.419 355.809,-373.251"/>
<polygon fill="midnightblue" stroke="midnightblue" points="353.016,-375.361 361.776,-381.32 358.644,-371.199 353.016,-375.361"/>
</g>
<!-- Node125 -->
<g id="node16" class="node"><title>Node125</title>
<g id="a_node16"><a xlink:href="../../df/dd0/classinfra_1_1_json_iterator.html#a95bf1b7210594ae3d6a4615f1815b7ec" target="_top" xlink:title="infra::JsonIterator\l::ReadObjectValue">
<polygon fill="white" stroke="black" points="325,-195.5 325,-225.5 423,-225.5 423,-195.5 325,-195.5"/>
<text text-anchor="start" x="333" y="-213.5" font-family="Helvetica,sans-Serif" font-size="10.00">infra::JsonIterator</text>
<text text-anchor="middle" x="374" y="-202.5" font-family="Helvetica,sans-Serif" font-size="10.00">::ReadObjectValue</text>
</a>
</g>
</g>
<!-- Node111&#45;&gt;Node125 -->
<g id="edge27" class="edge"><title>Node111&#45;&gt;Node125</title>
<path fill="none" stroke="midnightblue" d="M260.212,-191.165C277.247,-194.085 296.914,-197.457 315.006,-200.558"/>
<polygon fill="midnightblue" stroke="midnightblue" points="314.421,-204.009 324.869,-202.249 315.604,-197.11 314.421,-204.009"/>
</g>
<!-- Node128 -->
<g id="node19" class="node"><title>Node128</title>
<g id="a_node19"><a xlink:href="../../d7/d8e/classinfra_1_1_json_token_1_1_string.html#aea92d0c88471555f3ddbb7facdf2d2a0" target="_top" xlink:title="infra::JsonToken::String\l::Value">
<polygon fill="white" stroke="black" points="314.5,-98.5 314.5,-128.5 433.5,-128.5 433.5,-98.5 314.5,-98.5"/>
<text text-anchor="start" x="322.5" y="-116.5" font-family="Helvetica,sans-Serif" font-size="10.00">infra::JsonToken::String</text>
<text text-anchor="middle" x="374" y="-105.5" font-family="Helvetica,sans-Serif" font-size="10.00">::Value</text>
</a>
</g>
</g>
<!-- Node111&#45;&gt;Node128 -->
<g id="edge37" class="edge"><title>Node111&#45;&gt;Node128</title>
<path fill="none" stroke="midnightblue" d="M251.133,-168.425C258.696,-165.183 266.622,-161.753 274,-158.5 292.657,-150.274 313.192,-140.98 330.7,-132.983"/>
<polygon fill="midnightblue" stroke="midnightblue" points="332.448,-136.032 340.084,-128.688 329.535,-129.667 332.448,-136.032"/>
</g>
<!-- Node129 -->
<g id="node20" class="node"><title>Node129</title>
<g id="a_node20"><a xlink:href="../../d2/d84/classinfra_1_1_json_token_1_1_integer.html#a97f8d96410727e87e9f8ffc53b3dc13d" target="_top" xlink:title="infra::JsonToken::Integer\l::Value">
<polygon fill="white" stroke="black" points="313,-49.5 313,-79.5 435,-79.5 435,-49.5 313,-49.5"/>
<text text-anchor="start" x="321" y="-67.5" font-family="Helvetica,sans-Serif" font-size="10.00">infra::JsonToken::Integer</text>
<text text-anchor="middle" x="374" y="-56.5" font-family="Helvetica,sans-Serif" font-size="10.00">::Value</text>
</a>
</g>
</g>
<!-- Node111&#45;&gt;Node129 -->
<g id="edge38" class="edge"><title>Node111&#45;&gt;Node129</title>
<path fill="none" stroke="midnightblue" d="M260.03,-168.466C265.076,-165.64 269.878,-162.339 274,-158.5 299.602,-134.658 283.928,-111.827 310,-88.5 311.319,-87.3196 312.703,-86.1949 314.138,-85.1235"/>
<polygon fill="midnightblue" stroke="midnightblue" points="316.305,-87.8918 322.84,-79.5521 312.531,-81.9966 316.305,-87.8918"/>
</g>
<!-- Node130 -->
<g id="node21" class="node"><title>Node130</title>
<g id="a_node21"><a xlink:href="../../db/d82/classinfra_1_1_json_token_1_1_boolean.html#a760328927920e1bd169d852c5f0e61dc" target="_top" xlink:title="infra::JsonToken::Boolean\l::Value">
<polygon fill="white" stroke="black" points="310,-0.5 310,-30.5 438,-30.5 438,-0.5 310,-0.5"/>
<text text-anchor="start" x="318" y="-18.5" font-family="Helvetica,sans-Serif" font-size="10.00">infra::JsonToken::Boolean</text>
<text text-anchor="middle" x="374" y="-7.5" font-family="Helvetica,sans-Serif" font-size="10.00">::Value</text>
</a>
</g>
</g>
<!-- Node111&#45;&gt;Node130 -->
<g id="edge39" class="edge"><title>Node111&#45;&gt;Node130</title>
<path fill="none" stroke="midnightblue" d="M260.149,-169.497C265.299,-166.487 270.095,-162.861 274,-158.5 310.863,-117.338 272.323,-79.9192 310,-39.5 310.898,-38.5368 311.838,-37.612 312.816,-36.7239"/>
<polygon fill="midnightblue" stroke="midnightblue" points="315.059,-39.4165 320.951,-30.6112 310.854,-33.8202 315.059,-39.4165"/>
</g>
<!-- Node115&#45;&gt;Node112 -->
<g id="edge6" class="edge"><title>Node115&#45;&gt;Node112</title>
<path fill="none" stroke="midnightblue" d="M379.051,-411.713C388.843,-445.036 417.286,-524.004 474,-555.5 529.562,-586.357 557.012,-576.495 617,-555.5 646.138,-545.302 672.78,-520.717 688.578,-503.826"/>
<polygon fill="midnightblue" stroke="midnightblue" points="691.317,-506.016 695.425,-496.25 686.123,-501.322 691.317,-506.016"/>
</g>
<!-- Node115&#45;&gt;Node114 -->
<g id="edge8" class="edge"><title>Node115&#45;&gt;Node114</title>
<path fill="none" stroke="midnightblue" d="M393.782,-381.32C412.783,-366.872 443.614,-345.847 474,-335.5 529.469,-316.612 596.472,-311.473 643.723,-310.537"/>
<polygon fill="midnightblue" stroke="midnightblue" points="643.842,-314.036 653.792,-310.396 643.744,-307.037 643.842,-314.036"/>
</g>
<!-- Node116 -->
<g id="node7" class="node"><title>Node116</title>
<g id="a_node7"><a xlink:href="../../dd/db4/classinfra_1_1_json_token_1_1_left_bracket.html#ad5be8717da6da142903e2e6576c5f75e" target="_top" xlink:title="infra::JsonToken::LeftBracket\l::Index">
<polygon fill="white" stroke="black" points="474,-515.5 474,-545.5 617,-545.5 617,-515.5 474,-515.5"/>
<text text-anchor="start" x="482" y="-533.5" font-family="Helvetica,sans-Serif" font-size="10.00">infra::JsonToken::LeftBracket</text>
<text text-anchor="middle" x="545.5" y="-522.5" font-family="Helvetica,sans-Serif" font-size="10.00">::Index</text>
</a>
</g>
</g>
<!-- Node115&#45;&gt;Node116 -->
<g id="edge7" class="edge"><title>Node115&#45;&gt;Node116</title>
<path fill="none" stroke="midnightblue" d="M386.245,-411.796C403.161,-433.905 437.124,-474.936 474,-500.5 479.582,-504.37 485.742,-507.889 492.028,-511.044"/>
<polygon fill="midnightblue" stroke="midnightblue" points="490.736,-514.305 501.273,-515.404 493.722,-507.973 490.736,-514.305"/>
</g>
<!-- Node117 -->
<g id="node8" class="node"><title>Node117</title>
<g id="a_node8"><a xlink:href="../../df/dd0/classinfra_1_1_json_iterator.html#ae3b34ea711511b26a00f08c17f53ecc1" target="_top" xlink:title="infra::JsonIterator\l::SearchArrayEnd">
<polygon fill="white" stroke="black" points="498.5,-427.5 498.5,-457.5 592.5,-457.5 592.5,-427.5 498.5,-427.5"/>
<text text-anchor="start" x="506.5" y="-445.5" font-family="Helvetica,sans-Serif" font-size="10.00">infra::JsonIterator</text>
<text text-anchor="middle" x="545.5" y="-434.5" font-family="Helvetica,sans-Serif" font-size="10.00">::SearchArrayEnd</text>
</a>
</g>
</g>
<!-- Node115&#45;&gt;Node117 -->
<g id="edge9" class="edge"><title>Node115&#45;&gt;Node117</title>
<path fill="none" stroke="midnightblue" d="M420.869,-408.948C441.7,-414.601 466.531,-421.34 488.456,-427.29"/>
<polygon fill="midnightblue" stroke="midnightblue" points="487.732,-430.72 498.3,-429.962 489.566,-423.965 487.732,-430.72"/>
</g>
<!-- Node122 -->
<g id="node13" class="node"><title>Node122</title>
<g id="a_node13"><a xlink:href="../../d1/d2a/classinfra_1_1_bounded_string_base.html#a46ec1a3a673136ace03af8c6ec94aa89" target="_top" xlink:title="infra::BoundedStringBase\l::substr">
<polygon fill="white" stroke="black" points="955,-378.5 955,-408.5 1082,-408.5 1082,-378.5 955,-378.5"/>
<text text-anchor="start" x="963" y="-396.5" font-family="Helvetica,sans-Serif" font-size="10.00">infra::BoundedStringBase</text>
<text text-anchor="middle" x="1018.5" y="-385.5" font-family="Helvetica,sans-Serif" font-size="10.00">::substr</text>
</a>
</g>
</g>
<!-- Node115&#45;&gt;Node122 -->
<g id="edge26" class="edge"><title>Node115&#45;&gt;Node122</title>
<path fill="none" stroke="midnightblue" d="M418.309,-381.456C435.43,-376.25 455.423,-371.077 474,-368.5 669.903,-341.33 722.748,-343.984 919,-368.5 931.974,-370.121 945.691,-372.898 958.634,-376.027"/>
<polygon fill="midnightblue" stroke="midnightblue" points="957.803,-379.427 968.355,-378.475 959.512,-372.639 957.803,-379.427"/>
</g>
<!-- Node117&#45;&gt;Node112 -->
<g id="edge10" class="edge"><title>Node117&#45;&gt;Node112</title>
<path fill="none" stroke="midnightblue" d="M592.756,-455.463C613.899,-461.389 638.819,-468.373 659.661,-474.214"/>
<polygon fill="midnightblue" stroke="midnightblue" points="658.956,-477.651 669.53,-476.98 660.846,-470.911 658.956,-477.651"/>
</g>
<!-- Node117&#45;&gt;Node113 -->
<g id="edge11" class="edge"><title>Node117&#45;&gt;Node113</title>
<path fill="none" stroke="midnightblue" d="M592.756,-428.063C615.088,-421.093 641.635,-412.808 663.138,-406.097"/>
<polygon fill="midnightblue" stroke="midnightblue" points="664.435,-409.359 672.938,-403.039 662.349,-402.677 664.435,-409.359"/>
</g>
<!-- Node117&#45;&gt;Node114 -->
<g id="edge12" class="edge"><title>Node117&#45;&gt;Node114</title>
<path fill="none" stroke="midnightblue" d="M592.687,-430.966C601.192,-427.705 609.685,-423.607 617,-418.5 618.159,-417.691 664.907,-359.564 689.185,-329.335"/>
<polygon fill="midnightblue" stroke="midnightblue" points="692.12,-331.27 695.652,-321.281 686.662,-326.887 692.12,-331.27"/>
</g>
<!-- Node118 -->
<g id="node9" class="node"><title>Node118</title>
<g id="a_node9"><a xlink:href="../../d3/d5c/classinfra_1_1_json_tokenizer.html#a02d850fd493943206196aff4c975aac5" target="_top" xlink:title="infra::JsonTokenizer\l::Token">
<polygon fill="white" stroke="black" points="653,-427.5 653,-457.5 756,-457.5 756,-427.5 653,-427.5"/>
<text text-anchor="start" x="661" y="-445.5" font-family="Helvetica,sans-Serif" font-size="10.00">infra::JsonTokenizer</text>
<text text-anchor="middle" x="704.5" y="-434.5" font-family="Helvetica,sans-Serif" font-size="10.00">::Token</text>
</a>
</g>
</g>
<!-- Node117&#45;&gt;Node118 -->
<g id="edge13" class="edge"><title>Node117&#45;&gt;Node118</title>
<path fill="none" stroke="midnightblue" d="M592.756,-442.5C608.411,-442.5 626.137,-442.5 642.745,-442.5"/>
<polygon fill="midnightblue" stroke="midnightblue" points="642.913,-446 652.913,-442.5 642.913,-439 642.913,-446"/>
</g>
<!-- Node119 -->
<g id="node10" class="node"><title>Node119</title>
<g id="a_node10"><a xlink:href="../../d3/d5c/classinfra_1_1_json_tokenizer.html#acfe1cf5bc676fd35b038e1b604756165" target="_top" xlink:title="infra::JsonTokenizer\l::SkipWhitespace">
<polygon fill="white" stroke="black" points="804,-525.5 804,-555.5 907,-555.5 907,-525.5 804,-525.5"/>
<text text-anchor="start" x="812" y="-543.5" font-family="Helvetica,sans-Serif" font-size="10.00">infra::JsonTokenizer</text>
<text text-anchor="middle" x="855.5" y="-532.5" font-family="Helvetica,sans-Serif" font-size="10.00">::SkipWhitespace</text>
</a>
</g>
</g>
<!-- Node118&#45;&gt;Node119 -->
<g id="edge14" class="edge"><title>Node118&#45;&gt;Node119</title>
<path fill="none" stroke="midnightblue" d="M741.336,-457.535C746.514,-460.46 751.58,-463.789 756,-467.5 776.696,-484.876 770.518,-500.105 792,-516.5 793.802,-517.875 795.692,-519.18 797.646,-520.417"/>
<polygon fill="midnightblue" stroke="midnightblue" points="796.118,-523.574 806.551,-525.418 799.546,-517.47 796.118,-523.574"/>
</g>
<!-- Node120 -->
<g id="node11" class="node"><title>Node120</title>
<g id="a_node11"><a xlink:href="../../d1/d2a/classinfra_1_1_bounded_string_base.html#aab36b8eaee21d6ab3be734e07f499382" target="_top" xlink:title="infra::BoundedStringBase\l::size">
<polygon fill="white" stroke="black" points="955,-476.5 955,-506.5 1082,-506.5 1082,-476.5 955,-476.5"/>
<text text-anchor="start" x="963" y="-494.5" font-family="Helvetica,sans-Serif" font-size="10.00">infra::BoundedStringBase</text>
<text text-anchor="middle" x="1018.5" y="-483.5" font-family="Helvetica,sans-Serif" font-size="10.00">::size</text>
</a>
</g>
</g>
<!-- Node118&#45;&gt;Node120 -->
<g id="edge16" class="edge"><title>Node118&#45;&gt;Node120</title>
<path fill="none" stroke="midnightblue" d="M744.122,-457.613C748.5,-460.436 752.602,-463.715 756,-467.5 786.998,-502.028 753.951,-538.942 792,-565.5 838.285,-597.806 865.459,-583.371 919,-565.5 949.357,-555.367 977.877,-531.8 996.337,-513.964"/>
<polygon fill="midnightblue" stroke="midnightblue" points="998.989,-516.262 1003.61,-506.727 994.051,-511.301 998.989,-516.262"/>
</g>
<!-- Node121 -->
<g id="node12" class="node"><title>Node121</title>
<g id="a_node12"><a xlink:href="../../d3/d5c/classinfra_1_1_json_tokenizer.html#a6b99af199f5f080d408375a0f23ac32c" target="_top" xlink:title="infra::JsonTokenizer\l::TryCreateStringToken">
<polygon fill="white" stroke="black" points="797.5,-476.5 797.5,-506.5 913.5,-506.5 913.5,-476.5 797.5,-476.5"/>
<text text-anchor="start" x="805.5" y="-494.5" font-family="Helvetica,sans-Serif" font-size="10.00">infra::JsonTokenizer</text>
<text text-anchor="middle" x="855.5" y="-483.5" font-family="Helvetica,sans-Serif" font-size="10.00">::TryCreateStringToken</text>
</a>
</g>
</g>
<!-- Node118&#45;&gt;Node121 -->
<g id="edge17" class="edge"><title>Node118&#45;&gt;Node121</title>
<path fill="none" stroke="midnightblue" d="M751.421,-457.601C766.503,-462.562 783.428,-468.127 799.136,-473.293"/>
<polygon fill="midnightblue" stroke="midnightblue" points="798.138,-476.649 808.731,-476.448 800.325,-470 798.138,-476.649"/>
</g>
<!-- Node123 -->
<g id="node14" class="node"><title>Node123</title>
<g id="a_node14"><a xlink:href="../../d3/d5c/classinfra_1_1_json_tokenizer.html#a4203f4a0d1a65b20672053d7a4e5b8be" target="_top" xlink:title="infra::JsonTokenizer\l::TryCreateIntegerToken">
<polygon fill="white" stroke="black" points="795.5,-427.5 795.5,-457.5 915.5,-457.5 915.5,-427.5 795.5,-427.5"/>
<text text-anchor="start" x="803.5" y="-445.5" font-family="Helvetica,sans-Serif" font-size="10.00">infra::JsonTokenizer</text>
<text text-anchor="middle" x="855.5" y="-434.5" font-family="Helvetica,sans-Serif" font-size="10.00">::TryCreateIntegerToken</text>
</a>
</g>
</g>
<!-- Node118&#45;&gt;Node123 -->
<g id="edge20" class="edge"><title>Node118&#45;&gt;Node123</title>
<path fill="none" stroke="midnightblue" d="M756.361,-442.5C765.684,-442.5 775.557,-442.5 785.309,-442.5"/>
<polygon fill="midnightblue" stroke="midnightblue" points="785.4,-446 795.4,-442.5 785.4,-439 785.4,-446"/>
</g>
<!-- Node124 -->
<g id="node15" class="node"><title>Node124</title>
<g id="a_node15"><a xlink:href="../../d3/d5c/classinfra_1_1_json_tokenizer.html#a7fde4788359094c8ac575d0aea08a33b" target="_top" xlink:title="infra::JsonTokenizer\l::TryCreateIdentifierToken">
<polygon fill="white" stroke="black" points="792,-378.5 792,-408.5 919,-408.5 919,-378.5 792,-378.5"/>
<text text-anchor="start" x="800" y="-396.5" font-family="Helvetica,sans-Serif" font-size="10.00">infra::JsonTokenizer</text>
<text text-anchor="middle" x="855.5" y="-385.5" font-family="Helvetica,sans-Serif" font-size="10.00">::TryCreateIdentifierToken</text>
</a>
</g>
</g>
<!-- Node118&#45;&gt;Node124 -->
<g id="edge23" class="edge"><title>Node118&#45;&gt;Node124</title>
<path fill="none" stroke="midnightblue" d="M751.421,-427.399C766.503,-422.438 783.428,-416.873 799.136,-411.707"/>
<polygon fill="midnightblue" stroke="midnightblue" points="800.325,-415 808.731,-408.552 798.138,-408.351 800.325,-415"/>
</g>
<!-- Node119&#45;&gt;Node120 -->
<g id="edge15" class="edge"><title>Node119&#45;&gt;Node120</title>
<path fill="none" stroke="midnightblue" d="M906.119,-525.399C922.57,-520.392 941.049,-514.768 958.157,-509.561"/>
<polygon fill="midnightblue" stroke="midnightblue" points="959.497,-512.812 968.045,-506.552 957.459,-506.115 959.497,-512.812"/>
</g>
<!-- Node121&#45;&gt;Node120 -->
<g id="edge18" class="edge"><title>Node121&#45;&gt;Node120</title>
<path fill="none" stroke="midnightblue" d="M913.716,-491.5C923.681,-491.5 934.166,-491.5 944.486,-491.5"/>
<polygon fill="midnightblue" stroke="midnightblue" points="944.726,-495 954.726,-491.5 944.725,-488 944.726,-495"/>
</g>
<!-- Node121&#45;&gt;Node122 -->
<g id="edge19" class="edge"><title>Node121&#45;&gt;Node122</title>
<path fill="none" stroke="midnightblue" d="M900.244,-476.496C906.668,-473.782 913.102,-470.764 919,-467.5 945.855,-452.638 973.553,-431.186 992.711,-415.202"/>
<polygon fill="midnightblue" stroke="midnightblue" points="994.997,-417.852 1000.37,-408.721 990.476,-412.508 994.997,-417.852"/>
</g>
<!-- Node123&#45;&gt;Node120 -->
<g id="edge21" class="edge"><title>Node123&#45;&gt;Node120</title>
<path fill="none" stroke="midnightblue" d="M906.119,-457.601C922.57,-462.608 941.049,-468.232 958.157,-473.439"/>
<polygon fill="midnightblue" stroke="midnightblue" points="957.459,-476.885 968.045,-476.448 959.497,-470.188 957.459,-476.885"/>
</g>
<!-- Node123&#45;&gt;Node122 -->
<g id="edge22" class="edge"><title>Node123&#45;&gt;Node122</title>
<path fill="none" stroke="midnightblue" d="M906.119,-427.399C922.57,-422.392 941.049,-416.768 958.157,-411.561"/>
<polygon fill="midnightblue" stroke="midnightblue" points="959.497,-414.812 968.045,-408.552 957.459,-408.115 959.497,-414.812"/>
</g>
<!-- Node124&#45;&gt;Node120 -->
<g id="edge24" class="edge"><title>Node124&#45;&gt;Node120</title>
<path fill="none" stroke="midnightblue" d="M898.546,-408.584C905.522,-411.575 912.571,-414.911 919,-418.5 945.389,-433.231 972.806,-454.078 991.993,-469.725"/>
<polygon fill="midnightblue" stroke="midnightblue" points="990.003,-472.621 999.941,-476.293 994.462,-467.225 990.003,-472.621"/>
</g>
<!-- Node124&#45;&gt;Node122 -->
<g id="edge25" class="edge"><title>Node124&#45;&gt;Node122</title>
<path fill="none" stroke="midnightblue" d="M919.208,-393.5C927.648,-393.5 936.363,-393.5 944.956,-393.5"/>
<polygon fill="midnightblue" stroke="midnightblue" points="944.963,-397 954.963,-393.5 944.963,-390 944.963,-397"/>
</g>
<!-- Node125&#45;&gt;Node112 -->
<g id="edge28" class="edge"><title>Node125&#45;&gt;Node112</title>
<path fill="none" stroke="midnightblue" d="M380.978,-225.566C392.254,-254.03 417.382,-317.685 438,-371.5 454.303,-414.052 437.65,-440.02 474,-467.5 523.529,-504.943 597.425,-503.949 647.896,-497.374"/>
<polygon fill="midnightblue" stroke="midnightblue" points="648.568,-500.814 657.978,-495.946 647.586,-493.883 648.568,-500.814"/>
</g>
<!-- Node125&#45;&gt;Node114 -->
<g id="edge30" class="edge"><title>Node125&#45;&gt;Node114</title>
<path fill="none" stroke="midnightblue" d="M423.203,-215.354C473.046,-221.491 552.469,-234.432 617,-259.5 640.703,-268.708 665.33,-284.187 682.217,-295.868"/>
<polygon fill="midnightblue" stroke="midnightblue" points="680.561,-298.985 690.746,-301.903 684.604,-293.27 680.561,-298.985"/>
</g>
<!-- Node125&#45;&gt;Node122 -->
<g id="edge36" class="edge"><title>Node125&#45;&gt;Node122</title>
<path fill="none" stroke="midnightblue" d="M400.868,-195.393C420.271,-184.976 447.874,-172.044 474,-166.5 536.171,-153.306 555.545,-150.295 617,-166.5 772.001,-207.372 929.959,-323.536 991.099,-371.928"/>
<polygon fill="midnightblue" stroke="midnightblue" points="989.074,-374.789 999.074,-378.291 993.44,-369.318 989.074,-374.789"/>
</g>
<!-- Node126 -->
<g id="node17" class="node"><title>Node126</title>
<g id="a_node17"><a xlink:href="../../da/d9b/classinfra_1_1_json_token_1_1_left_brace.html#a225ac8062d80f91b1305ad9c051263a3" target="_top" xlink:title="infra::JsonToken::LeftBrace\l::Index">
<polygon fill="white" stroke="black" points="478.5,-176.5 478.5,-206.5 612.5,-206.5 612.5,-176.5 478.5,-176.5"/>
<text text-anchor="start" x="486.5" y="-194.5" font-family="Helvetica,sans-Serif" font-size="10.00">infra::JsonToken::LeftBrace</text>
<text text-anchor="middle" x="545.5" y="-183.5" font-family="Helvetica,sans-Serif" font-size="10.00">::Index</text>
</a>
</g>
</g>
<!-- Node125&#45;&gt;Node126 -->
<g id="edge29" class="edge"><title>Node125&#45;&gt;Node126</title>
<path fill="none" stroke="midnightblue" d="M423.119,-205.106C437.169,-203.531 452.882,-201.77 468.222,-200.05"/>
<polygon fill="midnightblue" stroke="midnightblue" points="468.679,-203.521 478.227,-198.929 467.9,-196.565 468.679,-203.521"/>
</g>
<!-- Node127 -->
<g id="node18" class="node"><title>Node127</title>
<g id="a_node18"><a xlink:href="../../df/dd0/classinfra_1_1_json_iterator.html#a7fa7a63543c9f03f7010952d42a9cfef" target="_top" xlink:title="infra::JsonIterator\l::SearchObjectEnd">
<polygon fill="white" stroke="black" points="496,-378.5 496,-408.5 595,-408.5 595,-378.5 496,-378.5"/>
<text text-anchor="start" x="504" y="-396.5" font-family="Helvetica,sans-Serif" font-size="10.00">infra::JsonIterator</text>
<text text-anchor="middle" x="545.5" y="-385.5" font-family="Helvetica,sans-Serif" font-size="10.00">::SearchObjectEnd</text>
</a>
</g>
</g>
<!-- Node125&#45;&gt;Node127 -->
<g id="edge31" class="edge"><title>Node125&#45;&gt;Node127</title>
<path fill="none" stroke="midnightblue" d="M389.16,-225.788C419.021,-258.027 488.571,-333.117 523.58,-370.914"/>
<polygon fill="midnightblue" stroke="midnightblue" points="521.136,-373.426 530.5,-378.384 526.272,-368.67 521.136,-373.426"/>
</g>
<!-- Node127&#45;&gt;Node112 -->
<g id="edge32" class="edge"><title>Node127&#45;&gt;Node112</title>
<path fill="none" stroke="midnightblue" d="M595.095,-406.384C602.828,-409.629 610.433,-413.621 617,-418.5 638.692,-434.616 631.463,-451.178 653,-467.5 655.345,-469.277 657.874,-470.904 660.508,-472.391"/>
<polygon fill="midnightblue" stroke="midnightblue" points="659.226,-475.661 669.746,-476.922 662.309,-469.376 659.226,-475.661"/>
</g>
<!-- Node127&#45;&gt;Node113 -->
<g id="edge33" class="edge"><title>Node127&#45;&gt;Node113</title>
<path fill="none" stroke="midnightblue" d="M595.315,-393.5C613.232,-393.5 633.568,-393.5 651.735,-393.5"/>
<polygon fill="midnightblue" stroke="midnightblue" points="651.86,-397 661.86,-393.5 651.86,-390 651.86,-397"/>
</g>
<!-- Node127&#45;&gt;Node114 -->
<g id="edge34" class="edge"><title>Node127&#45;&gt;Node114</title>
<path fill="none" stroke="midnightblue" d="M575.296,-378.46C604.087,-363.422 648.032,-340.47 676.261,-325.727"/>
<polygon fill="midnightblue" stroke="midnightblue" points="677.944,-328.796 685.188,-321.064 674.703,-322.592 677.944,-328.796"/>
</g>
<!-- Node127&#45;&gt;Node118 -->
<g id="edge35" class="edge"><title>Node127&#45;&gt;Node118</title>
<path fill="none" stroke="midnightblue" d="M594.886,-408.601C610.929,-413.608 628.949,-419.232 645.631,-424.439"/>
<polygon fill="midnightblue" stroke="midnightblue" points="644.685,-427.81 655.274,-427.448 646.77,-421.128 644.685,-427.81"/>
</g>
</g>
</svg>
