<?xml version="1.0" encoding="UTF-8" standalone="no"?>
<!DOCTYPE svg PUBLIC "-//W3C//DTD SVG 1.1//EN"
 "http://www.w3.org/Graphics/SVG/1.1/DTD/svg11.dtd">
<!-- Generated by graphviz version 2.38.0 (20140413.2041)
 -->
<!-- Title: infra::JsonObjectIterator::SetError Pages: 1 -->
<!--zoomable 284 -->
<svg id="main" version="1.1" xmlns="http://www.w3.org/2000/svg" xmlns:xlink="http://www.w3.org/1999/xlink" xml:space="preserve" onload="init(evt)">
<style type="text/css"><![CDATA[
.edge:hover path { stroke: red; }
.edge:hover polygon { stroke: red; fill: red; }
]]></style>
<script type="text/javascript"><![CDATA[
var edges = document.getElementsByTagName('g');
if (edges && edges.length) {
  for (var i=0;i<edges.length;i++) {
    if (edges[i].id.substr(0,4)=='edge') {
      edges[i].setAttribute('class','edge');
    }
  }
}
]]></script>
        <defs>
                <circle id="rim" cx="0" cy="0" r="7"/>
                <circle id="rim2" cx="0" cy="0" r="3.5"/>
                <g id="zoomPlus">
                        <use xlink:href="#rim" fill="#404040">
                                <set attributeName="fill" to="#808080" begin="zoomplus.mouseover" end="zoomplus.mouseout"/>
                        </use>
                        <path d="M-4,0h8M0,-4v8" fill="none" stroke="white" stroke-width="1.5" pointer-events="none"/>
                </g>
                <g id="zoomMin">
                        <use xlink:href="#rim" fill="#404040">
                                <set attributeName="fill" to="#808080" begin="zoomminus.mouseover" end="zoomminus.mouseout"/>
                        </use>
                        <path d="M-4,0h8" fill="none" stroke="white" stroke-width="1.5" pointer-events="none"/>
                </g>
                <g id="dirArrow">
                        <path fill="none" stroke="white" stroke-width="1.5" d="M0,-3.0v7 M-2.5,-0.5L0,-3.0L2.5,-0.5"/>
                </g>
               <g id="resetDef">
                       <use xlink:href="#rim2" fill="#404040">
                               <set attributeName="fill" to="#808080" begin="reset.mouseover" end="reset.mouseout"/>
                       </use>
               </g>
        </defs>

<script type="text/javascript">
var viewWidth = 608;
var viewHeight = 284;
var sectionId = 'dynsection-17';
</script>
<script xlink:href="../../svgpan.js"/>
<svg id="graph" class="graph">
<g id="viewport">
<title>infra::JsonObjectIterator::SetError</title>
<polygon fill="white" stroke="none" points="-4,4 -4,-280 604,-280 604,4 -4,4"/>
<!-- Node136 -->
<g id="node1" class="node"><title>Node136</title>
<polygon fill="#bfbfbf" stroke="black" points="0,-122.5 0,-152.5 119,-152.5 119,-122.5 0,-122.5"/>
<text text-anchor="start" x="8" y="-140.5" font-family="Helvetica,sans-Serif" font-size="10.00">infra::JsonObjectIterator</text>
<text text-anchor="middle" x="59.5" y="-129.5" font-family="Helvetica,sans-Serif" font-size="10.00">::SetError</text>
</g>
<!-- Node137 -->
<g id="node2" class="node"><title>Node137</title>
<g id="a_node2"><a xlink:href="../../dd/d2a/classinfra_1_1_json_object_iterator.html#a43784c9f6c3f8609cf40b186194c20dd" target="_top" xlink:title="infra::JsonObjectIterator\l::ReadColon">
<polygon fill="white" stroke="black" points="163,-245.5 163,-275.5 282,-275.5 282,-245.5 163,-245.5"/>
<text text-anchor="start" x="171" y="-263.5" font-family="Helvetica,sans-Serif" font-size="10.00">infra::JsonObjectIterator</text>
<text text-anchor="middle" x="222.5" y="-252.5" font-family="Helvetica,sans-Serif" font-size="10.00">::ReadColon</text>
</a>
</g>
</g>
<!-- Node136&#45;&gt;Node137 -->
<g id="edge1" class="edge"><title>Node136&#45;&gt;Node137</title>
<path fill="none" stroke="midnightblue" d="M77.6069,-160.896C94.9127,-183.087 123.542,-216.002 155,-236.5 160.142,-239.85 165.812,-242.808 171.608,-245.397"/>
<polygon fill="midnightblue" stroke="midnightblue" points="80.184,-158.504 71.3336,-152.68 74.6203,-162.752 80.184,-158.504"/>
</g>
<!-- Node140 -->
<g id="node5" class="node"><title>Node140</title>
<g id="a_node5"><a xlink:href="../../dd/d2a/classinfra_1_1_json_object_iterator.html#a8114edb6c07639605a498fe45113a304" target="_top" xlink:title="infra::JsonObjectIterator\l::ReadCommaOrObjectEnd">
<polygon fill="white" stroke="black" points="155,-196.5 155,-226.5 290,-226.5 290,-196.5 155,-196.5"/>
<text text-anchor="start" x="163" y="-214.5" font-family="Helvetica,sans-Serif" font-size="10.00">infra::JsonObjectIterator</text>
<text text-anchor="middle" x="222.5" y="-203.5" font-family="Helvetica,sans-Serif" font-size="10.00">::ReadCommaOrObjectEnd</text>
</a>
</g>
</g>
<!-- Node136&#45;&gt;Node140 -->
<g id="edge4" class="edge"><title>Node136&#45;&gt;Node140</title>
<path fill="none" stroke="midnightblue" d="M95.2733,-157.401C112.88,-167.09 134.763,-178.548 155,-187.5 162.072,-190.628 169.69,-193.67 177.158,-196.479"/>
<polygon fill="midnightblue" stroke="midnightblue" points="96.9282,-154.317 86.487,-152.519 93.5281,-160.436 96.9282,-154.317"/>
</g>
<!-- Node141 -->
<g id="node6" class="node"><title>Node141</title>
<g id="a_node6"><a xlink:href="../../dd/d2a/classinfra_1_1_json_object_iterator.html#a86f901eb30ca465718042bb7878871a2" target="_top" xlink:title="infra::JsonObjectIterator\l::ReadKey">
<polygon fill="white" stroke="black" points="163,-147.5 163,-177.5 282,-177.5 282,-147.5 163,-147.5"/>
<text text-anchor="start" x="171" y="-165.5" font-family="Helvetica,sans-Serif" font-size="10.00">infra::JsonObjectIterator</text>
<text text-anchor="middle" x="222.5" y="-154.5" font-family="Helvetica,sans-Serif" font-size="10.00">::ReadKey</text>
</a>
</g>
</g>
<!-- Node136&#45;&gt;Node141 -->
<g id="edge6" class="edge"><title>Node136&#45;&gt;Node141</title>
<path fill="none" stroke="midnightblue" d="M129.271,-148.179C140.49,-149.921 152.02,-151.711 162.963,-153.41"/>
<polygon fill="midnightblue" stroke="midnightblue" points="129.499,-144.672 119.08,-146.596 128.425,-151.589 129.499,-144.672"/>
</g>
<!-- Node142 -->
<g id="node7" class="node"><title>Node142</title>
<g id="a_node7"><a xlink:href="../../dd/d2a/classinfra_1_1_json_object_iterator.html#ae5f0286d19e6fa058553908eac6ca3b7" target="_top" xlink:title="infra::JsonObjectIterator\l::ReadKeyOrEnd">
<polygon fill="white" stroke="black" points="163,-98.5 163,-128.5 282,-128.5 282,-98.5 163,-98.5"/>
<text text-anchor="start" x="171" y="-116.5" font-family="Helvetica,sans-Serif" font-size="10.00">infra::JsonObjectIterator</text>
<text text-anchor="middle" x="222.5" y="-105.5" font-family="Helvetica,sans-Serif" font-size="10.00">::ReadKeyOrEnd</text>
</a>
</g>
</g>
<!-- Node136&#45;&gt;Node142 -->
<g id="edge8" class="edge"><title>Node136&#45;&gt;Node142</title>
<path fill="none" stroke="midnightblue" d="M129.271,-127.248C140.49,-125.576 152.02,-123.857 162.963,-122.226"/>
<polygon fill="midnightblue" stroke="midnightblue" points="128.455,-123.831 119.08,-128.768 129.487,-130.755 128.455,-123.831"/>
</g>
<!-- Node143 -->
<g id="node8" class="node"><title>Node143</title>
<g id="a_node8"><a xlink:href="../../dd/d2a/classinfra_1_1_json_object_iterator.html#a25677264825842105405db691d20b7f8" target="_top" xlink:title="infra::JsonObjectIterator\l::ReadObjectStart">
<polygon fill="white" stroke="black" points="163,-49.5 163,-79.5 282,-79.5 282,-49.5 163,-49.5"/>
<text text-anchor="start" x="171" y="-67.5" font-family="Helvetica,sans-Serif" font-size="10.00">infra::JsonObjectIterator</text>
<text text-anchor="middle" x="222.5" y="-56.5" font-family="Helvetica,sans-Serif" font-size="10.00">::ReadObjectStart</text>
</a>
</g>
</g>
<!-- Node136&#45;&gt;Node143 -->
<g id="edge10" class="edge"><title>Node136&#45;&gt;Node143</title>
<path fill="none" stroke="midnightblue" d="M97.4107,-117.558C114.688,-108.534 135.675,-98.0094 155,-89.5 162.789,-86.0703 171.21,-82.6733 179.357,-79.5404"/>
<polygon fill="midnightblue" stroke="midnightblue" points="95.445,-114.638 88.2284,-122.395 98.7072,-120.831 95.445,-114.638"/>
</g>
<!-- Node144 -->
<g id="node9" class="node"><title>Node144</title>
<g id="a_node9"><a xlink:href="../../dd/d2a/classinfra_1_1_json_object_iterator.html#a44bd40e5f060140d1825eac9864bb371" target="_top" xlink:title="infra::JsonObjectIterator\l::ReadValue">
<polygon fill="white" stroke="black" points="163,-0.5 163,-30.5 282,-30.5 282,-0.5 163,-0.5"/>
<text text-anchor="start" x="171" y="-18.5" font-family="Helvetica,sans-Serif" font-size="10.00">infra::JsonObjectIterator</text>
<text text-anchor="middle" x="222.5" y="-7.5" font-family="Helvetica,sans-Serif" font-size="10.00">::ReadValue</text>
</a>
</g>
</g>
<!-- Node136&#45;&gt;Node144 -->
<g id="edge12" class="edge"><title>Node136&#45;&gt;Node144</title>
<path fill="none" stroke="midnightblue" d="M78.059,-114.321C95.5105,-92.6625 124.077,-60.7166 155,-40.5 160.781,-36.7204 167.215,-33.3981 173.74,-30.5139"/>
<polygon fill="midnightblue" stroke="midnightblue" points="75.1686,-112.333 71.7173,-122.35 80.6619,-116.672 75.1686,-112.333"/>
</g>
<!-- Node138 -->
<g id="node3" class="node"><title>Node138</title>
<g id="a_node3"><a xlink:href="../../dd/d2a/classinfra_1_1_json_object_iterator.html#ac505bfd75a0906a2f69e1d6fe252710a" target="_top" xlink:title="infra::JsonObjectIterator\l::ParseNextToken">
<polygon fill="white" stroke="black" points="326,-122.5 326,-152.5 445,-152.5 445,-122.5 326,-122.5"/>
<text text-anchor="start" x="334" y="-140.5" font-family="Helvetica,sans-Serif" font-size="10.00">infra::JsonObjectIterator</text>
<text text-anchor="middle" x="385.5" y="-129.5" font-family="Helvetica,sans-Serif" font-size="10.00">::ParseNextToken</text>
</a>
</g>
</g>
<!-- Node137&#45;&gt;Node138 -->
<g id="edge2" class="edge"><title>Node137&#45;&gt;Node138</title>
<path fill="none" stroke="midnightblue" d="M282.463,-240.955C285.064,-239.555 287.59,-238.07 290,-236.5 325.634,-213.28 357.638,-174.13 373.666,-152.68"/>
<polygon fill="midnightblue" stroke="midnightblue" points="280.834,-237.855 273.392,-245.397 283.913,-244.142 280.834,-237.855"/>
</g>
<!-- Node139 -->
<g id="node4" class="node"><title>Node139</title>
<g id="a_node4"><a xlink:href="../../dd/d2a/classinfra_1_1_json_object_iterator.html#a5da85e17d711d0e3fb813e1cabb4e6b4" target="_top" xlink:title="infra::JsonObjectIterator\l::operator++">
<polygon fill="white" stroke="black" points="481,-122.5 481,-152.5 600,-152.5 600,-122.5 481,-122.5"/>
<text text-anchor="start" x="489" y="-140.5" font-family="Helvetica,sans-Serif" font-size="10.00">infra::JsonObjectIterator</text>
<text text-anchor="middle" x="540.5" y="-129.5" font-family="Helvetica,sans-Serif" font-size="10.00">::operator++</text>
</a>
</g>
</g>
<!-- Node138&#45;&gt;Node139 -->
<g id="edge3" class="edge"><title>Node138&#45;&gt;Node139</title>
<path fill="none" stroke="midnightblue" d="M455.493,-137.5C463.993,-137.5 472.617,-137.5 480.941,-137.5"/>
<polygon fill="midnightblue" stroke="midnightblue" points="455.216,-134 445.216,-137.5 455.216,-141 455.216,-134"/>
</g>
<!-- Node140&#45;&gt;Node138 -->
<g id="edge5" class="edge"><title>Node140&#45;&gt;Node138</title>
<path fill="none" stroke="midnightblue" d="M277.322,-192.811C281.641,-191.088 285.912,-189.309 290,-187.5 313.764,-176.987 339.799,-163.019 358.513,-152.519"/>
<polygon fill="midnightblue" stroke="midnightblue" points="275.905,-189.606 267.842,-196.479 278.431,-196.134 275.905,-189.606"/>
</g>
<!-- Node141&#45;&gt;Node138 -->
<g id="edge7" class="edge"><title>Node141&#45;&gt;Node138</title>
<path fill="none" stroke="midnightblue" d="M292.271,-151.821C303.49,-150.079 315.02,-148.289 325.963,-146.59"/>
<polygon fill="midnightblue" stroke="midnightblue" points="291.425,-148.411 282.08,-153.404 292.499,-155.328 291.425,-148.411"/>
</g>
<!-- Node142&#45;&gt;Node138 -->
<g id="edge9" class="edge"><title>Node142&#45;&gt;Node138</title>
<path fill="none" stroke="midnightblue" d="M292.271,-123.752C303.49,-125.424 315.02,-127.143 325.963,-128.774"/>
<polygon fill="midnightblue" stroke="midnightblue" points="292.487,-120.245 282.08,-122.232 291.455,-127.169 292.487,-120.245"/>
</g>
<!-- Node143&#45;&gt;Node138 -->
<g id="edge11" class="edge"><title>Node143&#45;&gt;Node138</title>
<path fill="none" stroke="midnightblue" d="M275.262,-83.3189C280.273,-85.3322 285.254,-87.41 290,-89.5 312.904,-99.5852 338.143,-112.502 356.772,-122.395"/>
<polygon fill="midnightblue" stroke="midnightblue" points="276.23,-79.9391 265.643,-79.5404 273.671,-86.4544 276.23,-79.9391"/>
</g>
<!-- Node144&#45;&gt;Node138 -->
<g id="edge13" class="edge"><title>Node144&#45;&gt;Node138</title>
<path fill="none" stroke="midnightblue" d="M280.318,-34.8606C283.673,-36.6132 286.929,-38.4921 290,-40.5 325.028,-63.4002 357.032,-101.35 373.283,-122.35"/>
<polygon fill="midnightblue" stroke="midnightblue" points="281.79,-31.685 271.26,-30.5139 278.761,-37.9959 281.79,-31.685"/>
</g>
</g>
</svg>
        <g id="navigator" transform="translate(0 0)" fill="#404254">
                <rect fill="#f2f5e9" fill-opacity="0.5" stroke="#606060" stroke-width=".5" x="0" y="0" width="60" height="60"/>
                <use id="zoomplus" xlink:href="#zoomPlus" x="17" y="9" onmousedown="handleZoom(evt,'in')"/>
                <use id="zoomminus" xlink:href="#zoomMin" x="42" y="9" onmousedown="handleZoom(evt,'out')"/>
                <use id="reset" xlink:href="#resetDef" x="30" y="36" onmousedown="handleReset()"/>
                <g id="arrowUp" xlink:href="#dirArrow" transform="translate(30 24)" onmousedown="handlePan(0,-1)">
                  <use xlink:href="#rim" fill="#404040">
                        <set attributeName="fill" to="#808080" begin="arrowUp.mouseover" end="arrowUp.mouseout"/>
                  </use>
                  <path fill="none" stroke="white" stroke-width="1.5" d="M0,-3.0v7 M-2.5,-0.5L0,-3.0L2.5,-0.5"/>
                </g>
                <g id="arrowRight" xlink:href="#dirArrow" transform="rotate(90) translate(36 -43)" onmousedown="handlePan(1,0)">
                  <use xlink:href="#rim" fill="#404040">
                        <set attributeName="fill" to="#808080" begin="arrowRight.mouseover" end="arrowRight.mouseout"/>
                  </use>
                  <path fill="none" stroke="white" stroke-width="1.5" d="M0,-3.0v7 M-2.5,-0.5L0,-3.0L2.5,-0.5"/>
                </g>
                <g id="arrowDown" xlink:href="#dirArrow" transform="rotate(180) translate(-30 -48)" onmousedown="handlePan(0,1)">
                  <use xlink:href="#rim" fill="#404040">
                        <set attributeName="fill" to="#808080" begin="arrowDown.mouseover" end="arrowDown.mouseout"/>
                  </use>
                  <path fill="none" stroke="white" stroke-width="1.5" d="M0,-3.0v7 M-2.5,-0.5L0,-3.0L2.5,-0.5"/>
                </g>
                <g id="arrowLeft" xlink:href="#dirArrow" transform="rotate(270) translate(-36 17)" onmousedown="handlePan(-1,0)">
                  <use xlink:href="#rim" fill="#404040">
                        <set attributeName="fill" to="#808080" begin="arrowLeft.mouseover" end="arrowLeft.mouseout"/>
                  </use>
                  <path fill="none" stroke="white" stroke-width="1.5" d="M0,-3.0v7 M-2.5,-0.5L0,-3.0L2.5,-0.5"/>
                </g>
        </g>
        <svg viewBox="0 0 15 15" width="100%" height="30px" preserveAspectRatio="xMaxYMin meet">
         <g id="arrow_out" transform="scale(0.3 0.3)">
          <a xlink:href="classinfra_1_1_json_object_iterator_a9869efba8c2dc8b2cdd380bbb709d581_icgraph_org.svg" target="_base">
           <rect id="button" ry="5" rx="5" y="6" x="6" height="38" width="38"
                fill="#f2f5e9" fill-opacity="0.5" stroke="#606060" stroke-width="1.0"/>
           <path id="arrow"
             d="M 11.500037,31.436501 C 11.940474,20.09759 22.043105,11.32322 32.158766,21.979434 L 37.068811,17.246167 C 37.068811,17.246167 37.088388,32 37.088388,32 L 22.160133,31.978069 C 22.160133,31.978069 26.997745,27.140456 26.997745,27.140456 C 18.528582,18.264221 13.291696,25.230495 11.500037,31.436501 z"
             style="fill:#404040;"/>
          </a>
         </g>
        </svg>
</svg>
