<?xml version="1.0" encoding="UTF-8" standalone="no"?>
<!DOCTYPE svg PUBLIC "-//W3C//DTD SVG 1.1//EN"
 "http://www.w3.org/Graphics/SVG/1.1/DTD/svg11.dtd">
<!-- Generated by graphviz version 2.38.0 (20140413.2041)
 -->
<!-- Title: infra::JsonObjectIterator::ReadCommaOrObjectEnd Pages: 1 -->
<svg width="453pt" height="39pt"
 viewBox="0.00 0.00 453.00 39.00" xmlns="http://www.w3.org/2000/svg" xmlns:xlink="http://www.w3.org/1999/xlink">
<g id="graph0" class="graph" transform="scale(1 1) rotate(0) translate(4 35)">
<title>infra::JsonObjectIterator::ReadCommaOrObjectEnd</title>
<polygon fill="white" stroke="none" points="-4,4 -4,-35 449,-35 449,4 -4,4"/>
<!-- Node87 -->
<g id="node1" class="node"><title>Node87</title>
<polygon fill="#bfbfbf" stroke="black" points="0,-0.5 0,-30.5 135,-30.5 135,-0.5 0,-0.5"/>
<text text-anchor="start" x="8" y="-18.5" font-family="Helvetica,sans-Serif" font-size="10.00">infra::JsonObjectIterator</text>
<text text-anchor="middle" x="67.5" y="-7.5" font-family="Helvetica,sans-Serif" font-size="10.00">::ReadCommaOrObjectEnd</text>
</g>
<!-- Node88 -->
<g id="node2" class="node"><title>Node88</title>
<g id="a_node2"><a xlink:href="../../dd/d2a/classinfra_1_1_json_object_iterator.html#ac505bfd75a0906a2f69e1d6fe252710a" target="_top" xlink:title="infra::JsonObjectIterator\l::ParseNextToken">
<polygon fill="white" stroke="black" points="171,-0.5 171,-30.5 290,-30.5 290,-0.5 171,-0.5"/>
<text text-anchor="start" x="179" y="-18.5" font-family="Helvetica,sans-Serif" font-size="10.00">infra::JsonObjectIterator</text>
<text text-anchor="middle" x="230.5" y="-7.5" font-family="Helvetica,sans-Serif" font-size="10.00">::ParseNextToken</text>
</a>
</g>
</g>
<!-- Node87&#45;&gt;Node88 -->
<g id="edge1" class="edge"><title>Node87&#45;&gt;Node88</title>
<path fill="none" stroke="midnightblue" d="M145.644,-15.5C154.099,-15.5 162.604,-15.5 170.785,-15.5"/>
<polygon fill="midnightblue" stroke="midnightblue" points="145.38,-12.0001 135.38,-15.5 145.38,-19.0001 145.38,-12.0001"/>
</g>
<!-- Node89 -->
<g id="node3" class="node"><title>Node89</title>
<g id="a_node3"><a xlink:href="../../dd/d2a/classinfra_1_1_json_object_iterator.html#a5da85e17d711d0e3fb813e1cabb4e6b4" target="_top" xlink:title="infra::JsonObjectIterator\l::operator++">
<polygon fill="white" stroke="black" points="326,-0.5 326,-30.5 445,-30.5 445,-0.5 326,-0.5"/>
<text text-anchor="start" x="334" y="-18.5" font-family="Helvetica,sans-Serif" font-size="10.00">infra::JsonObjectIterator</text>
<text text-anchor="middle" x="385.5" y="-7.5" font-family="Helvetica,sans-Serif" font-size="10.00">::operator++</text>
</a>
</g>
</g>
<!-- Node88&#45;&gt;Node89 -->
<g id="edge2" class="edge"><title>Node88&#45;&gt;Node89</title>
<path fill="none" stroke="midnightblue" d="M300.493,-15.5C308.993,-15.5 317.617,-15.5 325.941,-15.5"/>
<polygon fill="midnightblue" stroke="midnightblue" points="300.216,-12.0001 290.216,-15.5 300.216,-19.0001 300.216,-12.0001"/>
</g>
</g>
</svg>
