<?xml version="1.0" encoding="UTF-8" standalone="no"?>
<!DOCTYPE svg PUBLIC "-//W3C//DTD SVG 1.1//EN"
 "http://www.w3.org/Graphics/SVG/1.1/DTD/svg11.dtd">
<!-- Generated by graphviz version 2.38.0 (20140413.2041)
 -->
<!-- Title: services::ConnectionSerial::StateInitSizeResponse::StateInitSizeResponse Pages: 1 -->
<svg width="482pt" height="50pt"
 viewBox="0.00 0.00 482.00 50.00" xmlns="http://www.w3.org/2000/svg" xmlns:xlink="http://www.w3.org/1999/xlink">
<g id="graph0" class="graph" transform="scale(1 1) rotate(0) translate(4 46)">
<title>services::ConnectionSerial::StateInitSizeResponse::StateInitSizeResponse</title>
<polygon fill="white" stroke="none" points="-4,4 -4,-46 478,-46 478,4 -4,4"/>
<!-- Node0 -->
<g id="node1" class="node"><title>Node0</title>
<polygon fill="#bfbfbf" stroke="black" points="0,-0.5 0,-41.5 131,-41.5 131,-0.5 0,-0.5"/>
<text text-anchor="start" x="8" y="-29.5" font-family="Helvetica,sans-Serif" font-size="10.00">services::ConnectionSerial</text>
<text text-anchor="start" x="8" y="-18.5" font-family="Helvetica,sans-Serif" font-size="10.00">::StateInitSizeResponse</text>
<text text-anchor="middle" x="65.5" y="-7.5" font-family="Helvetica,sans-Serif" font-size="10.00">::StateInitSizeResponse</text>
</g>
<!-- Node1 -->
<g id="node2" class="node"><title>Node1</title>
<g id="a_node2"><a xlink:href="../../df/dfb/classservices_1_1_connection_serial_1_1_state_init_size_response.html#a6a96565554c8716b86a9b7d4bd88a734" target="_top" xlink:title="services::ConnectionSerial\l::StateInitSizeResponse\l::SendWindowSizeResponse">
<polygon fill="white" stroke="black" points="167,-0.5 167,-41.5 310,-41.5 310,-0.5 167,-0.5"/>
<text text-anchor="start" x="175" y="-29.5" font-family="Helvetica,sans-Serif" font-size="10.00">services::ConnectionSerial</text>
<text text-anchor="start" x="175" y="-18.5" font-family="Helvetica,sans-Serif" font-size="10.00">::StateInitSizeResponse</text>
<text text-anchor="middle" x="238.5" y="-7.5" font-family="Helvetica,sans-Serif" font-size="10.00">::SendWindowSizeResponse</text>
</a>
</g>
</g>
<!-- Node0&#45;&gt;Node1 -->
<g id="edge1" class="edge"><title>Node0&#45;&gt;Node1</title>
<path fill="none" stroke="midnightblue" d="M131.148,-21C139.509,-21 148.154,-21 156.735,-21"/>
<polygon fill="midnightblue" stroke="midnightblue" points="156.758,-24.5001 166.758,-21 156.758,-17.5001 156.758,-24.5001"/>
</g>
<!-- Node2 -->
<g id="node3" class="node"><title>Node2</title>
<g id="a_node3"><a xlink:href="../../d6/dba/classhal_1_1_serial_communication.html#a9c94f3aed0ca15268f0f731ea53fcdf6" target="_top" xlink:title="hal::SerialCommunication\l::SendData">
<polygon fill="white" stroke="black" points="346,-6 346,-36 474,-36 474,-6 346,-6"/>
<text text-anchor="start" x="354" y="-24" font-family="Helvetica,sans-Serif" font-size="10.00">hal::SerialCommunication</text>
<text text-anchor="middle" x="410" y="-13" font-family="Helvetica,sans-Serif" font-size="10.00">::SendData</text>
</a>
</g>
</g>
<!-- Node1&#45;&gt;Node2 -->
<g id="edge2" class="edge"><title>Node1&#45;&gt;Node2</title>
<path fill="none" stroke="midnightblue" d="M310.401,-21C318.785,-21 327.356,-21 335.771,-21"/>
<polygon fill="midnightblue" stroke="midnightblue" points="335.937,-24.5001 345.937,-21 335.937,-17.5001 335.937,-24.5001"/>
</g>
</g>
</svg>
