<?xml version="1.0" encoding="UTF-8" standalone="no"?>
<!DOCTYPE svg PUBLIC "-//W3C//DTD SVG 1.1//EN"
 "http://www.w3.org/Graphics/SVG/1.1/DTD/svg11.dtd">
<!-- Generated by graphviz version 2.38.0 (20140413.2041)
 -->
<!-- Title: services::ClientConnectionObserverFactory Pages: 1 -->
<svg width="178pt" height="207pt"
 viewBox="0.00 0.00 178.00 207.00" xmlns="http://www.w3.org/2000/svg" xmlns:xlink="http://www.w3.org/1999/xlink">
<g id="graph0" class="graph" transform="scale(1 1) rotate(0) translate(4 203)">
<title>services::ClientConnectionObserverFactory</title>
<polygon fill="white" stroke="none" points="-4,4 -4,-203 174,-203 174,4 -4,4"/>
<!-- Node5 -->
<g id="node1" class="node"><title>Node5</title>
<polygon fill="#bfbfbf" stroke="black" points="19.5,-0.5 19.5,-30.5 150.5,-30.5 150.5,-0.5 19.5,-0.5"/>
<text text-anchor="start" x="27.5" y="-18.5" font-family="Helvetica,sans-Serif" font-size="10.00">services::ClientConnection</text>
<text text-anchor="middle" x="85" y="-7.5" font-family="Helvetica,sans-Serif" font-size="10.00">ObserverFactory</text>
</g>
<!-- Node6 -->
<g id="node2" class="node"><title>Node6</title>
<g id="a_node2"><a xlink:href="../../d7/da5/classinfra_1_1detail_1_1_intrusive_list_node.html" target="_top" xlink:title="infra::IntrusiveList\l\&lt; ClientConnectionObserverFactory\l \&gt;::NodeType">
<polygon fill="white" stroke="black" points="0,-68.5 0,-109.5 170,-109.5 170,-68.5 0,-68.5"/>
<text text-anchor="start" x="8" y="-97.5" font-family="Helvetica,sans-Serif" font-size="10.00">infra::IntrusiveList</text>
<text text-anchor="start" x="8" y="-86.5" font-family="Helvetica,sans-Serif" font-size="10.00">&lt; ClientConnectionObserverFactory</text>
<text text-anchor="middle" x="85" y="-75.5" font-family="Helvetica,sans-Serif" font-size="10.00"> &gt;::NodeType</text>
</a>
</g>
</g>
<!-- Node6&#45;&gt;Node5 -->
<g id="edge1" class="edge"><title>Node6&#45;&gt;Node5</title>
<path fill="none" stroke="midnightblue" d="M85,-58.1581C85,-48.6872 85,-38.6473 85,-30.7972"/>
<polygon fill="midnightblue" stroke="midnightblue" points="81.5001,-58.4623 85,-68.4623 88.5001,-58.4623 81.5001,-58.4623"/>
</g>
<!-- Node7 -->
<g id="node3" class="node"><title>Node7</title>
<polygon fill="white" stroke="#bfbfbf" points="37,-168.5 37,-198.5 133,-198.5 133,-168.5 37,-168.5"/>
<text text-anchor="start" x="45" y="-186.5" font-family="Helvetica,sans-Serif" font-size="10.00">IntrusiveListNode&lt;</text>
<text text-anchor="middle" x="85" y="-175.5" font-family="Helvetica,sans-Serif" font-size="10.00"> T &gt; *</text>
</g>
<!-- Node7&#45;&gt;Node6 -->
<g id="edge2" class="edge"><title>Node7&#45;&gt;Node6</title>
<path fill="none" stroke="#9a32cd" stroke-dasharray="5,2" d="M85,-158.282C85,-143.138 85,-123.882 85,-109.682"/>
<polygon fill="#9a32cd" stroke="#9a32cd" points="81.5001,-158.451 85,-168.451 88.5001,-158.451 81.5001,-158.451"/>
<text text-anchor="middle" x="104.5" y="-142" font-family="Helvetica,sans-Serif" font-size="10.00"> previous</text>
<text text-anchor="middle" x="104.5" y="-131" font-family="Helvetica,sans-Serif" font-size="10.00">next</text>
</g>
</g>
</svg>
