<?xml version="1.0" encoding="UTF-8" standalone="no"?>
<!DOCTYPE svg PUBLIC "-//W3C//DTD SVG 1.1//EN"
 "http://www.w3.org/Graphics/SVG/1.1/DTD/svg11.dtd">
<!-- Generated by graphviz version 2.38.0 (20140413.2041)
 -->
<!-- Title: services::HttpClientImpl::HttpResponseParser::ParseHeaders Pages: 1 -->
<svg width="530pt" height="480pt"
 viewBox="0.00 0.00 530.00 480.00" xmlns="http://www.w3.org/2000/svg" xmlns:xlink="http://www.w3.org/1999/xlink">
<g id="graph0" class="graph" transform="scale(1 1) rotate(0) translate(4 476)">
<title>services::HttpClientImpl::HttpResponseParser::ParseHeaders</title>
<polygon fill="white" stroke="none" points="-4,4 -4,-476 526,-476 526,4 -4,4"/>
<!-- Node22 -->
<g id="node1" class="node"><title>Node22</title>
<polygon fill="#bfbfbf" stroke="black" points="0,-220.5 0,-250.5 180,-250.5 180,-220.5 0,-220.5"/>
<text text-anchor="start" x="8" y="-238.5" font-family="Helvetica,sans-Serif" font-size="10.00">services::HttpClientImpl</text>
<text text-anchor="middle" x="90" y="-227.5" font-family="Helvetica,sans-Serif" font-size="10.00">::HttpResponseParser::ParseHeaders</text>
</g>
<!-- Node23 -->
<g id="node2" class="node"><title>Node23</title>
<g id="a_node2"><a xlink:href="../../db/dda/classinfra_1_1_input_stream.html#a2a8a5906d057b8e49f4eaccabf8c6578" target="_top" xlink:title="infra::InputStream\l::Available">
<polygon fill="white" stroke="black" points="253,-441.5 253,-471.5 346,-471.5 346,-441.5 253,-441.5"/>
<text text-anchor="start" x="261" y="-459.5" font-family="Helvetica,sans-Serif" font-size="10.00">infra::InputStream</text>
<text text-anchor="middle" x="299.5" y="-448.5" font-family="Helvetica,sans-Serif" font-size="10.00">::Available</text>
</a>
</g>
</g>
<!-- Node22&#45;&gt;Node23 -->
<g id="edge1" class="edge"><title>Node22&#45;&gt;Node23</title>
<path fill="none" stroke="midnightblue" d="M96.2997,-250.711C109.981,-287.71 150.094,-382.994 216,-432.5 224.051,-438.547 233.591,-443.074 243.277,-446.462"/>
<polygon fill="midnightblue" stroke="midnightblue" points="242.372,-449.846 252.961,-449.484 244.457,-443.164 242.372,-449.846"/>
</g>
<!-- Node25 -->
<g id="node4" class="node"><title>Node25</title>
<g id="a_node4"><a xlink:href="../../d0/d1b/classinfra_1_1_stream_reader_with_rewinding.html#abeb02644ecf8bf28e5e8d69fe1c236ba" target="_top" xlink:title="infra::StreamReaderWithRewinding\l::ConstructSaveMarker">
<polygon fill="white" stroke="black" points="216,-392.5 216,-422.5 383,-422.5 383,-392.5 216,-392.5"/>
<text text-anchor="start" x="224" y="-410.5" font-family="Helvetica,sans-Serif" font-size="10.00">infra::StreamReaderWithRewinding</text>
<text text-anchor="middle" x="299.5" y="-399.5" font-family="Helvetica,sans-Serif" font-size="10.00">::ConstructSaveMarker</text>
</a>
</g>
</g>
<!-- Node22&#45;&gt;Node25 -->
<g id="edge3" class="edge"><title>Node22&#45;&gt;Node25</title>
<path fill="none" stroke="midnightblue" d="M99.5425,-250.618C117.266,-280.597 161.008,-347.763 216,-383.5 218.462,-385.1 221.034,-386.596 223.684,-387.995"/>
<polygon fill="midnightblue" stroke="midnightblue" points="222.41,-391.264 232.946,-392.383 225.407,-384.938 222.41,-391.264"/>
</g>
<!-- Node26 -->
<g id="node5" class="node"><title>Node26</title>
<g id="a_node5"><a xlink:href="../../db/dda/classinfra_1_1_input_stream.html#abffe6dcc91399c191c6fb7dbd610274f" target="_top" xlink:title="infra::InputStream\l::Empty">
<polygon fill="white" stroke="black" points="253,-343.5 253,-373.5 346,-373.5 346,-343.5 253,-343.5"/>
<text text-anchor="start" x="261" y="-361.5" font-family="Helvetica,sans-Serif" font-size="10.00">infra::InputStream</text>
<text text-anchor="middle" x="299.5" y="-350.5" font-family="Helvetica,sans-Serif" font-size="10.00">::Empty</text>
</a>
</g>
</g>
<!-- Node22&#45;&gt;Node26 -->
<g id="edge4" class="edge"><title>Node22&#45;&gt;Node26</title>
<path fill="none" stroke="midnightblue" d="M106.172,-250.813C128.398,-272.426 171.966,-311.773 216,-334.5 224.461,-338.867 233.831,-342.548 243.131,-345.614"/>
<polygon fill="midnightblue" stroke="midnightblue" points="242.169,-348.98 252.757,-348.589 244.236,-342.292 242.169,-348.98"/>
</g>
<!-- Node28 -->
<g id="node7" class="node"><title>Node28</title>
<g id="a_node7"><a xlink:href="../../d1/d2a/classinfra_1_1_bounded_string_base.html#af0b3cff1cfbc8cecada95845c3d8d162" target="_top" xlink:title="infra::BoundedStringBase\l::find_first_of">
<polygon fill="white" stroke="black" points="236,-294.5 236,-324.5 363,-324.5 363,-294.5 236,-294.5"/>
<text text-anchor="start" x="244" y="-312.5" font-family="Helvetica,sans-Serif" font-size="10.00">infra::BoundedStringBase</text>
<text text-anchor="middle" x="299.5" y="-301.5" font-family="Helvetica,sans-Serif" font-size="10.00">::find_first_of</text>
</a>
</g>
</g>
<!-- Node22&#45;&gt;Node28 -->
<g id="edge6" class="edge"><title>Node22&#45;&gt;Node28</title>
<path fill="none" stroke="midnightblue" d="M125.947,-250.541C150.825,-260.986 185.173,-274.879 216,-285.5 221.923,-287.541 228.124,-289.558 234.351,-291.504"/>
<polygon fill="midnightblue" stroke="midnightblue" points="233.535,-294.915 244.122,-294.498 235.586,-288.222 233.535,-294.915"/>
</g>
<!-- Node29 -->
<g id="node8" class="node"><title>Node29</title>
<g id="a_node8"><a xlink:href="../../d1/d2a/classinfra_1_1_bounded_string_base.html#aca8ce15650affe10787e972764ebe08b" target="_top" xlink:title="infra::BoundedStringBase\l::full">
<polygon fill="white" stroke="black" points="236,-245.5 236,-275.5 363,-275.5 363,-245.5 236,-245.5"/>
<text text-anchor="start" x="244" y="-263.5" font-family="Helvetica,sans-Serif" font-size="10.00">infra::BoundedStringBase</text>
<text text-anchor="middle" x="299.5" y="-252.5" font-family="Helvetica,sans-Serif" font-size="10.00">::full</text>
</a>
</g>
</g>
<!-- Node22&#45;&gt;Node29 -->
<g id="edge7" class="edge"><title>Node22&#45;&gt;Node29</title>
<path fill="none" stroke="midnightblue" d="M180.203,-246.247C195.464,-248.086 211.154,-249.976 225.916,-251.755"/>
<polygon fill="midnightblue" stroke="midnightblue" points="225.624,-255.245 235.971,-252.966 226.461,-248.295 225.624,-255.245"/>
</g>
<!-- Node30 -->
<g id="node9" class="node"><title>Node30</title>
<g id="a_node9"><a xlink:href="../../d1/d2a/classinfra_1_1_bounded_string_base.html#a6e0ddaef135d65c70184b48d772befff" target="_top" xlink:title="infra::BoundedStringBase\l::max_size">
<polygon fill="white" stroke="black" points="236,-196.5 236,-226.5 363,-226.5 363,-196.5 236,-196.5"/>
<text text-anchor="start" x="244" y="-214.5" font-family="Helvetica,sans-Serif" font-size="10.00">infra::BoundedStringBase</text>
<text text-anchor="middle" x="299.5" y="-203.5" font-family="Helvetica,sans-Serif" font-size="10.00">::max_size</text>
</a>
</g>
</g>
<!-- Node22&#45;&gt;Node30 -->
<g id="edge8" class="edge"><title>Node22&#45;&gt;Node30</title>
<path fill="none" stroke="midnightblue" d="M180.203,-225.183C195.464,-223.417 211.154,-221.603 225.916,-219.895"/>
<polygon fill="midnightblue" stroke="midnightblue" points="226.439,-223.358 235.971,-218.732 225.635,-216.405 226.439,-223.358"/>
</g>
<!-- Node31 -->
<g id="node10" class="node"><title>Node31</title>
<g id="a_node10"><a xlink:href="../../d1/d2a/classinfra_1_1_bounded_string_base.html#a43c6a3d4a5a500676a5ddaf8712885fd" target="_top" xlink:title="infra::BoundedStringBase\l::resize">
<polygon fill="white" stroke="black" points="236,-147.5 236,-177.5 363,-177.5 363,-147.5 236,-147.5"/>
<text text-anchor="start" x="244" y="-165.5" font-family="Helvetica,sans-Serif" font-size="10.00">infra::BoundedStringBase</text>
<text text-anchor="middle" x="299.5" y="-154.5" font-family="Helvetica,sans-Serif" font-size="10.00">::resize</text>
</a>
</g>
</g>
<!-- Node22&#45;&gt;Node31 -->
<g id="edge9" class="edge"><title>Node22&#45;&gt;Node31</title>
<path fill="none" stroke="midnightblue" d="M128.209,-220.4C152.932,-210.569 186.205,-197.72 216,-187.5 222.813,-185.163 229.98,-182.821 237.127,-180.559"/>
<polygon fill="midnightblue" stroke="midnightblue" points="238.323,-183.853 246.825,-177.532 236.237,-177.171 238.323,-183.853"/>
</g>
<!-- Node32 -->
<g id="node11" class="node"><title>Node32</title>
<g id="a_node11"><a xlink:href="../../d0/d1b/classinfra_1_1_stream_reader_with_rewinding.html#a56766fcf5036ce1db0df2dfa73b28e6a" target="_top" xlink:title="infra::StreamReaderWithRewinding\l::Rewind">
<polygon fill="white" stroke="black" points="216,-98.5 216,-128.5 383,-128.5 383,-98.5 216,-98.5"/>
<text text-anchor="start" x="224" y="-116.5" font-family="Helvetica,sans-Serif" font-size="10.00">infra::StreamReaderWithRewinding</text>
<text text-anchor="middle" x="299.5" y="-105.5" font-family="Helvetica,sans-Serif" font-size="10.00">::Rewind</text>
</a>
</g>
</g>
<!-- Node22&#45;&gt;Node32 -->
<g id="edge10" class="edge"><title>Node22&#45;&gt;Node32</title>
<path fill="none" stroke="midnightblue" d="M106.645,-220.226C129.099,-199.077 172.565,-160.952 216,-138.5 220.342,-136.256 224.918,-134.177 229.599,-132.259"/>
<polygon fill="midnightblue" stroke="midnightblue" points="231.222,-135.385 239.311,-128.544 228.721,-128.847 231.222,-135.385"/>
</g>
<!-- Node33 -->
<g id="node12" class="node"><title>Node33</title>
<g id="a_node12"><a xlink:href="../../d1/d2a/classinfra_1_1_bounded_string_base.html#aab36b8eaee21d6ab3be734e07f499382" target="_top" xlink:title="infra::BoundedStringBase\l::size">
<polygon fill="white" stroke="black" points="236,-49.5 236,-79.5 363,-79.5 363,-49.5 236,-49.5"/>
<text text-anchor="start" x="244" y="-67.5" font-family="Helvetica,sans-Serif" font-size="10.00">infra::BoundedStringBase</text>
<text text-anchor="middle" x="299.5" y="-56.5" font-family="Helvetica,sans-Serif" font-size="10.00">::size</text>
</a>
</g>
</g>
<!-- Node22&#45;&gt;Node33 -->
<g id="edge11" class="edge"><title>Node22&#45;&gt;Node33</title>
<path fill="none" stroke="midnightblue" d="M99.9067,-220.185C117.961,-190.489 161.799,-124.894 216,-89.5 219.358,-87.3073 222.917,-85.2997 226.598,-83.4624"/>
<polygon fill="midnightblue" stroke="midnightblue" points="228.28,-86.5431 235.954,-79.2382 225.4,-80.1632 228.28,-86.5431"/>
</g>
<!-- Node34 -->
<g id="node13" class="node"><title>Node34</title>
<g id="a_node13"><a xlink:href="../../d1/d2a/classinfra_1_1_bounded_string_base.html#a46ec1a3a673136ace03af8c6ec94aa89" target="_top" xlink:title="infra::BoundedStringBase\l::substr">
<polygon fill="white" stroke="black" points="236,-0.5 236,-30.5 363,-30.5 363,-0.5 236,-0.5"/>
<text text-anchor="start" x="244" y="-18.5" font-family="Helvetica,sans-Serif" font-size="10.00">infra::BoundedStringBase</text>
<text text-anchor="middle" x="299.5" y="-7.5" font-family="Helvetica,sans-Serif" font-size="10.00">::substr</text>
</a>
</g>
</g>
<!-- Node22&#45;&gt;Node34 -->
<g id="edge12" class="edge"><title>Node22&#45;&gt;Node34</title>
<path fill="none" stroke="midnightblue" d="M96.38,-220.488C110.242,-183.966 150.73,-89.8607 216,-40.5 219.357,-37.961 222.973,-35.6782 226.749,-33.6259"/>
<polygon fill="midnightblue" stroke="midnightblue" points="228.329,-36.7495 235.806,-29.2433 225.28,-30.4484 228.329,-36.7495"/>
</g>
<!-- Node24 -->
<g id="node3" class="node"><title>Node24</title>
<g id="a_node3"><a xlink:href="../../d2/d90/classinfra_1_1_stream_reader.html#a006dafbe8dd85d298f4874efd047ed67" target="_top" xlink:title="infra::StreamReader\l::Available">
<polygon fill="white" stroke="black" points="419,-441.5 419,-471.5 522,-471.5 522,-441.5 419,-441.5"/>
<text text-anchor="start" x="427" y="-459.5" font-family="Helvetica,sans-Serif" font-size="10.00">infra::StreamReader</text>
<text text-anchor="middle" x="470.5" y="-448.5" font-family="Helvetica,sans-Serif" font-size="10.00">::Available</text>
</a>
</g>
</g>
<!-- Node23&#45;&gt;Node24 -->
<g id="edge2" class="edge"><title>Node23&#45;&gt;Node24</title>
<path fill="none" stroke="midnightblue" d="M346.234,-456.5C365.468,-456.5 388.123,-456.5 408.729,-456.5"/>
<polygon fill="midnightblue" stroke="midnightblue" points="408.972,-460 418.972,-456.5 408.971,-453 408.972,-460"/>
</g>
<!-- Node27 -->
<g id="node6" class="node"><title>Node27</title>
<g id="a_node6"><a xlink:href="../../d2/d90/classinfra_1_1_stream_reader.html#a072ccaa780dbf7599fa984a0d1ff7413" target="_top" xlink:title="infra::StreamReader\l::Empty">
<polygon fill="white" stroke="black" points="419,-343.5 419,-373.5 522,-373.5 522,-343.5 419,-343.5"/>
<text text-anchor="start" x="427" y="-361.5" font-family="Helvetica,sans-Serif" font-size="10.00">infra::StreamReader</text>
<text text-anchor="middle" x="470.5" y="-350.5" font-family="Helvetica,sans-Serif" font-size="10.00">::Empty</text>
</a>
</g>
</g>
<!-- Node26&#45;&gt;Node27 -->
<g id="edge5" class="edge"><title>Node26&#45;&gt;Node27</title>
<path fill="none" stroke="midnightblue" d="M346.234,-358.5C365.468,-358.5 388.123,-358.5 408.729,-358.5"/>
<polygon fill="midnightblue" stroke="midnightblue" points="408.972,-362 418.972,-358.5 408.971,-355 408.972,-362"/>
</g>
</g>
</svg>
