<?xml version="1.0" encoding="UTF-8" standalone="no"?>
<!DOCTYPE svg PUBLIC "-//W3C//DTD SVG 1.1//EN"
 "http://www.w3.org/Graphics/SVG/1.1/DTD/svg11.dtd">
<!-- Generated by graphviz version 2.38.0 (20140413.2041)
 -->
<!-- Title: services::FlashQuadSpi::EraseSectors Pages: 1 -->
<svg width="971pt" height="619pt"
 viewBox="0.00 0.00 971.00 618.50" xmlns="http://www.w3.org/2000/svg" xmlns:xlink="http://www.w3.org/1999/xlink">
<g id="graph0" class="graph" transform="scale(1 1) rotate(0) translate(4 614.5)">
<title>services::FlashQuadSpi::EraseSectors</title>
<polygon fill="white" stroke="none" points="-4,4 -4,-614.5 967,-614.5 967,4 -4,4"/>
<!-- Node20 -->
<g id="node1" class="node"><title>Node20</title>
<polygon fill="#bfbfbf" stroke="black" points="0,-230.5 0,-260.5 119,-260.5 119,-230.5 0,-230.5"/>
<text text-anchor="start" x="8" y="-248.5" font-family="Helvetica,sans-Serif" font-size="10.00">services::FlashQuadSpi</text>
<text text-anchor="middle" x="59.5" y="-237.5" font-family="Helvetica,sans-Serif" font-size="10.00">::EraseSectors</text>
</g>
<!-- Node21 -->
<g id="node2" class="node"><title>Node21</title>
<g id="a_node2"><a xlink:href="../../d8/dcc/classinfra_1_1_sequencer.html#a44c59b0dc536d34b809bd4504e3f1a8b" target="_top" xlink:title="infra::Sequencer::EndWhile">
<polygon fill="white" stroke="black" points="334,-292 334,-311 469,-311 469,-292 334,-292"/>
<text text-anchor="middle" x="401.5" y="-299" font-family="Helvetica,sans-Serif" font-size="10.00">infra::Sequencer::EndWhile</text>
</a>
</g>
</g>
<!-- Node20&#45;&gt;Node21 -->
<g id="edge1" class="edge"><title>Node20&#45;&gt;Node21</title>
<path fill="none" stroke="midnightblue" d="M88.1423,-260.549C106.526,-269.78 131.521,-280.874 155,-286.5 210.438,-299.784 274.821,-303.292 323.742,-303.608"/>
<polygon fill="midnightblue" stroke="midnightblue" points="323.931,-307.109 333.938,-303.63 323.945,-300.109 323.931,-307.109"/>
</g>
<!-- Node32 -->
<g id="node13" class="node"><title>Node32</title>
<g id="a_node13"><a xlink:href="../../d0/db3/classservices_1_1_flash_quad_spi.html#a1314b0904f14df88ba4c5074c569f3fe" target="_top" xlink:title="services::FlashQuadSpi\l::EraseSomeSectors">
<polygon fill="white" stroke="black" points="167,-208.5 167,-238.5 286,-238.5 286,-208.5 167,-208.5"/>
<text text-anchor="start" x="175" y="-226.5" font-family="Helvetica,sans-Serif" font-size="10.00">services::FlashQuadSpi</text>
<text text-anchor="middle" x="226.5" y="-215.5" font-family="Helvetica,sans-Serif" font-size="10.00">::EraseSomeSectors</text>
</a>
</g>
</g>
<!-- Node20&#45;&gt;Node32 -->
<g id="edge18" class="edge"><title>Node20&#45;&gt;Node32</title>
<path fill="none" stroke="midnightblue" d="M119.137,-237.682C131.343,-236.054 144.312,-234.325 156.842,-232.654"/>
<polygon fill="midnightblue" stroke="midnightblue" points="157.324,-236.121 166.774,-231.33 156.399,-229.183 157.324,-236.121"/>
</g>
<!-- Node33 -->
<g id="node14" class="node"><title>Node33</title>
<g id="a_node14"><a xlink:href="../../d8/dcc/classinfra_1_1_sequencer.html#a98e466d1ab1c7c738b4b7b6d79667132" target="_top" xlink:title="infra::Sequencer::Execute">
<polygon fill="white" stroke="black" points="337,-435 337,-454 466,-454 466,-435 337,-435"/>
<text text-anchor="middle" x="401.5" y="-442" font-family="Helvetica,sans-Serif" font-size="10.00">infra::Sequencer::Execute</text>
</a>
</g>
</g>
<!-- Node20&#45;&gt;Node33 -->
<g id="edge19" class="edge"><title>Node20&#45;&gt;Node33</title>
<path fill="none" stroke="midnightblue" d="M68.5212,-260.784C82.6283,-286.211 114.285,-337.193 155,-365.5 206.955,-401.622 276.367,-421.937 328.127,-432.89"/>
<polygon fill="midnightblue" stroke="midnightblue" points="327.735,-436.382 338.233,-434.958 329.138,-429.524 327.735,-436.382"/>
</g>
<!-- Node38 -->
<g id="node19" class="node"><title>Node38</title>
<g id="a_node19"><a xlink:href="../../d0/db3/classservices_1_1_flash_quad_spi.html#a53357532f725cc1379ead2a822cab27a" target="_top" xlink:title="services::FlashQuadSpi\l::HoldWhileWriteInProgress">
<polygon fill="white" stroke="black" points="158,-159.5 158,-189.5 295,-189.5 295,-159.5 158,-159.5"/>
<text text-anchor="start" x="166" y="-177.5" font-family="Helvetica,sans-Serif" font-size="10.00">services::FlashQuadSpi</text>
<text text-anchor="middle" x="226.5" y="-166.5" font-family="Helvetica,sans-Serif" font-size="10.00">::HoldWhileWriteInProgress</text>
</a>
</g>
</g>
<!-- Node20&#45;&gt;Node38 -->
<g id="edge27" class="edge"><title>Node20&#45;&gt;Node38</title>
<path fill="none" stroke="midnightblue" d="M89.4824,-230.344C107.986,-220.931 132.618,-208.881 155,-199.5 160.09,-197.367 165.433,-195.252 170.805,-193.21"/>
<polygon fill="midnightblue" stroke="midnightblue" points="172.303,-196.387 180.457,-189.622 169.864,-189.826 172.303,-196.387"/>
</g>
<!-- Node39 -->
<g id="node20" class="node"><title>Node39</title>
<g id="a_node20"><a xlink:href="../../d3/d0e/classinfra_1_1_interface_connector.html#aed1d9e952d3d0dfa68e59ee4e868b380" target="_top" xlink:title="infra::InterfaceConnector\l\&lt; EventDispatcherWorker\l \&gt;::Instance">
<polygon fill="white" stroke="black" points="162.5,-99 162.5,-140 290.5,-140 290.5,-99 162.5,-99"/>
<text text-anchor="start" x="170.5" y="-128" font-family="Helvetica,sans-Serif" font-size="10.00">infra::InterfaceConnector</text>
<text text-anchor="start" x="170.5" y="-117" font-family="Helvetica,sans-Serif" font-size="10.00">&lt; EventDispatcherWorker</text>
<text text-anchor="middle" x="226.5" y="-106" font-family="Helvetica,sans-Serif" font-size="10.00"> &gt;::Instance</text>
</a>
</g>
</g>
<!-- Node20&#45;&gt;Node39 -->
<g id="edge28" class="edge"><title>Node20&#45;&gt;Node39</title>
<path fill="none" stroke="midnightblue" d="M72.5255,-230.251C89.2305,-209.876 121.234,-173.657 155,-150.5 157.843,-148.55 160.828,-146.679 163.898,-144.89"/>
<polygon fill="midnightblue" stroke="midnightblue" points="165.628,-147.933 172.727,-140.069 162.273,-141.789 165.628,-147.933"/>
</g>
<!-- Node40 -->
<g id="node21" class="node"><title>Node40</title>
<g id="a_node21"><a xlink:href="../../d8/dcc/classinfra_1_1_sequencer.html#ade4e7fa24c5c9451ed375fe6c155f694" target="_top" xlink:title="infra::Sequencer::Load">
<polygon fill="white" stroke="black" points="169.5,-258 169.5,-277 283.5,-277 283.5,-258 169.5,-258"/>
<text text-anchor="middle" x="226.5" y="-265" font-family="Helvetica,sans-Serif" font-size="10.00">infra::Sequencer::Load</text>
</a>
</g>
</g>
<!-- Node20&#45;&gt;Node40 -->
<g id="edge29" class="edge"><title>Node20&#45;&gt;Node40</title>
<path fill="none" stroke="midnightblue" d="M119.137,-253.318C132.129,-255.05 145.983,-256.898 159.254,-258.667"/>
<polygon fill="midnightblue" stroke="midnightblue" points="158.889,-262.149 169.264,-260.002 159.815,-255.211 158.889,-262.149"/>
</g>
<!-- Node43 -->
<g id="node24" class="node"><title>Node43</title>
<g id="a_node24"><a xlink:href="../../d7/d34/classinfra_1_1_event_dispatcher_worker.html#a5922b8fd5101b15f20b639fcd11fa272" target="_top" xlink:title="infra::EventDispatcherWorker\l::Schedule">
<polygon fill="white" stroke="black" points="155,-49.5 155,-79.5 298,-79.5 298,-49.5 155,-49.5"/>
<text text-anchor="start" x="163" y="-67.5" font-family="Helvetica,sans-Serif" font-size="10.00">infra::EventDispatcherWorker</text>
<text text-anchor="middle" x="226.5" y="-56.5" font-family="Helvetica,sans-Serif" font-size="10.00">::Schedule</text>
</a>
</g>
</g>
<!-- Node20&#45;&gt;Node43 -->
<g id="edge37" class="edge"><title>Node20&#45;&gt;Node43</title>
<path fill="none" stroke="midnightblue" d="M65.7093,-230.267C77.048,-199.315 106.877,-128.692 155,-89.5 157.071,-87.8137 159.263,-86.2371 161.545,-84.7633"/>
<polygon fill="midnightblue" stroke="midnightblue" points="163.738,-87.544 170.72,-79.5745 160.292,-81.451 163.738,-87.544"/>
</g>
<!-- Node44 -->
<g id="node25" class="node"><title>Node44</title>
<g id="a_node25"><a xlink:href="../../d8/dcc/classinfra_1_1_sequencer.html#abe6c94f65a82b03dde3e4e8fb85c9cdc" target="_top" xlink:title="infra::Sequencer::Step">
<polygon fill="white" stroke="black" points="523,-591 523,-610 636,-610 636,-591 523,-591"/>
<text text-anchor="middle" x="579.5" y="-598" font-family="Helvetica,sans-Serif" font-size="10.00">infra::Sequencer::Step</text>
</a>
</g>
</g>
<!-- Node20&#45;&gt;Node44 -->
<g id="edge38" class="edge"><title>Node20&#45;&gt;Node44</title>
<path fill="none" stroke="midnightblue" d="M65.9253,-260.945C77.6623,-292.418 108.187,-364.694 155,-408.5 264.997,-511.432 439.664,-566.322 526.27,-588.516"/>
<polygon fill="midnightblue" stroke="midnightblue" points="525.581,-591.952 536.133,-590.999 527.29,-585.164 525.581,-591.952"/>
</g>
<!-- Node45 -->
<g id="node26" class="node"><title>Node45</title>
<g id="a_node26"><a xlink:href="../../d8/dcc/classinfra_1_1_sequencer.html#afc41c4a19e4ea4741222953cd5b3db33" target="_top" xlink:title="infra::Sequencer::While">
<polygon fill="white" stroke="black" points="167.5,-337 167.5,-356 285.5,-356 285.5,-337 167.5,-337"/>
<text text-anchor="middle" x="226.5" y="-344" font-family="Helvetica,sans-Serif" font-size="10.00">infra::Sequencer::While</text>
</a>
</g>
</g>
<!-- Node20&#45;&gt;Node45 -->
<g id="edge41" class="edge"><title>Node20&#45;&gt;Node45</title>
<path fill="none" stroke="midnightblue" d="M76.8189,-260.78C94.841,-277.032 125.259,-302.667 155,-319.5 164.422,-324.833 175.103,-329.535 185.251,-333.459"/>
<polygon fill="midnightblue" stroke="midnightblue" points="184.164,-336.788 194.757,-336.977 186.594,-330.224 184.164,-336.788"/>
</g>
<!-- Node47 -->
<g id="node28" class="node"><title>Node47</title>
<g id="a_node28"><a xlink:href="../../d0/db3/classservices_1_1_flash_quad_spi.html#a559b79ed0fd86309b6c3a36337c802b3" target="_top" xlink:title="services::FlashQuadSpi\l::WriteEnable">
<polygon fill="white" stroke="black" points="167,-0.5 167,-30.5 286,-30.5 286,-0.5 167,-0.5"/>
<text text-anchor="start" x="175" y="-18.5" font-family="Helvetica,sans-Serif" font-size="10.00">services::FlashQuadSpi</text>
<text text-anchor="middle" x="226.5" y="-7.5" font-family="Helvetica,sans-Serif" font-size="10.00">::WriteEnable</text>
</a>
</g>
</g>
<!-- Node20&#45;&gt;Node47 -->
<g id="edge46" class="edge"><title>Node20&#45;&gt;Node47</title>
<path fill="none" stroke="midnightblue" d="M63.1835,-230.391C70.6676,-192.65 95.2764,-93.4239 155,-39.5 156.32,-38.3086 157.701,-37.176 159.133,-36.0992"/>
<polygon fill="midnightblue" stroke="midnightblue" points="161.297,-38.8691 167.824,-30.5231 157.517,-32.9774 161.297,-38.8691"/>
</g>
<!-- Node22 -->
<g id="node3" class="node"><title>Node22</title>
<g id="a_node3"><a xlink:href="../../d8/dcc/classinfra_1_1_sequencer.html#a9654eb285041dab54e3f0e47b79a53dc" target="_top" xlink:title="infra::Sequencer::Execute\lPreviousStep">
<polygon fill="white" stroke="black" points="690.5,-205.5 690.5,-235.5 819.5,-235.5 819.5,-205.5 690.5,-205.5"/>
<text text-anchor="start" x="698.5" y="-223.5" font-family="Helvetica,sans-Serif" font-size="10.00">infra::Sequencer::Execute</text>
<text text-anchor="middle" x="755" y="-212.5" font-family="Helvetica,sans-Serif" font-size="10.00">PreviousStep</text>
</a>
</g>
</g>
<!-- Node21&#45;&gt;Node22 -->
<g id="edge2" class="edge"><title>Node21&#45;&gt;Node22</title>
<path fill="none" stroke="midnightblue" d="M443.855,-291.97C501.919,-278.59 608.527,-254.023 680.335,-237.475"/>
<polygon fill="midnightblue" stroke="midnightblue" points="681.269,-240.852 690.227,-235.196 679.697,-234.031 681.269,-240.852"/>
</g>
<!-- Node24 -->
<g id="node5" class="node"><title>Node24</title>
<g id="a_node5"><a xlink:href="../../d8/dcc/classinfra_1_1_sequencer.html#a40c4a5d093bef3a87c982a01f528f4de" target="_top" xlink:title="infra::Sequencer::Execute\lWithoutContext">
<polygon fill="white" stroke="black" points="515,-366.5 515,-396.5 644,-396.5 644,-366.5 515,-366.5"/>
<text text-anchor="start" x="523" y="-384.5" font-family="Helvetica,sans-Serif" font-size="10.00">infra::Sequencer::Execute</text>
<text text-anchor="middle" x="579.5" y="-373.5" font-family="Helvetica,sans-Serif" font-size="10.00">WithoutContext</text>
</a>
</g>
</g>
<!-- Node21&#45;&gt;Node24 -->
<g id="edge4" class="edge"><title>Node21&#45;&gt;Node24</title>
<path fill="none" stroke="midnightblue" d="M423.73,-311.15C451.51,-323.777 500.825,-346.193 536.332,-362.333"/>
<polygon fill="midnightblue" stroke="midnightblue" points="534.943,-365.546 545.495,-366.498 537.84,-359.173 534.943,-365.546"/>
</g>
<!-- Node28 -->
<g id="node9" class="node"><title>Node28</title>
<g id="a_node9"><a xlink:href="../../d8/dcc/classinfra_1_1_sequencer.html#a5a0bb79e770ee68910377bcbd24f9c14" target="_top" xlink:title="infra::Sequencer::PopContext">
<polygon fill="white" stroke="black" points="507.5,-290 507.5,-309 651.5,-309 651.5,-290 507.5,-290"/>
<text text-anchor="middle" x="579.5" y="-297" font-family="Helvetica,sans-Serif" font-size="10.00">infra::Sequencer::PopContext</text>
</a>
</g>
</g>
<!-- Node21&#45;&gt;Node28 -->
<g id="edge10" class="edge"><title>Node21&#45;&gt;Node28</title>
<path fill="none" stroke="midnightblue" d="M469.038,-300.744C478.26,-300.639 487.817,-300.53 497.269,-300.423"/>
<polygon fill="midnightblue" stroke="midnightblue" points="497.503,-303.921 507.463,-300.307 497.424,-296.921 497.503,-303.921"/>
</g>
<!-- Node23 -->
<g id="node4" class="node"><title>Node23</title>
<g id="a_node4"><a xlink:href="../../dc/de7/classinfra_1_1_bounded_vector.html#aa142a336c186d6e58c5573ba860be106" target="_top" xlink:title="infra::BoundedVector\l::back">
<polygon fill="white" stroke="black" points="856,-342.5 856,-372.5 963,-372.5 963,-342.5 856,-342.5"/>
<text text-anchor="start" x="864" y="-360.5" font-family="Helvetica,sans-Serif" font-size="10.00">infra::BoundedVector</text>
<text text-anchor="middle" x="909.5" y="-349.5" font-family="Helvetica,sans-Serif" font-size="10.00">::back</text>
</a>
</g>
</g>
<!-- Node22&#45;&gt;Node23 -->
<g id="edge3" class="edge"><title>Node22&#45;&gt;Node23</title>
<path fill="none" stroke="midnightblue" d="M772.903,-235.685C799.812,-259.859 852.528,-307.217 883.711,-335.231"/>
<polygon fill="midnightblue" stroke="midnightblue" points="881.743,-338.168 891.521,-342.247 886.421,-332.961 881.743,-338.168"/>
</g>
<!-- Node25 -->
<g id="node6" class="node"><title>Node25</title>
<g id="a_node6"><a xlink:href="../../d8/dcc/classinfra_1_1_sequencer.html#abfc36f76cfc75495f321bc6643826c98" target="_top" xlink:title="infra::Sequencer::Execute\lCurrentStep">
<polygon fill="white" stroke="black" points="690.5,-391.5 690.5,-421.5 819.5,-421.5 819.5,-391.5 690.5,-391.5"/>
<text text-anchor="start" x="698.5" y="-409.5" font-family="Helvetica,sans-Serif" font-size="10.00">infra::Sequencer::Execute</text>
<text text-anchor="middle" x="755" y="-398.5" font-family="Helvetica,sans-Serif" font-size="10.00">CurrentStep</text>
</a>
</g>
</g>
<!-- Node24&#45;&gt;Node25 -->
<g id="edge5" class="edge"><title>Node24&#45;&gt;Node25</title>
<path fill="none" stroke="midnightblue" d="M644.12,-390.667C655.907,-392.366 668.308,-394.152 680.364,-395.89"/>
<polygon fill="midnightblue" stroke="midnightblue" points="679.991,-399.372 690.388,-397.334 680.989,-392.443 679.991,-399.372"/>
</g>
<!-- Node26 -->
<g id="node7" class="node"><title>Node26</title>
<g id="a_node7"><a xlink:href="../../d8/dcc/classinfra_1_1_sequencer.html#a144aefdee6184f0c01287ef64e4e588a" target="_top" xlink:title="infra::Sequencer::Execute\lNextStep">
<polygon fill="white" stroke="black" points="690.5,-342.5 690.5,-372.5 819.5,-372.5 819.5,-342.5 690.5,-342.5"/>
<text text-anchor="start" x="698.5" y="-360.5" font-family="Helvetica,sans-Serif" font-size="10.00">infra::Sequencer::Execute</text>
<text text-anchor="middle" x="755" y="-349.5" font-family="Helvetica,sans-Serif" font-size="10.00">NextStep</text>
</a>
</g>
</g>
<!-- Node24&#45;&gt;Node26 -->
<g id="edge6" class="edge"><title>Node24&#45;&gt;Node26</title>
<path fill="none" stroke="midnightblue" d="M644.12,-372.7C655.907,-371.069 668.308,-369.354 680.364,-367.686"/>
<polygon fill="midnightblue" stroke="midnightblue" points="680.962,-371.137 690.388,-366.299 680.003,-364.203 680.962,-371.137"/>
</g>
<!-- Node27 -->
<g id="node8" class="node"><title>Node27</title>
<g id="a_node8"><a xlink:href="../../d8/dcc/classinfra_1_1_sequencer.html#aa1da1c05382c54296fe23b30d6cf6cf8" target="_top" xlink:title="infra::Sequencer::Increase\lCurrentStep">
<polygon fill="white" stroke="black" points="690,-440.5 690,-470.5 820,-470.5 820,-440.5 690,-440.5"/>
<text text-anchor="start" x="698" y="-458.5" font-family="Helvetica,sans-Serif" font-size="10.00">infra::Sequencer::Increase</text>
<text text-anchor="middle" x="755" y="-447.5" font-family="Helvetica,sans-Serif" font-size="10.00">CurrentStep</text>
</a>
</g>
</g>
<!-- Node24&#45;&gt;Node27 -->
<g id="edge8" class="edge"><title>Node24&#45;&gt;Node27</title>
<path fill="none" stroke="midnightblue" d="M631.084,-396.616C638.908,-399.547 646.78,-402.856 654,-406.5 671.39,-415.277 672.748,-422.455 690,-431.5 693.238,-433.198 696.624,-434.835 700.075,-436.4"/>
<polygon fill="midnightblue" stroke="midnightblue" points="698.737,-439.635 709.306,-440.373 701.504,-433.205 698.737,-439.635"/>
</g>
<!-- Node26&#45;&gt;Node23 -->
<g id="edge7" class="edge"><title>Node26&#45;&gt;Node23</title>
<path fill="none" stroke="midnightblue" d="M819.79,-357.5C828.262,-357.5 836.945,-357.5 845.405,-357.5"/>
<polygon fill="midnightblue" stroke="midnightblue" points="845.584,-361 855.584,-357.5 845.584,-354 845.584,-361"/>
</g>
<!-- Node27&#45;&gt;Node23 -->
<g id="edge9" class="edge"><title>Node27&#45;&gt;Node23</title>
<path fill="none" stroke="midnightblue" d="M801.978,-440.424C808.191,-437.768 814.361,-434.786 820,-431.5 844.761,-417.072 869.49,-395.655 886.488,-379.569"/>
<polygon fill="midnightblue" stroke="midnightblue" points="888.951,-382.055 893.726,-372.597 884.095,-377.014 888.951,-382.055"/>
</g>
<!-- Node28&#45;&gt;Node25 -->
<g id="edge12" class="edge"><title>Node28&#45;&gt;Node25</title>
<path fill="none" stroke="midnightblue" d="M592.822,-309.16C619.205,-329.795 679.606,-376.772 690,-382.5 693.055,-384.183 696.251,-385.797 699.517,-387.333"/>
<polygon fill="midnightblue" stroke="midnightblue" points="698.283,-390.615 708.845,-391.458 701.114,-384.213 698.283,-390.615"/>
</g>
<!-- Node28&#45;&gt;Node26 -->
<g id="edge13" class="edge"><title>Node28&#45;&gt;Node26</title>
<path fill="none" stroke="midnightblue" d="M610.21,-309.111C623.602,-313.466 639.61,-318.704 654,-323.5 669.127,-328.541 685.515,-334.08 700.562,-339.197"/>
<polygon fill="midnightblue" stroke="midnightblue" points="699.635,-342.579 710.229,-342.49 701.892,-335.953 699.635,-342.579"/>
</g>
<!-- Node28&#45;&gt;Node27 -->
<g id="edge16" class="edge"><title>Node28&#45;&gt;Node27</title>
<path fill="none" stroke="midnightblue" d="M596.573,-309.111C612.75,-319.429 637.59,-337.114 654,-357.5 676.934,-385.991 662.951,-406.882 690,-431.5 691.297,-432.681 692.658,-433.805 694.071,-434.876"/>
<polygon fill="midnightblue" stroke="midnightblue" points="692.353,-437.933 702.648,-440.437 696.161,-432.06 692.353,-437.933"/>
</g>
<!-- Node29 -->
<g id="node10" class="node"><title>Node29</title>
<g id="a_node10"><a xlink:href="../../dc/de7/classinfra_1_1_bounded_vector.html#ab9477e08e53eb7d020fac8bd1d37fda7" target="_top" xlink:title="infra::BoundedVector\l::empty">
<polygon fill="white" stroke="black" points="856,-205.5 856,-235.5 963,-235.5 963,-205.5 856,-205.5"/>
<text text-anchor="start" x="864" y="-223.5" font-family="Helvetica,sans-Serif" font-size="10.00">infra::BoundedVector</text>
<text text-anchor="middle" x="909.5" y="-212.5" font-family="Helvetica,sans-Serif" font-size="10.00">::empty</text>
</a>
</g>
</g>
<!-- Node28&#45;&gt;Node29 -->
<g id="edge11" class="edge"><title>Node28&#45;&gt;Node29</title>
<path fill="none" stroke="midnightblue" d="M626.141,-289.97C674.459,-279.704 752.865,-262.538 820,-245.5 828.864,-243.25 838.193,-240.756 847.334,-238.239"/>
<polygon fill="midnightblue" stroke="midnightblue" points="848.452,-241.56 857.148,-235.509 846.576,-234.817 848.452,-241.56"/>
</g>
<!-- Node30 -->
<g id="node11" class="node"><title>Node30</title>
<g id="a_node11"><a xlink:href="../../d8/dcc/classinfra_1_1_sequencer.html#aa8d62e488058da02b14a31017a33b199" target="_top" xlink:title="infra::Sequencer::Finished">
<polygon fill="white" stroke="black" points="690,-167 690,-186 820,-186 820,-167 690,-167"/>
<text text-anchor="middle" x="755" y="-174" font-family="Helvetica,sans-Serif" font-size="10.00">infra::Sequencer::Finished</text>
</a>
</g>
</g>
<!-- Node28&#45;&gt;Node30 -->
<g id="edge14" class="edge"><title>Node28&#45;&gt;Node30</title>
<path fill="none" stroke="midnightblue" d="M588.194,-289.743C604.695,-269.452 645.609,-222.441 690,-196.5 694.41,-193.923 699.188,-191.642 704.079,-189.631"/>
<polygon fill="midnightblue" stroke="midnightblue" points="705.413,-192.869 713.555,-186.09 702.962,-186.312 705.413,-192.869"/>
</g>
<!-- Node31 -->
<g id="node12" class="node"><title>Node31</title>
<g id="a_node12"><a xlink:href="../../dc/de7/classinfra_1_1_bounded_vector.html#acd442a237e9f5935f766dd3ef4a818e9" target="_top" xlink:title="infra::BoundedVector\l::pop_back">
<polygon fill="white" stroke="black" points="701.5,-293.5 701.5,-323.5 808.5,-323.5 808.5,-293.5 701.5,-293.5"/>
<text text-anchor="start" x="709.5" y="-311.5" font-family="Helvetica,sans-Serif" font-size="10.00">infra::BoundedVector</text>
<text text-anchor="middle" x="755" y="-300.5" font-family="Helvetica,sans-Serif" font-size="10.00">::pop_back</text>
</a>
</g>
</g>
<!-- Node28&#45;&gt;Node31 -->
<g id="edge17" class="edge"><title>Node28&#45;&gt;Node31</title>
<path fill="none" stroke="midnightblue" d="M651.57,-303.187C664.714,-303.868 678.354,-304.576 691.23,-305.244"/>
<polygon fill="midnightblue" stroke="midnightblue" points="691.201,-308.747 701.368,-305.77 691.563,-301.756 691.201,-308.747"/>
</g>
<!-- Node30&#45;&gt;Node29 -->
<g id="edge15" class="edge"><title>Node30&#45;&gt;Node29</title>
<path fill="none" stroke="midnightblue" d="M789.09,-186.047C805.877,-190.891 826.824,-196.935 846.467,-202.602"/>
<polygon fill="midnightblue" stroke="midnightblue" points="845.706,-206.025 856.285,-205.435 847.647,-199.3 845.706,-206.025"/>
</g>
<!-- Node33&#45;&gt;Node27 -->
<g id="edge20" class="edge"><title>Node33&#45;&gt;Node27</title>
<path fill="none" stroke="midnightblue" d="M466.154,-446.492C526.217,-448.372 616.259,-451.189 679.607,-453.172"/>
<polygon fill="midnightblue" stroke="midnightblue" points="679.825,-456.68 689.929,-453.495 680.044,-449.684 679.825,-456.68"/>
</g>
<!-- Node33&#45;&gt;Node28 -->
<g id="edge21" class="edge"><title>Node33&#45;&gt;Node28</title>
<path fill="none" stroke="midnightblue" d="M413.464,-434.971C432.1,-418.825 471.224,-385.146 505,-357.5 522.77,-342.955 543.311,-326.8 558.153,-315.242"/>
<polygon fill="midnightblue" stroke="midnightblue" points="560.419,-317.913 566.169,-309.014 556.124,-312.385 560.419,-317.913"/>
</g>
<!-- Node34 -->
<g id="node15" class="node"><title>Node34</title>
<g id="a_node15"><a xlink:href="../../d8/dcc/classinfra_1_1_sequencer.html#adb44b85c61f00faae6ca6ad1de6a7380" target="_top" xlink:title="infra::Sequencer::PushContext">
<polygon fill="white" stroke="black" points="505,-416 505,-435 654,-435 654,-416 505,-416"/>
<text text-anchor="middle" x="579.5" y="-423" font-family="Helvetica,sans-Serif" font-size="10.00">infra::Sequencer::PushContext</text>
</a>
</g>
</g>
<!-- Node33&#45;&gt;Node34 -->
<g id="edge22" class="edge"><title>Node33&#45;&gt;Node34</title>
<path fill="none" stroke="midnightblue" d="M466.04,-437.641C475.394,-436.631 485.149,-435.578 494.833,-434.532"/>
<polygon fill="midnightblue" stroke="midnightblue" points="495.313,-438.001 504.88,-433.448 494.562,-431.041 495.313,-438.001"/>
</g>
<!-- Node36 -->
<g id="node17" class="node"><title>Node36</title>
<g id="a_node17"><a xlink:href="../../dc/de7/classinfra_1_1_bounded_vector.html#afa10f6004fa9f862b5e1609b29a32a19" target="_top" xlink:title="infra::BoundedVector\l::resize">
<polygon fill="white" stroke="black" points="526,-541.5 526,-571.5 633,-571.5 633,-541.5 526,-541.5"/>
<text text-anchor="start" x="534" y="-559.5" font-family="Helvetica,sans-Serif" font-size="10.00">infra::BoundedVector</text>
<text text-anchor="middle" x="579.5" y="-548.5" font-family="Helvetica,sans-Serif" font-size="10.00">::resize</text>
</a>
</g>
</g>
<!-- Node33&#45;&gt;Node36 -->
<g id="edge25" class="edge"><title>Node33&#45;&gt;Node36</title>
<path fill="none" stroke="midnightblue" d="M411.157,-454.11C427.721,-471.959 465.755,-510.418 505,-532.5 508.619,-534.536 512.437,-536.431 516.353,-538.189"/>
<polygon fill="midnightblue" stroke="midnightblue" points="515.042,-541.434 525.62,-542.043 517.731,-534.971 515.042,-541.434"/>
</g>
<!-- Node37 -->
<g id="node18" class="node"><title>Node37</title>
<g id="a_node18"><a xlink:href="../../dc/de7/classinfra_1_1_bounded_vector.html#a605f344af39e74f48bb205c86f57b5da" target="_top" xlink:title="infra::BoundedVector\l::size">
<polygon fill="white" stroke="black" points="526,-492.5 526,-522.5 633,-522.5 633,-492.5 526,-492.5"/>
<text text-anchor="start" x="534" y="-510.5" font-family="Helvetica,sans-Serif" font-size="10.00">infra::BoundedVector</text>
<text text-anchor="middle" x="579.5" y="-499.5" font-family="Helvetica,sans-Serif" font-size="10.00">::size</text>
</a>
</g>
</g>
<!-- Node33&#45;&gt;Node37 -->
<g id="edge26" class="edge"><title>Node33&#45;&gt;Node37</title>
<path fill="none" stroke="midnightblue" d="M429.231,-454.068C455.026,-463.302 494.766,-477.527 526.758,-488.979"/>
<polygon fill="midnightblue" stroke="midnightblue" points="525.819,-492.36 536.414,-492.435 528.178,-485.77 525.819,-492.36"/>
</g>
<!-- Node34&#45;&gt;Node25 -->
<g id="edge23" class="edge"><title>Node34&#45;&gt;Node25</title>
<path fill="none" stroke="midnightblue" d="M654.08,-417.442C662.776,-416.49 671.653,-415.518 680.35,-414.565"/>
<polygon fill="midnightblue" stroke="midnightblue" points="680.896,-418.027 690.455,-413.459 680.134,-411.068 680.896,-418.027"/>
</g>
<!-- Node35 -->
<g id="node16" class="node"><title>Node35</title>
<g id="a_node16"><a xlink:href="../../dc/de7/classinfra_1_1_bounded_vector.html#a17cb2ff4e6291f156cb5a41cca1b4edf" target="_top" xlink:title="infra::BoundedVector\l::push_back">
<polygon fill="white" stroke="black" points="701.5,-489.5 701.5,-519.5 808.5,-519.5 808.5,-489.5 701.5,-489.5"/>
<text text-anchor="start" x="709.5" y="-507.5" font-family="Helvetica,sans-Serif" font-size="10.00">infra::BoundedVector</text>
<text text-anchor="middle" x="755" y="-496.5" font-family="Helvetica,sans-Serif" font-size="10.00">::push_back</text>
</a>
</g>
</g>
<!-- Node34&#45;&gt;Node35 -->
<g id="edge24" class="edge"><title>Node34&#45;&gt;Node35</title>
<path fill="none" stroke="midnightblue" d="M598.051,-435.046C619.449,-446.513 656.863,-466.014 690,-480.5 693.914,-482.211 697.993,-483.916 702.113,-485.582"/>
<polygon fill="midnightblue" stroke="midnightblue" points="701.156,-488.967 711.743,-489.384 703.727,-482.456 701.156,-488.967"/>
</g>
<!-- Node41 -->
<g id="node22" class="node"><title>Node41</title>
<g id="a_node22"><a xlink:href="../../dc/de7/classinfra_1_1_bounded_vector.html#a0d65fc52854eb5ee43419e451e3cd49a" target="_top" xlink:title="infra::BoundedVector\l::clear">
<polygon fill="white" stroke="black" points="526,-126.5 526,-156.5 633,-156.5 633,-126.5 526,-126.5"/>
<text text-anchor="start" x="534" y="-144.5" font-family="Helvetica,sans-Serif" font-size="10.00">infra::BoundedVector</text>
<text text-anchor="middle" x="579.5" y="-133.5" font-family="Helvetica,sans-Serif" font-size="10.00">::clear</text>
</a>
</g>
</g>
<!-- Node40&#45;&gt;Node41 -->
<g id="edge30" class="edge"><title>Node40&#45;&gt;Node41</title>
<path fill="none" stroke="midnightblue" d="M271.897,-257.896C280.73,-255.332 289.803,-252.216 298,-248.5 315.514,-240.56 316.749,-232.996 334,-224.5 393.379,-195.256 465.6,-172.134 516.095,-157.802"/>
<polygon fill="midnightblue" stroke="midnightblue" points="517.211,-161.124 525.894,-155.053 515.321,-154.384 517.211,-161.124"/>
</g>
<!-- Node42 -->
<g id="node23" class="node"><title>Node42</title>
<g id="a_node23"><a xlink:href="../../d8/dcc/classinfra_1_1_sequencer.html#a540855dbc1e4f39faed3b55ec7c947c0" target="_top" xlink:title="infra::Sequencer::Continue">
<polygon fill="white" stroke="black" points="336,-234 336,-253 467,-253 467,-234 336,-234"/>
<text text-anchor="middle" x="401.5" y="-241" font-family="Helvetica,sans-Serif" font-size="10.00">infra::Sequencer::Continue</text>
</a>
</g>
</g>
<!-- Node40&#45;&gt;Node42 -->
<g id="edge31" class="edge"><title>Node40&#45;&gt;Node42</title>
<path fill="none" stroke="midnightblue" d="M283.668,-259.708C297.085,-257.847 311.617,-255.831 325.726,-253.873"/>
<polygon fill="midnightblue" stroke="midnightblue" points="326.477,-257.303 335.901,-252.462 325.515,-250.369 326.477,-257.303"/>
</g>
<!-- Node42&#45;&gt;Node26 -->
<g id="edge33" class="edge"><title>Node42&#45;&gt;Node26</title>
<path fill="none" stroke="midnightblue" d="M467.033,-239.191C520.954,-238.65 597.822,-245.271 654,-280.5 678.125,-295.628 667.618,-315.896 690,-333.5 691.609,-334.765 693.292,-335.969 695.031,-337.114"/>
<polygon fill="midnightblue" stroke="midnightblue" points="693.708,-340.392 704.118,-342.359 697.207,-334.329 693.708,-340.392"/>
</g>
<!-- Node42&#45;&gt;Node28 -->
<g id="edge35" class="edge"><title>Node42&#45;&gt;Node28</title>
<path fill="none" stroke="midnightblue" d="M432.755,-253.127C462.148,-262.479 506.929,-276.727 539.093,-286.962"/>
<polygon fill="midnightblue" stroke="midnightblue" points="538.049,-290.302 548.639,-289.999 540.171,-283.632 538.049,-290.302"/>
</g>
<!-- Node42&#45;&gt;Node30 -->
<g id="edge34" class="edge"><title>Node42&#45;&gt;Node30</title>
<path fill="none" stroke="midnightblue" d="M426.982,-233.927C447.519,-226.251 477.775,-215.76 505,-209.5 563.048,-196.152 630.038,-187.653 679.902,-182.629"/>
<polygon fill="midnightblue" stroke="midnightblue" points="680.347,-186.102 689.956,-181.64 679.661,-179.136 680.347,-186.102"/>
</g>
<!-- Node42&#45;&gt;Node34 -->
<g id="edge36" class="edge"><title>Node42&#45;&gt;Node34</title>
<path fill="none" stroke="midnightblue" d="M428.186,-253.011C442.111,-259.384 458.559,-269.087 469,-282.5 504.251,-327.783 463.826,-366.526 505,-406.5 506.489,-407.946 508.074,-409.286 509.736,-410.527"/>
<polygon fill="midnightblue" stroke="midnightblue" points="508.254,-413.724 518.612,-415.95 511.903,-407.75 508.254,-413.724"/>
</g>
<!-- Node42&#45;&gt;Node41 -->
<g id="edge32" class="edge"><title>Node42&#45;&gt;Node41</title>
<path fill="none" stroke="midnightblue" d="M414.231,-233.929C432.704,-219.172 470.074,-190.577 505,-171.5 512.137,-167.601 519.889,-163.906 527.594,-160.528"/>
<polygon fill="midnightblue" stroke="midnightblue" points="529.083,-163.698 536.923,-156.571 526.35,-157.253 529.083,-163.698"/>
</g>
<!-- Node44&#45;&gt;Node25 -->
<g id="edge39" class="edge"><title>Node44&#45;&gt;Node25</title>
<path fill="none" stroke="midnightblue" d="M636.251,-593.161C642.857,-590.356 649.011,-586.576 654,-581.5 702.055,-532.6 644.949,-483.18 690,-431.5 691.159,-430.171 692.397,-428.912 693.702,-427.719"/>
<polygon fill="midnightblue" stroke="midnightblue" points="695.943,-430.413 701.81,-421.591 691.722,-424.828 695.943,-430.413"/>
</g>
<!-- Node44&#45;&gt;Node27 -->
<g id="edge40" class="edge"><title>Node44&#45;&gt;Node27</title>
<path fill="none" stroke="midnightblue" d="M636.129,-592.498C642.674,-589.79 648.845,-586.214 654,-581.5 689.17,-549.343 656.812,-514.699 690,-480.5 691.402,-479.055 692.897,-477.693 694.467,-476.407"/>
<polygon fill="midnightblue" stroke="midnightblue" points="696.624,-479.171 702.856,-470.603 692.641,-473.415 696.624,-479.171"/>
</g>
<!-- Node46 -->
<g id="node27" class="node"><title>Node46</title>
<g id="a_node27"><a xlink:href="../../d8/dcc/classinfra_1_1_sequencer.html#a0e40d6564269650aee9417413f24dc10" target="_top" xlink:title="infra::Sequencer::If">
<polygon fill="white" stroke="black" points="352.5,-345 352.5,-364 450.5,-364 450.5,-345 352.5,-345"/>
<text text-anchor="middle" x="401.5" y="-352" font-family="Helvetica,sans-Serif" font-size="10.00">infra::Sequencer::If</text>
</a>
</g>
</g>
<!-- Node45&#45;&gt;Node46 -->
<g id="edge42" class="edge"><title>Node45&#45;&gt;Node46</title>
<path fill="none" stroke="midnightblue" d="M285.588,-349.186C303.807,-350.029 323.918,-350.959 342.155,-351.802"/>
<polygon fill="midnightblue" stroke="midnightblue" points="342.206,-355.308 352.357,-352.274 342.53,-348.315 342.206,-355.308"/>
</g>
<!-- Node46&#45;&gt;Node24 -->
<g id="edge44" class="edge"><title>Node46&#45;&gt;Node24</title>
<path fill="none" stroke="midnightblue" d="M450.593,-361.878C467.338,-364.447 486.53,-367.391 504.866,-370.204"/>
<polygon fill="midnightblue" stroke="midnightblue" points="504.529,-373.693 514.944,-371.75 505.591,-366.774 504.529,-373.693"/>
</g>
<!-- Node46&#45;&gt;Node26 -->
<g id="edge43" class="edge"><title>Node46&#45;&gt;Node26</title>
<path fill="none" stroke="midnightblue" d="M450.638,-354.911C509.834,-355.416 610.937,-356.279 680.025,-356.869"/>
<polygon fill="midnightblue" stroke="midnightblue" points="680.372,-360.372 690.402,-356.957 680.432,-353.372 680.372,-360.372"/>
</g>
<!-- Node46&#45;&gt;Node34 -->
<g id="edge45" class="edge"><title>Node46&#45;&gt;Node34</title>
<path fill="none" stroke="midnightblue" d="M418.687,-364.103C438.479,-375.514 473.267,-394.511 505,-406.5 511.461,-408.941 518.357,-411.179 525.239,-413.195"/>
<polygon fill="midnightblue" stroke="midnightblue" points="524.688,-416.674 535.26,-415.986 526.566,-409.931 524.688,-416.674"/>
</g>
</g>
</svg>
