<?xml version="1.0" encoding="UTF-8" standalone="no"?>
<!DOCTYPE svg PUBLIC "-//W3C//DTD SVG 1.1//EN"
 "http://www.w3.org/Graphics/SVG/1.1/DTD/svg11.dtd">
<!-- Generated by graphviz version 2.38.0 (20140413.2041)
 -->
<!-- Title: infra::TimerLimitedRepeating Pages: 1 -->
<!--zoomable 351 -->
<svg id="main" version="1.1" xmlns="http://www.w3.org/2000/svg" xmlns:xlink="http://www.w3.org/1999/xlink" xml:space="preserve" onload="init(evt)">
<style type="text/css"><![CDATA[
.edge:hover path { stroke: red; }
.edge:hover polygon { stroke: red; fill: red; }
]]></style>
<script type="text/javascript"><![CDATA[
var edges = document.getElementsByTagName('g');
if (edges && edges.length) {
  for (var i=0;i<edges.length;i++) {
    if (edges[i].id.substr(0,4)=='edge') {
      edges[i].setAttribute('class','edge');
    }
  }
}
]]></script>
        <defs>
                <circle id="rim" cx="0" cy="0" r="7"/>
                <circle id="rim2" cx="0" cy="0" r="3.5"/>
                <g id="zoomPlus">
                        <use xlink:href="#rim" fill="#404040">
                                <set attributeName="fill" to="#808080" begin="zoomplus.mouseover" end="zoomplus.mouseout"/>
                        </use>
                        <path d="M-4,0h8M0,-4v8" fill="none" stroke="white" stroke-width="1.5" pointer-events="none"/>
                </g>
                <g id="zoomMin">
                        <use xlink:href="#rim" fill="#404040">
                                <set attributeName="fill" to="#808080" begin="zoomminus.mouseover" end="zoomminus.mouseout"/>
                        </use>
                        <path d="M-4,0h8" fill="none" stroke="white" stroke-width="1.5" pointer-events="none"/>
                </g>
                <g id="dirArrow">
                        <path fill="none" stroke="white" stroke-width="1.5" d="M0,-3.0v7 M-2.5,-0.5L0,-3.0L2.5,-0.5"/>
                </g>
               <g id="resetDef">
                       <use xlink:href="#rim2" fill="#404040">
                               <set attributeName="fill" to="#808080" begin="reset.mouseover" end="reset.mouseout"/>
                       </use>
               </g>
        </defs>

<script type="text/javascript">
var viewWidth = 1044;
var viewHeight = 351;
var sectionId = 'dynsection-1';
</script>
<script xlink:href="../../svgpan.js"/>
<svg id="graph" class="graph">
<g id="viewport">
<title>infra::TimerLimitedRepeating</title>
<polygon fill="white" stroke="none" points="-4,4 -4,-347 1040,-347 1040,4 -4,4"/>
<!-- Node3 -->
<g id="node1" class="node"><title>Node3</title>
<polygon fill="#bfbfbf" stroke="black" points="896,-76.5 896,-95.5 1036,-95.5 1036,-76.5 896,-76.5"/>
<text text-anchor="middle" x="966" y="-83.5" font-family="Helvetica,sans-Serif" font-size="10.00">infra::TimerLimitedRepeating</text>
</g>
<!-- Node4 -->
<g id="node2" class="node"><title>Node4</title>
<g id="a_node2"><a xlink:href="../../d5/da5/classinfra_1_1_timer.html" target="_top" xlink:title="infra::Timer">
<polygon fill="white" stroke="black" points="737,-168.5 737,-187.5 802,-187.5 802,-168.5 737,-168.5"/>
<text text-anchor="middle" x="769.5" y="-175.5" font-family="Helvetica,sans-Serif" font-size="10.00">infra::Timer</text>
</a>
</g>
</g>
<!-- Node4&#45;&gt;Node3 -->
<g id="edge1" class="edge"><title>Node4&#45;&gt;Node3</title>
<path fill="none" stroke="midnightblue" d="M811.999,-168.901C832.439,-163.613 857.116,-155.999 878,-146 907.291,-131.976 937.668,-108.662 953.627,-95.6083"/>
<polygon fill="midnightblue" stroke="midnightblue" points="810.898,-165.568 802.04,-171.382 812.59,-172.361 810.898,-165.568"/>
</g>
<!-- Node5 -->
<g id="node3" class="node"><title>Node5</title>
<g id="a_node3"><a xlink:href="../../d7/d4a/classinfra_1_1detail_1_1_intrusive_forward_list_node.html" target="_top" xlink:title="infra::IntrusiveForwardList\l\&lt; Timer \&gt;::NodeType">
<polygon fill="white" stroke="black" points="368,-40 368,-70 494,-70 494,-40 368,-40"/>
<text text-anchor="start" x="376" y="-58" font-family="Helvetica,sans-Serif" font-size="10.00">infra::IntrusiveForwardList</text>
<text text-anchor="middle" x="431" y="-47" font-family="Helvetica,sans-Serif" font-size="10.00">&lt; Timer &gt;::NodeType</text>
</a>
</g>
</g>
<!-- Node5&#45;&gt;Node4 -->
<g id="edge2" class="edge"><title>Node5&#45;&gt;Node4</title>
<path fill="none" stroke="midnightblue" d="M469.61,-75.7402C478.499,-81.9894 487.323,-89.4859 494,-98 507.804,-115.601 494.508,-131.058 512,-145 577.655,-197.332 684.257,-190.818 736.952,-183.506"/>
<polygon fill="midnightblue" stroke="midnightblue" points="471.408,-72.7329 461.136,-70.1384 467.548,-78.5725 471.408,-72.7329"/>
</g>
<!-- Node6 -->
<g id="node4" class="node"><title>Node6</title>
<polygon fill="white" stroke="#bfbfbf" points="0,-77 0,-107 125,-107 125,-77 0,-77"/>
<text text-anchor="start" x="8" y="-95" font-family="Helvetica,sans-Serif" font-size="10.00">IntrusiveForwardListNode</text>
<text text-anchor="middle" x="62.5" y="-84" font-family="Helvetica,sans-Serif" font-size="10.00">&lt; T &gt; *</text>
</g>
<!-- Node6&#45;&gt;Node5 -->
<g id="edge3" class="edge"><title>Node6&#45;&gt;Node5</title>
<path fill="none" stroke="#9a32cd" stroke-dasharray="5,2" d="M135.426,-84.7387C203.193,-77.8973 303.666,-67.754 367.989,-61.2603"/>
<polygon fill="#9a32cd" stroke="#9a32cd" points="134.855,-81.2785 125.257,-85.7653 135.558,-88.2431 134.855,-81.2785"/>
<text text-anchor="middle" x="167.5" y="-87" font-family="Helvetica,sans-Serif" font-size="10.00"> next</text>
</g>
<!-- Node10 -->
<g id="node8" class="node"><title>Node10</title>
<g id="a_node8"><a xlink:href="../../d7/d4a/classinfra_1_1detail_1_1_intrusive_forward_list_node.html" target="_top" xlink:title="infra::IntrusiveForwardList\l\&lt; TimerService \&gt;::NodeType">
<polygon fill="white" stroke="black" points="210,-142 210,-172 350,-172 350,-142 210,-142"/>
<text text-anchor="start" x="218" y="-160" font-family="Helvetica,sans-Serif" font-size="10.00">infra::IntrusiveForwardList</text>
<text text-anchor="middle" x="280" y="-149" font-family="Helvetica,sans-Serif" font-size="10.00">&lt; TimerService &gt;::NodeType</text>
</a>
</g>
</g>
<!-- Node6&#45;&gt;Node10 -->
<g id="edge8" class="edge"><title>Node6&#45;&gt;Node10</title>
<path fill="none" stroke="#9a32cd" stroke-dasharray="5,2" d="M123.09,-109.974C156.352,-120.006 197.323,-132.364 228.917,-141.894"/>
<polygon fill="#9a32cd" stroke="#9a32cd" points="124.066,-106.613 113.482,-107.076 122.045,-113.314 124.066,-106.613"/>
<text text-anchor="middle" x="167.5" y="-134" font-family="Helvetica,sans-Serif" font-size="10.00"> next</text>
</g>
<!-- Node7 -->
<g id="node5" class="node"><title>Node7</title>
<g id="a_node5"><a xlink:href="../../da/d07/classinfra_1_1_function.html" target="_top" xlink:title="infra::Function\&lt; void()\&gt;">
<polygon fill="white" stroke="black" points="512,-116.5 512,-135.5 628,-135.5 628,-116.5 512,-116.5"/>
<text text-anchor="middle" x="570" y="-123.5" font-family="Helvetica,sans-Serif" font-size="10.00">infra::Function&lt; void()&gt;</text>
</a>
</g>
</g>
<!-- Node7&#45;&gt;Node3 -->
<g id="edge17" class="edge"><title>Node7&#45;&gt;Node3</title>
<path fill="none" stroke="#9a32cd" stroke-dasharray="5,2" d="M638.372,-121.755C700.672,-117.483 795.773,-110.084 878,-100 888.326,-98.7338 899.304,-97.1524 909.86,-95.5127"/>
<polygon fill="#9a32cd" stroke="#9a32cd" points="638.02,-118.27 628.28,-122.439 638.494,-125.254 638.02,-118.27"/>
<text text-anchor="middle" x="769.5" y="-118" font-family="Helvetica,sans-Serif" font-size="10.00"> action</text>
</g>
<!-- Node7&#45;&gt;Node4 -->
<g id="edge4" class="edge"><title>Node7&#45;&gt;Node4</title>
<path fill="none" stroke="#9a32cd" stroke-dasharray="5,2" d="M638.208,-134.084C663.9,-138.253 693.208,-144.336 719,-153 730.682,-156.924 743.057,-163.174 752.511,-168.443"/>
<polygon fill="#9a32cd" stroke="#9a32cd" points="638.604,-130.604 628.185,-132.524 637.528,-137.52 638.604,-130.604"/>
<text text-anchor="middle" x="682.5" y="-156" font-family="Helvetica,sans-Serif" font-size="10.00"> action</text>
</g>
<!-- Node8 -->
<g id="node6" class="node"><title>Node8</title>
<polygon fill="white" stroke="#bfbfbf" points="519,-201.5 519,-220.5 621,-220.5 621,-201.5 519,-201.5"/>
<text text-anchor="middle" x="570" y="-208.5" font-family="Helvetica,sans-Serif" font-size="10.00">array&lt; uint32_t, 2 &gt;</text>
</g>
<!-- Node8&#45;&gt;Node4 -->
<g id="edge5" class="edge"><title>Node8&#45;&gt;Node4</title>
<path fill="none" stroke="#9a32cd" stroke-dasharray="5,2" d="M631.207,-203.04C658.139,-199.224 690.236,-194.327 719,-189 724.8,-187.926 730.954,-186.661 736.88,-185.378"/>
<polygon fill="#9a32cd" stroke="#9a32cd" points="630.574,-199.594 621.156,-204.447 631.545,-206.526 630.574,-199.594"/>
<text text-anchor="middle" x="682.5" y="-204" font-family="Helvetica,sans-Serif" font-size="10.00"> nextTriggerTime</text>
</g>
<!-- Node9 -->
<g id="node7" class="node"><title>Node9</title>
<g id="a_node7"><a xlink:href="../../da/def/classinfra_1_1_timer_service.html" target="_top" xlink:title="infra::TimerService">
<polygon fill="white" stroke="black" points="522,-239.5 522,-258.5 618,-258.5 618,-239.5 522,-239.5"/>
<text text-anchor="middle" x="570" y="-246.5" font-family="Helvetica,sans-Serif" font-size="10.00">infra::TimerService</text>
</a>
</g>
</g>
<!-- Node9&#45;&gt;Node4 -->
<g id="edge6" class="edge"><title>Node9&#45;&gt;Node4</title>
<path fill="none" stroke="#9a32cd" stroke-dasharray="5,2" d="M628.162,-242.197C656.446,-237.369 690.535,-229.298 719,-216 734.312,-208.846 749.344,-196.3 758.751,-187.59"/>
<polygon fill="#9a32cd" stroke="#9a32cd" points="627.34,-238.784 618.025,-243.833 628.455,-245.695 627.34,-238.784"/>
<text text-anchor="middle" x="682.5" y="-242" font-family="Helvetica,sans-Serif" font-size="10.00"> timerService</text>
</g>
<!-- Node10&#45;&gt;Node9 -->
<g id="edge7" class="edge"><title>Node10&#45;&gt;Node9</title>
<path fill="none" stroke="midnightblue" d="M360.556,-159.904C403.227,-164.799 454.916,-176.391 494,-203 505.921,-211.117 500.539,-221.246 512,-230 517.057,-233.862 522.94,-236.963 528.969,-239.445"/>
<polygon fill="midnightblue" stroke="midnightblue" points="360.787,-156.409 350.478,-158.851 360.06,-163.371 360.787,-156.409"/>
</g>
<!-- Node11 -->
<g id="node9" class="node"><title>Node11</title>
<polygon fill="white" stroke="#bfbfbf" points="249,-97.5 249,-116.5 311,-116.5 311,-97.5 249,-97.5"/>
<text text-anchor="middle" x="280" y="-104.5" font-family="Helvetica,sans-Serif" font-size="10.00">time_point</text>
</g>
<!-- Node11&#45;&gt;Node3 -->
<g id="edge16" class="edge"><title>Node11&#45;&gt;Node3</title>
<path fill="none" stroke="#9a32cd" stroke-dasharray="5,2" d="M321.432,-103.266C336.088,-102.04 352.779,-100.79 368,-100 558.763,-90.0969 784.181,-87.1968 895.554,-86.349"/>
<polygon fill="#9a32cd" stroke="#9a32cd" points="320.833,-99.8049 311.169,-104.148 321.432,-106.779 320.833,-99.8049"/>
<text text-anchor="middle" x="682.5" y="-94" font-family="Helvetica,sans-Serif" font-size="10.00"> triggerStart</text>
</g>
<!-- Node11&#45;&gt;Node9 -->
<g id="edge9" class="edge"><title>Node11&#45;&gt;Node9</title>
<path fill="none" stroke="#9a32cd" stroke-dasharray="5,2" d="M321.023,-102.207C368.802,-98.8834 448.004,-101.364 494,-146 521.4,-172.59 486.536,-201.55 512,-230 515.478,-233.886 519.772,-236.979 524.431,-239.441"/>
<polygon fill="#9a32cd" stroke="#9a32cd" points="320.722,-98.7194 311.038,-103.017 321.289,-105.696 320.722,-98.7194"/>
<text text-anchor="middle" x="431" y="-149" font-family="Helvetica,sans-Serif" font-size="10.00"> nextTrigger</text>
</g>
<!-- Node12 -->
<g id="node10" class="node"><title>Node12</title>
<g id="a_node10"><a xlink:href="../../d3/d66/classinfra_1_1_intrusive_forward_list.html" target="_top" xlink:title="infra::IntrusiveForwardList\l\&lt; infra::Timer \&gt;">
<polygon fill="white" stroke="black" points="217,-278 217,-308 343,-308 343,-278 217,-278"/>
<text text-anchor="start" x="225" y="-296" font-family="Helvetica,sans-Serif" font-size="10.00">infra::IntrusiveForwardList</text>
<text text-anchor="middle" x="280" y="-285" font-family="Helvetica,sans-Serif" font-size="10.00">&lt; infra::Timer &gt;</text>
</a>
</g>
</g>
<!-- Node12&#45;&gt;Node9 -->
<g id="edge10" class="edge"><title>Node12&#45;&gt;Node9</title>
<path fill="none" stroke="#9a32cd" stroke-dasharray="5,2" d="M353.116,-284.312C394.449,-279.05 447.248,-271.85 494,-264 503.56,-262.395 513.766,-260.485 523.473,-258.576"/>
<polygon fill="#9a32cd" stroke="#9a32cd" points="352.617,-280.847 343.135,-285.573 353.495,-287.792 352.617,-280.847"/>
<text text-anchor="middle" x="431" y="-296" font-family="Helvetica,sans-Serif" font-size="10.00"> timerIterator</text>
<text text-anchor="middle" x="431" y="-285" font-family="Helvetica,sans-Serif" font-size="10.00">scheduledTimers</text>
</g>
<!-- Node13 -->
<g id="node11" class="node"><title>Node13</title>
<g id="a_node11"><a xlink:href="../../d7/d4a/classinfra_1_1detail_1_1_intrusive_forward_list_node.html" target="_top" xlink:title="infra::detail::Intrusive\lForwardListNode\&lt; infra\l::Timer \&gt;">
<polygon fill="white" stroke="black" points="4.5,-272.5 4.5,-313.5 120.5,-313.5 120.5,-272.5 4.5,-272.5"/>
<text text-anchor="start" x="12.5" y="-301.5" font-family="Helvetica,sans-Serif" font-size="10.00">infra::detail::Intrusive</text>
<text text-anchor="start" x="12.5" y="-290.5" font-family="Helvetica,sans-Serif" font-size="10.00">ForwardListNode&lt; infra</text>
<text text-anchor="middle" x="62.5" y="-279.5" font-family="Helvetica,sans-Serif" font-size="10.00">::Timer &gt;</text>
</a>
</g>
</g>
<!-- Node13&#45;&gt;Node12 -->
<g id="edge11" class="edge"><title>Node13&#45;&gt;Node12</title>
<path fill="none" stroke="#9a32cd" stroke-dasharray="5,2" d="M130.962,-293C158.344,-293 189.781,-293 216.622,-293"/>
<polygon fill="#9a32cd" stroke="#9a32cd" points="130.684,-289.5 120.684,-293 130.684,-296.5 130.684,-289.5"/>
<text text-anchor="middle" x="167.5" y="-296" font-family="Helvetica,sans-Serif" font-size="10.00"> beginNode</text>
</g>
<!-- Node13&#45;&gt;Node13 -->
<g id="edge12" class="edge"><title>Node13&#45;&gt;Node13</title>
<path fill="none" stroke="#9a32cd" stroke-dasharray="5,2" d="M44.6074,-323.856C47.2682,-328.697 53.2324,-332 62.5,-332 77.3281,-332 83.6996,-323.543 81.6144,-313.864"/>
<polygon fill="#9a32cd" stroke="#9a32cd" points="48.0736,-323.366 43.3856,-313.864 41.1254,-324.215 48.0736,-323.366"/>
<text text-anchor="middle" x="62.5" y="-335" font-family="Helvetica,sans-Serif" font-size="10.00"> next</text>
</g>
<!-- Node14 -->
<g id="node12" class="node"><title>Node14</title>
<polygon fill="white" stroke="#bfbfbf" points="254.5,-239.5 254.5,-258.5 305.5,-258.5 305.5,-239.5 254.5,-239.5"/>
<text text-anchor="middle" x="280" y="-246.5" font-family="Helvetica,sans-Serif" font-size="10.00">uint32_t</text>
</g>
<!-- Node14&#45;&gt;Node9 -->
<g id="edge13" class="edge"><title>Node14&#45;&gt;Node9</title>
<path fill="none" stroke="#9a32cd" stroke-dasharray="5,2" d="M315.84,-249C367.393,-249 464.112,-249 521.926,-249"/>
<polygon fill="#9a32cd" stroke="#9a32cd" points="315.555,-245.5 305.555,-249 315.555,-252.5 315.555,-245.5"/>
<text text-anchor="middle" x="431" y="-252" font-family="Helvetica,sans-Serif" font-size="10.00"> id</text>
</g>
<!-- Node15 -->
<g id="node13" class="node"><title>Node15</title>
<polygon fill="white" stroke="#bfbfbf" points="262.5,-194.5 262.5,-213.5 297.5,-213.5 297.5,-194.5 262.5,-194.5"/>
<text text-anchor="middle" x="280" y="-201.5" font-family="Helvetica,sans-Serif" font-size="10.00">bool</text>
</g>
<!-- Node15&#45;&gt;Node9 -->
<g id="edge14" class="edge"><title>Node15&#45;&gt;Node9</title>
<path fill="none" stroke="#9a32cd" stroke-dasharray="5,2" d="M307.727,-203.986C348.458,-204.5 428.271,-207.615 494,-223 502.358,-224.956 503.926,-227.086 512,-230 520.831,-233.187 530.497,-236.481 539.321,-239.414"/>
<polygon fill="#9a32cd" stroke="#9a32cd" points="307.578,-200.485 297.55,-203.903 307.521,-207.485 307.578,-200.485"/>
<text text-anchor="middle" x="431" y="-237" font-family="Helvetica,sans-Serif" font-size="10.00"> holdUpdate</text>
<text text-anchor="middle" x="431" y="-226" font-family="Helvetica,sans-Serif" font-size="10.00">updateNeeded</text>
</g>
<!-- Node16 -->
<g id="node14" class="node"><title>Node16</title>
<polygon fill="white" stroke="#bfbfbf" points="744,-38.5 744,-57.5 795,-57.5 795,-38.5 744,-38.5"/>
<text text-anchor="middle" x="769.5" y="-45.5" font-family="Helvetica,sans-Serif" font-size="10.00">duration</text>
</g>
<!-- Node16&#45;&gt;Node3 -->
<g id="edge15" class="edge"><title>Node16&#45;&gt;Node3</title>
<path fill="none" stroke="#9a32cd" stroke-dasharray="5,2" d="M805.153,-50.776C826.328,-52.8217 853.885,-56.1097 878,-61 897.714,-64.998 919.464,-71.248 936.286,-76.4985"/>
<polygon fill="#9a32cd" stroke="#9a32cd" points="805.292,-47.2741 795.013,-49.8437 804.651,-54.2447 805.292,-47.2741"/>
<text text-anchor="middle" x="849" y="-64" font-family="Helvetica,sans-Serif" font-size="10.00"> triggerPeriod</text>
</g>
<!-- Node17 -->
<g id="node15" class="node"><title>Node17</title>
<polygon fill="white" stroke="#bfbfbf" points="755,-0.5 755,-19.5 784,-19.5 784,-0.5 755,-0.5"/>
<text text-anchor="middle" x="769.5" y="-7.5" font-family="Helvetica,sans-Serif" font-size="10.00">int</text>
</g>
<!-- Node17&#45;&gt;Node3 -->
<g id="edge18" class="edge"><title>Node17&#45;&gt;Node3</title>
<path fill="none" stroke="#9a32cd" stroke-dasharray="5,2" d="M793.929,-14.3425C816.073,-18.854 849.982,-26.8259 878,-38 904.759,-48.6718 933.629,-65.8468 950.468,-76.4989"/>
<polygon fill="#9a32cd" stroke="#9a32cd" points="794.569,-10.9013 784.082,-12.4068 793.219,-17.7699 794.569,-10.9013"/>
<text text-anchor="middle" x="849" y="-41" font-family="Helvetica,sans-Serif" font-size="10.00"> howMany</text>
</g>
</g>
</svg>
        <g id="navigator" transform="translate(0 0)" fill="#404254">
                <rect fill="#f2f5e9" fill-opacity="0.5" stroke="#606060" stroke-width=".5" x="0" y="0" width="60" height="60"/>
                <use id="zoomplus" xlink:href="#zoomPlus" x="17" y="9" onmousedown="handleZoom(evt,'in')"/>
                <use id="zoomminus" xlink:href="#zoomMin" x="42" y="9" onmousedown="handleZoom(evt,'out')"/>
                <use id="reset" xlink:href="#resetDef" x="30" y="36" onmousedown="handleReset()"/>
                <g id="arrowUp" xlink:href="#dirArrow" transform="translate(30 24)" onmousedown="handlePan(0,-1)">
                  <use xlink:href="#rim" fill="#404040">
                        <set attributeName="fill" to="#808080" begin="arrowUp.mouseover" end="arrowUp.mouseout"/>
                  </use>
                  <path fill="none" stroke="white" stroke-width="1.5" d="M0,-3.0v7 M-2.5,-0.5L0,-3.0L2.5,-0.5"/>
                </g>
                <g id="arrowRight" xlink:href="#dirArrow" transform="rotate(90) translate(36 -43)" onmousedown="handlePan(1,0)">
                  <use xlink:href="#rim" fill="#404040">
                        <set attributeName="fill" to="#808080" begin="arrowRight.mouseover" end="arrowRight.mouseout"/>
                  </use>
                  <path fill="none" stroke="white" stroke-width="1.5" d="M0,-3.0v7 M-2.5,-0.5L0,-3.0L2.5,-0.5"/>
                </g>
                <g id="arrowDown" xlink:href="#dirArrow" transform="rotate(180) translate(-30 -48)" onmousedown="handlePan(0,1)">
                  <use xlink:href="#rim" fill="#404040">
                        <set attributeName="fill" to="#808080" begin="arrowDown.mouseover" end="arrowDown.mouseout"/>
                  </use>
                  <path fill="none" stroke="white" stroke-width="1.5" d="M0,-3.0v7 M-2.5,-0.5L0,-3.0L2.5,-0.5"/>
                </g>
                <g id="arrowLeft" xlink:href="#dirArrow" transform="rotate(270) translate(-36 17)" onmousedown="handlePan(-1,0)">
                  <use xlink:href="#rim" fill="#404040">
                        <set attributeName="fill" to="#808080" begin="arrowLeft.mouseover" end="arrowLeft.mouseout"/>
                  </use>
                  <path fill="none" stroke="white" stroke-width="1.5" d="M0,-3.0v7 M-2.5,-0.5L0,-3.0L2.5,-0.5"/>
                </g>
        </g>
        <svg viewBox="0 0 15 15" width="100%" height="30px" preserveAspectRatio="xMaxYMin meet">
         <g id="arrow_out" transform="scale(0.3 0.3)">
          <a xlink:href="classinfra_1_1_timer_limited_repeating__coll__graph_org.svg" target="_base">
           <rect id="button" ry="5" rx="5" y="6" x="6" height="38" width="38"
                fill="#f2f5e9" fill-opacity="0.5" stroke="#606060" stroke-width="1.0"/>
           <path id="arrow"
             d="M 11.500037,31.436501 C 11.940474,20.09759 22.043105,11.32322 32.158766,21.979434 L 37.068811,17.246167 C 37.068811,17.246167 37.088388,32 37.088388,32 L 22.160133,31.978069 C 22.160133,31.978069 26.997745,27.140456 26.997745,27.140456 C 18.528582,18.264221 13.291696,25.230495 11.500037,31.436501 z"
             style="fill:#404040;"/>
          </a>
         </g>
        </svg>
</svg>
