<?xml version="1.0" encoding="UTF-8" standalone="no"?>
<!DOCTYPE svg PUBLIC "-//W3C//DTD SVG 1.1//EN"
 "http://www.w3.org/Graphics/SVG/1.1/DTD/svg11.dtd">
<!-- Generated by graphviz version 2.38.0 (20140413.2041)
 -->
<!-- Title: services::FlashQuadSpi::HoldWhileWriteInProgress Pages: 1 -->
<svg width="455pt" height="88pt"
 viewBox="0.00 0.00 455.00 88.00" xmlns="http://www.w3.org/2000/svg" xmlns:xlink="http://www.w3.org/1999/xlink">
<g id="graph0" class="graph" transform="scale(1 1) rotate(0) translate(4 84)">
<title>services::FlashQuadSpi::HoldWhileWriteInProgress</title>
<polygon fill="white" stroke="none" points="-4,4 -4,-84 451,-84 451,4 -4,4"/>
<!-- Node53 -->
<g id="node1" class="node"><title>Node53</title>
<polygon fill="#bfbfbf" stroke="black" points="0,-24.5 0,-54.5 137,-54.5 137,-24.5 0,-24.5"/>
<text text-anchor="start" x="8" y="-42.5" font-family="Helvetica,sans-Serif" font-size="10.00">services::FlashQuadSpi</text>
<text text-anchor="middle" x="68.5" y="-31.5" font-family="Helvetica,sans-Serif" font-size="10.00">::HoldWhileWriteInProgress</text>
</g>
<!-- Node54 -->
<g id="node2" class="node"><title>Node54</title>
<g id="a_node2"><a xlink:href="../../d0/db3/classservices_1_1_flash_quad_spi.html#ad5eea94e8c563df753b4a66292d1e73d" target="_top" xlink:title="services::FlashQuadSpi\l::EraseSectors">
<polygon fill="white" stroke="black" points="173,-49.5 173,-79.5 292,-79.5 292,-49.5 173,-49.5"/>
<text text-anchor="start" x="181" y="-67.5" font-family="Helvetica,sans-Serif" font-size="10.00">services::FlashQuadSpi</text>
<text text-anchor="middle" x="232.5" y="-56.5" font-family="Helvetica,sans-Serif" font-size="10.00">::EraseSectors</text>
</a>
</g>
</g>
<!-- Node53&#45;&gt;Node54 -->
<g id="edge1" class="edge"><title>Node53&#45;&gt;Node54</title>
<path fill="none" stroke="midnightblue" d="M147.281,-51.5033C155.853,-52.8261 164.473,-54.1564 172.757,-55.4347"/>
<polygon fill="midnightblue" stroke="midnightblue" points="147.681,-48.0236 137.264,-49.9574 146.613,-54.9417 147.681,-48.0236"/>
</g>
<!-- Node55 -->
<g id="node3" class="node"><title>Node55</title>
<g id="a_node3"><a xlink:href="../../d0/db3/classservices_1_1_flash_quad_spi.html#a9e190d022eb9d8fc0f88e89160f89b0f" target="_top" xlink:title="services::FlashQuadSpi\l::WriteBufferSequence">
<polygon fill="white" stroke="black" points="173,-0.5 173,-30.5 292,-30.5 292,-0.5 173,-0.5"/>
<text text-anchor="start" x="181" y="-18.5" font-family="Helvetica,sans-Serif" font-size="10.00">services::FlashQuadSpi</text>
<text text-anchor="middle" x="232.5" y="-7.5" font-family="Helvetica,sans-Serif" font-size="10.00">::WriteBufferSequence</text>
</a>
</g>
</g>
<!-- Node53&#45;&gt;Node55 -->
<g id="edge2" class="edge"><title>Node53&#45;&gt;Node55</title>
<path fill="none" stroke="midnightblue" d="M147.281,-27.9768C155.853,-26.7069 164.473,-25.4299 172.757,-24.2027"/>
<polygon fill="midnightblue" stroke="midnightblue" points="146.643,-24.5331 137.264,-29.4609 147.669,-31.4575 146.643,-24.5331"/>
</g>
<!-- Node56 -->
<g id="node4" class="node"><title>Node56</title>
<g id="a_node4"><a xlink:href="../../d0/db3/classservices_1_1_flash_quad_spi.html#a3ff6a6b4dc7fa4f07ff1dc03d9292f33" target="_top" xlink:title="services::FlashQuadSpi\l::WriteBuffer">
<polygon fill="white" stroke="black" points="328,-0.5 328,-30.5 447,-30.5 447,-0.5 328,-0.5"/>
<text text-anchor="start" x="336" y="-18.5" font-family="Helvetica,sans-Serif" font-size="10.00">services::FlashQuadSpi</text>
<text text-anchor="middle" x="387.5" y="-7.5" font-family="Helvetica,sans-Serif" font-size="10.00">::WriteBuffer</text>
</a>
</g>
</g>
<!-- Node55&#45;&gt;Node56 -->
<g id="edge3" class="edge"><title>Node55&#45;&gt;Node56</title>
<path fill="none" stroke="midnightblue" d="M302.493,-15.5C310.993,-15.5 319.617,-15.5 327.941,-15.5"/>
<polygon fill="midnightblue" stroke="midnightblue" points="302.216,-12.0001 292.216,-15.5 302.216,-19.0001 302.216,-12.0001"/>
</g>
</g>
</svg>
