<?xml version="1.0" encoding="UTF-8" standalone="no"?>
<!DOCTYPE svg PUBLIC "-//W3C//DTD SVG 1.1//EN"
 "http://www.w3.org/Graphics/SVG/1.1/DTD/svg11.dtd">
<!-- Generated by graphviz version 2.38.0 (20140413.2041)
 -->
<!-- Title: services::ConnectionSerial::StateSendingUpdate::SendUpdate Pages: 1 -->
<svg width="391pt" height="50pt"
 viewBox="0.00 0.00 391.00 50.00" xmlns="http://www.w3.org/2000/svg" xmlns:xlink="http://www.w3.org/1999/xlink">
<g id="graph0" class="graph" transform="scale(1 1) rotate(0) translate(4 46)">
<title>services::ConnectionSerial::StateSendingUpdate::SendUpdate</title>
<polygon fill="white" stroke="none" points="-4,4 -4,-46 387,-46 387,4 -4,4"/>
<!-- Node10 -->
<g id="node1" class="node"><title>Node10</title>
<polygon fill="#bfbfbf" stroke="black" points="0,-6 0,-36 171,-36 171,-6 0,-6"/>
<text text-anchor="start" x="8" y="-24" font-family="Helvetica,sans-Serif" font-size="10.00">services::ConnectionSerial</text>
<text text-anchor="middle" x="85.5" y="-13" font-family="Helvetica,sans-Serif" font-size="10.00">::StateSendingUpdate::SendUpdate</text>
</g>
<!-- Node11 -->
<g id="node2" class="node"><title>Node11</title>
<g id="a_node2"><a xlink:href="../../da/d87/classservices_1_1_connection_serial_1_1_state_sending_update.html#a08163e62ae7a8a6c4f70fc7c4983283c" target="_top" xlink:title="services::ConnectionSerial\l::StateSendingUpdate::StateSending\lUpdate">
<polygon fill="white" stroke="black" points="207,-0.5 207,-41.5 383,-41.5 383,-0.5 207,-0.5"/>
<text text-anchor="start" x="215" y="-29.5" font-family="Helvetica,sans-Serif" font-size="10.00">services::ConnectionSerial</text>
<text text-anchor="start" x="215" y="-18.5" font-family="Helvetica,sans-Serif" font-size="10.00">::StateSendingUpdate::StateSending</text>
<text text-anchor="middle" x="295" y="-7.5" font-family="Helvetica,sans-Serif" font-size="10.00">Update</text>
</a>
</g>
</g>
<!-- Node10&#45;&gt;Node11 -->
<g id="edge1" class="edge"><title>Node10&#45;&gt;Node11</title>
<path fill="none" stroke="midnightblue" d="M181.471,-21C189.938,-21 198.483,-21 206.879,-21"/>
<polygon fill="midnightblue" stroke="midnightblue" points="181.198,-17.5001 171.197,-21 181.197,-24.5001 181.198,-17.5001"/>
</g>
</g>
</svg>
