<?xml version="1.0" encoding="UTF-8" standalone="no"?>
<!DOCTYPE svg PUBLIC "-//W3C//DTD SVG 1.1//EN"
 "http://www.w3.org/Graphics/SVG/1.1/DTD/svg11.dtd">
<!-- Generated by graphviz version 2.38.0 (20140413.2041)
 -->
<!-- Title: infra::TextInputStream Pages: 1 -->
<!--zoomable 379 -->
<svg id="main" version="1.1" xmlns="http://www.w3.org/2000/svg" xmlns:xlink="http://www.w3.org/1999/xlink" xml:space="preserve" onload="init(evt)">
<style type="text/css"><![CDATA[
.edge:hover path { stroke: red; }
.edge:hover polygon { stroke: red; fill: red; }
]]></style>
<script type="text/javascript"><![CDATA[
var edges = document.getElementsByTagName('g');
if (edges && edges.length) {
  for (var i=0;i<edges.length;i++) {
    if (edges[i].id.substr(0,4)=='edge') {
      edges[i].setAttribute('class','edge');
    }
  }
}
]]></script>
        <defs>
                <circle id="rim" cx="0" cy="0" r="7"/>
                <circle id="rim2" cx="0" cy="0" r="3.5"/>
                <g id="zoomPlus">
                        <use xlink:href="#rim" fill="#404040">
                                <set attributeName="fill" to="#808080" begin="zoomplus.mouseover" end="zoomplus.mouseout"/>
                        </use>
                        <path d="M-4,0h8M0,-4v8" fill="none" stroke="white" stroke-width="1.5" pointer-events="none"/>
                </g>
                <g id="zoomMin">
                        <use xlink:href="#rim" fill="#404040">
                                <set attributeName="fill" to="#808080" begin="zoomminus.mouseover" end="zoomminus.mouseout"/>
                        </use>
                        <path d="M-4,0h8" fill="none" stroke="white" stroke-width="1.5" pointer-events="none"/>
                </g>
                <g id="dirArrow">
                        <path fill="none" stroke="white" stroke-width="1.5" d="M0,-3.0v7 M-2.5,-0.5L0,-3.0L2.5,-0.5"/>
                </g>
               <g id="resetDef">
                       <use xlink:href="#rim2" fill="#404040">
                               <set attributeName="fill" to="#808080" begin="reset.mouseover" end="reset.mouseout"/>
                       </use>
               </g>
        </defs>

<script type="text/javascript">
var viewWidth = 649;
var viewHeight = 379;
var sectionId = 'dynsection-0';
</script>
<script xlink:href="../../svgpan.js"/>
<svg id="graph" class="graph">
<g id="viewport">
<title>infra::TextInputStream</title>
<polygon fill="white" stroke="none" points="-4,4 -4,-374.5 645,-374.5 645,4 -4,4"/>
<!-- Node0 -->
<g id="node1" class="node"><title>Node0</title>
<polygon fill="#bfbfbf" stroke="black" points="129,-181.5 129,-200.5 241,-200.5 241,-181.5 129,-181.5"/>
<text text-anchor="middle" x="185" y="-188.5" font-family="Helvetica,sans-Serif" font-size="10.00">infra::TextInputStream</text>
</g>
<!-- Node2 -->
<g id="node3" class="node"><title>Node2</title>
<g id="a_node3"><a xlink:href="../../dd/dce/classinfra_1_1_text_input_stream_1_1_with_error_policy.html" target="_top" xlink:title="infra::TextInputStream\l::WithErrorPolicy">
<polygon fill="white" stroke="black" points="313.5,-340 313.5,-370 425.5,-370 425.5,-340 313.5,-340"/>
<text text-anchor="start" x="321.5" y="-358" font-family="Helvetica,sans-Serif" font-size="10.00">infra::TextInputStream</text>
<text text-anchor="middle" x="369.5" y="-347" font-family="Helvetica,sans-Serif" font-size="10.00">::WithErrorPolicy</text>
</a>
</g>
</g>
<!-- Node0&#45;&gt;Node2 -->
<g id="edge2" class="edge"><title>Node0&#45;&gt;Node2</title>
<path fill="none" stroke="midnightblue" d="M193.306,-210.257C205.764,-240.458 234.019,-298.733 277,-330 287.653,-337.75 300.584,-343.098 313.328,-346.788"/>
<polygon fill="midnightblue" stroke="midnightblue" points="196.507,-208.835 189.559,-200.836 190.002,-211.421 196.507,-208.835"/>
</g>
<!-- Node3 -->
<g id="node4" class="node"><title>Node3</title>
<g id="a_node4"><a xlink:href="../../d5/dec/classinfra_1_1_text_input_stream_1_1_with_reader.html" target="_top" xlink:title="infra::TextInputStream\l::WithReader\&lt; TheReader \&gt;">
<polygon fill="white" stroke="black" points="300.5,-291 300.5,-321 438.5,-321 438.5,-291 300.5,-291"/>
<text text-anchor="start" x="308.5" y="-309" font-family="Helvetica,sans-Serif" font-size="10.00">infra::TextInputStream</text>
<text text-anchor="middle" x="369.5" y="-298" font-family="Helvetica,sans-Serif" font-size="10.00">::WithReader&lt; TheReader &gt;</text>
</a>
</g>
</g>
<!-- Node0&#45;&gt;Node3 -->
<g id="edge3" class="edge"><title>Node0&#45;&gt;Node3</title>
<path fill="none" stroke="midnightblue" d="M199.369,-208.936C215.538,-229.367 244.642,-262.331 277,-281 284.275,-285.197 292.282,-288.714 300.442,-291.655"/>
<polygon fill="midnightblue" stroke="midnightblue" points="201.952,-206.554 193.072,-200.775 196.41,-210.831 201.952,-206.554"/>
</g>
<!-- Node4 -->
<g id="node5" class="node"><title>Node4</title>
<g id="a_node5"><a xlink:href="../../d5/dec/classinfra_1_1_text_input_stream_1_1_with_reader.html" target="_top" xlink:title="infra::TextInputStream\l::WithReader\&lt; CountingStream\lReader \&gt;">
<polygon fill="white" stroke="black" points="293.5,-230.5 293.5,-271.5 445.5,-271.5 445.5,-230.5 293.5,-230.5"/>
<text text-anchor="start" x="301.5" y="-259.5" font-family="Helvetica,sans-Serif" font-size="10.00">infra::TextInputStream</text>
<text text-anchor="start" x="301.5" y="-248.5" font-family="Helvetica,sans-Serif" font-size="10.00">::WithReader&lt; CountingStream</text>
<text text-anchor="middle" x="369.5" y="-237.5" font-family="Helvetica,sans-Serif" font-size="10.00">Reader &gt;</text>
</a>
</g>
</g>
<!-- Node0&#45;&gt;Node4 -->
<g id="edge4" class="edge"><title>Node0&#45;&gt;Node4</title>
<path fill="none" stroke="midnightblue" d="M224.748,-203.789C240.901,-209.117 259.856,-215.364 277,-221 286.211,-224.028 295.945,-227.224 305.492,-230.357"/>
<polygon fill="midnightblue" stroke="midnightblue" points="225.687,-200.414 215.094,-200.605 223.494,-207.061 225.687,-200.414"/>
</g>
<!-- Node6 -->
<g id="node7" class="node"><title>Node6</title>
<g id="a_node7"><a xlink:href="../../d5/dec/classinfra_1_1_text_input_stream_1_1_with_reader.html" target="_top" xlink:title="infra::TextInputStream\l::WithReader\&lt; JsonInputStream\lReader \&gt;">
<polygon fill="white" stroke="black" points="292,-170.5 292,-211.5 447,-211.5 447,-170.5 292,-170.5"/>
<text text-anchor="start" x="300" y="-199.5" font-family="Helvetica,sans-Serif" font-size="10.00">infra::TextInputStream</text>
<text text-anchor="start" x="300" y="-188.5" font-family="Helvetica,sans-Serif" font-size="10.00">::WithReader&lt; JsonInputStream</text>
<text text-anchor="middle" x="369.5" y="-177.5" font-family="Helvetica,sans-Serif" font-size="10.00">Reader &gt;</text>
</a>
</g>
</g>
<!-- Node0&#45;&gt;Node6 -->
<g id="edge6" class="edge"><title>Node0&#45;&gt;Node6</title>
<path fill="none" stroke="midnightblue" d="M251.553,-191C264.631,-191 278.476,-191 291.889,-191"/>
<polygon fill="midnightblue" stroke="midnightblue" points="251.251,-187.5 241.251,-191 251.251,-194.5 251.251,-187.5"/>
</g>
<!-- Node8 -->
<g id="node9" class="node"><title>Node8</title>
<g id="a_node9"><a xlink:href="../../d5/dec/classinfra_1_1_text_input_stream_1_1_with_reader.html" target="_top" xlink:title="infra::TextInputStream\l::WithReader\&lt; LimitedStreamReader \&gt;">
<polygon fill="white" stroke="black" points="277,-121 277,-151 462,-151 462,-121 277,-121"/>
<text text-anchor="start" x="285" y="-139" font-family="Helvetica,sans-Serif" font-size="10.00">infra::TextInputStream</text>
<text text-anchor="middle" x="369.5" y="-128" font-family="Helvetica,sans-Serif" font-size="10.00">::WithReader&lt; LimitedStreamReader &gt;</text>
</a>
</g>
</g>
<!-- Node0&#45;&gt;Node8 -->
<g id="edge8" class="edge"><title>Node0&#45;&gt;Node8</title>
<path fill="none" stroke="midnightblue" d="M223.509,-178.15C239.874,-172.67 259.325,-166.324 277,-161 288.195,-157.628 300.219,-154.203 311.75,-151.014"/>
<polygon fill="midnightblue" stroke="midnightblue" points="222.12,-174.925 213.761,-181.434 224.355,-181.559 222.12,-174.925"/>
</g>
<!-- Node10 -->
<g id="node11" class="node"><title>Node10</title>
<g id="a_node11"><a xlink:href="../../d5/dec/classinfra_1_1_text_input_stream_1_1_with_reader.html" target="_top" xlink:title="infra::TextInputStream\l::WithReader\&lt; StdStringInput\lStreamReader \&gt;">
<polygon fill="white" stroke="black" points="297.5,-60.5 297.5,-101.5 441.5,-101.5 441.5,-60.5 297.5,-60.5"/>
<text text-anchor="start" x="305.5" y="-89.5" font-family="Helvetica,sans-Serif" font-size="10.00">infra::TextInputStream</text>
<text text-anchor="start" x="305.5" y="-78.5" font-family="Helvetica,sans-Serif" font-size="10.00">::WithReader&lt; StdStringInput</text>
<text text-anchor="middle" x="369.5" y="-67.5" font-family="Helvetica,sans-Serif" font-size="10.00">StreamReader &gt;</text>
</a>
</g>
</g>
<!-- Node0&#45;&gt;Node10 -->
<g id="edge10" class="edge"><title>Node0&#45;&gt;Node10</title>
<path fill="none" stroke="midnightblue" d="M201.236,-174.027C218.159,-156.096 247.063,-128.101 277,-111 283.387,-107.352 290.282,-104.071 297.32,-101.14"/>
<polygon fill="midnightblue" stroke="midnightblue" points="198.562,-171.763 194.343,-181.481 203.702,-176.515 198.562,-171.763"/>
</g>
<!-- Node12 -->
<g id="node13" class="node"><title>Node12</title>
<g id="a_node13"><a xlink:href="../../d5/dec/classinfra_1_1_text_input_stream_1_1_with_reader.html" target="_top" xlink:title="infra::TextInputStream\l::WithReader\&lt; StringInputStream\lReader \&gt;">
<polygon fill="white" stroke="black" points="289,-0.5 289,-41.5 450,-41.5 450,-0.5 289,-0.5"/>
<text text-anchor="start" x="297" y="-29.5" font-family="Helvetica,sans-Serif" font-size="10.00">infra::TextInputStream</text>
<text text-anchor="start" x="297" y="-18.5" font-family="Helvetica,sans-Serif" font-size="10.00">::WithReader&lt; StringInputStream</text>
<text text-anchor="middle" x="369.5" y="-7.5" font-family="Helvetica,sans-Serif" font-size="10.00">Reader &gt;</text>
</a>
</g>
</g>
<!-- Node0&#45;&gt;Node12 -->
<g id="edge12" class="edge"><title>Node0&#45;&gt;Node12</title>
<path fill="none" stroke="midnightblue" d="M193.456,-171.857C206.122,-141.789 234.657,-83.567 277,-51 281.505,-47.5348 286.428,-44.4608 291.578,-41.7353"/>
<polygon fill="midnightblue" stroke="midnightblue" points="190.169,-170.649 189.641,-181.231 196.652,-173.288 190.169,-170.649"/>
</g>
<!-- Node1 -->
<g id="node2" class="node"><title>Node1</title>
<g id="a_node2"><a xlink:href="../../db/dda/classinfra_1_1_input_stream.html" target="_top" xlink:title="infra::InputStream">
<polygon fill="white" stroke="black" points="0,-181.5 0,-200.5 93,-200.5 93,-181.5 0,-181.5"/>
<text text-anchor="middle" x="46.5" y="-188.5" font-family="Helvetica,sans-Serif" font-size="10.00">infra::InputStream</text>
</a>
</g>
</g>
<!-- Node1&#45;&gt;Node0 -->
<g id="edge1" class="edge"><title>Node1&#45;&gt;Node0</title>
<path fill="none" stroke="midnightblue" d="M103.335,-191C111.668,-191 120.256,-191 128.58,-191"/>
<polygon fill="midnightblue" stroke="midnightblue" points="103.332,-187.5 93.3323,-191 103.332,-194.5 103.332,-187.5"/>
</g>
<!-- Node5 -->
<g id="node6" class="node"><title>Node5</title>
<g id="a_node6"><a xlink:href="../../d8/d71/classinfra_1_1_counting_text_input_stream.html" target="_top" xlink:title="infra::CountingTextInput\lStream">
<polygon fill="white" stroke="black" points="510,-236 510,-266 629,-266 629,-236 510,-236"/>
<text text-anchor="start" x="518" y="-254" font-family="Helvetica,sans-Serif" font-size="10.00">infra::CountingTextInput</text>
<text text-anchor="middle" x="569.5" y="-243" font-family="Helvetica,sans-Serif" font-size="10.00">Stream</text>
</a>
</g>
</g>
<!-- Node4&#45;&gt;Node5 -->
<g id="edge5" class="edge"><title>Node4&#45;&gt;Node5</title>
<path fill="none" stroke="midnightblue" d="M455.684,-251C473.915,-251 492.783,-251 509.75,-251"/>
<polygon fill="midnightblue" stroke="midnightblue" points="455.638,-247.5 445.638,-251 455.638,-254.5 455.638,-247.5"/>
</g>
<!-- Node7 -->
<g id="node8" class="node"><title>Node7</title>
<g id="a_node8"><a xlink:href="../../d5/d79/classinfra_1_1_json_input_stream.html" target="_top" xlink:title="infra::JsonInputStream">
<polygon fill="white" stroke="black" points="513,-181.5 513,-200.5 626,-200.5 626,-181.5 513,-181.5"/>
<text text-anchor="middle" x="569.5" y="-188.5" font-family="Helvetica,sans-Serif" font-size="10.00">infra::JsonInputStream</text>
</a>
</g>
</g>
<!-- Node6&#45;&gt;Node7 -->
<g id="edge7" class="edge"><title>Node6&#45;&gt;Node7</title>
<path fill="none" stroke="midnightblue" d="M457.14,-191C475.99,-191 495.446,-191 512.719,-191"/>
<polygon fill="midnightblue" stroke="midnightblue" points="457.052,-187.5 447.052,-191 457.052,-194.5 457.052,-187.5"/>
</g>
<!-- Node9 -->
<g id="node10" class="node"><title>Node9</title>
<g id="a_node10"><a xlink:href="../../d1/d4f/classinfra_1_1_limited_text_input_stream.html" target="_top" xlink:title="infra::LimitedTextInputStream">
<polygon fill="white" stroke="black" points="498,-126.5 498,-145.5 641,-145.5 641,-126.5 498,-126.5"/>
<text text-anchor="middle" x="569.5" y="-133.5" font-family="Helvetica,sans-Serif" font-size="10.00">infra::LimitedTextInputStream</text>
</a>
</g>
</g>
<!-- Node8&#45;&gt;Node9 -->
<g id="edge9" class="edge"><title>Node8&#45;&gt;Node9</title>
<path fill="none" stroke="midnightblue" d="M472.344,-136C480.941,-136 489.509,-136 497.789,-136"/>
<polygon fill="midnightblue" stroke="midnightblue" points="472.255,-132.5 462.255,-136 472.255,-139.5 472.255,-132.5"/>
</g>
<!-- Node11 -->
<g id="node12" class="node"><title>Node11</title>
<g id="a_node12"><a xlink:href="../../d1/da0/classinfra_1_1_std_string_input_stream.html" target="_top" xlink:title="infra::StdStringInputStream">
<polygon fill="white" stroke="black" points="502.5,-71.5 502.5,-90.5 636.5,-90.5 636.5,-71.5 502.5,-71.5"/>
<text text-anchor="middle" x="569.5" y="-78.5" font-family="Helvetica,sans-Serif" font-size="10.00">infra::StdStringInputStream</text>
</a>
</g>
</g>
<!-- Node10&#45;&gt;Node11 -->
<g id="edge11" class="edge"><title>Node10&#45;&gt;Node11</title>
<path fill="none" stroke="midnightblue" d="M452.003,-81C468.716,-81 486.117,-81 502.217,-81"/>
<polygon fill="midnightblue" stroke="midnightblue" points="451.703,-77.5001 441.703,-81 451.703,-84.5001 451.703,-77.5001"/>
</g>
<!-- Node13 -->
<g id="node14" class="node"><title>Node13</title>
<g id="a_node14"><a xlink:href="../../d7/d58/classinfra_1_1_string_input_stream.html" target="_top" xlink:title="infra::StringInputStream">
<polygon fill="white" stroke="black" points="510,-11.5 510,-30.5 629,-30.5 629,-11.5 510,-11.5"/>
<text text-anchor="middle" x="569.5" y="-18.5" font-family="Helvetica,sans-Serif" font-size="10.00">infra::StringInputStream</text>
</a>
</g>
</g>
<!-- Node12&#45;&gt;Node13 -->
<g id="edge13" class="edge"><title>Node12&#45;&gt;Node13</title>
<path fill="none" stroke="midnightblue" d="M460.564,-21C477.343,-21 494.467,-21 509.988,-21"/>
<polygon fill="midnightblue" stroke="midnightblue" points="460.178,-17.5001 450.178,-21 460.178,-24.5001 460.178,-17.5001"/>
</g>
</g>
</svg>
        <g id="navigator" transform="translate(0 0)" fill="#404254">
                <rect fill="#f2f5e9" fill-opacity="0.5" stroke="#606060" stroke-width=".5" x="0" y="0" width="60" height="60"/>
                <use id="zoomplus" xlink:href="#zoomPlus" x="17" y="9" onmousedown="handleZoom(evt,'in')"/>
                <use id="zoomminus" xlink:href="#zoomMin" x="42" y="9" onmousedown="handleZoom(evt,'out')"/>
                <use id="reset" xlink:href="#resetDef" x="30" y="36" onmousedown="handleReset()"/>
                <g id="arrowUp" xlink:href="#dirArrow" transform="translate(30 24)" onmousedown="handlePan(0,-1)">
                  <use xlink:href="#rim" fill="#404040">
                        <set attributeName="fill" to="#808080" begin="arrowUp.mouseover" end="arrowUp.mouseout"/>
                  </use>
                  <path fill="none" stroke="white" stroke-width="1.5" d="M0,-3.0v7 M-2.5,-0.5L0,-3.0L2.5,-0.5"/>
                </g>
                <g id="arrowRight" xlink:href="#dirArrow" transform="rotate(90) translate(36 -43)" onmousedown="handlePan(1,0)">
                  <use xlink:href="#rim" fill="#404040">
                        <set attributeName="fill" to="#808080" begin="arrowRight.mouseover" end="arrowRight.mouseout"/>
                  </use>
                  <path fill="none" stroke="white" stroke-width="1.5" d="M0,-3.0v7 M-2.5,-0.5L0,-3.0L2.5,-0.5"/>
                </g>
                <g id="arrowDown" xlink:href="#dirArrow" transform="rotate(180) translate(-30 -48)" onmousedown="handlePan(0,1)">
                  <use xlink:href="#rim" fill="#404040">
                        <set attributeName="fill" to="#808080" begin="arrowDown.mouseover" end="arrowDown.mouseout"/>
                  </use>
                  <path fill="none" stroke="white" stroke-width="1.5" d="M0,-3.0v7 M-2.5,-0.5L0,-3.0L2.5,-0.5"/>
                </g>
                <g id="arrowLeft" xlink:href="#dirArrow" transform="rotate(270) translate(-36 17)" onmousedown="handlePan(-1,0)">
                  <use xlink:href="#rim" fill="#404040">
                        <set attributeName="fill" to="#808080" begin="arrowLeft.mouseover" end="arrowLeft.mouseout"/>
                  </use>
                  <path fill="none" stroke="white" stroke-width="1.5" d="M0,-3.0v7 M-2.5,-0.5L0,-3.0L2.5,-0.5"/>
                </g>
        </g>
        <svg viewBox="0 0 15 15" width="100%" height="30px" preserveAspectRatio="xMaxYMin meet">
         <g id="arrow_out" transform="scale(0.3 0.3)">
          <a xlink:href="classinfra_1_1_text_input_stream__inherit__graph_org.svg" target="_base">
           <rect id="button" ry="5" rx="5" y="6" x="6" height="38" width="38"
                fill="#f2f5e9" fill-opacity="0.5" stroke="#606060" stroke-width="1.0"/>
           <path id="arrow"
             d="M 11.500037,31.436501 C 11.940474,20.09759 22.043105,11.32322 32.158766,21.979434 L 37.068811,17.246167 C 37.068811,17.246167 37.088388,32 37.088388,32 L 22.160133,31.978069 C 22.160133,31.978069 26.997745,27.140456 26.997745,27.140456 C 18.528582,18.264221 13.291696,25.230495 11.500037,31.436501 z"
             style="fill:#404040;"/>
          </a>
         </g>
        </svg>
</svg>
