<?xml version="1.0" encoding="UTF-8" standalone="no"?>
<!DOCTYPE svg PUBLIC "-//W3C//DTD SVG 1.1//EN"
 "http://www.w3.org/Graphics/SVG/1.1/DTD/svg11.dtd">
<!-- Generated by graphviz version 2.38.0 (20140413.2041)
 -->
<!-- Title: services::HttpClientJson::HeaderAvailable Pages: 1 -->
<!--zoomable 192 -->
<svg id="main" version="1.1" xmlns="http://www.w3.org/2000/svg" xmlns:xlink="http://www.w3.org/1999/xlink" xml:space="preserve" onload="init(evt)">
<style type="text/css"><![CDATA[
.edge:hover path { stroke: red; }
.edge:hover polygon { stroke: red; fill: red; }
]]></style>
<script type="text/javascript"><![CDATA[
var edges = document.getElementsByTagName('g');
if (edges && edges.length) {
  for (var i=0;i<edges.length;i++) {
    if (edges[i].id.substr(0,4)=='edge') {
      edges[i].setAttribute('class','edge');
    }
  }
}
]]></script>
        <defs>
                <circle id="rim" cx="0" cy="0" r="7"/>
                <circle id="rim2" cx="0" cy="0" r="3.5"/>
                <g id="zoomPlus">
                        <use xlink:href="#rim" fill="#404040">
                                <set attributeName="fill" to="#808080" begin="zoomplus.mouseover" end="zoomplus.mouseout"/>
                        </use>
                        <path d="M-4,0h8M0,-4v8" fill="none" stroke="white" stroke-width="1.5" pointer-events="none"/>
                </g>
                <g id="zoomMin">
                        <use xlink:href="#rim" fill="#404040">
                                <set attributeName="fill" to="#808080" begin="zoomminus.mouseover" end="zoomminus.mouseout"/>
                        </use>
                        <path d="M-4,0h8" fill="none" stroke="white" stroke-width="1.5" pointer-events="none"/>
                </g>
                <g id="dirArrow">
                        <path fill="none" stroke="white" stroke-width="1.5" d="M0,-3.0v7 M-2.5,-0.5L0,-3.0L2.5,-0.5"/>
                </g>
               <g id="resetDef">
                       <use xlink:href="#rim2" fill="#404040">
                               <set attributeName="fill" to="#808080" begin="reset.mouseover" end="reset.mouseout"/>
                       </use>
               </g>
        </defs>

<script type="text/javascript">
var viewWidth = 1195;
var viewHeight = 192;
var sectionId = 'dynsection-7';
</script>
<script xlink:href="../../svgpan.js"/>
<svg id="graph" class="graph">
<g id="viewport">
<title>services::HttpClientJson::HeaderAvailable</title>
<polygon fill="white" stroke="none" points="-4,4 -4,-187.5 1191,-187.5 1191,4 -4,4"/>
<!-- Node56 -->
<g id="node1" class="node"><title>Node56</title>
<polygon fill="#bfbfbf" stroke="black" points="0,-49.5 0,-79.5 121,-79.5 121,-49.5 0,-49.5"/>
<text text-anchor="start" x="8" y="-67.5" font-family="Helvetica,sans-Serif" font-size="10.00">services::HttpClientJson</text>
<text text-anchor="middle" x="60.5" y="-56.5" font-family="Helvetica,sans-Serif" font-size="10.00">::HeaderAvailable</text>
</g>
<!-- Node57 -->
<g id="node2" class="node"><title>Node57</title>
<g id="a_node2"><a xlink:href="../../db/dae/classservices_1_1_http_client_basic.html#a5dddcabc1a37c6c9d218e3707de51c67" target="_top" xlink:title="services::HttpClientBasic\l::ContentError">
<polygon fill="white" stroke="black" points="157,-98.5 157,-128.5 282,-128.5 282,-98.5 157,-98.5"/>
<text text-anchor="start" x="165" y="-116.5" font-family="Helvetica,sans-Serif" font-size="10.00">services::HttpClientBasic</text>
<text text-anchor="middle" x="219.5" y="-105.5" font-family="Helvetica,sans-Serif" font-size="10.00">::ContentError</text>
</a>
</g>
</g>
<!-- Node56&#45;&gt;Node57 -->
<g id="edge1" class="edge"><title>Node56&#45;&gt;Node57</title>
<path fill="none" stroke="midnightblue" d="M109.886,-79.6014C125.929,-84.6083 143.949,-90.2324 160.631,-95.439"/>
<polygon fill="midnightblue" stroke="midnightblue" points="159.685,-98.8101 170.274,-98.4484 161.77,-92.128 159.685,-98.8101"/>
</g>
<!-- Node67 -->
<g id="node12" class="node"><title>Node67</title>
<g id="a_node12"><a xlink:href="../../df/dab/classservices_1_1_http_header.html#ae160eacea71c935f8b8ad5da7b79e091" target="_top" xlink:title="services::HttpHeader\l::Field">
<polygon fill="white" stroke="black" points="166,-49.5 166,-79.5 273,-79.5 273,-49.5 166,-49.5"/>
<text text-anchor="start" x="174" y="-67.5" font-family="Helvetica,sans-Serif" font-size="10.00">services::HttpHeader</text>
<text text-anchor="middle" x="219.5" y="-56.5" font-family="Helvetica,sans-Serif" font-size="10.00">::Field</text>
</a>
</g>
</g>
<!-- Node56&#45;&gt;Node67 -->
<g id="edge11" class="edge"><title>Node56&#45;&gt;Node67</title>
<path fill="none" stroke="midnightblue" d="M121.303,-64.5C132.515,-64.5 144.268,-64.5 155.572,-64.5"/>
<polygon fill="midnightblue" stroke="midnightblue" points="155.799,-68.0001 165.799,-64.5 155.799,-61.0001 155.799,-68.0001"/>
</g>
<!-- Node68 -->
<g id="node13" class="node"><title>Node68</title>
<g id="a_node13"><a xlink:href="../../df/dab/classservices_1_1_http_header.html#ab095c01d8a27b6de6a15cd202adfa7b9" target="_top" xlink:title="services::HttpHeader\l::Value">
<polygon fill="white" stroke="black" points="166,-0.5 166,-30.5 273,-30.5 273,-0.5 166,-0.5"/>
<text text-anchor="start" x="174" y="-18.5" font-family="Helvetica,sans-Serif" font-size="10.00">services::HttpHeader</text>
<text text-anchor="middle" x="219.5" y="-7.5" font-family="Helvetica,sans-Serif" font-size="10.00">::Value</text>
</a>
</g>
</g>
<!-- Node56&#45;&gt;Node68 -->
<g id="edge12" class="edge"><title>Node56&#45;&gt;Node68</title>
<path fill="none" stroke="midnightblue" d="M109.886,-49.3986C125.929,-44.3917 143.949,-38.7676 160.631,-33.561"/>
<polygon fill="midnightblue" stroke="midnightblue" points="161.77,-36.872 170.274,-30.5516 159.685,-30.1899 161.77,-36.872"/>
</g>
<!-- Node58 -->
<g id="node3" class="node"><title>Node58</title>
<g id="a_node3"><a xlink:href="../../db/dae/classservices_1_1_http_client_basic.html#a7546f777efacb9d02ebfda4164526bda" target="_top" xlink:title="services::HttpClientBasic\l::Close">
<polygon fill="white" stroke="black" points="318,-98.5 318,-128.5 443,-128.5 443,-98.5 318,-98.5"/>
<text text-anchor="start" x="326" y="-116.5" font-family="Helvetica,sans-Serif" font-size="10.00">services::HttpClientBasic</text>
<text text-anchor="middle" x="380.5" y="-105.5" font-family="Helvetica,sans-Serif" font-size="10.00">::Close</text>
</a>
</g>
</g>
<!-- Node57&#45;&gt;Node58 -->
<g id="edge2" class="edge"><title>Node57&#45;&gt;Node58</title>
<path fill="none" stroke="midnightblue" d="M282.429,-113.5C290.674,-113.5 299.184,-113.5 307.58,-113.5"/>
<polygon fill="midnightblue" stroke="midnightblue" points="307.74,-117 317.74,-113.5 307.74,-110 307.74,-117"/>
</g>
<!-- Node59 -->
<g id="node4" class="node"><title>Node59</title>
<g id="a_node4"><a xlink:href="../../dc/d4c/classinfra_1_1_single_observer.html#aec7e28f414f104d93f5e4adcc2d6774b" target="_top" xlink:title="infra::SingleObserver\l\&lt; HttpClientObserver,\l HttpClient \&gt;::Attached">
<polygon fill="white" stroke="black" points="479,-142 479,-183 595,-183 595,-142 479,-142"/>
<text text-anchor="start" x="487" y="-171" font-family="Helvetica,sans-Serif" font-size="10.00">infra::SingleObserver</text>
<text text-anchor="start" x="487" y="-160" font-family="Helvetica,sans-Serif" font-size="10.00">&lt; HttpClientObserver,</text>
<text text-anchor="middle" x="537" y="-149" font-family="Helvetica,sans-Serif" font-size="10.00"> HttpClient &gt;::Attached</text>
</a>
</g>
</g>
<!-- Node58&#45;&gt;Node59 -->
<g id="edge3" class="edge"><title>Node58&#45;&gt;Node59</title>
<path fill="none" stroke="midnightblue" d="M429.116,-128.601C441.744,-132.607 455.618,-137.007 469.067,-141.272"/>
<polygon fill="midnightblue" stroke="midnightblue" points="468.17,-144.659 478.761,-144.346 470.287,-137.987 468.17,-144.659"/>
</g>
<!-- Node60 -->
<g id="node5" class="node"><title>Node60</title>
<g id="a_node5"><a xlink:href="../../d5/da5/classinfra_1_1_timer.html#abf5658fb078dc1dad0705a7791f7b84c" target="_top" xlink:title="infra::Timer::Cancel">
<polygon fill="white" stroke="black" points="486.5,-104 486.5,-123 587.5,-123 587.5,-104 486.5,-104"/>
<text text-anchor="middle" x="537" y="-111" font-family="Helvetica,sans-Serif" font-size="10.00">infra::Timer::Cancel</text>
</a>
</g>
</g>
<!-- Node58&#45;&gt;Node60 -->
<g id="edge4" class="edge"><title>Node58&#45;&gt;Node60</title>
<path fill="none" stroke="midnightblue" d="M443.006,-113.5C453.847,-113.5 465.12,-113.5 475.922,-113.5"/>
<polygon fill="midnightblue" stroke="midnightblue" points="476.103,-117 486.103,-113.5 476.103,-110 476.103,-117"/>
</g>
<!-- Node66 -->
<g id="node11" class="node"><title>Node66</title>
<g id="a_node11"><a xlink:href="../../dc/d4c/classinfra_1_1_single_observer.html#abb13c69cc61182baf350ff1736fa772e" target="_top" xlink:title="infra::SingleObserver\l\&lt; HttpClientObserver,\l HttpClient \&gt;::Subject">
<polygon fill="white" stroke="black" points="482,-44 482,-85 592,-85 592,-44 482,-44"/>
<text text-anchor="start" x="490" y="-73" font-family="Helvetica,sans-Serif" font-size="10.00">infra::SingleObserver</text>
<text text-anchor="start" x="490" y="-62" font-family="Helvetica,sans-Serif" font-size="10.00">&lt; HttpClientObserver,</text>
<text text-anchor="middle" x="537" y="-51" font-family="Helvetica,sans-Serif" font-size="10.00"> HttpClient &gt;::Subject</text>
</a>
</g>
</g>
<!-- Node58&#45;&gt;Node66 -->
<g id="edge10" class="edge"><title>Node58&#45;&gt;Node66</title>
<path fill="none" stroke="midnightblue" d="M429.116,-98.3986C442.659,-94.1033 457.635,-89.3537 471.983,-84.8032"/>
<polygon fill="midnightblue" stroke="midnightblue" points="473.316,-88.0521 481.79,-81.6927 471.2,-81.3796 473.316,-88.0521"/>
</g>
<!-- Node61 -->
<g id="node6" class="node"><title>Node61</title>
<g id="a_node6"><a xlink:href="../../d5/da5/classinfra_1_1_timer.html#a11b396e8d4300da06b8ce83624991b73" target="_top" xlink:title="infra::Timer::Convert">
<polygon fill="white" stroke="black" points="645,-123 645,-142 748,-142 748,-123 645,-123"/>
<text text-anchor="middle" x="696.5" y="-130" font-family="Helvetica,sans-Serif" font-size="10.00">infra::Timer::Convert</text>
</a>
</g>
</g>
<!-- Node60&#45;&gt;Node61 -->
<g id="edge5" class="edge"><title>Node60&#45;&gt;Node61</title>
<path fill="none" stroke="midnightblue" d="M587.834,-119.512C602.768,-121.313 619.312,-123.309 634.861,-125.185"/>
<polygon fill="midnightblue" stroke="midnightblue" points="634.56,-128.674 644.908,-126.397 635.399,-121.724 634.56,-128.674"/>
</g>
<!-- Node62 -->
<g id="node7" class="node"><title>Node62</title>
<g id="a_node7"><a xlink:href="../../d5/da5/classinfra_1_1_timer.html#a2b0bc71ca10c69d01f4965c576af73fd" target="_top" xlink:title="infra::Timer::UnregisterSelf">
<polygon fill="white" stroke="black" points="631,-85 631,-104 762,-104 762,-85 631,-85"/>
<text text-anchor="middle" x="696.5" y="-92" font-family="Helvetica,sans-Serif" font-size="10.00">infra::Timer::UnregisterSelf</text>
</a>
</g>
</g>
<!-- Node60&#45;&gt;Node62 -->
<g id="edge6" class="edge"><title>Node60&#45;&gt;Node62</title>
<path fill="none" stroke="midnightblue" d="M587.834,-107.488C598.322,-106.223 609.605,-104.862 620.779,-103.514"/>
<polygon fill="midnightblue" stroke="midnightblue" points="621.475,-106.955 630.984,-102.283 620.637,-100.006 621.475,-106.955"/>
</g>
<!-- Node63 -->
<g id="node8" class="node"><title>Node63</title>
<g id="a_node8"><a xlink:href="../../da/def/classinfra_1_1_timer_service.html#a51f86cbeef8dc4866c087b68c24635d8" target="_top" xlink:title="infra::TimerService\l::UnregisterTimer">
<polygon fill="white" stroke="black" points="798,-79.5 798,-109.5 894,-109.5 894,-79.5 798,-79.5"/>
<text text-anchor="start" x="806" y="-97.5" font-family="Helvetica,sans-Serif" font-size="10.00">infra::TimerService</text>
<text text-anchor="middle" x="846" y="-86.5" font-family="Helvetica,sans-Serif" font-size="10.00">::UnregisterTimer</text>
</a>
</g>
</g>
<!-- Node62&#45;&gt;Node63 -->
<g id="edge7" class="edge"><title>Node62&#45;&gt;Node63</title>
<path fill="none" stroke="midnightblue" d="M762.196,-94.5C770.577,-94.5 779.117,-94.5 787.374,-94.5"/>
<polygon fill="midnightblue" stroke="midnightblue" points="787.647,-98.0001 797.647,-94.5 787.647,-91.0001 787.647,-98.0001"/>
</g>
<!-- Node64 -->
<g id="node9" class="node"><title>Node64</title>
<g id="a_node9"><a xlink:href="../../da/def/classinfra_1_1_timer_service.html#afb8a6ef3ee5ba728f1a8f232514bad8c" target="_top" xlink:title="infra::TimerService\l::ComputeNextTrigger">
<polygon fill="white" stroke="black" points="930,-79.5 930,-109.5 1041,-109.5 1041,-79.5 930,-79.5"/>
<text text-anchor="start" x="938" y="-97.5" font-family="Helvetica,sans-Serif" font-size="10.00">infra::TimerService</text>
<text text-anchor="middle" x="985.5" y="-86.5" font-family="Helvetica,sans-Serif" font-size="10.00">::ComputeNextTrigger</text>
</a>
</g>
</g>
<!-- Node63&#45;&gt;Node64 -->
<g id="edge8" class="edge"><title>Node63&#45;&gt;Node64</title>
<path fill="none" stroke="midnightblue" d="M894.32,-94.5C902.383,-94.5 910.883,-94.5 919.312,-94.5"/>
<polygon fill="midnightblue" stroke="midnightblue" points="919.523,-98.0001 929.523,-94.5 919.523,-91.0001 919.523,-98.0001"/>
</g>
<!-- Node65 -->
<g id="node10" class="node"><title>Node65</title>
<g id="a_node10"><a xlink:href="../../da/def/classinfra_1_1_timer_service.html#a6ae66196dc18d8b383ba5e0f0b6f22fa" target="_top" xlink:title="infra::TimerService\l::NextTriggerChanged">
<polygon fill="white" stroke="black" points="1077,-79.5 1077,-109.5 1187,-109.5 1187,-79.5 1077,-79.5"/>
<text text-anchor="start" x="1085" y="-97.5" font-family="Helvetica,sans-Serif" font-size="10.00">infra::TimerService</text>
<text text-anchor="middle" x="1132" y="-86.5" font-family="Helvetica,sans-Serif" font-size="10.00">::NextTriggerChanged</text>
</a>
</g>
</g>
<!-- Node64&#45;&gt;Node65 -->
<g id="edge9" class="edge"><title>Node64&#45;&gt;Node65</title>
<path fill="none" stroke="midnightblue" d="M1041.13,-94.5C1049.42,-94.5 1058.05,-94.5 1066.53,-94.5"/>
<polygon fill="midnightblue" stroke="midnightblue" points="1066.77,-98.0001 1076.77,-94.5 1066.77,-91.0001 1066.77,-98.0001"/>
</g>
</g>
</svg>
        <g id="navigator" transform="translate(0 0)" fill="#404254">
                <rect fill="#f2f5e9" fill-opacity="0.5" stroke="#606060" stroke-width=".5" x="0" y="0" width="60" height="60"/>
                <use id="zoomplus" xlink:href="#zoomPlus" x="17" y="9" onmousedown="handleZoom(evt,'in')"/>
                <use id="zoomminus" xlink:href="#zoomMin" x="42" y="9" onmousedown="handleZoom(evt,'out')"/>
                <use id="reset" xlink:href="#resetDef" x="30" y="36" onmousedown="handleReset()"/>
                <g id="arrowUp" xlink:href="#dirArrow" transform="translate(30 24)" onmousedown="handlePan(0,-1)">
                  <use xlink:href="#rim" fill="#404040">
                        <set attributeName="fill" to="#808080" begin="arrowUp.mouseover" end="arrowUp.mouseout"/>
                  </use>
                  <path fill="none" stroke="white" stroke-width="1.5" d="M0,-3.0v7 M-2.5,-0.5L0,-3.0L2.5,-0.5"/>
                </g>
                <g id="arrowRight" xlink:href="#dirArrow" transform="rotate(90) translate(36 -43)" onmousedown="handlePan(1,0)">
                  <use xlink:href="#rim" fill="#404040">
                        <set attributeName="fill" to="#808080" begin="arrowRight.mouseover" end="arrowRight.mouseout"/>
                  </use>
                  <path fill="none" stroke="white" stroke-width="1.5" d="M0,-3.0v7 M-2.5,-0.5L0,-3.0L2.5,-0.5"/>
                </g>
                <g id="arrowDown" xlink:href="#dirArrow" transform="rotate(180) translate(-30 -48)" onmousedown="handlePan(0,1)">
                  <use xlink:href="#rim" fill="#404040">
                        <set attributeName="fill" to="#808080" begin="arrowDown.mouseover" end="arrowDown.mouseout"/>
                  </use>
                  <path fill="none" stroke="white" stroke-width="1.5" d="M0,-3.0v7 M-2.5,-0.5L0,-3.0L2.5,-0.5"/>
                </g>
                <g id="arrowLeft" xlink:href="#dirArrow" transform="rotate(270) translate(-36 17)" onmousedown="handlePan(-1,0)">
                  <use xlink:href="#rim" fill="#404040">
                        <set attributeName="fill" to="#808080" begin="arrowLeft.mouseover" end="arrowLeft.mouseout"/>
                  </use>
                  <path fill="none" stroke="white" stroke-width="1.5" d="M0,-3.0v7 M-2.5,-0.5L0,-3.0L2.5,-0.5"/>
                </g>
        </g>
        <svg viewBox="0 0 15 15" width="100%" height="30px" preserveAspectRatio="xMaxYMin meet">
         <g id="arrow_out" transform="scale(0.3 0.3)">
          <a xlink:href="classservices_1_1_http_client_json_a972155f1b6521ea28456acaf8d84c7fe_cgraph_org.svg" target="_base">
           <rect id="button" ry="5" rx="5" y="6" x="6" height="38" width="38"
                fill="#f2f5e9" fill-opacity="0.5" stroke="#606060" stroke-width="1.0"/>
           <path id="arrow"
             d="M 11.500037,31.436501 C 11.940474,20.09759 22.043105,11.32322 32.158766,21.979434 L 37.068811,17.246167 C 37.068811,17.246167 37.088388,32 37.088388,32 L 22.160133,31.978069 C 22.160133,31.978069 26.997745,27.140456 26.997745,27.140456 C 18.528582,18.264221 13.291696,25.230495 11.500037,31.436501 z"
             style="fill:#404040;"/>
          </a>
         </g>
        </svg>
</svg>
