<?xml version="1.0" encoding="UTF-8" standalone="no"?>
<!DOCTYPE svg PUBLIC "-//W3C//DTD SVG 1.1//EN"
 "http://www.w3.org/Graphics/SVG/1.1/DTD/svg11.dtd">
<!-- Generated by graphviz version 2.38.0 (20140413.2041)
 -->
<!-- Title: hal::OutputPin::Set Pages: 1 -->
<svg width="487pt" height="411pt"
 viewBox="0.00 0.00 487.00 410.50" xmlns="http://www.w3.org/2000/svg" xmlns:xlink="http://www.w3.org/1999/xlink">
<g id="graph0" class="graph" transform="scale(1 1) rotate(0) translate(4 406.5)">
<title>hal::OutputPin::Set</title>
<polygon fill="white" stroke="none" points="-4,4 -4,-406.5 483,-406.5 483,4 -4,4"/>
<!-- Node15 -->
<g id="node1" class="node"><title>Node15</title>
<polygon fill="#bfbfbf" stroke="black" points="0,-197.5 0,-216.5 100,-216.5 100,-197.5 0,-197.5"/>
<text text-anchor="middle" x="50" y="-204.5" font-family="Helvetica,sans-Serif" font-size="10.00">hal::OutputPin::Set</text>
</g>
<!-- Node16 -->
<g id="node2" class="node"><title>Node16</title>
<g id="a_node2"><a xlink:href="../../d4/d41/classservices_1_1_spi_master_with_chip_select.html#a1a7e4b73aede72438bd63e0e8348f6b6" target="_top" xlink:title="services::SpiMasterWithChip\lSelect::EndSession">
<polygon fill="white" stroke="black" points="157.5,-372 157.5,-402 299.5,-402 299.5,-372 157.5,-372"/>
<text text-anchor="start" x="165.5" y="-390" font-family="Helvetica,sans-Serif" font-size="10.00">services::SpiMasterWithChip</text>
<text text-anchor="middle" x="228.5" y="-379" font-family="Helvetica,sans-Serif" font-size="10.00">Select::EndSession</text>
</a>
</g>
</g>
<!-- Node15&#45;&gt;Node16 -->
<g id="edge1" class="edge"><title>Node15&#45;&gt;Node16</title>
<path fill="none" stroke="midnightblue" d="M56.177,-226.728C65.9625,-260.042 90.3978,-327.299 136,-363 142.336,-367.961 149.599,-371.901 157.202,-375.031"/>
<polygon fill="midnightblue" stroke="midnightblue" points="59.4723,-225.515 53.4106,-216.826 52.7305,-227.399 59.4723,-225.515"/>
</g>
<!-- Node17 -->
<g id="node3" class="node"><title>Node17</title>
<g id="a_node3"><a xlink:href="../../d0/d3c/classservices_1_1_signal_led.html#a5bd565938f7ff6e74beb4a705008da7f" target="_top" xlink:title="services::SignalLed\l::OnTimer">
<polygon fill="white" stroke="black" points="178,-323 178,-353 279,-353 279,-323 178,-323"/>
<text text-anchor="start" x="186" y="-341" font-family="Helvetica,sans-Serif" font-size="10.00">services::SignalLed</text>
<text text-anchor="middle" x="228.5" y="-330" font-family="Helvetica,sans-Serif" font-size="10.00">::OnTimer</text>
</a>
</g>
</g>
<!-- Node15&#45;&gt;Node17 -->
<g id="edge2" class="edge"><title>Node15&#45;&gt;Node17</title>
<path fill="none" stroke="midnightblue" d="M60.8017,-225.358C74.4706,-249.179 101.508,-290.362 136,-313 148.391,-321.132 163.378,-326.636 177.605,-330.355"/>
<polygon fill="midnightblue" stroke="midnightblue" points="63.8474,-223.633 55.9286,-216.594 57.7297,-227.035 63.8474,-223.633"/>
</g>
<!-- Node20 -->
<g id="node6" class="node"><title>Node20</title>
<g id="a_node6"><a xlink:href="../../de/d61/classhal_1_1_scoped_high.html#a08013d9f1b0c6dad26014ab6eeb20c7a" target="_top" xlink:title="hal::ScopedHigh::ScopedHigh">
<polygon fill="white" stroke="black" points="155.5,-284.5 155.5,-303.5 301.5,-303.5 301.5,-284.5 155.5,-284.5"/>
<text text-anchor="middle" x="228.5" y="-291.5" font-family="Helvetica,sans-Serif" font-size="10.00">hal::ScopedHigh::ScopedHigh</text>
</a>
</g>
</g>
<!-- Node15&#45;&gt;Node20 -->
<g id="edge5" class="edge"><title>Node15&#45;&gt;Node20</title>
<path fill="none" stroke="midnightblue" d="M67.3543,-224.07C83.3687,-239.746 109.206,-262.394 136,-275 144.221,-278.868 153.224,-281.953 162.273,-284.412"/>
<polygon fill="midnightblue" stroke="midnightblue" points="69.456,-221.22 59.9222,-216.598 64.4931,-226.156 69.456,-221.22"/>
</g>
<!-- Node21 -->
<g id="node7" class="node"><title>Node21</title>
<g id="a_node7"><a xlink:href="../../d2/df0/classhal_1_1_scoped_low.html#ac5fb79a226439bb655abb20502d368b4" target="_top" xlink:title="hal::ScopedLow::ScopedLow">
<polygon fill="white" stroke="black" points="157.5,-246.5 157.5,-265.5 299.5,-265.5 299.5,-246.5 157.5,-246.5"/>
<text text-anchor="middle" x="228.5" y="-253.5" font-family="Helvetica,sans-Serif" font-size="10.00">hal::ScopedLow::ScopedLow</text>
</a>
</g>
</g>
<!-- Node15&#45;&gt;Node21 -->
<g id="edge6" class="edge"><title>Node15&#45;&gt;Node21</title>
<path fill="none" stroke="midnightblue" d="M84.9089,-220.147C100.343,-225.824 118.936,-232.24 136,-237 148.658,-240.531 162.467,-243.729 175.43,-246.453"/>
<polygon fill="midnightblue" stroke="midnightblue" points="85.8634,-216.767 75.2709,-216.547 83.4145,-223.325 85.8634,-216.767"/>
</g>
<!-- Node22 -->
<g id="node8" class="node"><title>Node22</title>
<g id="a_node8"><a xlink:href="../../dc/d97/classservices_1_1_synchronous_spi_master_with_chip_select.html#a59ae2b0da6a8c74ca0d2db78c20e4a8b" target="_top" xlink:title="services::SynchronousSpi\lMasterWithChipSelect::\lSendAndReceive">
<polygon fill="white" stroke="black" points="164,-186.5 164,-227.5 293,-227.5 293,-186.5 164,-186.5"/>
<text text-anchor="start" x="172" y="-215.5" font-family="Helvetica,sans-Serif" font-size="10.00">services::SynchronousSpi</text>
<text text-anchor="start" x="172" y="-204.5" font-family="Helvetica,sans-Serif" font-size="10.00">MasterWithChipSelect::</text>
<text text-anchor="middle" x="228.5" y="-193.5" font-family="Helvetica,sans-Serif" font-size="10.00">SendAndReceive</text>
</a>
</g>
</g>
<!-- Node15&#45;&gt;Node22 -->
<g id="edge7" class="edge"><title>Node15&#45;&gt;Node22</title>
<path fill="none" stroke="midnightblue" d="M110.577,-207C127.677,-207 146.389,-207 163.731,-207"/>
<polygon fill="midnightblue" stroke="midnightblue" points="110.165,-203.5 100.165,-207 110.165,-210.5 110.165,-203.5"/>
</g>
<!-- Node23 -->
<g id="node9" class="node"><title>Node23</title>
<g id="a_node9"><a xlink:href="../../d4/d41/classservices_1_1_spi_master_with_chip_select.html#afdf0fc3b993ac6e6887c66235be46da6" target="_top" xlink:title="services::SpiMasterWithChip\lSelect::StartSession">
<polygon fill="white" stroke="black" points="157.5,-137 157.5,-167 299.5,-167 299.5,-137 157.5,-137"/>
<text text-anchor="start" x="165.5" y="-155" font-family="Helvetica,sans-Serif" font-size="10.00">services::SpiMasterWithChip</text>
<text text-anchor="middle" x="228.5" y="-144" font-family="Helvetica,sans-Serif" font-size="10.00">Select::StartSession</text>
</a>
</g>
</g>
<!-- Node15&#45;&gt;Node23 -->
<g id="edge8" class="edge"><title>Node15&#45;&gt;Node23</title>
<path fill="none" stroke="midnightblue" d="M86.0669,-193.979C101.323,-188.482 119.459,-182.171 136,-177 146.845,-173.61 158.491,-170.231 169.719,-167.103"/>
<polygon fill="midnightblue" stroke="midnightblue" points="84.7068,-190.75 76.5031,-197.454 87.0972,-197.329 84.7068,-190.75"/>
</g>
<!-- Node24 -->
<g id="node10" class="node"><title>Node24</title>
<g id="a_node10"><a xlink:href="../../dc/d97/classservices_1_1_synchronous_spi_master_with_chip_select.html#a464eaa97a092942e4627cc0d7df6e5d2" target="_top" xlink:title="services::SynchronousSpi\lMasterWithChipSelect::\lSynchronousSpiMasterWithChipSelect">
<polygon fill="white" stroke="black" points="136,-76.5 136,-117.5 321,-117.5 321,-76.5 136,-76.5"/>
<text text-anchor="start" x="144" y="-105.5" font-family="Helvetica,sans-Serif" font-size="10.00">services::SynchronousSpi</text>
<text text-anchor="start" x="144" y="-94.5" font-family="Helvetica,sans-Serif" font-size="10.00">MasterWithChipSelect::</text>
<text text-anchor="middle" x="228.5" y="-83.5" font-family="Helvetica,sans-Serif" font-size="10.00">SynchronousSpiMasterWithChipSelect</text>
</a>
</g>
</g>
<!-- Node15&#45;&gt;Node24 -->
<g id="edge9" class="edge"><title>Node15&#45;&gt;Node24</title>
<path fill="none" stroke="midnightblue" d="M65.7546,-189.486C81.5201,-171.765 108.045,-144.672 136,-128 142.482,-124.134 149.513,-120.669 156.699,-117.584"/>
<polygon fill="midnightblue" stroke="midnightblue" points="62.8409,-187.503 58.9203,-197.346 68.1232,-192.096 62.8409,-187.503"/>
</g>
<!-- Node25 -->
<g id="node11" class="node"><title>Node25</title>
<g id="a_node11"><a xlink:href="../../de/d61/classhal_1_1_scoped_high.html#a41cfceaeead110081391a39c7fe6f71d" target="_top" xlink:title="hal::ScopedHigh::~ScopedHigh">
<polygon fill="white" stroke="black" points="152.5,-38.5 152.5,-57.5 304.5,-57.5 304.5,-38.5 152.5,-38.5"/>
<text text-anchor="middle" x="228.5" y="-45.5" font-family="Helvetica,sans-Serif" font-size="10.00">hal::ScopedHigh::~ScopedHigh</text>
</a>
</g>
</g>
<!-- Node15&#45;&gt;Node25 -->
<g id="edge10" class="edge"><title>Node15&#45;&gt;Node25</title>
<path fill="none" stroke="midnightblue" d="M57.0436,-187.754C67.731,-157.054 92.9936,-97.3754 136,-67 141.433,-63.1624 147.473,-60.0667 153.786,-57.5737"/>
<polygon fill="midnightblue" stroke="midnightblue" points="53.7007,-186.715 53.8661,-197.308 60.343,-188.924 53.7007,-186.715"/>
</g>
<!-- Node26 -->
<g id="node12" class="node"><title>Node26</title>
<g id="a_node12"><a xlink:href="../../d2/df0/classhal_1_1_scoped_low.html#afd8d627b5585357116a6fbdef93096fd" target="_top" xlink:title="hal::ScopedLow::~ScopedLow">
<polygon fill="white" stroke="black" points="154.5,-0.5 154.5,-19.5 302.5,-19.5 302.5,-0.5 154.5,-0.5"/>
<text text-anchor="middle" x="228.5" y="-7.5" font-family="Helvetica,sans-Serif" font-size="10.00">hal::ScopedLow::~ScopedLow</text>
</a>
</g>
</g>
<!-- Node15&#45;&gt;Node26 -->
<g id="edge11" class="edge"><title>Node15&#45;&gt;Node26</title>
<path fill="none" stroke="midnightblue" d="M54.4565,-187.394C62.0826,-150.27 83.9819,-69.791 136,-29 141.49,-24.695 147.717,-21.3002 154.279,-18.6313"/>
<polygon fill="midnightblue" stroke="midnightblue" points="50.9778,-186.95 52.5305,-197.431 57.8524,-188.27 50.9778,-186.95"/>
</g>
<!-- Node18 -->
<g id="node4" class="node"><title>Node18</title>
<g id="a_node4"><a xlink:href="../../d0/d3c/classservices_1_1_signal_led.html#a9927346a2c0ac3da19571bcbbbe32cc9" target="_top" xlink:title="services::SignalLed\l::SignalLed">
<polygon fill="white" stroke="black" points="367.5,-345 367.5,-375 468.5,-375 468.5,-345 367.5,-345"/>
<text text-anchor="start" x="375.5" y="-363" font-family="Helvetica,sans-Serif" font-size="10.00">services::SignalLed</text>
<text text-anchor="middle" x="418" y="-352" font-family="Helvetica,sans-Serif" font-size="10.00">::SignalLed</text>
</a>
</g>
</g>
<!-- Node17&#45;&gt;Node18 -->
<g id="edge3" class="edge"><title>Node17&#45;&gt;Node18</title>
<path fill="none" stroke="midnightblue" d="M289.406,-345.029C314.538,-347.978 343.418,-351.366 367.339,-354.173"/>
<polygon fill="midnightblue" stroke="midnightblue" points="289.594,-341.527 279.254,-343.838 288.778,-348.479 289.594,-341.527"/>
</g>
<!-- Node19 -->
<g id="node5" class="node"><title>Node19</title>
<g id="a_node5"><a xlink:href="../../d0/d3c/classservices_1_1_signal_led.html#aaae3994ea1f033e9002381e58b1c0851" target="_top" xlink:title="services::SignalLed::Set">
<polygon fill="white" stroke="black" points="357,-306.5 357,-325.5 479,-325.5 479,-306.5 357,-306.5"/>
<text text-anchor="middle" x="418" y="-313.5" font-family="Helvetica,sans-Serif" font-size="10.00">services::SignalLed::Set</text>
</a>
</g>
</g>
<!-- Node17&#45;&gt;Node19 -->
<g id="edge4" class="edge"><title>Node17&#45;&gt;Node19</title>
<path fill="none" stroke="midnightblue" d="M289.298,-330.984C310.925,-328.446 335.339,-325.582 356.985,-323.042"/>
<polygon fill="midnightblue" stroke="midnightblue" points="288.778,-327.521 279.254,-332.162 289.594,-334.473 288.778,-327.521"/>
</g>
</g>
</svg>
