<?xml version="1.0" encoding="UTF-8" standalone="no"?>
<!DOCTYPE svg PUBLIC "-//W3C//DTD SVG 1.1//EN"
 "http://www.w3.org/Graphics/SVG/1.1/DTD/svg11.dtd">
<!-- Generated by graphviz version 2.38.0 (20140413.2041)
 -->
<!-- Title: infra::XmlTagFormatter::CloseBeginTag Pages: 1 -->
<svg width="444pt" height="83pt"
 viewBox="0.00 0.00 444.00 83.00" xmlns="http://www.w3.org/2000/svg" xmlns:xlink="http://www.w3.org/1999/xlink">
<g id="graph0" class="graph" transform="scale(1 1) rotate(0) translate(4 79)">
<title>infra::XmlTagFormatter::CloseBeginTag</title>
<polygon fill="white" stroke="none" points="-4,4 -4,-79 440,-79 440,4 -4,4"/>
<!-- Node13 -->
<g id="node1" class="node"><title>Node13</title>
<polygon fill="#bfbfbf" stroke="black" points="0,-22.5 0,-52.5 114,-52.5 114,-22.5 0,-22.5"/>
<text text-anchor="start" x="8" y="-40.5" font-family="Helvetica,sans-Serif" font-size="10.00">infra::XmlTagFormatter</text>
<text text-anchor="middle" x="57" y="-29.5" font-family="Helvetica,sans-Serif" font-size="10.00">::CloseBeginTag</text>
</g>
<!-- Node14 -->
<g id="node2" class="node"><title>Node14</title>
<g id="a_node2"><a xlink:href="../../d6/d00/classinfra_1_1_xml_tag_formatter.html#a06fd0d9c993c5812addec0d631c8b054" target="_top" xlink:title="infra::XmlTagFormatter\l::Content">
<polygon fill="white" stroke="black" points="161,-44.5 161,-74.5 275,-74.5 275,-44.5 161,-44.5"/>
<text text-anchor="start" x="169" y="-62.5" font-family="Helvetica,sans-Serif" font-size="10.00">infra::XmlTagFormatter</text>
<text text-anchor="middle" x="218" y="-51.5" font-family="Helvetica,sans-Serif" font-size="10.00">::Content</text>
</a>
</g>
</g>
<!-- Node13&#45;&gt;Node14 -->
<g id="edge1" class="edge"><title>Node13&#45;&gt;Node14</title>
<path fill="none" stroke="midnightblue" d="M124.186,-46.6578C136.396,-48.3472 149.037,-50.0963 160.913,-51.7395"/>
<polygon fill="midnightblue" stroke="midnightblue" points="124.443,-43.1601 114.057,-45.2564 123.483,-50.094 124.443,-43.1601"/>
</g>
<!-- Node15 -->
<g id="node3" class="node"><title>Node15</title>
<g id="a_node3"><a xlink:href="../../d6/d00/classinfra_1_1_xml_tag_formatter.html#a8d13b4c93d07c7b80bd43427120fe0d0" target="_top" xlink:title="infra::XmlTagFormatter::Tag">
<polygon fill="white" stroke="black" points="150,-6 150,-25 286,-25 286,-6 150,-6"/>
<text text-anchor="middle" x="218" y="-13" font-family="Helvetica,sans-Serif" font-size="10.00">infra::XmlTagFormatter::Tag</text>
</a>
</g>
</g>
<!-- Node13&#45;&gt;Node15 -->
<g id="edge2" class="edge"><title>Node13&#45;&gt;Node15</title>
<path fill="none" stroke="midnightblue" d="M124.214,-28.3383C132.646,-27.1717 141.283,-25.9766 149.731,-24.8077"/>
<polygon fill="midnightblue" stroke="midnightblue" points="123.483,-24.906 114.057,-29.7436 124.443,-31.8399 123.483,-24.906"/>
</g>
<!-- Node16 -->
<g id="node4" class="node"><title>Node16</title>
<g id="a_node4"><a xlink:href="../../d6/d00/classinfra_1_1_xml_tag_formatter.html#a4c7d3f002b6c6a1b69bcd0475f7b6967" target="_top" xlink:title="infra::XmlTagFormatter\l::Element">
<polygon fill="white" stroke="black" points="322,-0.5 322,-30.5 436,-30.5 436,-0.5 322,-0.5"/>
<text text-anchor="start" x="330" y="-18.5" font-family="Helvetica,sans-Serif" font-size="10.00">infra::XmlTagFormatter</text>
<text text-anchor="middle" x="379" y="-7.5" font-family="Helvetica,sans-Serif" font-size="10.00">::Element</text>
</a>
</g>
</g>
<!-- Node15&#45;&gt;Node16 -->
<g id="edge3" class="edge"><title>Node15&#45;&gt;Node16</title>
<path fill="none" stroke="midnightblue" d="M296.491,-15.5C305.094,-15.5 313.729,-15.5 321.991,-15.5"/>
<polygon fill="midnightblue" stroke="midnightblue" points="296.43,-12.0001 286.43,-15.5 296.43,-19.0001 296.43,-12.0001"/>
</g>
</g>
</svg>
