<?xml version="1.0" encoding="UTF-8" standalone="no"?>
<!DOCTYPE svg PUBLIC "-//W3C//DTD SVG 1.1//EN"
 "http://www.w3.org/Graphics/SVG/1.1/DTD/svg11.dtd">
<!-- Generated by graphviz version 2.38.0 (20140413.2041)
 -->
<!-- Title: application::UpgradePackConfigParser::GetOutputFilename Pages: 1 -->
<svg width="302pt" height="186pt"
 viewBox="0.00 0.00 302.00 186.00" xmlns="http://www.w3.org/2000/svg" xmlns:xlink="http://www.w3.org/1999/xlink">
<g id="graph0" class="graph" transform="scale(1 1) rotate(0) translate(4 182)">
<title>application::UpgradePackConfigParser::GetOutputFilename</title>
<polygon fill="white" stroke="none" points="-4,4 -4,-182 298,-182 298,4 -4,4"/>
<!-- Node25 -->
<g id="node1" class="node"><title>Node25</title>
<polygon fill="#bfbfbf" stroke="black" points="0,-73.5 0,-103.5 163,-103.5 163,-73.5 0,-73.5"/>
<text text-anchor="start" x="8" y="-91.5" font-family="Helvetica,sans-Serif" font-size="10.00">application::UpgradePack</text>
<text text-anchor="middle" x="81.5" y="-80.5" font-family="Helvetica,sans-Serif" font-size="10.00">ConfigParser::GetOutputFilename</text>
</g>
<!-- Node26 -->
<g id="node2" class="node"><title>Node26</title>
<g id="a_node2"><a xlink:href="../../d1/dcf/classinfra_1_1_json_object.html#adff6614bf9a97c11739a5b01daff7aee" target="_top" xlink:title="infra::JsonObject::\lGetOptionalString">
<polygon fill="white" stroke="black" points="199,-147.5 199,-177.5 294,-177.5 294,-147.5 199,-147.5"/>
<text text-anchor="start" x="207" y="-165.5" font-family="Helvetica,sans-Serif" font-size="10.00">infra::JsonObject::</text>
<text text-anchor="middle" x="246.5" y="-154.5" font-family="Helvetica,sans-Serif" font-size="10.00">GetOptionalString</text>
</a>
</g>
</g>
<!-- Node25&#45;&gt;Node26 -->
<g id="edge1" class="edge"><title>Node25&#45;&gt;Node26</title>
<path fill="none" stroke="midnightblue" d="M115.879,-103.654C141.124,-115.114 175.966,-130.932 203.169,-143.282"/>
<polygon fill="midnightblue" stroke="midnightblue" points="201.892,-146.546 212.445,-147.493 204.786,-140.172 201.892,-146.546"/>
</g>
<!-- Node27 -->
<g id="node3" class="node"><title>Node27</title>
<g id="a_node3"><a xlink:href="../../d1/dcf/classinfra_1_1_json_object.html#aaef750837447f9c38e06092848d30af5" target="_top" xlink:title="infra::JsonObject::\lGetString">
<polygon fill="white" stroke="black" points="199,-98.5 199,-128.5 294,-128.5 294,-98.5 199,-98.5"/>
<text text-anchor="start" x="207" y="-116.5" font-family="Helvetica,sans-Serif" font-size="10.00">infra::JsonObject::</text>
<text text-anchor="middle" x="246.5" y="-105.5" font-family="Helvetica,sans-Serif" font-size="10.00">GetString</text>
</a>
</g>
</g>
<!-- Node25&#45;&gt;Node27 -->
<g id="edge2" class="edge"><title>Node25&#45;&gt;Node27</title>
<path fill="none" stroke="midnightblue" d="M163.045,-100.854C171.712,-102.183 180.394,-103.514 188.698,-104.788"/>
<polygon fill="midnightblue" stroke="midnightblue" points="188.198,-108.252 198.613,-106.309 189.26,-101.333 188.198,-108.252"/>
</g>
<!-- Node28 -->
<g id="node4" class="node"><title>Node28</title>
<g id="a_node4"><a xlink:href="../../d1/dcf/classinfra_1_1_json_object.html#a3e3605286b810a89a3e577049dc71db2" target="_top" xlink:title="infra::JsonObject::\lHasKey">
<polygon fill="white" stroke="black" points="199,-49.5 199,-79.5 294,-79.5 294,-49.5 199,-49.5"/>
<text text-anchor="start" x="207" y="-67.5" font-family="Helvetica,sans-Serif" font-size="10.00">infra::JsonObject::</text>
<text text-anchor="middle" x="246.5" y="-56.5" font-family="Helvetica,sans-Serif" font-size="10.00">HasKey</text>
</a>
</g>
</g>
<!-- Node25&#45;&gt;Node28 -->
<g id="edge3" class="edge"><title>Node25&#45;&gt;Node28</title>
<path fill="none" stroke="midnightblue" d="M163.045,-76.6406C171.712,-75.3644 180.394,-74.0862 188.698,-72.8635"/>
<polygon fill="midnightblue" stroke="midnightblue" points="189.23,-76.323 198.613,-71.4036 188.21,-69.3977 189.23,-76.323"/>
</g>
<!-- Node29 -->
<g id="node5" class="node"><title>Node29</title>
<g id="a_node5"><a xlink:href="../../d1/d16/classinfra_1_1_json_string.html#a9b98af64a592e7d99233ed49363fea80" target="_top" xlink:title="infra::JsonString::\lToStdString">
<polygon fill="white" stroke="black" points="200.5,-0.5 200.5,-30.5 292.5,-30.5 292.5,-0.5 200.5,-0.5"/>
<text text-anchor="start" x="208.5" y="-18.5" font-family="Helvetica,sans-Serif" font-size="10.00">infra::JsonString::</text>
<text text-anchor="middle" x="246.5" y="-7.5" font-family="Helvetica,sans-Serif" font-size="10.00">ToStdString</text>
</a>
</g>
</g>
<!-- Node25&#45;&gt;Node29 -->
<g id="edge4" class="edge"><title>Node25&#45;&gt;Node29</title>
<path fill="none" stroke="midnightblue" d="M116.274,-73.3744C141.298,-62.1671 175.591,-46.8088 202.562,-34.7298"/>
<polygon fill="midnightblue" stroke="midnightblue" points="204.074,-37.888 211.77,-30.6063 201.212,-31.4994 204.074,-37.888"/>
</g>
</g>
</svg>
