<?xml version="1.0" encoding="UTF-8" standalone="no"?>
<!DOCTYPE svg PUBLIC "-//W3C//DTD SVG 1.1//EN"
 "http://www.w3.org/Graphics/SVG/1.1/DTD/svg11.dtd">
<!-- Generated by graphviz version 2.38.0 (20140413.2041)
 -->
<!-- Title: application::UpgradePackConfigParser::CheckMandatoryKeys Pages: 1 -->
<svg width="382pt" height="50pt"
 viewBox="0.00 0.00 382.00 50.00" xmlns="http://www.w3.org/2000/svg" xmlns:xlink="http://www.w3.org/1999/xlink">
<g id="graph0" class="graph" transform="scale(1 1) rotate(0) translate(4 46)">
<title>application::UpgradePackConfigParser::CheckMandatoryKeys</title>
<polygon fill="white" stroke="none" points="-4,4 -4,-46 378,-46 378,4 -4,4"/>
<!-- Node10 -->
<g id="node1" class="node"><title>Node10</title>
<polygon fill="#bfbfbf" stroke="black" points="0,-6 0,-36 174,-36 174,-6 0,-6"/>
<text text-anchor="start" x="8" y="-24" font-family="Helvetica,sans-Serif" font-size="10.00">application::UpgradePack</text>
<text text-anchor="middle" x="87" y="-13" font-family="Helvetica,sans-Serif" font-size="10.00">ConfigParser::CheckMandatoryKeys</text>
</g>
<!-- Node11 -->
<g id="node2" class="node"><title>Node11</title>
<g id="a_node2"><a xlink:href="../../d0/de4/classapplication_1_1_upgrade_pack_config_parser.html#a5a1aeea9f1ad42bcab6b9e68d1d7bb9c" target="_top" xlink:title="application::UpgradePack\lConfigParser::UpgradePackConfig\lParser">
<polygon fill="white" stroke="black" points="210,-0.5 210,-41.5 374,-41.5 374,-0.5 210,-0.5"/>
<text text-anchor="start" x="218" y="-29.5" font-family="Helvetica,sans-Serif" font-size="10.00">application::UpgradePack</text>
<text text-anchor="start" x="218" y="-18.5" font-family="Helvetica,sans-Serif" font-size="10.00">ConfigParser::UpgradePackConfig</text>
<text text-anchor="middle" x="292" y="-7.5" font-family="Helvetica,sans-Serif" font-size="10.00">Parser</text>
</a>
</g>
</g>
<!-- Node10&#45;&gt;Node11 -->
<g id="edge1" class="edge"><title>Node10&#45;&gt;Node11</title>
<path fill="none" stroke="midnightblue" d="M184.173,-21C192.795,-21 201.469,-21 209.944,-21"/>
<polygon fill="midnightblue" stroke="midnightblue" points="184.09,-17.5001 174.09,-21 184.09,-24.5001 184.09,-17.5001"/>
</g>
</g>
</svg>
