<?xml version="1.0" encoding="UTF-8" standalone="no"?>
<!DOCTYPE svg PUBLIC "-//W3C//DTD SVG 1.1//EN"
 "http://www.w3.org/Graphics/SVG/1.1/DTD/svg11.dtd">
<!-- Generated by graphviz version 2.38.0 (20140413.2041)
 -->
<!-- Title: services::ConnectorBsd Pages: 1 -->
<svg width="309pt" height="88pt"
 viewBox="0.00 0.00 309.00 88.00" xmlns="http://www.w3.org/2000/svg" xmlns:xlink="http://www.w3.org/1999/xlink">
<g id="graph0" class="graph" transform="scale(1 1) rotate(0) translate(4 84)">
<title>services::ConnectorBsd</title>
<polygon fill="white" stroke="none" points="-4,4 -4,-84 305,-84 305,4 -4,4"/>
<!-- Node0 -->
<g id="node1" class="node"><title>Node0</title>
<polygon fill="#bfbfbf" stroke="black" points="182,-30 182,-49 301,-49 301,-30 182,-30"/>
<text text-anchor="middle" x="241.5" y="-37" font-family="Helvetica,sans-Serif" font-size="10.00">services::ConnectorBsd</text>
</g>
<!-- Node1 -->
<g id="node2" class="node"><title>Node1</title>
<g id="a_node2"><a xlink:href="../../d7/da5/classinfra_1_1detail_1_1_intrusive_list_node.html" target="_top" xlink:title="infra::IntrusiveList\l\&lt; ConnectorBsd \&gt;::NodeType">
<polygon fill="white" stroke="black" points="0,-49.5 0,-79.5 146,-79.5 146,-49.5 0,-49.5"/>
<text text-anchor="start" x="8" y="-67.5" font-family="Helvetica,sans-Serif" font-size="10.00">infra::IntrusiveList</text>
<text text-anchor="middle" x="73" y="-56.5" font-family="Helvetica,sans-Serif" font-size="10.00">&lt; ConnectorBsd &gt;::NodeType</text>
</a>
</g>
</g>
<!-- Node1&#45;&gt;Node0 -->
<g id="edge1" class="edge"><title>Node1&#45;&gt;Node0</title>
<path fill="none" stroke="midnightblue" d="M156.198,-52.158C164.858,-50.8576 173.534,-49.555 181.85,-48.3064"/>
<polygon fill="midnightblue" stroke="midnightblue" points="155.43,-48.7339 146.061,-53.68 156.47,-55.6563 155.43,-48.7339"/>
</g>
<!-- Node2 -->
<g id="node3" class="node"><title>Node2</title>
<g id="a_node3"><a xlink:href="../../dd/df1/classinfra_1_1_enable_shared_from_this.html" target="_top" xlink:title="infra::EnableSharedFromThis\l\&lt; ConnectorBsd \&gt;">
<polygon fill="white" stroke="black" points="2,-0.5 2,-30.5 144,-30.5 144,-0.5 2,-0.5"/>
<text text-anchor="start" x="10" y="-18.5" font-family="Helvetica,sans-Serif" font-size="10.00">infra::EnableSharedFromThis</text>
<text text-anchor="middle" x="73" y="-7.5" font-family="Helvetica,sans-Serif" font-size="10.00">&lt; ConnectorBsd &gt;</text>
</a>
</g>
</g>
<!-- Node2&#45;&gt;Node0 -->
<g id="edge2" class="edge"><title>Node2&#45;&gt;Node0</title>
<path fill="none" stroke="midnightblue" d="M154.178,-27.0572C163.479,-28.3978 172.83,-29.7458 181.768,-31.0341"/>
<polygon fill="midnightblue" stroke="midnightblue" points="154.526,-23.5712 144.128,-25.6086 153.527,-30.4996 154.526,-23.5712"/>
</g>
</g>
</svg>
