<?xml version="1.0" encoding="UTF-8" standalone="no"?>
<!DOCTYPE svg PUBLIC "-//W3C//DTD SVG 1.1//EN"
 "http://www.w3.org/Graphics/SVG/1.1/DTD/svg11.dtd">
<!-- Generated by graphviz version 2.38.0 (20140413.2041)
 -->
<!-- Title: infra::TextInputStream::SkipSpaces Pages: 1 -->
<svg width="618pt" height="225pt"
 viewBox="0.00 0.00 618.00 225.00" xmlns="http://www.w3.org/2000/svg" xmlns:xlink="http://www.w3.org/1999/xlink">
<g id="graph0" class="graph" transform="scale(1 1) rotate(0) translate(4 221)">
<title>infra::TextInputStream::SkipSpaces</title>
<polygon fill="white" stroke="none" points="-4,4 -4,-221 614,-221 614,4 -4,4"/>
<!-- Node347 -->
<g id="node1" class="node"><title>Node347</title>
<polygon fill="#bfbfbf" stroke="black" points="0,-93.5 0,-123.5 112,-123.5 112,-93.5 0,-93.5"/>
<text text-anchor="start" x="8" y="-111.5" font-family="Helvetica,sans-Serif" font-size="10.00">infra::TextInputStream</text>
<text text-anchor="middle" x="56" y="-100.5" font-family="Helvetica,sans-Serif" font-size="10.00">::SkipSpaces</text>
</g>
<!-- Node348 -->
<g id="node2" class="node"><title>Node348</title>
<g id="a_node2"><a xlink:href="../../db/dda/classinfra_1_1_input_stream.html#a2ba329777e84a8bba1d9d7b29ed6bee1" target="_top" xlink:title="infra::InputStream\l::ErrorPolicy">
<polygon fill="white" stroke="black" points="158,-186.5 158,-216.5 251,-216.5 251,-186.5 158,-186.5"/>
<text text-anchor="start" x="166" y="-204.5" font-family="Helvetica,sans-Serif" font-size="10.00">infra::InputStream</text>
<text text-anchor="middle" x="204.5" y="-193.5" font-family="Helvetica,sans-Serif" font-size="10.00">::ErrorPolicy</text>
</a>
</g>
</g>
<!-- Node347&#45;&gt;Node348 -->
<g id="edge1" class="edge"><title>Node347&#45;&gt;Node348</title>
<path fill="none" stroke="midnightblue" d="M74.2356,-123.584C91.9066,-138.551 120.605,-161.506 148,-177.5 150.635,-179.038 153.387,-180.537 156.195,-181.984"/>
<polygon fill="midnightblue" stroke="midnightblue" points="154.761,-185.179 165.283,-186.422 157.832,-178.889 154.761,-185.179"/>
</g>
<!-- Node349 -->
<g id="node3" class="node"><title>Node349</title>
<g id="a_node3"><a xlink:href="../../d2/d90/classinfra_1_1_stream_reader.html#a31b3e381cbdb9a8628c4176904c90d6c" target="_top" xlink:title="infra::StreamReader\l::Extract">
<polygon fill="white" stroke="black" points="153,-137.5 153,-167.5 256,-167.5 256,-137.5 153,-137.5"/>
<text text-anchor="start" x="161" y="-155.5" font-family="Helvetica,sans-Serif" font-size="10.00">infra::StreamReader</text>
<text text-anchor="middle" x="204.5" y="-144.5" font-family="Helvetica,sans-Serif" font-size="10.00">::Extract</text>
</a>
</g>
</g>
<!-- Node347&#45;&gt;Node349 -->
<g id="edge2" class="edge"><title>Node347&#45;&gt;Node349</title>
<path fill="none" stroke="midnightblue" d="M107.007,-123.519C118.78,-127.055 131.447,-130.859 143.606,-134.511"/>
<polygon fill="midnightblue" stroke="midnightblue" points="142.637,-137.875 153.221,-137.399 144.65,-131.17 142.637,-137.875"/>
</g>
<!-- Node350 -->
<g id="node4" class="node"><title>Node350</title>
<g id="a_node4"><a xlink:href="../../d0/de3/namespaceinfra.html#ae4478bf95f90ceb679642cb4180f205f" target="_top" xlink:title="infra::MakeByteRange">
<polygon fill="white" stroke="black" points="148,-99 148,-118 261,-118 261,-99 148,-99"/>
<text text-anchor="middle" x="204.5" y="-106" font-family="Helvetica,sans-Serif" font-size="10.00">infra::MakeByteRange</text>
</a>
</g>
</g>
<!-- Node347&#45;&gt;Node350 -->
<g id="edge3" class="edge"><title>Node347&#45;&gt;Node350</title>
<path fill="none" stroke="midnightblue" d="M112.385,-108.5C120.565,-108.5 129.062,-108.5 137.432,-108.5"/>
<polygon fill="midnightblue" stroke="midnightblue" points="137.55,-112 147.55,-108.5 137.55,-105 137.55,-112"/>
</g>
<!-- Node355 -->
<g id="node9" class="node"><title>Node355</title>
<g id="a_node9"><a xlink:href="../../d2/d90/classinfra_1_1_stream_reader.html#ad97bdd8c19a5601c54e975b904c85a88" target="_top" xlink:title="infra::StreamReader\l::Peek">
<polygon fill="white" stroke="black" points="153,-49.5 153,-79.5 256,-79.5 256,-49.5 153,-49.5"/>
<text text-anchor="start" x="161" y="-67.5" font-family="Helvetica,sans-Serif" font-size="10.00">infra::StreamReader</text>
<text text-anchor="middle" x="204.5" y="-56.5" font-family="Helvetica,sans-Serif" font-size="10.00">::Peek</text>
</a>
</g>
</g>
<!-- Node347&#45;&gt;Node355 -->
<g id="edge8" class="edge"><title>Node347&#45;&gt;Node355</title>
<path fill="none" stroke="midnightblue" d="M107.007,-93.4808C118.78,-89.9448 131.447,-86.1405 143.606,-82.4888"/>
<polygon fill="midnightblue" stroke="midnightblue" points="144.65,-85.8296 153.221,-79.6009 142.637,-79.1254 144.65,-85.8296"/>
</g>
<!-- Node356 -->
<g id="node10" class="node"><title>Node356</title>
<g id="a_node10"><a xlink:href="../../db/dda/classinfra_1_1_input_stream.html#a9f1f392517013e99a0517d3688949a7a" target="_top" xlink:title="infra::InputStream\l::Reader">
<polygon fill="white" stroke="black" points="158,-0.5 158,-30.5 251,-30.5 251,-0.5 158,-0.5"/>
<text text-anchor="start" x="166" y="-18.5" font-family="Helvetica,sans-Serif" font-size="10.00">infra::InputStream</text>
<text text-anchor="middle" x="204.5" y="-7.5" font-family="Helvetica,sans-Serif" font-size="10.00">::Reader</text>
</a>
</g>
</g>
<!-- Node347&#45;&gt;Node356 -->
<g id="edge9" class="edge"><title>Node347&#45;&gt;Node356</title>
<path fill="none" stroke="midnightblue" d="M74.6575,-93.4669C92.4224,-78.7958 120.983,-56.4199 148,-40.5 151.192,-38.6189 154.551,-36.7841 157.971,-35.0182"/>
<polygon fill="midnightblue" stroke="midnightblue" points="159.673,-38.0814 167.095,-30.5203 156.578,-31.803 159.673,-38.0814"/>
</g>
<!-- Node351 -->
<g id="node5" class="node"><title>Node351</title>
<g id="a_node5"><a xlink:href="../../d0/de3/namespaceinfra.html#afe38b7d4318537de2f28b244211c4275" target="_top" xlink:title="infra::MakeRange">
<polygon fill="white" stroke="black" points="315,-121 315,-140 407,-140 407,-121 315,-121"/>
<text text-anchor="middle" x="361" y="-128" font-family="Helvetica,sans-Serif" font-size="10.00">infra::MakeRange</text>
</a>
</g>
</g>
<!-- Node350&#45;&gt;Node351 -->
<g id="edge4" class="edge"><title>Node350&#45;&gt;Node351</title>
<path fill="none" stroke="midnightblue" d="M261.278,-116.443C275.467,-118.463 290.706,-120.633 304.862,-122.649"/>
<polygon fill="midnightblue" stroke="midnightblue" points="304.555,-126.14 314.949,-124.085 305.542,-119.21 304.555,-126.14"/>
</g>
<!-- Node354 -->
<g id="node8" class="node"><title>Node354</title>
<g id="a_node8"><a xlink:href="../../d0/de3/namespaceinfra.html#a74203fdf2e029d2667c7e4925092cc9a" target="_top" xlink:title="infra::ReinterpretCastByte\lRange">
<polygon fill="white" stroke="black" points="297,-71.5 297,-101.5 425,-101.5 425,-71.5 297,-71.5"/>
<text text-anchor="start" x="305" y="-89.5" font-family="Helvetica,sans-Serif" font-size="10.00">infra::ReinterpretCastByte</text>
<text text-anchor="middle" x="361" y="-78.5" font-family="Helvetica,sans-Serif" font-size="10.00">Range</text>
</a>
</g>
</g>
<!-- Node350&#45;&gt;Node354 -->
<g id="edge7" class="edge"><title>Node350&#45;&gt;Node354</title>
<path fill="none" stroke="midnightblue" d="M261.278,-100.557C269.603,-99.3721 278.289,-98.1352 286.906,-96.9082"/>
<polygon fill="midnightblue" stroke="midnightblue" points="287.557,-100.351 296.964,-95.476 286.57,-93.4208 287.557,-100.351"/>
</g>
<!-- Node352 -->
<g id="node6" class="node"><title>Node352</title>
<g id="a_node6"><a xlink:href="../../d1/d2a/classinfra_1_1_bounded_string_base.html#aef23e4250cad2fdc69ccc39f68734233" target="_top" xlink:title="infra::BoundedStringBase\l::begin">
<polygon fill="white" stroke="black" points="472,-137.5 472,-167.5 599,-167.5 599,-137.5 472,-137.5"/>
<text text-anchor="start" x="480" y="-155.5" font-family="Helvetica,sans-Serif" font-size="10.00">infra::BoundedStringBase</text>
<text text-anchor="middle" x="535.5" y="-144.5" font-family="Helvetica,sans-Serif" font-size="10.00">::begin</text>
</a>
</g>
</g>
<!-- Node351&#45;&gt;Node352 -->
<g id="edge5" class="edge"><title>Node351&#45;&gt;Node352</title>
<path fill="none" stroke="midnightblue" d="M407.322,-136.28C423.999,-138.407 443.333,-140.873 461.814,-143.23"/>
<polygon fill="midnightblue" stroke="midnightblue" points="461.61,-146.732 471.972,-144.525 462.495,-139.788 461.61,-146.732"/>
</g>
<!-- Node353 -->
<g id="node7" class="node"><title>Node353</title>
<g id="a_node7"><a xlink:href="../../d1/d2a/classinfra_1_1_bounded_string_base.html#af5021f1ea3898146d0a55c2895f07dbf" target="_top" xlink:title="infra::BoundedStringBase::end">
<polygon fill="white" stroke="black" points="461,-99 461,-118 610,-118 610,-99 461,-99"/>
<text text-anchor="middle" x="535.5" y="-106" font-family="Helvetica,sans-Serif" font-size="10.00">infra::BoundedStringBase::end</text>
</a>
</g>
</g>
<!-- Node351&#45;&gt;Node353 -->
<g id="edge6" class="edge"><title>Node351&#45;&gt;Node353</title>
<path fill="none" stroke="midnightblue" d="M407.322,-124.72C420.624,-123.023 435.615,-121.111 450.517,-119.211"/>
<polygon fill="midnightblue" stroke="midnightblue" points="451.32,-122.637 460.797,-117.9 450.435,-115.693 451.32,-122.637"/>
</g>
</g>
</svg>
