<?xml version="1.0" encoding="UTF-8" standalone="no"?>
<!DOCTYPE svg PUBLIC "-//W3C//DTD SVG 1.1//EN"
 "http://www.w3.org/Graphics/SVG/1.1/DTD/svg11.dtd">
<!-- Generated by graphviz version 2.38.0 (20140413.2041)
 -->
<!-- Title: infra::TextInputStream::operator&gt;&gt; Pages: 1 -->
<!--zoomable 239 -->
<svg id="main" version="1.1" xmlns="http://www.w3.org/2000/svg" xmlns:xlink="http://www.w3.org/1999/xlink" xml:space="preserve" onload="init(evt)">
<style type="text/css"><![CDATA[
.edge:hover path { stroke: red; }
.edge:hover polygon { stroke: red; fill: red; }
]]></style>
<script type="text/javascript"><![CDATA[
var edges = document.getElementsByTagName('g');
if (edges && edges.length) {
  for (var i=0;i<edges.length;i++) {
    if (edges[i].id.substr(0,4)=='edge') {
      edges[i].setAttribute('class','edge');
    }
  }
}
]]></script>
        <defs>
                <circle id="rim" cx="0" cy="0" r="7"/>
                <circle id="rim2" cx="0" cy="0" r="3.5"/>
                <g id="zoomPlus">
                        <use xlink:href="#rim" fill="#404040">
                                <set attributeName="fill" to="#808080" begin="zoomplus.mouseover" end="zoomplus.mouseout"/>
                        </use>
                        <path d="M-4,0h8M0,-4v8" fill="none" stroke="white" stroke-width="1.5" pointer-events="none"/>
                </g>
                <g id="zoomMin">
                        <use xlink:href="#rim" fill="#404040">
                                <set attributeName="fill" to="#808080" begin="zoomminus.mouseover" end="zoomminus.mouseout"/>
                        </use>
                        <path d="M-4,0h8" fill="none" stroke="white" stroke-width="1.5" pointer-events="none"/>
                </g>
                <g id="dirArrow">
                        <path fill="none" stroke="white" stroke-width="1.5" d="M0,-3.0v7 M-2.5,-0.5L0,-3.0L2.5,-0.5"/>
                </g>
               <g id="resetDef">
                       <use xlink:href="#rim2" fill="#404040">
                               <set attributeName="fill" to="#808080" begin="reset.mouseover" end="reset.mouseout"/>
                       </use>
               </g>
        </defs>

<script type="text/javascript">
var viewWidth = 618;
var viewHeight = 239;
var sectionId = 'dynsection-14';
</script>
<script xlink:href="../../svgpan.js"/>
<svg id="graph" class="graph">
<g id="viewport">
<title>infra::TextInputStream::operator&gt;&gt;</title>
<polygon fill="white" stroke="none" points="-4,4 -4,-235.287 614,-235.287 614,4 -4,4"/>
<!-- Node147 -->
<g id="node1" class="node"><title>Node147</title>
<polygon fill="#bfbfbf" stroke="black" points="0,-104.5 0,-134.5 112,-134.5 112,-104.5 0,-104.5"/>
<text text-anchor="start" x="8" y="-122.5" font-family="Helvetica,sans-Serif" font-size="10.00">infra::TextInputStream</text>
<text text-anchor="middle" x="56" y="-111.5" font-family="Helvetica,sans-Serif" font-size="10.00">::operator&gt;&gt;</text>
</g>
<!-- Node148 -->
<g id="node2" class="node"><title>Node148</title>
<g id="a_node2"><a xlink:href="../../db/dda/classinfra_1_1_input_stream.html#a2ba329777e84a8bba1d9d7b29ed6bee1" target="_top" xlink:title="infra::InputStream\l::ErrorPolicy">
<polygon fill="white" stroke="black" points="314.5,-196.5 314.5,-226.5 407.5,-226.5 407.5,-196.5 314.5,-196.5"/>
<text text-anchor="start" x="322.5" y="-214.5" font-family="Helvetica,sans-Serif" font-size="10.00">infra::InputStream</text>
<text text-anchor="middle" x="361" y="-203.5" font-family="Helvetica,sans-Serif" font-size="10.00">::ErrorPolicy</text>
</a>
</g>
</g>
<!-- Node147&#45;&gt;Node148 -->
<g id="edge1" class="edge"><title>Node147&#45;&gt;Node148</title>
<path fill="none" stroke="midnightblue" d="M65.7902,-134.789C79.8075,-157.434 109.603,-198.991 148,-215.5 197.729,-236.881 260.275,-232.38 304.507,-224.676"/>
<polygon fill="midnightblue" stroke="midnightblue" points="305.299,-228.089 314.495,-222.828 304.026,-221.206 305.299,-228.089"/>
</g>
<!-- Node149 -->
<g id="node3" class="node"><title>Node149</title>
<g id="a_node3"><a xlink:href="../../d2/d90/classinfra_1_1_stream_reader.html#a31b3e381cbdb9a8628c4176904c90d6c" target="_top" xlink:title="infra::StreamReader\l::Extract">
<polygon fill="white" stroke="black" points="153,-175.5 153,-205.5 256,-205.5 256,-175.5 153,-175.5"/>
<text text-anchor="start" x="161" y="-193.5" font-family="Helvetica,sans-Serif" font-size="10.00">infra::StreamReader</text>
<text text-anchor="middle" x="204.5" y="-182.5" font-family="Helvetica,sans-Serif" font-size="10.00">::Extract</text>
</a>
</g>
</g>
<!-- Node147&#45;&gt;Node149 -->
<g id="edge2" class="edge"><title>Node147&#45;&gt;Node149</title>
<path fill="none" stroke="midnightblue" d="M85.0342,-134.611C102.901,-144.084 126.628,-156.375 148,-166.5 151.377,-168.1 154.887,-169.719 158.429,-171.32"/>
<polygon fill="midnightblue" stroke="midnightblue" points="157.249,-174.626 167.808,-175.495 160.096,-168.231 157.249,-174.626"/>
</g>
<!-- Node150 -->
<g id="node4" class="node"><title>Node150</title>
<g id="a_node4"><a xlink:href="../../d0/de3/namespaceinfra.html#ae4478bf95f90ceb679642cb4180f205f" target="_top" xlink:title="infra::MakeByteRange">
<polygon fill="white" stroke="black" points="148,-50 148,-69 261,-69 261,-50 148,-50"/>
<text text-anchor="middle" x="204.5" y="-57" font-family="Helvetica,sans-Serif" font-size="10.00">infra::MakeByteRange</text>
</a>
</g>
</g>
<!-- Node147&#45;&gt;Node150 -->
<g id="edge3" class="edge"><title>Node147&#45;&gt;Node150</title>
<path fill="none" stroke="midnightblue" d="M93.9681,-104.359C117.702,-94.639 148.235,-82.1341 171.032,-72.7973"/>
<polygon fill="midnightblue" stroke="midnightblue" points="172.359,-76.0361 180.287,-69.0072 169.706,-69.5584 172.359,-76.0361"/>
</g>
<!-- Node155 -->
<g id="node9" class="node"><title>Node155</title>
<g id="a_node9"><a xlink:href="../../d7/d93/classinfra_1_1_text_input_stream.html#a81177021104b578af501153a665750bf" target="_top" xlink:title="infra::TextInputStream\l::operator\&gt;\&gt;">
<polygon fill="white" stroke="black" points="148.5,-126.5 148.5,-156.5 260.5,-156.5 260.5,-126.5 148.5,-126.5"/>
<text text-anchor="start" x="156.5" y="-144.5" font-family="Helvetica,sans-Serif" font-size="10.00">infra::TextInputStream</text>
<text text-anchor="middle" x="204.5" y="-133.5" font-family="Helvetica,sans-Serif" font-size="10.00">::operator&gt;&gt;</text>
</a>
</g>
</g>
<!-- Node147&#45;&gt;Node155 -->
<g id="edge8" class="edge"><title>Node147&#45;&gt;Node155</title>
<path fill="none" stroke="midnightblue" d="M112.385,-127.817C120.772,-129.077 129.491,-130.386 138.065,-131.674"/>
<polygon fill="midnightblue" stroke="midnightblue" points="137.627,-135.147 148.036,-133.171 138.667,-128.225 137.627,-135.147"/>
</g>
<!-- Node156 -->
<g id="node10" class="node"><title>Node156</title>
<g id="a_node10"><a xlink:href="../../db/dda/classinfra_1_1_input_stream.html#a9f1f392517013e99a0517d3688949a7a" target="_top" xlink:title="infra::InputStream\l::Reader">
<polygon fill="white" stroke="black" points="314.5,-116.5 314.5,-146.5 407.5,-146.5 407.5,-116.5 314.5,-116.5"/>
<text text-anchor="start" x="322.5" y="-134.5" font-family="Helvetica,sans-Serif" font-size="10.00">infra::InputStream</text>
<text text-anchor="middle" x="361" y="-123.5" font-family="Helvetica,sans-Serif" font-size="10.00">::Reader</text>
</a>
</g>
</g>
<!-- Node147&#45;&gt;Node156 -->
<g id="edge12" class="edge"><title>Node147&#45;&gt;Node156</title>
<path fill="none" stroke="midnightblue" d="M112.334,-117.384C124.105,-117.016 136.462,-116.69 148,-116.5 198.215,-115.672 210.92,-112.728 261,-116.5 275.088,-117.561 290.21,-119.461 304.288,-121.559"/>
<polygon fill="midnightblue" stroke="midnightblue" points="303.907,-125.041 314.325,-123.113 304.978,-118.124 303.907,-125.041"/>
</g>
<!-- Node157 -->
<g id="node11" class="node"><title>Node157</title>
<g id="a_node11"><a xlink:href="../../d2/d90/classinfra_1_1_stream_reader.html#ad97bdd8c19a5601c54e975b904c85a88" target="_top" xlink:title="infra::StreamReader\l::Peek">
<polygon fill="white" stroke="black" points="153,-0.5 153,-30.5 256,-30.5 256,-0.5 153,-0.5"/>
<text text-anchor="start" x="161" y="-18.5" font-family="Helvetica,sans-Serif" font-size="10.00">infra::StreamReader</text>
<text text-anchor="middle" x="204.5" y="-7.5" font-family="Helvetica,sans-Serif" font-size="10.00">::Peek</text>
</a>
</g>
</g>
<!-- Node147&#45;&gt;Node157 -->
<g id="edge11" class="edge"><title>Node147&#45;&gt;Node157</title>
<path fill="none" stroke="midnightblue" d="M71.6766,-104.321C88.8101,-87.2092 118.568,-59.3269 148,-40.5 150.892,-38.6502 153.943,-36.8672 157.068,-35.1641"/>
<polygon fill="midnightblue" stroke="midnightblue" points="158.692,-38.2643 165.992,-30.5858 155.497,-32.036 158.692,-38.2643"/>
</g>
<!-- Node151 -->
<g id="node5" class="node"><title>Node151</title>
<g id="a_node5"><a xlink:href="../../d0/de3/namespaceinfra.html#afe38b7d4318537de2f28b244211c4275" target="_top" xlink:title="infra::MakeRange">
<polygon fill="white" stroke="black" points="315,-59 315,-78 407,-78 407,-59 315,-59"/>
<text text-anchor="middle" x="361" y="-66" font-family="Helvetica,sans-Serif" font-size="10.00">infra::MakeRange</text>
</a>
</g>
</g>
<!-- Node150&#45;&gt;Node151 -->
<g id="edge4" class="edge"><title>Node150&#45;&gt;Node151</title>
<path fill="none" stroke="midnightblue" d="M261.278,-62.7492C275.467,-63.5757 290.706,-64.4634 304.862,-65.2881"/>
<polygon fill="midnightblue" stroke="midnightblue" points="304.762,-68.7881 314.949,-65.8757 305.169,-61.8 304.762,-68.7881"/>
</g>
<!-- Node154 -->
<g id="node8" class="node"><title>Node154</title>
<g id="a_node8"><a xlink:href="../../d0/de3/namespaceinfra.html#a74203fdf2e029d2667c7e4925092cc9a" target="_top" xlink:title="infra::ReinterpretCastByte\lRange">
<polygon fill="white" stroke="black" points="297,-9.5 297,-39.5 425,-39.5 425,-9.5 297,-9.5"/>
<text text-anchor="start" x="305" y="-27.5" font-family="Helvetica,sans-Serif" font-size="10.00">infra::ReinterpretCastByte</text>
<text text-anchor="middle" x="361" y="-16.5" font-family="Helvetica,sans-Serif" font-size="10.00">Range</text>
</a>
</g>
</g>
<!-- Node150&#45;&gt;Node154 -->
<g id="edge7" class="edge"><title>Node150&#45;&gt;Node154</title>
<path fill="none" stroke="midnightblue" d="M247.718,-49.9361C259.94,-47.1673 273.646,-44.0623 287.171,-40.9984"/>
<polygon fill="midnightblue" stroke="midnightblue" points="287.984,-44.403 296.964,-38.78 286.438,-37.576 287.984,-44.403"/>
</g>
<!-- Node152 -->
<g id="node6" class="node"><title>Node152</title>
<g id="a_node6"><a xlink:href="../../d1/d2a/classinfra_1_1_bounded_string_base.html#aef23e4250cad2fdc69ccc39f68734233" target="_top" xlink:title="infra::BoundedStringBase\l::begin">
<polygon fill="white" stroke="black" points="472,-75.5 472,-105.5 599,-105.5 599,-75.5 472,-75.5"/>
<text text-anchor="start" x="480" y="-93.5" font-family="Helvetica,sans-Serif" font-size="10.00">infra::BoundedStringBase</text>
<text text-anchor="middle" x="535.5" y="-82.5" font-family="Helvetica,sans-Serif" font-size="10.00">::begin</text>
</a>
</g>
</g>
<!-- Node151&#45;&gt;Node152 -->
<g id="edge5" class="edge"><title>Node151&#45;&gt;Node152</title>
<path fill="none" stroke="midnightblue" d="M407.322,-74.2802C423.999,-76.4071 443.333,-78.8729 461.814,-81.23"/>
<polygon fill="midnightblue" stroke="midnightblue" points="461.61,-84.7321 471.972,-82.5254 462.495,-77.7883 461.61,-84.7321"/>
</g>
<!-- Node153 -->
<g id="node7" class="node"><title>Node153</title>
<g id="a_node7"><a xlink:href="../../d1/d2a/classinfra_1_1_bounded_string_base.html#af5021f1ea3898146d0a55c2895f07dbf" target="_top" xlink:title="infra::BoundedStringBase::end">
<polygon fill="white" stroke="black" points="461,-37 461,-56 610,-56 610,-37 461,-37"/>
<text text-anchor="middle" x="535.5" y="-44" font-family="Helvetica,sans-Serif" font-size="10.00">infra::BoundedStringBase::end</text>
</a>
</g>
</g>
<!-- Node151&#45;&gt;Node153 -->
<g id="edge6" class="edge"><title>Node151&#45;&gt;Node153</title>
<path fill="none" stroke="midnightblue" d="M407.322,-62.7198C420.624,-61.0234 435.615,-59.1114 450.517,-57.2109"/>
<polygon fill="midnightblue" stroke="midnightblue" points="451.32,-60.6369 460.797,-55.8998 450.435,-53.6931 451.32,-60.6369"/>
</g>
<!-- Node155&#45;&gt;Node148 -->
<g id="edge9" class="edge"><title>Node155&#45;&gt;Node148</title>
<path fill="none" stroke="midnightblue" d="M238.966,-156.552C246.232,-159.827 253.875,-163.276 261,-166.5 279.577,-174.906 300.099,-184.228 317.62,-192.198"/>
<polygon fill="midnightblue" stroke="midnightblue" points="316.461,-195.516 327.013,-196.472 319.36,-189.145 316.461,-195.516"/>
</g>
<!-- Node155&#45;&gt;Node156 -->
<g id="edge10" class="edge"><title>Node155&#45;&gt;Node156</title>
<path fill="none" stroke="midnightblue" d="M260.842,-137.918C274.916,-137.007 290.048,-136.028 304.148,-135.115"/>
<polygon fill="midnightblue" stroke="midnightblue" points="304.449,-138.603 314.202,-134.464 303.997,-131.618 304.449,-138.603"/>
</g>
</g>
</svg>
        <g id="navigator" transform="translate(0 0)" fill="#404254">
                <rect fill="#f2f5e9" fill-opacity="0.5" stroke="#606060" stroke-width=".5" x="0" y="0" width="60" height="60"/>
                <use id="zoomplus" xlink:href="#zoomPlus" x="17" y="9" onmousedown="handleZoom(evt,'in')"/>
                <use id="zoomminus" xlink:href="#zoomMin" x="42" y="9" onmousedown="handleZoom(evt,'out')"/>
                <use id="reset" xlink:href="#resetDef" x="30" y="36" onmousedown="handleReset()"/>
                <g id="arrowUp" xlink:href="#dirArrow" transform="translate(30 24)" onmousedown="handlePan(0,-1)">
                  <use xlink:href="#rim" fill="#404040">
                        <set attributeName="fill" to="#808080" begin="arrowUp.mouseover" end="arrowUp.mouseout"/>
                  </use>
                  <path fill="none" stroke="white" stroke-width="1.5" d="M0,-3.0v7 M-2.5,-0.5L0,-3.0L2.5,-0.5"/>
                </g>
                <g id="arrowRight" xlink:href="#dirArrow" transform="rotate(90) translate(36 -43)" onmousedown="handlePan(1,0)">
                  <use xlink:href="#rim" fill="#404040">
                        <set attributeName="fill" to="#808080" begin="arrowRight.mouseover" end="arrowRight.mouseout"/>
                  </use>
                  <path fill="none" stroke="white" stroke-width="1.5" d="M0,-3.0v7 M-2.5,-0.5L0,-3.0L2.5,-0.5"/>
                </g>
                <g id="arrowDown" xlink:href="#dirArrow" transform="rotate(180) translate(-30 -48)" onmousedown="handlePan(0,1)">
                  <use xlink:href="#rim" fill="#404040">
                        <set attributeName="fill" to="#808080" begin="arrowDown.mouseover" end="arrowDown.mouseout"/>
                  </use>
                  <path fill="none" stroke="white" stroke-width="1.5" d="M0,-3.0v7 M-2.5,-0.5L0,-3.0L2.5,-0.5"/>
                </g>
                <g id="arrowLeft" xlink:href="#dirArrow" transform="rotate(270) translate(-36 17)" onmousedown="handlePan(-1,0)">
                  <use xlink:href="#rim" fill="#404040">
                        <set attributeName="fill" to="#808080" begin="arrowLeft.mouseover" end="arrowLeft.mouseout"/>
                  </use>
                  <path fill="none" stroke="white" stroke-width="1.5" d="M0,-3.0v7 M-2.5,-0.5L0,-3.0L2.5,-0.5"/>
                </g>
        </g>
        <svg viewBox="0 0 15 15" width="100%" height="30px" preserveAspectRatio="xMaxYMin meet">
         <g id="arrow_out" transform="scale(0.3 0.3)">
          <a xlink:href="classinfra_1_1_text_input_stream_a0c4a6602a4104666cb247a15ce1f1a57_cgraph_org.svg" target="_base">
           <rect id="button" ry="5" rx="5" y="6" x="6" height="38" width="38"
                fill="#f2f5e9" fill-opacity="0.5" stroke="#606060" stroke-width="1.0"/>
           <path id="arrow"
             d="M 11.500037,31.436501 C 11.940474,20.09759 22.043105,11.32322 32.158766,21.979434 L 37.068811,17.246167 C 37.068811,17.246167 37.088388,32 37.088388,32 L 22.160133,31.978069 C 22.160133,31.978069 26.997745,27.140456 26.997745,27.140456 C 18.528582,18.264221 13.291696,25.230495 11.500037,31.436501 z"
             style="fill:#404040;"/>
          </a>
         </g>
        </svg>
</svg>
