<?xml version="1.0" encoding="UTF-8" standalone="no"?>
<!DOCTYPE svg PUBLIC "-//W3C//DTD SVG 1.1//EN"
 "http://www.w3.org/Graphics/SVG/1.1/DTD/svg11.dtd">
<!-- Generated by graphviz version 2.38.0 (20140413.2041)
 -->
<!-- Title: hal::SynchronousQuadSpi::SendDataQuad Pages: 1 -->
<svg width="488pt" height="88pt"
 viewBox="0.00 0.00 488.00 88.00" xmlns="http://www.w3.org/2000/svg" xmlns:xlink="http://www.w3.org/1999/xlink">
<g id="graph0" class="graph" transform="scale(1 1) rotate(0) translate(4 84)">
<title>hal::SynchronousQuadSpi::SendDataQuad</title>
<polygon fill="white" stroke="none" points="-4,4 -4,-84 484,-84 484,4 -4,4"/>
<!-- Node20 -->
<g id="node1" class="node"><title>Node20</title>
<polygon fill="#bfbfbf" stroke="black" points="0,-24.5 0,-54.5 130,-54.5 130,-24.5 0,-24.5"/>
<text text-anchor="start" x="8" y="-42.5" font-family="Helvetica,sans-Serif" font-size="10.00">hal::SynchronousQuadSpi</text>
<text text-anchor="middle" x="65" y="-31.5" font-family="Helvetica,sans-Serif" font-size="10.00">::SendDataQuad</text>
</g>
<!-- Node21 -->
<g id="node2" class="node"><title>Node21</title>
<g id="a_node2"><a xlink:href="../../d7/ddb/classservices_1_1_synchronous_flash_quad_spi.html#a7f860e4ff104978a992a29616fa64df0" target="_top" xlink:title="services::SynchronousFlash\lQuadSpi::PageProgram">
<polygon fill="white" stroke="black" points="166,-49.5 166,-79.5 305,-79.5 305,-49.5 166,-49.5"/>
<text text-anchor="start" x="174" y="-67.5" font-family="Helvetica,sans-Serif" font-size="10.00">services::SynchronousFlash</text>
<text text-anchor="middle" x="235.5" y="-56.5" font-family="Helvetica,sans-Serif" font-size="10.00">QuadSpi::PageProgram</text>
</a>
</g>
</g>
<!-- Node20&#45;&gt;Node21 -->
<g id="edge1" class="edge"><title>Node20&#45;&gt;Node21</title>
<path fill="none" stroke="midnightblue" d="M140.099,-50.494C148.62,-51.7581 157.28,-53.0431 165.726,-54.2962"/>
<polygon fill="midnightblue" stroke="midnightblue" points="140.589,-47.0283 130.183,-49.0227 139.561,-53.9525 140.589,-47.0283"/>
</g>
<!-- Node23 -->
<g id="node4" class="node"><title>Node23</title>
<g id="a_node4"><a xlink:href="../../d7/ddb/classservices_1_1_synchronous_flash_quad_spi.html#a4852e7f5e9ac0badcaad07a7fa1892b4" target="_top" xlink:title="services::SynchronousFlash\lQuadSpi::WriteEnable">
<polygon fill="white" stroke="black" points="166,-0.5 166,-30.5 305,-30.5 305,-0.5 166,-0.5"/>
<text text-anchor="start" x="174" y="-18.5" font-family="Helvetica,sans-Serif" font-size="10.00">services::SynchronousFlash</text>
<text text-anchor="middle" x="235.5" y="-7.5" font-family="Helvetica,sans-Serif" font-size="10.00">QuadSpi::WriteEnable</text>
</a>
</g>
</g>
<!-- Node20&#45;&gt;Node23 -->
<g id="edge3" class="edge"><title>Node20&#45;&gt;Node23</title>
<path fill="none" stroke="midnightblue" d="M140.099,-28.9458C148.62,-27.7322 157.28,-26.4986 165.726,-25.2957"/>
<polygon fill="midnightblue" stroke="midnightblue" points="139.59,-25.4829 130.183,-30.3582 140.577,-32.413 139.59,-25.4829"/>
</g>
<!-- Node22 -->
<g id="node3" class="node"><title>Node22</title>
<g id="a_node3"><a xlink:href="../../d7/ddb/classservices_1_1_synchronous_flash_quad_spi.html#a269561aa405364b3c6df913a1c607b00" target="_top" xlink:title="services::SynchronousFlash\lQuadSpi::WriteBuffer">
<polygon fill="white" stroke="black" points="341,-24.5 341,-54.5 480,-54.5 480,-24.5 341,-24.5"/>
<text text-anchor="start" x="349" y="-42.5" font-family="Helvetica,sans-Serif" font-size="10.00">services::SynchronousFlash</text>
<text text-anchor="middle" x="410.5" y="-31.5" font-family="Helvetica,sans-Serif" font-size="10.00">QuadSpi::WriteBuffer</text>
</a>
</g>
</g>
<!-- Node21&#45;&gt;Node22 -->
<g id="edge2" class="edge"><title>Node21&#45;&gt;Node22</title>
<path fill="none" stroke="midnightblue" d="M315.316,-53.1104C323.844,-51.8781 332.472,-50.6312 340.866,-49.4183"/>
<polygon fill="midnightblue" stroke="midnightblue" points="314.768,-49.6532 305.371,-54.5475 315.769,-56.5812 314.768,-49.6532"/>
</g>
<!-- Node23&#45;&gt;Node22 -->
<g id="edge4" class="edge"><title>Node23&#45;&gt;Node22</title>
<path fill="none" stroke="midnightblue" d="M315.316,-26.434C323.844,-27.6171 332.472,-28.8141 340.866,-29.9785"/>
<polygon fill="midnightblue" stroke="midnightblue" points="315.757,-22.9618 305.371,-25.0544 314.795,-29.8954 315.757,-22.9618"/>
</g>
</g>
</svg>
