<?xml version="1.0" encoding="UTF-8" standalone="no"?>
<!DOCTYPE svg PUBLIC "-//W3C//DTD SVG 1.1//EN"
 "http://www.w3.org/Graphics/SVG/1.1/DTD/svg11.dtd">
<!-- Generated by graphviz version 2.38.0 (20140413.2041)
 -->
<!-- Title: application::BinaryObject::AddLine Pages: 1 -->
<svg width="437pt" height="39pt"
 viewBox="0.00 0.00 437.00 39.00" xmlns="http://www.w3.org/2000/svg" xmlns:xlink="http://www.w3.org/1999/xlink">
<g id="graph0" class="graph" transform="scale(1 1) rotate(0) translate(4 35)">
<title>application::BinaryObject::AddLine</title>
<polygon fill="white" stroke="none" points="-4,4 -4,-35 433,-35 433,4 -4,4"/>
<!-- Node14 -->
<g id="node1" class="node"><title>Node14</title>
<polygon fill="#bfbfbf" stroke="black" points="0,-0.5 0,-30.5 125,-30.5 125,-0.5 0,-0.5"/>
<text text-anchor="start" x="8" y="-18.5" font-family="Helvetica,sans-Serif" font-size="10.00">application::BinaryObject</text>
<text text-anchor="middle" x="62.5" y="-7.5" font-family="Helvetica,sans-Serif" font-size="10.00">::AddLine</text>
</g>
<!-- Node15 -->
<g id="node2" class="node"><title>Node15</title>
<g id="a_node2"><a xlink:href="../../d5/df0/classapplication_1_1_binary_object.html#a4f2f3da377d6ed3915ea08bad1749965" target="_top" xlink:title="application::BinaryObject\l::AddHex">
<polygon fill="white" stroke="black" points="161,-0.5 161,-30.5 286,-30.5 286,-0.5 161,-0.5"/>
<text text-anchor="start" x="169" y="-18.5" font-family="Helvetica,sans-Serif" font-size="10.00">application::BinaryObject</text>
<text text-anchor="middle" x="223.5" y="-7.5" font-family="Helvetica,sans-Serif" font-size="10.00">::AddHex</text>
</a>
</g>
</g>
<!-- Node14&#45;&gt;Node15 -->
<g id="edge1" class="edge"><title>Node14&#45;&gt;Node15</title>
<path fill="none" stroke="midnightblue" d="M135.592,-15.5C143.99,-15.5 152.499,-15.5 160.74,-15.5"/>
<polygon fill="midnightblue" stroke="midnightblue" points="135.429,-12.0001 125.429,-15.5 135.429,-19.0001 135.429,-12.0001"/>
</g>
<!-- Node16 -->
<g id="node3" class="node"><title>Node16</title>
<g id="a_node3"><a xlink:href="../../dd/dac/classapplication_1_1_input_hex.html#a7416ca9974689771d7cff64670871f3a" target="_top" xlink:title="application::InputHex\l::InputHex">
<polygon fill="white" stroke="black" points="322,-0.5 322,-30.5 429,-30.5 429,-0.5 322,-0.5"/>
<text text-anchor="start" x="330" y="-18.5" font-family="Helvetica,sans-Serif" font-size="10.00">application::InputHex</text>
<text text-anchor="middle" x="375.5" y="-7.5" font-family="Helvetica,sans-Serif" font-size="10.00">::InputHex</text>
</a>
</g>
</g>
<!-- Node15&#45;&gt;Node16 -->
<g id="edge2" class="edge"><title>Node15&#45;&gt;Node16</title>
<path fill="none" stroke="midnightblue" d="M296.397,-15.5C304.977,-15.5 313.611,-15.5 321.85,-15.5"/>
<polygon fill="midnightblue" stroke="midnightblue" points="296.377,-12.0001 286.377,-15.5 296.377,-19.0001 296.377,-12.0001"/>
</g>
</g>
</svg>
