<?xml version="1.0" encoding="UTF-8" standalone="no"?>
<!DOCTYPE svg PUBLIC "-//W3C//DTD SVG 1.1//EN"
 "http://www.w3.org/Graphics/SVG/1.1/DTD/svg11.dtd">
<!-- Generated by graphviz version 2.38.0 (20140413.2041)
 -->
<!-- Title: hal::QuadSpi::SendData Pages: 1 -->
<!--zoomable 921 -->
<svg id="main" version="1.1" xmlns="http://www.w3.org/2000/svg" xmlns:xlink="http://www.w3.org/1999/xlink" xml:space="preserve" onload="init(evt)">
<style type="text/css"><![CDATA[
.edge:hover path { stroke: red; }
.edge:hover polygon { stroke: red; fill: red; }
]]></style>
<script type="text/javascript"><![CDATA[
var edges = document.getElementsByTagName('g');
if (edges && edges.length) {
  for (var i=0;i<edges.length;i++) {
    if (edges[i].id.substr(0,4)=='edge') {
      edges[i].setAttribute('class','edge');
    }
  }
}
]]></script>
        <defs>
                <circle id="rim" cx="0" cy="0" r="7"/>
                <circle id="rim2" cx="0" cy="0" r="3.5"/>
                <g id="zoomPlus">
                        <use xlink:href="#rim" fill="#404040">
                                <set attributeName="fill" to="#808080" begin="zoomplus.mouseover" end="zoomplus.mouseout"/>
                        </use>
                        <path d="M-4,0h8M0,-4v8" fill="none" stroke="white" stroke-width="1.5" pointer-events="none"/>
                </g>
                <g id="zoomMin">
                        <use xlink:href="#rim" fill="#404040">
                                <set attributeName="fill" to="#808080" begin="zoomminus.mouseover" end="zoomminus.mouseout"/>
                        </use>
                        <path d="M-4,0h8" fill="none" stroke="white" stroke-width="1.5" pointer-events="none"/>
                </g>
                <g id="dirArrow">
                        <path fill="none" stroke="white" stroke-width="1.5" d="M0,-3.0v7 M-2.5,-0.5L0,-3.0L2.5,-0.5"/>
                </g>
               <g id="resetDef">
                       <use xlink:href="#rim2" fill="#404040">
                               <set attributeName="fill" to="#808080" begin="reset.mouseover" end="reset.mouseout"/>
                       </use>
               </g>
        </defs>

<script type="text/javascript">
var viewWidth = 670;
var viewHeight = 921;
var sectionId = 'dynsection-3';
</script>
<script xlink:href="../../svgpan.js"/>
<svg id="graph" class="graph">
<g id="viewport">
<title>hal::QuadSpi::SendData</title>
<polygon fill="white" stroke="none" points="-4,4 -4,-917 666,-917 666,4 -4,4"/>
<!-- Node39 -->
<g id="node1" class="node"><title>Node39</title>
<polygon fill="#bfbfbf" stroke="black" points="0,-447 0,-466 122,-466 122,-447 0,-447"/>
<text text-anchor="middle" x="61" y="-454" font-family="Helvetica,sans-Serif" font-size="10.00">hal::QuadSpi::SendData</text>
</g>
<!-- Node40 -->
<g id="node2" class="node"><title>Node40</title>
<g id="a_node2"><a xlink:href="../../d0/db3/classservices_1_1_flash_quad_spi.html#a5f754bf1758d88a2ed5d19d8d70aa088" target="_top" xlink:title="services::FlashQuadSpi\l::PageProgram">
<polygon fill="white" stroke="black" points="176,-882.5 176,-912.5 295,-912.5 295,-882.5 176,-882.5"/>
<text text-anchor="start" x="184" y="-900.5" font-family="Helvetica,sans-Serif" font-size="10.00">services::FlashQuadSpi</text>
<text text-anchor="middle" x="235.5" y="-889.5" font-family="Helvetica,sans-Serif" font-size="10.00">::PageProgram</text>
</a>
</g>
</g>
<!-- Node39&#45;&gt;Node40 -->
<g id="edge1" class="edge"><title>Node39&#45;&gt;Node40</title>
<path fill="none" stroke="midnightblue" d="M63.9965,-476.583C71.8341,-551.559 102.809,-813.843 158,-873.5 163.01,-878.915 169.224,-883.117 175.93,-886.376"/>
<polygon fill="midnightblue" stroke="midnightblue" points="67.4358,-475.81 62.9371,-466.217 60.4721,-476.522 67.4358,-475.81"/>
</g>
<!-- Node43 -->
<g id="node5" class="node"><title>Node43</title>
<g id="a_node5"><a xlink:href="../../d2/d0c/classservices_1_1_flash_quad_spi_single_speed.html#a1ac9c640461c49d5611f0a4fcbb092b4" target="_top" xlink:title="services::FlashQuadSpiSingle\lSpeed::PageProgram">
<polygon fill="white" stroke="black" points="162.5,-833.5 162.5,-863.5 308.5,-863.5 308.5,-833.5 162.5,-833.5"/>
<text text-anchor="start" x="170.5" y="-851.5" font-family="Helvetica,sans-Serif" font-size="10.00">services::FlashQuadSpiSingle</text>
<text text-anchor="middle" x="235.5" y="-840.5" font-family="Helvetica,sans-Serif" font-size="10.00">Speed::PageProgram</text>
</a>
</g>
</g>
<!-- Node39&#45;&gt;Node43 -->
<g id="edge4" class="edge"><title>Node39&#45;&gt;Node43</title>
<path fill="none" stroke="midnightblue" d="M64.6338,-476.406C74.136,-545.378 108.714,-772.747 158,-824.5 161.264,-827.927 165.01,-830.867 169.053,-833.389"/>
<polygon fill="midnightblue" stroke="midnightblue" points="68.0475,-475.531 63.2385,-466.09 61.1106,-476.469 68.0475,-475.531"/>
</g>
<!-- Node44 -->
<g id="node6" class="node"><title>Node44</title>
<g id="a_node6"><a xlink:href="../../d2/d0c/classservices_1_1_flash_quad_spi_single_speed.html#af89057b00fed44c116a898429166014a" target="_top" xlink:title="services::FlashQuadSpiSingle\lSpeed::SendEraseBlock">
<polygon fill="white" stroke="black" points="162.5,-784.5 162.5,-814.5 308.5,-814.5 308.5,-784.5 162.5,-784.5"/>
<text text-anchor="start" x="170.5" y="-802.5" font-family="Helvetica,sans-Serif" font-size="10.00">services::FlashQuadSpiSingle</text>
<text text-anchor="middle" x="235.5" y="-791.5" font-family="Helvetica,sans-Serif" font-size="10.00">Speed::SendEraseBlock</text>
</a>
</g>
</g>
<!-- Node39&#45;&gt;Node44 -->
<g id="edge5" class="edge"><title>Node39&#45;&gt;Node44</title>
<path fill="none" stroke="midnightblue" d="M61.9315,-476.387C62.8473,-531.831 73.1674,-689.671 158,-775.5 161.425,-778.965 165.343,-781.931 169.556,-784.47"/>
<polygon fill="midnightblue" stroke="midnightblue" points="65.4299,-476.147 61.8553,-466.173 58.4301,-476.199 65.4299,-476.147"/>
</g>
<!-- Node46 -->
<g id="node8" class="node"><title>Node46</title>
<g id="a_node8"><a xlink:href="../../d1/d88/classservices_1_1_flash_quad_spi_cypress_fll.html#a3418a4a113d4465e3bd5c900191e66d6" target="_top" xlink:title="services::FlashQuadSpiCypress\lFll::SendEraseBlock">
<polygon fill="white" stroke="black" points="158,-637.5 158,-667.5 313,-667.5 313,-637.5 158,-637.5"/>
<text text-anchor="start" x="166" y="-655.5" font-family="Helvetica,sans-Serif" font-size="10.00">services::FlashQuadSpiCypress</text>
<text text-anchor="middle" x="235.5" y="-644.5" font-family="Helvetica,sans-Serif" font-size="10.00">Fll::SendEraseBlock</text>
</a>
</g>
</g>
<!-- Node39&#45;&gt;Node46 -->
<g id="edge7" class="edge"><title>Node39&#45;&gt;Node46</title>
<path fill="none" stroke="midnightblue" d="M67.5856,-476.041C78.7644,-511.652 107.271,-587.237 158,-628.5 162.211,-631.926 166.915,-634.864 171.863,-637.385"/>
<polygon fill="midnightblue" stroke="midnightblue" points="70.9033,-474.92 64.6672,-466.355 64.2009,-476.939 70.9033,-474.92"/>
</g>
<!-- Node48 -->
<g id="node10" class="node"><title>Node48</title>
<g id="a_node10"><a xlink:href="../../d8/dbe/classservices_1_1_flash_quad_spi_micron_n25q.html#af3a71d02b3bac284a6385808813dfc0c" target="_top" xlink:title="services::FlashQuadSpiMicron\lN25q::SendEraseBulk">
<polygon fill="white" stroke="black" points="161,-441.5 161,-471.5 310,-471.5 310,-441.5 161,-441.5"/>
<text text-anchor="start" x="169" y="-459.5" font-family="Helvetica,sans-Serif" font-size="10.00">services::FlashQuadSpiMicron</text>
<text text-anchor="middle" x="235.5" y="-448.5" font-family="Helvetica,sans-Serif" font-size="10.00">N25q::SendEraseBulk</text>
</a>
</g>
</g>
<!-- Node39&#45;&gt;Node48 -->
<g id="edge9" class="edge"><title>Node39&#45;&gt;Node48</title>
<path fill="none" stroke="midnightblue" d="M132.388,-456.5C141.769,-456.5 151.409,-456.5 160.844,-456.5"/>
<polygon fill="midnightblue" stroke="midnightblue" points="132.332,-453 122.332,-456.5 132.332,-460 132.332,-453"/>
</g>
<!-- Node50 -->
<g id="node12" class="node"><title>Node50</title>
<g id="a_node12"><a xlink:href="../../d2/d0c/classservices_1_1_flash_quad_spi_single_speed.html#ae47908ea42be7249def0c709f9e55bda" target="_top" xlink:title="services::FlashQuadSpiSingle\lSpeed::SendEraseChip">
<polygon fill="white" stroke="black" points="162.5,-735.5 162.5,-765.5 308.5,-765.5 308.5,-735.5 162.5,-735.5"/>
<text text-anchor="start" x="170.5" y="-753.5" font-family="Helvetica,sans-Serif" font-size="10.00">services::FlashQuadSpiSingle</text>
<text text-anchor="middle" x="235.5" y="-742.5" font-family="Helvetica,sans-Serif" font-size="10.00">Speed::SendEraseChip</text>
</a>
</g>
</g>
<!-- Node39&#45;&gt;Node50 -->
<g id="edge11" class="edge"><title>Node39&#45;&gt;Node50</title>
<path fill="none" stroke="midnightblue" d="M63.1914,-476.268C67.2449,-525.728 84.6965,-655.903 158,-726.5 161.609,-729.976 165.716,-732.949 170.11,-735.492"/>
<polygon fill="midnightblue" stroke="midnightblue" points="66.6789,-475.968 62.468,-466.246 59.6971,-476.472 66.6789,-475.968"/>
</g>
<!-- Node51 -->
<g id="node13" class="node"><title>Node51</title>
<g id="a_node13"><a xlink:href="../../d1/d88/classservices_1_1_flash_quad_spi_cypress_fll.html#ac76da2362d1cc4da4cde244e867d0762" target="_top" xlink:title="services::FlashQuadSpiCypress\lFll::SendEraseChip">
<polygon fill="white" stroke="black" points="158,-588.5 158,-618.5 313,-618.5 313,-588.5 158,-588.5"/>
<text text-anchor="start" x="166" y="-606.5" font-family="Helvetica,sans-Serif" font-size="10.00">services::FlashQuadSpiCypress</text>
<text text-anchor="middle" x="235.5" y="-595.5" font-family="Helvetica,sans-Serif" font-size="10.00">Fll::SendEraseChip</text>
</a>
</g>
</g>
<!-- Node39&#45;&gt;Node51 -->
<g id="edge13" class="edge"><title>Node39&#45;&gt;Node51</title>
<path fill="none" stroke="midnightblue" d="M71.762,-475.24C86.7428,-502.198 117.923,-551.726 158,-579.5 162.919,-582.909 168.345,-585.85 173.967,-588.385"/>
<polygon fill="midnightblue" stroke="midnightblue" points="74.6604,-473.241 66.8288,-466.105 68.5012,-476.567 74.6604,-473.241"/>
</g>
<!-- Node52 -->
<g id="node14" class="node"><title>Node52</title>
<g id="a_node14"><a xlink:href="../../d1/d88/classservices_1_1_flash_quad_spi_cypress_fll.html#a96e529e2fdf019af982d7ed66ad9cfa6" target="_top" xlink:title="services::FlashQuadSpiCypress\lFll::SendEraseHalfBlock">
<polygon fill="white" stroke="black" points="158,-539.5 158,-569.5 313,-569.5 313,-539.5 158,-539.5"/>
<text text-anchor="start" x="166" y="-557.5" font-family="Helvetica,sans-Serif" font-size="10.00">services::FlashQuadSpiCypress</text>
<text text-anchor="middle" x="235.5" y="-546.5" font-family="Helvetica,sans-Serif" font-size="10.00">Fll::SendEraseHalfBlock</text>
</a>
</g>
</g>
<!-- Node39&#45;&gt;Node52 -->
<g id="edge15" class="edge"><title>Node39&#45;&gt;Node52</title>
<path fill="none" stroke="midnightblue" d="M79.3348,-472.949C97.6186,-489.519 127.899,-514.815 158,-530.5 164.419,-533.845 171.387,-536.821 178.415,-539.44"/>
<polygon fill="midnightblue" stroke="midnightblue" points="81.5445,-470.226 71.822,-466.016 76.7972,-475.37 81.5445,-470.226"/>
</g>
<!-- Node53 -->
<g id="node15" class="node"><title>Node53</title>
<g id="a_node15"><a xlink:href="../../d2/d0c/classservices_1_1_flash_quad_spi_single_speed.html#a7b901de494b78e4c77b5a4961d099f4a" target="_top" xlink:title="services::FlashQuadSpiSingle\lSpeed::SendEraseSector">
<polygon fill="white" stroke="black" points="162.5,-686.5 162.5,-716.5 308.5,-716.5 308.5,-686.5 162.5,-686.5"/>
<text text-anchor="start" x="170.5" y="-704.5" font-family="Helvetica,sans-Serif" font-size="10.00">services::FlashQuadSpiSingle</text>
<text text-anchor="middle" x="235.5" y="-693.5" font-family="Helvetica,sans-Serif" font-size="10.00">Speed::SendEraseSector</text>
</a>
</g>
</g>
<!-- Node39&#45;&gt;Node53 -->
<g id="edge17" class="edge"><title>Node39&#45;&gt;Node53</title>
<path fill="none" stroke="midnightblue" d="M64.9309,-476.082C72.3816,-518.962 96.045,-621.776 158,-677.5 161.829,-680.944 166.15,-683.894 170.739,-686.421"/>
<polygon fill="midnightblue" stroke="midnightblue" points="68.3671,-475.406 63.3061,-466.098 61.458,-476.53 68.3671,-475.406"/>
</g>
<!-- Node54 -->
<g id="node16" class="node"><title>Node54</title>
<g id="a_node16"><a xlink:href="../../d8/dbe/classservices_1_1_flash_quad_spi_micron_n25q.html#a2bd0652b1635b6024bbf6ea803d41afe" target="_top" xlink:title="services::FlashQuadSpiMicron\lN25q::SendEraseSector">
<polygon fill="white" stroke="black" points="161,-392.5 161,-422.5 310,-422.5 310,-392.5 161,-392.5"/>
<text text-anchor="start" x="169" y="-410.5" font-family="Helvetica,sans-Serif" font-size="10.00">services::FlashQuadSpiMicron</text>
<text text-anchor="middle" x="235.5" y="-399.5" font-family="Helvetica,sans-Serif" font-size="10.00">N25q::SendEraseSector</text>
</a>
</g>
</g>
<!-- Node39&#45;&gt;Node54 -->
<g id="edge19" class="edge"><title>Node39&#45;&gt;Node54</title>
<path fill="none" stroke="midnightblue" d="M105.532,-444.134C128.629,-437.574 157.193,-429.46 181.564,-422.537"/>
<polygon fill="midnightblue" stroke="midnightblue" points="104.332,-440.837 95.6692,-446.936 106.245,-447.57 104.332,-440.837"/>
</g>
<!-- Node55 -->
<g id="node17" class="node"><title>Node55</title>
<g id="a_node17"><a xlink:href="../../d1/d88/classservices_1_1_flash_quad_spi_cypress_fll.html#aa9aa28921db6ebbe4de8a57f6ec44263" target="_top" xlink:title="services::FlashQuadSpiCypress\lFll::SendEraseSector">
<polygon fill="white" stroke="black" points="158,-490.5 158,-520.5 313,-520.5 313,-490.5 158,-490.5"/>
<text text-anchor="start" x="166" y="-508.5" font-family="Helvetica,sans-Serif" font-size="10.00">services::FlashQuadSpiCypress</text>
<text text-anchor="middle" x="235.5" y="-497.5" font-family="Helvetica,sans-Serif" font-size="10.00">Fll::SendEraseSector</text>
</a>
</g>
</g>
<!-- Node39&#45;&gt;Node55 -->
<g id="edge21" class="edge"><title>Node39&#45;&gt;Node55</title>
<path fill="none" stroke="midnightblue" d="M105.532,-468.866C128.629,-475.426 157.193,-483.54 181.564,-490.463"/>
<polygon fill="midnightblue" stroke="midnightblue" points="106.245,-465.43 95.6692,-466.064 104.332,-472.163 106.245,-465.43"/>
</g>
<!-- Node56 -->
<g id="node18" class="node"><title>Node56</title>
<g id="a_node18"><a xlink:href="../../d8/dbe/classservices_1_1_flash_quad_spi_micron_n25q.html#a5eea01af8022205b1bf55d9cdf5d7730" target="_top" xlink:title="services::FlashQuadSpiMicron\lN25q::SendEraseSubSector">
<polygon fill="white" stroke="black" points="161,-343.5 161,-373.5 310,-373.5 310,-343.5 161,-343.5"/>
<text text-anchor="start" x="169" y="-361.5" font-family="Helvetica,sans-Serif" font-size="10.00">services::FlashQuadSpiMicron</text>
<text text-anchor="middle" x="235.5" y="-350.5" font-family="Helvetica,sans-Serif" font-size="10.00">N25q::SendEraseSubSector</text>
</a>
</g>
</g>
<!-- Node39&#45;&gt;Node56 -->
<g id="edge23" class="edge"><title>Node39&#45;&gt;Node56</title>
<path fill="none" stroke="midnightblue" d="M79.3348,-440.051C97.6186,-423.481 127.899,-398.185 158,-382.5 164.419,-379.155 171.387,-376.179 178.415,-373.56"/>
<polygon fill="midnightblue" stroke="midnightblue" points="76.7972,-437.63 71.822,-446.984 81.5445,-442.774 76.7972,-437.63"/>
</g>
<!-- Node57 -->
<g id="node19" class="node"><title>Node57</title>
<g id="a_node19"><a xlink:href="../../d8/dbe/classservices_1_1_flash_quad_spi_micron_n25q.html#a4f7b8d61a2cc0162bd75095fded45229" target="_top" xlink:title="services::FlashQuadSpiMicron\lN25q::SwitchToQuadSpeed">
<polygon fill="white" stroke="black" points="161,-245.5 161,-275.5 310,-275.5 310,-245.5 161,-245.5"/>
<text text-anchor="start" x="169" y="-263.5" font-family="Helvetica,sans-Serif" font-size="10.00">services::FlashQuadSpiMicron</text>
<text text-anchor="middle" x="235.5" y="-252.5" font-family="Helvetica,sans-Serif" font-size="10.00">N25q::SwitchToQuadSpeed</text>
</a>
</g>
</g>
<!-- Node39&#45;&gt;Node57 -->
<g id="edge25" class="edge"><title>Node39&#45;&gt;Node57</title>
<path fill="none" stroke="midnightblue" d="M67.5856,-436.959C78.7644,-401.348 107.271,-325.763 158,-284.5 162.211,-281.074 166.915,-278.136 171.863,-275.615"/>
<polygon fill="midnightblue" stroke="midnightblue" points="64.2009,-436.061 64.6672,-446.645 70.9033,-438.08 64.2009,-436.061"/>
</g>
<!-- Node59 -->
<g id="node21" class="node"><title>Node59</title>
<g id="a_node21"><a xlink:href="../../d1/d88/classservices_1_1_flash_quad_spi_cypress_fll.html#a71f90fdd261bc968f617e7bc5d32ee4a" target="_top" xlink:title="services::FlashQuadSpiCypress\lFll::SwitchToQuadSpeed">
<polygon fill="white" stroke="black" points="158,-294.5 158,-324.5 313,-324.5 313,-294.5 158,-294.5"/>
<text text-anchor="start" x="166" y="-312.5" font-family="Helvetica,sans-Serif" font-size="10.00">services::FlashQuadSpiCypress</text>
<text text-anchor="middle" x="235.5" y="-301.5" font-family="Helvetica,sans-Serif" font-size="10.00">Fll::SwitchToQuadSpeed</text>
</a>
</g>
</g>
<!-- Node39&#45;&gt;Node59 -->
<g id="edge27" class="edge"><title>Node39&#45;&gt;Node59</title>
<path fill="none" stroke="midnightblue" d="M71.762,-437.76C86.7428,-410.802 117.923,-361.274 158,-333.5 162.919,-330.091 168.345,-327.15 173.967,-324.615"/>
<polygon fill="midnightblue" stroke="midnightblue" points="68.5012,-436.433 66.8288,-446.895 74.6604,-439.759 68.5012,-436.433"/>
</g>
<!-- Node61 -->
<g id="node23" class="node"><title>Node61</title>
<g id="a_node23"><a xlink:href="../../d1/d88/classservices_1_1_flash_quad_spi_cypress_fll.html#acabd9f8f857ec1d4d29c524cb55ce5f4" target="_top" xlink:title="services::FlashQuadSpiCypress\lFll::SwitchToSingleSpeed">
<polygon fill="white" stroke="black" points="158,-196.5 158,-226.5 313,-226.5 313,-196.5 158,-196.5"/>
<text text-anchor="start" x="166" y="-214.5" font-family="Helvetica,sans-Serif" font-size="10.00">services::FlashQuadSpiCypress</text>
<text text-anchor="middle" x="235.5" y="-203.5" font-family="Helvetica,sans-Serif" font-size="10.00">Fll::SwitchToSingleSpeed</text>
</a>
</g>
</g>
<!-- Node39&#45;&gt;Node61 -->
<g id="edge29" class="edge"><title>Node39&#45;&gt;Node61</title>
<path fill="none" stroke="midnightblue" d="M64.9309,-436.918C72.3816,-394.038 96.045,-291.224 158,-235.5 161.829,-232.056 166.15,-229.106 170.739,-226.579"/>
<polygon fill="midnightblue" stroke="midnightblue" points="61.458,-436.47 63.3061,-446.902 68.3671,-437.594 61.458,-436.47"/>
</g>
<!-- Node62 -->
<g id="node24" class="node"><title>Node62</title>
<g id="a_node24"><a xlink:href="../../d2/d0c/classservices_1_1_flash_quad_spi_single_speed.html#af176b4f3c8f66a1f74255e5a0bdb3132" target="_top" xlink:title="services::FlashQuadSpiSingle\lSpeed::WriteEnable">
<polygon fill="white" stroke="black" points="162.5,-147.5 162.5,-177.5 308.5,-177.5 308.5,-147.5 162.5,-147.5"/>
<text text-anchor="start" x="170.5" y="-165.5" font-family="Helvetica,sans-Serif" font-size="10.00">services::FlashQuadSpiSingle</text>
<text text-anchor="middle" x="235.5" y="-154.5" font-family="Helvetica,sans-Serif" font-size="10.00">Speed::WriteEnable</text>
</a>
</g>
</g>
<!-- Node39&#45;&gt;Node62 -->
<g id="edge30" class="edge"><title>Node39&#45;&gt;Node62</title>
<path fill="none" stroke="midnightblue" d="M63.1914,-436.732C67.2449,-387.272 84.6965,-257.097 158,-186.5 161.609,-183.024 165.716,-180.051 170.11,-177.508"/>
<polygon fill="midnightblue" stroke="midnightblue" points="59.6971,-436.528 62.468,-446.754 66.6789,-437.032 59.6971,-436.528"/>
</g>
<!-- Node63 -->
<g id="node25" class="node"><title>Node63</title>
<g id="a_node25"><a xlink:href="../../d8/dbe/classservices_1_1_flash_quad_spi_micron_n25q.html#ad2d6c0e1178b7ef2ffe86e7a9a649879" target="_top" xlink:title="services::FlashQuadSpiMicron\lN25q::WriteEnable">
<polygon fill="white" stroke="black" points="161,-98.5 161,-128.5 310,-128.5 310,-98.5 161,-98.5"/>
<text text-anchor="start" x="169" y="-116.5" font-family="Helvetica,sans-Serif" font-size="10.00">services::FlashQuadSpiMicron</text>
<text text-anchor="middle" x="235.5" y="-105.5" font-family="Helvetica,sans-Serif" font-size="10.00">N25q::WriteEnable</text>
</a>
</g>
</g>
<!-- Node39&#45;&gt;Node63 -->
<g id="edge31" class="edge"><title>Node39&#45;&gt;Node63</title>
<path fill="none" stroke="midnightblue" d="M61.9315,-436.613C62.8473,-381.169 73.1674,-223.329 158,-137.5 161.425,-134.035 165.343,-131.069 169.556,-128.53"/>
<polygon fill="midnightblue" stroke="midnightblue" points="58.4301,-436.801 61.8553,-446.827 65.4299,-436.853 58.4301,-436.801"/>
</g>
<!-- Node64 -->
<g id="node26" class="node"><title>Node64</title>
<g id="a_node26"><a xlink:href="../../d1/d88/classservices_1_1_flash_quad_spi_cypress_fll.html#a8da58152ff034709369478d9b6cde031" target="_top" xlink:title="services::FlashQuadSpiCypress\lFll::WriteEnable">
<polygon fill="white" stroke="black" points="158,-49.5 158,-79.5 313,-79.5 313,-49.5 158,-49.5"/>
<text text-anchor="start" x="166" y="-67.5" font-family="Helvetica,sans-Serif" font-size="10.00">services::FlashQuadSpiCypress</text>
<text text-anchor="middle" x="235.5" y="-56.5" font-family="Helvetica,sans-Serif" font-size="10.00">Fll::WriteEnable</text>
</a>
</g>
</g>
<!-- Node39&#45;&gt;Node64 -->
<g id="edge32" class="edge"><title>Node39&#45;&gt;Node64</title>
<path fill="none" stroke="midnightblue" d="M64.6338,-436.594C74.136,-367.622 108.714,-140.253 158,-88.5 161.264,-85.0728 165.01,-82.1327 169.053,-79.6106"/>
<polygon fill="midnightblue" stroke="midnightblue" points="61.1106,-436.531 63.2385,-446.91 68.0475,-437.469 61.1106,-436.531"/>
</g>
<!-- Node65 -->
<g id="node27" class="node"><title>Node65</title>
<g id="a_node27"><a xlink:href="../../d8/dbe/classservices_1_1_flash_quad_spi_micron_n25q.html#afbf9e76e46710ba1f272a1174aca18ff" target="_top" xlink:title="services::FlashQuadSpiMicron\lN25q::WriteEnableSingleSpeed">
<polygon fill="white" stroke="black" points="159,-0.5 159,-30.5 312,-30.5 312,-0.5 159,-0.5"/>
<text text-anchor="start" x="167" y="-18.5" font-family="Helvetica,sans-Serif" font-size="10.00">services::FlashQuadSpiMicron</text>
<text text-anchor="middle" x="235.5" y="-7.5" font-family="Helvetica,sans-Serif" font-size="10.00">N25q::WriteEnableSingleSpeed</text>
</a>
</g>
</g>
<!-- Node39&#45;&gt;Node65 -->
<g id="edge33" class="edge"><title>Node39&#45;&gt;Node65</title>
<path fill="none" stroke="midnightblue" d="M63.9965,-436.417C71.8341,-361.441 102.809,-99.1566 158,-39.5 161.214,-36.026 164.924,-33.0515 168.941,-30.505"/>
<polygon fill="midnightblue" stroke="midnightblue" points="60.4721,-436.478 62.9371,-446.783 67.4358,-437.19 60.4721,-436.478"/>
</g>
<!-- Node41 -->
<g id="node3" class="node"><title>Node41</title>
<g id="a_node3"><a xlink:href="../../d0/db3/classservices_1_1_flash_quad_spi.html#a9e190d022eb9d8fc0f88e89160f89b0f" target="_top" xlink:title="services::FlashQuadSpi\l::WriteBufferSequence">
<polygon fill="white" stroke="black" points="368.5,-882.5 368.5,-912.5 487.5,-912.5 487.5,-882.5 368.5,-882.5"/>
<text text-anchor="start" x="376.5" y="-900.5" font-family="Helvetica,sans-Serif" font-size="10.00">services::FlashQuadSpi</text>
<text text-anchor="middle" x="428" y="-889.5" font-family="Helvetica,sans-Serif" font-size="10.00">::WriteBufferSequence</text>
</a>
</g>
</g>
<!-- Node40&#45;&gt;Node41 -->
<g id="edge2" class="edge"><title>Node40&#45;&gt;Node41</title>
<path fill="none" stroke="midnightblue" d="M305.219,-897.5C325.943,-897.5 348.488,-897.5 368.483,-897.5"/>
<polygon fill="midnightblue" stroke="midnightblue" points="305.211,-894 295.211,-897.5 305.211,-901 305.211,-894"/>
</g>
<!-- Node42 -->
<g id="node4" class="node"><title>Node42</title>
<g id="a_node4"><a xlink:href="../../d0/db3/classservices_1_1_flash_quad_spi.html#a3ff6a6b4dc7fa4f07ff1dc03d9292f33" target="_top" xlink:title="services::FlashQuadSpi\l::WriteBuffer">
<polygon fill="white" stroke="black" points="543,-882.5 543,-912.5 662,-912.5 662,-882.5 543,-882.5"/>
<text text-anchor="start" x="551" y="-900.5" font-family="Helvetica,sans-Serif" font-size="10.00">services::FlashQuadSpi</text>
<text text-anchor="middle" x="602.5" y="-889.5" font-family="Helvetica,sans-Serif" font-size="10.00">::WriteBuffer</text>
</a>
</g>
</g>
<!-- Node41&#45;&gt;Node42 -->
<g id="edge3" class="edge"><title>Node41&#45;&gt;Node42</title>
<path fill="none" stroke="midnightblue" d="M498.034,-897.5C512.894,-897.5 528.464,-897.5 542.883,-897.5"/>
<polygon fill="midnightblue" stroke="midnightblue" points="497.882,-894 487.882,-897.5 497.882,-901 497.882,-894"/>
</g>
<!-- Node45 -->
<g id="node7" class="node"><title>Node45</title>
<g id="a_node7"><a xlink:href="../../d2/d0c/classservices_1_1_flash_quad_spi_single_speed.html#a60db54616912db21b04d3f6b8f809f56" target="_top" xlink:title="services::FlashQuadSpiSingle\lSpeed::EraseSomeSectors">
<polygon fill="white" stroke="black" points="355,-735.5 355,-765.5 501,-765.5 501,-735.5 355,-735.5"/>
<text text-anchor="start" x="363" y="-753.5" font-family="Helvetica,sans-Serif" font-size="10.00">services::FlashQuadSpiSingle</text>
<text text-anchor="middle" x="428" y="-742.5" font-family="Helvetica,sans-Serif" font-size="10.00">Speed::EraseSomeSectors</text>
</a>
</g>
</g>
<!-- Node44&#45;&gt;Node45 -->
<g id="edge6" class="edge"><title>Node44&#45;&gt;Node45</title>
<path fill="none" stroke="midnightblue" d="M304.729,-781.95C325.649,-776.569 348.464,-770.701 368.66,-765.506"/>
<polygon fill="midnightblue" stroke="midnightblue" points="303.764,-778.585 294.951,-784.465 305.508,-785.364 303.764,-778.585"/>
</g>
<!-- Node47 -->
<g id="node9" class="node"><title>Node47</title>
<g id="a_node9"><a xlink:href="../../d1/d88/classservices_1_1_flash_quad_spi_cypress_fll.html#a6462920d4d5e7d433e896cfd160da015" target="_top" xlink:title="services::FlashQuadSpiCypress\lFll::EraseSomeSectors">
<polygon fill="white" stroke="black" points="350.5,-563.5 350.5,-593.5 505.5,-593.5 505.5,-563.5 350.5,-563.5"/>
<text text-anchor="start" x="358.5" y="-581.5" font-family="Helvetica,sans-Serif" font-size="10.00">services::FlashQuadSpiCypress</text>
<text text-anchor="middle" x="428" y="-570.5" font-family="Helvetica,sans-Serif" font-size="10.00">Fll::EraseSomeSectors</text>
</a>
</g>
</g>
<!-- Node46&#45;&gt;Node47 -->
<g id="edge8" class="edge"><title>Node46&#45;&gt;Node47</title>
<path fill="none" stroke="midnightblue" d="M297.103,-634.161C302.505,-632.324 307.868,-630.424 313,-628.5 341.129,-617.955 372.32,-604.121 394.956,-593.678"/>
<polygon fill="midnightblue" stroke="midnightblue" points="295.765,-630.918 287.38,-637.394 297.974,-637.56 295.765,-630.918"/>
</g>
<!-- Node49 -->
<g id="node11" class="node"><title>Node49</title>
<g id="a_node11"><a xlink:href="../../d8/dbe/classservices_1_1_flash_quad_spi_micron_n25q.html#a930007b55bc31caa9663b3e04ee562bf" target="_top" xlink:title="services::FlashQuadSpiMicron\lN25q::EraseSomeSectors">
<polygon fill="white" stroke="black" points="353.5,-392.5 353.5,-422.5 502.5,-422.5 502.5,-392.5 353.5,-392.5"/>
<text text-anchor="start" x="361.5" y="-410.5" font-family="Helvetica,sans-Serif" font-size="10.00">services::FlashQuadSpiMicron</text>
<text text-anchor="middle" x="428" y="-399.5" font-family="Helvetica,sans-Serif" font-size="10.00">N25q::EraseSomeSectors</text>
</a>
</g>
</g>
<!-- Node48&#45;&gt;Node49 -->
<g id="edge10" class="edge"><title>Node48&#45;&gt;Node49</title>
<path fill="none" stroke="midnightblue" d="M304.729,-438.95C325.649,-433.569 348.464,-427.701 368.66,-422.506"/>
<polygon fill="midnightblue" stroke="midnightblue" points="303.764,-435.585 294.951,-441.465 305.508,-442.364 303.764,-435.585"/>
</g>
<!-- Node50&#45;&gt;Node45 -->
<g id="edge12" class="edge"><title>Node50&#45;&gt;Node45</title>
<path fill="none" stroke="midnightblue" d="M318.579,-750.5C330.657,-750.5 343.022,-750.5 354.878,-750.5"/>
<polygon fill="midnightblue" stroke="midnightblue" points="318.52,-747 308.52,-750.5 318.52,-754 318.52,-747"/>
</g>
<!-- Node51&#45;&gt;Node47 -->
<g id="edge14" class="edge"><title>Node51&#45;&gt;Node47</title>
<path fill="none" stroke="midnightblue" d="M323.332,-592.105C332.395,-590.915 341.56,-589.713 350.497,-588.54"/>
<polygon fill="midnightblue" stroke="midnightblue" points="322.62,-588.668 313.16,-593.44 323.531,-595.609 322.62,-588.668"/>
</g>
<!-- Node52&#45;&gt;Node47 -->
<g id="edge16" class="edge"><title>Node52&#45;&gt;Node47</title>
<path fill="none" stroke="midnightblue" d="M323.332,-565.439C332.395,-566.581 341.56,-567.736 350.497,-568.862"/>
<polygon fill="midnightblue" stroke="midnightblue" points="323.519,-561.935 313.16,-564.158 322.644,-568.881 323.519,-561.935"/>
</g>
<!-- Node53&#45;&gt;Node45 -->
<g id="edge18" class="edge"><title>Node53&#45;&gt;Node45</title>
<path fill="none" stroke="midnightblue" d="M304.729,-719.05C325.649,-724.431 348.464,-730.299 368.66,-735.494"/>
<polygon fill="midnightblue" stroke="midnightblue" points="305.508,-715.636 294.951,-716.535 303.764,-722.415 305.508,-715.636"/>
</g>
<!-- Node54&#45;&gt;Node49 -->
<g id="edge20" class="edge"><title>Node54&#45;&gt;Node49</title>
<path fill="none" stroke="midnightblue" d="M320.184,-407.5C331.19,-407.5 342.405,-407.5 353.23,-407.5"/>
<polygon fill="midnightblue" stroke="midnightblue" points="320.152,-404 310.152,-407.5 320.152,-411 320.152,-404"/>
</g>
<!-- Node55&#45;&gt;Node47 -->
<g id="edge22" class="edge"><title>Node55&#45;&gt;Node47</title>
<path fill="none" stroke="midnightblue" d="M294.618,-523.934C300.848,-526.076 307.072,-528.288 313,-530.5 340.362,-540.711 370.826,-553.62 393.373,-563.478"/>
<polygon fill="midnightblue" stroke="midnightblue" points="295.459,-520.523 284.865,-520.635 293.216,-527.154 295.459,-520.523"/>
</g>
<!-- Node56&#45;&gt;Node49 -->
<g id="edge24" class="edge"><title>Node56&#45;&gt;Node49</title>
<path fill="none" stroke="midnightblue" d="M304.729,-376.05C325.649,-381.431 348.464,-387.299 368.66,-392.494"/>
<polygon fill="midnightblue" stroke="midnightblue" points="305.508,-372.636 294.951,-373.535 303.764,-379.415 305.508,-372.636"/>
</g>
<!-- Node58 -->
<g id="node20" class="node"><title>Node58</title>
<g id="a_node20"><a xlink:href="../../d8/dbe/classservices_1_1_flash_quad_spi_micron_n25q.html#ab936eba5af1f7e92e96d364095237b38" target="_top" xlink:title="services::FlashQuadSpiMicron\lN25q::FlashQuadSpiMicronN25q">
<polygon fill="white" stroke="black" points="349,-122.5 349,-152.5 507,-152.5 507,-122.5 349,-122.5"/>
<text text-anchor="start" x="357" y="-140.5" font-family="Helvetica,sans-Serif" font-size="10.00">services::FlashQuadSpiMicron</text>
<text text-anchor="middle" x="428" y="-129.5" font-family="Helvetica,sans-Serif" font-size="10.00">N25q::FlashQuadSpiMicronN25q</text>
</a>
</g>
</g>
<!-- Node57&#45;&gt;Node58 -->
<g id="edge26" class="edge"><title>Node57&#45;&gt;Node58</title>
<path fill="none" stroke="midnightblue" d="M300.845,-241.578C305.039,-239.705 309.129,-237.68 313,-235.5 353.705,-212.573 393.222,-173.795 413.311,-152.542"/>
<polygon fill="midnightblue" stroke="midnightblue" points="299.435,-238.374 291.541,-245.441 302.119,-244.839 299.435,-238.374"/>
</g>
<!-- Node60 -->
<g id="node22" class="node"><title>Node60</title>
<g id="a_node22"><a xlink:href="../../d1/d88/classservices_1_1_flash_quad_spi_cypress_fll.html#a90cf929fd86b0302556e665e336f08d0" target="_top" xlink:title="services::FlashQuadSpiCypress\lFll::FlashQuadSpiCypressFll">
<polygon fill="white" stroke="black" points="350.5,-294.5 350.5,-324.5 505.5,-324.5 505.5,-294.5 350.5,-294.5"/>
<text text-anchor="start" x="358.5" y="-312.5" font-family="Helvetica,sans-Serif" font-size="10.00">services::FlashQuadSpiCypress</text>
<text text-anchor="middle" x="428" y="-301.5" font-family="Helvetica,sans-Serif" font-size="10.00">Fll::FlashQuadSpiCypressFll</text>
</a>
</g>
</g>
<!-- Node59&#45;&gt;Node60 -->
<g id="edge28" class="edge"><title>Node59&#45;&gt;Node60</title>
<path fill="none" stroke="midnightblue" d="M323.332,-309.5C332.395,-309.5 341.56,-309.5 350.497,-309.5"/>
<polygon fill="midnightblue" stroke="midnightblue" points="323.16,-306 313.16,-309.5 323.16,-313 323.16,-306"/>
</g>
<!-- Node65&#45;&gt;Node58 -->
<g id="edge34" class="edge"><title>Node65&#45;&gt;Node58</title>
<path fill="none" stroke="midnightblue" d="M302.911,-34.452C306.383,-36.0234 309.768,-37.7046 313,-39.5 353.84,-62.1857 393.303,-101.06 413.348,-122.393"/>
<polygon fill="midnightblue" stroke="midnightblue" points="304.143,-31.1733 293.566,-30.546 301.443,-37.6318 304.143,-31.1733"/>
</g>
</g>
</svg>
        <g id="navigator" transform="translate(0 0)" fill="#404254">
                <rect fill="#f2f5e9" fill-opacity="0.5" stroke="#606060" stroke-width=".5" x="0" y="0" width="60" height="60"/>
                <use id="zoomplus" xlink:href="#zoomPlus" x="17" y="9" onmousedown="handleZoom(evt,'in')"/>
                <use id="zoomminus" xlink:href="#zoomMin" x="42" y="9" onmousedown="handleZoom(evt,'out')"/>
                <use id="reset" xlink:href="#resetDef" x="30" y="36" onmousedown="handleReset()"/>
                <g id="arrowUp" xlink:href="#dirArrow" transform="translate(30 24)" onmousedown="handlePan(0,-1)">
                  <use xlink:href="#rim" fill="#404040">
                        <set attributeName="fill" to="#808080" begin="arrowUp.mouseover" end="arrowUp.mouseout"/>
                  </use>
                  <path fill="none" stroke="white" stroke-width="1.5" d="M0,-3.0v7 M-2.5,-0.5L0,-3.0L2.5,-0.5"/>
                </g>
                <g id="arrowRight" xlink:href="#dirArrow" transform="rotate(90) translate(36 -43)" onmousedown="handlePan(1,0)">
                  <use xlink:href="#rim" fill="#404040">
                        <set attributeName="fill" to="#808080" begin="arrowRight.mouseover" end="arrowRight.mouseout"/>
                  </use>
                  <path fill="none" stroke="white" stroke-width="1.5" d="M0,-3.0v7 M-2.5,-0.5L0,-3.0L2.5,-0.5"/>
                </g>
                <g id="arrowDown" xlink:href="#dirArrow" transform="rotate(180) translate(-30 -48)" onmousedown="handlePan(0,1)">
                  <use xlink:href="#rim" fill="#404040">
                        <set attributeName="fill" to="#808080" begin="arrowDown.mouseover" end="arrowDown.mouseout"/>
                  </use>
                  <path fill="none" stroke="white" stroke-width="1.5" d="M0,-3.0v7 M-2.5,-0.5L0,-3.0L2.5,-0.5"/>
                </g>
                <g id="arrowLeft" xlink:href="#dirArrow" transform="rotate(270) translate(-36 17)" onmousedown="handlePan(-1,0)">
                  <use xlink:href="#rim" fill="#404040">
                        <set attributeName="fill" to="#808080" begin="arrowLeft.mouseover" end="arrowLeft.mouseout"/>
                  </use>
                  <path fill="none" stroke="white" stroke-width="1.5" d="M0,-3.0v7 M-2.5,-0.5L0,-3.0L2.5,-0.5"/>
                </g>
        </g>
        <svg viewBox="0 0 15 15" width="100%" height="30px" preserveAspectRatio="xMaxYMin meet">
         <g id="arrow_out" transform="scale(0.3 0.3)">
          <a xlink:href="classhal_1_1_quad_spi_a34a6210e60687a16a723e6dfef934968_icgraph_org.svg" target="_base">
           <rect id="button" ry="5" rx="5" y="6" x="6" height="38" width="38"
                fill="#f2f5e9" fill-opacity="0.5" stroke="#606060" stroke-width="1.0"/>
           <path id="arrow"
             d="M 11.500037,31.436501 C 11.940474,20.09759 22.043105,11.32322 32.158766,21.979434 L 37.068811,17.246167 C 37.068811,17.246167 37.088388,32 37.088388,32 L 22.160133,31.978069 C 22.160133,31.978069 26.997745,27.140456 26.997745,27.140456 C 18.528582,18.264221 13.291696,25.230495 11.500037,31.436501 z"
             style="fill:#404040;"/>
          </a>
         </g>
        </svg>
</svg>
