<?xml version="1.0" encoding="UTF-8" standalone="no"?>
<!DOCTYPE svg PUBLIC "-//W3C//DTD SVG 1.1//EN"
 "http://www.w3.org/Graphics/SVG/1.1/DTD/svg11.dtd">
<!-- Generated by graphviz version 2.38.0 (20140413.2041)
 -->
<!-- Title: hal::QuadSpi::ReceiveData Pages: 1 -->
<svg width="332pt" height="137pt"
 viewBox="0.00 0.00 332.00 137.00" xmlns="http://www.w3.org/2000/svg" xmlns:xlink="http://www.w3.org/1999/xlink">
<g id="graph0" class="graph" transform="scale(1 1) rotate(0) translate(4 133)">
<title>hal::QuadSpi::ReceiveData</title>
<polygon fill="white" stroke="none" points="-4,4 -4,-133 328,-133 328,4 -4,4"/>
<!-- Node34 -->
<g id="node1" class="node"><title>Node34</title>
<polygon fill="#bfbfbf" stroke="black" points="0,-55 0,-74 133,-74 133,-55 0,-55"/>
<text text-anchor="middle" x="66.5" y="-62" font-family="Helvetica,sans-Serif" font-size="10.00">hal::QuadSpi::ReceiveData</text>
</g>
<!-- Node35 -->
<g id="node2" class="node"><title>Node35</title>
<g id="a_node2"><a xlink:href="../../d2/d0c/classservices_1_1_flash_quad_spi_single_speed.html#aa4cc716e94947333b1e4bf20a7c01d75" target="_top" xlink:title="services::FlashQuadSpiSingle\lSpeed::ReadBuffer">
<polygon fill="white" stroke="black" points="173.5,-98.5 173.5,-128.5 319.5,-128.5 319.5,-98.5 173.5,-98.5"/>
<text text-anchor="start" x="181.5" y="-116.5" font-family="Helvetica,sans-Serif" font-size="10.00">services::FlashQuadSpiSingle</text>
<text text-anchor="middle" x="246.5" y="-105.5" font-family="Helvetica,sans-Serif" font-size="10.00">Speed::ReadBuffer</text>
</a>
</g>
</g>
<!-- Node34&#45;&gt;Node35 -->
<g id="edge1" class="edge"><title>Node34&#45;&gt;Node35</title>
<path fill="none" stroke="midnightblue" d="M112.1,-76.7776C135.989,-83.3537 165.615,-91.5092 190.876,-98.463"/>
<polygon fill="midnightblue" stroke="midnightblue" points="112.813,-73.3437 102.243,-74.064 110.955,-80.0926 112.813,-73.3437"/>
</g>
<!-- Node36 -->
<g id="node3" class="node"><title>Node36</title>
<g id="a_node3"><a xlink:href="../../d8/dbe/classservices_1_1_flash_quad_spi_micron_n25q.html#a72164a1b853726e1407657ef50485f0c" target="_top" xlink:title="services::FlashQuadSpiMicron\lN25q::ReadBuffer">
<polygon fill="white" stroke="black" points="172,-49.5 172,-79.5 321,-79.5 321,-49.5 172,-49.5"/>
<text text-anchor="start" x="180" y="-67.5" font-family="Helvetica,sans-Serif" font-size="10.00">services::FlashQuadSpiMicron</text>
<text text-anchor="middle" x="246.5" y="-56.5" font-family="Helvetica,sans-Serif" font-size="10.00">N25q::ReadBuffer</text>
</a>
</g>
</g>
<!-- Node34&#45;&gt;Node36 -->
<g id="edge2" class="edge"><title>Node34&#45;&gt;Node36</title>
<path fill="none" stroke="midnightblue" d="M143.176,-64.5C152.628,-64.5 162.284,-64.5 171.706,-64.5"/>
<polygon fill="midnightblue" stroke="midnightblue" points="143.022,-61.0001 133.022,-64.5 143.022,-68.0001 143.022,-61.0001"/>
</g>
<!-- Node37 -->
<g id="node4" class="node"><title>Node37</title>
<g id="a_node4"><a xlink:href="../../d1/d88/classservices_1_1_flash_quad_spi_cypress_fll.html#a81c45673b31d4c81786c582e8f766b9d" target="_top" xlink:title="services::FlashQuadSpiCypress\lFll::ReadBuffer">
<polygon fill="white" stroke="black" points="169,-0.5 169,-30.5 324,-30.5 324,-0.5 169,-0.5"/>
<text text-anchor="start" x="177" y="-18.5" font-family="Helvetica,sans-Serif" font-size="10.00">services::FlashQuadSpiCypress</text>
<text text-anchor="middle" x="246.5" y="-7.5" font-family="Helvetica,sans-Serif" font-size="10.00">Fll::ReadBuffer</text>
</a>
</g>
</g>
<!-- Node34&#45;&gt;Node37 -->
<g id="edge3" class="edge"><title>Node34&#45;&gt;Node37</title>
<path fill="none" stroke="midnightblue" d="M112.1,-52.2224C135.989,-45.6463 165.615,-37.4908 190.876,-30.537"/>
<polygon fill="midnightblue" stroke="midnightblue" points="110.955,-48.9074 102.243,-54.936 112.813,-55.6563 110.955,-48.9074"/>
</g>
</g>
</svg>
