<?xml version="1.0" encoding="UTF-8" standalone="no"?>
<!DOCTYPE svg PUBLIC "-//W3C//DTD SVG 1.1//EN"
 "http://www.w3.org/Graphics/SVG/1.1/DTD/svg11.dtd">
<!-- Generated by graphviz version 2.38.0 (20140413.2041)
 -->
<!-- Title: application::DeployPackToExternalObserver Pages: 1 -->
<svg width="174pt" height="117pt"
 viewBox="0.00 0.00 174.00 117.00" xmlns="http://www.w3.org/2000/svg" xmlns:xlink="http://www.w3.org/1999/xlink">
<g id="graph0" class="graph" transform="scale(1 1) rotate(0) translate(4 113)">
<title>application::DeployPackToExternalObserver</title>
<polygon fill="white" stroke="none" points="-4,4 -4,-113 170,-113 170,4 -4,4"/>
<!-- Node0 -->
<g id="node1" class="node"><title>Node0</title>
<polygon fill="#bfbfbf" stroke="black" points="17,-0.5 17,-30.5 149,-30.5 149,-0.5 17,-0.5"/>
<text text-anchor="start" x="25" y="-18.5" font-family="Helvetica,sans-Serif" font-size="10.00">application::DeployPackTo</text>
<text text-anchor="middle" x="83" y="-7.5" font-family="Helvetica,sans-Serif" font-size="10.00">ExternalObserver</text>
</g>
<!-- Node1 -->
<g id="node2" class="node"><title>Node1</title>
<g id="a_node2"><a xlink:href="../../dc/d4c/classinfra_1_1_single_observer.html" target="_top" xlink:title="infra::SingleObserver\l\&lt; DeployPackToExternalObserver,\l DeployPackToExternal \&gt;">
<polygon fill="white" stroke="black" points="0,-67.5 0,-108.5 166,-108.5 166,-67.5 0,-67.5"/>
<text text-anchor="start" x="8" y="-96.5" font-family="Helvetica,sans-Serif" font-size="10.00">infra::SingleObserver</text>
<text text-anchor="start" x="8" y="-85.5" font-family="Helvetica,sans-Serif" font-size="10.00">&lt; DeployPackToExternalObserver,</text>
<text text-anchor="middle" x="83" y="-74.5" font-family="Helvetica,sans-Serif" font-size="10.00"> DeployPackToExternal &gt;</text>
</a>
</g>
</g>
<!-- Node1&#45;&gt;Node0 -->
<g id="edge1" class="edge"><title>Node1&#45;&gt;Node0</title>
<path fill="none" stroke="midnightblue" d="M83,-57.08C83,-48.0061 83,-38.4498 83,-30.8916"/>
<polygon fill="midnightblue" stroke="midnightblue" points="79.5001,-57.3618 83,-67.3618 86.5001,-57.3619 79.5001,-57.3618"/>
</g>
</g>
</svg>
