<?xml version="1.0" encoding="UTF-8" standalone="no"?>
<!DOCTYPE svg PUBLIC "-//W3C//DTD SVG 1.1//EN"
 "http://www.w3.org/Graphics/SVG/1.1/DTD/svg11.dtd">
<!-- Generated by graphviz version 2.38.0 (20140413.2041)
 -->
<!-- Title: infra::DataOutputStream Pages: 1 -->
<svg width="664pt" height="319pt"
 viewBox="0.00 0.00 664.00 318.50" xmlns="http://www.w3.org/2000/svg" xmlns:xlink="http://www.w3.org/1999/xlink">
<g id="graph0" class="graph" transform="scale(1 1) rotate(0) translate(4 314.5)">
<title>infra::DataOutputStream</title>
<polygon fill="white" stroke="none" points="-4,4 -4,-314.5 660,-314.5 660,4 -4,4"/>
<!-- Node0 -->
<g id="node1" class="node"><title>Node0</title>
<polygon fill="#bfbfbf" stroke="black" points="137,-153.5 137,-172.5 259,-172.5 259,-153.5 137,-153.5"/>
<text text-anchor="middle" x="198" y="-160.5" font-family="Helvetica,sans-Serif" font-size="10.00">infra::DataOutputStream</text>
</g>
<!-- Node2 -->
<g id="node3" class="node"><title>Node2</title>
<g id="a_node3"><a xlink:href="../../da/d90/classinfra_1_1_data_output_stream_1_1_with_error_policy.html" target="_top" xlink:title="infra::DataOutputStream\l::WithErrorPolicy">
<polygon fill="white" stroke="black" points="322,-280 322,-310 444,-310 444,-280 322,-280"/>
<text text-anchor="start" x="330" y="-298" font-family="Helvetica,sans-Serif" font-size="10.00">infra::DataOutputStream</text>
<text text-anchor="middle" x="383" y="-287" font-family="Helvetica,sans-Serif" font-size="10.00">::WithErrorPolicy</text>
</a>
</g>
</g>
<!-- Node0&#45;&gt;Node2 -->
<g id="edge2" class="edge"><title>Node0&#45;&gt;Node2</title>
<path fill="none" stroke="midnightblue" d="M210.448,-181.115C226.475,-205.003 257.845,-246.722 295,-270 303.124,-275.09 312.316,-279.173 321.606,-282.441"/>
<polygon fill="midnightblue" stroke="midnightblue" points="213.301,-179.084 204.899,-172.63 207.443,-182.915 213.301,-179.084"/>
</g>
<!-- Node3 -->
<g id="node4" class="node"><title>Node3</title>
<g id="a_node4"><a xlink:href="../../dd/dd9/classinfra_1_1_data_output_stream_1_1_with_writer.html" target="_top" xlink:title="infra::DataOutputStream\l::WithWriter\&lt; TheWriter \&gt;">
<polygon fill="white" stroke="black" points="318.5,-231 318.5,-261 447.5,-261 447.5,-231 318.5,-231"/>
<text text-anchor="start" x="326.5" y="-249" font-family="Helvetica,sans-Serif" font-size="10.00">infra::DataOutputStream</text>
<text text-anchor="middle" x="383" y="-238" font-family="Helvetica,sans-Serif" font-size="10.00">::WithWriter&lt; TheWriter &gt;</text>
</a>
</g>
</g>
<!-- Node0&#45;&gt;Node3 -->
<g id="edge3" class="edge"><title>Node0&#45;&gt;Node3</title>
<path fill="none" stroke="midnightblue" d="M220.831,-178.486C239.726,-191.316 268.162,-209.283 295,-221 303.498,-224.71 312.699,-228.038 321.829,-230.962"/>
<polygon fill="midnightblue" stroke="midnightblue" points="222.59,-175.447 212.371,-172.65 218.615,-181.209 222.59,-175.447"/>
</g>
<!-- Node4 -->
<g id="node5" class="node"><title>Node4</title>
<g id="a_node5"><a xlink:href="../../dd/dd9/classinfra_1_1_data_output_stream_1_1_with_writer.html" target="_top" xlink:title="infra::DataOutputStream\l::WithWriter\&lt; ByteOutputStream\lWriter \&gt;">
<polygon fill="white" stroke="black" points="303.5,-170.5 303.5,-211.5 462.5,-211.5 462.5,-170.5 303.5,-170.5"/>
<text text-anchor="start" x="311.5" y="-199.5" font-family="Helvetica,sans-Serif" font-size="10.00">infra::DataOutputStream</text>
<text text-anchor="start" x="311.5" y="-188.5" font-family="Helvetica,sans-Serif" font-size="10.00">::WithWriter&lt; ByteOutputStream</text>
<text text-anchor="middle" x="383" y="-177.5" font-family="Helvetica,sans-Serif" font-size="10.00">Writer &gt;</text>
</a>
</g>
</g>
<!-- Node0&#45;&gt;Node4 -->
<g id="edge4" class="edge"><title>Node0&#45;&gt;Node4</title>
<path fill="none" stroke="midnightblue" d="M269.303,-173.757C280.492,-175.469 292.128,-177.249 303.491,-178.988"/>
<polygon fill="midnightblue" stroke="midnightblue" points="269.589,-170.26 259.175,-172.207 268.53,-177.179 269.589,-170.26"/>
</g>
<!-- Node6 -->
<g id="node7" class="node"><title>Node6</title>
<g id="a_node7"><a xlink:href="../../dd/dd9/classinfra_1_1_data_output_stream_1_1_with_writer.html" target="_top" xlink:title="infra::DataOutputStream\l::WithWriter\&lt; LimitedStreamWriter \&gt;">
<polygon fill="white" stroke="black" points="295,-121 295,-151 471,-151 471,-121 295,-121"/>
<text text-anchor="start" x="303" y="-139" font-family="Helvetica,sans-Serif" font-size="10.00">infra::DataOutputStream</text>
<text text-anchor="middle" x="383" y="-128" font-family="Helvetica,sans-Serif" font-size="10.00">::WithWriter&lt; LimitedStreamWriter &gt;</text>
</a>
</g>
</g>
<!-- Node0&#45;&gt;Node6 -->
<g id="edge6" class="edge"><title>Node0&#45;&gt;Node6</title>
<path fill="none" stroke="midnightblue" d="M269.278,-152.631C277.681,-151.391 286.336,-150.114 294.939,-148.845"/>
<polygon fill="midnightblue" stroke="midnightblue" points="268.557,-149.2 259.175,-154.122 269.578,-156.125 268.557,-149.2"/>
</g>
<!-- Node8 -->
<g id="node9" class="node"><title>Node8</title>
<g id="a_node9"><a xlink:href="../../dd/dd9/classinfra_1_1_data_output_stream_1_1_with_writer.html" target="_top" xlink:title="infra::DataOutputStream\l::WithWriter\&lt; OverwriteStream\lWriter \&gt;">
<polygon fill="white" stroke="black" points="308.5,-60.5 308.5,-101.5 457.5,-101.5 457.5,-60.5 308.5,-60.5"/>
<text text-anchor="start" x="316.5" y="-89.5" font-family="Helvetica,sans-Serif" font-size="10.00">infra::DataOutputStream</text>
<text text-anchor="start" x="316.5" y="-78.5" font-family="Helvetica,sans-Serif" font-size="10.00">::WithWriter&lt; OverwriteStream</text>
<text text-anchor="middle" x="383" y="-67.5" font-family="Helvetica,sans-Serif" font-size="10.00">Writer &gt;</text>
</a>
</g>
</g>
<!-- Node0&#45;&gt;Node8 -->
<g id="edge8" class="edge"><title>Node0&#45;&gt;Node8</title>
<path fill="none" stroke="midnightblue" d="M223.551,-148.245C242.62,-137.144 269.949,-122.015 295,-111 302.459,-107.72 310.399,-104.557 318.332,-101.593"/>
<polygon fill="midnightblue" stroke="midnightblue" points="221.743,-145.247 214.899,-153.334 225.293,-151.28 221.743,-145.247"/>
</g>
<!-- Node10 -->
<g id="node11" class="node"><title>Node10</title>
<g id="a_node11"><a xlink:href="../../dd/dd9/classinfra_1_1_data_output_stream_1_1_with_writer.html" target="_top" xlink:title="infra::DataOutputStream\l::WithWriter\&lt; SavedMarkerStream\lWriter \&gt;">
<polygon fill="white" stroke="black" points="300,-0.5 300,-41.5 466,-41.5 466,-0.5 300,-0.5"/>
<text text-anchor="start" x="308" y="-29.5" font-family="Helvetica,sans-Serif" font-size="10.00">infra::DataOutputStream</text>
<text text-anchor="start" x="308" y="-18.5" font-family="Helvetica,sans-Serif" font-size="10.00">::WithWriter&lt; SavedMarkerStream</text>
<text text-anchor="middle" x="383" y="-7.5" font-family="Helvetica,sans-Serif" font-size="10.00">Writer &gt;</text>
</a>
</g>
</g>
<!-- Node0&#45;&gt;Node10 -->
<g id="edge10" class="edge"><title>Node0&#45;&gt;Node10</title>
<path fill="none" stroke="midnightblue" d="M210.193,-144.684C226.128,-120.055 257.607,-76.4239 295,-51 300.153,-47.4966 305.755,-44.3643 311.549,-41.5715"/>
<polygon fill="midnightblue" stroke="midnightblue" points="207.069,-143.076 204.691,-153.401 212.988,-146.812 207.069,-143.076"/>
</g>
<!-- Node1 -->
<g id="node2" class="node"><title>Node1</title>
<g id="a_node2"><a xlink:href="../../d6/d97/classinfra_1_1_output_stream.html" target="_top" xlink:title="infra::OutputStream">
<polygon fill="white" stroke="black" points="0,-153.5 0,-172.5 101,-172.5 101,-153.5 0,-153.5"/>
<text text-anchor="middle" x="50.5" y="-160.5" font-family="Helvetica,sans-Serif" font-size="10.00">infra::OutputStream</text>
</a>
</g>
</g>
<!-- Node1&#45;&gt;Node0 -->
<g id="edge1" class="edge"><title>Node1&#45;&gt;Node0</title>
<path fill="none" stroke="midnightblue" d="M111.345,-163C119.814,-163 128.524,-163 136.996,-163"/>
<polygon fill="midnightblue" stroke="midnightblue" points="111.166,-159.5 101.166,-163 111.166,-166.5 111.166,-159.5"/>
</g>
<!-- Node5 -->
<g id="node6" class="node"><title>Node5</title>
<g id="a_node6"><a xlink:href="../../df/d3a/classinfra_1_1_byte_output_stream.html" target="_top" xlink:title="infra::ByteOutputStream">
<polygon fill="white" stroke="black" points="520.5,-181.5 520.5,-200.5 642.5,-200.5 642.5,-181.5 520.5,-181.5"/>
<text text-anchor="middle" x="581.5" y="-188.5" font-family="Helvetica,sans-Serif" font-size="10.00">infra::ByteOutputStream</text>
</a>
</g>
</g>
<!-- Node4&#45;&gt;Node5 -->
<g id="edge5" class="edge"><title>Node4&#45;&gt;Node5</title>
<path fill="none" stroke="midnightblue" d="M472.966,-191C488.978,-191 505.323,-191 520.277,-191"/>
<polygon fill="midnightblue" stroke="midnightblue" points="472.509,-187.5 462.509,-191 472.509,-194.5 472.509,-187.5"/>
</g>
<!-- Node7 -->
<g id="node8" class="node"><title>Node7</title>
<g id="a_node8"><a xlink:href="../../d9/daf/classinfra_1_1_limited_data_output_stream.html" target="_top" xlink:title="infra::LimitedDataOutput\lStream">
<polygon fill="white" stroke="black" points="520.5,-121 520.5,-151 642.5,-151 642.5,-121 520.5,-121"/>
<text text-anchor="start" x="528.5" y="-139" font-family="Helvetica,sans-Serif" font-size="10.00">infra::LimitedDataOutput</text>
<text text-anchor="middle" x="581.5" y="-128" font-family="Helvetica,sans-Serif" font-size="10.00">Stream</text>
</a>
</g>
</g>
<!-- Node6&#45;&gt;Node7 -->
<g id="edge7" class="edge"><title>Node6&#45;&gt;Node7</title>
<path fill="none" stroke="midnightblue" d="M481.217,-136C494.546,-136 507.901,-136 520.299,-136"/>
<polygon fill="midnightblue" stroke="midnightblue" points="481.046,-132.5 471.046,-136 481.046,-139.5 481.046,-132.5"/>
</g>
<!-- Node9 -->
<g id="node10" class="node"><title>Node9</title>
<g id="a_node10"><a xlink:href="../../d1/df1/classinfra_1_1_overwrite_data_stream.html" target="_top" xlink:title="infra::OverwriteDataStream">
<polygon fill="white" stroke="black" points="515.5,-71.5 515.5,-90.5 647.5,-90.5 647.5,-71.5 515.5,-71.5"/>
<text text-anchor="middle" x="581.5" y="-78.5" font-family="Helvetica,sans-Serif" font-size="10.00">infra::OverwriteDataStream</text>
</a>
</g>
</g>
<!-- Node8&#45;&gt;Node9 -->
<g id="edge9" class="edge"><title>Node8&#45;&gt;Node9</title>
<path fill="none" stroke="midnightblue" d="M468.051,-81C483.897,-81 500.246,-81 515.403,-81"/>
<polygon fill="midnightblue" stroke="midnightblue" points="467.728,-77.5001 457.728,-81 467.728,-84.5001 467.728,-77.5001"/>
</g>
<!-- Node11 -->
<g id="node12" class="node"><title>Node11</title>
<g id="a_node12"><a xlink:href="../../d5/db8/classinfra_1_1_saved_marker_data_stream.html" target="_top" xlink:title="infra::SavedMarkerDataStream">
<polygon fill="white" stroke="black" points="507,-11.5 507,-30.5 656,-30.5 656,-11.5 507,-11.5"/>
<text text-anchor="middle" x="581.5" y="-18.5" font-family="Helvetica,sans-Serif" font-size="10.00">infra::SavedMarkerDataStream</text>
</a>
</g>
</g>
<!-- Node10&#45;&gt;Node11 -->
<g id="edge11" class="edge"><title>Node10&#45;&gt;Node11</title>
<path fill="none" stroke="midnightblue" d="M476.352,-21C486.554,-21 496.842,-21 506.772,-21"/>
<polygon fill="midnightblue" stroke="midnightblue" points="476.195,-17.5001 466.195,-21 476.195,-24.5001 476.195,-17.5001"/>
</g>
</g>
</svg>
