<?xml version="1.0" encoding="UTF-8" standalone="no"?>
<!DOCTYPE svg PUBLIC "-//W3C//DTD SVG 1.1//EN"
 "http://www.w3.org/Graphics/SVG/1.1/DTD/svg11.dtd">
<!-- Generated by graphviz version 2.38.0 (20140413.2041)
 -->
<!-- Title: infra::TickOnInterruptTimerService::SetResolution Pages: 1 -->
<svg width="449pt" height="39pt"
 viewBox="0.00 0.00 449.00 39.00" xmlns="http://www.w3.org/2000/svg" xmlns:xlink="http://www.w3.org/1999/xlink">
<g id="graph0" class="graph" transform="scale(1 1) rotate(0) translate(4 35)">
<title>infra::TickOnInterruptTimerService::SetResolution</title>
<polygon fill="white" stroke="none" points="-4,4 -4,-35 445,-35 445,4 -4,4"/>
<!-- Node26 -->
<g id="node1" class="node"><title>Node26</title>
<polygon fill="#bfbfbf" stroke="black" points="0,-0.5 0,-30.5 131,-30.5 131,-0.5 0,-0.5"/>
<text text-anchor="start" x="8" y="-18.5" font-family="Helvetica,sans-Serif" font-size="10.00">infra::TickOnInterruptTimer</text>
<text text-anchor="middle" x="65.5" y="-7.5" font-family="Helvetica,sans-Serif" font-size="10.00">Service::SetResolution</text>
</g>
<!-- Node27 -->
<g id="node2" class="node"><title>Node27</title>
<g id="a_node2"><a xlink:href="../../df/d2e/classinfra_1_1_tick_on_interrupt_timer_service.html#a759f8e66c86fadc950be404e563ae8ff" target="_top" xlink:title="infra::TickOnInterruptTimer\lService::NextTriggerChanged">
<polygon fill="white" stroke="black" points="167,-0.5 167,-30.5 309,-30.5 309,-0.5 167,-0.5"/>
<text text-anchor="start" x="175" y="-18.5" font-family="Helvetica,sans-Serif" font-size="10.00">infra::TickOnInterruptTimer</text>
<text text-anchor="middle" x="238" y="-7.5" font-family="Helvetica,sans-Serif" font-size="10.00">Service::NextTriggerChanged</text>
</a>
</g>
</g>
<!-- Node26&#45;&gt;Node27 -->
<g id="edge1" class="edge"><title>Node26&#45;&gt;Node27</title>
<path fill="none" stroke="midnightblue" d="M131.445,-15.5C139.674,-15.5 148.172,-15.5 156.605,-15.5"/>
<polygon fill="midnightblue" stroke="midnightblue" points="156.839,-19.0001 166.839,-15.5 156.839,-12.0001 156.839,-19.0001"/>
</g>
<!-- Node28 -->
<g id="node3" class="node"><title>Node28</title>
<g id="a_node3"><a xlink:href="../../da/def/classinfra_1_1_timer_service.html#ae092e0679a0307ceb7ec802c576e9ef2" target="_top" xlink:title="infra::TimerService\l::NextTrigger">
<polygon fill="white" stroke="black" points="345,-0.5 345,-30.5 441,-30.5 441,-0.5 345,-0.5"/>
<text text-anchor="start" x="353" y="-18.5" font-family="Helvetica,sans-Serif" font-size="10.00">infra::TimerService</text>
<text text-anchor="middle" x="393" y="-7.5" font-family="Helvetica,sans-Serif" font-size="10.00">::NextTrigger</text>
</a>
</g>
</g>
<!-- Node27&#45;&gt;Node28 -->
<g id="edge2" class="edge"><title>Node27&#45;&gt;Node28</title>
<path fill="none" stroke="midnightblue" d="M309.231,-15.5C317.832,-15.5 326.539,-15.5 334.914,-15.5"/>
<polygon fill="midnightblue" stroke="midnightblue" points="334.935,-19.0001 344.935,-15.5 334.935,-12.0001 334.935,-19.0001"/>
</g>
</g>
</svg>
