<?xml version="1.0" encoding="UTF-8" standalone="no"?>
<!DOCTYPE svg PUBLIC "-//W3C//DTD SVG 1.1//EN"
 "http://www.w3.org/Graphics/SVG/1.1/DTD/svg11.dtd">
<!-- Generated by graphviz version 2.38.0 (20140413.2041)
 -->
<!-- Title: infra::TickOnInterruptTimerService::NextTriggerChanged Pages: 1 -->
<svg width="539pt" height="137pt"
 viewBox="0.00 0.00 539.00 137.00" xmlns="http://www.w3.org/2000/svg" xmlns:xlink="http://www.w3.org/1999/xlink">
<g id="graph0" class="graph" transform="scale(1 1) rotate(0) translate(4 133)">
<title>infra::TickOnInterruptTimerService::NextTriggerChanged</title>
<polygon fill="white" stroke="none" points="-4,4 -4,-133 535,-133 535,4 -4,4"/>
<!-- Node6 -->
<g id="node1" class="node"><title>Node6</title>
<polygon fill="#bfbfbf" stroke="black" points="0,-49.5 0,-79.5 142,-79.5 142,-49.5 0,-49.5"/>
<text text-anchor="start" x="8" y="-67.5" font-family="Helvetica,sans-Serif" font-size="10.00">infra::TickOnInterruptTimer</text>
<text text-anchor="middle" x="71" y="-56.5" font-family="Helvetica,sans-Serif" font-size="10.00">Service::NextTriggerChanged</text>
</g>
<!-- Node7 -->
<g id="node2" class="node"><title>Node7</title>
<g id="a_node2"><a xlink:href="../../df/d2e/classinfra_1_1_tick_on_interrupt_timer_service.html#a0d28d96bcfbeca6cad1712d7fee3fe12" target="_top" xlink:title="infra::TickOnInterruptTimer\lService::ProcessTicks">
<polygon fill="white" stroke="black" points="200.5,-98.5 200.5,-128.5 331.5,-128.5 331.5,-98.5 200.5,-98.5"/>
<text text-anchor="start" x="208.5" y="-116.5" font-family="Helvetica,sans-Serif" font-size="10.00">infra::TickOnInterruptTimer</text>
<text text-anchor="middle" x="266" y="-105.5" font-family="Helvetica,sans-Serif" font-size="10.00">Service::ProcessTicks</text>
</a>
</g>
</g>
<!-- Node6&#45;&gt;Node7 -->
<g id="edge1" class="edge"><title>Node6&#45;&gt;Node7</title>
<path fill="none" stroke="midnightblue" d="M141.125,-82.0498C162.319,-87.4306 185.433,-93.299 205.894,-98.4938"/>
<polygon fill="midnightblue" stroke="midnightblue" points="141.772,-78.6031 131.218,-79.5346 140.049,-85.3879 141.772,-78.6031"/>
</g>
<!-- Node9 -->
<g id="node4" class="node"><title>Node9</title>
<g id="a_node4"><a xlink:href="../../df/d2e/classinfra_1_1_tick_on_interrupt_timer_service.html#a7b9d74ec49405ba9ba47ebb5e3d04769" target="_top" xlink:title="infra::TickOnInterruptTimer\lService::SetResolution">
<polygon fill="white" stroke="black" points="200.5,-49.5 200.5,-79.5 331.5,-79.5 331.5,-49.5 200.5,-49.5"/>
<text text-anchor="start" x="208.5" y="-67.5" font-family="Helvetica,sans-Serif" font-size="10.00">infra::TickOnInterruptTimer</text>
<text text-anchor="middle" x="266" y="-56.5" font-family="Helvetica,sans-Serif" font-size="10.00">Service::SetResolution</text>
</a>
</g>
</g>
<!-- Node6&#45;&gt;Node9 -->
<g id="edge3" class="edge"><title>Node6&#45;&gt;Node9</title>
<path fill="none" stroke="midnightblue" d="M152.572,-64.5C168.479,-64.5 184.98,-64.5 200.281,-64.5"/>
<polygon fill="midnightblue" stroke="midnightblue" points="152.223,-61.0001 142.223,-64.5 152.223,-68.0001 152.223,-61.0001"/>
</g>
<!-- Node10 -->
<g id="node5" class="node"><title>Node10</title>
<g id="a_node5"><a xlink:href="../../df/d2e/classinfra_1_1_tick_on_interrupt_timer_service.html#ad1f541fcd0a64f4a94676a1a66fb9165" target="_top" xlink:title="infra::TickOnInterruptTimer\lService::TickOnInterruptTimerService">
<polygon fill="white" stroke="black" points="178,-0.5 178,-30.5 354,-30.5 354,-0.5 178,-0.5"/>
<text text-anchor="start" x="186" y="-18.5" font-family="Helvetica,sans-Serif" font-size="10.00">infra::TickOnInterruptTimer</text>
<text text-anchor="middle" x="266" y="-7.5" font-family="Helvetica,sans-Serif" font-size="10.00">Service::TickOnInterruptTimerService</text>
</a>
</g>
</g>
<!-- Node6&#45;&gt;Node10 -->
<g id="edge4" class="edge"><title>Node6&#45;&gt;Node10</title>
<path fill="none" stroke="midnightblue" d="M141.125,-46.9502C162.319,-41.5694 185.433,-35.701 205.894,-30.5062"/>
<polygon fill="midnightblue" stroke="midnightblue" points="140.049,-43.6121 131.218,-49.4654 141.772,-50.3969 140.049,-43.6121"/>
</g>
<!-- Node8 -->
<g id="node3" class="node"><title>Node8</title>
<g id="a_node3"><a xlink:href="../../df/d2e/classinfra_1_1_tick_on_interrupt_timer_service.html#af615ce0c6415bcc94cd68780136ba165" target="_top" xlink:title="infra::TickOnInterruptTimer\lService::SystemTickInterrupt">
<polygon fill="white" stroke="black" points="390,-98.5 390,-128.5 531,-128.5 531,-98.5 390,-98.5"/>
<text text-anchor="start" x="398" y="-116.5" font-family="Helvetica,sans-Serif" font-size="10.00">infra::TickOnInterruptTimer</text>
<text text-anchor="middle" x="460.5" y="-105.5" font-family="Helvetica,sans-Serif" font-size="10.00">Service::SystemTickInterrupt</text>
</a>
</g>
</g>
<!-- Node7&#45;&gt;Node8 -->
<g id="edge2" class="edge"><title>Node7&#45;&gt;Node8</title>
<path fill="none" stroke="midnightblue" d="M341.858,-113.5C357.619,-113.5 374.186,-113.5 389.751,-113.5"/>
<polygon fill="midnightblue" stroke="midnightblue" points="341.635,-110 331.635,-113.5 341.635,-117 341.635,-110"/>
</g>
</g>
</svg>
