<?xml version="1.0" encoding="UTF-8" standalone="no"?>
<!DOCTYPE svg PUBLIC "-//W3C//DTD SVG 1.1//EN"
 "http://www.w3.org/Graphics/SVG/1.1/DTD/svg11.dtd">
<!-- Generated by graphviz version 2.38.0 (20140413.2041)
 -->
<!-- Title: infra::TickOnInterruptTimerService::SystemTickInterrupt Pages: 1 -->
<!--zoomable 198 -->
<svg id="main" version="1.1" xmlns="http://www.w3.org/2000/svg" xmlns:xlink="http://www.w3.org/1999/xlink" xml:space="preserve" onload="init(evt)">
<style type="text/css"><![CDATA[
.edge:hover path { stroke: red; }
.edge:hover polygon { stroke: red; fill: red; }
]]></style>
<script type="text/javascript"><![CDATA[
var edges = document.getElementsByTagName('g');
if (edges && edges.length) {
  for (var i=0;i<edges.length;i++) {
    if (edges[i].id.substr(0,4)=='edge') {
      edges[i].setAttribute('class','edge');
    }
  }
}
]]></script>
        <defs>
                <circle id="rim" cx="0" cy="0" r="7"/>
                <circle id="rim2" cx="0" cy="0" r="3.5"/>
                <g id="zoomPlus">
                        <use xlink:href="#rim" fill="#404040">
                                <set attributeName="fill" to="#808080" begin="zoomplus.mouseover" end="zoomplus.mouseout"/>
                        </use>
                        <path d="M-4,0h8M0,-4v8" fill="none" stroke="white" stroke-width="1.5" pointer-events="none"/>
                </g>
                <g id="zoomMin">
                        <use xlink:href="#rim" fill="#404040">
                                <set attributeName="fill" to="#808080" begin="zoomminus.mouseover" end="zoomminus.mouseout"/>
                        </use>
                        <path d="M-4,0h8" fill="none" stroke="white" stroke-width="1.5" pointer-events="none"/>
                </g>
                <g id="dirArrow">
                        <path fill="none" stroke="white" stroke-width="1.5" d="M0,-3.0v7 M-2.5,-0.5L0,-3.0L2.5,-0.5"/>
                </g>
               <g id="resetDef">
                       <use xlink:href="#rim2" fill="#404040">
                               <set attributeName="fill" to="#808080" begin="reset.mouseover" end="reset.mouseout"/>
                       </use>
               </g>
        </defs>

<script type="text/javascript">
var viewWidth = 920;
var viewHeight = 198;
var sectionId = 'dynsection-8';
</script>
<script xlink:href="../../svgpan.js"/>
<svg id="graph" class="graph">
<g id="viewport">
<title>infra::TickOnInterruptTimerService::SystemTickInterrupt</title>
<polygon fill="white" stroke="none" points="-4,4 -4,-193.5 916,-193.5 916,4 -4,4"/>
<!-- Node30 -->
<g id="node1" class="node"><title>Node30</title>
<polygon fill="#bfbfbf" stroke="black" points="0,-64.5 0,-94.5 141,-94.5 141,-64.5 0,-64.5"/>
<text text-anchor="start" x="8" y="-82.5" font-family="Helvetica,sans-Serif" font-size="10.00">infra::TickOnInterruptTimer</text>
<text text-anchor="middle" x="70.5" y="-71.5" font-family="Helvetica,sans-Serif" font-size="10.00">Service::SystemTickInterrupt</text>
</g>
<!-- Node31 -->
<g id="node2" class="node"><title>Node31</title>
<g id="a_node2"><a xlink:href="../../d3/d0e/classinfra_1_1_interface_connector.html#aed1d9e952d3d0dfa68e59ee4e868b380" target="_top" xlink:title="infra::InterfaceConnector\l\&lt; EventDispatcherWorker\l \&gt;::Instance">
<polygon fill="white" stroke="black" points="351.5,-148 351.5,-189 479.5,-189 479.5,-148 351.5,-148"/>
<text text-anchor="start" x="359.5" y="-177" font-family="Helvetica,sans-Serif" font-size="10.00">infra::InterfaceConnector</text>
<text text-anchor="start" x="359.5" y="-166" font-family="Helvetica,sans-Serif" font-size="10.00">&lt; EventDispatcherWorker</text>
<text text-anchor="middle" x="415.5" y="-155" font-family="Helvetica,sans-Serif" font-size="10.00"> &gt;::Instance</text>
</a>
</g>
</g>
<!-- Node30&#45;&gt;Node31 -->
<g id="edge1" class="edge"><title>Node30&#45;&gt;Node31</title>
<path fill="none" stroke="midnightblue" d="M129.685,-94.5976C188.104,-109.756 278.275,-133.153 341.468,-149.55"/>
<polygon fill="midnightblue" stroke="midnightblue" points="340.811,-152.995 351.37,-152.119 342.57,-146.22 340.811,-152.995"/>
</g>
<!-- Node32 -->
<g id="node3" class="node"><title>Node32</title>
<g id="a_node3"><a xlink:href="../../df/d2e/classinfra_1_1_tick_on_interrupt_timer_service.html#a0d28d96bcfbeca6cad1712d7fee3fe12" target="_top" xlink:title="infra::TickOnInterruptTimer\lService::ProcessTicks">
<polygon fill="white" stroke="black" points="177,-64.5 177,-94.5 308,-94.5 308,-64.5 177,-64.5"/>
<text text-anchor="start" x="185" y="-82.5" font-family="Helvetica,sans-Serif" font-size="10.00">infra::TickOnInterruptTimer</text>
<text text-anchor="middle" x="242.5" y="-71.5" font-family="Helvetica,sans-Serif" font-size="10.00">Service::ProcessTicks</text>
</a>
</g>
</g>
<!-- Node30&#45;&gt;Node32 -->
<g id="edge2" class="edge"><title>Node30&#45;&gt;Node32</title>
<path fill="none" stroke="midnightblue" d="M141.136,-79.5C149.545,-79.5 158.162,-79.5 166.643,-79.5"/>
<polygon fill="midnightblue" stroke="midnightblue" points="166.896,-83.0001 176.896,-79.5 166.896,-76.0001 166.896,-83.0001"/>
</g>
<!-- Node35 -->
<g id="node6" class="node"><title>Node35</title>
<g id="a_node6"><a xlink:href="../../d7/d34/classinfra_1_1_event_dispatcher_worker.html#a5922b8fd5101b15f20b639fcd11fa272" target="_top" xlink:title="infra::EventDispatcherWorker\l::Schedule">
<polygon fill="white" stroke="black" points="344,-0.5 344,-30.5 487,-30.5 487,-0.5 344,-0.5"/>
<text text-anchor="start" x="352" y="-18.5" font-family="Helvetica,sans-Serif" font-size="10.00">infra::EventDispatcherWorker</text>
<text text-anchor="middle" x="415.5" y="-7.5" font-family="Helvetica,sans-Serif" font-size="10.00">::Schedule</text>
</a>
</g>
</g>
<!-- Node30&#45;&gt;Node35 -->
<g id="edge11" class="edge"><title>Node30&#45;&gt;Node35</title>
<path fill="none" stroke="midnightblue" d="M131.594,-64.4926C146.395,-61.0086 162.235,-57.458 177,-54.5 229.007,-44.0813 287.831,-34.4061 333.926,-27.2987"/>
<polygon fill="midnightblue" stroke="midnightblue" points="334.504,-30.7509 343.859,-25.7763 333.444,-23.8317 334.504,-30.7509"/>
</g>
<!-- Node32&#45;&gt;Node31 -->
<g id="edge3" class="edge"><title>Node32&#45;&gt;Node31</title>
<path fill="none" stroke="midnightblue" d="M267.384,-94.6981C287.448,-107.177 317.076,-124.939 344,-138.5 347.508,-140.267 351.145,-142.026 354.835,-143.754"/>
<polygon fill="midnightblue" stroke="midnightblue" points="353.52,-147.001 364.07,-147.977 356.431,-140.635 353.52,-147.001"/>
</g>
<!-- Node33 -->
<g id="node4" class="node"><title>Node33</title>
<g id="a_node4"><a xlink:href="../../df/d2e/classinfra_1_1_tick_on_interrupt_timer_service.html#a759f8e66c86fadc950be404e563ae8ff" target="_top" xlink:title="infra::TickOnInterruptTimer\lService::NextTriggerChanged">
<polygon fill="white" stroke="black" points="344.5,-98.5 344.5,-128.5 486.5,-128.5 486.5,-98.5 344.5,-98.5"/>
<text text-anchor="start" x="352.5" y="-116.5" font-family="Helvetica,sans-Serif" font-size="10.00">infra::TickOnInterruptTimer</text>
<text text-anchor="middle" x="415.5" y="-105.5" font-family="Helvetica,sans-Serif" font-size="10.00">Service::NextTriggerChanged</text>
</a>
</g>
</g>
<!-- Node32&#45;&gt;Node33 -->
<g id="edge4" class="edge"><title>Node32&#45;&gt;Node33</title>
<path fill="none" stroke="midnightblue" d="M308.148,-92.3539C316.737,-94.0618 325.626,-95.8292 334.437,-97.5811"/>
<polygon fill="midnightblue" stroke="midnightblue" points="333.842,-101.031 344.333,-99.5486 335.207,-94.1656 333.842,-101.031"/>
</g>
<!-- Node32&#45;&gt;Node35 -->
<g id="edge6" class="edge"><title>Node32&#45;&gt;Node35</title>
<path fill="none" stroke="midnightblue" d="M280.083,-64.4228C299.064,-56.7316 322.682,-47.3653 344,-39.5 349.079,-37.6259 354.384,-35.7228 359.703,-33.8503"/>
<polygon fill="midnightblue" stroke="midnightblue" points="360.956,-37.12 369.249,-30.5256 358.654,-30.5094 360.956,-37.12"/>
</g>
<!-- Node36 -->
<g id="node7" class="node"><title>Node36</title>
<g id="a_node7"><a xlink:href="../../df/d2e/classinfra_1_1_tick_on_interrupt_timer_service.html#a0d6a1e40e92d3c517cea5ce7da19b72e" target="_top" xlink:title="infra::TickOnInterruptTimer\lService::TimeProgressed">
<polygon fill="white" stroke="black" points="350,-49.5 350,-79.5 481,-79.5 481,-49.5 350,-49.5"/>
<text text-anchor="start" x="358" y="-67.5" font-family="Helvetica,sans-Serif" font-size="10.00">infra::TickOnInterruptTimer</text>
<text text-anchor="middle" x="415.5" y="-56.5" font-family="Helvetica,sans-Serif" font-size="10.00">Service::TimeProgressed</text>
</a>
</g>
</g>
<!-- Node32&#45;&gt;Node36 -->
<g id="edge7" class="edge"><title>Node32&#45;&gt;Node36</title>
<path fill="none" stroke="midnightblue" d="M308.148,-73.8291C318.469,-72.9238 329.221,-71.9806 339.753,-71.0568"/>
<polygon fill="midnightblue" stroke="midnightblue" points="340.105,-74.5394 349.761,-70.1789 339.493,-67.5662 340.105,-74.5394"/>
</g>
<!-- Node34 -->
<g id="node5" class="node"><title>Node34</title>
<g id="a_node5"><a xlink:href="../../da/def/classinfra_1_1_timer_service.html#ae092e0679a0307ceb7ec802c576e9ef2" target="_top" xlink:title="infra::TimerService\l::NextTrigger">
<polygon fill="white" stroke="black" points="523,-98.5 523,-128.5 619,-128.5 619,-98.5 523,-98.5"/>
<text text-anchor="start" x="531" y="-116.5" font-family="Helvetica,sans-Serif" font-size="10.00">infra::TimerService</text>
<text text-anchor="middle" x="571" y="-105.5" font-family="Helvetica,sans-Serif" font-size="10.00">::NextTrigger</text>
</a>
</g>
</g>
<!-- Node33&#45;&gt;Node34 -->
<g id="edge5" class="edge"><title>Node33&#45;&gt;Node34</title>
<path fill="none" stroke="midnightblue" d="M486.512,-113.5C495.282,-113.5 504.169,-113.5 512.712,-113.5"/>
<polygon fill="midnightblue" stroke="midnightblue" points="512.931,-117 522.931,-113.5 512.931,-110 512.931,-117"/>
</g>
<!-- Node37 -->
<g id="node8" class="node"><title>Node37</title>
<g id="a_node8"><a xlink:href="../../da/def/classinfra_1_1_timer_service.html#a62136eeac9187506213715289cb9c560" target="_top" xlink:title="infra::TimerService\l::Progressed">
<polygon fill="white" stroke="black" points="523,-49.5 523,-79.5 619,-79.5 619,-49.5 523,-49.5"/>
<text text-anchor="start" x="531" y="-67.5" font-family="Helvetica,sans-Serif" font-size="10.00">infra::TimerService</text>
<text text-anchor="middle" x="571" y="-56.5" font-family="Helvetica,sans-Serif" font-size="10.00">::Progressed</text>
</a>
</g>
</g>
<!-- Node36&#45;&gt;Node37 -->
<g id="edge8" class="edge"><title>Node36&#45;&gt;Node37</title>
<path fill="none" stroke="midnightblue" d="M481.153,-64.5C491.6,-64.5 502.353,-64.5 512.612,-64.5"/>
<polygon fill="midnightblue" stroke="midnightblue" points="512.678,-68.0001 522.678,-64.5 512.678,-61.0001 512.678,-68.0001"/>
</g>
<!-- Node38 -->
<g id="node9" class="node"><title>Node38</title>
<g id="a_node9"><a xlink:href="../../da/def/classinfra_1_1_timer_service.html#afb8a6ef3ee5ba728f1a8f232514bad8c" target="_top" xlink:title="infra::TimerService\l::ComputeNextTrigger">
<polygon fill="white" stroke="black" points="655,-49.5 655,-79.5 766,-79.5 766,-49.5 655,-49.5"/>
<text text-anchor="start" x="663" y="-67.5" font-family="Helvetica,sans-Serif" font-size="10.00">infra::TimerService</text>
<text text-anchor="middle" x="710.5" y="-56.5" font-family="Helvetica,sans-Serif" font-size="10.00">::ComputeNextTrigger</text>
</a>
</g>
</g>
<!-- Node37&#45;&gt;Node38 -->
<g id="edge9" class="edge"><title>Node37&#45;&gt;Node38</title>
<path fill="none" stroke="midnightblue" d="M619.32,-64.5C627.383,-64.5 635.883,-64.5 644.312,-64.5"/>
<polygon fill="midnightblue" stroke="midnightblue" points="644.523,-68.0001 654.523,-64.5 644.523,-61.0001 644.523,-68.0001"/>
</g>
<!-- Node39 -->
<g id="node10" class="node"><title>Node39</title>
<g id="a_node10"><a xlink:href="../../da/def/classinfra_1_1_timer_service.html#a6ae66196dc18d8b383ba5e0f0b6f22fa" target="_top" xlink:title="infra::TimerService\l::NextTriggerChanged">
<polygon fill="white" stroke="black" points="802,-49.5 802,-79.5 912,-79.5 912,-49.5 802,-49.5"/>
<text text-anchor="start" x="810" y="-67.5" font-family="Helvetica,sans-Serif" font-size="10.00">infra::TimerService</text>
<text text-anchor="middle" x="857" y="-56.5" font-family="Helvetica,sans-Serif" font-size="10.00">::NextTriggerChanged</text>
</a>
</g>
</g>
<!-- Node38&#45;&gt;Node39 -->
<g id="edge10" class="edge"><title>Node38&#45;&gt;Node39</title>
<path fill="none" stroke="midnightblue" d="M766.129,-64.5C774.425,-64.5 783.051,-64.5 791.532,-64.5"/>
<polygon fill="midnightblue" stroke="midnightblue" points="791.773,-68.0001 801.773,-64.5 791.773,-61.0001 791.773,-68.0001"/>
</g>
</g>
</svg>
        <g id="navigator" transform="translate(0 0)" fill="#404254">
                <rect fill="#f2f5e9" fill-opacity="0.5" stroke="#606060" stroke-width=".5" x="0" y="0" width="60" height="60"/>
                <use id="zoomplus" xlink:href="#zoomPlus" x="17" y="9" onmousedown="handleZoom(evt,'in')"/>
                <use id="zoomminus" xlink:href="#zoomMin" x="42" y="9" onmousedown="handleZoom(evt,'out')"/>
                <use id="reset" xlink:href="#resetDef" x="30" y="36" onmousedown="handleReset()"/>
                <g id="arrowUp" xlink:href="#dirArrow" transform="translate(30 24)" onmousedown="handlePan(0,-1)">
                  <use xlink:href="#rim" fill="#404040">
                        <set attributeName="fill" to="#808080" begin="arrowUp.mouseover" end="arrowUp.mouseout"/>
                  </use>
                  <path fill="none" stroke="white" stroke-width="1.5" d="M0,-3.0v7 M-2.5,-0.5L0,-3.0L2.5,-0.5"/>
                </g>
                <g id="arrowRight" xlink:href="#dirArrow" transform="rotate(90) translate(36 -43)" onmousedown="handlePan(1,0)">
                  <use xlink:href="#rim" fill="#404040">
                        <set attributeName="fill" to="#808080" begin="arrowRight.mouseover" end="arrowRight.mouseout"/>
                  </use>
                  <path fill="none" stroke="white" stroke-width="1.5" d="M0,-3.0v7 M-2.5,-0.5L0,-3.0L2.5,-0.5"/>
                </g>
                <g id="arrowDown" xlink:href="#dirArrow" transform="rotate(180) translate(-30 -48)" onmousedown="handlePan(0,1)">
                  <use xlink:href="#rim" fill="#404040">
                        <set attributeName="fill" to="#808080" begin="arrowDown.mouseover" end="arrowDown.mouseout"/>
                  </use>
                  <path fill="none" stroke="white" stroke-width="1.5" d="M0,-3.0v7 M-2.5,-0.5L0,-3.0L2.5,-0.5"/>
                </g>
                <g id="arrowLeft" xlink:href="#dirArrow" transform="rotate(270) translate(-36 17)" onmousedown="handlePan(-1,0)">
                  <use xlink:href="#rim" fill="#404040">
                        <set attributeName="fill" to="#808080" begin="arrowLeft.mouseover" end="arrowLeft.mouseout"/>
                  </use>
                  <path fill="none" stroke="white" stroke-width="1.5" d="M0,-3.0v7 M-2.5,-0.5L0,-3.0L2.5,-0.5"/>
                </g>
        </g>
        <svg viewBox="0 0 15 15" width="100%" height="30px" preserveAspectRatio="xMaxYMin meet">
         <g id="arrow_out" transform="scale(0.3 0.3)">
          <a xlink:href="classinfra_1_1_tick_on_interrupt_timer_service_af615ce0c6415bcc94cd68780136ba165_cgraph_org.svg" target="_base">
           <rect id="button" ry="5" rx="5" y="6" x="6" height="38" width="38"
                fill="#f2f5e9" fill-opacity="0.5" stroke="#606060" stroke-width="1.0"/>
           <path id="arrow"
             d="M 11.500037,31.436501 C 11.940474,20.09759 22.043105,11.32322 32.158766,21.979434 L 37.068811,17.246167 C 37.068811,17.246167 37.088388,32 37.088388,32 L 22.160133,31.978069 C 22.160133,31.978069 26.997745,27.140456 26.997745,27.140456 C 18.528582,18.264221 13.291696,25.230495 11.500037,31.436501 z"
             style="fill:#404040;"/>
          </a>
         </g>
        </svg>
</svg>
