<?xml version="1.0" encoding="UTF-8" standalone="no"?>
<!DOCTYPE svg PUBLIC "-//W3C//DTD SVG 1.1//EN"
 "http://www.w3.org/Graphics/SVG/1.1/DTD/svg11.dtd">
<!-- Generated by graphviz version 2.38.0 (20140413.2041)
 -->
<!-- Title: services::FactoryDefaultConfigurationStore::WithBlobs::WithBlobs Pages: 1 -->
<svg width="831pt" height="264pt"
 viewBox="0.00 0.00 831.00 264.00" xmlns="http://www.w3.org/2000/svg" xmlns:xlink="http://www.w3.org/1999/xlink">
<g id="graph0" class="graph" transform="scale(1 1) rotate(0) translate(4 260)">
<title>services::FactoryDefaultConfigurationStore::WithBlobs::WithBlobs</title>
<polygon fill="white" stroke="none" points="-4,4 -4,-260 827,-260 827,4 -4,4"/>
<!-- Node0 -->
<g id="node1" class="node"><title>Node0</title>
<polygon fill="#bfbfbf" stroke="black" points="0,-113 0,-154 147,-154 147,-113 0,-113"/>
<text text-anchor="start" x="8" y="-142" font-family="Helvetica,sans-Serif" font-size="10.00">services::FactoryDefault</text>
<text text-anchor="start" x="8" y="-131" font-family="Helvetica,sans-Serif" font-size="10.00">ConfigurationStore::WithBlobs</text>
<text text-anchor="middle" x="73.5" y="-120" font-family="Helvetica,sans-Serif" font-size="10.00">::WithBlobs</text>
</g>
<!-- Node1 -->
<g id="node2" class="node"><title>Node1</title>
<g id="a_node2"><a xlink:href="../../de/def/classservices_1_1_factory_default_configuration_store_base.html#a18e689846f9181d7346dcdec30c6a496" target="_top" xlink:title="services::FactoryDefault\lConfigurationStoreBase\l::Recover">
<polygon fill="white" stroke="black" points="183,-113 183,-154 304,-154 304,-113 183,-113"/>
<text text-anchor="start" x="191" y="-142" font-family="Helvetica,sans-Serif" font-size="10.00">services::FactoryDefault</text>
<text text-anchor="start" x="191" y="-131" font-family="Helvetica,sans-Serif" font-size="10.00">ConfigurationStoreBase</text>
<text text-anchor="middle" x="243.5" y="-120" font-family="Helvetica,sans-Serif" font-size="10.00">::Recover</text>
</a>
</g>
</g>
<!-- Node0&#45;&gt;Node1 -->
<g id="edge1" class="edge"><title>Node0&#45;&gt;Node1</title>
<path fill="none" stroke="midnightblue" d="M147.21,-133.5C155.658,-133.5 164.262,-133.5 172.67,-133.5"/>
<polygon fill="midnightblue" stroke="midnightblue" points="172.806,-137 182.806,-133.5 172.806,-130 172.806,-137"/>
</g>
<!-- Node2 -->
<g id="node3" class="node"><title>Node2</title>
<g id="a_node3"><a xlink:href="../../d1/da2/classservices_1_1_configuration_blob.html#a071805fa86dd447aac99b9711bf54f72" target="_top" xlink:title="services::ConfigurationBlob\l::Recover">
<polygon fill="white" stroke="black" points="514.5,-225.5 514.5,-255.5 648.5,-255.5 648.5,-225.5 514.5,-225.5"/>
<text text-anchor="start" x="522.5" y="-243.5" font-family="Helvetica,sans-Serif" font-size="10.00">services::ConfigurationBlob</text>
<text text-anchor="middle" x="581.5" y="-232.5" font-family="Helvetica,sans-Serif" font-size="10.00">::Recover</text>
</a>
</g>
</g>
<!-- Node1&#45;&gt;Node2 -->
<g id="edge2" class="edge"><title>Node1&#45;&gt;Node2</title>
<path fill="none" stroke="midnightblue" d="M266.141,-154.149C284.364,-170.283 311.891,-191.86 340,-203.5 392.29,-225.152 455.716,-234.275 504.302,-238.053"/>
<polygon fill="midnightblue" stroke="midnightblue" points="504.21,-241.555 514.435,-238.781 504.711,-234.573 504.21,-241.555"/>
</g>
<!-- Node3 -->
<g id="node4" class="node"><title>Node3</title>
<g id="a_node4"><a xlink:href="../../d1/da2/classservices_1_1_configuration_blob.html#a279b97e0a18250115b470e71b57dad3e" target="_top" xlink:title="services::ConfigurationBlob\l::Erase">
<polygon fill="white" stroke="black" points="514.5,-176.5 514.5,-206.5 648.5,-206.5 648.5,-176.5 514.5,-176.5"/>
<text text-anchor="start" x="522.5" y="-194.5" font-family="Helvetica,sans-Serif" font-size="10.00">services::ConfigurationBlob</text>
<text text-anchor="middle" x="581.5" y="-183.5" font-family="Helvetica,sans-Serif" font-size="10.00">::Erase</text>
</a>
</g>
</g>
<!-- Node1&#45;&gt;Node3 -->
<g id="edge3" class="edge"><title>Node1&#45;&gt;Node3</title>
<path fill="none" stroke="midnightblue" d="M276.225,-154.232C294.167,-164.787 317.464,-176.608 340,-182.5 393.572,-196.507 456.13,-198.424 504.013,-197.014"/>
<polygon fill="midnightblue" stroke="midnightblue" points="504.436,-200.501 514.307,-196.653 504.191,-193.506 504.436,-200.501"/>
</g>
<!-- Node4 -->
<g id="node5" class="node"><title>Node4</title>
<g id="a_node5"><a xlink:href="../../d4/dc9/classservices_1_1_configuration_store_base.html#a190f61ac910e9c41edbf4b0c57a98a84" target="_top" xlink:title="services::ConfigurationStore\lBase::Serialize">
<polygon fill="white" stroke="black" points="340,-0.5 340,-30.5 477,-30.5 477,-0.5 340,-0.5"/>
<text text-anchor="start" x="348" y="-18.5" font-family="Helvetica,sans-Serif" font-size="10.00">services::ConfigurationStore</text>
<text text-anchor="middle" x="408.5" y="-7.5" font-family="Helvetica,sans-Serif" font-size="10.00">Base::Serialize</text>
</a>
</g>
</g>
<!-- Node1&#45;&gt;Node4 -->
<g id="edge4" class="edge"><title>Node1&#45;&gt;Node4</title>
<path fill="none" stroke="midnightblue" d="M263.029,-112.919C281.202,-93.633 310.419,-64.9392 340,-45.5 345.76,-41.7145 352.078,-38.1961 358.464,-34.9996"/>
<polygon fill="midnightblue" stroke="midnightblue" points="360.285,-38.0089 367.813,-30.5529 357.279,-31.6875 360.285,-38.0089"/>
</g>
<!-- Node5 -->
<g id="node6" class="node"><title>Node5</title>
<g id="a_node6"><a xlink:href="../../d4/dc9/classservices_1_1_configuration_store_base.html#a055291782b499dc8c5da8feea63992d2" target="_top" xlink:title="services::ConfigurationStore\lBase::Recover">
<polygon fill="white" stroke="black" points="340,-94.5 340,-124.5 477,-124.5 477,-94.5 340,-94.5"/>
<text text-anchor="start" x="348" y="-112.5" font-family="Helvetica,sans-Serif" font-size="10.00">services::ConfigurationStore</text>
<text text-anchor="middle" x="408.5" y="-101.5" font-family="Helvetica,sans-Serif" font-size="10.00">Base::Recover</text>
</a>
</g>
</g>
<!-- Node1&#45;&gt;Node5 -->
<g id="edge5" class="edge"><title>Node1&#45;&gt;Node5</title>
<path fill="none" stroke="midnightblue" d="M304.27,-124.7C312.563,-123.478 321.181,-122.21 329.744,-120.949"/>
<polygon fill="midnightblue" stroke="midnightblue" points="330.364,-124.395 339.747,-119.476 329.344,-117.47 330.364,-124.395"/>
</g>
<!-- Node7 -->
<g id="node8" class="node"><title>Node7</title>
<g id="a_node8"><a xlink:href="../../d4/dc9/classservices_1_1_configuration_store_base.html#aa8acc547f66f4216c8f660878250ebfe" target="_top" xlink:title="services::ConfigurationStore\lBase::Deserialize">
<polygon fill="white" stroke="black" points="686,-55.5 686,-85.5 823,-85.5 823,-55.5 686,-55.5"/>
<text text-anchor="start" x="694" y="-73.5" font-family="Helvetica,sans-Serif" font-size="10.00">services::ConfigurationStore</text>
<text text-anchor="middle" x="754.5" y="-62.5" font-family="Helvetica,sans-Serif" font-size="10.00">Base::Deserialize</text>
</a>
</g>
</g>
<!-- Node1&#45;&gt;Node7 -->
<g id="edge14" class="edge"><title>Node1&#45;&gt;Node7</title>
<path fill="none" stroke="midnightblue" d="M275.789,-112.997C293.786,-102.371 317.276,-90.4083 340,-84.5 454.065,-54.8433 591.779,-57.4516 675.969,-63.1481"/>
<polygon fill="midnightblue" stroke="midnightblue" points="675.744,-66.6408 685.966,-63.8562 676.238,-59.6583 675.744,-66.6408"/>
</g>
<!-- Node9 -->
<g id="node10" class="node"><title>Node9</title>
<g id="a_node10"><a xlink:href="../../d4/dc9/classservices_1_1_configuration_store_base.html#ad2af2f4f6a9696a1bf505841f4d67ed8" target="_top" xlink:title="services::ConfigurationStore\lBase::Erase">
<polygon fill="white" stroke="black" points="340,-143.5 340,-173.5 477,-173.5 477,-143.5 340,-143.5"/>
<text text-anchor="start" x="348" y="-161.5" font-family="Helvetica,sans-Serif" font-size="10.00">services::ConfigurationStore</text>
<text text-anchor="middle" x="408.5" y="-150.5" font-family="Helvetica,sans-Serif" font-size="10.00">Base::Erase</text>
</a>
</g>
</g>
<!-- Node1&#45;&gt;Node9 -->
<g id="edge12" class="edge"><title>Node1&#45;&gt;Node9</title>
<path fill="none" stroke="midnightblue" d="M304.27,-142.667C312.563,-143.939 321.181,-145.261 329.744,-146.574"/>
<polygon fill="midnightblue" stroke="midnightblue" points="329.332,-150.052 339.747,-148.108 330.393,-143.133 329.332,-150.052"/>
</g>
<!-- Node5&#45;&gt;Node2 -->
<g id="edge10" class="edge"><title>Node5&#45;&gt;Node2</title>
<path fill="none" stroke="midnightblue" d="M464.808,-124.67C469.218,-127.182 473.365,-130.103 477,-133.5 506.377,-160.955 483.623,-189.045 513,-216.5 514.136,-217.562 515.322,-218.577 516.55,-219.547"/>
<polygon fill="midnightblue" stroke="midnightblue" points="514.934,-222.677 525.192,-225.33 518.827,-216.86 514.934,-222.677"/>
</g>
<!-- Node5&#45;&gt;Node3 -->
<g id="edge6" class="edge"><title>Node5&#45;&gt;Node3</title>
<path fill="none" stroke="midnightblue" d="M457.898,-124.573C464.464,-127.23 471.001,-130.212 477,-133.5 494.775,-143.241 495.611,-151.085 513,-161.5 519.278,-165.26 526.111,-168.834 532.939,-172.119"/>
<polygon fill="midnightblue" stroke="midnightblue" points="531.651,-175.379 542.196,-176.409 534.594,-169.028 531.651,-175.379"/>
</g>
<!-- Node6 -->
<g id="node7" class="node"><title>Node6</title>
<g id="a_node7"><a xlink:href="../../d4/dc9/classservices_1_1_configuration_store_base.html#a684451c2d4b570d28b31d0e91a8717b1" target="_top" xlink:title="services::ConfigurationStore\lBase::OnBlobLoaded">
<polygon fill="white" stroke="black" points="513,-88.5 513,-118.5 650,-118.5 650,-88.5 513,-88.5"/>
<text text-anchor="start" x="521" y="-106.5" font-family="Helvetica,sans-Serif" font-size="10.00">services::ConfigurationStore</text>
<text text-anchor="middle" x="581.5" y="-95.5" font-family="Helvetica,sans-Serif" font-size="10.00">Base::OnBlobLoaded</text>
</a>
</g>
</g>
<!-- Node5&#45;&gt;Node6 -->
<g id="edge7" class="edge"><title>Node5&#45;&gt;Node6</title>
<path fill="none" stroke="midnightblue" d="M477.084,-107.129C485.538,-106.832 494.237,-106.527 502.83,-106.225"/>
<polygon fill="midnightblue" stroke="midnightblue" points="502.976,-109.722 512.847,-105.874 502.731,-102.727 502.976,-109.722"/>
</g>
<!-- Node8 -->
<g id="node9" class="node"><title>Node8</title>
<g id="a_node9"><a xlink:href="../../d0/de3/namespaceinfra.html#a032811931ada58a358282ecfcfd58de5" target="_top" xlink:title="infra::swap">
<polygon fill="white" stroke="black" points="723,-127 723,-146 786,-146 786,-127 723,-127"/>
<text text-anchor="middle" x="754.5" y="-134" font-family="Helvetica,sans-Serif" font-size="10.00">infra::swap</text>
</a>
</g>
</g>
<!-- Node5&#45;&gt;Node8 -->
<g id="edge11" class="edge"><title>Node5&#45;&gt;Node8</title>
<path fill="none" stroke="midnightblue" d="M477.239,-122.627C489.118,-124.543 501.391,-126.279 513,-127.5 582.73,-134.834 664.383,-136.421 712.365,-136.643"/>
<polygon fill="midnightblue" stroke="midnightblue" points="712.645,-140.144 722.655,-136.672 712.665,-133.144 712.645,-140.144"/>
</g>
<!-- Node6&#45;&gt;Node7 -->
<g id="edge8" class="edge"><title>Node6&#45;&gt;Node7</title>
<path fill="none" stroke="midnightblue" d="M650.084,-90.4575C658.538,-88.826 667.237,-87.1472 675.83,-85.489"/>
<polygon fill="midnightblue" stroke="midnightblue" points="676.692,-88.8873 685.847,-83.5558 675.365,-82.0142 676.692,-88.8873"/>
</g>
<!-- Node6&#45;&gt;Node8 -->
<g id="edge9" class="edge"><title>Node6&#45;&gt;Node8</title>
<path fill="none" stroke="midnightblue" d="M650.084,-116.542C671.351,-120.647 694.167,-125.05 712.943,-128.673"/>
<polygon fill="midnightblue" stroke="midnightblue" points="712.44,-132.141 722.922,-130.599 713.767,-125.268 712.44,-132.141"/>
</g>
<!-- Node9&#45;&gt;Node3 -->
<g id="edge13" class="edge"><title>Node9&#45;&gt;Node3</title>
<path fill="none" stroke="midnightblue" d="M477.084,-171.542C485.969,-173.257 495.125,-175.024 504.143,-176.765"/>
<polygon fill="midnightblue" stroke="midnightblue" points="503.763,-180.256 514.245,-178.714 505.09,-173.383 503.763,-180.256"/>
</g>
</g>
</svg>
