<?xml version="1.0" encoding="UTF-8" standalone="no"?>
<!DOCTYPE svg PUBLIC "-//W3C//DTD SVG 1.1//EN"
 "http://www.w3.org/Graphics/SVG/1.1/DTD/svg11.dtd">
<!-- Generated by graphviz version 2.38.0 (20140413.2041)
 -->
<!-- Title: infra::detail::CopyVisitor&lt; T &gt; Pages: 1 -->
<svg width="259pt" height="173pt"
 viewBox="0.00 0.00 258.50 173.00" xmlns="http://www.w3.org/2000/svg" xmlns:xlink="http://www.w3.org/1999/xlink">
<g id="graph0" class="graph" transform="scale(1 1) rotate(0) translate(4 169)">
<title>infra::detail::CopyVisitor&lt; T &gt;</title>
<polygon fill="white" stroke="none" points="-4,4 -4,-169 254.5,-169 254.5,4 -4,4"/>
<!-- Node2 -->
<g id="node1" class="node"><title>Node2</title>
<polygon fill="#bfbfbf" stroke="black" points="12.5,-0.5 12.5,-19.5 155.5,-19.5 155.5,-0.5 12.5,-0.5"/>
<text text-anchor="middle" x="84" y="-7.5" font-family="Helvetica,sans-Serif" font-size="10.00">infra::detail::CopyVisitor&lt; T &gt;</text>
</g>
<!-- Node3 -->
<g id="node2" class="node"><title>Node3</title>
<g id="a_node2"><a xlink:href="../../d2/dca/classinfra_1_1_static_visitor.html" target="_top" xlink:title="infra::StaticVisitor\l\&lt; void \&gt;">
<polygon fill="white" stroke="black" points="0,-67.5 0,-97.5 94,-97.5 94,-67.5 0,-67.5"/>
<text text-anchor="start" x="8" y="-85.5" font-family="Helvetica,sans-Serif" font-size="10.00">infra::StaticVisitor</text>
<text text-anchor="middle" x="47" y="-74.5" font-family="Helvetica,sans-Serif" font-size="10.00">&lt; void &gt;</text>
</a>
</g>
</g>
<!-- Node3&#45;&gt;Node2 -->
<g id="edge1" class="edge"><title>Node3&#45;&gt;Node2</title>
<path fill="none" stroke="midnightblue" d="M59.2051,-58.2443C66.0932,-45.1198 74.3031,-29.4765 79.3327,-19.8932"/>
<polygon fill="midnightblue" stroke="midnightblue" points="56.0355,-56.7521 54.4875,-67.2333 62.2338,-60.0051 56.0355,-56.7521"/>
</g>
<!-- Node4 -->
<g id="node3" class="node"><title>Node4</title>
<g id="a_node3"><a xlink:href="../../da/d2a/classinfra_1_1_variant.html" target="_top" xlink:title="infra::Variant\&lt; T... \&gt;">
<polygon fill="white" stroke="black" points="112,-73 112,-92 216,-92 216,-73 112,-73"/>
<text text-anchor="middle" x="164" y="-80" font-family="Helvetica,sans-Serif" font-size="10.00">infra::Variant&lt; T... &gt;</text>
</a>
</g>
</g>
<!-- Node4&#45;&gt;Node2 -->
<g id="edge2" class="edge"><title>Node4&#45;&gt;Node2</title>
<path fill="none" stroke="#9a32cd" stroke-dasharray="5,2" d="M146.508,-66.085C130.377,-51.8699 107.007,-31.2747 93.8898,-19.7154"/>
<polygon fill="#9a32cd" stroke="#9a32cd" points="144.374,-68.8696 154.19,-72.8553 149.002,-63.6178 144.374,-68.8696"/>
<text text-anchor="middle" x="142.5" y="-41" font-family="Helvetica,sans-Serif" font-size="10.00"> variant</text>
</g>
<!-- Node5 -->
<g id="node4" class="node"><title>Node5</title>
<polygon fill="white" stroke="#bfbfbf" points="119.5,-145.5 119.5,-164.5 162.5,-164.5 162.5,-145.5 119.5,-145.5"/>
<text text-anchor="middle" x="141" y="-152.5" font-family="Helvetica,sans-Serif" font-size="10.00">size_t</text>
</g>
<!-- Node5&#45;&gt;Node4 -->
<g id="edge3" class="edge"><title>Node5&#45;&gt;Node4</title>
<path fill="none" stroke="#9a32cd" stroke-dasharray="5,2" d="M124.23,-137.661C119.432,-131.002 116.371,-123.192 120,-116 125.305,-105.487 135.794,-97.5329 145.2,-92.1259"/>
<polygon fill="#9a32cd" stroke="#9a32cd" points="121.68,-140.062 130.863,-145.346 126.979,-135.489 121.68,-140.062"/>
<text text-anchor="middle" x="131" y="-119" font-family="Helvetica,sans-Serif" font-size="10.00"> size</text>
</g>
<!-- Node5&#45;&gt;Node4 -->
<g id="edge4" class="edge"><title>Node5&#45;&gt;Node4</title>
<path fill="none" stroke="#9a32cd" stroke-dasharray="5,2" d="M146.947,-135.771C151.517,-121.762 157.628,-103.032 161.157,-92.2154"/>
<polygon fill="#9a32cd" stroke="#9a32cd" points="143.594,-134.763 143.82,-145.355 150.249,-136.934 143.594,-134.763"/>
<text text-anchor="middle" x="177" y="-119" font-family="Helvetica,sans-Serif" font-size="10.00"> dataIndex</text>
</g>
<!-- Node6 -->
<g id="node5" class="node"><title>Node6</title>
<polygon fill="white" stroke="#bfbfbf" points="215.5,-145.5 215.5,-164.5 250.5,-164.5 250.5,-145.5 215.5,-145.5"/>
<text text-anchor="middle" x="233" y="-152.5" font-family="Helvetica,sans-Serif" font-size="10.00">type</text>
</g>
<!-- Node6&#45;&gt;Node4 -->
<g id="edge5" class="edge"><title>Node6&#45;&gt;Node4</title>
<path fill="none" stroke="#9a32cd" stroke-dasharray="5,2" d="M221.282,-136.891C216.292,-130.094 210.197,-122.389 204,-116 195.403,-107.137 184.451,-98.3852 176.181,-92.2003"/>
<polygon fill="#9a32cd" stroke="#9a32cd" points="218.668,-139.257 227.308,-145.389 224.378,-135.207 218.668,-139.257"/>
<text text-anchor="middle" x="224" y="-119" font-family="Helvetica,sans-Serif" font-size="10.00"> data</text>
</g>
</g>
</svg>
