<?xml version="1.0" encoding="UTF-8" standalone="no"?>
<!DOCTYPE svg PUBLIC "-//W3C//DTD SVG 1.1//EN"
 "http://www.w3.org/Graphics/SVG/1.1/DTD/svg11.dtd">
<!-- Generated by graphviz version 2.38.0 (20140413.2041)
 -->
<!-- Title: services::ConnectionSerial::SerialConnectionStreamReader Pages: 1 -->
<svg width="425pt" height="373pt"
 viewBox="0.00 0.00 424.50 373.00" xmlns="http://www.w3.org/2000/svg" xmlns:xlink="http://www.w3.org/1999/xlink">
<g id="graph0" class="graph" transform="scale(1 1) rotate(0) translate(4 369)">
<title>services::ConnectionSerial::SerialConnectionStreamReader</title>
<polygon fill="white" stroke="none" points="-4,4 -4,-369 420.5,-369 420.5,4 -4,4"/>
<!-- Node3 -->
<g id="node1" class="node"><title>Node3</title>
<polygon fill="#bfbfbf" stroke="black" points="124.5,-0.5 124.5,-30.5 282.5,-30.5 282.5,-0.5 124.5,-0.5"/>
<text text-anchor="start" x="132.5" y="-18.5" font-family="Helvetica,sans-Serif" font-size="10.00">services::ConnectionSerial</text>
<text text-anchor="middle" x="203.5" y="-7.5" font-family="Helvetica,sans-Serif" font-size="10.00">::SerialConnectionStreamReader</text>
</g>
<!-- Node4 -->
<g id="node2" class="node"><title>Node4</title>
<g id="a_node2"><a xlink:href="../../d0/d1b/classinfra_1_1_stream_reader_with_rewinding.html" target="_top" xlink:title="infra::StreamReaderWithRewinding">
<polygon fill="white" stroke="black" points="0,-84 0,-103 167,-103 167,-84 0,-84"/>
<text text-anchor="middle" x="83.5" y="-91" font-family="Helvetica,sans-Serif" font-size="10.00">infra::StreamReaderWithRewinding</text>
</a>
</g>
</g>
<!-- Node4&#45;&gt;Node3 -->
<g id="edge1" class="edge"><title>Node4&#45;&gt;Node3</title>
<path fill="none" stroke="midnightblue" d="M105.774,-78.3932C127.339,-64.7352 159.845,-44.1482 181.363,-30.5198"/>
<polygon fill="midnightblue" stroke="midnightblue" points="103.841,-75.4744 97.2655,-83.7818 107.586,-81.3881 103.841,-75.4744"/>
</g>
<!-- Node5 -->
<g id="node3" class="node"><title>Node5</title>
<g id="a_node3"><a xlink:href="../../d2/d90/classinfra_1_1_stream_reader.html" target="_top" xlink:title="infra::StreamReader">
<polygon fill="white" stroke="black" points="32,-178.5 32,-197.5 135,-197.5 135,-178.5 32,-178.5"/>
<text text-anchor="middle" x="83.5" y="-185.5" font-family="Helvetica,sans-Serif" font-size="10.00">infra::StreamReader</text>
</a>
</g>
</g>
<!-- Node5&#45;&gt;Node4 -->
<g id="edge2" class="edge"><title>Node5&#45;&gt;Node4</title>
<path fill="none" stroke="midnightblue" d="M83.5,-168.444C83.5,-148.538 83.5,-117.8 83.5,-103.016"/>
<polygon fill="midnightblue" stroke="midnightblue" points="80.0001,-168.464 83.5,-178.464 87.0001,-168.464 80.0001,-168.464"/>
</g>
<!-- Node6 -->
<g id="node4" class="node"><title>Node6</title>
<polygon fill="white" stroke="#bfbfbf" points="210,-178.5 210,-197.5 253,-197.5 253,-178.5 210,-178.5"/>
<text text-anchor="middle" x="231.5" y="-185.5" font-family="Helvetica,sans-Serif" font-size="10.00">size_t</text>
</g>
<!-- Node6&#45;&gt;Node3 -->
<g id="edge3" class="edge"><title>Node6&#45;&gt;Node3</title>
<path fill="none" stroke="#9a32cd" stroke-dasharray="5,2" d="M226.194,-168.454C221.892,-152.747 215.987,-129.567 212.5,-109 207.834,-81.4795 205.364,-48.9118 204.253,-30.6865"/>
<polygon fill="#9a32cd" stroke="#9a32cd" points="222.92,-169.741 228.987,-178.427 229.661,-167.853 222.92,-169.741"/>
<text text-anchor="middle" x="251.5" y="-91" font-family="Helvetica,sans-Serif" font-size="10.00"> extractedAmount</text>
</g>
<!-- Node7 -->
<g id="node5" class="node"><title>Node7</title>
<g id="a_node5"><a xlink:href="../../d5/db7/classinfra_1_1_bounded_deque.html" target="_top" xlink:title="infra::BoundedDeque\l\&lt; uint8_t \&gt;">
<polygon fill="white" stroke="black" points="300,-78.5 300,-108.5 407,-108.5 407,-78.5 300,-78.5"/>
<text text-anchor="start" x="308" y="-96.5" font-family="Helvetica,sans-Serif" font-size="10.00">infra::BoundedDeque</text>
<text text-anchor="middle" x="353.5" y="-85.5" font-family="Helvetica,sans-Serif" font-size="10.00">&lt; uint8_t &gt;</text>
</a>
</g>
</g>
<!-- Node6&#45;&gt;Node7 -->
<g id="edge8" class="edge"><title>Node6&#45;&gt;Node7</title>
<path fill="none" stroke="#9a32cd" stroke-dasharray="5,2" d="M244.02,-170.18C254.339,-157.168 269.927,-139.346 286.5,-127 296.142,-119.817 307.621,-113.564 318.329,-108.513"/>
<polygon fill="#9a32cd" stroke="#9a32cd" points="241.1,-168.235 237.771,-178.293 246.646,-172.507 241.1,-168.235"/>
<text text-anchor="middle" x="318" y="-141" font-family="Helvetica,sans-Serif" font-size="10.00"> numAllocated</text>
<text text-anchor="middle" x="318" y="-130" font-family="Helvetica,sans-Serif" font-size="10.00">start</text>
</g>
<!-- Node7&#45;&gt;Node3 -->
<g id="edge4" class="edge"><title>Node7&#45;&gt;Node3</title>
<path fill="none" stroke="#9a32cd" stroke-dasharray="5,2" d="M316.69,-73.8494C290.286,-60.4714 255.269,-42.7295 231.213,-30.5413"/>
<polygon fill="#9a32cd" stroke="#9a32cd" points="315.135,-76.9855 325.638,-78.3831 318.299,-70.7413 315.135,-76.9855"/>
<text text-anchor="middle" x="331.5" y="-52" font-family="Helvetica,sans-Serif" font-size="10.00"> receivedDataQueue</text>
</g>
<!-- Node8 -->
<g id="node6" class="node"><title>Node8</title>
<g id="a_node6"><a xlink:href="../../d0/d6d/classinfra_1_1_memory_range.html" target="_top" xlink:title="infra::MemoryRange\l\&lt; infra::StaticStorage\l\&lt; uint8_t \&gt; \&gt;">
<polygon fill="white" stroke="black" points="299,-167.5 299,-208.5 408,-208.5 408,-167.5 299,-167.5"/>
<text text-anchor="start" x="307" y="-196.5" font-family="Helvetica,sans-Serif" font-size="10.00">infra::MemoryRange</text>
<text text-anchor="start" x="307" y="-185.5" font-family="Helvetica,sans-Serif" font-size="10.00">&lt; infra::StaticStorage</text>
<text text-anchor="middle" x="353.5" y="-174.5" font-family="Helvetica,sans-Serif" font-size="10.00">&lt; uint8_t &gt; &gt;</text>
</a>
</g>
</g>
<!-- Node8&#45;&gt;Node7 -->
<g id="edge5" class="edge"><title>Node8&#45;&gt;Node7</title>
<path fill="none" stroke="#9a32cd" stroke-dasharray="5,2" d="M353.5,-157.237C353.5,-140.956 353.5,-121.538 353.5,-108.662"/>
<polygon fill="#9a32cd" stroke="#9a32cd" points="350,-157.383 353.5,-167.383 357,-157.383 350,-157.383"/>
<text text-anchor="middle" x="371.5" y="-135.5" font-family="Helvetica,sans-Serif" font-size="10.00"> storage</text>
</g>
<!-- Node9 -->
<g id="node7" class="node"><title>Node9</title>
<g id="a_node7"><a xlink:href="../../d0/d8c/classinfra_1_1_static_storage.html" target="_top" xlink:title="infra::StaticStorage\l\&lt; uint8_t \&gt;">
<polygon fill="white" stroke="black" points="303.5,-267.5 303.5,-297.5 403.5,-297.5 403.5,-267.5 303.5,-267.5"/>
<text text-anchor="start" x="311.5" y="-285.5" font-family="Helvetica,sans-Serif" font-size="10.00">infra::StaticStorage</text>
<text text-anchor="middle" x="353.5" y="-274.5" font-family="Helvetica,sans-Serif" font-size="10.00">&lt; uint8_t &gt;</text>
</a>
</g>
</g>
<!-- Node9&#45;&gt;Node8 -->
<g id="edge6" class="edge"><title>Node9&#45;&gt;Node8</title>
<path fill="none" stroke="#9a32cd" stroke-dasharray="5,2" d="M353.5,-257.282C353.5,-242.138 353.5,-222.882 353.5,-208.682"/>
<polygon fill="#9a32cd" stroke="#9a32cd" points="350,-257.451 353.5,-267.451 357,-257.451 350,-257.451"/>
<text text-anchor="middle" x="385" y="-241" font-family="Helvetica,sans-Serif" font-size="10.00"> beginElement</text>
<text text-anchor="middle" x="385" y="-230" font-family="Helvetica,sans-Serif" font-size="10.00">endElement</text>
</g>
<!-- Node10 -->
<g id="node8" class="node"><title>Node10</title>
<polygon fill="white" stroke="#bfbfbf" points="336,-345.5 336,-364.5 371,-364.5 371,-345.5 336,-345.5"/>
<text text-anchor="middle" x="353.5" y="-352.5" font-family="Helvetica,sans-Serif" font-size="10.00">type</text>
</g>
<!-- Node10&#45;&gt;Node9 -->
<g id="edge7" class="edge"><title>Node10&#45;&gt;Node9</title>
<path fill="none" stroke="#9a32cd" stroke-dasharray="5,2" d="M353.5,-335.236C353.5,-323.408 353.5,-308.383 353.5,-297.576"/>
<polygon fill="#9a32cd" stroke="#9a32cd" points="350,-335.355 353.5,-345.355 357,-335.355 350,-335.355"/>
<text text-anchor="middle" x="364.5" y="-319" font-family="Helvetica,sans-Serif" font-size="10.00"> data</text>
</g>
</g>
</svg>
