<?xml version="1.0" encoding="UTF-8" standalone="no"?>
<!DOCTYPE svg PUBLIC "-//W3C//DTD SVG 1.1//EN"
 "http://www.w3.org/Graphics/SVG/1.1/DTD/svg11.dtd">
<!-- Generated by graphviz version 2.38.0 (20140413.2041)
 -->
<!-- Title: services::HttpClientImpl::DataReceived Pages: 1 -->
<svg width="295pt" height="39pt"
 viewBox="0.00 0.00 295.00 39.00" xmlns="http://www.w3.org/2000/svg" xmlns:xlink="http://www.w3.org/1999/xlink">
<g id="graph0" class="graph" transform="scale(1 1) rotate(0) translate(4 35)">
<title>services::HttpClientImpl::DataReceived</title>
<polygon fill="white" stroke="none" points="-4,4 -4,-35 291,-35 291,4 -4,4"/>
<!-- Node61 -->
<g id="node1" class="node"><title>Node61</title>
<polygon fill="#bfbfbf" stroke="black" points="0,-0.5 0,-30.5 119,-30.5 119,-0.5 0,-0.5"/>
<text text-anchor="start" x="8" y="-18.5" font-family="Helvetica,sans-Serif" font-size="10.00">services::HttpClientImpl</text>
<text text-anchor="middle" x="59.5" y="-7.5" font-family="Helvetica,sans-Serif" font-size="10.00">::DataReceived</text>
</g>
<!-- Node62 -->
<g id="node2" class="node"><title>Node62</title>
<g id="a_node2"><a xlink:href="../../df/d09/classservices_1_1_tracing_http_client_impl.html#a2a4ebdef9cd37da3c11625013714992d" target="_top" xlink:title="services::TracingHttpClient\lImpl::DataReceived">
<polygon fill="white" stroke="black" points="155,-0.5 155,-30.5 287,-30.5 287,-0.5 155,-0.5"/>
<text text-anchor="start" x="163" y="-18.5" font-family="Helvetica,sans-Serif" font-size="10.00">services::TracingHttpClient</text>
<text text-anchor="middle" x="221" y="-7.5" font-family="Helvetica,sans-Serif" font-size="10.00">Impl::DataReceived</text>
</a>
</g>
</g>
<!-- Node61&#45;&gt;Node62 -->
<g id="edge1" class="edge"><title>Node61&#45;&gt;Node62</title>
<path fill="none" stroke="midnightblue" d="M129.574,-15.5C137.969,-15.5 146.525,-15.5 154.861,-15.5"/>
<polygon fill="midnightblue" stroke="midnightblue" points="129.439,-12.0001 119.439,-15.5 129.439,-19.0001 129.439,-12.0001"/>
</g>
</g>
</svg>
