<?xml version="1.0" encoding="UTF-8" standalone="no"?>
<!DOCTYPE svg PUBLIC "-//W3C//DTD SVG 1.1//EN"
 "http://www.w3.org/Graphics/SVG/1.1/DTD/svg11.dtd">
<!-- Generated by graphviz version 2.38.0 (20140413.2041)
 -->
<!-- Title: services::HttpClientImpl::BodyReaderDestroyed Pages: 1 -->
<svg width="283pt" height="100pt"
 viewBox="0.00 0.00 283.00 99.50" xmlns="http://www.w3.org/2000/svg" xmlns:xlink="http://www.w3.org/1999/xlink">
<g id="graph0" class="graph" transform="scale(1 1) rotate(0) translate(4 95.5)">
<title>services::HttpClientImpl::BodyReaderDestroyed</title>
<polygon fill="white" stroke="none" points="-4,4 -4,-95.5 279,-95.5 279,4 -4,4"/>
<!-- Node21 -->
<g id="node1" class="node"><title>Node21</title>
<polygon fill="#bfbfbf" stroke="black" points="0,-33 0,-63 120,-63 120,-33 0,-33"/>
<text text-anchor="start" x="8" y="-51" font-family="Helvetica,sans-Serif" font-size="10.00">services::HttpClientImpl</text>
<text text-anchor="middle" x="60" y="-40" font-family="Helvetica,sans-Serif" font-size="10.00">::BodyReaderDestroyed</text>
</g>
<!-- Node22 -->
<g id="node2" class="node"><title>Node22</title>
<g id="a_node2"><a xlink:href="../../db/dd6/classservices_1_1_http_client_impl.html#aa217ca14077903856dd75b407653e07c" target="_top" xlink:title="services::HttpClientImpl\l::BodyComplete">
<polygon fill="white" stroke="black" points="156,-61 156,-91 275,-91 275,-61 156,-61"/>
<text text-anchor="start" x="164" y="-79" font-family="Helvetica,sans-Serif" font-size="10.00">services::HttpClientImpl</text>
<text text-anchor="middle" x="215.5" y="-68" font-family="Helvetica,sans-Serif" font-size="10.00">::BodyComplete</text>
</a>
</g>
</g>
<!-- Node21&#45;&gt;Node22 -->
<g id="edge1" class="edge"><title>Node21&#45;&gt;Node22</title>
<path fill="none" stroke="midnightblue" d="M120.347,-58.8255C128.715,-60.3519 137.374,-61.9315 145.898,-63.4863"/>
<polygon fill="midnightblue" stroke="midnightblue" points="145.351,-66.9441 155.816,-65.2955 146.607,-60.0577 145.351,-66.9441"/>
</g>
<!-- Node23 -->
<g id="node3" class="node"><title>Node23</title>
<g id="a_node3"><a xlink:href="../../dc/d4c/classinfra_1_1_single_observer.html#abb13c69cc61182baf350ff1736fa772e" target="_top" xlink:title="infra::SingleObserver\l\&lt; ConnectionObserver,\l Connection \&gt;::Subject">
<polygon fill="white" stroke="black" points="157.5,-0.5 157.5,-41.5 273.5,-41.5 273.5,-0.5 157.5,-0.5"/>
<text text-anchor="start" x="165.5" y="-29.5" font-family="Helvetica,sans-Serif" font-size="10.00">infra::SingleObserver</text>
<text text-anchor="start" x="165.5" y="-18.5" font-family="Helvetica,sans-Serif" font-size="10.00">&lt; ConnectionObserver,</text>
<text text-anchor="middle" x="215.5" y="-7.5" font-family="Helvetica,sans-Serif" font-size="10.00"> Connection &gt;::Subject</text>
</a>
</g>
</g>
<!-- Node21&#45;&gt;Node23 -->
<g id="edge2" class="edge"><title>Node21&#45;&gt;Node23</title>
<path fill="none" stroke="midnightblue" d="M120.347,-37.5611C129.174,-36.0085 138.325,-34.3989 147.299,-32.8204"/>
<polygon fill="midnightblue" stroke="midnightblue" points="148.086,-36.2357 157.329,-31.0562 146.873,-29.3416 148.086,-36.2357"/>
</g>
</g>
</svg>
