<?xml version="1.0" encoding="UTF-8" standalone="no"?>
<!DOCTYPE svg PUBLIC "-//W3C//DTD SVG 1.1//EN"
 "http://www.w3.org/Graphics/SVG/1.1/DTD/svg11.dtd">
<!-- Generated by graphviz version 2.38.0 (20140413.2041)
 -->
<!-- Title: services::HttpClientImpl::Connected Pages: 1 -->
<svg width="303pt" height="149pt"
 viewBox="0.00 0.00 303.00 148.50" xmlns="http://www.w3.org/2000/svg" xmlns:xlink="http://www.w3.org/1999/xlink">
<g id="graph0" class="graph" transform="scale(1 1) rotate(0) translate(4 144.5)">
<title>services::HttpClientImpl::Connected</title>
<polygon fill="white" stroke="none" points="-4,4 -4,-144.5 299,-144.5 299,4 -4,4"/>
<!-- Node46 -->
<g id="node1" class="node"><title>Node46</title>
<polygon fill="#bfbfbf" stroke="black" points="0,-61 0,-91 119,-91 119,-61 0,-61"/>
<text text-anchor="start" x="8" y="-79" font-family="Helvetica,sans-Serif" font-size="10.00">services::HttpClientImpl</text>
<text text-anchor="middle" x="59.5" y="-68" font-family="Helvetica,sans-Serif" font-size="10.00">::Connected</text>
</g>
<!-- Node47 -->
<g id="node2" class="node"><title>Node47</title>
<g id="a_node2"><a xlink:href="../../d1/db2/classinfra_1_1_subject.html#ae6779efb6b9b18a7638fef4ce0553466" target="_top" xlink:title="infra::Subject\&lt; HttpClient\lObserver \&gt;::GetObserver">
<polygon fill="white" stroke="black" points="162.5,-110 162.5,-140 287.5,-140 287.5,-110 162.5,-110"/>
<text text-anchor="start" x="170.5" y="-128" font-family="Helvetica,sans-Serif" font-size="10.00">infra::Subject&lt; HttpClient</text>
<text text-anchor="middle" x="225" y="-117" font-family="Helvetica,sans-Serif" font-size="10.00">Observer &gt;::GetObserver</text>
</a>
</g>
</g>
<!-- Node46&#45;&gt;Node47 -->
<g id="edge1" class="edge"><title>Node46&#45;&gt;Node47</title>
<path fill="none" stroke="midnightblue" d="M110.889,-91.1014C127.596,-96.1083 146.362,-101.732 163.735,-106.939"/>
<polygon fill="midnightblue" stroke="midnightblue" points="163.193,-110.43 173.777,-109.948 165.203,-103.725 163.193,-110.43"/>
</g>
<!-- Node48 -->
<g id="node3" class="node"><title>Node48</title>
<g id="a_node3"><a xlink:href="../../da/d78/classinfra_1_1_accessed_by_shared_ptr.html#afed78c7dc79ccbb4711b34a1d7c7e63e" target="_top" xlink:title="infra::AccessedBySharedPtr\l::SetAction">
<polygon fill="white" stroke="black" points="155,-61 155,-91 295,-91 295,-61 155,-61"/>
<text text-anchor="start" x="163" y="-79" font-family="Helvetica,sans-Serif" font-size="10.00">infra::AccessedBySharedPtr</text>
<text text-anchor="middle" x="225" y="-68" font-family="Helvetica,sans-Serif" font-size="10.00">::SetAction</text>
</a>
</g>
</g>
<!-- Node46&#45;&gt;Node48 -->
<g id="edge2" class="edge"><title>Node46&#45;&gt;Node48</title>
<path fill="none" stroke="midnightblue" d="M119.065,-76C127.43,-76 136.147,-76 144.825,-76"/>
<polygon fill="midnightblue" stroke="midnightblue" points="144.971,-79.5001 154.971,-76 144.971,-72.5001 144.971,-79.5001"/>
</g>
<!-- Node49 -->
<g id="node4" class="node"><title>Node49</title>
<g id="a_node4"><a xlink:href="../../dc/d4c/classinfra_1_1_single_observer.html#abb13c69cc61182baf350ff1736fa772e" target="_top" xlink:title="infra::SingleObserver\l\&lt; ConnectionObserver,\l Connection \&gt;::Subject">
<polygon fill="white" stroke="black" points="167,-0.5 167,-41.5 283,-41.5 283,-0.5 167,-0.5"/>
<text text-anchor="start" x="175" y="-29.5" font-family="Helvetica,sans-Serif" font-size="10.00">infra::SingleObserver</text>
<text text-anchor="start" x="175" y="-18.5" font-family="Helvetica,sans-Serif" font-size="10.00">&lt; ConnectionObserver,</text>
<text text-anchor="middle" x="225" y="-7.5" font-family="Helvetica,sans-Serif" font-size="10.00"> Connection &gt;::Subject</text>
</a>
</g>
</g>
<!-- Node46&#45;&gt;Node49 -->
<g id="edge3" class="edge"><title>Node46&#45;&gt;Node49</title>
<path fill="none" stroke="midnightblue" d="M105.177,-60.971C121.212,-55.577 139.661,-49.3708 157.166,-43.4823"/>
<polygon fill="midnightblue" stroke="midnightblue" points="158.41,-46.7566 166.773,-40.2508 156.179,-40.1219 158.41,-46.7566"/>
</g>
</g>
</svg>
