<?xml version="1.0" encoding="UTF-8" standalone="no"?>
<!DOCTYPE svg PUBLIC "-//W3C//DTD SVG 1.1//EN"
 "http://www.w3.org/Graphics/SVG/1.1/DTD/svg11.dtd">
<!-- Generated by graphviz version 2.38.0 (20140413.2041)
 -->
<!-- Title: services::HttpClientImpl::BodyReceived Pages: 1 -->
<svg width="303pt" height="198pt"
 viewBox="0.00 0.00 303.00 197.50" xmlns="http://www.w3.org/2000/svg" xmlns:xlink="http://www.w3.org/1999/xlink">
<g id="graph0" class="graph" transform="scale(1 1) rotate(0) translate(4 193.5)">
<title>services::HttpClientImpl::BodyReceived</title>
<polygon fill="white" stroke="none" points="-4,4 -4,-193.5 299,-193.5 299,4 -4,4"/>
<!-- Node25 -->
<g id="node1" class="node"><title>Node25</title>
<polygon fill="#bfbfbf" stroke="black" points="0,-85 0,-115 119,-115 119,-85 0,-85"/>
<text text-anchor="start" x="8" y="-103" font-family="Helvetica,sans-Serif" font-size="10.00">services::HttpClientImpl</text>
<text text-anchor="middle" x="59.5" y="-92" font-family="Helvetica,sans-Serif" font-size="10.00">::BodyReceived</text>
</g>
<!-- Node26 -->
<g id="node2" class="node"><title>Node26</title>
<g id="a_node2"><a xlink:href="../../db/dd6/classservices_1_1_http_client_impl.html#aa217ca14077903856dd75b407653e07c" target="_top" xlink:title="services::HttpClientImpl\l::BodyComplete">
<polygon fill="white" stroke="black" points="165.5,-159 165.5,-189 284.5,-189 284.5,-159 165.5,-159"/>
<text text-anchor="start" x="173.5" y="-177" font-family="Helvetica,sans-Serif" font-size="10.00">services::HttpClientImpl</text>
<text text-anchor="middle" x="225" y="-166" font-family="Helvetica,sans-Serif" font-size="10.00">::BodyComplete</text>
</a>
</g>
</g>
<!-- Node25&#45;&gt;Node26 -->
<g id="edge1" class="edge"><title>Node25&#45;&gt;Node26</title>
<path fill="none" stroke="midnightblue" d="M86.4497,-115.104C105.146,-125.644 131.175,-139.625 155,-150 159.168,-151.815 163.522,-153.592 167.927,-155.307"/>
<polygon fill="midnightblue" stroke="midnightblue" points="167.01,-158.701 177.602,-158.95 169.477,-152.151 167.01,-158.701"/>
</g>
<!-- Node27 -->
<g id="node3" class="node"><title>Node27</title>
<g id="a_node3"><a xlink:href="../../d0/de3/namespaceinfra.html#af113404041b6d15ab539059f0876bb82" target="_top" xlink:title="infra::MakeContainedShared\lObject">
<polygon fill="white" stroke="black" points="155.5,-110 155.5,-140 294.5,-140 294.5,-110 155.5,-110"/>
<text text-anchor="start" x="163.5" y="-128" font-family="Helvetica,sans-Serif" font-size="10.00">infra::MakeContainedShared</text>
<text text-anchor="middle" x="225" y="-117" font-family="Helvetica,sans-Serif" font-size="10.00">Object</text>
</a>
</g>
</g>
<!-- Node25&#45;&gt;Node27 -->
<g id="edge2" class="edge"><title>Node25&#45;&gt;Node27</title>
<path fill="none" stroke="midnightblue" d="M119.065,-108.955C127.587,-110.258 136.475,-111.617 145.315,-112.969"/>
<polygon fill="midnightblue" stroke="midnightblue" points="144.839,-116.437 155.254,-114.488 145.897,-109.517 144.839,-116.437"/>
</g>
<!-- Node28 -->
<g id="node4" class="node"><title>Node28</title>
<g id="a_node4"><a xlink:href="../../da/d78/classinfra_1_1_accessed_by_shared_ptr.html#a9a3b6445cae28c4ab728ca757cdd8ee7" target="_top" xlink:title="infra::AccessedBySharedPtr\l::MakeShared">
<polygon fill="white" stroke="black" points="155,-61 155,-91 295,-91 295,-61 155,-61"/>
<text text-anchor="start" x="163" y="-79" font-family="Helvetica,sans-Serif" font-size="10.00">infra::AccessedBySharedPtr</text>
<text text-anchor="middle" x="225" y="-68" font-family="Helvetica,sans-Serif" font-size="10.00">::MakeShared</text>
</a>
</g>
</g>
<!-- Node25&#45;&gt;Node28 -->
<g id="edge3" class="edge"><title>Node25&#45;&gt;Node28</title>
<path fill="none" stroke="midnightblue" d="M119.065,-91.4032C127.43,-90.1755 136.147,-88.8959 144.825,-87.622"/>
<polygon fill="midnightblue" stroke="midnightblue" points="145.586,-91.0479 154.971,-86.1326 144.569,-84.1222 145.586,-91.0479"/>
</g>
<!-- Node29 -->
<g id="node5" class="node"><title>Node29</title>
<g id="a_node5"><a xlink:href="../../dc/d4c/classinfra_1_1_single_observer.html#abb13c69cc61182baf350ff1736fa772e" target="_top" xlink:title="infra::SingleObserver\l\&lt; ConnectionObserver,\l Connection \&gt;::Subject">
<polygon fill="white" stroke="black" points="167,-0.5 167,-41.5 283,-41.5 283,-0.5 167,-0.5"/>
<text text-anchor="start" x="175" y="-29.5" font-family="Helvetica,sans-Serif" font-size="10.00">infra::SingleObserver</text>
<text text-anchor="start" x="175" y="-18.5" font-family="Helvetica,sans-Serif" font-size="10.00">&lt; ConnectionObserver,</text>
<text text-anchor="middle" x="225" y="-7.5" font-family="Helvetica,sans-Serif" font-size="10.00"> Connection &gt;::Subject</text>
</a>
</g>
</g>
<!-- Node25&#45;&gt;Node29 -->
<g id="edge4" class="edge"><title>Node25&#45;&gt;Node29</title>
<path fill="none" stroke="midnightblue" d="M89.2742,-84.9349C107.906,-75.2916 132.755,-62.6389 155,-52 159.291,-49.9478 163.749,-47.8557 168.241,-45.7762"/>
<polygon fill="midnightblue" stroke="midnightblue" points="169.837,-48.8946 177.465,-41.5421 166.917,-42.5327 169.837,-48.8946"/>
</g>
</g>
</svg>
