<?xml version="1.0" encoding="UTF-8" standalone="no"?>
<!DOCTYPE svg PUBLIC "-//W3C//DTD SVG 1.1//EN"
 "http://www.w3.org/Graphics/SVG/1.1/DTD/svg11.dtd">
<!-- Generated by graphviz version 2.38.0 (20140413.2041)
 -->
<!-- Title: services::HttpClientImpl::Get Pages: 1 -->
<svg width="455pt" height="50pt"
 viewBox="0.00 0.00 455.00 50.00" xmlns="http://www.w3.org/2000/svg" xmlns:xlink="http://www.w3.org/1999/xlink">
<g id="graph0" class="graph" transform="scale(1 1) rotate(0) translate(4 46)">
<title>services::HttpClientImpl::Get</title>
<polygon fill="white" stroke="none" points="-4,4 -4,-46 451,-46 451,4 -4,4"/>
<!-- Node92 -->
<g id="node1" class="node"><title>Node92</title>
<polygon fill="#bfbfbf" stroke="black" points="0,-11.5 0,-30.5 140,-30.5 140,-11.5 0,-11.5"/>
<text text-anchor="middle" x="70" y="-18.5" font-family="Helvetica,sans-Serif" font-size="10.00">services::HttpClientImpl::Get</text>
</g>
<!-- Node93 -->
<g id="node2" class="node"><title>Node93</title>
<g id="a_node2"><a xlink:href="../../db/dd6/classservices_1_1_http_client_impl.html#a782d78d75171c55faa81d142d9a40ccd" target="_top" xlink:title="services::HttpClientImpl\l::ExecuteRequest">
<polygon fill="white" stroke="black" points="176,-6 176,-36 295,-36 295,-6 176,-6"/>
<text text-anchor="start" x="184" y="-24" font-family="Helvetica,sans-Serif" font-size="10.00">services::HttpClientImpl</text>
<text text-anchor="middle" x="235.5" y="-13" font-family="Helvetica,sans-Serif" font-size="10.00">::ExecuteRequest</text>
</a>
</g>
</g>
<!-- Node92&#45;&gt;Node93 -->
<g id="edge1" class="edge"><title>Node92&#45;&gt;Node93</title>
<path fill="none" stroke="midnightblue" d="M140.339,-21C148.754,-21 157.349,-21 165.755,-21"/>
<polygon fill="midnightblue" stroke="midnightblue" points="165.891,-24.5001 175.891,-21 165.891,-17.5001 165.891,-24.5001"/>
</g>
<!-- Node94 -->
<g id="node3" class="node"><title>Node94</title>
<g id="a_node3"><a xlink:href="../../dc/d4c/classinfra_1_1_single_observer.html#abb13c69cc61182baf350ff1736fa772e" target="_top" xlink:title="infra::SingleObserver\l\&lt; ConnectionObserver,\l Connection \&gt;::Subject">
<polygon fill="white" stroke="black" points="331,-0.5 331,-41.5 447,-41.5 447,-0.5 331,-0.5"/>
<text text-anchor="start" x="339" y="-29.5" font-family="Helvetica,sans-Serif" font-size="10.00">infra::SingleObserver</text>
<text text-anchor="start" x="339" y="-18.5" font-family="Helvetica,sans-Serif" font-size="10.00">&lt; ConnectionObserver,</text>
<text text-anchor="middle" x="389" y="-7.5" font-family="Helvetica,sans-Serif" font-size="10.00"> Connection &gt;::Subject</text>
</a>
</g>
</g>
<!-- Node93&#45;&gt;Node94 -->
<g id="edge2" class="edge"><title>Node93&#45;&gt;Node94</title>
<path fill="none" stroke="midnightblue" d="M295.074,-21C303.361,-21 311.938,-21 320.379,-21"/>
<polygon fill="midnightblue" stroke="midnightblue" points="320.579,-24.5001 330.579,-21 320.579,-17.5001 320.579,-24.5001"/>
</g>
</g>
</svg>
