<?xml version="1.0" encoding="UTF-8" standalone="no"?>
<!DOCTYPE svg PUBLIC "-//W3C//DTD SVG 1.1//EN"
 "http://www.w3.org/Graphics/SVG/1.1/DTD/svg11.dtd">
<!-- Generated by graphviz version 2.38.0 (20140413.2041)
 -->
<!-- Title: services::HttpClientImpl::StatusAvailable Pages: 1 -->
<svg width="299pt" height="39pt"
 viewBox="0.00 0.00 299.00 39.00" xmlns="http://www.w3.org/2000/svg" xmlns:xlink="http://www.w3.org/1999/xlink">
<g id="graph0" class="graph" transform="scale(1 1) rotate(0) translate(4 35)">
<title>services::HttpClientImpl::StatusAvailable</title>
<polygon fill="white" stroke="none" points="-4,4 -4,-35 295,-35 295,4 -4,4"/>
<!-- Node148 -->
<g id="node1" class="node"><title>Node148</title>
<polygon fill="#bfbfbf" stroke="black" points="0,-0.5 0,-30.5 119,-30.5 119,-0.5 0,-0.5"/>
<text text-anchor="start" x="8" y="-18.5" font-family="Helvetica,sans-Serif" font-size="10.00">services::HttpClientImpl</text>
<text text-anchor="middle" x="59.5" y="-7.5" font-family="Helvetica,sans-Serif" font-size="10.00">::StatusAvailable</text>
</g>
<!-- Node149 -->
<g id="node2" class="node"><title>Node149</title>
<g id="a_node2"><a xlink:href="../../d5/d53/classservices_1_1_tracing_status_http_client_impl.html#a292b80f4bf5ac17b93717cdb65bdedc4" target="_top" xlink:title="services::TracingStatusHttp\lClientImpl::StatusAvailable">
<polygon fill="white" stroke="black" points="155,-0.5 155,-30.5 291,-30.5 291,-0.5 155,-0.5"/>
<text text-anchor="start" x="163" y="-18.5" font-family="Helvetica,sans-Serif" font-size="10.00">services::TracingStatusHttp</text>
<text text-anchor="middle" x="223" y="-7.5" font-family="Helvetica,sans-Serif" font-size="10.00">ClientImpl::StatusAvailable</text>
</a>
</g>
</g>
<!-- Node148&#45;&gt;Node149 -->
<g id="edge1" class="edge"><title>Node148&#45;&gt;Node149</title>
<path fill="none" stroke="midnightblue" d="M129.41,-15.5C137.822,-15.5 146.409,-15.5 154.796,-15.5"/>
<polygon fill="midnightblue" stroke="midnightblue" points="129.262,-12.0001 119.262,-15.5 129.262,-19.0001 129.262,-12.0001"/>
</g>
</g>
</svg>
