<?xml version="1.0" encoding="UTF-8" standalone="no"?>
<!DOCTYPE svg PUBLIC "-//W3C//DTD SVG 1.1//EN"
 "http://www.w3.org/Graphics/SVG/1.1/DTD/svg11.dtd">
<!-- Generated by graphviz version 2.38.0 (20140413.2041)
 -->
<!-- Title: services::SpiMasterWithChipSelect::ResetCommunicationConfigurator Pages: 1 -->
<svg width="418pt" height="39pt"
 viewBox="0.00 0.00 418.00 39.00" xmlns="http://www.w3.org/2000/svg" xmlns:xlink="http://www.w3.org/1999/xlink">
<g id="graph0" class="graph" transform="scale(1 1) rotate(0) translate(4 35)">
<title>services::SpiMasterWithChipSelect::ResetCommunicationConfigurator</title>
<polygon fill="white" stroke="none" points="-4,4 -4,-35 414,-35 414,4 -4,4"/>
<!-- Node8 -->
<g id="node1" class="node"><title>Node8</title>
<polygon fill="#bfbfbf" stroke="black" points="0,-0.5 0,-30.5 195,-30.5 195,-0.5 0,-0.5"/>
<text text-anchor="start" x="8" y="-18.5" font-family="Helvetica,sans-Serif" font-size="10.00">services::SpiMasterWithChip</text>
<text text-anchor="middle" x="97.5" y="-7.5" font-family="Helvetica,sans-Serif" font-size="10.00">Select::ResetCommunicationConfigurator</text>
</g>
<!-- Node9 -->
<g id="node2" class="node"><title>Node9</title>
<g id="a_node2"><a xlink:href="../../dd/da3/classhal_1_1_spi_master.html#a176c491642846565c7734b5e9a53a804" target="_top" xlink:title="hal::SpiMaster::ResetCommunication\lConfigurator">
<polygon fill="white" stroke="black" points="231,-0.5 231,-30.5 410,-30.5 410,-0.5 231,-0.5"/>
<text text-anchor="start" x="239" y="-18.5" font-family="Helvetica,sans-Serif" font-size="10.00">hal::SpiMaster::ResetCommunication</text>
<text text-anchor="middle" x="320.5" y="-7.5" font-family="Helvetica,sans-Serif" font-size="10.00">Configurator</text>
</a>
</g>
</g>
<!-- Node8&#45;&gt;Node9 -->
<g id="edge1" class="edge"><title>Node8&#45;&gt;Node9</title>
<path fill="none" stroke="midnightblue" d="M195.112,-15.5C203.535,-15.5 212.067,-15.5 220.508,-15.5"/>
<polygon fill="midnightblue" stroke="midnightblue" points="220.746,-19.0001 230.746,-15.5 220.746,-12.0001 220.746,-19.0001"/>
</g>
</g>
</svg>
