<?xml version="1.0" encoding="UTF-8" standalone="no"?>
<!DOCTYPE svg PUBLIC "-//W3C//DTD SVG 1.1//EN"
 "http://www.w3.org/Graphics/SVG/1.1/DTD/svg11.dtd">
<!-- Generated by graphviz version 2.38.0 (20140413.2041)
 -->
<!-- Title: services::SpiMasterWithChipSelect::EndSession Pages: 1 -->
<svg width="447pt" height="78pt"
 viewBox="0.00 0.00 447.00 77.50" xmlns="http://www.w3.org/2000/svg" xmlns:xlink="http://www.w3.org/1999/xlink">
<g id="graph0" class="graph" transform="scale(1 1) rotate(0) translate(4 73.5)">
<title>services::SpiMasterWithChipSelect::EndSession</title>
<polygon fill="white" stroke="none" points="-4,4 -4,-73.5 443,-73.5 443,4 -4,4"/>
<!-- Node3 -->
<g id="node1" class="node"><title>Node3</title>
<polygon fill="#bfbfbf" stroke="black" points="0,-17 0,-47 142,-47 142,-17 0,-17"/>
<text text-anchor="start" x="8" y="-35" font-family="Helvetica,sans-Serif" font-size="10.00">services::SpiMasterWithChip</text>
<text text-anchor="middle" x="71" y="-24" font-family="Helvetica,sans-Serif" font-size="10.00">Select::EndSession</text>
</g>
<!-- Node4 -->
<g id="node2" class="node"><title>Node4</title>
<g id="a_node2"><a xlink:href="../../d4/d53/classhal_1_1_chip_select_configurator.html#a70c43f28a19fc7eff9b1099956ac8462" target="_top" xlink:title="hal::ChipSelectConfigurator\l::EndSession">
<polygon fill="white" stroke="black" points="178,-39 178,-69 312,-69 312,-39 178,-39"/>
<text text-anchor="start" x="186" y="-57" font-family="Helvetica,sans-Serif" font-size="10.00">hal::ChipSelectConfigurator</text>
<text text-anchor="middle" x="245" y="-46" font-family="Helvetica,sans-Serif" font-size="10.00">::EndSession</text>
</a>
</g>
</g>
<!-- Node3&#45;&gt;Node4 -->
<g id="edge1" class="edge"><title>Node3&#45;&gt;Node4</title>
<path fill="none" stroke="midnightblue" d="M142.455,-41.0117C150.766,-42.0747 159.277,-43.1633 167.663,-44.236"/>
<polygon fill="midnightblue" stroke="midnightblue" points="167.446,-47.7367 177.81,-45.5338 168.335,-40.7933 167.446,-47.7367"/>
</g>
<!-- Node5 -->
<g id="node3" class="node"><title>Node5</title>
<g id="a_node3"><a xlink:href="../../df/d03/classhal_1_1_output_pin.html#a4e5ec1724078b9b022cbfca7bd88476a" target="_top" xlink:title="hal::OutputPin::Set">
<polygon fill="white" stroke="black" points="195,-0.5 195,-19.5 295,-19.5 295,-0.5 195,-0.5"/>
<text text-anchor="middle" x="245" y="-7.5" font-family="Helvetica,sans-Serif" font-size="10.00">hal::OutputPin::Set</text>
</a>
</g>
</g>
<!-- Node3&#45;&gt;Node5 -->
<g id="edge2" class="edge"><title>Node3&#45;&gt;Node5</title>
<path fill="none" stroke="midnightblue" d="M142.455,-22.9883C156.502,-21.1916 171.121,-19.3218 184.745,-17.5791"/>
<polygon fill="midnightblue" stroke="midnightblue" points="185.469,-21.0152 194.944,-16.2746 184.58,-14.0717 185.469,-21.0152"/>
</g>
<!-- Node6 -->
<g id="node4" class="node"><title>Node6</title>
<g id="a_node4"><a xlink:href="../../d7/d8c/classhal_1_1_gpio_pin.html#a0502d167afa4ed797e3bdb31f5a70452" target="_top" xlink:title="hal::GpioPin::Set">
<polygon fill="white" stroke="black" points="348,-0.5 348,-19.5 439,-19.5 439,-0.5 348,-0.5"/>
<text text-anchor="middle" x="393.5" y="-7.5" font-family="Helvetica,sans-Serif" font-size="10.00">hal::GpioPin::Set</text>
</a>
</g>
</g>
<!-- Node5&#45;&gt;Node6 -->
<g id="edge3" class="edge"><title>Node5&#45;&gt;Node6</title>
<path fill="none" stroke="midnightblue" d="M295.19,-10C308.703,-10 323.445,-10 337.273,-10"/>
<polygon fill="midnightblue" stroke="midnightblue" points="337.634,-13.5001 347.634,-10 337.634,-6.5001 337.634,-13.5001"/>
</g>
</g>
</svg>
