<?xml version="1.0" encoding="UTF-8" standalone="no"?>
<!DOCTYPE svg PUBLIC "-//W3C//DTD SVG 1.1//EN"
 "http://www.w3.org/Graphics/SVG/1.1/DTD/svg11.dtd">
<!-- Generated by graphviz version 2.38.0 (20140413.2041)
 -->
<!-- Title: infra::AsHexHelper Pages: 1 -->
<svg width="123pt" height="184pt"
 viewBox="0.00 0.00 123.00 184.00" xmlns="http://www.w3.org/2000/svg" xmlns:xlink="http://www.w3.org/1999/xlink">
<g id="graph0" class="graph" transform="scale(1 1) rotate(0) translate(4 180)">
<title>infra::AsHexHelper</title>
<polygon fill="white" stroke="none" points="-4,4 -4,-180 119,-180 119,4 -4,4"/>
<!-- Node1 -->
<g id="node1" class="node"><title>Node1</title>
<polygon fill="#bfbfbf" stroke="black" points="3,-0.5 3,-19.5 101,-19.5 101,-0.5 3,-0.5"/>
<text text-anchor="middle" x="52" y="-7.5" font-family="Helvetica,sans-Serif" font-size="10.00">infra::AsHexHelper</text>
</g>
<!-- Node2 -->
<g id="node2" class="node"><title>Node2</title>
<g id="a_node2"><a xlink:href="../../d0/d6d/classinfra_1_1_memory_range.html" target="_top" xlink:title="infra::MemoryRange\l\&lt; const uint8_t \&gt;">
<polygon fill="white" stroke="black" points="0,-67.5 0,-97.5 104,-97.5 104,-67.5 0,-67.5"/>
<text text-anchor="start" x="8" y="-85.5" font-family="Helvetica,sans-Serif" font-size="10.00">infra::MemoryRange</text>
<text text-anchor="middle" x="52" y="-74.5" font-family="Helvetica,sans-Serif" font-size="10.00">&lt; const uint8_t &gt;</text>
</a>
</g>
</g>
<!-- Node2&#45;&gt;Node1 -->
<g id="edge1" class="edge"><title>Node2&#45;&gt;Node1</title>
<path fill="none" stroke="#9a32cd" stroke-dasharray="5,2" d="M52,-57.0913C52,-44.2136 52,-29.1974 52,-19.8932"/>
<polygon fill="#9a32cd" stroke="#9a32cd" points="48.5001,-57.2332 52,-67.2333 55.5001,-57.2333 48.5001,-57.2332"/>
<text text-anchor="middle" x="63" y="-41" font-family="Helvetica,sans-Serif" font-size="10.00"> data</text>
</g>
<!-- Node3 -->
<g id="node3" class="node"><title>Node3</title>
<polygon fill="white" stroke="#bfbfbf" points="12,-156.5 12,-175.5 92,-175.5 92,-156.5 12,-156.5"/>
<text text-anchor="middle" x="52" y="-163.5" font-family="Helvetica,sans-Serif" font-size="10.00">const uint8_t *</text>
</g>
<!-- Node3&#45;&gt;Node2 -->
<g id="edge2" class="edge"><title>Node3&#45;&gt;Node2</title>
<path fill="none" stroke="#9a32cd" stroke-dasharray="5,2" d="M52,-146.229C52,-131.408 52,-111.051 52,-97.5974"/>
<polygon fill="#9a32cd" stroke="#9a32cd" points="48.5001,-146.278 52,-156.278 55.5001,-146.278 48.5001,-146.278"/>
<text text-anchor="middle" x="83.5" y="-130" font-family="Helvetica,sans-Serif" font-size="10.00"> beginElement</text>
<text text-anchor="middle" x="83.5" y="-119" font-family="Helvetica,sans-Serif" font-size="10.00">endElement</text>
</g>
</g>
</svg>
