<?xml version="1.0" encoding="UTF-8" standalone="no"?>
<!DOCTYPE svg PUBLIC "-//W3C//DTD SVG 1.1//EN"
 "http://www.w3.org/Graphics/SVG/1.1/DTD/svg11.dtd">
<!-- Generated by graphviz version 2.38.0 (20140413.2041)
 -->
<!-- Title: infra::EventDispatcherWithWeakPtrWorker::Schedule Pages: 1 -->
<svg width="518pt" height="39pt"
 viewBox="0.00 0.00 518.00 39.00" xmlns="http://www.w3.org/2000/svg" xmlns:xlink="http://www.w3.org/1999/xlink">
<g id="graph0" class="graph" transform="scale(1 1) rotate(0) translate(4 35)">
<title>infra::EventDispatcherWithWeakPtrWorker::Schedule</title>
<polygon fill="white" stroke="none" points="-4,4 -4,-35 514,-35 514,4 -4,4"/>
<!-- Node89 -->
<g id="node1" class="node"><title>Node89</title>
<polygon fill="#bfbfbf" stroke="black" points="0,-0.5 0,-30.5 133,-30.5 133,-0.5 0,-0.5"/>
<text text-anchor="start" x="8" y="-18.5" font-family="Helvetica,sans-Serif" font-size="10.00">infra::EventDispatcherWith</text>
<text text-anchor="middle" x="66.5" y="-7.5" font-family="Helvetica,sans-Serif" font-size="10.00">WeakPtrWorker::Schedule</text>
</g>
<!-- Node90 -->
<g id="node2" class="node"><title>Node90</title>
<g id="a_node2"><a xlink:href="../../de/d88/classinfra_1_1_event_dispatcher_with_weak_ptr_worker.html#a0444150202eeeeb51399634d6e24b13b" target="_top" xlink:title="infra::EventDispatcherWith\lWeakPtrWorker::Schedule">
<polygon fill="white" stroke="black" points="169,-0.5 169,-30.5 302,-30.5 302,-0.5 169,-0.5"/>
<text text-anchor="start" x="177" y="-18.5" font-family="Helvetica,sans-Serif" font-size="10.00">infra::EventDispatcherWith</text>
<text text-anchor="middle" x="235.5" y="-7.5" font-family="Helvetica,sans-Serif" font-size="10.00">WeakPtrWorker::Schedule</text>
</a>
</g>
</g>
<!-- Node89&#45;&gt;Node90 -->
<g id="edge1" class="edge"><title>Node89&#45;&gt;Node90</title>
<path fill="none" stroke="midnightblue" d="M133.024,-15.5C141.496,-15.5 150.228,-15.5 158.847,-15.5"/>
<polygon fill="midnightblue" stroke="midnightblue" points="158.891,-19.0001 168.891,-15.5 158.891,-12.0001 158.891,-19.0001"/>
</g>
<!-- Node91 -->
<g id="node3" class="node"><title>Node91</title>
<g id="a_node3"><a xlink:href="../../de/d88/classinfra_1_1_event_dispatcher_with_weak_ptr_worker.html#ac68250c0670ca6c8c2bfadb6cdbadff7" target="_top" xlink:title="infra::EventDispatcherWith\lWeakPtrWorker::RequestExecution">
<polygon fill="white" stroke="black" points="338,-0.5 338,-30.5 510,-30.5 510,-0.5 338,-0.5"/>
<text text-anchor="start" x="346" y="-18.5" font-family="Helvetica,sans-Serif" font-size="10.00">infra::EventDispatcherWith</text>
<text text-anchor="middle" x="424" y="-7.5" font-family="Helvetica,sans-Serif" font-size="10.00">WeakPtrWorker::RequestExecution</text>
</a>
</g>
</g>
<!-- Node90&#45;&gt;Node91 -->
<g id="edge2" class="edge"><title>Node90&#45;&gt;Node91</title>
<path fill="none" stroke="midnightblue" d="M302.253,-15.5C310.544,-15.5 319.154,-15.5 327.787,-15.5"/>
<polygon fill="midnightblue" stroke="midnightblue" points="327.913,-19.0001 337.913,-15.5 327.913,-12.0001 327.913,-19.0001"/>
</g>
</g>
</svg>
