<?xml version="1.0" encoding="UTF-8" standalone="no"?>
<!DOCTYPE svg PUBLIC "-//W3C//DTD SVG 1.1//EN"
 "http://www.w3.org/Graphics/SVG/1.1/DTD/svg11.dtd">
<!-- Generated by graphviz version 2.38.0 (20140413.2041)
 -->
<!-- Title: infra::EventDispatcherWithWeakPtrWorker::RequestExecution Pages: 1 -->
<svg width="1024pt" height="627pt"
 viewBox="0.00 0.00 1024.00 627.00" xmlns="http://www.w3.org/2000/svg" xmlns:xlink="http://www.w3.org/1999/xlink">
<g id="graph0" class="graph" transform="scale(1 1) rotate(0) translate(4 623)">
<title>infra::EventDispatcherWithWeakPtrWorker::RequestExecution</title>
<polygon fill="white" stroke="none" points="-4,4 -4,-623 1020,-623 1020,4 -4,4"/>
<!-- Node20 -->
<g id="node1" class="node"><title>Node20</title>
<polygon fill="#bfbfbf" stroke="black" points="0,-245.5 0,-275.5 172,-275.5 172,-245.5 0,-245.5"/>
<text text-anchor="start" x="8" y="-263.5" font-family="Helvetica,sans-Serif" font-size="10.00">infra::EventDispatcherWith</text>
<text text-anchor="middle" x="86" y="-252.5" font-family="Helvetica,sans-Serif" font-size="10.00">WeakPtrWorker::RequestExecution</text>
</g>
<!-- Node21 -->
<g id="node2" class="node"><title>Node21</title>
<g id="a_node2"><a xlink:href="../../de/d88/classinfra_1_1_event_dispatcher_with_weak_ptr_worker.html#a0444150202eeeeb51399634d6e24b13b" target="_top" xlink:title="infra::EventDispatcherWith\lWeakPtrWorker::Schedule">
<polygon fill="white" stroke="black" points="208,-245.5 208,-275.5 341,-275.5 341,-245.5 208,-245.5"/>
<text text-anchor="start" x="216" y="-263.5" font-family="Helvetica,sans-Serif" font-size="10.00">infra::EventDispatcherWith</text>
<text text-anchor="middle" x="274.5" y="-252.5" font-family="Helvetica,sans-Serif" font-size="10.00">WeakPtrWorker::Schedule</text>
</a>
</g>
</g>
<!-- Node20&#45;&gt;Node21 -->
<g id="edge1" class="edge"><title>Node20&#45;&gt;Node21</title>
<path fill="none" stroke="midnightblue" d="M182.221,-260.5C190.881,-260.5 199.517,-260.5 207.832,-260.5"/>
<polygon fill="midnightblue" stroke="midnightblue" points="182.064,-257 172.064,-260.5 182.064,-264 182.064,-257"/>
</g>
<!-- Node22 -->
<g id="node3" class="node"><title>Node22</title>
<g id="a_node3"><a xlink:href="../../de/d8b/classservices_1_1_connection_bsd.html#a929956e120d19744a36181b770ebb792" target="_top" xlink:title="services::ConnectionBsd\l::Receive">
<polygon fill="white" stroke="black" points="384,-563.5 384,-593.5 508,-593.5 508,-563.5 384,-563.5"/>
<text text-anchor="start" x="392" y="-581.5" font-family="Helvetica,sans-Serif" font-size="10.00">services::ConnectionBsd</text>
<text text-anchor="middle" x="446" y="-570.5" font-family="Helvetica,sans-Serif" font-size="10.00">::Receive</text>
</a>
</g>
</g>
<!-- Node21&#45;&gt;Node22 -->
<g id="edge2" class="edge"><title>Node21&#45;&gt;Node22</title>
<path fill="none" stroke="midnightblue" d="M279.846,-285.882C289.604,-336.804 317.239,-453.157 377,-530.5 387.426,-543.993 402.688,-555.245 416.112,-563.456"/>
<polygon fill="midnightblue" stroke="midnightblue" points="283.237,-284.971 277.981,-275.771 276.353,-286.24 283.237,-284.971"/>
</g>
<!-- Node24 -->
<g id="node5" class="node"><title>Node24</title>
<g id="a_node5"><a xlink:href="../../de/d8b/classservices_1_1_connection_bsd.html#a84b4c8304b3d1c9bb9660e5e504d7a09" target="_top" xlink:title="services::ConnectionBsd\l::TryAllocateSendStream">
<polygon fill="white" stroke="black" points="383.5,-490.5 383.5,-520.5 508.5,-520.5 508.5,-490.5 383.5,-490.5"/>
<text text-anchor="start" x="391.5" y="-508.5" font-family="Helvetica,sans-Serif" font-size="10.00">services::ConnectionBsd</text>
<text text-anchor="middle" x="446" y="-497.5" font-family="Helvetica,sans-Serif" font-size="10.00">::TryAllocateSendStream</text>
</a>
</g>
</g>
<!-- Node21&#45;&gt;Node24 -->
<g id="edge4" class="edge"><title>Node21&#45;&gt;Node24</title>
<path fill="none" stroke="midnightblue" d="M283.818,-285.181C298.091,-324.858 330.292,-403.807 377,-457.5 388.381,-470.583 404.034,-481.948 417.453,-490.33"/>
<polygon fill="midnightblue" stroke="midnightblue" points="287.044,-283.803 280.424,-275.531 280.44,-286.126 287.044,-283.803"/>
</g>
<!-- Node28 -->
<g id="node9" class="node"><title>Node28</title>
<g id="a_node9"><a xlink:href="../../de/dcb/classservices_1_1_connection_mbed_tls.html#a53639b78d992c6e48dbab1e8228d054d" target="_top" xlink:title="services::ConnectionMbed\lTls::DataReceived">
<polygon fill="white" stroke="black" points="380.5,-417.5 380.5,-447.5 511.5,-447.5 511.5,-417.5 380.5,-417.5"/>
<text text-anchor="start" x="388.5" y="-435.5" font-family="Helvetica,sans-Serif" font-size="10.00">services::ConnectionMbed</text>
<text text-anchor="middle" x="446" y="-424.5" font-family="Helvetica,sans-Serif" font-size="10.00">Tls::DataReceived</text>
</a>
</g>
</g>
<!-- Node21&#45;&gt;Node28 -->
<g id="edge8" class="edge"><title>Node21&#45;&gt;Node28</title>
<path fill="none" stroke="midnightblue" d="M292.051,-284.009C310.938,-309.954 343.559,-352.181 377,-383.5 390.488,-396.132 407.329,-408.29 420.877,-417.336"/>
<polygon fill="midnightblue" stroke="midnightblue" points="294.648,-281.626 285.965,-275.556 288.967,-285.716 294.648,-281.626"/>
</g>
<!-- Node30 -->
<g id="node11" class="node"><title>Node30</title>
<g id="a_node11"><a xlink:href="../../de/dcb/classservices_1_1_connection_mbed_tls.html#af7399ddab8fb76d87a37e8c6c9151a22" target="_top" xlink:title="services::ConnectionMbed\lTls::TryAllocateSendStream">
<polygon fill="white" stroke="black" points="377,-343.5 377,-373.5 515,-373.5 515,-343.5 377,-343.5"/>
<text text-anchor="start" x="385" y="-361.5" font-family="Helvetica,sans-Serif" font-size="10.00">services::ConnectionMbed</text>
<text text-anchor="middle" x="446" y="-350.5" font-family="Helvetica,sans-Serif" font-size="10.00">Tls::TryAllocateSendStream</text>
</a>
</g>
</g>
<!-- Node21&#45;&gt;Node30 -->
<g id="edge10" class="edge"><title>Node21&#45;&gt;Node30</title>
<path fill="none" stroke="midnightblue" d="M300.674,-282.072C320.422,-298.172 349.141,-319.832 377,-334.5 383.203,-337.766 389.947,-340.752 396.697,-343.423"/>
<polygon fill="midnightblue" stroke="midnightblue" points="302.725,-279.226 292.789,-275.549 298.263,-284.62 302.725,-279.226"/>
</g>
<!-- Node34 -->
<g id="node15" class="node"><title>Node34</title>
<g id="a_node15"><a xlink:href="../../de/dcb/classservices_1_1_connection_mbed_tls.html#a981d5a2e59a063686a3d18cba4f3bf69" target="_top" xlink:title="services::ConnectionMbed\lTls::SslSend">
<polygon fill="white" stroke="black" points="380.5,-294.5 380.5,-324.5 511.5,-324.5 511.5,-294.5 380.5,-294.5"/>
<text text-anchor="start" x="388.5" y="-312.5" font-family="Helvetica,sans-Serif" font-size="10.00">services::ConnectionMbed</text>
<text text-anchor="middle" x="446" y="-301.5" font-family="Helvetica,sans-Serif" font-size="10.00">Tls::SslSend</text>
</a>
</g>
</g>
<!-- Node21&#45;&gt;Node34 -->
<g id="edge14" class="edge"><title>Node21&#45;&gt;Node34</title>
<path fill="none" stroke="midnightblue" d="M337.399,-278.394C355.63,-283.664 375.386,-289.376 392.934,-294.448"/>
<polygon fill="midnightblue" stroke="midnightblue" points="338.317,-275.016 327.739,-275.601 336.373,-281.741 338.317,-275.016"/>
</g>
<!-- Node38 -->
<g id="node19" class="node"><title>Node38</title>
<g id="a_node19"><a xlink:href="../../de/dcb/classservices_1_1_connection_mbed_tls.html#adae626924d72ebf111bc180abe3fea3e" target="_top" xlink:title="services::ConnectionMbed\lTls::SslReceive">
<polygon fill="white" stroke="black" points="380.5,-245.5 380.5,-275.5 511.5,-275.5 511.5,-245.5 380.5,-245.5"/>
<text text-anchor="start" x="388.5" y="-263.5" font-family="Helvetica,sans-Serif" font-size="10.00">services::ConnectionMbed</text>
<text text-anchor="middle" x="446" y="-252.5" font-family="Helvetica,sans-Serif" font-size="10.00">Tls::SslReceive</text>
</a>
</g>
</g>
<!-- Node21&#45;&gt;Node38 -->
<g id="edge18" class="edge"><title>Node21&#45;&gt;Node38</title>
<path fill="none" stroke="midnightblue" d="M351.152,-260.5C360.941,-260.5 370.893,-260.5 380.478,-260.5"/>
<polygon fill="midnightblue" stroke="midnightblue" points="351.033,-257 341.033,-260.5 351.033,-264 351.033,-257"/>
</g>
<!-- Node40 -->
<g id="node21" class="node"><title>Node40</title>
<g id="a_node21"><a xlink:href="../../db/d8b/classservices_1_1_connection_win.html#a2d66c7f029d043a14f183c35e40ac89e" target="_top" xlink:title="services::ConnectionWin\l::Receive">
<polygon fill="white" stroke="black" points="384,-196.5 384,-226.5 508,-226.5 508,-196.5 384,-196.5"/>
<text text-anchor="start" x="392" y="-214.5" font-family="Helvetica,sans-Serif" font-size="10.00">services::ConnectionWin</text>
<text text-anchor="middle" x="446" y="-203.5" font-family="Helvetica,sans-Serif" font-size="10.00">::Receive</text>
</a>
</g>
</g>
<!-- Node21&#45;&gt;Node40 -->
<g id="edge21" class="edge"><title>Node21&#45;&gt;Node40</title>
<path fill="none" stroke="midnightblue" d="M337.399,-242.606C355.63,-237.336 375.386,-231.624 392.934,-226.552"/>
<polygon fill="midnightblue" stroke="midnightblue" points="336.373,-239.259 327.739,-245.399 338.317,-245.984 336.373,-239.259"/>
</g>
<!-- Node42 -->
<g id="node23" class="node"><title>Node42</title>
<g id="a_node23"><a xlink:href="../../db/d8b/classservices_1_1_connection_win.html#a472c673e00b1003c63354b7ce040e2e7" target="_top" xlink:title="services::ConnectionWin\l::TryAllocateSendStream">
<polygon fill="white" stroke="black" points="383.5,-147.5 383.5,-177.5 508.5,-177.5 508.5,-147.5 383.5,-147.5"/>
<text text-anchor="start" x="391.5" y="-165.5" font-family="Helvetica,sans-Serif" font-size="10.00">services::ConnectionWin</text>
<text text-anchor="middle" x="446" y="-154.5" font-family="Helvetica,sans-Serif" font-size="10.00">::TryAllocateSendStream</text>
</a>
</g>
</g>
<!-- Node21&#45;&gt;Node42 -->
<g id="edge23" class="edge"><title>Node21&#45;&gt;Node42</title>
<path fill="none" stroke="midnightblue" d="M301.137,-239.057C320.926,-223.271 349.487,-202.101 377,-187.5 383.888,-183.844 391.429,-180.493 398.901,-177.513"/>
<polygon fill="midnightblue" stroke="midnightblue" points="298.796,-236.448 293.221,-245.458 303.198,-241.891 298.796,-236.448"/>
</g>
<!-- Node46 -->
<g id="node27" class="node"><title>Node46</title>
<g id="a_node27"><a xlink:href="../../d1/d3f/classservices_1_1_datagram_bsd.html#a322e28368f3a84ed935cd5512a6149ef" target="_top" xlink:title="services::DatagramBsd\l::TryAllocateSendStream">
<polygon fill="white" stroke="black" points="383.5,-98.5 383.5,-128.5 508.5,-128.5 508.5,-98.5 383.5,-98.5"/>
<text text-anchor="start" x="391.5" y="-116.5" font-family="Helvetica,sans-Serif" font-size="10.00">services::DatagramBsd</text>
<text text-anchor="middle" x="446" y="-105.5" font-family="Helvetica,sans-Serif" font-size="10.00">::TryAllocateSendStream</text>
</a>
</g>
</g>
<!-- Node21&#45;&gt;Node46 -->
<g id="edge27" class="edge"><title>Node21&#45;&gt;Node46</title>
<path fill="none" stroke="midnightblue" d="M289.442,-236.781C306.736,-209.275 338.673,-164.293 377,-137.5 381.823,-134.129 387.166,-131.187 392.678,-128.629"/>
<polygon fill="midnightblue" stroke="midnightblue" points="286.406,-235.035 284.15,-245.387 292.369,-238.702 286.406,-235.035"/>
</g>
<!-- Node48 -->
<g id="node29" class="node"><title>Node48</title>
<g id="a_node29"><a xlink:href="../../d2/d7b/classservices_1_1_datagram_win.html#af5ab8d7a9109b07bc8a2d67730d96ee7" target="_top" xlink:title="services::DatagramWin\l::TryAllocateSendStream">
<polygon fill="white" stroke="black" points="383.5,-49.5 383.5,-79.5 508.5,-79.5 508.5,-49.5 383.5,-49.5"/>
<text text-anchor="start" x="391.5" y="-67.5" font-family="Helvetica,sans-Serif" font-size="10.00">services::DatagramWin</text>
<text text-anchor="middle" x="446" y="-56.5" font-family="Helvetica,sans-Serif" font-size="10.00">::TryAllocateSendStream</text>
</a>
</g>
</g>
<!-- Node21&#45;&gt;Node48 -->
<g id="edge29" class="edge"><title>Node21&#45;&gt;Node48</title>
<path fill="none" stroke="midnightblue" d="M283.745,-235.961C297.407,-198.888 328.175,-128.673 377,-88.5 381.157,-85.0796 385.836,-82.1312 390.744,-79.5926"/>
<polygon fill="midnightblue" stroke="midnightblue" points="280.41,-234.892 280.344,-245.486 287.003,-237.245 280.41,-234.892"/>
</g>
<!-- Node50 -->
<g id="node31" class="node"><title>Node50</title>
<g id="a_node31"><a xlink:href="../../de/d88/classinfra_1_1_event_dispatcher_with_weak_ptr_worker.html#a30d9c2cc344ae687274b1b6ab10c8173" target="_top" xlink:title="infra::EventDispatcherWith\lWeakPtrWorker::Schedule">
<polygon fill="white" stroke="black" points="379.5,-0.5 379.5,-30.5 512.5,-30.5 512.5,-0.5 379.5,-0.5"/>
<text text-anchor="start" x="387.5" y="-18.5" font-family="Helvetica,sans-Serif" font-size="10.00">infra::EventDispatcherWith</text>
<text text-anchor="middle" x="446" y="-7.5" font-family="Helvetica,sans-Serif" font-size="10.00">WeakPtrWorker::Schedule</text>
</a>
</g>
</g>
<!-- Node21&#45;&gt;Node50 -->
<g id="edge31" class="edge"><title>Node21&#45;&gt;Node50</title>
<path fill="none" stroke="midnightblue" d="M280.261,-235.63C290.203,-190.302 317.382,-93.9122 377,-39.5 380.791,-36.0398 385.112,-33.0723 389.696,-30.5286"/>
<polygon fill="midnightblue" stroke="midnightblue" points="276.818,-234.994 278.194,-245.5 283.669,-236.429 276.818,-234.994"/>
</g>
<!-- Node23 -->
<g id="node4" class="node"><title>Node23</title>
<g id="a_node4"><a xlink:href="../../de/d8b/classservices_1_1_connection_bsd.html#a99c9de1c7a44deec022efdb1bb12f5e3" target="_top" xlink:title="services::ConnectionBsd\l::ConnectionBsd">
<polygon fill="white" stroke="black" points="554.5,-588.5 554.5,-618.5 678.5,-618.5 678.5,-588.5 554.5,-588.5"/>
<text text-anchor="start" x="562.5" y="-606.5" font-family="Helvetica,sans-Serif" font-size="10.00">services::ConnectionBsd</text>
<text text-anchor="middle" x="616.5" y="-595.5" font-family="Helvetica,sans-Serif" font-size="10.00">::ConnectionBsd</text>
</a>
</g>
</g>
<!-- Node22&#45;&gt;Node23 -->
<g id="edge3" class="edge"><title>Node22&#45;&gt;Node23</title>
<path fill="none" stroke="midnightblue" d="M518.256,-589.072C530.223,-590.848 542.55,-592.676 554.237,-594.41"/>
<polygon fill="midnightblue" stroke="midnightblue" points="518.714,-585.602 508.309,-587.596 517.687,-592.526 518.714,-585.602"/>
</g>
<!-- Node25 -->
<g id="node6" class="node"><title>Node25</title>
<g id="a_node6"><a xlink:href="../../de/d8b/classservices_1_1_connection_bsd.html#a2fd659c8bb86c113759c84c6de5ffd11" target="_top" xlink:title="services::ConnectionBsd\l::RequestSendStream">
<polygon fill="white" stroke="black" points="554.5,-539.5 554.5,-569.5 678.5,-569.5 678.5,-539.5 554.5,-539.5"/>
<text text-anchor="start" x="562.5" y="-557.5" font-family="Helvetica,sans-Serif" font-size="10.00">services::ConnectionBsd</text>
<text text-anchor="middle" x="616.5" y="-546.5" font-family="Helvetica,sans-Serif" font-size="10.00">::RequestSendStream</text>
</a>
</g>
</g>
<!-- Node24&#45;&gt;Node25 -->
<g id="edge5" class="edge"><title>Node24&#45;&gt;Node25</title>
<path fill="none" stroke="midnightblue" d="M508.534,-523.394C526.657,-528.664 546.296,-534.376 563.741,-539.448"/>
<polygon fill="midnightblue" stroke="midnightblue" points="509.51,-520.033 498.93,-520.601 507.555,-526.755 509.51,-520.033"/>
</g>
<!-- Node26 -->
<g id="node7" class="node"><title>Node26</title>
<g id="a_node7"><a xlink:href="../../de/d8b/classservices_1_1_connection_bsd.html#abd0d4817f9fbeb070f1fe89332f33d0f" target="_top" xlink:title="services::ConnectionBsd\l::Send">
<polygon fill="white" stroke="black" points="554.5,-490.5 554.5,-520.5 678.5,-520.5 678.5,-490.5 554.5,-490.5"/>
<text text-anchor="start" x="562.5" y="-508.5" font-family="Helvetica,sans-Serif" font-size="10.00">services::ConnectionBsd</text>
<text text-anchor="middle" x="616.5" y="-497.5" font-family="Helvetica,sans-Serif" font-size="10.00">::Send</text>
</a>
</g>
</g>
<!-- Node24&#45;&gt;Node26 -->
<g id="edge6" class="edge"><title>Node24&#45;&gt;Node26</title>
<path fill="none" stroke="midnightblue" d="M519.004,-505.5C530.753,-505.5 542.826,-505.5 554.284,-505.5"/>
<polygon fill="midnightblue" stroke="midnightblue" points="518.786,-502 508.786,-505.5 518.786,-509 518.786,-502"/>
</g>
<!-- Node27 -->
<g id="node8" class="node"><title>Node27</title>
<g id="a_node8"><a xlink:href="../../de/d8b/classservices_1_1_connection_bsd.html#ae7929b686931d7def6a1d13821958d0a" target="_top" xlink:title="services::ConnectionBsd\l::TrySend">
<polygon fill="white" stroke="black" points="721.5,-490.5 721.5,-520.5 845.5,-520.5 845.5,-490.5 721.5,-490.5"/>
<text text-anchor="start" x="729.5" y="-508.5" font-family="Helvetica,sans-Serif" font-size="10.00">services::ConnectionBsd</text>
<text text-anchor="middle" x="783.5" y="-497.5" font-family="Helvetica,sans-Serif" font-size="10.00">::TrySend</text>
</a>
</g>
</g>
<!-- Node26&#45;&gt;Node27 -->
<g id="edge7" class="edge"><title>Node26&#45;&gt;Node27</title>
<path fill="none" stroke="midnightblue" d="M689.117,-505.5C699.837,-505.5 710.806,-505.5 721.284,-505.5"/>
<polygon fill="midnightblue" stroke="midnightblue" points="688.94,-502 678.94,-505.5 688.94,-509 688.94,-502"/>
</g>
<!-- Node29 -->
<g id="node10" class="node"><title>Node29</title>
<g id="a_node10"><a xlink:href="../../de/dcb/classservices_1_1_connection_mbed_tls.html#a68236d63ecd3cacd23fd95bf9c17d70f" target="_top" xlink:title="services::ConnectionMbed\lTls::AckReceived">
<polygon fill="white" stroke="black" points="551,-441.5 551,-471.5 682,-471.5 682,-441.5 551,-441.5"/>
<text text-anchor="start" x="559" y="-459.5" font-family="Helvetica,sans-Serif" font-size="10.00">services::ConnectionMbed</text>
<text text-anchor="middle" x="616.5" y="-448.5" font-family="Helvetica,sans-Serif" font-size="10.00">Tls::AckReceived</text>
</a>
</g>
</g>
<!-- Node28&#45;&gt;Node29 -->
<g id="edge9" class="edge"><title>Node28&#45;&gt;Node29</title>
<path fill="none" stroke="midnightblue" d="M521.676,-443.136C531.363,-444.516 541.222,-445.92 550.73,-447.275"/>
<polygon fill="midnightblue" stroke="midnightblue" points="522.058,-439.656 511.665,-441.71 521.071,-446.586 522.058,-439.656"/>
</g>
<!-- Node31 -->
<g id="node12" class="node"><title>Node31</title>
<g id="a_node12"><a xlink:href="../../de/dcb/classservices_1_1_connection_mbed_tls.html#a30a4daddad21fd4712f72f7ade7a0b00" target="_top" xlink:title="services::ConnectionMbed\lTls::RequestSendStream">
<polygon fill="white" stroke="black" points="551,-392.5 551,-422.5 682,-422.5 682,-392.5 551,-392.5"/>
<text text-anchor="start" x="559" y="-410.5" font-family="Helvetica,sans-Serif" font-size="10.00">services::ConnectionMbed</text>
<text text-anchor="middle" x="616.5" y="-399.5" font-family="Helvetica,sans-Serif" font-size="10.00">Tls::RequestSendStream</text>
</a>
</g>
</g>
<!-- Node30&#45;&gt;Node31 -->
<g id="edge11" class="edge"><title>Node30&#45;&gt;Node31</title>
<path fill="none" stroke="midnightblue" d="M508.534,-376.394C526.657,-381.664 546.296,-387.376 563.741,-392.448"/>
<polygon fill="midnightblue" stroke="midnightblue" points="509.51,-373.033 498.93,-373.601 507.555,-379.755 509.51,-373.033"/>
</g>
<!-- Node32 -->
<g id="node13" class="node"><title>Node32</title>
<g id="a_node13"><a xlink:href="../../de/dcb/classservices_1_1_connection_mbed_tls.html#a4ee3315ea0084ee8d0e8269b0e08b6ee" target="_top" xlink:title="services::ConnectionMbed\lTls::TrySend">
<polygon fill="white" stroke="black" points="551,-343.5 551,-373.5 682,-373.5 682,-343.5 551,-343.5"/>
<text text-anchor="start" x="559" y="-361.5" font-family="Helvetica,sans-Serif" font-size="10.00">services::ConnectionMbed</text>
<text text-anchor="middle" x="616.5" y="-350.5" font-family="Helvetica,sans-Serif" font-size="10.00">Tls::TrySend</text>
</a>
</g>
</g>
<!-- Node30&#45;&gt;Node32 -->
<g id="edge12" class="edge"><title>Node30&#45;&gt;Node32</title>
<path fill="none" stroke="midnightblue" d="M525.074,-358.5C533.665,-358.5 542.343,-358.5 550.746,-358.5"/>
<polygon fill="midnightblue" stroke="midnightblue" points="525.05,-355 515.05,-358.5 525.05,-362 525.05,-355"/>
</g>
<!-- Node33 -->
<g id="node14" class="node"><title>Node33</title>
<g id="a_node14"><a xlink:href="../../de/dcb/classservices_1_1_connection_mbed_tls.html#a5a3ba98e94df8c89d1f597e3d8eb3d89" target="_top" xlink:title="services::ConnectionMbed\lTls::SendStreamAvailable">
<polygon fill="white" stroke="black" points="718,-343.5 718,-373.5 849,-373.5 849,-343.5 718,-343.5"/>
<text text-anchor="start" x="726" y="-361.5" font-family="Helvetica,sans-Serif" font-size="10.00">services::ConnectionMbed</text>
<text text-anchor="middle" x="783.5" y="-350.5" font-family="Helvetica,sans-Serif" font-size="10.00">Tls::SendStreamAvailable</text>
</a>
</g>
</g>
<!-- Node32&#45;&gt;Node33 -->
<g id="edge13" class="edge"><title>Node32&#45;&gt;Node33</title>
<path fill="none" stroke="midnightblue" d="M692.239,-358.5C700.821,-358.5 709.516,-358.5 717.948,-358.5"/>
<polygon fill="midnightblue" stroke="midnightblue" points="692.239,-355 682.239,-358.5 692.239,-362 692.239,-355"/>
</g>
<!-- Node35 -->
<g id="node16" class="node"><title>Node35</title>
<g id="a_node16"><a xlink:href="../../de/dcb/classservices_1_1_connection_mbed_tls.html#a4351119743e9979e6507c4aaf5f29d80" target="_top" xlink:title="services::ConnectionMbed\lTls::StaticSslSend">
<polygon fill="white" stroke="black" points="551,-294.5 551,-324.5 682,-324.5 682,-294.5 551,-294.5"/>
<text text-anchor="start" x="559" y="-312.5" font-family="Helvetica,sans-Serif" font-size="10.00">services::ConnectionMbed</text>
<text text-anchor="middle" x="616.5" y="-301.5" font-family="Helvetica,sans-Serif" font-size="10.00">Tls::StaticSslSend</text>
</a>
</g>
</g>
<!-- Node34&#45;&gt;Node35 -->
<g id="edge15" class="edge"><title>Node34&#45;&gt;Node35</title>
<path fill="none" stroke="midnightblue" d="M521.676,-309.5C531.363,-309.5 541.222,-309.5 550.73,-309.5"/>
<polygon fill="midnightblue" stroke="midnightblue" points="521.665,-306 511.665,-309.5 521.665,-313 521.665,-306"/>
</g>
<!-- Node36 -->
<g id="node17" class="node"><title>Node36</title>
<g id="a_node17"><a xlink:href="../../de/dcb/classservices_1_1_connection_mbed_tls.html#aa57d924643b363c3f924ee74799cca91" target="_top" xlink:title="services::ConnectionMbed\lTls::InitTls">
<polygon fill="white" stroke="black" points="718,-269.5 718,-299.5 849,-299.5 849,-269.5 718,-269.5"/>
<text text-anchor="start" x="726" y="-287.5" font-family="Helvetica,sans-Serif" font-size="10.00">services::ConnectionMbed</text>
<text text-anchor="middle" x="783.5" y="-276.5" font-family="Helvetica,sans-Serif" font-size="10.00">Tls::InitTls</text>
</a>
</g>
</g>
<!-- Node35&#45;&gt;Node36 -->
<g id="edge16" class="edge"><title>Node35&#45;&gt;Node36</title>
<path fill="none" stroke="midnightblue" d="M692.239,-298.176C700.821,-296.876 709.516,-295.558 717.948,-294.281"/>
<polygon fill="midnightblue" stroke="midnightblue" points="691.602,-294.732 682.239,-299.691 692.65,-301.653 691.602,-294.732"/>
</g>
<!-- Node37 -->
<g id="node18" class="node"><title>Node37</title>
<g id="a_node18"><a xlink:href="../../de/dcb/classservices_1_1_connection_mbed_tls.html#ae5074c013c9085347e77fe1d824eff54" target="_top" xlink:title="services::ConnectionMbed\lTls::Connected">
<polygon fill="white" stroke="black" points="885,-269.5 885,-299.5 1016,-299.5 1016,-269.5 885,-269.5"/>
<text text-anchor="start" x="893" y="-287.5" font-family="Helvetica,sans-Serif" font-size="10.00">services::ConnectionMbed</text>
<text text-anchor="middle" x="950.5" y="-276.5" font-family="Helvetica,sans-Serif" font-size="10.00">Tls::Connected</text>
</a>
</g>
</g>
<!-- Node36&#45;&gt;Node37 -->
<g id="edge17" class="edge"><title>Node36&#45;&gt;Node37</title>
<path fill="none" stroke="midnightblue" d="M859.239,-284.5C867.821,-284.5 876.516,-284.5 884.948,-284.5"/>
<polygon fill="midnightblue" stroke="midnightblue" points="859.239,-281 849.239,-284.5 859.239,-288 859.239,-281"/>
</g>
<!-- Node39 -->
<g id="node20" class="node"><title>Node39</title>
<g id="a_node20"><a xlink:href="../../de/dcb/classservices_1_1_connection_mbed_tls.html#a68b47358e42e76201da62701a1b8bbfa" target="_top" xlink:title="services::ConnectionMbed\lTls::StaticSslReceive">
<polygon fill="white" stroke="black" points="551,-245.5 551,-275.5 682,-275.5 682,-245.5 551,-245.5"/>
<text text-anchor="start" x="559" y="-263.5" font-family="Helvetica,sans-Serif" font-size="10.00">services::ConnectionMbed</text>
<text text-anchor="middle" x="616.5" y="-252.5" font-family="Helvetica,sans-Serif" font-size="10.00">Tls::StaticSslReceive</text>
</a>
</g>
</g>
<!-- Node38&#45;&gt;Node39 -->
<g id="edge19" class="edge"><title>Node38&#45;&gt;Node39</title>
<path fill="none" stroke="midnightblue" d="M521.676,-260.5C531.363,-260.5 541.222,-260.5 550.73,-260.5"/>
<polygon fill="midnightblue" stroke="midnightblue" points="521.665,-257 511.665,-260.5 521.665,-264 521.665,-257"/>
</g>
<!-- Node39&#45;&gt;Node36 -->
<g id="edge20" class="edge"><title>Node39&#45;&gt;Node36</title>
<path fill="none" stroke="midnightblue" d="M692.239,-271.371C700.821,-272.619 709.516,-273.884 717.948,-275.111"/>
<polygon fill="midnightblue" stroke="midnightblue" points="692.638,-267.892 682.239,-269.917 691.631,-274.82 692.638,-267.892"/>
</g>
<!-- Node41 -->
<g id="node22" class="node"><title>Node41</title>
<g id="a_node22"><a xlink:href="../../db/d8b/classservices_1_1_connection_win.html#afa1b3bc6eca0e83e1ce0b1f607de2dfe" target="_top" xlink:title="services::ConnectionWin\l::ConnectionWin">
<polygon fill="white" stroke="black" points="554.5,-196.5 554.5,-226.5 678.5,-226.5 678.5,-196.5 554.5,-196.5"/>
<text text-anchor="start" x="562.5" y="-214.5" font-family="Helvetica,sans-Serif" font-size="10.00">services::ConnectionWin</text>
<text text-anchor="middle" x="616.5" y="-203.5" font-family="Helvetica,sans-Serif" font-size="10.00">::ConnectionWin</text>
</a>
</g>
</g>
<!-- Node40&#45;&gt;Node41 -->
<g id="edge22" class="edge"><title>Node40&#45;&gt;Node41</title>
<path fill="none" stroke="midnightblue" d="M518.615,-211.5C530.47,-211.5 542.666,-211.5 554.237,-211.5"/>
<polygon fill="midnightblue" stroke="midnightblue" points="518.309,-208 508.309,-211.5 518.309,-215 518.309,-208"/>
</g>
<!-- Node43 -->
<g id="node24" class="node"><title>Node43</title>
<g id="a_node24"><a xlink:href="../../db/d8b/classservices_1_1_connection_win.html#aba79c575abc9804543c7eb839ebd4493" target="_top" xlink:title="services::ConnectionWin\l::RequestSendStream">
<polygon fill="white" stroke="black" points="554.5,-147.5 554.5,-177.5 678.5,-177.5 678.5,-147.5 554.5,-147.5"/>
<text text-anchor="start" x="562.5" y="-165.5" font-family="Helvetica,sans-Serif" font-size="10.00">services::ConnectionWin</text>
<text text-anchor="middle" x="616.5" y="-154.5" font-family="Helvetica,sans-Serif" font-size="10.00">::RequestSendStream</text>
</a>
</g>
</g>
<!-- Node42&#45;&gt;Node43 -->
<g id="edge24" class="edge"><title>Node42&#45;&gt;Node43</title>
<path fill="none" stroke="midnightblue" d="M519.004,-162.5C530.753,-162.5 542.826,-162.5 554.284,-162.5"/>
<polygon fill="midnightblue" stroke="midnightblue" points="518.786,-159 508.786,-162.5 518.786,-166 518.786,-159"/>
</g>
<!-- Node44 -->
<g id="node25" class="node"><title>Node44</title>
<g id="a_node25"><a xlink:href="../../db/d8b/classservices_1_1_connection_win.html#aa7aa4096aa674d9d564d99c365e865f8" target="_top" xlink:title="services::ConnectionWin\l::Send">
<polygon fill="white" stroke="black" points="554.5,-98.5 554.5,-128.5 678.5,-128.5 678.5,-98.5 554.5,-98.5"/>
<text text-anchor="start" x="562.5" y="-116.5" font-family="Helvetica,sans-Serif" font-size="10.00">services::ConnectionWin</text>
<text text-anchor="middle" x="616.5" y="-105.5" font-family="Helvetica,sans-Serif" font-size="10.00">::Send</text>
</a>
</g>
</g>
<!-- Node42&#45;&gt;Node44 -->
<g id="edge25" class="edge"><title>Node42&#45;&gt;Node44</title>
<path fill="none" stroke="midnightblue" d="M508.534,-144.606C526.657,-139.336 546.296,-133.624 563.741,-128.552"/>
<polygon fill="midnightblue" stroke="midnightblue" points="507.555,-141.245 498.93,-147.399 509.51,-147.967 507.555,-141.245"/>
</g>
<!-- Node45 -->
<g id="node26" class="node"><title>Node45</title>
<g id="a_node26"><a xlink:href="../../db/d8b/classservices_1_1_connection_win.html#aad7f5b3d01110daf5b57e1c6ad734f40" target="_top" xlink:title="services::ConnectionWin\l::TrySend">
<polygon fill="white" stroke="black" points="721.5,-98.5 721.5,-128.5 845.5,-128.5 845.5,-98.5 721.5,-98.5"/>
<text text-anchor="start" x="729.5" y="-116.5" font-family="Helvetica,sans-Serif" font-size="10.00">services::ConnectionWin</text>
<text text-anchor="middle" x="783.5" y="-105.5" font-family="Helvetica,sans-Serif" font-size="10.00">::TrySend</text>
</a>
</g>
</g>
<!-- Node44&#45;&gt;Node45 -->
<g id="edge26" class="edge"><title>Node44&#45;&gt;Node45</title>
<path fill="none" stroke="midnightblue" d="M689.117,-113.5C699.837,-113.5 710.806,-113.5 721.284,-113.5"/>
<polygon fill="midnightblue" stroke="midnightblue" points="688.94,-110 678.94,-113.5 688.94,-117 688.94,-110"/>
</g>
<!-- Node47 -->
<g id="node28" class="node"><title>Node47</title>
<g id="a_node28"><a xlink:href="../../d1/d3f/classservices_1_1_datagram_bsd.html#afb0cdcc66f1f17c99237297a9fb9b7fc" target="_top" xlink:title="services::DatagramBsd\l::RequestSendStream">
<polygon fill="white" stroke="black" points="558,-49.5 558,-79.5 675,-79.5 675,-49.5 558,-49.5"/>
<text text-anchor="start" x="566" y="-67.5" font-family="Helvetica,sans-Serif" font-size="10.00">services::DatagramBsd</text>
<text text-anchor="middle" x="616.5" y="-56.5" font-family="Helvetica,sans-Serif" font-size="10.00">::RequestSendStream</text>
</a>
</g>
</g>
<!-- Node46&#45;&gt;Node47 -->
<g id="edge28" class="edge"><title>Node46&#45;&gt;Node47</title>
<path fill="none" stroke="midnightblue" d="M508.534,-95.6059C526.657,-90.3356 546.296,-84.6245 563.741,-79.5516"/>
<polygon fill="midnightblue" stroke="midnightblue" points="507.555,-92.2454 498.93,-98.3986 509.51,-98.9669 507.555,-92.2454"/>
</g>
<!-- Node49 -->
<g id="node30" class="node"><title>Node49</title>
<g id="a_node30"><a xlink:href="../../d2/d7b/classservices_1_1_datagram_win.html#a24db8b1b98bf5db7a650de7d78afbf27" target="_top" xlink:title="services::DatagramWin\l::RequestSendStream">
<polygon fill="white" stroke="black" points="558,-0.5 558,-30.5 675,-30.5 675,-0.5 558,-0.5"/>
<text text-anchor="start" x="566" y="-18.5" font-family="Helvetica,sans-Serif" font-size="10.00">services::DatagramWin</text>
<text text-anchor="middle" x="616.5" y="-7.5" font-family="Helvetica,sans-Serif" font-size="10.00">::RequestSendStream</text>
</a>
</g>
</g>
<!-- Node48&#45;&gt;Node49 -->
<g id="edge30" class="edge"><title>Node48&#45;&gt;Node49</title>
<path fill="none" stroke="midnightblue" d="M508.534,-46.6059C526.657,-41.3356 546.296,-35.6245 563.741,-30.5516"/>
<polygon fill="midnightblue" stroke="midnightblue" points="507.555,-43.2454 498.93,-49.3986 509.51,-49.9669 507.555,-43.2454"/>
</g>
</g>
</svg>
