<?xml version="1.0" encoding="UTF-8" standalone="no"?>
<!DOCTYPE svg PUBLIC "-//W3C//DTD SVG 1.1//EN"
 "http://www.w3.org/Graphics/SVG/1.1/DTD/svg11.dtd">
<!-- Generated by graphviz version 2.38.0 (20140413.2041)
 -->
<!-- Title: infra::EventDispatcherWithWeakPtrWorker::ExecuteAllActions Pages: 1 -->
<svg width="599pt" height="39pt"
 viewBox="0.00 0.00 599.00 39.00" xmlns="http://www.w3.org/2000/svg" xmlns:xlink="http://www.w3.org/1999/xlink">
<g id="graph0" class="graph" transform="scale(1 1) rotate(0) translate(4 35)">
<title>infra::EventDispatcherWithWeakPtrWorker::ExecuteAllActions</title>
<polygon fill="white" stroke="none" points="-4,4 -4,-35 595,-35 595,4 -4,4"/>
<!-- Node2 -->
<g id="node1" class="node"><title>Node2</title>
<polygon fill="#bfbfbf" stroke="black" points="0,-0.5 0,-30.5 173,-30.5 173,-0.5 0,-0.5"/>
<text text-anchor="start" x="8" y="-18.5" font-family="Helvetica,sans-Serif" font-size="10.00">infra::EventDispatcherWith</text>
<text text-anchor="middle" x="86.5" y="-7.5" font-family="Helvetica,sans-Serif" font-size="10.00">WeakPtrWorker::ExecuteAllActions</text>
</g>
<!-- Node3 -->
<g id="node2" class="node"><title>Node3</title>
<g id="a_node2"><a xlink:href="../../de/d88/classinfra_1_1_event_dispatcher_with_weak_ptr_worker.html#ab33f2adda8871c2c5eeeac0fc1c50c1b" target="_top" xlink:title="infra::EventDispatcherWith\lWeakPtrWorker::TryExecuteAction">
<polygon fill="white" stroke="black" points="209,-0.5 209,-30.5 379,-30.5 379,-0.5 209,-0.5"/>
<text text-anchor="start" x="217" y="-18.5" font-family="Helvetica,sans-Serif" font-size="10.00">infra::EventDispatcherWith</text>
<text text-anchor="middle" x="294" y="-7.5" font-family="Helvetica,sans-Serif" font-size="10.00">WeakPtrWorker::TryExecuteAction</text>
</a>
</g>
</g>
<!-- Node2&#45;&gt;Node3 -->
<g id="edge1" class="edge"><title>Node2&#45;&gt;Node3</title>
<path fill="none" stroke="midnightblue" d="M173.162,-15.5C181.54,-15.5 190.074,-15.5 198.532,-15.5"/>
<polygon fill="midnightblue" stroke="midnightblue" points="198.796,-19.0001 208.796,-15.5 198.796,-12.0001 198.796,-19.0001"/>
</g>
<!-- Node4 -->
<g id="node3" class="node"><title>Node4</title>
<g id="a_node3"><a xlink:href="../../de/d88/classinfra_1_1_event_dispatcher_with_weak_ptr_worker.html#a420e5626bbc71803408bea37f50303de" target="_top" xlink:title="infra::EventDispatcherWith\lWeakPtrWorker::ExecuteFirstAction">
<polygon fill="white" stroke="black" points="415,-0.5 415,-30.5 591,-30.5 591,-0.5 415,-0.5"/>
<text text-anchor="start" x="423" y="-18.5" font-family="Helvetica,sans-Serif" font-size="10.00">infra::EventDispatcherWith</text>
<text text-anchor="middle" x="503" y="-7.5" font-family="Helvetica,sans-Serif" font-size="10.00">WeakPtrWorker::ExecuteFirstAction</text>
</a>
</g>
</g>
<!-- Node3&#45;&gt;Node4 -->
<g id="edge2" class="edge"><title>Node3&#45;&gt;Node4</title>
<path fill="none" stroke="midnightblue" d="M379.195,-15.5C387.642,-15.5 396.267,-15.5 404.835,-15.5"/>
<polygon fill="midnightblue" stroke="midnightblue" points="404.851,-19.0001 414.851,-15.5 404.851,-12.0001 404.851,-19.0001"/>
</g>
</g>
</svg>
