<?xml version="1.0" encoding="UTF-8" standalone="no"?>
<!DOCTYPE svg PUBLIC "-//W3C//DTD SVG 1.1//EN"
 "http://www.w3.org/Graphics/SVG/1.1/DTD/svg11.dtd">
<!-- Generated by graphviz version 2.38.0 (20140413.2041)
 -->
<!-- Title: services::HttpClientJson Pages: 1 -->
<svg width="641pt" height="110pt"
 viewBox="0.00 0.00 641.00 110.00" xmlns="http://www.w3.org/2000/svg" xmlns:xlink="http://www.w3.org/1999/xlink">
<g id="graph0" class="graph" transform="scale(1 1) rotate(0) translate(4 106)">
<title>services::HttpClientJson</title>
<polygon fill="white" stroke="none" points="-4,4 -4,-106 637,-106 637,4 -4,4"/>
<!-- Node0 -->
<g id="node1" class="node"><title>Node0</title>
<polygon fill="#bfbfbf" stroke="black" points="512,-43.5 512,-62.5 633,-62.5 633,-43.5 512,-43.5"/>
<text text-anchor="middle" x="572.5" y="-50.5" font-family="Helvetica,sans-Serif" font-size="10.00">services::HttpClientJson</text>
</g>
<!-- Node1 -->
<g id="node2" class="node"><title>Node1</title>
<g id="a_node2"><a xlink:href="../../db/dae/classservices_1_1_http_client_basic.html" target="_top" xlink:title="services::HttpClientBasic">
<polygon fill="white" stroke="black" points="351,-43.5 351,-62.5 476,-62.5 476,-43.5 351,-43.5"/>
<text text-anchor="middle" x="413.5" y="-50.5" font-family="Helvetica,sans-Serif" font-size="10.00">services::HttpClientBasic</text>
</a>
</g>
</g>
<!-- Node1&#45;&gt;Node0 -->
<g id="edge1" class="edge"><title>Node1&#45;&gt;Node0</title>
<path fill="none" stroke="darkgreen" d="M486.131,-53C494.742,-53 503.463,-53 511.877,-53"/>
<polygon fill="darkgreen" stroke="darkgreen" points="486.1,-49.5001 476.1,-53 486.1,-56.5001 486.1,-49.5001"/>
</g>
<!-- Node2 -->
<g id="node3" class="node"><title>Node2</title>
<g id="a_node3"><a xlink:href="../../d3/db1/classservices_1_1_http_client_observer.html" target="_top" xlink:title="services::HttpClientObserver">
<polygon fill="white" stroke="black" points="176,-67.5 176,-86.5 315,-86.5 315,-67.5 176,-67.5"/>
<text text-anchor="middle" x="245.5" y="-74.5" font-family="Helvetica,sans-Serif" font-size="10.00">services::HttpClientObserver</text>
</a>
</g>
</g>
<!-- Node2&#45;&gt;Node1 -->
<g id="edge2" class="edge"><title>Node2&#45;&gt;Node1</title>
<path fill="none" stroke="darkgreen" d="M322.764,-65.9739C332.209,-64.6083 341.771,-63.2259 350.957,-61.8978"/>
<polygon fill="darkgreen" stroke="darkgreen" points="321.981,-62.5506 312.585,-67.4456 322.983,-69.4786 321.981,-62.5506"/>
</g>
<!-- Node3 -->
<g id="node4" class="node"><title>Node3</title>
<g id="a_node4"><a xlink:href="../../dc/d4c/classinfra_1_1_single_observer.html" target="_top" xlink:title="infra::SingleObserver\l\&lt; HttpClientObserver,\l HttpClient \&gt;">
<polygon fill="white" stroke="black" points="15,-60.5 15,-101.5 125,-101.5 125,-60.5 15,-60.5"/>
<text text-anchor="start" x="23" y="-89.5" font-family="Helvetica,sans-Serif" font-size="10.00">infra::SingleObserver</text>
<text text-anchor="start" x="23" y="-78.5" font-family="Helvetica,sans-Serif" font-size="10.00">&lt; HttpClientObserver,</text>
<text text-anchor="middle" x="70" y="-67.5" font-family="Helvetica,sans-Serif" font-size="10.00"> HttpClient &gt;</text>
</a>
</g>
</g>
<!-- Node3&#45;&gt;Node2 -->
<g id="edge3" class="edge"><title>Node3&#45;&gt;Node2</title>
<path fill="none" stroke="midnightblue" d="M135.749,-79.5072C148.851,-79.2052 162.669,-78.8866 175.898,-78.5816"/>
<polygon fill="midnightblue" stroke="midnightblue" points="135.337,-76.0157 125.42,-79.7453 135.498,-83.0138 135.337,-76.0157"/>
</g>
<!-- Node4 -->
<g id="node5" class="node"><title>Node4</title>
<g id="a_node5"><a xlink:href="../../d9/d25/classservices_1_1_http_client_observer_factory.html" target="_top" xlink:title="services::HttpClientObserver\lFactory">
<polygon fill="white" stroke="black" points="176,-14 176,-44 315,-44 315,-14 176,-14"/>
<text text-anchor="start" x="184" y="-32" font-family="Helvetica,sans-Serif" font-size="10.00">services::HttpClientObserver</text>
<text text-anchor="middle" x="245.5" y="-21" font-family="Helvetica,sans-Serif" font-size="10.00">Factory</text>
</a>
</g>
</g>
<!-- Node4&#45;&gt;Node1 -->
<g id="edge4" class="edge"><title>Node4&#45;&gt;Node1</title>
<path fill="none" stroke="#8b1a1a" d="M325.448,-40.4142C334,-41.6506 342.61,-42.8954 350.913,-44.0958"/>
<polygon fill="#8b1a1a" stroke="#8b1a1a" points="325.855,-36.9367 315.457,-38.9697 324.853,-43.8646 325.855,-36.9367"/>
</g>
<!-- Node5 -->
<g id="node6" class="node"><title>Node5</title>
<g id="a_node6"><a xlink:href="../../d7/da5/classinfra_1_1detail_1_1_intrusive_list_node.html" target="_top" xlink:title="infra::IntrusiveList\l\&lt; HttpClientObserverFactory\l \&gt;::NodeType">
<polygon fill="white" stroke="black" points="0,-0.5 0,-41.5 140,-41.5 140,-0.5 0,-0.5"/>
<text text-anchor="start" x="8" y="-29.5" font-family="Helvetica,sans-Serif" font-size="10.00">infra::IntrusiveList</text>
<text text-anchor="start" x="8" y="-18.5" font-family="Helvetica,sans-Serif" font-size="10.00">&lt; HttpClientObserverFactory</text>
<text text-anchor="middle" x="70" y="-7.5" font-family="Helvetica,sans-Serif" font-size="10.00"> &gt;::NodeType</text>
</a>
</g>
</g>
<!-- Node5&#45;&gt;Node4 -->
<g id="edge5" class="edge"><title>Node5&#45;&gt;Node4</title>
<path fill="none" stroke="midnightblue" d="M150.125,-24.6484C158.747,-25.046 167.47,-25.4482 175.951,-25.8392"/>
<polygon fill="midnightblue" stroke="midnightblue" points="150.221,-21.1492 140.07,-24.1848 149.898,-28.1418 150.221,-21.1492"/>
</g>
</g>
</svg>
