<?xml version="1.0" encoding="UTF-8" standalone="no"?>
<!DOCTYPE svg PUBLIC "-//W3C//DTD SVG 1.1//EN"
 "http://www.w3.org/Graphics/SVG/1.1/DTD/svg11.dtd">
<!-- Generated by graphviz version 2.38.0 (20140413.2041)
 -->
<!-- Title: services::AllocatorTracingConnectionMbedTlsAdapter::Allocate Pages: 1 -->
<svg width="460pt" height="78pt"
 viewBox="0.00 0.00 460.00 77.50" xmlns="http://www.w3.org/2000/svg" xmlns:xlink="http://www.w3.org/1999/xlink">
<g id="graph0" class="graph" transform="scale(1 1) rotate(0) translate(4 73.5)">
<title>services::AllocatorTracingConnectionMbedTlsAdapter::Allocate</title>
<polygon fill="white" stroke="none" points="-4,4 -4,-73.5 456,-73.5 456,4 -4,4"/>
<!-- Node5 -->
<g id="node1" class="node"><title>Node5</title>
<polygon fill="#bfbfbf" stroke="black" points="0,-11.5 0,-52.5 136,-52.5 136,-11.5 0,-11.5"/>
<text text-anchor="start" x="8" y="-40.5" font-family="Helvetica,sans-Serif" font-size="10.00">services::AllocatorTracing</text>
<text text-anchor="start" x="8" y="-29.5" font-family="Helvetica,sans-Serif" font-size="10.00">ConnectionMbedTlsAdapter</text>
<text text-anchor="middle" x="68" y="-18.5" font-family="Helvetica,sans-Serif" font-size="10.00">::Allocate</text>
</g>
<!-- Node6 -->
<g id="node2" class="node"><title>Node6</title>
<g id="a_node2"><a xlink:href="../../dc/d42/classservices_1_1_tracer.html#a25248c7fb378a73f189defd30a4593f2" target="_top" xlink:title="services::Tracer::Trace">
<polygon fill="white" stroke="black" points="172,-22.5 172,-41.5 287,-41.5 287,-22.5 172,-22.5"/>
<text text-anchor="middle" x="229.5" y="-29.5" font-family="Helvetica,sans-Serif" font-size="10.00">services::Tracer::Trace</text>
</a>
</g>
</g>
<!-- Node5&#45;&gt;Node6 -->
<g id="edge1" class="edge"><title>Node5&#45;&gt;Node6</title>
<path fill="none" stroke="midnightblue" d="M136.18,-32C144.654,-32 153.322,-32 161.788,-32"/>
<polygon fill="midnightblue" stroke="midnightblue" points="161.989,-35.5001 171.989,-32 161.989,-28.5001 161.989,-35.5001"/>
</g>
<!-- Node7 -->
<g id="node3" class="node"><title>Node7</title>
<g id="a_node3"><a xlink:href="../../dc/d42/classservices_1_1_tracer.html#a38963ac748f455f5439fd9e312273588" target="_top" xlink:title="services::Tracer::Insert\lHeader">
<polygon fill="white" stroke="black" points="330,-39 330,-69 445,-69 445,-39 330,-39"/>
<text text-anchor="start" x="338" y="-57" font-family="Helvetica,sans-Serif" font-size="10.00">services::Tracer::Insert</text>
<text text-anchor="middle" x="387.5" y="-46" font-family="Helvetica,sans-Serif" font-size="10.00">Header</text>
</a>
</g>
</g>
<!-- Node6&#45;&gt;Node7 -->
<g id="edge2" class="edge"><title>Node6&#45;&gt;Node7</title>
<path fill="none" stroke="midnightblue" d="M287.261,-40.0047C297.758,-41.4851 308.81,-43.0438 319.576,-44.5619"/>
<polygon fill="midnightblue" stroke="midnightblue" points="319.391,-48.0704 329.781,-46.0012 320.368,-41.139 319.391,-48.0704"/>
</g>
<!-- Node8 -->
<g id="node4" class="node"><title>Node8</title>
<g id="a_node4"><a xlink:href="../../dc/d42/classservices_1_1_tracer.html#a9bbd41af2cd3049df3e56fe63ebad051" target="_top" xlink:title="services::Tracer::Continue">
<polygon fill="white" stroke="black" points="323,-0.5 323,-19.5 452,-19.5 452,-0.5 323,-0.5"/>
<text text-anchor="middle" x="387.5" y="-7.5" font-family="Helvetica,sans-Serif" font-size="10.00">services::Tracer::Continue</text>
</a>
</g>
</g>
<!-- Node6&#45;&gt;Node8 -->
<g id="edge3" class="edge"><title>Node6&#45;&gt;Node8</title>
<path fill="none" stroke="midnightblue" d="M287.261,-23.9953C295.589,-22.8208 304.266,-21.5971 312.873,-20.3833"/>
<polygon fill="midnightblue" stroke="midnightblue" points="313.505,-23.8289 322.918,-18.9667 312.527,-16.8975 313.505,-23.8289"/>
</g>
</g>
</svg>
