<?xml version="1.0" encoding="UTF-8" standalone="no"?>
<!DOCTYPE svg PUBLIC "-//W3C//DTD SVG 1.1//EN"
 "http://www.w3.org/Graphics/SVG/1.1/DTD/svg11.dtd">
<!-- Generated by graphviz version 2.38.0 (20140413.2041)
 -->
<!-- Title: services::FlashRegion::WriteBuffer Pages: 1 -->
<svg width="445pt" height="127pt"
 viewBox="0.00 0.00 445.00 126.50" xmlns="http://www.w3.org/2000/svg" xmlns:xlink="http://www.w3.org/1999/xlink">
<g id="graph0" class="graph" transform="scale(1 1) rotate(0) translate(4 122.5)">
<title>services::FlashRegion::WriteBuffer</title>
<polygon fill="white" stroke="none" points="-4,4 -4,-122.5 441,-122.5 441,4 -4,4"/>
<!-- Node27 -->
<g id="node1" class="node"><title>Node27</title>
<polygon fill="#bfbfbf" stroke="black" points="0,-39 0,-69 112,-69 112,-39 0,-39"/>
<text text-anchor="start" x="8" y="-57" font-family="Helvetica,sans-Serif" font-size="10.00">services::FlashRegion</text>
<text text-anchor="middle" x="56" y="-46" font-family="Helvetica,sans-Serif" font-size="10.00">::WriteBuffer</text>
</g>
<!-- Node28 -->
<g id="node2" class="node"><title>Node28</title>
<g id="a_node2"><a xlink:href="../../d6/d25/classservices_1_1_flash_region.html#a4d72a45f48db62bc3470c62a18d88987" target="_top" xlink:title="services::FlashRegion\l::SectorOfAddress">
<polygon fill="white" stroke="black" points="148.5,-88 148.5,-118 260.5,-118 260.5,-88 148.5,-88"/>
<text text-anchor="start" x="156.5" y="-106" font-family="Helvetica,sans-Serif" font-size="10.00">services::FlashRegion</text>
<text text-anchor="middle" x="204.5" y="-95" font-family="Helvetica,sans-Serif" font-size="10.00">::SectorOfAddress</text>
</a>
</g>
</g>
<!-- Node27&#45;&gt;Node28 -->
<g id="edge1" class="edge"><title>Node27&#45;&gt;Node28</title>
<path fill="none" stroke="midnightblue" d="M102.15,-69.1014C116.84,-74.0147 133.307,-79.5224 148.627,-84.6466"/>
<polygon fill="midnightblue" stroke="midnightblue" points="147.905,-88.0956 158.499,-87.9484 150.125,-81.4571 147.905,-88.0956"/>
</g>
<!-- Node30 -->
<g id="node4" class="node"><title>Node30</title>
<g id="a_node4"><a xlink:href="../../d0/d6d/classinfra_1_1_memory_range.html#ae8fbbf531d3696b6a64ac13385acdc66" target="_top" xlink:title="infra::MemoryRange\l::size">
<polygon fill="white" stroke="black" points="152.5,-39 152.5,-69 256.5,-69 256.5,-39 152.5,-39"/>
<text text-anchor="start" x="160.5" y="-57" font-family="Helvetica,sans-Serif" font-size="10.00">infra::MemoryRange</text>
<text text-anchor="middle" x="204.5" y="-46" font-family="Helvetica,sans-Serif" font-size="10.00">::size</text>
</a>
</g>
</g>
<!-- Node27&#45;&gt;Node30 -->
<g id="edge3" class="edge"><title>Node27&#45;&gt;Node30</title>
<path fill="none" stroke="midnightblue" d="M112.385,-54C122.128,-54 132.319,-54 142.211,-54"/>
<polygon fill="midnightblue" stroke="midnightblue" points="142.38,-57.5001 152.38,-54 142.38,-50.5001 142.38,-57.5001"/>
</g>
<!-- Node31 -->
<g id="node5" class="node"><title>Node31</title>
<g id="a_node5"><a xlink:href="../../dd/d95/classhal_1_1_flash.html#afe92eb7daa1043f56eac569140d018f9" target="_top" xlink:title="hal::Flash::WriteBuffer">
<polygon fill="white" stroke="black" points="148,-0.5 148,-19.5 261,-19.5 261,-0.5 148,-0.5"/>
<text text-anchor="middle" x="204.5" y="-7.5" font-family="Helvetica,sans-Serif" font-size="10.00">hal::Flash::WriteBuffer</text>
</a>
</g>
</g>
<!-- Node27&#45;&gt;Node31 -->
<g id="edge4" class="edge"><title>Node27&#45;&gt;Node31</title>
<path fill="none" stroke="midnightblue" d="M107.007,-38.9808C124.884,-33.6115 144.822,-27.6234 161.912,-22.4905"/>
<polygon fill="midnightblue" stroke="midnightblue" points="163.038,-25.8069 171.609,-19.5783 161.025,-19.1028 163.038,-25.8069"/>
</g>
<!-- Node29 -->
<g id="node3" class="node"><title>Node29</title>
<g id="a_node3"><a xlink:href="../../dd/d95/classhal_1_1_flash.html#a8fdc674c7384cdfb555cad2201848751" target="_top" xlink:title="hal::Flash::SectorOfAddress">
<polygon fill="white" stroke="black" points="297,-93.5 297,-112.5 437,-112.5 437,-93.5 297,-93.5"/>
<text text-anchor="middle" x="367" y="-100.5" font-family="Helvetica,sans-Serif" font-size="10.00">hal::Flash::SectorOfAddress</text>
</a>
</g>
</g>
<!-- Node28&#45;&gt;Node29 -->
<g id="edge2" class="edge"><title>Node28&#45;&gt;Node29</title>
<path fill="none" stroke="midnightblue" d="M260.735,-103C269.077,-103 277.82,-103 286.551,-103"/>
<polygon fill="midnightblue" stroke="midnightblue" points="286.769,-106.5 296.769,-103 286.769,-99.5001 286.769,-106.5"/>
</g>
</g>
</svg>
