<?xml version="1.0" encoding="UTF-8" standalone="no"?>
<!DOCTYPE svg PUBLIC "-//W3C//DTD SVG 1.1//EN"
 "http://www.w3.org/Graphics/SVG/1.1/DTD/svg11.dtd">
<!-- Generated by graphviz version 2.38.0 (20140413.2041)
 -->
<!-- Title: infra::AccessedBySharedPtr Pages: 1 -->
<!--zoomable 122 -->
<svg id="main" version="1.1" xmlns="http://www.w3.org/2000/svg" xmlns:xlink="http://www.w3.org/1999/xlink" xml:space="preserve" onload="init(evt)">
<style type="text/css"><![CDATA[
.edge:hover path { stroke: red; }
.edge:hover polygon { stroke: red; fill: red; }
]]></style>
<script type="text/javascript"><![CDATA[
var edges = document.getElementsByTagName('g');
if (edges && edges.length) {
  for (var i=0;i<edges.length;i++) {
    if (edges[i].id.substr(0,4)=='edge') {
      edges[i].setAttribute('class','edge');
    }
  }
}
]]></script>
        <defs>
                <circle id="rim" cx="0" cy="0" r="7"/>
                <circle id="rim2" cx="0" cy="0" r="3.5"/>
                <g id="zoomPlus">
                        <use xlink:href="#rim" fill="#404040">
                                <set attributeName="fill" to="#808080" begin="zoomplus.mouseover" end="zoomplus.mouseout"/>
                        </use>
                        <path d="M-4,0h8M0,-4v8" fill="none" stroke="white" stroke-width="1.5" pointer-events="none"/>
                </g>
                <g id="zoomMin">
                        <use xlink:href="#rim" fill="#404040">
                                <set attributeName="fill" to="#808080" begin="zoomminus.mouseover" end="zoomminus.mouseout"/>
                        </use>
                        <path d="M-4,0h8" fill="none" stroke="white" stroke-width="1.5" pointer-events="none"/>
                </g>
                <g id="dirArrow">
                        <path fill="none" stroke="white" stroke-width="1.5" d="M0,-3.0v7 M-2.5,-0.5L0,-3.0L2.5,-0.5"/>
                </g>
               <g id="resetDef">
                       <use xlink:href="#rim2" fill="#404040">
                               <set attributeName="fill" to="#808080" begin="reset.mouseover" end="reset.mouseout"/>
                       </use>
               </g>
        </defs>

<script type="text/javascript">
var viewWidth = 610;
var viewHeight = 122;
var sectionId = 'dynsection-1';
</script>
<script xlink:href="../../svgpan.js"/>
<svg id="graph" class="graph">
<g id="viewport">
<title>infra::AccessedBySharedPtr</title>
<polygon fill="white" stroke="none" points="-4,4 -4,-118 606,-118 606,4 -4,4"/>
<!-- Node2 -->
<g id="node1" class="node"><title>Node2</title>
<polygon fill="#bfbfbf" stroke="black" points="462,-53.5 462,-72.5 602,-72.5 602,-53.5 462,-53.5"/>
<text text-anchor="middle" x="532" y="-60.5" font-family="Helvetica,sans-Serif" font-size="10.00">infra::AccessedBySharedPtr</text>
</g>
<!-- Node3 -->
<g id="node2" class="node"><title>Node3</title>
<g id="a_node2"><a xlink:href="../../da/dcd/classinfra_1_1_shared_object_deleter.html" target="_top" xlink:title="infra::SharedObjectDeleter">
<polygon fill="white" stroke="black" points="0,-94.5 0,-113.5 131,-113.5 131,-94.5 0,-94.5"/>
<text text-anchor="middle" x="65.5" y="-101.5" font-family="Helvetica,sans-Serif" font-size="10.00">infra::SharedObjectDeleter</text>
</a>
</g>
</g>
<!-- Node3&#45;&gt;Node2 -->
<g id="edge1" class="edge"><title>Node3&#45;&gt;Node2</title>
<path fill="none" stroke="#8b1a1a" d="M141.521,-103.7C165.639,-103.284 192.463,-102.485 217,-101 318.22,-94.8734 343.529,-91.7342 444,-78 455.389,-76.4431 467.573,-74.511 479.107,-72.5571"/>
<polygon fill="#8b1a1a" stroke="#8b1a1a" points="141.31,-100.203 131.365,-103.856 141.418,-107.202 141.31,-100.203"/>
</g>
<!-- Node5 -->
<g id="node4" class="node"><title>Node5</title>
<g id="a_node4"><a xlink:href="../../dd/d9a/classinfra_1_1detail_1_1_shared_ptr_control.html" target="_top" xlink:title="infra::detail::SharedPtr\lControl">
<polygon fill="white" stroke="black" points="236.5,-48 236.5,-78 349.5,-78 349.5,-48 236.5,-48"/>
<text text-anchor="start" x="244.5" y="-66" font-family="Helvetica,sans-Serif" font-size="10.00">infra::detail::SharedPtr</text>
<text text-anchor="middle" x="293" y="-55" font-family="Helvetica,sans-Serif" font-size="10.00">Control</text>
</a>
</g>
</g>
<!-- Node3&#45;&gt;Node5 -->
<g id="edge6" class="edge"><title>Node3&#45;&gt;Node5</title>
<path fill="none" stroke="#9a32cd" stroke-dasharray="5,2" d="M128.995,-92.6373C162.678,-86.5131 203.884,-79.021 236.439,-73.102"/>
<polygon fill="#9a32cd" stroke="#9a32cd" points="128.014,-89.2582 118.801,-94.4907 129.266,-96.1453 128.014,-89.2582"/>
<text text-anchor="middle" x="183" y="-92" font-family="Helvetica,sans-Serif" font-size="10.00"> deleter</text>
</g>
<!-- Node4 -->
<g id="node3" class="node"><title>Node4</title>
<g id="a_node3"><a xlink:href="../../da/d07/classinfra_1_1_function.html" target="_top" xlink:title="infra::Function\&lt; void()\&gt;">
<polygon fill="white" stroke="black" points="235,-9.5 235,-28.5 351,-28.5 351,-9.5 235,-9.5"/>
<text text-anchor="middle" x="293" y="-16.5" font-family="Helvetica,sans-Serif" font-size="10.00">infra::Function&lt; void()&gt;</text>
</a>
</g>
</g>
<!-- Node4&#45;&gt;Node2 -->
<g id="edge2" class="edge"><title>Node4&#45;&gt;Node2</title>
<path fill="none" stroke="#9a32cd" stroke-dasharray="5,2" d="M355.495,-30.4168C394.063,-37.577 443.206,-46.7007 479.675,-53.4713"/>
<polygon fill="#9a32cd" stroke="#9a32cd" points="355.896,-26.9316 345.425,-28.5473 354.619,-33.814 355.896,-26.9316"/>
<text text-anchor="middle" x="406.5" y="-50" font-family="Helvetica,sans-Serif" font-size="10.00"> onUnReferenced</text>
</g>
<!-- Node5&#45;&gt;Node2 -->
<g id="edge3" class="edge"><title>Node5&#45;&gt;Node2</title>
<path fill="none" stroke="#9a32cd" stroke-dasharray="5,2" d="M359.641,-63C391.412,-63 429.558,-63 461.787,-63"/>
<polygon fill="#9a32cd" stroke="#9a32cd" points="359.566,-59.5001 349.566,-63 359.566,-66.5001 359.566,-59.5001"/>
<text text-anchor="middle" x="406.5" y="-66" font-family="Helvetica,sans-Serif" font-size="10.00"> control</text>
</g>
<!-- Node6 -->
<g id="node5" class="node"><title>Node6</title>
<polygon fill="white" stroke="#bfbfbf" points="32,-45.5 32,-64.5 99,-64.5 99,-45.5 32,-45.5"/>
<text text-anchor="middle" x="65.5" y="-52.5" font-family="Helvetica,sans-Serif" font-size="10.00">const void *</text>
</g>
<!-- Node6&#45;&gt;Node5 -->
<g id="edge4" class="edge"><title>Node6&#45;&gt;Node5</title>
<path fill="none" stroke="#9a32cd" stroke-dasharray="5,2" d="M109.278,-54.3021C139.414,-54.0506 180.7,-54.1888 217,-56 223.269,-56.3128 229.824,-56.7544 236.338,-57.2655"/>
<polygon fill="#9a32cd" stroke="#9a32cd" points="109.074,-50.8039 99.1103,-54.4052 109.145,-57.8035 109.074,-50.8039"/>
<text text-anchor="middle" x="183" y="-59" font-family="Helvetica,sans-Serif" font-size="10.00"> object</text>
</g>
<!-- Node7 -->
<g id="node6" class="node"><title>Node7</title>
<polygon fill="white" stroke="#bfbfbf" points="40,-0.5 40,-19.5 91,-19.5 91,-0.5 40,-0.5"/>
<text text-anchor="middle" x="65.5" y="-7.5" font-family="Helvetica,sans-Serif" font-size="10.00">uint16_t</text>
</g>
<!-- Node7&#45;&gt;Node5 -->
<g id="edge5" class="edge"><title>Node7&#45;&gt;Node5</title>
<path fill="none" stroke="#9a32cd" stroke-dasharray="5,2" d="M101.281,-11.0713C132.237,-12.8004 178.451,-17.3025 217,-29 225.559,-31.5972 226.902,-34.2025 235,-38 242.044,-41.3032 249.635,-44.726 256.907,-47.9396"/>
<polygon fill="#9a32cd" stroke="#9a32cd" points="101.164,-7.56148 91.0048,-10.5681 100.822,-14.5531 101.164,-7.56148"/>
<text text-anchor="middle" x="183" y="-43" font-family="Helvetica,sans-Serif" font-size="10.00"> weakPtrCount</text>
<text text-anchor="middle" x="183" y="-32" font-family="Helvetica,sans-Serif" font-size="10.00">sharedPtrCount</text>
</g>
</g>
</svg>
        <g id="navigator" transform="translate(0 0)" fill="#404254">
                <rect fill="#f2f5e9" fill-opacity="0.5" stroke="#606060" stroke-width=".5" x="0" y="0" width="60" height="60"/>
                <use id="zoomplus" xlink:href="#zoomPlus" x="17" y="9" onmousedown="handleZoom(evt,'in')"/>
                <use id="zoomminus" xlink:href="#zoomMin" x="42" y="9" onmousedown="handleZoom(evt,'out')"/>
                <use id="reset" xlink:href="#resetDef" x="30" y="36" onmousedown="handleReset()"/>
                <g id="arrowUp" xlink:href="#dirArrow" transform="translate(30 24)" onmousedown="handlePan(0,-1)">
                  <use xlink:href="#rim" fill="#404040">
                        <set attributeName="fill" to="#808080" begin="arrowUp.mouseover" end="arrowUp.mouseout"/>
                  </use>
                  <path fill="none" stroke="white" stroke-width="1.5" d="M0,-3.0v7 M-2.5,-0.5L0,-3.0L2.5,-0.5"/>
                </g>
                <g id="arrowRight" xlink:href="#dirArrow" transform="rotate(90) translate(36 -43)" onmousedown="handlePan(1,0)">
                  <use xlink:href="#rim" fill="#404040">
                        <set attributeName="fill" to="#808080" begin="arrowRight.mouseover" end="arrowRight.mouseout"/>
                  </use>
                  <path fill="none" stroke="white" stroke-width="1.5" d="M0,-3.0v7 M-2.5,-0.5L0,-3.0L2.5,-0.5"/>
                </g>
                <g id="arrowDown" xlink:href="#dirArrow" transform="rotate(180) translate(-30 -48)" onmousedown="handlePan(0,1)">
                  <use xlink:href="#rim" fill="#404040">
                        <set attributeName="fill" to="#808080" begin="arrowDown.mouseover" end="arrowDown.mouseout"/>
                  </use>
                  <path fill="none" stroke="white" stroke-width="1.5" d="M0,-3.0v7 M-2.5,-0.5L0,-3.0L2.5,-0.5"/>
                </g>
                <g id="arrowLeft" xlink:href="#dirArrow" transform="rotate(270) translate(-36 17)" onmousedown="handlePan(-1,0)">
                  <use xlink:href="#rim" fill="#404040">
                        <set attributeName="fill" to="#808080" begin="arrowLeft.mouseover" end="arrowLeft.mouseout"/>
                  </use>
                  <path fill="none" stroke="white" stroke-width="1.5" d="M0,-3.0v7 M-2.5,-0.5L0,-3.0L2.5,-0.5"/>
                </g>
        </g>
        <svg viewBox="0 0 15 15" width="100%" height="30px" preserveAspectRatio="xMaxYMin meet">
         <g id="arrow_out" transform="scale(0.3 0.3)">
          <a xlink:href="classinfra_1_1_accessed_by_shared_ptr__coll__graph_org.svg" target="_base">
           <rect id="button" ry="5" rx="5" y="6" x="6" height="38" width="38"
                fill="#f2f5e9" fill-opacity="0.5" stroke="#606060" stroke-width="1.0"/>
           <path id="arrow"
             d="M 11.500037,31.436501 C 11.940474,20.09759 22.043105,11.32322 32.158766,21.979434 L 37.068811,17.246167 C 37.068811,17.246167 37.088388,32 37.088388,32 L 22.160133,31.978069 C 22.160133,31.978069 26.997745,27.140456 26.997745,27.140456 C 18.528582,18.264221 13.291696,25.230495 11.500037,31.436501 z"
             style="fill:#404040;"/>
          </a>
         </g>
        </svg>
</svg>
