<?xml version="1.0" encoding="UTF-8" standalone="no"?>
<!DOCTYPE svg PUBLIC "-//W3C//DTD SVG 1.1//EN"
 "http://www.w3.org/Graphics/SVG/1.1/DTD/svg11.dtd">
<!-- Generated by graphviz version 2.38.0 (20140413.2041)
 -->
<!-- Title: infra::TimerEvolving::Start Pages: 1 -->
<!--zoomable 284 -->
<svg id="main" version="1.1" xmlns="http://www.w3.org/2000/svg" xmlns:xlink="http://www.w3.org/1999/xlink" xml:space="preserve" onload="init(evt)">
<style type="text/css"><![CDATA[
.edge:hover path { stroke: red; }
.edge:hover polygon { stroke: red; fill: red; }
]]></style>
<script type="text/javascript"><![CDATA[
var edges = document.getElementsByTagName('g');
if (edges && edges.length) {
  for (var i=0;i<edges.length;i++) {
    if (edges[i].id.substr(0,4)=='edge') {
      edges[i].setAttribute('class','edge');
    }
  }
}
]]></script>
        <defs>
                <circle id="rim" cx="0" cy="0" r="7"/>
                <circle id="rim2" cx="0" cy="0" r="3.5"/>
                <g id="zoomPlus">
                        <use xlink:href="#rim" fill="#404040">
                                <set attributeName="fill" to="#808080" begin="zoomplus.mouseover" end="zoomplus.mouseout"/>
                        </use>
                        <path d="M-4,0h8M0,-4v8" fill="none" stroke="white" stroke-width="1.5" pointer-events="none"/>
                </g>
                <g id="zoomMin">
                        <use xlink:href="#rim" fill="#404040">
                                <set attributeName="fill" to="#808080" begin="zoomminus.mouseover" end="zoomminus.mouseout"/>
                        </use>
                        <path d="M-4,0h8" fill="none" stroke="white" stroke-width="1.5" pointer-events="none"/>
                </g>
                <g id="dirArrow">
                        <path fill="none" stroke="white" stroke-width="1.5" d="M0,-3.0v7 M-2.5,-0.5L0,-3.0L2.5,-0.5"/>
                </g>
               <g id="resetDef">
                       <use xlink:href="#rim2" fill="#404040">
                               <set attributeName="fill" to="#808080" begin="reset.mouseover" end="reset.mouseout"/>
                       </use>
               </g>
        </defs>

<script type="text/javascript">
var viewWidth = 1081;
var viewHeight = 284;
var sectionId = 'dynsection-6';
</script>
<script xlink:href="../../svgpan.js"/>
<svg id="graph" class="graph">
<g id="viewport">
<title>infra::TimerEvolving::Start</title>
<polygon fill="white" stroke="none" points="-4,4 -4,-280 1077,-280 1077,4 -4,4"/>
<!-- Node55 -->
<g id="node1" class="node"><title>Node55</title>
<polygon fill="#bfbfbf" stroke="black" points="0,-42.5 0,-72.5 99,-72.5 99,-42.5 0,-42.5"/>
<text text-anchor="start" x="8" y="-60.5" font-family="Helvetica,sans-Serif" font-size="10.00">infra::TimerEvolving</text>
<text text-anchor="middle" x="49.5" y="-49.5" font-family="Helvetica,sans-Serif" font-size="10.00">::Start</text>
</g>
<!-- Node56 -->
<g id="node2" class="node"><title>Node56</title>
<g id="a_node2"><a xlink:href="../../d0/d7e/classinfra_1_1_timer_evolving.html#a84bf5ab3bb05419e23ffb029750e3532" target="_top" xlink:title="infra::TimerEvolving\l::Evolve">
<polygon fill="white" stroke="black" points="143.5,-86.5 143.5,-116.5 242.5,-116.5 242.5,-86.5 143.5,-86.5"/>
<text text-anchor="start" x="151.5" y="-104.5" font-family="Helvetica,sans-Serif" font-size="10.00">infra::TimerEvolving</text>
<text text-anchor="middle" x="193" y="-93.5" font-family="Helvetica,sans-Serif" font-size="10.00">::Evolve</text>
</a>
</g>
</g>
<!-- Node55&#45;&gt;Node56 -->
<g id="edge1" class="edge"><title>Node55&#45;&gt;Node56</title>
<path fill="none" stroke="midnightblue" d="M98.8005,-72.5192C110.059,-76.0202 122.164,-79.7842 133.801,-83.4027"/>
<polygon fill="midnightblue" stroke="midnightblue" points="132.848,-86.7718 143.437,-86.3991 134.927,-80.0875 132.848,-86.7718"/>
</g>
<!-- Node69 -->
<g id="node15" class="node"><title>Node69</title>
<g id="a_node15"><a xlink:href="../../d5/da5/classinfra_1_1_timer.html#a0a6147203d9afc7b16456c161b7aaf62" target="_top" xlink:title="infra::Timer::Now">
<polygon fill="white" stroke="black" points="148.5,-48 148.5,-67 237.5,-67 237.5,-48 148.5,-48"/>
<text text-anchor="middle" x="193" y="-55" font-family="Helvetica,sans-Serif" font-size="10.00">infra::Timer::Now</text>
</a>
</g>
</g>
<!-- Node55&#45;&gt;Node69 -->
<g id="edge18" class="edge"><title>Node55&#45;&gt;Node69</title>
<path fill="none" stroke="midnightblue" d="M99.1963,-57.5C111.812,-57.5 125.468,-57.5 138.324,-57.5"/>
<polygon fill="midnightblue" stroke="midnightblue" points="138.427,-61.0001 148.427,-57.5 138.427,-54.0001 138.427,-61.0001"/>
</g>
<!-- Node71 -->
<g id="node17" class="node"><title>Node71</title>
<g id="a_node17"><a xlink:href="../../d5/da5/classinfra_1_1_timer.html#a729101dbfbc04caf3f1217f9feeeff41" target="_top" xlink:title="infra::Timer::Resolution">
<polygon fill="white" stroke="black" points="135,-9 135,-28 251,-28 251,-9 135,-9"/>
<text text-anchor="middle" x="193" y="-16" font-family="Helvetica,sans-Serif" font-size="10.00">infra::Timer::Resolution</text>
</a>
</g>
</g>
<!-- Node55&#45;&gt;Node71 -->
<g id="edge20" class="edge"><title>Node55&#45;&gt;Node71</title>
<path fill="none" stroke="midnightblue" d="M99.1963,-44.0784C114.935,-39.7405 132.292,-34.9567 147.695,-30.7113"/>
<polygon fill="midnightblue" stroke="midnightblue" points="148.788,-34.0407 157.498,-28.0093 146.928,-27.2923 148.788,-34.0407"/>
</g>
<!-- Node57 -->
<g id="node3" class="node"><title>Node57</title>
<g id="a_node3"><a xlink:href="../../d5/da5/classinfra_1_1_timer.html#abf5658fb078dc1dad0705a7791f7b84c" target="_top" xlink:title="infra::Timer::Cancel">
<polygon fill="white" stroke="black" points="314.5,-90 314.5,-109 415.5,-109 415.5,-90 314.5,-90"/>
<text text-anchor="middle" x="365" y="-97" font-family="Helvetica,sans-Serif" font-size="10.00">infra::Timer::Cancel</text>
</a>
</g>
</g>
<!-- Node56&#45;&gt;Node57 -->
<g id="edge2" class="edge"><title>Node56&#45;&gt;Node57</title>
<path fill="none" stroke="midnightblue" d="M242.715,-100.927C261.936,-100.701 284.204,-100.439 304.374,-100.201"/>
<polygon fill="midnightblue" stroke="midnightblue" points="304.434,-103.701 314.393,-100.084 304.352,-96.7016 304.434,-103.701"/>
</g>
<!-- Node63 -->
<g id="node9" class="node"><title>Node63</title>
<g id="a_node9"><a xlink:href="../../d5/da5/classinfra_1_1_timer.html#aa5f1d8f856a15a67ddc7c88e40fe4796" target="_top" xlink:title="infra::Timer::SetNextTriggerTime">
<polygon fill="white" stroke="black" points="287,-147 287,-166 443,-166 443,-147 287,-147"/>
<text text-anchor="middle" x="365" y="-154" font-family="Helvetica,sans-Serif" font-size="10.00">infra::Timer::SetNextTriggerTime</text>
</a>
</g>
</g>
<!-- Node56&#45;&gt;Node63 -->
<g id="edge8" class="edge"><title>Node56&#45;&gt;Node63</title>
<path fill="none" stroke="midnightblue" d="M240.453,-116.529C266.924,-125.093 299.721,-135.704 324.871,-143.841"/>
<polygon fill="midnightblue" stroke="midnightblue" points="323.857,-147.191 334.449,-146.939 326.012,-140.531 323.857,-147.191"/>
</g>
<!-- Node58 -->
<g id="node4" class="node"><title>Node58</title>
<g id="a_node4"><a xlink:href="../../d5/da5/classinfra_1_1_timer.html#a11b396e8d4300da06b8ce83624991b73" target="_top" xlink:title="infra::Timer::Convert">
<polygon fill="white" stroke="black" points="966.5,-109 966.5,-128 1069.5,-128 1069.5,-109 966.5,-109"/>
<text text-anchor="middle" x="1018" y="-116" font-family="Helvetica,sans-Serif" font-size="10.00">infra::Timer::Convert</text>
</a>
</g>
</g>
<!-- Node57&#45;&gt;Node58 -->
<g id="edge3" class="edge"><title>Node57&#45;&gt;Node58</title>
<path fill="none" stroke="midnightblue" d="M411.963,-89.9875C432.392,-86.2221 456.797,-82.3536 479,-80.5 651.983,-66.0586 856.56,-92.4599 956.261,-108.124"/>
<polygon fill="midnightblue" stroke="midnightblue" points="955.731,-111.584 966.156,-109.698 956.83,-104.671 955.731,-111.584"/>
</g>
<!-- Node59 -->
<g id="node5" class="node"><title>Node59</title>
<g id="a_node5"><a xlink:href="../../d5/da5/classinfra_1_1_timer.html#a2b0bc71ca10c69d01f4965c576af73fd" target="_top" xlink:title="infra::Timer::UnregisterSelf">
<polygon fill="white" stroke="black" points="489.5,-90 489.5,-109 620.5,-109 620.5,-90 489.5,-90"/>
<text text-anchor="middle" x="555" y="-97" font-family="Helvetica,sans-Serif" font-size="10.00">infra::Timer::UnregisterSelf</text>
</a>
</g>
</g>
<!-- Node57&#45;&gt;Node59 -->
<g id="edge4" class="edge"><title>Node57&#45;&gt;Node59</title>
<path fill="none" stroke="midnightblue" d="M415.887,-99.5C435.326,-99.5 458.02,-99.5 479.329,-99.5"/>
<polygon fill="midnightblue" stroke="midnightblue" points="479.331,-103 489.331,-99.5 479.331,-96.0001 479.331,-103"/>
</g>
<!-- Node60 -->
<g id="node6" class="node"><title>Node60</title>
<g id="a_node6"><a xlink:href="../../da/def/classinfra_1_1_timer_service.html#a51f86cbeef8dc4866c087b68c24635d8" target="_top" xlink:title="infra::TimerService\l::UnregisterTimer">
<polygon fill="white" stroke="black" points="671,-147.5 671,-177.5 767,-177.5 767,-147.5 671,-147.5"/>
<text text-anchor="start" x="679" y="-165.5" font-family="Helvetica,sans-Serif" font-size="10.00">infra::TimerService</text>
<text text-anchor="middle" x="719" y="-154.5" font-family="Helvetica,sans-Serif" font-size="10.00">::UnregisterTimer</text>
</a>
</g>
</g>
<!-- Node59&#45;&gt;Node60 -->
<g id="edge5" class="edge"><title>Node59&#45;&gt;Node60</title>
<path fill="none" stroke="midnightblue" d="M580.604,-109.068C604.143,-118.222 640.297,-132.282 669.611,-143.682"/>
<polygon fill="midnightblue" stroke="midnightblue" points="668.673,-147.072 679.261,-147.435 671.21,-140.548 668.673,-147.072"/>
</g>
<!-- Node61 -->
<g id="node7" class="node"><title>Node61</title>
<g id="a_node7"><a xlink:href="../../da/def/classinfra_1_1_timer_service.html#afb8a6ef3ee5ba728f1a8f232514bad8c" target="_top" xlink:title="infra::TimerService\l::ComputeNextTrigger">
<polygon fill="white" stroke="black" points="811.5,-163.5 811.5,-193.5 922.5,-193.5 922.5,-163.5 811.5,-163.5"/>
<text text-anchor="start" x="819.5" y="-181.5" font-family="Helvetica,sans-Serif" font-size="10.00">infra::TimerService</text>
<text text-anchor="middle" x="867" y="-170.5" font-family="Helvetica,sans-Serif" font-size="10.00">::ComputeNextTrigger</text>
</a>
</g>
</g>
<!-- Node60&#45;&gt;Node61 -->
<g id="edge6" class="edge"><title>Node60&#45;&gt;Node61</title>
<path fill="none" stroke="midnightblue" d="M767.402,-167.695C778.286,-168.887 790.038,-170.175 801.507,-171.432"/>
<polygon fill="midnightblue" stroke="midnightblue" points="801.162,-174.915 811.483,-172.526 801.924,-167.957 801.162,-174.915"/>
</g>
<!-- Node62 -->
<g id="node8" class="node"><title>Node62</title>
<g id="a_node8"><a xlink:href="../../da/def/classinfra_1_1_timer_service.html#a6ae66196dc18d8b383ba5e0f0b6f22fa" target="_top" xlink:title="infra::TimerService\l::NextTriggerChanged">
<polygon fill="white" stroke="black" points="963,-204.5 963,-234.5 1073,-234.5 1073,-204.5 963,-204.5"/>
<text text-anchor="start" x="971" y="-222.5" font-family="Helvetica,sans-Serif" font-size="10.00">infra::TimerService</text>
<text text-anchor="middle" x="1018" y="-211.5" font-family="Helvetica,sans-Serif" font-size="10.00">::NextTriggerChanged</text>
</a>
</g>
</g>
<!-- Node61&#45;&gt;Node62 -->
<g id="edge7" class="edge"><title>Node61&#45;&gt;Node62</title>
<path fill="none" stroke="midnightblue" d="M922.636,-193.534C932.581,-196.271 943.035,-199.147 953.216,-201.949"/>
<polygon fill="midnightblue" stroke="midnightblue" points="952.298,-205.326 962.868,-204.605 954.155,-198.577 952.298,-205.326"/>
</g>
<!-- Node63&#45;&gt;Node58 -->
<g id="edge9" class="edge"><title>Node63&#45;&gt;Node58</title>
<path fill="none" stroke="midnightblue" d="M443.005,-151.452C503.813,-147.511 590.815,-141.972 667,-137.5 768.264,-131.555 886.049,-125.297 955.905,-121.653"/>
<polygon fill="midnightblue" stroke="midnightblue" points="956.471,-125.129 966.276,-121.113 956.107,-118.138 956.471,-125.129"/>
</g>
<!-- Node64 -->
<g id="node10" class="node"><title>Node64</title>
<g id="a_node10"><a xlink:href="../../d5/da5/classinfra_1_1_timer.html#aaabecdbe93d2f0299f5f1356c9d1337f" target="_top" xlink:title="infra::Timer::RegisterSelf">
<polygon fill="white" stroke="black" points="493.5,-222 493.5,-241 616.5,-241 616.5,-222 493.5,-222"/>
<text text-anchor="middle" x="555" y="-229" font-family="Helvetica,sans-Serif" font-size="10.00">infra::Timer::RegisterSelf</text>
</a>
</g>
</g>
<!-- Node63&#45;&gt;Node64 -->
<g id="edge10" class="edge"><title>Node63&#45;&gt;Node64</title>
<path fill="none" stroke="midnightblue" d="M389.325,-166.135C412.14,-175.527 447.893,-190.156 479,-202.5 492.235,-207.752 506.83,-213.423 519.6,-218.345"/>
<polygon fill="midnightblue" stroke="midnightblue" points="518.367,-221.62 528.957,-221.943 520.88,-215.087 518.367,-221.62"/>
</g>
<!-- Node67 -->
<g id="node13" class="node"><title>Node67</title>
<g id="a_node13"><a xlink:href="../../d5/da5/classinfra_1_1_timer.html#a51a6dd500d70207c8163a053db0b6e60" target="_top" xlink:title="infra::Timer::UpdateTriggerTime">
<polygon fill="white" stroke="black" points="479,-174 479,-193 631,-193 631,-174 479,-174"/>
<text text-anchor="middle" x="555" y="-181" font-family="Helvetica,sans-Serif" font-size="10.00">infra::Timer::UpdateTriggerTime</text>
</a>
</g>
</g>
<!-- Node63&#45;&gt;Node67 -->
<g id="edge15" class="edge"><title>Node63&#45;&gt;Node67</title>
<path fill="none" stroke="midnightblue" d="M432.282,-166.019C446.884,-168.116 462.466,-170.354 477.436,-172.504"/>
<polygon fill="midnightblue" stroke="midnightblue" points="477.287,-176.019 487.683,-173.976 478.282,-169.09 477.287,-176.019"/>
</g>
<!-- Node65 -->
<g id="node11" class="node"><title>Node65</title>
<g id="a_node11"><a xlink:href="../../da/def/classinfra_1_1_timer_service.html#ac048d92f92957b56b420dd78bcc84528" target="_top" xlink:title="infra::TimerService\l::RegisterTimer">
<polygon fill="white" stroke="black" points="671,-245.5 671,-275.5 767,-275.5 767,-245.5 671,-245.5"/>
<text text-anchor="start" x="679" y="-263.5" font-family="Helvetica,sans-Serif" font-size="10.00">infra::TimerService</text>
<text text-anchor="middle" x="719" y="-252.5" font-family="Helvetica,sans-Serif" font-size="10.00">::RegisterTimer</text>
</a>
</g>
</g>
<!-- Node64&#45;&gt;Node65 -->
<g id="edge11" class="edge"><title>Node64&#45;&gt;Node65</title>
<path fill="none" stroke="midnightblue" d="M609.494,-241.076C625.903,-244.014 644.021,-247.257 660.675,-250.238"/>
<polygon fill="midnightblue" stroke="midnightblue" points="660.367,-253.739 670.827,-252.056 661.601,-246.848 660.367,-253.739"/>
</g>
<!-- Node65&#45;&gt;Node62 -->
<g id="edge14" class="edge"><title>Node65&#45;&gt;Node62</title>
<path fill="none" stroke="midnightblue" d="M767.115,-258.169C809.238,-255.613 872.54,-250.604 927,-241.5 935.324,-240.108 944.017,-238.363 952.577,-236.468"/>
<polygon fill="midnightblue" stroke="midnightblue" points="953.57,-239.831 962.535,-234.186 952.006,-233.008 953.57,-239.831"/>
</g>
<!-- Node66 -->
<g id="node12" class="node"><title>Node66</title>
<g id="a_node12"><a xlink:href="../../d5/da5/classinfra_1_1_timer.html#a1efe7b4dc3d40f8357b1fc94855e5145" target="_top" xlink:title="infra::Timer::NextTrigger">
<polygon fill="white" stroke="black" points="807,-213 807,-232 927,-232 927,-213 807,-213"/>
<text text-anchor="middle" x="867" y="-220" font-family="Helvetica,sans-Serif" font-size="10.00">infra::Timer::NextTrigger</text>
</a>
</g>
</g>
<!-- Node65&#45;&gt;Node66 -->
<g id="edge12" class="edge"><title>Node65&#45;&gt;Node66</title>
<path fill="none" stroke="midnightblue" d="M767.402,-248.162C784.089,-243.819 802.818,-238.945 819.435,-234.62"/>
<polygon fill="midnightblue" stroke="midnightblue" points="820.676,-237.913 829.471,-232.007 818.912,-231.139 820.676,-237.913"/>
</g>
<!-- Node66&#45;&gt;Node58 -->
<g id="edge13" class="edge"><title>Node66&#45;&gt;Node58</title>
<path fill="none" stroke="midnightblue" d="M904.024,-212.998C911.879,-210.195 919.945,-206.718 927,-202.5 957.225,-184.428 985.825,-154.823 1002.37,-136.016"/>
<polygon fill="midnightblue" stroke="midnightblue" points="1005.22,-138.077 1009.09,-128.215 999.911,-133.51 1005.22,-138.077"/>
</g>
<!-- Node68 -->
<g id="node14" class="node"><title>Node68</title>
<g id="a_node14"><a xlink:href="../../da/def/classinfra_1_1_timer_service.html#ac08c18576f1ca147f34136e9f75d124f" target="_top" xlink:title="infra::TimerService\l::UpdateTriggerTime">
<polygon fill="white" stroke="black" points="667,-196.5 667,-226.5 771,-226.5 771,-196.5 667,-196.5"/>
<text text-anchor="start" x="675" y="-214.5" font-family="Helvetica,sans-Serif" font-size="10.00">infra::TimerService</text>
<text text-anchor="middle" x="719" y="-203.5" font-family="Helvetica,sans-Serif" font-size="10.00">::UpdateTriggerTime</text>
</a>
</g>
</g>
<!-- Node67&#45;&gt;Node68 -->
<g id="edge16" class="edge"><title>Node67&#45;&gt;Node68</title>
<path fill="none" stroke="midnightblue" d="M611.298,-193.058C625.895,-195.581 641.734,-198.318 656.631,-200.893"/>
<polygon fill="midnightblue" stroke="midnightblue" points="656.316,-204.39 666.767,-202.645 657.509,-197.493 656.316,-204.39"/>
</g>
<!-- Node68&#45;&gt;Node61 -->
<g id="edge17" class="edge"><title>Node68&#45;&gt;Node61</title>
<path fill="none" stroke="midnightblue" d="M771.064,-199.958C780.87,-197.742 791.258,-195.394 801.425,-193.096"/>
<polygon fill="midnightblue" stroke="midnightblue" points="802.507,-196.44 811.489,-190.821 800.963,-189.612 802.507,-196.44"/>
</g>
<!-- Node70 -->
<g id="node16" class="node"><title>Node70</title>
<g id="a_node16"><a xlink:href="../../da/def/classinfra_1_1_timer_service.html#acb34d2766047f27ebcd1f552916c9a99" target="_top" xlink:title="infra::TimerService::Now">
<polygon fill="white" stroke="black" points="304.5,-50 304.5,-69 425.5,-69 425.5,-50 304.5,-50"/>
<text text-anchor="middle" x="365" y="-57" font-family="Helvetica,sans-Serif" font-size="10.00">infra::TimerService::Now</text>
</a>
</g>
</g>
<!-- Node69&#45;&gt;Node70 -->
<g id="edge19" class="edge"><title>Node69&#45;&gt;Node70</title>
<path fill="none" stroke="midnightblue" d="M237.779,-58.015C254.958,-58.2172 275.1,-58.4541 294.187,-58.6787"/>
<polygon fill="midnightblue" stroke="midnightblue" points="294.311,-62.1803 304.352,-58.7983 294.394,-55.1808 294.311,-62.1803"/>
</g>
<!-- Node72 -->
<g id="node18" class="node"><title>Node72</title>
<g id="a_node18"><a xlink:href="../../da/def/classinfra_1_1_timer_service.html#ab717e40a1a49d2f31f4a9e2e63f0f5ce" target="_top" xlink:title="infra::TimerService\l::Resolution">
<polygon fill="white" stroke="black" points="317,-0.5 317,-30.5 413,-30.5 413,-0.5 317,-0.5"/>
<text text-anchor="start" x="325" y="-18.5" font-family="Helvetica,sans-Serif" font-size="10.00">infra::TimerService</text>
<text text-anchor="middle" x="365" y="-7.5" font-family="Helvetica,sans-Serif" font-size="10.00">::Resolution</text>
</a>
</g>
</g>
<!-- Node71&#45;&gt;Node72 -->
<g id="edge21" class="edge"><title>Node71&#45;&gt;Node72</title>
<path fill="none" stroke="midnightblue" d="M251.08,-17.4927C269.065,-17.1753 288.925,-16.8249 306.91,-16.5075"/>
<polygon fill="midnightblue" stroke="midnightblue" points="307.032,-20.006 316.968,-16.33 306.908,-13.0071 307.032,-20.006"/>
</g>
</g>
</svg>
        <g id="navigator" transform="translate(0 0)" fill="#404254">
                <rect fill="#f2f5e9" fill-opacity="0.5" stroke="#606060" stroke-width=".5" x="0" y="0" width="60" height="60"/>
                <use id="zoomplus" xlink:href="#zoomPlus" x="17" y="9" onmousedown="handleZoom(evt,'in')"/>
                <use id="zoomminus" xlink:href="#zoomMin" x="42" y="9" onmousedown="handleZoom(evt,'out')"/>
                <use id="reset" xlink:href="#resetDef" x="30" y="36" onmousedown="handleReset()"/>
                <g id="arrowUp" xlink:href="#dirArrow" transform="translate(30 24)" onmousedown="handlePan(0,-1)">
                  <use xlink:href="#rim" fill="#404040">
                        <set attributeName="fill" to="#808080" begin="arrowUp.mouseover" end="arrowUp.mouseout"/>
                  </use>
                  <path fill="none" stroke="white" stroke-width="1.5" d="M0,-3.0v7 M-2.5,-0.5L0,-3.0L2.5,-0.5"/>
                </g>
                <g id="arrowRight" xlink:href="#dirArrow" transform="rotate(90) translate(36 -43)" onmousedown="handlePan(1,0)">
                  <use xlink:href="#rim" fill="#404040">
                        <set attributeName="fill" to="#808080" begin="arrowRight.mouseover" end="arrowRight.mouseout"/>
                  </use>
                  <path fill="none" stroke="white" stroke-width="1.5" d="M0,-3.0v7 M-2.5,-0.5L0,-3.0L2.5,-0.5"/>
                </g>
                <g id="arrowDown" xlink:href="#dirArrow" transform="rotate(180) translate(-30 -48)" onmousedown="handlePan(0,1)">
                  <use xlink:href="#rim" fill="#404040">
                        <set attributeName="fill" to="#808080" begin="arrowDown.mouseover" end="arrowDown.mouseout"/>
                  </use>
                  <path fill="none" stroke="white" stroke-width="1.5" d="M0,-3.0v7 M-2.5,-0.5L0,-3.0L2.5,-0.5"/>
                </g>
                <g id="arrowLeft" xlink:href="#dirArrow" transform="rotate(270) translate(-36 17)" onmousedown="handlePan(-1,0)">
                  <use xlink:href="#rim" fill="#404040">
                        <set attributeName="fill" to="#808080" begin="arrowLeft.mouseover" end="arrowLeft.mouseout"/>
                  </use>
                  <path fill="none" stroke="white" stroke-width="1.5" d="M0,-3.0v7 M-2.5,-0.5L0,-3.0L2.5,-0.5"/>
                </g>
        </g>
        <svg viewBox="0 0 15 15" width="100%" height="30px" preserveAspectRatio="xMaxYMin meet">
         <g id="arrow_out" transform="scale(0.3 0.3)">
          <a xlink:href="classinfra_1_1_timer_evolving_a5635a0cace39581c32bb3e488f83854c_cgraph_org.svg" target="_base">
           <rect id="button" ry="5" rx="5" y="6" x="6" height="38" width="38"
                fill="#f2f5e9" fill-opacity="0.5" stroke="#606060" stroke-width="1.0"/>
           <path id="arrow"
             d="M 11.500037,31.436501 C 11.940474,20.09759 22.043105,11.32322 32.158766,21.979434 L 37.068811,17.246167 C 37.068811,17.246167 37.088388,32 37.088388,32 L 22.160133,31.978069 C 22.160133,31.978069 26.997745,27.140456 26.997745,27.140456 C 18.528582,18.264221 13.291696,25.230495 11.500037,31.436501 z"
             style="fill:#404040;"/>
          </a>
         </g>
        </svg>
</svg>
