<?xml version="1.0" encoding="UTF-8" standalone="no"?>
<!DOCTYPE svg PUBLIC "-//W3C//DTD SVG 1.1//EN"
 "http://www.w3.org/Graphics/SVG/1.1/DTD/svg11.dtd">
<!-- Generated by graphviz version 2.38.0 (20140413.2041)
 -->
<!-- Title: services::ConnectionMbedTls Pages: 1 -->
<svg width="673pt" height="134pt"
 viewBox="0.00 0.00 673.00 134.00" xmlns="http://www.w3.org/2000/svg" xmlns:xlink="http://www.w3.org/1999/xlink">
<g id="graph0" class="graph" transform="scale(1 1) rotate(0) translate(4 130)">
<title>services::ConnectionMbedTls</title>
<polygon fill="white" stroke="none" points="-4,4 -4,-130 669,-130 669,4 -4,4"/>
<!-- Node0 -->
<g id="node1" class="node"><title>Node0</title>
<polygon fill="#bfbfbf" stroke="black" points="348,-50 348,-69 491,-69 491,-50 348,-50"/>
<text text-anchor="middle" x="419.5" y="-57" font-family="Helvetica,sans-Serif" font-size="10.00">services::ConnectionMbedTls</text>
</g>
<!-- Node6 -->
<g id="node7" class="node"><title>Node6</title>
<g id="a_node7"><a xlink:href="../../d9/d36/classservices_1_1_tracing_connection_mbed_tls.html" target="_top" xlink:title="services::TracingConnection\lMbedTls">
<polygon fill="white" stroke="black" points="527,-44.5 527,-74.5 665,-74.5 665,-44.5 527,-44.5"/>
<text text-anchor="start" x="535" y="-62.5" font-family="Helvetica,sans-Serif" font-size="10.00">services::TracingConnection</text>
<text text-anchor="middle" x="596" y="-51.5" font-family="Helvetica,sans-Serif" font-size="10.00">MbedTls</text>
</a>
</g>
</g>
<!-- Node0&#45;&gt;Node6 -->
<g id="edge6" class="edge"><title>Node0&#45;&gt;Node6</title>
<path fill="none" stroke="midnightblue" d="M501.465,-59.5C509.911,-59.5 518.435,-59.5 526.72,-59.5"/>
<polygon fill="midnightblue" stroke="midnightblue" points="501.224,-56.0001 491.224,-59.5 501.224,-63.0001 501.224,-56.0001"/>
</g>
<!-- Node1 -->
<g id="node2" class="node"><title>Node1</title>
<g id="a_node2"><a xlink:href="../../d0/dde/classservices_1_1_connection.html" target="_top" xlink:title="services::Connection">
<polygon fill="white" stroke="black" points="186,-96 186,-115 293,-115 293,-96 186,-96"/>
<text text-anchor="middle" x="239.5" y="-103" font-family="Helvetica,sans-Serif" font-size="10.00">services::Connection</text>
</a>
</g>
</g>
<!-- Node1&#45;&gt;Node0 -->
<g id="edge1" class="edge"><title>Node1&#45;&gt;Node0</title>
<path fill="none" stroke="midnightblue" d="M287.44,-93.3694C316.902,-85.7556 354.35,-76.0781 381.666,-69.019"/>
<polygon fill="midnightblue" stroke="midnightblue" points="286.188,-90.078 277.382,-95.9688 287.939,-96.8553 286.188,-90.078"/>
</g>
<!-- Node2 -->
<g id="node3" class="node"><title>Node2</title>
<g id="a_node3"><a xlink:href="../../d1/db2/classinfra_1_1_subject.html" target="_top" xlink:title="infra::Subject\&lt; Connection\lObserver \&gt;">
<polygon fill="white" stroke="black" points="0,-95.5 0,-125.5 131,-125.5 131,-95.5 0,-95.5"/>
<text text-anchor="start" x="8" y="-113.5" font-family="Helvetica,sans-Serif" font-size="10.00">infra::Subject&lt; Connection</text>
<text text-anchor="middle" x="65.5" y="-102.5" font-family="Helvetica,sans-Serif" font-size="10.00">Observer &gt;</text>
</a>
</g>
</g>
<!-- Node2&#45;&gt;Node1 -->
<g id="edge2" class="edge"><title>Node2&#45;&gt;Node1</title>
<path fill="none" stroke="midnightblue" d="M141.344,-108.324C156.373,-107.887 171.864,-107.437 185.94,-107.028"/>
<polygon fill="midnightblue" stroke="midnightblue" points="140.93,-104.835 131.036,-108.624 141.133,-111.832 140.93,-104.835"/>
</g>
<!-- Node3 -->
<g id="node4" class="node"><title>Node3</title>
<g id="a_node4"><a xlink:href="../../dc/de5/classservices_1_1_connection_observer.html" target="_top" xlink:title="services::ConnectionObserver">
<polygon fill="white" stroke="black" points="167,-50 167,-69 312,-69 312,-50 167,-50"/>
<text text-anchor="middle" x="239.5" y="-57" font-family="Helvetica,sans-Serif" font-size="10.00">services::ConnectionObserver</text>
</a>
</g>
</g>
<!-- Node3&#45;&gt;Node0 -->
<g id="edge3" class="edge"><title>Node3&#45;&gt;Node0</title>
<path fill="none" stroke="midnightblue" d="M322.155,-59.5C330.748,-59.5 339.432,-59.5 347.885,-59.5"/>
<polygon fill="midnightblue" stroke="midnightblue" points="322.13,-56.0001 312.13,-59.5 322.13,-63.0001 322.13,-56.0001"/>
</g>
<!-- Node4 -->
<g id="node5" class="node"><title>Node4</title>
<g id="a_node5"><a xlink:href="../../dc/d4c/classinfra_1_1_single_observer.html" target="_top" xlink:title="infra::SingleObserver\l\&lt; ConnectionObserver,\l Connection \&gt;">
<polygon fill="white" stroke="black" points="7.5,-35 7.5,-76 123.5,-76 123.5,-35 7.5,-35"/>
<text text-anchor="start" x="15.5" y="-64" font-family="Helvetica,sans-Serif" font-size="10.00">infra::SingleObserver</text>
<text text-anchor="start" x="15.5" y="-53" font-family="Helvetica,sans-Serif" font-size="10.00">&lt; ConnectionObserver,</text>
<text text-anchor="middle" x="65.5" y="-42" font-family="Helvetica,sans-Serif" font-size="10.00"> Connection &gt;</text>
</a>
</g>
</g>
<!-- Node4&#45;&gt;Node3 -->
<g id="edge4" class="edge"><title>Node4&#45;&gt;Node3</title>
<path fill="none" stroke="midnightblue" d="M133.957,-57.0688C144.733,-57.3194 155.918,-57.5795 166.788,-57.8323"/>
<polygon fill="midnightblue" stroke="midnightblue" points="133.852,-53.5655 123.774,-56.8319 133.689,-60.5636 133.852,-53.5655"/>
</g>
<!-- Node5 -->
<g id="node6" class="node"><title>Node5</title>
<g id="a_node6"><a xlink:href="../../dd/df1/classinfra_1_1_enable_shared_from_this.html" target="_top" xlink:title="infra::EnableSharedFromThis\l\&lt; ConnectionMbedTls \&gt;">
<polygon fill="white" stroke="black" points="168.5,-0.5 168.5,-30.5 310.5,-30.5 310.5,-0.5 168.5,-0.5"/>
<text text-anchor="start" x="176.5" y="-18.5" font-family="Helvetica,sans-Serif" font-size="10.00">infra::EnableSharedFromThis</text>
<text text-anchor="middle" x="239.5" y="-7.5" font-family="Helvetica,sans-Serif" font-size="10.00">&lt; ConnectionMbedTls &gt;</text>
</a>
</g>
</g>
<!-- Node5&#45;&gt;Node0 -->
<g id="edge5" class="edge"><title>Node5&#45;&gt;Node0</title>
<path fill="none" stroke="midnightblue" d="M311.191,-32.9741C334.663,-38.7763 359.912,-45.0176 380.018,-49.9876"/>
<polygon fill="midnightblue" stroke="midnightblue" points="311.807,-29.5213 301.26,-30.5192 310.128,-36.3167 311.807,-29.5213"/>
</g>
</g>
</svg>
