<?xml version="1.0" encoding="UTF-8" standalone="no"?>
<!DOCTYPE svg PUBLIC "-//W3C//DTD SVG 1.1//EN"
 "http://www.w3.org/Graphics/SVG/1.1/DTD/svg11.dtd">
<!-- Generated by graphviz version 2.38.0 (20140413.2041)
 -->
<!-- Title: infra::JsonTokenizer::SkipWhitespace Pages: 1 -->
<svg width="1137pt" height="197pt"
 viewBox="0.00 0.00 1137.00 197.05" xmlns="http://www.w3.org/2000/svg" xmlns:xlink="http://www.w3.org/1999/xlink">
<g id="graph0" class="graph" transform="scale(1 1) rotate(0) translate(4 193.045)">
<title>infra::JsonTokenizer::SkipWhitespace</title>
<polygon fill="white" stroke="none" points="-4,4 -4,-193.045 1133,-193.045 1133,4 -4,4"/>
<!-- Node8 -->
<g id="node1" class="node"><title>Node8</title>
<polygon fill="#bfbfbf" stroke="black" points="0,-77 0,-107 103,-107 103,-77 0,-77"/>
<text text-anchor="start" x="8" y="-95" font-family="Helvetica,sans-Serif" font-size="10.00">infra::JsonTokenizer</text>
<text text-anchor="middle" x="51.5" y="-84" font-family="Helvetica,sans-Serif" font-size="10.00">::SkipWhitespace</text>
</g>
<!-- Node9 -->
<g id="node2" class="node"><title>Node9</title>
<g id="a_node2"><a xlink:href="../../d3/d5c/classinfra_1_1_json_tokenizer.html#a02d850fd493943206196aff4c975aac5" target="_top" xlink:title="infra::JsonTokenizer\l::Token">
<polygon fill="white" stroke="black" points="139,-77 139,-107 242,-107 242,-77 139,-77"/>
<text text-anchor="start" x="147" y="-95" font-family="Helvetica,sans-Serif" font-size="10.00">infra::JsonTokenizer</text>
<text text-anchor="middle" x="190.5" y="-84" font-family="Helvetica,sans-Serif" font-size="10.00">::Token</text>
</a>
</g>
</g>
<!-- Node8&#45;&gt;Node9 -->
<g id="edge1" class="edge"><title>Node8&#45;&gt;Node9</title>
<path fill="none" stroke="midnightblue" d="M113.32,-92C121.772,-92 130.382,-92 138.626,-92"/>
<polygon fill="midnightblue" stroke="midnightblue" points="113.125,-88.5001 103.125,-92 113.124,-95.5001 113.125,-88.5001"/>
</g>
<!-- Node10 -->
<g id="node3" class="node"><title>Node10</title>
<g id="a_node3"><a xlink:href="../../df/dd0/classinfra_1_1_json_iterator.html#a7fa7a63543c9f03f7010952d42a9cfef" target="_top" xlink:title="infra::JsonIterator\l::SearchObjectEnd">
<polygon fill="white" stroke="black" points="291,-77 291,-107 390,-107 390,-77 291,-77"/>
<text text-anchor="start" x="299" y="-95" font-family="Helvetica,sans-Serif" font-size="10.00">infra::JsonIterator</text>
<text text-anchor="middle" x="340.5" y="-84" font-family="Helvetica,sans-Serif" font-size="10.00">::SearchObjectEnd</text>
</a>
</g>
</g>
<!-- Node9&#45;&gt;Node10 -->
<g id="edge2" class="edge"><title>Node9&#45;&gt;Node10</title>
<path fill="none" stroke="midnightblue" d="M252.162,-92C264.995,-92 278.382,-92 290.709,-92"/>
<polygon fill="midnightblue" stroke="midnightblue" points="252.019,-88.5001 242.019,-92 252.019,-95.5001 252.019,-88.5001"/>
</g>
<!-- Node14 -->
<g id="node7" class="node"><title>Node14</title>
<g id="a_node7"><a xlink:href="../../dd/d2a/classinfra_1_1_json_object_iterator.html#ac505bfd75a0906a2f69e1d6fe252710a" target="_top" xlink:title="infra::JsonObjectIterator\l::ParseNextToken">
<polygon fill="white" stroke="black" points="855,-137 855,-167 974,-167 974,-137 855,-137"/>
<text text-anchor="start" x="863" y="-155" font-family="Helvetica,sans-Serif" font-size="10.00">infra::JsonObjectIterator</text>
<text text-anchor="middle" x="914.5" y="-144" font-family="Helvetica,sans-Serif" font-size="10.00">::ParseNextToken</text>
</a>
</g>
</g>
<!-- Node9&#45;&gt;Node14 -->
<g id="edge13" class="edge"><title>Node9&#45;&gt;Node14</title>
<path fill="none" stroke="midnightblue" d="M210.856,-114.496C226.953,-131.528 251.454,-153.834 278,-165 364.013,-201.182 393.687,-185 487,-185 487,-185 487,-185 619.5,-185 701.551,-185 795.684,-172.15 854.868,-162.487"/>
<polygon fill="midnightblue" stroke="midnightblue" points="213.413,-112.106 204.074,-107.101 208.254,-116.837 213.413,-112.106"/>
</g>
<!-- Node17 -->
<g id="node10" class="node"><title>Node17</title>
<g id="a_node10"><a xlink:href="../../d8/ddc/classinfra_1_1_json_array_iterator.html#a913ccca2cb5a578d9c07d88029416e7f" target="_top" xlink:title="infra::JsonArrayIterator\l::operator++">
<polygon fill="white" stroke="black" points="857.5,-66 857.5,-96 971.5,-96 971.5,-66 857.5,-66"/>
<text text-anchor="start" x="865.5" y="-84" font-family="Helvetica,sans-Serif" font-size="10.00">infra::JsonArrayIterator</text>
<text text-anchor="middle" x="914.5" y="-73" font-family="Helvetica,sans-Serif" font-size="10.00">::operator++</text>
</a>
</g>
</g>
<!-- Node9&#45;&gt;Node17 -->
<g id="edge14" class="edge"><title>Node9&#45;&gt;Node17</title>
<path fill="none" stroke="midnightblue" d="M246.994,-74.2723C257.223,-71.4883 267.872,-68.906 278,-67 369.663,-49.7508 393.728,-48 487,-48 487,-48 487,-48 619.5,-48 702.707,-48 798.338,-61.2149 857.348,-70.9196"/>
<polygon fill="midnightblue" stroke="midnightblue" points="246.023,-70.9094 237.346,-76.9878 247.92,-77.6476 246.023,-70.9094"/>
</g>
<!-- Node18 -->
<g id="node11" class="node"><title>Node18</title>
<g id="a_node11"><a xlink:href="../../df/dd0/classinfra_1_1_json_iterator.html#ae3b34ea711511b26a00f08c17f53ecc1" target="_top" xlink:title="infra::JsonIterator\l::SearchArrayEnd">
<polygon fill="white" stroke="black" points="293.5,-126 293.5,-156 387.5,-156 387.5,-126 293.5,-126"/>
<text text-anchor="start" x="301.5" y="-144" font-family="Helvetica,sans-Serif" font-size="10.00">infra::JsonIterator</text>
<text text-anchor="middle" x="340.5" y="-133" font-family="Helvetica,sans-Serif" font-size="10.00">::SearchArrayEnd</text>
</a>
</g>
</g>
<!-- Node9&#45;&gt;Node18 -->
<g id="edge10" class="edge"><title>Node9&#45;&gt;Node18</title>
<path fill="none" stroke="midnightblue" d="M246.65,-110.259C262.26,-115.427 279.069,-120.992 294.038,-125.948"/>
<polygon fill="midnightblue" stroke="midnightblue" points="247.706,-106.922 237.113,-107.101 245.506,-113.567 247.706,-106.922"/>
</g>
<!-- Node20 -->
<g id="node13" class="node"><title>Node20</title>
<g id="a_node13"><a xlink:href="../../d0/de3/namespaceinfra.html#a0bf0e1b13a5554bab59232357b442701" target="_top" xlink:title="infra::CleanJsonContents">
<polygon fill="white" stroke="black" points="278,-0.5 278,-19.5 403,-19.5 403,-0.5 278,-0.5"/>
<text text-anchor="middle" x="340.5" y="-7.5" font-family="Helvetica,sans-Serif" font-size="10.00">infra::CleanJsonContents</text>
</a>
</g>
</g>
<!-- Node9&#45;&gt;Node20 -->
<g id="edge15" class="edge"><title>Node9&#45;&gt;Node20</title>
<path fill="none" stroke="midnightblue" d="M219.468,-70.9628C235.951,-59.155 257.529,-44.693 278,-34 288.464,-28.5343 300.463,-23.5817 311.068,-19.614"/>
<polygon fill="midnightblue" stroke="midnightblue" points="217.38,-68.1534 211.345,-76.8615 221.493,-73.8174 217.38,-68.1534"/>
</g>
<!-- Node11 -->
<g id="node4" class="node"><title>Node11</title>
<g id="a_node4"><a xlink:href="../../df/dd0/classinfra_1_1_json_iterator.html#a95bf1b7210594ae3d6a4615f1815b7ec" target="_top" xlink:title="infra::JsonIterator\l::ReadObjectValue">
<polygon fill="white" stroke="black" points="439,-77 439,-107 537,-107 537,-77 439,-77"/>
<text text-anchor="start" x="447" y="-95" font-family="Helvetica,sans-Serif" font-size="10.00">infra::JsonIterator</text>
<text text-anchor="middle" x="488" y="-84" font-family="Helvetica,sans-Serif" font-size="10.00">::ReadObjectValue</text>
</a>
</g>
</g>
<!-- Node10&#45;&gt;Node11 -->
<g id="edge3" class="edge"><title>Node10&#45;&gt;Node11</title>
<path fill="none" stroke="midnightblue" d="M400.363,-92C413.038,-92 426.296,-92 438.522,-92"/>
<polygon fill="midnightblue" stroke="midnightblue" points="400.354,-88.5001 390.354,-92 400.354,-95.5001 400.354,-88.5001"/>
</g>
<!-- Node12 -->
<g id="node5" class="node"><title>Node12</title>
<g id="a_node5"><a xlink:href="../../df/dd0/classinfra_1_1_json_iterator.html#a64881daeae1df6109b9de0a523ead550" target="_top" xlink:title="infra::JsonIterator\l::ConvertValue">
<polygon fill="white" stroke="black" points="573,-101 573,-131 664,-131 664,-101 573,-101"/>
<text text-anchor="start" x="581" y="-119" font-family="Helvetica,sans-Serif" font-size="10.00">infra::JsonIterator</text>
<text text-anchor="middle" x="618.5" y="-108" font-family="Helvetica,sans-Serif" font-size="10.00">::ConvertValue</text>
</a>
</g>
</g>
<!-- Node11&#45;&gt;Node12 -->
<g id="edge4" class="edge"><title>Node11&#45;&gt;Node12</title>
<path fill="none" stroke="midnightblue" d="M547.211,-102.872C555.815,-104.479 564.565,-106.113 572.836,-107.658"/>
<polygon fill="midnightblue" stroke="midnightblue" points="547.687,-99.4005 537.214,-101.005 546.402,-106.282 547.687,-99.4005"/>
</g>
<!-- Node13 -->
<g id="node6" class="node"><title>Node13</title>
<g id="a_node6"><a xlink:href="../../dd/d2a/classinfra_1_1_json_object_iterator.html#a44bd40e5f060140d1825eac9864bb371" target="_top" xlink:title="infra::JsonObjectIterator\l::ReadValue">
<polygon fill="white" stroke="black" points="700,-126 700,-156 819,-156 819,-126 700,-126"/>
<text text-anchor="start" x="708" y="-144" font-family="Helvetica,sans-Serif" font-size="10.00">infra::JsonObjectIterator</text>
<text text-anchor="middle" x="759.5" y="-133" font-family="Helvetica,sans-Serif" font-size="10.00">::ReadValue</text>
</a>
</g>
</g>
<!-- Node12&#45;&gt;Node13 -->
<g id="edge5" class="edge"><title>Node12&#45;&gt;Node13</title>
<path fill="none" stroke="midnightblue" d="M674.306,-125.857C682.705,-127.368 691.403,-128.932 699.88,-130.457"/>
<polygon fill="midnightblue" stroke="midnightblue" points="674.707,-122.373 664.246,-124.048 673.468,-129.263 674.707,-122.373"/>
</g>
<!-- Node16 -->
<g id="node9" class="node"><title>Node16</title>
<g id="a_node9"><a xlink:href="../../d8/ddc/classinfra_1_1_json_array_iterator.html#a5f9b30fbc98817ad106c0b731c51393f" target="_top" xlink:title="infra::JsonArrayIterator\l::ReadValue">
<polygon fill="white" stroke="black" points="702.5,-77 702.5,-107 816.5,-107 816.5,-77 702.5,-77"/>
<text text-anchor="start" x="710.5" y="-95" font-family="Helvetica,sans-Serif" font-size="10.00">infra::JsonArrayIterator</text>
<text text-anchor="middle" x="759.5" y="-84" font-family="Helvetica,sans-Serif" font-size="10.00">::ReadValue</text>
</a>
</g>
</g>
<!-- Node12&#45;&gt;Node16 -->
<g id="edge8" class="edge"><title>Node12&#45;&gt;Node16</title>
<path fill="none" stroke="midnightblue" d="M674.362,-106.527C683.487,-104.952 692.965,-103.315 702.126,-101.734"/>
<polygon fill="midnightblue" stroke="midnightblue" points="673.504,-103.124 664.246,-108.274 674.695,-110.022 673.504,-103.124"/>
</g>
<!-- Node13&#45;&gt;Node14 -->
<g id="edge6" class="edge"><title>Node13&#45;&gt;Node14</title>
<path fill="none" stroke="midnightblue" d="M829.213,-145.94C837.803,-146.558 846.525,-147.185 854.941,-147.79"/>
<polygon fill="midnightblue" stroke="midnightblue" points="829.441,-142.448 819.216,-145.221 828.939,-149.43 829.441,-142.448"/>
</g>
<!-- Node15 -->
<g id="node8" class="node"><title>Node15</title>
<g id="a_node8"><a xlink:href="../../dd/d2a/classinfra_1_1_json_object_iterator.html#a5da85e17d711d0e3fb813e1cabb4e6b4" target="_top" xlink:title="infra::JsonObjectIterator\l::operator++">
<polygon fill="white" stroke="black" points="1010,-137 1010,-167 1129,-167 1129,-137 1010,-137"/>
<text text-anchor="start" x="1018" y="-155" font-family="Helvetica,sans-Serif" font-size="10.00">infra::JsonObjectIterator</text>
<text text-anchor="middle" x="1069.5" y="-144" font-family="Helvetica,sans-Serif" font-size="10.00">::operator++</text>
</a>
</g>
</g>
<!-- Node14&#45;&gt;Node15 -->
<g id="edge7" class="edge"><title>Node14&#45;&gt;Node15</title>
<path fill="none" stroke="midnightblue" d="M984.493,-152C992.993,-152 1001.62,-152 1009.94,-152"/>
<polygon fill="midnightblue" stroke="midnightblue" points="984.216,-148.5 974.216,-152 984.216,-155.5 984.216,-148.5"/>
</g>
<!-- Node16&#45;&gt;Node17 -->
<g id="edge9" class="edge"><title>Node16&#45;&gt;Node17</title>
<path fill="none" stroke="midnightblue" d="M826.72,-87.2391C836.948,-86.5037 847.426,-85.7504 857.404,-85.033"/>
<polygon fill="midnightblue" stroke="midnightblue" points="826.326,-83.7583 816.603,-87.9665 826.828,-90.7403 826.326,-83.7583"/>
</g>
<!-- Node19 -->
<g id="node12" class="node"><title>Node19</title>
<g id="a_node12"><a xlink:href="../../df/dd0/classinfra_1_1_json_iterator.html#a5cbc18726700531f5f5e28ccca321d87" target="_top" xlink:title="infra::JsonIterator\l::ReadArrayValue">
<polygon fill="white" stroke="black" points="441.5,-126 441.5,-156 534.5,-156 534.5,-126 441.5,-126"/>
<text text-anchor="start" x="449.5" y="-144" font-family="Helvetica,sans-Serif" font-size="10.00">infra::JsonIterator</text>
<text text-anchor="middle" x="488" y="-133" font-family="Helvetica,sans-Serif" font-size="10.00">::ReadArrayValue</text>
</a>
</g>
</g>
<!-- Node18&#45;&gt;Node19 -->
<g id="edge11" class="edge"><title>Node18&#45;&gt;Node19</title>
<path fill="none" stroke="midnightblue" d="M397.815,-141C412.197,-141 427.483,-141 441.262,-141"/>
<polygon fill="midnightblue" stroke="midnightblue" points="397.537,-137.5 387.537,-141 397.537,-144.5 397.537,-137.5"/>
</g>
<!-- Node19&#45;&gt;Node12 -->
<g id="edge12" class="edge"><title>Node19&#45;&gt;Node12</title>
<path fill="none" stroke="midnightblue" d="M544.729,-130.158C554.128,-128.329 563.774,-126.453 572.844,-124.688"/>
<polygon fill="midnightblue" stroke="midnightblue" points="543.814,-126.77 534.666,-132.116 545.15,-133.641 543.814,-126.77"/>
</g>
</g>
</svg>
