<?xml version="1.0" encoding="UTF-8" standalone="no"?>
<!DOCTYPE svg PUBLIC "-//W3C//DTD SVG 1.1//EN"
 "http://www.w3.org/Graphics/SVG/1.1/DTD/svg11.dtd">
<!-- Generated by graphviz version 2.38.0 (20140413.2041)
 -->
<!-- Title: infra::JsonTokenizer::Token Pages: 1 -->
<svg width="437pt" height="225pt"
 viewBox="0.00 0.00 437.00 225.00" xmlns="http://www.w3.org/2000/svg" xmlns:xlink="http://www.w3.org/1999/xlink">
<g id="graph0" class="graph" transform="scale(1 1) rotate(0) translate(4 221)">
<title>infra::JsonTokenizer::Token</title>
<polygon fill="white" stroke="none" points="-4,4 -4,-221 433,-221 433,4 -4,4"/>
<!-- Node21 -->
<g id="node1" class="node"><title>Node21</title>
<polygon fill="#bfbfbf" stroke="black" points="0,-98.5 0,-128.5 103,-128.5 103,-98.5 0,-98.5"/>
<text text-anchor="start" x="8" y="-116.5" font-family="Helvetica,sans-Serif" font-size="10.00">infra::JsonTokenizer</text>
<text text-anchor="middle" x="51.5" y="-105.5" font-family="Helvetica,sans-Serif" font-size="10.00">::Token</text>
</g>
<!-- Node22 -->
<g id="node2" class="node"><title>Node22</title>
<g id="a_node2"><a xlink:href="../../d1/d2a/classinfra_1_1_bounded_string_base.html#aab36b8eaee21d6ab3be734e07f499382" target="_top" xlink:title="infra::BoundedStringBase\l::size">
<polygon fill="white" stroke="black" points="302,-98.5 302,-128.5 429,-128.5 429,-98.5 302,-98.5"/>
<text text-anchor="start" x="310" y="-116.5" font-family="Helvetica,sans-Serif" font-size="10.00">infra::BoundedStringBase</text>
<text text-anchor="middle" x="365.5" y="-105.5" font-family="Helvetica,sans-Serif" font-size="10.00">::size</text>
</a>
</g>
</g>
<!-- Node21&#45;&gt;Node22 -->
<g id="edge1" class="edge"><title>Node21&#45;&gt;Node22</title>
<path fill="none" stroke="midnightblue" d="M95.5405,-128.52C109.254,-132.605 124.606,-136.462 139,-138.5 194.887,-146.414 209.991,-145.497 266,-138.5 278.974,-136.879 292.691,-134.102 305.634,-130.973"/>
<polygon fill="midnightblue" stroke="midnightblue" points="306.512,-134.361 315.355,-128.525 304.803,-127.573 306.512,-134.361"/>
</g>
<!-- Node23 -->
<g id="node3" class="node"><title>Node23</title>
<g id="a_node3"><a xlink:href="../../d3/d5c/classinfra_1_1_json_tokenizer.html#acfe1cf5bc676fd35b038e1b604756165" target="_top" xlink:title="infra::JsonTokenizer\l::SkipWhitespace">
<polygon fill="white" stroke="black" points="151,-186.5 151,-216.5 254,-216.5 254,-186.5 151,-186.5"/>
<text text-anchor="start" x="159" y="-204.5" font-family="Helvetica,sans-Serif" font-size="10.00">infra::JsonTokenizer</text>
<text text-anchor="middle" x="202.5" y="-193.5" font-family="Helvetica,sans-Serif" font-size="10.00">::SkipWhitespace</text>
</a>
</g>
</g>
<!-- Node21&#45;&gt;Node23 -->
<g id="edge2" class="edge"><title>Node21&#45;&gt;Node23</title>
<path fill="none" stroke="midnightblue" d="M73.29,-128.67C90.4851,-140.914 115.765,-158.225 139,-171.5 145.323,-175.112 152.147,-178.693 158.884,-182.055"/>
<polygon fill="midnightblue" stroke="midnightblue" points="157.438,-185.244 167.96,-186.486 160.51,-178.954 157.438,-185.244"/>
</g>
<!-- Node24 -->
<g id="node4" class="node"><title>Node24</title>
<g id="a_node4"><a xlink:href="../../d3/d5c/classinfra_1_1_json_tokenizer.html#a7fde4788359094c8ac575d0aea08a33b" target="_top" xlink:title="infra::JsonTokenizer\l::TryCreateIdentifierToken">
<polygon fill="white" stroke="black" points="139,-98.5 139,-128.5 266,-128.5 266,-98.5 139,-98.5"/>
<text text-anchor="start" x="147" y="-116.5" font-family="Helvetica,sans-Serif" font-size="10.00">infra::JsonTokenizer</text>
<text text-anchor="middle" x="202.5" y="-105.5" font-family="Helvetica,sans-Serif" font-size="10.00">::TryCreateIdentifierToken</text>
</a>
</g>
</g>
<!-- Node21&#45;&gt;Node24 -->
<g id="edge4" class="edge"><title>Node21&#45;&gt;Node24</title>
<path fill="none" stroke="midnightblue" d="M103.361,-113.5C111.541,-113.5 120.145,-113.5 128.719,-113.5"/>
<polygon fill="midnightblue" stroke="midnightblue" points="128.743,-117 138.743,-113.5 128.743,-110 128.743,-117"/>
</g>
<!-- Node26 -->
<g id="node6" class="node"><title>Node26</title>
<g id="a_node6"><a xlink:href="../../d3/d5c/classinfra_1_1_json_tokenizer.html#a4203f4a0d1a65b20672053d7a4e5b8be" target="_top" xlink:title="infra::JsonTokenizer\l::TryCreateIntegerToken">
<polygon fill="white" stroke="black" points="142.5,-49.5 142.5,-79.5 262.5,-79.5 262.5,-49.5 142.5,-49.5"/>
<text text-anchor="start" x="150.5" y="-67.5" font-family="Helvetica,sans-Serif" font-size="10.00">infra::JsonTokenizer</text>
<text text-anchor="middle" x="202.5" y="-56.5" font-family="Helvetica,sans-Serif" font-size="10.00">::TryCreateIntegerToken</text>
</a>
</g>
</g>
<!-- Node21&#45;&gt;Node26 -->
<g id="edge7" class="edge"><title>Node21&#45;&gt;Node26</title>
<path fill="none" stroke="midnightblue" d="M98.4207,-98.3986C113.503,-93.4385 130.428,-87.8726 146.136,-82.7071"/>
<polygon fill="midnightblue" stroke="midnightblue" points="147.325,-86.0005 155.731,-79.5516 145.138,-79.3508 147.325,-86.0005"/>
</g>
<!-- Node27 -->
<g id="node7" class="node"><title>Node27</title>
<g id="a_node7"><a xlink:href="../../d3/d5c/classinfra_1_1_json_tokenizer.html#a6b99af199f5f080d408375a0f23ac32c" target="_top" xlink:title="infra::JsonTokenizer\l::TryCreateStringToken">
<polygon fill="white" stroke="black" points="144.5,-0.5 144.5,-30.5 260.5,-30.5 260.5,-0.5 144.5,-0.5"/>
<text text-anchor="start" x="152.5" y="-18.5" font-family="Helvetica,sans-Serif" font-size="10.00">infra::JsonTokenizer</text>
<text text-anchor="middle" x="202.5" y="-7.5" font-family="Helvetica,sans-Serif" font-size="10.00">::TryCreateStringToken</text>
</a>
</g>
</g>
<!-- Node21&#45;&gt;Node27 -->
<g id="edge10" class="edge"><title>Node21&#45;&gt;Node27</title>
<path fill="none" stroke="midnightblue" d="M66.8991,-98.4213C83.1482,-82.1036 110.984,-56.1857 139,-39.5 141.66,-37.9155 144.444,-36.401 147.296,-34.9588"/>
<polygon fill="midnightblue" stroke="midnightblue" points="149.009,-38.0215 156.573,-30.603 146.033,-31.6852 149.009,-38.0215"/>
</g>
<!-- Node23&#45;&gt;Node22 -->
<g id="edge3" class="edge"><title>Node23&#45;&gt;Node22</title>
<path fill="none" stroke="midnightblue" d="M236.2,-186.445C245.879,-181.817 256.441,-176.596 266,-171.5 288.222,-159.651 312.617,-145.297 331.57,-133.833"/>
<polygon fill="midnightblue" stroke="midnightblue" points="333.409,-136.812 340.135,-128.626 329.773,-130.83 333.409,-136.812"/>
</g>
<!-- Node24&#45;&gt;Node22 -->
<g id="edge5" class="edge"><title>Node24&#45;&gt;Node22</title>
<path fill="none" stroke="midnightblue" d="M266.208,-113.5C274.648,-113.5 283.363,-113.5 291.956,-113.5"/>
<polygon fill="midnightblue" stroke="midnightblue" points="291.963,-117 301.963,-113.5 291.963,-110 291.963,-117"/>
</g>
<!-- Node25 -->
<g id="node5" class="node"><title>Node25</title>
<g id="a_node5"><a xlink:href="../../d1/d2a/classinfra_1_1_bounded_string_base.html#a46ec1a3a673136ace03af8c6ec94aa89" target="_top" xlink:title="infra::BoundedStringBase\l::substr">
<polygon fill="white" stroke="black" points="302,-49.5 302,-79.5 429,-79.5 429,-49.5 302,-49.5"/>
<text text-anchor="start" x="310" y="-67.5" font-family="Helvetica,sans-Serif" font-size="10.00">infra::BoundedStringBase</text>
<text text-anchor="middle" x="365.5" y="-56.5" font-family="Helvetica,sans-Serif" font-size="10.00">::substr</text>
</a>
</g>
</g>
<!-- Node24&#45;&gt;Node25 -->
<g id="edge6" class="edge"><title>Node24&#45;&gt;Node25</title>
<path fill="none" stroke="midnightblue" d="M253.119,-98.3986C269.57,-93.3917 288.049,-87.7676 305.157,-82.561"/>
<polygon fill="midnightblue" stroke="midnightblue" points="306.497,-85.8116 315.045,-79.5516 304.459,-79.1149 306.497,-85.8116"/>
</g>
<!-- Node26&#45;&gt;Node22 -->
<g id="edge8" class="edge"><title>Node26&#45;&gt;Node22</title>
<path fill="none" stroke="midnightblue" d="M253.119,-79.6014C269.57,-84.6083 288.049,-90.2324 305.157,-95.439"/>
<polygon fill="midnightblue" stroke="midnightblue" points="304.459,-98.8851 315.045,-98.4484 306.497,-92.1884 304.459,-98.8851"/>
</g>
<!-- Node26&#45;&gt;Node25 -->
<g id="edge9" class="edge"><title>Node26&#45;&gt;Node25</title>
<path fill="none" stroke="midnightblue" d="M262.536,-64.5C272.061,-64.5 282.018,-64.5 291.82,-64.5"/>
<polygon fill="midnightblue" stroke="midnightblue" points="291.953,-68.0001 301.953,-64.5 291.952,-61.0001 291.953,-68.0001"/>
</g>
<!-- Node27&#45;&gt;Node22 -->
<g id="edge11" class="edge"><title>Node27&#45;&gt;Node22</title>
<path fill="none" stroke="midnightblue" d="M251.481,-30.5394C256.622,-33.1213 261.581,-36.0939 266,-39.5 287.688,-56.2176 280.312,-72.7824 302,-89.5 303.795,-90.8837 305.679,-92.1959 307.629,-93.4394"/>
<polygon fill="midnightblue" stroke="midnightblue" points="306.091,-96.5902 316.519,-98.4606 309.533,-90.4952 306.091,-96.5902"/>
</g>
<!-- Node27&#45;&gt;Node25 -->
<g id="edge12" class="edge"><title>Node27&#45;&gt;Node25</title>
<path fill="none" stroke="midnightblue" d="M253.119,-30.6014C269.57,-35.6083 288.049,-41.2324 305.157,-46.439"/>
<polygon fill="midnightblue" stroke="midnightblue" points="304.459,-49.8851 315.045,-49.4484 306.497,-43.1884 304.459,-49.8851"/>
</g>
</g>
</svg>
