<?xml version="1.0" encoding="UTF-8" standalone="no"?>
<!DOCTYPE svg PUBLIC "-//W3C//DTD SVG 1.1//EN"
 "http://www.w3.org/Graphics/SVG/1.1/DTD/svg11.dtd">
<!-- Generated by graphviz version 2.38.0 (20140413.2041)
 -->
<!-- Title: infra::EventDispatcherWithWeakPtrConnector&lt; T &gt; Pages: 1 -->
<svg width="370pt" height="127pt"
 viewBox="0.00 0.00 370.00 126.50" xmlns="http://www.w3.org/2000/svg" xmlns:xlink="http://www.w3.org/1999/xlink">
<g id="graph0" class="graph" transform="scale(1 1) rotate(0) translate(4 122.5)">
<title>infra::EventDispatcherWithWeakPtrConnector&lt; T &gt;</title>
<polygon fill="white" stroke="none" points="-4,4 -4,-122.5 366,-122.5 366,4 -4,4"/>
<!-- Node0 -->
<g id="node1" class="node"><title>Node0</title>
<polygon fill="#bfbfbf" stroke="black" points="231,-39 231,-69 362,-69 362,-39 231,-39"/>
<text text-anchor="start" x="239" y="-57" font-family="Helvetica,sans-Serif" font-size="10.00">infra::EventDispatcherWith</text>
<text text-anchor="middle" x="296.5" y="-46" font-family="Helvetica,sans-Serif" font-size="10.00">WeakPtrConnector&lt; T &gt;</text>
</g>
<!-- Node1 -->
<g id="node2" class="node"><title>Node1</title>
<g id="a_node2"><a xlink:href="../../d3/d0e/classinfra_1_1_interface_connector.html" target="_top" xlink:title="infra::InterfaceConnector\l\&lt; EventDispatcherWorker \&gt;">
<polygon fill="white" stroke="black" points="29,-88 29,-118 166,-118 166,-88 29,-88"/>
<text text-anchor="start" x="37" y="-106" font-family="Helvetica,sans-Serif" font-size="10.00">infra::InterfaceConnector</text>
<text text-anchor="middle" x="97.5" y="-95" font-family="Helvetica,sans-Serif" font-size="10.00">&lt; EventDispatcherWorker &gt;</text>
</a>
</g>
</g>
<!-- Node1&#45;&gt;Node0 -->
<g id="edge1" class="edge"><title>Node1&#45;&gt;Node0</title>
<path fill="none" stroke="midnightblue" d="M168.764,-85.5232C190.477,-80.1225 214.189,-74.2245 235.169,-69.0062"/>
<polygon fill="midnightblue" stroke="midnightblue" points="167.805,-82.155 158.945,-87.9654 169.494,-88.9481 167.805,-82.155"/>
</g>
<!-- Node2 -->
<g id="node3" class="node"><title>Node2</title>
<g id="a_node3"><a xlink:href="../../d3/d0e/classinfra_1_1_interface_connector.html" target="_top" xlink:title="infra::InterfaceConnector\l\&lt; EventDispatcherWithWeakPtrWorker \&gt;">
<polygon fill="white" stroke="black" points="0,-39 0,-69 195,-69 195,-39 0,-39"/>
<text text-anchor="start" x="8" y="-57" font-family="Helvetica,sans-Serif" font-size="10.00">infra::InterfaceConnector</text>
<text text-anchor="middle" x="97.5" y="-46" font-family="Helvetica,sans-Serif" font-size="10.00">&lt; EventDispatcherWithWeakPtrWorker &gt;</text>
</a>
</g>
</g>
<!-- Node2&#45;&gt;Node0 -->
<g id="edge2" class="edge"><title>Node2&#45;&gt;Node0</title>
<path fill="none" stroke="midnightblue" d="M205.441,-54C214.086,-54 222.644,-54 230.846,-54"/>
<polygon fill="midnightblue" stroke="midnightblue" points="205.269,-50.5001 195.269,-54 205.269,-57.5001 205.269,-50.5001"/>
</g>
<!-- Node3 -->
<g id="node4" class="node"><title>Node3</title>
<g id="a_node4"><a xlink:href="../../d3/dee/class_t.html" target="_top" xlink:title="T">
<polygon fill="white" stroke="black" points="83,-0.5 83,-19.5 112,-19.5 112,-0.5 83,-0.5"/>
<text text-anchor="middle" x="97.5" y="-7.5" font-family="Helvetica,sans-Serif" font-size="10.00">T</text>
</a>
</g>
</g>
<!-- Node3&#45;&gt;Node0 -->
<g id="edge3" class="edge"><title>Node3&#45;&gt;Node0</title>
<path fill="none" stroke="midnightblue" d="M122.139,-14.6931C141.702,-18.6263 170.201,-24.4705 195,-30 207.606,-32.8109 221.071,-35.9391 233.915,-38.9838"/>
<polygon fill="midnightblue" stroke="midnightblue" points="122.763,-11.2486 112.271,-12.7187 121.39,-18.1126 122.763,-11.2486"/>
</g>
</g>
</svg>
