<?xml version="1.0" encoding="UTF-8" standalone="no"?>
<!DOCTYPE svg PUBLIC "-//W3C//DTD SVG 1.1//EN"
 "http://www.w3.org/Graphics/SVG/1.1/DTD/svg11.dtd">
<!-- Generated by graphviz version 2.38.0 (20140413.2041)
 -->
<!-- Title: infra::detail::SharedPtrControl Pages: 1 -->
<svg width="163pt" height="117pt"
 viewBox="0.00 0.00 163.00 117.00" xmlns="http://www.w3.org/2000/svg" xmlns:xlink="http://www.w3.org/1999/xlink">
<g id="graph0" class="graph" transform="scale(1 1) rotate(0) translate(4 113)">
<title>infra::detail::SharedPtrControl</title>
<polygon fill="white" stroke="none" points="-4,4 -4,-113 159,-113 159,4 -4,4"/>
<!-- Node0 -->
<g id="node1" class="node"><title>Node0</title>
<polygon fill="#bfbfbf" stroke="black" points="21,-78.5 21,-108.5 134,-108.5 134,-78.5 21,-78.5"/>
<text text-anchor="start" x="29" y="-96.5" font-family="Helvetica,sans-Serif" font-size="10.00">infra::detail::SharedPtr</text>
<text text-anchor="middle" x="77.5" y="-85.5" font-family="Helvetica,sans-Serif" font-size="10.00">Control</text>
</g>
<!-- Node1 -->
<g id="node2" class="node"><title>Node1</title>
<g id="a_node2"><a xlink:href="../../d1/dce/structinfra_1_1_shared_object_allocator_fixed_size_3_01_t_00_01void_07_construction_args_8_8_8_08_4_1_1_node.html" target="_top" xlink:title="infra::SharedObjectAllocator\lFixedSize\&lt; T, void(Construction\lArgs...)\&gt;::Node">
<polygon fill="white" stroke="black" points="0,-0.5 0,-41.5 155,-41.5 155,-0.5 0,-0.5"/>
<text text-anchor="start" x="8" y="-29.5" font-family="Helvetica,sans-Serif" font-size="10.00">infra::SharedObjectAllocator</text>
<text text-anchor="start" x="8" y="-18.5" font-family="Helvetica,sans-Serif" font-size="10.00">FixedSize&lt; T, void(Construction</text>
<text text-anchor="middle" x="77.5" y="-7.5" font-family="Helvetica,sans-Serif" font-size="10.00">Args...)&gt;::Node</text>
</a>
</g>
</g>
<!-- Node0&#45;&gt;Node1 -->
<g id="edge1" class="edge"><title>Node0&#45;&gt;Node1</title>
<path fill="none" stroke="midnightblue" d="M77.5,-67.9815C77.5,-59.3468 77.5,-49.7625 77.5,-41.5884"/>
<polygon fill="midnightblue" stroke="midnightblue" points="74.0001,-68.2332 77.5,-78.2333 81.0001,-68.2333 74.0001,-68.2332"/>
</g>
</g>
</svg>
