<?xml version="1.0" encoding="UTF-8" standalone="no"?>
<!DOCTYPE svg PUBLIC "-//W3C//DTD SVG 1.1//EN"
 "http://www.w3.org/Graphics/SVG/1.1/DTD/svg11.dtd">
<!-- Generated by graphviz version 2.38.0 (20140413.2041)
 -->
<!-- Title: services::StreamEchoConnection::TryRequestSendStream Pages: 1 -->
<svg width="321pt" height="50pt"
 viewBox="0.00 0.00 321.00 50.00" xmlns="http://www.w3.org/2000/svg" xmlns:xlink="http://www.w3.org/1999/xlink">
<g id="graph0" class="graph" transform="scale(1 1) rotate(0) translate(4 46)">
<title>services::StreamEchoConnection::TryRequestSendStream</title>
<polygon fill="white" stroke="none" points="-4,4 -4,-46 317,-46 317,4 -4,4"/>
<!-- Node15 -->
<g id="node1" class="node"><title>Node15</title>
<polygon fill="#bfbfbf" stroke="black" points="0,-6 0,-36 161,-36 161,-6 0,-6"/>
<text text-anchor="start" x="8" y="-24" font-family="Helvetica,sans-Serif" font-size="10.00">services::StreamEchoConnection</text>
<text text-anchor="middle" x="80.5" y="-13" font-family="Helvetica,sans-Serif" font-size="10.00">::TryRequestSendStream</text>
</g>
<!-- Node16 -->
<g id="node2" class="node"><title>Node16</title>
<g id="a_node2"><a xlink:href="../../dc/d4c/classinfra_1_1_single_observer.html#abb13c69cc61182baf350ff1736fa772e" target="_top" xlink:title="infra::SingleObserver\l\&lt; ConnectionObserver,\l Connection \&gt;::Subject">
<polygon fill="white" stroke="black" points="197,-0.5 197,-41.5 313,-41.5 313,-0.5 197,-0.5"/>
<text text-anchor="start" x="205" y="-29.5" font-family="Helvetica,sans-Serif" font-size="10.00">infra::SingleObserver</text>
<text text-anchor="start" x="205" y="-18.5" font-family="Helvetica,sans-Serif" font-size="10.00">&lt; ConnectionObserver,</text>
<text text-anchor="middle" x="255" y="-7.5" font-family="Helvetica,sans-Serif" font-size="10.00"> Connection &gt;::Subject</text>
</a>
</g>
</g>
<!-- Node15&#45;&gt;Node16 -->
<g id="edge1" class="edge"><title>Node15&#45;&gt;Node16</title>
<path fill="none" stroke="midnightblue" d="M161.186,-21C169.721,-21 178.343,-21 186.714,-21"/>
<polygon fill="midnightblue" stroke="midnightblue" points="186.777,-24.5001 196.777,-21 186.777,-17.5001 186.777,-24.5001"/>
</g>
</g>
</svg>
