<?xml version="1.0" encoding="UTF-8" standalone="no"?>
<!DOCTYPE svg PUBLIC "-//W3C//DTD SVG 1.1//EN"
 "http://www.w3.org/Graphics/SVG/1.1/DTD/svg11.dtd">
<!-- Generated by graphviz version 2.38.0 (20140413.2041)
 -->
<!-- Title: hal::GpioPin Pages: 1 -->
<svg width="234pt" height="84pt"
 viewBox="0.00 0.00 234.00 84.00" xmlns="http://www.w3.org/2000/svg" xmlns:xlink="http://www.w3.org/1999/xlink">
<g id="graph0" class="graph" transform="scale(1 1) rotate(0) translate(4 80)">
<title>hal::GpioPin</title>
<polygon fill="white" stroke="none" points="-4,4 -4,-80 230,-80 230,4 -4,4"/>
<!-- Node0 -->
<g id="node1" class="node"><title>Node0</title>
<polygon fill="#bfbfbf" stroke="black" points="67.5,-56.5 67.5,-75.5 137.5,-75.5 137.5,-56.5 67.5,-56.5"/>
<text text-anchor="middle" x="102.5" y="-63.5" font-family="Helvetica,sans-Serif" font-size="10.00">hal::GpioPin</text>
</g>
<!-- Node1 -->
<g id="node2" class="node"><title>Node1</title>
<g id="a_node2"><a xlink:href="../../d1/d19/classhal_1_1_dummy_pin.html" target="_top" xlink:title="hal::DummyPin">
<polygon fill="white" stroke="black" points="0,-0.5 0,-19.5 83,-19.5 83,-0.5 0,-0.5"/>
<text text-anchor="middle" x="41.5" y="-7.5" font-family="Helvetica,sans-Serif" font-size="10.00">hal::DummyPin</text>
</a>
</g>
</g>
<!-- Node0&#45;&gt;Node1 -->
<g id="edge1" class="edge"><title>Node0&#45;&gt;Node1</title>
<path fill="none" stroke="midnightblue" d="M85.0328,-49.5372C74.1562,-39.9087 60.5561,-27.8694 51.479,-19.8339"/>
<polygon fill="midnightblue" stroke="midnightblue" points="82.8917,-52.3162 92.6993,-56.324 87.5316,-47.0749 82.8917,-52.3162"/>
</g>
<!-- Node2 -->
<g id="node3" class="node"><title>Node2</title>
<g id="a_node3"><a xlink:href="../../d5/d1f/classservices_1_1_gpio_pin_inverted.html" target="_top" xlink:title="services::GpioPinInverted">
<polygon fill="white" stroke="black" points="101,-0.5 101,-19.5 226,-19.5 226,-0.5 101,-0.5"/>
<text text-anchor="middle" x="163.5" y="-7.5" font-family="Helvetica,sans-Serif" font-size="10.00">services::GpioPinInverted</text>
</a>
</g>
</g>
<!-- Node0&#45;&gt;Node2 -->
<g id="edge2" class="edge"><title>Node0&#45;&gt;Node2</title>
<path fill="none" stroke="midnightblue" d="M119.967,-49.5372C130.844,-39.9087 144.444,-27.8694 153.521,-19.8339"/>
<polygon fill="midnightblue" stroke="midnightblue" points="117.468,-47.0749 112.301,-56.324 122.108,-52.3162 117.468,-47.0749"/>
</g>
</g>
</svg>
