<?xml version="1.0" encoding="UTF-8" standalone="no"?>
<!DOCTYPE svg PUBLIC "-//W3C//DTD SVG 1.1//EN"
 "http://www.w3.org/Graphics/SVG/1.1/DTD/svg11.dtd">
<!-- Generated by graphviz version 2.38.0 (20140413.2041)
 -->
<!-- Title: services::HttpResponseHeaderBuilder::AddHeader Pages: 1 -->
<svg width="1638pt" height="127pt"
 viewBox="0.00 0.00 1638.00 127.00" xmlns="http://www.w3.org/2000/svg" xmlns:xlink="http://www.w3.org/1999/xlink">
<g id="graph0" class="graph" transform="scale(1 1) rotate(0) translate(4 123)">
<title>services::HttpResponseHeaderBuilder::AddHeader</title>
<polygon fill="white" stroke="none" points="-4,4 -4,-123 1634,-123 1634,4 -4,4"/>
<!-- Node5 -->
<g id="node1" class="node"><title>Node5</title>
<polygon fill="#bfbfbf" stroke="black" points="0,-44.5 0,-74.5 150,-74.5 150,-44.5 0,-44.5"/>
<text text-anchor="start" x="8" y="-62.5" font-family="Helvetica,sans-Serif" font-size="10.00">services::HttpResponseHeader</text>
<text text-anchor="middle" x="75" y="-51.5" font-family="Helvetica,sans-Serif" font-size="10.00">Builder::AddHeader</text>
</g>
<!-- Node6 -->
<g id="node2" class="node"><title>Node6</title>
<g id="a_node2"><a xlink:href="../../d9/dce/classservices_1_1_http_response.html#a2bdfd05b582453e0ba050dfa18009be7" target="_top" xlink:title="services::HttpResponse\l::WriteResponse">
<polygon fill="white" stroke="black" points="186,-44.5 186,-74.5 305,-74.5 305,-44.5 186,-44.5"/>
<text text-anchor="start" x="194" y="-62.5" font-family="Helvetica,sans-Serif" font-size="10.00">services::HttpResponse</text>
<text text-anchor="middle" x="245.5" y="-51.5" font-family="Helvetica,sans-Serif" font-size="10.00">::WriteResponse</text>
</a>
</g>
</g>
<!-- Node5&#45;&gt;Node6 -->
<g id="edge1" class="edge"><title>Node5&#45;&gt;Node6</title>
<path fill="none" stroke="midnightblue" d="M160.481,-59.5C169.088,-59.5 177.691,-59.5 185.933,-59.5"/>
<polygon fill="midnightblue" stroke="midnightblue" points="160.397,-56.0001 150.397,-59.5 160.397,-63.0001 160.397,-56.0001"/>
</g>
<!-- Node7 -->
<g id="node3" class="node"><title>Node7</title>
<g id="a_node3"><a xlink:href="../../d2/db3/classservices_1_1_http_server_connection_observer.html#a48786ed298c958e0c90a861ab09f01b2" target="_top" xlink:title="services::HttpServerConnection\lObserver::SendResponse">
<polygon fill="white" stroke="black" points="341,-44.5 341,-74.5 493,-74.5 493,-44.5 341,-44.5"/>
<text text-anchor="start" x="349" y="-62.5" font-family="Helvetica,sans-Serif" font-size="10.00">services::HttpServerConnection</text>
<text text-anchor="middle" x="417" y="-51.5" font-family="Helvetica,sans-Serif" font-size="10.00">Observer::SendResponse</text>
</a>
</g>
</g>
<!-- Node6&#45;&gt;Node7 -->
<g id="edge2" class="edge"><title>Node6&#45;&gt;Node7</title>
<path fill="none" stroke="midnightblue" d="M315.41,-59.5C323.799,-59.5 332.403,-59.5 340.876,-59.5"/>
<polygon fill="midnightblue" stroke="midnightblue" points="315.307,-56.0001 305.307,-59.5 315.307,-63.0001 315.307,-56.0001"/>
</g>
<!-- Node8 -->
<g id="node4" class="node"><title>Node8</title>
<g id="a_node4"><a xlink:href="../../d2/db3/classservices_1_1_http_server_connection_observer.html#afd24d585e0b90fc44643244b0712f92f" target="_top" xlink:title="services::HttpServerConnection\lObserver::ReceivedTooMuchData">
<polygon fill="white" stroke="black" points="717,-88.5 717,-118.5 877,-118.5 877,-88.5 717,-88.5"/>
<text text-anchor="start" x="725" y="-106.5" font-family="Helvetica,sans-Serif" font-size="10.00">services::HttpServerConnection</text>
<text text-anchor="middle" x="797" y="-95.5" font-family="Helvetica,sans-Serif" font-size="10.00">Observer::ReceivedTooMuchData</text>
</a>
</g>
</g>
<!-- Node7&#45;&gt;Node8 -->
<g id="edge3" class="edge"><title>Node7&#45;&gt;Node8</title>
<path fill="none" stroke="midnightblue" d="M503.358,-70.3847C512.017,-71.4533 520.683,-72.5082 529,-73.5 592.108,-81.0248 663.672,-89.0378 716.815,-94.8877"/>
<polygon fill="midnightblue" stroke="midnightblue" points="503.571,-66.8844 493.216,-69.1269 502.709,-73.8311 503.571,-66.8844"/>
</g>
<!-- Node11 -->
<g id="node7" class="node"><title>Node11</title>
<g id="a_node7"><a xlink:href="../../d2/db3/classservices_1_1_http_server_connection_observer.html#a54d34389a1f80059a349bfb5b5f273dc" target="_top" xlink:title="services::HttpServerConnection\lObserver::TryHandleRequest">
<polygon fill="white" stroke="black" points="913,-44.5 913,-74.5 1065,-74.5 1065,-44.5 913,-44.5"/>
<text text-anchor="start" x="921" y="-62.5" font-family="Helvetica,sans-Serif" font-size="10.00">services::HttpServerConnection</text>
<text text-anchor="middle" x="989" y="-51.5" font-family="Helvetica,sans-Serif" font-size="10.00">Observer::TryHandleRequest</text>
</a>
</g>
</g>
<!-- Node7&#45;&gt;Node11 -->
<g id="edge6" class="edge"><title>Node7&#45;&gt;Node11</title>
<path fill="none" stroke="midnightblue" d="M503.263,-59.5C614.337,-59.5 806.811,-59.5 912.73,-59.5"/>
<polygon fill="midnightblue" stroke="midnightblue" points="503.104,-56.0001 493.104,-59.5 503.104,-63.0001 503.104,-56.0001"/>
</g>
<!-- Node13 -->
<g id="node9" class="node"><title>Node13</title>
<g id="a_node9"><a xlink:href="../../d2/db3/classservices_1_1_http_server_connection_observer.html#a9d0c9926c69222f44621afb71304247d" target="_top" xlink:title="services::HttpServerConnection\lObserver::ServePage">
<polygon fill="white" stroke="black" points="529,-0.5 529,-30.5 681,-30.5 681,-0.5 529,-0.5"/>
<text text-anchor="start" x="537" y="-18.5" font-family="Helvetica,sans-Serif" font-size="10.00">services::HttpServerConnection</text>
<text text-anchor="middle" x="605" y="-7.5" font-family="Helvetica,sans-Serif" font-size="10.00">Observer::ServePage</text>
</a>
</g>
</g>
<!-- Node7&#45;&gt;Node13 -->
<g id="edge9" class="edge"><title>Node7&#45;&gt;Node13</title>
<path fill="none" stroke="midnightblue" d="M491.457,-42.1231C507.666,-38.2888 524.704,-34.2582 540.48,-30.5262"/>
<polygon fill="midnightblue" stroke="midnightblue" points="490.416,-38.7726 481.49,-44.4808 492.028,-45.5846 490.416,-38.7726"/>
</g>
<!-- Node9 -->
<g id="node5" class="node"><title>Node9</title>
<g id="a_node5"><a xlink:href="../../d2/db3/classservices_1_1_http_server_connection_observer.html#a3c5cabea13da6e140280b1b8c77244b3" target="_top" xlink:title="services::HttpServerConnection\lObserver::DataReceived">
<polygon fill="white" stroke="black" points="1289,-66.5 1289,-96.5 1441,-96.5 1441,-66.5 1289,-66.5"/>
<text text-anchor="start" x="1297" y="-84.5" font-family="Helvetica,sans-Serif" font-size="10.00">services::HttpServerConnection</text>
<text text-anchor="middle" x="1365" y="-73.5" font-family="Helvetica,sans-Serif" font-size="10.00">Observer::DataReceived</text>
</a>
</g>
</g>
<!-- Node8&#45;&gt;Node9 -->
<g id="edge4" class="edge"><title>Node8&#45;&gt;Node9</title>
<path fill="none" stroke="midnightblue" d="M887.447,-100.023C998.264,-95.7159 1185.1,-88.4538 1288.85,-84.421"/>
<polygon fill="midnightblue" stroke="midnightblue" points="887.152,-96.532 877.296,-100.418 887.424,-103.527 887.152,-96.532"/>
</g>
<!-- Node10 -->
<g id="node6" class="node"><title>Node10</title>
<g id="a_node6"><a xlink:href="../../d2/db3/classservices_1_1_http_server_connection_observer.html#a579fc75f469c5b79141187fc04dbf74c" target="_top" xlink:title="services::HttpServerConnection\lObserver::SendStreamAvailable">
<polygon fill="white" stroke="black" points="1477,-66.5 1477,-96.5 1630,-96.5 1630,-66.5 1477,-66.5"/>
<text text-anchor="start" x="1485" y="-84.5" font-family="Helvetica,sans-Serif" font-size="10.00">services::HttpServerConnection</text>
<text text-anchor="middle" x="1553.5" y="-73.5" font-family="Helvetica,sans-Serif" font-size="10.00">Observer::SendStreamAvailable</text>
</a>
</g>
</g>
<!-- Node9&#45;&gt;Node10 -->
<g id="edge5" class="edge"><title>Node9&#45;&gt;Node10</title>
<path fill="none" stroke="midnightblue" d="M1451.12,-81.5C1459.75,-81.5 1468.48,-81.5 1477,-81.5"/>
<polygon fill="midnightblue" stroke="midnightblue" points="1451.05,-78.0001 1441.05,-81.5 1451.05,-85.0001 1451.05,-78.0001"/>
</g>
<!-- Node12 -->
<g id="node8" class="node"><title>Node12</title>
<g id="a_node8"><a xlink:href="../../d2/db3/classservices_1_1_http_server_connection_observer.html#a6213f7b12f5fb1c0ddbabdb859ddca0a" target="_top" xlink:title="services::HttpServerConnection\lObserver::ReceivedRequest">
<polygon fill="white" stroke="black" points="1101,-44.5 1101,-74.5 1253,-74.5 1253,-44.5 1101,-44.5"/>
<text text-anchor="start" x="1109" y="-62.5" font-family="Helvetica,sans-Serif" font-size="10.00">services::HttpServerConnection</text>
<text text-anchor="middle" x="1177" y="-51.5" font-family="Helvetica,sans-Serif" font-size="10.00">Observer::ReceivedRequest</text>
</a>
</g>
</g>
<!-- Node11&#45;&gt;Node12 -->
<g id="edge7" class="edge"><title>Node11&#45;&gt;Node12</title>
<path fill="none" stroke="midnightblue" d="M1075.15,-59.5C1083.74,-59.5 1092.43,-59.5 1100.9,-59.5"/>
<polygon fill="midnightblue" stroke="midnightblue" points="1075.12,-56.0001 1065.12,-59.5 1075.12,-63.0001 1075.12,-56.0001"/>
</g>
<!-- Node12&#45;&gt;Node9 -->
<g id="edge8" class="edge"><title>Node12&#45;&gt;Node9</title>
<path fill="none" stroke="midnightblue" d="M1263.15,-69.5712C1271.74,-70.5877 1280.43,-71.615 1288.9,-72.6178"/>
<polygon fill="midnightblue" stroke="midnightblue" points="1263.46,-66.0838 1253.12,-68.3848 1262.64,-73.0353 1263.46,-66.0838"/>
</g>
<!-- Node14 -->
<g id="node10" class="node"><title>Node14</title>
<g id="a_node10"><a xlink:href="../../d2/db3/classservices_1_1_http_server_connection_observer.html#a52e5c280fabbed909272946c730d6aff" target="_top" xlink:title="services::HttpServerConnection\lObserver::HandleRequest">
<polygon fill="white" stroke="black" points="721,-0.5 721,-30.5 873,-30.5 873,-0.5 721,-0.5"/>
<text text-anchor="start" x="729" y="-18.5" font-family="Helvetica,sans-Serif" font-size="10.00">services::HttpServerConnection</text>
<text text-anchor="middle" x="797" y="-7.5" font-family="Helvetica,sans-Serif" font-size="10.00">Observer::HandleRequest</text>
</a>
</g>
</g>
<!-- Node13&#45;&gt;Node14 -->
<g id="edge10" class="edge"><title>Node13&#45;&gt;Node14</title>
<path fill="none" stroke="midnightblue" d="M691.289,-15.5C701.138,-15.5 711.129,-15.5 720.83,-15.5"/>
<polygon fill="midnightblue" stroke="midnightblue" points="691.093,-12.0001 681.093,-15.5 691.093,-19.0001 691.093,-12.0001"/>
</g>
<!-- Node14&#45;&gt;Node11 -->
<g id="edge11" class="edge"><title>Node14&#45;&gt;Node11</title>
<path fill="none" stroke="midnightblue" d="M873.037,-32.8769C889.594,-36.7112 906.999,-40.7418 923.114,-44.4738"/>
<polygon fill="midnightblue" stroke="midnightblue" points="873.388,-29.3656 862.856,-30.5192 871.808,-36.1852 873.388,-29.3656"/>
</g>
</g>
</svg>
