<?xml version="1.0" encoding="UTF-8" standalone="no"?>
<!DOCTYPE svg PUBLIC "-//W3C//DTD SVG 1.1//EN"
 "http://www.w3.org/Graphics/SVG/1.1/DTD/svg11.dtd">
<!-- Generated by graphviz version 2.38.0 (20140413.2041)
 -->
<!-- Title: infra::TimerAlternating::TimerAlternating Pages: 1 -->
<!--zoomable 189 -->
<svg id="main" version="1.1" xmlns="http://www.w3.org/2000/svg" xmlns:xlink="http://www.w3.org/1999/xlink" xml:space="preserve" onload="init(evt)">
<style type="text/css"><![CDATA[
.edge:hover path { stroke: red; }
.edge:hover polygon { stroke: red; fill: red; }
]]></style>
<script type="text/javascript"><![CDATA[
var edges = document.getElementsByTagName('g');
if (edges && edges.length) {
  for (var i=0;i<edges.length;i++) {
    if (edges[i].id.substr(0,4)=='edge') {
      edges[i].setAttribute('class','edge');
    }
  }
}
]]></script>
        <defs>
                <circle id="rim" cx="0" cy="0" r="7"/>
                <circle id="rim2" cx="0" cy="0" r="3.5"/>
                <g id="zoomPlus">
                        <use xlink:href="#rim" fill="#404040">
                                <set attributeName="fill" to="#808080" begin="zoomplus.mouseover" end="zoomplus.mouseout"/>
                        </use>
                        <path d="M-4,0h8M0,-4v8" fill="none" stroke="white" stroke-width="1.5" pointer-events="none"/>
                </g>
                <g id="zoomMin">
                        <use xlink:href="#rim" fill="#404040">
                                <set attributeName="fill" to="#808080" begin="zoomminus.mouseover" end="zoomminus.mouseout"/>
                        </use>
                        <path d="M-4,0h8" fill="none" stroke="white" stroke-width="1.5" pointer-events="none"/>
                </g>
                <g id="dirArrow">
                        <path fill="none" stroke="white" stroke-width="1.5" d="M0,-3.0v7 M-2.5,-0.5L0,-3.0L2.5,-0.5"/>
                </g>
               <g id="resetDef">
                       <use xlink:href="#rim2" fill="#404040">
                               <set attributeName="fill" to="#808080" begin="reset.mouseover" end="reset.mouseout"/>
                       </use>
               </g>
        </defs>

<script type="text/javascript">
var viewWidth = 1256;
var viewHeight = 189;
var sectionId = 'dynsection-2';
</script>
<script xlink:href="../../svgpan.js"/>
<svg id="graph" class="graph">
<g id="viewport">
<title>infra::TimerAlternating::TimerAlternating</title>
<polygon fill="white" stroke="none" points="-4,4 -4,-184.5 1252,-184.5 1252,4 -4,4"/>
<!-- Node2 -->
<g id="node1" class="node"><title>Node2</title>
<polygon fill="#bfbfbf" stroke="black" points="0,-111.5 0,-141.5 111,-141.5 111,-111.5 0,-111.5"/>
<text text-anchor="start" x="8" y="-129.5" font-family="Helvetica,sans-Serif" font-size="10.00">infra::TimerAlternating</text>
<text text-anchor="middle" x="55.5" y="-118.5" font-family="Helvetica,sans-Serif" font-size="10.00">::TimerAlternating</text>
</g>
<!-- Node3 -->
<g id="node2" class="node"><title>Node3</title>
<g id="a_node2"><a xlink:href="../../d9/dec/classinfra_1_1_timer_alternating.html#a19acbb208e43bd8cc6bdf6c110830095" target="_top" xlink:title="infra::TimerAlternating\l::Start">
<polygon fill="white" stroke="black" points="147,-111.5 147,-141.5 258,-141.5 258,-111.5 147,-111.5"/>
<text text-anchor="start" x="155" y="-129.5" font-family="Helvetica,sans-Serif" font-size="10.00">infra::TimerAlternating</text>
<text text-anchor="middle" x="202.5" y="-118.5" font-family="Helvetica,sans-Serif" font-size="10.00">::Start</text>
</a>
</g>
</g>
<!-- Node2&#45;&gt;Node3 -->
<g id="edge1" class="edge"><title>Node2&#45;&gt;Node3</title>
<path fill="none" stroke="midnightblue" d="M111.318,-126.5C119.529,-126.5 128.061,-126.5 136.459,-126.5"/>
<polygon fill="midnightblue" stroke="midnightblue" points="136.604,-130 146.604,-126.5 136.604,-123 136.604,-130"/>
</g>
<!-- Node4 -->
<g id="node3" class="node"><title>Node4</title>
<g id="a_node3"><a xlink:href="../../d5/da5/classinfra_1_1_timer.html#a0a6147203d9afc7b16456c161b7aaf62" target="_top" xlink:title="infra::Timer::Now">
<polygon fill="white" stroke="black" points="315.5,-158 315.5,-177 404.5,-177 404.5,-158 315.5,-158"/>
<text text-anchor="middle" x="360" y="-165" font-family="Helvetica,sans-Serif" font-size="10.00">infra::Timer::Now</text>
</a>
</g>
</g>
<!-- Node3&#45;&gt;Node4 -->
<g id="edge2" class="edge"><title>Node3&#45;&gt;Node4</title>
<path fill="none" stroke="midnightblue" d="M258.323,-140.955C276.159,-145.658 295.761,-150.826 312.893,-155.343"/>
<polygon fill="midnightblue" stroke="midnightblue" points="312.1,-158.754 322.662,-157.919 313.885,-151.985 312.1,-158.754"/>
</g>
<!-- Node6 -->
<g id="node5" class="node"><title>Node6</title>
<g id="a_node5"><a xlink:href="../../d5/da5/classinfra_1_1_timer.html#a729101dbfbc04caf3f1217f9feeeff41" target="_top" xlink:title="infra::Timer::Resolution">
<polygon fill="white" stroke="black" points="302,-117 302,-136 418,-136 418,-117 302,-117"/>
<text text-anchor="middle" x="360" y="-124" font-family="Helvetica,sans-Serif" font-size="10.00">infra::Timer::Resolution</text>
</a>
</g>
</g>
<!-- Node3&#45;&gt;Node6 -->
<g id="edge4" class="edge"><title>Node3&#45;&gt;Node6</title>
<path fill="none" stroke="midnightblue" d="M258.323,-126.5C269.102,-126.5 280.526,-126.5 291.66,-126.5"/>
<polygon fill="midnightblue" stroke="midnightblue" points="291.776,-130 301.776,-126.5 291.776,-123 291.776,-130"/>
</g>
<!-- Node8 -->
<g id="node7" class="node"><title>Node8</title>
<g id="a_node7"><a xlink:href="../../d9/dec/classinfra_1_1_timer_alternating.html#a859df16c1f3cfb21c899f743a4adca80" target="_top" xlink:title="infra::TimerAlternating\l::ComputeNextTriggerTime">
<polygon fill="white" stroke="black" points="294,-67.5 294,-97.5 426,-97.5 426,-67.5 294,-67.5"/>
<text text-anchor="start" x="302" y="-85.5" font-family="Helvetica,sans-Serif" font-size="10.00">infra::TimerAlternating</text>
<text text-anchor="middle" x="360" y="-74.5" font-family="Helvetica,sans-Serif" font-size="10.00">::ComputeNextTriggerTime</text>
</a>
</g>
</g>
<!-- Node3&#45;&gt;Node8 -->
<g id="edge6" class="edge"><title>Node3&#45;&gt;Node8</title>
<path fill="none" stroke="midnightblue" d="M256.579,-111.481C269.269,-107.89 282.938,-104.022 296.026,-100.319"/>
<polygon fill="midnightblue" stroke="midnightblue" points="297.227,-103.617 305.896,-97.5262 295.321,-96.8812 297.227,-103.617"/>
</g>
<!-- Node5 -->
<g id="node4" class="node"><title>Node5</title>
<g id="a_node4"><a xlink:href="../../da/def/classinfra_1_1_timer_service.html#acb34d2766047f27ebcd1f552916c9a99" target="_top" xlink:title="infra::TimerService::Now">
<polygon fill="white" stroke="black" points="479.5,-161 479.5,-180 600.5,-180 600.5,-161 479.5,-161"/>
<text text-anchor="middle" x="540" y="-168" font-family="Helvetica,sans-Serif" font-size="10.00">infra::TimerService::Now</text>
</a>
</g>
</g>
<!-- Node4&#45;&gt;Node5 -->
<g id="edge3" class="edge"><title>Node4&#45;&gt;Node5</title>
<path fill="none" stroke="midnightblue" d="M404.544,-168.234C424.002,-168.562 447.423,-168.957 469.228,-169.324"/>
<polygon fill="midnightblue" stroke="midnightblue" points="469.386,-172.827 479.443,-169.496 469.504,-165.828 469.386,-172.827"/>
</g>
<!-- Node7 -->
<g id="node6" class="node"><title>Node7</title>
<g id="a_node6"><a xlink:href="../../da/def/classinfra_1_1_timer_service.html#ab717e40a1a49d2f31f4a9e2e63f0f5ce" target="_top" xlink:title="infra::TimerService\l::Resolution">
<polygon fill="white" stroke="black" points="492,-111.5 492,-141.5 588,-141.5 588,-111.5 492,-111.5"/>
<text text-anchor="start" x="500" y="-129.5" font-family="Helvetica,sans-Serif" font-size="10.00">infra::TimerService</text>
<text text-anchor="middle" x="540" y="-118.5" font-family="Helvetica,sans-Serif" font-size="10.00">::Resolution</text>
</a>
</g>
</g>
<!-- Node6&#45;&gt;Node7 -->
<g id="edge5" class="edge"><title>Node6&#45;&gt;Node7</title>
<path fill="none" stroke="midnightblue" d="M418.3,-126.5C438.645,-126.5 461.531,-126.5 481.862,-126.5"/>
<polygon fill="midnightblue" stroke="midnightblue" points="481.923,-130 491.923,-126.5 481.923,-123 481.923,-130"/>
</g>
<!-- Node9 -->
<g id="node8" class="node"><title>Node9</title>
<g id="a_node8"><a xlink:href="../../d5/da5/classinfra_1_1_timer.html#aa5f1d8f856a15a67ddc7c88e40fe4796" target="_top" xlink:title="infra::Timer::SetNextTriggerTime">
<polygon fill="white" stroke="black" points="462,-73 462,-92 618,-92 618,-73 462,-73"/>
<text text-anchor="middle" x="540" y="-80" font-family="Helvetica,sans-Serif" font-size="10.00">infra::Timer::SetNextTriggerTime</text>
</a>
</g>
</g>
<!-- Node8&#45;&gt;Node9 -->
<g id="edge7" class="edge"><title>Node8&#45;&gt;Node9</title>
<path fill="none" stroke="midnightblue" d="M426.018,-82.5C434.369,-82.5 443.025,-82.5 451.66,-82.5"/>
<polygon fill="midnightblue" stroke="midnightblue" points="451.768,-86.0001 461.768,-82.5 451.768,-79.0001 451.768,-86.0001"/>
</g>
<!-- Node10 -->
<g id="node9" class="node"><title>Node10</title>
<g id="a_node9"><a xlink:href="../../d5/da5/classinfra_1_1_timer.html#a11b396e8d4300da06b8ce83624991b73" target="_top" xlink:title="infra::Timer::Convert">
<polygon fill="white" stroke="black" points="1141.5,-100 1141.5,-119 1244.5,-119 1244.5,-100 1141.5,-100"/>
<text text-anchor="middle" x="1193" y="-107" font-family="Helvetica,sans-Serif" font-size="10.00">infra::Timer::Convert</text>
</a>
</g>
</g>
<!-- Node9&#45;&gt;Node10 -->
<g id="edge8" class="edge"><title>Node9&#45;&gt;Node10</title>
<path fill="none" stroke="midnightblue" d="M589.769,-92.0251C609.62,-95.5557 632.834,-99.2449 654,-101.5 852.102,-122.606 902.927,-124.23 1102,-116.5 1111.41,-116.134 1121.37,-115.555 1131.09,-114.881"/>
<polygon fill="midnightblue" stroke="midnightblue" points="1131.39,-118.369 1141.11,-114.151 1130.88,-111.387 1131.39,-118.369"/>
</g>
<!-- Node11 -->
<g id="node10" class="node"><title>Node11</title>
<g id="a_node10"><a xlink:href="../../d5/da5/classinfra_1_1_timer.html#aaabecdbe93d2f0299f5f1356c9d1337f" target="_top" xlink:title="infra::Timer::RegisterSelf">
<polygon fill="white" stroke="black" points="668.5,-73 668.5,-92 791.5,-92 791.5,-73 668.5,-73"/>
<text text-anchor="middle" x="730" y="-80" font-family="Helvetica,sans-Serif" font-size="10.00">infra::Timer::RegisterSelf</text>
</a>
</g>
</g>
<!-- Node9&#45;&gt;Node11 -->
<g id="edge9" class="edge"><title>Node9&#45;&gt;Node11</title>
<path fill="none" stroke="midnightblue" d="M618.009,-82.5C631.212,-82.5 644.876,-82.5 657.915,-82.5"/>
<polygon fill="midnightblue" stroke="midnightblue" points="658.216,-86.0001 668.216,-82.5 658.216,-79.0001 658.216,-86.0001"/>
</g>
<!-- Node15 -->
<g id="node14" class="node"><title>Node15</title>
<g id="a_node14"><a xlink:href="../../d5/da5/classinfra_1_1_timer.html#a51a6dd500d70207c8163a053db0b6e60" target="_top" xlink:title="infra::Timer::UpdateTriggerTime">
<polygon fill="white" stroke="black" points="654,-16 654,-35 806,-35 806,-16 654,-16"/>
<text text-anchor="middle" x="730" y="-23" font-family="Helvetica,sans-Serif" font-size="10.00">infra::Timer::UpdateTriggerTime</text>
</a>
</g>
</g>
<!-- Node9&#45;&gt;Node15 -->
<g id="edge14" class="edge"><title>Node9&#45;&gt;Node15</title>
<path fill="none" stroke="midnightblue" d="M572.467,-72.9595C604.053,-63.3829 652.878,-48.5795 687.593,-38.0543"/>
<polygon fill="midnightblue" stroke="midnightblue" points="688.876,-41.3226 697.43,-35.0716 686.845,-34.6238 688.876,-41.3226"/>
</g>
<!-- Node12 -->
<g id="node11" class="node"><title>Node12</title>
<g id="a_node11"><a xlink:href="../../da/def/classinfra_1_1_timer_service.html#ac048d92f92957b56b420dd78bcc84528" target="_top" xlink:title="infra::TimerService\l::RegisterTimer">
<polygon fill="white" stroke="black" points="846,-67.5 846,-97.5 942,-97.5 942,-67.5 846,-67.5"/>
<text text-anchor="start" x="854" y="-85.5" font-family="Helvetica,sans-Serif" font-size="10.00">infra::TimerService</text>
<text text-anchor="middle" x="894" y="-74.5" font-family="Helvetica,sans-Serif" font-size="10.00">::RegisterTimer</text>
</a>
</g>
</g>
<!-- Node11&#45;&gt;Node12 -->
<g id="edge10" class="edge"><title>Node11&#45;&gt;Node12</title>
<path fill="none" stroke="midnightblue" d="M791.784,-82.5C806.161,-82.5 821.445,-82.5 835.664,-82.5"/>
<polygon fill="midnightblue" stroke="midnightblue" points="835.8,-86.0001 845.8,-82.5 835.8,-79.0001 835.8,-86.0001"/>
</g>
<!-- Node13 -->
<g id="node12" class="node"><title>Node13</title>
<g id="a_node12"><a xlink:href="../../d5/da5/classinfra_1_1_timer.html#a1efe7b4dc3d40f8357b1fc94855e5145" target="_top" xlink:title="infra::Timer::NextTrigger">
<polygon fill="white" stroke="black" points="982,-88 982,-107 1102,-107 1102,-88 982,-88"/>
<text text-anchor="middle" x="1042" y="-95" font-family="Helvetica,sans-Serif" font-size="10.00">infra::Timer::NextTrigger</text>
</a>
</g>
</g>
<!-- Node12&#45;&gt;Node13 -->
<g id="edge11" class="edge"><title>Node12&#45;&gt;Node13</title>
<path fill="none" stroke="midnightblue" d="M942.402,-87.3701C951.733,-88.3288 961.704,-89.3531 971.586,-90.3684"/>
<polygon fill="midnightblue" stroke="midnightblue" points="971.517,-93.8797 981.823,-91.4201 972.233,-86.9163 971.517,-93.8797"/>
</g>
<!-- Node14 -->
<g id="node13" class="node"><title>Node14</title>
<g id="a_node13"><a xlink:href="../../da/def/classinfra_1_1_timer_service.html#a6ae66196dc18d8b383ba5e0f0b6f22fa" target="_top" xlink:title="infra::TimerService\l::NextTriggerChanged">
<polygon fill="white" stroke="black" points="1138,-31.5 1138,-61.5 1248,-61.5 1248,-31.5 1138,-31.5"/>
<text text-anchor="start" x="1146" y="-49.5" font-family="Helvetica,sans-Serif" font-size="10.00">infra::TimerService</text>
<text text-anchor="middle" x="1193" y="-38.5" font-family="Helvetica,sans-Serif" font-size="10.00">::NextTriggerChanged</text>
</a>
</g>
</g>
<!-- Node12&#45;&gt;Node14 -->
<g id="edge13" class="edge"><title>Node12&#45;&gt;Node14</title>
<path fill="none" stroke="midnightblue" d="M942.061,-76.7957C992.182,-70.7204 1071.84,-61.0654 1127.72,-54.2917"/>
<polygon fill="midnightblue" stroke="midnightblue" points="1128.36,-57.74 1137.86,-53.062 1127.52,-50.7908 1128.36,-57.74"/>
</g>
<!-- Node13&#45;&gt;Node10 -->
<g id="edge12" class="edge"><title>Node13&#45;&gt;Node10</title>
<path fill="none" stroke="midnightblue" d="M1102.32,-102.277C1111.73,-103.036 1121.49,-103.821 1130.94,-104.583"/>
<polygon fill="midnightblue" stroke="midnightblue" points="1130.81,-108.083 1141.06,-105.397 1131.37,-101.106 1130.81,-108.083"/>
</g>
<!-- Node16 -->
<g id="node15" class="node"><title>Node16</title>
<g id="a_node15"><a xlink:href="../../da/def/classinfra_1_1_timer_service.html#ac08c18576f1ca147f34136e9f75d124f" target="_top" xlink:title="infra::TimerService\l::UpdateTriggerTime">
<polygon fill="white" stroke="black" points="842,-5.5 842,-35.5 946,-35.5 946,-5.5 842,-5.5"/>
<text text-anchor="start" x="850" y="-23.5" font-family="Helvetica,sans-Serif" font-size="10.00">infra::TimerService</text>
<text text-anchor="middle" x="894" y="-12.5" font-family="Helvetica,sans-Serif" font-size="10.00">::UpdateTriggerTime</text>
</a>
</g>
</g>
<!-- Node15&#45;&gt;Node16 -->
<g id="edge15" class="edge"><title>Node15&#45;&gt;Node16</title>
<path fill="none" stroke="midnightblue" d="M806.309,-23.1757C814.885,-22.9109 823.547,-22.6436 831.908,-22.3856"/>
<polygon fill="midnightblue" stroke="midnightblue" points="832.043,-25.8832 841.93,-22.0762 831.827,-18.8865 832.043,-25.8832"/>
</g>
<!-- Node17 -->
<g id="node16" class="node"><title>Node17</title>
<g id="a_node16"><a xlink:href="../../da/def/classinfra_1_1_timer_service.html#afb8a6ef3ee5ba728f1a8f232514bad8c" target="_top" xlink:title="infra::TimerService\l::ComputeNextTrigger">
<polygon fill="white" stroke="black" points="986.5,-0.5 986.5,-30.5 1097.5,-30.5 1097.5,-0.5 986.5,-0.5"/>
<text text-anchor="start" x="994.5" y="-18.5" font-family="Helvetica,sans-Serif" font-size="10.00">infra::TimerService</text>
<text text-anchor="middle" x="1042" y="-7.5" font-family="Helvetica,sans-Serif" font-size="10.00">::ComputeNextTrigger</text>
</a>
</g>
</g>
<!-- Node16&#45;&gt;Node17 -->
<g id="edge16" class="edge"><title>Node16&#45;&gt;Node17</title>
<path fill="none" stroke="midnightblue" d="M946.064,-18.7512C955.87,-18.4154 966.258,-18.0597 976.425,-17.7115"/>
<polygon fill="midnightblue" stroke="midnightblue" points="976.615,-21.2071 986.489,-17.3668 976.375,-14.2112 976.615,-21.2071"/>
</g>
<!-- Node17&#45;&gt;Node14 -->
<g id="edge17" class="edge"><title>Node17&#45;&gt;Node14</title>
<path fill="none" stroke="midnightblue" d="M1097.64,-26.8672C1107.48,-28.9149 1117.82,-31.0664 1127.9,-33.164"/>
<polygon fill="midnightblue" stroke="midnightblue" points="1127.37,-36.6274 1137.87,-35.2377 1128.79,-29.7741 1127.37,-36.6274"/>
</g>
</g>
</svg>
        <g id="navigator" transform="translate(0 0)" fill="#404254">
                <rect fill="#f2f5e9" fill-opacity="0.5" stroke="#606060" stroke-width=".5" x="0" y="0" width="60" height="60"/>
                <use id="zoomplus" xlink:href="#zoomPlus" x="17" y="9" onmousedown="handleZoom(evt,'in')"/>
                <use id="zoomminus" xlink:href="#zoomMin" x="42" y="9" onmousedown="handleZoom(evt,'out')"/>
                <use id="reset" xlink:href="#resetDef" x="30" y="36" onmousedown="handleReset()"/>
                <g id="arrowUp" xlink:href="#dirArrow" transform="translate(30 24)" onmousedown="handlePan(0,-1)">
                  <use xlink:href="#rim" fill="#404040">
                        <set attributeName="fill" to="#808080" begin="arrowUp.mouseover" end="arrowUp.mouseout"/>
                  </use>
                  <path fill="none" stroke="white" stroke-width="1.5" d="M0,-3.0v7 M-2.5,-0.5L0,-3.0L2.5,-0.5"/>
                </g>
                <g id="arrowRight" xlink:href="#dirArrow" transform="rotate(90) translate(36 -43)" onmousedown="handlePan(1,0)">
                  <use xlink:href="#rim" fill="#404040">
                        <set attributeName="fill" to="#808080" begin="arrowRight.mouseover" end="arrowRight.mouseout"/>
                  </use>
                  <path fill="none" stroke="white" stroke-width="1.5" d="M0,-3.0v7 M-2.5,-0.5L0,-3.0L2.5,-0.5"/>
                </g>
                <g id="arrowDown" xlink:href="#dirArrow" transform="rotate(180) translate(-30 -48)" onmousedown="handlePan(0,1)">
                  <use xlink:href="#rim" fill="#404040">
                        <set attributeName="fill" to="#808080" begin="arrowDown.mouseover" end="arrowDown.mouseout"/>
                  </use>
                  <path fill="none" stroke="white" stroke-width="1.5" d="M0,-3.0v7 M-2.5,-0.5L0,-3.0L2.5,-0.5"/>
                </g>
                <g id="arrowLeft" xlink:href="#dirArrow" transform="rotate(270) translate(-36 17)" onmousedown="handlePan(-1,0)">
                  <use xlink:href="#rim" fill="#404040">
                        <set attributeName="fill" to="#808080" begin="arrowLeft.mouseover" end="arrowLeft.mouseout"/>
                  </use>
                  <path fill="none" stroke="white" stroke-width="1.5" d="M0,-3.0v7 M-2.5,-0.5L0,-3.0L2.5,-0.5"/>
                </g>
        </g>
        <svg viewBox="0 0 15 15" width="100%" height="30px" preserveAspectRatio="xMaxYMin meet">
         <g id="arrow_out" transform="scale(0.3 0.3)">
          <a xlink:href="classinfra_1_1_timer_alternating_a159973a5309091eb4f916dd3c80b4650_cgraph_org.svg" target="_base">
           <rect id="button" ry="5" rx="5" y="6" x="6" height="38" width="38"
                fill="#f2f5e9" fill-opacity="0.5" stroke="#606060" stroke-width="1.0"/>
           <path id="arrow"
             d="M 11.500037,31.436501 C 11.940474,20.09759 22.043105,11.32322 32.158766,21.979434 L 37.068811,17.246167 C 37.068811,17.246167 37.088388,32 37.088388,32 L 22.160133,31.978069 C 22.160133,31.978069 26.997745,27.140456 26.997745,27.140456 C 18.528582,18.264221 13.291696,25.230495 11.500037,31.436501 z"
             style="fill:#404040;"/>
          </a>
         </g>
        </svg>
</svg>
