<?xml version="1.0" encoding="UTF-8" standalone="no"?>
<!DOCTYPE svg PUBLIC "-//W3C//DTD SVG 1.1//EN"
 "http://www.w3.org/Graphics/SVG/1.1/DTD/svg11.dtd">
<!-- Generated by graphviz version 2.38.0 (20140413.2041)
 -->
<!-- Title: services::RepeatingButton::FireTimer::Start Pages: 1 -->
<svg width="636pt" height="39pt"
 viewBox="0.00 0.00 636.00 39.00" xmlns="http://www.w3.org/2000/svg" xmlns:xlink="http://www.w3.org/1999/xlink">
<g id="graph0" class="graph" transform="scale(1 1) rotate(0) translate(4 35)">
<title>services::RepeatingButton::FireTimer::Start</title>
<polygon fill="white" stroke="none" points="-4,4 -4,-35 632,-35 632,4 -4,4"/>
<!-- Node13 -->
<g id="node1" class="node"><title>Node13</title>
<polygon fill="#bfbfbf" stroke="black" points="0,-0.5 0,-30.5 130,-30.5 130,-0.5 0,-0.5"/>
<text text-anchor="start" x="8" y="-18.5" font-family="Helvetica,sans-Serif" font-size="10.00">services::RepeatingButton</text>
<text text-anchor="middle" x="65" y="-7.5" font-family="Helvetica,sans-Serif" font-size="10.00">::FireTimer::Start</text>
</g>
<!-- Node14 -->
<g id="node2" class="node"><title>Node14</title>
<g id="a_node2"><a xlink:href="../../d0/d08/classservices_1_1_repeating_button.html#a18153734f98c67f2096d641f5fb8d66f" target="_top" xlink:title="services::RepeatingButton\l::ButtonPressed">
<polygon fill="white" stroke="black" points="166,-0.5 166,-30.5 296,-30.5 296,-0.5 166,-0.5"/>
<text text-anchor="start" x="174" y="-18.5" font-family="Helvetica,sans-Serif" font-size="10.00">services::RepeatingButton</text>
<text text-anchor="middle" x="231" y="-7.5" font-family="Helvetica,sans-Serif" font-size="10.00">::ButtonPressed</text>
</a>
</g>
</g>
<!-- Node13&#45;&gt;Node14 -->
<g id="edge1" class="edge"><title>Node13&#45;&gt;Node14</title>
<path fill="none" stroke="midnightblue" d="M140.564,-15.5C149.004,-15.5 157.549,-15.5 165.839,-15.5"/>
<polygon fill="midnightblue" stroke="midnightblue" points="140.346,-12.0001 130.346,-15.5 140.346,-19.0001 140.346,-12.0001"/>
</g>
<!-- Node15 -->
<g id="node3" class="node"><title>Node15</title>
<g id="a_node3"><a xlink:href="../../d0/d08/classservices_1_1_repeating_button.html#af9db5b4934e4610beb5e5071de6c58b7" target="_top" xlink:title="services::RepeatingButton\l::ButtonChanged">
<polygon fill="white" stroke="black" points="332,-0.5 332,-30.5 462,-30.5 462,-0.5 332,-0.5"/>
<text text-anchor="start" x="340" y="-18.5" font-family="Helvetica,sans-Serif" font-size="10.00">services::RepeatingButton</text>
<text text-anchor="middle" x="397" y="-7.5" font-family="Helvetica,sans-Serif" font-size="10.00">::ButtonChanged</text>
</a>
</g>
</g>
<!-- Node14&#45;&gt;Node15 -->
<g id="edge2" class="edge"><title>Node14&#45;&gt;Node15</title>
<path fill="none" stroke="midnightblue" d="M306.564,-15.5C315.004,-15.5 323.549,-15.5 331.839,-15.5"/>
<polygon fill="midnightblue" stroke="midnightblue" points="306.346,-12.0001 296.346,-15.5 306.346,-19.0001 306.346,-12.0001"/>
</g>
<!-- Node16 -->
<g id="node4" class="node"><title>Node16</title>
<g id="a_node4"><a xlink:href="../../d0/d08/classservices_1_1_repeating_button.html#aa38e30277c5df615ae1a86617c4127c0" target="_top" xlink:title="services::RepeatingButton\l::RepeatingButton">
<polygon fill="white" stroke="black" points="498,-0.5 498,-30.5 628,-30.5 628,-0.5 498,-0.5"/>
<text text-anchor="start" x="506" y="-18.5" font-family="Helvetica,sans-Serif" font-size="10.00">services::RepeatingButton</text>
<text text-anchor="middle" x="563" y="-7.5" font-family="Helvetica,sans-Serif" font-size="10.00">::RepeatingButton</text>
</a>
</g>
</g>
<!-- Node15&#45;&gt;Node16 -->
<g id="edge3" class="edge"><title>Node15&#45;&gt;Node16</title>
<path fill="none" stroke="midnightblue" d="M472.564,-15.5C481.004,-15.5 489.549,-15.5 497.839,-15.5"/>
<polygon fill="midnightblue" stroke="midnightblue" points="472.346,-12.0001 462.346,-15.5 472.346,-19.0001 472.346,-12.0001"/>
</g>
</g>
</svg>
