<?xml version="1.0" encoding="UTF-8" standalone="no"?>
<!DOCTYPE svg PUBLIC "-//W3C//DTD SVG 1.1//EN"
 "http://www.w3.org/Graphics/SVG/1.1/DTD/svg11.dtd">
<!-- Generated by graphviz version 2.38.0 (20140413.2041)
 -->
<!-- Title: infra::JsonStreamingObjectParser::WithBuffers&lt; MaxTagLength, MaxValueLength, MaxObjectNesting &gt; Pages: 1 -->
<svg width="420pt" height="88pt"
 viewBox="0.00 0.00 420.00 88.00" xmlns="http://www.w3.org/2000/svg" xmlns:xlink="http://www.w3.org/1999/xlink">
<g id="graph0" class="graph" transform="scale(1 1) rotate(0) translate(4 84)">
<title>infra::JsonStreamingObjectParser::WithBuffers&lt; MaxTagLength, MaxValueLength, MaxObjectNesting &gt;</title>
<polygon fill="white" stroke="none" points="-4,4 -4,-84 416,-84 416,4 -4,4"/>
<!-- Node0 -->
<g id="node1" class="node"><title>Node0</title>
<polygon fill="#bfbfbf" stroke="black" points="224,-19 224,-60 412,-60 412,-19 224,-19"/>
<text text-anchor="start" x="232" y="-48" font-family="Helvetica,sans-Serif" font-size="10.00">infra::JsonStreamingObject</text>
<text text-anchor="start" x="232" y="-37" font-family="Helvetica,sans-Serif" font-size="10.00">Parser::WithBuffers&lt; MaxTagLength,</text>
<text text-anchor="middle" x="318" y="-26" font-family="Helvetica,sans-Serif" font-size="10.00"> MaxValueLength, MaxObjectNesting &gt;</text>
</g>
<!-- Node1 -->
<g id="node2" class="node"><title>Node1</title>
<g id="a_node2"><a xlink:href="../../dd/def/structinfra_1_1_buffers.html" target="_top" xlink:title="infra::Buffers\&lt; MaxTagLength,\l MaxValueLength, MaxObjectNesting \&gt;">
<polygon fill="white" stroke="black" points="0,-49.5 0,-79.5 188,-79.5 188,-49.5 0,-49.5"/>
<text text-anchor="start" x="8" y="-67.5" font-family="Helvetica,sans-Serif" font-size="10.00">infra::Buffers&lt; MaxTagLength,</text>
<text text-anchor="middle" x="94" y="-56.5" font-family="Helvetica,sans-Serif" font-size="10.00"> MaxValueLength, MaxObjectNesting &gt;</text>
</a>
</g>
</g>
<!-- Node1&#45;&gt;Node0 -->
<g id="edge1" class="edge"><title>Node1&#45;&gt;Node0</title>
<path fill="none" stroke="midnightblue" d="M198.147,-52.8843C206.67,-51.9245 215.255,-50.9578 223.7,-50.0068"/>
<polygon fill="midnightblue" stroke="midnightblue" points="197.729,-49.4093 188.183,-54.0064 198.512,-56.3653 197.729,-49.4093"/>
</g>
<!-- Node2 -->
<g id="node3" class="node"><title>Node2</title>
<g id="a_node3"><a xlink:href="../../d3/d88/classinfra_1_1_json_streaming_object_parser.html" target="_top" xlink:title="infra::JsonStreamingObject\lParser">
<polygon fill="white" stroke="black" points="27,-0.5 27,-30.5 161,-30.5 161,-0.5 27,-0.5"/>
<text text-anchor="start" x="35" y="-18.5" font-family="Helvetica,sans-Serif" font-size="10.00">infra::JsonStreamingObject</text>
<text text-anchor="middle" x="94" y="-7.5" font-family="Helvetica,sans-Serif" font-size="10.00">Parser</text>
</a>
</g>
</g>
<!-- Node2&#45;&gt;Node0 -->
<g id="edge2" class="edge"><title>Node2&#45;&gt;Node0</title>
<path fill="none" stroke="midnightblue" d="M171.341,-23.753C188.21,-25.5768 206.267,-27.5289 223.724,-29.4161"/>
<polygon fill="midnightblue" stroke="midnightblue" points="171.325,-20.231 161.006,-22.6358 170.572,-27.1904 171.325,-20.231"/>
</g>
</g>
</svg>
