<?xml version="1.0" encoding="UTF-8" standalone="no"?>
<!DOCTYPE svg PUBLIC "-//W3C//DTD SVG 1.1//EN"
 "http://www.w3.org/Graphics/SVG/1.1/DTD/svg11.dtd">
<!-- Generated by graphviz version 2.38.0 (20140413.2041)
 -->
<!-- Title: infra::JsonArray::begin Pages: 1 -->
<svg width="294pt" height="218pt"
 viewBox="0.00 0.00 294.00 218.00" xmlns="http://www.w3.org/2000/svg" xmlns:xlink="http://www.w3.org/1999/xlink">
<g id="graph0" class="graph" transform="scale(1 1) rotate(0) translate(4 214)">
<title>infra::JsonArray::begin</title>
<polygon fill="white" stroke="none" points="-4,4 -4,-214 290,-214 290,4 -4,4"/>
<!-- Node5 -->
<g id="node1" class="node"><title>Node5</title>
<polygon fill="#bfbfbf" stroke="black" points="0,-95.5 0,-114.5 113,-114.5 113,-95.5 0,-95.5"/>
<text text-anchor="middle" x="56.5" y="-102.5" font-family="Helvetica,sans-Serif" font-size="10.00">infra::JsonArray::begin</text>
</g>
<!-- Node6 -->
<g id="node2" class="node"><title>Node6</title>
<g id="a_node2"><a xlink:href="../../d0/de3/namespaceinfra.html#aec988d28c92141135d1b06037be51e64" target="_top" xlink:title="infra::JsonArrayArray">
<polygon fill="white" stroke="black" points="164,-190.5 164,-209.5 271,-209.5 271,-190.5 164,-190.5"/>
<text text-anchor="middle" x="217.5" y="-197.5" font-family="Helvetica,sans-Serif" font-size="10.00">infra::JsonArrayArray</text>
</a>
</g>
</g>
<!-- Node5&#45;&gt;Node6 -->
<g id="edge1" class="edge"><title>Node5&#45;&gt;Node6</title>
<path fill="none" stroke="midnightblue" d="M73.4195,-121.87C90.5518,-139.086 119.355,-165.425 149,-181 156.221,-184.794 164.285,-187.903 172.258,-190.426"/>
<polygon fill="midnightblue" stroke="midnightblue" points="75.8932,-119.393 66.408,-114.673 70.8793,-124.278 75.8932,-119.393"/>
</g>
<!-- Node7 -->
<g id="node3" class="node"><title>Node7</title>
<g id="a_node3"><a xlink:href="../../d0/de3/namespaceinfra.html#aae9b170dd3b7f518ea5ba7313e012623" target="_top" xlink:title="infra::JsonBooleanArray">
<polygon fill="white" stroke="black" points="158,-152.5 158,-171.5 277,-171.5 277,-152.5 158,-152.5"/>
<text text-anchor="middle" x="217.5" y="-159.5" font-family="Helvetica,sans-Serif" font-size="10.00">infra::JsonBooleanArray</text>
</a>
</g>
</g>
<!-- Node5&#45;&gt;Node7 -->
<g id="edge2" class="edge"><title>Node5&#45;&gt;Node7</title>
<path fill="none" stroke="midnightblue" d="M87.896,-118.694C105.537,-126.37 128.296,-135.816 149,-143 158.776,-146.392 169.502,-149.627 179.469,-152.434"/>
<polygon fill="midnightblue" stroke="midnightblue" points="89.2308,-115.457 78.6677,-114.637 86.4135,-121.865 89.2308,-115.457"/>
</g>
<!-- Node8 -->
<g id="node4" class="node"><title>Node8</title>
<g id="a_node4"><a xlink:href="../../d0/de3/namespaceinfra.html#a48cf0e7353c0669cf06c9310623cd50e" target="_top" xlink:title="infra::JsonIntegerArray">
<polygon fill="white" stroke="black" points="161,-114.5 161,-133.5 274,-133.5 274,-114.5 161,-114.5"/>
<text text-anchor="middle" x="217.5" y="-121.5" font-family="Helvetica,sans-Serif" font-size="10.00">infra::JsonIntegerArray</text>
</a>
</g>
</g>
<!-- Node5&#45;&gt;Node8 -->
<g id="edge3" class="edge"><title>Node5&#45;&gt;Node8</title>
<path fill="none" stroke="midnightblue" d="M123.067,-112.835C135.643,-114.338 148.698,-115.898 160.921,-117.358"/>
<polygon fill="midnightblue" stroke="midnightblue" points="123.455,-109.357 113.11,-111.645 122.625,-116.307 123.455,-109.357"/>
</g>
<!-- Node9 -->
<g id="node5" class="node"><title>Node9</title>
<g id="a_node5"><a xlink:href="../../d0/de3/namespaceinfra.html#af74dab01033da2b88a801af783a2aed9" target="_top" xlink:title="infra::JsonObjectArray">
<polygon fill="white" stroke="black" points="161,-76.5 161,-95.5 274,-95.5 274,-76.5 161,-76.5"/>
<text text-anchor="middle" x="217.5" y="-83.5" font-family="Helvetica,sans-Serif" font-size="10.00">infra::JsonObjectArray</text>
</a>
</g>
</g>
<!-- Node5&#45;&gt;Node9 -->
<g id="edge4" class="edge"><title>Node5&#45;&gt;Node9</title>
<path fill="none" stroke="midnightblue" d="M123.067,-97.1649C135.643,-95.6622 148.698,-94.1022 160.921,-92.6415"/>
<polygon fill="midnightblue" stroke="midnightblue" points="122.625,-93.6928 113.11,-98.3547 123.455,-100.643 122.625,-93.6928"/>
</g>
<!-- Node10 -->
<g id="node6" class="node"><title>Node10</title>
<g id="a_node6"><a xlink:href="../../d0/de3/namespaceinfra.html#a309170bfc684d6f06c165c56938c9048" target="_top" xlink:title="infra::JsonStringArray">
<polygon fill="white" stroke="black" points="162.5,-38.5 162.5,-57.5 272.5,-57.5 272.5,-38.5 162.5,-38.5"/>
<text text-anchor="middle" x="217.5" y="-45.5" font-family="Helvetica,sans-Serif" font-size="10.00">infra::JsonStringArray</text>
</a>
</g>
</g>
<!-- Node5&#45;&gt;Node10 -->
<g id="edge5" class="edge"><title>Node5&#45;&gt;Node10</title>
<path fill="none" stroke="midnightblue" d="M87.896,-91.3062C105.537,-83.6298 128.296,-74.1844 149,-67 158.776,-63.6076 169.502,-60.3733 179.469,-57.5662"/>
<polygon fill="midnightblue" stroke="midnightblue" points="86.4135,-88.1346 78.6677,-95.3633 89.2308,-94.5426 86.4135,-88.1346"/>
</g>
<!-- Node11 -->
<g id="node7" class="node"><title>Node11</title>
<g id="a_node7"><a xlink:href="../../d4/d83/classinfra_1_1_json_array.html#ae796a82e31e38bdb147e7bf84d5b1246" target="_top" xlink:title="infra::JsonArray::operator==">
<polygon fill="white" stroke="black" points="149,-0.5 149,-19.5 286,-19.5 286,-0.5 149,-0.5"/>
<text text-anchor="middle" x="217.5" y="-7.5" font-family="Helvetica,sans-Serif" font-size="10.00">infra::JsonArray::operator==</text>
</a>
</g>
</g>
<!-- Node5&#45;&gt;Node11 -->
<g id="edge6" class="edge"><title>Node5&#45;&gt;Node11</title>
<path fill="none" stroke="midnightblue" d="M73.4195,-88.1303C90.5518,-70.9141 119.355,-44.5752 149,-29 156.221,-25.2063 164.285,-22.0969 172.258,-19.5735"/>
<polygon fill="midnightblue" stroke="midnightblue" points="70.8793,-85.722 66.408,-95.3271 75.8932,-90.6068 70.8793,-85.722"/>
</g>
</g>
</svg>
