<?xml version="1.0" encoding="UTF-8" standalone="no"?>
<!DOCTYPE svg PUBLIC "-//W3C//DTD SVG 1.1//EN"
 "http://www.w3.org/Graphics/SVG/1.1/DTD/svg11.dtd">
<!-- Generated by graphviz version 2.38.0 (20140413.2041)
 -->
<!-- Title: infra::JsonArray::end Pages: 1 -->
<svg width="287pt" height="218pt"
 viewBox="0.00 0.00 287.00 218.00" xmlns="http://www.w3.org/2000/svg" xmlns:xlink="http://www.w3.org/1999/xlink">
<g id="graph0" class="graph" transform="scale(1 1) rotate(0) translate(4 214)">
<title>infra::JsonArray::end</title>
<polygon fill="white" stroke="none" points="-4,4 -4,-214 283,-214 283,4 -4,4"/>
<!-- Node13 -->
<g id="node1" class="node"><title>Node13</title>
<polygon fill="#bfbfbf" stroke="black" points="0,-95.5 0,-114.5 106,-114.5 106,-95.5 0,-95.5"/>
<text text-anchor="middle" x="53" y="-102.5" font-family="Helvetica,sans-Serif" font-size="10.00">infra::JsonArray::end</text>
</g>
<!-- Node14 -->
<g id="node2" class="node"><title>Node14</title>
<g id="a_node2"><a xlink:href="../../d0/de3/namespaceinfra.html#aec988d28c92141135d1b06037be51e64" target="_top" xlink:title="infra::JsonArrayArray">
<polygon fill="white" stroke="black" points="157,-190.5 157,-209.5 264,-209.5 264,-190.5 157,-190.5"/>
<text text-anchor="middle" x="210.5" y="-197.5" font-family="Helvetica,sans-Serif" font-size="10.00">infra::JsonArrayArray</text>
</a>
</g>
</g>
<!-- Node13&#45;&gt;Node14 -->
<g id="edge1" class="edge"><title>Node13&#45;&gt;Node14</title>
<path fill="none" stroke="midnightblue" d="M69.6265,-122.367C86.0502,-139.613 113.428,-165.636 142,-181 149.077,-184.805 156.991,-187.911 164.841,-190.426"/>
<polygon fill="midnightblue" stroke="midnightblue" points="71.8603,-119.629 62.4867,-114.691 66.7348,-124.397 71.8603,-119.629"/>
</g>
<!-- Node15 -->
<g id="node3" class="node"><title>Node15</title>
<g id="a_node3"><a xlink:href="../../d0/de3/namespaceinfra.html#aae9b170dd3b7f518ea5ba7313e012623" target="_top" xlink:title="infra::JsonBooleanArray">
<polygon fill="white" stroke="black" points="151,-152.5 151,-171.5 270,-171.5 270,-152.5 151,-152.5"/>
<text text-anchor="middle" x="210.5" y="-159.5" font-family="Helvetica,sans-Serif" font-size="10.00">infra::JsonBooleanArray</text>
</a>
</g>
</g>
<!-- Node13&#45;&gt;Node15 -->
<g id="edge2" class="edge"><title>Node13&#45;&gt;Node15</title>
<path fill="none" stroke="midnightblue" d="M83.3182,-118.827C100.248,-126.515 122.073,-135.928 142,-143 151.637,-146.42 162.218,-149.641 172.085,-152.426"/>
<polygon fill="midnightblue" stroke="midnightblue" points="84.5153,-115.525 73.9673,-114.53 81.5926,-121.886 84.5153,-115.525"/>
</g>
<!-- Node16 -->
<g id="node4" class="node"><title>Node16</title>
<g id="a_node4"><a xlink:href="../../d0/de3/namespaceinfra.html#a48cf0e7353c0669cf06c9310623cd50e" target="_top" xlink:title="infra::JsonIntegerArray">
<polygon fill="white" stroke="black" points="154,-114.5 154,-133.5 267,-133.5 267,-114.5 154,-114.5"/>
<text text-anchor="middle" x="210.5" y="-121.5" font-family="Helvetica,sans-Serif" font-size="10.00">infra::JsonIntegerArray</text>
</a>
</g>
</g>
<!-- Node13&#45;&gt;Node16 -->
<g id="edge3" class="edge"><title>Node13&#45;&gt;Node16</title>
<path fill="none" stroke="midnightblue" d="M116.472,-112.633C128.873,-114.148 141.813,-115.73 153.963,-117.214"/>
<polygon fill="midnightblue" stroke="midnightblue" points="116.563,-109.118 106.212,-111.38 115.713,-116.067 116.563,-109.118"/>
</g>
<!-- Node17 -->
<g id="node5" class="node"><title>Node17</title>
<g id="a_node5"><a xlink:href="../../d0/de3/namespaceinfra.html#af74dab01033da2b88a801af783a2aed9" target="_top" xlink:title="infra::JsonObjectArray">
<polygon fill="white" stroke="black" points="154,-76.5 154,-95.5 267,-95.5 267,-76.5 154,-76.5"/>
<text text-anchor="middle" x="210.5" y="-83.5" font-family="Helvetica,sans-Serif" font-size="10.00">infra::JsonObjectArray</text>
</a>
</g>
</g>
<!-- Node13&#45;&gt;Node17 -->
<g id="edge4" class="edge"><title>Node13&#45;&gt;Node17</title>
<path fill="none" stroke="midnightblue" d="M116.472,-97.3668C128.873,-95.8516 141.813,-94.2705 153.963,-92.7859"/>
<polygon fill="midnightblue" stroke="midnightblue" points="115.713,-93.9333 106.212,-98.6204 116.563,-100.882 115.713,-93.9333"/>
</g>
<!-- Node18 -->
<g id="node6" class="node"><title>Node18</title>
<g id="a_node6"><a xlink:href="../../d0/de3/namespaceinfra.html#a309170bfc684d6f06c165c56938c9048" target="_top" xlink:title="infra::JsonStringArray">
<polygon fill="white" stroke="black" points="155.5,-38.5 155.5,-57.5 265.5,-57.5 265.5,-38.5 155.5,-38.5"/>
<text text-anchor="middle" x="210.5" y="-45.5" font-family="Helvetica,sans-Serif" font-size="10.00">infra::JsonStringArray</text>
</a>
</g>
</g>
<!-- Node13&#45;&gt;Node18 -->
<g id="edge5" class="edge"><title>Node13&#45;&gt;Node18</title>
<path fill="none" stroke="midnightblue" d="M83.3182,-91.1729C100.248,-83.4848 122.073,-74.0716 142,-67 151.637,-63.58 162.218,-60.3587 172.085,-57.5739"/>
<polygon fill="midnightblue" stroke="midnightblue" points="81.5926,-88.114 73.9673,-95.4696 84.5153,-94.4746 81.5926,-88.114"/>
</g>
<!-- Node19 -->
<g id="node7" class="node"><title>Node19</title>
<g id="a_node7"><a xlink:href="../../d4/d83/classinfra_1_1_json_array.html#ae796a82e31e38bdb147e7bf84d5b1246" target="_top" xlink:title="infra::JsonArray::operator==">
<polygon fill="white" stroke="black" points="142,-0.5 142,-19.5 279,-19.5 279,-0.5 142,-0.5"/>
<text text-anchor="middle" x="210.5" y="-7.5" font-family="Helvetica,sans-Serif" font-size="10.00">infra::JsonArray::operator==</text>
</a>
</g>
</g>
<!-- Node13&#45;&gt;Node19 -->
<g id="edge6" class="edge"><title>Node13&#45;&gt;Node19</title>
<path fill="none" stroke="midnightblue" d="M69.6265,-87.6332C86.0502,-70.3875 113.428,-44.3638 142,-29 149.077,-25.1947 156.991,-22.0886 164.841,-19.5741"/>
<polygon fill="midnightblue" stroke="midnightblue" points="66.7348,-85.6031 62.4867,-95.3091 71.8603,-90.3707 66.7348,-85.6031"/>
</g>
</g>
</svg>
