<?xml version="1.0" encoding="UTF-8" standalone="no"?>
<!DOCTYPE svg PUBLIC "-//W3C//DTD SVG 1.1//EN"
 "http://www.w3.org/Graphics/SVG/1.1/DTD/svg11.dtd">
<!-- Generated by graphviz version 2.38.0 (20140413.2041)
 -->
<!-- Title: services::ConfigurationBlobImpl Pages: 1 -->
<svg width="389pt" height="192pt"
 viewBox="0.00 0.00 389.00 192.00" xmlns="http://www.w3.org/2000/svg" xmlns:xlink="http://www.w3.org/1999/xlink">
<g id="graph0" class="graph" transform="scale(1 1) rotate(0) translate(4 188)">
<title>services::ConfigurationBlobImpl</title>
<polygon fill="white" stroke="none" points="-4,4 -4,-188 385,-188 385,4 -4,4"/>
<!-- Node2 -->
<g id="node1" class="node"><title>Node2</title>
<polygon fill="#bfbfbf" stroke="black" points="229,-76.5 229,-95.5 381,-95.5 381,-76.5 229,-76.5"/>
<text text-anchor="middle" x="305" y="-83.5" font-family="Helvetica,sans-Serif" font-size="10.00">services::ConfigurationBlobImpl</text>
</g>
<!-- Node3 -->
<g id="node2" class="node"><title>Node3</title>
<g id="a_node2"><a xlink:href="../../d1/da2/classservices_1_1_configuration_blob.html" target="_top" xlink:title="services::ConfigurationBlob">
<polygon fill="white" stroke="black" points="0,-164.5 0,-183.5 134,-183.5 134,-164.5 0,-164.5"/>
<text text-anchor="middle" x="67" y="-171.5" font-family="Helvetica,sans-Serif" font-size="10.00">services::ConfigurationBlob</text>
</a>
</g>
</g>
<!-- Node3&#45;&gt;Node2 -->
<g id="edge1" class="edge"><title>Node3&#45;&gt;Node2</title>
<path fill="none" stroke="midnightblue" d="M112.149,-161.591C119.465,-159.448 126.958,-157.201 134,-155 168.475,-144.223 177.448,-142.377 211,-129 237.107,-118.592 266.414,-104.652 285.026,-95.504"/>
<polygon fill="midnightblue" stroke="midnightblue" points="110.974,-158.287 102.343,-164.433 112.923,-165.01 110.974,-158.287"/>
</g>
<!-- Node4 -->
<g id="node3" class="node"><title>Node4</title>
<g id="a_node3"><a xlink:href="../../d5/d33/classinfra_1_1_auto_reset_function.html" target="_top" xlink:title="infra::AutoResetFunction\l\&lt; void(bool success)\&gt;">
<polygon fill="white" stroke="black" points="5,-115 5,-145 129,-145 129,-115 5,-115"/>
<text text-anchor="start" x="13" y="-133" font-family="Helvetica,sans-Serif" font-size="10.00">infra::AutoResetFunction</text>
<text text-anchor="middle" x="67" y="-122" font-family="Helvetica,sans-Serif" font-size="10.00">&lt; void(bool success)&gt;</text>
</a>
</g>
</g>
<!-- Node4&#45;&gt;Node2 -->
<g id="edge2" class="edge"><title>Node4&#45;&gt;Node2</title>
<path fill="none" stroke="#9a32cd" stroke-dasharray="5,2" d="M139.196,-116.726C175.779,-109.906 219.523,-101.75 252.748,-95.5555"/>
<polygon fill="#9a32cd" stroke="#9a32cd" points="138.272,-113.338 129.083,-118.612 139.555,-120.219 138.272,-113.338"/>
<text text-anchor="middle" x="181.5" y="-117" font-family="Helvetica,sans-Serif" font-size="10.00"> onRecovered</text>
</g>
<!-- Node5 -->
<g id="node4" class="node"><title>Node5</title>
<polygon fill="white" stroke="#bfbfbf" points="41.5,-76.5 41.5,-95.5 92.5,-95.5 92.5,-76.5 41.5,-76.5"/>
<text text-anchor="middle" x="67" y="-83.5" font-family="Helvetica,sans-Serif" font-size="10.00">uint32_t</text>
</g>
<!-- Node5&#45;&gt;Node2 -->
<g id="edge3" class="edge"><title>Node5&#45;&gt;Node2</title>
<path fill="none" stroke="#9a32cd" stroke-dasharray="5,2" d="M102.894,-86C135.97,-86 186.741,-86 228.992,-86"/>
<polygon fill="#9a32cd" stroke="#9a32cd" points="102.81,-82.5001 92.8101,-86 102.81,-89.5001 102.81,-82.5001"/>
<text text-anchor="middle" x="181.5" y="-89" font-family="Helvetica,sans-Serif" font-size="10.00"> currentSize</text>
</g>
<!-- Node6 -->
<g id="node5" class="node"><title>Node6</title>
<g id="a_node5"><a xlink:href="../../dd/d95/classhal_1_1_flash.html" target="_top" xlink:title="hal::Flash">
<polygon fill="white" stroke="black" points="37.5,-38.5 37.5,-57.5 96.5,-57.5 96.5,-38.5 37.5,-38.5"/>
<text text-anchor="middle" x="67" y="-45.5" font-family="Helvetica,sans-Serif" font-size="10.00">hal::Flash</text>
</a>
</g>
</g>
<!-- Node6&#45;&gt;Node2 -->
<g id="edge4" class="edge"><title>Node6&#45;&gt;Node2</title>
<path fill="none" stroke="#9a32cd" stroke-dasharray="5,2" d="M106.811,-54.2376C135.575,-58.8616 175.734,-65.3199 211,-71 221.98,-72.7684 233.688,-74.6557 244.963,-76.474"/>
<polygon fill="#9a32cd" stroke="#9a32cd" points="107.189,-50.7535 96.7599,-52.6219 106.078,-57.6647 107.189,-50.7535"/>
<text text-anchor="middle" x="181.5" y="-74" font-family="Helvetica,sans-Serif" font-size="10.00"> flash</text>
</g>
<!-- Node7 -->
<g id="node6" class="node"><title>Node7</title>
<polygon fill="white" stroke="#bfbfbf" points="3.5,-0.5 3.5,-19.5 130.5,-19.5 130.5,-0.5 3.5,-0.5"/>
<text text-anchor="middle" x="67" y="-7.5" font-family="Helvetica,sans-Serif" font-size="10.00">MemoryRange&lt; uint8_t &gt;</text>
</g>
<!-- Node7&#45;&gt;Node2 -->
<g id="edge5" class="edge"><title>Node7&#45;&gt;Node2</title>
<path fill="none" stroke="#9a32cd" stroke-dasharray="5,2" d="M121.703,-21.9571C148.758,-28.4685 181.911,-37.1941 211,-47 236.55,-55.6128 265.015,-67.9765 283.641,-76.4616"/>
<polygon fill="#9a32cd" stroke="#9a32cd" points="122.192,-18.4759 111.654,-19.5723 120.576,-25.2867 122.192,-18.4759"/>
<text text-anchor="middle" x="181.5" y="-50" font-family="Helvetica,sans-Serif" font-size="10.00"> blob</text>
</g>
</g>
</svg>
