<?xml version="1.0" encoding="UTF-8" standalone="no"?>
<!DOCTYPE svg PUBLIC "-//W3C//DTD SVG 1.1//EN"
 "http://www.w3.org/Graphics/SVG/1.1/DTD/svg11.dtd">
<!-- Generated by graphviz version 2.38.0 (20140413.2041)
 -->
<!-- Title: infra::AllocatorFixedSpace&lt; T, NumberOfElements, void(ConstructionArgs...)&gt; Pages: 1 -->
<svg width="152pt" height="173pt"
 viewBox="0.00 0.00 152.00 173.00" xmlns="http://www.w3.org/2000/svg" xmlns:xlink="http://www.w3.org/1999/xlink">
<g id="graph0" class="graph" transform="scale(1 1) rotate(0) translate(4 169)">
<title>infra::AllocatorFixedSpace&lt; T, NumberOfElements, void(ConstructionArgs...)&gt;</title>
<polygon fill="white" stroke="none" points="-4,4 -4,-169 148,-169 148,4 -4,4"/>
<!-- Node0 -->
<g id="node1" class="node"><title>Node0</title>
<polygon fill="#bfbfbf" stroke="black" points="0,-0.5 0,-41.5 144,-41.5 144,-0.5 0,-0.5"/>
<text text-anchor="start" x="8" y="-29.5" font-family="Helvetica,sans-Serif" font-size="10.00">infra::AllocatorFixedSpace</text>
<text text-anchor="start" x="8" y="-18.5" font-family="Helvetica,sans-Serif" font-size="10.00">&lt; T, NumberOfElements, void</text>
<text text-anchor="middle" x="72" y="-7.5" font-family="Helvetica,sans-Serif" font-size="10.00">(ConstructionArgs...)&gt;</text>
</g>
<!-- Node1 -->
<g id="node2" class="node"><title>Node1</title>
<g id="a_node2"><a xlink:href="../../dc/d81/classinfra_1_1_allocator_3_01_t_00_01void_07_construction_args_8_8_8_08_4.html" target="_top" xlink:title="infra::Allocator\&lt; T,\l void(ConstructionArgs...)\&gt;">
<polygon fill="white" stroke="black" points="6,-78.5 6,-108.5 138,-108.5 138,-78.5 6,-78.5"/>
<text text-anchor="start" x="14" y="-96.5" font-family="Helvetica,sans-Serif" font-size="10.00">infra::Allocator&lt; T,</text>
<text text-anchor="middle" x="72" y="-85.5" font-family="Helvetica,sans-Serif" font-size="10.00"> void(ConstructionArgs...)&gt;</text>
</a>
</g>
</g>
<!-- Node1&#45;&gt;Node0 -->
<g id="edge1" class="edge"><title>Node1&#45;&gt;Node0</title>
<path fill="none" stroke="midnightblue" d="M72,-67.9815C72,-59.3468 72,-49.7625 72,-41.5884"/>
<polygon fill="midnightblue" stroke="midnightblue" points="68.5001,-68.2332 72,-78.2333 75.5001,-68.2333 68.5001,-68.2332"/>
</g>
<!-- Node2 -->
<g id="node3" class="node"><title>Node2</title>
<g id="a_node3"><a xlink:href="../../df/db7/classinfra_1_1_allocator_base.html" target="_top" xlink:title="infra::AllocatorBase">
<polygon fill="white" stroke="black" points="21.5,-145.5 21.5,-164.5 122.5,-164.5 122.5,-145.5 21.5,-145.5"/>
<text text-anchor="middle" x="72" y="-152.5" font-family="Helvetica,sans-Serif" font-size="10.00">infra::AllocatorBase</text>
</a>
</g>
</g>
<!-- Node2&#45;&gt;Node1 -->
<g id="edge2" class="edge"><title>Node2&#45;&gt;Node1</title>
<path fill="none" stroke="midnightblue" d="M72,-135.235C72,-126.586 72,-116.497 72,-108.523"/>
<polygon fill="midnightblue" stroke="midnightblue" points="68.5001,-135.475 72,-145.475 75.5001,-135.475 68.5001,-135.475"/>
</g>
</g>
</svg>
