<?xml version="1.0" encoding="UTF-8" standalone="no"?>
<!DOCTYPE svg PUBLIC "-//W3C//DTD SVG 1.1//EN"
 "http://www.w3.org/Graphics/SVG/1.1/DTD/svg11.dtd">
<!-- Generated by graphviz version 2.38.0 (20140413.2041)
 -->
<!-- Title: infra::detail::IntrusiveBinarySearchTreeNode&lt; T &gt; Pages: 1 -->
<svg width="148pt" height="150pt"
 viewBox="0.00 0.00 148.00 150.00" xmlns="http://www.w3.org/2000/svg" xmlns:xlink="http://www.w3.org/1999/xlink">
<g id="graph0" class="graph" transform="scale(1 1) rotate(0) translate(4 146)">
<title>infra::detail::IntrusiveBinarySearchTreeNode&lt; T &gt;</title>
<polygon fill="white" stroke="none" points="-4,4 -4,-146 144,-146 144,4 -4,4"/>
<!-- Node2 -->
<g id="node1" class="node"><title>Node2</title>
<polygon fill="#bfbfbf" stroke="black" points="0,-0.5 0,-30.5 140,-30.5 140,-0.5 0,-0.5"/>
<text text-anchor="start" x="8" y="-18.5" font-family="Helvetica,sans-Serif" font-size="10.00">infra::detail::Intrusive</text>
<text text-anchor="middle" x="70" y="-7.5" font-family="Helvetica,sans-Serif" font-size="10.00">BinarySearchTreeNode&lt; T &gt;</text>
</g>
<!-- Node3 -->
<g id="node2" class="node"><title>Node3</title>
<polygon fill="white" stroke="#bfbfbf" points="55.5,-122.5 55.5,-141.5 84.5,-141.5 84.5,-122.5 55.5,-122.5"/>
<text text-anchor="middle" x="70" y="-129.5" font-family="Helvetica,sans-Serif" font-size="10.00">T *</text>
</g>
<!-- Node3&#45;&gt;Node2 -->
<g id="edge1" class="edge"><title>Node3&#45;&gt;Node2</title>
<path fill="none" stroke="#9a32cd" stroke-dasharray="5,2" d="M70,-112.294C70,-89.4785 70,-51.4142 70,-30.8061"/>
<polygon fill="#9a32cd" stroke="#9a32cd" points="66.5001,-112.394 70,-122.394 73.5001,-112.394 66.5001,-112.394"/>
<text text-anchor="middle" x="105" y="-96" font-family="Helvetica,sans-Serif" font-size="10.00"> previousInOrder</text>
<text text-anchor="middle" x="105" y="-85" font-family="Helvetica,sans-Serif" font-size="10.00">right</text>
<text text-anchor="middle" x="105" y="-74" font-family="Helvetica,sans-Serif" font-size="10.00">left</text>
<text text-anchor="middle" x="105" y="-63" font-family="Helvetica,sans-Serif" font-size="10.00">nextInOrder</text>
<text text-anchor="middle" x="105" y="-52" font-family="Helvetica,sans-Serif" font-size="10.00">parent</text>
</g>
</g>
</svg>
