<?xml version="1.0" encoding="UTF-8" standalone="no"?>
<!DOCTYPE svg PUBLIC "-//W3C//DTD SVG 1.1//EN"
 "http://www.w3.org/Graphics/SVG/1.1/DTD/svg11.dtd">
<!-- Generated by graphviz version 2.38.0 (20140413.2041)
 -->
<!-- Title: services::DnsResolver::HostnamePartsStream::HostnamePartsStream Pages: 1 -->
<svg width="450pt" height="50pt"
 viewBox="0.00 0.00 450.00 50.00" xmlns="http://www.w3.org/2000/svg" xmlns:xlink="http://www.w3.org/1999/xlink">
<g id="graph0" class="graph" transform="scale(1 1) rotate(0) translate(4 46)">
<title>services::DnsResolver::HostnamePartsStream::HostnamePartsStream</title>
<polygon fill="white" stroke="none" points="-4,4 -4,-46 446,-46 446,4 -4,4"/>
<!-- Node0 -->
<g id="node1" class="node"><title>Node0</title>
<polygon fill="#bfbfbf" stroke="black" points="0,-0.5 0,-41.5 122,-41.5 122,-0.5 0,-0.5"/>
<text text-anchor="start" x="8" y="-29.5" font-family="Helvetica,sans-Serif" font-size="10.00">services::DnsResolver</text>
<text text-anchor="start" x="8" y="-18.5" font-family="Helvetica,sans-Serif" font-size="10.00">::HostnamePartsStream</text>
<text text-anchor="middle" x="61" y="-7.5" font-family="Helvetica,sans-Serif" font-size="10.00">::HostnamePartsStream</text>
</g>
<!-- Node1 -->
<g id="node2" class="node"><title>Node1</title>
<g id="a_node2"><a xlink:href="../../da/d8b/classservices_1_1_dns_resolver_1_1_hostname_parts_stream.html#a49b7f93ce0133c5efaa890fb3065c116" target="_top" xlink:title="services::DnsResolver\l::HostnamePartsStream\l::ReadNext">
<polygon fill="white" stroke="black" points="158,-0.5 158,-41.5 280,-41.5 280,-0.5 158,-0.5"/>
<text text-anchor="start" x="166" y="-29.5" font-family="Helvetica,sans-Serif" font-size="10.00">services::DnsResolver</text>
<text text-anchor="start" x="166" y="-18.5" font-family="Helvetica,sans-Serif" font-size="10.00">::HostnamePartsStream</text>
<text text-anchor="middle" x="219" y="-7.5" font-family="Helvetica,sans-Serif" font-size="10.00">::ReadNext</text>
</a>
</g>
</g>
<!-- Node0&#45;&gt;Node1 -->
<g id="edge1" class="edge"><title>Node0&#45;&gt;Node1</title>
<path fill="none" stroke="midnightblue" d="M122.314,-21C130.604,-21 139.175,-21 147.626,-21"/>
<polygon fill="midnightblue" stroke="midnightblue" points="147.847,-24.5001 157.847,-21 147.847,-17.5001 147.847,-24.5001"/>
</g>
<!-- Node2 -->
<g id="node3" class="node"><title>Node2</title>
<g id="a_node3"><a xlink:href="../../d0/de3/namespaceinfra.html#a0c84a597359489e77f73d6cfd3bc8516" target="_top" xlink:title="infra::StringAsByteRange">
<polygon fill="white" stroke="black" points="316,-11.5 316,-30.5 442,-30.5 442,-11.5 316,-11.5"/>
<text text-anchor="middle" x="379" y="-18.5" font-family="Helvetica,sans-Serif" font-size="10.00">infra::StringAsByteRange</text>
</a>
</g>
</g>
<!-- Node1&#45;&gt;Node2 -->
<g id="edge2" class="edge"><title>Node1&#45;&gt;Node2</title>
<path fill="none" stroke="midnightblue" d="M280.184,-21C288.583,-21 297.284,-21 305.875,-21"/>
<polygon fill="midnightblue" stroke="midnightblue" points="305.886,-24.5001 315.886,-21 305.885,-17.5001 305.886,-24.5001"/>
</g>
</g>
</svg>
