<?xml version="1.0" encoding="UTF-8" standalone="no"?>
<!DOCTYPE svg PUBLIC "-//W3C//DTD SVG 1.1//EN"
 "http://www.w3.org/Graphics/SVG/1.1/DTD/svg11.dtd">
<!-- Generated by graphviz version 2.38.0 (20140413.2041)
 -->
<!-- Title: services::DnsResolver::HostnamePartsStream::ReadNext Pages: 1 -->
<svg width="288pt" height="50pt"
 viewBox="0.00 0.00 288.00 50.00" xmlns="http://www.w3.org/2000/svg" xmlns:xlink="http://www.w3.org/1999/xlink">
<g id="graph0" class="graph" transform="scale(1 1) rotate(0) translate(4 46)">
<title>services::DnsResolver::HostnamePartsStream::ReadNext</title>
<polygon fill="white" stroke="none" points="-4,4 -4,-46 284,-46 284,4 -4,4"/>
<!-- Node12 -->
<g id="node1" class="node"><title>Node12</title>
<polygon fill="#bfbfbf" stroke="black" points="0,-0.5 0,-41.5 122,-41.5 122,-0.5 0,-0.5"/>
<text text-anchor="start" x="8" y="-29.5" font-family="Helvetica,sans-Serif" font-size="10.00">services::DnsResolver</text>
<text text-anchor="start" x="8" y="-18.5" font-family="Helvetica,sans-Serif" font-size="10.00">::HostnamePartsStream</text>
<text text-anchor="middle" x="61" y="-7.5" font-family="Helvetica,sans-Serif" font-size="10.00">::ReadNext</text>
</g>
<!-- Node13 -->
<g id="node2" class="node"><title>Node13</title>
<g id="a_node2"><a xlink:href="../../da/d8b/classservices_1_1_dns_resolver_1_1_hostname_parts_stream.html#a85dda13f1f2949d561fbbb84fe63c1ab" target="_top" xlink:title="services::DnsResolver\l::HostnamePartsStream\l::HostnamePartsStream">
<polygon fill="white" stroke="black" points="158,-0.5 158,-41.5 280,-41.5 280,-0.5 158,-0.5"/>
<text text-anchor="start" x="166" y="-29.5" font-family="Helvetica,sans-Serif" font-size="10.00">services::DnsResolver</text>
<text text-anchor="start" x="166" y="-18.5" font-family="Helvetica,sans-Serif" font-size="10.00">::HostnamePartsStream</text>
<text text-anchor="middle" x="219" y="-7.5" font-family="Helvetica,sans-Serif" font-size="10.00">::HostnamePartsStream</text>
</a>
</g>
</g>
<!-- Node12&#45;&gt;Node13 -->
<g id="edge1" class="edge"><title>Node12&#45;&gt;Node13</title>
<path fill="none" stroke="midnightblue" d="M132.538,-21C140.99,-21 149.56,-21 157.847,-21"/>
<polygon fill="midnightblue" stroke="midnightblue" points="132.314,-17.5001 122.314,-21 132.314,-24.5001 132.314,-17.5001"/>
</g>
</g>
</svg>
