<?xml version="1.0" encoding="UTF-8" standalone="no"?>
<!DOCTYPE svg PUBLIC "-//W3C//DTD SVG 1.1//EN"
 "http://www.w3.org/Graphics/SVG/1.1/DTD/svg11.dtd">
<!-- Generated by graphviz version 2.38.0 (20140413.2041)
 -->
<!-- Title: services::MqttClientImpl::MqttFormatter::MessageSizeConnect Pages: 1 -->
<svg width="376pt" height="39pt"
 viewBox="0.00 0.00 376.00 39.00" xmlns="http://www.w3.org/2000/svg" xmlns:xlink="http://www.w3.org/1999/xlink">
<g id="graph0" class="graph" transform="scale(1 1) rotate(0) translate(4 35)">
<title>services::MqttClientImpl::MqttFormatter::MessageSizeConnect</title>
<polygon fill="white" stroke="none" points="-4,4 -4,-35 372,-35 372,4 -4,4"/>
<!-- Node20 -->
<g id="node1" class="node"><title>Node20</title>
<polygon fill="#bfbfbf" stroke="black" points="0,-0.5 0,-30.5 185,-30.5 185,-0.5 0,-0.5"/>
<text text-anchor="start" x="8" y="-18.5" font-family="Helvetica,sans-Serif" font-size="10.00">services::MqttClientImpl</text>
<text text-anchor="middle" x="92.5" y="-7.5" font-family="Helvetica,sans-Serif" font-size="10.00">::MqttFormatter::MessageSizeConnect</text>
</g>
<!-- Node21 -->
<g id="node2" class="node"><title>Node21</title>
<g id="a_node2"><a xlink:href="../../db/d78/classservices_1_1_mqtt_client_impl_1_1_state_connecting.html#a18e8718a0b09f61a236013df64e1f5e6" target="_top" xlink:title="services::MqttClientImpl\l::StateConnecting::Connected">
<polygon fill="white" stroke="black" points="221,-0.5 221,-30.5 368,-30.5 368,-0.5 221,-0.5"/>
<text text-anchor="start" x="229" y="-18.5" font-family="Helvetica,sans-Serif" font-size="10.00">services::MqttClientImpl</text>
<text text-anchor="middle" x="294.5" y="-7.5" font-family="Helvetica,sans-Serif" font-size="10.00">::StateConnecting::Connected</text>
</a>
</g>
</g>
<!-- Node20&#45;&gt;Node21 -->
<g id="edge1" class="edge"><title>Node20&#45;&gt;Node21</title>
<path fill="none" stroke="midnightblue" d="M195.19,-15.5C203.867,-15.5 212.526,-15.5 220.907,-15.5"/>
<polygon fill="midnightblue" stroke="midnightblue" points="195.013,-12.0001 185.013,-15.5 195.013,-19.0001 195.013,-12.0001"/>
</g>
</g>
</svg>
