<?xml version="1.0" encoding="UTF-8" standalone="no"?>
<!DOCTYPE svg PUBLIC "-//W3C//DTD SVG 1.1//EN"
 "http://www.w3.org/Graphics/SVG/1.1/DTD/svg11.dtd">
<!-- Generated by graphviz version 2.38.0 (20140413.2041)
 -->
<!-- Title: services::MqttClientImpl::MqttParser::ExtractType Pages: 1 -->
<svg width="298pt" height="39pt"
 viewBox="0.00 0.00 298.00 39.00" xmlns="http://www.w3.org/2000/svg" xmlns:xlink="http://www.w3.org/1999/xlink">
<g id="graph0" class="graph" transform="scale(1 1) rotate(0) translate(4 35)">
<title>services::MqttClientImpl::MqttParser::ExtractType</title>
<polygon fill="white" stroke="none" points="-4,4 -4,-35 294,-35 294,4 -4,4"/>
<!-- Node8 -->
<g id="node1" class="node"><title>Node8</title>
<polygon fill="#bfbfbf" stroke="black" points="0,-0.5 0,-30.5 129,-30.5 129,-0.5 0,-0.5"/>
<text text-anchor="start" x="8" y="-18.5" font-family="Helvetica,sans-Serif" font-size="10.00">services::MqttClientImpl</text>
<text text-anchor="middle" x="64.5" y="-7.5" font-family="Helvetica,sans-Serif" font-size="10.00">::MqttParser::ExtractType</text>
</g>
<!-- Node9 -->
<g id="node2" class="node"><title>Node9</title>
<g id="a_node2"><a xlink:href="../../d6/d71/classservices_1_1_mqtt_client_impl_1_1_mqtt_parser.html#a26305035769b9eadeb9db75eed5e1001" target="_top" xlink:title="services::MqttClientImpl\l::MqttParser::MqttParser">
<polygon fill="white" stroke="black" points="165,-0.5 165,-30.5 290,-30.5 290,-0.5 165,-0.5"/>
<text text-anchor="start" x="173" y="-18.5" font-family="Helvetica,sans-Serif" font-size="10.00">services::MqttClientImpl</text>
<text text-anchor="middle" x="227.5" y="-7.5" font-family="Helvetica,sans-Serif" font-size="10.00">::MqttParser::MqttParser</text>
</a>
</g>
</g>
<!-- Node8&#45;&gt;Node9 -->
<g id="edge1" class="edge"><title>Node8&#45;&gt;Node9</title>
<path fill="none" stroke="midnightblue" d="M139.165,-15.5C147.773,-15.5 156.487,-15.5 164.908,-15.5"/>
<polygon fill="midnightblue" stroke="midnightblue" points="139.131,-12.0001 129.131,-15.5 139.131,-19.0001 139.131,-12.0001"/>
</g>
</g>
</svg>
