<?xml version="1.0" encoding="UTF-8" standalone="no"?>
<!DOCTYPE svg PUBLIC "-//W3C//DTD SVG 1.1//EN"
 "http://www.w3.org/Graphics/SVG/1.1/DTD/svg11.dtd">
<!-- Generated by graphviz version 2.38.0 (20140413.2041)
 -->
<!-- Title: services::StreamEchoConnection Pages: 1 -->
<svg width="169pt" height="162pt"
 viewBox="0.00 0.00 169.00 162.00" xmlns="http://www.w3.org/2000/svg" xmlns:xlink="http://www.w3.org/1999/xlink">
<g id="graph0" class="graph" transform="scale(1 1) rotate(0) translate(4 158)">
<title>services::StreamEchoConnection</title>
<polygon fill="white" stroke="none" points="-4,4 -4,-158 165,-158 165,4 -4,4"/>
<!-- Node0 -->
<g id="node1" class="node"><title>Node0</title>
<polygon fill="#bfbfbf" stroke="black" points="0,-0.5 0,-19.5 161,-19.5 161,-0.5 0,-0.5"/>
<text text-anchor="middle" x="80.5" y="-7.5" font-family="Helvetica,sans-Serif" font-size="10.00">services::StreamEchoConnection</text>
</g>
<!-- Node1 -->
<g id="node2" class="node"><title>Node1</title>
<g id="a_node2"><a xlink:href="../../dc/de5/classservices_1_1_connection_observer.html" target="_top" xlink:title="services::ConnectionObserver">
<polygon fill="white" stroke="black" points="8,-56.5 8,-75.5 153,-75.5 153,-56.5 8,-56.5"/>
<text text-anchor="middle" x="80.5" y="-63.5" font-family="Helvetica,sans-Serif" font-size="10.00">services::ConnectionObserver</text>
</a>
</g>
</g>
<!-- Node1&#45;&gt;Node0 -->
<g id="edge1" class="edge"><title>Node1&#45;&gt;Node0</title>
<path fill="none" stroke="midnightblue" d="M80.5,-45.8045C80.5,-36.9102 80.5,-26.7798 80.5,-19.7511"/>
<polygon fill="midnightblue" stroke="midnightblue" points="77.0001,-46.083 80.5,-56.083 84.0001,-46.083 77.0001,-46.083"/>
</g>
<!-- Node2 -->
<g id="node3" class="node"><title>Node2</title>
<g id="a_node3"><a xlink:href="../../dc/d4c/classinfra_1_1_single_observer.html" target="_top" xlink:title="infra::SingleObserver\l\&lt; ConnectionObserver,\l Connection \&gt;">
<polygon fill="white" stroke="black" points="22.5,-112.5 22.5,-153.5 138.5,-153.5 138.5,-112.5 22.5,-112.5"/>
<text text-anchor="start" x="30.5" y="-141.5" font-family="Helvetica,sans-Serif" font-size="10.00">infra::SingleObserver</text>
<text text-anchor="start" x="30.5" y="-130.5" font-family="Helvetica,sans-Serif" font-size="10.00">&lt; ConnectionObserver,</text>
<text text-anchor="middle" x="80.5" y="-119.5" font-family="Helvetica,sans-Serif" font-size="10.00"> Connection &gt;</text>
</a>
</g>
</g>
<!-- Node2&#45;&gt;Node1 -->
<g id="edge2" class="edge"><title>Node2&#45;&gt;Node1</title>
<path fill="none" stroke="midnightblue" d="M80.5,-102.263C80.5,-92.5592 80.5,-82.5242 80.5,-75.6525"/>
<polygon fill="midnightblue" stroke="midnightblue" points="77.0001,-102.498 80.5,-112.498 84.0001,-102.498 77.0001,-102.498"/>
</g>
</g>
</svg>
