<?xml version="1.0" encoding="UTF-8" standalone="no"?>
<!DOCTYPE svg PUBLIC "-//W3C//DTD SVG 1.1//EN"
 "http://www.w3.org/Graphics/SVG/1.1/DTD/svg11.dtd">
<!-- Generated by graphviz version 2.38.0 (20140413.2041)
 -->
<!-- Title: hal::I2cMaster::ReceiveData Pages: 1 -->
<svg width="675pt" height="88pt"
 viewBox="0.00 0.00 675.00 88.00" xmlns="http://www.w3.org/2000/svg" xmlns:xlink="http://www.w3.org/1999/xlink">
<g id="graph0" class="graph" transform="scale(1 1) rotate(0) translate(4 84)">
<title>hal::I2cMaster::ReceiveData</title>
<polygon fill="white" stroke="none" points="-4,4 -4,-84 671,-84 671,4 -4,4"/>
<!-- Node9 -->
<g id="node1" class="node"><title>Node9</title>
<polygon fill="#bfbfbf" stroke="black" points="0,-30 0,-49 138,-49 138,-30 0,-30"/>
<text text-anchor="middle" x="69" y="-37" font-family="Helvetica,sans-Serif" font-size="10.00">hal::I2cMaster::ReceiveData</text>
</g>
<!-- Node10 -->
<g id="node2" class="node"><title>Node10</title>
<g id="a_node2"><a xlink:href="../../da/dea/classhal_1_1_i2c_master_register_access.html#a3e32561d4c8528fd4517934589b05aa1" target="_top" xlink:title="hal::I2cMasterRegisterAccess\l::ReadRegister">
<polygon fill="white" stroke="black" points="174,-49.5 174,-79.5 321,-79.5 321,-49.5 174,-49.5"/>
<text text-anchor="start" x="182" y="-67.5" font-family="Helvetica,sans-Serif" font-size="10.00">hal::I2cMasterRegisterAccess</text>
<text text-anchor="middle" x="247.5" y="-56.5" font-family="Helvetica,sans-Serif" font-size="10.00">::ReadRegister</text>
</a>
</g>
</g>
<!-- Node9&#45;&gt;Node10 -->
<g id="edge1" class="edge"><title>Node9&#45;&gt;Node10</title>
<path fill="none" stroke="midnightblue" d="M147.164,-50.4297C156.036,-51.6864 165.06,-52.9646 173.87,-54.2125"/>
<polygon fill="midnightblue" stroke="midnightblue" points="147.623,-46.9599 137.231,-49.0227 146.641,-53.8907 147.623,-46.9599"/>
</g>
<!-- Node11 -->
<g id="node3" class="node"><title>Node11</title>
<g id="a_node3"><a xlink:href="../../de/d17/classservices_1_1_i2c_multiple_access_master.html#a028cbbfe486203e9b1cd8c6bc627735e" target="_top" xlink:title="services::I2cMultipleAccess\lMaster::ReceiveData">
<polygon fill="white" stroke="black" points="179,-0.5 179,-30.5 316,-30.5 316,-0.5 179,-0.5"/>
<text text-anchor="start" x="187" y="-18.5" font-family="Helvetica,sans-Serif" font-size="10.00">services::I2cMultipleAccess</text>
<text text-anchor="middle" x="247.5" y="-7.5" font-family="Helvetica,sans-Serif" font-size="10.00">Master::ReceiveData</text>
</a>
</g>
</g>
<!-- Node9&#45;&gt;Node11 -->
<g id="edge2" class="edge"><title>Node9&#45;&gt;Node11</title>
<path fill="none" stroke="midnightblue" d="M148.306,-28.8521C158.453,-27.4724 168.777,-26.0686 178.733,-24.7148"/>
<polygon fill="midnightblue" stroke="midnightblue" points="147.677,-25.4054 138.24,-30.221 148.62,-32.3416 147.677,-25.4054"/>
</g>
<!-- Node12 -->
<g id="node4" class="node"><title>Node12</title>
<g id="a_node4"><a xlink:href="../../d3/dda/classservices_1_1_i2c_multiple_access.html#a439ffd78578d60c9ad735db4f9058140" target="_top" xlink:title="services::I2cMultipleAccess\l::ReceiveDataOnClaimed">
<polygon fill="white" stroke="black" points="357,-0.5 357,-30.5 494,-30.5 494,-0.5 357,-0.5"/>
<text text-anchor="start" x="365" y="-18.5" font-family="Helvetica,sans-Serif" font-size="10.00">services::I2cMultipleAccess</text>
<text text-anchor="middle" x="425.5" y="-7.5" font-family="Helvetica,sans-Serif" font-size="10.00">::ReceiveDataOnClaimed</text>
</a>
</g>
</g>
<!-- Node11&#45;&gt;Node12 -->
<g id="edge3" class="edge"><title>Node11&#45;&gt;Node12</title>
<path fill="none" stroke="midnightblue" d="M326.18,-15.5C336.402,-15.5 346.811,-15.5 356.847,-15.5"/>
<polygon fill="midnightblue" stroke="midnightblue" points="326.043,-12.0001 316.043,-15.5 326.043,-19.0001 326.043,-12.0001"/>
</g>
<!-- Node13 -->
<g id="node5" class="node"><title>Node13</title>
<g id="a_node5"><a xlink:href="../../d3/dda/classservices_1_1_i2c_multiple_access.html#a198dd0a57652b91831980ce75a46fafa" target="_top" xlink:title="services::I2cMultipleAccess\l::ReceiveData">
<polygon fill="white" stroke="black" points="530,-0.5 530,-30.5 667,-30.5 667,-0.5 530,-0.5"/>
<text text-anchor="start" x="538" y="-18.5" font-family="Helvetica,sans-Serif" font-size="10.00">services::I2cMultipleAccess</text>
<text text-anchor="middle" x="598.5" y="-7.5" font-family="Helvetica,sans-Serif" font-size="10.00">::ReceiveData</text>
</a>
</g>
</g>
<!-- Node12&#45;&gt;Node13 -->
<g id="edge4" class="edge"><title>Node12&#45;&gt;Node13</title>
<path fill="none" stroke="midnightblue" d="M504.1,-15.5C512.692,-15.5 521.391,-15.5 529.847,-15.5"/>
<polygon fill="midnightblue" stroke="midnightblue" points="504.084,-12.0001 494.084,-15.5 504.084,-19.0001 504.084,-12.0001"/>
</g>
</g>
</svg>
