<?xml version="1.0" encoding="UTF-8" standalone="no"?>
<!DOCTYPE svg PUBLIC "-//W3C//DTD SVG 1.1//EN"
 "http://www.w3.org/Graphics/SVG/1.1/DTD/svg11.dtd">
<!-- Generated by graphviz version 2.38.0 (20140413.2041)
 -->
<!-- Title: Impl Pages: 1 -->
<svg width="248pt" height="88pt"
 viewBox="0.00 0.00 248.00 88.00" xmlns="http://www.w3.org/2000/svg" xmlns:xlink="http://www.w3.org/1999/xlink">
<g id="graph0" class="graph" transform="scale(1 1) rotate(0) translate(4 84)">
<title>Impl</title>
<polygon fill="white" stroke="none" points="-4,4 -4,-84 244,-84 244,4 -4,4"/>
<!-- Node0 -->
<g id="node1" class="node"><title>Node0</title>
<polygon fill="#bfbfbf" stroke="black" points="0,-30 0,-49 35,-49 35,-30 0,-30"/>
<text text-anchor="middle" x="17.5" y="-37" font-family="Helvetica,sans-Serif" font-size="10.00">Impl</text>
</g>
<!-- Node1 -->
<g id="node2" class="node"><title>Node1</title>
<g id="a_node2"><a xlink:href="../../d0/d19/classhal_1_1_analog_to_digital_pin_converter.html" target="_top" xlink:title="hal::AnalogToDigitalPinConverter\l\&lt; Conversion, Unit, Storage, Impl \&gt;">
<polygon fill="white" stroke="black" points="71,-49.5 71,-79.5 240,-79.5 240,-49.5 71,-49.5"/>
<text text-anchor="start" x="79" y="-67.5" font-family="Helvetica,sans-Serif" font-size="10.00">hal::AnalogToDigitalPinConverter</text>
<text text-anchor="middle" x="155.5" y="-56.5" font-family="Helvetica,sans-Serif" font-size="10.00">&lt; Conversion, Unit, Storage, Impl &gt;</text>
</a>
</g>
</g>
<!-- Node0&#45;&gt;Node1 -->
<g id="edge1" class="edge"><title>Node0&#45;&gt;Node1</title>
<path fill="none" stroke="midnightblue" d="M45.1503,-44.399C53.3629,-45.9086 62.8726,-47.6567 72.7882,-49.4795"/>
<polygon fill="midnightblue" stroke="midnightblue" points="45.6443,-40.9312 35.1763,-42.5655 44.3787,-47.8158 45.6443,-40.9312"/>
</g>
<!-- Node2 -->
<g id="node3" class="node"><title>Node2</title>
<g id="a_node3"><a xlink:href="../../da/db1/classhal_1_1_digital_to_analog_pin_converter.html" target="_top" xlink:title="hal::DigitalToAnalogPinConverter\l\&lt; Conversion, Unit, Storage, Impl \&gt;">
<polygon fill="white" stroke="black" points="71,-0.5 71,-30.5 240,-30.5 240,-0.5 71,-0.5"/>
<text text-anchor="start" x="79" y="-18.5" font-family="Helvetica,sans-Serif" font-size="10.00">hal::DigitalToAnalogPinConverter</text>
<text text-anchor="middle" x="155.5" y="-7.5" font-family="Helvetica,sans-Serif" font-size="10.00">&lt; Conversion, Unit, Storage, Impl &gt;</text>
</a>
</g>
</g>
<!-- Node0&#45;&gt;Node2 -->
<g id="edge2" class="edge"><title>Node0&#45;&gt;Node2</title>
<path fill="none" stroke="midnightblue" d="M45.2176,-34.7851C52.9081,-33.428 61.7322,-31.8708 70.9596,-30.2424"/>
<polygon fill="midnightblue" stroke="midnightblue" points="44.4158,-31.3725 35.1763,-36.5571 45.6324,-38.2659 44.4158,-31.3725"/>
</g>
</g>
</svg>
