<?xml version="1.0" encoding="UTF-8" standalone="no"?>
<!DOCTYPE svg PUBLIC "-//W3C//DTD SVG 1.1//EN"
 "http://www.w3.org/Graphics/SVG/1.1/DTD/svg11.dtd">
<!-- Generated by graphviz version 2.38.0 (20140413.2041)
 -->
<!-- Title: services::ConnectionFactory Pages: 1 -->
<svg width="300pt" height="162pt"
 viewBox="0.00 0.00 300.00 162.00" xmlns="http://www.w3.org/2000/svg" xmlns:xlink="http://www.w3.org/1999/xlink">
<g id="graph0" class="graph" transform="scale(1 1) rotate(0) translate(4 158)">
<title>services::ConnectionFactory</title>
<polygon fill="white" stroke="none" points="-4,4 -4,-158 296,-158 296,4 -4,4"/>
<!-- Node0 -->
<g id="node1" class="node"><title>Node0</title>
<polygon fill="#bfbfbf" stroke="black" points="152,-134.5 152,-153.5 292,-153.5 292,-134.5 152,-134.5"/>
<text text-anchor="middle" x="222" y="-141.5" font-family="Helvetica,sans-Serif" font-size="10.00">services::ConnectionFactory</text>
</g>
<!-- Node1 -->
<g id="node2" class="node"><title>Node1</title>
<g id="a_node2"><a xlink:href="../../d3/d92/classservices_1_1_connection_factory_mbed_tls.html" target="_top" xlink:title="services::ConnectionFactory\lMbedTls">
<polygon fill="white" stroke="black" points="0,-67.5 0,-97.5 140,-97.5 140,-67.5 0,-67.5"/>
<text text-anchor="start" x="8" y="-85.5" font-family="Helvetica,sans-Serif" font-size="10.00">services::ConnectionFactory</text>
<text text-anchor="middle" x="70" y="-74.5" font-family="Helvetica,sans-Serif" font-size="10.00">MbedTls</text>
</a>
</g>
</g>
<!-- Node0&#45;&gt;Node1 -->
<g id="edge1" class="edge"><title>Node0&#45;&gt;Node1</title>
<path fill="none" stroke="midnightblue" d="M190.627,-130.719C165.957,-121.062 131.572,-107.602 105.823,-97.523"/>
<polygon fill="midnightblue" stroke="midnightblue" points="189.634,-134.089 200.222,-134.475 192.186,-127.571 189.634,-134.089"/>
</g>
<!-- Node3 -->
<g id="node4" class="node"><title>Node3</title>
<g id="a_node4"><a xlink:href="../../d0/d67/classservices_1_1_event_dispatcher_with_network.html" target="_top" xlink:title="services::EventDispatcher\lWithNetwork">
<polygon fill="white" stroke="black" points="158,-67.5 158,-97.5 286,-97.5 286,-67.5 158,-67.5"/>
<text text-anchor="start" x="166" y="-85.5" font-family="Helvetica,sans-Serif" font-size="10.00">services::EventDispatcher</text>
<text text-anchor="middle" x="222" y="-74.5" font-family="Helvetica,sans-Serif" font-size="10.00">WithNetwork</text>
</a>
</g>
</g>
<!-- Node0&#45;&gt;Node3 -->
<g id="edge3" class="edge"><title>Node0&#45;&gt;Node3</title>
<path fill="none" stroke="midnightblue" d="M215.701,-124.526C214.971,-115.813 215.127,-105.586 216.17,-97.523"/>
<polygon fill="midnightblue" stroke="midnightblue" points="212.241,-125.06 217.099,-134.475 219.173,-124.085 212.241,-125.06"/>
</g>
<!-- Node0&#45;&gt;Node3 -->
<g id="edge4" class="edge"><title>Node0&#45;&gt;Node3</title>
<path fill="none" stroke="midnightblue" d="M228.299,-124.526C229.029,-115.813 228.873,-105.586 227.83,-97.523"/>
<polygon fill="midnightblue" stroke="midnightblue" points="224.827,-124.085 226.901,-134.475 231.759,-125.06 224.827,-124.085"/>
</g>
<!-- Node2 -->
<g id="node3" class="node"><title>Node2</title>
<g id="a_node3"><a xlink:href="../../d0/dca/classservices_1_1_tracing_connection_factory_mbed_tls.html" target="_top" xlink:title="services::TracingConnection\lFactoryMbedTls">
<polygon fill="white" stroke="black" points="1,-0.5 1,-30.5 139,-30.5 139,-0.5 1,-0.5"/>
<text text-anchor="start" x="9" y="-18.5" font-family="Helvetica,sans-Serif" font-size="10.00">services::TracingConnection</text>
<text text-anchor="middle" x="70" y="-7.5" font-family="Helvetica,sans-Serif" font-size="10.00">FactoryMbedTls</text>
</a>
</g>
</g>
<!-- Node1&#45;&gt;Node2 -->
<g id="edge2" class="edge"><title>Node1&#45;&gt;Node2</title>
<path fill="none" stroke="midnightblue" d="M70,-57.1081C70,-48.1539 70,-38.3227 70,-30.5765"/>
<polygon fill="midnightblue" stroke="midnightblue" points="66.5001,-57.3959 70,-67.396 73.5001,-57.396 66.5001,-57.3959"/>
</g>
</g>
</svg>
