<?xml version="1.0" encoding="UTF-8" standalone="no"?>
<!DOCTYPE svg PUBLIC "-//W3C//DTD SVG 1.1//EN"
 "http://www.w3.org/Graphics/SVG/1.1/DTD/svg11.dtd">
<!-- Generated by graphviz version 2.38.0 (20140413.2041)
 -->
<!-- Title: services::DefaultConnectionCreationContext Pages: 1 -->
<svg width="789pt" height="159pt"
 viewBox="0.00 0.00 789.00 159.00" xmlns="http://www.w3.org/2000/svg" xmlns:xlink="http://www.w3.org/1999/xlink">
<g id="graph0" class="graph" transform="scale(1 1) rotate(0) translate(4 155)">
<title>services::DefaultConnectionCreationContext</title>
<polygon fill="white" stroke="none" points="-4,4 -4,-155 785,-155 785,4 -4,4"/>
<!-- Node1 -->
<g id="node1" class="node"><title>Node1</title>
<polygon fill="#bfbfbf" stroke="black" points="644,-56 644,-86 781,-86 781,-56 644,-56"/>
<text text-anchor="start" x="652" y="-74" font-family="Helvetica,sans-Serif" font-size="10.00">services::DefaultConnection</text>
<text text-anchor="middle" x="712.5" y="-63" font-family="Helvetica,sans-Serif" font-size="10.00">CreationContext</text>
</g>
<!-- Node2 -->
<g id="node2" class="node"><title>Node2</title>
<g id="a_node2"><a xlink:href="../../d1/d2a/classinfra_1_1_bounded_string_base.html" target="_top" xlink:title="infra::BoundedStringBase\&lt; T \&gt;">
<polygon fill="white" stroke="black" points="411,-84.5 411,-103.5 561,-103.5 561,-84.5 411,-84.5"/>
<text text-anchor="middle" x="486" y="-91.5" font-family="Helvetica,sans-Serif" font-size="10.00">infra::BoundedStringBase&lt; T &gt;</text>
</a>
</g>
</g>
<!-- Node2&#45;&gt;Node1 -->
<g id="edge1" class="edge"><title>Node2&#45;&gt;Node1</title>
<path fill="none" stroke="#9a32cd" stroke-dasharray="5,2" d="M571.281,-85.3654C595.254,-82.9094 621.045,-80.2671 643.889,-77.9267"/>
<polygon fill="#9a32cd" stroke="#9a32cd" points="570.723,-81.9042 561.132,-86.4052 571.437,-88.8677 570.723,-81.9042"/>
<text text-anchor="middle" x="602.5" y="-88" font-family="Helvetica,sans-Serif" font-size="10.00"> buffer</text>
</g>
<!-- Node3 -->
<g id="node3" class="node"><title>Node3</title>
<polygon fill="white" stroke="#bfbfbf" points="230.5,-131.5 230.5,-150.5 333.5,-150.5 333.5,-131.5 230.5,-131.5"/>
<text text-anchor="middle" x="282" y="-138.5" font-family="Helvetica,sans-Serif" font-size="10.00">MemoryRange&lt; T &gt;</text>
</g>
<!-- Node3&#45;&gt;Node2 -->
<g id="edge2" class="edge"><title>Node3&#45;&gt;Node2</title>
<path fill="none" stroke="#9a32cd" stroke-dasharray="5,2" d="M333.636,-129.218C367.675,-121.298 411.97,-110.992 443.837,-103.578"/>
<polygon fill="#9a32cd" stroke="#9a32cd" points="332.824,-125.814 323.878,-131.489 334.411,-132.632 332.824,-125.814"/>
<text text-anchor="middle" x="378" y="-125" font-family="Helvetica,sans-Serif" font-size="10.00"> range</text>
</g>
<!-- Node4 -->
<g id="node4" class="node"><title>Node4</title>
<polygon fill="white" stroke="#bfbfbf" points="260.5,-93.5 260.5,-112.5 303.5,-112.5 303.5,-93.5 260.5,-93.5"/>
<text text-anchor="middle" x="282" y="-100.5" font-family="Helvetica,sans-Serif" font-size="10.00">size_t</text>
</g>
<!-- Node4&#45;&gt;Node2 -->
<g id="edge3" class="edge"><title>Node4&#45;&gt;Node2</title>
<path fill="none" stroke="#9a32cd" stroke-dasharray="5,2" d="M314.086,-101.615C339.754,-100.471 377.248,-98.8008 410.583,-97.3156"/>
<polygon fill="#9a32cd" stroke="#9a32cd" points="313.691,-98.129 303.857,-102.071 314.003,-105.122 313.691,-98.129"/>
<text text-anchor="middle" x="378" y="-103" font-family="Helvetica,sans-Serif" font-size="10.00"> length</text>
</g>
<!-- Node5 -->
<g id="node5" class="node"><title>Node5</title>
<polygon fill="white" stroke="#bfbfbf" points="225.5,-55.5 225.5,-74.5 338.5,-74.5 338.5,-55.5 225.5,-55.5"/>
<text text-anchor="middle" x="282" y="-62.5" font-family="Helvetica,sans-Serif" font-size="10.00">static const size_type</text>
</g>
<!-- Node5&#45;&gt;Node2 -->
<g id="edge4" class="edge"><title>Node5&#45;&gt;Node2</title>
<path fill="none" stroke="#9a32cd" stroke-dasharray="5,2" d="M348.82,-74.4493C371.22,-77.6652 396.258,-81.2598 418.696,-84.4811"/>
<polygon fill="#9a32cd" stroke="#9a32cd" points="349.128,-70.9578 338.732,-73.0011 348.133,-77.8868 349.128,-70.9578"/>
<text text-anchor="middle" x="378" y="-84" font-family="Helvetica,sans-Serif" font-size="10.00"> npos</text>
</g>
<!-- Node6 -->
<g id="node6" class="node"><title>Node6</title>
<g id="a_node6"><a xlink:href="../../d9/da2/classservices_1_1_http_page_server.html" target="_top" xlink:title="services::HttpPageServer">
<polygon fill="white" stroke="black" points="423.5,-37.5 423.5,-56.5 548.5,-56.5 548.5,-37.5 423.5,-37.5"/>
<text text-anchor="middle" x="486" y="-44.5" font-family="Helvetica,sans-Serif" font-size="10.00">services::HttpPageServer</text>
</a>
</g>
</g>
<!-- Node6&#45;&gt;Node1 -->
<g id="edge5" class="edge"><title>Node6&#45;&gt;Node1</title>
<path fill="none" stroke="#9a32cd" stroke-dasharray="5,2" d="M558.867,-54.6829C586.052,-57.5891 616.883,-60.885 643.684,-63.7502"/>
<polygon fill="#9a32cd" stroke="#9a32cd" points="558.958,-51.1728 548.643,-53.5898 558.214,-58.1331 558.958,-51.1728"/>
<text text-anchor="middle" x="602.5" y="-65" font-family="Helvetica,sans-Serif" font-size="10.00"> httpServer</text>
</g>
<!-- Node7 -->
<g id="node7" class="node"><title>Node7</title>
<g id="a_node7"><a xlink:href="../../d3/d66/classinfra_1_1_intrusive_forward_list.html" target="_top" xlink:title="infra::IntrusiveForwardList\l\&lt; services::HttpPage \&gt;">
<polygon fill="white" stroke="black" points="219,-6 219,-36 345,-36 345,-6 219,-6"/>
<text text-anchor="start" x="227" y="-24" font-family="Helvetica,sans-Serif" font-size="10.00">infra::IntrusiveForwardList</text>
<text text-anchor="middle" x="282" y="-13" font-family="Helvetica,sans-Serif" font-size="10.00">&lt; services::HttpPage &gt;</text>
</a>
</g>
</g>
<!-- Node7&#45;&gt;Node6 -->
<g id="edge6" class="edge"><title>Node7&#45;&gt;Node6</title>
<path fill="none" stroke="#9a32cd" stroke-dasharray="5,2" d="M355.079,-27.5617C367.732,-28.8979 380.763,-30.3921 393,-32 405.034,-33.5812 417.913,-35.5233 430.109,-37.4793"/>
<polygon fill="#9a32cd" stroke="#9a32cd" points="355.341,-24.0703 345.035,-26.5248 354.623,-31.0333 355.341,-24.0703"/>
<text text-anchor="middle" x="378" y="-35" font-family="Helvetica,sans-Serif" font-size="10.00"> pages</text>
</g>
<!-- Node8 -->
<g id="node8" class="node"><title>Node8</title>
<g id="a_node8"><a xlink:href="../../d7/d4a/classinfra_1_1detail_1_1_intrusive_forward_list_node.html" target="_top" xlink:title="infra::detail::Intrusive\lForwardListNode\&lt; services\l::HttpPage \&gt;">
<polygon fill="white" stroke="black" points="0,-0.5 0,-41.5 134,-41.5 134,-0.5 0,-0.5"/>
<text text-anchor="start" x="8" y="-29.5" font-family="Helvetica,sans-Serif" font-size="10.00">infra::detail::Intrusive</text>
<text text-anchor="start" x="8" y="-18.5" font-family="Helvetica,sans-Serif" font-size="10.00">ForwardListNode&lt; services</text>
<text text-anchor="middle" x="67" y="-7.5" font-family="Helvetica,sans-Serif" font-size="10.00">::HttpPage &gt;</text>
</a>
</g>
</g>
<!-- Node8&#45;&gt;Node7 -->
<g id="edge7" class="edge"><title>Node8&#45;&gt;Node7</title>
<path fill="none" stroke="#9a32cd" stroke-dasharray="5,2" d="M144.521,-21C168.905,-21 195.572,-21 218.812,-21"/>
<polygon fill="#9a32cd" stroke="#9a32cd" points="144.227,-17.5001 134.227,-21 144.227,-24.5001 144.227,-17.5001"/>
<text text-anchor="middle" x="176.5" y="-24" font-family="Helvetica,sans-Serif" font-size="10.00"> beginNode</text>
</g>
<!-- Node8&#45;&gt;Node8 -->
<g id="edge8" class="edge"><title>Node8&#45;&gt;Node8</title>
<path fill="none" stroke="#9a32cd" stroke-dasharray="5,2" d="M48.4192,-51.8561C51.1824,-56.6966 57.376,-60 67,-60 82.3984,-60 89.015,-51.5433 86.8495,-41.8644"/>
<polygon fill="#9a32cd" stroke="#9a32cd" points="51.8824,-51.3438 47.1505,-41.8644 44.9382,-52.2257 51.8824,-51.3438"/>
<text text-anchor="middle" x="67" y="-63" font-family="Helvetica,sans-Serif" font-size="10.00"> next</text>
</g>
</g>
</svg>
