<?xml version="1.0" encoding="UTF-8" standalone="no"?>
<!DOCTYPE svg PUBLIC "-//W3C//DTD SVG 1.1//EN"
 "http://www.w3.org/Graphics/SVG/1.1/DTD/svg11.dtd">
<!-- Generated by graphviz version 2.38.0 (20140413.2041)
 -->
<!-- Title: services::DnsResolver::ActiveLookup::TryFindAnswer Pages: 1 -->
<svg width="505pt" height="66pt"
 viewBox="0.00 0.00 505.00 66.00" xmlns="http://www.w3.org/2000/svg" xmlns:xlink="http://www.w3.org/1999/xlink">
<g id="graph0" class="graph" transform="scale(1 1) rotate(0) translate(4 62)">
<title>services::DnsResolver::ActiveLookup::TryFindAnswer</title>
<polygon fill="white" stroke="none" points="-4,4 -4,-62 501,-62 501,4 -4,4"/>
<!-- Node34 -->
<g id="node1" class="node"><title>Node34</title>
<polygon fill="#bfbfbf" stroke="black" points="0,-14 0,-44 151,-44 151,-14 0,-14"/>
<text text-anchor="start" x="8" y="-32" font-family="Helvetica,sans-Serif" font-size="10.00">services::DnsResolver</text>
<text text-anchor="middle" x="75.5" y="-21" font-family="Helvetica,sans-Serif" font-size="10.00">::ActiveLookup::TryFindAnswer</text>
</g>
<!-- Node35 -->
<g id="node2" class="node"><title>Node35</title>
<g id="a_node2"><a xlink:href="../../d5/d9a/classservices_1_1_dns_resolver_1_1_reply_parser.html#ab72f88328bc79c810236f3155849b56b" target="_top" xlink:title="services::DnsResolver\l::ReplyParser::ReadAnswerRecords">
<polygon fill="white" stroke="black" points="187,-14 187,-44 360,-44 360,-14 187,-14"/>
<text text-anchor="start" x="195" y="-32" font-family="Helvetica,sans-Serif" font-size="10.00">services::DnsResolver</text>
<text text-anchor="middle" x="273.5" y="-21" font-family="Helvetica,sans-Serif" font-size="10.00">::ReplyParser::ReadAnswerRecords</text>
</a>
</g>
</g>
<!-- Node34&#45;&gt;Node35 -->
<g id="edge1" class="edge"><title>Node34&#45;&gt;Node35</title>
<path fill="none" stroke="midnightblue" d="M151.158,-29C159.556,-29 168.196,-29 176.813,-29"/>
<polygon fill="midnightblue" stroke="midnightblue" points="176.901,-32.5001 186.901,-29 176.901,-25.5001 176.901,-32.5001"/>
</g>
<!-- Node36 -->
<g id="node3" class="node"><title>Node36</title>
<g id="a_node3"><a xlink:href="../../d0/de3/namespaceinfra.html#a0ec8c0f8585063ab97f13228d4888974" target="_top" xlink:title="infra::MakeOptional">
<polygon fill="white" stroke="black" points="396,-38.5 396,-57.5 497,-57.5 497,-38.5 396,-38.5"/>
<text text-anchor="middle" x="446.5" y="-45.5" font-family="Helvetica,sans-Serif" font-size="10.00">infra::MakeOptional</text>
</a>
</g>
</g>
<!-- Node35&#45;&gt;Node36 -->
<g id="edge2" class="edge"><title>Node35&#45;&gt;Node36</title>
<path fill="none" stroke="midnightblue" d="M360.25,-38.5278C368.805,-39.4783 377.356,-40.4285 385.562,-41.3402"/>
<polygon fill="midnightblue" stroke="midnightblue" points="385.419,-44.8458 395.744,-42.4716 386.192,-37.8886 385.419,-44.8458"/>
</g>
<!-- Node37 -->
<g id="node4" class="node"><title>Node37</title>
<g id="a_node4"><a xlink:href="../../da/d2a/classinfra_1_1_variant.html#a5c22ee95a815d91911bf3ce196c852a0" target="_top" xlink:title="infra::Variant::Get">
<polygon fill="white" stroke="black" points="400,-0.5 400,-19.5 493,-19.5 493,-0.5 400,-0.5"/>
<text text-anchor="middle" x="446.5" y="-7.5" font-family="Helvetica,sans-Serif" font-size="10.00">infra::Variant::Get</text>
</a>
</g>
</g>
<!-- Node35&#45;&gt;Node37 -->
<g id="edge3" class="edge"><title>Node35&#45;&gt;Node37</title>
<path fill="none" stroke="midnightblue" d="M360.25,-19.4722C370.287,-18.357 380.319,-17.2424 389.793,-16.1897"/>
<polygon fill="midnightblue" stroke="midnightblue" points="390.276,-19.6577 399.828,-15.0747 389.502,-12.7005 390.276,-19.6577"/>
</g>
</g>
</svg>
