<?xml version="1.0" encoding="UTF-8" standalone="no"?>
<!DOCTYPE svg PUBLIC "-//W3C//DTD SVG 1.1//EN"
 "http://www.w3.org/Graphics/SVG/1.1/DTD/svg11.dtd">
<!-- Generated by graphviz version 2.38.0 (20140413.2041)
 -->
<!-- Title: infra::SharedObjectAllocatorFixedSize&lt; T, void(ConstructionArgs...)&gt; Pages: 1 -->
<svg width="891pt" height="166pt"
 viewBox="0.00 0.00 891.00 165.50" xmlns="http://www.w3.org/2000/svg" xmlns:xlink="http://www.w3.org/1999/xlink">
<g id="graph0" class="graph" transform="scale(1 1) rotate(0) translate(4 161.5)">
<title>infra::SharedObjectAllocatorFixedSize&lt; T, void(ConstructionArgs...)&gt;</title>
<polygon fill="white" stroke="none" points="-4,4 -4,-161.5 887,-161.5 887,4 -4,4"/>
<!-- Node3 -->
<g id="node1" class="node"><title>Node3</title>
<polygon fill="#bfbfbf" stroke="black" points="728,-59.5 728,-100.5 883,-100.5 883,-59.5 728,-59.5"/>
<text text-anchor="start" x="736" y="-88.5" font-family="Helvetica,sans-Serif" font-size="10.00">infra::SharedObjectAllocator</text>
<text text-anchor="start" x="736" y="-77.5" font-family="Helvetica,sans-Serif" font-size="10.00">FixedSize&lt; T, void(Construction</text>
<text text-anchor="middle" x="805.5" y="-66.5" font-family="Helvetica,sans-Serif" font-size="10.00">Args...)&gt;</text>
</g>
<!-- Node4 -->
<g id="node2" class="node"><title>Node4</title>
<g id="a_node2"><a xlink:href="../../dd/d4f/classinfra_1_1_shared_object_allocator_3_01_t_00_01void_07_construction_args_8_8_8_08_4.html" target="_top" xlink:title="infra::SharedObjectAllocator\l\&lt; T, void(ConstructionArgs...)\&gt;">
<polygon fill="white" stroke="black" points="500,-127 500,-157 649,-157 649,-127 500,-127"/>
<text text-anchor="start" x="508" y="-145" font-family="Helvetica,sans-Serif" font-size="10.00">infra::SharedObjectAllocator</text>
<text text-anchor="middle" x="574.5" y="-134" font-family="Helvetica,sans-Serif" font-size="10.00">&lt; T, void(ConstructionArgs...)&gt;</text>
</a>
</g>
</g>
<!-- Node4&#45;&gt;Node3 -->
<g id="edge1" class="edge"><title>Node4&#45;&gt;Node3</title>
<path fill="none" stroke="midnightblue" d="M640.772,-124.328C668.083,-116.934 700.009,-108.29 728.381,-100.609"/>
<polygon fill="midnightblue" stroke="midnightblue" points="639.672,-121 630.935,-126.992 641.502,-127.756 639.672,-121"/>
</g>
<!-- Node5 -->
<g id="node3" class="node"><title>Node5</title>
<g id="a_node3"><a xlink:href="../../da/dcd/classinfra_1_1_shared_object_deleter.html" target="_top" xlink:title="infra::SharedObjectDeleter">
<polygon fill="white" stroke="black" points="509,-88.5 509,-107.5 640,-107.5 640,-88.5 509,-88.5"/>
<text text-anchor="middle" x="574.5" y="-95.5" font-family="Helvetica,sans-Serif" font-size="10.00">infra::SharedObjectDeleter</text>
</a>
</g>
</g>
<!-- Node5&#45;&gt;Node3 -->
<g id="edge2" class="edge"><title>Node5&#45;&gt;Node3</title>
<path fill="none" stroke="#8b1a1a" d="M650.293,-92.1211C675.129,-90.1689 702.809,-87.9932 727.787,-86.0298"/>
<polygon fill="#8b1a1a" stroke="#8b1a1a" points="649.899,-88.6412 640.204,-92.9141 650.448,-95.6196 649.899,-88.6412"/>
</g>
<!-- Node6 -->
<g id="node4" class="node"><title>Node6</title>
<g id="a_node4"><a xlink:href="../../dc/de7/classinfra_1_1_bounded_vector.html" target="_top" xlink:title="infra::BoundedVector\l\&lt; Node \&gt;">
<polygon fill="white" stroke="black" points="521,-39 521,-69 628,-69 628,-39 521,-39"/>
<text text-anchor="start" x="529" y="-57" font-family="Helvetica,sans-Serif" font-size="10.00">infra::BoundedVector</text>
<text text-anchor="middle" x="574.5" y="-46" font-family="Helvetica,sans-Serif" font-size="10.00">&lt; Node &gt;</text>
</a>
</g>
</g>
<!-- Node6&#45;&gt;Node3 -->
<g id="edge3" class="edge"><title>Node6&#45;&gt;Node3</title>
<path fill="none" stroke="#9a32cd" stroke-dasharray="5,2" d="M638.01,-61.0972C665.757,-64.2476 698.677,-67.9851 727.888,-71.3017"/>
<polygon fill="#9a32cd" stroke="#9a32cd" points="638.368,-57.6155 628.037,-59.9649 637.579,-64.5708 638.368,-57.6155"/>
<text text-anchor="middle" x="688.5" y="-72" font-family="Helvetica,sans-Serif" font-size="10.00"> elements</text>
</g>
<!-- Node7 -->
<g id="node5" class="node"><title>Node7</title>
<polygon fill="white" stroke="#bfbfbf" points="325,-62.5 325,-81.5 368,-81.5 368,-62.5 325,-62.5"/>
<text text-anchor="middle" x="346.5" y="-69.5" font-family="Helvetica,sans-Serif" font-size="10.00">size_t</text>
</g>
<!-- Node7&#45;&gt;Node6 -->
<g id="edge4" class="edge"><title>Node7&#45;&gt;Node6</title>
<path fill="none" stroke="#9a32cd" stroke-dasharray="5,2" d="M378.413,-69.5379C414.967,-66.6265 476.412,-61.7326 520.584,-58.2145"/>
<polygon fill="#9a32cd" stroke="#9a32cd" points="378.047,-66.0559 368.356,-70.3389 378.603,-73.0338 378.047,-66.0559"/>
<text text-anchor="middle" x="450.5" y="-70" font-family="Helvetica,sans-Serif" font-size="10.00"> numAllocated</text>
</g>
<!-- Node8 -->
<g id="node6" class="node"><title>Node8</title>
<g id="a_node6"><a xlink:href="../../d0/d6d/classinfra_1_1_memory_range.html" target="_top" xlink:title="infra::MemoryRange\l\&lt; infra::StaticStorage\l\&lt; Node \&gt; \&gt;">
<polygon fill="white" stroke="black" points="292,-2.5 292,-43.5 401,-43.5 401,-2.5 292,-2.5"/>
<text text-anchor="start" x="300" y="-31.5" font-family="Helvetica,sans-Serif" font-size="10.00">infra::MemoryRange</text>
<text text-anchor="start" x="300" y="-20.5" font-family="Helvetica,sans-Serif" font-size="10.00">&lt; infra::StaticStorage</text>
<text text-anchor="middle" x="346.5" y="-9.5" font-family="Helvetica,sans-Serif" font-size="10.00">&lt; Node &gt; &gt;</text>
</a>
</g>
</g>
<!-- Node8&#45;&gt;Node6 -->
<g id="edge5" class="edge"><title>Node8&#45;&gt;Node6</title>
<path fill="none" stroke="#9a32cd" stroke-dasharray="5,2" d="M411.062,-31.7187C445.659,-36.4643 487.957,-42.2662 520.716,-46.7597"/>
<polygon fill="#9a32cd" stroke="#9a32cd" points="411.442,-28.2381 401.059,-30.3466 410.49,-35.1731 411.442,-28.2381"/>
<text text-anchor="middle" x="450.5" y="-45" font-family="Helvetica,sans-Serif" font-size="10.00"> storage</text>
</g>
<!-- Node9 -->
<g id="node7" class="node"><title>Node9</title>
<g id="a_node7"><a xlink:href="../../d0/d8c/classinfra_1_1_static_storage.html" target="_top" xlink:title="infra::StaticStorage\l\&lt; Node \&gt;">
<polygon fill="white" stroke="black" points="93,-8 93,-38 193,-38 193,-8 93,-8"/>
<text text-anchor="start" x="101" y="-26" font-family="Helvetica,sans-Serif" font-size="10.00">infra::StaticStorage</text>
<text text-anchor="middle" x="143" y="-15" font-family="Helvetica,sans-Serif" font-size="10.00">&lt; Node &gt;</text>
</a>
</g>
</g>
<!-- Node9&#45;&gt;Node8 -->
<g id="edge6" class="edge"><title>Node9&#45;&gt;Node8</title>
<path fill="none" stroke="#9a32cd" stroke-dasharray="5,2" d="M203.138,-23C231.261,-23 264.631,-23 291.993,-23"/>
<polygon fill="#9a32cd" stroke="#9a32cd" points="203.035,-19.5001 193.035,-23 203.035,-26.5001 203.035,-19.5001"/>
<text text-anchor="middle" x="242.5" y="-37" font-family="Helvetica,sans-Serif" font-size="10.00"> beginElement</text>
<text text-anchor="middle" x="242.5" y="-26" font-family="Helvetica,sans-Serif" font-size="10.00">endElement</text>
</g>
<!-- Node10 -->
<g id="node8" class="node"><title>Node10</title>
<polygon fill="white" stroke="#bfbfbf" points="0,-13.5 0,-32.5 35,-32.5 35,-13.5 0,-13.5"/>
<text text-anchor="middle" x="17.5" y="-20.5" font-family="Helvetica,sans-Serif" font-size="10.00">type</text>
</g>
<!-- Node10&#45;&gt;Node9 -->
<g id="edge7" class="edge"><title>Node10&#45;&gt;Node9</title>
<path fill="none" stroke="#9a32cd" stroke-dasharray="5,2" d="M45.4569,-23C59.3452,-23 76.7192,-23 92.886,-23"/>
<polygon fill="#9a32cd" stroke="#9a32cd" points="45.1558,-19.5001 35.1558,-23 45.1557,-26.5001 45.1558,-19.5001"/>
<text text-anchor="middle" x="64" y="-26" font-family="Helvetica,sans-Serif" font-size="10.00"> data</text>
</g>
<!-- Node11 -->
<g id="node9" class="node"><title>Node11</title>
<polygon fill="white" stroke="#bfbfbf" points="551.5,-0.5 551.5,-19.5 597.5,-19.5 597.5,-0.5 551.5,-0.5"/>
<text text-anchor="middle" x="574.5" y="-7.5" font-family="Helvetica,sans-Serif" font-size="10.00">Node *</text>
</g>
<!-- Node11&#45;&gt;Node3 -->
<g id="edge8" class="edge"><title>Node11&#45;&gt;Node3</title>
<path fill="none" stroke="#9a32cd" stroke-dasharray="5,2" d="M607.632,-17.832C620.54,-21.1015 635.526,-25.0534 649,-29 680.901,-38.3442 716.123,-49.8 744.967,-59.4854"/>
<polygon fill="#9a32cd" stroke="#9a32cd" points="608.345,-14.4026 597.794,-15.3693 606.645,-21.193 608.345,-14.4026"/>
<text text-anchor="middle" x="688.5" y="-51" font-family="Helvetica,sans-Serif" font-size="10.00"> freeList</text>
</g>
</g>
</svg>
