<?xml version="1.0" encoding="UTF-8" standalone="no"?>
<!DOCTYPE svg PUBLIC "-//W3C//DTD SVG 1.1//EN"
 "http://www.w3.org/Graphics/SVG/1.1/DTD/svg11.dtd">
<!-- Generated by graphviz version 2.38.0 (20140413.2041)
 -->
<!-- Title: infra::BoundedForwardList::BoundedForwardList Pages: 1 -->
<svg width="431pt" height="39pt"
 viewBox="0.00 0.00 431.00 39.00" xmlns="http://www.w3.org/2000/svg" xmlns:xlink="http://www.w3.org/1999/xlink">
<g id="graph0" class="graph" transform="scale(1 1) rotate(0) translate(4 35)">
<title>infra::BoundedForwardList::BoundedForwardList</title>
<polygon fill="white" stroke="none" points="-4,4 -4,-35 427,-35 427,4 -4,4"/>
<!-- Node8 -->
<g id="node1" class="node"><title>Node8</title>
<polygon fill="#bfbfbf" stroke="black" points="0,-0.5 0,-30.5 129,-30.5 129,-0.5 0,-0.5"/>
<text text-anchor="start" x="8" y="-18.5" font-family="Helvetica,sans-Serif" font-size="10.00">infra::BoundedForwardList</text>
<text text-anchor="middle" x="64.5" y="-7.5" font-family="Helvetica,sans-Serif" font-size="10.00">::BoundedForwardList</text>
</g>
<!-- Node9 -->
<g id="node2" class="node"><title>Node9</title>
<g id="a_node2"><a xlink:href="../../d4/d6c/classinfra_1_1_bounded_forward_list.html#a1ee77f69ede3946a7700d239e2385bb5" target="_top" xlink:title="infra::BoundedForwardList\l::assign">
<polygon fill="white" stroke="black" points="165,-0.5 165,-30.5 294,-30.5 294,-0.5 165,-0.5"/>
<text text-anchor="start" x="173" y="-18.5" font-family="Helvetica,sans-Serif" font-size="10.00">infra::BoundedForwardList</text>
<text text-anchor="middle" x="229.5" y="-7.5" font-family="Helvetica,sans-Serif" font-size="10.00">::assign</text>
</a>
</g>
</g>
<!-- Node8&#45;&gt;Node9 -->
<g id="edge1" class="edge"><title>Node8&#45;&gt;Node9</title>
<path fill="none" stroke="midnightblue" d="M129.454,-15.5C137.761,-15.5 146.322,-15.5 154.772,-15.5"/>
<polygon fill="midnightblue" stroke="midnightblue" points="154.998,-19.0001 164.998,-15.5 154.998,-12.0001 154.998,-19.0001"/>
</g>
<!-- Node10 -->
<g id="node3" class="node"><title>Node10</title>
<g id="a_node3"><a xlink:href="../../d2/dc5/namespaceinfra_1_1detail.html#ad178b71c4a19a9b0bfe48a065920cf8c" target="_top" xlink:title="infra::detail::begin">
<polygon fill="white" stroke="black" points="330,-6 330,-25 423,-25 423,-6 330,-6"/>
<text text-anchor="middle" x="376.5" y="-13" font-family="Helvetica,sans-Serif" font-size="10.00">infra::detail::begin</text>
</a>
</g>
</g>
<!-- Node9&#45;&gt;Node10 -->
<g id="edge2" class="edge"><title>Node9&#45;&gt;Node10</title>
<path fill="none" stroke="midnightblue" d="M294.099,-15.5C302.647,-15.5 311.361,-15.5 319.759,-15.5"/>
<polygon fill="midnightblue" stroke="midnightblue" points="319.812,-19.0001 329.812,-15.5 319.812,-12.0001 319.812,-19.0001"/>
</g>
</g>
</svg>
