<?xml version="1.0" encoding="UTF-8" standalone="no"?>
<!DOCTYPE svg PUBLIC "-//W3C//DTD SVG 1.1//EN"
 "http://www.w3.org/Graphics/SVG/1.1/DTD/svg11.dtd">
<!-- Generated by graphviz version 2.38.0 (20140413.2041)
 -->
<!-- Title: infra::BoundedForwardList::operator== Pages: 1 -->
<svg width="302pt" height="166pt"
 viewBox="0.00 0.00 302.00 165.50" xmlns="http://www.w3.org/2000/svg" xmlns:xlink="http://www.w3.org/1999/xlink">
<g id="graph0" class="graph" transform="scale(1 1) rotate(0) translate(4 161.5)">
<title>infra::BoundedForwardList::operator==</title>
<polygon fill="white" stroke="none" points="-4,4 -4,-161.5 298,-161.5 298,4 -4,4"/>
<!-- Node114 -->
<g id="node1" class="node"><title>Node114</title>
<polygon fill="#bfbfbf" stroke="black" points="0,-66.5 0,-96.5 129,-96.5 129,-66.5 0,-66.5"/>
<text text-anchor="start" x="8" y="-84.5" font-family="Helvetica,sans-Serif" font-size="10.00">infra::BoundedForwardList</text>
<text text-anchor="middle" x="64.5" y="-73.5" font-family="Helvetica,sans-Serif" font-size="10.00">::operator==</text>
</g>
<!-- Node115 -->
<g id="node2" class="node"><title>Node115</title>
<g id="a_node2"><a xlink:href="../../d2/dc5/namespaceinfra_1_1detail.html#ad178b71c4a19a9b0bfe48a065920cf8c" target="_top" xlink:title="infra::detail::begin">
<polygon fill="white" stroke="black" points="183,-138 183,-157 276,-157 276,-138 183,-138"/>
<text text-anchor="middle" x="229.5" y="-145" font-family="Helvetica,sans-Serif" font-size="10.00">infra::detail::begin</text>
</a>
</g>
</g>
<!-- Node114&#45;&gt;Node115 -->
<g id="edge1" class="edge"><title>Node114&#45;&gt;Node115</title>
<path fill="none" stroke="midnightblue" d="M94.5996,-96.6701C114.174,-106.518 140.739,-119.201 165,-128.5 170.923,-130.77 177.24,-132.944 183.506,-134.957"/>
<polygon fill="midnightblue" stroke="midnightblue" points="182.659,-138.359 193.247,-137.979 184.733,-131.673 182.659,-138.359"/>
</g>
<!-- Node116 -->
<g id="node3" class="node"><title>Node116</title>
<g id="a_node3"><a xlink:href="../../d4/d6c/classinfra_1_1_bounded_forward_list.html#a1e66cc7e284f76f837d19a9d5fd57e2d" target="_top" xlink:title="infra::BoundedForwardList\l::begin">
<polygon fill="white" stroke="black" points="165,-88.5 165,-118.5 294,-118.5 294,-88.5 165,-88.5"/>
<text text-anchor="start" x="173" y="-106.5" font-family="Helvetica,sans-Serif" font-size="10.00">infra::BoundedForwardList</text>
<text text-anchor="middle" x="229.5" y="-95.5" font-family="Helvetica,sans-Serif" font-size="10.00">::begin</text>
</a>
</g>
</g>
<!-- Node114&#45;&gt;Node116 -->
<g id="edge2" class="edge"><title>Node114&#45;&gt;Node116</title>
<path fill="none" stroke="midnightblue" d="M129.454,-90.1318C137.852,-91.2653 146.511,-92.434 155.05,-93.5865"/>
<polygon fill="midnightblue" stroke="midnightblue" points="154.619,-97.06 164.998,-94.9291 155.556,-90.1229 154.619,-97.06"/>
</g>
<!-- Node117 -->
<g id="node4" class="node"><title>Node117</title>
<g id="a_node4"><a xlink:href="../../d2/dc5/namespaceinfra_1_1detail.html#aabbc48b4c4a9aa3edf84df033c0dd25d" target="_top" xlink:title="infra::detail::end">
<polygon fill="white" stroke="black" points="186.5,-50 186.5,-69 272.5,-69 272.5,-50 186.5,-50"/>
<text text-anchor="middle" x="229.5" y="-57" font-family="Helvetica,sans-Serif" font-size="10.00">infra::detail::end</text>
</a>
</g>
</g>
<!-- Node114&#45;&gt;Node117 -->
<g id="edge3" class="edge"><title>Node114&#45;&gt;Node117</title>
<path fill="none" stroke="midnightblue" d="M129.454,-72.8682C144.962,-70.7751 161.36,-68.5619 176.254,-66.5516"/>
<polygon fill="midnightblue" stroke="midnightblue" points="176.855,-70.0024 186.297,-65.1962 175.918,-63.0653 176.855,-70.0024"/>
</g>
<!-- Node118 -->
<g id="node5" class="node"><title>Node118</title>
<g id="a_node5"><a xlink:href="../../d4/d6c/classinfra_1_1_bounded_forward_list.html#a387f4c722e3fd056e69799e8247f473e" target="_top" xlink:title="infra::BoundedForwardList\l::size">
<polygon fill="white" stroke="black" points="165,-0.5 165,-30.5 294,-30.5 294,-0.5 165,-0.5"/>
<text text-anchor="start" x="173" y="-18.5" font-family="Helvetica,sans-Serif" font-size="10.00">infra::BoundedForwardList</text>
<text text-anchor="middle" x="229.5" y="-7.5" font-family="Helvetica,sans-Serif" font-size="10.00">::size</text>
</a>
</g>
</g>
<!-- Node114&#45;&gt;Node118 -->
<g id="edge4" class="edge"><title>Node114&#45;&gt;Node118</title>
<path fill="none" stroke="midnightblue" d="M101.833,-66.3676C120.655,-58.569 144.031,-48.9475 165,-40.5 170.014,-38.4801 175.258,-36.3861 180.49,-34.3085"/>
<polygon fill="midnightblue" stroke="midnightblue" points="181.834,-37.5409 189.844,-30.6063 179.258,-31.0322 181.834,-37.5409"/>
</g>
</g>
</svg>
