<?xml version="1.0" encoding="UTF-8" standalone="no"?>
<!DOCTYPE svg PUBLIC "-//W3C//DTD SVG 1.1//EN"
 "http://www.w3.org/Graphics/SVG/1.1/DTD/svg11.dtd">
<!-- Generated by graphviz version 2.38.0 (20140413.2041)
 -->
<!-- Title: infra::BoundedForwardList::operator&lt; Pages: 1 -->
<svg width="324pt" height="204pt"
 viewBox="0.00 0.00 324.00 203.50" xmlns="http://www.w3.org/2000/svg" xmlns:xlink="http://www.w3.org/1999/xlink">
<g id="graph0" class="graph" transform="scale(1 1) rotate(0) translate(4 199.5)">
<title>infra::BoundedForwardList::operator&lt;</title>
<polygon fill="white" stroke="none" points="-4,4 -4,-199.5 320,-199.5 320,4 -4,4"/>
<!-- Node99 -->
<g id="node1" class="node"><title>Node99</title>
<polygon fill="#bfbfbf" stroke="black" points="0,-82.5 0,-112.5 129,-112.5 129,-82.5 0,-82.5"/>
<text text-anchor="start" x="8" y="-100.5" font-family="Helvetica,sans-Serif" font-size="10.00">infra::BoundedForwardList</text>
<text text-anchor="middle" x="64.5" y="-89.5" font-family="Helvetica,sans-Serif" font-size="10.00">::operator&lt;</text>
</g>
<!-- Node100 -->
<g id="node2" class="node"><title>Node100</title>
<g id="a_node2"><a xlink:href="../../d2/dc5/namespaceinfra_1_1detail.html#ad178b71c4a19a9b0bfe48a065920cf8c" target="_top" xlink:title="infra::detail::begin">
<polygon fill="white" stroke="black" points="194,-176 194,-195 287,-195 287,-176 194,-176"/>
<text text-anchor="middle" x="240.5" y="-183" font-family="Helvetica,sans-Serif" font-size="10.00">infra::detail::begin</text>
</a>
</g>
</g>
<!-- Node99&#45;&gt;Node100 -->
<g id="edge1" class="edge"><title>Node99&#45;&gt;Node100</title>
<path fill="none" stroke="midnightblue" d="M83.0109,-112.571C102.012,-128.193 133.826,-152.278 165,-166.5 171.038,-169.255 177.54,-171.656 184.1,-173.737"/>
<polygon fill="midnightblue" stroke="midnightblue" points="183.121,-177.098 193.702,-176.562 185.096,-170.382 183.121,-177.098"/>
</g>
<!-- Node101 -->
<g id="node3" class="node"><title>Node101</title>
<g id="a_node3"><a xlink:href="../../d4/d6c/classinfra_1_1_bounded_forward_list.html#a1e66cc7e284f76f837d19a9d5fd57e2d" target="_top" xlink:title="infra::BoundedForwardList\l::begin">
<polygon fill="white" stroke="black" points="176,-126.5 176,-156.5 305,-156.5 305,-126.5 176,-126.5"/>
<text text-anchor="start" x="184" y="-144.5" font-family="Helvetica,sans-Serif" font-size="10.00">infra::BoundedForwardList</text>
<text text-anchor="middle" x="240.5" y="-133.5" font-family="Helvetica,sans-Serif" font-size="10.00">::begin</text>
</a>
</g>
</g>
<!-- Node99&#45;&gt;Node101 -->
<g id="edge2" class="edge"><title>Node99&#45;&gt;Node101</title>
<path fill="none" stroke="midnightblue" d="M124.894,-112.519C139.512,-116.216 155.289,-120.205 170.325,-124.007"/>
<polygon fill="midnightblue" stroke="midnightblue" points="169.525,-127.415 180.078,-126.474 171.241,-120.629 169.525,-127.415"/>
</g>
<!-- Node102 -->
<g id="node4" class="node"><title>Node102</title>
<g id="a_node4"><a xlink:href="../../d2/dc5/namespaceinfra_1_1detail.html#aabbc48b4c4a9aa3edf84df033c0dd25d" target="_top" xlink:title="infra::detail::end">
<polygon fill="white" stroke="black" points="197.5,-88 197.5,-107 283.5,-107 283.5,-88 197.5,-88"/>
<text text-anchor="middle" x="240.5" y="-95" font-family="Helvetica,sans-Serif" font-size="10.00">infra::detail::end</text>
</a>
</g>
</g>
<!-- Node99&#45;&gt;Node102 -->
<g id="edge3" class="edge"><title>Node99&#45;&gt;Node102</title>
<path fill="none" stroke="midnightblue" d="M129.303,-97.5C148.364,-97.5 169.028,-97.5 187.256,-97.5"/>
<polygon fill="midnightblue" stroke="midnightblue" points="187.39,-101 197.39,-97.5 187.39,-94.0001 187.39,-101"/>
</g>
<!-- Node103 -->
<g id="node5" class="node"><title>Node103</title>
<g id="a_node5"><a xlink:href="../../d4/d6c/classinfra_1_1_bounded_forward_list.html#a8bddfc10982a46607c97074a8ae29053" target="_top" xlink:title="infra::BoundedForwardList::end">
<polygon fill="white" stroke="black" points="165,-50 165,-69 316,-69 316,-50 165,-50"/>
<text text-anchor="middle" x="240.5" y="-57" font-family="Helvetica,sans-Serif" font-size="10.00">infra::BoundedForwardList::end</text>
</a>
</g>
</g>
<!-- Node99&#45;&gt;Node103 -->
<g id="edge4" class="edge"><title>Node99&#45;&gt;Node103</title>
<path fill="none" stroke="midnightblue" d="M129.303,-83.566C147.875,-79.51 167.969,-75.1217 185.849,-71.2169"/>
<polygon fill="midnightblue" stroke="midnightblue" points="186.787,-74.5946 195.81,-69.0415 185.294,-67.7558 186.787,-74.5946"/>
</g>
<!-- Node104 -->
<g id="node6" class="node"><title>Node104</title>
<g id="a_node6"><a xlink:href="../../d4/d6c/classinfra_1_1_bounded_forward_list.html#a387f4c722e3fd056e69799e8247f473e" target="_top" xlink:title="infra::BoundedForwardList\l::size">
<polygon fill="white" stroke="black" points="176,-0.5 176,-30.5 305,-30.5 305,-0.5 176,-0.5"/>
<text text-anchor="start" x="184" y="-18.5" font-family="Helvetica,sans-Serif" font-size="10.00">infra::BoundedForwardList</text>
<text text-anchor="middle" x="240.5" y="-7.5" font-family="Helvetica,sans-Serif" font-size="10.00">::size</text>
</a>
</g>
</g>
<!-- Node99&#45;&gt;Node104 -->
<g id="edge5" class="edge"><title>Node99&#45;&gt;Node104</title>
<path fill="none" stroke="midnightblue" d="M88.9343,-82.3182C108.672,-69.9655 137.939,-52.6494 165,-40.5 169.978,-38.2649 175.22,-36.1178 180.521,-34.086"/>
<polygon fill="midnightblue" stroke="midnightblue" points="181.912,-37.3035 190.082,-30.5589 179.489,-30.7361 181.912,-37.3035"/>
</g>
</g>
</svg>
