<?xml version="1.0" encoding="UTF-8" standalone="no"?>
<!DOCTYPE svg PUBLIC "-//W3C//DTD SVG 1.1//EN"
 "http://www.w3.org/Graphics/SVG/1.1/DTD/svg11.dtd">
<!-- Generated by graphviz version 2.38.0 (20140413.2041)
 -->
<!-- Title: infra::BoundedForwardList::swap Pages: 1 -->
<svg width="236pt" height="39pt"
 viewBox="0.00 0.00 236.00 39.00" xmlns="http://www.w3.org/2000/svg" xmlns:xlink="http://www.w3.org/1999/xlink">
<g id="graph0" class="graph" transform="scale(1 1) rotate(0) translate(4 35)">
<title>infra::BoundedForwardList::swap</title>
<polygon fill="white" stroke="none" points="-4,4 -4,-35 232,-35 232,4 -4,4"/>
<!-- Node143 -->
<g id="node1" class="node"><title>Node143</title>
<polygon fill="#bfbfbf" stroke="black" points="0,-0.5 0,-30.5 129,-30.5 129,-0.5 0,-0.5"/>
<text text-anchor="start" x="8" y="-18.5" font-family="Helvetica,sans-Serif" font-size="10.00">infra::BoundedForwardList</text>
<text text-anchor="middle" x="64.5" y="-7.5" font-family="Helvetica,sans-Serif" font-size="10.00">::swap</text>
</g>
<!-- Node144 -->
<g id="node2" class="node"><title>Node144</title>
<g id="a_node2"><a xlink:href="../../d0/de3/namespaceinfra.html#a415b92cf1a1fcd38e77bddab40b46a73" target="_top" xlink:title="infra::swap">
<polygon fill="white" stroke="black" points="165,-6 165,-25 228,-25 228,-6 165,-6"/>
<text text-anchor="middle" x="196.5" y="-13" font-family="Helvetica,sans-Serif" font-size="10.00">infra::swap</text>
</a>
</g>
</g>
<!-- Node143&#45;&gt;Node144 -->
<g id="edge1" class="edge"><title>Node143&#45;&gt;Node144</title>
<path fill="none" stroke="midnightblue" d="M139.447,-8.80716C148.33,-8.92131 156.985,-9.20642 164.733,-9.6625"/>
<polygon fill="midnightblue" stroke="midnightblue" points="139.377,-5.30681 129.357,-8.75093 139.338,-12.3067 139.377,-5.30681"/>
</g>
<!-- Node144&#45;&gt;Node143 -->
<g id="edge2" class="edge"><title>Node144&#45;&gt;Node143</title>
<path fill="none" stroke="midnightblue" d="M154.557,-21.8211C146.528,-22.1203 137.93,-22.263 129.357,-22.2491"/>
<polygon fill="midnightblue" stroke="midnightblue" points="154.91,-25.3083 164.733,-21.3375 154.578,-18.3162 154.91,-25.3083"/>
</g>
</g>
</svg>
