<?xml version="1.0" encoding="UTF-8" standalone="no"?>
<!DOCTYPE svg PUBLIC "-//W3C//DTD SVG 1.1//EN"
 "http://www.w3.org/Graphics/SVG/1.1/DTD/svg11.dtd">
<!-- Generated by graphviz version 2.38.0 (20140413.2041)
 -->
<!-- Title: services::ClientConnectionObserverFactory::Port Pages: 1 -->
<svg width="306pt" height="137pt"
 viewBox="0.00 0.00 306.00 137.00" xmlns="http://www.w3.org/2000/svg" xmlns:xlink="http://www.w3.org/1999/xlink">
<g id="graph0" class="graph" transform="scale(1 1) rotate(0) translate(4 133)">
<title>services::ClientConnectionObserverFactory::Port</title>
<polygon fill="white" stroke="none" points="-4,4 -4,-133 302,-133 302,4 -4,4"/>
<!-- Node26 -->
<g id="node1" class="node"><title>Node26</title>
<polygon fill="#bfbfbf" stroke="black" points="0,-49.5 0,-79.5 131,-79.5 131,-49.5 0,-49.5"/>
<text text-anchor="start" x="8" y="-67.5" font-family="Helvetica,sans-Serif" font-size="10.00">services::ClientConnection</text>
<text text-anchor="middle" x="65.5" y="-56.5" font-family="Helvetica,sans-Serif" font-size="10.00">ObserverFactory::Port</text>
</g>
<!-- Node27 -->
<g id="node2" class="node"><title>Node27</title>
<g id="a_node2"><a xlink:href="../../db/d8a/classservices_1_1_connector_bsd.html#aeb909da32e4783058f25ae753837f597" target="_top" xlink:title="services::ConnectorBsd\l::ConnectorBsd">
<polygon fill="white" stroke="black" points="173,-98.5 173,-128.5 292,-128.5 292,-98.5 173,-98.5"/>
<text text-anchor="start" x="181" y="-116.5" font-family="Helvetica,sans-Serif" font-size="10.00">services::ConnectorBsd</text>
<text text-anchor="middle" x="232.5" y="-105.5" font-family="Helvetica,sans-Serif" font-size="10.00">::ConnectorBsd</text>
</a>
</g>
</g>
<!-- Node26&#45;&gt;Node27 -->
<g id="edge1" class="edge"><title>Node26&#45;&gt;Node27</title>
<path fill="none" stroke="midnightblue" d="M127.001,-82.467C144.68,-87.717 163.813,-93.3989 180.816,-98.4484"/>
<polygon fill="midnightblue" stroke="midnightblue" points="127.934,-79.0931 117.352,-79.6014 125.942,-85.8035 127.934,-79.0931"/>
</g>
<!-- Node28 -->
<g id="node3" class="node"><title>Node28</title>
<g id="a_node3"><a xlink:href="../../dc/dec/classservices_1_1_connector_win.html#a18cd31832333e670b644cfaf98a31b98" target="_top" xlink:title="services::ConnectorWin\l::ConnectorWin">
<polygon fill="white" stroke="black" points="173,-49.5 173,-79.5 292,-79.5 292,-49.5 173,-49.5"/>
<text text-anchor="start" x="181" y="-67.5" font-family="Helvetica,sans-Serif" font-size="10.00">services::ConnectorWin</text>
<text text-anchor="middle" x="232.5" y="-56.5" font-family="Helvetica,sans-Serif" font-size="10.00">::ConnectorWin</text>
</a>
</g>
</g>
<!-- Node26&#45;&gt;Node28 -->
<g id="edge2" class="edge"><title>Node26&#45;&gt;Node28</title>
<path fill="none" stroke="midnightblue" d="M141.308,-64.5C151.888,-64.5 162.639,-64.5 172.855,-64.5"/>
<polygon fill="midnightblue" stroke="midnightblue" points="141.239,-61.0001 131.239,-64.5 141.239,-68.0001 141.239,-61.0001"/>
</g>
<!-- Node29 -->
<g id="node4" class="node"><title>Node29</title>
<g id="a_node4"><a xlink:href="../../d3/d44/classservices_1_1_connection_mbed_tls_connector.html#ae64e168d17bd13dd296b6aceed4523cc" target="_top" xlink:title="services::ConnectionMbed\lTlsConnector::Port">
<polygon fill="white" stroke="black" points="167,-0.5 167,-30.5 298,-30.5 298,-0.5 167,-0.5"/>
<text text-anchor="start" x="175" y="-18.5" font-family="Helvetica,sans-Serif" font-size="10.00">services::ConnectionMbed</text>
<text text-anchor="middle" x="232.5" y="-7.5" font-family="Helvetica,sans-Serif" font-size="10.00">TlsConnector::Port</text>
</a>
</g>
</g>
<!-- Node26&#45;&gt;Node29 -->
<g id="edge3" class="edge"><title>Node26&#45;&gt;Node29</title>
<path fill="none" stroke="midnightblue" d="M127.001,-46.533C144.68,-41.283 163.813,-35.6011 180.816,-30.5516"/>
<polygon fill="midnightblue" stroke="midnightblue" points="125.942,-43.1965 117.352,-49.3986 127.934,-49.9069 125.942,-43.1965"/>
</g>
</g>
</svg>
