<?xml version="1.0" encoding="UTF-8" standalone="no"?>
<!DOCTYPE svg PUBLIC "-//W3C//DTD SVG 1.1//EN"
 "http://www.w3.org/Graphics/SVG/1.1/DTD/svg11.dtd">
<!-- Generated by graphviz version 2.38.0 (20140413.2041)
 -->
<!-- Title: services::Terminal::HandleNonEscapeChar Pages: 1 -->
<svg width="524pt" height="39pt"
 viewBox="0.00 0.00 524.00 39.00" xmlns="http://www.w3.org/2000/svg" xmlns:xlink="http://www.w3.org/1999/xlink">
<g id="graph0" class="graph" transform="scale(1 1) rotate(0) translate(4 35)">
<title>services::Terminal::HandleNonEscapeChar</title>
<polygon fill="white" stroke="none" points="-4,4 -4,-35 520,-35 520,4 -4,4"/>
<!-- Node149 -->
<g id="node1" class="node"><title>Node149</title>
<polygon fill="#bfbfbf" stroke="black" points="0,-0.5 0,-30.5 123,-30.5 123,-0.5 0,-0.5"/>
<text text-anchor="start" x="8" y="-18.5" font-family="Helvetica,sans-Serif" font-size="10.00">services::Terminal</text>
<text text-anchor="middle" x="61.5" y="-7.5" font-family="Helvetica,sans-Serif" font-size="10.00">::HandleNonEscapeChar</text>
</g>
<!-- Node150 -->
<g id="node2" class="node"><title>Node150</title>
<g id="a_node2"><a xlink:href="../../da/d5e/classservices_1_1_terminal.html#ab41caf17d0377706131a5f420b9a752a" target="_top" xlink:title="services::Terminal\l::HandleChar">
<polygon fill="white" stroke="black" points="159,-0.5 159,-30.5 254,-30.5 254,-0.5 159,-0.5"/>
<text text-anchor="start" x="167" y="-18.5" font-family="Helvetica,sans-Serif" font-size="10.00">services::Terminal</text>
<text text-anchor="middle" x="206.5" y="-7.5" font-family="Helvetica,sans-Serif" font-size="10.00">::HandleChar</text>
</a>
</g>
</g>
<!-- Node149&#45;&gt;Node150 -->
<g id="edge1" class="edge"><title>Node149&#45;&gt;Node150</title>
<path fill="none" stroke="midnightblue" d="M133.231,-15.5C141.855,-15.5 150.494,-15.5 158.646,-15.5"/>
<polygon fill="midnightblue" stroke="midnightblue" points="133.145,-12.0001 123.145,-15.5 133.145,-19.0001 133.145,-12.0001"/>
</g>
<!-- Node151 -->
<g id="node3" class="node"><title>Node151</title>
<g id="a_node3"><a xlink:href="../../da/d5e/classservices_1_1_terminal.html#aa70a33132a3a8d92661f9d4729c4543e" target="_top" xlink:title="services::Terminal\l::HandleInput">
<polygon fill="white" stroke="black" points="290,-0.5 290,-30.5 385,-30.5 385,-0.5 290,-0.5"/>
<text text-anchor="start" x="298" y="-18.5" font-family="Helvetica,sans-Serif" font-size="10.00">services::Terminal</text>
<text text-anchor="middle" x="337.5" y="-7.5" font-family="Helvetica,sans-Serif" font-size="10.00">::HandleInput</text>
</a>
</g>
</g>
<!-- Node150&#45;&gt;Node151 -->
<g id="edge2" class="edge"><title>Node150&#45;&gt;Node151</title>
<path fill="none" stroke="midnightblue" d="M264.101,-15.5C272.752,-15.5 281.596,-15.5 289.996,-15.5"/>
<polygon fill="midnightblue" stroke="midnightblue" points="264.072,-12.0001 254.072,-15.5 264.072,-19.0001 264.072,-12.0001"/>
</g>
<!-- Node152 -->
<g id="node4" class="node"><title>Node152</title>
<g id="a_node4"><a xlink:href="../../da/d5e/classservices_1_1_terminal.html#aad73e9f2c53f58c1c5022e76485dc477" target="_top" xlink:title="services::Terminal\l::Terminal">
<polygon fill="white" stroke="black" points="421,-0.5 421,-30.5 516,-30.5 516,-0.5 421,-0.5"/>
<text text-anchor="start" x="429" y="-18.5" font-family="Helvetica,sans-Serif" font-size="10.00">services::Terminal</text>
<text text-anchor="middle" x="468.5" y="-7.5" font-family="Helvetica,sans-Serif" font-size="10.00">::Terminal</text>
</a>
</g>
</g>
<!-- Node151&#45;&gt;Node152 -->
<g id="edge3" class="edge"><title>Node151&#45;&gt;Node152</title>
<path fill="none" stroke="midnightblue" d="M395.101,-15.5C403.752,-15.5 412.596,-15.5 420.996,-15.5"/>
<polygon fill="midnightblue" stroke="midnightblue" points="395.072,-12.0001 385.072,-15.5 395.072,-19.0001 395.072,-12.0001"/>
</g>
</g>
</svg>
