<?xml version="1.0" encoding="UTF-8" standalone="no"?>
<!DOCTYPE svg PUBLIC "-//W3C//DTD SVG 1.1//EN"
 "http://www.w3.org/Graphics/SVG/1.1/DTD/svg11.dtd">
<!-- Generated by graphviz version 2.38.0 (20140413.2041)
 -->
<!-- Title: services::Terminal::SendBell Pages: 1 -->
<!--zoomable 297 -->
<svg id="main" version="1.1" xmlns="http://www.w3.org/2000/svg" xmlns:xlink="http://www.w3.org/1999/xlink" xml:space="preserve" onload="init(evt)">
<style type="text/css"><![CDATA[
.edge:hover path { stroke: red; }
.edge:hover polygon { stroke: red; fill: red; }
]]></style>
<script type="text/javascript"><![CDATA[
var edges = document.getElementsByTagName('g');
if (edges && edges.length) {
  for (var i=0;i<edges.length;i++) {
    if (edges[i].id.substr(0,4)=='edge') {
      edges[i].setAttribute('class','edge');
    }
  }
}
]]></script>
        <defs>
                <circle id="rim" cx="0" cy="0" r="7"/>
                <circle id="rim2" cx="0" cy="0" r="3.5"/>
                <g id="zoomPlus">
                        <use xlink:href="#rim" fill="#404040">
                                <set attributeName="fill" to="#808080" begin="zoomplus.mouseover" end="zoomplus.mouseout"/>
                        </use>
                        <path d="M-4,0h8M0,-4v8" fill="none" stroke="white" stroke-width="1.5" pointer-events="none"/>
                </g>
                <g id="zoomMin">
                        <use xlink:href="#rim" fill="#404040">
                                <set attributeName="fill" to="#808080" begin="zoomminus.mouseover" end="zoomminus.mouseout"/>
                        </use>
                        <path d="M-4,0h8" fill="none" stroke="white" stroke-width="1.5" pointer-events="none"/>
                </g>
                <g id="dirArrow">
                        <path fill="none" stroke="white" stroke-width="1.5" d="M0,-3.0v7 M-2.5,-0.5L0,-3.0L2.5,-0.5"/>
                </g>
               <g id="resetDef">
                       <use xlink:href="#rim2" fill="#404040">
                               <set attributeName="fill" to="#808080" begin="reset.mouseover" end="reset.mouseout"/>
                       </use>
               </g>
        </defs>

<script type="text/javascript">
var viewWidth = 958;
var viewHeight = 297;
var sectionId = 'dynsection-36';
</script>
<script xlink:href="../../svgpan.js"/>
<svg id="graph" class="graph">
<g id="viewport">
<title>services::Terminal::SendBell</title>
<polygon fill="white" stroke="none" points="-4,4 -4,-293 954,-293 954,4 -4,4"/>
<!-- Node364 -->
<g id="node1" class="node"><title>Node364</title>
<polygon fill="#bfbfbf" stroke="black" points="0,-145.5 0,-175.5 95,-175.5 95,-145.5 0,-145.5"/>
<text text-anchor="start" x="8" y="-163.5" font-family="Helvetica,sans-Serif" font-size="10.00">services::Terminal</text>
<text text-anchor="middle" x="47.5" y="-152.5" font-family="Helvetica,sans-Serif" font-size="10.00">::SendBell</text>
</g>
<!-- Node365 -->
<g id="node2" class="node"><title>Node365</title>
<g id="a_node2"><a xlink:href="../../da/d5e/classservices_1_1_terminal.html#ab425774b3fc07be312ad3a41354487b5" target="_top" xlink:title="services::Terminal\l::HistoryBackward">
<polygon fill="white" stroke="black" points="131,-258.5 131,-288.5 227,-288.5 227,-258.5 131,-258.5"/>
<text text-anchor="start" x="139" y="-276.5" font-family="Helvetica,sans-Serif" font-size="10.00">services::Terminal</text>
<text text-anchor="middle" x="179" y="-265.5" font-family="Helvetica,sans-Serif" font-size="10.00">::HistoryBackward</text>
</a>
</g>
</g>
<!-- Node364&#45;&gt;Node365 -->
<g id="edge1" class="edge"><title>Node364&#45;&gt;Node365</title>
<path fill="none" stroke="midnightblue" d="M68.4155,-183.107C84.4179,-200.614 107.952,-224.928 131,-243.5 137.482,-248.723 144.914,-253.823 151.925,-258.292"/>
<polygon fill="midnightblue" stroke="midnightblue" points="70.9229,-180.662 61.6218,-175.588 65.7289,-185.355 70.9229,-180.662"/>
</g>
<!-- Node370 -->
<g id="node7" class="node"><title>Node370</title>
<g id="a_node7"><a xlink:href="../../da/d5e/classservices_1_1_terminal.html#ad1378bce6609bbc1336b401ddfdc097c" target="_top" xlink:title="services::Terminal\l::ProcessEscapeSequence">
<polygon fill="white" stroke="black" points="263,-214.5 263,-244.5 398,-244.5 398,-214.5 263,-214.5"/>
<text text-anchor="start" x="271" y="-232.5" font-family="Helvetica,sans-Serif" font-size="10.00">services::Terminal</text>
<text text-anchor="middle" x="330.5" y="-221.5" font-family="Helvetica,sans-Serif" font-size="10.00">::ProcessEscapeSequence</text>
</a>
</g>
</g>
<!-- Node364&#45;&gt;Node370 -->
<g id="edge19" class="edge"><title>Node364&#45;&gt;Node370</title>
<path fill="none" stroke="midnightblue" d="M76.7639,-181.484C92.0398,-191.707 111.689,-203.139 131,-209.5 173.438,-223.478 223.51,-228.447 262.746,-229.938"/>
<polygon fill="midnightblue" stroke="midnightblue" points="78.5295,-178.449 68.3107,-175.652 74.5543,-184.211 78.5295,-178.449"/>
</g>
<!-- Node371 -->
<g id="node8" class="node"><title>Node371</title>
<g id="a_node8"><a xlink:href="../../da/d5e/classservices_1_1_terminal.html#af2dfff63e27f81a07617758b28f4ff9b" target="_top" xlink:title="services::Terminal\l::MoveCursorLeft">
<polygon fill="white" stroke="black" points="131.5,-121.5 131.5,-151.5 226.5,-151.5 226.5,-121.5 131.5,-121.5"/>
<text text-anchor="start" x="139.5" y="-139.5" font-family="Helvetica,sans-Serif" font-size="10.00">services::Terminal</text>
<text text-anchor="middle" x="179" y="-128.5" font-family="Helvetica,sans-Serif" font-size="10.00">::MoveCursorLeft</text>
</a>
</g>
</g>
<!-- Node364&#45;&gt;Node371 -->
<g id="edge8" class="edge"><title>Node364&#45;&gt;Node371</title>
<path fill="none" stroke="midnightblue" d="M105.32,-149.97C114.005,-148.36 122.883,-146.715 131.316,-145.152"/>
<polygon fill="midnightblue" stroke="midnightblue" points="104.447,-146.572 95.2525,-151.835 105.723,-153.455 104.447,-146.572"/>
</g>
<!-- Node373 -->
<g id="node10" class="node"><title>Node373</title>
<g id="a_node10"><a xlink:href="../../da/d5e/classservices_1_1_terminal.html#a79fed1dadddc7f4da3c9dba8ea2421fb" target="_top" xlink:title="services::Terminal\l::MoveCursorRight">
<polygon fill="white" stroke="black" points="131,-170.5 131,-200.5 227,-200.5 227,-170.5 131,-170.5"/>
<text text-anchor="start" x="139" y="-188.5" font-family="Helvetica,sans-Serif" font-size="10.00">services::Terminal</text>
<text text-anchor="middle" x="179" y="-177.5" font-family="Helvetica,sans-Serif" font-size="10.00">::MoveCursorRight</text>
</a>
</g>
</g>
<!-- Node364&#45;&gt;Node373 -->
<g id="edge13" class="edge"><title>Node364&#45;&gt;Node373</title>
<path fill="none" stroke="midnightblue" d="M105.195,-171.445C113.77,-173.1 122.537,-174.793 130.881,-176.404"/>
<polygon fill="midnightblue" stroke="midnightblue" points="105.735,-167.985 95.2525,-169.526 104.408,-174.858 105.735,-167.985"/>
</g>
<!-- Node374 -->
<g id="node11" class="node"><title>Node374</title>
<g id="a_node11"><a xlink:href="../../da/d5e/classservices_1_1_terminal.html#a951f19afce6942fac4dc7c34a5960015" target="_top" xlink:title="services::Terminal\l::ProcessDelete">
<polygon fill="white" stroke="black" points="131.5,-72.5 131.5,-102.5 226.5,-102.5 226.5,-72.5 131.5,-72.5"/>
<text text-anchor="start" x="139.5" y="-90.5" font-family="Helvetica,sans-Serif" font-size="10.00">services::Terminal</text>
<text text-anchor="middle" x="179" y="-79.5" font-family="Helvetica,sans-Serif" font-size="10.00">::ProcessDelete</text>
</a>
</g>
</g>
<!-- Node364&#45;&gt;Node374 -->
<g id="edge16" class="edge"><title>Node364&#45;&gt;Node374</title>
<path fill="none" stroke="midnightblue" d="M82.0173,-139.935C96.894,-130.978 114.692,-120.495 131,-111.5 136.375,-108.535 142.156,-105.479 147.762,-102.581"/>
<polygon fill="midnightblue" stroke="midnightblue" points="79.9152,-137.116 73.1714,-145.287 83.539,-143.105 79.9152,-137.116"/>
</g>
<!-- Node375 -->
<g id="node12" class="node"><title>Node375</title>
<g id="a_node12"><a xlink:href="../../da/d5e/classservices_1_1_terminal.html#a98bb6710488b08203836846d2bec4903" target="_top" xlink:title="services::Terminal\l::SendNonEscapeChar">
<polygon fill="white" stroke="black" points="272.5,-0.5 272.5,-30.5 388.5,-30.5 388.5,-0.5 272.5,-0.5"/>
<text text-anchor="start" x="280.5" y="-18.5" font-family="Helvetica,sans-Serif" font-size="10.00">services::Terminal</text>
<text text-anchor="middle" x="330.5" y="-7.5" font-family="Helvetica,sans-Serif" font-size="10.00">::SendNonEscapeChar</text>
</a>
</g>
</g>
<!-- Node364&#45;&gt;Node375 -->
<g id="edge20" class="edge"><title>Node364&#45;&gt;Node375</title>
<path fill="none" stroke="midnightblue" d="M62.3026,-136.596C76.6005,-114.018 101.037,-80.9437 131,-62.5 173.976,-36.0457 230.613,-24.4796 272.386,-19.4238"/>
<polygon fill="midnightblue" stroke="midnightblue" points="59.23,-134.912 56.9823,-145.265 65.1961,-138.573 59.23,-134.912"/>
</g>
<!-- Node366 -->
<g id="node3" class="node"><title>Node366</title>
<g id="a_node3"><a xlink:href="../../da/d5e/classservices_1_1_terminal.html#ac06706052252c209c8529d165a679d80" target="_top" xlink:title="services::Terminal\l::HandleNonEscapeChar">
<polygon fill="white" stroke="black" points="434,-132.5 434,-162.5 557,-162.5 557,-132.5 434,-132.5"/>
<text text-anchor="start" x="442" y="-150.5" font-family="Helvetica,sans-Serif" font-size="10.00">services::Terminal</text>
<text text-anchor="middle" x="495.5" y="-139.5" font-family="Helvetica,sans-Serif" font-size="10.00">::HandleNonEscapeChar</text>
</a>
</g>
</g>
<!-- Node365&#45;&gt;Node366 -->
<g id="edge2" class="edge"><title>Node365&#45;&gt;Node366</title>
<path fill="none" stroke="midnightblue" d="M237.387,-279.62C283.236,-281.973 347.886,-279.45 398,-254.5 439.428,-233.874 471.375,-187.18 485.909,-162.866"/>
<polygon fill="midnightblue" stroke="midnightblue" points="237.515,-276.121 227.321,-279.01 237.091,-283.108 237.515,-276.121"/>
</g>
<!-- Node365&#45;&gt;Node370 -->
<g id="edge6" class="edge"><title>Node365&#45;&gt;Node370</title>
<path fill="none" stroke="midnightblue" d="M237.029,-256.716C250.625,-252.714 265.051,-248.468 278.364,-244.55"/>
<polygon fill="midnightblue" stroke="midnightblue" points="235.908,-253.397 227.303,-259.578 237.884,-260.112 235.908,-253.397"/>
</g>
<!-- Node367 -->
<g id="node4" class="node"><title>Node367</title>
<g id="a_node4"><a xlink:href="../../da/d5e/classservices_1_1_terminal.html#ab41caf17d0377706131a5f420b9a752a" target="_top" xlink:title="services::Terminal\l::HandleChar">
<polygon fill="white" stroke="black" points="593,-163.5 593,-193.5 688,-193.5 688,-163.5 593,-163.5"/>
<text text-anchor="start" x="601" y="-181.5" font-family="Helvetica,sans-Serif" font-size="10.00">services::Terminal</text>
<text text-anchor="middle" x="640.5" y="-170.5" font-family="Helvetica,sans-Serif" font-size="10.00">::HandleChar</text>
</a>
</g>
</g>
<!-- Node366&#45;&gt;Node367 -->
<g id="edge3" class="edge"><title>Node366&#45;&gt;Node367</title>
<path fill="none" stroke="midnightblue" d="M566.95,-162.772C575.667,-164.662 584.405,-166.556 592.646,-168.343"/>
<polygon fill="midnightblue" stroke="midnightblue" points="567.659,-159.345 557.145,-160.647 566.176,-166.186 567.659,-159.345"/>
</g>
<!-- Node368 -->
<g id="node5" class="node"><title>Node368</title>
<g id="a_node5"><a xlink:href="../../da/d5e/classservices_1_1_terminal.html#aa70a33132a3a8d92661f9d4729c4543e" target="_top" xlink:title="services::Terminal\l::HandleInput">
<polygon fill="white" stroke="black" points="724,-163.5 724,-193.5 819,-193.5 819,-163.5 724,-163.5"/>
<text text-anchor="start" x="732" y="-181.5" font-family="Helvetica,sans-Serif" font-size="10.00">services::Terminal</text>
<text text-anchor="middle" x="771.5" y="-170.5" font-family="Helvetica,sans-Serif" font-size="10.00">::HandleInput</text>
</a>
</g>
</g>
<!-- Node367&#45;&gt;Node368 -->
<g id="edge4" class="edge"><title>Node367&#45;&gt;Node368</title>
<path fill="none" stroke="midnightblue" d="M698.101,-178.5C706.752,-178.5 715.596,-178.5 723.996,-178.5"/>
<polygon fill="midnightblue" stroke="midnightblue" points="698.072,-175 688.072,-178.5 698.072,-182 698.072,-175"/>
</g>
<!-- Node369 -->
<g id="node6" class="node"><title>Node369</title>
<g id="a_node6"><a xlink:href="../../da/d5e/classservices_1_1_terminal.html#aad73e9f2c53f58c1c5022e76485dc477" target="_top" xlink:title="services::Terminal\l::Terminal">
<polygon fill="white" stroke="black" points="855,-163.5 855,-193.5 950,-193.5 950,-163.5 855,-163.5"/>
<text text-anchor="start" x="863" y="-181.5" font-family="Helvetica,sans-Serif" font-size="10.00">services::Terminal</text>
<text text-anchor="middle" x="902.5" y="-170.5" font-family="Helvetica,sans-Serif" font-size="10.00">::Terminal</text>
</a>
</g>
</g>
<!-- Node368&#45;&gt;Node369 -->
<g id="edge5" class="edge"><title>Node368&#45;&gt;Node369</title>
<path fill="none" stroke="midnightblue" d="M829.101,-178.5C837.752,-178.5 846.596,-178.5 854.996,-178.5"/>
<polygon fill="midnightblue" stroke="midnightblue" points="829.072,-175 819.072,-178.5 829.072,-182 829.072,-175"/>
</g>
<!-- Node370&#45;&gt;Node367 -->
<g id="edge7" class="edge"><title>Node370&#45;&gt;Node367</title>
<path fill="none" stroke="midnightblue" d="M408.545,-216.743C466.479,-207.15 543.969,-194.318 592.816,-186.23"/>
<polygon fill="midnightblue" stroke="midnightblue" points="407.625,-213.347 398.331,-218.434 408.769,-220.253 407.625,-213.347"/>
</g>
<!-- Node371&#45;&gt;Node366 -->
<g id="edge9" class="edge"><title>Node371&#45;&gt;Node366</title>
<path fill="none" stroke="midnightblue" d="M236.777,-138.486C292.373,-140.43 376.8,-143.383 433.729,-145.374"/>
<polygon fill="midnightblue" stroke="midnightblue" points="236.86,-134.987 226.744,-138.135 236.616,-141.982 236.86,-134.987"/>
</g>
<!-- Node371&#45;&gt;Node370 -->
<g id="edge12" class="edge"><title>Node371&#45;&gt;Node370</title>
<path fill="none" stroke="midnightblue" d="M219.814,-156.402C222.263,-157.758 224.675,-159.13 227,-160.5 256.204,-177.702 288.404,-199.954 308.777,-214.469"/>
<polygon fill="midnightblue" stroke="midnightblue" points="221.344,-153.251 210.88,-151.597 218.028,-159.416 221.344,-153.251"/>
</g>
<!-- Node372 -->
<g id="node9" class="node"><title>Node372</title>
<g id="a_node9"><a xlink:href="../../da/d5e/classservices_1_1_terminal.html#a9cd093666fd53a63bd5333a61c94f5b6" target="_top" xlink:title="services::Terminal\l::ProcessBackspace">
<polygon fill="white" stroke="black" points="277,-88.5 277,-118.5 384,-118.5 384,-88.5 277,-88.5"/>
<text text-anchor="start" x="285" y="-106.5" font-family="Helvetica,sans-Serif" font-size="10.00">services::Terminal</text>
<text text-anchor="middle" x="330.5" y="-95.5" font-family="Helvetica,sans-Serif" font-size="10.00">::ProcessBackspace</text>
</a>
</g>
</g>
<!-- Node371&#45;&gt;Node372 -->
<g id="edge10" class="edge"><title>Node371&#45;&gt;Node372</title>
<path fill="none" stroke="midnightblue" d="M236.758,-123.971C249.899,-121.071 263.827,-117.996 276.786,-115.136"/>
<polygon fill="midnightblue" stroke="midnightblue" points="235.903,-120.576 226.893,-126.149 237.412,-127.411 235.903,-120.576"/>
</g>
<!-- Node372&#45;&gt;Node366 -->
<g id="edge11" class="edge"><title>Node372&#45;&gt;Node366</title>
<path fill="none" stroke="midnightblue" d="M394.384,-120.475C409.006,-124.422 424.471,-128.597 438.76,-132.454"/>
<polygon fill="midnightblue" stroke="midnightblue" points="394.988,-117.013 384.421,-117.786 393.164,-123.771 394.988,-117.013"/>
</g>
<!-- Node373&#45;&gt;Node366 -->
<g id="edge14" class="edge"><title>Node373&#45;&gt;Node366</title>
<path fill="none" stroke="midnightblue" d="M237.128,-178.597C292.773,-171.874 377.057,-161.69 433.868,-154.826"/>
<polygon fill="midnightblue" stroke="midnightblue" points="236.592,-175.137 227.084,-179.811 237.431,-182.086 236.592,-175.137"/>
</g>
<!-- Node373&#45;&gt;Node370 -->
<g id="edge15" class="edge"><title>Node373&#45;&gt;Node370</title>
<path fill="none" stroke="midnightblue" d="M237.029,-202.284C250.625,-206.286 265.051,-210.532 278.364,-214.45"/>
<polygon fill="midnightblue" stroke="midnightblue" points="237.884,-198.888 227.303,-199.422 235.908,-205.603 237.884,-198.888"/>
</g>
<!-- Node374&#45;&gt;Node366 -->
<g id="edge17" class="edge"><title>Node374&#45;&gt;Node366</title>
<path fill="none" stroke="midnightblue" d="M236.599,-74.6547C281.468,-66.9432 345.185,-61.5603 398,-78.5 430.947,-89.0674 462.21,-115.481 479.811,-132.392"/>
<polygon fill="midnightblue" stroke="midnightblue" points="235.972,-71.2112 226.754,-76.4356 237.218,-78.0994 235.972,-71.2112"/>
</g>
<!-- Node374&#45;&gt;Node372 -->
<g id="edge18" class="edge"><title>Node374&#45;&gt;Node372</title>
<path fill="none" stroke="midnightblue" d="M237.145,-93.6158C250.172,-95.01 263.955,-96.4851 276.786,-97.8584"/>
<polygon fill="midnightblue" stroke="midnightblue" points="237.208,-90.1027 226.893,-92.5186 236.463,-97.063 237.208,-90.1027"/>
</g>
<!-- Node375&#45;&gt;Node366 -->
<g id="edge21" class="edge"><title>Node375&#45;&gt;Node366</title>
<path fill="none" stroke="midnightblue" d="M380.944,-35.1637C386.889,-38.2862 392.718,-41.7412 398,-45.5 433.554,-70.7987 466.567,-110.587 483.21,-132.234"/>
<polygon fill="midnightblue" stroke="midnightblue" points="382.083,-31.823 371.567,-30.5348 378.985,-38.0998 382.083,-31.823"/>
</g>
</g>
</svg>
        <g id="navigator" transform="translate(0 0)" fill="#404254">
                <rect fill="#f2f5e9" fill-opacity="0.5" stroke="#606060" stroke-width=".5" x="0" y="0" width="60" height="60"/>
                <use id="zoomplus" xlink:href="#zoomPlus" x="17" y="9" onmousedown="handleZoom(evt,'in')"/>
                <use id="zoomminus" xlink:href="#zoomMin" x="42" y="9" onmousedown="handleZoom(evt,'out')"/>
                <use id="reset" xlink:href="#resetDef" x="30" y="36" onmousedown="handleReset()"/>
                <g id="arrowUp" xlink:href="#dirArrow" transform="translate(30 24)" onmousedown="handlePan(0,-1)">
                  <use xlink:href="#rim" fill="#404040">
                        <set attributeName="fill" to="#808080" begin="arrowUp.mouseover" end="arrowUp.mouseout"/>
                  </use>
                  <path fill="none" stroke="white" stroke-width="1.5" d="M0,-3.0v7 M-2.5,-0.5L0,-3.0L2.5,-0.5"/>
                </g>
                <g id="arrowRight" xlink:href="#dirArrow" transform="rotate(90) translate(36 -43)" onmousedown="handlePan(1,0)">
                  <use xlink:href="#rim" fill="#404040">
                        <set attributeName="fill" to="#808080" begin="arrowRight.mouseover" end="arrowRight.mouseout"/>
                  </use>
                  <path fill="none" stroke="white" stroke-width="1.5" d="M0,-3.0v7 M-2.5,-0.5L0,-3.0L2.5,-0.5"/>
                </g>
                <g id="arrowDown" xlink:href="#dirArrow" transform="rotate(180) translate(-30 -48)" onmousedown="handlePan(0,1)">
                  <use xlink:href="#rim" fill="#404040">
                        <set attributeName="fill" to="#808080" begin="arrowDown.mouseover" end="arrowDown.mouseout"/>
                  </use>
                  <path fill="none" stroke="white" stroke-width="1.5" d="M0,-3.0v7 M-2.5,-0.5L0,-3.0L2.5,-0.5"/>
                </g>
                <g id="arrowLeft" xlink:href="#dirArrow" transform="rotate(270) translate(-36 17)" onmousedown="handlePan(-1,0)">
                  <use xlink:href="#rim" fill="#404040">
                        <set attributeName="fill" to="#808080" begin="arrowLeft.mouseover" end="arrowLeft.mouseout"/>
                  </use>
                  <path fill="none" stroke="white" stroke-width="1.5" d="M0,-3.0v7 M-2.5,-0.5L0,-3.0L2.5,-0.5"/>
                </g>
        </g>
        <svg viewBox="0 0 15 15" width="100%" height="30px" preserveAspectRatio="xMaxYMin meet">
         <g id="arrow_out" transform="scale(0.3 0.3)">
          <a xlink:href="classservices_1_1_terminal_ad15c3c1d686741ab2bb2eeb626bae605_icgraph_org.svg" target="_base">
           <rect id="button" ry="5" rx="5" y="6" x="6" height="38" width="38"
                fill="#f2f5e9" fill-opacity="0.5" stroke="#606060" stroke-width="1.0"/>
           <path id="arrow"
             d="M 11.500037,31.436501 C 11.940474,20.09759 22.043105,11.32322 32.158766,21.979434 L 37.068811,17.246167 C 37.068811,17.246167 37.088388,32 37.088388,32 L 22.160133,31.978069 C 22.160133,31.978069 26.997745,27.140456 26.997745,27.140456 C 18.528582,18.264221 13.291696,25.230495 11.500037,31.436501 z"
             style="fill:#404040;"/>
          </a>
         </g>
        </svg>
</svg>
