<?xml version="1.0" encoding="UTF-8" standalone="no"?>
<!DOCTYPE svg PUBLIC "-//W3C//DTD SVG 1.1//EN"
 "http://www.w3.org/Graphics/SVG/1.1/DTD/svg11.dtd">
<!-- Generated by graphviz version 2.38.0 (20140413.2041)
 -->
<!-- Title: services::Terminal::OverwriteBuffer Pages: 1 -->
<svg width="799pt" height="102pt"
 viewBox="0.00 0.00 799.00 101.90" xmlns="http://www.w3.org/2000/svg" xmlns:xlink="http://www.w3.org/1999/xlink">
<g id="graph0" class="graph" transform="scale(1 1) rotate(0) translate(4 97.9001)">
<title>services::Terminal::OverwriteBuffer</title>
<polygon fill="white" stroke="none" points="-4,4 -4,-97.9001 795,-97.9001 795,4 -4,4"/>
<!-- Node255 -->
<g id="node1" class="node"><title>Node255</title>
<polygon fill="#bfbfbf" stroke="black" points="0,-49.5 0,-79.5 95,-79.5 95,-49.5 0,-49.5"/>
<text text-anchor="start" x="8" y="-67.5" font-family="Helvetica,sans-Serif" font-size="10.00">services::Terminal</text>
<text text-anchor="middle" x="47.5" y="-56.5" font-family="Helvetica,sans-Serif" font-size="10.00">::OverwriteBuffer</text>
</g>
<!-- Node256 -->
<g id="node2" class="node"><title>Node256</title>
<g id="a_node2"><a xlink:href="../../da/d5e/classservices_1_1_terminal.html#ac06706052252c209c8529d165a679d80" target="_top" xlink:title="services::Terminal\l::HandleNonEscapeChar">
<polygon fill="white" stroke="black" points="269,-49.5 269,-79.5 392,-79.5 392,-49.5 269,-49.5"/>
<text text-anchor="start" x="277" y="-67.5" font-family="Helvetica,sans-Serif" font-size="10.00">services::Terminal</text>
<text text-anchor="middle" x="330.5" y="-56.5" font-family="Helvetica,sans-Serif" font-size="10.00">::HandleNonEscapeChar</text>
</a>
</g>
</g>
<!-- Node255&#45;&gt;Node256 -->
<g id="edge1" class="edge"><title>Node255&#45;&gt;Node256</title>
<path fill="none" stroke="midnightblue" d="M99.2458,-82.423C109.625,-85.3643 120.566,-87.9539 131,-89.5 173.206,-95.7544 184.638,-94.5914 227,-89.5 243.913,-87.4672 262.065,-83.6121 278.323,-79.5269"/>
<polygon fill="midnightblue" stroke="midnightblue" points="100.085,-79.0211 89.5021,-79.5177 98.0851,-85.7292 100.085,-79.0211"/>
</g>
<!-- Node260 -->
<g id="node6" class="node"><title>Node260</title>
<g id="a_node6"><a xlink:href="../../da/d5e/classservices_1_1_terminal.html#ab425774b3fc07be312ad3a41354487b5" target="_top" xlink:title="services::Terminal\l::HistoryBackward">
<polygon fill="white" stroke="black" points="131,-0.5 131,-30.5 227,-30.5 227,-0.5 131,-0.5"/>
<text text-anchor="start" x="139" y="-18.5" font-family="Helvetica,sans-Serif" font-size="10.00">services::Terminal</text>
<text text-anchor="middle" x="179" y="-7.5" font-family="Helvetica,sans-Serif" font-size="10.00">::HistoryBackward</text>
</a>
</g>
</g>
<!-- Node255&#45;&gt;Node260 -->
<g id="edge5" class="edge"><title>Node255&#45;&gt;Node260</title>
<path fill="none" stroke="midnightblue" d="M97.8727,-45.8184C111.136,-40.7999 125.313,-35.4357 137.998,-30.6359"/>
<polygon fill="midnightblue" stroke="midnightblue" points="96.5252,-42.5861 88.4109,-49.3986 99.0025,-49.1331 96.5252,-42.5861"/>
</g>
<!-- Node262 -->
<g id="node8" class="node"><title>Node262</title>
<g id="a_node8"><a xlink:href="../../da/d5e/classservices_1_1_terminal.html#ad16a9ed0a69ce1a7c8bc91d042a1aee9" target="_top" xlink:title="services::Terminal\l::HistoryForward">
<polygon fill="white" stroke="black" points="131.5,-49.5 131.5,-79.5 226.5,-79.5 226.5,-49.5 131.5,-49.5"/>
<text text-anchor="start" x="139.5" y="-67.5" font-family="Helvetica,sans-Serif" font-size="10.00">services::Terminal</text>
<text text-anchor="middle" x="179" y="-56.5" font-family="Helvetica,sans-Serif" font-size="10.00">::HistoryForward</text>
</a>
</g>
</g>
<!-- Node255&#45;&gt;Node262 -->
<g id="edge9" class="edge"><title>Node255&#45;&gt;Node262</title>
<path fill="none" stroke="midnightblue" d="M105.32,-64.5C114.005,-64.5 122.883,-64.5 131.316,-64.5"/>
<polygon fill="midnightblue" stroke="midnightblue" points="105.253,-61.0001 95.2525,-64.5 105.252,-68.0001 105.253,-61.0001"/>
</g>
<!-- Node257 -->
<g id="node3" class="node"><title>Node257</title>
<g id="a_node3"><a xlink:href="../../da/d5e/classservices_1_1_terminal.html#ab41caf17d0377706131a5f420b9a752a" target="_top" xlink:title="services::Terminal\l::HandleChar">
<polygon fill="white" stroke="black" points="434,-24.5 434,-54.5 529,-54.5 529,-24.5 434,-24.5"/>
<text text-anchor="start" x="442" y="-42.5" font-family="Helvetica,sans-Serif" font-size="10.00">services::Terminal</text>
<text text-anchor="middle" x="481.5" y="-31.5" font-family="Helvetica,sans-Serif" font-size="10.00">::HandleChar</text>
</a>
</g>
</g>
<!-- Node256&#45;&gt;Node257 -->
<g id="edge2" class="edge"><title>Node256&#45;&gt;Node257</title>
<path fill="none" stroke="midnightblue" d="M402.261,-52.6273C412.918,-50.8393 423.676,-49.0342 433.662,-47.3587"/>
<polygon fill="midnightblue" stroke="midnightblue" points="401.387,-49.225 392.104,-54.3315 402.545,-56.1285 401.387,-49.225"/>
</g>
<!-- Node258 -->
<g id="node4" class="node"><title>Node258</title>
<g id="a_node4"><a xlink:href="../../da/d5e/classservices_1_1_terminal.html#aa70a33132a3a8d92661f9d4729c4543e" target="_top" xlink:title="services::Terminal\l::HandleInput">
<polygon fill="white" stroke="black" points="565,-24.5 565,-54.5 660,-54.5 660,-24.5 565,-24.5"/>
<text text-anchor="start" x="573" y="-42.5" font-family="Helvetica,sans-Serif" font-size="10.00">services::Terminal</text>
<text text-anchor="middle" x="612.5" y="-31.5" font-family="Helvetica,sans-Serif" font-size="10.00">::HandleInput</text>
</a>
</g>
</g>
<!-- Node257&#45;&gt;Node258 -->
<g id="edge3" class="edge"><title>Node257&#45;&gt;Node258</title>
<path fill="none" stroke="midnightblue" d="M539.101,-39.5C547.752,-39.5 556.596,-39.5 564.996,-39.5"/>
<polygon fill="midnightblue" stroke="midnightblue" points="539.072,-36.0001 529.072,-39.5 539.072,-43.0001 539.072,-36.0001"/>
</g>
<!-- Node259 -->
<g id="node5" class="node"><title>Node259</title>
<g id="a_node5"><a xlink:href="../../da/d5e/classservices_1_1_terminal.html#aad73e9f2c53f58c1c5022e76485dc477" target="_top" xlink:title="services::Terminal\l::Terminal">
<polygon fill="white" stroke="black" points="696,-24.5 696,-54.5 791,-54.5 791,-24.5 696,-24.5"/>
<text text-anchor="start" x="704" y="-42.5" font-family="Helvetica,sans-Serif" font-size="10.00">services::Terminal</text>
<text text-anchor="middle" x="743.5" y="-31.5" font-family="Helvetica,sans-Serif" font-size="10.00">::Terminal</text>
</a>
</g>
</g>
<!-- Node258&#45;&gt;Node259 -->
<g id="edge4" class="edge"><title>Node258&#45;&gt;Node259</title>
<path fill="none" stroke="midnightblue" d="M670.101,-39.5C678.752,-39.5 687.596,-39.5 695.996,-39.5"/>
<polygon fill="midnightblue" stroke="midnightblue" points="670.072,-36.0001 660.072,-39.5 670.072,-43.0001 670.072,-36.0001"/>
</g>
<!-- Node260&#45;&gt;Node256 -->
<g id="edge6" class="edge"><title>Node260&#45;&gt;Node256</title>
<path fill="none" stroke="midnightblue" d="M235.709,-33.7591C251.477,-38.9273 268.456,-44.4924 283.577,-49.4484"/>
<polygon fill="midnightblue" stroke="midnightblue" points="236.668,-30.3902 226.075,-30.6014 234.487,-37.042 236.668,-30.3902"/>
</g>
<!-- Node261 -->
<g id="node7" class="node"><title>Node261</title>
<g id="a_node7"><a xlink:href="../../da/d5e/classservices_1_1_terminal.html#ad1378bce6609bbc1336b401ddfdc097c" target="_top" xlink:title="services::Terminal\l::ProcessEscapeSequence">
<polygon fill="white" stroke="black" points="263,-0.5 263,-30.5 398,-30.5 398,-0.5 263,-0.5"/>
<text text-anchor="start" x="271" y="-18.5" font-family="Helvetica,sans-Serif" font-size="10.00">services::Terminal</text>
<text text-anchor="middle" x="330.5" y="-7.5" font-family="Helvetica,sans-Serif" font-size="10.00">::ProcessEscapeSequence</text>
</a>
</g>
</g>
<!-- Node260&#45;&gt;Node261 -->
<g id="edge7" class="edge"><title>Node260&#45;&gt;Node261</title>
<path fill="none" stroke="midnightblue" d="M237.308,-15.5C245.66,-15.5 254.32,-15.5 262.839,-15.5"/>
<polygon fill="midnightblue" stroke="midnightblue" points="237.303,-12.0001 227.303,-15.5 237.303,-19.0001 237.303,-12.0001"/>
</g>
<!-- Node261&#45;&gt;Node257 -->
<g id="edge8" class="edge"><title>Node261&#45;&gt;Node257</title>
<path fill="none" stroke="midnightblue" d="M408.107,-27.8394C416.93,-29.2605 425.713,-30.6753 433.962,-32.0039"/>
<polygon fill="midnightblue" stroke="midnightblue" points="408.585,-24.3713 398.156,-26.2365 407.472,-31.2822 408.585,-24.3713"/>
</g>
<!-- Node262&#45;&gt;Node256 -->
<g id="edge10" class="edge"><title>Node262&#45;&gt;Node256</title>
<path fill="none" stroke="midnightblue" d="M237.072,-64.5C247.443,-64.5 258.297,-64.5 268.769,-64.5"/>
<polygon fill="midnightblue" stroke="midnightblue" points="236.893,-61.0001 226.893,-64.5 236.893,-68.0001 236.893,-61.0001"/>
</g>
<!-- Node262&#45;&gt;Node261 -->
<g id="edge11" class="edge"><title>Node262&#45;&gt;Node261</title>
<path fill="none" stroke="midnightblue" d="M235.709,-46.2409C251.477,-41.0727 268.456,-35.5076 283.577,-30.5516"/>
<polygon fill="midnightblue" stroke="midnightblue" points="234.487,-42.958 226.075,-49.3986 236.668,-49.6098 234.487,-42.958"/>
</g>
</g>
</svg>
