<?xml version="1.0" encoding="UTF-8" standalone="no"?>
<!DOCTYPE svg PUBLIC "-//W3C//DTD SVG 1.1//EN"
 "http://www.w3.org/Graphics/SVG/1.1/DTD/svg11.dtd">
<!-- Generated by graphviz version 2.38.0 (20140413.2041)
 -->
<!-- Title: services::Terminal::HistoryBackward Pages: 1 -->
<svg width="668pt" height="88pt"
 viewBox="0.00 0.00 668.00 88.00" xmlns="http://www.w3.org/2000/svg" xmlns:xlink="http://www.w3.org/1999/xlink">
<g id="graph0" class="graph" transform="scale(1 1) rotate(0) translate(4 84)">
<title>services::Terminal::HistoryBackward</title>
<polygon fill="white" stroke="none" points="-4,4 -4,-84 664,-84 664,4 -4,4"/>
<!-- Node163 -->
<g id="node1" class="node"><title>Node163</title>
<polygon fill="#bfbfbf" stroke="black" points="0,-24.5 0,-54.5 96,-54.5 96,-24.5 0,-24.5"/>
<text text-anchor="start" x="8" y="-42.5" font-family="Helvetica,sans-Serif" font-size="10.00">services::Terminal</text>
<text text-anchor="middle" x="48" y="-31.5" font-family="Helvetica,sans-Serif" font-size="10.00">::HistoryBackward</text>
</g>
<!-- Node164 -->
<g id="node2" class="node"><title>Node164</title>
<g id="a_node2"><a xlink:href="../../da/d5e/classservices_1_1_terminal.html#ac06706052252c209c8529d165a679d80" target="_top" xlink:title="services::Terminal\l::HandleNonEscapeChar">
<polygon fill="white" stroke="black" points="138,-49.5 138,-79.5 261,-79.5 261,-49.5 138,-49.5"/>
<text text-anchor="start" x="146" y="-67.5" font-family="Helvetica,sans-Serif" font-size="10.00">services::Terminal</text>
<text text-anchor="middle" x="199.5" y="-56.5" font-family="Helvetica,sans-Serif" font-size="10.00">::HandleNonEscapeChar</text>
</a>
</g>
</g>
<!-- Node163&#45;&gt;Node164 -->
<g id="edge1" class="edge"><title>Node163&#45;&gt;Node164</title>
<path fill="none" stroke="midnightblue" d="M106.4,-49.0986C116.682,-50.8181 127.429,-52.6151 137.8,-54.3496"/>
<polygon fill="midnightblue" stroke="midnightblue" points="106.743,-45.6075 96.3027,-47.4102 105.588,-52.5116 106.743,-45.6075"/>
</g>
<!-- Node168 -->
<g id="node6" class="node"><title>Node168</title>
<g id="a_node6"><a xlink:href="../../da/d5e/classservices_1_1_terminal.html#ad1378bce6609bbc1336b401ddfdc097c" target="_top" xlink:title="services::Terminal\l::ProcessEscapeSequence">
<polygon fill="white" stroke="black" points="132,-0.5 132,-30.5 267,-30.5 267,-0.5 132,-0.5"/>
<text text-anchor="start" x="140" y="-18.5" font-family="Helvetica,sans-Serif" font-size="10.00">services::Terminal</text>
<text text-anchor="middle" x="199.5" y="-7.5" font-family="Helvetica,sans-Serif" font-size="10.00">::ProcessEscapeSequence</text>
</a>
</g>
</g>
<!-- Node163&#45;&gt;Node168 -->
<g id="edge5" class="edge"><title>Node163&#45;&gt;Node168</title>
<path fill="none" stroke="midnightblue" d="M106.308,-30.3001C114.66,-28.9592 123.32,-27.569 131.839,-26.2015"/>
<polygon fill="midnightblue" stroke="midnightblue" points="105.622,-26.8654 96.3027,-31.9063 106.731,-33.7769 105.622,-26.8654"/>
</g>
<!-- Node165 -->
<g id="node3" class="node"><title>Node165</title>
<g id="a_node3"><a xlink:href="../../da/d5e/classservices_1_1_terminal.html#ab41caf17d0377706131a5f420b9a752a" target="_top" xlink:title="services::Terminal\l::HandleChar">
<polygon fill="white" stroke="black" points="303,-24.5 303,-54.5 398,-54.5 398,-24.5 303,-24.5"/>
<text text-anchor="start" x="311" y="-42.5" font-family="Helvetica,sans-Serif" font-size="10.00">services::Terminal</text>
<text text-anchor="middle" x="350.5" y="-31.5" font-family="Helvetica,sans-Serif" font-size="10.00">::HandleChar</text>
</a>
</g>
</g>
<!-- Node164&#45;&gt;Node165 -->
<g id="edge2" class="edge"><title>Node164&#45;&gt;Node165</title>
<path fill="none" stroke="midnightblue" d="M271.261,-52.6273C281.918,-50.8393 292.676,-49.0342 302.662,-47.3587"/>
<polygon fill="midnightblue" stroke="midnightblue" points="270.387,-49.225 261.104,-54.3315 271.545,-56.1285 270.387,-49.225"/>
</g>
<!-- Node166 -->
<g id="node4" class="node"><title>Node166</title>
<g id="a_node4"><a xlink:href="../../da/d5e/classservices_1_1_terminal.html#aa70a33132a3a8d92661f9d4729c4543e" target="_top" xlink:title="services::Terminal\l::HandleInput">
<polygon fill="white" stroke="black" points="434,-24.5 434,-54.5 529,-54.5 529,-24.5 434,-24.5"/>
<text text-anchor="start" x="442" y="-42.5" font-family="Helvetica,sans-Serif" font-size="10.00">services::Terminal</text>
<text text-anchor="middle" x="481.5" y="-31.5" font-family="Helvetica,sans-Serif" font-size="10.00">::HandleInput</text>
</a>
</g>
</g>
<!-- Node165&#45;&gt;Node166 -->
<g id="edge3" class="edge"><title>Node165&#45;&gt;Node166</title>
<path fill="none" stroke="midnightblue" d="M408.101,-39.5C416.752,-39.5 425.596,-39.5 433.996,-39.5"/>
<polygon fill="midnightblue" stroke="midnightblue" points="408.072,-36.0001 398.072,-39.5 408.072,-43.0001 408.072,-36.0001"/>
</g>
<!-- Node167 -->
<g id="node5" class="node"><title>Node167</title>
<g id="a_node5"><a xlink:href="../../da/d5e/classservices_1_1_terminal.html#aad73e9f2c53f58c1c5022e76485dc477" target="_top" xlink:title="services::Terminal\l::Terminal">
<polygon fill="white" stroke="black" points="565,-24.5 565,-54.5 660,-54.5 660,-24.5 565,-24.5"/>
<text text-anchor="start" x="573" y="-42.5" font-family="Helvetica,sans-Serif" font-size="10.00">services::Terminal</text>
<text text-anchor="middle" x="612.5" y="-31.5" font-family="Helvetica,sans-Serif" font-size="10.00">::Terminal</text>
</a>
</g>
</g>
<!-- Node166&#45;&gt;Node167 -->
<g id="edge4" class="edge"><title>Node166&#45;&gt;Node167</title>
<path fill="none" stroke="midnightblue" d="M539.101,-39.5C547.752,-39.5 556.596,-39.5 564.996,-39.5"/>
<polygon fill="midnightblue" stroke="midnightblue" points="539.072,-36.0001 529.072,-39.5 539.072,-43.0001 539.072,-36.0001"/>
</g>
<!-- Node168&#45;&gt;Node165 -->
<g id="edge6" class="edge"><title>Node168&#45;&gt;Node165</title>
<path fill="none" stroke="midnightblue" d="M277.107,-27.8394C285.93,-29.2605 294.713,-30.6753 302.962,-32.0039"/>
<polygon fill="midnightblue" stroke="midnightblue" points="277.585,-24.3713 267.156,-26.2365 276.472,-31.2822 277.585,-24.3713"/>
</g>
</g>
</svg>
