<?xml version="1.0" encoding="UTF-8" standalone="no"?>
<!DOCTYPE svg PUBLIC "-//W3C//DTD SVG 1.1//EN"
 "http://www.w3.org/Graphics/SVG/1.1/DTD/svg11.dtd">
<!-- Generated by graphviz version 2.38.0 (20140413.2041)
 -->
<!-- Title: services::Terminal::EraseCharacterUnderCursor Pages: 1 -->
<!--zoomable 154 -->
<svg id="main" version="1.1" xmlns="http://www.w3.org/2000/svg" xmlns:xlink="http://www.w3.org/1999/xlink" xml:space="preserve" onload="init(evt)">
<style type="text/css"><![CDATA[
.edge:hover path { stroke: red; }
.edge:hover polygon { stroke: red; fill: red; }
]]></style>
<script type="text/javascript"><![CDATA[
var edges = document.getElementsByTagName('g');
if (edges && edges.length) {
  for (var i=0;i<edges.length;i++) {
    if (edges[i].id.substr(0,4)=='edge') {
      edges[i].setAttribute('class','edge');
    }
  }
}
]]></script>
        <defs>
                <circle id="rim" cx="0" cy="0" r="7"/>
                <circle id="rim2" cx="0" cy="0" r="3.5"/>
                <g id="zoomPlus">
                        <use xlink:href="#rim" fill="#404040">
                                <set attributeName="fill" to="#808080" begin="zoomplus.mouseover" end="zoomplus.mouseout"/>
                        </use>
                        <path d="M-4,0h8M0,-4v8" fill="none" stroke="white" stroke-width="1.5" pointer-events="none"/>
                </g>
                <g id="zoomMin">
                        <use xlink:href="#rim" fill="#404040">
                                <set attributeName="fill" to="#808080" begin="zoomminus.mouseover" end="zoomminus.mouseout"/>
                        </use>
                        <path d="M-4,0h8" fill="none" stroke="white" stroke-width="1.5" pointer-events="none"/>
                </g>
                <g id="dirArrow">
                        <path fill="none" stroke="white" stroke-width="1.5" d="M0,-3.0v7 M-2.5,-0.5L0,-3.0L2.5,-0.5"/>
                </g>
               <g id="resetDef">
                       <use xlink:href="#rim2" fill="#404040">
                               <set attributeName="fill" to="#808080" begin="reset.mouseover" end="reset.mouseout"/>
                       </use>
               </g>
        </defs>

<script type="text/javascript">
var viewWidth = 650;
var viewHeight = 154;
var sectionId = 'dynsection-2';
</script>
<script xlink:href="../../svgpan.js"/>
<svg id="graph" class="graph">
<g id="viewport">
<title>services::Terminal::EraseCharacterUnderCursor</title>
<polygon fill="white" stroke="none" points="-4,4 -4,-150 646,-150 646,4 -4,4"/>
<!-- Node36 -->
<g id="node1" class="node"><title>Node36</title>
<polygon fill="#bfbfbf" stroke="black" points="0,-66.5 0,-96.5 144,-96.5 144,-66.5 0,-66.5"/>
<text text-anchor="start" x="8" y="-84.5" font-family="Helvetica,sans-Serif" font-size="10.00">services::Terminal</text>
<text text-anchor="middle" x="72" y="-73.5" font-family="Helvetica,sans-Serif" font-size="10.00">::EraseCharacterUnderCursor</text>
</g>
<!-- Node37 -->
<g id="node2" class="node"><title>Node37</title>
<g id="a_node2"><a xlink:href="../../d0/de3/namespaceinfra.html#ae4478bf95f90ceb679642cb4180f205f" target="_top" xlink:title="infra::MakeByteRange">
<polygon fill="white" stroke="black" points="180,-94 180,-113 293,-113 293,-94 180,-94"/>
<text text-anchor="middle" x="236.5" y="-101" font-family="Helvetica,sans-Serif" font-size="10.00">infra::MakeByteRange</text>
</a>
</g>
</g>
<!-- Node36&#45;&gt;Node37 -->
<g id="edge1" class="edge"><title>Node36&#45;&gt;Node37</title>
<path fill="none" stroke="midnightblue" d="M144.275,-91.1495C152.763,-92.2986 161.398,-93.4677 169.802,-94.6055"/>
<polygon fill="midnightblue" stroke="midnightblue" points="169.535,-98.1012 179.914,-95.9745 170.474,-91.1645 169.535,-98.1012"/>
</g>
<!-- Node38 -->
<g id="node3" class="node"><title>Node38</title>
<g id="a_node3"><a xlink:href="../../d0/de3/namespaceinfra.html#afe38b7d4318537de2f28b244211c4275" target="_top" xlink:title="infra::MakeRange">
<polygon fill="white" stroke="black" points="347,-99 347,-118 439,-118 439,-99 347,-99"/>
<text text-anchor="middle" x="393" y="-106" font-family="Helvetica,sans-Serif" font-size="10.00">infra::MakeRange</text>
</a>
</g>
</g>
<!-- Node36&#45;&gt;Node38 -->
<g id="edge6" class="edge"><title>Node36&#45;&gt;Node38</title>
<path fill="none" stroke="midnightblue" d="M103.494,-96.6271C124.441,-106.148 153.201,-117.541 180,-122.5 232.718,-132.254 293.912,-126.419 336.964,-119.553"/>
<polygon fill="midnightblue" stroke="midnightblue" points="337.666,-122.984 346.955,-117.889 336.516,-116.079 337.666,-122.984"/>
</g>
<!-- Node42 -->
<g id="node7" class="node"><title>Node42</title>
<g id="a_node7"><a xlink:href="../../da/d5e/classservices_1_1_terminal.html#a3947eb19c7a016c12ca945b842ce64be" target="_top" xlink:title="services::Terminal\l::Print">
<polygon fill="white" stroke="black" points="189,-44.5 189,-74.5 284,-74.5 284,-44.5 189,-44.5"/>
<text text-anchor="start" x="197" y="-62.5" font-family="Helvetica,sans-Serif" font-size="10.00">services::Terminal</text>
<text text-anchor="middle" x="236.5" y="-51.5" font-family="Helvetica,sans-Serif" font-size="10.00">::Print</text>
</a>
</g>
</g>
<!-- Node36&#45;&gt;Node42 -->
<g id="edge7" class="edge"><title>Node36&#45;&gt;Node42</title>
<path fill="none" stroke="midnightblue" d="M144.275,-71.8505C155.766,-70.2948 167.527,-68.7025 178.621,-67.2006"/>
<polygon fill="midnightblue" stroke="midnightblue" points="179.154,-70.6604 188.594,-65.8504 178.214,-63.7237 179.154,-70.6604"/>
</g>
<!-- Node43 -->
<g id="node8" class="node"><title>Node43</title>
<g id="a_node8"><a xlink:href="../../d6/dba/classhal_1_1_serial_communication.html#a9c94f3aed0ca15268f0f731ea53fcdf6" target="_top" xlink:title="hal::SerialCommunication\l::SendData">
<polygon fill="white" stroke="black" points="329,-0.5 329,-30.5 457,-30.5 457,-0.5 329,-0.5"/>
<text text-anchor="start" x="337" y="-18.5" font-family="Helvetica,sans-Serif" font-size="10.00">hal::SerialCommunication</text>
<text text-anchor="middle" x="393" y="-7.5" font-family="Helvetica,sans-Serif" font-size="10.00">::SendData</text>
</a>
</g>
</g>
<!-- Node36&#45;&gt;Node43 -->
<g id="edge11" class="edge"><title>Node36&#45;&gt;Node43</title>
<path fill="none" stroke="midnightblue" d="M100.714,-66.3345C121.806,-55.5427 151.9,-41.724 180,-34.5 225.201,-22.8797 277.401,-18.1007 318.693,-16.2409"/>
<polygon fill="midnightblue" stroke="midnightblue" points="319.094,-19.7277 328.945,-15.8286 318.813,-12.7334 319.094,-19.7277"/>
</g>
<!-- Node37&#45;&gt;Node38 -->
<g id="edge2" class="edge"><title>Node37&#45;&gt;Node38</title>
<path fill="none" stroke="midnightblue" d="M293.278,-105.305C307.467,-105.764 322.706,-106.257 336.862,-106.716"/>
<polygon fill="midnightblue" stroke="midnightblue" points="336.841,-110.217 346.949,-107.042 337.067,-103.22 336.841,-110.217"/>
</g>
<!-- Node41 -->
<g id="node6" class="node"><title>Node41</title>
<g id="a_node6"><a xlink:href="../../d0/de3/namespaceinfra.html#a74203fdf2e029d2667c7e4925092cc9a" target="_top" xlink:title="infra::ReinterpretCastByte\lRange">
<polygon fill="white" stroke="black" points="329,-49.5 329,-79.5 457,-79.5 457,-49.5 329,-49.5"/>
<text text-anchor="start" x="337" y="-67.5" font-family="Helvetica,sans-Serif" font-size="10.00">infra::ReinterpretCastByte</text>
<text text-anchor="middle" x="393" y="-56.5" font-family="Helvetica,sans-Serif" font-size="10.00">Range</text>
</a>
</g>
</g>
<!-- Node37&#45;&gt;Node41 -->
<g id="edge5" class="edge"><title>Node37&#45;&gt;Node41</title>
<path fill="none" stroke="midnightblue" d="M275.295,-93.9595C289.499,-90.374 306.136,-86.1743 322.325,-82.0878"/>
<polygon fill="midnightblue" stroke="midnightblue" points="323.482,-85.4056 332.322,-79.5645 321.769,-78.6185 323.482,-85.4056"/>
</g>
<!-- Node39 -->
<g id="node4" class="node"><title>Node39</title>
<g id="a_node4"><a xlink:href="../../d1/d2a/classinfra_1_1_bounded_string_base.html#aef23e4250cad2fdc69ccc39f68734233" target="_top" xlink:title="infra::BoundedStringBase\l::begin">
<polygon fill="white" stroke="black" points="504,-115.5 504,-145.5 631,-145.5 631,-115.5 504,-115.5"/>
<text text-anchor="start" x="512" y="-133.5" font-family="Helvetica,sans-Serif" font-size="10.00">infra::BoundedStringBase</text>
<text text-anchor="middle" x="567.5" y="-122.5" font-family="Helvetica,sans-Serif" font-size="10.00">::begin</text>
</a>
</g>
</g>
<!-- Node38&#45;&gt;Node39 -->
<g id="edge3" class="edge"><title>Node38&#45;&gt;Node39</title>
<path fill="none" stroke="midnightblue" d="M439.322,-114.28C455.999,-116.407 475.333,-118.873 493.814,-121.23"/>
<polygon fill="midnightblue" stroke="midnightblue" points="493.61,-124.732 503.972,-122.525 494.495,-117.788 493.61,-124.732"/>
</g>
<!-- Node40 -->
<g id="node5" class="node"><title>Node40</title>
<g id="a_node5"><a xlink:href="../../d1/d2a/classinfra_1_1_bounded_string_base.html#af5021f1ea3898146d0a55c2895f07dbf" target="_top" xlink:title="infra::BoundedStringBase::end">
<polygon fill="white" stroke="black" points="493,-77 493,-96 642,-96 642,-77 493,-77"/>
<text text-anchor="middle" x="567.5" y="-84" font-family="Helvetica,sans-Serif" font-size="10.00">infra::BoundedStringBase::end</text>
</a>
</g>
</g>
<!-- Node38&#45;&gt;Node40 -->
<g id="edge4" class="edge"><title>Node38&#45;&gt;Node40</title>
<path fill="none" stroke="midnightblue" d="M439.322,-102.72C452.624,-101.023 467.615,-99.1114 482.517,-97.2109"/>
<polygon fill="midnightblue" stroke="midnightblue" points="483.32,-100.637 492.797,-95.8998 482.435,-93.6931 483.32,-100.637"/>
</g>
<!-- Node42&#45;&gt;Node38 -->
<g id="edge9" class="edge"><title>Node42&#45;&gt;Node38</title>
<path fill="none" stroke="midnightblue" d="M284.274,-74.3346C305.951,-81.2093 331.44,-89.2932 352.181,-95.8714"/>
<polygon fill="midnightblue" stroke="midnightblue" points="351.354,-99.2809 361.945,-98.9678 353.471,-92.6084 351.354,-99.2809"/>
</g>
<!-- Node42&#45;&gt;Node41 -->
<g id="edge8" class="edge"><title>Node42&#45;&gt;Node41</title>
<path fill="none" stroke="midnightblue" d="M284.274,-61.0137C295.128,-61.365 306.937,-61.7472 318.628,-62.1255"/>
<polygon fill="midnightblue" stroke="midnightblue" points="318.736,-65.6307 328.844,-62.4561 318.962,-58.6344 318.736,-65.6307"/>
</g>
<!-- Node42&#45;&gt;Node43 -->
<g id="edge10" class="edge"><title>Node42&#45;&gt;Node43</title>
<path fill="none" stroke="midnightblue" d="M284.274,-46.1791C298.481,-42.1332 314.326,-37.6207 329.398,-33.3283"/>
<polygon fill="midnightblue" stroke="midnightblue" points="330.508,-36.6516 339.167,-30.5464 328.59,-29.9193 330.508,-36.6516"/>
</g>
</g>
</svg>
        <g id="navigator" transform="translate(0 0)" fill="#404254">
                <rect fill="#f2f5e9" fill-opacity="0.5" stroke="#606060" stroke-width=".5" x="0" y="0" width="60" height="60"/>
                <use id="zoomplus" xlink:href="#zoomPlus" x="17" y="9" onmousedown="handleZoom(evt,'in')"/>
                <use id="zoomminus" xlink:href="#zoomMin" x="42" y="9" onmousedown="handleZoom(evt,'out')"/>
                <use id="reset" xlink:href="#resetDef" x="30" y="36" onmousedown="handleReset()"/>
                <g id="arrowUp" xlink:href="#dirArrow" transform="translate(30 24)" onmousedown="handlePan(0,-1)">
                  <use xlink:href="#rim" fill="#404040">
                        <set attributeName="fill" to="#808080" begin="arrowUp.mouseover" end="arrowUp.mouseout"/>
                  </use>
                  <path fill="none" stroke="white" stroke-width="1.5" d="M0,-3.0v7 M-2.5,-0.5L0,-3.0L2.5,-0.5"/>
                </g>
                <g id="arrowRight" xlink:href="#dirArrow" transform="rotate(90) translate(36 -43)" onmousedown="handlePan(1,0)">
                  <use xlink:href="#rim" fill="#404040">
                        <set attributeName="fill" to="#808080" begin="arrowRight.mouseover" end="arrowRight.mouseout"/>
                  </use>
                  <path fill="none" stroke="white" stroke-width="1.5" d="M0,-3.0v7 M-2.5,-0.5L0,-3.0L2.5,-0.5"/>
                </g>
                <g id="arrowDown" xlink:href="#dirArrow" transform="rotate(180) translate(-30 -48)" onmousedown="handlePan(0,1)">
                  <use xlink:href="#rim" fill="#404040">
                        <set attributeName="fill" to="#808080" begin="arrowDown.mouseover" end="arrowDown.mouseout"/>
                  </use>
                  <path fill="none" stroke="white" stroke-width="1.5" d="M0,-3.0v7 M-2.5,-0.5L0,-3.0L2.5,-0.5"/>
                </g>
                <g id="arrowLeft" xlink:href="#dirArrow" transform="rotate(270) translate(-36 17)" onmousedown="handlePan(-1,0)">
                  <use xlink:href="#rim" fill="#404040">
                        <set attributeName="fill" to="#808080" begin="arrowLeft.mouseover" end="arrowLeft.mouseout"/>
                  </use>
                  <path fill="none" stroke="white" stroke-width="1.5" d="M0,-3.0v7 M-2.5,-0.5L0,-3.0L2.5,-0.5"/>
                </g>
        </g>
        <svg viewBox="0 0 15 15" width="100%" height="30px" preserveAspectRatio="xMaxYMin meet">
         <g id="arrow_out" transform="scale(0.3 0.3)">
          <a xlink:href="classservices_1_1_terminal_a9463dc1e3af7a3a9cb467f2535a687e0_cgraph_org.svg" target="_base">
           <rect id="button" ry="5" rx="5" y="6" x="6" height="38" width="38"
                fill="#f2f5e9" fill-opacity="0.5" stroke="#606060" stroke-width="1.0"/>
           <path id="arrow"
             d="M 11.500037,31.436501 C 11.940474,20.09759 22.043105,11.32322 32.158766,21.979434 L 37.068811,17.246167 C 37.068811,17.246167 37.088388,32 37.088388,32 L 22.160133,31.978069 C 22.160133,31.978069 26.997745,27.140456 26.997745,27.140456 C 18.528582,18.264221 13.291696,25.230495 11.500037,31.436501 z"
             style="fill:#404040;"/>
          </a>
         </g>
        </svg>
</svg>
