<?xml version="1.0" encoding="UTF-8" standalone="no"?>
<!DOCTYPE svg PUBLIC "-//W3C//DTD SVG 1.1//EN"
 "http://www.w3.org/Graphics/SVG/1.1/DTD/svg11.dtd">
<!-- Generated by graphviz version 2.38.0 (20140413.2041)
 -->
<!-- Title: services::Terminal::ProcessDelete Pages: 1 -->
<!--zoomable 149 -->
<svg id="main" version="1.1" xmlns="http://www.w3.org/2000/svg" xmlns:xlink="http://www.w3.org/1999/xlink" xml:space="preserve" onload="init(evt)">
<style type="text/css"><![CDATA[
.edge:hover path { stroke: red; }
.edge:hover polygon { stroke: red; fill: red; }
]]></style>
<script type="text/javascript"><![CDATA[
var edges = document.getElementsByTagName('g');
if (edges && edges.length) {
  for (var i=0;i<edges.length;i++) {
    if (edges[i].id.substr(0,4)=='edge') {
      edges[i].setAttribute('class','edge');
    }
  }
}
]]></script>
        <defs>
                <circle id="rim" cx="0" cy="0" r="7"/>
                <circle id="rim2" cx="0" cy="0" r="3.5"/>
                <g id="zoomPlus">
                        <use xlink:href="#rim" fill="#404040">
                                <set attributeName="fill" to="#808080" begin="zoomplus.mouseover" end="zoomplus.mouseout"/>
                        </use>
                        <path d="M-4,0h8M0,-4v8" fill="none" stroke="white" stroke-width="1.5" pointer-events="none"/>
                </g>
                <g id="zoomMin">
                        <use xlink:href="#rim" fill="#404040">
                                <set attributeName="fill" to="#808080" begin="zoomminus.mouseover" end="zoomminus.mouseout"/>
                        </use>
                        <path d="M-4,0h8" fill="none" stroke="white" stroke-width="1.5" pointer-events="none"/>
                </g>
                <g id="dirArrow">
                        <path fill="none" stroke="white" stroke-width="1.5" d="M0,-3.0v7 M-2.5,-0.5L0,-3.0L2.5,-0.5"/>
                </g>
               <g id="resetDef">
                       <use xlink:href="#rim2" fill="#404040">
                               <set attributeName="fill" to="#808080" begin="reset.mouseover" end="reset.mouseout"/>
                       </use>
               </g>
        </defs>

<script type="text/javascript">
var viewWidth = 781;
var viewHeight = 149;
var sectionId = 'dynsection-29';
</script>
<script xlink:href="../../svgpan.js"/>
<svg id="graph" class="graph">
<g id="viewport">
<title>services::Terminal::ProcessDelete</title>
<polygon fill="white" stroke="none" points="-4,4 -4,-144.967 777,-144.967 777,4 -4,4"/>
<!-- Node300 -->
<g id="node1" class="node"><title>Node300</title>
<polygon fill="#bfbfbf" stroke="black" points="0,-66 0,-96 95,-96 95,-66 0,-66"/>
<text text-anchor="start" x="8" y="-84" font-family="Helvetica,sans-Serif" font-size="10.00">services::Terminal</text>
<text text-anchor="middle" x="47.5" y="-73" font-family="Helvetica,sans-Serif" font-size="10.00">::ProcessDelete</text>
</g>
<!-- Node301 -->
<g id="node2" class="node"><title>Node301</title>
<g id="a_node2"><a xlink:href="../../da/d5e/classservices_1_1_terminal.html#a9463dc1e3af7a3a9cb467f2535a687e0" target="_top" xlink:title="services::Terminal\l::EraseCharacterUnderCursor">
<polygon fill="white" stroke="black" points="131,-42 131,-72 275,-72 275,-42 131,-42"/>
<text text-anchor="start" x="139" y="-60" font-family="Helvetica,sans-Serif" font-size="10.00">services::Terminal</text>
<text text-anchor="middle" x="203" y="-49" font-family="Helvetica,sans-Serif" font-size="10.00">::EraseCharacterUnderCursor</text>
</a>
</g>
</g>
<!-- Node300&#45;&gt;Node301 -->
<g id="edge1" class="edge"><title>Node300&#45;&gt;Node301</title>
<path fill="none" stroke="midnightblue" d="M95.3891,-73.6688C103.437,-72.4105 112.004,-71.071 120.649,-69.7193"/>
<polygon fill="midnightblue" stroke="midnightblue" points="121.468,-73.1339 130.807,-68.1311 120.387,-66.218 121.468,-73.1339"/>
</g>
<!-- Node309 -->
<g id="node10" class="node"><title>Node309</title>
<g id="a_node10"><a xlink:href="../../da/d5e/classservices_1_1_terminal.html#ad15c3c1d686741ab2bb2eeb626bae605" target="_top" xlink:title="services::Terminal\l::SendBell">
<polygon fill="white" stroke="black" points="155.5,-91 155.5,-121 250.5,-121 250.5,-91 155.5,-91"/>
<text text-anchor="start" x="163.5" y="-109" font-family="Helvetica,sans-Serif" font-size="10.00">services::Terminal</text>
<text text-anchor="middle" x="203" y="-98" font-family="Helvetica,sans-Serif" font-size="10.00">::SendBell</text>
</a>
</g>
</g>
<!-- Node300&#45;&gt;Node309 -->
<g id="edge13" class="edge"><title>Node300&#45;&gt;Node309</title>
<path fill="none" stroke="midnightblue" d="M95.3891,-88.6367C111.16,-91.2052 128.924,-94.0983 145.363,-96.7757"/>
<polygon fill="midnightblue" stroke="midnightblue" points="144.965,-100.257 155.398,-98.4101 146.091,-93.348 144.965,-100.257"/>
</g>
<!-- Node302 -->
<g id="node3" class="node"><title>Node302</title>
<g id="a_node3"><a xlink:href="../../d0/de3/namespaceinfra.html#ae4478bf95f90ceb679642cb4180f205f" target="_top" xlink:title="infra::MakeByteRange">
<polygon fill="white" stroke="black" points="311,-25.5 311,-44.5 424,-44.5 424,-25.5 311,-25.5"/>
<text text-anchor="middle" x="367.5" y="-32.5" font-family="Helvetica,sans-Serif" font-size="10.00">infra::MakeByteRange</text>
</a>
</g>
</g>
<!-- Node301&#45;&gt;Node302 -->
<g id="edge2" class="edge"><title>Node301&#45;&gt;Node302</title>
<path fill="none" stroke="midnightblue" d="M275.275,-47.3505C283.763,-46.2014 292.398,-45.0323 300.802,-43.8945"/>
<polygon fill="midnightblue" stroke="midnightblue" points="301.474,-47.3355 310.914,-42.5255 300.535,-40.3988 301.474,-47.3355"/>
</g>
<!-- Node303 -->
<g id="node4" class="node"><title>Node303</title>
<g id="a_node4"><a xlink:href="../../d0/de3/namespaceinfra.html#afe38b7d4318537de2f28b244211c4275" target="_top" xlink:title="infra::MakeRange">
<polygon fill="white" stroke="black" points="478,-22.5 478,-41.5 570,-41.5 570,-22.5 478,-22.5"/>
<text text-anchor="middle" x="524" y="-29.5" font-family="Helvetica,sans-Serif" font-size="10.00">infra::MakeRange</text>
</a>
</g>
</g>
<!-- Node301&#45;&gt;Node303 -->
<g id="edge7" class="edge"><title>Node301&#45;&gt;Node303</title>
<path fill="none" stroke="midnightblue" d="M234.494,-41.8729C255.441,-32.3521 284.201,-20.9586 311,-16 364.929,-6.02159 427.675,-13.0168 470.835,-20.6435"/>
<polygon fill="midnightblue" stroke="midnightblue" points="470.355,-24.1138 480.823,-22.4815 471.622,-17.2294 470.355,-24.1138"/>
</g>
<!-- Node307 -->
<g id="node8" class="node"><title>Node307</title>
<g id="a_node8"><a xlink:href="../../da/d5e/classservices_1_1_terminal.html#a3947eb19c7a016c12ca945b842ce64be" target="_top" xlink:title="services::Terminal\l::Print">
<polygon fill="white" stroke="black" points="320,-64 320,-94 415,-94 415,-64 320,-64"/>
<text text-anchor="start" x="328" y="-82" font-family="Helvetica,sans-Serif" font-size="10.00">services::Terminal</text>
<text text-anchor="middle" x="367.5" y="-71" font-family="Helvetica,sans-Serif" font-size="10.00">::Print</text>
</a>
</g>
</g>
<!-- Node301&#45;&gt;Node307 -->
<g id="edge8" class="edge"><title>Node301&#45;&gt;Node307</title>
<path fill="none" stroke="midnightblue" d="M275.275,-66.6495C286.766,-68.2052 298.527,-69.7975 309.621,-71.2994"/>
<polygon fill="midnightblue" stroke="midnightblue" points="309.214,-74.7763 319.594,-72.6496 310.154,-67.8396 309.214,-74.7763"/>
</g>
<!-- Node308 -->
<g id="node9" class="node"><title>Node308</title>
<g id="a_node9"><a xlink:href="../../d6/dba/classhal_1_1_serial_communication.html#a9c94f3aed0ca15268f0f731ea53fcdf6" target="_top" xlink:title="hal::SerialCommunication\l::SendData">
<polygon fill="white" stroke="black" points="460,-110 460,-140 588,-140 588,-110 460,-110"/>
<text text-anchor="start" x="468" y="-128" font-family="Helvetica,sans-Serif" font-size="10.00">hal::SerialCommunication</text>
<text text-anchor="middle" x="524" y="-117" font-family="Helvetica,sans-Serif" font-size="10.00">::SendData</text>
</a>
</g>
</g>
<!-- Node301&#45;&gt;Node308 -->
<g id="edge12" class="edge"><title>Node301&#45;&gt;Node308</title>
<path fill="none" stroke="midnightblue" d="M253.449,-72.1273C260.78,-74.8247 268.163,-77.8043 275,-81 291.987,-88.9403 293.236,-96.9953 311,-103 355.529,-118.052 408.064,-123.583 449.697,-125.336"/>
<polygon fill="midnightblue" stroke="midnightblue" points="449.644,-128.836 459.762,-125.696 449.894,-121.841 449.644,-128.836"/>
</g>
<!-- Node302&#45;&gt;Node303 -->
<g id="edge3" class="edge"><title>Node302&#45;&gt;Node303</title>
<path fill="none" stroke="midnightblue" d="M424.278,-33.9169C438.467,-33.6414 453.706,-33.3455 467.862,-33.0706"/>
<polygon fill="midnightblue" stroke="midnightblue" points="468.019,-36.5684 477.949,-32.8748 467.883,-29.5697 468.019,-36.5684"/>
</g>
<!-- Node306 -->
<g id="node7" class="node"><title>Node306</title>
<g id="a_node7"><a xlink:href="../../d0/de3/namespaceinfra.html#a74203fdf2e029d2667c7e4925092cc9a" target="_top" xlink:title="infra::ReinterpretCastByte\lRange">
<polygon fill="white" stroke="black" points="460,-61 460,-91 588,-91 588,-61 460,-61"/>
<text text-anchor="start" x="468" y="-79" font-family="Helvetica,sans-Serif" font-size="10.00">infra::ReinterpretCastByte</text>
<text text-anchor="middle" x="524" y="-68" font-family="Helvetica,sans-Serif" font-size="10.00">Range</text>
</a>
</g>
</g>
<!-- Node302&#45;&gt;Node306 -->
<g id="edge6" class="edge"><title>Node302&#45;&gt;Node306</title>
<path fill="none" stroke="midnightblue" d="M404.334,-44.5093C419.828,-48.621 438.478,-53.5702 456.355,-58.3144"/>
<polygon fill="midnightblue" stroke="midnightblue" points="455.62,-61.7402 466.183,-60.9223 457.415,-54.9744 455.62,-61.7402"/>
</g>
<!-- Node304 -->
<g id="node5" class="node"><title>Node304</title>
<g id="a_node5"><a xlink:href="../../d1/d2a/classinfra_1_1_bounded_string_base.html#aef23e4250cad2fdc69ccc39f68734233" target="_top" xlink:title="infra::BoundedStringBase\l::begin">
<polygon fill="white" stroke="black" points="635,-39 635,-69 762,-69 762,-39 635,-39"/>
<text text-anchor="start" x="643" y="-57" font-family="Helvetica,sans-Serif" font-size="10.00">infra::BoundedStringBase</text>
<text text-anchor="middle" x="698.5" y="-46" font-family="Helvetica,sans-Serif" font-size="10.00">::begin</text>
</a>
</g>
</g>
<!-- Node303&#45;&gt;Node304 -->
<g id="edge4" class="edge"><title>Node303&#45;&gt;Node304</title>
<path fill="none" stroke="midnightblue" d="M570.322,-37.7802C586.999,-39.9071 606.333,-42.3729 624.814,-44.73"/>
<polygon fill="midnightblue" stroke="midnightblue" points="624.61,-48.2321 634.972,-46.0254 625.495,-41.2883 624.61,-48.2321"/>
</g>
<!-- Node305 -->
<g id="node6" class="node"><title>Node305</title>
<g id="a_node6"><a xlink:href="../../d1/d2a/classinfra_1_1_bounded_string_base.html#af5021f1ea3898146d0a55c2895f07dbf" target="_top" xlink:title="infra::BoundedStringBase::end">
<polygon fill="white" stroke="black" points="624,-0.5 624,-19.5 773,-19.5 773,-0.5 624,-0.5"/>
<text text-anchor="middle" x="698.5" y="-7.5" font-family="Helvetica,sans-Serif" font-size="10.00">infra::BoundedStringBase::end</text>
</a>
</g>
</g>
<!-- Node303&#45;&gt;Node305 -->
<g id="edge5" class="edge"><title>Node303&#45;&gt;Node305</title>
<path fill="none" stroke="midnightblue" d="M570.322,-26.2198C583.624,-24.5234 598.615,-22.6114 613.517,-20.7109"/>
<polygon fill="midnightblue" stroke="midnightblue" points="614.32,-24.1369 623.797,-19.3998 613.435,-17.1931 614.32,-24.1369"/>
</g>
<!-- Node307&#45;&gt;Node303 -->
<g id="edge9" class="edge"><title>Node307&#45;&gt;Node303</title>
<path fill="none" stroke="midnightblue" d="M415.037,-64.7192C429.446,-60.3083 445.376,-55.4426 460,-51 466.989,-48.8768 474.417,-46.629 481.628,-44.4512"/>
<polygon fill="midnightblue" stroke="midnightblue" points="482.703,-47.7827 491.266,-41.5433 480.681,-41.0811 482.703,-47.7827"/>
</g>
<!-- Node307&#45;&gt;Node306 -->
<g id="edge10" class="edge"><title>Node307&#45;&gt;Node306</title>
<path fill="none" stroke="midnightblue" d="M415.274,-78.0918C426.128,-77.881 437.937,-77.6517 449.628,-77.4247"/>
<polygon fill="midnightblue" stroke="midnightblue" points="449.914,-80.9199 459.844,-77.2263 449.778,-73.9212 449.914,-80.9199"/>
</g>
<!-- Node307&#45;&gt;Node308 -->
<g id="edge11" class="edge"><title>Node307&#45;&gt;Node308</title>
<path fill="none" stroke="midnightblue" d="M415.274,-92.9263C430.205,-97.3717 446.945,-102.356 462.695,-107.045"/>
<polygon fill="midnightblue" stroke="midnightblue" points="461.767,-110.421 472.35,-109.92 463.764,-103.712 461.767,-110.421"/>
</g>
<!-- Node309&#45;&gt;Node302 -->
<g id="edge15" class="edge"><title>Node309&#45;&gt;Node302</title>
<path fill="none" stroke="midnightblue" d="M250.707,-91.849C258.991,-88.6986 267.394,-85.067 275,-81 292.637,-71.5693 293.322,-63.3537 311,-54 314.955,-51.9072 319.188,-49.9731 323.486,-48.2049"/>
<polygon fill="midnightblue" stroke="midnightblue" points="324.825,-51.4401 332.917,-44.6017 322.326,-44.9011 324.825,-51.4401"/>
</g>
<!-- Node309&#45;&gt;Node308 -->
<g id="edge14" class="edge"><title>Node309&#45;&gt;Node308</title>
<path fill="none" stroke="midnightblue" d="M245.582,-121.009C265.151,-127.301 288.979,-133.874 311,-137 356.76,-143.495 408.547,-140.75 449.482,-136.258"/>
<polygon fill="midnightblue" stroke="midnightblue" points="450.113,-139.708 459.645,-135.083 449.309,-132.755 450.113,-139.708"/>
</g>
</g>
</svg>
        <g id="navigator" transform="translate(0 0)" fill="#404254">
                <rect fill="#f2f5e9" fill-opacity="0.5" stroke="#606060" stroke-width=".5" x="0" y="0" width="60" height="60"/>
                <use id="zoomplus" xlink:href="#zoomPlus" x="17" y="9" onmousedown="handleZoom(evt,'in')"/>
                <use id="zoomminus" xlink:href="#zoomMin" x="42" y="9" onmousedown="handleZoom(evt,'out')"/>
                <use id="reset" xlink:href="#resetDef" x="30" y="36" onmousedown="handleReset()"/>
                <g id="arrowUp" xlink:href="#dirArrow" transform="translate(30 24)" onmousedown="handlePan(0,-1)">
                  <use xlink:href="#rim" fill="#404040">
                        <set attributeName="fill" to="#808080" begin="arrowUp.mouseover" end="arrowUp.mouseout"/>
                  </use>
                  <path fill="none" stroke="white" stroke-width="1.5" d="M0,-3.0v7 M-2.5,-0.5L0,-3.0L2.5,-0.5"/>
                </g>
                <g id="arrowRight" xlink:href="#dirArrow" transform="rotate(90) translate(36 -43)" onmousedown="handlePan(1,0)">
                  <use xlink:href="#rim" fill="#404040">
                        <set attributeName="fill" to="#808080" begin="arrowRight.mouseover" end="arrowRight.mouseout"/>
                  </use>
                  <path fill="none" stroke="white" stroke-width="1.5" d="M0,-3.0v7 M-2.5,-0.5L0,-3.0L2.5,-0.5"/>
                </g>
                <g id="arrowDown" xlink:href="#dirArrow" transform="rotate(180) translate(-30 -48)" onmousedown="handlePan(0,1)">
                  <use xlink:href="#rim" fill="#404040">
                        <set attributeName="fill" to="#808080" begin="arrowDown.mouseover" end="arrowDown.mouseout"/>
                  </use>
                  <path fill="none" stroke="white" stroke-width="1.5" d="M0,-3.0v7 M-2.5,-0.5L0,-3.0L2.5,-0.5"/>
                </g>
                <g id="arrowLeft" xlink:href="#dirArrow" transform="rotate(270) translate(-36 17)" onmousedown="handlePan(-1,0)">
                  <use xlink:href="#rim" fill="#404040">
                        <set attributeName="fill" to="#808080" begin="arrowLeft.mouseover" end="arrowLeft.mouseout"/>
                  </use>
                  <path fill="none" stroke="white" stroke-width="1.5" d="M0,-3.0v7 M-2.5,-0.5L0,-3.0L2.5,-0.5"/>
                </g>
        </g>
        <svg viewBox="0 0 15 15" width="100%" height="30px" preserveAspectRatio="xMaxYMin meet">
         <g id="arrow_out" transform="scale(0.3 0.3)">
          <a xlink:href="classservices_1_1_terminal_a951f19afce6942fac4dc7c34a5960015_cgraph_org.svg" target="_base">
           <rect id="button" ry="5" rx="5" y="6" x="6" height="38" width="38"
                fill="#f2f5e9" fill-opacity="0.5" stroke="#606060" stroke-width="1.0"/>
           <path id="arrow"
             d="M 11.500037,31.436501 C 11.940474,20.09759 22.043105,11.32322 32.158766,21.979434 L 37.068811,17.246167 C 37.068811,17.246167 37.088388,32 37.088388,32 L 22.160133,31.978069 C 22.160133,31.978069 26.997745,27.140456 26.997745,27.140456 C 18.528582,18.264221 13.291696,25.230495 11.500037,31.436501 z"
             style="fill:#404040;"/>
          </a>
         </g>
        </svg>
</svg>
