<?xml version="1.0" encoding="UTF-8" standalone="no"?>
<!DOCTYPE svg PUBLIC "-//W3C//DTD SVG 1.1//EN"
 "http://www.w3.org/Graphics/SVG/1.1/DTD/svg11.dtd">
<!-- Generated by graphviz version 2.38.0 (20140413.2041)
 -->
<!-- Title: services::Terminal::MoveCursorHome Pages: 1 -->
<svg width="671pt" height="88pt"
 viewBox="0.00 0.00 671.00 88.00" xmlns="http://www.w3.org/2000/svg" xmlns:xlink="http://www.w3.org/1999/xlink">
<g id="graph0" class="graph" transform="scale(1 1) rotate(0) translate(4 84)">
<title>services::Terminal::MoveCursorHome</title>
<polygon fill="white" stroke="none" points="-4,4 -4,-84 667,-84 667,4 -4,4"/>
<!-- Node205 -->
<g id="node1" class="node"><title>Node205</title>
<polygon fill="#bfbfbf" stroke="black" points="0,-24.5 0,-54.5 99,-54.5 99,-24.5 0,-24.5"/>
<text text-anchor="start" x="8" y="-42.5" font-family="Helvetica,sans-Serif" font-size="10.00">services::Terminal</text>
<text text-anchor="middle" x="49.5" y="-31.5" font-family="Helvetica,sans-Serif" font-size="10.00">::MoveCursorHome</text>
</g>
<!-- Node206 -->
<g id="node2" class="node"><title>Node206</title>
<g id="a_node2"><a xlink:href="../../da/d5e/classservices_1_1_terminal.html#ac06706052252c209c8529d165a679d80" target="_top" xlink:title="services::Terminal\l::HandleNonEscapeChar">
<polygon fill="white" stroke="black" points="141,-49.5 141,-79.5 264,-79.5 264,-49.5 141,-49.5"/>
<text text-anchor="start" x="149" y="-67.5" font-family="Helvetica,sans-Serif" font-size="10.00">services::Terminal</text>
<text text-anchor="middle" x="202.5" y="-56.5" font-family="Helvetica,sans-Serif" font-size="10.00">::HandleNonEscapeChar</text>
</a>
</g>
</g>
<!-- Node205&#45;&gt;Node206 -->
<g id="edge1" class="edge"><title>Node205&#45;&gt;Node206</title>
<path fill="none" stroke="midnightblue" d="M109.275,-49.2309C119.619,-50.9436 130.404,-52.7292 140.8,-54.4503"/>
<polygon fill="midnightblue" stroke="midnightblue" points="109.546,-45.7282 99.1085,-47.5478 108.403,-52.6342 109.546,-45.7282"/>
</g>
<!-- Node210 -->
<g id="node6" class="node"><title>Node210</title>
<g id="a_node6"><a xlink:href="../../da/d5e/classservices_1_1_terminal.html#ad1378bce6609bbc1336b401ddfdc097c" target="_top" xlink:title="services::Terminal\l::ProcessEscapeSequence">
<polygon fill="white" stroke="black" points="135,-0.5 135,-30.5 270,-30.5 270,-0.5 135,-0.5"/>
<text text-anchor="start" x="143" y="-18.5" font-family="Helvetica,sans-Serif" font-size="10.00">services::Terminal</text>
<text text-anchor="middle" x="202.5" y="-7.5" font-family="Helvetica,sans-Serif" font-size="10.00">::ProcessEscapeSequence</text>
</a>
</g>
</g>
<!-- Node205&#45;&gt;Node210 -->
<g id="edge5" class="edge"><title>Node205&#45;&gt;Node210</title>
<path fill="none" stroke="midnightblue" d="M109.183,-30.173C117.585,-28.8375 126.28,-27.4555 134.823,-26.0977"/>
<polygon fill="midnightblue" stroke="midnightblue" points="108.435,-26.7477 99.1085,-31.7741 109.534,-33.661 108.435,-26.7477"/>
</g>
<!-- Node207 -->
<g id="node3" class="node"><title>Node207</title>
<g id="a_node3"><a xlink:href="../../da/d5e/classservices_1_1_terminal.html#ab41caf17d0377706131a5f420b9a752a" target="_top" xlink:title="services::Terminal\l::HandleChar">
<polygon fill="white" stroke="black" points="306,-24.5 306,-54.5 401,-54.5 401,-24.5 306,-24.5"/>
<text text-anchor="start" x="314" y="-42.5" font-family="Helvetica,sans-Serif" font-size="10.00">services::Terminal</text>
<text text-anchor="middle" x="353.5" y="-31.5" font-family="Helvetica,sans-Serif" font-size="10.00">::HandleChar</text>
</a>
</g>
</g>
<!-- Node206&#45;&gt;Node207 -->
<g id="edge2" class="edge"><title>Node206&#45;&gt;Node207</title>
<path fill="none" stroke="midnightblue" d="M274.261,-52.6273C284.918,-50.8393 295.676,-49.0342 305.662,-47.3587"/>
<polygon fill="midnightblue" stroke="midnightblue" points="273.387,-49.225 264.104,-54.3315 274.545,-56.1285 273.387,-49.225"/>
</g>
<!-- Node208 -->
<g id="node4" class="node"><title>Node208</title>
<g id="a_node4"><a xlink:href="../../da/d5e/classservices_1_1_terminal.html#aa70a33132a3a8d92661f9d4729c4543e" target="_top" xlink:title="services::Terminal\l::HandleInput">
<polygon fill="white" stroke="black" points="437,-24.5 437,-54.5 532,-54.5 532,-24.5 437,-24.5"/>
<text text-anchor="start" x="445" y="-42.5" font-family="Helvetica,sans-Serif" font-size="10.00">services::Terminal</text>
<text text-anchor="middle" x="484.5" y="-31.5" font-family="Helvetica,sans-Serif" font-size="10.00">::HandleInput</text>
</a>
</g>
</g>
<!-- Node207&#45;&gt;Node208 -->
<g id="edge3" class="edge"><title>Node207&#45;&gt;Node208</title>
<path fill="none" stroke="midnightblue" d="M411.101,-39.5C419.752,-39.5 428.596,-39.5 436.996,-39.5"/>
<polygon fill="midnightblue" stroke="midnightblue" points="411.072,-36.0001 401.072,-39.5 411.072,-43.0001 411.072,-36.0001"/>
</g>
<!-- Node209 -->
<g id="node5" class="node"><title>Node209</title>
<g id="a_node5"><a xlink:href="../../da/d5e/classservices_1_1_terminal.html#aad73e9f2c53f58c1c5022e76485dc477" target="_top" xlink:title="services::Terminal\l::Terminal">
<polygon fill="white" stroke="black" points="568,-24.5 568,-54.5 663,-54.5 663,-24.5 568,-24.5"/>
<text text-anchor="start" x="576" y="-42.5" font-family="Helvetica,sans-Serif" font-size="10.00">services::Terminal</text>
<text text-anchor="middle" x="615.5" y="-31.5" font-family="Helvetica,sans-Serif" font-size="10.00">::Terminal</text>
</a>
</g>
</g>
<!-- Node208&#45;&gt;Node209 -->
<g id="edge4" class="edge"><title>Node208&#45;&gt;Node209</title>
<path fill="none" stroke="midnightblue" d="M542.101,-39.5C550.752,-39.5 559.596,-39.5 567.996,-39.5"/>
<polygon fill="midnightblue" stroke="midnightblue" points="542.072,-36.0001 532.072,-39.5 542.072,-43.0001 542.072,-36.0001"/>
</g>
<!-- Node210&#45;&gt;Node207 -->
<g id="edge6" class="edge"><title>Node210&#45;&gt;Node207</title>
<path fill="none" stroke="midnightblue" d="M280.107,-27.8394C288.93,-29.2605 297.713,-30.6753 305.962,-32.0039"/>
<polygon fill="midnightblue" stroke="midnightblue" points="280.585,-24.3713 270.156,-26.2365 279.472,-31.2822 280.585,-24.3713"/>
</g>
</g>
</svg>
