<?xml version="1.0" encoding="UTF-8" standalone="no"?>
<!DOCTYPE svg PUBLIC "-//W3C//DTD SVG 1.1//EN"
 "http://www.w3.org/Graphics/SVG/1.1/DTD/svg11.dtd">
<!-- Generated by graphviz version 2.38.0 (20140413.2041)
 -->
<!-- Title: services::Terminal::SendNonEscapeChar Pages: 1 -->
<!--zoomable 138 -->
<svg id="main" version="1.1" xmlns="http://www.w3.org/2000/svg" xmlns:xlink="http://www.w3.org/1999/xlink" xml:space="preserve" onload="init(evt)">
<style type="text/css"><![CDATA[
.edge:hover path { stroke: red; }
.edge:hover polygon { stroke: red; fill: red; }
]]></style>
<script type="text/javascript"><![CDATA[
var edges = document.getElementsByTagName('g');
if (edges && edges.length) {
  for (var i=0;i<edges.length;i++) {
    if (edges[i].id.substr(0,4)=='edge') {
      edges[i].setAttribute('class','edge');
    }
  }
}
]]></script>
        <defs>
                <circle id="rim" cx="0" cy="0" r="7"/>
                <circle id="rim2" cx="0" cy="0" r="3.5"/>
                <g id="zoomPlus">
                        <use xlink:href="#rim" fill="#404040">
                                <set attributeName="fill" to="#808080" begin="zoomplus.mouseover" end="zoomplus.mouseout"/>
                        </use>
                        <path d="M-4,0h8M0,-4v8" fill="none" stroke="white" stroke-width="1.5" pointer-events="none"/>
                </g>
                <g id="zoomMin">
                        <use xlink:href="#rim" fill="#404040">
                                <set attributeName="fill" to="#808080" begin="zoomminus.mouseover" end="zoomminus.mouseout"/>
                        </use>
                        <path d="M-4,0h8" fill="none" stroke="white" stroke-width="1.5" pointer-events="none"/>
                </g>
                <g id="dirArrow">
                        <path fill="none" stroke="white" stroke-width="1.5" d="M0,-3.0v7 M-2.5,-0.5L0,-3.0L2.5,-0.5"/>
                </g>
               <g id="resetDef">
                       <use xlink:href="#rim2" fill="#404040">
                               <set attributeName="fill" to="#808080" begin="reset.mouseover" end="reset.mouseout"/>
                       </use>
               </g>
        </defs>

<script type="text/javascript">
var viewWidth = 768;
var viewHeight = 138;
var sectionId = 'dynsection-37';
</script>
<script xlink:href="../../svgpan.js"/>
<svg id="graph" class="graph">
<g id="viewport">
<title>services::Terminal::SendNonEscapeChar</title>
<polygon fill="white" stroke="none" points="-4,4 -4,-134 764,-134 764,4 -4,4"/>
<!-- Node376 -->
<g id="node1" class="node"><title>Node376</title>
<polygon fill="#bfbfbf" stroke="black" points="0,-33.5 0,-63.5 116,-63.5 116,-33.5 0,-33.5"/>
<text text-anchor="start" x="8" y="-51.5" font-family="Helvetica,sans-Serif" font-size="10.00">services::Terminal</text>
<text text-anchor="middle" x="58" y="-40.5" font-family="Helvetica,sans-Serif" font-size="10.00">::SendNonEscapeChar</text>
</g>
<!-- Node377 -->
<g id="node2" class="node"><title>Node377</title>
<g id="a_node2"><a xlink:href="../../d0/de3/namespaceinfra.html#ae4478bf95f90ceb679642cb4180f205f" target="_top" xlink:title="infra::MakeByteRange">
<polygon fill="white" stroke="black" points="290.5,-61 290.5,-80 403.5,-80 403.5,-61 290.5,-61"/>
<text text-anchor="middle" x="347" y="-68" font-family="Helvetica,sans-Serif" font-size="10.00">infra::MakeByteRange</text>
</a>
</g>
</g>
<!-- Node376&#45;&gt;Node377 -->
<g id="edge1" class="edge"><title>Node376&#45;&gt;Node377</title>
<path fill="none" stroke="midnightblue" d="M107.78,-63.5542C121.905,-67.2385 137.443,-70.652 152,-72.5 194.302,-77.8703 242.208,-77.44 279.831,-75.6329"/>
<polygon fill="midnightblue" stroke="midnightblue" points="280.354,-79.1103 290.157,-75.0903 279.987,-72.12 280.354,-79.1103"/>
</g>
<!-- Node382 -->
<g id="node7" class="node"><title>Node382</title>
<g id="a_node7"><a xlink:href="../../da/d5e/classservices_1_1_terminal.html#ad15c3c1d686741ab2bb2eeb626bae605" target="_top" xlink:title="services::Terminal\l::SendBell">
<polygon fill="white" stroke="black" points="152,-33.5 152,-63.5 247,-63.5 247,-33.5 152,-33.5"/>
<text text-anchor="start" x="160" y="-51.5" font-family="Helvetica,sans-Serif" font-size="10.00">services::Terminal</text>
<text text-anchor="middle" x="199.5" y="-40.5" font-family="Helvetica,sans-Serif" font-size="10.00">::SendBell</text>
</a>
</g>
</g>
<!-- Node376&#45;&gt;Node382 -->
<g id="edge6" class="edge"><title>Node376&#45;&gt;Node382</title>
<path fill="none" stroke="midnightblue" d="M116.142,-48.5C124.594,-48.5 133.302,-48.5 141.746,-48.5"/>
<polygon fill="midnightblue" stroke="midnightblue" points="141.88,-52.0001 151.88,-48.5 141.88,-45.0001 141.88,-52.0001"/>
</g>
<!-- Node383 -->
<g id="node8" class="node"><title>Node383</title>
<g id="a_node8"><a xlink:href="../../d6/dba/classhal_1_1_serial_communication.html#a9c94f3aed0ca15268f0f731ea53fcdf6" target="_top" xlink:title="hal::SerialCommunication\l::SendData">
<polygon fill="white" stroke="black" points="283,-0.5 283,-30.5 411,-30.5 411,-0.5 283,-0.5"/>
<text text-anchor="start" x="291" y="-18.5" font-family="Helvetica,sans-Serif" font-size="10.00">hal::SerialCommunication</text>
<text text-anchor="middle" x="347" y="-7.5" font-family="Helvetica,sans-Serif" font-size="10.00">::SendData</text>
</a>
</g>
</g>
<!-- Node376&#45;&gt;Node383 -->
<g id="edge9" class="edge"><title>Node376&#45;&gt;Node383</title>
<path fill="none" stroke="midnightblue" d="M106.837,-33.4694C121.216,-29.543 137.126,-25.777 152,-23.5 191.595,-17.4384 236.23,-15.2804 272.696,-14.7081"/>
<polygon fill="midnightblue" stroke="midnightblue" points="272.797,-18.2073 282.754,-14.5869 272.712,-11.2078 272.797,-18.2073"/>
</g>
<!-- Node378 -->
<g id="node3" class="node"><title>Node378</title>
<g id="a_node3"><a xlink:href="../../d0/de3/namespaceinfra.html#afe38b7d4318537de2f28b244211c4275" target="_top" xlink:title="infra::MakeRange">
<polygon fill="white" stroke="black" points="465,-83 465,-102 557,-102 557,-83 465,-83"/>
<text text-anchor="middle" x="511" y="-90" font-family="Helvetica,sans-Serif" font-size="10.00">infra::MakeRange</text>
</a>
</g>
</g>
<!-- Node377&#45;&gt;Node378 -->
<g id="edge2" class="edge"><title>Node377&#45;&gt;Node378</title>
<path fill="none" stroke="midnightblue" d="M403.751,-78.0712C420.274,-80.315 438.355,-82.7704 454.84,-85.0092"/>
<polygon fill="midnightblue" stroke="midnightblue" points="454.491,-88.4937 464.871,-86.3713 455.433,-81.5574 454.491,-88.4937"/>
</g>
<!-- Node381 -->
<g id="node6" class="node"><title>Node381</title>
<g id="a_node6"><a xlink:href="../../d0/de3/namespaceinfra.html#a74203fdf2e029d2667c7e4925092cc9a" target="_top" xlink:title="infra::ReinterpretCastByte\lRange">
<polygon fill="white" stroke="black" points="447,-33.5 447,-63.5 575,-63.5 575,-33.5 447,-33.5"/>
<text text-anchor="start" x="455" y="-51.5" font-family="Helvetica,sans-Serif" font-size="10.00">infra::ReinterpretCastByte</text>
<text text-anchor="middle" x="511" y="-40.5" font-family="Helvetica,sans-Serif" font-size="10.00">Range</text>
</a>
</g>
</g>
<!-- Node377&#45;&gt;Node381 -->
<g id="edge5" class="edge"><title>Node377&#45;&gt;Node381</title>
<path fill="none" stroke="midnightblue" d="M403.751,-62.9288C414.402,-61.4824 425.701,-59.948 436.802,-58.4405"/>
<polygon fill="midnightblue" stroke="midnightblue" points="437.479,-61.8807 446.917,-57.0668 436.537,-54.9444 437.479,-61.8807"/>
</g>
<!-- Node379 -->
<g id="node4" class="node"><title>Node379</title>
<g id="a_node4"><a xlink:href="../../d1/d2a/classinfra_1_1_bounded_string_base.html#aef23e4250cad2fdc69ccc39f68734233" target="_top" xlink:title="infra::BoundedStringBase\l::begin">
<polygon fill="white" stroke="black" points="622,-99.5 622,-129.5 749,-129.5 749,-99.5 622,-99.5"/>
<text text-anchor="start" x="630" y="-117.5" font-family="Helvetica,sans-Serif" font-size="10.00">infra::BoundedStringBase</text>
<text text-anchor="middle" x="685.5" y="-106.5" font-family="Helvetica,sans-Serif" font-size="10.00">::begin</text>
</a>
</g>
</g>
<!-- Node378&#45;&gt;Node379 -->
<g id="edge3" class="edge"><title>Node378&#45;&gt;Node379</title>
<path fill="none" stroke="midnightblue" d="M557.322,-98.2802C573.999,-100.407 593.333,-102.873 611.814,-105.23"/>
<polygon fill="midnightblue" stroke="midnightblue" points="611.61,-108.732 621.972,-106.525 612.495,-101.788 611.61,-108.732"/>
</g>
<!-- Node380 -->
<g id="node5" class="node"><title>Node380</title>
<g id="a_node5"><a xlink:href="../../d1/d2a/classinfra_1_1_bounded_string_base.html#af5021f1ea3898146d0a55c2895f07dbf" target="_top" xlink:title="infra::BoundedStringBase::end">
<polygon fill="white" stroke="black" points="611,-61 611,-80 760,-80 760,-61 611,-61"/>
<text text-anchor="middle" x="685.5" y="-68" font-family="Helvetica,sans-Serif" font-size="10.00">infra::BoundedStringBase::end</text>
</a>
</g>
</g>
<!-- Node378&#45;&gt;Node380 -->
<g id="edge4" class="edge"><title>Node378&#45;&gt;Node380</title>
<path fill="none" stroke="midnightblue" d="M557.322,-86.7198C570.624,-85.0234 585.615,-83.1114 600.517,-81.2109"/>
<polygon fill="midnightblue" stroke="midnightblue" points="601.32,-84.6369 610.797,-79.8998 600.435,-77.6931 601.32,-84.6369"/>
</g>
<!-- Node382&#45;&gt;Node377 -->
<g id="edge7" class="edge"><title>Node382&#45;&gt;Node377</title>
<path fill="none" stroke="midnightblue" d="M247.338,-55.582C257.833,-57.1689 269.155,-58.8808 280.257,-60.5595"/>
<polygon fill="midnightblue" stroke="midnightblue" points="279.951,-64.0529 290.362,-62.0873 280.997,-57.1316 279.951,-64.0529"/>
</g>
<!-- Node382&#45;&gt;Node383 -->
<g id="edge8" class="edge"><title>Node382&#45;&gt;Node383</title>
<path fill="none" stroke="midnightblue" d="M247.338,-37.8769C255.547,-36.0152 264.262,-34.0385 272.982,-32.0607"/>
<polygon fill="midnightblue" stroke="midnightblue" points="273.825,-35.4586 282.803,-29.8333 272.277,-28.6319 273.825,-35.4586"/>
</g>
</g>
</svg>
        <g id="navigator" transform="translate(0 0)" fill="#404254">
                <rect fill="#f2f5e9" fill-opacity="0.5" stroke="#606060" stroke-width=".5" x="0" y="0" width="60" height="60"/>
                <use id="zoomplus" xlink:href="#zoomPlus" x="17" y="9" onmousedown="handleZoom(evt,'in')"/>
                <use id="zoomminus" xlink:href="#zoomMin" x="42" y="9" onmousedown="handleZoom(evt,'out')"/>
                <use id="reset" xlink:href="#resetDef" x="30" y="36" onmousedown="handleReset()"/>
                <g id="arrowUp" xlink:href="#dirArrow" transform="translate(30 24)" onmousedown="handlePan(0,-1)">
                  <use xlink:href="#rim" fill="#404040">
                        <set attributeName="fill" to="#808080" begin="arrowUp.mouseover" end="arrowUp.mouseout"/>
                  </use>
                  <path fill="none" stroke="white" stroke-width="1.5" d="M0,-3.0v7 M-2.5,-0.5L0,-3.0L2.5,-0.5"/>
                </g>
                <g id="arrowRight" xlink:href="#dirArrow" transform="rotate(90) translate(36 -43)" onmousedown="handlePan(1,0)">
                  <use xlink:href="#rim" fill="#404040">
                        <set attributeName="fill" to="#808080" begin="arrowRight.mouseover" end="arrowRight.mouseout"/>
                  </use>
                  <path fill="none" stroke="white" stroke-width="1.5" d="M0,-3.0v7 M-2.5,-0.5L0,-3.0L2.5,-0.5"/>
                </g>
                <g id="arrowDown" xlink:href="#dirArrow" transform="rotate(180) translate(-30 -48)" onmousedown="handlePan(0,1)">
                  <use xlink:href="#rim" fill="#404040">
                        <set attributeName="fill" to="#808080" begin="arrowDown.mouseover" end="arrowDown.mouseout"/>
                  </use>
                  <path fill="none" stroke="white" stroke-width="1.5" d="M0,-3.0v7 M-2.5,-0.5L0,-3.0L2.5,-0.5"/>
                </g>
                <g id="arrowLeft" xlink:href="#dirArrow" transform="rotate(270) translate(-36 17)" onmousedown="handlePan(-1,0)">
                  <use xlink:href="#rim" fill="#404040">
                        <set attributeName="fill" to="#808080" begin="arrowLeft.mouseover" end="arrowLeft.mouseout"/>
                  </use>
                  <path fill="none" stroke="white" stroke-width="1.5" d="M0,-3.0v7 M-2.5,-0.5L0,-3.0L2.5,-0.5"/>
                </g>
        </g>
        <svg viewBox="0 0 15 15" width="100%" height="30px" preserveAspectRatio="xMaxYMin meet">
         <g id="arrow_out" transform="scale(0.3 0.3)">
          <a xlink:href="classservices_1_1_terminal_a98bb6710488b08203836846d2bec4903_cgraph_org.svg" target="_base">
           <rect id="button" ry="5" rx="5" y="6" x="6" height="38" width="38"
                fill="#f2f5e9" fill-opacity="0.5" stroke="#606060" stroke-width="1.0"/>
           <path id="arrow"
             d="M 11.500037,31.436501 C 11.940474,20.09759 22.043105,11.32322 32.158766,21.979434 L 37.068811,17.246167 C 37.068811,17.246167 37.088388,32 37.088388,32 L 22.160133,31.978069 C 22.160133,31.978069 26.997745,27.140456 26.997745,27.140456 C 18.528582,18.264221 13.291696,25.230495 11.500037,31.436501 z"
             style="fill:#404040;"/>
          </a>
         </g>
        </svg>
</svg>
