<?xml version="1.0" encoding="UTF-8" standalone="no"?>
<!DOCTYPE svg PUBLIC "-//W3C//DTD SVG 1.1//EN"
 "http://www.w3.org/Graphics/SVG/1.1/DTD/svg11.dtd">
<!-- Generated by graphviz version 2.38.0 (20140413.2041)
 -->
<!-- Title: hal::GpioPin::Set Pages: 1 -->
<!--zoomable 410 -->
<svg id="main" version="1.1" xmlns="http://www.w3.org/2000/svg" xmlns:xlink="http://www.w3.org/1999/xlink" xml:space="preserve" onload="init(evt)">
<style type="text/css"><![CDATA[
.edge:hover path { stroke: red; }
.edge:hover polygon { stroke: red; fill: red; }
]]></style>
<script type="text/javascript"><![CDATA[
var edges = document.getElementsByTagName('g');
if (edges && edges.length) {
  for (var i=0;i<edges.length;i++) {
    if (edges[i].id.substr(0,4)=='edge') {
      edges[i].setAttribute('class','edge');
    }
  }
}
]]></script>
        <defs>
                <circle id="rim" cx="0" cy="0" r="7"/>
                <circle id="rim2" cx="0" cy="0" r="3.5"/>
                <g id="zoomPlus">
                        <use xlink:href="#rim" fill="#404040">
                                <set attributeName="fill" to="#808080" begin="zoomplus.mouseover" end="zoomplus.mouseout"/>
                        </use>
                        <path d="M-4,0h8M0,-4v8" fill="none" stroke="white" stroke-width="1.5" pointer-events="none"/>
                </g>
                <g id="zoomMin">
                        <use xlink:href="#rim" fill="#404040">
                                <set attributeName="fill" to="#808080" begin="zoomminus.mouseover" end="zoomminus.mouseout"/>
                        </use>
                        <path d="M-4,0h8" fill="none" stroke="white" stroke-width="1.5" pointer-events="none"/>
                </g>
                <g id="dirArrow">
                        <path fill="none" stroke="white" stroke-width="1.5" d="M0,-3.0v7 M-2.5,-0.5L0,-3.0L2.5,-0.5"/>
                </g>
               <g id="resetDef">
                       <use xlink:href="#rim2" fill="#404040">
                               <set attributeName="fill" to="#808080" begin="reset.mouseover" end="reset.mouseout"/>
                       </use>
               </g>
        </defs>

<script type="text/javascript">
var viewWidth = 660;
var viewHeight = 410;
var sectionId = 'dynsection-8';
</script>
<script xlink:href="../../svgpan.js"/>
<svg id="graph" class="graph">
<g id="viewport">
<title>hal::GpioPin::Set</title>
<polygon fill="white" stroke="none" points="-4,4 -4,-406 656,-406 656,4 -4,4"/>
<!-- Node55 -->
<g id="node1" class="node"><title>Node55</title>
<polygon fill="#bfbfbf" stroke="black" points="0,-243.5 0,-262.5 91,-262.5 91,-243.5 0,-243.5"/>
<text text-anchor="middle" x="45.5" y="-250.5" font-family="Helvetica,sans-Serif" font-size="10.00">hal::GpioPin::Set</text>
</g>
<!-- Node56 -->
<g id="node2" class="node"><title>Node56</title>
<g id="a_node2"><a xlink:href="../../d1/d5f/classservices_1_1_debug_led.html#a4d59268fef7b455db134bcecddf47c82" target="_top" xlink:title="services::DebugLed\l::DebugLed">
<polygon fill="white" stroke="black" points="149.5,-301 149.5,-331 250.5,-331 250.5,-301 149.5,-301"/>
<text text-anchor="start" x="157.5" y="-319" font-family="Helvetica,sans-Serif" font-size="10.00">services::DebugLed</text>
<text text-anchor="middle" x="200" y="-308" font-family="Helvetica,sans-Serif" font-size="10.00">::DebugLed</text>
</a>
</g>
</g>
<!-- Node55&#45;&gt;Node56 -->
<g id="edge1" class="edge"><title>Node55&#45;&gt;Node56</title>
<path fill="none" stroke="midnightblue" d="M74.4039,-267.073C89.7482,-274.582 109.227,-283.744 127,-291 135.453,-294.451 144.58,-297.858 153.403,-300.994"/>
<polygon fill="midnightblue" stroke="midnightblue" points="75.9522,-263.934 65.4364,-262.643 72.8517,-270.21 75.9522,-263.934"/>
</g>
<!-- Node57 -->
<g id="node3" class="node"><title>Node57</title>
<g id="a_node3"><a xlink:href="../../d5/d1f/classservices_1_1_gpio_pin_inverted.html#aa9ef0163930b89e4f1e73a020f4f2a89" target="_top" xlink:title="services::GpioPinInverted::Set">
<polygon fill="white" stroke="black" points="127,-262.5 127,-281.5 273,-281.5 273,-262.5 127,-262.5"/>
<text text-anchor="middle" x="200" y="-269.5" font-family="Helvetica,sans-Serif" font-size="10.00">services::GpioPinInverted::Set</text>
</a>
</g>
</g>
<!-- Node55&#45;&gt;Node57 -->
<g id="edge2" class="edge"><title>Node55&#45;&gt;Node57</title>
<path fill="none" stroke="midnightblue" d="M101.029,-259.794C109.415,-260.839 118.184,-261.931 126.881,-263.015"/>
<polygon fill="midnightblue" stroke="midnightblue" points="101.375,-256.31 91.0193,-258.547 100.51,-263.256 101.375,-256.31"/>
</g>
<!-- Node58 -->
<g id="node4" class="node"><title>Node58</title>
<g id="a_node4"><a xlink:href="../../df/d03/classhal_1_1_output_pin.html#a4e5ec1724078b9b022cbfca7bd88476a" target="_top" xlink:title="hal::OutputPin::Set">
<polygon fill="white" stroke="black" points="150,-224.5 150,-243.5 250,-243.5 250,-224.5 150,-224.5"/>
<text text-anchor="middle" x="200" y="-231.5" font-family="Helvetica,sans-Serif" font-size="10.00">hal::OutputPin::Set</text>
</a>
</g>
</g>
<!-- Node55&#45;&gt;Node58 -->
<g id="edge3" class="edge"><title>Node55&#45;&gt;Node58</title>
<path fill="none" stroke="midnightblue" d="M101.232,-246.181C117.119,-244.202 134.364,-242.053 149.884,-240.119"/>
<polygon fill="midnightblue" stroke="midnightblue" points="100.51,-242.744 91.0193,-247.453 101.375,-249.69 100.51,-242.744"/>
</g>
<!-- Node70 -->
<g id="node16" class="node"><title>Node70</title>
<g id="a_node16"><a xlink:href="../../da/df4/classhal_1_1_tri_state_pin.html#a5e7c95fcfd01ac3948aa45dcb2bb4690" target="_top" xlink:title="hal::TriStatePin::Set">
<polygon fill="white" stroke="black" points="148,-186.5 148,-205.5 252,-205.5 252,-186.5 148,-186.5"/>
<text text-anchor="middle" x="200" y="-193.5" font-family="Helvetica,sans-Serif" font-size="10.00">hal::TriStatePin::Set</text>
</a>
</g>
</g>
<!-- Node55&#45;&gt;Node70 -->
<g id="edge15" class="edge"><title>Node55&#45;&gt;Node70</title>
<path fill="none" stroke="midnightblue" d="M73.2826,-238.843C88.6969,-231.082 108.603,-221.706 127,-215 136.717,-211.458 147.392,-208.275 157.478,-205.571"/>
<polygon fill="midnightblue" stroke="midnightblue" points="71.6279,-235.758 64.319,-243.428 74.8158,-241.99 71.6279,-235.758"/>
</g>
<!-- Node59 -->
<g id="node5" class="node"><title>Node59</title>
<g id="a_node5"><a xlink:href="../../de/d61/classhal_1_1_scoped_high.html#a08013d9f1b0c6dad26014ab6eeb20c7a" target="_top" xlink:title="hal::ScopedHigh::ScopedHigh">
<polygon fill="white" stroke="black" points="328.5,-382.5 328.5,-401.5 474.5,-401.5 474.5,-382.5 328.5,-382.5"/>
<text text-anchor="middle" x="401.5" y="-389.5" font-family="Helvetica,sans-Serif" font-size="10.00">hal::ScopedHigh::ScopedHigh</text>
</a>
</g>
</g>
<!-- Node58&#45;&gt;Node59 -->
<g id="edge4" class="edge"><title>Node58&#45;&gt;Node59</title>
<path fill="none" stroke="midnightblue" d="M259.836,-243.82C264.659,-246.26 269.149,-249.276 273,-253 313.026,-291.709 267.958,-335.371 309,-373 314.621,-378.153 321.262,-382.055 328.359,-384.99"/>
<polygon fill="midnightblue" stroke="midnightblue" points="260.811,-240.433 250.235,-239.803 258.109,-246.891 260.811,-240.433"/>
</g>
<!-- Node60 -->
<g id="node6" class="node"><title>Node60</title>
<g id="a_node6"><a xlink:href="../../de/d61/classhal_1_1_scoped_high.html#a41cfceaeead110081391a39c7fe6f71d" target="_top" xlink:title="hal::ScopedHigh::~ScopedHigh">
<polygon fill="white" stroke="black" points="325.5,-344.5 325.5,-363.5 477.5,-363.5 477.5,-344.5 325.5,-344.5"/>
<text text-anchor="middle" x="401.5" y="-351.5" font-family="Helvetica,sans-Serif" font-size="10.00">hal::ScopedHigh::~ScopedHigh</text>
</a>
</g>
</g>
<!-- Node58&#45;&gt;Node60 -->
<g id="edge5" class="edge"><title>Node58&#45;&gt;Node60</title>
<path fill="none" stroke="midnightblue" d="M259.589,-244.433C264.426,-246.75 268.989,-249.569 273,-253 303.248,-278.87 278.074,-309.944 309,-335 313.916,-338.983 319.458,-342.194 325.321,-344.775"/>
<polygon fill="midnightblue" stroke="midnightblue" points="260.606,-241.069 250.023,-240.571 257.985,-247.56 260.606,-241.069"/>
</g>
<!-- Node61 -->
<g id="node7" class="node"><title>Node61</title>
<g id="a_node7"><a xlink:href="../../d2/df0/classhal_1_1_scoped_low.html#ac5fb79a226439bb655abb20502d368b4" target="_top" xlink:title="hal::ScopedLow::ScopedLow">
<polygon fill="white" stroke="black" points="330.5,-306.5 330.5,-325.5 472.5,-325.5 472.5,-306.5 330.5,-306.5"/>
<text text-anchor="middle" x="401.5" y="-313.5" font-family="Helvetica,sans-Serif" font-size="10.00">hal::ScopedLow::ScopedLow</text>
</a>
</g>
</g>
<!-- Node58&#45;&gt;Node61 -->
<g id="edge6" class="edge"><title>Node58&#45;&gt;Node61</title>
<path fill="none" stroke="midnightblue" d="M259.723,-246.087C264.377,-248.056 268.868,-250.343 273,-253 294.251,-266.668 287.392,-283.903 309,-297 315.521,-300.953 322.732,-304.094 330.159,-306.589"/>
<polygon fill="midnightblue" stroke="midnightblue" points="260.6,-242.679 250.007,-242.479 258.163,-249.242 260.6,-242.679"/>
</g>
<!-- Node62 -->
<g id="node8" class="node"><title>Node62</title>
<g id="a_node8"><a xlink:href="../../d2/df0/classhal_1_1_scoped_low.html#afd8d627b5585357116a6fbdef93096fd" target="_top" xlink:title="hal::ScopedLow::~ScopedLow">
<polygon fill="white" stroke="black" points="327.5,-268.5 327.5,-287.5 475.5,-287.5 475.5,-268.5 327.5,-268.5"/>
<text text-anchor="middle" x="401.5" y="-275.5" font-family="Helvetica,sans-Serif" font-size="10.00">hal::ScopedLow::~ScopedLow</text>
</a>
</g>
</g>
<!-- Node58&#45;&gt;Node62 -->
<g id="edge7" class="edge"><title>Node58&#45;&gt;Node62</title>
<path fill="none" stroke="midnightblue" d="M251.045,-245.834C269.269,-250.078 290.046,-254.839 309,-259 323.421,-262.166 339.151,-265.482 353.438,-268.441"/>
<polygon fill="midnightblue" stroke="midnightblue" points="251.745,-242.403 241.211,-243.537 250.153,-249.22 251.745,-242.403"/>
</g>
<!-- Node63 -->
<g id="node9" class="node"><title>Node63</title>
<g id="a_node9"><a xlink:href="../../d0/d3c/classservices_1_1_signal_led.html#a5bd565938f7ff6e74beb4a705008da7f" target="_top" xlink:title="services::SignalLed\l::OnTimer">
<polygon fill="white" stroke="black" points="351,-219 351,-249 452,-249 452,-219 351,-219"/>
<text text-anchor="start" x="359" y="-237" font-family="Helvetica,sans-Serif" font-size="10.00">services::SignalLed</text>
<text text-anchor="middle" x="401.5" y="-226" font-family="Helvetica,sans-Serif" font-size="10.00">::OnTimer</text>
</a>
</g>
</g>
<!-- Node58&#45;&gt;Node63 -->
<g id="edge8" class="edge"><title>Node58&#45;&gt;Node63</title>
<path fill="none" stroke="midnightblue" d="M260.419,-234C289.265,-234 323.522,-234 350.938,-234"/>
<polygon fill="midnightblue" stroke="midnightblue" points="260.059,-230.5 250.059,-234 260.059,-237.5 260.059,-230.5"/>
</g>
<!-- Node66 -->
<g id="node12" class="node"><title>Node66</title>
<g id="a_node12"><a xlink:href="../../d4/d41/classservices_1_1_spi_master_with_chip_select.html#afdf0fc3b993ac6e6887c66235be46da6" target="_top" xlink:title="services::SpiMasterWithChip\lSelect::StartSession">
<polygon fill="white" stroke="black" points="330.5,-170 330.5,-200 472.5,-200 472.5,-170 330.5,-170"/>
<text text-anchor="start" x="338.5" y="-188" font-family="Helvetica,sans-Serif" font-size="10.00">services::SpiMasterWithChip</text>
<text text-anchor="middle" x="401.5" y="-177" font-family="Helvetica,sans-Serif" font-size="10.00">Select::StartSession</text>
</a>
</g>
</g>
<!-- Node58&#45;&gt;Node66 -->
<g id="edge11" class="edge"><title>Node58&#45;&gt;Node66</title>
<path fill="none" stroke="midnightblue" d="M249.915,-221.986C276.871,-215.365 310.587,-207.084 339.278,-200.037"/>
<polygon fill="midnightblue" stroke="midnightblue" points="248.816,-218.652 239.939,-224.436 250.485,-225.45 248.816,-218.652"/>
</g>
<!-- Node67 -->
<g id="node13" class="node"><title>Node67</title>
<g id="a_node13"><a xlink:href="../../d4/d41/classservices_1_1_spi_master_with_chip_select.html#a1a7e4b73aede72438bd63e0e8348f6b6" target="_top" xlink:title="services::SpiMasterWithChip\lSelect::EndSession">
<polygon fill="white" stroke="black" points="330.5,-121 330.5,-151 472.5,-151 472.5,-121 330.5,-121"/>
<text text-anchor="start" x="338.5" y="-139" font-family="Helvetica,sans-Serif" font-size="10.00">services::SpiMasterWithChip</text>
<text text-anchor="middle" x="401.5" y="-128" font-family="Helvetica,sans-Serif" font-size="10.00">Select::EndSession</text>
</a>
</g>
</g>
<!-- Node58&#45;&gt;Node67 -->
<g id="edge12" class="edge"><title>Node58&#45;&gt;Node67</title>
<path fill="none" stroke="midnightblue" d="M259.432,-222.605C264.233,-220.488 268.834,-217.977 273,-215 296.469,-198.231 285.604,-177.871 309,-161 315.411,-156.377 322.635,-152.608 330.142,-149.537"/>
<polygon fill="midnightblue" stroke="midnightblue" points="258.101,-219.366 250.014,-226.211 260.604,-225.904 258.101,-219.366"/>
</g>
<!-- Node68 -->
<g id="node14" class="node"><title>Node68</title>
<g id="a_node14"><a xlink:href="../../dc/d97/classservices_1_1_synchronous_spi_master_with_chip_select.html#a464eaa97a092942e4627cc0d7df6e5d2" target="_top" xlink:title="services::SynchronousSpi\lMasterWithChipSelect::\lSynchronousSpiMasterWithChipSelect">
<polygon fill="white" stroke="black" points="309,-60.5 309,-101.5 494,-101.5 494,-60.5 309,-60.5"/>
<text text-anchor="start" x="317" y="-89.5" font-family="Helvetica,sans-Serif" font-size="10.00">services::SynchronousSpi</text>
<text text-anchor="start" x="317" y="-78.5" font-family="Helvetica,sans-Serif" font-size="10.00">MasterWithChipSelect::</text>
<text text-anchor="middle" x="401.5" y="-67.5" font-family="Helvetica,sans-Serif" font-size="10.00">SynchronousSpiMasterWithChipSelect</text>
</a>
</g>
</g>
<!-- Node58&#45;&gt;Node68 -->
<g id="edge13" class="edge"><title>Node58&#45;&gt;Node68</title>
<path fill="none" stroke="midnightblue" d="M259.288,-224.18C264.287,-221.746 268.966,-218.73 273,-215 308.605,-182.077 274.546,-146.125 309,-112 312.932,-108.105 317.372,-104.699 322.121,-101.721"/>
<polygon fill="midnightblue" stroke="midnightblue" points="257.951,-220.946 250.016,-227.966 260.597,-227.427 257.951,-220.946"/>
</g>
<!-- Node69 -->
<g id="node15" class="node"><title>Node69</title>
<g id="a_node15"><a xlink:href="../../dc/d97/classservices_1_1_synchronous_spi_master_with_chip_select.html#a59ae2b0da6a8c74ca0d2db78c20e4a8b" target="_top" xlink:title="services::SynchronousSpi\lMasterWithChipSelect::\lSendAndReceive">
<polygon fill="white" stroke="black" points="337,-0.5 337,-41.5 466,-41.5 466,-0.5 337,-0.5"/>
<text text-anchor="start" x="345" y="-29.5" font-family="Helvetica,sans-Serif" font-size="10.00">services::SynchronousSpi</text>
<text text-anchor="start" x="345" y="-18.5" font-family="Helvetica,sans-Serif" font-size="10.00">MasterWithChipSelect::</text>
<text text-anchor="middle" x="401.5" y="-7.5" font-family="Helvetica,sans-Serif" font-size="10.00">SendAndReceive</text>
</a>
</g>
</g>
<!-- Node58&#45;&gt;Node69 -->
<g id="edge14" class="edge"><title>Node58&#45;&gt;Node69</title>
<path fill="none" stroke="midnightblue" d="M259.554,-224.783C264.539,-222.231 269.141,-219.024 273,-215 324.65,-161.138 258.956,-106.357 309,-51 316.511,-42.6912 326.358,-36.6766 336.804,-32.3245"/>
<polygon fill="midnightblue" stroke="midnightblue" points="258.103,-221.597 250.245,-228.703 260.819,-228.048 258.103,-221.597"/>
</g>
<!-- Node64 -->
<g id="node10" class="node"><title>Node64</title>
<g id="a_node10"><a xlink:href="../../d0/d3c/classservices_1_1_signal_led.html#a9927346a2c0ac3da19571bcbbbe32cc9" target="_top" xlink:title="services::SignalLed\l::SignalLed">
<polygon fill="white" stroke="black" points="540.5,-241 540.5,-271 641.5,-271 641.5,-241 540.5,-241"/>
<text text-anchor="start" x="548.5" y="-259" font-family="Helvetica,sans-Serif" font-size="10.00">services::SignalLed</text>
<text text-anchor="middle" x="591" y="-248" font-family="Helvetica,sans-Serif" font-size="10.00">::SignalLed</text>
</a>
</g>
</g>
<!-- Node63&#45;&gt;Node64 -->
<g id="edge9" class="edge"><title>Node63&#45;&gt;Node64</title>
<path fill="none" stroke="midnightblue" d="M462.406,-241.029C487.538,-243.978 516.418,-247.366 540.339,-250.173"/>
<polygon fill="midnightblue" stroke="midnightblue" points="462.594,-237.527 452.254,-239.838 461.778,-244.479 462.594,-237.527"/>
</g>
<!-- Node65 -->
<g id="node11" class="node"><title>Node65</title>
<g id="a_node11"><a xlink:href="../../d0/d3c/classservices_1_1_signal_led.html#aaae3994ea1f033e9002381e58b1c0851" target="_top" xlink:title="services::SignalLed::Set">
<polygon fill="white" stroke="black" points="530,-202.5 530,-221.5 652,-221.5 652,-202.5 530,-202.5"/>
<text text-anchor="middle" x="591" y="-209.5" font-family="Helvetica,sans-Serif" font-size="10.00">services::SignalLed::Set</text>
</a>
</g>
</g>
<!-- Node63&#45;&gt;Node65 -->
<g id="edge10" class="edge"><title>Node63&#45;&gt;Node65</title>
<path fill="none" stroke="midnightblue" d="M462.298,-226.984C483.925,-224.446 508.339,-221.582 529.985,-219.042"/>
<polygon fill="midnightblue" stroke="midnightblue" points="461.778,-223.521 452.254,-228.162 462.594,-230.473 461.778,-223.521"/>
</g>
</g>
</svg>
        <g id="navigator" transform="translate(0 0)" fill="#404254">
                <rect fill="#f2f5e9" fill-opacity="0.5" stroke="#606060" stroke-width=".5" x="0" y="0" width="60" height="60"/>
                <use id="zoomplus" xlink:href="#zoomPlus" x="17" y="9" onmousedown="handleZoom(evt,'in')"/>
                <use id="zoomminus" xlink:href="#zoomMin" x="42" y="9" onmousedown="handleZoom(evt,'out')"/>
                <use id="reset" xlink:href="#resetDef" x="30" y="36" onmousedown="handleReset()"/>
                <g id="arrowUp" xlink:href="#dirArrow" transform="translate(30 24)" onmousedown="handlePan(0,-1)">
                  <use xlink:href="#rim" fill="#404040">
                        <set attributeName="fill" to="#808080" begin="arrowUp.mouseover" end="arrowUp.mouseout"/>
                  </use>
                  <path fill="none" stroke="white" stroke-width="1.5" d="M0,-3.0v7 M-2.5,-0.5L0,-3.0L2.5,-0.5"/>
                </g>
                <g id="arrowRight" xlink:href="#dirArrow" transform="rotate(90) translate(36 -43)" onmousedown="handlePan(1,0)">
                  <use xlink:href="#rim" fill="#404040">
                        <set attributeName="fill" to="#808080" begin="arrowRight.mouseover" end="arrowRight.mouseout"/>
                  </use>
                  <path fill="none" stroke="white" stroke-width="1.5" d="M0,-3.0v7 M-2.5,-0.5L0,-3.0L2.5,-0.5"/>
                </g>
                <g id="arrowDown" xlink:href="#dirArrow" transform="rotate(180) translate(-30 -48)" onmousedown="handlePan(0,1)">
                  <use xlink:href="#rim" fill="#404040">
                        <set attributeName="fill" to="#808080" begin="arrowDown.mouseover" end="arrowDown.mouseout"/>
                  </use>
                  <path fill="none" stroke="white" stroke-width="1.5" d="M0,-3.0v7 M-2.5,-0.5L0,-3.0L2.5,-0.5"/>
                </g>
                <g id="arrowLeft" xlink:href="#dirArrow" transform="rotate(270) translate(-36 17)" onmousedown="handlePan(-1,0)">
                  <use xlink:href="#rim" fill="#404040">
                        <set attributeName="fill" to="#808080" begin="arrowLeft.mouseover" end="arrowLeft.mouseout"/>
                  </use>
                  <path fill="none" stroke="white" stroke-width="1.5" d="M0,-3.0v7 M-2.5,-0.5L0,-3.0L2.5,-0.5"/>
                </g>
        </g>
        <svg viewBox="0 0 15 15" width="100%" height="30px" preserveAspectRatio="xMaxYMin meet">
         <g id="arrow_out" transform="scale(0.3 0.3)">
          <a xlink:href="classhal_1_1_gpio_pin_a0502d167afa4ed797e3bdb31f5a70452_icgraph_org.svg" target="_base">
           <rect id="button" ry="5" rx="5" y="6" x="6" height="38" width="38"
                fill="#f2f5e9" fill-opacity="0.5" stroke="#606060" stroke-width="1.0"/>
           <path id="arrow"
             d="M 11.500037,31.436501 C 11.940474,20.09759 22.043105,11.32322 32.158766,21.979434 L 37.068811,17.246167 C 37.068811,17.246167 37.088388,32 37.088388,32 L 22.160133,31.978069 C 22.160133,31.978069 26.997745,27.140456 26.997745,27.140456 C 18.528582,18.264221 13.291696,25.230495 11.500037,31.436501 z"
             style="fill:#404040;"/>
          </a>
         </g>
        </svg>
</svg>
