<?xml version="1.0" encoding="UTF-8" standalone="no"?>
<!DOCTYPE svg PUBLIC "-//W3C//DTD SVG 1.1//EN"
 "http://www.w3.org/Graphics/SVG/1.1/DTD/svg11.dtd">
<!-- Generated by graphviz version 2.38.0 (20140413.2041)
 -->
<!-- Title: application::VerifierRsa Pages: 1 -->
<svg width="241pt" height="195pt"
 viewBox="0.00 0.00 240.50 195.00" xmlns="http://www.w3.org/2000/svg" xmlns:xlink="http://www.w3.org/1999/xlink">
<g id="graph0" class="graph" transform="scale(1 1) rotate(0) translate(4 191)">
<title>application::VerifierRsa</title>
<polygon fill="white" stroke="none" points="-4,4 -4,-191 236.5,-191 236.5,4 -4,4"/>
<!-- Node2 -->
<g id="node1" class="node"><title>Node2</title>
<polygon fill="#bfbfbf" stroke="black" points="29.5,-0.5 29.5,-19.5 145.5,-19.5 145.5,-0.5 29.5,-0.5"/>
<text text-anchor="middle" x="87.5" y="-7.5" font-family="Helvetica,sans-Serif" font-size="10.00">application::VerifierRsa</text>
</g>
<!-- Node3 -->
<g id="node2" class="node"><title>Node3</title>
<g id="a_node2"><a xlink:href="../../d1/dd1/classapplication_1_1_verifier.html" target="_top" xlink:title="application::Verifier">
<polygon fill="white" stroke="black" points="0,-84 0,-103 99,-103 99,-84 0,-84"/>
<text text-anchor="middle" x="49.5" y="-91" font-family="Helvetica,sans-Serif" font-size="10.00">application::Verifier</text>
</a>
</g>
</g>
<!-- Node3&#45;&gt;Node2 -->
<g id="edge1" class="edge"><title>Node3&#45;&gt;Node2</title>
<path fill="none" stroke="midnightblue" d="M57.9636,-74.3478C65.9001,-57.3261 77.4234,-32.6117 83.4626,-19.6592"/>
<polygon fill="midnightblue" stroke="midnightblue" points="54.6204,-73.2358 53.5667,-83.7781 60.9647,-76.1939 54.6204,-73.2358"/>
</g>
<!-- Node4 -->
<g id="node3" class="node"><title>Node4</title>
<g id="a_node3"><a xlink:href="../../d0/d6d/classinfra_1_1_memory_range.html" target="_top" xlink:title="infra::MemoryRange\l\&lt; const uint8_t \&gt;">
<polygon fill="white" stroke="black" points="117.5,-78.5 117.5,-108.5 221.5,-108.5 221.5,-78.5 117.5,-78.5"/>
<text text-anchor="start" x="125.5" y="-96.5" font-family="Helvetica,sans-Serif" font-size="10.00">infra::MemoryRange</text>
<text text-anchor="middle" x="169.5" y="-85.5" font-family="Helvetica,sans-Serif" font-size="10.00">&lt; const uint8_t &gt;</text>
</a>
</g>
</g>
<!-- Node4&#45;&gt;Node2 -->
<g id="edge2" class="edge"><title>Node4&#45;&gt;Node2</title>
<path fill="none" stroke="#9a32cd" stroke-dasharray="5,2" d="M147.895,-71.0266C130.953,-54.1878 108.27,-31.6429 96.0915,-19.5391"/>
<polygon fill="#9a32cd" stroke="#9a32cd" points="145.657,-73.7368 155.217,-78.3038 150.591,-68.7719 145.657,-73.7368"/>
<text text-anchor="middle" x="162" y="-52" font-family="Helvetica,sans-Serif" font-size="10.00"> publicKeyE</text>
<text text-anchor="middle" x="162" y="-41" font-family="Helvetica,sans-Serif" font-size="10.00">publicKeyN</text>
</g>
<!-- Node5 -->
<g id="node4" class="node"><title>Node5</title>
<polygon fill="white" stroke="#bfbfbf" points="129.5,-167.5 129.5,-186.5 209.5,-186.5 209.5,-167.5 129.5,-167.5"/>
<text text-anchor="middle" x="169.5" y="-174.5" font-family="Helvetica,sans-Serif" font-size="10.00">const uint8_t *</text>
</g>
<!-- Node5&#45;&gt;Node4 -->
<g id="edge3" class="edge"><title>Node5&#45;&gt;Node4</title>
<path fill="none" stroke="#9a32cd" stroke-dasharray="5,2" d="M169.5,-157.229C169.5,-142.408 169.5,-122.051 169.5,-108.597"/>
<polygon fill="#9a32cd" stroke="#9a32cd" points="166,-157.278 169.5,-167.278 173,-157.278 166,-157.278"/>
<text text-anchor="middle" x="201" y="-141" font-family="Helvetica,sans-Serif" font-size="10.00"> beginElement</text>
<text text-anchor="middle" x="201" y="-130" font-family="Helvetica,sans-Serif" font-size="10.00">endElement</text>
</g>
</g>
</svg>
