<?xml version="1.0" encoding="UTF-8" standalone="no"?>
<!DOCTYPE svg PUBLIC "-//W3C//DTD SVG 1.1//EN"
 "http://www.w3.org/Graphics/SVG/1.1/DTD/svg11.dtd">
<!-- Generated by graphviz version 2.38.0 (20140413.2041)
 -->
<!-- Title: hal::FlashHomogeneous Pages: 1 -->
<svg width="178pt" height="106pt"
 viewBox="0.00 0.00 177.50 106.00" xmlns="http://www.w3.org/2000/svg" xmlns:xlink="http://www.w3.org/1999/xlink">
<g id="graph0" class="graph" transform="scale(1 1) rotate(0) translate(4 102)">
<title>hal::FlashHomogeneous</title>
<polygon fill="white" stroke="none" points="-4,4 -4,-102 173.5,-102 173.5,4 -4,4"/>
<!-- Node7 -->
<g id="node1" class="node"><title>Node7</title>
<polygon fill="#bfbfbf" stroke="black" points="4.5,-0.5 4.5,-19.5 126.5,-19.5 126.5,-0.5 4.5,-0.5"/>
<text text-anchor="middle" x="65.5" y="-7.5" font-family="Helvetica,sans-Serif" font-size="10.00">hal::FlashHomogeneous</text>
</g>
<!-- Node8 -->
<g id="node2" class="node"><title>Node8</title>
<g id="a_node2"><a xlink:href="../../dd/d95/classhal_1_1_flash.html" target="_top" xlink:title="hal::Flash">
<polygon fill="white" stroke="black" points="0,-78.5 0,-97.5 59,-97.5 59,-78.5 0,-78.5"/>
<text text-anchor="middle" x="29.5" y="-85.5" font-family="Helvetica,sans-Serif" font-size="10.00">hal::Flash</text>
</a>
</g>
</g>
<!-- Node8&#45;&gt;Node7 -->
<g id="edge1" class="edge"><title>Node8&#45;&gt;Node7</title>
<path fill="none" stroke="midnightblue" d="M37.9687,-69.1216C45.3543,-53.5297 55.7487,-31.5862 61.4185,-19.6165"/>
<polygon fill="midnightblue" stroke="midnightblue" points="34.7475,-67.7461 33.6297,-78.2818 41.0737,-70.7428 34.7475,-67.7461"/>
</g>
<!-- Node9 -->
<g id="node3" class="node"><title>Node9</title>
<polygon fill="white" stroke="#bfbfbf" points="77,-78.5 77,-97.5 128,-97.5 128,-78.5 77,-78.5"/>
<text text-anchor="middle" x="102.5" y="-85.5" font-family="Helvetica,sans-Serif" font-size="10.00">uint32_t</text>
</g>
<!-- Node9&#45;&gt;Node7 -->
<g id="edge2" class="edge"><title>Node9&#45;&gt;Node7</title>
<path fill="none" stroke="#9a32cd" stroke-dasharray="5,2" d="M93.7961,-69.1216C86.2053,-53.5297 75.5222,-31.5862 69.6949,-19.6165"/>
<polygon fill="#9a32cd" stroke="#9a32cd" points="90.7314,-70.8228 98.2556,-78.2818 97.0252,-67.7587 90.7314,-70.8228"/>
<text text-anchor="middle" x="128.5" y="-52" font-family="Helvetica,sans-Serif" font-size="10.00"> sizeOfEachSector</text>
<text text-anchor="middle" x="128.5" y="-41" font-family="Helvetica,sans-Serif" font-size="10.00">numberOfSectors</text>
</g>
</g>
</svg>
