<?xml version="1.0" encoding="UTF-8" standalone="no"?>
<!DOCTYPE svg PUBLIC "-//W3C//DTD SVG 1.1//EN"
 "http://www.w3.org/Graphics/SVG/1.1/DTD/svg11.dtd">
<!-- Generated by graphviz version 2.38.0 (20140413.2041)
 -->
<!-- Title: services::NameResolverResult Pages: 1 -->
<svg width="495pt" height="88pt"
 viewBox="0.00 0.00 495.00 88.00" xmlns="http://www.w3.org/2000/svg" xmlns:xlink="http://www.w3.org/1999/xlink">
<g id="graph0" class="graph" transform="scale(1 1) rotate(0) translate(4 84)">
<title>services::NameResolverResult</title>
<polygon fill="white" stroke="none" points="-4,4 -4,-84 491,-84 491,4 -4,4"/>
<!-- Node0 -->
<g id="node1" class="node"><title>Node0</title>
<polygon fill="#bfbfbf" stroke="black" points="152,-30 152,-49 300,-49 300,-30 152,-30"/>
<text text-anchor="middle" x="226" y="-37" font-family="Helvetica,sans-Serif" font-size="10.00">services::NameResolverResult</text>
</g>
<!-- Node2 -->
<g id="node3" class="node"><title>Node2</title>
<g id="a_node3"><a xlink:href="../../dd/d6b/classservices_1_1_connection_factory_with_name_resolver_impl_1_1_action.html" target="_top" xlink:title="services::ConnectionFactory\lWithNameResolverImpl::Action">
<polygon fill="white" stroke="black" points="336,-49.5 336,-79.5 487,-79.5 487,-49.5 336,-49.5"/>
<text text-anchor="start" x="344" y="-67.5" font-family="Helvetica,sans-Serif" font-size="10.00">services::ConnectionFactory</text>
<text text-anchor="middle" x="411.5" y="-56.5" font-family="Helvetica,sans-Serif" font-size="10.00">WithNameResolverImpl::Action</text>
</a>
</g>
</g>
<!-- Node0&#45;&gt;Node2 -->
<g id="edge2" class="edge"><title>Node0&#45;&gt;Node2</title>
<path fill="none" stroke="midnightblue" d="M306.868,-50.3813C316.517,-51.6957 326.343,-53.0345 335.911,-54.338"/>
<polygon fill="midnightblue" stroke="midnightblue" points="307.278,-46.9048 296.897,-49.0227 306.333,-53.8407 307.278,-46.9048"/>
</g>
<!-- Node3 -->
<g id="node4" class="node"><title>Node3</title>
<g id="a_node4"><a xlink:href="../../d4/d34/classservices_1_1_name_resolver_cache_1_1_active_lookup.html" target="_top" xlink:title="services::NameResolverCache\l::ActiveLookup">
<polygon fill="white" stroke="black" points="337.5,-0.5 337.5,-30.5 485.5,-30.5 485.5,-0.5 337.5,-0.5"/>
<text text-anchor="start" x="345.5" y="-18.5" font-family="Helvetica,sans-Serif" font-size="10.00">services::NameResolverCache</text>
<text text-anchor="middle" x="411.5" y="-7.5" font-family="Helvetica,sans-Serif" font-size="10.00">::ActiveLookup</text>
</a>
</g>
</g>
<!-- Node0&#45;&gt;Node3 -->
<g id="edge3" class="edge"><title>Node0&#45;&gt;Node3</title>
<path fill="none" stroke="#8b1a1a" d="M309.971,-28.6482C319.052,-27.4605 328.248,-26.2578 337.2,-25.0869"/>
<polygon fill="#8b1a1a" stroke="#8b1a1a" points="309.249,-25.2127 299.788,-29.9801 310.157,-32.1536 309.249,-25.2127"/>
</g>
<!-- Node1 -->
<g id="node2" class="node"><title>Node1</title>
<g id="a_node2"><a xlink:href="../../d7/da5/classinfra_1_1detail_1_1_intrusive_list_node.html" target="_top" xlink:title="infra::IntrusiveList\l\&lt; NameResolverResult\l \&gt;::NodeType">
<polygon fill="white" stroke="black" points="0,-19 0,-60 116,-60 116,-19 0,-19"/>
<text text-anchor="start" x="8" y="-48" font-family="Helvetica,sans-Serif" font-size="10.00">infra::IntrusiveList</text>
<text text-anchor="start" x="8" y="-37" font-family="Helvetica,sans-Serif" font-size="10.00">&lt; NameResolverResult</text>
<text text-anchor="middle" x="58" y="-26" font-family="Helvetica,sans-Serif" font-size="10.00"> &gt;::NodeType</text>
</a>
</g>
</g>
<!-- Node1&#45;&gt;Node0 -->
<g id="edge1" class="edge"><title>Node1&#45;&gt;Node0</title>
<path fill="none" stroke="midnightblue" d="M126.292,-39.5C134.737,-39.5 143.407,-39.5 151.935,-39.5"/>
<polygon fill="midnightblue" stroke="midnightblue" points="126.128,-36.0001 116.128,-39.5 126.128,-43.0001 126.128,-36.0001"/>
</g>
</g>
</svg>
