<?xml version="1.0" encoding="UTF-8" standalone="no"?>
<!DOCTYPE svg PUBLIC "-//W3C//DTD SVG 1.1//EN"
 "http://www.w3.org/Graphics/SVG/1.1/DTD/svg11.dtd">
<!-- Generated by graphviz version 2.38.0 (20140413.2041)
 -->
<!-- Title: services::HttpResponseNotFound Pages: 1 -->
<svg width="148pt" height="151pt"
 viewBox="0.00 0.00 148.00 151.00" xmlns="http://www.w3.org/2000/svg" xmlns:xlink="http://www.w3.org/1999/xlink">
<g id="graph0" class="graph" transform="scale(1 1) rotate(0) translate(4 147)">
<title>services::HttpResponseNotFound</title>
<polygon fill="white" stroke="none" points="-4,4 -4,-147 144,-147 144,4 -4,4"/>
<!-- Node0 -->
<g id="node1" class="node"><title>Node0</title>
<polygon fill="#bfbfbf" stroke="black" points="3,-0.5 3,-30.5 137,-30.5 137,-0.5 3,-0.5"/>
<text text-anchor="start" x="11" y="-18.5" font-family="Helvetica,sans-Serif" font-size="10.00">services::HttpResponseNot</text>
<text text-anchor="middle" x="70" y="-7.5" font-family="Helvetica,sans-Serif" font-size="10.00">Found</text>
</g>
<!-- Node1 -->
<g id="node2" class="node"><title>Node1</title>
<g id="a_node2"><a xlink:href="../../d8/d8d/classservices_1_1_http_error_response.html" target="_top" xlink:title="services::HttpErrorResponse">
<polygon fill="white" stroke="black" points="0,-67.5 0,-86.5 140,-86.5 140,-67.5 0,-67.5"/>
<text text-anchor="middle" x="70" y="-74.5" font-family="Helvetica,sans-Serif" font-size="10.00">services::HttpErrorResponse</text>
</a>
</g>
</g>
<!-- Node1&#45;&gt;Node0 -->
<g id="edge1" class="edge"><title>Node1&#45;&gt;Node0</title>
<path fill="none" stroke="midnightblue" d="M70,-57.2349C70,-48.5864 70,-38.4969 70,-30.523"/>
<polygon fill="midnightblue" stroke="midnightblue" points="66.5001,-57.4751 70,-67.4751 73.5001,-57.4751 66.5001,-57.4751"/>
</g>
<!-- Node2 -->
<g id="node3" class="node"><title>Node2</title>
<g id="a_node3"><a xlink:href="../../d9/dce/classservices_1_1_http_response.html" target="_top" xlink:title="services::HttpResponse">
<polygon fill="white" stroke="black" points="10.5,-123.5 10.5,-142.5 129.5,-142.5 129.5,-123.5 10.5,-123.5"/>
<text text-anchor="middle" x="70" y="-130.5" font-family="Helvetica,sans-Serif" font-size="10.00">services::HttpResponse</text>
</a>
</g>
</g>
<!-- Node2&#45;&gt;Node1 -->
<g id="edge2" class="edge"><title>Node2&#45;&gt;Node1</title>
<path fill="none" stroke="midnightblue" d="M70,-112.805C70,-103.91 70,-93.7798 70,-86.7511"/>
<polygon fill="midnightblue" stroke="midnightblue" points="66.5001,-113.083 70,-123.083 73.5001,-113.083 66.5001,-113.083"/>
</g>
</g>
</svg>
