<?xml version="1.0" encoding="UTF-8" standalone="no"?>
<!DOCTYPE svg PUBLIC "-//W3C//DTD SVG 1.1//EN"
 "http://www.w3.org/Graphics/SVG/1.1/DTD/svg11.dtd">
<!-- Generated by graphviz version 2.38.0 (20140413.2041)
 -->
<!-- Title: services::ConnectionSerial::StateConnected::EvaluatePendingSend Pages: 1 -->
<svg width="435pt" height="39pt"
 viewBox="0.00 0.00 435.00 39.00" xmlns="http://www.w3.org/2000/svg" xmlns:xlink="http://www.w3.org/1999/xlink">
<g id="graph0" class="graph" transform="scale(1 1) rotate(0) translate(4 35)">
<title>services::ConnectionSerial::StateConnected::EvaluatePendingSend</title>
<polygon fill="white" stroke="none" points="-4,4 -4,-35 431,-35 431,4 -4,4"/>
<!-- Node18 -->
<g id="node1" class="node"><title>Node18</title>
<polygon fill="#bfbfbf" stroke="black" points="0,-0.5 0,-30.5 193,-30.5 193,-0.5 0,-0.5"/>
<text text-anchor="start" x="8" y="-18.5" font-family="Helvetica,sans-Serif" font-size="10.00">services::ConnectionSerial</text>
<text text-anchor="middle" x="96.5" y="-7.5" font-family="Helvetica,sans-Serif" font-size="10.00">::StateConnected::EvaluatePendingSend</text>
</g>
<!-- Node19 -->
<g id="node2" class="node"><title>Node19</title>
<g id="a_node2"><a xlink:href="../../dc/dee/classservices_1_1_connection_serial_1_1_state_connected_idle.html#ab464ee8ebe7049afb8472039ab92640d" target="_top" xlink:title="services::ConnectionSerial\l::StateConnectedIdle::StateConnectedIdle">
<polygon fill="white" stroke="black" points="229,-0.5 229,-30.5 427,-30.5 427,-0.5 229,-0.5"/>
<text text-anchor="start" x="237" y="-18.5" font-family="Helvetica,sans-Serif" font-size="10.00">services::ConnectionSerial</text>
<text text-anchor="middle" x="328" y="-7.5" font-family="Helvetica,sans-Serif" font-size="10.00">::StateConnectedIdle::StateConnectedIdle</text>
</a>
</g>
</g>
<!-- Node18&#45;&gt;Node19 -->
<g id="edge1" class="edge"><title>Node18&#45;&gt;Node19</title>
<path fill="none" stroke="midnightblue" d="M203.183,-15.5C211.753,-15.5 220.39,-15.5 228.902,-15.5"/>
<polygon fill="midnightblue" stroke="midnightblue" points="203.167,-12.0001 193.167,-15.5 203.167,-19.0001 203.167,-12.0001"/>
</g>
</g>
</svg>
