<?xml version="1.0" encoding="UTF-8" standalone="no"?>
<!DOCTYPE svg PUBLIC "-//W3C//DTD SVG 1.1//EN"
 "http://www.w3.org/Graphics/SVG/1.1/DTD/svg11.dtd">
<!-- Generated by graphviz version 2.38.0 (20140413.2041)
 -->
<!-- Title: services::ConnectionSerial::StateConnected::IsEscapedByte Pages: 1 -->
<svg width="368pt" height="88pt"
 viewBox="0.00 0.00 368.00 88.00" xmlns="http://www.w3.org/2000/svg" xmlns:xlink="http://www.w3.org/1999/xlink">
<g id="graph0" class="graph" transform="scale(1 1) rotate(0) translate(4 84)">
<title>services::ConnectionSerial::StateConnected::IsEscapedByte</title>
<polygon fill="white" stroke="none" points="-4,4 -4,-84 364,-84 364,4 -4,4"/>
<!-- Node20 -->
<g id="node1" class="node"><title>Node20</title>
<polygon fill="#bfbfbf" stroke="black" points="0,-24.5 0,-54.5 164,-54.5 164,-24.5 0,-24.5"/>
<text text-anchor="start" x="8" y="-42.5" font-family="Helvetica,sans-Serif" font-size="10.00">services::ConnectionSerial</text>
<text text-anchor="middle" x="82" y="-31.5" font-family="Helvetica,sans-Serif" font-size="10.00">::StateConnected::IsEscapedByte</text>
</g>
<!-- Node21 -->
<g id="node2" class="node"><title>Node21</title>
<g id="a_node2"><a xlink:href="../../dd/db4/classservices_1_1_connection_serial_1_1_message_header.html#a603199f3a0e7ad701509c945ece8f616" target="_top" xlink:title="services::ConnectionSerial\l::MessageHeader::IsEscapeByte">
<polygon fill="white" stroke="black" points="200,-49.5 200,-79.5 360,-79.5 360,-49.5 200,-49.5"/>
<text text-anchor="start" x="208" y="-67.5" font-family="Helvetica,sans-Serif" font-size="10.00">services::ConnectionSerial</text>
<text text-anchor="middle" x="280" y="-56.5" font-family="Helvetica,sans-Serif" font-size="10.00">::MessageHeader::IsEscapeByte</text>
</a>
</g>
</g>
<!-- Node20&#45;&gt;Node21 -->
<g id="edge1" class="edge"><title>Node20&#45;&gt;Node21</title>
<path fill="none" stroke="midnightblue" d="M164.136,-49.8489C172.613,-50.9303 181.265,-52.0338 189.826,-53.1257"/>
<polygon fill="midnightblue" stroke="midnightblue" points="189.455,-56.6068 199.818,-54.4002 190.341,-49.663 189.455,-56.6068"/>
</g>
<!-- Node22 -->
<g id="node3" class="node"><title>Node22</title>
<g id="a_node3"><a xlink:href="../../dd/db4/classservices_1_1_connection_serial_1_1_message_header.html#a6303a901ee504b9e2f71542eceeaacce" target="_top" xlink:title="services::ConnectionSerial\l::MessageHeader::IsHeaderByte">
<polygon fill="white" stroke="black" points="201,-0.5 201,-30.5 359,-30.5 359,-0.5 201,-0.5"/>
<text text-anchor="start" x="209" y="-18.5" font-family="Helvetica,sans-Serif" font-size="10.00">services::ConnectionSerial</text>
<text text-anchor="middle" x="280" y="-7.5" font-family="Helvetica,sans-Serif" font-size="10.00">::MessageHeader::IsHeaderByte</text>
</a>
</g>
</g>
<!-- Node20&#45;&gt;Node22 -->
<g id="edge2" class="edge"><title>Node20&#45;&gt;Node22</title>
<path fill="none" stroke="midnightblue" d="M164.136,-29.565C172.935,-28.4875 181.922,-27.3872 190.8,-26.3"/>
<polygon fill="midnightblue" stroke="midnightblue" points="191.261,-29.7698 200.762,-25.0802 190.41,-22.8217 191.261,-29.7698"/>
</g>
</g>
</svg>
