<?xml version="1.0" encoding="UTF-8" standalone="no"?>
<!DOCTYPE svg PUBLIC "-//W3C//DTD SVG 1.1//EN"
 "http://www.w3.org/Graphics/SVG/1.1/DTD/svg11.dtd">
<!-- Generated by graphviz version 2.38.0 (20140413.2041)
 -->
<!-- Title: services::CyclicStore::RecoverSector Pages: 1 -->
<svg width="404pt" height="39pt"
 viewBox="0.00 0.00 404.00 39.00" xmlns="http://www.w3.org/2000/svg" xmlns:xlink="http://www.w3.org/1999/xlink">
<g id="graph0" class="graph" transform="scale(1 1) rotate(0) translate(4 35)">
<title>services::CyclicStore::RecoverSector</title>
<polygon fill="white" stroke="none" points="-4,4 -4,-35 400,-35 400,4 -4,4"/>
<!-- Node368 -->
<g id="node1" class="node"><title>Node368</title>
<polygon fill="#bfbfbf" stroke="black" points="0,-0.5 0,-30.5 108,-30.5 108,-0.5 0,-0.5"/>
<text text-anchor="start" x="8" y="-18.5" font-family="Helvetica,sans-Serif" font-size="10.00">services::CyclicStore</text>
<text text-anchor="middle" x="54" y="-7.5" font-family="Helvetica,sans-Serif" font-size="10.00">::RecoverSector</text>
</g>
<!-- Node369 -->
<g id="node2" class="node"><title>Node369</title>
<g id="a_node2"><a xlink:href="../../d4/d36/classservices_1_1_cyclic_store.html#a5b397293a572ce5d6d3144f0d284770f" target="_top" xlink:title="services::CyclicStore\l::Recover">
<polygon fill="white" stroke="black" points="144,-0.5 144,-30.5 252,-30.5 252,-0.5 144,-0.5"/>
<text text-anchor="start" x="152" y="-18.5" font-family="Helvetica,sans-Serif" font-size="10.00">services::CyclicStore</text>
<text text-anchor="middle" x="198" y="-7.5" font-family="Helvetica,sans-Serif" font-size="10.00">::Recover</text>
</a>
</g>
</g>
<!-- Node368&#45;&gt;Node369 -->
<g id="edge1" class="edge"><title>Node368&#45;&gt;Node369</title>
<path fill="none" stroke="midnightblue" d="M118.517,-15.5C126.996,-15.5 135.618,-15.5 143.894,-15.5"/>
<polygon fill="midnightblue" stroke="midnightblue" points="118.28,-12.0001 108.28,-15.5 118.28,-19.0001 118.28,-12.0001"/>
</g>
<!-- Node370 -->
<g id="node3" class="node"><title>Node370</title>
<g id="a_node3"><a xlink:href="../../d4/d36/classservices_1_1_cyclic_store.html#a6a29c761506bd86c65acb03b1a717e9a" target="_top" xlink:title="services::CyclicStore\l::CyclicStore">
<polygon fill="white" stroke="black" points="288,-0.5 288,-30.5 396,-30.5 396,-0.5 288,-0.5"/>
<text text-anchor="start" x="296" y="-18.5" font-family="Helvetica,sans-Serif" font-size="10.00">services::CyclicStore</text>
<text text-anchor="middle" x="342" y="-7.5" font-family="Helvetica,sans-Serif" font-size="10.00">::CyclicStore</text>
</a>
</g>
</g>
<!-- Node369&#45;&gt;Node370 -->
<g id="edge2" class="edge"><title>Node369&#45;&gt;Node370</title>
<path fill="none" stroke="midnightblue" d="M262.517,-15.5C270.996,-15.5 279.618,-15.5 287.894,-15.5"/>
<polygon fill="midnightblue" stroke="midnightblue" points="262.28,-12.0001 252.28,-15.5 262.28,-19.0001 262.28,-12.0001"/>
</g>
</g>
</svg>
