<?xml version="1.0" encoding="UTF-8" standalone="no"?>
<!DOCTYPE svg PUBLIC "-//W3C//DTD SVG 1.1//EN"
 "http://www.w3.org/Graphics/SVG/1.1/DTD/svg11.dtd">
<!-- Generated by graphviz version 2.38.0 (20140413.2041)
 -->
<!-- Title: services::DnsResolver::ReplyParser::ReadAndMatchHostnamePart Pages: 1 -->
<svg width="321pt" height="137pt"
 viewBox="0.00 0.00 321.00 137.00" xmlns="http://www.w3.org/2000/svg" xmlns:xlink="http://www.w3.org/1999/xlink">
<g id="graph0" class="graph" transform="scale(1 1) rotate(0) translate(4 133)">
<title>services::DnsResolver::ReplyParser::ReadAndMatchHostnamePart</title>
<polygon fill="white" stroke="none" points="-4,4 -4,-133 317,-133 317,4 -4,4"/>
<!-- Node25 -->
<g id="node1" class="node"><title>Node25</title>
<polygon fill="#bfbfbf" stroke="black" points="0,-44 0,-85 149,-85 149,-44 0,-44"/>
<text text-anchor="start" x="8" y="-73" font-family="Helvetica,sans-Serif" font-size="10.00">services::DnsResolver</text>
<text text-anchor="start" x="8" y="-62" font-family="Helvetica,sans-Serif" font-size="10.00">::ReplyParser::ReadAndMatch</text>
<text text-anchor="middle" x="74.5" y="-51" font-family="Helvetica,sans-Serif" font-size="10.00">HostnamePart</text>
</g>
<!-- Node26 -->
<g id="node2" class="node"><title>Node26</title>
<g id="a_node2"><a xlink:href="../../dc/dfe/classservices_1_1_dns_resolver_1_1_hostname_parts.html#a528ea9d717fdcfc400ce6efde5d25886" target="_top" xlink:title="services::DnsResolver\l::HostnameParts::Current">
<polygon fill="white" stroke="black" points="185,-98.5 185,-128.5 313,-128.5 313,-98.5 185,-98.5"/>
<text text-anchor="start" x="193" y="-116.5" font-family="Helvetica,sans-Serif" font-size="10.00">services::DnsResolver</text>
<text text-anchor="middle" x="249" y="-105.5" font-family="Helvetica,sans-Serif" font-size="10.00">::HostnameParts::Current</text>
</a>
</g>
</g>
<!-- Node25&#45;&gt;Node26 -->
<g id="edge1" class="edge"><title>Node25&#45;&gt;Node26</title>
<path fill="none" stroke="midnightblue" d="M148.156,-85.1384C160.456,-88.6325 173.136,-92.2342 185.158,-95.6493"/>
<polygon fill="midnightblue" stroke="midnightblue" points="184.504,-99.102 195.08,-98.4677 186.417,-92.3684 184.504,-99.102"/>
</g>
<!-- Node27 -->
<g id="node3" class="node"><title>Node27</title>
<g id="a_node3"><a xlink:href="../../dc/dfe/classservices_1_1_dns_resolver_1_1_hostname_parts.html#ad055021e928854ab401fc5a33e1b00cc" target="_top" xlink:title="services::DnsResolver\l::HostnameParts::Empty">
<polygon fill="white" stroke="black" points="186.5,-49.5 186.5,-79.5 311.5,-79.5 311.5,-49.5 186.5,-49.5"/>
<text text-anchor="start" x="194.5" y="-67.5" font-family="Helvetica,sans-Serif" font-size="10.00">services::DnsResolver</text>
<text text-anchor="middle" x="249" y="-56.5" font-family="Helvetica,sans-Serif" font-size="10.00">::HostnameParts::Empty</text>
</a>
</g>
</g>
<!-- Node25&#45;&gt;Node27 -->
<g id="edge2" class="edge"><title>Node25&#45;&gt;Node27</title>
<path fill="none" stroke="midnightblue" d="M149.156,-64.5C158.041,-64.5 167.109,-64.5 175.971,-64.5"/>
<polygon fill="midnightblue" stroke="midnightblue" points="176.255,-68.0001 186.255,-64.5 176.255,-61.0001 176.255,-68.0001"/>
</g>
<!-- Node28 -->
<g id="node4" class="node"><title>Node28</title>
<g id="a_node4"><a xlink:href="../../d1/d2a/classinfra_1_1_bounded_string_base.html#aab36b8eaee21d6ab3be734e07f499382" target="_top" xlink:title="infra::BoundedStringBase\l::size">
<polygon fill="white" stroke="black" points="185.5,-0.5 185.5,-30.5 312.5,-30.5 312.5,-0.5 185.5,-0.5"/>
<text text-anchor="start" x="193.5" y="-18.5" font-family="Helvetica,sans-Serif" font-size="10.00">infra::BoundedStringBase</text>
<text text-anchor="middle" x="249" y="-7.5" font-family="Helvetica,sans-Serif" font-size="10.00">::size</text>
</a>
</g>
</g>
<!-- Node25&#45;&gt;Node28 -->
<g id="edge3" class="edge"><title>Node25&#45;&gt;Node28</title>
<path fill="none" stroke="midnightblue" d="M148.156,-43.8616C160.456,-40.3675 173.136,-36.7658 185.158,-33.3507"/>
<polygon fill="midnightblue" stroke="midnightblue" points="186.417,-36.6316 195.08,-30.5323 184.504,-29.898 186.417,-36.6316"/>
</g>
</g>
</svg>
