<?xml version="1.0" encoding="UTF-8" standalone="no"?>
<!DOCTYPE svg PUBLIC "-//W3C//DTD SVG 1.1//EN"
 "http://www.w3.org/Graphics/SVG/1.1/DTD/svg11.dtd">
<!-- Generated by graphviz version 2.38.0 (20140413.2041)
 -->
<!-- Title: services::DnsResolver::ReplyParser::ReadAndMatchHostnameWithoutReference Pages: 1 -->
<svg width="362pt" height="88pt"
 viewBox="0.00 0.00 362.00 88.00" xmlns="http://www.w3.org/2000/svg" xmlns:xlink="http://www.w3.org/1999/xlink">
<g id="graph0" class="graph" transform="scale(1 1) rotate(0) translate(4 84)">
<title>services::DnsResolver::ReplyParser::ReadAndMatchHostnameWithoutReference</title>
<polygon fill="white" stroke="none" points="-4,4 -4,-84 358,-84 358,4 -4,4"/>
<!-- Node32 -->
<g id="node1" class="node"><title>Node32</title>
<polygon fill="#bfbfbf" stroke="black" points="0,-19 0,-60 149,-60 149,-19 0,-19"/>
<text text-anchor="start" x="8" y="-48" font-family="Helvetica,sans-Serif" font-size="10.00">services::DnsResolver</text>
<text text-anchor="start" x="8" y="-37" font-family="Helvetica,sans-Serif" font-size="10.00">::ReplyParser::ReadAndMatch</text>
<text text-anchor="middle" x="74.5" y="-26" font-family="Helvetica,sans-Serif" font-size="10.00">HostnameWithoutReference</text>
</g>
<!-- Node33 -->
<g id="node2" class="node"><title>Node33</title>
<g id="a_node2"><a xlink:href="../../dc/dfe/classservices_1_1_dns_resolver_1_1_hostname_parts.html#a4f1078ab3d1b5cb67a70414cb64cf249" target="_top" xlink:title="services::DnsResolver\l::HostnameParts::ConsumeCurrent">
<polygon fill="white" stroke="black" points="185,-49.5 185,-79.5 354,-79.5 354,-49.5 185,-49.5"/>
<text text-anchor="start" x="193" y="-67.5" font-family="Helvetica,sans-Serif" font-size="10.00">services::DnsResolver</text>
<text text-anchor="middle" x="269.5" y="-56.5" font-family="Helvetica,sans-Serif" font-size="10.00">::HostnameParts::ConsumeCurrent</text>
</a>
</g>
</g>
<!-- Node32&#45;&gt;Node33 -->
<g id="edge1" class="edge"><title>Node32&#45;&gt;Node33</title>
<path fill="none" stroke="midnightblue" d="M149.016,-49.0227C157.438,-50.1137 166.108,-51.2368 174.749,-52.3561"/>
<polygon fill="midnightblue" stroke="midnightblue" points="174.496,-55.8524 184.863,-53.6661 175.395,-48.9104 174.496,-55.8524"/>
</g>
<!-- Node34 -->
<g id="node3" class="node"><title>Node34</title>
<g id="a_node3"><a xlink:href="../../dc/dfe/classservices_1_1_dns_resolver_1_1_hostname_parts.html#ad055021e928854ab401fc5a33e1b00cc" target="_top" xlink:title="services::DnsResolver\l::HostnameParts::Empty">
<polygon fill="white" stroke="black" points="207,-0.5 207,-30.5 332,-30.5 332,-0.5 207,-0.5"/>
<text text-anchor="start" x="215" y="-18.5" font-family="Helvetica,sans-Serif" font-size="10.00">services::DnsResolver</text>
<text text-anchor="middle" x="269.5" y="-7.5" font-family="Helvetica,sans-Serif" font-size="10.00">::HostnameParts::Empty</text>
</a>
</g>
</g>
<!-- Node32&#45;&gt;Node34 -->
<g id="edge2" class="edge"><title>Node32&#45;&gt;Node34</title>
<path fill="none" stroke="midnightblue" d="M149.016,-30.3582C164.658,-28.4131 181.155,-26.3616 196.731,-24.4247"/>
<polygon fill="midnightblue" stroke="midnightblue" points="197.323,-27.8781 206.815,-23.1707 196.459,-20.9316 197.323,-27.8781"/>
</g>
</g>
</svg>
