<?xml version="1.0" encoding="UTF-8" standalone="no"?>
<!DOCTYPE svg PUBLIC "-//W3C//DTD SVG 1.1//EN"
 "http://www.w3.org/Graphics/SVG/1.1/DTD/svg11.dtd">
<!-- Generated by graphviz version 2.38.0 (20140413.2041)
 -->
<!-- Title: infra::OverwriteDataStream Pages: 1 -->
<svg width="1236pt" height="204pt"
 viewBox="0.00 0.00 1236.00 204.00" xmlns="http://www.w3.org/2000/svg" xmlns:xlink="http://www.w3.org/1999/xlink">
<g id="graph0" class="graph" transform="scale(1 1) rotate(0) translate(4 200)">
<title>infra::OverwriteDataStream</title>
<polygon fill="white" stroke="none" points="-4,4 -4,-200 1232,-200 1232,4 -4,4"/>
<!-- Node5 -->
<g id="node1" class="node"><title>Node5</title>
<polygon fill="#bfbfbf" stroke="black" points="1096,-60.5 1096,-79.5 1228,-79.5 1228,-60.5 1096,-60.5"/>
<text text-anchor="middle" x="1162" y="-67.5" font-family="Helvetica,sans-Serif" font-size="10.00">infra::OverwriteDataStream</text>
</g>
<!-- Node6 -->
<g id="node2" class="node"><title>Node6</title>
<g id="a_node2"><a xlink:href="../../dd/dd9/classinfra_1_1_data_output_stream_1_1_with_writer.html" target="_top" xlink:title="infra::DataOutputStream\l::WithWriter\&lt; OverwriteStream\lWriter \&gt;">
<polygon fill="white" stroke="black" points="910,-49.5 910,-90.5 1059,-90.5 1059,-49.5 910,-49.5"/>
<text text-anchor="start" x="918" y="-78.5" font-family="Helvetica,sans-Serif" font-size="10.00">infra::DataOutputStream</text>
<text text-anchor="start" x="918" y="-67.5" font-family="Helvetica,sans-Serif" font-size="10.00">::WithWriter&lt; OverwriteStream</text>
<text text-anchor="middle" x="984.5" y="-56.5" font-family="Helvetica,sans-Serif" font-size="10.00">Writer &gt;</text>
</a>
</g>
</g>
<!-- Node6&#45;&gt;Node5 -->
<g id="edge1" class="edge"><title>Node6&#45;&gt;Node5</title>
<path fill="none" stroke="midnightblue" d="M1069.23,-70C1078.19,-70 1087.2,-70 1095.89,-70"/>
<polygon fill="midnightblue" stroke="midnightblue" points="1069.17,-66.5001 1059.16,-70 1069.16,-73.5001 1069.17,-66.5001"/>
</g>
<!-- Node7 -->
<g id="node3" class="node"><title>Node7</title>
<g id="a_node3"><a xlink:href="../../d9/d00/classinfra_1_1detail_1_1_storage_holder.html" target="_top" xlink:title="infra::detail::StorageHolder\l\&lt; OverwriteStreamWriter,\l WithWriter\&lt; OverwriteStreamWriter \&gt; \&gt;">
<polygon fill="white" stroke="black" points="682,-99.5 682,-140.5 873,-140.5 873,-99.5 682,-99.5"/>
<text text-anchor="start" x="690" y="-128.5" font-family="Helvetica,sans-Serif" font-size="10.00">infra::detail::StorageHolder</text>
<text text-anchor="start" x="690" y="-117.5" font-family="Helvetica,sans-Serif" font-size="10.00">&lt; OverwriteStreamWriter,</text>
<text text-anchor="middle" x="777.5" y="-106.5" font-family="Helvetica,sans-Serif" font-size="10.00"> WithWriter&lt; OverwriteStreamWriter &gt; &gt;</text>
</a>
</g>
</g>
<!-- Node7&#45;&gt;Node6 -->
<g id="edge2" class="edge"><title>Node7&#45;&gt;Node6</title>
<path fill="none" stroke="#8b1a1a" d="M872.686,-97.0279C885.113,-93.9969 897.704,-90.9259 909.722,-87.9947"/>
<polygon fill="#8b1a1a" stroke="#8b1a1a" points="871.655,-93.6767 862.769,-99.4466 873.313,-100.477 871.655,-93.6767"/>
</g>
<!-- Node8 -->
<g id="node4" class="node"><title>Node8</title>
<g id="a_node4"><a xlink:href="../../dc/dcc/classinfra_1_1_overwrite_stream_writer.html" target="_top" xlink:title="infra::OverwriteStreamWriter">
<polygon fill="white" stroke="black" points="458,-117.5 458,-136.5 596,-136.5 596,-117.5 458,-117.5"/>
<text text-anchor="middle" x="527" y="-124.5" font-family="Helvetica,sans-Serif" font-size="10.00">infra::OverwriteStreamWriter</text>
</a>
</g>
</g>
<!-- Node8&#45;&gt;Node7 -->
<g id="edge3" class="edge"><title>Node8&#45;&gt;Node7</title>
<path fill="none" stroke="#9a32cd" stroke-dasharray="5,2" d="M606.334,-124.793C630.315,-124.118 656.951,-123.368 681.894,-122.665"/>
<polygon fill="#9a32cd" stroke="#9a32cd" points="606.13,-121.298 596.232,-125.078 606.327,-128.295 606.13,-121.298"/>
<text text-anchor="middle" x="639" y="-127" font-family="Helvetica,sans-Serif" font-size="10.00"> storage</text>
</g>
<!-- Node9 -->
<g id="node5" class="node"><title>Node9</title>
<g id="a_node5"><a xlink:href="../../df/d15/classinfra_1_1_byte_output_stream_writer.html" target="_top" xlink:title="infra::ByteOutputStreamWriter">
<polygon fill="white" stroke="black" points="224,-128.5 224,-147.5 372,-147.5 372,-128.5 224,-128.5"/>
<text text-anchor="middle" x="298" y="-135.5" font-family="Helvetica,sans-Serif" font-size="10.00">infra::ByteOutputStreamWriter</text>
</a>
</g>
</g>
<!-- Node9&#45;&gt;Node8 -->
<g id="edge4" class="edge"><title>Node9&#45;&gt;Node8</title>
<path fill="none" stroke="midnightblue" d="M382.202,-133.968C407.026,-132.765 433.936,-131.461 457.691,-130.31"/>
<polygon fill="midnightblue" stroke="midnightblue" points="381.893,-130.479 372.074,-134.459 382.231,-137.471 381.893,-130.479"/>
</g>
<!-- Node10 -->
<g id="node6" class="node"><title>Node10</title>
<g id="a_node6"><a xlink:href="../../de/dba/classinfra_1_1_stream_writer.html" target="_top" xlink:title="infra::StreamWriter">
<polygon fill="white" stroke="black" points="14.5,-85.5 14.5,-104.5 112.5,-104.5 112.5,-85.5 14.5,-85.5"/>
<text text-anchor="middle" x="63.5" y="-92.5" font-family="Helvetica,sans-Serif" font-size="10.00">infra::StreamWriter</text>
</a>
</g>
</g>
<!-- Node10&#45;&gt;Node9 -->
<g id="edge5" class="edge"><title>Node10&#45;&gt;Node9</title>
<path fill="none" stroke="midnightblue" d="M122.978,-105.815C160.596,-112.773 209.036,-121.731 245.254,-128.43"/>
<polygon fill="midnightblue" stroke="midnightblue" points="123.144,-102.287 112.674,-103.91 121.871,-109.17 123.144,-102.287"/>
</g>
<!-- Node14 -->
<g id="node10" class="node"><title>Node14</title>
<g id="a_node10"><a xlink:href="../../d6/d97/classinfra_1_1_output_stream.html" target="_top" xlink:title="infra::OutputStream">
<polygon fill="white" stroke="black" points="476.5,-60.5 476.5,-79.5 577.5,-79.5 577.5,-60.5 476.5,-60.5"/>
<text text-anchor="middle" x="527" y="-67.5" font-family="Helvetica,sans-Serif" font-size="10.00">infra::OutputStream</text>
</a>
</g>
</g>
<!-- Node10&#45;&gt;Node14 -->
<g id="edge13" class="edge"><title>Node10&#45;&gt;Node14</title>
<path fill="none" stroke="#9a32cd" stroke-dasharray="5,2" d="M122.784,-91.8427C214.354,-86.8822 390.322,-77.3498 476.283,-72.6932"/>
<polygon fill="#9a32cd" stroke="#9a32cd" points="122.379,-88.3594 112.583,-92.3953 122.757,-95.3492 122.379,-88.3594"/>
<text text-anchor="middle" x="298" y="-89" font-family="Helvetica,sans-Serif" font-size="10.00"> writer</text>
</g>
<!-- Node11 -->
<g id="node7" class="node"><title>Node11</title>
<polygon fill="white" stroke="#bfbfbf" points="42,-176.5 42,-195.5 85,-195.5 85,-176.5 42,-176.5"/>
<text text-anchor="middle" x="63.5" y="-183.5" font-family="Helvetica,sans-Serif" font-size="10.00">size_t</text>
</g>
<!-- Node11&#45;&gt;Node9 -->
<g id="edge6" class="edge"><title>Node11&#45;&gt;Node9</title>
<path fill="none" stroke="#9a32cd" stroke-dasharray="5,2" d="M95.386,-180.458C124.097,-175.223 168.026,-167.002 206,-159 222.817,-155.456 241.31,-151.247 257.206,-147.531"/>
<polygon fill="#9a32cd" stroke="#9a32cd" points="94.3858,-177.082 85.1713,-182.312 95.6355,-183.97 94.3858,-177.082"/>
<text text-anchor="middle" x="175.5" y="-173" font-family="Helvetica,sans-Serif" font-size="10.00"> offset</text>
</g>
<!-- Node12 -->
<g id="node8" class="node"><title>Node12</title>
<polygon fill="white" stroke="#bfbfbf" points="0,-138.5 0,-157.5 127,-157.5 127,-138.5 0,-138.5"/>
<text text-anchor="middle" x="63.5" y="-145.5" font-family="Helvetica,sans-Serif" font-size="10.00">MemoryRange&lt; uint8_t &gt;</text>
</g>
<!-- Node12&#45;&gt;Node9 -->
<g id="edge7" class="edge"><title>Node12&#45;&gt;Node9</title>
<path fill="none" stroke="#9a32cd" stroke-dasharray="5,2" d="M137.112,-144.877C164.767,-143.687 196.276,-142.332 223.97,-141.141"/>
<polygon fill="#9a32cd" stroke="#9a32cd" points="136.952,-141.38 127.112,-145.307 137.253,-148.374 136.952,-141.38"/>
<text text-anchor="middle" x="175.5" y="-147" font-family="Helvetica,sans-Serif" font-size="10.00"> streamRange</text>
</g>
<!-- Node13 -->
<g id="node9" class="node"><title>Node13</title>
<g id="a_node9"><a xlink:href="../../d6/d7d/classinfra_1_1_data_output_stream.html" target="_top" xlink:title="infra::DataOutputStream">
<polygon fill="white" stroke="black" points="716.5,-60.5 716.5,-79.5 838.5,-79.5 838.5,-60.5 716.5,-60.5"/>
<text text-anchor="middle" x="777.5" y="-67.5" font-family="Helvetica,sans-Serif" font-size="10.00">infra::DataOutputStream</text>
</a>
</g>
</g>
<!-- Node13&#45;&gt;Node6 -->
<g id="edge8" class="edge"><title>Node13&#45;&gt;Node6</title>
<path fill="none" stroke="midnightblue" d="M848.763,-70C868.498,-70 890.009,-70 909.932,-70"/>
<polygon fill="midnightblue" stroke="midnightblue" points="848.622,-66.5001 838.622,-70 848.622,-73.5001 848.622,-66.5001"/>
</g>
<!-- Node14&#45;&gt;Node13 -->
<g id="edge9" class="edge"><title>Node14&#45;&gt;Node13</title>
<path fill="none" stroke="midnightblue" d="M587.833,-70C626.769,-70 677.371,-70 716.367,-70"/>
<polygon fill="midnightblue" stroke="midnightblue" points="587.69,-66.5001 577.69,-70 587.69,-73.5001 587.69,-66.5001"/>
</g>
<!-- Node15 -->
<g id="node11" class="node"><title>Node15</title>
<g id="a_node11"><a xlink:href="../../d5/d4a/classinfra_1_1_stream_error_policy.html" target="_top" xlink:title="infra::StreamErrorPolicy">
<polygon fill="white" stroke="black" points="238,-27.5 238,-46.5 358,-46.5 358,-27.5 238,-27.5"/>
<text text-anchor="middle" x="298" y="-34.5" font-family="Helvetica,sans-Serif" font-size="10.00">infra::StreamErrorPolicy</text>
</a>
</g>
</g>
<!-- Node15&#45;&gt;Node6 -->
<g id="edge14" class="edge"><title>Node15&#45;&gt;Node6</title>
<path fill="none" stroke="#9a32cd" stroke-dasharray="5,2" d="M368.378,-35.4374C476.491,-33.7351 691.592,-33.287 873,-51 885.012,-52.1728 897.686,-53.892 909.999,-55.8241"/>
<polygon fill="#9a32cd" stroke="#9a32cd" points="368.195,-31.9398 358.254,-35.6054 368.311,-38.9389 368.195,-31.9398"/>
<text text-anchor="middle" x="639" y="-40" font-family="Helvetica,sans-Serif" font-size="10.00"> errorPolicy</text>
</g>
<!-- Node15&#45;&gt;Node14 -->
<g id="edge10" class="edge"><title>Node15&#45;&gt;Node14</title>
<path fill="none" stroke="#9a32cd" stroke-dasharray="5,2" d="M368.189,-47.0583C403.141,-52.1394 444.743,-58.1873 476.456,-62.7975"/>
<polygon fill="#9a32cd" stroke="#9a32cd" points="368.449,-43.5593 358.049,-45.5842 367.441,-50.4865 368.449,-43.5593"/>
<text text-anchor="middle" x="415" y="-60" font-family="Helvetica,sans-Serif" font-size="10.00"> errorPolicy</text>
</g>
<!-- Node16 -->
<g id="node12" class="node"><title>Node16</title>
<polygon fill="white" stroke="#bfbfbf" points="46,-38.5 46,-57.5 81,-57.5 81,-38.5 46,-38.5"/>
<text text-anchor="middle" x="63.5" y="-45.5" font-family="Helvetica,sans-Serif" font-size="10.00">bool</text>
</g>
<!-- Node16&#45;&gt;Node15 -->
<g id="edge11" class="edge"><title>Node16&#45;&gt;Node15</title>
<path fill="none" stroke="#9a32cd" stroke-dasharray="5,2" d="M91.3044,-46.7318C126.875,-45.0489 190.67,-42.0307 237.814,-39.8002"/>
<polygon fill="#9a32cd" stroke="#9a32cd" points="91.0442,-43.2401 81.2208,-47.2089 91.3751,-50.2323 91.0442,-43.2401"/>
<text text-anchor="middle" x="175.5" y="-58" font-family="Helvetica,sans-Serif" font-size="10.00"> checkedFail</text>
<text text-anchor="middle" x="175.5" y="-47" font-family="Helvetica,sans-Serif" font-size="10.00">failed</text>
</g>
<!-- Node17 -->
<g id="node13" class="node"><title>Node17</title>
<polygon fill="white" stroke="#bfbfbf" points="28.5,-0.5 28.5,-19.5 98.5,-19.5 98.5,-0.5 28.5,-0.5"/>
<text text-anchor="middle" x="63.5" y="-7.5" font-family="Helvetica,sans-Serif" font-size="10.00">FailureMode</text>
</g>
<!-- Node17&#45;&gt;Node15 -->
<g id="edge12" class="edge"><title>Node17&#45;&gt;Node15</title>
<path fill="none" stroke="#9a32cd" stroke-dasharray="5,2" d="M108.764,-14.9165C136.667,-18.0377 173.449,-22.1923 206,-26 216.274,-27.2018 227.197,-28.5024 237.778,-29.7743"/>
<polygon fill="#9a32cd" stroke="#9a32cd" points="108.859,-11.4055 98.5319,-13.7738 108.082,-18.3622 108.859,-11.4055"/>
<text text-anchor="middle" x="175.5" y="-29" font-family="Helvetica,sans-Serif" font-size="10.00"> failureMode</text>
</g>
</g>
</svg>
