<?xml version="1.0" encoding="UTF-8" standalone="no"?>
<!DOCTYPE svg PUBLIC "-//W3C//DTD SVG 1.1//EN"
 "http://www.w3.org/Graphics/SVG/1.1/DTD/svg11.dtd">
<!-- Generated by graphviz version 2.38.0 (20140413.2041)
 -->
<!-- Title: services::ConfigurationStoreBase::OnBlobLoaded Pages: 1 -->
<svg width="318pt" height="78pt"
 viewBox="0.00 0.00 318.00 77.50" xmlns="http://www.w3.org/2000/svg" xmlns:xlink="http://www.w3.org/1999/xlink">
<g id="graph0" class="graph" transform="scale(1 1) rotate(0) translate(4 73.5)">
<title>services::ConfigurationStoreBase::OnBlobLoaded</title>
<polygon fill="white" stroke="none" points="-4,4 -4,-73.5 314,-73.5 314,4 -4,4"/>
<!-- Node23 -->
<g id="node1" class="node"><title>Node23</title>
<polygon fill="#bfbfbf" stroke="black" points="0,-17 0,-47 137,-47 137,-17 0,-17"/>
<text text-anchor="start" x="8" y="-35" font-family="Helvetica,sans-Serif" font-size="10.00">services::ConfigurationStore</text>
<text text-anchor="middle" x="68.5" y="-24" font-family="Helvetica,sans-Serif" font-size="10.00">Base::OnBlobLoaded</text>
</g>
<!-- Node24 -->
<g id="node2" class="node"><title>Node24</title>
<g id="a_node2"><a xlink:href="../../d4/dc9/classservices_1_1_configuration_store_base.html#aa8acc547f66f4216c8f660878250ebfe" target="_top" xlink:title="services::ConfigurationStore\lBase::Deserialize">
<polygon fill="white" stroke="black" points="173,-39 173,-69 310,-69 310,-39 173,-39"/>
<text text-anchor="start" x="181" y="-57" font-family="Helvetica,sans-Serif" font-size="10.00">services::ConfigurationStore</text>
<text text-anchor="middle" x="241.5" y="-46" font-family="Helvetica,sans-Serif" font-size="10.00">Base::Deserialize</text>
</a>
</g>
</g>
<!-- Node23&#45;&gt;Node24 -->
<g id="edge1" class="edge"><title>Node23&#45;&gt;Node24</title>
<path fill="none" stroke="midnightblue" d="M137.084,-40.695C145.538,-41.7827 154.237,-42.9019 162.83,-44.0074"/>
<polygon fill="midnightblue" stroke="midnightblue" points="162.482,-47.4914 172.847,-45.2961 163.376,-40.5486 162.482,-47.4914"/>
</g>
<!-- Node25 -->
<g id="node3" class="node"><title>Node25</title>
<g id="a_node3"><a xlink:href="../../d0/de3/namespaceinfra.html#a032811931ada58a358282ecfcfd58de5" target="_top" xlink:title="infra::swap">
<polygon fill="white" stroke="black" points="210,-0.5 210,-19.5 273,-19.5 273,-0.5 210,-0.5"/>
<text text-anchor="middle" x="241.5" y="-7.5" font-family="Helvetica,sans-Serif" font-size="10.00">infra::swap</text>
</a>
</g>
</g>
<!-- Node23&#45;&gt;Node25 -->
<g id="edge2" class="edge"><title>Node23&#45;&gt;Node25</title>
<path fill="none" stroke="midnightblue" d="M137.084,-23.305C158.351,-20.5689 181.167,-17.6335 199.943,-15.2179"/>
<polygon fill="midnightblue" stroke="midnightblue" points="200.451,-18.6815 209.922,-13.934 199.558,-11.7387 200.451,-18.6815"/>
</g>
</g>
</svg>
