<?xml version="1.0" encoding="UTF-8" standalone="no"?>
<!DOCTYPE svg PUBLIC "-//W3C//DTD SVG 1.1//EN"
 "http://www.w3.org/Graphics/SVG/1.1/DTD/svg11.dtd">
<!-- Generated by graphviz version 2.38.0 (20140413.2041)
 -->
<!-- Title: services::ConfigurationStoreBase::Recover Pages: 1 -->
<svg width="491pt" height="176pt"
 viewBox="0.00 0.00 491.00 176.00" xmlns="http://www.w3.org/2000/svg" xmlns:xlink="http://www.w3.org/1999/xlink">
<g id="graph0" class="graph" transform="scale(1 1) rotate(0) translate(4 172)">
<title>services::ConfigurationStoreBase::Recover</title>
<polygon fill="white" stroke="none" points="-4,4 -4,-172 487,-172 487,4 -4,4"/>
<!-- Node31 -->
<g id="node1" class="node"><title>Node31</title>
<polygon fill="#bfbfbf" stroke="black" points="0,-66.5 0,-96.5 137,-96.5 137,-66.5 0,-66.5"/>
<text text-anchor="start" x="8" y="-84.5" font-family="Helvetica,sans-Serif" font-size="10.00">services::ConfigurationStore</text>
<text text-anchor="middle" x="68.5" y="-73.5" font-family="Helvetica,sans-Serif" font-size="10.00">Base::Recover</text>
</g>
<!-- Node32 -->
<g id="node2" class="node"><title>Node32</title>
<g id="a_node2"><a xlink:href="../../d1/da2/classservices_1_1_configuration_blob.html#a279b97e0a18250115b470e71b57dad3e" target="_top" xlink:title="services::ConfigurationBlob\l::Erase">
<polygon fill="white" stroke="black" points="174.5,-137.5 174.5,-167.5 308.5,-167.5 308.5,-137.5 174.5,-137.5"/>
<text text-anchor="start" x="182.5" y="-155.5" font-family="Helvetica,sans-Serif" font-size="10.00">services::ConfigurationBlob</text>
<text text-anchor="middle" x="241.5" y="-144.5" font-family="Helvetica,sans-Serif" font-size="10.00">::Erase</text>
</a>
</g>
</g>
<!-- Node31&#45;&gt;Node32 -->
<g id="edge1" class="edge"><title>Node31&#45;&gt;Node32</title>
<path fill="none" stroke="midnightblue" d="M100.908,-96.5999C121.273,-106.181 148.481,-118.595 173,-128.5 177.451,-130.298 182.093,-132.099 186.769,-133.862"/>
<polygon fill="midnightblue" stroke="midnightblue" points="185.77,-137.224 196.363,-137.413 188.199,-130.659 185.77,-137.224"/>
</g>
<!-- Node33 -->
<g id="node3" class="node"><title>Node33</title>
<g id="a_node3"><a xlink:href="../../d4/dc9/classservices_1_1_configuration_store_base.html#a684451c2d4b570d28b31d0e91a8717b1" target="_top" xlink:title="services::ConfigurationStore\lBase::OnBlobLoaded">
<polygon fill="white" stroke="black" points="173,-88.5 173,-118.5 310,-118.5 310,-88.5 173,-88.5"/>
<text text-anchor="start" x="181" y="-106.5" font-family="Helvetica,sans-Serif" font-size="10.00">services::ConfigurationStore</text>
<text text-anchor="middle" x="241.5" y="-95.5" font-family="Helvetica,sans-Serif" font-size="10.00">Base::OnBlobLoaded</text>
</a>
</g>
</g>
<!-- Node31&#45;&gt;Node33 -->
<g id="edge2" class="edge"><title>Node31&#45;&gt;Node33</title>
<path fill="none" stroke="midnightblue" d="M137.084,-90.195C145.538,-91.2827 154.237,-92.4019 162.83,-93.5074"/>
<polygon fill="midnightblue" stroke="midnightblue" points="162.482,-96.9914 172.847,-94.7961 163.376,-90.0486 162.482,-96.9914"/>
</g>
<!-- Node35 -->
<g id="node5" class="node"><title>Node35</title>
<g id="a_node5"><a xlink:href="../../d0/de3/namespaceinfra.html#a032811931ada58a358282ecfcfd58de5" target="_top" xlink:title="infra::swap">
<polygon fill="white" stroke="black" points="383,-50 383,-69 446,-69 446,-50 383,-50"/>
<text text-anchor="middle" x="414.5" y="-57" font-family="Helvetica,sans-Serif" font-size="10.00">infra::swap</text>
</a>
</g>
</g>
<!-- Node31&#45;&gt;Node35 -->
<g id="edge6" class="edge"><title>Node31&#45;&gt;Node35</title>
<path fill="none" stroke="midnightblue" d="M137.053,-77.1798C207.05,-72.7032 314.19,-65.8512 372.397,-62.1287"/>
<polygon fill="midnightblue" stroke="midnightblue" points="372.92,-65.6024 382.677,-61.4713 372.474,-58.6167 372.92,-65.6024"/>
</g>
<!-- Node36 -->
<g id="node6" class="node"><title>Node36</title>
<g id="a_node6"><a xlink:href="../../d1/da2/classservices_1_1_configuration_blob.html#a071805fa86dd447aac99b9711bf54f72" target="_top" xlink:title="services::ConfigurationBlob\l::Recover">
<polygon fill="white" stroke="black" points="174.5,-0.5 174.5,-30.5 308.5,-30.5 308.5,-0.5 174.5,-0.5"/>
<text text-anchor="start" x="182.5" y="-18.5" font-family="Helvetica,sans-Serif" font-size="10.00">services::ConfigurationBlob</text>
<text text-anchor="middle" x="241.5" y="-7.5" font-family="Helvetica,sans-Serif" font-size="10.00">::Recover</text>
</a>
</g>
</g>
<!-- Node31&#45;&gt;Node36 -->
<g id="edge5" class="edge"><title>Node31&#45;&gt;Node36</title>
<path fill="none" stroke="midnightblue" d="M108.731,-66.3583C133.496,-56.7999 165.672,-44.3811 192.029,-34.2081"/>
<polygon fill="midnightblue" stroke="midnightblue" points="193.383,-37.4373 201.452,-30.5713 190.862,-30.9069 193.383,-37.4373"/>
</g>
<!-- Node34 -->
<g id="node4" class="node"><title>Node34</title>
<g id="a_node4"><a xlink:href="../../d4/dc9/classservices_1_1_configuration_store_base.html#aa8acc547f66f4216c8f660878250ebfe" target="_top" xlink:title="services::ConfigurationStore\lBase::Deserialize">
<polygon fill="white" stroke="black" points="346,-88.5 346,-118.5 483,-118.5 483,-88.5 346,-88.5"/>
<text text-anchor="start" x="354" y="-106.5" font-family="Helvetica,sans-Serif" font-size="10.00">services::ConfigurationStore</text>
<text text-anchor="middle" x="414.5" y="-95.5" font-family="Helvetica,sans-Serif" font-size="10.00">Base::Deserialize</text>
</a>
</g>
</g>
<!-- Node33&#45;&gt;Node34 -->
<g id="edge3" class="edge"><title>Node33&#45;&gt;Node34</title>
<path fill="none" stroke="midnightblue" d="M310.084,-103.5C318.538,-103.5 327.237,-103.5 335.83,-103.5"/>
<polygon fill="midnightblue" stroke="midnightblue" points="335.847,-107 345.847,-103.5 335.847,-100 335.847,-107"/>
</g>
<!-- Node33&#45;&gt;Node35 -->
<g id="edge4" class="edge"><title>Node33&#45;&gt;Node35</title>
<path fill="none" stroke="midnightblue" d="M300.87,-88.4808C324.591,-82.3771 351.42,-75.4737 372.942,-69.936"/>
<polygon fill="midnightblue" stroke="midnightblue" points="373.922,-73.2979 382.734,-67.4163 372.177,-66.5188 373.922,-73.2979"/>
</g>
</g>
</svg>
