<?xml version="1.0" encoding="UTF-8" standalone="no"?>
<!DOCTYPE svg PUBLIC "-//W3C//DTD SVG 1.1//EN"
 "http://www.w3.org/Graphics/SVG/1.1/DTD/svg11.dtd">
<!-- Generated by graphviz version 2.38.0 (20140413.2041)
 -->
<!-- Title: services::ConfigurationStoreBase::Erase Pages: 1 -->
<svg width="485pt" height="50pt"
 viewBox="0.00 0.00 485.00 50.00" xmlns="http://www.w3.org/2000/svg" xmlns:xlink="http://www.w3.org/1999/xlink">
<g id="graph0" class="graph" transform="scale(1 1) rotate(0) translate(4 46)">
<title>services::ConfigurationStoreBase::Erase</title>
<polygon fill="white" stroke="none" points="-4,4 -4,-46 481,-46 481,4 -4,4"/>
<!-- Node17 -->
<g id="node1" class="node"><title>Node17</title>
<polygon fill="#bfbfbf" stroke="black" points="0,-6 0,-36 137,-36 137,-6 0,-6"/>
<text text-anchor="start" x="8" y="-24" font-family="Helvetica,sans-Serif" font-size="10.00">services::ConfigurationStore</text>
<text text-anchor="middle" x="68.5" y="-13" font-family="Helvetica,sans-Serif" font-size="10.00">Base::Erase</text>
</g>
<!-- Node18 -->
<g id="node2" class="node"><title>Node18</title>
<g id="a_node2"><a xlink:href="../../de/def/classservices_1_1_factory_default_configuration_store_base.html#a18e689846f9181d7346dcdec30c6a496" target="_top" xlink:title="services::FactoryDefault\lConfigurationStoreBase\l::Recover">
<polygon fill="white" stroke="black" points="173,-0.5 173,-41.5 294,-41.5 294,-0.5 173,-0.5"/>
<text text-anchor="start" x="181" y="-29.5" font-family="Helvetica,sans-Serif" font-size="10.00">services::FactoryDefault</text>
<text text-anchor="start" x="181" y="-18.5" font-family="Helvetica,sans-Serif" font-size="10.00">ConfigurationStoreBase</text>
<text text-anchor="middle" x="233.5" y="-7.5" font-family="Helvetica,sans-Serif" font-size="10.00">::Recover</text>
</a>
</g>
</g>
<!-- Node17&#45;&gt;Node18 -->
<g id="edge1" class="edge"><title>Node17&#45;&gt;Node18</title>
<path fill="none" stroke="midnightblue" d="M147.245,-21C155.835,-21 164.48,-21 172.798,-21"/>
<polygon fill="midnightblue" stroke="midnightblue" points="147.211,-17.5001 137.211,-21 147.211,-24.5001 147.211,-17.5001"/>
</g>
<!-- Node19 -->
<g id="node3" class="node"><title>Node19</title>
<g id="a_node3"><a xlink:href="../../d8/dd1/classservices_1_1_factory_default_configuration_store_1_1_with_blobs.html#a3520533efb23c697e00a7ac30419c5cb" target="_top" xlink:title="services::FactoryDefault\lConfigurationStore::WithBlobs\l::WithBlobs">
<polygon fill="white" stroke="black" points="330,-0.5 330,-41.5 477,-41.5 477,-0.5 330,-0.5"/>
<text text-anchor="start" x="338" y="-29.5" font-family="Helvetica,sans-Serif" font-size="10.00">services::FactoryDefault</text>
<text text-anchor="start" x="338" y="-18.5" font-family="Helvetica,sans-Serif" font-size="10.00">ConfigurationStore::WithBlobs</text>
<text text-anchor="middle" x="403.5" y="-7.5" font-family="Helvetica,sans-Serif" font-size="10.00">::WithBlobs</text>
</a>
</g>
</g>
<!-- Node18&#45;&gt;Node19 -->
<g id="edge2" class="edge"><title>Node18&#45;&gt;Node19</title>
<path fill="none" stroke="midnightblue" d="M304.325,-21C312.721,-21 321.311,-21 329.748,-21"/>
<polygon fill="midnightblue" stroke="midnightblue" points="304.204,-17.5001 294.204,-21 304.204,-24.5001 304.204,-17.5001"/>
</g>
</g>
</svg>
