<?xml version="1.0" encoding="UTF-8" standalone="no"?>
<!DOCTYPE svg PUBLIC "-//W3C//DTD SVG 1.1//EN"
 "http://www.w3.org/Graphics/SVG/1.1/DTD/svg11.dtd">
<!-- Generated by graphviz version 2.38.0 (20140413.2041)
 -->
<!-- Title: services::DnsResolver::HostnamePartsStream Pages: 1 -->
<svg width="1210pt" height="254pt"
 viewBox="0.00 0.00 1210.00 253.50" xmlns="http://www.w3.org/2000/svg" xmlns:xlink="http://www.w3.org/1999/xlink">
<g id="graph0" class="graph" transform="scale(1 1) rotate(0) translate(4 249.5)">
<title>services::DnsResolver::HostnamePartsStream</title>
<polygon fill="white" stroke="none" points="-4,4 -4,-249.5 1206,-249.5 1206,4 -4,4"/>
<!-- Node2 -->
<g id="node1" class="node"><title>Node2</title>
<polygon fill="#bfbfbf" stroke="black" points="1080,-122 1080,-152 1202,-152 1202,-122 1080,-122"/>
<text text-anchor="start" x="1088" y="-140" font-family="Helvetica,sans-Serif" font-size="10.00">services::DnsResolver</text>
<text text-anchor="middle" x="1141" y="-129" font-family="Helvetica,sans-Serif" font-size="10.00">::HostnamePartsStream</text>
</g>
<!-- Node3 -->
<g id="node2" class="node"><title>Node3</title>
<g id="a_node2"><a xlink:href="../../dc/dfe/classservices_1_1_dns_resolver_1_1_hostname_parts.html" target="_top" xlink:title="services::DnsResolver\l::HostnameParts">
<polygon fill="white" stroke="black" points="862.5,-215 862.5,-245 974.5,-245 974.5,-215 862.5,-215"/>
<text text-anchor="start" x="870.5" y="-233" font-family="Helvetica,sans-Serif" font-size="10.00">services::DnsResolver</text>
<text text-anchor="middle" x="918.5" y="-222" font-family="Helvetica,sans-Serif" font-size="10.00">::HostnameParts</text>
</a>
</g>
</g>
<!-- Node3&#45;&gt;Node2 -->
<g id="edge1" class="edge"><title>Node3&#45;&gt;Node2</title>
<path fill="none" stroke="midnightblue" d="M978.478,-211.758C1004.48,-203.094 1035.15,-192.009 1062,-180 1080.35,-171.791 1100.18,-160.831 1115.25,-152.031"/>
<polygon fill="midnightblue" stroke="midnightblue" points="977.165,-208.506 968.761,-214.957 979.354,-215.155 977.165,-208.506"/>
</g>
<!-- Node4 -->
<g id="node3" class="node"><title>Node4</title>
<g id="a_node3"><a xlink:href="../../d2/d40/classinfra_1_1_with_storage.html" target="_top" xlink:title="infra::WithStorage\l\&lt; 63 \&gt;">
<polygon fill="white" stroke="black" points="871,-166 871,-196 966,-196 966,-166 871,-166"/>
<text text-anchor="start" x="879" y="-184" font-family="Helvetica,sans-Serif" font-size="10.00">infra::WithStorage</text>
<text text-anchor="middle" x="918.5" y="-173" font-family="Helvetica,sans-Serif" font-size="10.00">&lt; 63 &gt;</text>
</a>
</g>
</g>
<!-- Node4&#45;&gt;Node2 -->
<g id="edge2" class="edge"><title>Node4&#45;&gt;Node2</title>
<path fill="none" stroke="#9a32cd" stroke-dasharray="5,2" d="M976.279,-169.67C1008.03,-163.334 1047.6,-155.439 1079.87,-148.998"/>
<polygon fill="#9a32cd" stroke="#9a32cd" points="975.384,-166.279 966.262,-171.669 976.754,-173.144 975.384,-166.279"/>
<text text-anchor="middle" x="1027.5" y="-168" font-family="Helvetica,sans-Serif" font-size="10.00"> label</text>
</g>
<!-- Node5 -->
<g id="node4" class="node"><title>Node5</title>
<g id="a_node4"><a xlink:href="../../d9/d00/classinfra_1_1detail_1_1_storage_holder.html" target="_top" xlink:title="infra::detail::StorageHolder\l\&lt; StorageType, 63 \&gt;">
<polygon fill="white" stroke="black" points="664,-132 664,-162 795,-162 795,-132 664,-132"/>
<text text-anchor="start" x="672" y="-150" font-family="Helvetica,sans-Serif" font-size="10.00">infra::detail::StorageHolder</text>
<text text-anchor="middle" x="729.5" y="-139" font-family="Helvetica,sans-Serif" font-size="10.00">&lt; StorageType, 63 &gt;</text>
</a>
</g>
</g>
<!-- Node5&#45;&gt;Node4 -->
<g id="edge3" class="edge"><title>Node5&#45;&gt;Node4</title>
<path fill="none" stroke="#8b1a1a" d="M805.185,-160.579C827.366,-164.612 851.02,-168.913 870.871,-172.522"/>
<polygon fill="#8b1a1a" stroke="#8b1a1a" points="805.581,-157.094 795.117,-158.748 804.329,-163.981 805.581,-157.094"/>
</g>
<!-- Node6 -->
<g id="node5" class="node"><title>Node6</title>
<polygon fill="white" stroke="#bfbfbf" points="379,-137.5 379,-156.5 450,-156.5 450,-137.5 379,-137.5"/>
<text text-anchor="middle" x="414.5" y="-144.5" font-family="Helvetica,sans-Serif" font-size="10.00">StorageType</text>
</g>
<!-- Node6&#45;&gt;Node5 -->
<g id="edge4" class="edge"><title>Node6&#45;&gt;Node5</title>
<path fill="none" stroke="#9a32cd" stroke-dasharray="5,2" d="M460.351,-147C513.64,-147 602.962,-147 663.744,-147"/>
<polygon fill="#9a32cd" stroke="#9a32cd" points="460.192,-143.5 450.192,-147 460.192,-150.5 460.192,-143.5"/>
<text text-anchor="middle" x="562.5" y="-150" font-family="Helvetica,sans-Serif" font-size="10.00"> storage</text>
</g>
<!-- Node7 -->
<g id="node6" class="node"><title>Node7</title>
<polygon fill="white" stroke="#bfbfbf" points="715,-181.5 715,-200.5 744,-200.5 744,-181.5 715,-181.5"/>
<text text-anchor="middle" x="729.5" y="-188.5" font-family="Helvetica,sans-Serif" font-size="10.00">63</text>
</g>
<!-- Node7&#45;&gt;Node4 -->
<g id="edge5" class="edge"><title>Node7&#45;&gt;Node4</title>
<path fill="none" stroke="midnightblue" d="M754.365,-189.724C783.622,-188.159 833.873,-185.472 870.892,-183.492"/>
<polygon fill="midnightblue" stroke="midnightblue" points="754.049,-186.236 744.251,-190.265 754.423,-193.226 754.049,-186.236"/>
</g>
<!-- Node8 -->
<g id="node7" class="node"><title>Node8</title>
<polygon fill="white" stroke="#bfbfbf" points="893,-127.5 893,-146.5 944,-146.5 944,-127.5 893,-127.5"/>
<text text-anchor="middle" x="918.5" y="-134.5" font-family="Helvetica,sans-Serif" font-size="10.00">uint32_t</text>
</g>
<!-- Node8&#45;&gt;Node2 -->
<g id="edge6" class="edge"><title>Node8&#45;&gt;Node2</title>
<path fill="none" stroke="#9a32cd" stroke-dasharray="5,2" d="M954.635,-137C988.307,-137 1039.8,-137 1079.98,-137"/>
<polygon fill="#9a32cd" stroke="#9a32cd" points="954.366,-133.5 944.366,-137 954.365,-140.5 954.366,-133.5"/>
<text text-anchor="middle" x="1027.5" y="-140" font-family="Helvetica,sans-Serif" font-size="10.00"> streamPosition</text>
</g>
<!-- Node9 -->
<g id="node8" class="node"><title>Node9</title>
<g id="a_node8"><a xlink:href="../../d6/deb/classinfra_1_1_data_input_stream_1_1_with_error_policy.html" target="_top" xlink:title="infra::DataInputStream\l::WithErrorPolicy">
<polygon fill="white" stroke="black" points="862,-38 862,-68 975,-68 975,-38 862,-38"/>
<text text-anchor="start" x="870" y="-56" font-family="Helvetica,sans-Serif" font-size="10.00">infra::DataInputStream</text>
<text text-anchor="middle" x="918.5" y="-45" font-family="Helvetica,sans-Serif" font-size="10.00">::WithErrorPolicy</text>
</a>
</g>
</g>
<!-- Node9&#45;&gt;Node2 -->
<g id="edge7" class="edge"><title>Node9&#45;&gt;Node2</title>
<path fill="none" stroke="#9a32cd" stroke-dasharray="5,2" d="M985.252,-55.3704C1010.11,-58.127 1038.14,-63.55 1062,-74 1087.51,-85.1749 1111.6,-106.991 1126.08,-121.781"/>
<polygon fill="#9a32cd" stroke="#9a32cd" points="985.472,-51.8751 975.176,-54.3767 984.784,-58.8413 985.472,-51.8751"/>
<text text-anchor="middle" x="1027.5" y="-77" font-family="Helvetica,sans-Serif" font-size="10.00"> stream</text>
</g>
<!-- Node10 -->
<g id="node9" class="node"><title>Node10</title>
<g id="a_node9"><a xlink:href="../../d0/db4/classinfra_1_1_data_input_stream.html" target="_top" xlink:title="infra::DataInputStream">
<polygon fill="white" stroke="black" points="673,-43.5 673,-62.5 786,-62.5 786,-43.5 673,-43.5"/>
<text text-anchor="middle" x="729.5" y="-50.5" font-family="Helvetica,sans-Serif" font-size="10.00">infra::DataInputStream</text>
</a>
</g>
</g>
<!-- Node10&#45;&gt;Node9 -->
<g id="edge8" class="edge"><title>Node10&#45;&gt;Node9</title>
<path fill="none" stroke="midnightblue" d="M796.106,-53C817.549,-53 841.148,-53 861.791,-53"/>
<polygon fill="midnightblue" stroke="midnightblue" points="796.1,-49.5001 786.1,-53 796.1,-56.5001 796.1,-49.5001"/>
</g>
<!-- Node11 -->
<g id="node10" class="node"><title>Node11</title>
<g id="a_node10"><a xlink:href="../../db/dda/classinfra_1_1_input_stream.html" target="_top" xlink:title="infra::InputStream">
<polygon fill="white" stroke="black" points="368,-43.5 368,-62.5 461,-62.5 461,-43.5 368,-43.5"/>
<text text-anchor="middle" x="414.5" y="-50.5" font-family="Helvetica,sans-Serif" font-size="10.00">infra::InputStream</text>
</a>
</g>
</g>
<!-- Node11&#45;&gt;Node10 -->
<g id="edge9" class="edge"><title>Node11&#45;&gt;Node10</title>
<path fill="none" stroke="midnightblue" d="M471.267,-53C528.188,-53 616.026,-53 672.89,-53"/>
<polygon fill="midnightblue" stroke="midnightblue" points="471.013,-49.5001 461.013,-53 471.013,-56.5001 471.013,-49.5001"/>
</g>
<!-- Node12 -->
<g id="node11" class="node"><title>Node12</title>
<g id="a_node11"><a xlink:href="../../d2/d90/classinfra_1_1_stream_reader.html" target="_top" xlink:title="infra::StreamReader">
<polygon fill="white" stroke="black" points="170.5,-83.5 170.5,-102.5 273.5,-102.5 273.5,-83.5 170.5,-83.5"/>
<text text-anchor="middle" x="222" y="-90.5" font-family="Helvetica,sans-Serif" font-size="10.00">infra::StreamReader</text>
</a>
</g>
</g>
<!-- Node12&#45;&gt;Node11 -->
<g id="edge10" class="edge"><title>Node12&#45;&gt;Node11</title>
<path fill="none" stroke="#9a32cd" stroke-dasharray="5,2" d="M278.458,-81.3553C306.991,-75.3641 341.332,-68.1534 368.243,-62.5028"/>
<polygon fill="#9a32cd" stroke="#9a32cd" points="277.697,-77.9387 268.629,-83.419 279.135,-84.7893 277.697,-77.9387"/>
<text text-anchor="middle" x="325" y="-80" font-family="Helvetica,sans-Serif" font-size="10.00"> reader</text>
</g>
<!-- Node16 -->
<g id="node15" class="node"><title>Node16</title>
<g id="a_node15"><a xlink:href="../../d0/d1b/classinfra_1_1_stream_reader_with_rewinding.html" target="_top" xlink:title="infra::StreamReaderWithRewinding">
<polygon fill="white" stroke="black" points="479,-95.5 479,-114.5 646,-114.5 646,-95.5 479,-95.5"/>
<text text-anchor="middle" x="562.5" y="-102.5" font-family="Helvetica,sans-Serif" font-size="10.00">infra::StreamReaderWithRewinding</text>
</a>
</g>
</g>
<!-- Node12&#45;&gt;Node16 -->
<g id="edge16" class="edge"><title>Node12&#45;&gt;Node16</title>
<path fill="none" stroke="midnightblue" d="M283.873,-95.158C338.335,-97.0887 418.638,-99.9355 478.886,-102.071"/>
<polygon fill="midnightblue" stroke="midnightblue" points="283.795,-91.6531 273.677,-94.7965 283.547,-98.6487 283.795,-91.6531"/>
</g>
<!-- Node13 -->
<g id="node12" class="node"><title>Node13</title>
<g id="a_node12"><a xlink:href="../../d5/d4a/classinfra_1_1_stream_error_policy.html" target="_top" xlink:title="infra::StreamErrorPolicy">
<polygon fill="white" stroke="black" points="162,-19.5 162,-38.5 282,-38.5 282,-19.5 162,-19.5"/>
<text text-anchor="middle" x="222" y="-26.5" font-family="Helvetica,sans-Serif" font-size="10.00">infra::StreamErrorPolicy</text>
</a>
</g>
</g>
<!-- Node13&#45;&gt;Node9 -->
<g id="edge14" class="edge"><title>Node13&#45;&gt;Node9</title>
<path fill="none" stroke="#9a32cd" stroke-dasharray="5,2" d="M292.084,-26.379C399.751,-23.0208 614.011,-19.2516 795,-34 816.987,-35.7917 841.005,-39.1945 861.904,-42.6312"/>
<polygon fill="#9a32cd" stroke="#9a32cd" points="291.885,-22.8835 282.002,-26.702 292.109,-29.8799 291.885,-22.8835"/>
<text text-anchor="middle" x="562.5" y="-29" font-family="Helvetica,sans-Serif" font-size="10.00"> errorPolicy</text>
</g>
<!-- Node13&#45;&gt;Node11 -->
<g id="edge11" class="edge"><title>Node13&#45;&gt;Node11</title>
<path fill="none" stroke="#9a32cd" stroke-dasharray="5,2" d="M292.458,-37.7506C317.607,-40.919 345.351,-44.4143 367.925,-47.2583"/>
<polygon fill="#9a32cd" stroke="#9a32cd" points="292.59,-34.2397 282.231,-36.4622 291.715,-41.1848 292.59,-34.2397"/>
<text text-anchor="middle" x="325" y="-48" font-family="Helvetica,sans-Serif" font-size="10.00"> errorPolicy</text>
</g>
<!-- Node14 -->
<g id="node13" class="node"><title>Node14</title>
<polygon fill="white" stroke="#bfbfbf" points="17.5,-38.5 17.5,-57.5 52.5,-57.5 52.5,-38.5 17.5,-38.5"/>
<text text-anchor="middle" x="35" y="-45.5" font-family="Helvetica,sans-Serif" font-size="10.00">bool</text>
</g>
<!-- Node14&#45;&gt;Node13 -->
<g id="edge12" class="edge"><title>Node14&#45;&gt;Node13</title>
<path fill="none" stroke="#9a32cd" stroke-dasharray="5,2" d="M62.8993,-45.2374C88.7485,-42.5826 128.68,-38.4815 161.943,-35.0653"/>
<polygon fill="#9a32cd" stroke="#9a32cd" points="62.3339,-41.7769 52.7438,-46.2804 63.0491,-48.7403 62.3339,-41.7769"/>
<text text-anchor="middle" x="116" y="-57" font-family="Helvetica,sans-Serif" font-size="10.00"> checkedFail</text>
<text text-anchor="middle" x="116" y="-46" font-family="Helvetica,sans-Serif" font-size="10.00">failed</text>
</g>
<!-- Node15 -->
<g id="node14" class="node"><title>Node15</title>
<polygon fill="white" stroke="#bfbfbf" points="0,-0.5 0,-19.5 70,-19.5 70,-0.5 0,-0.5"/>
<text text-anchor="middle" x="35" y="-7.5" font-family="Helvetica,sans-Serif" font-size="10.00">FailureMode</text>
</g>
<!-- Node15&#45;&gt;Node13 -->
<g id="edge13" class="edge"><title>Node15&#45;&gt;Node13</title>
<path fill="none" stroke="#9a32cd" stroke-dasharray="5,2" d="M80.4021,-14.5602C104.778,-17.0636 135.327,-20.2011 161.716,-22.9114"/>
<polygon fill="#9a32cd" stroke="#9a32cd" points="80.6688,-11.0693 70.3635,-13.5292 79.9536,-18.0327 80.6688,-11.0693"/>
<text text-anchor="middle" x="116" y="-24" font-family="Helvetica,sans-Serif" font-size="10.00"> failureMode</text>
</g>
<!-- Node16&#45;&gt;Node2 -->
<g id="edge15" class="edge"><title>Node16&#45;&gt;Node2</title>
<path fill="none" stroke="#9a32cd" stroke-dasharray="5,2" d="M656.585,-105.738C740.063,-106.924 865.852,-110.006 975,-118 1009.8,-120.549 1048.56,-124.933 1079.77,-128.848"/>
<polygon fill="#9a32cd" stroke="#9a32cd" points="656.411,-102.235 646.364,-105.599 656.316,-109.234 656.411,-102.235"/>
<text text-anchor="middle" x="828.5" y="-114" font-family="Helvetica,sans-Serif" font-size="10.00"> reader</text>
</g>
</g>
</svg>
