<?xml version="1.0" encoding="UTF-8" standalone="no"?>
<!DOCTYPE svg PUBLIC "-//W3C//DTD SVG 1.1//EN"
 "http://www.w3.org/Graphics/SVG/1.1/DTD/svg11.dtd">
<!-- Generated by graphviz version 2.38.0 (20140413.2041)
 -->
<!-- Title: hal::ScopedHigh::~ScopedHigh Pages: 1 -->
<svg width="423pt" height="28pt"
 viewBox="0.00 0.00 423.00 28.00" xmlns="http://www.w3.org/2000/svg" xmlns:xlink="http://www.w3.org/1999/xlink">
<g id="graph0" class="graph" transform="scale(1 1) rotate(0) translate(4 24)">
<title>hal::ScopedHigh::~ScopedHigh</title>
<polygon fill="white" stroke="none" points="-4,4 -4,-24 419,-24 419,4 -4,4"/>
<!-- Node4 -->
<g id="node1" class="node"><title>Node4</title>
<polygon fill="#bfbfbf" stroke="black" points="0,-0.5 0,-19.5 152,-19.5 152,-0.5 0,-0.5"/>
<text text-anchor="middle" x="76" y="-7.5" font-family="Helvetica,sans-Serif" font-size="10.00">hal::ScopedHigh::~ScopedHigh</text>
</g>
<!-- Node5 -->
<g id="node2" class="node"><title>Node5</title>
<g id="a_node2"><a xlink:href="../../df/d03/classhal_1_1_output_pin.html#a4e5ec1724078b9b022cbfca7bd88476a" target="_top" xlink:title="hal::OutputPin::Set">
<polygon fill="white" stroke="black" points="188,-0.5 188,-19.5 288,-19.5 288,-0.5 188,-0.5"/>
<text text-anchor="middle" x="238" y="-7.5" font-family="Helvetica,sans-Serif" font-size="10.00">hal::OutputPin::Set</text>
</a>
</g>
</g>
<!-- Node4&#45;&gt;Node5 -->
<g id="edge1" class="edge"><title>Node4&#45;&gt;Node5</title>
<path fill="none" stroke="midnightblue" d="M152.315,-10C160.749,-10 169.254,-10 177.451,-10"/>
<polygon fill="midnightblue" stroke="midnightblue" points="177.641,-13.5001 187.641,-10 177.641,-6.5001 177.641,-13.5001"/>
</g>
<!-- Node6 -->
<g id="node3" class="node"><title>Node6</title>
<g id="a_node3"><a xlink:href="../../d7/d8c/classhal_1_1_gpio_pin.html#a0502d167afa4ed797e3bdb31f5a70452" target="_top" xlink:title="hal::GpioPin::Set">
<polygon fill="white" stroke="black" points="324,-0.5 324,-19.5 415,-19.5 415,-0.5 324,-0.5"/>
<text text-anchor="middle" x="369.5" y="-7.5" font-family="Helvetica,sans-Serif" font-size="10.00">hal::GpioPin::Set</text>
</a>
</g>
</g>
<!-- Node5&#45;&gt;Node6 -->
<g id="edge2" class="edge"><title>Node5&#45;&gt;Node6</title>
<path fill="none" stroke="midnightblue" d="M288.328,-10C296.662,-10 305.357,-10 313.818,-10"/>
<polygon fill="midnightblue" stroke="midnightblue" points="313.982,-13.5001 323.982,-10 313.982,-6.5001 313.982,-13.5001"/>
</g>
</g>
</svg>
