<?xml version="1.0" encoding="UTF-8" standalone="no"?>
<!DOCTYPE svg PUBLIC "-//W3C//DTD SVG 1.1//EN"
 "http://www.w3.org/Graphics/SVG/1.1/DTD/svg11.dtd">
<!-- Generated by graphviz version 2.38.0 (20140413.2041)
 -->
<!-- Title: infra::JsonValueArrayIterator::JsonValueArrayIterator Pages: 1 -->
<svg width="459pt" height="39pt"
 viewBox="0.00 0.00 459.00 39.00" xmlns="http://www.w3.org/2000/svg" xmlns:xlink="http://www.w3.org/1999/xlink">
<g id="graph0" class="graph" transform="scale(1 1) rotate(0) translate(4 35)">
<title>infra::JsonValueArrayIterator::JsonValueArrayIterator</title>
<polygon fill="white" stroke="none" points="-4,4 -4,-35 455,-35 455,4 -4,4"/>
<!-- Node2 -->
<g id="node1" class="node"><title>Node2</title>
<polygon fill="#bfbfbf" stroke="black" points="0,-0.5 0,-30.5 139,-30.5 139,-0.5 0,-0.5"/>
<text text-anchor="start" x="8" y="-18.5" font-family="Helvetica,sans-Serif" font-size="10.00">infra::JsonValueArrayIterator</text>
<text text-anchor="middle" x="69.5" y="-7.5" font-family="Helvetica,sans-Serif" font-size="10.00">::JsonValueArrayIterator</text>
</g>
<!-- Node3 -->
<g id="node2" class="node"><title>Node3</title>
<g id="a_node2"><a xlink:href="../../d8/ddc/classinfra_1_1_json_array_iterator.html#a6c64d86b6174c8e58c67860b2b6d64b5" target="_top" xlink:title="infra::JsonArrayIterator\l::SetError">
<polygon fill="white" stroke="black" points="175,-0.5 175,-30.5 289,-30.5 289,-0.5 175,-0.5"/>
<text text-anchor="start" x="183" y="-18.5" font-family="Helvetica,sans-Serif" font-size="10.00">infra::JsonArrayIterator</text>
<text text-anchor="middle" x="232" y="-7.5" font-family="Helvetica,sans-Serif" font-size="10.00">::SetError</text>
</a>
</g>
</g>
<!-- Node2&#45;&gt;Node3 -->
<g id="edge1" class="edge"><title>Node2&#45;&gt;Node3</title>
<path fill="none" stroke="midnightblue" d="M139.032,-15.5C147.512,-15.5 156.171,-15.5 164.618,-15.5"/>
<polygon fill="midnightblue" stroke="midnightblue" points="164.791,-19.0001 174.791,-15.5 164.791,-12.0001 164.791,-19.0001"/>
</g>
<!-- Node4 -->
<g id="node3" class="node"><title>Node4</title>
<g id="a_node3"><a xlink:href="../../d4/d83/classinfra_1_1_json_array.html#a795cec54b5092d09401f9ce7571e7311" target="_top" xlink:title="infra::JsonArray::SetError">
<polygon fill="white" stroke="black" points="325,-6 325,-25 451,-25 451,-6 325,-6"/>
<text text-anchor="middle" x="388" y="-13" font-family="Helvetica,sans-Serif" font-size="10.00">infra::JsonArray::SetError</text>
</a>
</g>
</g>
<!-- Node3&#45;&gt;Node4 -->
<g id="edge2" class="edge"><title>Node3&#45;&gt;Node4</title>
<path fill="none" stroke="midnightblue" d="M289.033,-15.5C297.378,-15.5 306.078,-15.5 314.7,-15.5"/>
<polygon fill="midnightblue" stroke="midnightblue" points="314.759,-19.0001 324.759,-15.5 314.759,-12.0001 314.759,-19.0001"/>
</g>
</g>
</svg>
