<?xml version="1.0" encoding="UTF-8" standalone="no"?>
<!DOCTYPE svg PUBLIC "-//W3C//DTD SVG 1.1//EN"
 "http://www.w3.org/Graphics/SVG/1.1/DTD/svg11.dtd">
<!-- Generated by graphviz version 2.38.0 (20140413.2041)
 -->
<!-- Title: infra::ClaimableResource::ClaimerBase Pages: 1 -->
<svg width="564pt" height="313pt"
 viewBox="0.00 0.00 564.00 312.50" xmlns="http://www.w3.org/2000/svg" xmlns:xlink="http://www.w3.org/1999/xlink">
<g id="graph0" class="graph" transform="scale(1 1) rotate(0) translate(4 308.5)">
<title>infra::ClaimableResource::ClaimerBase</title>
<polygon fill="white" stroke="none" points="-4,4 -4,-308.5 560,-308.5 560,4 -4,4"/>
<!-- Node0 -->
<g id="node1" class="node"><title>Node0</title>
<polygon fill="#bfbfbf" stroke="black" points="176,-131.5 176,-161.5 301,-161.5 301,-131.5 176,-131.5"/>
<text text-anchor="start" x="184" y="-149.5" font-family="Helvetica,sans-Serif" font-size="10.00">infra::ClaimableResource</text>
<text text-anchor="middle" x="238.5" y="-138.5" font-family="Helvetica,sans-Serif" font-size="10.00">::ClaimerBase</text>
</g>
<!-- Node2 -->
<g id="node3" class="node"><title>Node2</title>
<g id="a_node3"><a xlink:href="../../d7/d6a/classinfra_1_1_claimable_resource_1_1_claimer_with_size.html" target="_top" xlink:title="infra::ClaimableResource\l::ClaimerWithSize\&lt; SERVICES\l_CYCLIC_STORE_FUNCTION_EXTRA_SIZE \&gt;">
<polygon fill="white" stroke="black" points="337,-263 337,-304 556,-304 556,-263 337,-263"/>
<text text-anchor="start" x="345" y="-292" font-family="Helvetica,sans-Serif" font-size="10.00">infra::ClaimableResource</text>
<text text-anchor="start" x="345" y="-281" font-family="Helvetica,sans-Serif" font-size="10.00">::ClaimerWithSize&lt; SERVICES</text>
<text text-anchor="middle" x="446.5" y="-270" font-family="Helvetica,sans-Serif" font-size="10.00">_CYCLIC_STORE_FUNCTION_EXTRA_SIZE &gt;</text>
</a>
</g>
</g>
<!-- Node0&#45;&gt;Node2 -->
<g id="edge2" class="edge"><title>Node0&#45;&gt;Node2</title>
<path fill="none" stroke="midnightblue" d="M254.938,-170.122C272.116,-194.551 302.097,-232.063 337,-253.5 342.745,-257.029 348.913,-260.151 355.284,-262.913"/>
<polygon fill="midnightblue" stroke="midnightblue" points="257.748,-168.032 249.203,-161.768 251.977,-171.993 257.748,-168.032"/>
</g>
<!-- Node3 -->
<g id="node4" class="node"><title>Node3</title>
<g id="a_node4"><a xlink:href="../../d7/d6a/classinfra_1_1_claimable_resource_1_1_claimer_with_size.html" target="_top" xlink:title="infra::ClaimableResource\l::ClaimerWithSize\&lt; SERVICES\l_FLASH_MULTIPLE_ACCESS_FUNCTION\l_EXTRA_SIZE \&gt;">
<polygon fill="white" stroke="black" points="344.5,-191.5 344.5,-243.5 548.5,-243.5 548.5,-191.5 344.5,-191.5"/>
<text text-anchor="start" x="352.5" y="-231.5" font-family="Helvetica,sans-Serif" font-size="10.00">infra::ClaimableResource</text>
<text text-anchor="start" x="352.5" y="-220.5" font-family="Helvetica,sans-Serif" font-size="10.00">::ClaimerWithSize&lt; SERVICES</text>
<text text-anchor="start" x="352.5" y="-209.5" font-family="Helvetica,sans-Serif" font-size="10.00">_FLASH_MULTIPLE_ACCESS_FUNCTION</text>
<text text-anchor="middle" x="446.5" y="-198.5" font-family="Helvetica,sans-Serif" font-size="10.00">_EXTRA_SIZE &gt;</text>
</a>
</g>
</g>
<!-- Node0&#45;&gt;Node3 -->
<g id="edge3" class="edge"><title>Node0&#45;&gt;Node3</title>
<path fill="none" stroke="midnightblue" d="M289.02,-165.238C304.352,-170.917 321.332,-177.083 337,-182.5 345.605,-185.475 354.621,-188.511 363.622,-191.49"/>
<polygon fill="midnightblue" stroke="midnightblue" points="289.806,-161.796 279.213,-161.589 287.365,-168.357 289.806,-161.796"/>
</g>
<!-- Node4 -->
<g id="node5" class="node"><title>Node4</title>
<g id="a_node5"><a xlink:href="../../d7/d6a/classinfra_1_1_claimable_resource_1_1_claimer_with_size.html" target="_top" xlink:title="infra::ClaimableResource\l::ClaimerWithSize\&lt; SERVICES\l_I2C_MULTIPLE_ACCESS_FUNCTION\l_EXTRA_SIZE \&gt;">
<polygon fill="white" stroke="black" points="353,-120.5 353,-172.5 540,-172.5 540,-120.5 353,-120.5"/>
<text text-anchor="start" x="361" y="-160.5" font-family="Helvetica,sans-Serif" font-size="10.00">infra::ClaimableResource</text>
<text text-anchor="start" x="361" y="-149.5" font-family="Helvetica,sans-Serif" font-size="10.00">::ClaimerWithSize&lt; SERVICES</text>
<text text-anchor="start" x="361" y="-138.5" font-family="Helvetica,sans-Serif" font-size="10.00">_I2C_MULTIPLE_ACCESS_FUNCTION</text>
<text text-anchor="middle" x="446.5" y="-127.5" font-family="Helvetica,sans-Serif" font-size="10.00">_EXTRA_SIZE &gt;</text>
</a>
</g>
</g>
<!-- Node0&#45;&gt;Node4 -->
<g id="edge4" class="edge"><title>Node0&#45;&gt;Node4</title>
<path fill="none" stroke="midnightblue" d="M311.113,-146.5C324.523,-146.5 338.719,-146.5 352.663,-146.5"/>
<polygon fill="midnightblue" stroke="midnightblue" points="311.028,-143 301.028,-146.5 311.028,-150 311.028,-143"/>
</g>
<!-- Node5 -->
<g id="node6" class="node"><title>Node5</title>
<g id="a_node6"><a xlink:href="../../d7/d6a/classinfra_1_1_claimable_resource_1_1_claimer_with_size.html" target="_top" xlink:title="infra::ClaimableResource\l::ClaimerWithSize\&lt; SERVICES\l_SPI_MULTIPLE_ACCESS_FUNCTION\l_EXTRA_SIZE \&gt;">
<polygon fill="white" stroke="black" points="352.5,-49.5 352.5,-101.5 540.5,-101.5 540.5,-49.5 352.5,-49.5"/>
<text text-anchor="start" x="360.5" y="-89.5" font-family="Helvetica,sans-Serif" font-size="10.00">infra::ClaimableResource</text>
<text text-anchor="start" x="360.5" y="-78.5" font-family="Helvetica,sans-Serif" font-size="10.00">::ClaimerWithSize&lt; SERVICES</text>
<text text-anchor="start" x="360.5" y="-67.5" font-family="Helvetica,sans-Serif" font-size="10.00">_SPI_MULTIPLE_ACCESS_FUNCTION</text>
<text text-anchor="middle" x="446.5" y="-56.5" font-family="Helvetica,sans-Serif" font-size="10.00">_EXTRA_SIZE &gt;</text>
</a>
</g>
</g>
<!-- Node0&#45;&gt;Node5 -->
<g id="edge5" class="edge"><title>Node0&#45;&gt;Node5</title>
<path fill="none" stroke="midnightblue" d="M289.02,-127.762C304.352,-122.083 321.332,-115.917 337,-110.5 345.605,-107.525 354.621,-104.489 363.622,-101.51"/>
<polygon fill="midnightblue" stroke="midnightblue" points="287.365,-124.643 279.213,-131.411 289.806,-131.204 287.365,-124.643"/>
</g>
<!-- Node6 -->
<g id="node7" class="node"><title>Node6</title>
<g id="a_node7"><a xlink:href="../../d7/d6a/classinfra_1_1_claimable_resource_1_1_claimer_with_size.html" target="_top" xlink:title="infra::ClaimableResource\l::ClaimerWithSize\&lt; ExtraSize \&gt;">
<polygon fill="white" stroke="black" points="368.5,-0.5 368.5,-30.5 524.5,-30.5 524.5,-0.5 368.5,-0.5"/>
<text text-anchor="start" x="376.5" y="-18.5" font-family="Helvetica,sans-Serif" font-size="10.00">infra::ClaimableResource</text>
<text text-anchor="middle" x="446.5" y="-7.5" font-family="Helvetica,sans-Serif" font-size="10.00">::ClaimerWithSize&lt; ExtraSize &gt;</text>
</a>
</g>
</g>
<!-- Node0&#45;&gt;Node6 -->
<g id="edge6" class="edge"><title>Node0&#45;&gt;Node6</title>
<path fill="none" stroke="midnightblue" d="M254.444,-122.919C271.394,-98.1965 301.357,-60.1337 337,-39.5 346.6,-33.9424 357.362,-29.6706 368.278,-26.3873"/>
<polygon fill="midnightblue" stroke="midnightblue" points="251.445,-121.107 248.802,-131.367 257.267,-124.995 251.445,-121.107"/>
</g>
<!-- Node1 -->
<g id="node2" class="node"><title>Node1</title>
<g id="a_node2"><a xlink:href="../../d7/da5/classinfra_1_1detail_1_1_intrusive_list_node.html" target="_top" xlink:title="infra::IntrusiveList\l\&lt; ClaimerBase \&gt;::NodeType">
<polygon fill="white" stroke="black" points="0,-131.5 0,-161.5 140,-161.5 140,-131.5 0,-131.5"/>
<text text-anchor="start" x="8" y="-149.5" font-family="Helvetica,sans-Serif" font-size="10.00">infra::IntrusiveList</text>
<text text-anchor="middle" x="70" y="-138.5" font-family="Helvetica,sans-Serif" font-size="10.00">&lt; ClaimerBase &gt;::NodeType</text>
</a>
</g>
</g>
<!-- Node1&#45;&gt;Node0 -->
<g id="edge1" class="edge"><title>Node1&#45;&gt;Node0</title>
<path fill="none" stroke="midnightblue" d="M150.262,-146.5C158.905,-146.5 167.606,-146.5 175.99,-146.5"/>
<polygon fill="midnightblue" stroke="midnightblue" points="150.165,-143 140.165,-146.5 150.164,-150 150.165,-143"/>
</g>
</g>
</svg>
