<?xml version="1.0" encoding="UTF-8" standalone="no"?>
<!DOCTYPE svg PUBLIC "-//W3C//DTD SVG 1.1//EN"
 "http://www.w3.org/Graphics/SVG/1.1/DTD/svg11.dtd">
<!-- Generated by graphviz version 2.38.0 (20140413.2041)
 -->
<!-- Title: infra::Function&lt; Result(Args...), ExtraSize &gt;::CopyConstruct Pages: 1 -->
<svg width="621pt" height="176pt"
 viewBox="0.00 0.00 621.00 176.00" xmlns="http://www.w3.org/2000/svg" xmlns:xlink="http://www.w3.org/1999/xlink">
<g id="graph0" class="graph" transform="scale(1 1) rotate(0) translate(4 172)">
<title>infra::Function&lt; Result(Args...), ExtraSize &gt;::CopyConstruct</title>
<polygon fill="white" stroke="none" points="-4,4 -4,-172 617,-172 617,4 -4,4"/>
<!-- Node14 -->
<g id="node1" class="node"><title>Node14</title>
<polygon fill="#bfbfbf" stroke="black" points="0,-61 0,-102 115,-102 115,-61 0,-61"/>
<text text-anchor="start" x="8" y="-90" font-family="Helvetica,sans-Serif" font-size="10.00">infra::Function&lt; Result</text>
<text text-anchor="start" x="8" y="-79" font-family="Helvetica,sans-Serif" font-size="10.00">(Args...), ExtraSize &gt;</text>
<text text-anchor="middle" x="57.5" y="-68" font-family="Helvetica,sans-Serif" font-size="10.00">::CopyConstruct</text>
</g>
<!-- Node15 -->
<g id="node2" class="node"><title>Node15</title>
<g id="a_node2"><a xlink:href="../../d0/de3/namespaceinfra.html#ad2eae6128b7a057916770ee2ccc8945c" target="_top" xlink:title="infra::Copy">
<polygon fill="white" stroke="black" points="176,-94 176,-113 239,-113 239,-94 176,-94"/>
<text text-anchor="middle" x="207.5" y="-101" font-family="Helvetica,sans-Serif" font-size="10.00">infra::Copy</text>
</a>
</g>
</g>
<!-- Node14&#45;&gt;Node15 -->
<g id="edge1" class="edge"><title>Node14&#45;&gt;Node15</title>
<path fill="none" stroke="midnightblue" d="M115.297,-89.9429C131.988,-92.4239 149.915,-95.0887 165.42,-97.3935"/>
<polygon fill="midnightblue" stroke="midnightblue" points="165.316,-100.916 175.722,-98.9249 166.345,-93.9925 165.316,-100.916"/>
</g>
<!-- Node18 -->
<g id="node5" class="node"><title>Node18</title>
<g id="a_node5"><a xlink:href="../../d0/de3/namespaceinfra.html#ae4478bf95f90ceb679642cb4180f205f" target="_top" xlink:title="infra::MakeByteRange">
<polygon fill="white" stroke="black" points="151,-50 151,-69 264,-69 264,-50 151,-50"/>
<text text-anchor="middle" x="207.5" y="-57" font-family="Helvetica,sans-Serif" font-size="10.00">infra::MakeByteRange</text>
</a>
</g>
</g>
<!-- Node14&#45;&gt;Node18 -->
<g id="edge4" class="edge"><title>Node14&#45;&gt;Node18</title>
<path fill="none" stroke="midnightblue" d="M115.297,-73.0571C123.527,-71.8339 132.057,-70.5659 140.449,-69.3184"/>
<polygon fill="midnightblue" stroke="midnightblue" points="141.21,-72.7438 150.587,-67.8114 140.181,-65.8198 141.21,-72.7438"/>
</g>
<!-- Node16 -->
<g id="node3" class="node"><title>Node16</title>
<g id="a_node3"><a xlink:href="../../d0/d6d/classinfra_1_1_memory_range.html#a7a83ceae17802af5ecebfb9557912ece" target="_top" xlink:title="infra::MemoryRange\l::begin">
<polygon fill="white" stroke="black" points="312,-137.5 312,-167.5 416,-167.5 416,-137.5 312,-137.5"/>
<text text-anchor="start" x="320" y="-155.5" font-family="Helvetica,sans-Serif" font-size="10.00">infra::MemoryRange</text>
<text text-anchor="middle" x="364" y="-144.5" font-family="Helvetica,sans-Serif" font-size="10.00">::begin</text>
</a>
</g>
</g>
<!-- Node15&#45;&gt;Node16 -->
<g id="edge2" class="edge"><title>Node15&#45;&gt;Node16</title>
<path fill="none" stroke="midnightblue" d="M238.656,-113.064C257.789,-119.132 283.155,-127.177 305.984,-134.417"/>
<polygon fill="midnightblue" stroke="midnightblue" points="304.997,-137.776 315.588,-137.463 307.114,-131.104 304.997,-137.776"/>
</g>
<!-- Node17 -->
<g id="node4" class="node"><title>Node17</title>
<g id="a_node4"><a xlink:href="../../d0/d6d/classinfra_1_1_memory_range.html#ae8fbbf531d3696b6a64ac13385acdc66" target="_top" xlink:title="infra::MemoryRange\l::size">
<polygon fill="white" stroke="black" points="312,-88.5 312,-118.5 416,-118.5 416,-88.5 312,-88.5"/>
<text text-anchor="start" x="320" y="-106.5" font-family="Helvetica,sans-Serif" font-size="10.00">infra::MemoryRange</text>
<text text-anchor="middle" x="364" y="-95.5" font-family="Helvetica,sans-Serif" font-size="10.00">::size</text>
</a>
</g>
</g>
<!-- Node15&#45;&gt;Node17 -->
<g id="edge3" class="edge"><title>Node15&#45;&gt;Node17</title>
<path fill="none" stroke="midnightblue" d="M239.024,-103.5C256.941,-103.5 280.229,-103.5 301.777,-103.5"/>
<polygon fill="midnightblue" stroke="midnightblue" points="301.855,-107 311.855,-103.5 301.855,-100 301.855,-107"/>
</g>
<!-- Node19 -->
<g id="node6" class="node"><title>Node19</title>
<g id="a_node6"><a xlink:href="../../d0/de3/namespaceinfra.html#afe38b7d4318537de2f28b244211c4275" target="_top" xlink:title="infra::MakeRange">
<polygon fill="white" stroke="black" points="318,-50 318,-69 410,-69 410,-50 318,-50"/>
<text text-anchor="middle" x="364" y="-57" font-family="Helvetica,sans-Serif" font-size="10.00">infra::MakeRange</text>
</a>
</g>
</g>
<!-- Node18&#45;&gt;Node19 -->
<g id="edge5" class="edge"><title>Node18&#45;&gt;Node19</title>
<path fill="none" stroke="midnightblue" d="M264.278,-59.5C278.467,-59.5 293.706,-59.5 307.862,-59.5"/>
<polygon fill="midnightblue" stroke="midnightblue" points="307.949,-63.0001 317.949,-59.5 307.949,-56.0001 307.949,-63.0001"/>
</g>
<!-- Node22 -->
<g id="node9" class="node"><title>Node22</title>
<g id="a_node9"><a xlink:href="../../d0/de3/namespaceinfra.html#a74203fdf2e029d2667c7e4925092cc9a" target="_top" xlink:title="infra::ReinterpretCastByte\lRange">
<polygon fill="white" stroke="black" points="300,-0.5 300,-30.5 428,-30.5 428,-0.5 300,-0.5"/>
<text text-anchor="start" x="308" y="-18.5" font-family="Helvetica,sans-Serif" font-size="10.00">infra::ReinterpretCastByte</text>
<text text-anchor="middle" x="364" y="-7.5" font-family="Helvetica,sans-Serif" font-size="10.00">Range</text>
</a>
</g>
</g>
<!-- Node18&#45;&gt;Node22 -->
<g id="edge8" class="edge"><title>Node18&#45;&gt;Node22</title>
<path fill="none" stroke="midnightblue" d="M242.024,-49.9527C259.108,-45.0872 280.447,-39.0102 300.426,-33.3204"/>
<polygon fill="midnightblue" stroke="midnightblue" points="301.441,-36.6706 310.1,-30.5654 299.524,-29.9383 301.441,-36.6706"/>
</g>
<!-- Node20 -->
<g id="node7" class="node"><title>Node20</title>
<g id="a_node7"><a xlink:href="../../d1/d2a/classinfra_1_1_bounded_string_base.html#aef23e4250cad2fdc69ccc39f68734233" target="_top" xlink:title="infra::BoundedStringBase\l::begin">
<polygon fill="white" stroke="black" points="475,-66.5 475,-96.5 602,-96.5 602,-66.5 475,-66.5"/>
<text text-anchor="start" x="483" y="-84.5" font-family="Helvetica,sans-Serif" font-size="10.00">infra::BoundedStringBase</text>
<text text-anchor="middle" x="538.5" y="-73.5" font-family="Helvetica,sans-Serif" font-size="10.00">::begin</text>
</a>
</g>
</g>
<!-- Node19&#45;&gt;Node20 -->
<g id="edge6" class="edge"><title>Node19&#45;&gt;Node20</title>
<path fill="none" stroke="midnightblue" d="M410.322,-65.2802C426.999,-67.4071 446.333,-69.8729 464.814,-72.23"/>
<polygon fill="midnightblue" stroke="midnightblue" points="464.61,-75.7321 474.972,-73.5254 465.495,-68.7883 464.61,-75.7321"/>
</g>
<!-- Node21 -->
<g id="node8" class="node"><title>Node21</title>
<g id="a_node8"><a xlink:href="../../d1/d2a/classinfra_1_1_bounded_string_base.html#af5021f1ea3898146d0a55c2895f07dbf" target="_top" xlink:title="infra::BoundedStringBase::end">
<polygon fill="white" stroke="black" points="464,-28 464,-47 613,-47 613,-28 464,-28"/>
<text text-anchor="middle" x="538.5" y="-35" font-family="Helvetica,sans-Serif" font-size="10.00">infra::BoundedStringBase::end</text>
</a>
</g>
</g>
<!-- Node19&#45;&gt;Node21 -->
<g id="edge7" class="edge"><title>Node19&#45;&gt;Node21</title>
<path fill="none" stroke="midnightblue" d="M410.322,-53.7198C423.624,-52.0234 438.615,-50.1114 453.517,-48.2109"/>
<polygon fill="midnightblue" stroke="midnightblue" points="454.32,-51.6369 463.797,-46.8998 453.435,-44.6931 454.32,-51.6369"/>
</g>
</g>
</svg>
