<?xml version="1.0" encoding="UTF-8" standalone="no"?>
<!DOCTYPE svg PUBLIC "-//W3C//DTD SVG 1.1//EN"
 "http://www.w3.org/Graphics/SVG/1.1/DTD/svg11.dtd">
<!-- Generated by graphviz version 2.38.0 (20140413.2041)
 -->
<!-- Title: services::SynchronousSpiMasterWithChipSelect Pages: 1 -->
<svg width="212pt" height="173pt"
 viewBox="0.00 0.00 212.00 173.00" xmlns="http://www.w3.org/2000/svg" xmlns:xlink="http://www.w3.org/1999/xlink">
<g id="graph0" class="graph" transform="scale(1 1) rotate(0) translate(4 169)">
<title>services::SynchronousSpiMasterWithChipSelect</title>
<polygon fill="white" stroke="none" points="-4,4 -4,-169 208,-169 208,4 -4,4"/>
<!-- Node2 -->
<g id="node1" class="node"><title>Node2</title>
<polygon fill="#bfbfbf" stroke="black" points="22,-0.5 22,-30.5 151,-30.5 151,-0.5 22,-0.5"/>
<text text-anchor="start" x="30" y="-18.5" font-family="Helvetica,sans-Serif" font-size="10.00">services::SynchronousSpi</text>
<text text-anchor="middle" x="86.5" y="-7.5" font-family="Helvetica,sans-Serif" font-size="10.00">MasterWithChipSelect</text>
</g>
<!-- Node3 -->
<g id="node2" class="node"><title>Node3</title>
<g id="a_node2"><a xlink:href="../../d9/dad/classhal_1_1_synchronous_spi.html" target="_top" xlink:title="hal::SynchronousSpi">
<polygon fill="white" stroke="black" points="0,-78.5 0,-97.5 107,-97.5 107,-78.5 0,-78.5"/>
<text text-anchor="middle" x="53.5" y="-85.5" font-family="Helvetica,sans-Serif" font-size="10.00">hal::SynchronousSpi</text>
</a>
</g>
</g>
<!-- Node3&#45;&gt;Node2 -->
<g id="edge1" class="edge"><title>Node3&#45;&gt;Node2</title>
<path fill="none" stroke="midnightblue" d="M59.5095,-68.6895C61.7813,-62.3541 64.5392,-55.2726 67.5,-49 70.4014,-42.8531 74.0812,-36.3368 77.428,-30.7657"/>
<polygon fill="midnightblue" stroke="midnightblue" points="56.1222,-67.7781 56.1954,-78.3726 62.7451,-70.0448 56.1222,-67.7781"/>
</g>
<!-- Node3&#45;&gt;Node2 -->
<g id="edge2" class="edge"><title>Node3&#45;&gt;Node2</title>
<path fill="none" stroke="#9a32cd" stroke-dasharray="5,2" d="M61.9425,-68.9637C67.5289,-57.0293 74.7484,-41.6057 79.9112,-30.5762"/>
<polygon fill="#9a32cd" stroke="#9a32cd" points="58.616,-67.8146 57.5464,-78.3553 64.9558,-70.7822 58.616,-67.8146"/>
<text text-anchor="middle" x="78.5" y="-52" font-family="Helvetica,sans-Serif" font-size="10.00"> spi</text>
</g>
<!-- Node4 -->
<g id="node3" class="node"><title>Node4</title>
<g id="a_node3"><a xlink:href="../../df/d03/classhal_1_1_output_pin.html" target="_top" xlink:title="hal::OutputPin">
<polygon fill="white" stroke="black" points="125,-78.5 125,-97.5 204,-97.5 204,-78.5 125,-78.5"/>
<text text-anchor="middle" x="164.5" y="-85.5" font-family="Helvetica,sans-Serif" font-size="10.00">hal::OutputPin</text>
</a>
</g>
</g>
<!-- Node4&#45;&gt;Node2 -->
<g id="edge3" class="edge"><title>Node4&#45;&gt;Node2</title>
<path fill="none" stroke="#9a32cd" stroke-dasharray="5,2" d="M147.285,-71.4402C133.778,-59.2323 115.139,-42.3856 102.074,-30.5762"/>
<polygon fill="#9a32cd" stroke="#9a32cd" points="145.17,-74.2465 154.936,-78.3553 149.864,-69.0533 145.17,-74.2465"/>
<text text-anchor="middle" x="156" y="-52" font-family="Helvetica,sans-Serif" font-size="10.00"> chipSelect</text>
</g>
<!-- Node5 -->
<g id="node4" class="node"><title>Node5</title>
<g id="a_node4"><a xlink:href="../../d7/d8c/classhal_1_1_gpio_pin.html" target="_top" xlink:title="hal::GpioPin">
<polygon fill="white" stroke="black" points="129.5,-145.5 129.5,-164.5 199.5,-164.5 199.5,-145.5 129.5,-145.5"/>
<text text-anchor="middle" x="164.5" y="-152.5" font-family="Helvetica,sans-Serif" font-size="10.00">hal::GpioPin</text>
</a>
</g>
</g>
<!-- Node5&#45;&gt;Node4 -->
<g id="edge4" class="edge"><title>Node5&#45;&gt;Node4</title>
<path fill="none" stroke="#9a32cd" stroke-dasharray="5,2" d="M164.5,-135.037C164.5,-122.67 164.5,-107.12 164.5,-97.6273"/>
<polygon fill="#9a32cd" stroke="#9a32cd" points="161,-135.234 164.5,-145.234 168,-135.234 161,-135.234"/>
<text text-anchor="middle" x="172.5" y="-119" font-family="Helvetica,sans-Serif" font-size="10.00"> pin</text>
</g>
</g>
</svg>
