<?xml version="1.0" encoding="UTF-8" standalone="no"?>
<!DOCTYPE svg PUBLIC "-//W3C//DTD SVG 1.1//EN"
 "http://www.w3.org/Graphics/SVG/1.1/DTD/svg11.dtd">
<!-- Generated by graphviz version 2.38.0 (20140413.2041)
 -->
<!-- Title: infra::EventDispatcherWorker::Schedule Pages: 1 -->
<!--zoomable 1119 -->
<svg id="main" version="1.1" xmlns="http://www.w3.org/2000/svg" xmlns:xlink="http://www.w3.org/1999/xlink" xml:space="preserve" onload="init(evt)">
<style type="text/css"><![CDATA[
.edge:hover path { stroke: red; }
.edge:hover polygon { stroke: red; fill: red; }
]]></style>
<script type="text/javascript"><![CDATA[
var edges = document.getElementsByTagName('g');
if (edges && edges.length) {
  for (var i=0;i<edges.length;i++) {
    if (edges[i].id.substr(0,4)=='edge') {
      edges[i].setAttribute('class','edge');
    }
  }
}
]]></script>
        <defs>
                <circle id="rim" cx="0" cy="0" r="7"/>
                <circle id="rim2" cx="0" cy="0" r="3.5"/>
                <g id="zoomPlus">
                        <use xlink:href="#rim" fill="#404040">
                                <set attributeName="fill" to="#808080" begin="zoomplus.mouseover" end="zoomplus.mouseout"/>
                        </use>
                        <path d="M-4,0h8M0,-4v8" fill="none" stroke="white" stroke-width="1.5" pointer-events="none"/>
                </g>
                <g id="zoomMin">
                        <use xlink:href="#rim" fill="#404040">
                                <set attributeName="fill" to="#808080" begin="zoomminus.mouseover" end="zoomminus.mouseout"/>
                        </use>
                        <path d="M-4,0h8" fill="none" stroke="white" stroke-width="1.5" pointer-events="none"/>
                </g>
                <g id="dirArrow">
                        <path fill="none" stroke="white" stroke-width="1.5" d="M0,-3.0v7 M-2.5,-0.5L0,-3.0L2.5,-0.5"/>
                </g>
               <g id="resetDef">
                       <use xlink:href="#rim2" fill="#404040">
                               <set attributeName="fill" to="#808080" begin="reset.mouseover" end="reset.mouseout"/>
                       </use>
               </g>
        </defs>

<script type="text/javascript">
var viewWidth = 704;
var viewHeight = 1119;
var sectionId = 'dynsection-1';
</script>
<script xlink:href="../../svgpan.js"/>
<svg id="graph" class="graph">
<g id="viewport">
<title>infra::EventDispatcherWorker::Schedule</title>
<polygon fill="white" stroke="none" points="-4,4 -4,-1115 700,-1115 700,4 -4,4"/>
<!-- Node15 -->
<g id="node1" class="node"><title>Node15</title>
<polygon fill="#bfbfbf" stroke="black" points="0,-541.5 0,-571.5 143,-571.5 143,-541.5 0,-541.5"/>
<text text-anchor="start" x="8" y="-559.5" font-family="Helvetica,sans-Serif" font-size="10.00">infra::EventDispatcherWorker</text>
<text text-anchor="middle" x="71.5" y="-548.5" font-family="Helvetica,sans-Serif" font-size="10.00">::Schedule</text>
</g>
<!-- Node16 -->
<g id="node2" class="node"><title>Node16</title>
<g id="a_node2"><a xlink:href="../../d0/d93/classinfra_1_1_claimable_resource.html#af0c7794a3ed43ac41f1c657990b4f24e" target="_top" xlink:title="infra::ClaimableResource\l::AddClaim">
<polygon fill="white" stroke="black" points="195.5,-1080.5 195.5,-1110.5 320.5,-1110.5 320.5,-1080.5 195.5,-1080.5"/>
<text text-anchor="start" x="203.5" y="-1098.5" font-family="Helvetica,sans-Serif" font-size="10.00">infra::ClaimableResource</text>
<text text-anchor="middle" x="258" y="-1087.5" font-family="Helvetica,sans-Serif" font-size="10.00">::AddClaim</text>
</a>
</g>
</g>
<!-- Node15&#45;&gt;Node16 -->
<g id="edge1" class="edge"><title>Node15&#45;&gt;Node16</title>
<path fill="none" stroke="midnightblue" d="M74.3785,-581.827C81.7873,-675.086 111.92,-997.756 179,-1071.5 183.576,-1076.53 189.178,-1080.52 195.261,-1083.68"/>
<polygon fill="midnightblue" stroke="midnightblue" points="77.85,-581.323 73.5867,-571.623 70.8709,-581.864 77.85,-581.323"/>
</g>
<!-- Node17 -->
<g id="node3" class="node"><title>Node17</title>
<g id="a_node3"><a xlink:href="../../d3/d9a/classservices_1_1_connection_serial.html#a2a628c7073bbaf07211d9272f4227ed2" target="_top" xlink:title="services::ConnectionSerial\l::AllocatedSendStream">
<polygon fill="white" stroke="black" points="192.5,-1031.5 192.5,-1061.5 323.5,-1061.5 323.5,-1031.5 192.5,-1031.5"/>
<text text-anchor="start" x="200.5" y="-1049.5" font-family="Helvetica,sans-Serif" font-size="10.00">services::ConnectionSerial</text>
<text text-anchor="middle" x="258" y="-1038.5" font-family="Helvetica,sans-Serif" font-size="10.00">::AllocatedSendStream</text>
</a>
</g>
</g>
<!-- Node15&#45;&gt;Node17 -->
<g id="edge2" class="edge"><title>Node15&#45;&gt;Node17</title>
<path fill="none" stroke="midnightblue" d="M74.9888,-581.96C84.0416,-669.559 117.934,-956.752 179,-1022.5 182.857,-1026.65 187.413,-1030.09 192.355,-1032.94"/>
<polygon fill="midnightblue" stroke="midnightblue" points="78.4545,-581.444 73.9633,-571.848 71.4902,-582.15 78.4545,-581.444"/>
</g>
<!-- Node20 -->
<g id="node6" class="node"><title>Node20</title>
<g id="a_node6"><a xlink:href="../../de/d8b/classservices_1_1_connection_bsd.html#a99c9de1c7a44deec022efdb1bb12f5e3" target="_top" xlink:title="services::ConnectionBsd\l::ConnectionBsd">
<polygon fill="white" stroke="black" points="196,-982.5 196,-1012.5 320,-1012.5 320,-982.5 196,-982.5"/>
<text text-anchor="start" x="204" y="-1000.5" font-family="Helvetica,sans-Serif" font-size="10.00">services::ConnectionBsd</text>
<text text-anchor="middle" x="258" y="-989.5" font-family="Helvetica,sans-Serif" font-size="10.00">::ConnectionBsd</text>
</a>
</g>
</g>
<!-- Node15&#45;&gt;Node20 -->
<g id="edge5" class="edge"><title>Node15&#45;&gt;Node20</title>
<path fill="none" stroke="midnightblue" d="M75.7156,-581.887C86.5053,-663.258 123.869,-915.631 179,-973.5 183.789,-978.526 189.602,-982.508 195.872,-985.661"/>
<polygon fill="midnightblue" stroke="midnightblue" points="79.1349,-581.041 74.3703,-571.578 72.1938,-581.947 79.1349,-581.041"/>
</g>
<!-- Node21 -->
<g id="node7" class="node"><title>Node21</title>
<g id="a_node7"><a xlink:href="../../db/d8b/classservices_1_1_connection_win.html#afa1b3bc6eca0e83e1ce0b1f607de2dfe" target="_top" xlink:title="services::ConnectionWin\l::ConnectionWin">
<polygon fill="white" stroke="black" points="196,-933.5 196,-963.5 320,-963.5 320,-933.5 196,-933.5"/>
<text text-anchor="start" x="204" y="-951.5" font-family="Helvetica,sans-Serif" font-size="10.00">services::ConnectionWin</text>
<text text-anchor="middle" x="258" y="-940.5" font-family="Helvetica,sans-Serif" font-size="10.00">::ConnectionWin</text>
</a>
</g>
</g>
<!-- Node15&#45;&gt;Node21 -->
<g id="edge6" class="edge"><title>Node15&#45;&gt;Node21</title>
<path fill="none" stroke="midnightblue" d="M72.1068,-581.876C72.5056,-647.915 82.8985,-826.771 179,-924.5 183.768,-929.349 189.491,-933.223 195.642,-936.318"/>
<polygon fill="midnightblue" stroke="midnightblue" points="75.6071,-581.59 72.1232,-571.584 68.6071,-581.579 75.6071,-581.59"/>
</g>
<!-- Node22 -->
<g id="node8" class="node"><title>Node22</title>
<g id="a_node8"><a xlink:href="../../d0/db3/classservices_1_1_flash_quad_spi.html#ad5eea94e8c563df753b4a66292d1e73d" target="_top" xlink:title="services::FlashQuadSpi\l::EraseSectors">
<polygon fill="white" stroke="black" points="198.5,-884.5 198.5,-914.5 317.5,-914.5 317.5,-884.5 198.5,-884.5"/>
<text text-anchor="start" x="206.5" y="-902.5" font-family="Helvetica,sans-Serif" font-size="10.00">services::FlashQuadSpi</text>
<text text-anchor="middle" x="258" y="-891.5" font-family="Helvetica,sans-Serif" font-size="10.00">::EraseSectors</text>
</a>
</g>
</g>
<!-- Node15&#45;&gt;Node22 -->
<g id="edge7" class="edge"><title>Node15&#45;&gt;Node22</title>
<path fill="none" stroke="midnightblue" d="M73.4319,-581.736C77.0234,-641.519 94.4515,-792.934 179,-875.5 184.474,-880.845 191.109,-885.004 198.172,-888.238"/>
<polygon fill="midnightblue" stroke="midnightblue" points="76.9235,-581.482 72.9092,-571.677 69.9329,-581.845 76.9235,-581.482"/>
</g>
<!-- Node23 -->
<g id="node9" class="node"><title>Node23</title>
<g id="a_node9"><a xlink:href="../../df/d28/classservices_1_1_flash_spi.html#a5b3e05583977f2aebb2cb4b25491390a" target="_top" xlink:title="services::FlashSpi\l::EraseSectors">
<polygon fill="white" stroke="black" points="210,-835.5 210,-865.5 306,-865.5 306,-835.5 210,-835.5"/>
<text text-anchor="start" x="218" y="-853.5" font-family="Helvetica,sans-Serif" font-size="10.00">services::FlashSpi</text>
<text text-anchor="middle" x="258" y="-842.5" font-family="Helvetica,sans-Serif" font-size="10.00">::EraseSectors</text>
</a>
</g>
</g>
<!-- Node15&#45;&gt;Node23 -->
<g id="edge8" class="edge"><title>Node15&#45;&gt;Node23</title>
<path fill="none" stroke="midnightblue" d="M75.2057,-581.8C82.2441,-634.959 105.982,-758.913 179,-826.5 187.526,-834.392 198.593,-839.69 209.698,-843.247"/>
<polygon fill="midnightblue" stroke="midnightblue" points="78.6427,-581.073 73.9455,-571.576 71.6953,-581.929 78.6427,-581.073"/>
</g>
<!-- Node24 -->
<g id="node10" class="node"><title>Node24</title>
<g id="a_node10"><a xlink:href="../../d1/d88/classservices_1_1_flash_quad_spi_cypress_fll.html#a90cf929fd86b0302556e665e336f08d0" target="_top" xlink:title="services::FlashQuadSpiCypress\lFll::FlashQuadSpiCypressFll">
<polygon fill="white" stroke="black" points="180.5,-786.5 180.5,-816.5 335.5,-816.5 335.5,-786.5 180.5,-786.5"/>
<text text-anchor="start" x="188.5" y="-804.5" font-family="Helvetica,sans-Serif" font-size="10.00">services::FlashQuadSpiCypress</text>
<text text-anchor="middle" x="258" y="-793.5" font-family="Helvetica,sans-Serif" font-size="10.00">Fll::FlashQuadSpiCypressFll</text>
</a>
</g>
</g>
<!-- Node15&#45;&gt;Node24 -->
<g id="edge9" class="edge"><title>Node15&#45;&gt;Node24</title>
<path fill="none" stroke="midnightblue" d="M77.6516,-581.626C88.3389,-627.372 117.259,-724.419 179,-777.5 182.975,-780.918 187.431,-783.849 192.144,-786.362"/>
<polygon fill="midnightblue" stroke="midnightblue" points="81.0217,-580.658 75.4253,-571.662 74.1902,-582.184 81.0217,-580.658"/>
</g>
<!-- Node25 -->
<g id="node11" class="node"><title>Node25</title>
<g id="a_node11"><a xlink:href="../../d8/dbe/classservices_1_1_flash_quad_spi_micron_n25q.html#ab936eba5af1f7e92e96d364095237b38" target="_top" xlink:title="services::FlashQuadSpiMicron\lN25q::FlashQuadSpiMicronN25q">
<polygon fill="white" stroke="black" points="179,-737.5 179,-767.5 337,-767.5 337,-737.5 179,-737.5"/>
<text text-anchor="start" x="187" y="-755.5" font-family="Helvetica,sans-Serif" font-size="10.00">services::FlashQuadSpiMicron</text>
<text text-anchor="middle" x="258" y="-744.5" font-family="Helvetica,sans-Serif" font-size="10.00">N25q::FlashQuadSpiMicronN25q</text>
</a>
</g>
</g>
<!-- Node15&#45;&gt;Node25 -->
<g id="edge10" class="edge"><title>Node15&#45;&gt;Node25</title>
<path fill="none" stroke="midnightblue" d="M81.2834,-581.296C95.7928,-618.707 128.303,-689.361 179,-728.5 183.486,-731.963 188.474,-734.93 193.699,-737.471"/>
<polygon fill="midnightblue" stroke="midnightblue" points="84.4633,-579.808 77.6682,-571.679 77.911,-582.271 84.4633,-579.808"/>
</g>
<!-- Node26 -->
<g id="node12" class="node"><title>Node26</title>
<g id="a_node12"><a xlink:href="../../d1/d3f/classservices_1_1_datagram_bsd.html#a18e1ec8aa7a2f5e0a8401af799af99f9" target="_top" xlink:title="services::DatagramBsd\l::InitSocket">
<polygon fill="white" stroke="black" points="199.5,-688.5 199.5,-718.5 316.5,-718.5 316.5,-688.5 199.5,-688.5"/>
<text text-anchor="start" x="207.5" y="-706.5" font-family="Helvetica,sans-Serif" font-size="10.00">services::DatagramBsd</text>
<text text-anchor="middle" x="258" y="-695.5" font-family="Helvetica,sans-Serif" font-size="10.00">::InitSocket</text>
</a>
</g>
</g>
<!-- Node15&#45;&gt;Node26 -->
<g id="edge11" class="edge"><title>Node15&#45;&gt;Node26</title>
<path fill="none" stroke="midnightblue" d="M87.2158,-580.474C105.446,-608.224 139.036,-653.44 179,-679.5 185.171,-683.524 192.054,-686.904 199.104,-689.735"/>
<polygon fill="midnightblue" stroke="midnightblue" points="89.9845,-578.308 81.6354,-571.785 84.0947,-582.091 89.9845,-578.308"/>
</g>
<!-- Node28 -->
<g id="node14" class="node"><title>Node28</title>
<g id="a_node14"><a xlink:href="../../d2/d7b/classservices_1_1_datagram_win.html#a658541984182e1f50cdd52ccafefd00f" target="_top" xlink:title="services::DatagramWin\l::InitSocket">
<polygon fill="white" stroke="black" points="199.5,-639.5 199.5,-669.5 316.5,-669.5 316.5,-639.5 199.5,-639.5"/>
<text text-anchor="start" x="207.5" y="-657.5" font-family="Helvetica,sans-Serif" font-size="10.00">services::DatagramWin</text>
<text text-anchor="middle" x="258" y="-646.5" font-family="Helvetica,sans-Serif" font-size="10.00">::InitSocket</text>
</a>
</g>
</g>
<!-- Node15&#45;&gt;Node28 -->
<g id="edge13" class="edge"><title>Node15&#45;&gt;Node28</title>
<path fill="none" stroke="midnightblue" d="M98.6388,-578.109C119.368,-594.366 149.641,-616.214 179,-630.5 185.752,-633.786 193.052,-636.74 200.383,-639.358"/>
<polygon fill="midnightblue" stroke="midnightblue" points="100.645,-575.232 90.6414,-571.742 96.2849,-580.709 100.645,-575.232"/>
</g>
<!-- Node30 -->
<g id="node16" class="node"><title>Node30</title>
<g id="a_node16"><a xlink:href="../../d4/dbc/classservices_1_1_name_lookup_bsd.html#ae2b6d6cf69286121cb2bab00aadbfbe9" target="_top" xlink:title="services::NameLookupBsd\l::LookupIPv4">
<polygon fill="white" stroke="black" points="192,-590.5 192,-620.5 324,-620.5 324,-590.5 192,-590.5"/>
<text text-anchor="start" x="200" y="-608.5" font-family="Helvetica,sans-Serif" font-size="10.00">services::NameLookupBsd</text>
<text text-anchor="middle" x="258" y="-597.5" font-family="Helvetica,sans-Serif" font-size="10.00">::LookupIPv4</text>
</a>
</g>
</g>
<!-- Node15&#45;&gt;Node30 -->
<g id="edge15" class="edge"><title>Node15&#45;&gt;Node30</title>
<path fill="none" stroke="midnightblue" d="M138.856,-574.123C159.041,-579.484 181.026,-585.323 200.497,-590.494"/>
<polygon fill="midnightblue" stroke="midnightblue" points="139.673,-570.719 129.11,-571.535 137.876,-577.484 139.673,-570.719"/>
</g>
<!-- Node33 -->
<g id="node19" class="node"><title>Node33</title>
<g id="a_node19"><a xlink:href="../../d8/dbd/classservices_1_1_name_lookup_win.html#afcf5c4d0f1af787356c6af874c8d0541" target="_top" xlink:title="services::NameLookupWin\l::LookupIPv4">
<polygon fill="white" stroke="black" points="192,-541.5 192,-571.5 324,-571.5 324,-541.5 192,-541.5"/>
<text text-anchor="start" x="200" y="-559.5" font-family="Helvetica,sans-Serif" font-size="10.00">services::NameLookupWin</text>
<text text-anchor="middle" x="258" y="-548.5" font-family="Helvetica,sans-Serif" font-size="10.00">::LookupIPv4</text>
</a>
</g>
</g>
<!-- Node15&#45;&gt;Node33 -->
<g id="edge18" class="edge"><title>Node15&#45;&gt;Node33</title>
<path fill="none" stroke="midnightblue" d="M153.317,-556.5C166.236,-556.5 179.459,-556.5 191.951,-556.5"/>
<polygon fill="midnightblue" stroke="midnightblue" points="153.041,-553 143.041,-556.5 153.041,-560 153.041,-553"/>
</g>
<!-- Node36 -->
<g id="node22" class="node"><title>Node36</title>
<g id="a_node22"><a xlink:href="../../db/de0/classinfra_1_1_queue_for_one_reader_one_irq_writer.html#aa0acebb831086e7f87294f62004fa8e7" target="_top" xlink:title="infra::QueueForOneReader\lOneIrqWriter\&lt; uint8_t\l \&gt;::NotifyDataAvailable">
<polygon fill="white" stroke="black" points="192,-481 192,-522 324,-522 324,-481 192,-481"/>
<text text-anchor="start" x="200" y="-510" font-family="Helvetica,sans-Serif" font-size="10.00">infra::QueueForOneReader</text>
<text text-anchor="start" x="200" y="-499" font-family="Helvetica,sans-Serif" font-size="10.00">OneIrqWriter&lt; uint8_t</text>
<text text-anchor="middle" x="258" y="-488" font-family="Helvetica,sans-Serif" font-size="10.00"> &gt;::NotifyDataAvailable</text>
</a>
</g>
</g>
<!-- Node15&#45;&gt;Node36 -->
<g id="edge21" class="edge"><title>Node15&#45;&gt;Node36</title>
<path fill="none" stroke="midnightblue" d="M132.598,-538.585C151.512,-532.946 172.487,-526.694 191.741,-520.954"/>
<polygon fill="midnightblue" stroke="midnightblue" points="131.499,-535.26 122.915,-541.471 133.499,-541.968 131.499,-535.26"/>
</g>
<!-- Node37 -->
<g id="node23" class="node"><title>Node37</title>
<g id="a_node23"><a xlink:href="../../df/d2e/classinfra_1_1_tick_on_interrupt_timer_service.html#a0d28d96bcfbeca6cad1712d7fee3fe12" target="_top" xlink:title="infra::TickOnInterruptTimer\lService::ProcessTicks">
<polygon fill="white" stroke="black" points="192.5,-431.5 192.5,-461.5 323.5,-461.5 323.5,-431.5 192.5,-431.5"/>
<text text-anchor="start" x="200.5" y="-449.5" font-family="Helvetica,sans-Serif" font-size="10.00">infra::TickOnInterruptTimer</text>
<text text-anchor="middle" x="258" y="-438.5" font-family="Helvetica,sans-Serif" font-size="10.00">Service::ProcessTicks</text>
</a>
</g>
</g>
<!-- Node15&#45;&gt;Node37 -->
<g id="edge22" class="edge"><title>Node15&#45;&gt;Node37</title>
<path fill="none" stroke="midnightblue" d="M95.3193,-534.163C115.767,-515.209 147.338,-488.465 179,-471.5 186.019,-467.739 193.7,-464.427 201.417,-461.548"/>
<polygon fill="midnightblue" stroke="midnightblue" points="92.6675,-531.853 87.79,-541.258 97.4682,-536.947 92.6675,-531.853"/>
</g>
<!-- Node38 -->
<g id="node24" class="node"><title>Node38</title>
<g id="a_node24"><a xlink:href="../../df/d2e/classinfra_1_1_tick_on_interrupt_timer_service.html#af615ce0c6415bcc94cd68780136ba165" target="_top" xlink:title="infra::TickOnInterruptTimer\lService::SystemTickInterrupt">
<polygon fill="white" stroke="black" points="380,-409.5 380,-439.5 521,-439.5 521,-409.5 380,-409.5"/>
<text text-anchor="start" x="388" y="-427.5" font-family="Helvetica,sans-Serif" font-size="10.00">infra::TickOnInterruptTimer</text>
<text text-anchor="middle" x="450.5" y="-416.5" font-family="Helvetica,sans-Serif" font-size="10.00">Service::SystemTickInterrupt</text>
</a>
</g>
</g>
<!-- Node15&#45;&gt;Node38 -->
<g id="edge27" class="edge"><title>Node15&#45;&gt;Node38</title>
<path fill="none" stroke="midnightblue" d="M83.1579,-532.298C98.8477,-500.086 131.53,-444.515 179,-421.5 246.088,-388.974 333.99,-397.942 391.094,-409.449"/>
<polygon fill="midnightblue" stroke="midnightblue" points="79.9267,-530.945 78.8366,-541.484 86.2607,-533.925 79.9267,-530.945"/>
</g>
<!-- Node39 -->
<g id="node25" class="node"><title>Node39</title>
<g id="a_node25"><a xlink:href="../../de/d21/classinfra_1_1_system_state_participant.html#a611ff2cda764c08411e59fa4fc4d18b4" target="_top" xlink:title="infra::SystemStateParticipant\l::ReachedState">
<polygon fill="white" stroke="black" points="186,-343.5 186,-373.5 330,-373.5 330,-343.5 186,-343.5"/>
<text text-anchor="start" x="194" y="-361.5" font-family="Helvetica,sans-Serif" font-size="10.00">infra::SystemStateParticipant</text>
<text text-anchor="middle" x="258" y="-350.5" font-family="Helvetica,sans-Serif" font-size="10.00">::ReachedState</text>
</a>
</g>
</g>
<!-- Node15&#45;&gt;Node39 -->
<g id="edge24" class="edge"><title>Node15&#45;&gt;Node39</title>
<path fill="none" stroke="midnightblue" d="M82.122,-531.882C97.439,-495.684 130.658,-428.114 179,-388.5 186.407,-382.431 195.179,-377.497 204.12,-373.516"/>
<polygon fill="midnightblue" stroke="midnightblue" points="78.8519,-530.631 78.2788,-541.211 85.3242,-533.298 78.8519,-530.631"/>
</g>
<!-- Node40 -->
<g id="node26" class="node"><title>Node40</title>
<g id="a_node26"><a xlink:href="../../d0/d93/classinfra_1_1_claimable_resource.html#ad16fa9c6beff4ee4ce162a408ab8efe2" target="_top" xlink:title="infra::ClaimableResource\l::RemoveClaim">
<polygon fill="white" stroke="black" points="195.5,-294.5 195.5,-324.5 320.5,-324.5 320.5,-294.5 195.5,-294.5"/>
<text text-anchor="start" x="203.5" y="-312.5" font-family="Helvetica,sans-Serif" font-size="10.00">infra::ClaimableResource</text>
<text text-anchor="middle" x="258" y="-301.5" font-family="Helvetica,sans-Serif" font-size="10.00">::RemoveClaim</text>
</a>
</g>
</g>
<!-- Node15&#45;&gt;Node40 -->
<g id="edge25" class="edge"><title>Node15&#45;&gt;Node40</title>
<path fill="none" stroke="midnightblue" d="M77.5059,-531.485C88.0177,-485.471 116.748,-387.21 179,-333.5 183.827,-329.335 189.368,-325.893 195.221,-323.048"/>
<polygon fill="midnightblue" stroke="midnightblue" points="74.0342,-530.978 75.3211,-541.494 80.8732,-532.471 74.0342,-530.978"/>
</g>
<!-- Node41 -->
<g id="node27" class="node"><title>Node41</title>
<g id="a_node27"><a xlink:href="../../d3/d9a/classservices_1_1_connection_serial.html#a197a821b97a604c09cdbe22e1a9e53f1" target="_top" xlink:title="services::ConnectionSerial\l::SendStreamFilled">
<polygon fill="white" stroke="black" points="192.5,-245.5 192.5,-275.5 323.5,-275.5 323.5,-245.5 192.5,-245.5"/>
<text text-anchor="start" x="200.5" y="-263.5" font-family="Helvetica,sans-Serif" font-size="10.00">services::ConnectionSerial</text>
<text text-anchor="middle" x="258" y="-252.5" font-family="Helvetica,sans-Serif" font-size="10.00">::SendStreamFilled</text>
</a>
</g>
</g>
<!-- Node15&#45;&gt;Node41 -->
<g id="edge26" class="edge"><title>Node15&#45;&gt;Node41</title>
<path fill="none" stroke="midnightblue" d="M75.1024,-531.352C81.9708,-477.994 105.446,-352.756 179,-284.5 182.947,-280.838 187.44,-277.734 192.231,-275.104"/>
<polygon fill="midnightblue" stroke="midnightblue" points="71.6234,-530.969 73.9084,-541.314 78.5736,-531.802 71.6234,-530.969"/>
</g>
<!-- Node42 -->
<g id="node28" class="node"><title>Node42</title>
<g id="a_node28"><a xlink:href="../../d7/d8f/classhal_1_1_timer_service_bsd.html#a6cad4d6f63d52b0eb822c9262b340351" target="_top" xlink:title="hal::TimerServiceBsd\l::WaitForTrigger">
<polygon fill="white" stroke="black" points="204,-196.5 204,-226.5 312,-226.5 312,-196.5 204,-196.5"/>
<text text-anchor="start" x="212" y="-214.5" font-family="Helvetica,sans-Serif" font-size="10.00">hal::TimerServiceBsd</text>
<text text-anchor="middle" x="258" y="-203.5" font-family="Helvetica,sans-Serif" font-size="10.00">::WaitForTrigger</text>
</a>
</g>
</g>
<!-- Node15&#45;&gt;Node42 -->
<g id="edge28" class="edge"><title>Node15&#45;&gt;Node42</title>
<path fill="none" stroke="midnightblue" d="M73.3794,-531.109C76.8562,-470.959 94.0522,-318.612 179,-235.5 185.887,-228.762 194.618,-223.911 203.728,-220.418"/>
<polygon fill="midnightblue" stroke="midnightblue" points="69.8772,-531.069 72.8766,-541.23 76.8685,-531.416 69.8772,-531.069"/>
</g>
<!-- Node44 -->
<g id="node30" class="node"><title>Node44</title>
<g id="a_node30"><a xlink:href="../../d1/d79/classhal_1_1_timer_service_win.html#ab1bb01d8405ab7b2634952c09a04e249" target="_top" xlink:title="hal::TimerServiceWin\l::WaitForTrigger">
<polygon fill="white" stroke="black" points="204,-147.5 204,-177.5 312,-177.5 312,-147.5 204,-147.5"/>
<text text-anchor="start" x="212" y="-165.5" font-family="Helvetica,sans-Serif" font-size="10.00">hal::TimerServiceWin</text>
<text text-anchor="middle" x="258" y="-154.5" font-family="Helvetica,sans-Serif" font-size="10.00">::WaitForTrigger</text>
</a>
</g>
</g>
<!-- Node15&#45;&gt;Node44 -->
<g id="edge30" class="edge"><title>Node15&#45;&gt;Node44</title>
<path fill="none" stroke="midnightblue" d="M72.0599,-530.99C72.3453,-464.599 82.4874,-284.789 179,-186.5 185.849,-179.525 194.673,-174.566 203.909,-171.043"/>
<polygon fill="midnightblue" stroke="midnightblue" points="68.5609,-531.348 72.0945,-541.336 75.5609,-531.324 68.5609,-531.348"/>
</g>
<!-- Node46 -->
<g id="node32" class="node"><title>Node46</title>
<g id="a_node32"><a xlink:href="../../df/d28/classservices_1_1_flash_spi.html#a565d63c057e750b2c5703b83e2987e0d" target="_top" xlink:title="services::FlashSpi\l::WriteBuffer">
<polygon fill="white" stroke="black" points="210,-98.5 210,-128.5 306,-128.5 306,-98.5 210,-98.5"/>
<text text-anchor="start" x="218" y="-116.5" font-family="Helvetica,sans-Serif" font-size="10.00">services::FlashSpi</text>
<text text-anchor="middle" x="258" y="-105.5" font-family="Helvetica,sans-Serif" font-size="10.00">::WriteBuffer</text>
</a>
</g>
</g>
<!-- Node15&#45;&gt;Node46 -->
<g id="edge32" class="edge"><title>Node15&#45;&gt;Node46</title>
<path fill="none" stroke="midnightblue" d="M75.6981,-530.993C86.4347,-449.235 123.654,-195.661 179,-137.5 187.204,-128.878 198.422,-123.331 209.793,-119.768"/>
<polygon fill="midnightblue" stroke="midnightblue" points="72.1702,-530.985 74.3598,-541.351 79.1125,-531.882 72.1702,-530.985"/>
</g>
<!-- Node47 -->
<g id="node33" class="node"><title>Node47</title>
<g id="a_node33"><a xlink:href="../../d0/db3/classservices_1_1_flash_quad_spi.html#a9e190d022eb9d8fc0f88e89160f89b0f" target="_top" xlink:title="services::FlashQuadSpi\l::WriteBufferSequence">
<polygon fill="white" stroke="black" points="198.5,-49.5 198.5,-79.5 317.5,-79.5 317.5,-49.5 198.5,-49.5"/>
<text text-anchor="start" x="206.5" y="-67.5" font-family="Helvetica,sans-Serif" font-size="10.00">services::FlashQuadSpi</text>
<text text-anchor="middle" x="258" y="-56.5" font-family="Helvetica,sans-Serif" font-size="10.00">::WriteBufferSequence</text>
</a>
</g>
</g>
<!-- Node15&#45;&gt;Node47 -->
<g id="edge33" class="edge"><title>Node15&#45;&gt;Node47</title>
<path fill="none" stroke="midnightblue" d="M74.973,-530.932C83.9738,-442.96 117.716,-154.545 179,-88.5 184.397,-82.684 191.165,-78.264 198.446,-74.9077"/>
<polygon fill="midnightblue" stroke="midnightblue" points="71.47,-530.787 73.9536,-541.087 78.435,-531.486 71.47,-530.787"/>
</g>
<!-- Node49 -->
<g id="node35" class="node"><title>Node49</title>
<g id="a_node35"><a xlink:href="../../d4/d36/classservices_1_1_cyclic_store.html#a08dbba8a0aaac53dc54133f23475c423" target="_top" xlink:title="services::CyclicStore\l::WriteRange">
<polygon fill="white" stroke="black" points="204,-0.5 204,-30.5 312,-30.5 312,-0.5 204,-0.5"/>
<text text-anchor="start" x="212" y="-18.5" font-family="Helvetica,sans-Serif" font-size="10.00">services::CyclicStore</text>
<text text-anchor="middle" x="258" y="-7.5" font-family="Helvetica,sans-Serif" font-size="10.00">::WriteRange</text>
</a>
</g>
</g>
<!-- Node15&#45;&gt;Node49 -->
<g id="edge35" class="edge"><title>Node15&#45;&gt;Node49</title>
<path fill="none" stroke="midnightblue" d="M74.3641,-531.075C81.7222,-437.457 111.699,-113.545 179,-39.5 185.671,-32.1609 194.525,-27.0409 203.871,-23.4752"/>
<polygon fill="midnightblue" stroke="midnightblue" points="70.8536,-531.08 73.578,-541.318 77.8331,-531.616 70.8536,-531.08"/>
</g>
<!-- Node18 -->
<g id="node4" class="node"><title>Node18</title>
<g id="a_node4"><a xlink:href="../../d3/d9a/classservices_1_1_connection_serial.html#af51ecce8f4a73a4b8bda835e83e96588" target="_top" xlink:title="services::ConnectionSerial\l::RequestSendStream">
<polygon fill="white" stroke="black" points="385,-1055.5 385,-1085.5 516,-1085.5 516,-1055.5 385,-1055.5"/>
<text text-anchor="start" x="393" y="-1073.5" font-family="Helvetica,sans-Serif" font-size="10.00">services::ConnectionSerial</text>
<text text-anchor="middle" x="450.5" y="-1062.5" font-family="Helvetica,sans-Serif" font-size="10.00">::RequestSendStream</text>
</a>
</g>
</g>
<!-- Node17&#45;&gt;Node18 -->
<g id="edge3" class="edge"><title>Node17&#45;&gt;Node18</title>
<path fill="none" stroke="midnightblue" d="M334.092,-1055.96C350.898,-1058.08 368.582,-1060.31 384.919,-1062.36"/>
<polygon fill="midnightblue" stroke="midnightblue" points="334.12,-1052.44 323.76,-1054.66 333.244,-1059.38 334.12,-1052.44"/>
</g>
<!-- Node19 -->
<g id="node5" class="node"><title>Node19</title>
<g id="a_node5"><a xlink:href="../../d3/d9a/classservices_1_1_connection_serial.html#a917bfc2884788b187ec8f1e533f0c788" target="_top" xlink:title="services::ConnectionSerial\l::SendStreamAllocatable">
<polygon fill="white" stroke="black" points="385,-1006.5 385,-1036.5 516,-1036.5 516,-1006.5 385,-1006.5"/>
<text text-anchor="start" x="393" y="-1024.5" font-family="Helvetica,sans-Serif" font-size="10.00">services::ConnectionSerial</text>
<text text-anchor="middle" x="450.5" y="-1013.5" font-family="Helvetica,sans-Serif" font-size="10.00">::SendStreamAllocatable</text>
</a>
</g>
</g>
<!-- Node17&#45;&gt;Node19 -->
<g id="edge4" class="edge"><title>Node17&#45;&gt;Node19</title>
<path fill="none" stroke="midnightblue" d="M334.092,-1036.65C350.898,-1034.44 368.582,-1032.12 384.919,-1029.98"/>
<polygon fill="midnightblue" stroke="midnightblue" points="333.22,-1033.23 323.76,-1038 334.131,-1040.17 333.22,-1033.23"/>
</g>
<!-- Node27 -->
<g id="node13" class="node"><title>Node27</title>
<g id="a_node13"><a xlink:href="../../d1/d3f/classservices_1_1_datagram_bsd.html#ab7a4b207514941e4eb588be4f8f0ed7f" target="_top" xlink:title="services::DatagramBsd\l::DatagramBsd">
<polygon fill="white" stroke="black" points="392,-688.5 392,-718.5 509,-718.5 509,-688.5 392,-688.5"/>
<text text-anchor="start" x="400" y="-706.5" font-family="Helvetica,sans-Serif" font-size="10.00">services::DatagramBsd</text>
<text text-anchor="middle" x="450.5" y="-695.5" font-family="Helvetica,sans-Serif" font-size="10.00">::DatagramBsd</text>
</a>
</g>
</g>
<!-- Node26&#45;&gt;Node27 -->
<g id="edge12" class="edge"><title>Node26&#45;&gt;Node27</title>
<path fill="none" stroke="midnightblue" d="M326.898,-703.5C348.092,-703.5 371.261,-703.5 391.694,-703.5"/>
<polygon fill="midnightblue" stroke="midnightblue" points="326.673,-700 316.673,-703.5 326.673,-707 326.673,-700"/>
</g>
<!-- Node29 -->
<g id="node15" class="node"><title>Node29</title>
<g id="a_node15"><a xlink:href="../../d2/d7b/classservices_1_1_datagram_win.html#a62a0f8b7fde4709242ab5693e5386e3b" target="_top" xlink:title="services::DatagramWin\l::DatagramWin">
<polygon fill="white" stroke="black" points="392,-639.5 392,-669.5 509,-669.5 509,-639.5 392,-639.5"/>
<text text-anchor="start" x="400" y="-657.5" font-family="Helvetica,sans-Serif" font-size="10.00">services::DatagramWin</text>
<text text-anchor="middle" x="450.5" y="-646.5" font-family="Helvetica,sans-Serif" font-size="10.00">::DatagramWin</text>
</a>
</g>
</g>
<!-- Node28&#45;&gt;Node29 -->
<g id="edge14" class="edge"><title>Node28&#45;&gt;Node29</title>
<path fill="none" stroke="midnightblue" d="M326.898,-654.5C348.092,-654.5 371.261,-654.5 391.694,-654.5"/>
<polygon fill="midnightblue" stroke="midnightblue" points="326.673,-651 316.673,-654.5 326.673,-658 326.673,-651"/>
</g>
<!-- Node31 -->
<g id="node17" class="node"><title>Node31</title>
<g id="a_node17"><a xlink:href="../../d4/dbc/classservices_1_1_name_lookup_bsd.html#a43cc90c11b3626246f5e45b35e4a4188" target="_top" xlink:title="services::NameLookupBsd::Run">
<polygon fill="white" stroke="black" points="373,-596 373,-615 528,-615 528,-596 373,-596"/>
<text text-anchor="middle" x="450.5" y="-603" font-family="Helvetica,sans-Serif" font-size="10.00">services::NameLookupBsd::Run</text>
</a>
</g>
</g>
<!-- Node30&#45;&gt;Node31 -->
<g id="edge16" class="edge"><title>Node30&#45;&gt;Node31</title>
<path fill="none" stroke="midnightblue" d="M334.13,-605.5C346.887,-605.5 360.148,-605.5 372.941,-605.5"/>
<polygon fill="midnightblue" stroke="midnightblue" points="334.027,-602 324.026,-605.5 334.026,-609 334.027,-602"/>
</g>
<!-- Node32 -->
<g id="node18" class="node"><title>Node32</title>
<g id="a_node18"><a xlink:href="../../d4/dbc/classservices_1_1_name_lookup_bsd.html#a9a05ffa0533c664fc7d39b5122e43da3" target="_top" xlink:title="services::NameLookupBsd\l::NameLookupBsd">
<polygon fill="white" stroke="black" points="564,-590.5 564,-620.5 696,-620.5 696,-590.5 564,-590.5"/>
<text text-anchor="start" x="572" y="-608.5" font-family="Helvetica,sans-Serif" font-size="10.00">services::NameLookupBsd</text>
<text text-anchor="middle" x="630" y="-597.5" font-family="Helvetica,sans-Serif" font-size="10.00">::NameLookupBsd</text>
</a>
</g>
</g>
<!-- Node31&#45;&gt;Node32 -->
<g id="edge17" class="edge"><title>Node31&#45;&gt;Node32</title>
<path fill="none" stroke="midnightblue" d="M538.169,-605.5C546.805,-605.5 555.467,-605.5 563.827,-605.5"/>
<polygon fill="midnightblue" stroke="midnightblue" points="538.064,-602 528.064,-605.5 538.064,-609 538.064,-602"/>
</g>
<!-- Node34 -->
<g id="node20" class="node"><title>Node34</title>
<g id="a_node20"><a xlink:href="../../d8/dbd/classservices_1_1_name_lookup_win.html#a94bebcaf572453651531050398cb47d8" target="_top" xlink:title="services::NameLookupWin::Run">
<polygon fill="white" stroke="black" points="373,-547 373,-566 528,-566 528,-547 373,-547"/>
<text text-anchor="middle" x="450.5" y="-554" font-family="Helvetica,sans-Serif" font-size="10.00">services::NameLookupWin::Run</text>
</a>
</g>
</g>
<!-- Node33&#45;&gt;Node34 -->
<g id="edge19" class="edge"><title>Node33&#45;&gt;Node34</title>
<path fill="none" stroke="midnightblue" d="M334.13,-556.5C346.887,-556.5 360.148,-556.5 372.941,-556.5"/>
<polygon fill="midnightblue" stroke="midnightblue" points="334.027,-553 324.026,-556.5 334.026,-560 334.027,-553"/>
</g>
<!-- Node35 -->
<g id="node21" class="node"><title>Node35</title>
<g id="a_node21"><a xlink:href="../../d8/dbd/classservices_1_1_name_lookup_win.html#ae00677ab7da6b7f7e2aba8eef6804504" target="_top" xlink:title="services::NameLookupWin\l::NameLookupWin">
<polygon fill="white" stroke="black" points="564,-541.5 564,-571.5 696,-571.5 696,-541.5 564,-541.5"/>
<text text-anchor="start" x="572" y="-559.5" font-family="Helvetica,sans-Serif" font-size="10.00">services::NameLookupWin</text>
<text text-anchor="middle" x="630" y="-548.5" font-family="Helvetica,sans-Serif" font-size="10.00">::NameLookupWin</text>
</a>
</g>
</g>
<!-- Node34&#45;&gt;Node35 -->
<g id="edge20" class="edge"><title>Node34&#45;&gt;Node35</title>
<path fill="none" stroke="midnightblue" d="M538.169,-556.5C546.805,-556.5 555.467,-556.5 563.827,-556.5"/>
<polygon fill="midnightblue" stroke="midnightblue" points="538.064,-553 528.064,-556.5 538.064,-560 538.064,-553"/>
</g>
<!-- Node37&#45;&gt;Node38 -->
<g id="edge23" class="edge"><title>Node37&#45;&gt;Node38</title>
<path fill="none" stroke="midnightblue" d="M334.045,-437.833C349.091,-436.096 364.842,-434.277 379.702,-432.561"/>
<polygon fill="midnightblue" stroke="midnightblue" points="333.293,-434.397 323.76,-439.021 334.096,-441.351 333.293,-434.397"/>
</g>
<!-- Node43 -->
<g id="node29" class="node"><title>Node43</title>
<g id="a_node29"><a xlink:href="../../d7/d8f/classhal_1_1_timer_service_bsd.html#a7c5aaa118c30ecd78d358acf09e87479" target="_top" xlink:title="hal::TimerServiceBsd\l::TimerServiceBsd">
<polygon fill="white" stroke="black" points="396.5,-196.5 396.5,-226.5 504.5,-226.5 504.5,-196.5 396.5,-196.5"/>
<text text-anchor="start" x="404.5" y="-214.5" font-family="Helvetica,sans-Serif" font-size="10.00">hal::TimerServiceBsd</text>
<text text-anchor="middle" x="450.5" y="-203.5" font-family="Helvetica,sans-Serif" font-size="10.00">::TimerServiceBsd</text>
</a>
</g>
</g>
<!-- Node42&#45;&gt;Node43 -->
<g id="edge29" class="edge"><title>Node42&#45;&gt;Node43</title>
<path fill="none" stroke="midnightblue" d="M322.163,-211.5C346.217,-211.5 373.361,-211.5 396.39,-211.5"/>
<polygon fill="midnightblue" stroke="midnightblue" points="322.065,-208 312.065,-211.5 322.065,-215 322.065,-208"/>
</g>
<!-- Node45 -->
<g id="node31" class="node"><title>Node45</title>
<g id="a_node31"><a xlink:href="../../d1/d79/classhal_1_1_timer_service_win.html#ae48d7518770ff8663f7c8dab08a6cf78" target="_top" xlink:title="hal::TimerServiceWin\l::TimerServiceWin">
<polygon fill="white" stroke="black" points="396.5,-147.5 396.5,-177.5 504.5,-177.5 504.5,-147.5 396.5,-147.5"/>
<text text-anchor="start" x="404.5" y="-165.5" font-family="Helvetica,sans-Serif" font-size="10.00">hal::TimerServiceWin</text>
<text text-anchor="middle" x="450.5" y="-154.5" font-family="Helvetica,sans-Serif" font-size="10.00">::TimerServiceWin</text>
</a>
</g>
</g>
<!-- Node44&#45;&gt;Node45 -->
<g id="edge31" class="edge"><title>Node44&#45;&gt;Node45</title>
<path fill="none" stroke="midnightblue" d="M322.163,-162.5C346.217,-162.5 373.361,-162.5 396.39,-162.5"/>
<polygon fill="midnightblue" stroke="midnightblue" points="322.065,-159 312.065,-162.5 322.065,-166 322.065,-159"/>
</g>
<!-- Node48 -->
<g id="node34" class="node"><title>Node48</title>
<g id="a_node34"><a xlink:href="../../d0/db3/classservices_1_1_flash_quad_spi.html#a3ff6a6b4dc7fa4f07ff1dc03d9292f33" target="_top" xlink:title="services::FlashQuadSpi\l::WriteBuffer">
<polygon fill="white" stroke="black" points="391,-49.5 391,-79.5 510,-79.5 510,-49.5 391,-49.5"/>
<text text-anchor="start" x="399" y="-67.5" font-family="Helvetica,sans-Serif" font-size="10.00">services::FlashQuadSpi</text>
<text text-anchor="middle" x="450.5" y="-56.5" font-family="Helvetica,sans-Serif" font-size="10.00">::WriteBuffer</text>
</a>
</g>
</g>
<!-- Node47&#45;&gt;Node48 -->
<g id="edge34" class="edge"><title>Node47&#45;&gt;Node48</title>
<path fill="none" stroke="midnightblue" d="M327.719,-64.5C348.443,-64.5 370.988,-64.5 390.983,-64.5"/>
<polygon fill="midnightblue" stroke="midnightblue" points="327.711,-61.0001 317.711,-64.5 327.711,-68.0001 327.711,-61.0001"/>
</g>
<!-- Node50 -->
<g id="node36" class="node"><title>Node50</title>
<g id="a_node36"><a xlink:href="../../d4/d36/classservices_1_1_cyclic_store.html#a6831a59811174b5a79616e69b555ef12" target="_top" xlink:title="services::CyclicStore::Add">
<polygon fill="white" stroke="black" points="385,-6 385,-25 516,-25 516,-6 385,-6"/>
<text text-anchor="middle" x="450.5" y="-13" font-family="Helvetica,sans-Serif" font-size="10.00">services::CyclicStore::Add</text>
</a>
</g>
</g>
<!-- Node49&#45;&gt;Node50 -->
<g id="edge36" class="edge"><title>Node49&#45;&gt;Node50</title>
<path fill="none" stroke="midnightblue" d="M322.078,-15.5C342.243,-15.5 364.588,-15.5 384.862,-15.5"/>
<polygon fill="midnightblue" stroke="midnightblue" points="322.065,-12.0001 312.065,-15.5 322.065,-19.0001 322.065,-12.0001"/>
</g>
<!-- Node51 -->
<g id="node37" class="node"><title>Node51</title>
<g id="a_node37"><a xlink:href="../../d4/d36/classservices_1_1_cyclic_store.html#a7aeab26acd5d9c4df8de0dd8eceb6af8" target="_top" xlink:title="services::CyclicStore\l::AddPartial">
<polygon fill="white" stroke="black" points="576,-0.5 576,-30.5 684,-30.5 684,-0.5 576,-0.5"/>
<text text-anchor="start" x="584" y="-18.5" font-family="Helvetica,sans-Serif" font-size="10.00">services::CyclicStore</text>
<text text-anchor="middle" x="630" y="-7.5" font-family="Helvetica,sans-Serif" font-size="10.00">::AddPartial</text>
</a>
</g>
</g>
<!-- Node50&#45;&gt;Node51 -->
<g id="edge37" class="edge"><title>Node50&#45;&gt;Node51</title>
<path fill="none" stroke="midnightblue" d="M526.333,-15.5C542.968,-15.5 560.272,-15.5 575.829,-15.5"/>
<polygon fill="midnightblue" stroke="midnightblue" points="526.084,-12.0001 516.084,-15.5 526.084,-19.0001 526.084,-12.0001"/>
</g>
</g>
</svg>
        <g id="navigator" transform="translate(0 0)" fill="#404254">
                <rect fill="#f2f5e9" fill-opacity="0.5" stroke="#606060" stroke-width=".5" x="0" y="0" width="60" height="60"/>
                <use id="zoomplus" xlink:href="#zoomPlus" x="17" y="9" onmousedown="handleZoom(evt,'in')"/>
                <use id="zoomminus" xlink:href="#zoomMin" x="42" y="9" onmousedown="handleZoom(evt,'out')"/>
                <use id="reset" xlink:href="#resetDef" x="30" y="36" onmousedown="handleReset()"/>
                <g id="arrowUp" xlink:href="#dirArrow" transform="translate(30 24)" onmousedown="handlePan(0,-1)">
                  <use xlink:href="#rim" fill="#404040">
                        <set attributeName="fill" to="#808080" begin="arrowUp.mouseover" end="arrowUp.mouseout"/>
                  </use>
                  <path fill="none" stroke="white" stroke-width="1.5" d="M0,-3.0v7 M-2.5,-0.5L0,-3.0L2.5,-0.5"/>
                </g>
                <g id="arrowRight" xlink:href="#dirArrow" transform="rotate(90) translate(36 -43)" onmousedown="handlePan(1,0)">
                  <use xlink:href="#rim" fill="#404040">
                        <set attributeName="fill" to="#808080" begin="arrowRight.mouseover" end="arrowRight.mouseout"/>
                  </use>
                  <path fill="none" stroke="white" stroke-width="1.5" d="M0,-3.0v7 M-2.5,-0.5L0,-3.0L2.5,-0.5"/>
                </g>
                <g id="arrowDown" xlink:href="#dirArrow" transform="rotate(180) translate(-30 -48)" onmousedown="handlePan(0,1)">
                  <use xlink:href="#rim" fill="#404040">
                        <set attributeName="fill" to="#808080" begin="arrowDown.mouseover" end="arrowDown.mouseout"/>
                  </use>
                  <path fill="none" stroke="white" stroke-width="1.5" d="M0,-3.0v7 M-2.5,-0.5L0,-3.0L2.5,-0.5"/>
                </g>
                <g id="arrowLeft" xlink:href="#dirArrow" transform="rotate(270) translate(-36 17)" onmousedown="handlePan(-1,0)">
                  <use xlink:href="#rim" fill="#404040">
                        <set attributeName="fill" to="#808080" begin="arrowLeft.mouseover" end="arrowLeft.mouseout"/>
                  </use>
                  <path fill="none" stroke="white" stroke-width="1.5" d="M0,-3.0v7 M-2.5,-0.5L0,-3.0L2.5,-0.5"/>
                </g>
        </g>
        <svg viewBox="0 0 15 15" width="100%" height="30px" preserveAspectRatio="xMaxYMin meet">
         <g id="arrow_out" transform="scale(0.3 0.3)">
          <a xlink:href="classinfra_1_1_event_dispatcher_worker_a5922b8fd5101b15f20b639fcd11fa272_icgraph_org.svg" target="_base">
           <rect id="button" ry="5" rx="5" y="6" x="6" height="38" width="38"
                fill="#f2f5e9" fill-opacity="0.5" stroke="#606060" stroke-width="1.0"/>
           <path id="arrow"
             d="M 11.500037,31.436501 C 11.940474,20.09759 22.043105,11.32322 32.158766,21.979434 L 37.068811,17.246167 C 37.068811,17.246167 37.088388,32 37.088388,32 L 22.160133,31.978069 C 22.160133,31.978069 26.997745,27.140456 26.997745,27.140456 C 18.528582,18.264221 13.291696,25.230495 11.500037,31.436501 z"
             style="fill:#404040;"/>
          </a>
         </g>
        </svg>
</svg>
