<?xml version="1.0" encoding="UTF-8" standalone="no"?>
<!DOCTYPE svg PUBLIC "-//W3C//DTD SVG 1.1//EN"
 "http://www.w3.org/Graphics/SVG/1.1/DTD/svg11.dtd">
<!-- Generated by graphviz version 2.38.0 (20140413.2041)
 -->
<!-- Title: infra::ProxyCreator&lt; void, void(ConstructionArgs...)&gt; Pages: 1 -->
<svg width="169pt" height="117pt"
 viewBox="0.00 0.00 169.00 117.00" xmlns="http://www.w3.org/2000/svg" xmlns:xlink="http://www.w3.org/1999/xlink">
<g id="graph0" class="graph" transform="scale(1 1) rotate(0) translate(4 113)">
<title>infra::ProxyCreator&lt; void, void(ConstructionArgs...)&gt;</title>
<polygon fill="white" stroke="none" points="-4,4 -4,-113 165,-113 165,4 -4,4"/>
<!-- Node1 -->
<g id="node1" class="node"><title>Node1</title>
<polygon fill="#bfbfbf" stroke="black" points="0,-0.5 0,-30.5 161,-30.5 161,-0.5 0,-0.5"/>
<text text-anchor="start" x="8" y="-18.5" font-family="Helvetica,sans-Serif" font-size="10.00">infra::ProxyCreator</text>
<text text-anchor="middle" x="80.5" y="-7.5" font-family="Helvetica,sans-Serif" font-size="10.00">&lt; void, void(ConstructionArgs...)&gt;</text>
</g>
<!-- Node2 -->
<g id="node2" class="node"><title>Node2</title>
<g id="a_node2"><a xlink:href="../../d9/dab/classinfra_1_1_creator_base_3_01void_00_01void_07_construction_args_8_8_8_08_4.html" target="_top" xlink:title="infra::CreatorBase\l\&lt; void, void(ConstructionArgs...)\&gt;">
<polygon fill="white" stroke="black" points="0,-78.5 0,-108.5 161,-108.5 161,-78.5 0,-78.5"/>
<text text-anchor="start" x="8" y="-96.5" font-family="Helvetica,sans-Serif" font-size="10.00">infra::CreatorBase</text>
<text text-anchor="middle" x="80.5" y="-85.5" font-family="Helvetica,sans-Serif" font-size="10.00">&lt; void, void(ConstructionArgs...)&gt;</text>
</a>
</g>
</g>
<!-- Node2&#45;&gt;Node1 -->
<g id="edge1" class="edge"><title>Node2&#45;&gt;Node1</title>
<path fill="none" stroke="#9a32cd" stroke-dasharray="5,2" d="M80.5,-68.0898C80.5,-55.7565 80.5,-41.2237 80.5,-30.7309"/>
<polygon fill="#9a32cd" stroke="#9a32cd" points="77.0001,-68.2049 80.5,-78.205 84.0001,-68.205 77.0001,-68.2049"/>
<text text-anchor="middle" x="97.5" y="-52" font-family="Helvetica,sans-Serif" font-size="10.00"> creator</text>
</g>
</g>
</svg>
