<?xml version="1.0" encoding="UTF-8" standalone="no"?>
<!DOCTYPE svg PUBLIC "-//W3C//DTD SVG 1.1//EN"
 "http://www.w3.org/Graphics/SVG/1.1/DTD/svg11.dtd">
<!-- Generated by graphviz version 2.38.0 (20140413.2041)
 -->
<!-- Title: infra::Sequencer::Else Pages: 1 -->
<svg width="603pt" height="137pt"
 viewBox="0.00 0.00 603.00 137.00" xmlns="http://www.w3.org/2000/svg" xmlns:xlink="http://www.w3.org/1999/xlink">
<g id="graph0" class="graph" transform="scale(1 1) rotate(0) translate(4 133)">
<title>infra::Sequencer::Else</title>
<polygon fill="white" stroke="none" points="-4,4 -4,-133 599,-133 599,4 -4,4"/>
<!-- Node86 -->
<g id="node1" class="node"><title>Node86</title>
<polygon fill="#bfbfbf" stroke="black" points="0,-55 0,-74 113,-74 113,-55 0,-55"/>
<text text-anchor="middle" x="56.5" y="-62" font-family="Helvetica,sans-Serif" font-size="10.00">infra::Sequencer::Else</text>
</g>
<!-- Node87 -->
<g id="node2" class="node"><title>Node87</title>
<g id="a_node2"><a xlink:href="../../d8/db5/classapplication_1_1_deploy_pack_to_external.html#a266ba4b3faeea4ab1efca546279509cd" target="_top" xlink:title="application::DeployPackTo\lExternal::DeployPackToExternal">
<polygon fill="white" stroke="black" points="149,-98.5 149,-128.5 307,-128.5 307,-98.5 149,-98.5"/>
<text text-anchor="start" x="157" y="-116.5" font-family="Helvetica,sans-Serif" font-size="10.00">application::DeployPackTo</text>
<text text-anchor="middle" x="228" y="-105.5" font-family="Helvetica,sans-Serif" font-size="10.00">External::DeployPackToExternal</text>
</a>
</g>
</g>
<!-- Node86&#45;&gt;Node87 -->
<g id="edge1" class="edge"><title>Node86&#45;&gt;Node87</title>
<path fill="none" stroke="midnightblue" d="M100.275,-76.8657C122.97,-83.4265 151.037,-91.5403 174.984,-98.463"/>
<polygon fill="midnightblue" stroke="midnightblue" points="101.162,-73.4789 90.5837,-74.064 99.2183,-80.2036 101.162,-73.4789"/>
</g>
<!-- Node88 -->
<g id="node3" class="node"><title>Node88</title>
<g id="a_node3"><a xlink:href="../../d8/d2e/classservices_1_1_cyclic_store_1_1_iterator.html#a381735d4db303d7075fb985d38620026" target="_top" xlink:title="services::CyclicStore\l::Iterator::Read">
<polygon fill="white" stroke="black" points="174,-49.5 174,-79.5 282,-79.5 282,-49.5 174,-49.5"/>
<text text-anchor="start" x="182" y="-67.5" font-family="Helvetica,sans-Serif" font-size="10.00">services::CyclicStore</text>
<text text-anchor="middle" x="228" y="-56.5" font-family="Helvetica,sans-Serif" font-size="10.00">::Iterator::Read</text>
</a>
</g>
</g>
<!-- Node86&#45;&gt;Node88 -->
<g id="edge2" class="edge"><title>Node86&#45;&gt;Node88</title>
<path fill="none" stroke="midnightblue" d="M123.292,-64.5C140.079,-64.5 157.911,-64.5 173.968,-64.5"/>
<polygon fill="midnightblue" stroke="midnightblue" points="123.001,-61.0001 113.001,-64.5 123.001,-68.0001 123.001,-61.0001"/>
</g>
<!-- Node89 -->
<g id="node4" class="node"><title>Node89</title>
<g id="a_node4"><a xlink:href="../../d4/d36/classservices_1_1_cyclic_store.html#aad16c79a455a56877863b2828a03a22b" target="_top" xlink:title="services::CyclicStore\l::RecoverEndAddress">
<polygon fill="white" stroke="black" points="173,-0.5 173,-30.5 283,-30.5 283,-0.5 173,-0.5"/>
<text text-anchor="start" x="181" y="-18.5" font-family="Helvetica,sans-Serif" font-size="10.00">services::CyclicStore</text>
<text text-anchor="middle" x="228" y="-7.5" font-family="Helvetica,sans-Serif" font-size="10.00">::RecoverEndAddress</text>
</a>
</g>
</g>
<!-- Node86&#45;&gt;Node89 -->
<g id="edge3" class="edge"><title>Node86&#45;&gt;Node89</title>
<path fill="none" stroke="midnightblue" d="M100.275,-52.1343C122.97,-45.5735 151.037,-37.4597 174.984,-30.537"/>
<polygon fill="midnightblue" stroke="midnightblue" points="99.2183,-48.7964 90.5837,-54.936 101.162,-55.5211 99.2183,-48.7964"/>
</g>
<!-- Node90 -->
<g id="node5" class="node"><title>Node90</title>
<g id="a_node5"><a xlink:href="../../d4/d36/classservices_1_1_cyclic_store.html#a5b397293a572ce5d6d3144f0d284770f" target="_top" xlink:title="services::CyclicStore\l::Recover">
<polygon fill="white" stroke="black" points="343,-0.5 343,-30.5 451,-30.5 451,-0.5 343,-0.5"/>
<text text-anchor="start" x="351" y="-18.5" font-family="Helvetica,sans-Serif" font-size="10.00">services::CyclicStore</text>
<text text-anchor="middle" x="397" y="-7.5" font-family="Helvetica,sans-Serif" font-size="10.00">::Recover</text>
</a>
</g>
</g>
<!-- Node89&#45;&gt;Node90 -->
<g id="edge4" class="edge"><title>Node89&#45;&gt;Node90</title>
<path fill="none" stroke="midnightblue" d="M293.275,-15.5C309.68,-15.5 327.132,-15.5 342.906,-15.5"/>
<polygon fill="midnightblue" stroke="midnightblue" points="293.22,-12.0001 283.22,-15.5 293.22,-19.0001 293.22,-12.0001"/>
</g>
<!-- Node91 -->
<g id="node6" class="node"><title>Node91</title>
<g id="a_node6"><a xlink:href="../../d4/d36/classservices_1_1_cyclic_store.html#a6a29c761506bd86c65acb03b1a717e9a" target="_top" xlink:title="services::CyclicStore\l::CyclicStore">
<polygon fill="white" stroke="black" points="487,-0.5 487,-30.5 595,-30.5 595,-0.5 487,-0.5"/>
<text text-anchor="start" x="495" y="-18.5" font-family="Helvetica,sans-Serif" font-size="10.00">services::CyclicStore</text>
<text text-anchor="middle" x="541" y="-7.5" font-family="Helvetica,sans-Serif" font-size="10.00">::CyclicStore</text>
</a>
</g>
</g>
<!-- Node90&#45;&gt;Node91 -->
<g id="edge5" class="edge"><title>Node90&#45;&gt;Node91</title>
<path fill="none" stroke="midnightblue" d="M461.517,-15.5C469.996,-15.5 478.618,-15.5 486.894,-15.5"/>
<polygon fill="midnightblue" stroke="midnightblue" points="461.28,-12.0001 451.28,-15.5 461.28,-19.0001 461.28,-12.0001"/>
</g>
</g>
</svg>
