<?xml version="1.0" encoding="UTF-8" standalone="no"?>
<!DOCTYPE svg PUBLIC "-//W3C//DTD SVG 1.1//EN"
 "http://www.w3.org/Graphics/SVG/1.1/DTD/svg11.dtd">
<!-- Generated by graphviz version 2.38.0 (20140413.2041)
 -->
<!-- Title: infra::Sequencer::ElseIf Pages: 1 -->
<svg width="607pt" height="176pt"
 viewBox="0.00 0.00 607.00 176.00" xmlns="http://www.w3.org/2000/svg" xmlns:xlink="http://www.w3.org/1999/xlink">
<g id="graph0" class="graph" transform="scale(1 1) rotate(0) translate(4 172)">
<title>infra::Sequencer::ElseIf</title>
<polygon fill="white" stroke="none" points="-4,4 -4,-172 603,-172 603,4 -4,4"/>
<!-- Node104 -->
<g id="node1" class="node"><title>Node104</title>
<polygon fill="#bfbfbf" stroke="black" points="0,-72 0,-91 117,-91 117,-72 0,-72"/>
<text text-anchor="middle" x="58.5" y="-79" font-family="Helvetica,sans-Serif" font-size="10.00">infra::Sequencer::ElseIf</text>
</g>
<!-- Node105 -->
<g id="node2" class="node"><title>Node105</title>
<g id="a_node2"><a xlink:href="../../d8/db5/classapplication_1_1_deploy_pack_to_external.html#a266ba4b3faeea4ab1efca546279509cd" target="_top" xlink:title="application::DeployPackTo\lExternal::DeployPackToExternal">
<polygon fill="white" stroke="black" points="153,-137.5 153,-167.5 311,-167.5 311,-137.5 153,-137.5"/>
<text text-anchor="start" x="161" y="-155.5" font-family="Helvetica,sans-Serif" font-size="10.00">application::DeployPackTo</text>
<text text-anchor="middle" x="232" y="-144.5" font-family="Helvetica,sans-Serif" font-size="10.00">External::DeployPackToExternal</text>
</a>
</g>
</g>
<!-- Node104&#45;&gt;Node105 -->
<g id="edge1" class="edge"><title>Node104&#45;&gt;Node105</title>
<path fill="none" stroke="midnightblue" d="M85.2942,-95.9361C103.775,-105.912 129.457,-119.038 153,-128.5 160.888,-131.67 169.363,-134.673 177.716,-137.412"/>
<polygon fill="midnightblue" stroke="midnightblue" points="86.7896,-92.7649 76.3357,-91.0424 83.4337,-98.9081 86.7896,-92.7649"/>
</g>
<!-- Node106 -->
<g id="node3" class="node"><title>Node106</title>
<g id="a_node3"><a xlink:href="../../d8/d2e/classservices_1_1_cyclic_store_1_1_iterator.html#a381735d4db303d7075fb985d38620026" target="_top" xlink:title="services::CyclicStore\l::Iterator::Read">
<polygon fill="white" stroke="black" points="178,-88.5 178,-118.5 286,-118.5 286,-88.5 178,-88.5"/>
<text text-anchor="start" x="186" y="-106.5" font-family="Helvetica,sans-Serif" font-size="10.00">services::CyclicStore</text>
<text text-anchor="middle" x="232" y="-95.5" font-family="Helvetica,sans-Serif" font-size="10.00">::Iterator::Read</text>
</a>
</g>
</g>
<!-- Node104&#45;&gt;Node106 -->
<g id="edge2" class="edge"><title>Node104&#45;&gt;Node106</title>
<path fill="none" stroke="midnightblue" d="M127.392,-90.2092C144.185,-92.3633 161.933,-94.6402 177.905,-96.689"/>
<polygon fill="midnightblue" stroke="midnightblue" points="127.448,-86.6878 117.084,-88.8869 126.557,-93.6309 127.448,-86.6878"/>
</g>
<!-- Node107 -->
<g id="node4" class="node"><title>Node107</title>
<g id="a_node4"><a xlink:href="../../d4/d36/classservices_1_1_cyclic_store.html#a5b397293a572ce5d6d3144f0d284770f" target="_top" xlink:title="services::CyclicStore\l::Recover">
<polygon fill="white" stroke="black" points="347,-22.5 347,-52.5 455,-52.5 455,-22.5 347,-22.5"/>
<text text-anchor="start" x="355" y="-40.5" font-family="Helvetica,sans-Serif" font-size="10.00">services::CyclicStore</text>
<text text-anchor="middle" x="401" y="-29.5" font-family="Helvetica,sans-Serif" font-size="10.00">::Recover</text>
</a>
</g>
</g>
<!-- Node104&#45;&gt;Node107 -->
<g id="edge3" class="edge"><title>Node104&#45;&gt;Node107</title>
<path fill="none" stroke="midnightblue" d="M127.334,-72.7343C191.833,-64.3998 287.54,-52.0322 346.728,-44.3839"/>
<polygon fill="midnightblue" stroke="midnightblue" points="126.73,-69.2832 117.261,-74.036 127.627,-76.2255 126.73,-69.2832"/>
</g>
<!-- Node109 -->
<g id="node6" class="node"><title>Node109</title>
<g id="a_node6"><a xlink:href="../../d4/d36/classservices_1_1_cyclic_store.html#aad16c79a455a56877863b2828a03a22b" target="_top" xlink:title="services::CyclicStore\l::RecoverEndAddress">
<polygon fill="white" stroke="black" points="177,-0.5 177,-30.5 287,-30.5 287,-0.5 177,-0.5"/>
<text text-anchor="start" x="185" y="-18.5" font-family="Helvetica,sans-Serif" font-size="10.00">services::CyclicStore</text>
<text text-anchor="middle" x="232" y="-7.5" font-family="Helvetica,sans-Serif" font-size="10.00">::RecoverEndAddress</text>
</a>
</g>
</g>
<!-- Node104&#45;&gt;Node109 -->
<g id="edge5" class="edge"><title>Node104&#45;&gt;Node109</title>
<path fill="none" stroke="midnightblue" d="M93.8446,-68.273C111.519,-61.4669 133.413,-53.0375 153,-45.5 165.593,-40.654 179.33,-35.3697 191.718,-30.6051"/>
<polygon fill="midnightblue" stroke="midnightblue" points="92.5749,-65.0114 84.5007,-71.8713 95.0905,-71.5438 92.5749,-65.0114"/>
</g>
<!-- Node108 -->
<g id="node5" class="node"><title>Node108</title>
<g id="a_node5"><a xlink:href="../../d4/d36/classservices_1_1_cyclic_store.html#a6a29c761506bd86c65acb03b1a717e9a" target="_top" xlink:title="services::CyclicStore\l::CyclicStore">
<polygon fill="white" stroke="black" points="491,-22.5 491,-52.5 599,-52.5 599,-22.5 491,-22.5"/>
<text text-anchor="start" x="499" y="-40.5" font-family="Helvetica,sans-Serif" font-size="10.00">services::CyclicStore</text>
<text text-anchor="middle" x="545" y="-29.5" font-family="Helvetica,sans-Serif" font-size="10.00">::CyclicStore</text>
</a>
</g>
</g>
<!-- Node107&#45;&gt;Node108 -->
<g id="edge4" class="edge"><title>Node107&#45;&gt;Node108</title>
<path fill="none" stroke="midnightblue" d="M465.517,-37.5C473.996,-37.5 482.618,-37.5 490.894,-37.5"/>
<polygon fill="midnightblue" stroke="midnightblue" points="465.28,-34.0001 455.28,-37.5 465.28,-41.0001 465.28,-34.0001"/>
</g>
<!-- Node109&#45;&gt;Node107 -->
<g id="edge6" class="edge"><title>Node109&#45;&gt;Node107</title>
<path fill="none" stroke="midnightblue" d="M297.275,-23.9673C313.68,-26.1285 331.132,-28.4275 346.906,-30.5056"/>
<polygon fill="midnightblue" stroke="midnightblue" points="297.592,-20.4789 287.22,-22.6428 296.677,-27.419 297.592,-20.4789"/>
</g>
</g>
</svg>
