<?xml version="1.0" encoding="UTF-8" standalone="no"?>
<!DOCTYPE svg PUBLIC "-//W3C//DTD SVG 1.1//EN"
 "http://www.w3.org/Graphics/SVG/1.1/DTD/svg11.dtd">
<!-- Generated by graphviz version 2.38.0 (20140413.2041)
 -->
<!-- Title: infra::Sequencer::Execute Pages: 1 -->
<!--zoomable 574 -->
<svg id="main" version="1.1" xmlns="http://www.w3.org/2000/svg" xmlns:xlink="http://www.w3.org/1999/xlink" xml:space="preserve" onload="init(evt)">
<style type="text/css"><![CDATA[
.edge:hover path { stroke: red; }
.edge:hover polygon { stroke: red; fill: red; }
]]></style>
<script type="text/javascript"><![CDATA[
var edges = document.getElementsByTagName('g');
if (edges && edges.length) {
  for (var i=0;i<edges.length;i++) {
    if (edges[i].id.substr(0,4)=='edge') {
      edges[i].setAttribute('class','edge');
    }
  }
}
]]></script>
        <defs>
                <circle id="rim" cx="0" cy="0" r="7"/>
                <circle id="rim2" cx="0" cy="0" r="3.5"/>
                <g id="zoomPlus">
                        <use xlink:href="#rim" fill="#404040">
                                <set attributeName="fill" to="#808080" begin="zoomplus.mouseover" end="zoomplus.mouseout"/>
                        </use>
                        <path d="M-4,0h8M0,-4v8" fill="none" stroke="white" stroke-width="1.5" pointer-events="none"/>
                </g>
                <g id="zoomMin">
                        <use xlink:href="#rim" fill="#404040">
                                <set attributeName="fill" to="#808080" begin="zoomminus.mouseover" end="zoomminus.mouseout"/>
                        </use>
                        <path d="M-4,0h8" fill="none" stroke="white" stroke-width="1.5" pointer-events="none"/>
                </g>
                <g id="dirArrow">
                        <path fill="none" stroke="white" stroke-width="1.5" d="M0,-3.0v7 M-2.5,-0.5L0,-3.0L2.5,-0.5"/>
                </g>
               <g id="resetDef">
                       <use xlink:href="#rim2" fill="#404040">
                               <set attributeName="fill" to="#808080" begin="reset.mouseover" end="reset.mouseout"/>
                       </use>
               </g>
        </defs>

<script type="text/javascript">
var viewWidth = 630;
var viewHeight = 574;
var sectionId = 'dynsection-16';
</script>
<script xlink:href="../../svgpan.js"/>
<svg id="graph" class="graph">
<g id="viewport">
<title>infra::Sequencer::Execute</title>
<polygon fill="white" stroke="none" points="-4,4 -4,-570 626,-570 626,4 -4,4"/>
<!-- Node195 -->
<g id="node1" class="node"><title>Node195</title>
<polygon fill="#bfbfbf" stroke="black" points="0,-273 0,-292 129,-292 129,-273 0,-273"/>
<text text-anchor="middle" x="64.5" y="-280" font-family="Helvetica,sans-Serif" font-size="10.00">infra::Sequencer::Execute</text>
</g>
<!-- Node196 -->
<g id="node2" class="node"><title>Node196</title>
<g id="a_node2"><a xlink:href="../../d4/d36/classservices_1_1_cyclic_store.html#a6831a59811174b5a79616e69b555ef12" target="_top" xlink:title="services::CyclicStore::Add">
<polygon fill="white" stroke="black" points="178.5,-541 178.5,-560 309.5,-560 309.5,-541 178.5,-541"/>
<text text-anchor="middle" x="244" y="-548" font-family="Helvetica,sans-Serif" font-size="10.00">services::CyclicStore::Add</text>
</a>
</g>
</g>
<!-- Node195&#45;&gt;Node196 -->
<g id="edge1" class="edge"><title>Node195&#45;&gt;Node196</title>
<path fill="none" stroke="midnightblue" d="M67.3691,-302.287C72.9273,-349.541 93.7061,-469.625 165,-531.5 169.421,-535.337 174.491,-538.426 179.878,-540.91"/>
<polygon fill="midnightblue" stroke="midnightblue" points="70.8293,-301.728 66.2849,-292.157 63.8691,-302.473 70.8293,-301.728"/>
</g>
<!-- Node198 -->
<g id="node4" class="node"><title>Node198</title>
<g id="a_node4"><a xlink:href="../../d4/d36/classservices_1_1_cyclic_store.html#a115b4e5eb94227652ea1065a4b2dd261" target="_top" xlink:title="services::CyclicStore\l::Clear">
<polygon fill="white" stroke="black" points="190,-491.5 190,-521.5 298,-521.5 298,-491.5 190,-491.5"/>
<text text-anchor="start" x="198" y="-509.5" font-family="Helvetica,sans-Serif" font-size="10.00">services::CyclicStore</text>
<text text-anchor="middle" x="244" y="-498.5" font-family="Helvetica,sans-Serif" font-size="10.00">::Clear</text>
</a>
</g>
</g>
<!-- Node195&#45;&gt;Node198 -->
<g id="edge3" class="edge"><title>Node195&#45;&gt;Node198</title>
<path fill="none" stroke="midnightblue" d="M69.7077,-301.883C79.3641,-341.719 106.895,-433.178 165,-482.5 172.129,-488.551 180.766,-493.078 189.661,-496.463"/>
<polygon fill="midnightblue" stroke="midnightblue" points="73.1076,-301.051 67.4475,-292.095 66.2871,-302.626 73.1076,-301.051"/>
</g>
<!-- Node199 -->
<g id="node5" class="node"><title>Node199</title>
<g id="a_node5"><a xlink:href="../../d8/db5/classapplication_1_1_deploy_pack_to_external.html#a266ba4b3faeea4ab1efca546279509cd" target="_top" xlink:title="application::DeployPackTo\lExternal::DeployPackToExternal">
<polygon fill="white" stroke="black" points="165,-442.5 165,-472.5 323,-472.5 323,-442.5 165,-442.5"/>
<text text-anchor="start" x="173" y="-460.5" font-family="Helvetica,sans-Serif" font-size="10.00">application::DeployPackTo</text>
<text text-anchor="middle" x="244" y="-449.5" font-family="Helvetica,sans-Serif" font-size="10.00">External::DeployPackToExternal</text>
</a>
</g>
</g>
<!-- Node195&#45;&gt;Node199 -->
<g id="edge4" class="edge"><title>Node195&#45;&gt;Node199</title>
<path fill="none" stroke="midnightblue" d="M73.0785,-301.885C86.6291,-334.031 118.059,-398.306 165,-433.5 169.534,-436.9 174.556,-439.823 179.802,-442.335"/>
<polygon fill="midnightblue" stroke="midnightblue" points="76.1884,-300.242 69.1719,-292.304 69.7065,-302.885 76.1884,-300.242"/>
</g>
<!-- Node200 -->
<g id="node6" class="node"><title>Node200</title>
<g id="a_node6"><a xlink:href="../../d0/db3/classservices_1_1_flash_quad_spi.html#ad5eea94e8c563df753b4a66292d1e73d" target="_top" xlink:title="services::FlashQuadSpi\l::EraseSectors">
<polygon fill="white" stroke="black" points="184.5,-393.5 184.5,-423.5 303.5,-423.5 303.5,-393.5 184.5,-393.5"/>
<text text-anchor="start" x="192.5" y="-411.5" font-family="Helvetica,sans-Serif" font-size="10.00">services::FlashQuadSpi</text>
<text text-anchor="middle" x="244" y="-400.5" font-family="Helvetica,sans-Serif" font-size="10.00">::EraseSectors</text>
</a>
</g>
</g>
<!-- Node195&#45;&gt;Node200 -->
<g id="edge5" class="edge"><title>Node195&#45;&gt;Node200</title>
<path fill="none" stroke="midnightblue" d="M78.3037,-300.321C95.5304,-323.047 128.28,-362.08 165,-384.5 170.925,-388.118 177.44,-391.23 184.101,-393.897"/>
<polygon fill="midnightblue" stroke="midnightblue" points="81.0578,-298.159 72.291,-292.209 75.4343,-302.327 81.0578,-298.159"/>
</g>
<!-- Node201 -->
<g id="node7" class="node"><title>Node201</title>
<g id="a_node7"><a xlink:href="../../df/d28/classservices_1_1_flash_spi.html#a5b3e05583977f2aebb2cb4b25491390a" target="_top" xlink:title="services::FlashSpi\l::EraseSectors">
<polygon fill="white" stroke="black" points="196,-344.5 196,-374.5 292,-374.5 292,-344.5 196,-344.5"/>
<text text-anchor="start" x="204" y="-362.5" font-family="Helvetica,sans-Serif" font-size="10.00">services::FlashSpi</text>
<text text-anchor="middle" x="244" y="-351.5" font-family="Helvetica,sans-Serif" font-size="10.00">::EraseSectors</text>
</a>
</g>
</g>
<!-- Node195&#45;&gt;Node201 -->
<g id="edge6" class="edge"><title>Node195&#45;&gt;Node201</title>
<path fill="none" stroke="midnightblue" d="M89.903,-297.193C109.664,-308.672 138.477,-324.474 165,-335.5 174.812,-339.579 185.57,-343.328 195.877,-346.59"/>
<polygon fill="midnightblue" stroke="midnightblue" points="91.6351,-294.152 81.2406,-292.101 88.0876,-300.186 91.6351,-294.152"/>
</g>
<!-- Node202 -->
<g id="node8" class="node"><title>Node202</title>
<g id="a_node8"><a xlink:href="../../d8/d2e/classservices_1_1_cyclic_store_1_1_iterator.html#a381735d4db303d7075fb985d38620026" target="_top" xlink:title="services::CyclicStore\l::Iterator::Read">
<polygon fill="white" stroke="black" points="190,-295.5 190,-325.5 298,-325.5 298,-295.5 190,-295.5"/>
<text text-anchor="start" x="198" y="-313.5" font-family="Helvetica,sans-Serif" font-size="10.00">services::CyclicStore</text>
<text text-anchor="middle" x="244" y="-302.5" font-family="Helvetica,sans-Serif" font-size="10.00">::Iterator::Read</text>
</a>
</g>
</g>
<!-- Node195&#45;&gt;Node202 -->
<g id="edge7" class="edge"><title>Node195&#45;&gt;Node202</title>
<path fill="none" stroke="midnightblue" d="M136.433,-293.689C154.235,-296.498 173.035,-299.463 189.806,-302.109"/>
<polygon fill="midnightblue" stroke="midnightblue" points="136.512,-290.159 126.089,-292.058 135.421,-297.073 136.512,-290.159"/>
</g>
<!-- Node203 -->
<g id="node9" class="node"><title>Node203</title>
<g id="a_node9"><a xlink:href="../../d8/d2e/classservices_1_1_cyclic_store_1_1_iterator.html#a15d402ff832887c4acbb33e8098d4ad4" target="_top" xlink:title="services::CyclicStore\l::Iterator::ReadSectorStatus\lIfAtStart">
<polygon fill="white" stroke="black" points="175,-235 175,-276 313,-276 313,-235 175,-235"/>
<text text-anchor="start" x="183" y="-264" font-family="Helvetica,sans-Serif" font-size="10.00">services::CyclicStore</text>
<text text-anchor="start" x="183" y="-253" font-family="Helvetica,sans-Serif" font-size="10.00">::Iterator::ReadSectorStatus</text>
<text text-anchor="middle" x="244" y="-242" font-family="Helvetica,sans-Serif" font-size="10.00">IfAtStart</text>
</a>
</g>
</g>
<!-- Node195&#45;&gt;Node203 -->
<g id="edge8" class="edge"><title>Node195&#45;&gt;Node203</title>
<path fill="none" stroke="midnightblue" d="M138.176,-271.445C150.337,-269.595 162.914,-267.682 174.953,-265.851"/>
<polygon fill="midnightblue" stroke="midnightblue" points="137.44,-268.017 128.08,-272.981 138.493,-274.937 137.44,-268.017"/>
</g>
<!-- Node204 -->
<g id="node10" class="node"><title>Node204</title>
<g id="a_node10"><a xlink:href="../../d4/d36/classservices_1_1_cyclic_store.html#a5b397293a572ce5d6d3144f0d284770f" target="_top" xlink:title="services::CyclicStore\l::Recover">
<polygon fill="white" stroke="black" points="364.5,-147.5 364.5,-177.5 472.5,-177.5 472.5,-147.5 364.5,-147.5"/>
<text text-anchor="start" x="372.5" y="-165.5" font-family="Helvetica,sans-Serif" font-size="10.00">services::CyclicStore</text>
<text text-anchor="middle" x="418.5" y="-154.5" font-family="Helvetica,sans-Serif" font-size="10.00">::Recover</text>
</a>
</g>
</g>
<!-- Node195&#45;&gt;Node204 -->
<g id="edge9" class="edge"><title>Node195&#45;&gt;Node204</title>
<path fill="none" stroke="midnightblue" d="M87.8566,-267.219C107.436,-254.453 137.049,-236.603 165,-225.5 232.123,-198.836 252.973,-205.181 323,-187.5 336.328,-184.135 350.682,-180.396 364.08,-176.858"/>
<polygon fill="midnightblue" stroke="midnightblue" points="85.7564,-264.412 79.3558,-272.855 89.6244,-270.246 85.7564,-264.412"/>
</g>
<!-- Node206 -->
<g id="node12" class="node"><title>Node206</title>
<g id="a_node12"><a xlink:href="../../d4/d36/classservices_1_1_cyclic_store.html#aad16c79a455a56877863b2828a03a22b" target="_top" xlink:title="services::CyclicStore\l::RecoverEndAddress">
<polygon fill="white" stroke="black" points="189,-147.5 189,-177.5 299,-177.5 299,-147.5 189,-147.5"/>
<text text-anchor="start" x="197" y="-165.5" font-family="Helvetica,sans-Serif" font-size="10.00">services::CyclicStore</text>
<text text-anchor="middle" x="244" y="-154.5" font-family="Helvetica,sans-Serif" font-size="10.00">::RecoverEndAddress</text>
</a>
</g>
</g>
<!-- Node195&#45;&gt;Node206 -->
<g id="edge11" class="edge"><title>Node195&#45;&gt;Node206</title>
<path fill="none" stroke="midnightblue" d="M80.8718,-265.172C99.231,-245.35 131.665,-212.995 165,-192.5 174.393,-186.725 185.084,-181.735 195.474,-177.572"/>
<polygon fill="midnightblue" stroke="midnightblue" points="78.0457,-263.078 73.9036,-272.829 83.2228,-267.789 78.0457,-263.078"/>
</g>
<!-- Node207 -->
<g id="node13" class="node"><title>Node207</title>
<g id="a_node13"><a xlink:href="../../d4/d36/classservices_1_1_cyclic_store.html#a7b83c7433db716af9eedc8b4b56e2c17" target="_top" xlink:title="services::CyclicStore\l::RecoverSector">
<polygon fill="white" stroke="black" points="190,-98.5 190,-128.5 298,-128.5 298,-98.5 190,-98.5"/>
<text text-anchor="start" x="198" y="-116.5" font-family="Helvetica,sans-Serif" font-size="10.00">services::CyclicStore</text>
<text text-anchor="middle" x="244" y="-105.5" font-family="Helvetica,sans-Serif" font-size="10.00">::RecoverSector</text>
</a>
</g>
</g>
<!-- Node195&#45;&gt;Node207 -->
<g id="edge13" class="edge"><title>Node195&#45;&gt;Node207</title>
<path fill="none" stroke="midnightblue" d="M73.5724,-263.629C87.6562,-232.915 119.609,-172.166 165,-138.5 172.424,-132.994 181.107,-128.672 189.93,-125.288"/>
<polygon fill="midnightblue" stroke="midnightblue" points="70.3544,-262.252 69.4876,-272.811 76.7501,-265.097 70.3544,-262.252"/>
</g>
<!-- Node208 -->
<g id="node14" class="node"><title>Node208</title>
<g id="a_node14"><a xlink:href="../../df/d28/classservices_1_1_flash_spi.html#a565d63c057e750b2c5703b83e2987e0d" target="_top" xlink:title="services::FlashSpi\l::WriteBuffer">
<polygon fill="white" stroke="black" points="196,-49.5 196,-79.5 292,-79.5 292,-49.5 196,-49.5"/>
<text text-anchor="start" x="204" y="-67.5" font-family="Helvetica,sans-Serif" font-size="10.00">services::FlashSpi</text>
<text text-anchor="middle" x="244" y="-56.5" font-family="Helvetica,sans-Serif" font-size="10.00">::WriteBuffer</text>
</a>
</g>
</g>
<!-- Node195&#45;&gt;Node208 -->
<g id="edge15" class="edge"><title>Node195&#45;&gt;Node208</title>
<path fill="none" stroke="midnightblue" d="M70.0913,-262.897C80.2573,-223.833 108.381,-135.967 165,-88.5 173.795,-81.127 184.833,-76.0171 195.814,-72.4762"/>
<polygon fill="midnightblue" stroke="midnightblue" points="66.6577,-262.201 67.6433,-272.75 73.4512,-263.889 66.6577,-262.201"/>
</g>
<!-- Node209 -->
<g id="node15" class="node"><title>Node209</title>
<g id="a_node15"><a xlink:href="../../d0/db3/classservices_1_1_flash_quad_spi.html#a9e190d022eb9d8fc0f88e89160f89b0f" target="_top" xlink:title="services::FlashQuadSpi\l::WriteBufferSequence">
<polygon fill="white" stroke="black" points="184.5,-0.5 184.5,-30.5 303.5,-30.5 303.5,-0.5 184.5,-0.5"/>
<text text-anchor="start" x="192.5" y="-18.5" font-family="Helvetica,sans-Serif" font-size="10.00">services::FlashQuadSpi</text>
<text text-anchor="middle" x="244" y="-7.5" font-family="Helvetica,sans-Serif" font-size="10.00">::WriteBufferSequence</text>
</a>
</g>
</g>
<!-- Node195&#45;&gt;Node209 -->
<g id="edge16" class="edge"><title>Node195&#45;&gt;Node209</title>
<path fill="none" stroke="midnightblue" d="M67.85,-262.841C74.3939,-216.876 97.0546,-101.581 165,-39.5 170.648,-34.3393 177.384,-30.2879 184.498,-27.1074"/>
<polygon fill="midnightblue" stroke="midnightblue" points="64.3533,-262.587 66.5158,-272.959 71.2932,-263.503 64.3533,-262.587"/>
</g>
<!-- Node197 -->
<g id="node3" class="node"><title>Node197</title>
<g id="a_node3"><a xlink:href="../../d4/d36/classservices_1_1_cyclic_store.html#a7aeab26acd5d9c4df8de0dd8eceb6af8" target="_top" xlink:title="services::CyclicStore\l::AddPartial">
<polygon fill="white" stroke="black" points="364.5,-535.5 364.5,-565.5 472.5,-565.5 472.5,-535.5 364.5,-535.5"/>
<text text-anchor="start" x="372.5" y="-553.5" font-family="Helvetica,sans-Serif" font-size="10.00">services::CyclicStore</text>
<text text-anchor="middle" x="418.5" y="-542.5" font-family="Helvetica,sans-Serif" font-size="10.00">::AddPartial</text>
</a>
</g>
</g>
<!-- Node196&#45;&gt;Node197 -->
<g id="edge2" class="edge"><title>Node196&#45;&gt;Node197</title>
<path fill="none" stroke="midnightblue" d="M319.951,-550.5C334.863,-550.5 350.233,-550.5 364.237,-550.5"/>
<polygon fill="midnightblue" stroke="midnightblue" points="319.723,-547 309.723,-550.5 319.723,-554 319.723,-547"/>
</g>
<!-- Node205 -->
<g id="node11" class="node"><title>Node205</title>
<g id="a_node11"><a xlink:href="../../d4/d36/classservices_1_1_cyclic_store.html#a6a29c761506bd86c65acb03b1a717e9a" target="_top" xlink:title="services::CyclicStore\l::CyclicStore">
<polygon fill="white" stroke="black" points="514,-147.5 514,-177.5 622,-177.5 622,-147.5 514,-147.5"/>
<text text-anchor="start" x="522" y="-165.5" font-family="Helvetica,sans-Serif" font-size="10.00">services::CyclicStore</text>
<text text-anchor="middle" x="568" y="-154.5" font-family="Helvetica,sans-Serif" font-size="10.00">::CyclicStore</text>
</a>
</g>
</g>
<!-- Node204&#45;&gt;Node205 -->
<g id="edge10" class="edge"><title>Node204&#45;&gt;Node205</title>
<path fill="none" stroke="midnightblue" d="M482.929,-162.5C493.23,-162.5 503.804,-162.5 513.827,-162.5"/>
<polygon fill="midnightblue" stroke="midnightblue" points="482.751,-159 472.751,-162.5 482.751,-166 482.751,-159"/>
</g>
<!-- Node206&#45;&gt;Node204 -->
<g id="edge12" class="edge"><title>Node206&#45;&gt;Node204</title>
<path fill="none" stroke="midnightblue" d="M309.324,-162.5C327.492,-162.5 347.049,-162.5 364.472,-162.5"/>
<polygon fill="midnightblue" stroke="midnightblue" points="309.107,-159 299.107,-162.5 309.107,-166 309.107,-159"/>
</g>
<!-- Node207&#45;&gt;Node204 -->
<g id="edge14" class="edge"><title>Node207&#45;&gt;Node204</title>
<path fill="none" stroke="midnightblue" d="M307.994,-131.394C326.548,-136.664 346.654,-142.376 364.512,-147.448"/>
<polygon fill="midnightblue" stroke="midnightblue" points="308.739,-127.967 298.163,-128.601 306.826,-134.701 308.739,-127.967"/>
</g>
<!-- Node210 -->
<g id="node16" class="node"><title>Node210</title>
<g id="a_node16"><a xlink:href="../../d0/db3/classservices_1_1_flash_quad_spi.html#a3ff6a6b4dc7fa4f07ff1dc03d9292f33" target="_top" xlink:title="services::FlashQuadSpi\l::WriteBuffer">
<polygon fill="white" stroke="black" points="359,-0.5 359,-30.5 478,-30.5 478,-0.5 359,-0.5"/>
<text text-anchor="start" x="367" y="-18.5" font-family="Helvetica,sans-Serif" font-size="10.00">services::FlashQuadSpi</text>
<text text-anchor="middle" x="418.5" y="-7.5" font-family="Helvetica,sans-Serif" font-size="10.00">::WriteBuffer</text>
</a>
</g>
</g>
<!-- Node209&#45;&gt;Node210 -->
<g id="edge17" class="edge"><title>Node209&#45;&gt;Node210</title>
<path fill="none" stroke="midnightblue" d="M314.034,-15.5C328.894,-15.5 344.464,-15.5 358.883,-15.5"/>
<polygon fill="midnightblue" stroke="midnightblue" points="313.882,-12.0001 303.882,-15.5 313.882,-19.0001 313.882,-12.0001"/>
</g>
</g>
</svg>
        <g id="navigator" transform="translate(0 0)" fill="#404254">
                <rect fill="#f2f5e9" fill-opacity="0.5" stroke="#606060" stroke-width=".5" x="0" y="0" width="60" height="60"/>
                <use id="zoomplus" xlink:href="#zoomPlus" x="17" y="9" onmousedown="handleZoom(evt,'in')"/>
                <use id="zoomminus" xlink:href="#zoomMin" x="42" y="9" onmousedown="handleZoom(evt,'out')"/>
                <use id="reset" xlink:href="#resetDef" x="30" y="36" onmousedown="handleReset()"/>
                <g id="arrowUp" xlink:href="#dirArrow" transform="translate(30 24)" onmousedown="handlePan(0,-1)">
                  <use xlink:href="#rim" fill="#404040">
                        <set attributeName="fill" to="#808080" begin="arrowUp.mouseover" end="arrowUp.mouseout"/>
                  </use>
                  <path fill="none" stroke="white" stroke-width="1.5" d="M0,-3.0v7 M-2.5,-0.5L0,-3.0L2.5,-0.5"/>
                </g>
                <g id="arrowRight" xlink:href="#dirArrow" transform="rotate(90) translate(36 -43)" onmousedown="handlePan(1,0)">
                  <use xlink:href="#rim" fill="#404040">
                        <set attributeName="fill" to="#808080" begin="arrowRight.mouseover" end="arrowRight.mouseout"/>
                  </use>
                  <path fill="none" stroke="white" stroke-width="1.5" d="M0,-3.0v7 M-2.5,-0.5L0,-3.0L2.5,-0.5"/>
                </g>
                <g id="arrowDown" xlink:href="#dirArrow" transform="rotate(180) translate(-30 -48)" onmousedown="handlePan(0,1)">
                  <use xlink:href="#rim" fill="#404040">
                        <set attributeName="fill" to="#808080" begin="arrowDown.mouseover" end="arrowDown.mouseout"/>
                  </use>
                  <path fill="none" stroke="white" stroke-width="1.5" d="M0,-3.0v7 M-2.5,-0.5L0,-3.0L2.5,-0.5"/>
                </g>
                <g id="arrowLeft" xlink:href="#dirArrow" transform="rotate(270) translate(-36 17)" onmousedown="handlePan(-1,0)">
                  <use xlink:href="#rim" fill="#404040">
                        <set attributeName="fill" to="#808080" begin="arrowLeft.mouseover" end="arrowLeft.mouseout"/>
                  </use>
                  <path fill="none" stroke="white" stroke-width="1.5" d="M0,-3.0v7 M-2.5,-0.5L0,-3.0L2.5,-0.5"/>
                </g>
        </g>
        <svg viewBox="0 0 15 15" width="100%" height="30px" preserveAspectRatio="xMaxYMin meet">
         <g id="arrow_out" transform="scale(0.3 0.3)">
          <a xlink:href="classinfra_1_1_sequencer_a98e466d1ab1c7c738b4b7b6d79667132_icgraph_org.svg" target="_base">
           <rect id="button" ry="5" rx="5" y="6" x="6" height="38" width="38"
                fill="#f2f5e9" fill-opacity="0.5" stroke="#606060" stroke-width="1.0"/>
           <path id="arrow"
             d="M 11.500037,31.436501 C 11.940474,20.09759 22.043105,11.32322 32.158766,21.979434 L 37.068811,17.246167 C 37.068811,17.246167 37.088388,32 37.088388,32 L 22.160133,31.978069 C 22.160133,31.978069 26.997745,27.140456 26.997745,27.140456 C 18.528582,18.264221 13.291696,25.230495 11.500037,31.436501 z"
             style="fill:#404040;"/>
          </a>
         </g>
        </svg>
</svg>
