<?xml version="1.0" encoding="UTF-8" standalone="no"?>
<!DOCTYPE svg PUBLIC "-//W3C//DTD SVG 1.1//EN"
 "http://www.w3.org/Graphics/SVG/1.1/DTD/svg11.dtd">
<!-- Generated by graphviz version 2.38.0 (20140413.2041)
 -->
<!-- Title: infra::Sequencer::EndIf Pages: 1 -->
<!--zoomable 263 -->
<svg id="main" version="1.1" xmlns="http://www.w3.org/2000/svg" xmlns:xlink="http://www.w3.org/1999/xlink" xml:space="preserve" onload="init(evt)">
<style type="text/css"><![CDATA[
.edge:hover path { stroke: red; }
.edge:hover polygon { stroke: red; fill: red; }
]]></style>
<script type="text/javascript"><![CDATA[
var edges = document.getElementsByTagName('g');
if (edges && edges.length) {
  for (var i=0;i<edges.length;i++) {
    if (edges[i].id.substr(0,4)=='edge') {
      edges[i].setAttribute('class','edge');
    }
  }
}
]]></script>
        <defs>
                <circle id="rim" cx="0" cy="0" r="7"/>
                <circle id="rim2" cx="0" cy="0" r="3.5"/>
                <g id="zoomPlus">
                        <use xlink:href="#rim" fill="#404040">
                                <set attributeName="fill" to="#808080" begin="zoomplus.mouseover" end="zoomplus.mouseout"/>
                        </use>
                        <path d="M-4,0h8M0,-4v8" fill="none" stroke="white" stroke-width="1.5" pointer-events="none"/>
                </g>
                <g id="zoomMin">
                        <use xlink:href="#rim" fill="#404040">
                                <set attributeName="fill" to="#808080" begin="zoomminus.mouseover" end="zoomminus.mouseout"/>
                        </use>
                        <path d="M-4,0h8" fill="none" stroke="white" stroke-width="1.5" pointer-events="none"/>
                </g>
                <g id="dirArrow">
                        <path fill="none" stroke="white" stroke-width="1.5" d="M0,-3.0v7 M-2.5,-0.5L0,-3.0L2.5,-0.5"/>
                </g>
               <g id="resetDef">
                       <use xlink:href="#rim2" fill="#404040">
                               <set attributeName="fill" to="#808080" begin="reset.mouseover" end="reset.mouseout"/>
                       </use>
               </g>
        </defs>

<script type="text/javascript">
var viewWidth = 612;
var viewHeight = 263;
var sectionId = 'dynsection-11';
</script>
<script xlink:href="../../svgpan.js"/>
<svg id="graph" class="graph">
<g id="viewport">
<title>infra::Sequencer::EndIf</title>
<polygon fill="white" stroke="none" points="-4,4 -4,-258.5 608,-258.5 608,4 -4,4"/>
<!-- Node136 -->
<g id="node1" class="node"><title>Node136</title>
<polygon fill="#bfbfbf" stroke="black" points="0,-154.5 0,-173.5 115,-173.5 115,-154.5 0,-154.5"/>
<text text-anchor="middle" x="57.5" y="-161.5" font-family="Helvetica,sans-Serif" font-size="10.00">infra::Sequencer::EndIf</text>
</g>
<!-- Node137 -->
<g id="node2" class="node"><title>Node137</title>
<g id="a_node2"><a xlink:href="../../d8/dcc/classinfra_1_1_sequencer.html#a40c4a5d093bef3a87c982a01f528f4de" target="_top" xlink:title="infra::Sequencer::Execute\lWithoutContext">
<polygon fill="white" stroke="black" points="158.5,-172 158.5,-202 287.5,-202 287.5,-172 158.5,-172"/>
<text text-anchor="start" x="166.5" y="-190" font-family="Helvetica,sans-Serif" font-size="10.00">infra::Sequencer::Execute</text>
<text text-anchor="middle" x="223" y="-179" font-family="Helvetica,sans-Serif" font-size="10.00">WithoutContext</text>
</a>
</g>
</g>
<!-- Node136&#45;&gt;Node137 -->
<g id="edge1" class="edge"><title>Node136&#45;&gt;Node137</title>
<path fill="none" stroke="midnightblue" d="M115.226,-171.98C125.888,-173.48 137.18,-175.068 148.272,-176.629"/>
<polygon fill="midnightblue" stroke="midnightblue" points="147.99,-180.123 158.38,-178.05 148.965,-173.191 147.99,-180.123"/>
</g>
<!-- Node142 -->
<g id="node7" class="node"><title>Node142</title>
<g id="a_node7"><a xlink:href="../../d8/dcc/classinfra_1_1_sequencer.html#a5a0bb79e770ee68910377bcbd24f9c14" target="_top" xlink:title="infra::Sequencer::PopContext">
<polygon fill="white" stroke="black" points="151,-131.5 151,-150.5 295,-150.5 295,-131.5 151,-131.5"/>
<text text-anchor="middle" x="223" y="-138.5" font-family="Helvetica,sans-Serif" font-size="10.00">infra::Sequencer::PopContext</text>
</a>
</g>
</g>
<!-- Node136&#45;&gt;Node142 -->
<g id="edge7" class="edge"><title>Node136&#45;&gt;Node142</title>
<path fill="none" stroke="midnightblue" d="M115.226,-156.02C124.604,-154.701 134.468,-153.313 144.256,-151.937"/>
<polygon fill="midnightblue" stroke="midnightblue" points="144.989,-155.368 154.404,-150.509 144.014,-148.436 144.989,-155.368"/>
</g>
<!-- Node138 -->
<g id="node3" class="node"><title>Node138</title>
<g id="a_node3"><a xlink:href="../../d8/dcc/classinfra_1_1_sequencer.html#abfc36f76cfc75495f321bc6643826c98" target="_top" xlink:title="infra::Sequencer::Execute\lCurrentStep">
<polygon fill="white" stroke="black" points="331.5,-224 331.5,-254 460.5,-254 460.5,-224 331.5,-224"/>
<text text-anchor="start" x="339.5" y="-242" font-family="Helvetica,sans-Serif" font-size="10.00">infra::Sequencer::Execute</text>
<text text-anchor="middle" x="396" y="-231" font-family="Helvetica,sans-Serif" font-size="10.00">CurrentStep</text>
</a>
</g>
</g>
<!-- Node137&#45;&gt;Node138 -->
<g id="edge2" class="edge"><title>Node137&#45;&gt;Node138</title>
<path fill="none" stroke="midnightblue" d="M273.46,-202.041C292.957,-207.969 315.513,-214.829 335.862,-221.017"/>
<polygon fill="midnightblue" stroke="midnightblue" points="335.065,-224.432 345.651,-223.993 337.102,-217.735 335.065,-224.432"/>
</g>
<!-- Node139 -->
<g id="node4" class="node"><title>Node139</title>
<g id="a_node4"><a xlink:href="../../d8/dcc/classinfra_1_1_sequencer.html#a144aefdee6184f0c01287ef64e4e588a" target="_top" xlink:title="infra::Sequencer::Execute\lNextStep">
<polygon fill="white" stroke="black" points="331.5,-175 331.5,-205 460.5,-205 460.5,-175 331.5,-175"/>
<text text-anchor="start" x="339.5" y="-193" font-family="Helvetica,sans-Serif" font-size="10.00">infra::Sequencer::Execute</text>
<text text-anchor="middle" x="396" y="-182" font-family="Helvetica,sans-Serif" font-size="10.00">NextStep</text>
</a>
</g>
</g>
<!-- Node137&#45;&gt;Node139 -->
<g id="edge3" class="edge"><title>Node137&#45;&gt;Node139</title>
<path fill="none" stroke="midnightblue" d="M287.674,-188.117C298.579,-188.308 309.992,-188.509 321.136,-188.704"/>
<polygon fill="midnightblue" stroke="midnightblue" points="321.213,-192.206 331.273,-188.882 321.336,-185.207 321.213,-192.206"/>
</g>
<!-- Node141 -->
<g id="node6" class="node"><title>Node141</title>
<g id="a_node6"><a xlink:href="../../d8/dcc/classinfra_1_1_sequencer.html#aa1da1c05382c54296fe23b30d6cf6cf8" target="_top" xlink:title="infra::Sequencer::Increase\lCurrentStep">
<polygon fill="white" stroke="black" points="331,-126 331,-156 461,-156 461,-126 331,-126"/>
<text text-anchor="start" x="339" y="-144" font-family="Helvetica,sans-Serif" font-size="10.00">infra::Sequencer::Increase</text>
<text text-anchor="middle" x="396" y="-133" font-family="Helvetica,sans-Serif" font-size="10.00">CurrentStep</text>
</a>
</g>
</g>
<!-- Node137&#45;&gt;Node141 -->
<g id="edge5" class="edge"><title>Node137&#45;&gt;Node141</title>
<path fill="none" stroke="midnightblue" d="M279.992,-171.938C295.721,-167.707 312.969,-163.067 329.213,-158.697"/>
<polygon fill="midnightblue" stroke="midnightblue" points="330.427,-161.995 339.175,-156.017 328.609,-155.235 330.427,-161.995"/>
</g>
<!-- Node140 -->
<g id="node5" class="node"><title>Node140</title>
<g id="a_node5"><a xlink:href="../../dc/de7/classinfra_1_1_bounded_vector.html#aa142a336c186d6e58c5573ba860be106" target="_top" xlink:title="infra::BoundedVector\l::back">
<polygon fill="white" stroke="black" points="497,-150 497,-180 604,-180 604,-150 497,-150"/>
<text text-anchor="start" x="505" y="-168" font-family="Helvetica,sans-Serif" font-size="10.00">infra::BoundedVector</text>
<text text-anchor="middle" x="550.5" y="-157" font-family="Helvetica,sans-Serif" font-size="10.00">::back</text>
</a>
</g>
</g>
<!-- Node139&#45;&gt;Node140 -->
<g id="edge4" class="edge"><title>Node139&#45;&gt;Node140</title>
<path fill="none" stroke="midnightblue" d="M460.79,-179.543C469.355,-178.139 478.135,-176.699 486.683,-175.298"/>
<polygon fill="midnightblue" stroke="midnightblue" points="487.282,-178.746 496.584,-173.675 486.15,-171.839 487.282,-178.746"/>
</g>
<!-- Node141&#45;&gt;Node140 -->
<g id="edge6" class="edge"><title>Node141&#45;&gt;Node140</title>
<path fill="none" stroke="midnightblue" d="M461.232,-151.109C469.681,-152.438 478.332,-153.8 486.756,-155.126"/>
<polygon fill="midnightblue" stroke="midnightblue" points="486.467,-158.623 496.89,-156.72 487.555,-151.708 486.467,-158.623"/>
</g>
<!-- Node142&#45;&gt;Node138 -->
<g id="edge8" class="edge"><title>Node142&#45;&gt;Node138</title>
<path fill="none" stroke="midnightblue" d="M270.442,-150.504C279.107,-153.591 287.716,-157.657 295,-163 317.665,-179.625 308.829,-197.721 331,-215 332.787,-216.393 334.664,-217.711 336.607,-218.959"/>
<polygon fill="midnightblue" stroke="midnightblue" points="335.05,-222.1 345.476,-223.985 338.501,-216.01 335.05,-222.1"/>
</g>
<!-- Node142&#45;&gt;Node139 -->
<g id="edge12" class="edge"><title>Node142&#45;&gt;Node139</title>
<path fill="none" stroke="midnightblue" d="M257.376,-150.564C278.837,-156.713 307.381,-164.893 332.909,-172.208"/>
<polygon fill="midnightblue" stroke="midnightblue" points="331.947,-175.573 342.524,-174.963 333.875,-168.844 331.947,-175.573"/>
</g>
<!-- Node142&#45;&gt;Node141 -->
<g id="edge14" class="edge"><title>Node142&#45;&gt;Node141</title>
<path fill="none" stroke="midnightblue" d="M295.034,-141C303.449,-141 312.058,-141 320.519,-141"/>
<polygon fill="midnightblue" stroke="midnightblue" points="320.745,-144.5 330.745,-141 320.745,-137.5 320.745,-144.5"/>
</g>
<!-- Node143 -->
<g id="node8" class="node"><title>Node143</title>
<g id="a_node8"><a xlink:href="../../dc/de7/classinfra_1_1_bounded_vector.html#acd442a237e9f5935f766dd3ef4a818e9" target="_top" xlink:title="infra::BoundedVector\l::pop_back">
<polygon fill="white" stroke="black" points="342.5,-77 342.5,-107 449.5,-107 449.5,-77 342.5,-77"/>
<text text-anchor="start" x="350.5" y="-95" font-family="Helvetica,sans-Serif" font-size="10.00">infra::BoundedVector</text>
<text text-anchor="middle" x="396" y="-84" font-family="Helvetica,sans-Serif" font-size="10.00">::pop_back</text>
</a>
</g>
</g>
<!-- Node142&#45;&gt;Node143 -->
<g id="edge9" class="edge"><title>Node142&#45;&gt;Node143</title>
<path fill="none" stroke="midnightblue" d="M257.376,-131.436C278.837,-125.287 307.381,-117.107 332.909,-109.792"/>
<polygon fill="midnightblue" stroke="midnightblue" points="333.875,-113.156 342.524,-107.037 331.947,-106.427 333.875,-113.156"/>
</g>
<!-- Node144 -->
<g id="node9" class="node"><title>Node144</title>
<g id="a_node9"><a xlink:href="../../d8/dcc/classinfra_1_1_sequencer.html#aa8d62e488058da02b14a31017a33b199" target="_top" xlink:title="infra::Sequencer::Finished">
<polygon fill="white" stroke="black" points="331,-0.5 331,-19.5 461,-19.5 461,-0.5 331,-0.5"/>
<text text-anchor="middle" x="396" y="-7.5" font-family="Helvetica,sans-Serif" font-size="10.00">infra::Sequencer::Finished</text>
</a>
</g>
</g>
<!-- Node142&#45;&gt;Node144 -->
<g id="edge10" class="edge"><title>Node142&#45;&gt;Node144</title>
<path fill="none" stroke="midnightblue" d="M231.254,-131.348C247.175,-110.768 287.266,-62.161 331,-34 337.379,-29.8924 344.564,-26.3395 351.754,-23.3204"/>
<polygon fill="midnightblue" stroke="midnightblue" points="353.438,-26.4211 361.487,-19.5325 350.899,-19.8977 353.438,-26.4211"/>
</g>
<!-- Node145 -->
<g id="node10" class="node"><title>Node145</title>
<g id="a_node10"><a xlink:href="../../dc/de7/classinfra_1_1_bounded_vector.html#ab9477e08e53eb7d020fac8bd1d37fda7" target="_top" xlink:title="infra::BoundedVector\l::empty">
<polygon fill="white" stroke="black" points="497,-14 497,-44 604,-44 604,-14 497,-14"/>
<text text-anchor="start" x="505" y="-32" font-family="Helvetica,sans-Serif" font-size="10.00">infra::BoundedVector</text>
<text text-anchor="middle" x="550.5" y="-21" font-family="Helvetica,sans-Serif" font-size="10.00">::empty</text>
</a>
</g>
</g>
<!-- Node142&#45;&gt;Node145 -->
<g id="edge13" class="edge"><title>Node142&#45;&gt;Node145</title>
<path fill="none" stroke="midnightblue" d="M234.611,-131.258C252.836,-115.112 291.913,-83.0039 331,-67 381.082,-46.4941 442.034,-37.0504 486.824,-32.7032"/>
<polygon fill="midnightblue" stroke="midnightblue" points="487.343,-36.1705 496.984,-31.7772 486.707,-29.1994 487.343,-36.1705"/>
</g>
<!-- Node144&#45;&gt;Node145 -->
<g id="edge11" class="edge"><title>Node144&#45;&gt;Node145</title>
<path fill="none" stroke="midnightblue" d="M461.232,-18.0026C469.681,-19.0553 478.332,-20.1332 486.756,-21.1827"/>
<polygon fill="midnightblue" stroke="midnightblue" points="486.534,-24.682 496.89,-22.4453 487.399,-17.7357 486.534,-24.682"/>
</g>
</g>
</svg>
        <g id="navigator" transform="translate(0 0)" fill="#404254">
                <rect fill="#f2f5e9" fill-opacity="0.5" stroke="#606060" stroke-width=".5" x="0" y="0" width="60" height="60"/>
                <use id="zoomplus" xlink:href="#zoomPlus" x="17" y="9" onmousedown="handleZoom(evt,'in')"/>
                <use id="zoomminus" xlink:href="#zoomMin" x="42" y="9" onmousedown="handleZoom(evt,'out')"/>
                <use id="reset" xlink:href="#resetDef" x="30" y="36" onmousedown="handleReset()"/>
                <g id="arrowUp" xlink:href="#dirArrow" transform="translate(30 24)" onmousedown="handlePan(0,-1)">
                  <use xlink:href="#rim" fill="#404040">
                        <set attributeName="fill" to="#808080" begin="arrowUp.mouseover" end="arrowUp.mouseout"/>
                  </use>
                  <path fill="none" stroke="white" stroke-width="1.5" d="M0,-3.0v7 M-2.5,-0.5L0,-3.0L2.5,-0.5"/>
                </g>
                <g id="arrowRight" xlink:href="#dirArrow" transform="rotate(90) translate(36 -43)" onmousedown="handlePan(1,0)">
                  <use xlink:href="#rim" fill="#404040">
                        <set attributeName="fill" to="#808080" begin="arrowRight.mouseover" end="arrowRight.mouseout"/>
                  </use>
                  <path fill="none" stroke="white" stroke-width="1.5" d="M0,-3.0v7 M-2.5,-0.5L0,-3.0L2.5,-0.5"/>
                </g>
                <g id="arrowDown" xlink:href="#dirArrow" transform="rotate(180) translate(-30 -48)" onmousedown="handlePan(0,1)">
                  <use xlink:href="#rim" fill="#404040">
                        <set attributeName="fill" to="#808080" begin="arrowDown.mouseover" end="arrowDown.mouseout"/>
                  </use>
                  <path fill="none" stroke="white" stroke-width="1.5" d="M0,-3.0v7 M-2.5,-0.5L0,-3.0L2.5,-0.5"/>
                </g>
                <g id="arrowLeft" xlink:href="#dirArrow" transform="rotate(270) translate(-36 17)" onmousedown="handlePan(-1,0)">
                  <use xlink:href="#rim" fill="#404040">
                        <set attributeName="fill" to="#808080" begin="arrowLeft.mouseover" end="arrowLeft.mouseout"/>
                  </use>
                  <path fill="none" stroke="white" stroke-width="1.5" d="M0,-3.0v7 M-2.5,-0.5L0,-3.0L2.5,-0.5"/>
                </g>
        </g>
        <svg viewBox="0 0 15 15" width="100%" height="30px" preserveAspectRatio="xMaxYMin meet">
         <g id="arrow_out" transform="scale(0.3 0.3)">
          <a xlink:href="classinfra_1_1_sequencer_a1cb4cebfeb7a84298523d1e2f7f13432_cgraph_org.svg" target="_base">
           <rect id="button" ry="5" rx="5" y="6" x="6" height="38" width="38"
                fill="#f2f5e9" fill-opacity="0.5" stroke="#606060" stroke-width="1.0"/>
           <path id="arrow"
             d="M 11.500037,31.436501 C 11.940474,20.09759 22.043105,11.32322 32.158766,21.979434 L 37.068811,17.246167 C 37.068811,17.246167 37.088388,32 37.088388,32 L 22.160133,31.978069 C 22.160133,31.978069 26.997745,27.140456 26.997745,27.140456 C 18.528582,18.264221 13.291696,25.230495 11.500037,31.436501 z"
             style="fill:#404040;"/>
          </a>
         </g>
        </svg>
</svg>
