<?xml version="1.0" encoding="UTF-8" standalone="no"?>
<!DOCTYPE svg PUBLIC "-//W3C//DTD SVG 1.1//EN"
 "http://www.w3.org/Graphics/SVG/1.1/DTD/svg11.dtd">
<!-- Generated by graphviz version 2.38.0 (20140413.2041)
 -->
<!-- Title: infra::Sequencer::ElseIf Pages: 1 -->
<svg width="619pt" height="313pt"
 viewBox="0.00 0.00 619.00 313.00" xmlns="http://www.w3.org/2000/svg" xmlns:xlink="http://www.w3.org/1999/xlink">
<g id="graph0" class="graph" transform="scale(1 1) rotate(0) translate(4 309)">
<title>infra::Sequencer::ElseIf</title>
<polygon fill="white" stroke="none" points="-4,4 -4,-309 615,-309 615,4 -4,4"/>
<!-- Node92 -->
<g id="node1" class="node"><title>Node92</title>
<polygon fill="#bfbfbf" stroke="black" points="0,-209 0,-228 117,-228 117,-209 0,-209"/>
<text text-anchor="middle" x="58.5" y="-216" font-family="Helvetica,sans-Serif" font-size="10.00">infra::Sequencer::ElseIf</text>
</g>
<!-- Node93 -->
<g id="node2" class="node"><title>Node93</title>
<g id="a_node2"><a xlink:href="../../d8/dcc/classinfra_1_1_sequencer.html#a144aefdee6184f0c01287ef64e4e588a" target="_top" xlink:title="infra::Sequencer::Execute\lNextStep">
<polygon fill="white" stroke="black" points="338.5,-274.5 338.5,-304.5 467.5,-304.5 467.5,-274.5 338.5,-274.5"/>
<text text-anchor="start" x="346.5" y="-292.5" font-family="Helvetica,sans-Serif" font-size="10.00">infra::Sequencer::Execute</text>
<text text-anchor="middle" x="403" y="-281.5" font-family="Helvetica,sans-Serif" font-size="10.00">NextStep</text>
</a>
</g>
</g>
<!-- Node92&#45;&gt;Node93 -->
<g id="edge1" class="edge"><title>Node92&#45;&gt;Node93</title>
<path fill="none" stroke="midnightblue" d="M74.335,-228.146C92.2011,-239.231 123.5,-256.987 153,-265.5 210.385,-282.06 277.974,-287.753 328.243,-289.477"/>
<polygon fill="midnightblue" stroke="midnightblue" points="328.277,-292.979 338.377,-289.779 328.486,-285.983 328.277,-292.979"/>
</g>
<!-- Node95 -->
<g id="node4" class="node"><title>Node95</title>
<g id="a_node4"><a xlink:href="../../d8/dcc/classinfra_1_1_sequencer.html#a40c4a5d093bef3a87c982a01f528f4de" target="_top" xlink:title="infra::Sequencer::Execute\lWithoutContext">
<polygon fill="white" stroke="black" points="163,-225.5 163,-255.5 292,-255.5 292,-225.5 163,-225.5"/>
<text text-anchor="start" x="171" y="-243.5" font-family="Helvetica,sans-Serif" font-size="10.00">infra::Sequencer::Execute</text>
<text text-anchor="middle" x="227.5" y="-232.5" font-family="Helvetica,sans-Serif" font-size="10.00">WithoutContext</text>
</a>
</g>
</g>
<!-- Node92&#45;&gt;Node95 -->
<g id="edge3" class="edge"><title>Node92&#45;&gt;Node95</title>
<path fill="none" stroke="midnightblue" d="M117.44,-226.133C128.921,-227.645 141.116,-229.252 153.034,-230.822"/>
<polygon fill="midnightblue" stroke="midnightblue" points="152.587,-234.293 162.959,-232.129 153.502,-227.353 152.587,-234.293"/>
</g>
<!-- Node98 -->
<g id="node7" class="node"><title>Node98</title>
<g id="a_node7"><a xlink:href="../../d8/dcc/classinfra_1_1_sequencer.html#a5a0bb79e770ee68910377bcbd24f9c14" target="_top" xlink:title="infra::Sequencer::PopContext">
<polygon fill="white" stroke="black" points="155.5,-187 155.5,-206 299.5,-206 299.5,-187 155.5,-187"/>
<text text-anchor="middle" x="227.5" y="-194" font-family="Helvetica,sans-Serif" font-size="10.00">infra::Sequencer::PopContext</text>
</a>
</g>
</g>
<!-- Node92&#45;&gt;Node98 -->
<g id="edge8" class="edge"><title>Node92&#45;&gt;Node98</title>
<path fill="none" stroke="midnightblue" d="M117.44,-210.867C126.434,-209.682 135.865,-208.44 145.259,-207.202"/>
<polygon fill="midnightblue" stroke="midnightblue" points="145.957,-210.641 155.414,-205.865 145.042,-203.701 145.957,-210.641"/>
</g>
<!-- Node102 -->
<g id="node11" class="node"><title>Node102</title>
<g id="a_node11"><a xlink:href="../../d8/dcc/classinfra_1_1_sequencer.html#adb44b85c61f00faae6ca6ad1de6a7380" target="_top" xlink:title="infra::Sequencer::PushContext">
<polygon fill="white" stroke="black" points="153,-55 153,-74 302,-74 302,-55 153,-55"/>
<text text-anchor="middle" x="227.5" y="-62" font-family="Helvetica,sans-Serif" font-size="10.00">infra::Sequencer::PushContext</text>
</a>
</g>
</g>
<!-- Node92&#45;&gt;Node102 -->
<g id="edge16" class="edge"><title>Node92&#45;&gt;Node102</title>
<path fill="none" stroke="midnightblue" d="M69.9466,-208.867C97.7116,-183.263 173.595,-113.287 208.499,-81.0999"/>
<polygon fill="midnightblue" stroke="midnightblue" points="211.079,-83.4819 216.057,-74.1297 206.333,-78.3359 211.079,-83.4819"/>
</g>
<!-- Node94 -->
<g id="node3" class="node"><title>Node94</title>
<g id="a_node3"><a xlink:href="../../dc/de7/classinfra_1_1_bounded_vector.html#aa142a336c186d6e58c5573ba860be106" target="_top" xlink:title="infra::BoundedVector\l::back">
<polygon fill="white" stroke="black" points="504,-248.5 504,-278.5 611,-278.5 611,-248.5 504,-248.5"/>
<text text-anchor="start" x="512" y="-266.5" font-family="Helvetica,sans-Serif" font-size="10.00">infra::BoundedVector</text>
<text text-anchor="middle" x="557.5" y="-255.5" font-family="Helvetica,sans-Serif" font-size="10.00">::back</text>
</a>
</g>
</g>
<!-- Node93&#45;&gt;Node94 -->
<g id="edge2" class="edge"><title>Node93&#45;&gt;Node94</title>
<path fill="none" stroke="midnightblue" d="M467.79,-278.624C476.355,-277.164 485.135,-275.667 493.683,-274.21"/>
<polygon fill="midnightblue" stroke="midnightblue" points="494.315,-277.653 503.584,-272.522 493.138,-270.752 494.315,-277.653"/>
</g>
<!-- Node95&#45;&gt;Node93 -->
<g id="edge5" class="edge"><title>Node95&#45;&gt;Node93</title>
<path fill="none" stroke="midnightblue" d="M281.971,-255.601C300.031,-260.702 320.359,-266.443 339.081,-271.73"/>
<polygon fill="midnightblue" stroke="midnightblue" points="338.13,-275.099 348.705,-274.448 340.033,-268.362 338.13,-275.099"/>
</g>
<!-- Node96 -->
<g id="node5" class="node"><title>Node96</title>
<g id="a_node5"><a xlink:href="../../d8/dcc/classinfra_1_1_sequencer.html#abfc36f76cfc75495f321bc6643826c98" target="_top" xlink:title="infra::Sequencer::Execute\lCurrentStep">
<polygon fill="white" stroke="black" points="338.5,-49.5 338.5,-79.5 467.5,-79.5 467.5,-49.5 338.5,-49.5"/>
<text text-anchor="start" x="346.5" y="-67.5" font-family="Helvetica,sans-Serif" font-size="10.00">infra::Sequencer::Execute</text>
<text text-anchor="middle" x="403" y="-56.5" font-family="Helvetica,sans-Serif" font-size="10.00">CurrentStep</text>
</a>
</g>
</g>
<!-- Node95&#45;&gt;Node96 -->
<g id="edge4" class="edge"><title>Node95&#45;&gt;Node96</title>
<path fill="none" stroke="midnightblue" d="M289.24,-225.482C293.934,-222.701 298.283,-219.406 302,-215.5 342.149,-173.31 298.8,-132.574 338,-89.5 339.214,-88.1656 340.509,-86.9017 341.869,-85.7045"/>
<polygon fill="midnightblue" stroke="midnightblue" points="344.28,-88.2775 350.29,-79.552 340.151,-82.6253 344.28,-88.2775"/>
</g>
<!-- Node97 -->
<g id="node6" class="node"><title>Node97</title>
<g id="a_node6"><a xlink:href="../../d8/dcc/classinfra_1_1_sequencer.html#aa1da1c05382c54296fe23b30d6cf6cf8" target="_top" xlink:title="infra::Sequencer::Increase\lCurrentStep">
<polygon fill="white" stroke="black" points="338,-225.5 338,-255.5 468,-255.5 468,-225.5 338,-225.5"/>
<text text-anchor="start" x="346" y="-243.5" font-family="Helvetica,sans-Serif" font-size="10.00">infra::Sequencer::Increase</text>
<text text-anchor="middle" x="403" y="-232.5" font-family="Helvetica,sans-Serif" font-size="10.00">CurrentStep</text>
</a>
</g>
</g>
<!-- Node95&#45;&gt;Node97 -->
<g id="edge6" class="edge"><title>Node95&#45;&gt;Node97</title>
<path fill="none" stroke="midnightblue" d="M292.12,-240.5C303.639,-240.5 315.746,-240.5 327.542,-240.5"/>
<polygon fill="midnightblue" stroke="midnightblue" points="327.807,-244 337.807,-240.5 327.807,-237 327.807,-244"/>
</g>
<!-- Node97&#45;&gt;Node94 -->
<g id="edge7" class="edge"><title>Node97&#45;&gt;Node94</title>
<path fill="none" stroke="midnightblue" d="M468.232,-250.187C476.681,-251.462 485.332,-252.766 493.756,-254.037"/>
<polygon fill="midnightblue" stroke="midnightblue" points="493.48,-257.535 503.89,-255.565 494.524,-250.613 493.48,-257.535"/>
</g>
<!-- Node98&#45;&gt;Node93 -->
<g id="edge13" class="edge"><title>Node98&#45;&gt;Node93</title>
<path fill="none" stroke="midnightblue" d="M281.041,-206.097C288.444,-208.76 295.676,-212.16 302,-216.5 324.282,-231.79 316.454,-249.189 338,-265.5 339.807,-266.868 341.7,-268.165 343.656,-269.394"/>
<polygon fill="midnightblue" stroke="midnightblue" points="342.132,-272.551 352.571,-274.361 345.539,-266.436 342.132,-272.551"/>
</g>
<!-- Node98&#45;&gt;Node96 -->
<g id="edge9" class="edge"><title>Node98&#45;&gt;Node96</title>
<path fill="none" stroke="midnightblue" d="M236.006,-186.906C252.46,-166.439 293.782,-118.038 338,-89.5 340.946,-87.5989 344.059,-85.8048 347.261,-84.1181"/>
<polygon fill="midnightblue" stroke="midnightblue" points="348.996,-87.1669 356.462,-79.6499 345.938,-80.8702 348.996,-87.1669"/>
</g>
<!-- Node98&#45;&gt;Node97 -->
<g id="edge15" class="edge"><title>Node98&#45;&gt;Node97</title>
<path fill="none" stroke="midnightblue" d="M266.147,-206.047C285.594,-210.979 309.949,-217.156 332.648,-222.912"/>
<polygon fill="midnightblue" stroke="midnightblue" points="332.041,-226.369 342.595,-225.435 333.762,-219.584 332.041,-226.369"/>
</g>
<!-- Node99 -->
<g id="node8" class="node"><title>Node99</title>
<g id="a_node8"><a xlink:href="../../dc/de7/classinfra_1_1_bounded_vector.html#acd442a237e9f5935f766dd3ef4a818e9" target="_top" xlink:title="infra::BoundedVector\l::pop_back">
<polygon fill="white" stroke="black" points="349.5,-137.5 349.5,-167.5 456.5,-167.5 456.5,-137.5 349.5,-137.5"/>
<text text-anchor="start" x="357.5" y="-155.5" font-family="Helvetica,sans-Serif" font-size="10.00">infra::BoundedVector</text>
<text text-anchor="middle" x="403" y="-144.5" font-family="Helvetica,sans-Serif" font-size="10.00">::pop_back</text>
</a>
</g>
</g>
<!-- Node98&#45;&gt;Node99 -->
<g id="edge10" class="edge"><title>Node98&#45;&gt;Node99</title>
<path fill="none" stroke="midnightblue" d="M266.147,-186.953C287.52,-181.532 314.823,-174.608 339.338,-168.391"/>
<polygon fill="midnightblue" stroke="midnightblue" points="340.456,-171.718 349.289,-165.868 338.736,-164.933 340.456,-171.718"/>
</g>
<!-- Node100 -->
<g id="node9" class="node"><title>Node100</title>
<g id="a_node9"><a xlink:href="../../d8/dcc/classinfra_1_1_sequencer.html#aa8d62e488058da02b14a31017a33b199" target="_top" xlink:title="infra::Sequencer::Finished">
<polygon fill="white" stroke="black" points="338,-99 338,-118 468,-118 468,-99 338,-99"/>
<text text-anchor="middle" x="403" y="-106" font-family="Helvetica,sans-Serif" font-size="10.00">infra::Sequencer::Finished</text>
</a>
</g>
</g>
<!-- Node98&#45;&gt;Node100 -->
<g id="edge11" class="edge"><title>Node98&#45;&gt;Node100</title>
<path fill="none" stroke="midnightblue" d="M241.322,-186.768C261.12,-172.133 300.75,-144.378 338,-127.5 343.015,-125.228 348.372,-123.145 353.772,-121.259"/>
<polygon fill="midnightblue" stroke="midnightblue" points="355.061,-124.519 363.473,-118.079 352.88,-117.868 355.061,-124.519"/>
</g>
<!-- Node101 -->
<g id="node10" class="node"><title>Node101</title>
<g id="a_node10"><a xlink:href="../../dc/de7/classinfra_1_1_bounded_vector.html#ab9477e08e53eb7d020fac8bd1d37fda7" target="_top" xlink:title="infra::BoundedVector\l::empty">
<polygon fill="white" stroke="black" points="504,-158.5 504,-188.5 611,-188.5 611,-158.5 504,-158.5"/>
<text text-anchor="start" x="512" y="-176.5" font-family="Helvetica,sans-Serif" font-size="10.00">infra::BoundedVector</text>
<text text-anchor="middle" x="557.5" y="-165.5" font-family="Helvetica,sans-Serif" font-size="10.00">::empty</text>
</a>
</g>
</g>
<!-- Node98&#45;&gt;Node101 -->
<g id="edge14" class="edge"><title>Node98&#45;&gt;Node101</title>
<path fill="none" stroke="midnightblue" d="M299.671,-191.509C357.495,-187.455 438.275,-181.79 493.715,-177.903"/>
<polygon fill="midnightblue" stroke="midnightblue" points="494.031,-181.389 503.761,-177.198 493.541,-174.406 494.031,-181.389"/>
</g>
<!-- Node100&#45;&gt;Node101 -->
<g id="edge12" class="edge"><title>Node100&#45;&gt;Node101</title>
<path fill="none" stroke="midnightblue" d="M440.63,-118.067C449.692,-120.79 459.295,-123.983 468,-127.5 486.253,-134.874 505.748,-144.771 521.781,-153.495"/>
<polygon fill="midnightblue" stroke="midnightblue" points="520.341,-156.698 530.786,-158.469 523.725,-150.57 520.341,-156.698"/>
</g>
<!-- Node102&#45;&gt;Node96 -->
<g id="edge17" class="edge"><title>Node102&#45;&gt;Node96</title>
<path fill="none" stroke="midnightblue" d="M302.08,-64.5C310.776,-64.5 319.653,-64.5 328.35,-64.5"/>
<polygon fill="midnightblue" stroke="midnightblue" points="328.455,-68.0001 338.455,-64.5 328.455,-61.0001 328.455,-68.0001"/>
</g>
<!-- Node103 -->
<g id="node12" class="node"><title>Node103</title>
<g id="a_node12"><a xlink:href="../../dc/de7/classinfra_1_1_bounded_vector.html#a17cb2ff4e6291f156cb5a41cca1b4edf" target="_top" xlink:title="infra::BoundedVector\l::push_back">
<polygon fill="white" stroke="black" points="349.5,-0.5 349.5,-30.5 456.5,-30.5 456.5,-0.5 349.5,-0.5"/>
<text text-anchor="start" x="357.5" y="-18.5" font-family="Helvetica,sans-Serif" font-size="10.00">infra::BoundedVector</text>
<text text-anchor="middle" x="403" y="-7.5" font-family="Helvetica,sans-Serif" font-size="10.00">::push_back</text>
</a>
</g>
</g>
<!-- Node102&#45;&gt;Node103 -->
<g id="edge18" class="edge"><title>Node102&#45;&gt;Node103</title>
<path fill="none" stroke="midnightblue" d="M262.364,-54.936C284.313,-48.7372 313.566,-40.4757 339.625,-33.1161"/>
<polygon fill="midnightblue" stroke="midnightblue" points="340.762,-36.432 349.434,-30.3458 338.859,-29.6955 340.762,-36.432"/>
</g>
</g>
</svg>
