<?xml version="1.0" encoding="UTF-8" standalone="no"?>
<!DOCTYPE svg PUBLIC "-//W3C//DTD SVG 1.1//EN"
 "http://www.w3.org/Graphics/SVG/1.1/DTD/svg11.dtd">
<!-- Generated by graphviz version 2.38.0 (20140413.2041)
 -->
<!-- Title: infra::Sequencer::ExecuteWithoutContext Pages: 1 -->
<svg width="446pt" height="137pt"
 viewBox="0.00 0.00 446.00 137.00" xmlns="http://www.w3.org/2000/svg" xmlns:xlink="http://www.w3.org/1999/xlink">
<g id="graph0" class="graph" transform="scale(1 1) rotate(0) translate(4 133)">
<title>infra::Sequencer::ExecuteWithoutContext</title>
<polygon fill="white" stroke="none" points="-4,4 -4,-133 442,-133 442,4 -4,4"/>
<!-- Node369 -->
<g id="node1" class="node"><title>Node369</title>
<polygon fill="#bfbfbf" stroke="black" points="0,-49.5 0,-79.5 129,-79.5 129,-49.5 0,-49.5"/>
<text text-anchor="start" x="8" y="-67.5" font-family="Helvetica,sans-Serif" font-size="10.00">infra::Sequencer::Execute</text>
<text text-anchor="middle" x="64.5" y="-56.5" font-family="Helvetica,sans-Serif" font-size="10.00">WithoutContext</text>
</g>
<!-- Node370 -->
<g id="node2" class="node"><title>Node370</title>
<g id="a_node2"><a xlink:href="../../d8/dcc/classinfra_1_1_sequencer.html#abfc36f76cfc75495f321bc6643826c98" target="_top" xlink:title="infra::Sequencer::Execute\lCurrentStep">
<polygon fill="white" stroke="black" points="165.5,-98.5 165.5,-128.5 294.5,-128.5 294.5,-98.5 165.5,-98.5"/>
<text text-anchor="start" x="173.5" y="-116.5" font-family="Helvetica,sans-Serif" font-size="10.00">infra::Sequencer::Execute</text>
<text text-anchor="middle" x="230" y="-105.5" font-family="Helvetica,sans-Serif" font-size="10.00">CurrentStep</text>
</a>
</g>
</g>
<!-- Node369&#45;&gt;Node370 -->
<g id="edge1" class="edge"><title>Node369&#45;&gt;Node370</title>
<path fill="none" stroke="midnightblue" d="M115.889,-79.6014C132.596,-84.6083 151.362,-90.2324 168.735,-95.439"/>
<polygon fill="midnightblue" stroke="midnightblue" points="168.193,-98.9302 178.777,-98.4484 170.203,-92.2249 168.193,-98.9302"/>
</g>
<!-- Node371 -->
<g id="node3" class="node"><title>Node371</title>
<g id="a_node3"><a xlink:href="../../d8/dcc/classinfra_1_1_sequencer.html#a144aefdee6184f0c01287ef64e4e588a" target="_top" xlink:title="infra::Sequencer::Execute\lNextStep">
<polygon fill="white" stroke="black" points="165.5,-49.5 165.5,-79.5 294.5,-79.5 294.5,-49.5 165.5,-49.5"/>
<text text-anchor="start" x="173.5" y="-67.5" font-family="Helvetica,sans-Serif" font-size="10.00">infra::Sequencer::Execute</text>
<text text-anchor="middle" x="230" y="-56.5" font-family="Helvetica,sans-Serif" font-size="10.00">NextStep</text>
</a>
</g>
</g>
<!-- Node369&#45;&gt;Node371 -->
<g id="edge2" class="edge"><title>Node369&#45;&gt;Node371</title>
<path fill="none" stroke="midnightblue" d="M129.182,-64.5C137.753,-64.5 146.603,-64.5 155.329,-64.5"/>
<polygon fill="midnightblue" stroke="midnightblue" points="155.492,-68.0001 165.492,-64.5 155.492,-61.0001 155.492,-68.0001"/>
</g>
<!-- Node373 -->
<g id="node5" class="node"><title>Node373</title>
<g id="a_node5"><a xlink:href="../../d8/dcc/classinfra_1_1_sequencer.html#aa1da1c05382c54296fe23b30d6cf6cf8" target="_top" xlink:title="infra::Sequencer::Increase\lCurrentStep">
<polygon fill="white" stroke="black" points="165,-0.5 165,-30.5 295,-30.5 295,-0.5 165,-0.5"/>
<text text-anchor="start" x="173" y="-18.5" font-family="Helvetica,sans-Serif" font-size="10.00">infra::Sequencer::Increase</text>
<text text-anchor="middle" x="230" y="-7.5" font-family="Helvetica,sans-Serif" font-size="10.00">CurrentStep</text>
</a>
</g>
</g>
<!-- Node369&#45;&gt;Node373 -->
<g id="edge4" class="edge"><title>Node369&#45;&gt;Node373</title>
<path fill="none" stroke="midnightblue" d="M115.889,-49.3986C132.596,-44.3917 151.362,-38.7676 168.735,-33.561"/>
<polygon fill="midnightblue" stroke="midnightblue" points="170.203,-36.7751 178.777,-30.5516 168.193,-30.0698 170.203,-36.7751"/>
</g>
<!-- Node372 -->
<g id="node4" class="node"><title>Node372</title>
<g id="a_node4"><a xlink:href="../../dc/de7/classinfra_1_1_bounded_vector.html#aa142a336c186d6e58c5573ba860be106" target="_top" xlink:title="infra::BoundedVector\l::back">
<polygon fill="white" stroke="black" points="331,-24.5 331,-54.5 438,-54.5 438,-24.5 331,-24.5"/>
<text text-anchor="start" x="339" y="-42.5" font-family="Helvetica,sans-Serif" font-size="10.00">infra::BoundedVector</text>
<text text-anchor="middle" x="384.5" y="-31.5" font-family="Helvetica,sans-Serif" font-size="10.00">::back</text>
</a>
</g>
</g>
<!-- Node371&#45;&gt;Node372 -->
<g id="edge3" class="edge"><title>Node371&#45;&gt;Node372</title>
<path fill="none" stroke="midnightblue" d="M294.79,-54.0426C303.355,-52.6385 312.135,-51.1991 320.683,-49.7978"/>
<polygon fill="midnightblue" stroke="midnightblue" points="321.282,-53.2465 330.584,-48.1747 320.15,-46.3387 321.282,-53.2465"/>
</g>
<!-- Node373&#45;&gt;Node372 -->
<g id="edge5" class="edge"><title>Node373&#45;&gt;Node372</title>
<path fill="none" stroke="midnightblue" d="M295.232,-25.6086C303.681,-26.9383 312.332,-28.2998 320.756,-29.6255"/>
<polygon fill="midnightblue" stroke="midnightblue" points="320.467,-33.1231 330.89,-31.2203 321.555,-26.2082 320.467,-33.1231"/>
</g>
</g>
</svg>
