<?xml version="1.0" encoding="UTF-8" standalone="no"?>
<!DOCTYPE svg PUBLIC "-//W3C//DTD SVG 1.1//EN"
 "http://www.w3.org/Graphics/SVG/1.1/DTD/svg11.dtd">
<!-- Generated by graphviz version 2.38.0 (20140413.2041)
 -->
<!-- Title: infra::Sequencer::EndDoWhile Pages: 1 -->
<svg width="644pt" height="287pt"
 viewBox="0.00 0.00 644.00 287.48" xmlns="http://www.w3.org/2000/svg" xmlns:xlink="http://www.w3.org/1999/xlink">
<g id="graph0" class="graph" transform="scale(1 1) rotate(0) translate(4 283.482)">
<title>infra::Sequencer::EndDoWhile</title>
<polygon fill="white" stroke="none" points="-4,4 -4,-283.482 640,-283.482 640,4 -4,4"/>
<!-- Node110 -->
<g id="node1" class="node"><title>Node110</title>
<polygon fill="#bfbfbf" stroke="black" points="0,-180.5 0,-199.5 147,-199.5 147,-180.5 0,-180.5"/>
<text text-anchor="middle" x="73.5" y="-187.5" font-family="Helvetica,sans-Serif" font-size="10.00">infra::Sequencer::EndDoWhile</text>
</g>
<!-- Node111 -->
<g id="node2" class="node"><title>Node111</title>
<g id="a_node2"><a xlink:href="../../d8/dcc/classinfra_1_1_sequencer.html#a9654eb285041dab54e3f0e47b79a53dc" target="_top" xlink:title="infra::Sequencer::Execute\lPreviousStep">
<polygon fill="white" stroke="black" points="190.5,-246 190.5,-276 319.5,-276 319.5,-246 190.5,-246"/>
<text text-anchor="start" x="198.5" y="-264" font-family="Helvetica,sans-Serif" font-size="10.00">infra::Sequencer::Execute</text>
<text text-anchor="middle" x="255" y="-253" font-family="Helvetica,sans-Serif" font-size="10.00">PreviousStep</text>
</a>
</g>
</g>
<!-- Node110&#45;&gt;Node111 -->
<g id="edge1" class="edge"><title>Node110&#45;&gt;Node111</title>
<path fill="none" stroke="midnightblue" d="M98.7082,-199.575C126.174,-210.439 171.646,-228.426 206.306,-242.135"/>
<polygon fill="midnightblue" stroke="midnightblue" points="205.185,-245.455 215.771,-245.879 207.76,-238.946 205.185,-245.455"/>
</g>
<!-- Node113 -->
<g id="node4" class="node"><title>Node113</title>
<g id="a_node4"><a xlink:href="../../d8/dcc/classinfra_1_1_sequencer.html#a40c4a5d093bef3a87c982a01f528f4de" target="_top" xlink:title="infra::Sequencer::Execute\lWithoutContext">
<polygon fill="white" stroke="black" points="190.5,-175 190.5,-205 319.5,-205 319.5,-175 190.5,-175"/>
<text text-anchor="start" x="198.5" y="-193" font-family="Helvetica,sans-Serif" font-size="10.00">infra::Sequencer::Execute</text>
<text text-anchor="middle" x="255" y="-182" font-family="Helvetica,sans-Serif" font-size="10.00">WithoutContext</text>
</a>
</g>
</g>
<!-- Node110&#45;&gt;Node113 -->
<g id="edge3" class="edge"><title>Node110&#45;&gt;Node113</title>
<path fill="none" stroke="midnightblue" d="M147.251,-190C158.077,-190 169.245,-190 180.094,-190"/>
<polygon fill="midnightblue" stroke="midnightblue" points="180.377,-193.5 190.377,-190 180.377,-186.5 180.377,-193.5"/>
</g>
<!-- Node117 -->
<g id="node8" class="node"><title>Node117</title>
<g id="a_node8"><a xlink:href="../../d8/dcc/classinfra_1_1_sequencer.html#a5a0bb79e770ee68910377bcbd24f9c14" target="_top" xlink:title="infra::Sequencer::PopContext">
<polygon fill="white" stroke="black" points="183,-131.5 183,-150.5 327,-150.5 327,-131.5 183,-131.5"/>
<text text-anchor="middle" x="255" y="-138.5" font-family="Helvetica,sans-Serif" font-size="10.00">infra::Sequencer::PopContext</text>
</a>
</g>
</g>
<!-- Node110&#45;&gt;Node117 -->
<g id="edge9" class="edge"><title>Node110&#45;&gt;Node117</title>
<path fill="none" stroke="midnightblue" d="M109.536,-180.436C138.075,-172.645 178.551,-161.596 209.402,-153.174"/>
<polygon fill="midnightblue" stroke="midnightblue" points="210.328,-156.55 219.053,-150.54 208.484,-149.797 210.328,-156.55"/>
</g>
<!-- Node112 -->
<g id="node3" class="node"><title>Node112</title>
<g id="a_node3"><a xlink:href="../../dc/de7/classinfra_1_1_bounded_vector.html#aa142a336c186d6e58c5573ba860be106" target="_top" xlink:title="infra::BoundedVector\l::back">
<polygon fill="white" stroke="black" points="529,-175 529,-205 636,-205 636,-175 529,-175"/>
<text text-anchor="start" x="537" y="-193" font-family="Helvetica,sans-Serif" font-size="10.00">infra::BoundedVector</text>
<text text-anchor="middle" x="582.5" y="-182" font-family="Helvetica,sans-Serif" font-size="10.00">::back</text>
</a>
</g>
</g>
<!-- Node111&#45;&gt;Node112 -->
<g id="edge2" class="edge"><title>Node111&#45;&gt;Node112</title>
<path fill="none" stroke="midnightblue" d="M319.652,-273.722C368.566,-280.705 437.011,-284.323 493,-264 520.917,-253.866 546.187,-230.643 562.509,-212.895"/>
<polygon fill="midnightblue" stroke="midnightblue" points="565.328,-214.991 569.356,-205.192 560.097,-210.341 565.328,-214.991"/>
</g>
<!-- Node114 -->
<g id="node5" class="node"><title>Node114</title>
<g id="a_node5"><a xlink:href="../../d8/dcc/classinfra_1_1_sequencer.html#abfc36f76cfc75495f321bc6643826c98" target="_top" xlink:title="infra::Sequencer::Execute\lCurrentStep">
<polygon fill="white" stroke="black" points="363.5,-224 363.5,-254 492.5,-254 492.5,-224 363.5,-224"/>
<text text-anchor="start" x="371.5" y="-242" font-family="Helvetica,sans-Serif" font-size="10.00">infra::Sequencer::Execute</text>
<text text-anchor="middle" x="428" y="-231" font-family="Helvetica,sans-Serif" font-size="10.00">CurrentStep</text>
</a>
</g>
</g>
<!-- Node113&#45;&gt;Node114 -->
<g id="edge4" class="edge"><title>Node113&#45;&gt;Node114</title>
<path fill="none" stroke="midnightblue" d="M308.701,-205.101C326.419,-210.179 346.352,-215.89 364.734,-221.158"/>
<polygon fill="midnightblue" stroke="midnightblue" points="363.896,-224.558 374.473,-223.948 365.824,-217.829 363.896,-224.558"/>
</g>
<!-- Node115 -->
<g id="node6" class="node"><title>Node115</title>
<g id="a_node6"><a xlink:href="../../d8/dcc/classinfra_1_1_sequencer.html#a144aefdee6184f0c01287ef64e4e588a" target="_top" xlink:title="infra::Sequencer::Execute\lNextStep">
<polygon fill="white" stroke="black" points="363.5,-175 363.5,-205 492.5,-205 492.5,-175 363.5,-175"/>
<text text-anchor="start" x="371.5" y="-193" font-family="Helvetica,sans-Serif" font-size="10.00">infra::Sequencer::Execute</text>
<text text-anchor="middle" x="428" y="-182" font-family="Helvetica,sans-Serif" font-size="10.00">NextStep</text>
</a>
</g>
</g>
<!-- Node113&#45;&gt;Node115 -->
<g id="edge5" class="edge"><title>Node113&#45;&gt;Node115</title>
<path fill="none" stroke="midnightblue" d="M319.674,-190C330.579,-190 341.992,-190 353.136,-190"/>
<polygon fill="midnightblue" stroke="midnightblue" points="353.273,-193.5 363.273,-190 353.273,-186.5 353.273,-193.5"/>
</g>
<!-- Node116 -->
<g id="node7" class="node"><title>Node116</title>
<g id="a_node7"><a xlink:href="../../d8/dcc/classinfra_1_1_sequencer.html#aa1da1c05382c54296fe23b30d6cf6cf8" target="_top" xlink:title="infra::Sequencer::Increase\lCurrentStep">
<polygon fill="white" stroke="black" points="363,-126 363,-156 493,-156 493,-126 363,-126"/>
<text text-anchor="start" x="371" y="-144" font-family="Helvetica,sans-Serif" font-size="10.00">infra::Sequencer::Increase</text>
<text text-anchor="middle" x="428" y="-133" font-family="Helvetica,sans-Serif" font-size="10.00">CurrentStep</text>
</a>
</g>
</g>
<!-- Node113&#45;&gt;Node116 -->
<g id="edge7" class="edge"><title>Node113&#45;&gt;Node116</title>
<path fill="none" stroke="midnightblue" d="M308.701,-174.899C326.419,-169.821 346.352,-164.11 364.734,-158.842"/>
<polygon fill="midnightblue" stroke="midnightblue" points="365.824,-162.171 374.473,-156.052 363.896,-155.442 365.824,-162.171"/>
</g>
<!-- Node115&#45;&gt;Node112 -->
<g id="edge6" class="edge"><title>Node115&#45;&gt;Node112</title>
<path fill="none" stroke="midnightblue" d="M492.79,-190C501.262,-190 509.945,-190 518.405,-190"/>
<polygon fill="midnightblue" stroke="midnightblue" points="518.584,-193.5 528.584,-190 518.584,-186.5 518.584,-193.5"/>
</g>
<!-- Node116&#45;&gt;Node112 -->
<g id="edge8" class="edge"><title>Node116&#45;&gt;Node112</title>
<path fill="none" stroke="midnightblue" d="M475.999,-156.101C491.436,-161.062 508.759,-166.627 524.835,-171.793"/>
<polygon fill="midnightblue" stroke="midnightblue" points="524.064,-175.221 534.656,-174.948 526.206,-168.557 524.064,-175.221"/>
</g>
<!-- Node117&#45;&gt;Node114 -->
<g id="edge10" class="edge"><title>Node117&#45;&gt;Node114</title>
<path fill="none" stroke="midnightblue" d="M296.401,-150.578C306.996,-154.29 317.971,-159.308 327,-166 348.71,-182.092 341.454,-198.689 363,-215 364.807,-216.368 366.7,-217.665 368.656,-218.894"/>
<polygon fill="midnightblue" stroke="midnightblue" points="367.132,-222.051 377.571,-223.861 370.539,-215.936 367.132,-222.051"/>
</g>
<!-- Node117&#45;&gt;Node115 -->
<g id="edge14" class="edge"><title>Node117&#45;&gt;Node115</title>
<path fill="none" stroke="midnightblue" d="M289.376,-150.564C310.837,-156.713 339.381,-164.893 364.909,-172.208"/>
<polygon fill="midnightblue" stroke="midnightblue" points="363.947,-175.573 374.524,-174.963 365.875,-168.844 363.947,-175.573"/>
</g>
<!-- Node117&#45;&gt;Node116 -->
<g id="edge16" class="edge"><title>Node117&#45;&gt;Node116</title>
<path fill="none" stroke="midnightblue" d="M327.034,-141C335.449,-141 344.058,-141 352.519,-141"/>
<polygon fill="midnightblue" stroke="midnightblue" points="352.745,-144.5 362.745,-141 352.745,-137.5 352.745,-144.5"/>
</g>
<!-- Node118 -->
<g id="node9" class="node"><title>Node118</title>
<g id="a_node9"><a xlink:href="../../dc/de7/classinfra_1_1_bounded_vector.html#acd442a237e9f5935f766dd3ef4a818e9" target="_top" xlink:title="infra::BoundedVector\l::pop_back">
<polygon fill="white" stroke="black" points="374.5,-77 374.5,-107 481.5,-107 481.5,-77 374.5,-77"/>
<text text-anchor="start" x="382.5" y="-95" font-family="Helvetica,sans-Serif" font-size="10.00">infra::BoundedVector</text>
<text text-anchor="middle" x="428" y="-84" font-family="Helvetica,sans-Serif" font-size="10.00">::pop_back</text>
</a>
</g>
</g>
<!-- Node117&#45;&gt;Node118 -->
<g id="edge11" class="edge"><title>Node117&#45;&gt;Node118</title>
<path fill="none" stroke="midnightblue" d="M289.376,-131.436C310.837,-125.287 339.381,-117.107 364.909,-109.792"/>
<polygon fill="midnightblue" stroke="midnightblue" points="365.875,-113.156 374.524,-107.037 363.947,-106.427 365.875,-113.156"/>
</g>
<!-- Node119 -->
<g id="node10" class="node"><title>Node119</title>
<g id="a_node10"><a xlink:href="../../d8/dcc/classinfra_1_1_sequencer.html#aa8d62e488058da02b14a31017a33b199" target="_top" xlink:title="infra::Sequencer::Finished">
<polygon fill="white" stroke="black" points="363,-0.5 363,-19.5 493,-19.5 493,-0.5 363,-0.5"/>
<text text-anchor="middle" x="428" y="-7.5" font-family="Helvetica,sans-Serif" font-size="10.00">infra::Sequencer::Finished</text>
</a>
</g>
</g>
<!-- Node117&#45;&gt;Node119 -->
<g id="edge12" class="edge"><title>Node117&#45;&gt;Node119</title>
<path fill="none" stroke="midnightblue" d="M263.254,-131.348C279.175,-110.768 319.266,-62.161 363,-34 369.379,-29.8924 376.564,-26.3395 383.754,-23.3204"/>
<polygon fill="midnightblue" stroke="midnightblue" points="385.438,-26.4211 393.487,-19.5325 382.899,-19.8977 385.438,-26.4211"/>
</g>
<!-- Node120 -->
<g id="node11" class="node"><title>Node120</title>
<g id="a_node11"><a xlink:href="../../dc/de7/classinfra_1_1_bounded_vector.html#ab9477e08e53eb7d020fac8bd1d37fda7" target="_top" xlink:title="infra::BoundedVector\l::empty">
<polygon fill="white" stroke="black" points="529,-14 529,-44 636,-44 636,-14 529,-14"/>
<text text-anchor="start" x="537" y="-32" font-family="Helvetica,sans-Serif" font-size="10.00">infra::BoundedVector</text>
<text text-anchor="middle" x="582.5" y="-21" font-family="Helvetica,sans-Serif" font-size="10.00">::empty</text>
</a>
</g>
</g>
<!-- Node117&#45;&gt;Node120 -->
<g id="edge15" class="edge"><title>Node117&#45;&gt;Node120</title>
<path fill="none" stroke="midnightblue" d="M266.611,-131.258C284.836,-115.112 323.913,-83.0039 363,-67 413.082,-46.4941 474.034,-37.0504 518.824,-32.7032"/>
<polygon fill="midnightblue" stroke="midnightblue" points="519.343,-36.1705 528.984,-31.7772 518.707,-29.1994 519.343,-36.1705"/>
</g>
<!-- Node119&#45;&gt;Node120 -->
<g id="edge13" class="edge"><title>Node119&#45;&gt;Node120</title>
<path fill="none" stroke="midnightblue" d="M493.232,-18.0026C501.681,-19.0553 510.332,-20.1332 518.756,-21.1827"/>
<polygon fill="midnightblue" stroke="midnightblue" points="518.534,-24.682 528.89,-22.4453 519.399,-17.7357 518.534,-24.682"/>
</g>
</g>
</svg>
