<?xml version="1.0" encoding="UTF-8" standalone="no"?>
<!DOCTYPE svg PUBLIC "-//W3C//DTD SVG 1.1//EN"
 "http://www.w3.org/Graphics/SVG/1.1/DTD/svg11.dtd">
<!-- Generated by graphviz version 2.38.0 (20140413.2041)
 -->
<!-- Title: services::SntpClient::RequestTime Pages: 1 -->
<svg width="290pt" height="88pt"
 viewBox="0.00 0.00 290.00 88.00" xmlns="http://www.w3.org/2000/svg" xmlns:xlink="http://www.w3.org/1999/xlink">
<g id="graph0" class="graph" transform="scale(1 1) rotate(0) translate(4 84)">
<title>services::SntpClient::RequestTime</title>
<polygon fill="white" stroke="none" points="-4,4 -4,-84 286,-84 286,4 -4,4"/>
<!-- Node58 -->
<g id="node1" class="node"><title>Node58</title>
<polygon fill="#bfbfbf" stroke="black" points="0,-24.5 0,-54.5 103,-54.5 103,-24.5 0,-24.5"/>
<text text-anchor="start" x="8" y="-42.5" font-family="Helvetica,sans-Serif" font-size="10.00">services::SntpClient</text>
<text text-anchor="middle" x="51.5" y="-31.5" font-family="Helvetica,sans-Serif" font-size="10.00">::RequestTime</text>
</g>
<!-- Node59 -->
<g id="node2" class="node"><title>Node59</title>
<g id="a_node2"><a xlink:href="../../d7/da1/classservices_1_1_datagram_factory.html#ac189980d85e7fc7b056f841160dca246" target="_top" xlink:title="services::DatagramFactory\l::Connect">
<polygon fill="white" stroke="black" points="144,-49.5 144,-79.5 277,-79.5 277,-49.5 144,-49.5"/>
<text text-anchor="start" x="152" y="-67.5" font-family="Helvetica,sans-Serif" font-size="10.00">services::DatagramFactory</text>
<text text-anchor="middle" x="210.5" y="-56.5" font-family="Helvetica,sans-Serif" font-size="10.00">::Connect</text>
</a>
</g>
</g>
<!-- Node58&#45;&gt;Node59 -->
<g id="edge1" class="edge"><title>Node58&#45;&gt;Node59</title>
<path fill="none" stroke="midnightblue" d="M103.04,-47.5478C112.89,-49.1162 123.416,-50.7923 133.873,-52.4575"/>
<polygon fill="midnightblue" stroke="midnightblue" points="133.428,-55.9307 143.854,-54.0468 134.529,-49.0178 133.428,-55.9307"/>
</g>
<!-- Node60 -->
<g id="node3" class="node"><title>Node60</title>
<g id="a_node3"><a xlink:href="../../d9/dc8/classservices_1_1_datagram_exchange.html#ad523a613c488c1e63c5302de31bb95da" target="_top" xlink:title="services::DatagramExchange\l::RequestSendStream">
<polygon fill="white" stroke="black" points="139,-0.5 139,-30.5 282,-30.5 282,-0.5 139,-0.5"/>
<text text-anchor="start" x="147" y="-18.5" font-family="Helvetica,sans-Serif" font-size="10.00">services::DatagramExchange</text>
<text text-anchor="middle" x="210.5" y="-7.5" font-family="Helvetica,sans-Serif" font-size="10.00">::RequestSendStream</text>
</a>
</g>
</g>
<!-- Node58&#45;&gt;Node60 -->
<g id="edge2" class="edge"><title>Node58&#45;&gt;Node60</title>
<path fill="none" stroke="midnightblue" d="M103.04,-31.7741C111.311,-30.5097 120.059,-29.1725 128.843,-27.8297"/>
<polygon fill="midnightblue" stroke="midnightblue" points="129.396,-31.2859 138.752,-26.3149 128.338,-24.3663 129.396,-31.2859"/>
</g>
</g>
</svg>
