<?xml version="1.0" encoding="UTF-8" standalone="no"?>
<!DOCTYPE svg PUBLIC "-//W3C//DTD SVG 1.1//EN"
 "http://www.w3.org/Graphics/SVG/1.1/DTD/svg11.dtd">
<!-- Generated by graphviz version 2.38.0 (20140413.2041)
 -->
<!-- Title: services::SntpClient::SendStreamAvailable Pages: 1 -->
<svg width="488pt" height="165pt"
 viewBox="0.00 0.00 488.00 164.50" xmlns="http://www.w3.org/2000/svg" xmlns:xlink="http://www.w3.org/1999/xlink">
<g id="graph0" class="graph" transform="scale(1 1) rotate(0) translate(4 160.5)">
<title>services::SntpClient::SendStreamAvailable</title>
<polygon fill="white" stroke="none" points="-4,4 -4,-160.5 484,-160.5 484,4 -4,4"/>
<!-- Node62 -->
<g id="node1" class="node"><title>Node62</title>
<polygon fill="#bfbfbf" stroke="black" points="0,-55 0,-85 115,-85 115,-55 0,-55"/>
<text text-anchor="start" x="8" y="-73" font-family="Helvetica,sans-Serif" font-size="10.00">services::SntpClient</text>
<text text-anchor="middle" x="57.5" y="-62" font-family="Helvetica,sans-Serif" font-size="10.00">::SendStreamAvailable</text>
</g>
<!-- Node63 -->
<g id="node2" class="node"><title>Node63</title>
<g id="a_node2"><a xlink:href="../../d8/d04/classservices_1_1_sntp_client.html#a324a82c37ce0c0afd87b07cd49b3f21d" target="_top" xlink:title="services::SntpClient\l::Convert">
<polygon fill="white" stroke="black" points="185.5,-126 185.5,-156 288.5,-156 288.5,-126 185.5,-126"/>
<text text-anchor="start" x="193.5" y="-144" font-family="Helvetica,sans-Serif" font-size="10.00">services::SntpClient</text>
<text text-anchor="middle" x="237" y="-133" font-family="Helvetica,sans-Serif" font-size="10.00">::Convert</text>
</a>
</g>
</g>
<!-- Node62&#45;&gt;Node63 -->
<g id="edge1" class="edge"><title>Node62&#45;&gt;Node63</title>
<path fill="none" stroke="midnightblue" d="M84.9808,-85.2012C103.141,-95.1864 128.016,-108.015 151,-117 158.801,-120.05 167.143,-122.891 175.44,-125.473"/>
<polygon fill="midnightblue" stroke="midnightblue" points="174.54,-128.857 185.124,-128.383 176.555,-122.153 174.54,-128.857"/>
</g>
<!-- Node64 -->
<g id="node3" class="node"><title>Node64</title>
<g id="a_node3"><a xlink:href="../../d8/d04/classservices_1_1_sntp_client.html#a1f50690a4aa163cc5b9543becaed3526" target="_top" xlink:title="services::SntpClient\l::CreateNtpHeader">
<polygon fill="white" stroke="black" points="185.5,-77 185.5,-107 288.5,-107 288.5,-77 185.5,-77"/>
<text text-anchor="start" x="193.5" y="-95" font-family="Helvetica,sans-Serif" font-size="10.00">services::SntpClient</text>
<text text-anchor="middle" x="237" y="-84" font-family="Helvetica,sans-Serif" font-size="10.00">::CreateNtpHeader</text>
</a>
</g>
</g>
<!-- Node62&#45;&gt;Node64 -->
<g id="edge2" class="edge"><title>Node62&#45;&gt;Node64</title>
<path fill="none" stroke="midnightblue" d="M115.15,-77.0214C134.33,-79.3987 155.823,-82.0625 175.304,-84.4772"/>
<polygon fill="midnightblue" stroke="midnightblue" points="174.931,-87.9576 185.286,-85.7143 175.792,-81.0108 174.931,-87.9576"/>
</g>
<!-- Node66 -->
<g id="node5" class="node"><title>Node66</title>
<g id="a_node5"><a xlink:href="../../db/d9d/classinfra_1_1_derived_timer_service.html#a09b9ef12b60c780c437545c00258c859" target="_top" xlink:title="infra::DerivedTimerService::Now">
<polygon fill="white" stroke="black" points="161,-38.5 161,-57.5 313,-57.5 313,-38.5 161,-38.5"/>
<text text-anchor="middle" x="237" y="-45.5" font-family="Helvetica,sans-Serif" font-size="10.00">infra::DerivedTimerService::Now</text>
</a>
</g>
</g>
<!-- Node62&#45;&gt;Node66 -->
<g id="edge4" class="edge"><title>Node62&#45;&gt;Node66</title>
<path fill="none" stroke="midnightblue" d="M115.15,-62.9786C126.485,-61.5737 138.627,-60.0688 150.684,-58.5743"/>
<polygon fill="midnightblue" stroke="midnightblue" points="151.28,-62.0274 160.773,-57.3239 150.419,-55.0806 151.28,-62.0274"/>
</g>
<!-- Node68 -->
<g id="node7" class="node"><title>Node68</title>
<g id="a_node7"><a xlink:href="../../da/dc6/classservices_1_1_time_with_localization.html#addff1b75a015f178c4e8f1d9bb45acfb" target="_top" xlink:title="services::TimeWithLocalization::Utc">
<polygon fill="white" stroke="black" points="151,-0.5 151,-19.5 323,-19.5 323,-0.5 151,-0.5"/>
<text text-anchor="middle" x="237" y="-7.5" font-family="Helvetica,sans-Serif" font-size="10.00">services::TimeWithLocalization::Utc</text>
</a>
</g>
</g>
<!-- Node62&#45;&gt;Node68 -->
<g id="edge6" class="edge"><title>Node62&#45;&gt;Node68</title>
<path fill="none" stroke="midnightblue" d="M88.3194,-54.9803C106.161,-46.4526 129.48,-36.0972 151,-29 158.948,-26.3789 167.431,-24.0031 175.848,-21.889"/>
<polygon fill="midnightblue" stroke="midnightblue" points="176.758,-25.2702 185.662,-19.5285 175.121,-18.4643 176.758,-25.2702"/>
</g>
<!-- Node65 -->
<g id="node4" class="node"><title>Node65</title>
<g id="a_node4"><a xlink:href="../../da/d2d/_sntp_client_8cpp.html#a7c914dd0c819482b29c0a124141aad0a" target="_top" xlink:title="enum_cast">
<polygon fill="white" stroke="black" points="387,-82.5 387,-101.5 452,-101.5 452,-82.5 387,-82.5"/>
<text text-anchor="middle" x="419.5" y="-89.5" font-family="Helvetica,sans-Serif" font-size="10.00">enum_cast</text>
</a>
</g>
</g>
<!-- Node64&#45;&gt;Node65 -->
<g id="edge3" class="edge"><title>Node64&#45;&gt;Node65</title>
<path fill="none" stroke="midnightblue" d="M288.76,-92C316.56,-92 350.587,-92 376.818,-92"/>
<polygon fill="midnightblue" stroke="midnightblue" points="376.819,-95.5001 386.819,-92 376.819,-88.5001 376.819,-95.5001"/>
</g>
<!-- Node67 -->
<g id="node6" class="node"><title>Node67</title>
<g id="a_node6"><a xlink:href="../../da/def/classinfra_1_1_timer_service.html#acb34d2766047f27ebcd1f552916c9a99" target="_top" xlink:title="infra::TimerService::Now">
<polygon fill="white" stroke="black" points="359,-38.5 359,-57.5 480,-57.5 480,-38.5 359,-38.5"/>
<text text-anchor="middle" x="419.5" y="-45.5" font-family="Helvetica,sans-Serif" font-size="10.00">infra::TimerService::Now</text>
</a>
</g>
</g>
<!-- Node66&#45;&gt;Node67 -->
<g id="edge5" class="edge"><title>Node66&#45;&gt;Node67</title>
<path fill="none" stroke="midnightblue" d="M313.241,-48C324.987,-48 337.083,-48 348.701,-48"/>
<polygon fill="midnightblue" stroke="midnightblue" points="348.767,-51.5001 358.767,-48 348.767,-44.5001 348.767,-51.5001"/>
</g>
</g>
</svg>
