<?xml version="1.0" encoding="UTF-8" standalone="no"?>
<!DOCTYPE svg PUBLIC "-//W3C//DTD SVG 1.1//EN"
 "http://www.w3.org/Graphics/SVG/1.1/DTD/svg11.dtd">
<!-- Generated by graphviz version 2.38.0 (20140413.2041)
 -->
<!-- Title: infra::StdStringInputStream Pages: 1 -->
<svg width="708pt" height="88pt"
 viewBox="0.00 0.00 708.00 88.00" xmlns="http://www.w3.org/2000/svg" xmlns:xlink="http://www.w3.org/1999/xlink">
<g id="graph0" class="graph" transform="scale(1 1) rotate(0) translate(4 84)">
<title>infra::StdStringInputStream</title>
<polygon fill="white" stroke="none" points="-4,4 -4,-84 704,-84 704,4 -4,4"/>
<!-- Node0 -->
<g id="node1" class="node"><title>Node0</title>
<polygon fill="#bfbfbf" stroke="black" points="566,-24.5 566,-43.5 700,-43.5 700,-24.5 566,-24.5"/>
<text text-anchor="middle" x="633" y="-31.5" font-family="Helvetica,sans-Serif" font-size="10.00">infra::StdStringInputStream</text>
</g>
<!-- Node1 -->
<g id="node2" class="node"><title>Node1</title>
<g id="a_node2"><a xlink:href="../../d5/dec/classinfra_1_1_text_input_stream_1_1_with_reader.html" target="_top" xlink:title="infra::TextInputStream\l::WithReader\&lt; StdStringInput\lStreamReader \&gt;">
<polygon fill="white" stroke="black" points="386,-13.5 386,-54.5 530,-54.5 530,-13.5 386,-13.5"/>
<text text-anchor="start" x="394" y="-42.5" font-family="Helvetica,sans-Serif" font-size="10.00">infra::TextInputStream</text>
<text text-anchor="start" x="394" y="-31.5" font-family="Helvetica,sans-Serif" font-size="10.00">::WithReader&lt; StdStringInput</text>
<text text-anchor="middle" x="458" y="-20.5" font-family="Helvetica,sans-Serif" font-size="10.00">StreamReader &gt;</text>
</a>
</g>
</g>
<!-- Node1&#45;&gt;Node0 -->
<g id="edge1" class="edge"><title>Node1&#45;&gt;Node0</title>
<path fill="none" stroke="midnightblue" d="M540.609,-34C549.05,-34 557.554,-34 565.798,-34"/>
<polygon fill="midnightblue" stroke="midnightblue" points="540.365,-30.5001 530.365,-34 540.364,-37.5001 540.365,-30.5001"/>
</g>
<!-- Node2 -->
<g id="node3" class="node"><title>Node2</title>
<g id="a_node3"><a xlink:href="../../d9/d00/classinfra_1_1detail_1_1_storage_holder.html" target="_top" xlink:title="infra::detail::StorageHolder\l\&lt; StdStringInputStreamReader,\l WithReader\&lt; StdStringInputStreamReader \&gt; \&gt;">
<polygon fill="white" stroke="black" points="129,-38.5 129,-79.5 350,-79.5 350,-38.5 129,-38.5"/>
<text text-anchor="start" x="137" y="-67.5" font-family="Helvetica,sans-Serif" font-size="10.00">infra::detail::StorageHolder</text>
<text text-anchor="start" x="137" y="-56.5" font-family="Helvetica,sans-Serif" font-size="10.00">&lt; StdStringInputStreamReader,</text>
<text text-anchor="middle" x="239.5" y="-45.5" font-family="Helvetica,sans-Serif" font-size="10.00"> WithReader&lt; StdStringInputStreamReader &gt; &gt;</text>
</a>
</g>
</g>
<!-- Node2&#45;&gt;Node1 -->
<g id="edge2" class="edge"><title>Node2&#45;&gt;Node1</title>
<path fill="none" stroke="#8b1a1a" d="M359.981,-45.2031C368.779,-44.1872 377.476,-43.1829 385.838,-42.2173"/>
<polygon fill="#8b1a1a" stroke="#8b1a1a" points="359.551,-41.7294 350.019,-46.3535 360.354,-48.6832 359.551,-41.7294"/>
</g>
<!-- Node3 -->
<g id="node4" class="node"><title>Node3</title>
<g id="a_node4"><a xlink:href="../../d7/d93/classinfra_1_1_text_input_stream.html" target="_top" xlink:title="infra::TextInputStream">
<polygon fill="white" stroke="black" points="183.5,-0.5 183.5,-19.5 295.5,-19.5 295.5,-0.5 183.5,-0.5"/>
<text text-anchor="middle" x="239.5" y="-7.5" font-family="Helvetica,sans-Serif" font-size="10.00">infra::TextInputStream</text>
</a>
</g>
</g>
<!-- Node3&#45;&gt;Node1 -->
<g id="edge3" class="edge"><title>Node3&#45;&gt;Node1</title>
<path fill="none" stroke="midnightblue" d="M305.907,-17.2507C331.176,-20.0518 360.158,-23.2647 385.938,-26.1224"/>
<polygon fill="midnightblue" stroke="midnightblue" points="306.017,-13.7415 295.692,-16.1183 305.246,-20.6989 306.017,-13.7415"/>
</g>
<!-- Node4 -->
<g id="node5" class="node"><title>Node4</title>
<g id="a_node5"><a xlink:href="../../db/dda/classinfra_1_1_input_stream.html" target="_top" xlink:title="infra::InputStream">
<polygon fill="white" stroke="black" points="0,-0.5 0,-19.5 93,-19.5 93,-0.5 0,-0.5"/>
<text text-anchor="middle" x="46.5" y="-7.5" font-family="Helvetica,sans-Serif" font-size="10.00">infra::InputStream</text>
</a>
</g>
</g>
<!-- Node4&#45;&gt;Node3 -->
<g id="edge4" class="edge"><title>Node4&#45;&gt;Node3</title>
<path fill="none" stroke="midnightblue" d="M103.373,-10C128.538,-10 158.166,-10 183.256,-10"/>
<polygon fill="midnightblue" stroke="midnightblue" points="103.249,-6.5001 93.2493,-10 103.249,-13.5001 103.249,-6.5001"/>
</g>
</g>
</svg>
