<?xml version="1.0" encoding="UTF-8" standalone="no"?>
<!DOCTYPE svg PUBLIC "-//W3C//DTD SVG 1.1//EN"
 "http://www.w3.org/Graphics/SVG/1.1/DTD/svg11.dtd">
<!-- Generated by graphviz version 2.38.0 (20140413.2041)
 -->
<!-- Title: infra::BoundedVector::full Pages: 1 -->
<svg width="298pt" height="50pt"
 viewBox="0.00 0.00 298.00 50.00" xmlns="http://www.w3.org/2000/svg" xmlns:xlink="http://www.w3.org/1999/xlink">
<g id="graph0" class="graph" transform="scale(1 1) rotate(0) translate(4 46)">
<title>infra::BoundedVector::full</title>
<polygon fill="white" stroke="none" points="-4,4 -4,-46 294,-46 294,4 -4,4"/>
<!-- Node277 -->
<g id="node1" class="node"><title>Node277</title>
<polygon fill="#bfbfbf" stroke="black" points="0,-6 0,-36 107,-36 107,-6 0,-6"/>
<text text-anchor="start" x="8" y="-24" font-family="Helvetica,sans-Serif" font-size="10.00">infra::BoundedVector</text>
<text text-anchor="middle" x="53.5" y="-13" font-family="Helvetica,sans-Serif" font-size="10.00">::full</text>
</g>
<!-- Node278 -->
<g id="node2" class="node"><title>Node278</title>
<g id="a_node2"><a xlink:href="../../d5/d9a/classservices_1_1_dns_resolver_1_1_reply_parser.html#ab68164ed02b966898f490f1788a07890" target="_top" xlink:title="services::DnsResolver\l::ReplyParser::ReadAdditional\lRecords">
<polygon fill="white" stroke="black" points="143,-0.5 143,-41.5 290,-41.5 290,-0.5 143,-0.5"/>
<text text-anchor="start" x="151" y="-29.5" font-family="Helvetica,sans-Serif" font-size="10.00">services::DnsResolver</text>
<text text-anchor="start" x="151" y="-18.5" font-family="Helvetica,sans-Serif" font-size="10.00">::ReplyParser::ReadAdditional</text>
<text text-anchor="middle" x="216.5" y="-7.5" font-family="Helvetica,sans-Serif" font-size="10.00">Records</text>
</a>
</g>
</g>
<!-- Node277&#45;&gt;Node278 -->
<g id="edge1" class="edge"><title>Node277&#45;&gt;Node278</title>
<path fill="none" stroke="midnightblue" d="M117.264,-21C125.631,-21 134.268,-21 142.787,-21"/>
<polygon fill="midnightblue" stroke="midnightblue" points="117.217,-17.5001 107.217,-21 117.217,-24.5001 117.217,-17.5001"/>
</g>
</g>
</svg>
