<?xml version="1.0" encoding="UTF-8" standalone="no"?>
<!DOCTYPE svg PUBLIC "-//W3C//DTD SVG 1.1//EN"
 "http://www.w3.org/Graphics/SVG/1.1/DTD/svg11.dtd">
<!-- Generated by graphviz version 2.38.0 (20140413.2041)
 -->
<!-- Title: infra::BoundedVector::size Pages: 1 -->
<!--zoomable 805 -->
<svg id="main" version="1.1" xmlns="http://www.w3.org/2000/svg" xmlns:xlink="http://www.w3.org/1999/xlink" xml:space="preserve" onload="init(evt)">
<style type="text/css"><![CDATA[
.edge:hover path { stroke: red; }
.edge:hover polygon { stroke: red; fill: red; }
]]></style>
<script type="text/javascript"><![CDATA[
var edges = document.getElementsByTagName('g');
if (edges && edges.length) {
  for (var i=0;i<edges.length;i++) {
    if (edges[i].id.substr(0,4)=='edge') {
      edges[i].setAttribute('class','edge');
    }
  }
}
]]></script>
        <defs>
                <circle id="rim" cx="0" cy="0" r="7"/>
                <circle id="rim2" cx="0" cy="0" r="3.5"/>
                <g id="zoomPlus">
                        <use xlink:href="#rim" fill="#404040">
                                <set attributeName="fill" to="#808080" begin="zoomplus.mouseover" end="zoomplus.mouseout"/>
                        </use>
                        <path d="M-4,0h8M0,-4v8" fill="none" stroke="white" stroke-width="1.5" pointer-events="none"/>
                </g>
                <g id="zoomMin">
                        <use xlink:href="#rim" fill="#404040">
                                <set attributeName="fill" to="#808080" begin="zoomminus.mouseover" end="zoomminus.mouseout"/>
                        </use>
                        <path d="M-4,0h8" fill="none" stroke="white" stroke-width="1.5" pointer-events="none"/>
                </g>
                <g id="dirArrow">
                        <path fill="none" stroke="white" stroke-width="1.5" d="M0,-3.0v7 M-2.5,-0.5L0,-3.0L2.5,-0.5"/>
                </g>
               <g id="resetDef">
                       <use xlink:href="#rim2" fill="#404040">
                               <set attributeName="fill" to="#808080" begin="reset.mouseover" end="reset.mouseout"/>
                       </use>
               </g>
        </defs>

<script type="text/javascript">
var viewWidth = 827;
var viewHeight = 805;
var sectionId = 'dynsection-12';
</script>
<script xlink:href="../../svgpan.js"/>
<svg id="graph" class="graph">
<g id="viewport">
<title>infra::BoundedVector::size</title>
<polygon fill="white" stroke="none" points="-4,4 -4,-801 823,-801 823,4 -4,4"/>
<!-- Node479 -->
<g id="node1" class="node"><title>Node479</title>
<polygon fill="#bfbfbf" stroke="black" points="0,-214.5 0,-244.5 107,-244.5 107,-214.5 0,-214.5"/>
<text text-anchor="start" x="8" y="-232.5" font-family="Helvetica,sans-Serif" font-size="10.00">infra::BoundedVector</text>
<text text-anchor="middle" x="53.5" y="-221.5" font-family="Helvetica,sans-Serif" font-size="10.00">::size</text>
</g>
<!-- Node480 -->
<g id="node2" class="node"><title>Node480</title>
<g id="a_node2"><a xlink:href="../../d8/dcc/classinfra_1_1_sequencer.html#a98e466d1ab1c7c738b4b7b6d79667132" target="_top" xlink:title="infra::Sequencer::Execute">
<polygon fill="white" stroke="black" points="170,-487 170,-506 299,-506 299,-487 170,-487"/>
<text text-anchor="middle" x="234.5" y="-494" font-family="Helvetica,sans-Serif" font-size="10.00">infra::Sequencer::Execute</text>
</a>
</g>
</g>
<!-- Node479&#45;&gt;Node480 -->
<g id="edge1" class="edge"><title>Node479&#45;&gt;Node480</title>
<path fill="none" stroke="midnightblue" d="M60.2463,-254.281C70.8195,-295.593 96.6329,-379.519 143,-435.5 162.217,-458.702 192.474,-476.614 212.644,-486.857"/>
<polygon fill="midnightblue" stroke="midnightblue" points="63.6276,-253.374 57.828,-244.508 56.8325,-255.056 63.6276,-253.374"/>
</g>
<!-- Node496 -->
<g id="node18" class="node"><title>Node496</title>
<g id="a_node18"><a xlink:href="../../d9/de8/classinfra_1_1_proto_length_delimited.html#a46493aebd6ea0d395aa2edc6fbd0292c" target="_top" xlink:title="infra::ProtoLengthDelimited\l::GetBytes">
<polygon fill="white" stroke="black" points="167.5,-395.5 167.5,-425.5 301.5,-425.5 301.5,-395.5 167.5,-395.5"/>
<text text-anchor="start" x="175.5" y="-413.5" font-family="Helvetica,sans-Serif" font-size="10.00">infra::ProtoLengthDelimited</text>
<text text-anchor="middle" x="234.5" y="-402.5" font-family="Helvetica,sans-Serif" font-size="10.00">::GetBytes</text>
</a>
</g>
</g>
<!-- Node479&#45;&gt;Node496 -->
<g id="edge19" class="edge"><title>Node479&#45;&gt;Node496</title>
<path fill="none" stroke="midnightblue" d="M61.8632,-254.321C73.4229,-288.944 99.1565,-351.322 143,-385.5 150.199,-391.112 158.579,-395.465 167.279,-398.841"/>
<polygon fill="midnightblue" stroke="midnightblue" points="65.1104,-252.985 58.7264,-244.529 58.4441,-255.12 65.1104,-252.985"/>
</g>
<!-- Node497 -->
<g id="node19" class="node"><title>Node497</title>
<g id="a_node19"><a xlink:href="../../dc/de7/classinfra_1_1_bounded_vector.html#a80626396ed029f8666f177a07797a2e4" target="_top" xlink:title="infra::BoundedVector\l\&lt; infra::PolymorphicVariant\l\&lt; infra::JsonSubParser, infra\l::JsonSubObjectParser, infra\l::JsonSubArrayParser \&gt; \&gt;::max_size">
<polygon fill="white" stroke="black" points="145.5,-313 145.5,-376 323.5,-376 323.5,-313 145.5,-313"/>
<text text-anchor="start" x="153.5" y="-364" font-family="Helvetica,sans-Serif" font-size="10.00">infra::BoundedVector</text>
<text text-anchor="start" x="153.5" y="-353" font-family="Helvetica,sans-Serif" font-size="10.00">&lt; infra::PolymorphicVariant</text>
<text text-anchor="start" x="153.5" y="-342" font-family="Helvetica,sans-Serif" font-size="10.00">&lt; infra::JsonSubParser, infra</text>
<text text-anchor="start" x="153.5" y="-331" font-family="Helvetica,sans-Serif" font-size="10.00">::JsonSubObjectParser, infra</text>
<text text-anchor="middle" x="234.5" y="-320" font-family="Helvetica,sans-Serif" font-size="10.00">::JsonSubArrayParser &gt; &gt;::max_size</text>
</a>
</g>
</g>
<!-- Node479&#45;&gt;Node497 -->
<g id="edge20" class="edge"><title>Node479&#45;&gt;Node497</title>
<path fill="none" stroke="midnightblue" d="M77.1133,-251.381C94.2464,-267.193 118.881,-288.348 143,-303.5 148.112,-306.711 153.518,-309.811 159.042,-312.769"/>
<polygon fill="midnightblue" stroke="midnightblue" points="79.4902,-248.812 69.7979,-244.533 74.7062,-253.922 79.4902,-248.812"/>
</g>
<!-- Node498 -->
<g id="node20" class="node"><title>Node498</title>
<g id="a_node20"><a xlink:href="../../dc/de7/classinfra_1_1_bounded_vector.html#a937046e13c12fa5a018e1e3f3d518bd0" target="_top" xlink:title="infra::BoundedVector\l\&lt; infra::PolymorphicVariant\l\&lt; infra::JsonSubParser, infra\l::JsonSubObjectParser, infra\l::JsonSubArrayParser \&gt; \&gt;::operator==">
<polygon fill="white" stroke="black" points="143,-231 143,-294 326,-294 326,-231 143,-231"/>
<text text-anchor="start" x="151" y="-282" font-family="Helvetica,sans-Serif" font-size="10.00">infra::BoundedVector</text>
<text text-anchor="start" x="151" y="-271" font-family="Helvetica,sans-Serif" font-size="10.00">&lt; infra::PolymorphicVariant</text>
<text text-anchor="start" x="151" y="-260" font-family="Helvetica,sans-Serif" font-size="10.00">&lt; infra::JsonSubParser, infra</text>
<text text-anchor="start" x="151" y="-249" font-family="Helvetica,sans-Serif" font-size="10.00">::JsonSubObjectParser, infra</text>
<text text-anchor="middle" x="234.5" y="-238" font-family="Helvetica,sans-Serif" font-size="10.00">::JsonSubArrayParser &gt; &gt;::operator==</text>
</a>
</g>
</g>
<!-- Node479&#45;&gt;Node498 -->
<g id="edge21" class="edge"><title>Node479&#45;&gt;Node498</title>
<path fill="none" stroke="midnightblue" d="M117.198,-241.059C125.521,-242.593 134.184,-244.19 142.861,-245.79"/>
<polygon fill="midnightblue" stroke="midnightblue" points="117.707,-237.594 107.238,-239.223 116.437,-244.478 117.707,-237.594"/>
</g>
<!-- Node499 -->
<g id="node21" class="node"><title>Node499</title>
<g id="a_node21"><a xlink:href="../../d2/d7b/classservices_1_1_datagram_win.html#a911fc384f3243be0610ac6542aa8674e" target="_top" xlink:title="services::DatagramWin\l::Send">
<polygon fill="white" stroke="black" points="176,-181.5 176,-211.5 293,-211.5 293,-181.5 176,-181.5"/>
<text text-anchor="start" x="184" y="-199.5" font-family="Helvetica,sans-Serif" font-size="10.00">services::DatagramWin</text>
<text text-anchor="middle" x="234.5" y="-188.5" font-family="Helvetica,sans-Serif" font-size="10.00">::Send</text>
</a>
</g>
</g>
<!-- Node479&#45;&gt;Node499 -->
<g id="edge22" class="edge"><title>Node479&#45;&gt;Node499</title>
<path fill="none" stroke="midnightblue" d="M117.305,-217.921C136.338,-214.412 157.144,-210.577 175.824,-207.133"/>
<polygon fill="midnightblue" stroke="midnightblue" points="116.437,-214.522 107.238,-219.777 117.707,-221.406 116.437,-214.522"/>
</g>
<!-- Node501 -->
<g id="node23" class="node"><title>Node501</title>
<g id="a_node23"><a xlink:href="../../d1/d3f/classservices_1_1_datagram_bsd.html#aca4978658bb0d48c8dda99b879efd44e" target="_top" xlink:title="services::DatagramBsd\l::Send">
<polygon fill="white" stroke="black" points="176,-132.5 176,-162.5 293,-162.5 293,-132.5 176,-132.5"/>
<text text-anchor="start" x="184" y="-150.5" font-family="Helvetica,sans-Serif" font-size="10.00">services::DatagramBsd</text>
<text text-anchor="middle" x="234.5" y="-139.5" font-family="Helvetica,sans-Serif" font-size="10.00">::Send</text>
</a>
</g>
</g>
<!-- Node479&#45;&gt;Node501 -->
<g id="edge24" class="edge"><title>Node479&#45;&gt;Node501</title>
<path fill="none" stroke="midnightblue" d="M81.7512,-208.333C98.6102,-196.101 121.143,-181.253 143,-171.5 153.243,-166.93 164.538,-163.08 175.575,-159.894"/>
<polygon fill="midnightblue" stroke="midnightblue" points="79.442,-205.688 73.4859,-214.45 83.6061,-211.314 79.442,-205.688"/>
</g>
<!-- Node503 -->
<g id="node25" class="node"><title>Node503</title>
<g id="a_node25"><a xlink:href="../../dc/de7/classinfra_1_1_bounded_vector.html#a48b8759f1cd9508f6020d3cec5032e64" target="_top" xlink:title="infra::BoundedVector\l\&lt; infra::PolymorphicVariant\l\&lt; infra::JsonSubParser, infra\l::JsonSubObjectParser, infra\l::JsonSubArrayParser \&gt; \&gt;::swap">
<polygon fill="white" stroke="black" points="155.5,-50 155.5,-113 313.5,-113 313.5,-50 155.5,-50"/>
<text text-anchor="start" x="163.5" y="-101" font-family="Helvetica,sans-Serif" font-size="10.00">infra::BoundedVector</text>
<text text-anchor="start" x="163.5" y="-90" font-family="Helvetica,sans-Serif" font-size="10.00">&lt; infra::PolymorphicVariant</text>
<text text-anchor="start" x="163.5" y="-79" font-family="Helvetica,sans-Serif" font-size="10.00">&lt; infra::JsonSubParser, infra</text>
<text text-anchor="start" x="163.5" y="-68" font-family="Helvetica,sans-Serif" font-size="10.00">::JsonSubObjectParser, infra</text>
<text text-anchor="middle" x="234.5" y="-57" font-family="Helvetica,sans-Serif" font-size="10.00">::JsonSubArrayParser &gt; &gt;::swap</text>
</a>
</g>
</g>
<!-- Node479&#45;&gt;Node503 -->
<g id="edge26" class="edge"><title>Node479&#45;&gt;Node503</title>
<path fill="none" stroke="midnightblue" d="M69.4258,-205.745C85.2783,-182.086 112.259,-145.994 143,-122.5 147.386,-119.148 152.089,-115.994 156.962,-113.04"/>
<polygon fill="midnightblue" stroke="midnightblue" points="66.4695,-203.871 63.9104,-214.152 72.3224,-207.711 66.4695,-203.871"/>
</g>
<!-- Node504 -->
<g id="node26" class="node"><title>Node504</title>
<g id="a_node26"><a xlink:href="../../d6/d32/classservices_1_1_web_socket.html#a290b24405af2bbf13a1fe42495e25071" target="_top" xlink:title="services::WebSocket\l::UpgradeHeaders">
<polygon fill="white" stroke="black" points="180,-0.5 180,-30.5 289,-30.5 289,-0.5 180,-0.5"/>
<text text-anchor="start" x="188" y="-18.5" font-family="Helvetica,sans-Serif" font-size="10.00">services::WebSocket</text>
<text text-anchor="middle" x="234.5" y="-7.5" font-family="Helvetica,sans-Serif" font-size="10.00">::UpgradeHeaders</text>
</a>
</g>
</g>
<!-- Node479&#45;&gt;Node504 -->
<g id="edge27" class="edge"><title>Node479&#45;&gt;Node504</title>
<path fill="none" stroke="midnightblue" d="M59.1986,-204.513C68.1501,-163.952 91.5394,-83.9498 143,-40.5 153.337,-31.7719 166.485,-26.0755 179.533,-22.3623"/>
<polygon fill="midnightblue" stroke="midnightblue" points="55.7546,-203.884 57.135,-214.388 62.6066,-205.316 55.7546,-203.884"/>
</g>
<!-- Node481 -->
<g id="node3" class="node"><title>Node481</title>
<g id="a_node3"><a xlink:href="../../d4/d36/classservices_1_1_cyclic_store.html#a6831a59811174b5a79616e69b555ef12" target="_top" xlink:title="services::CyclicStore::Add">
<polygon fill="white" stroke="black" points="375.5,-772 375.5,-791 506.5,-791 506.5,-772 375.5,-772"/>
<text text-anchor="middle" x="441" y="-779" font-family="Helvetica,sans-Serif" font-size="10.00">services::CyclicStore::Add</text>
</a>
</g>
</g>
<!-- Node480&#45;&gt;Node481 -->
<g id="edge2" class="edge"><title>Node480&#45;&gt;Node481</title>
<path fill="none" stroke="midnightblue" d="M238.875,-516.067C248.471,-565.532 280.668,-696.337 362,-762.5 366.757,-766.37 372.183,-769.471 377.908,-771.953"/>
<polygon fill="midnightblue" stroke="midnightblue" points="242.285,-515.258 237.031,-506.058 235.4,-516.526 242.285,-515.258"/>
</g>
<!-- Node483 -->
<g id="node5" class="node"><title>Node483</title>
<g id="a_node5"><a xlink:href="../../d4/d36/classservices_1_1_cyclic_store.html#a115b4e5eb94227652ea1065a4b2dd261" target="_top" xlink:title="services::CyclicStore\l::Clear">
<polygon fill="white" stroke="black" points="387,-722.5 387,-752.5 495,-752.5 495,-722.5 387,-722.5"/>
<text text-anchor="start" x="395" y="-740.5" font-family="Helvetica,sans-Serif" font-size="10.00">services::CyclicStore</text>
<text text-anchor="middle" x="441" y="-729.5" font-family="Helvetica,sans-Serif" font-size="10.00">::Clear</text>
</a>
</g>
</g>
<!-- Node480&#45;&gt;Node483 -->
<g id="edge4" class="edge"><title>Node480&#45;&gt;Node483</title>
<path fill="none" stroke="midnightblue" d="M242.213,-516.102C257.252,-557.243 297.47,-653.263 362,-707.5 369.33,-713.661 378.066,-718.64 386.994,-722.635"/>
<polygon fill="midnightblue" stroke="midnightblue" points="245.432,-514.707 238.786,-506.456 238.836,-517.051 245.432,-514.707"/>
</g>
<!-- Node484 -->
<g id="node6" class="node"><title>Node484</title>
<g id="a_node6"><a xlink:href="../../d4/d36/classservices_1_1_cyclic_store.html#a5b397293a572ce5d6d3144f0d284770f" target="_top" xlink:title="services::CyclicStore\l::Recover">
<polygon fill="white" stroke="black" points="561.5,-634.5 561.5,-664.5 669.5,-664.5 669.5,-634.5 561.5,-634.5"/>
<text text-anchor="start" x="569.5" y="-652.5" font-family="Helvetica,sans-Serif" font-size="10.00">services::CyclicStore</text>
<text text-anchor="middle" x="615.5" y="-641.5" font-family="Helvetica,sans-Serif" font-size="10.00">::Recover</text>
</a>
</g>
</g>
<!-- Node480&#45;&gt;Node484 -->
<g id="edge5" class="edge"><title>Node480&#45;&gt;Node484</title>
<path fill="none" stroke="midnightblue" d="M242.296,-515.865C257.052,-554.528 296.101,-640.487 362,-674.5 432.265,-710.766 528.134,-683.884 579.156,-664.579"/>
<polygon fill="midnightblue" stroke="midnightblue" points="245.513,-514.473 238.776,-506.297 238.944,-516.89 245.513,-514.473"/>
</g>
<!-- Node486 -->
<g id="node8" class="node"><title>Node486</title>
<g id="a_node8"><a xlink:href="../../d4/d36/classservices_1_1_cyclic_store.html#a7b83c7433db716af9eedc8b4b56e2c17" target="_top" xlink:title="services::CyclicStore\l::RecoverSector">
<polygon fill="white" stroke="black" points="387,-634.5 387,-664.5 495,-664.5 495,-634.5 387,-634.5"/>
<text text-anchor="start" x="395" y="-652.5" font-family="Helvetica,sans-Serif" font-size="10.00">services::CyclicStore</text>
<text text-anchor="middle" x="441" y="-641.5" font-family="Helvetica,sans-Serif" font-size="10.00">::RecoverSector</text>
</a>
</g>
</g>
<!-- Node480&#45;&gt;Node486 -->
<g id="edge7" class="edge"><title>Node480&#45;&gt;Node486</title>
<path fill="none" stroke="midnightblue" d="M248.436,-514.577C269.261,-542.395 312.894,-595.606 362,-625.5 369.624,-630.141 378.22,-633.952 386.847,-637.059"/>
<polygon fill="midnightblue" stroke="midnightblue" points="251.013,-512.174 242.272,-506.187 245.372,-516.318 251.013,-512.174"/>
</g>
<!-- Node487 -->
<g id="node9" class="node"><title>Node487</title>
<g id="a_node9"><a xlink:href="../../d4/d36/classservices_1_1_cyclic_store.html#aad16c79a455a56877863b2828a03a22b" target="_top" xlink:title="services::CyclicStore\l::RecoverEndAddress">
<polygon fill="white" stroke="black" points="386,-585.5 386,-615.5 496,-615.5 496,-585.5 386,-585.5"/>
<text text-anchor="start" x="394" y="-603.5" font-family="Helvetica,sans-Serif" font-size="10.00">services::CyclicStore</text>
<text text-anchor="middle" x="441" y="-592.5" font-family="Helvetica,sans-Serif" font-size="10.00">::RecoverEndAddress</text>
</a>
</g>
</g>
<!-- Node480&#45;&gt;Node487 -->
<g id="edge9" class="edge"><title>Node480&#45;&gt;Node487</title>
<path fill="none" stroke="midnightblue" d="M256.252,-512.069C280.537,-529.695 322.474,-558.315 362,-576.5 369.465,-579.935 377.552,-583.045 385.595,-585.801"/>
<polygon fill="midnightblue" stroke="midnightblue" points="258.273,-509.211 248.141,-506.113 254.129,-514.853 258.273,-509.211"/>
</g>
<!-- Node488 -->
<g id="node10" class="node"><title>Node488</title>
<g id="a_node10"><a xlink:href="../../d8/d2e/classservices_1_1_cyclic_store_1_1_iterator.html#a381735d4db303d7075fb985d38620026" target="_top" xlink:title="services::CyclicStore\l::Iterator::Read">
<polygon fill="white" stroke="black" points="387,-536.5 387,-566.5 495,-566.5 495,-536.5 387,-536.5"/>
<text text-anchor="start" x="395" y="-554.5" font-family="Helvetica,sans-Serif" font-size="10.00">services::CyclicStore</text>
<text text-anchor="middle" x="441" y="-543.5" font-family="Helvetica,sans-Serif" font-size="10.00">::Iterator::Read</text>
</a>
</g>
</g>
<!-- Node480&#45;&gt;Node488 -->
<g id="edge11" class="edge"><title>Node480&#45;&gt;Node488</title>
<path fill="none" stroke="midnightblue" d="M280.89,-508.707C312.179,-517.123 353.883,-528.339 386.746,-537.177"/>
<polygon fill="midnightblue" stroke="midnightblue" points="281.687,-505.298 271.121,-506.08 279.869,-512.057 281.687,-505.298"/>
</g>
<!-- Node489 -->
<g id="node11" class="node"><title>Node489</title>
<g id="a_node11"><a xlink:href="../../d8/d2e/classservices_1_1_cyclic_store_1_1_iterator.html#a15d402ff832887c4acbb33e8098d4ad4" target="_top" xlink:title="services::CyclicStore\l::Iterator::ReadSectorStatus\lIfAtStart">
<polygon fill="white" stroke="black" points="372,-476 372,-517 510,-517 510,-476 372,-476"/>
<text text-anchor="start" x="380" y="-505" font-family="Helvetica,sans-Serif" font-size="10.00">services::CyclicStore</text>
<text text-anchor="start" x="380" y="-494" font-family="Helvetica,sans-Serif" font-size="10.00">::Iterator::ReadSectorStatus</text>
<text text-anchor="middle" x="441" y="-483" font-family="Helvetica,sans-Serif" font-size="10.00">IfAtStart</text>
</a>
</g>
</g>
<!-- Node480&#45;&gt;Node489 -->
<g id="edge12" class="edge"><title>Node480&#45;&gt;Node489</title>
<path fill="none" stroke="midnightblue" d="M309.275,-496.5C329.695,-496.5 351.761,-496.5 371.845,-496.5"/>
<polygon fill="midnightblue" stroke="midnightblue" points="309.084,-493 299.084,-496.5 309.084,-500 309.084,-493"/>
</g>
<!-- Node490 -->
<g id="node12" class="node"><title>Node490</title>
<g id="a_node12"><a xlink:href="../../d8/db5/classapplication_1_1_deploy_pack_to_external.html#a266ba4b3faeea4ab1efca546279509cd" target="_top" xlink:title="application::DeployPackTo\lExternal::DeployPackToExternal">
<polygon fill="white" stroke="black" points="362,-426.5 362,-456.5 520,-456.5 520,-426.5 362,-426.5"/>
<text text-anchor="start" x="370" y="-444.5" font-family="Helvetica,sans-Serif" font-size="10.00">application::DeployPackTo</text>
<text text-anchor="middle" x="441" y="-433.5" font-family="Helvetica,sans-Serif" font-size="10.00">External::DeployPackToExternal</text>
</a>
</g>
</g>
<!-- Node480&#45;&gt;Node490 -->
<g id="edge13" class="edge"><title>Node480&#45;&gt;Node490</title>
<path fill="none" stroke="midnightblue" d="M281.031,-484.254C311.434,-476.078 351.622,-465.269 383.984,-456.565"/>
<polygon fill="midnightblue" stroke="midnightblue" points="279.869,-480.943 271.121,-486.92 281.687,-487.702 279.869,-480.943"/>
</g>
<!-- Node491 -->
<g id="node13" class="node"><title>Node491</title>
<g id="a_node13"><a xlink:href="../../d0/db3/classservices_1_1_flash_quad_spi.html#ad5eea94e8c563df753b4a66292d1e73d" target="_top" xlink:title="services::FlashQuadSpi\l::EraseSectors">
<polygon fill="white" stroke="black" points="381.5,-377.5 381.5,-407.5 500.5,-407.5 500.5,-377.5 381.5,-377.5"/>
<text text-anchor="start" x="389.5" y="-395.5" font-family="Helvetica,sans-Serif" font-size="10.00">services::FlashQuadSpi</text>
<text text-anchor="middle" x="441" y="-384.5" font-family="Helvetica,sans-Serif" font-size="10.00">::EraseSectors</text>
</a>
</g>
</g>
<!-- Node480&#45;&gt;Node491 -->
<g id="edge14" class="edge"><title>Node480&#45;&gt;Node491</title>
<path fill="none" stroke="midnightblue" d="M256.712,-480.949C281.119,-463.615 322.878,-435.642 362,-417.5 369.869,-413.851 378.417,-410.521 386.873,-407.566"/>
<polygon fill="midnightblue" stroke="midnightblue" points="254.623,-478.14 248.542,-486.816 258.706,-483.826 254.623,-478.14"/>
</g>
<!-- Node492 -->
<g id="node14" class="node"><title>Node492</title>
<g id="a_node14"><a xlink:href="../../d0/db3/classservices_1_1_flash_quad_spi.html#a9e190d022eb9d8fc0f88e89160f89b0f" target="_top" xlink:title="services::FlashQuadSpi\l::WriteBufferSequence">
<polygon fill="white" stroke="black" points="381.5,-328.5 381.5,-358.5 500.5,-358.5 500.5,-328.5 381.5,-328.5"/>
<text text-anchor="start" x="389.5" y="-346.5" font-family="Helvetica,sans-Serif" font-size="10.00">services::FlashQuadSpi</text>
<text text-anchor="middle" x="441" y="-335.5" font-family="Helvetica,sans-Serif" font-size="10.00">::WriteBufferSequence</text>
</a>
</g>
</g>
<!-- Node480&#45;&gt;Node492 -->
<g id="edge15" class="edge"><title>Node480&#45;&gt;Node492</title>
<path fill="none" stroke="midnightblue" d="M264.127,-482.011C283.401,-471.186 308.413,-454.941 326,-435.5 348.678,-410.432 336.014,-390.121 362,-368.5 367.684,-363.771 374.278,-359.931 381.176,-356.815"/>
<polygon fill="midnightblue" stroke="midnightblue" points="262.293,-479.024 255.184,-486.88 265.64,-485.172 262.293,-479.024"/>
</g>
<!-- Node494 -->
<g id="node16" class="node"><title>Node494</title>
<g id="a_node16"><a xlink:href="../../df/d28/classservices_1_1_flash_spi.html#a565d63c057e750b2c5703b83e2987e0d" target="_top" xlink:title="services::FlashSpi\l::WriteBuffer">
<polygon fill="white" stroke="black" points="393,-279.5 393,-309.5 489,-309.5 489,-279.5 393,-279.5"/>
<text text-anchor="start" x="401" y="-297.5" font-family="Helvetica,sans-Serif" font-size="10.00">services::FlashSpi</text>
<text text-anchor="middle" x="441" y="-286.5" font-family="Helvetica,sans-Serif" font-size="10.00">::WriteBuffer</text>
</a>
</g>
</g>
<!-- Node480&#45;&gt;Node494 -->
<g id="edge17" class="edge"><title>Node480&#45;&gt;Node494</title>
<path fill="none" stroke="midnightblue" d="M266.864,-482.252C286.457,-471.868 310.772,-456.034 326,-435.5 358.408,-391.8 323.529,-356.971 362,-318.5 370.315,-310.185 381.438,-304.739 392.673,-301.175"/>
<polygon fill="midnightblue" stroke="midnightblue" points="265.02,-479.263 257.685,-486.908 268.187,-485.505 265.02,-479.263"/>
</g>
<!-- Node495 -->
<g id="node17" class="node"><title>Node495</title>
<g id="a_node17"><a xlink:href="../../df/d28/classservices_1_1_flash_spi.html#a5b3e05583977f2aebb2cb4b25491390a" target="_top" xlink:title="services::FlashSpi\l::EraseSectors">
<polygon fill="white" stroke="black" points="393,-230.5 393,-260.5 489,-260.5 489,-230.5 393,-230.5"/>
<text text-anchor="start" x="401" y="-248.5" font-family="Helvetica,sans-Serif" font-size="10.00">services::FlashSpi</text>
<text text-anchor="middle" x="441" y="-237.5" font-family="Helvetica,sans-Serif" font-size="10.00">::EraseSectors</text>
</a>
</g>
</g>
<!-- Node480&#45;&gt;Node495 -->
<g id="edge18" class="edge"><title>Node480&#45;&gt;Node495</title>
<path fill="none" stroke="midnightblue" d="M267.95,-482.419C287.696,-472.201 311.776,-456.488 326,-435.5 368.354,-373.008 310.933,-325.1 362,-269.5 370.146,-260.63 381.482,-255.005 392.991,-251.447"/>
<polygon fill="midnightblue" stroke="midnightblue" points="266.37,-479.296 258.951,-486.86 269.467,-485.573 266.37,-479.296"/>
</g>
<!-- Node482 -->
<g id="node4" class="node"><title>Node482</title>
<g id="a_node4"><a xlink:href="../../d4/d36/classservices_1_1_cyclic_store.html#a7aeab26acd5d9c4df8de0dd8eceb6af8" target="_top" xlink:title="services::CyclicStore\l::AddPartial">
<polygon fill="white" stroke="black" points="561.5,-766.5 561.5,-796.5 669.5,-796.5 669.5,-766.5 561.5,-766.5"/>
<text text-anchor="start" x="569.5" y="-784.5" font-family="Helvetica,sans-Serif" font-size="10.00">services::CyclicStore</text>
<text text-anchor="middle" x="615.5" y="-773.5" font-family="Helvetica,sans-Serif" font-size="10.00">::AddPartial</text>
</a>
</g>
</g>
<!-- Node481&#45;&gt;Node482 -->
<g id="edge3" class="edge"><title>Node481&#45;&gt;Node482</title>
<path fill="none" stroke="midnightblue" d="M516.951,-781.5C531.863,-781.5 547.233,-781.5 561.237,-781.5"/>
<polygon fill="midnightblue" stroke="midnightblue" points="516.723,-778 506.723,-781.5 516.723,-785 516.723,-778"/>
</g>
<!-- Node485 -->
<g id="node7" class="node"><title>Node485</title>
<g id="a_node7"><a xlink:href="../../d4/d36/classservices_1_1_cyclic_store.html#a6a29c761506bd86c65acb03b1a717e9a" target="_top" xlink:title="services::CyclicStore\l::CyclicStore">
<polygon fill="white" stroke="black" points="711,-634.5 711,-664.5 819,-664.5 819,-634.5 711,-634.5"/>
<text text-anchor="start" x="719" y="-652.5" font-family="Helvetica,sans-Serif" font-size="10.00">services::CyclicStore</text>
<text text-anchor="middle" x="765" y="-641.5" font-family="Helvetica,sans-Serif" font-size="10.00">::CyclicStore</text>
</a>
</g>
</g>
<!-- Node484&#45;&gt;Node485 -->
<g id="edge6" class="edge"><title>Node484&#45;&gt;Node485</title>
<path fill="none" stroke="midnightblue" d="M679.929,-649.5C690.23,-649.5 700.804,-649.5 710.827,-649.5"/>
<polygon fill="midnightblue" stroke="midnightblue" points="679.751,-646 669.751,-649.5 679.751,-653 679.751,-646"/>
</g>
<!-- Node486&#45;&gt;Node484 -->
<g id="edge8" class="edge"><title>Node486&#45;&gt;Node484</title>
<path fill="none" stroke="midnightblue" d="M505.203,-649.5C523.596,-649.5 543.498,-649.5 561.215,-649.5"/>
<polygon fill="midnightblue" stroke="midnightblue" points="505.163,-646 495.163,-649.5 505.163,-653 505.163,-646"/>
</g>
<!-- Node487&#45;&gt;Node484 -->
<g id="edge10" class="edge"><title>Node487&#45;&gt;Node484</title>
<path fill="none" stroke="midnightblue" d="M504.994,-618.394C523.548,-623.664 543.654,-629.376 561.512,-634.448"/>
<polygon fill="midnightblue" stroke="midnightblue" points="505.739,-614.967 495.163,-615.601 503.826,-621.701 505.739,-614.967"/>
</g>
<!-- Node493 -->
<g id="node15" class="node"><title>Node493</title>
<g id="a_node15"><a xlink:href="../../d0/db3/classservices_1_1_flash_quad_spi.html#a3ff6a6b4dc7fa4f07ff1dc03d9292f33" target="_top" xlink:title="services::FlashQuadSpi\l::WriteBuffer">
<polygon fill="white" stroke="black" points="556,-328.5 556,-358.5 675,-358.5 675,-328.5 556,-328.5"/>
<text text-anchor="start" x="564" y="-346.5" font-family="Helvetica,sans-Serif" font-size="10.00">services::FlashQuadSpi</text>
<text text-anchor="middle" x="615.5" y="-335.5" font-family="Helvetica,sans-Serif" font-size="10.00">::WriteBuffer</text>
</a>
</g>
</g>
<!-- Node492&#45;&gt;Node493 -->
<g id="edge16" class="edge"><title>Node492&#45;&gt;Node493</title>
<path fill="none" stroke="midnightblue" d="M511.034,-343.5C525.894,-343.5 541.464,-343.5 555.883,-343.5"/>
<polygon fill="midnightblue" stroke="midnightblue" points="510.882,-340 500.882,-343.5 510.882,-347 510.882,-340"/>
</g>
<!-- Node500 -->
<g id="node22" class="node"><title>Node500</title>
<g id="a_node22"><a xlink:href="../../d2/d7b/classservices_1_1_datagram_win.html#aee0015559f65552dbc999db0db50980b" target="_top" xlink:title="services::DatagramWin\l::TrySend">
<polygon fill="white" stroke="black" points="382.5,-181.5 382.5,-211.5 499.5,-211.5 499.5,-181.5 382.5,-181.5"/>
<text text-anchor="start" x="390.5" y="-199.5" font-family="Helvetica,sans-Serif" font-size="10.00">services::DatagramWin</text>
<text text-anchor="middle" x="441" y="-188.5" font-family="Helvetica,sans-Serif" font-size="10.00">::TrySend</text>
</a>
</g>
</g>
<!-- Node499&#45;&gt;Node500 -->
<g id="edge23" class="edge"><title>Node499&#45;&gt;Node500</title>
<path fill="none" stroke="midnightblue" d="M303.021,-196.5C328.644,-196.5 357.569,-196.5 382.214,-196.5"/>
<polygon fill="midnightblue" stroke="midnightblue" points="303.009,-193 293.009,-196.5 303.009,-200 303.009,-193"/>
</g>
<!-- Node502 -->
<g id="node24" class="node"><title>Node502</title>
<g id="a_node24"><a xlink:href="../../d1/d3f/classservices_1_1_datagram_bsd.html#adefa1044916c18d957f119f6bc9929a7" target="_top" xlink:title="services::DatagramBsd\l::TrySend">
<polygon fill="white" stroke="black" points="382.5,-132.5 382.5,-162.5 499.5,-162.5 499.5,-132.5 382.5,-132.5"/>
<text text-anchor="start" x="390.5" y="-150.5" font-family="Helvetica,sans-Serif" font-size="10.00">services::DatagramBsd</text>
<text text-anchor="middle" x="441" y="-139.5" font-family="Helvetica,sans-Serif" font-size="10.00">::TrySend</text>
</a>
</g>
</g>
<!-- Node501&#45;&gt;Node502 -->
<g id="edge25" class="edge"><title>Node501&#45;&gt;Node502</title>
<path fill="none" stroke="midnightblue" d="M303.021,-147.5C328.644,-147.5 357.569,-147.5 382.214,-147.5"/>
<polygon fill="midnightblue" stroke="midnightblue" points="303.009,-144 293.009,-147.5 303.009,-151 303.009,-144"/>
</g>
</g>
</svg>
        <g id="navigator" transform="translate(0 0)" fill="#404254">
                <rect fill="#f2f5e9" fill-opacity="0.5" stroke="#606060" stroke-width=".5" x="0" y="0" width="60" height="60"/>
                <use id="zoomplus" xlink:href="#zoomPlus" x="17" y="9" onmousedown="handleZoom(evt,'in')"/>
                <use id="zoomminus" xlink:href="#zoomMin" x="42" y="9" onmousedown="handleZoom(evt,'out')"/>
                <use id="reset" xlink:href="#resetDef" x="30" y="36" onmousedown="handleReset()"/>
                <g id="arrowUp" xlink:href="#dirArrow" transform="translate(30 24)" onmousedown="handlePan(0,-1)">
                  <use xlink:href="#rim" fill="#404040">
                        <set attributeName="fill" to="#808080" begin="arrowUp.mouseover" end="arrowUp.mouseout"/>
                  </use>
                  <path fill="none" stroke="white" stroke-width="1.5" d="M0,-3.0v7 M-2.5,-0.5L0,-3.0L2.5,-0.5"/>
                </g>
                <g id="arrowRight" xlink:href="#dirArrow" transform="rotate(90) translate(36 -43)" onmousedown="handlePan(1,0)">
                  <use xlink:href="#rim" fill="#404040">
                        <set attributeName="fill" to="#808080" begin="arrowRight.mouseover" end="arrowRight.mouseout"/>
                  </use>
                  <path fill="none" stroke="white" stroke-width="1.5" d="M0,-3.0v7 M-2.5,-0.5L0,-3.0L2.5,-0.5"/>
                </g>
                <g id="arrowDown" xlink:href="#dirArrow" transform="rotate(180) translate(-30 -48)" onmousedown="handlePan(0,1)">
                  <use xlink:href="#rim" fill="#404040">
                        <set attributeName="fill" to="#808080" begin="arrowDown.mouseover" end="arrowDown.mouseout"/>
                  </use>
                  <path fill="none" stroke="white" stroke-width="1.5" d="M0,-3.0v7 M-2.5,-0.5L0,-3.0L2.5,-0.5"/>
                </g>
                <g id="arrowLeft" xlink:href="#dirArrow" transform="rotate(270) translate(-36 17)" onmousedown="handlePan(-1,0)">
                  <use xlink:href="#rim" fill="#404040">
                        <set attributeName="fill" to="#808080" begin="arrowLeft.mouseover" end="arrowLeft.mouseout"/>
                  </use>
                  <path fill="none" stroke="white" stroke-width="1.5" d="M0,-3.0v7 M-2.5,-0.5L0,-3.0L2.5,-0.5"/>
                </g>
        </g>
        <svg viewBox="0 0 15 15" width="100%" height="30px" preserveAspectRatio="xMaxYMin meet">
         <g id="arrow_out" transform="scale(0.3 0.3)">
          <a xlink:href="classinfra_1_1_bounded_vector_a605f344af39e74f48bb205c86f57b5da_icgraph_org.svg" target="_base">
           <rect id="button" ry="5" rx="5" y="6" x="6" height="38" width="38"
                fill="#f2f5e9" fill-opacity="0.5" stroke="#606060" stroke-width="1.0"/>
           <path id="arrow"
             d="M 11.500037,31.436501 C 11.940474,20.09759 22.043105,11.32322 32.158766,21.979434 L 37.068811,17.246167 C 37.068811,17.246167 37.088388,32 37.088388,32 L 22.160133,31.978069 C 22.160133,31.978069 26.997745,27.140456 26.997745,27.140456 C 18.528582,18.264221 13.291696,25.230495 11.500037,31.436501 z"
             style="fill:#404040;"/>
          </a>
         </g>
        </svg>
</svg>
