<?xml version="1.0" encoding="UTF-8" standalone="no"?>
<!DOCTYPE svg PUBLIC "-//W3C//DTD SVG 1.1//EN"
 "http://www.w3.org/Graphics/SVG/1.1/DTD/svg11.dtd">
<!-- Generated by graphviz version 2.38.0 (20140413.2041)
 -->
<!-- Title: infra::BoundedVector::end Pages: 1 -->
<svg width="376pt" height="324pt"
 viewBox="0.00 0.00 376.00 323.50" xmlns="http://www.w3.org/2000/svg" xmlns:xlink="http://www.w3.org/1999/xlink">
<g id="graph0" class="graph" transform="scale(1 1) rotate(0) translate(4 319.5)">
<title>infra::BoundedVector::end</title>
<polygon fill="white" stroke="none" points="-4,4 -4,-319.5 372,-319.5 372,4 -4,4"/>
<!-- Node260 -->
<g id="node1" class="node"><title>Node260</title>
<polygon fill="#bfbfbf" stroke="black" points="0,-164.5 0,-183.5 129,-183.5 129,-164.5 0,-164.5"/>
<text text-anchor="middle" x="64.5" y="-171.5" font-family="Helvetica,sans-Serif" font-size="10.00">infra::BoundedVector::end</text>
</g>
<!-- Node261 -->
<g id="node2" class="node"><title>Node261</title>
<g id="a_node2"><a xlink:href="../../df/d12/classinfra_1_1_bounded_priority_queue.html#ad63c1214edab03ff3e77e09146ac33e4" target="_top" xlink:title="infra::BoundedPriorityQueue\l::BoundedPriorityQueue">
<polygon fill="white" stroke="black" points="197.5,-285 197.5,-315 335.5,-315 335.5,-285 197.5,-285"/>
<text text-anchor="start" x="205.5" y="-303" font-family="Helvetica,sans-Serif" font-size="10.00">infra::BoundedPriorityQueue</text>
<text text-anchor="middle" x="266.5" y="-292" font-family="Helvetica,sans-Serif" font-size="10.00">::BoundedPriorityQueue</text>
</a>
</g>
</g>
<!-- Node260&#45;&gt;Node261 -->
<g id="edge1" class="edge"><title>Node260&#45;&gt;Node261</title>
<path fill="none" stroke="midnightblue" d="M78.1604,-191.952C95.2325,-214.785 127.815,-253.791 165,-275 174.917,-280.656 186.098,-285.045 197.306,-288.447"/>
<polygon fill="midnightblue" stroke="midnightblue" points="80.929,-189.808 72.2072,-183.793 75.2743,-193.934 80.929,-189.808"/>
</g>
<!-- Node262 -->
<g id="node3" class="node"><title>Node262</title>
<g id="a_node3"><a xlink:href="../../dc/de7/classinfra_1_1_bounded_vector.html#a6dbfa735e6f337ca1ef75ad1f79eb7f1" target="_top" xlink:title="infra::BoundedVector\l\&lt; infra::PolymorphicVariant\l\&lt; infra::JsonSubParser, infra\l::JsonSubObjectParser, infra\l::JsonSubArrayParser \&gt; \&gt;::BoundedVector">
<polygon fill="white" stroke="black" points="165,-202.5 165,-265.5 368,-265.5 368,-202.5 165,-202.5"/>
<text text-anchor="start" x="173" y="-253.5" font-family="Helvetica,sans-Serif" font-size="10.00">infra::BoundedVector</text>
<text text-anchor="start" x="173" y="-242.5" font-family="Helvetica,sans-Serif" font-size="10.00">&lt; infra::PolymorphicVariant</text>
<text text-anchor="start" x="173" y="-231.5" font-family="Helvetica,sans-Serif" font-size="10.00">&lt; infra::JsonSubParser, infra</text>
<text text-anchor="start" x="173" y="-220.5" font-family="Helvetica,sans-Serif" font-size="10.00">::JsonSubObjectParser, infra</text>
<text text-anchor="middle" x="266.5" y="-209.5" font-family="Helvetica,sans-Serif" font-size="10.00">::JsonSubArrayParser &gt; &gt;::BoundedVector</text>
</a>
</g>
</g>
<!-- Node260&#45;&gt;Node262 -->
<g id="edge2" class="edge"><title>Node260&#45;&gt;Node262</title>
<path fill="none" stroke="midnightblue" d="M107.232,-186.52C124.113,-191.584 144.396,-197.669 164.722,-203.767"/>
<polygon fill="midnightblue" stroke="midnightblue" points="107.775,-183.028 97.1906,-183.507 105.763,-189.733 107.775,-183.028"/>
</g>
<!-- Node263 -->
<g id="node4" class="node"><title>Node263</title>
<g id="a_node4"><a xlink:href="../../d0/de3/namespaceinfra.html#ae4be7bafc2113959f7060052b6f13af5" target="_top" xlink:title="infra::MakeRange">
<polygon fill="white" stroke="black" points="220.5,-164.5 220.5,-183.5 312.5,-183.5 312.5,-164.5 220.5,-164.5"/>
<text text-anchor="middle" x="266.5" y="-171.5" font-family="Helvetica,sans-Serif" font-size="10.00">infra::MakeRange</text>
</a>
</g>
</g>
<!-- Node260&#45;&gt;Node263 -->
<g id="edge3" class="edge"><title>Node260&#45;&gt;Node263</title>
<path fill="none" stroke="midnightblue" d="M139.336,-174C166.562,-174 196.571,-174 220.49,-174"/>
<polygon fill="midnightblue" stroke="midnightblue" points="139.056,-170.5 129.056,-174 139.056,-177.5 139.056,-170.5"/>
</g>
<!-- Node264 -->
<g id="node5" class="node"><title>Node264</title>
<g id="a_node5"><a xlink:href="../../dc/de7/classinfra_1_1_bounded_vector.html#a72023b8893b51e40888430e8e96adef3" target="_top" xlink:title="infra::BoundedVector\l\&lt; infra::PolymorphicVariant\l\&lt; infra::JsonSubParser, infra\l::JsonSubObjectParser, infra\l::JsonSubArrayParser \&gt; \&gt;::operator\&lt;">
<polygon fill="white" stroke="black" points="178,-82.5 178,-145.5 355,-145.5 355,-82.5 178,-82.5"/>
<text text-anchor="start" x="186" y="-133.5" font-family="Helvetica,sans-Serif" font-size="10.00">infra::BoundedVector</text>
<text text-anchor="start" x="186" y="-122.5" font-family="Helvetica,sans-Serif" font-size="10.00">&lt; infra::PolymorphicVariant</text>
<text text-anchor="start" x="186" y="-111.5" font-family="Helvetica,sans-Serif" font-size="10.00">&lt; infra::JsonSubParser, infra</text>
<text text-anchor="start" x="186" y="-100.5" font-family="Helvetica,sans-Serif" font-size="10.00">::JsonSubObjectParser, infra</text>
<text text-anchor="middle" x="266.5" y="-89.5" font-family="Helvetica,sans-Serif" font-size="10.00">::JsonSubArrayParser &gt; &gt;::operator&lt;</text>
</a>
</g>
</g>
<!-- Node260&#45;&gt;Node264 -->
<g id="edge4" class="edge"><title>Node260&#45;&gt;Node264</title>
<path fill="none" stroke="midnightblue" d="M106.857,-161.593C127.441,-155.418 153.152,-147.704 177.843,-140.297"/>
<polygon fill="midnightblue" stroke="midnightblue" points="105.763,-158.267 97.1906,-164.493 107.775,-164.972 105.763,-158.267"/>
</g>
<!-- Node265 -->
<g id="node6" class="node"><title>Node265</title>
<g id="a_node6"><a xlink:href="../../dc/de7/classinfra_1_1_bounded_vector.html#a2dff5612f083b2f1fb5721bb552e55bb" target="_top" xlink:title="infra::BoundedVector\l\&lt; infra::PolymorphicVariant\l\&lt; infra::JsonSubParser, infra\l::JsonSubObjectParser, infra\l::JsonSubArrayParser \&gt; \&gt;::operator=">
<polygon fill="white" stroke="black" points="178,-0.5 178,-63.5 355,-63.5 355,-0.5 178,-0.5"/>
<text text-anchor="start" x="186" y="-51.5" font-family="Helvetica,sans-Serif" font-size="10.00">infra::BoundedVector</text>
<text text-anchor="start" x="186" y="-40.5" font-family="Helvetica,sans-Serif" font-size="10.00">&lt; infra::PolymorphicVariant</text>
<text text-anchor="start" x="186" y="-29.5" font-family="Helvetica,sans-Serif" font-size="10.00">&lt; infra::JsonSubParser, infra</text>
<text text-anchor="start" x="186" y="-18.5" font-family="Helvetica,sans-Serif" font-size="10.00">::JsonSubObjectParser, infra</text>
<text text-anchor="middle" x="266.5" y="-7.5" font-family="Helvetica,sans-Serif" font-size="10.00">::JsonSubArrayParser &gt; &gt;::operator=</text>
</a>
</g>
</g>
<!-- Node260&#45;&gt;Node265 -->
<g id="edge5" class="edge"><title>Node260&#45;&gt;Node265</title>
<path fill="none" stroke="midnightblue" d="M78.9284,-156.518C96.6059,-134.503 129.612,-96.6998 165,-73 170.01,-69.6445 175.338,-66.4873 180.826,-63.5312"/>
<polygon fill="midnightblue" stroke="midnightblue" points="76.1724,-154.361 72.7292,-164.38 81.6693,-158.695 76.1724,-154.361"/>
</g>
</g>
</svg>
