<?xml version="1.0" encoding="UTF-8" standalone="no"?>
<!DOCTYPE svg PUBLIC "-//W3C//DTD SVG 1.1//EN"
 "http://www.w3.org/Graphics/SVG/1.1/DTD/svg11.dtd">
<!-- Generated by graphviz version 2.38.0 (20140413.2041)
 -->
<!-- Title: infra::BoundedVector::begin Pages: 1 -->
<svg width="354pt" height="406pt"
 viewBox="0.00 0.00 354.00 405.50" xmlns="http://www.w3.org/2000/svg" xmlns:xlink="http://www.w3.org/1999/xlink">
<g id="graph0" class="graph" transform="scale(1 1) rotate(0) translate(4 401.5)">
<title>infra::BoundedVector::begin</title>
<polygon fill="white" stroke="none" points="-4,4 -4,-401.5 350,-401.5 350,4 -4,4"/>
<!-- Node109 -->
<g id="node1" class="node"><title>Node109</title>
<polygon fill="#bfbfbf" stroke="black" points="0,-211 0,-241 107,-241 107,-211 0,-211"/>
<text text-anchor="start" x="8" y="-229" font-family="Helvetica,sans-Serif" font-size="10.00">infra::BoundedVector</text>
<text text-anchor="middle" x="53.5" y="-218" font-family="Helvetica,sans-Serif" font-size="10.00">::begin</text>
</g>
<!-- Node110 -->
<g id="node2" class="node"><title>Node110</title>
<g id="a_node2"><a xlink:href="../../df/d12/classinfra_1_1_bounded_priority_queue.html#ad63c1214edab03ff3e77e09146ac33e4" target="_top" xlink:title="infra::BoundedPriorityQueue\l::BoundedPriorityQueue">
<polygon fill="white" stroke="black" points="175.5,-367 175.5,-397 313.5,-397 313.5,-367 175.5,-367"/>
<text text-anchor="start" x="183.5" y="-385" font-family="Helvetica,sans-Serif" font-size="10.00">infra::BoundedPriorityQueue</text>
<text text-anchor="middle" x="244.5" y="-374" font-family="Helvetica,sans-Serif" font-size="10.00">::BoundedPriorityQueue</text>
</a>
</g>
</g>
<!-- Node109&#45;&gt;Node110 -->
<g id="edge1" class="edge"><title>Node109&#45;&gt;Node110</title>
<path fill="none" stroke="midnightblue" d="M64.429,-250.526C77.7843,-280.342 104.402,-330.01 143,-357 152.651,-363.749 163.943,-368.681 175.404,-372.283"/>
<polygon fill="midnightblue" stroke="midnightblue" points="67.5932,-249.025 60.4101,-241.237 61.1688,-251.805 67.5932,-249.025"/>
</g>
<!-- Node111 -->
<g id="node3" class="node"><title>Node111</title>
<g id="a_node3"><a xlink:href="../../dc/de7/classinfra_1_1_bounded_vector.html#a6dbfa735e6f337ca1ef75ad1f79eb7f1" target="_top" xlink:title="infra::BoundedVector\l\&lt; infra::PolymorphicVariant\l\&lt; infra::JsonSubParser, infra\l::JsonSubObjectParser, infra\l::JsonSubArrayParser \&gt; \&gt;::BoundedVector">
<polygon fill="white" stroke="black" points="143,-284.5 143,-347.5 346,-347.5 346,-284.5 143,-284.5"/>
<text text-anchor="start" x="151" y="-335.5" font-family="Helvetica,sans-Serif" font-size="10.00">infra::BoundedVector</text>
<text text-anchor="start" x="151" y="-324.5" font-family="Helvetica,sans-Serif" font-size="10.00">&lt; infra::PolymorphicVariant</text>
<text text-anchor="start" x="151" y="-313.5" font-family="Helvetica,sans-Serif" font-size="10.00">&lt; infra::JsonSubParser, infra</text>
<text text-anchor="start" x="151" y="-302.5" font-family="Helvetica,sans-Serif" font-size="10.00">::JsonSubObjectParser, infra</text>
<text text-anchor="middle" x="244.5" y="-291.5" font-family="Helvetica,sans-Serif" font-size="10.00">::JsonSubArrayParser &gt; &gt;::BoundedVector</text>
</a>
</g>
</g>
<!-- Node109&#45;&gt;Node111 -->
<g id="edge2" class="edge"><title>Node109&#45;&gt;Node111</title>
<path fill="none" stroke="midnightblue" d="M89.0907,-246.397C105.237,-255.594 124.859,-266.315 143,-275 149.629,-278.173 156.57,-281.332 163.575,-284.405"/>
<polygon fill="midnightblue" stroke="midnightblue" points="90.4369,-243.134 80.0228,-241.185 86.9486,-249.203 90.4369,-243.134"/>
</g>
<!-- Node112 -->
<g id="node4" class="node"><title>Node112</title>
<g id="a_node4"><a xlink:href="../../d0/de3/namespaceinfra.html#ae4be7bafc2113959f7060052b6f13af5" target="_top" xlink:title="infra::MakeRange">
<polygon fill="white" stroke="black" points="198.5,-246.5 198.5,-265.5 290.5,-265.5 290.5,-246.5 198.5,-246.5"/>
<text text-anchor="middle" x="244.5" y="-253.5" font-family="Helvetica,sans-Serif" font-size="10.00">infra::MakeRange</text>
</a>
</g>
</g>
<!-- Node109&#45;&gt;Node112 -->
<g id="edge3" class="edge"><title>Node109&#45;&gt;Node112</title>
<path fill="none" stroke="midnightblue" d="M117.099,-235.936C143.604,-240.143 173.901,-244.953 198.188,-248.808"/>
<polygon fill="midnightblue" stroke="midnightblue" points="117.572,-232.468 107.147,-234.357 116.475,-239.381 117.572,-232.468"/>
</g>
<!-- Node113 -->
<g id="node5" class="node"><title>Node113</title>
<g id="a_node5"><a xlink:href="../../dc/de7/classinfra_1_1_bounded_vector.html#a72023b8893b51e40888430e8e96adef3" target="_top" xlink:title="infra::BoundedVector\l\&lt; infra::PolymorphicVariant\l\&lt; infra::JsonSubParser, infra\l::JsonSubObjectParser, infra\l::JsonSubArrayParser \&gt; \&gt;::operator\&lt;">
<polygon fill="white" stroke="black" points="156,-164.5 156,-227.5 333,-227.5 333,-164.5 156,-164.5"/>
<text text-anchor="start" x="164" y="-215.5" font-family="Helvetica,sans-Serif" font-size="10.00">infra::BoundedVector</text>
<text text-anchor="start" x="164" y="-204.5" font-family="Helvetica,sans-Serif" font-size="10.00">&lt; infra::PolymorphicVariant</text>
<text text-anchor="start" x="164" y="-193.5" font-family="Helvetica,sans-Serif" font-size="10.00">&lt; infra::JsonSubParser, infra</text>
<text text-anchor="start" x="164" y="-182.5" font-family="Helvetica,sans-Serif" font-size="10.00">::JsonSubObjectParser, infra</text>
<text text-anchor="middle" x="244.5" y="-171.5" font-family="Helvetica,sans-Serif" font-size="10.00">::JsonSubArrayParser &gt; &gt;::operator&lt;</text>
</a>
</g>
</g>
<!-- Node109&#45;&gt;Node113 -->
<g id="edge4" class="edge"><title>Node109&#45;&gt;Node113</title>
<path fill="none" stroke="midnightblue" d="M117.273,-216.036C129.58,-214.082 142.7,-212 155.653,-209.944"/>
<polygon fill="midnightblue" stroke="midnightblue" points="116.475,-212.619 107.147,-217.643 117.572,-219.532 116.475,-212.619"/>
</g>
<!-- Node114 -->
<g id="node6" class="node"><title>Node114</title>
<g id="a_node6"><a xlink:href="../../dc/de7/classinfra_1_1_bounded_vector.html#a2dff5612f083b2f1fb5721bb552e55bb" target="_top" xlink:title="infra::BoundedVector\l\&lt; infra::PolymorphicVariant\l\&lt; infra::JsonSubParser, infra\l::JsonSubObjectParser, infra\l::JsonSubArrayParser \&gt; \&gt;::operator=">
<polygon fill="white" stroke="black" points="156,-82.5 156,-145.5 333,-145.5 333,-82.5 156,-82.5"/>
<text text-anchor="start" x="164" y="-133.5" font-family="Helvetica,sans-Serif" font-size="10.00">infra::BoundedVector</text>
<text text-anchor="start" x="164" y="-122.5" font-family="Helvetica,sans-Serif" font-size="10.00">&lt; infra::PolymorphicVariant</text>
<text text-anchor="start" x="164" y="-111.5" font-family="Helvetica,sans-Serif" font-size="10.00">&lt; infra::JsonSubParser, infra</text>
<text text-anchor="start" x="164" y="-100.5" font-family="Helvetica,sans-Serif" font-size="10.00">::JsonSubObjectParser, infra</text>
<text text-anchor="middle" x="244.5" y="-89.5" font-family="Helvetica,sans-Serif" font-size="10.00">::JsonSubArrayParser &gt; &gt;::operator=</text>
</a>
</g>
</g>
<!-- Node109&#45;&gt;Node114 -->
<g id="edge5" class="edge"><title>Node109&#45;&gt;Node114</title>
<path fill="none" stroke="midnightblue" d="M78.191,-203.836C95.2614,-188.684 119.363,-168.904 143,-155 148.604,-151.704 154.522,-148.551 160.569,-145.564"/>
<polygon fill="midnightblue" stroke="midnightblue" points="75.4894,-201.559 70.4087,-210.856 80.1782,-206.757 75.4894,-201.559"/>
</g>
<!-- Node115 -->
<g id="node7" class="node"><title>Node115</title>
<g id="a_node7"><a xlink:href="../../dc/de7/classinfra_1_1_bounded_vector.html#a937046e13c12fa5a018e1e3f3d518bd0" target="_top" xlink:title="infra::BoundedVector\l\&lt; infra::PolymorphicVariant\l\&lt; infra::JsonSubParser, infra\l::JsonSubObjectParser, infra\l::JsonSubArrayParser \&gt; \&gt;::operator==">
<polygon fill="white" stroke="black" points="153,-0.5 153,-63.5 336,-63.5 336,-0.5 153,-0.5"/>
<text text-anchor="start" x="161" y="-51.5" font-family="Helvetica,sans-Serif" font-size="10.00">infra::BoundedVector</text>
<text text-anchor="start" x="161" y="-40.5" font-family="Helvetica,sans-Serif" font-size="10.00">&lt; infra::PolymorphicVariant</text>
<text text-anchor="start" x="161" y="-29.5" font-family="Helvetica,sans-Serif" font-size="10.00">&lt; infra::JsonSubParser, infra</text>
<text text-anchor="start" x="161" y="-18.5" font-family="Helvetica,sans-Serif" font-size="10.00">::JsonSubObjectParser, infra</text>
<text text-anchor="middle" x="244.5" y="-7.5" font-family="Helvetica,sans-Serif" font-size="10.00">::JsonSubArrayParser &gt; &gt;::operator==</text>
</a>
</g>
</g>
<!-- Node109&#45;&gt;Node115 -->
<g id="edge6" class="edge"><title>Node109&#45;&gt;Node115</title>
<path fill="none" stroke="midnightblue" d="M62.9441,-201.318C75.5066,-167.977 102.119,-108.629 143,-73 146.836,-69.6571 150.98,-66.5633 155.326,-63.7032"/>
<polygon fill="midnightblue" stroke="midnightblue" points="59.6331,-200.182 59.4962,-210.776 66.2097,-202.579 59.6331,-200.182"/>
</g>
</g>
</svg>
