<?xml version="1.0" encoding="UTF-8" standalone="no"?>
<!DOCTYPE svg PUBLIC "-//W3C//DTD SVG 1.1//EN"
 "http://www.w3.org/Graphics/SVG/1.1/DTD/svg11.dtd">
<!-- Generated by graphviz version 2.38.0 (20140413.2041)
 -->
<!-- Title: infra::detail::BoundedDequeIterator&lt; DequeType, T &gt; Pages: 1 -->
<svg width="346pt" height="128pt"
 viewBox="0.00 0.00 345.50 128.00" xmlns="http://www.w3.org/2000/svg" xmlns:xlink="http://www.w3.org/1999/xlink">
<g id="graph0" class="graph" transform="scale(1 1) rotate(0) translate(4 124)">
<title>infra::detail::BoundedDequeIterator&lt; DequeType, T &gt;</title>
<polygon fill="white" stroke="none" points="-4,4 -4,-124 341.5,-124 341.5,4 -4,4"/>
<!-- Node2 -->
<g id="node1" class="node"><title>Node2</title>
<polygon fill="#bfbfbf" stroke="black" points="151.5,-0.5 151.5,-30.5 287.5,-30.5 287.5,-0.5 151.5,-0.5"/>
<text text-anchor="start" x="159.5" y="-18.5" font-family="Helvetica,sans-Serif" font-size="10.00">infra::detail::BoundedDeque</text>
<text text-anchor="middle" x="219.5" y="-7.5" font-family="Helvetica,sans-Serif" font-size="10.00">Iterator&lt; DequeType, T &gt;</text>
</g>
<!-- Node3 -->
<g id="node2" class="node"><title>Node3</title>
<polygon fill="white" stroke="#bfbfbf" points="0,-78.5 0,-119.5 127,-119.5 127,-78.5 0,-78.5"/>
<text text-anchor="start" x="8" y="-107.5" font-family="Helvetica,sans-Serif" font-size="10.00">std::iterator&lt; std</text>
<text text-anchor="start" x="8" y="-96.5" font-family="Helvetica,sans-Serif" font-size="10.00">::random_access_iterator</text>
<text text-anchor="middle" x="63.5" y="-85.5" font-family="Helvetica,sans-Serif" font-size="10.00">_tag, T &gt;</text>
</g>
<!-- Node3&#45;&gt;Node2 -->
<g id="edge1" class="edge"><title>Node3&#45;&gt;Node2</title>
<path fill="none" stroke="midnightblue" d="M109.772,-73.8257C136.797,-59.7068 169.948,-42.3876 192.695,-30.5038"/>
<polygon fill="midnightblue" stroke="midnightblue" points="108.109,-70.746 100.866,-78.4787 111.35,-76.9503 108.109,-70.746"/>
</g>
<!-- Node4 -->
<g id="node3" class="node"><title>Node4</title>
<polygon fill="white" stroke="#bfbfbf" points="145.5,-89.5 145.5,-108.5 217.5,-108.5 217.5,-89.5 145.5,-89.5"/>
<text text-anchor="middle" x="181.5" y="-96.5" font-family="Helvetica,sans-Serif" font-size="10.00">DequeType *</text>
</g>
<!-- Node4&#45;&gt;Node2 -->
<g id="edge2" class="edge"><title>Node4&#45;&gt;Node2</title>
<path fill="none" stroke="#9a32cd" stroke-dasharray="5,2" d="M189.849,-80.0944C196.789,-65.2085 206.531,-44.3143 212.927,-30.5974"/>
<polygon fill="#9a32cd" stroke="#9a32cd" points="186.62,-78.7358 185.567,-89.2781 192.965,-81.6939 186.62,-78.7358"/>
<text text-anchor="middle" x="219.5" y="-52" font-family="Helvetica,sans-Serif" font-size="10.00"> deque</text>
</g>
<!-- Node5 -->
<g id="node4" class="node"><title>Node5</title>
<polygon fill="white" stroke="#bfbfbf" points="236,-89.5 236,-108.5 279,-108.5 279,-89.5 236,-89.5"/>
<text text-anchor="middle" x="257.5" y="-96.5" font-family="Helvetica,sans-Serif" font-size="10.00">size_t</text>
</g>
<!-- Node5&#45;&gt;Node2 -->
<g id="edge3" class="edge"><title>Node5&#45;&gt;Node2</title>
<path fill="none" stroke="#9a32cd" stroke-dasharray="5,2" d="M249.566,-79.9199C245.447,-70.6407 240.288,-59.1769 235.5,-49 232.662,-42.9678 229.431,-36.359 226.619,-30.6852"/>
<polygon fill="#9a32cd" stroke="#9a32cd" points="246.458,-81.5476 253.698,-89.2832 252.863,-78.7214 246.458,-81.5476"/>
<text text-anchor="middle" x="254" y="-52" font-family="Helvetica,sans-Serif" font-size="10.00"> index</text>
</g>
<!-- Node6 -->
<g id="node5" class="node"><title>Node6</title>
<polygon fill="white" stroke="#bfbfbf" points="297.5,-89.5 297.5,-108.5 337.5,-108.5 337.5,-89.5 297.5,-89.5"/>
<text text-anchor="middle" x="317.5" y="-96.5" font-family="Helvetica,sans-Serif" font-size="10.00">friend</text>
</g>
<!-- Node6&#45;&gt;Node2 -->
<g id="edge4" class="edge"><title>Node6&#45;&gt;Node2</title>
<path fill="none" stroke="#9a32cd" stroke-dasharray="5,2" d="M304.114,-81.715C295.404,-71.6563 283.474,-58.8378 271.5,-49 263.357,-42.3092 253.735,-35.9329 244.996,-30.6285"/>
<polygon fill="#9a32cd" stroke="#9a32cd" points="301.474,-84.0128 310.603,-89.3891 306.819,-79.4931 301.474,-84.0128"/>
<text text-anchor="middle" x="308.5" y="-52" font-family="Helvetica,sans-Serif" font-size="10.00"> DequeType</text>
</g>
</g>
</svg>
