<?xml version="1.0" encoding="UTF-8" standalone="no"?>
<!DOCTYPE svg PUBLIC "-//W3C//DTD SVG 1.1//EN"
 "http://www.w3.org/Graphics/SVG/1.1/DTD/svg11.dtd">
<!-- Generated by graphviz version 2.38.0 (20140413.2041)
 -->
<!-- Title: application::ImageUpgraderInternalFlash Pages: 1 -->
<svg width="546pt" height="173pt"
 viewBox="0.00 0.00 546.00 173.00" xmlns="http://www.w3.org/2000/svg" xmlns:xlink="http://www.w3.org/1999/xlink">
<g id="graph0" class="graph" transform="scale(1 1) rotate(0) translate(4 169)">
<title>application::ImageUpgraderInternalFlash</title>
<polygon fill="white" stroke="none" points="-4,4 -4,-169 542,-169 542,4 -4,4"/>
<!-- Node2 -->
<g id="node1" class="node"><title>Node2</title>
<polygon fill="#bfbfbf" stroke="black" points="199.5,-0.5 199.5,-30.5 333.5,-30.5 333.5,-0.5 199.5,-0.5"/>
<text text-anchor="start" x="207.5" y="-18.5" font-family="Helvetica,sans-Serif" font-size="10.00">application::ImageUpgrader</text>
<text text-anchor="middle" x="266.5" y="-7.5" font-family="Helvetica,sans-Serif" font-size="10.00">InternalFlash</text>
</g>
<!-- Node3 -->
<g id="node2" class="node"><title>Node3</title>
<g id="a_node2"><a xlink:href="../../d7/d96/classapplication_1_1_image_upgrader.html" target="_top" xlink:title="application::ImageUpgrader">
<polygon fill="white" stroke="black" points="21.5,-78.5 21.5,-97.5 155.5,-97.5 155.5,-78.5 21.5,-78.5"/>
<text text-anchor="middle" x="88.5" y="-85.5" font-family="Helvetica,sans-Serif" font-size="10.00">application::ImageUpgrader</text>
</a>
</g>
</g>
<!-- Node3&#45;&gt;Node2 -->
<g id="edge1" class="edge"><title>Node3&#45;&gt;Node2</title>
<path fill="none" stroke="midnightblue" d="M119.447,-74.7428C150.579,-62.4125 198.522,-43.4238 231.138,-30.5059"/>
<polygon fill="midnightblue" stroke="midnightblue" points="117.979,-71.5596 109.971,-78.4961 120.557,-78.0677 117.979,-71.5596"/>
</g>
<!-- Node4 -->
<g id="node3" class="node"><title>Node4</title>
<polygon fill="white" stroke="#bfbfbf" points="0,-145.5 0,-164.5 69,-164.5 69,-145.5 0,-145.5"/>
<text text-anchor="middle" x="34.5" y="-152.5" font-family="Helvetica,sans-Serif" font-size="10.00">const char *</text>
</g>
<!-- Node4&#45;&gt;Node3 -->
<g id="edge2" class="edge"><title>Node4&#45;&gt;Node3</title>
<path fill="none" stroke="#9a32cd" stroke-dasharray="5,2" d="M48.3984,-137.27C58.9269,-124.597 72.9638,-107.701 81.3327,-97.6273"/>
<polygon fill="#9a32cd" stroke="#9a32cd" points="45.4807,-135.305 41.7827,-145.234 50.8651,-139.778 45.4807,-135.305"/>
<text text-anchor="middle" x="92.5" y="-119" font-family="Helvetica,sans-Serif" font-size="10.00"> targetName</text>
</g>
<!-- Node5 -->
<g id="node4" class="node"><title>Node5</title>
<g id="a_node4"><a xlink:href="../../d3/d66/classapplication_1_1_decryptor.html" target="_top" xlink:title="application::Decryptor">
<polygon fill="white" stroke="black" points="87,-145.5 87,-164.5 198,-164.5 198,-145.5 87,-145.5"/>
<text text-anchor="middle" x="142.5" y="-152.5" font-family="Helvetica,sans-Serif" font-size="10.00">application::Decryptor</text>
</a>
</g>
</g>
<!-- Node5&#45;&gt;Node3 -->
<g id="edge3" class="edge"><title>Node5&#45;&gt;Node3</title>
<path fill="none" stroke="#9a32cd" stroke-dasharray="5,2" d="M133.913,-136.302C130.249,-129.604 125.631,-122.125 120.5,-116 114.712,-109.091 107.023,-102.54 100.633,-97.6219"/>
<polygon fill="#9a32cd" stroke="#9a32cd" points="130.859,-138.018 138.548,-145.308 137.083,-134.815 130.859,-138.018"/>
<text text-anchor="middle" x="150.5" y="-119" font-family="Helvetica,sans-Serif" font-size="10.00"> decryptor</text>
</g>
<!-- Node6 -->
<g id="node5" class="node"><title>Node6</title>
<polygon fill="white" stroke="#bfbfbf" points="174,-78.5 174,-97.5 225,-97.5 225,-78.5 174,-78.5"/>
<text text-anchor="middle" x="199.5" y="-85.5" font-family="Helvetica,sans-Serif" font-size="10.00">uint32_t</text>
</g>
<!-- Node6&#45;&gt;Node2 -->
<g id="edge4" class="edge"><title>Node6&#45;&gt;Node2</title>
<path fill="none" stroke="#9a32cd" stroke-dasharray="5,2" d="M196.203,-68.2924C195.986,-61.7421 196.897,-54.6247 200.5,-49 205.53,-41.1492 213.057,-35.1331 221.25,-30.5437"/>
<polygon fill="#9a32cd" stroke="#9a32cd" points="192.747,-68.877 197.355,-78.4174 199.702,-68.0859 192.747,-68.877"/>
<text text-anchor="middle" x="256.5" y="-52" font-family="Helvetica,sans-Serif" font-size="10.00"> destinationAddressOffset</text>
</g>
<!-- Node7 -->
<g id="node6" class="node"><title>Node7</title>
<g id="a_node6"><a xlink:href="../../d5/dff/classhal_1_1_synchronous_flash.html" target="_top" xlink:title="hal::SynchronousFlash">
<polygon fill="white" stroke="black" points="276.5,-78.5 276.5,-97.5 392.5,-97.5 392.5,-78.5 276.5,-78.5"/>
<text text-anchor="middle" x="334.5" y="-85.5" font-family="Helvetica,sans-Serif" font-size="10.00">hal::SynchronousFlash</text>
</a>
</g>
</g>
<!-- Node7&#45;&gt;Node2 -->
<g id="edge5" class="edge"><title>Node7&#45;&gt;Node2</title>
<path fill="none" stroke="#9a32cd" stroke-dasharray="5,2" d="M326.322,-69.3244C322.673,-62.5284 317.958,-54.9746 312.5,-49 306.169,-42.0695 298.117,-35.7666 290.526,-30.5951"/>
<polygon fill="#9a32cd" stroke="#9a32cd" points="323.281,-71.0713 330.868,-78.4668 329.549,-67.9544 323.281,-71.0713"/>
<text text-anchor="middle" x="351" y="-52" font-family="Helvetica,sans-Serif" font-size="10.00"> internalFlash</text>
</g>
<!-- Node8 -->
<g id="node7" class="node"><title>Node8</title>
<polygon fill="white" stroke="#bfbfbf" points="411,-78.5 411,-97.5 538,-97.5 538,-78.5 411,-78.5"/>
<text text-anchor="middle" x="474.5" y="-85.5" font-family="Helvetica,sans-Serif" font-size="10.00">MemoryRange&lt; uint8_t &gt;</text>
</g>
<!-- Node8&#45;&gt;Node2 -->
<g id="edge6" class="edge"><title>Node8&#45;&gt;Node2</title>
<path fill="none" stroke="#9a32cd" stroke-dasharray="5,2" d="M447.018,-74.2916C429.38,-66.4125 405.86,-56.4153 384.5,-49 364.828,-42.1707 342.925,-35.8073 323.382,-30.554"/>
<polygon fill="#9a32cd" stroke="#9a32cd" points="445.606,-77.4944 456.16,-78.4211 448.488,-71.1149 445.606,-77.4944"/>
<text text-anchor="middle" x="426" y="-52" font-family="Helvetica,sans-Serif" font-size="10.00"> buffer</text>
</g>
</g>
</svg>
