<?xml version="1.0" encoding="UTF-8" standalone="no"?>
<!DOCTYPE svg PUBLIC "-//W3C//DTD SVG 1.1//EN"
 "http://www.w3.org/Graphics/SVG/1.1/DTD/svg11.dtd">
<!-- Generated by graphviz version 2.38.0 (20140413.2041)
 -->
<!-- Title: infra::ProtoFormatter::PutFixed32Field Pages: 1 -->
<svg width="256pt" height="88pt"
 viewBox="0.00 0.00 256.00 88.00" xmlns="http://www.w3.org/2000/svg" xmlns:xlink="http://www.w3.org/1999/xlink">
<g id="graph0" class="graph" transform="scale(1 1) rotate(0) translate(4 84)">
<title>infra::ProtoFormatter::PutFixed32Field</title>
<polygon fill="white" stroke="none" points="-4,4 -4,-84 252,-84 252,4 -4,4"/>
<!-- Node17 -->
<g id="node1" class="node"><title>Node17</title>
<polygon fill="#bfbfbf" stroke="black" points="0,-24.5 0,-54.5 106,-54.5 106,-24.5 0,-24.5"/>
<text text-anchor="start" x="8" y="-42.5" font-family="Helvetica,sans-Serif" font-size="10.00">infra::ProtoFormatter</text>
<text text-anchor="middle" x="53" y="-31.5" font-family="Helvetica,sans-Serif" font-size="10.00">::PutFixed32Field</text>
</g>
<!-- Node18 -->
<g id="node2" class="node"><title>Node18</title>
<g id="a_node2"><a xlink:href="../../df/d59/classinfra_1_1_proto_formatter.html#ab5ae83cd61695bd8bda8c8cccfb509da" target="_top" xlink:title="infra::ProtoFormatter\l::PutFixed32">
<polygon fill="white" stroke="black" points="142,-49.5 142,-79.5 248,-79.5 248,-49.5 142,-49.5"/>
<text text-anchor="start" x="150" y="-67.5" font-family="Helvetica,sans-Serif" font-size="10.00">infra::ProtoFormatter</text>
<text text-anchor="middle" x="195" y="-56.5" font-family="Helvetica,sans-Serif" font-size="10.00">::PutFixed32</text>
</a>
</g>
</g>
<!-- Node17&#45;&gt;Node18 -->
<g id="edge1" class="edge"><title>Node17&#45;&gt;Node18</title>
<path fill="none" stroke="midnightblue" d="M106.131,-48.8091C114.512,-50.3058 123.26,-51.8679 131.849,-53.4015"/>
<polygon fill="midnightblue" stroke="midnightblue" points="131.366,-56.8707 141.826,-55.1831 132.597,-49.9797 131.366,-56.8707"/>
</g>
<!-- Node19 -->
<g id="node3" class="node"><title>Node19</title>
<g id="a_node3"><a xlink:href="../../df/d59/classinfra_1_1_proto_formatter.html#a86f1b90ba28fd2291d30312a5b8d1f82" target="_top" xlink:title="infra::ProtoFormatter\l::PutVarInt">
<polygon fill="white" stroke="black" points="142,-0.5 142,-30.5 248,-30.5 248,-0.5 142,-0.5"/>
<text text-anchor="start" x="150" y="-18.5" font-family="Helvetica,sans-Serif" font-size="10.00">infra::ProtoFormatter</text>
<text text-anchor="middle" x="195" y="-7.5" font-family="Helvetica,sans-Serif" font-size="10.00">::PutVarInt</text>
</a>
</g>
</g>
<!-- Node17&#45;&gt;Node19 -->
<g id="edge2" class="edge"><title>Node17&#45;&gt;Node19</title>
<path fill="none" stroke="midnightblue" d="M106.131,-30.5633C114.512,-29.1264 123.26,-27.6268 131.849,-26.1545"/>
<polygon fill="midnightblue" stroke="midnightblue" points="132.561,-29.5836 141.826,-24.4442 131.378,-22.6842 132.561,-29.5836"/>
</g>
</g>
</svg>
