<?xml version="1.0" encoding="UTF-8" standalone="no"?>
<!DOCTYPE svg PUBLIC "-//W3C//DTD SVG 1.1//EN"
 "http://www.w3.org/Graphics/SVG/1.1/DTD/svg11.dtd">
<!-- Generated by graphviz version 2.38.0 (20140413.2041)
 -->
<!-- Title: infra::ProtoFormatter::PutBytesField Pages: 1 -->
<svg width="398pt" height="88pt"
 viewBox="0.00 0.00 398.00 88.00" xmlns="http://www.w3.org/2000/svg" xmlns:xlink="http://www.w3.org/1999/xlink">
<g id="graph0" class="graph" transform="scale(1 1) rotate(0) translate(4 84)">
<title>infra::ProtoFormatter::PutBytesField</title>
<polygon fill="white" stroke="none" points="-4,4 -4,-84 394,-84 394,4 -4,4"/>
<!-- Node9 -->
<g id="node1" class="node"><title>Node9</title>
<polygon fill="#bfbfbf" stroke="black" points="0,-27.5 0,-57.5 106,-57.5 106,-27.5 0,-27.5"/>
<text text-anchor="start" x="8" y="-45.5" font-family="Helvetica,sans-Serif" font-size="10.00">infra::ProtoFormatter</text>
<text text-anchor="middle" x="53" y="-34.5" font-family="Helvetica,sans-Serif" font-size="10.00">::PutBytesField</text>
</g>
<!-- Node10 -->
<g id="node2" class="node"><title>Node10</title>
<g id="a_node2"><a xlink:href="../../df/d59/classinfra_1_1_proto_formatter.html#aeec08e808f4af95fa7d6039939b6a40c" target="_top" xlink:title="infra::ProtoFormatter\l::PutBytes">
<polygon fill="white" stroke="black" points="142,-5.5 142,-35.5 248,-35.5 248,-5.5 142,-5.5"/>
<text text-anchor="start" x="150" y="-23.5" font-family="Helvetica,sans-Serif" font-size="10.00">infra::ProtoFormatter</text>
<text text-anchor="middle" x="195" y="-12.5" font-family="Helvetica,sans-Serif" font-size="10.00">::PutBytes</text>
</a>
</g>
</g>
<!-- Node9&#45;&gt;Node10 -->
<g id="edge1" class="edge"><title>Node9&#45;&gt;Node10</title>
<path fill="none" stroke="midnightblue" d="M106.131,-34.308C114.512,-32.9909 123.26,-31.6162 131.849,-30.2667"/>
<polygon fill="midnightblue" stroke="midnightblue" points="132.49,-33.7089 141.826,-28.6988 131.403,-26.7937 132.49,-33.7089"/>
</g>
<!-- Node11 -->
<g id="node3" class="node"><title>Node11</title>
<g id="a_node3"><a xlink:href="../../df/d59/classinfra_1_1_proto_formatter.html#a86f1b90ba28fd2291d30312a5b8d1f82" target="_top" xlink:title="infra::ProtoFormatter\l::PutVarInt">
<polygon fill="white" stroke="black" points="284,-49.5 284,-79.5 390,-79.5 390,-49.5 284,-49.5"/>
<text text-anchor="start" x="292" y="-67.5" font-family="Helvetica,sans-Serif" font-size="10.00">infra::ProtoFormatter</text>
<text text-anchor="middle" x="337" y="-56.5" font-family="Helvetica,sans-Serif" font-size="10.00">::PutVarInt</text>
</a>
</g>
</g>
<!-- Node9&#45;&gt;Node11 -->
<g id="edge4" class="edge"><title>Node9&#45;&gt;Node11</title>
<path fill="none" stroke="midnightblue" d="M106.052,-46.5608C153.398,-50.2545 223.36,-55.7125 273.67,-59.6374"/>
<polygon fill="midnightblue" stroke="midnightblue" points="273.533,-63.1372 283.775,-60.4257 274.077,-56.1584 273.533,-63.1372"/>
</g>
<!-- Node10&#45;&gt;Node11 -->
<g id="edge2" class="edge"><title>Node10&#45;&gt;Node11</title>
<path fill="none" stroke="midnightblue" d="M243.788,-35.5192C254.816,-38.9852 266.665,-42.7089 278.072,-46.2941"/>
<polygon fill="midnightblue" stroke="midnightblue" points="277.362,-49.7397 287.952,-49.3991 279.461,-43.0617 277.362,-49.7397"/>
</g>
<!-- Node12 -->
<g id="node4" class="node"><title>Node12</title>
<g id="a_node4"><a xlink:href="../../d0/d6d/classinfra_1_1_memory_range.html#ae8fbbf531d3696b6a64ac13385acdc66" target="_top" xlink:title="infra::MemoryRange\l::size">
<polygon fill="white" stroke="black" points="285,-0.5 285,-30.5 389,-30.5 389,-0.5 285,-0.5"/>
<text text-anchor="start" x="293" y="-18.5" font-family="Helvetica,sans-Serif" font-size="10.00">infra::MemoryRange</text>
<text text-anchor="middle" x="337" y="-7.5" font-family="Helvetica,sans-Serif" font-size="10.00">::size</text>
</a>
</g>
</g>
<!-- Node10&#45;&gt;Node12 -->
<g id="edge3" class="edge"><title>Node10&#45;&gt;Node12</title>
<path fill="none" stroke="midnightblue" d="M248.131,-18.6382C256.736,-18.3309 265.727,-18.0097 274.535,-17.6952"/>
<polygon fill="midnightblue" stroke="midnightblue" points="274.888,-21.1849 284.757,-17.3301 274.639,-14.1893 274.888,-21.1849"/>
</g>
</g>
</svg>
