<?xml version="1.0" encoding="UTF-8" standalone="no"?>
<!DOCTYPE svg PUBLIC "-//W3C//DTD SVG 1.1//EN"
 "http://www.w3.org/Graphics/SVG/1.1/DTD/svg11.dtd">
<!-- Generated by graphviz version 2.38.0 (20140413.2041)
 -->
<!-- Title: application::DecryptorAesMbedTls Pages: 1 -->
<!--zoomable 117 -->
<svg id="main" version="1.1" xmlns="http://www.w3.org/2000/svg" xmlns:xlink="http://www.w3.org/1999/xlink" xml:space="preserve" onload="init(evt)">
<style type="text/css"><![CDATA[
.edge:hover path { stroke: red; }
.edge:hover polygon { stroke: red; fill: red; }
]]></style>
<script type="text/javascript"><![CDATA[
var edges = document.getElementsByTagName('g');
if (edges && edges.length) {
  for (var i=0;i<edges.length;i++) {
    if (edges[i].id.substr(0,4)=='edge') {
      edges[i].setAttribute('class','edge');
    }
  }
}
]]></script>
        <defs>
                <circle id="rim" cx="0" cy="0" r="7"/>
                <circle id="rim2" cx="0" cy="0" r="3.5"/>
                <g id="zoomPlus">
                        <use xlink:href="#rim" fill="#404040">
                                <set attributeName="fill" to="#808080" begin="zoomplus.mouseover" end="zoomplus.mouseout"/>
                        </use>
                        <path d="M-4,0h8M0,-4v8" fill="none" stroke="white" stroke-width="1.5" pointer-events="none"/>
                </g>
                <g id="zoomMin">
                        <use xlink:href="#rim" fill="#404040">
                                <set attributeName="fill" to="#808080" begin="zoomminus.mouseover" end="zoomminus.mouseout"/>
                        </use>
                        <path d="M-4,0h8" fill="none" stroke="white" stroke-width="1.5" pointer-events="none"/>
                </g>
                <g id="dirArrow">
                        <path fill="none" stroke="white" stroke-width="1.5" d="M0,-3.0v7 M-2.5,-0.5L0,-3.0L2.5,-0.5"/>
                </g>
               <g id="resetDef">
                       <use xlink:href="#rim2" fill="#404040">
                               <set attributeName="fill" to="#808080" begin="reset.mouseover" end="reset.mouseout"/>
                       </use>
               </g>
        </defs>

<script type="text/javascript">
var viewWidth = 595;
var viewHeight = 117;
var sectionId = 'dynsection-1';
</script>
<script xlink:href="../../svgpan.js"/>
<svg id="graph" class="graph">
<g id="viewport">
<title>application::DecryptorAesMbedTls</title>
<polygon fill="white" stroke="none" points="-4,4 -4,-113 590.5,-113 590.5,4 -4,4"/>
<!-- Node2 -->
<g id="node1" class="node"><title>Node2</title>
<polygon fill="#bfbfbf" stroke="black" points="250.5,-0.5 250.5,-30.5 378.5,-30.5 378.5,-0.5 250.5,-0.5"/>
<text text-anchor="start" x="258.5" y="-18.5" font-family="Helvetica,sans-Serif" font-size="10.00">application::DecryptorAes</text>
<text text-anchor="middle" x="314.5" y="-7.5" font-family="Helvetica,sans-Serif" font-size="10.00">MbedTls</text>
</g>
<!-- Node3 -->
<g id="node2" class="node"><title>Node3</title>
<g id="a_node2"><a xlink:href="../../d3/d66/classapplication_1_1_decryptor.html" target="_top" xlink:title="application::Decryptor">
<polygon fill="white" stroke="black" points="0,-89.5 0,-108.5 111,-108.5 111,-89.5 0,-89.5"/>
<text text-anchor="middle" x="55.5" y="-96.5" font-family="Helvetica,sans-Serif" font-size="10.00">application::Decryptor</text>
</a>
</g>
</g>
<!-- Node3&#45;&gt;Node2 -->
<g id="edge1" class="edge"><title>Node3&#45;&gt;Node2</title>
<path fill="none" stroke="midnightblue" d="M89.7416,-86.0362C119.242,-75.8423 163.023,-60.9836 201.5,-49 221.867,-42.6567 244.435,-36.0766 264.014,-30.5101"/>
<polygon fill="midnightblue" stroke="midnightblue" points="88.2371,-82.8534 79.9346,-89.435 90.5294,-89.4674 88.2371,-82.8534"/>
</g>
<!-- Node4 -->
<g id="node3" class="node"><title>Node4</title>
<polygon fill="white" stroke="#bfbfbf" points="129.5,-89.5 129.5,-108.5 273.5,-108.5 273.5,-89.5 129.5,-89.5"/>
<text text-anchor="middle" x="201.5" y="-96.5" font-family="Helvetica,sans-Serif" font-size="10.00">array&lt; uint8_t, blockLength &gt;</text>
</g>
<!-- Node4&#45;&gt;Node2 -->
<g id="edge2" class="edge"><title>Node4&#45;&gt;Node2</title>
<path fill="none" stroke="#9a32cd" stroke-dasharray="5,2" d="M203.102,-79.2037C204.891,-69.0727 208.646,-57.0376 216.5,-49 225.77,-39.5126 237.87,-32.7945 250.388,-28.0374"/>
<polygon fill="#9a32cd" stroke="#9a32cd" points="199.624,-78.808 201.831,-89.1704 206.568,-79.6934 199.624,-78.808"/>
<text text-anchor="middle" x="261.5" y="-63" font-family="Helvetica,sans-Serif" font-size="10.00"> currentStreamBlock</text>
<text text-anchor="middle" x="261.5" y="-52" font-family="Helvetica,sans-Serif" font-size="10.00">counter</text>
</g>
<!-- Node5 -->
<g id="node4" class="node"><title>Node5</title>
<polygon fill="white" stroke="#bfbfbf" points="333,-89.5 333,-108.5 376,-108.5 376,-89.5 333,-89.5"/>
<text text-anchor="middle" x="354.5" y="-96.5" font-family="Helvetica,sans-Serif" font-size="10.00">size_t</text>
</g>
<!-- Node5&#45;&gt;Node2 -->
<g id="edge3" class="edge"><title>Node5&#45;&gt;Node2</title>
<path fill="none" stroke="#9a32cd" stroke-dasharray="5,2" d="M326.719,-83.8061C322.224,-80.248 318.173,-75.9906 315.5,-71 308.886,-58.6541 309.585,-42.3677 311.352,-30.8233"/>
<polygon fill="#9a32cd" stroke="#9a32cd" points="324.843,-86.7627 335.088,-89.4627 328.763,-80.9631 324.843,-86.7627"/>
<text text-anchor="middle" x="343.5" y="-57.5" font-family="Helvetica,sans-Serif" font-size="10.00"> blockLength</text>
</g>
<!-- Node5&#45;&gt;Node2 -->
<g id="edge5" class="edge"><title>Node5&#45;&gt;Node2</title>
<path fill="none" stroke="#9a32cd" stroke-dasharray="5,2" d="M367.434,-80.8169C373.085,-71.0843 377.259,-58.9123 371.5,-49 367.037,-41.3171 360.002,-35.2989 352.376,-30.6441"/>
<polygon fill="#9a32cd" stroke="#9a32cd" points="364.453,-78.9799 361.839,-89.2474 370.285,-82.8506 364.453,-78.9799"/>
<text text-anchor="middle" x="432" y="-57.5" font-family="Helvetica,sans-Serif" font-size="10.00"> currentStreamBlockOffset</text>
</g>
<!-- Node6 -->
<g id="node5" class="node"><title>Node6</title>
<polygon fill="white" stroke="#bfbfbf" points="476.5,-89.5 476.5,-108.5 586.5,-108.5 586.5,-89.5 476.5,-89.5"/>
<text text-anchor="middle" x="531.5" y="-96.5" font-family="Helvetica,sans-Serif" font-size="10.00">mbedtls_aes_context</text>
</g>
<!-- Node6&#45;&gt;Node2 -->
<g id="edge4" class="edge"><title>Node6&#45;&gt;Node2</title>
<path fill="none" stroke="#9a32cd" stroke-dasharray="5,2" d="M522.122,-80.1315C515.551,-69.4055 505.761,-56.4396 493.5,-49 459.072,-28.1099 414.536,-19.9666 378.501,-17.055"/>
<polygon fill="#9a32cd" stroke="#9a32cd" points="519.25,-82.1609 527.23,-89.1294 525.337,-78.705 519.25,-82.1609"/>
<text text-anchor="middle" x="524" y="-57.5" font-family="Helvetica,sans-Serif" font-size="10.00"> ctx</text>
</g>
</g>
</svg>
        <g id="navigator" transform="translate(0 0)" fill="#404254">
                <rect fill="#f2f5e9" fill-opacity="0.5" stroke="#606060" stroke-width=".5" x="0" y="0" width="60" height="60"/>
                <use id="zoomplus" xlink:href="#zoomPlus" x="17" y="9" onmousedown="handleZoom(evt,'in')"/>
                <use id="zoomminus" xlink:href="#zoomMin" x="42" y="9" onmousedown="handleZoom(evt,'out')"/>
                <use id="reset" xlink:href="#resetDef" x="30" y="36" onmousedown="handleReset()"/>
                <g id="arrowUp" xlink:href="#dirArrow" transform="translate(30 24)" onmousedown="handlePan(0,-1)">
                  <use xlink:href="#rim" fill="#404040">
                        <set attributeName="fill" to="#808080" begin="arrowUp.mouseover" end="arrowUp.mouseout"/>
                  </use>
                  <path fill="none" stroke="white" stroke-width="1.5" d="M0,-3.0v7 M-2.5,-0.5L0,-3.0L2.5,-0.5"/>
                </g>
                <g id="arrowRight" xlink:href="#dirArrow" transform="rotate(90) translate(36 -43)" onmousedown="handlePan(1,0)">
                  <use xlink:href="#rim" fill="#404040">
                        <set attributeName="fill" to="#808080" begin="arrowRight.mouseover" end="arrowRight.mouseout"/>
                  </use>
                  <path fill="none" stroke="white" stroke-width="1.5" d="M0,-3.0v7 M-2.5,-0.5L0,-3.0L2.5,-0.5"/>
                </g>
                <g id="arrowDown" xlink:href="#dirArrow" transform="rotate(180) translate(-30 -48)" onmousedown="handlePan(0,1)">
                  <use xlink:href="#rim" fill="#404040">
                        <set attributeName="fill" to="#808080" begin="arrowDown.mouseover" end="arrowDown.mouseout"/>
                  </use>
                  <path fill="none" stroke="white" stroke-width="1.5" d="M0,-3.0v7 M-2.5,-0.5L0,-3.0L2.5,-0.5"/>
                </g>
                <g id="arrowLeft" xlink:href="#dirArrow" transform="rotate(270) translate(-36 17)" onmousedown="handlePan(-1,0)">
                  <use xlink:href="#rim" fill="#404040">
                        <set attributeName="fill" to="#808080" begin="arrowLeft.mouseover" end="arrowLeft.mouseout"/>
                  </use>
                  <path fill="none" stroke="white" stroke-width="1.5" d="M0,-3.0v7 M-2.5,-0.5L0,-3.0L2.5,-0.5"/>
                </g>
        </g>
        <svg viewBox="0 0 15 15" width="100%" height="30px" preserveAspectRatio="xMaxYMin meet">
         <g id="arrow_out" transform="scale(0.3 0.3)">
          <a xlink:href="classapplication_1_1_decryptor_aes_mbed_tls__coll__graph_org.svg" target="_base">
           <rect id="button" ry="5" rx="5" y="6" x="6" height="38" width="38"
                fill="#f2f5e9" fill-opacity="0.5" stroke="#606060" stroke-width="1.0"/>
           <path id="arrow"
             d="M 11.500037,31.436501 C 11.940474,20.09759 22.043105,11.32322 32.158766,21.979434 L 37.068811,17.246167 C 37.068811,17.246167 37.088388,32 37.088388,32 L 22.160133,31.978069 C 22.160133,31.978069 26.997745,27.140456 26.997745,27.140456 C 18.528582,18.264221 13.291696,25.230495 11.500037,31.436501 z"
             style="fill:#404040;"/>
          </a>
         </g>
        </svg>
</svg>
