<?xml version="1.0" encoding="UTF-8" standalone="no"?>
<!DOCTYPE svg PUBLIC "-//W3C//DTD SVG 1.1//EN"
 "http://www.w3.org/Graphics/SVG/1.1/DTD/svg11.dtd">
<!-- Generated by graphviz version 2.38.0 (20140413.2041)
 -->
<!-- Title: infra::TimerLimitedRepeatingWithClosingAction::Start Pages: 1 -->
<!--zoomable 285 -->
<svg id="main" version="1.1" xmlns="http://www.w3.org/2000/svg" xmlns:xlink="http://www.w3.org/1999/xlink" xml:space="preserve" onload="init(evt)">
<style type="text/css"><![CDATA[
.edge:hover path { stroke: red; }
.edge:hover polygon { stroke: red; fill: red; }
]]></style>
<script type="text/javascript"><![CDATA[
var edges = document.getElementsByTagName('g');
if (edges && edges.length) {
  for (var i=0;i<edges.length;i++) {
    if (edges[i].id.substr(0,4)=='edge') {
      edges[i].setAttribute('class','edge');
    }
  }
}
]]></script>
        <defs>
                <circle id="rim" cx="0" cy="0" r="7"/>
                <circle id="rim2" cx="0" cy="0" r="3.5"/>
                <g id="zoomPlus">
                        <use xlink:href="#rim" fill="#404040">
                                <set attributeName="fill" to="#808080" begin="zoomplus.mouseover" end="zoomplus.mouseout"/>
                        </use>
                        <path d="M-4,0h8M0,-4v8" fill="none" stroke="white" stroke-width="1.5" pointer-events="none"/>
                </g>
                <g id="zoomMin">
                        <use xlink:href="#rim" fill="#404040">
                                <set attributeName="fill" to="#808080" begin="zoomminus.mouseover" end="zoomminus.mouseout"/>
                        </use>
                        <path d="M-4,0h8" fill="none" stroke="white" stroke-width="1.5" pointer-events="none"/>
                </g>
                <g id="dirArrow">
                        <path fill="none" stroke="white" stroke-width="1.5" d="M0,-3.0v7 M-2.5,-0.5L0,-3.0L2.5,-0.5"/>
                </g>
               <g id="resetDef">
                       <use xlink:href="#rim2" fill="#404040">
                               <set attributeName="fill" to="#808080" begin="reset.mouseover" end="reset.mouseout"/>
                       </use>
               </g>
        </defs>

<script type="text/javascript">
var viewWidth = 1218;
var viewHeight = 285;
var sectionId = 'dynsection-5';
</script>
<script xlink:href="../../svgpan.js"/>
<svg id="graph" class="graph">
<g id="viewport">
<title>infra::TimerLimitedRepeatingWithClosingAction::Start</title>
<polygon fill="white" stroke="none" points="-4,4 -4,-280.751 1214,-280.751 1214,4 -4,4"/>
<!-- Node42 -->
<g id="node1" class="node"><title>Node42</title>
<polygon fill="#bfbfbf" stroke="black" points="0,-41.5 0,-71.5 140,-71.5 140,-41.5 0,-41.5"/>
<text text-anchor="start" x="8" y="-59.5" font-family="Helvetica,sans-Serif" font-size="10.00">infra::TimerLimitedRepeating</text>
<text text-anchor="middle" x="70" y="-48.5" font-family="Helvetica,sans-Serif" font-size="10.00">WithClosingAction::Start</text>
</g>
<!-- Node43 -->
<g id="node2" class="node"><title>Node43</title>
<g id="a_node2"><a xlink:href="../../df/d93/classinfra_1_1_timer_limited_repeating_with_closing_action.html#a0d8d9ed0cdc1f0802a79c9acf9ec1f84" target="_top" xlink:title="infra::TimerLimitedRepeating\lWithClosingAction::ComputeNextTriggerTime">
<polygon fill="white" stroke="black" points="176,-85.5 176,-115.5 388,-115.5 388,-85.5 176,-85.5"/>
<text text-anchor="start" x="184" y="-103.5" font-family="Helvetica,sans-Serif" font-size="10.00">infra::TimerLimitedRepeating</text>
<text text-anchor="middle" x="282" y="-92.5" font-family="Helvetica,sans-Serif" font-size="10.00">WithClosingAction::ComputeNextTriggerTime</text>
</a>
</g>
</g>
<!-- Node42&#45;&gt;Node43 -->
<g id="edge1" class="edge"><title>Node42&#45;&gt;Node43</title>
<path fill="none" stroke="midnightblue" d="M140.053,-70.9682C159.074,-74.9537 179.886,-79.3142 199.538,-83.4317"/>
<polygon fill="midnightblue" stroke="midnightblue" points="198.88,-86.8698 209.385,-85.4949 200.315,-80.0185 198.88,-86.8698"/>
</g>
<!-- Node50 -->
<g id="node9" class="node"><title>Node50</title>
<g id="a_node9"><a xlink:href="../../d5/da5/classinfra_1_1_timer.html#a0a6147203d9afc7b16456c161b7aaf62" target="_top" xlink:title="infra::Timer::Now">
<polygon fill="white" stroke="black" points="457.5,-50 457.5,-69 546.5,-69 546.5,-50 457.5,-50"/>
<text text-anchor="middle" x="502" y="-57" font-family="Helvetica,sans-Serif" font-size="10.00">infra::Timer::Now</text>
</a>
</g>
</g>
<!-- Node42&#45;&gt;Node50 -->
<g id="edge20" class="edge"><title>Node42&#45;&gt;Node50</title>
<path fill="none" stroke="midnightblue" d="M140.087,-56.982C225.629,-57.5788 369.519,-58.5827 447.266,-59.1251"/>
<polygon fill="midnightblue" stroke="midnightblue" points="447.302,-62.6254 457.327,-59.1953 447.351,-55.6255 447.302,-62.6254"/>
</g>
<!-- Node58 -->
<g id="node17" class="node"><title>Node58</title>
<g id="a_node17"><a xlink:href="../../d5/da5/classinfra_1_1_timer.html#a729101dbfbc04caf3f1217f9feeeff41" target="_top" xlink:title="infra::Timer::Resolution">
<polygon fill="white" stroke="black" points="224,-8 224,-27 340,-27 340,-8 224,-8"/>
<text text-anchor="middle" x="282" y="-15" font-family="Helvetica,sans-Serif" font-size="10.00">infra::Timer::Resolution</text>
</a>
</g>
</g>
<!-- Node42&#45;&gt;Node58 -->
<g id="edge21" class="edge"><title>Node42&#45;&gt;Node58</title>
<path fill="none" stroke="midnightblue" d="M140.053,-43.6759C165.689,-38.9148 194.578,-33.5499 219.496,-28.9222"/>
<polygon fill="midnightblue" stroke="midnightblue" points="220.358,-32.3221 229.551,-27.0549 219.08,-25.4397 220.358,-32.3221"/>
</g>
<!-- Node44 -->
<g id="node3" class="node"><title>Node44</title>
<g id="a_node3"><a xlink:href="../../d5/da5/classinfra_1_1_timer.html#abf5658fb078dc1dad0705a7791f7b84c" target="_top" xlink:title="infra::Timer::Cancel">
<polygon fill="white" stroke="black" points="451.5,-91 451.5,-110 552.5,-110 552.5,-91 451.5,-91"/>
<text text-anchor="middle" x="502" y="-98" font-family="Helvetica,sans-Serif" font-size="10.00">infra::Timer::Cancel</text>
</a>
</g>
</g>
<!-- Node43&#45;&gt;Node44 -->
<g id="edge2" class="edge"><title>Node43&#45;&gt;Node44</title>
<path fill="none" stroke="midnightblue" d="M388.169,-100.5C406.472,-100.5 424.92,-100.5 441.445,-100.5"/>
<polygon fill="midnightblue" stroke="midnightblue" points="441.466,-104 451.466,-100.5 441.466,-97.0001 441.466,-104"/>
</g>
<!-- Node43&#45;&gt;Node50 -->
<g id="edge8" class="edge"><title>Node43&#45;&gt;Node50</title>
<path fill="none" stroke="midnightblue" d="M362.937,-85.4659C391.151,-80.1596 422.168,-74.3262 447.643,-69.535"/>
<polygon fill="midnightblue" stroke="midnightblue" points="448.295,-72.9739 457.476,-67.6857 447.001,-66.0945 448.295,-72.9739"/>
</g>
<!-- Node52 -->
<g id="node11" class="node"><title>Node52</title>
<g id="a_node11"><a xlink:href="../../d5/da5/classinfra_1_1_timer.html#aa5f1d8f856a15a67ddc7c88e40fe4796" target="_top" xlink:title="infra::Timer::SetNextTriggerTime">
<polygon fill="white" stroke="black" points="424,-175 424,-194 580,-194 580,-175 424,-175"/>
<text text-anchor="middle" x="502" y="-182" font-family="Helvetica,sans-Serif" font-size="10.00">infra::Timer::SetNextTriggerTime</text>
</a>
</g>
</g>
<!-- Node43&#45;&gt;Node52 -->
<g id="edge10" class="edge"><title>Node43&#45;&gt;Node52</title>
<path fill="none" stroke="midnightblue" d="M321.974,-115.518C363.183,-131.396 427.55,-156.198 466.837,-171.336"/>
<polygon fill="midnightblue" stroke="midnightblue" points="465.666,-174.636 476.256,-174.966 468.183,-168.104 465.666,-174.636"/>
</g>
<!-- Node45 -->
<g id="node4" class="node"><title>Node45</title>
<g id="a_node4"><a xlink:href="../../d5/da5/classinfra_1_1_timer.html#a11b396e8d4300da06b8ce83624991b73" target="_top" xlink:title="infra::Timer::Convert">
<polygon fill="white" stroke="black" points="1103.5,-156 1103.5,-175 1206.5,-175 1206.5,-156 1103.5,-156"/>
<text text-anchor="middle" x="1155" y="-163" font-family="Helvetica,sans-Serif" font-size="10.00">infra::Timer::Convert</text>
</a>
</g>
</g>
<!-- Node44&#45;&gt;Node45 -->
<g id="edge3" class="edge"><title>Node44&#45;&gt;Node45</title>
<path fill="none" stroke="midnightblue" d="M552.546,-95.3746C629.174,-88.4889 780.871,-79.0085 908,-96.5 985.126,-107.112 1072.13,-135.606 1119.21,-152.475"/>
<polygon fill="midnightblue" stroke="midnightblue" points="1118.04,-155.773 1128.64,-155.887 1120.43,-149.191 1118.04,-155.773"/>
</g>
<!-- Node46 -->
<g id="node5" class="node"><title>Node46</title>
<g id="a_node5"><a xlink:href="../../d5/da5/classinfra_1_1_timer.html#a2b0bc71ca10c69d01f4965c576af73fd" target="_top" xlink:title="infra::Timer::UnregisterSelf">
<polygon fill="white" stroke="black" points="626.5,-109 626.5,-128 757.5,-128 757.5,-109 626.5,-109"/>
<text text-anchor="middle" x="692" y="-116" font-family="Helvetica,sans-Serif" font-size="10.00">infra::Timer::UnregisterSelf</text>
</a>
</g>
</g>
<!-- Node44&#45;&gt;Node46 -->
<g id="edge4" class="edge"><title>Node44&#45;&gt;Node46</title>
<path fill="none" stroke="midnightblue" d="M552.887,-105.276C572.326,-107.138 595.02,-109.31 616.329,-111.351"/>
<polygon fill="midnightblue" stroke="midnightblue" points="616.043,-114.839 626.331,-112.308 616.71,-107.871 616.043,-114.839"/>
</g>
<!-- Node47 -->
<g id="node6" class="node"><title>Node47</title>
<g id="a_node6"><a xlink:href="../../da/def/classinfra_1_1_timer_service.html#a51f86cbeef8dc4866c087b68c24635d8" target="_top" xlink:title="infra::TimerService\l::UnregisterTimer">
<polygon fill="white" stroke="black" points="808,-106.5 808,-136.5 904,-136.5 904,-106.5 808,-106.5"/>
<text text-anchor="start" x="816" y="-124.5" font-family="Helvetica,sans-Serif" font-size="10.00">infra::TimerService</text>
<text text-anchor="middle" x="856" y="-113.5" font-family="Helvetica,sans-Serif" font-size="10.00">::UnregisterTimer</text>
</a>
</g>
</g>
<!-- Node46&#45;&gt;Node47 -->
<g id="edge5" class="edge"><title>Node46&#45;&gt;Node47</title>
<path fill="none" stroke="midnightblue" d="M757.958,-119.703C771.155,-119.947 784.944,-120.203 797.847,-120.442"/>
<polygon fill="midnightblue" stroke="midnightblue" points="797.913,-123.943 807.976,-120.629 798.043,-116.945 797.913,-123.943"/>
</g>
<!-- Node48 -->
<g id="node7" class="node"><title>Node48</title>
<g id="a_node7"><a xlink:href="../../da/def/classinfra_1_1_timer_service.html#afb8a6ef3ee5ba728f1a8f232514bad8c" target="_top" xlink:title="infra::TimerService\l::ComputeNextTrigger">
<polygon fill="white" stroke="black" points="948.5,-194.5 948.5,-224.5 1059.5,-224.5 1059.5,-194.5 948.5,-194.5"/>
<text text-anchor="start" x="956.5" y="-212.5" font-family="Helvetica,sans-Serif" font-size="10.00">infra::TimerService</text>
<text text-anchor="middle" x="1004" y="-201.5" font-family="Helvetica,sans-Serif" font-size="10.00">::ComputeNextTrigger</text>
</a>
</g>
</g>
<!-- Node47&#45;&gt;Node48 -->
<g id="edge6" class="edge"><title>Node47&#45;&gt;Node48</title>
<path fill="none" stroke="midnightblue" d="M882.098,-136.628C906.124,-151.109 942.545,-173.061 969.133,-189.087"/>
<polygon fill="midnightblue" stroke="midnightblue" points="967.369,-192.111 977.741,-194.275 970.983,-186.115 967.369,-192.111"/>
</g>
<!-- Node49 -->
<g id="node8" class="node"><title>Node49</title>
<g id="a_node8"><a xlink:href="../../da/def/classinfra_1_1_timer_service.html#a6ae66196dc18d8b383ba5e0f0b6f22fa" target="_top" xlink:title="infra::TimerService\l::NextTriggerChanged">
<polygon fill="white" stroke="black" points="1100,-235.5 1100,-265.5 1210,-265.5 1210,-235.5 1100,-235.5"/>
<text text-anchor="start" x="1108" y="-253.5" font-family="Helvetica,sans-Serif" font-size="10.00">infra::TimerService</text>
<text text-anchor="middle" x="1155" y="-242.5" font-family="Helvetica,sans-Serif" font-size="10.00">::NextTriggerChanged</text>
</a>
</g>
</g>
<!-- Node48&#45;&gt;Node49 -->
<g id="edge7" class="edge"><title>Node48&#45;&gt;Node49</title>
<path fill="none" stroke="midnightblue" d="M1059.64,-224.534C1069.58,-227.271 1080.03,-230.147 1090.22,-232.949"/>
<polygon fill="midnightblue" stroke="midnightblue" points="1089.3,-236.326 1099.87,-235.605 1091.16,-229.577 1089.3,-236.326"/>
</g>
<!-- Node51 -->
<g id="node10" class="node"><title>Node51</title>
<g id="a_node10"><a xlink:href="../../da/def/classinfra_1_1_timer_service.html#acb34d2766047f27ebcd1f552916c9a99" target="_top" xlink:title="infra::TimerService::Now">
<polygon fill="white" stroke="black" points="631.5,-30 631.5,-49 752.5,-49 752.5,-30 631.5,-30"/>
<text text-anchor="middle" x="692" y="-37" font-family="Helvetica,sans-Serif" font-size="10.00">infra::TimerService::Now</text>
</a>
</g>
</g>
<!-- Node50&#45;&gt;Node51 -->
<g id="edge9" class="edge"><title>Node50&#45;&gt;Node51</title>
<path fill="none" stroke="midnightblue" d="M546.604,-54.8613C568.721,-52.5084 596.124,-49.5931 621.095,-46.9367"/>
<polygon fill="midnightblue" stroke="midnightblue" points="621.684,-50.3939 631.257,-45.8556 620.943,-43.4332 621.684,-50.3939"/>
</g>
<!-- Node52&#45;&gt;Node45 -->
<g id="edge11" class="edge"><title>Node52&#45;&gt;Node45</title>
<path fill="none" stroke="midnightblue" d="M580.235,-182.246C711.304,-178.42 974.6,-170.736 1093.4,-167.269"/>
<polygon fill="midnightblue" stroke="midnightblue" points="1093.52,-170.767 1103.41,-166.977 1093.31,-163.77 1093.52,-170.767"/>
</g>
<!-- Node53 -->
<g id="node12" class="node"><title>Node53</title>
<g id="a_node12"><a xlink:href="../../d5/da5/classinfra_1_1_timer.html#aaabecdbe93d2f0299f5f1356c9d1337f" target="_top" xlink:title="infra::Timer::RegisterSelf">
<polygon fill="white" stroke="black" points="630.5,-242 630.5,-261 753.5,-261 753.5,-242 630.5,-242"/>
<text text-anchor="middle" x="692" y="-249" font-family="Helvetica,sans-Serif" font-size="10.00">infra::Timer::RegisterSelf</text>
</a>
</g>
</g>
<!-- Node52&#45;&gt;Node53 -->
<g id="edge12" class="edge"><title>Node52&#45;&gt;Node53</title>
<path fill="none" stroke="midnightblue" d="M528.993,-194.051C551.872,-202.429 586.104,-214.895 616,-225.5 628.176,-229.819 641.493,-234.462 653.481,-238.612"/>
<polygon fill="midnightblue" stroke="midnightblue" points="652.59,-242.007 663.185,-241.964 654.876,-235.391 652.59,-242.007"/>
</g>
<!-- Node56 -->
<g id="node15" class="node"><title>Node56</title>
<g id="a_node15"><a xlink:href="../../d5/da5/classinfra_1_1_timer.html#a51a6dd500d70207c8163a053db0b6e60" target="_top" xlink:title="infra::Timer::UpdateTriggerTime">
<polygon fill="white" stroke="black" points="616,-197 616,-216 768,-216 768,-197 616,-197"/>
<text text-anchor="middle" x="692" y="-204" font-family="Helvetica,sans-Serif" font-size="10.00">infra::Timer::UpdateTriggerTime</text>
</a>
</g>
</g>
<!-- Node52&#45;&gt;Node56 -->
<g id="edge17" class="edge"><title>Node52&#45;&gt;Node56</title>
<path fill="none" stroke="midnightblue" d="M580.009,-193.512C588.537,-194.51 597.257,-195.53 605.877,-196.539"/>
<polygon fill="midnightblue" stroke="midnightblue" points="605.593,-200.029 615.932,-197.715 606.407,-193.077 605.593,-200.029"/>
</g>
<!-- Node54 -->
<g id="node13" class="node"><title>Node54</title>
<g id="a_node13"><a xlink:href="../../da/def/classinfra_1_1_timer_service.html#ac048d92f92957b56b420dd78bcc84528" target="_top" xlink:title="infra::TimerService\l::RegisterTimer">
<polygon fill="white" stroke="black" points="808,-243.5 808,-273.5 904,-273.5 904,-243.5 808,-243.5"/>
<text text-anchor="start" x="816" y="-261.5" font-family="Helvetica,sans-Serif" font-size="10.00">infra::TimerService</text>
<text text-anchor="middle" x="856" y="-250.5" font-family="Helvetica,sans-Serif" font-size="10.00">::RegisterTimer</text>
</a>
</g>
</g>
<!-- Node53&#45;&gt;Node54 -->
<g id="edge13" class="edge"><title>Node53&#45;&gt;Node54</title>
<path fill="none" stroke="midnightblue" d="M753.784,-254.126C768.161,-254.748 783.445,-255.408 797.664,-256.023"/>
<polygon fill="midnightblue" stroke="midnightblue" points="797.658,-259.525 807.8,-256.461 797.961,-252.532 797.658,-259.525"/>
</g>
<!-- Node54&#45;&gt;Node49 -->
<g id="edge16" class="edge"><title>Node54&#45;&gt;Node49</title>
<path fill="none" stroke="midnightblue" d="M904.245,-267.508C917.092,-269.572 931.038,-271.464 944,-272.5 997.164,-276.75 1011.05,-278.878 1064,-272.5 1073.03,-271.412 1082.46,-269.732 1091.68,-267.773"/>
<polygon fill="midnightblue" stroke="midnightblue" points="1092.57,-271.159 1101.56,-265.554 1091.04,-264.329 1092.57,-271.159"/>
</g>
<!-- Node55 -->
<g id="node14" class="node"><title>Node55</title>
<g id="a_node14"><a xlink:href="../../d5/da5/classinfra_1_1_timer.html#a1efe7b4dc3d40f8357b1fc94855e5145" target="_top" xlink:title="infra::Timer::NextTrigger">
<polygon fill="white" stroke="black" points="944,-244 944,-263 1064,-263 1064,-244 944,-244"/>
<text text-anchor="middle" x="1004" y="-251" font-family="Helvetica,sans-Serif" font-size="10.00">infra::Timer::NextTrigger</text>
</a>
</g>
</g>
<!-- Node54&#45;&gt;Node55 -->
<g id="edge14" class="edge"><title>Node54&#45;&gt;Node55</title>
<path fill="none" stroke="midnightblue" d="M904.402,-256.877C913.733,-256.557 923.704,-256.216 933.586,-255.877"/>
<polygon fill="midnightblue" stroke="midnightblue" points="933.948,-259.367 943.823,-255.527 933.709,-252.371 933.948,-259.367"/>
</g>
<!-- Node55&#45;&gt;Node45 -->
<g id="edge15" class="edge"><title>Node55&#45;&gt;Node45</title>
<path fill="none" stroke="midnightblue" d="M1039.16,-243.986C1047.51,-241.107 1056.26,-237.599 1064,-233.5 1091.07,-219.168 1118.66,-196.966 1136.02,-181.86"/>
<polygon fill="midnightblue" stroke="midnightblue" points="1138.52,-184.33 1143.68,-175.08 1133.88,-179.088 1138.52,-184.33"/>
</g>
<!-- Node57 -->
<g id="node16" class="node"><title>Node57</title>
<g id="a_node16"><a xlink:href="../../da/def/classinfra_1_1_timer_service.html#ac08c18576f1ca147f34136e9f75d124f" target="_top" xlink:title="infra::TimerService\l::UpdateTriggerTime">
<polygon fill="white" stroke="black" points="804,-194.5 804,-224.5 908,-224.5 908,-194.5 804,-194.5"/>
<text text-anchor="start" x="812" y="-212.5" font-family="Helvetica,sans-Serif" font-size="10.00">infra::TimerService</text>
<text text-anchor="middle" x="856" y="-201.5" font-family="Helvetica,sans-Serif" font-size="10.00">::UpdateTriggerTime</text>
</a>
</g>
</g>
<!-- Node56&#45;&gt;Node57 -->
<g id="edge18" class="edge"><title>Node56&#45;&gt;Node57</title>
<path fill="none" stroke="midnightblue" d="M768.309,-207.895C776.885,-208.053 785.547,-208.214 793.908,-208.369"/>
<polygon fill="midnightblue" stroke="midnightblue" points="793.867,-211.868 803.93,-208.554 793.996,-204.87 793.867,-211.868"/>
</g>
<!-- Node57&#45;&gt;Node48 -->
<g id="edge19" class="edge"><title>Node57&#45;&gt;Node48</title>
<path fill="none" stroke="midnightblue" d="M908.064,-209.5C917.87,-209.5 928.258,-209.5 938.425,-209.5"/>
<polygon fill="midnightblue" stroke="midnightblue" points="938.489,-213 948.489,-209.5 938.489,-206 938.489,-213"/>
</g>
<!-- Node59 -->
<g id="node18" class="node"><title>Node59</title>
<g id="a_node18"><a xlink:href="../../da/def/classinfra_1_1_timer_service.html#ab717e40a1a49d2f31f4a9e2e63f0f5ce" target="_top" xlink:title="infra::TimerService\l::Resolution">
<polygon fill="white" stroke="black" points="454,-0.5 454,-30.5 550,-30.5 550,-0.5 454,-0.5"/>
<text text-anchor="start" x="462" y="-18.5" font-family="Helvetica,sans-Serif" font-size="10.00">infra::TimerService</text>
<text text-anchor="middle" x="502" y="-7.5" font-family="Helvetica,sans-Serif" font-size="10.00">::Resolution</text>
</a>
</g>
</g>
<!-- Node58&#45;&gt;Node59 -->
<g id="edge22" class="edge"><title>Node58&#45;&gt;Node59</title>
<path fill="none" stroke="midnightblue" d="M340.277,-16.9745C372.15,-16.6821 411.704,-16.3192 443.597,-16.0266"/>
<polygon fill="midnightblue" stroke="midnightblue" points="443.696,-19.526 453.664,-15.9343 443.632,-12.5263 443.696,-19.526"/>
</g>
</g>
</svg>
        <g id="navigator" transform="translate(0 0)" fill="#404254">
                <rect fill="#f2f5e9" fill-opacity="0.5" stroke="#606060" stroke-width=".5" x="0" y="0" width="60" height="60"/>
                <use id="zoomplus" xlink:href="#zoomPlus" x="17" y="9" onmousedown="handleZoom(evt,'in')"/>
                <use id="zoomminus" xlink:href="#zoomMin" x="42" y="9" onmousedown="handleZoom(evt,'out')"/>
                <use id="reset" xlink:href="#resetDef" x="30" y="36" onmousedown="handleReset()"/>
                <g id="arrowUp" xlink:href="#dirArrow" transform="translate(30 24)" onmousedown="handlePan(0,-1)">
                  <use xlink:href="#rim" fill="#404040">
                        <set attributeName="fill" to="#808080" begin="arrowUp.mouseover" end="arrowUp.mouseout"/>
                  </use>
                  <path fill="none" stroke="white" stroke-width="1.5" d="M0,-3.0v7 M-2.5,-0.5L0,-3.0L2.5,-0.5"/>
                </g>
                <g id="arrowRight" xlink:href="#dirArrow" transform="rotate(90) translate(36 -43)" onmousedown="handlePan(1,0)">
                  <use xlink:href="#rim" fill="#404040">
                        <set attributeName="fill" to="#808080" begin="arrowRight.mouseover" end="arrowRight.mouseout"/>
                  </use>
                  <path fill="none" stroke="white" stroke-width="1.5" d="M0,-3.0v7 M-2.5,-0.5L0,-3.0L2.5,-0.5"/>
                </g>
                <g id="arrowDown" xlink:href="#dirArrow" transform="rotate(180) translate(-30 -48)" onmousedown="handlePan(0,1)">
                  <use xlink:href="#rim" fill="#404040">
                        <set attributeName="fill" to="#808080" begin="arrowDown.mouseover" end="arrowDown.mouseout"/>
                  </use>
                  <path fill="none" stroke="white" stroke-width="1.5" d="M0,-3.0v7 M-2.5,-0.5L0,-3.0L2.5,-0.5"/>
                </g>
                <g id="arrowLeft" xlink:href="#dirArrow" transform="rotate(270) translate(-36 17)" onmousedown="handlePan(-1,0)">
                  <use xlink:href="#rim" fill="#404040">
                        <set attributeName="fill" to="#808080" begin="arrowLeft.mouseover" end="arrowLeft.mouseout"/>
                  </use>
                  <path fill="none" stroke="white" stroke-width="1.5" d="M0,-3.0v7 M-2.5,-0.5L0,-3.0L2.5,-0.5"/>
                </g>
        </g>
        <svg viewBox="0 0 15 15" width="100%" height="30px" preserveAspectRatio="xMaxYMin meet">
         <g id="arrow_out" transform="scale(0.3 0.3)">
          <a xlink:href="classinfra_1_1_timer_limited_repeating_with_closing_action_a260a7dcf1446a2456aa93e8cfccf73f7_cgraph_org.svg" target="_base">
           <rect id="button" ry="5" rx="5" y="6" x="6" height="38" width="38"
                fill="#f2f5e9" fill-opacity="0.5" stroke="#606060" stroke-width="1.0"/>
           <path id="arrow"
             d="M 11.500037,31.436501 C 11.940474,20.09759 22.043105,11.32322 32.158766,21.979434 L 37.068811,17.246167 C 37.068811,17.246167 37.088388,32 37.088388,32 L 22.160133,31.978069 C 22.160133,31.978069 26.997745,27.140456 26.997745,27.140456 C 18.528582,18.264221 13.291696,25.230495 11.500037,31.436501 z"
             style="fill:#404040;"/>
          </a>
         </g>
        </svg>
</svg>
