<?xml version="1.0" encoding="UTF-8" standalone="no"?>
<!DOCTYPE svg PUBLIC "-//W3C//DTD SVG 1.1//EN"
 "http://www.w3.org/Graphics/SVG/1.1/DTD/svg11.dtd">
<!-- Generated by graphviz version 2.38.0 (20140413.2041)
 -->
<!-- Title: infra::TimerLimitedRepeatingWithClosingAction::Start Pages: 1 -->
<svg width="342pt" height="50pt"
 viewBox="0.00 0.00 342.00 50.00" xmlns="http://www.w3.org/2000/svg" xmlns:xlink="http://www.w3.org/1999/xlink">
<g id="graph0" class="graph" transform="scale(1 1) rotate(0) translate(4 46)">
<title>infra::TimerLimitedRepeatingWithClosingAction::Start</title>
<polygon fill="white" stroke="none" points="-4,4 -4,-46 338,-46 338,4 -4,4"/>
<!-- Node60 -->
<g id="node1" class="node"><title>Node60</title>
<polygon fill="#bfbfbf" stroke="black" points="0,-6 0,-36 140,-36 140,-6 0,-6"/>
<text text-anchor="start" x="8" y="-24" font-family="Helvetica,sans-Serif" font-size="10.00">infra::TimerLimitedRepeating</text>
<text text-anchor="middle" x="70" y="-13" font-family="Helvetica,sans-Serif" font-size="10.00">WithClosingAction::Start</text>
</g>
<!-- Node61 -->
<g id="node2" class="node"><title>Node61</title>
<g id="a_node2"><a xlink:href="../../df/d93/classinfra_1_1_timer_limited_repeating_with_closing_action.html#ae946a652778084b2413971986f5f0f52" target="_top" xlink:title="infra::TimerLimitedRepeating\lWithClosingAction::TimerLimited\lRepeatingWithClosingAction">
<polygon fill="white" stroke="black" points="176,-0.5 176,-41.5 334,-41.5 334,-0.5 176,-0.5"/>
<text text-anchor="start" x="184" y="-29.5" font-family="Helvetica,sans-Serif" font-size="10.00">infra::TimerLimitedRepeating</text>
<text text-anchor="start" x="184" y="-18.5" font-family="Helvetica,sans-Serif" font-size="10.00">WithClosingAction::TimerLimited</text>
<text text-anchor="middle" x="255" y="-7.5" font-family="Helvetica,sans-Serif" font-size="10.00">RepeatingWithClosingAction</text>
</a>
</g>
</g>
<!-- Node60&#45;&gt;Node61 -->
<g id="edge1" class="edge"><title>Node60&#45;&gt;Node61</title>
<path fill="none" stroke="midnightblue" d="M150.387,-21C158.825,-21 167.402,-21 175.825,-21"/>
<polygon fill="midnightblue" stroke="midnightblue" points="150.184,-17.5001 140.184,-21 150.184,-24.5001 150.184,-17.5001"/>
</g>
</g>
</svg>
