<?xml version="1.0" encoding="UTF-8" standalone="no"?>
<!DOCTYPE svg PUBLIC "-//W3C//DTD SVG 1.1//EN"
 "http://www.w3.org/Graphics/SVG/1.1/DTD/svg11.dtd">
<!-- Generated by graphviz version 2.38.0 (20140413.2041)
 -->
<!-- Title: hal::ScopedLow::~ScopedLow Pages: 1 -->
<svg width="419pt" height="28pt"
 viewBox="0.00 0.00 419.00 28.00" xmlns="http://www.w3.org/2000/svg" xmlns:xlink="http://www.w3.org/1999/xlink">
<g id="graph0" class="graph" transform="scale(1 1) rotate(0) translate(4 24)">
<title>hal::ScopedLow::~ScopedLow</title>
<polygon fill="white" stroke="none" points="-4,4 -4,-24 415,-24 415,4 -4,4"/>
<!-- Node4 -->
<g id="node1" class="node"><title>Node4</title>
<polygon fill="#bfbfbf" stroke="black" points="0,-0.5 0,-19.5 148,-19.5 148,-0.5 0,-0.5"/>
<text text-anchor="middle" x="74" y="-7.5" font-family="Helvetica,sans-Serif" font-size="10.00">hal::ScopedLow::~ScopedLow</text>
</g>
<!-- Node5 -->
<g id="node2" class="node"><title>Node5</title>
<g id="a_node2"><a xlink:href="../../df/d03/classhal_1_1_output_pin.html#a4e5ec1724078b9b022cbfca7bd88476a" target="_top" xlink:title="hal::OutputPin::Set">
<polygon fill="white" stroke="black" points="184,-0.5 184,-19.5 284,-19.5 284,-0.5 184,-0.5"/>
<text text-anchor="middle" x="234" y="-7.5" font-family="Helvetica,sans-Serif" font-size="10.00">hal::OutputPin::Set</text>
</a>
</g>
</g>
<!-- Node4&#45;&gt;Node5 -->
<g id="edge1" class="edge"><title>Node4&#45;&gt;Node5</title>
<path fill="none" stroke="midnightblue" d="M148.449,-10C156.835,-10 165.305,-10 173.479,-10"/>
<polygon fill="midnightblue" stroke="midnightblue" points="173.644,-13.5001 183.644,-10 173.644,-6.5001 173.644,-13.5001"/>
</g>
<!-- Node6 -->
<g id="node3" class="node"><title>Node6</title>
<g id="a_node3"><a xlink:href="../../d7/d8c/classhal_1_1_gpio_pin.html#a0502d167afa4ed797e3bdb31f5a70452" target="_top" xlink:title="hal::GpioPin::Set">
<polygon fill="white" stroke="black" points="320,-0.5 320,-19.5 411,-19.5 411,-0.5 320,-0.5"/>
<text text-anchor="middle" x="365.5" y="-7.5" font-family="Helvetica,sans-Serif" font-size="10.00">hal::GpioPin::Set</text>
</a>
</g>
</g>
<!-- Node5&#45;&gt;Node6 -->
<g id="edge2" class="edge"><title>Node5&#45;&gt;Node6</title>
<path fill="none" stroke="midnightblue" d="M284.328,-10C292.662,-10 301.357,-10 309.818,-10"/>
<polygon fill="midnightblue" stroke="midnightblue" points="309.982,-13.5001 319.982,-10 309.982,-6.5001 309.982,-13.5001"/>
</g>
</g>
</svg>
