<?xml version="1.0" encoding="UTF-8" standalone="no"?>
<!DOCTYPE svg PUBLIC "-//W3C//DTD SVG 1.1//EN"
 "http://www.w3.org/Graphics/SVG/1.1/DTD/svg11.dtd">
<!-- Generated by graphviz version 2.38.0 (20140413.2041)
 -->
<!-- Title: hal::ScopedLow::ScopedLow Pages: 1 -->
<svg width="413pt" height="28pt"
 viewBox="0.00 0.00 413.00 28.00" xmlns="http://www.w3.org/2000/svg" xmlns:xlink="http://www.w3.org/1999/xlink">
<g id="graph0" class="graph" transform="scale(1 1) rotate(0) translate(4 24)">
<title>hal::ScopedLow::ScopedLow</title>
<polygon fill="white" stroke="none" points="-4,4 -4,-24 409,-24 409,4 -4,4"/>
<!-- Node0 -->
<g id="node1" class="node"><title>Node0</title>
<polygon fill="#bfbfbf" stroke="black" points="0,-0.5 0,-19.5 142,-19.5 142,-0.5 0,-0.5"/>
<text text-anchor="middle" x="71" y="-7.5" font-family="Helvetica,sans-Serif" font-size="10.00">hal::ScopedLow::ScopedLow</text>
</g>
<!-- Node1 -->
<g id="node2" class="node"><title>Node1</title>
<g id="a_node2"><a xlink:href="../../df/d03/classhal_1_1_output_pin.html#a4e5ec1724078b9b022cbfca7bd88476a" target="_top" xlink:title="hal::OutputPin::Set">
<polygon fill="white" stroke="black" points="178,-0.5 178,-19.5 278,-19.5 278,-0.5 178,-0.5"/>
<text text-anchor="middle" x="228" y="-7.5" font-family="Helvetica,sans-Serif" font-size="10.00">hal::OutputPin::Set</text>
</a>
</g>
</g>
<!-- Node0&#45;&gt;Node1 -->
<g id="edge1" class="edge"><title>Node0&#45;&gt;Node1</title>
<path fill="none" stroke="midnightblue" d="M142.244,-10C150.786,-10 159.446,-10 167.805,-10"/>
<polygon fill="midnightblue" stroke="midnightblue" points="167.824,-13.5001 177.824,-10 167.824,-6.5001 167.824,-13.5001"/>
</g>
<!-- Node2 -->
<g id="node3" class="node"><title>Node2</title>
<g id="a_node3"><a xlink:href="../../d7/d8c/classhal_1_1_gpio_pin.html#a0502d167afa4ed797e3bdb31f5a70452" target="_top" xlink:title="hal::GpioPin::Set">
<polygon fill="white" stroke="black" points="314,-0.5 314,-19.5 405,-19.5 405,-0.5 314,-0.5"/>
<text text-anchor="middle" x="359.5" y="-7.5" font-family="Helvetica,sans-Serif" font-size="10.00">hal::GpioPin::Set</text>
</a>
</g>
</g>
<!-- Node1&#45;&gt;Node2 -->
<g id="edge2" class="edge"><title>Node1&#45;&gt;Node2</title>
<path fill="none" stroke="midnightblue" d="M278.328,-10C286.662,-10 295.357,-10 303.818,-10"/>
<polygon fill="midnightblue" stroke="midnightblue" points="303.982,-13.5001 313.982,-10 303.982,-6.5001 303.982,-13.5001"/>
</g>
</g>
</svg>
