<?xml version="1.0" encoding="UTF-8" standalone="no"?>
<!DOCTYPE svg PUBLIC "-//W3C//DTD SVG 1.1//EN"
 "http://www.w3.org/Graphics/SVG/1.1/DTD/svg11.dtd">
<!-- Generated by graphviz version 2.38.0 (20140413.2041)
 -->
<!-- Title: infra::Asn1Formatter Pages: 1 -->
<svg width="244pt" height="297pt"
 viewBox="0.00 0.00 244.00 297.00" xmlns="http://www.w3.org/2000/svg" xmlns:xlink="http://www.w3.org/1999/xlink">
<g id="graph0" class="graph" transform="scale(1 1) rotate(0) translate(4 293)">
<title>infra::Asn1Formatter</title>
<polygon fill="white" stroke="none" points="-4,4 -4,-293 240,-293 240,4 -4,4"/>
<!-- Node2 -->
<g id="node1" class="node"><title>Node2</title>
<polygon fill="#bfbfbf" stroke="black" points="97.5,-0.5 97.5,-19.5 202.5,-19.5 202.5,-0.5 97.5,-0.5"/>
<text text-anchor="middle" x="150" y="-7.5" font-family="Helvetica,sans-Serif" font-size="10.00">infra::Asn1Formatter</text>
</g>
<!-- Node3 -->
<g id="node2" class="node"><title>Node3</title>
<g id="a_node2"><a xlink:href="../../d6/d7d/classinfra_1_1_data_output_stream.html" target="_top" xlink:title="infra::DataOutputStream">
<polygon fill="white" stroke="black" points="89,-67.5 89,-86.5 211,-86.5 211,-67.5 89,-67.5"/>
<text text-anchor="middle" x="150" y="-74.5" font-family="Helvetica,sans-Serif" font-size="10.00">infra::DataOutputStream</text>
</a>
</g>
</g>
<!-- Node3&#45;&gt;Node2 -->
<g id="edge1" class="edge"><title>Node3&#45;&gt;Node2</title>
<path fill="none" stroke="#9a32cd" stroke-dasharray="5,2" d="M150,-57.037C150,-44.6703 150,-29.1198 150,-19.6273"/>
<polygon fill="#9a32cd" stroke="#9a32cd" points="146.5,-57.2338 150,-67.2338 153.5,-57.2338 146.5,-57.2338"/>
<text text-anchor="middle" x="167" y="-41" font-family="Helvetica,sans-Serif" font-size="10.00"> stream</text>
</g>
<!-- Node4 -->
<g id="node3" class="node"><title>Node4</title>
<g id="a_node3"><a xlink:href="../../d6/d97/classinfra_1_1_output_stream.html" target="_top" xlink:title="infra::OutputStream">
<polygon fill="white" stroke="black" points="99.5,-124.5 99.5,-143.5 200.5,-143.5 200.5,-124.5 99.5,-124.5"/>
<text text-anchor="middle" x="150" y="-131.5" font-family="Helvetica,sans-Serif" font-size="10.00">infra::OutputStream</text>
</a>
</g>
</g>
<!-- Node4&#45;&gt;Node3 -->
<g id="edge2" class="edge"><title>Node4&#45;&gt;Node3</title>
<path fill="none" stroke="midnightblue" d="M150,-114.117C150,-104.817 150,-94.0557 150,-86.7149"/>
<polygon fill="midnightblue" stroke="midnightblue" points="146.5,-114.406 150,-124.406 153.5,-114.406 146.5,-114.406"/>
</g>
<!-- Node5 -->
<g id="node4" class="node"><title>Node5</title>
<g id="a_node4"><a xlink:href="../../d5/d4a/classinfra_1_1_stream_error_policy.html" target="_top" xlink:title="infra::StreamErrorPolicy">
<polygon fill="white" stroke="black" points="0,-191.5 0,-210.5 120,-210.5 120,-191.5 0,-191.5"/>
<text text-anchor="middle" x="60" y="-198.5" font-family="Helvetica,sans-Serif" font-size="10.00">infra::StreamErrorPolicy</text>
</a>
</g>
</g>
<!-- Node5&#45;&gt;Node4 -->
<g id="edge3" class="edge"><title>Node5&#45;&gt;Node4</title>
<path fill="none" stroke="#9a32cd" stroke-dasharray="5,2" d="M80.6753,-185.068C98.4402,-172.238 123.436,-154.185 138.055,-143.627"/>
<polygon fill="#9a32cd" stroke="#9a32cd" points="78.1954,-182.541 72.1378,-191.234 82.2938,-188.216 78.1954,-182.541"/>
<text text-anchor="middle" x="136" y="-165" font-family="Helvetica,sans-Serif" font-size="10.00"> errorPolicy</text>
</g>
<!-- Node6 -->
<g id="node5" class="node"><title>Node6</title>
<polygon fill="white" stroke="#bfbfbf" points="3.5,-269.5 3.5,-288.5 38.5,-288.5 38.5,-269.5 3.5,-269.5"/>
<text text-anchor="middle" x="21" y="-276.5" font-family="Helvetica,sans-Serif" font-size="10.00">bool</text>
</g>
<!-- Node6&#45;&gt;Node5 -->
<g id="edge4" class="edge"><title>Node6&#45;&gt;Node5</title>
<path fill="none" stroke="#9a32cd" stroke-dasharray="5,2" d="M17.5482,-259.364C16.6886,-249.769 17.1372,-238.189 22,-229 26.1639,-221.132 33.7654,-215.04 41.0816,-210.651"/>
<polygon fill="#9a32cd" stroke="#9a32cd" points="14.109,-260.042 18.9721,-269.454 21.0403,-259.063 14.109,-260.042"/>
<text text-anchor="middle" x="50" y="-243" font-family="Helvetica,sans-Serif" font-size="10.00"> checkedFail</text>
<text text-anchor="middle" x="50" y="-232" font-family="Helvetica,sans-Serif" font-size="10.00">failed</text>
</g>
<!-- Node7 -->
<g id="node6" class="node"><title>Node7</title>
<polygon fill="white" stroke="#bfbfbf" points="65,-269.5 65,-288.5 135,-288.5 135,-269.5 65,-269.5"/>
<text text-anchor="middle" x="100" y="-276.5" font-family="Helvetica,sans-Serif" font-size="10.00">FailureMode</text>
</g>
<!-- Node7&#45;&gt;Node5 -->
<g id="edge5" class="edge"><title>Node7&#45;&gt;Node5</title>
<path fill="none" stroke="#9a32cd" stroke-dasharray="5,2" d="M92.7574,-259.977C88.7639,-250.564 83.5069,-238.962 78,-229 74.5112,-222.689 70.0112,-215.939 66.3834,-210.767"/>
<polygon fill="#9a32cd" stroke="#9a32cd" points="89.6252,-261.562 96.6752,-269.471 96.0959,-258.892 89.6252,-261.562"/>
<text text-anchor="middle" x="115.5" y="-237.5" font-family="Helvetica,sans-Serif" font-size="10.00"> failureMode</text>
</g>
<!-- Node8 -->
<g id="node7" class="node"><title>Node8</title>
<g id="a_node7"><a xlink:href="../../de/dba/classinfra_1_1_stream_writer.html" target="_top" xlink:title="infra::StreamWriter">
<polygon fill="white" stroke="black" points="138,-191.5 138,-210.5 236,-210.5 236,-191.5 138,-191.5"/>
<text text-anchor="middle" x="187" y="-198.5" font-family="Helvetica,sans-Serif" font-size="10.00">infra::StreamWriter</text>
</a>
</g>
</g>
<!-- Node8&#45;&gt;Node4 -->
<g id="edge6" class="edge"><title>Node8&#45;&gt;Node4</title>
<path fill="none" stroke="#9a32cd" stroke-dasharray="5,2" d="M177.058,-182.535C169.895,-169.95 160.535,-153.507 154.911,-143.627"/>
<polygon fill="#9a32cd" stroke="#9a32cd" points="174.021,-184.275 182.01,-191.234 180.105,-180.812 174.021,-184.275"/>
<text text-anchor="middle" x="184.5" y="-165" font-family="Helvetica,sans-Serif" font-size="10.00"> writer</text>
</g>
</g>
</svg>
