<?xml version="1.0" encoding="UTF-8" standalone="no"?>
<!DOCTYPE svg PUBLIC "-//W3C//DTD SVG 1.1//EN"
 "http://www.w3.org/Graphics/SVG/1.1/DTD/svg11.dtd">
<!-- Generated by graphviz version 2.38.0 (20140413.2041)
 -->
<!-- Title: services::NameLookupBsd::LookupIPv4 Pages: 1 -->
<svg width="325pt" height="373pt"
 viewBox="0.00 0.00 325.00 373.00" xmlns="http://www.w3.org/2000/svg" xmlns:xlink="http://www.w3.org/1999/xlink">
<g id="graph0" class="graph" transform="scale(1 1) rotate(0) translate(4 369)">
<title>services::NameLookupBsd::LookupIPv4</title>
<polygon fill="white" stroke="none" points="-4,4 -4,-369 321,-369 321,4 -4,4"/>
<!-- Node19 -->
<g id="node1" class="node"><title>Node19</title>
<polygon fill="#bfbfbf" stroke="black" points="0,-180.5 0,-210.5 132,-210.5 132,-180.5 0,-180.5"/>
<text text-anchor="start" x="8" y="-198.5" font-family="Helvetica,sans-Serif" font-size="10.00">services::NameLookupBsd</text>
<text text-anchor="middle" x="66" y="-187.5" font-family="Helvetica,sans-Serif" font-size="10.00">::LookupIPv4</text>
</g>
<!-- Node20 -->
<g id="node2" class="node"><title>Node20</title>
<g id="a_node2"><a xlink:href="../../d1/d2a/classinfra_1_1_bounded_string_base.html#aef23e4250cad2fdc69ccc39f68734233" target="_top" xlink:title="infra::BoundedStringBase\l::begin">
<polygon fill="white" stroke="black" points="179,-334.5 179,-364.5 306,-364.5 306,-334.5 179,-334.5"/>
<text text-anchor="start" x="187" y="-352.5" font-family="Helvetica,sans-Serif" font-size="10.00">infra::BoundedStringBase</text>
<text text-anchor="middle" x="242.5" y="-341.5" font-family="Helvetica,sans-Serif" font-size="10.00">::begin</text>
</a>
</g>
</g>
<!-- Node19&#45;&gt;Node20 -->
<g id="edge1" class="edge"><title>Node19&#45;&gt;Node20</title>
<path fill="none" stroke="midnightblue" d="M74.89,-210.565C89.6403,-237.314 123.928,-293.222 168,-324.5 170.693,-326.411 173.544,-328.185 176.497,-329.832"/>
<polygon fill="midnightblue" stroke="midnightblue" points="175.103,-333.048 185.612,-334.394 178.236,-326.788 175.103,-333.048"/>
</g>
<!-- Node21 -->
<g id="node3" class="node"><title>Node21</title>
<g id="a_node3"><a xlink:href="../../db/d91/namespaceservices.html#a82b8b8d9694834be0149747c77ac7cd7" target="_top" xlink:title="services::ConvertFromUint32">
<polygon fill="white" stroke="black" points="172.5,-296 172.5,-315 312.5,-315 312.5,-296 172.5,-296"/>
<text text-anchor="middle" x="242.5" y="-303" font-family="Helvetica,sans-Serif" font-size="10.00">services::ConvertFromUint32</text>
</a>
</g>
</g>
<!-- Node19&#45;&gt;Node21 -->
<g id="edge2" class="edge"><title>Node19&#45;&gt;Node21</title>
<path fill="none" stroke="midnightblue" d="M79.7056,-210.845C97.393,-231.197 131.41,-266.834 168,-286.5 172.274,-288.797 176.838,-290.826 181.521,-292.617"/>
<polygon fill="midnightblue" stroke="midnightblue" points="180.651,-296.019 191.246,-295.968 182.932,-289.401 180.651,-296.019"/>
</g>
<!-- Node22 -->
<g id="node4" class="node"><title>Node22</title>
<g id="a_node4"><a xlink:href="../../d1/d2a/classinfra_1_1_bounded_string_base.html#af5021f1ea3898146d0a55c2895f07dbf" target="_top" xlink:title="infra::BoundedStringBase::end">
<polygon fill="white" stroke="black" points="168,-258 168,-277 317,-277 317,-258 168,-258"/>
<text text-anchor="middle" x="242.5" y="-265" font-family="Helvetica,sans-Serif" font-size="10.00">infra::BoundedStringBase::end</text>
</a>
</g>
</g>
<!-- Node19&#45;&gt;Node22 -->
<g id="edge3" class="edge"><title>Node19&#45;&gt;Node22</title>
<path fill="none" stroke="midnightblue" d="M91.9768,-210.684C111.968,-222.321 141.025,-238.096 168,-248.5 174.362,-250.954 181.154,-253.192 187.943,-255.201"/>
<polygon fill="midnightblue" stroke="midnightblue" points="187.262,-258.645 197.836,-257.979 189.155,-251.906 187.262,-258.645"/>
</g>
<!-- Node23 -->
<g id="node5" class="node"><title>Node23</title>
<g id="a_node5"><a xlink:href="../../df/d75/classservices_1_1_name_resolver_result.html#a26fb039e839d01accab6b3e5ed66f3ff" target="_top" xlink:title="services::NameResolverResult\l::Hostname">
<polygon fill="white" stroke="black" points="168.5,-208.5 168.5,-238.5 316.5,-238.5 316.5,-208.5 168.5,-208.5"/>
<text text-anchor="start" x="176.5" y="-226.5" font-family="Helvetica,sans-Serif" font-size="10.00">services::NameResolverResult</text>
<text text-anchor="middle" x="242.5" y="-215.5" font-family="Helvetica,sans-Serif" font-size="10.00">::Hostname</text>
</a>
</g>
</g>
<!-- Node19&#45;&gt;Node23 -->
<g id="edge4" class="edge"><title>Node19&#45;&gt;Node23</title>
<path fill="none" stroke="midnightblue" d="M132.474,-206.006C140.885,-207.355 149.584,-208.751 158.23,-210.139"/>
<polygon fill="midnightblue" stroke="midnightblue" points="157.908,-213.632 168.337,-211.76 159.018,-206.72 157.908,-213.632"/>
</g>
<!-- Node24 -->
<g id="node6" class="node"><title>Node24</title>
<g id="a_node6"><a xlink:href="../../d3/d0e/classinfra_1_1_interface_connector.html#aed1d9e952d3d0dfa68e59ee4e868b380" target="_top" xlink:title="infra::InterfaceConnector\l\&lt; EventDispatcherWorker\l \&gt;::Instance">
<polygon fill="white" stroke="black" points="178.5,-148 178.5,-189 306.5,-189 306.5,-148 178.5,-148"/>
<text text-anchor="start" x="186.5" y="-177" font-family="Helvetica,sans-Serif" font-size="10.00">infra::InterfaceConnector</text>
<text text-anchor="start" x="186.5" y="-166" font-family="Helvetica,sans-Serif" font-size="10.00">&lt; EventDispatcherWorker</text>
<text text-anchor="middle" x="242.5" y="-155" font-family="Helvetica,sans-Serif" font-size="10.00"> &gt;::Instance</text>
</a>
</g>
</g>
<!-- Node19&#45;&gt;Node24 -->
<g id="edge5" class="edge"><title>Node19&#45;&gt;Node24</title>
<path fill="none" stroke="midnightblue" d="M132.474,-185.369C144.185,-183.557 156.455,-181.659 168.364,-179.816"/>
<polygon fill="midnightblue" stroke="midnightblue" points="168.916,-183.272 178.263,-178.284 167.846,-176.355 168.916,-183.272"/>
</g>
<!-- Node25 -->
<g id="node7" class="node"><title>Node25</title>
<g id="a_node7"><a xlink:href="../../df/d75/classservices_1_1_name_resolver_result.html#af05454bbfd89bfd139bf63ec3df9d00a" target="_top" xlink:title="services::NameResolverResult\l::NameLookupDone">
<polygon fill="white" stroke="black" points="168.5,-98.5 168.5,-128.5 316.5,-128.5 316.5,-98.5 168.5,-98.5"/>
<text text-anchor="start" x="176.5" y="-116.5" font-family="Helvetica,sans-Serif" font-size="10.00">services::NameResolverResult</text>
<text text-anchor="middle" x="242.5" y="-105.5" font-family="Helvetica,sans-Serif" font-size="10.00">::NameLookupDone</text>
</a>
</g>
</g>
<!-- Node19&#45;&gt;Node25 -->
<g id="edge6" class="edge"><title>Node19&#45;&gt;Node25</title>
<path fill="none" stroke="midnightblue" d="M90.8326,-180.374C110.895,-168.054 140.617,-150.756 168,-138.5 172.998,-136.263 178.26,-134.107 183.578,-132.061"/>
<polygon fill="midnightblue" stroke="midnightblue" points="185.004,-135.265 193.163,-128.507 182.57,-128.702 185.004,-135.265"/>
</g>
<!-- Node26 -->
<g id="node8" class="node"><title>Node26</title>
<g id="a_node8"><a xlink:href="../../df/d75/classservices_1_1_name_resolver_result.html#a5c20cd74e9b4728feaae9f05e48e12c3" target="_top" xlink:title="services::NameResolverResult\l::NameLookupFailed">
<polygon fill="white" stroke="black" points="168.5,-49.5 168.5,-79.5 316.5,-79.5 316.5,-49.5 168.5,-49.5"/>
<text text-anchor="start" x="176.5" y="-67.5" font-family="Helvetica,sans-Serif" font-size="10.00">services::NameResolverResult</text>
<text text-anchor="middle" x="242.5" y="-56.5" font-family="Helvetica,sans-Serif" font-size="10.00">::NameLookupFailed</text>
</a>
</g>
</g>
<!-- Node19&#45;&gt;Node26 -->
<g id="edge7" class="edge"><title>Node19&#45;&gt;Node26</title>
<path fill="none" stroke="midnightblue" d="M77.6675,-180.295C94.4155,-157.479 129.019,-114.414 168,-89.5 171.137,-87.4948 174.453,-85.6312 177.873,-83.9021"/>
<polygon fill="midnightblue" stroke="midnightblue" points="179.505,-87.004 187.116,-79.634 176.57,-80.6488 179.505,-87.004"/>
</g>
<!-- Node27 -->
<g id="node9" class="node"><title>Node27</title>
<g id="a_node9"><a xlink:href="../../d7/d34/classinfra_1_1_event_dispatcher_worker.html#a5922b8fd5101b15f20b639fcd11fa272" target="_top" xlink:title="infra::EventDispatcherWorker\l::Schedule">
<polygon fill="white" stroke="black" points="171,-0.5 171,-30.5 314,-30.5 314,-0.5 171,-0.5"/>
<text text-anchor="start" x="179" y="-18.5" font-family="Helvetica,sans-Serif" font-size="10.00">infra::EventDispatcherWorker</text>
<text text-anchor="middle" x="242.5" y="-7.5" font-family="Helvetica,sans-Serif" font-size="10.00">::Schedule</text>
</a>
</g>
</g>
<!-- Node19&#45;&gt;Node27 -->
<g id="edge8" class="edge"><title>Node19&#45;&gt;Node27</title>
<path fill="none" stroke="midnightblue" d="M72.8517,-180.313C85.4943,-149.464 118.29,-79.1257 168,-40.5 170.423,-38.6173 172.996,-36.8717 175.674,-35.2538"/>
<polygon fill="midnightblue" stroke="midnightblue" points="177.365,-38.3186 184.525,-30.5094 174.058,-32.1491 177.365,-38.3186"/>
</g>
</g>
</svg>
