<?xml version="1.0" encoding="UTF-8" standalone="no"?>
<!DOCTYPE svg PUBLIC "-//W3C//DTD SVG 1.1//EN"
 "http://www.w3.org/Graphics/SVG/1.1/DTD/svg11.dtd">
<!-- Generated by graphviz version 2.38.0 (20140413.2041)
 -->
<!-- Title: services::HttpHeader::Value Pages: 1 -->
<svg width="272pt" height="78pt"
 viewBox="0.00 0.00 272.00 77.50" xmlns="http://www.w3.org/2000/svg" xmlns:xlink="http://www.w3.org/1999/xlink">
<g id="graph0" class="graph" transform="scale(1 1) rotate(0) translate(4 73.5)">
<title>services::HttpHeader::Value</title>
<polygon fill="white" stroke="none" points="-4,4 -4,-73.5 268,-73.5 268,4 -4,4"/>
<!-- Node14 -->
<g id="node1" class="node"><title>Node14</title>
<polygon fill="#bfbfbf" stroke="black" points="0,-17 0,-47 107,-47 107,-17 0,-17"/>
<text text-anchor="start" x="8" y="-35" font-family="Helvetica,sans-Serif" font-size="10.00">services::HttpHeader</text>
<text text-anchor="middle" x="53.5" y="-24" font-family="Helvetica,sans-Serif" font-size="10.00">::Value</text>
</g>
<!-- Node15 -->
<g id="node2" class="node"><title>Node15</title>
<g id="a_node2"><a xlink:href="../../df/dd9/classservices_1_1_http_client_json.html#a972155f1b6521ea28456acaf8d84c7fe" target="_top" xlink:title="services::HttpClientJson\l::HeaderAvailable">
<polygon fill="white" stroke="black" points="143,-39 143,-69 264,-69 264,-39 143,-39"/>
<text text-anchor="start" x="151" y="-57" font-family="Helvetica,sans-Serif" font-size="10.00">services::HttpClientJson</text>
<text text-anchor="middle" x="203.5" y="-46" font-family="Helvetica,sans-Serif" font-size="10.00">::HeaderAvailable</text>
</a>
</g>
</g>
<!-- Node14&#45;&gt;Node15 -->
<g id="edge1" class="edge"><title>Node14&#45;&gt;Node15</title>
<path fill="none" stroke="midnightblue" d="M116.993,-41.2895C125.529,-42.5584 134.275,-43.8585 142.761,-45.1199"/>
<polygon fill="midnightblue" stroke="midnightblue" points="117.502,-37.8268 107.096,-39.8183 116.473,-44.7507 117.502,-37.8268"/>
</g>
<!-- Node16 -->
<g id="node3" class="node"><title>Node16</title>
<g id="a_node3"><a xlink:href="../../d0/de3/namespaceinfra.html#ae4e77041a49f84b39e829d510458f318" target="_top" xlink:title="infra::operator\&lt;\&lt;">
<polygon fill="white" stroke="black" points="159.5,-0.5 159.5,-19.5 247.5,-19.5 247.5,-0.5 159.5,-0.5"/>
<text text-anchor="middle" x="203.5" y="-7.5" font-family="Helvetica,sans-Serif" font-size="10.00">infra::operator&lt;&lt;</text>
</a>
</g>
</g>
<!-- Node14&#45;&gt;Node16 -->
<g id="edge2" class="edge"><title>Node14&#45;&gt;Node16</title>
<path fill="none" stroke="midnightblue" d="M117.285,-22.6671C131.457,-20.5605 146.19,-18.3704 159.341,-16.4155"/>
<polygon fill="midnightblue" stroke="midnightblue" points="116.473,-19.2493 107.096,-24.1817 117.502,-26.1732 116.473,-19.2493"/>
</g>
</g>
</svg>
