<?xml version="1.0" encoding="UTF-8" standalone="no"?>
<!DOCTYPE svg PUBLIC "-//W3C//DTD SVG 1.1//EN"
 "http://www.w3.org/Graphics/SVG/1.1/DTD/svg11.dtd">
<!-- Generated by graphviz version 2.38.0 (20140413.2041)
 -->
<!-- Title: infra::CleanJsonContents Pages: 1 -->
<svg width="623pt" height="411pt"
 viewBox="0.00 0.00 623.00 411.00" xmlns="http://www.w3.org/2000/svg" xmlns:xlink="http://www.w3.org/1999/xlink">
<g id="graph0" class="graph" transform="scale(1 1) rotate(0) translate(4 407)">
<title>infra::CleanJsonContents</title>
<polygon fill="white" stroke="none" points="-4,4 -4,-407 619,-407 619,4 -4,4"/>
<!-- Node44 -->
<g id="node1" class="node"><title>Node44</title>
<polygon fill="#bfbfbf" stroke="black" points="0,-266 0,-285 125,-285 125,-266 0,-266"/>
<text text-anchor="middle" x="62.5" y="-273" font-family="Helvetica,sans-Serif" font-size="10.00">infra::CleanJsonContents</text>
</g>
<!-- Node45 -->
<g id="node2" class="node"><title>Node45</title>
<g id="a_node2"><a xlink:href="../../d1/d2a/classinfra_1_1_bounded_string_base.html#a997d5df64b1649389d4bf107c2a91cb4" target="_top" xlink:title="infra::BoundedStringBase\l::clear">
<polygon fill="white" stroke="black" points="161,-323.5 161,-353.5 288,-353.5 288,-323.5 161,-323.5"/>
<text text-anchor="start" x="169" y="-341.5" font-family="Helvetica,sans-Serif" font-size="10.00">infra::BoundedStringBase</text>
<text text-anchor="middle" x="224.5" y="-330.5" font-family="Helvetica,sans-Serif" font-size="10.00">::clear</text>
</a>
</g>
</g>
<!-- Node44&#45;&gt;Node45 -->
<g id="edge1" class="edge"><title>Node44&#45;&gt;Node45</title>
<path fill="none" stroke="midnightblue" d="M87.8006,-285.068C111.049,-294.222 146.756,-308.282 175.708,-319.682"/>
<polygon fill="midnightblue" stroke="midnightblue" points="174.653,-323.028 185.24,-323.435 177.217,-316.515 174.653,-323.028"/>
</g>
<!-- Node46 -->
<g id="node3" class="node"><title>Node46</title>
<g id="a_node3"><a xlink:href="../../d0/de3/namespaceinfra.html#a64e99c4d9131f21111da75246e8c08a6" target="_top" xlink:title="infra::CopyToken">
<polygon fill="white" stroke="black" points="180,-285 180,-304 269,-304 269,-285 180,-285"/>
<text text-anchor="middle" x="224.5" y="-292" font-family="Helvetica,sans-Serif" font-size="10.00">infra::CopyToken</text>
</a>
</g>
</g>
<!-- Node44&#45;&gt;Node46 -->
<g id="edge2" class="edge"><title>Node44&#45;&gt;Node46</title>
<path fill="none" stroke="midnightblue" d="M125.36,-282.846C139.937,-284.577 155.362,-286.409 169.559,-288.094"/>
<polygon fill="midnightblue" stroke="midnightblue" points="169.306,-291.589 179.649,-289.293 170.131,-284.638 169.306,-291.589"/>
</g>
<!-- Node52 -->
<g id="node9" class="node"><title>Node52</title>
<g id="a_node9"><a xlink:href="../../da/d2a/classinfra_1_1_variant.html#a6d0669e4f430569c9019345cfab21a8e" target="_top" xlink:title="infra::Variant::Is">
<polygon fill="white" stroke="black" points="182,-247 182,-266 267,-266 267,-247 182,-247"/>
<text text-anchor="middle" x="224.5" y="-254" font-family="Helvetica,sans-Serif" font-size="10.00">infra::Variant::Is</text>
</a>
</g>
</g>
<!-- Node44&#45;&gt;Node52 -->
<g id="edge8" class="edge"><title>Node44&#45;&gt;Node52</title>
<path fill="none" stroke="midnightblue" d="M125.36,-268.154C140.65,-266.338 156.874,-264.412 171.633,-262.659"/>
<polygon fill="midnightblue" stroke="midnightblue" points="172.07,-266.132 181.588,-261.477 171.245,-259.181 172.07,-266.132"/>
</g>
<!-- Node53 -->
<g id="node10" class="node"><title>Node53</title>
<g id="a_node10"><a xlink:href="../../d3/d5c/classinfra_1_1_json_tokenizer.html#a02d850fd493943206196aff4c975aac5" target="_top" xlink:title="infra::JsonTokenizer\l::Token">
<polygon fill="white" stroke="black" points="173,-113.5 173,-143.5 276,-143.5 276,-113.5 173,-113.5"/>
<text text-anchor="start" x="181" y="-131.5" font-family="Helvetica,sans-Serif" font-size="10.00">infra::JsonTokenizer</text>
<text text-anchor="middle" x="224.5" y="-120.5" font-family="Helvetica,sans-Serif" font-size="10.00">::Token</text>
</a>
</g>
</g>
<!-- Node44&#45;&gt;Node53 -->
<g id="edge9" class="edge"><title>Node44&#45;&gt;Node53</title>
<path fill="none" stroke="midnightblue" d="M73.998,-265.855C99.2701,-242.636 164.016,-183.151 199.446,-150.6"/>
<polygon fill="midnightblue" stroke="midnightblue" points="201.956,-153.047 206.952,-143.704 197.22,-147.892 201.956,-153.047"/>
</g>
<!-- Node47 -->
<g id="node4" class="node"><title>Node47</title>
<g id="a_node4"><a xlink:href="../../d7/d8e/classinfra_1_1_json_token_1_1_string.html#a5434d68141a00e7664fb1d5c8ae21cef" target="_top" xlink:title="infra::JsonToken::String\l::RawValue">
<polygon fill="white" stroke="black" points="328.5,-235.5 328.5,-265.5 447.5,-265.5 447.5,-235.5 328.5,-235.5"/>
<text text-anchor="start" x="336.5" y="-253.5" font-family="Helvetica,sans-Serif" font-size="10.00">infra::JsonToken::String</text>
<text text-anchor="middle" x="388" y="-242.5" font-family="Helvetica,sans-Serif" font-size="10.00">::RawValue</text>
</a>
</g>
</g>
<!-- Node46&#45;&gt;Node47 -->
<g id="edge3" class="edge"><title>Node46&#45;&gt;Node47</title>
<path fill="none" stroke="midnightblue" d="M260.543,-284.953C278.483,-280.065 300.91,-273.955 321.876,-268.243"/>
<polygon fill="midnightblue" stroke="midnightblue" points="322.975,-271.571 331.703,-265.565 321.135,-264.817 322.975,-271.571"/>
</g>
<!-- Node49 -->
<g id="node6" class="node"><title>Node49</title>
<g id="a_node6"><a xlink:href="../../d2/d84/classinfra_1_1_json_token_1_1_integer.html#a97f8d96410727e87e9f8ffc53b3dc13d" target="_top" xlink:title="infra::JsonToken::Integer\l::Value">
<polygon fill="white" stroke="black" points="327,-372.5 327,-402.5 449,-402.5 449,-372.5 327,-372.5"/>
<text text-anchor="start" x="335" y="-390.5" font-family="Helvetica,sans-Serif" font-size="10.00">infra::JsonToken::Integer</text>
<text text-anchor="middle" x="388" y="-379.5" font-family="Helvetica,sans-Serif" font-size="10.00">::Value</text>
</a>
</g>
</g>
<!-- Node46&#45;&gt;Node49 -->
<g id="edge5" class="edge"><title>Node46&#45;&gt;Node49</title>
<path fill="none" stroke="midnightblue" d="M267.918,-304.067C274.999,-306.759 281.988,-310.177 288,-314.5 309.94,-330.277 302.496,-347.133 324,-363.5 325.816,-364.882 327.721,-366.193 329.691,-367.436"/>
<polygon fill="midnightblue" stroke="midnightblue" points="328.231,-370.629 338.668,-372.453 331.646,-364.519 328.231,-370.629"/>
</g>
<!-- Node50 -->
<g id="node7" class="node"><title>Node50</title>
<g id="a_node7"><a xlink:href="../../db/d82/classinfra_1_1_json_token_1_1_boolean.html#a760328927920e1bd169d852c5f0e61dc" target="_top" xlink:title="infra::JsonToken::Boolean\l::Value">
<polygon fill="white" stroke="black" points="324,-323.5 324,-353.5 452,-353.5 452,-323.5 324,-323.5"/>
<text text-anchor="start" x="332" y="-341.5" font-family="Helvetica,sans-Serif" font-size="10.00">infra::JsonToken::Boolean</text>
<text text-anchor="middle" x="388" y="-330.5" font-family="Helvetica,sans-Serif" font-size="10.00">::Value</text>
</a>
</g>
</g>
<!-- Node46&#45;&gt;Node50 -->
<g id="edge6" class="edge"><title>Node46&#45;&gt;Node50</title>
<path fill="none" stroke="midnightblue" d="M260.543,-304.047C278.483,-308.935 300.91,-315.045 321.876,-320.757"/>
<polygon fill="midnightblue" stroke="midnightblue" points="321.135,-324.183 331.703,-323.435 322.975,-317.429 321.135,-324.183"/>
</g>
<!-- Node51 -->
<g id="node8" class="node"><title>Node51</title>
<g id="a_node8"><a xlink:href="../../d0/de3/namespaceinfra.html#a6ff0375316ccb5c29bfb9a55090610f0" target="_top" xlink:title="infra::ApplyVisitor">
<polygon fill="white" stroke="black" points="341.5,-285 341.5,-304 434.5,-304 434.5,-285 341.5,-285"/>
<text text-anchor="middle" x="388" y="-292" font-family="Helvetica,sans-Serif" font-size="10.00">infra::ApplyVisitor</text>
</a>
</g>
</g>
<!-- Node46&#45;&gt;Node51 -->
<g id="edge7" class="edge"><title>Node46&#45;&gt;Node51</title>
<path fill="none" stroke="midnightblue" d="M269.204,-294.5C288.304,-294.5 310.933,-294.5 331.228,-294.5"/>
<polygon fill="midnightblue" stroke="midnightblue" points="331.287,-298 341.287,-294.5 331.286,-291 331.287,-298"/>
</g>
<!-- Node48 -->
<g id="node5" class="node"><title>Node48</title>
<g id="a_node5"><a xlink:href="../../d1/d16/classinfra_1_1_json_string.html#ad263c80c4c79cde62e14e4b83eb34e97" target="_top" xlink:title="infra::JsonString::Raw">
<polygon fill="white" stroke="black" points="496,-241 496,-260 607,-260 607,-241 496,-241"/>
<text text-anchor="middle" x="551.5" y="-248" font-family="Helvetica,sans-Serif" font-size="10.00">infra::JsonString::Raw</text>
</a>
</g>
</g>
<!-- Node47&#45;&gt;Node48 -->
<g id="edge4" class="edge"><title>Node47&#45;&gt;Node48</title>
<path fill="none" stroke="midnightblue" d="M447.762,-250.5C460.022,-250.5 473.014,-250.5 485.485,-250.5"/>
<polygon fill="midnightblue" stroke="midnightblue" points="485.811,-254 495.811,-250.5 485.811,-247 485.811,-254"/>
</g>
<!-- Node54 -->
<g id="node11" class="node"><title>Node54</title>
<g id="a_node11"><a xlink:href="../../d3/d5c/classinfra_1_1_json_tokenizer.html#acfe1cf5bc676fd35b038e1b604756165" target="_top" xlink:title="infra::JsonTokenizer\l::SkipWhitespace">
<polygon fill="white" stroke="black" points="336.5,-0.5 336.5,-30.5 439.5,-30.5 439.5,-0.5 336.5,-0.5"/>
<text text-anchor="start" x="344.5" y="-18.5" font-family="Helvetica,sans-Serif" font-size="10.00">infra::JsonTokenizer</text>
<text text-anchor="middle" x="388" y="-7.5" font-family="Helvetica,sans-Serif" font-size="10.00">::SkipWhitespace</text>
</a>
</g>
</g>
<!-- Node53&#45;&gt;Node54 -->
<g id="edge10" class="edge"><title>Node53&#45;&gt;Node54</title>
<path fill="none" stroke="midnightblue" d="M240.888,-113.349C259.479,-95.5834 292.23,-65.9675 324,-45.5 329.679,-41.8413 335.873,-38.3531 342.089,-35.1346"/>
<polygon fill="midnightblue" stroke="midnightblue" points="343.76,-38.2125 351.153,-30.6237 340.641,-31.9456 343.76,-38.2125"/>
</g>
<!-- Node55 -->
<g id="node12" class="node"><title>Node55</title>
<g id="a_node12"><a xlink:href="../../d1/d2a/classinfra_1_1_bounded_string_base.html#aab36b8eaee21d6ab3be734e07f499382" target="_top" xlink:title="infra::BoundedStringBase\l::size">
<polygon fill="white" stroke="black" points="488,-88.5 488,-118.5 615,-118.5 615,-88.5 488,-88.5"/>
<text text-anchor="start" x="496" y="-106.5" font-family="Helvetica,sans-Serif" font-size="10.00">infra::BoundedStringBase</text>
<text text-anchor="middle" x="551.5" y="-95.5" font-family="Helvetica,sans-Serif" font-size="10.00">::size</text>
</a>
</g>
</g>
<!-- Node53&#45;&gt;Node55 -->
<g id="edge12" class="edge"><title>Node53&#45;&gt;Node55</title>
<path fill="none" stroke="midnightblue" d="M247.788,-113.325C267.014,-101.21 296.023,-85.1942 324,-78.5 379.919,-65.12 445.347,-74.9897 491.465,-86.023"/>
<polygon fill="midnightblue" stroke="midnightblue" points="490.745,-89.4504 501.293,-88.4618 492.431,-82.6564 490.745,-89.4504"/>
</g>
<!-- Node56 -->
<g id="node13" class="node"><title>Node56</title>
<g id="a_node13"><a xlink:href="../../d3/d5c/classinfra_1_1_json_tokenizer.html#a6b99af199f5f080d408375a0f23ac32c" target="_top" xlink:title="infra::JsonTokenizer\l::TryCreateStringToken">
<polygon fill="white" stroke="black" points="330,-137.5 330,-167.5 446,-167.5 446,-137.5 330,-137.5"/>
<text text-anchor="start" x="338" y="-155.5" font-family="Helvetica,sans-Serif" font-size="10.00">infra::JsonTokenizer</text>
<text text-anchor="middle" x="388" y="-144.5" font-family="Helvetica,sans-Serif" font-size="10.00">::TryCreateStringToken</text>
</a>
</g>
</g>
<!-- Node53&#45;&gt;Node56 -->
<g id="edge13" class="edge"><title>Node53&#45;&gt;Node56</title>
<path fill="none" stroke="midnightblue" d="M276.157,-136.028C289.986,-138.083 305.19,-140.342 319.786,-142.512"/>
<polygon fill="midnightblue" stroke="midnightblue" points="319.364,-145.987 329.77,-143.995 320.393,-139.063 319.364,-145.987"/>
</g>
<!-- Node58 -->
<g id="node15" class="node"><title>Node58</title>
<g id="a_node15"><a xlink:href="../../d3/d5c/classinfra_1_1_json_tokenizer.html#a4203f4a0d1a65b20672053d7a4e5b8be" target="_top" xlink:title="infra::JsonTokenizer\l::TryCreateIntegerToken">
<polygon fill="white" stroke="black" points="328,-88.5 328,-118.5 448,-118.5 448,-88.5 328,-88.5"/>
<text text-anchor="start" x="336" y="-106.5" font-family="Helvetica,sans-Serif" font-size="10.00">infra::JsonTokenizer</text>
<text text-anchor="middle" x="388" y="-95.5" font-family="Helvetica,sans-Serif" font-size="10.00">::TryCreateIntegerToken</text>
</a>
</g>
</g>
<!-- Node53&#45;&gt;Node58 -->
<g id="edge16" class="edge"><title>Node53&#45;&gt;Node58</title>
<path fill="none" stroke="midnightblue" d="M276.157,-120.658C289.332,-118.619 303.755,-116.386 317.711,-114.226"/>
<polygon fill="midnightblue" stroke="midnightblue" points="318.42,-117.658 327.767,-112.669 317.349,-110.74 318.42,-117.658"/>
</g>
<!-- Node59 -->
<g id="node16" class="node"><title>Node59</title>
<g id="a_node16"><a xlink:href="../../d3/d5c/classinfra_1_1_json_tokenizer.html#a7fde4788359094c8ac575d0aea08a33b" target="_top" xlink:title="infra::JsonTokenizer\l::TryCreateIdentifierToken">
<polygon fill="white" stroke="black" points="324.5,-186.5 324.5,-216.5 451.5,-216.5 451.5,-186.5 324.5,-186.5"/>
<text text-anchor="start" x="332.5" y="-204.5" font-family="Helvetica,sans-Serif" font-size="10.00">infra::JsonTokenizer</text>
<text text-anchor="middle" x="388" y="-193.5" font-family="Helvetica,sans-Serif" font-size="10.00">::TryCreateIdentifierToken</text>
</a>
</g>
</g>
<!-- Node53&#45;&gt;Node59 -->
<g id="edge19" class="edge"><title>Node53&#45;&gt;Node59</title>
<path fill="none" stroke="midnightblue" d="M254.967,-143.584C274.398,-153.35 300.505,-166.131 324,-176.5 328.658,-178.556 333.541,-180.63 338.439,-182.659"/>
<polygon fill="midnightblue" stroke="midnightblue" points="337.244,-185.951 347.825,-186.487 339.887,-179.47 337.244,-185.951"/>
</g>
<!-- Node54&#45;&gt;Node55 -->
<g id="edge11" class="edge"><title>Node54&#45;&gt;Node55</title>
<path fill="none" stroke="midnightblue" d="M421.969,-30.5317C431.726,-35.1589 442.371,-40.3853 452,-45.5 474.241,-57.3142 498.636,-71.6679 517.584,-83.1403"/>
<polygon fill="midnightblue" stroke="midnightblue" points="515.785,-86.1425 526.147,-88.3526 519.425,-80.1632 515.785,-86.1425"/>
</g>
<!-- Node56&#45;&gt;Node55 -->
<g id="edge14" class="edge"><title>Node56&#45;&gt;Node55</title>
<path fill="none" stroke="midnightblue" d="M438.773,-137.399C455.275,-132.392 473.812,-126.768 490.972,-121.561"/>
<polygon fill="midnightblue" stroke="midnightblue" points="492.338,-124.804 500.891,-118.552 490.306,-118.106 492.338,-124.804"/>
</g>
<!-- Node57 -->
<g id="node14" class="node"><title>Node57</title>
<g id="a_node14"><a xlink:href="../../d1/d2a/classinfra_1_1_bounded_string_base.html#a46ec1a3a673136ace03af8c6ec94aa89" target="_top" xlink:title="infra::BoundedStringBase\l::substr">
<polygon fill="white" stroke="black" points="488,-137.5 488,-167.5 615,-167.5 615,-137.5 488,-137.5"/>
<text text-anchor="start" x="496" y="-155.5" font-family="Helvetica,sans-Serif" font-size="10.00">infra::BoundedStringBase</text>
<text text-anchor="middle" x="551.5" y="-144.5" font-family="Helvetica,sans-Serif" font-size="10.00">::substr</text>
</a>
</g>
</g>
<!-- Node56&#45;&gt;Node57 -->
<g id="edge15" class="edge"><title>Node56&#45;&gt;Node57</title>
<path fill="none" stroke="midnightblue" d="M446.394,-152.5C456.562,-152.5 467.271,-152.5 477.796,-152.5"/>
<polygon fill="midnightblue" stroke="midnightblue" points="477.807,-156 487.807,-152.5 477.807,-149 477.807,-156"/>
</g>
<!-- Node58&#45;&gt;Node55 -->
<g id="edge17" class="edge"><title>Node58&#45;&gt;Node55</title>
<path fill="none" stroke="midnightblue" d="M448.22,-103.5C457.774,-103.5 467.762,-103.5 477.594,-103.5"/>
<polygon fill="midnightblue" stroke="midnightblue" points="477.758,-107 487.758,-103.5 477.758,-100 477.758,-107"/>
</g>
<!-- Node58&#45;&gt;Node57 -->
<g id="edge18" class="edge"><title>Node58&#45;&gt;Node57</title>
<path fill="none" stroke="midnightblue" d="M438.773,-118.601C455.275,-123.608 473.812,-129.232 490.972,-134.439"/>
<polygon fill="midnightblue" stroke="midnightblue" points="490.306,-137.894 500.891,-137.448 492.338,-131.196 490.306,-137.894"/>
</g>
<!-- Node59&#45;&gt;Node55 -->
<g id="edge20" class="edge"><title>Node59&#45;&gt;Node55</title>
<path fill="none" stroke="midnightblue" d="M435.705,-186.461C441.471,-183.616 447.063,-180.311 452,-176.5 473.39,-159.986 466.518,-143.895 488,-127.5 489.802,-126.125 491.692,-124.82 493.646,-123.583"/>
<polygon fill="midnightblue" stroke="midnightblue" points="495.546,-126.53 502.551,-118.582 492.118,-120.426 495.546,-126.53"/>
</g>
<!-- Node59&#45;&gt;Node57 -->
<g id="edge21" class="edge"><title>Node59&#45;&gt;Node57</title>
<path fill="none" stroke="midnightblue" d="M438.773,-186.399C455.275,-181.392 473.812,-175.768 490.972,-170.561"/>
<polygon fill="midnightblue" stroke="midnightblue" points="492.338,-173.804 500.891,-167.552 490.306,-167.106 492.338,-173.804"/>
</g>
</g>
</svg>
