<?xml version="1.0" encoding="UTF-8" standalone="no"?>
<!DOCTYPE svg PUBLIC "-//W3C//DTD SVG 1.1//EN"
 "http://www.w3.org/Graphics/SVG/1.1/DTD/svg11.dtd">
<!-- Generated by graphviz version 2.38.0 (20140413.2041)
 -->
<!-- Title: infra::AsBase64 Pages: 1 -->
<svg width="261pt" height="88pt"
 viewBox="0.00 0.00 261.00 88.00" xmlns="http://www.w3.org/2000/svg" xmlns:xlink="http://www.w3.org/1999/xlink">
<g id="graph0" class="graph" transform="scale(1 1) rotate(0) translate(4 84)">
<title>infra::AsBase64</title>
<polygon fill="white" stroke="none" points="-4,4 -4,-84 257,-84 257,4 -4,4"/>
<!-- Node21 -->
<g id="node1" class="node"><title>Node21</title>
<polygon fill="#bfbfbf" stroke="black" points="0,-30 0,-49 86,-49 86,-30 0,-30"/>
<text text-anchor="middle" x="43" y="-37" font-family="Helvetica,sans-Serif" font-size="10.00">infra::AsBase64</text>
</g>
<!-- Node22 -->
<g id="node2" class="node"><title>Node22</title>
<g id="a_node2"><a xlink:href="../../df/d23/classservices_1_1_certificates_mbed_tls.html#a63f4477d0889d479f476070910087cef" target="_top" xlink:title="services::CertificatesMbed\lTls::WriteOwnCertificate">
<polygon fill="white" stroke="black" points="122,-49.5 122,-79.5 253,-79.5 253,-49.5 122,-49.5"/>
<text text-anchor="start" x="130" y="-67.5" font-family="Helvetica,sans-Serif" font-size="10.00">services::CertificatesMbed</text>
<text text-anchor="middle" x="187.5" y="-56.5" font-family="Helvetica,sans-Serif" font-size="10.00">Tls::WriteOwnCertificate</text>
</a>
</g>
</g>
<!-- Node21&#45;&gt;Node22 -->
<g id="edge1" class="edge"><title>Node21&#45;&gt;Node22</title>
<path fill="none" stroke="midnightblue" d="M96.2961,-48.6748C104.613,-50.1339 113.302,-51.6583 121.863,-53.1601"/>
<polygon fill="midnightblue" stroke="midnightblue" points="96.8233,-45.2139 86.3689,-46.9331 95.6136,-52.1086 96.8233,-45.2139"/>
</g>
<!-- Node23 -->
<g id="node3" class="node"><title>Node23</title>
<g id="a_node3"><a xlink:href="../../df/d23/classservices_1_1_certificates_mbed_tls.html#a5705b4ef4325d0b778078e6761e35fec" target="_top" xlink:title="services::CertificatesMbed\lTls::WritePrivateKey">
<polygon fill="white" stroke="black" points="122,-0.5 122,-30.5 253,-30.5 253,-0.5 122,-0.5"/>
<text text-anchor="start" x="130" y="-18.5" font-family="Helvetica,sans-Serif" font-size="10.00">services::CertificatesMbed</text>
<text text-anchor="middle" x="187.5" y="-7.5" font-family="Helvetica,sans-Serif" font-size="10.00">Tls::WritePrivateKey</text>
</a>
</g>
</g>
<!-- Node21&#45;&gt;Node23 -->
<g id="edge2" class="edge"><title>Node21&#45;&gt;Node23</title>
<path fill="none" stroke="midnightblue" d="M96.2961,-30.6922C104.613,-29.2914 113.302,-27.8281 121.863,-26.3863"/>
<polygon fill="midnightblue" stroke="midnightblue" points="95.6487,-27.2519 86.3689,-32.3642 96.8113,-34.1547 95.6487,-27.2519"/>
</g>
</g>
</svg>
