<?xml version="1.0" encoding="UTF-8" standalone="no"?>
<!DOCTYPE svg PUBLIC "-//W3C//DTD SVG 1.1//EN"
 "http://www.w3.org/Graphics/SVG/1.1/DTD/svg11.dtd">
<!-- Generated by graphviz version 2.38.0 (20140413.2041)
 -->
<!-- Title: infra::Now Pages: 1 -->
<svg width="841pt" height="235pt"
 viewBox="0.00 0.00 841.00 235.00" xmlns="http://www.w3.org/2000/svg" xmlns:xlink="http://www.w3.org/1999/xlink">
<g id="graph0" class="graph" transform="scale(1 1) rotate(0) translate(4 231)">
<title>infra::Now</title>
<polygon fill="white" stroke="none" points="-4,4 -4,-231 837,-231 837,4 -4,4"/>
<!-- Node580 -->
<g id="node1" class="node"><title>Node580</title>
<polygon fill="#bfbfbf" stroke="black" points="0,-104 0,-123 59,-123 59,-104 0,-104"/>
<text text-anchor="middle" x="29.5" y="-111" font-family="Helvetica,sans-Serif" font-size="10.00">infra::Now</text>
</g>
<!-- Node581 -->
<g id="node2" class="node"><title>Node581</title>
<g id="a_node2"><a xlink:href="../../d0/d0e/classservices_1_1_name_resolver_cache.html#a94507ff8cefc3037d6695fdc82c827e3" target="_top" xlink:title="services::NameResolverCache\l::Cleanup">
<polygon fill="white" stroke="black" points="110.5,-196.5 110.5,-226.5 258.5,-226.5 258.5,-196.5 110.5,-196.5"/>
<text text-anchor="start" x="118.5" y="-214.5" font-family="Helvetica,sans-Serif" font-size="10.00">services::NameResolverCache</text>
<text text-anchor="middle" x="184.5" y="-203.5" font-family="Helvetica,sans-Serif" font-size="10.00">::Cleanup</text>
</a>
</g>
</g>
<!-- Node580&#45;&gt;Node581 -->
<g id="edge1" class="edge"><title>Node580&#45;&gt;Node581</title>
<path fill="none" stroke="midnightblue" d="M41.633,-131.519C53.0097,-148.441 72.2082,-173.231 95,-187.5 100.532,-190.963 106.563,-193.933 112.789,-196.478"/>
<polygon fill="midnightblue" stroke="midnightblue" points="44.518,-129.535 36.1442,-123.044 38.6426,-133.34 44.518,-129.535"/>
</g>
<!-- Node585 -->
<g id="node6" class="node"><title>Node585</title>
<g id="a_node6"><a xlink:href="../../d5/dcb/classservices_1_1_repeating_button_1_1_fire_timer.html#a02028e13fbd288a5c276fa3cc0fac8fd" target="_top" xlink:title="services::RepeatingButton\l::FireTimer::ComputeNextTriggerTime">
<polygon fill="white" stroke="black" points="95,-147.5 95,-177.5 274,-177.5 274,-147.5 95,-147.5"/>
<text text-anchor="start" x="103" y="-165.5" font-family="Helvetica,sans-Serif" font-size="10.00">services::RepeatingButton</text>
<text text-anchor="middle" x="184.5" y="-154.5" font-family="Helvetica,sans-Serif" font-size="10.00">::FireTimer::ComputeNextTriggerTime</text>
</a>
</g>
</g>
<!-- Node580&#45;&gt;Node585 -->
<g id="edge5" class="edge"><title>Node580&#45;&gt;Node585</title>
<path fill="none" stroke="midnightblue" d="M62.6723,-126.734C72.9229,-130.744 84.3645,-135.007 95,-138.5 104.529,-141.629 114.727,-144.672 124.689,-147.481"/>
<polygon fill="midnightblue" stroke="midnightblue" points="63.8601,-123.44 53.2744,-123 61.2756,-129.945 63.8601,-123.44"/>
</g>
<!-- Node586 -->
<g id="node7" class="node"><title>Node586</title>
<g id="a_node7"><a xlink:href="../../d8/dbd/classservices_1_1_name_lookup_win.html#afcf5c4d0f1af787356c6af874c8d0541" target="_top" xlink:title="services::NameLookupWin\l::LookupIPv4">
<polygon fill="white" stroke="black" points="118.5,-98.5 118.5,-128.5 250.5,-128.5 250.5,-98.5 118.5,-98.5"/>
<text text-anchor="start" x="126.5" y="-116.5" font-family="Helvetica,sans-Serif" font-size="10.00">services::NameLookupWin</text>
<text text-anchor="middle" x="184.5" y="-105.5" font-family="Helvetica,sans-Serif" font-size="10.00">::LookupIPv4</text>
</a>
</g>
</g>
<!-- Node580&#45;&gt;Node586 -->
<g id="edge6" class="edge"><title>Node580&#45;&gt;Node586</title>
<path fill="none" stroke="midnightblue" d="M69.5997,-113.5C84.4427,-113.5 101.777,-113.5 118.38,-113.5"/>
<polygon fill="midnightblue" stroke="midnightblue" points="69.2782,-110 59.2781,-113.5 69.2781,-117 69.2782,-110"/>
</g>
<!-- Node589 -->
<g id="node10" class="node"><title>Node589</title>
<g id="a_node10"><a xlink:href="../../d5/d9a/classservices_1_1_dns_resolver_1_1_reply_parser.html#a0585c16558767165c4fe5842007fc935" target="_top" xlink:title="services::DnsResolver\l::ReplyParser::ReadAnswer">
<polygon fill="white" stroke="black" points="116,-49.5 116,-79.5 253,-79.5 253,-49.5 116,-49.5"/>
<text text-anchor="start" x="124" y="-67.5" font-family="Helvetica,sans-Serif" font-size="10.00">services::DnsResolver</text>
<text text-anchor="middle" x="184.5" y="-56.5" font-family="Helvetica,sans-Serif" font-size="10.00">::ReplyParser::ReadAnswer</text>
</a>
</g>
</g>
<!-- Node580&#45;&gt;Node589 -->
<g id="edge9" class="edge"><title>Node580&#45;&gt;Node589</title>
<path fill="none" stroke="midnightblue" d="M62.6723,-100.266C72.9229,-96.2561 84.3645,-91.9926 95,-88.5 104.529,-85.3709 114.727,-82.3284 124.689,-79.5194"/>
<polygon fill="midnightblue" stroke="midnightblue" points="61.2756,-97.0549 53.2744,-104 63.8601,-103.56 61.2756,-97.0549"/>
</g>
<!-- Node590 -->
<g id="node11" class="node"><title>Node590</title>
<g id="a_node11"><a xlink:href="../../d5/dcb/classservices_1_1_repeating_button_1_1_fire_timer.html#a35c1ff01ea5125e5d464aba3eeab3122" target="_top" xlink:title="services::RepeatingButton\l::FireTimer::Start">
<polygon fill="white" stroke="black" points="119.5,-0.5 119.5,-30.5 249.5,-30.5 249.5,-0.5 119.5,-0.5"/>
<text text-anchor="start" x="127.5" y="-18.5" font-family="Helvetica,sans-Serif" font-size="10.00">services::RepeatingButton</text>
<text text-anchor="middle" x="184.5" y="-7.5" font-family="Helvetica,sans-Serif" font-size="10.00">::FireTimer::Start</text>
</a>
</g>
</g>
<!-- Node580&#45;&gt;Node590 -->
<g id="edge10" class="edge"><title>Node580&#45;&gt;Node590</title>
<path fill="none" stroke="midnightblue" d="M41.633,-95.481C53.0097,-78.5589 72.2082,-53.7687 95,-39.5 102.421,-34.8539 110.739,-31.0964 119.225,-28.0601"/>
<polygon fill="midnightblue" stroke="midnightblue" points="38.6426,-93.6598 36.1442,-103.956 44.518,-97.4651 38.6426,-93.6598"/>
</g>
<!-- Node582 -->
<g id="node3" class="node"><title>Node582</title>
<g id="a_node3"><a xlink:href="../../d0/d0e/classservices_1_1_name_resolver_cache.html#a4bea9f7ed8aa9320e48906769a0ad9f6" target="_top" xlink:title="services::NameResolverCache\l::AddToCache">
<polygon fill="white" stroke="black" points="313.5,-196.5 313.5,-226.5 461.5,-226.5 461.5,-196.5 313.5,-196.5"/>
<text text-anchor="start" x="321.5" y="-214.5" font-family="Helvetica,sans-Serif" font-size="10.00">services::NameResolverCache</text>
<text text-anchor="middle" x="387.5" y="-203.5" font-family="Helvetica,sans-Serif" font-size="10.00">::AddToCache</text>
</a>
</g>
</g>
<!-- Node581&#45;&gt;Node582 -->
<g id="edge2" class="edge"><title>Node581&#45;&gt;Node582</title>
<path fill="none" stroke="midnightblue" d="M268.788,-211.5C283.598,-211.5 298.921,-211.5 313.42,-211.5"/>
<polygon fill="midnightblue" stroke="midnightblue" points="268.634,-208 258.634,-211.5 268.634,-215 268.634,-208"/>
</g>
<!-- Node583 -->
<g id="node4" class="node"><title>Node583</title>
<g id="a_node4"><a xlink:href="../../d0/d0e/classservices_1_1_name_resolver_cache.html#a8d759a5e4b14b66215080996aed525c0" target="_top" xlink:title="services::NameResolverCache\l::TryAddToCache">
<polygon fill="white" stroke="black" points="501,-196.5 501,-226.5 649,-226.5 649,-196.5 501,-196.5"/>
<text text-anchor="start" x="509" y="-214.5" font-family="Helvetica,sans-Serif" font-size="10.00">services::NameResolverCache</text>
<text text-anchor="middle" x="575" y="-203.5" font-family="Helvetica,sans-Serif" font-size="10.00">::TryAddToCache</text>
</a>
</g>
</g>
<!-- Node582&#45;&gt;Node583 -->
<g id="edge3" class="edge"><title>Node582&#45;&gt;Node583</title>
<path fill="none" stroke="midnightblue" d="M471.595,-211.5C481.303,-211.5 491.153,-211.5 500.714,-211.5"/>
<polygon fill="midnightblue" stroke="midnightblue" points="471.548,-208 461.548,-211.5 471.548,-215 471.548,-208"/>
</g>
<!-- Node584 -->
<g id="node5" class="node"><title>Node584</title>
<g id="a_node5"><a xlink:href="../../d0/d0e/classservices_1_1_name_resolver_cache.html#acf7510ed181dff53bc67837c490b6062" target="_top" xlink:title="services::NameResolverCache\l::NameLookupSuccess">
<polygon fill="white" stroke="black" points="685,-196.5 685,-226.5 833,-226.5 833,-196.5 685,-196.5"/>
<text text-anchor="start" x="693" y="-214.5" font-family="Helvetica,sans-Serif" font-size="10.00">services::NameResolverCache</text>
<text text-anchor="middle" x="759" y="-203.5" font-family="Helvetica,sans-Serif" font-size="10.00">::NameLookupSuccess</text>
</a>
</g>
</g>
<!-- Node583&#45;&gt;Node584 -->
<g id="edge4" class="edge"><title>Node583&#45;&gt;Node584</title>
<path fill="none" stroke="midnightblue" d="M659.516,-211.5C667.992,-211.5 676.556,-211.5 684.91,-211.5"/>
<polygon fill="midnightblue" stroke="midnightblue" points="659.24,-208 649.24,-211.5 659.24,-215 659.24,-208"/>
</g>
<!-- Node587 -->
<g id="node8" class="node"><title>Node587</title>
<g id="a_node8"><a xlink:href="../../d8/dbd/classservices_1_1_name_lookup_win.html#a94bebcaf572453651531050398cb47d8" target="_top" xlink:title="services::NameLookupWin::Run">
<polygon fill="white" stroke="black" points="310,-104 310,-123 465,-123 465,-104 310,-104"/>
<text text-anchor="middle" x="387.5" y="-111" font-family="Helvetica,sans-Serif" font-size="10.00">services::NameLookupWin::Run</text>
</a>
</g>
</g>
<!-- Node586&#45;&gt;Node587 -->
<g id="edge7" class="edge"><title>Node586&#45;&gt;Node587</title>
<path fill="none" stroke="midnightblue" d="M261.057,-113.5C276.951,-113.5 293.733,-113.5 309.673,-113.5"/>
<polygon fill="midnightblue" stroke="midnightblue" points="260.759,-110 250.759,-113.5 260.759,-117 260.759,-110"/>
</g>
<!-- Node588 -->
<g id="node9" class="node"><title>Node588</title>
<g id="a_node9"><a xlink:href="../../d8/dbd/classservices_1_1_name_lookup_win.html#ae00677ab7da6b7f7e2aba8eef6804504" target="_top" xlink:title="services::NameLookupWin\l::NameLookupWin">
<polygon fill="white" stroke="black" points="509,-98.5 509,-128.5 641,-128.5 641,-98.5 509,-98.5"/>
<text text-anchor="start" x="517" y="-116.5" font-family="Helvetica,sans-Serif" font-size="10.00">services::NameLookupWin</text>
<text text-anchor="middle" x="575" y="-105.5" font-family="Helvetica,sans-Serif" font-size="10.00">::NameLookupWin</text>
</a>
</g>
</g>
<!-- Node587&#45;&gt;Node588 -->
<g id="edge8" class="edge"><title>Node587&#45;&gt;Node588</title>
<path fill="none" stroke="midnightblue" d="M475.338,-113.5C486.628,-113.5 498.037,-113.5 508.889,-113.5"/>
<polygon fill="midnightblue" stroke="midnightblue" points="475.021,-110 465.021,-113.5 475.021,-117 475.021,-110"/>
</g>
<!-- Node591 -->
<g id="node12" class="node"><title>Node591</title>
<g id="a_node12"><a xlink:href="../../d0/d08/classservices_1_1_repeating_button.html#a18153734f98c67f2096d641f5fb8d66f" target="_top" xlink:title="services::RepeatingButton\l::ButtonPressed">
<polygon fill="white" stroke="black" points="322.5,-0.5 322.5,-30.5 452.5,-30.5 452.5,-0.5 322.5,-0.5"/>
<text text-anchor="start" x="330.5" y="-18.5" font-family="Helvetica,sans-Serif" font-size="10.00">services::RepeatingButton</text>
<text text-anchor="middle" x="387.5" y="-7.5" font-family="Helvetica,sans-Serif" font-size="10.00">::ButtonPressed</text>
</a>
</g>
</g>
<!-- Node590&#45;&gt;Node591 -->
<g id="edge11" class="edge"><title>Node590&#45;&gt;Node591</title>
<path fill="none" stroke="midnightblue" d="M259.882,-15.5C280.368,-15.5 302.41,-15.5 322.27,-15.5"/>
<polygon fill="midnightblue" stroke="midnightblue" points="259.65,-12.0001 249.65,-15.5 259.65,-19.0001 259.65,-12.0001"/>
</g>
<!-- Node592 -->
<g id="node13" class="node"><title>Node592</title>
<g id="a_node13"><a xlink:href="../../d0/d08/classservices_1_1_repeating_button.html#af9db5b4934e4610beb5e5071de6c58b7" target="_top" xlink:title="services::RepeatingButton\l::ButtonChanged">
<polygon fill="white" stroke="black" points="510,-0.5 510,-30.5 640,-30.5 640,-0.5 510,-0.5"/>
<text text-anchor="start" x="518" y="-18.5" font-family="Helvetica,sans-Serif" font-size="10.00">services::RepeatingButton</text>
<text text-anchor="middle" x="575" y="-7.5" font-family="Helvetica,sans-Serif" font-size="10.00">::ButtonChanged</text>
</a>
</g>
</g>
<!-- Node591&#45;&gt;Node592 -->
<g id="edge12" class="edge"><title>Node591&#45;&gt;Node592</title>
<path fill="none" stroke="midnightblue" d="M462.735,-15.5C478.349,-15.5 494.694,-15.5 509.899,-15.5"/>
<polygon fill="midnightblue" stroke="midnightblue" points="462.598,-12.0001 452.598,-15.5 462.598,-19.0001 462.598,-12.0001"/>
</g>
<!-- Node593 -->
<g id="node14" class="node"><title>Node593</title>
<g id="a_node14"><a xlink:href="../../d0/d08/classservices_1_1_repeating_button.html#aa38e30277c5df615ae1a86617c4127c0" target="_top" xlink:title="services::RepeatingButton\l::RepeatingButton">
<polygon fill="white" stroke="black" points="694,-0.5 694,-30.5 824,-30.5 824,-0.5 694,-0.5"/>
<text text-anchor="start" x="702" y="-18.5" font-family="Helvetica,sans-Serif" font-size="10.00">services::RepeatingButton</text>
<text text-anchor="middle" x="759" y="-7.5" font-family="Helvetica,sans-Serif" font-size="10.00">::RepeatingButton</text>
</a>
</g>
</g>
<!-- Node592&#45;&gt;Node593 -->
<g id="edge13" class="edge"><title>Node592&#45;&gt;Node593</title>
<path fill="none" stroke="midnightblue" d="M650.504,-15.5C664.867,-15.5 679.798,-15.5 693.8,-15.5"/>
<polygon fill="midnightblue" stroke="midnightblue" points="650.166,-12.0001 640.166,-15.5 650.166,-19.0001 650.166,-12.0001"/>
</g>
</g>
</svg>
