<?xml version="1.0" encoding="UTF-8" standalone="no"?>
<!DOCTYPE svg PUBLIC "-//W3C//DTD SVG 1.1//EN"
 "http://www.w3.org/Graphics/SVG/1.1/DTD/svg11.dtd">
<!-- Generated by graphviz version 2.38.0 (20140413.2041)
 -->
<!-- Title: infra::MakeVector Pages: 1 -->
<svg width="262pt" height="78pt"
 viewBox="0.00 0.00 262.00 77.50" xmlns="http://www.w3.org/2000/svg" xmlns:xlink="http://www.w3.org/1999/xlink">
<g id="graph0" class="graph" transform="scale(1 1) rotate(0) translate(4 73.5)">
<title>infra::MakeVector</title>
<polygon fill="white" stroke="none" points="-4,4 -4,-73.5 258,-73.5 258,4 -4,4"/>
<!-- Node572 -->
<g id="node1" class="node"><title>Node572</title>
<polygon fill="#bfbfbf" stroke="black" points="0,-22.5 0,-41.5 93,-41.5 93,-22.5 0,-22.5"/>
<text text-anchor="middle" x="46.5" y="-29.5" font-family="Helvetica,sans-Serif" font-size="10.00">infra::MakeVector</text>
</g>
<!-- Node573 -->
<g id="node2" class="node"><title>Node573</title>
<g id="a_node2"><a xlink:href="../../d0/d6d/classinfra_1_1_memory_range.html#a7a83ceae17802af5ecebfb9557912ece" target="_top" xlink:title="infra::MemoryRange\l::begin">
<polygon fill="white" stroke="black" points="139.5,-39 139.5,-69 243.5,-69 243.5,-39 139.5,-39"/>
<text text-anchor="start" x="147.5" y="-57" font-family="Helvetica,sans-Serif" font-size="10.00">infra::MemoryRange</text>
<text text-anchor="middle" x="191.5" y="-46" font-family="Helvetica,sans-Serif" font-size="10.00">::begin</text>
</a>
</g>
</g>
<!-- Node572&#45;&gt;Node573 -->
<g id="edge1" class="edge"><title>Node572&#45;&gt;Node573</title>
<path fill="none" stroke="midnightblue" d="M93.1393,-39.0214C104.634,-40.7898 117.159,-42.7167 129.281,-44.5817"/>
<polygon fill="midnightblue" stroke="midnightblue" points="128.922,-48.0675 139.338,-46.1289 129.986,-41.1489 128.922,-48.0675"/>
</g>
<!-- Node574 -->
<g id="node3" class="node"><title>Node574</title>
<g id="a_node3"><a xlink:href="../../d0/d6d/classinfra_1_1_memory_range.html#a1be4daa094045e4e3bff3b2748646c12" target="_top" xlink:title="infra::MemoryRange::end">
<polygon fill="white" stroke="black" points="129,-0.5 129,-19.5 254,-19.5 254,-0.5 129,-0.5"/>
<text text-anchor="middle" x="191.5" y="-7.5" font-family="Helvetica,sans-Serif" font-size="10.00">infra::MemoryRange::end</text>
</a>
</g>
</g>
<!-- Node572&#45;&gt;Node574 -->
<g id="edge2" class="edge"><title>Node572&#45;&gt;Node574</title>
<path fill="none" stroke="midnightblue" d="M93.1393,-24.9786C101.394,-23.7086 110.181,-22.3568 118.968,-21.005"/>
<polygon fill="midnightblue" stroke="midnightblue" points="119.509,-24.4629 128.861,-19.483 118.445,-17.5443 119.509,-24.4629"/>
</g>
</g>
</svg>
