<?xml version="1.0" encoding="UTF-8" standalone="no"?>
<!DOCTYPE svg PUBLIC "-//W3C//DTD SVG 1.1//EN"
 "http://www.w3.org/Graphics/SVG/1.1/DTD/svg11.dtd">
<!-- Generated by graphviz version 2.38.0 (20140413.2041)
 -->
<!-- Title: infra::AsHex Pages: 1 -->
<svg width="266pt" height="235pt"
 viewBox="0.00 0.00 266.00 235.00" xmlns="http://www.w3.org/2000/svg" xmlns:xlink="http://www.w3.org/1999/xlink">
<g id="graph0" class="graph" transform="scale(1 1) rotate(0) translate(4 231)">
<title>infra::AsHex</title>
<polygon fill="white" stroke="none" points="-4,4 -4,-231 262,-231 262,4 -4,4"/>
<!-- Node25 -->
<g id="node1" class="node"><title>Node25</title>
<polygon fill="#bfbfbf" stroke="black" points="0,-104 0,-123 70,-123 70,-104 0,-104"/>
<text text-anchor="middle" x="35" y="-111" font-family="Helvetica,sans-Serif" font-size="10.00">infra::AsHex</text>
</g>
<!-- Node26 -->
<g id="node2" class="node"><title>Node26</title>
<g id="a_node2"><a xlink:href="../../df/dbd/classservices_1_1_tracing_stream_reader.html#a39adcec02f721adb154832c16e43d232" target="_top" xlink:title="services::TracingStreamReader\l::Extract">
<polygon fill="white" stroke="black" points="106,-196.5 106,-226.5 258,-226.5 258,-196.5 106,-196.5"/>
<text text-anchor="start" x="114" y="-214.5" font-family="Helvetica,sans-Serif" font-size="10.00">services::TracingStreamReader</text>
<text text-anchor="middle" x="182" y="-203.5" font-family="Helvetica,sans-Serif" font-size="10.00">::Extract</text>
</a>
</g>
</g>
<!-- Node25&#45;&gt;Node26 -->
<g id="edge1" class="edge"><title>Node25&#45;&gt;Node26</title>
<path fill="none" stroke="midnightblue" d="M48.7797,-131.529C61.511,-148.254 82.5068,-172.724 106,-187.5 111.439,-190.921 117.409,-193.895 123.532,-196.47"/>
<polygon fill="midnightblue" stroke="midnightblue" points="51.3471,-129.113 42.5936,-123.145 45.7143,-133.269 51.3471,-129.113"/>
</g>
<!-- Node27 -->
<g id="node3" class="node"><title>Node27</title>
<g id="a_node3"><a xlink:href="../../df/dbd/classservices_1_1_tracing_stream_reader.html#a621b61dc781f18c75279a29198e65884" target="_top" xlink:title="services::TracingStreamReader\l::ExtractContiguousRange">
<polygon fill="white" stroke="black" points="106,-147.5 106,-177.5 258,-177.5 258,-147.5 106,-147.5"/>
<text text-anchor="start" x="114" y="-165.5" font-family="Helvetica,sans-Serif" font-size="10.00">services::TracingStreamReader</text>
<text text-anchor="middle" x="182" y="-154.5" font-family="Helvetica,sans-Serif" font-size="10.00">::ExtractContiguousRange</text>
</a>
</g>
</g>
<!-- Node25&#45;&gt;Node27 -->
<g id="edge2" class="edge"><title>Node25&#45;&gt;Node27</title>
<path fill="none" stroke="midnightblue" d="M71.8512,-126.563C82.7873,-130.478 94.8633,-134.731 106,-138.5 114.676,-141.437 123.948,-144.48 132.91,-147.373"/>
<polygon fill="midnightblue" stroke="midnightblue" points="72.7823,-123.178 62.1879,-123.086 70.4125,-129.765 72.7823,-123.178"/>
</g>
<!-- Node28 -->
<g id="node4" class="node"><title>Node28</title>
<g id="a_node4"><a xlink:href="../../df/dbd/classservices_1_1_tracing_stream_reader.html#aff8c3e3c2245bba5f2c908d9762b6b98" target="_top" xlink:title="services::TracingStreamReader\l::PeekContiguousRange">
<polygon fill="white" stroke="black" points="106,-98.5 106,-128.5 258,-128.5 258,-98.5 106,-98.5"/>
<text text-anchor="start" x="114" y="-116.5" font-family="Helvetica,sans-Serif" font-size="10.00">services::TracingStreamReader</text>
<text text-anchor="middle" x="182" y="-105.5" font-family="Helvetica,sans-Serif" font-size="10.00">::PeekContiguousRange</text>
</a>
</g>
</g>
<!-- Node25&#45;&gt;Node28 -->
<g id="edge3" class="edge"><title>Node25&#45;&gt;Node28</title>
<path fill="none" stroke="midnightblue" d="M80.5535,-113.5C88.5724,-113.5 97.1299,-113.5 105.739,-113.5"/>
<polygon fill="midnightblue" stroke="midnightblue" points="80.363,-110 70.363,-113.5 80.3629,-117 80.363,-110"/>
</g>
<!-- Node29 -->
<g id="node5" class="node"><title>Node29</title>
<g id="a_node5"><a xlink:href="../../d7/d35/classservices_1_1_tracing_flash.html#aef065129a5911ba49726eec5fc37a8bf" target="_top" xlink:title="services::TracingFlash\l::ReadBuffer">
<polygon fill="white" stroke="black" points="125.5,-49.5 125.5,-79.5 238.5,-79.5 238.5,-49.5 125.5,-49.5"/>
<text text-anchor="start" x="133.5" y="-67.5" font-family="Helvetica,sans-Serif" font-size="10.00">services::TracingFlash</text>
<text text-anchor="middle" x="182" y="-56.5" font-family="Helvetica,sans-Serif" font-size="10.00">::ReadBuffer</text>
</a>
</g>
</g>
<!-- Node25&#45;&gt;Node29 -->
<g id="edge4" class="edge"><title>Node25&#45;&gt;Node29</title>
<path fill="none" stroke="midnightblue" d="M73.344,-100.63C83.8964,-97.0117 95.3936,-93.0859 106,-89.5 115.622,-86.247 125.948,-82.7858 135.767,-79.5084"/>
<polygon fill="midnightblue" stroke="midnightblue" points="71.8973,-97.4264 63.5762,-103.985 74.1708,-104.047 71.8973,-97.4264"/>
</g>
<!-- Node30 -->
<g id="node6" class="node"><title>Node30</title>
<g id="a_node6"><a xlink:href="../../d7/d35/classservices_1_1_tracing_flash.html#a9a1d3cfdb5b8bbe59a5824f2a9f276d1" target="_top" xlink:title="services::TracingFlash\l::WriteBuffer">
<polygon fill="white" stroke="black" points="125.5,-0.5 125.5,-30.5 238.5,-30.5 238.5,-0.5 125.5,-0.5"/>
<text text-anchor="start" x="133.5" y="-18.5" font-family="Helvetica,sans-Serif" font-size="10.00">services::TracingFlash</text>
<text text-anchor="middle" x="182" y="-7.5" font-family="Helvetica,sans-Serif" font-size="10.00">::WriteBuffer</text>
</a>
</g>
</g>
<!-- Node25&#45;&gt;Node30 -->
<g id="edge5" class="edge"><title>Node25&#45;&gt;Node30</title>
<path fill="none" stroke="midnightblue" d="M49.2877,-95.2515C62.1229,-78.8188 82.9628,-55.0738 106,-40.5 112.031,-36.6843 118.707,-33.3873 125.516,-30.5556"/>
<polygon fill="midnightblue" stroke="midnightblue" points="46.2689,-93.4401 43.0175,-103.524 51.8475,-97.6686 46.2689,-93.4401"/>
</g>
</g>
</svg>
