<?xml version="1.0" encoding="UTF-8" standalone="no"?>
<!DOCTYPE svg PUBLIC "-//W3C//DTD SVG 1.1//EN"
 "http://www.w3.org/Graphics/SVG/1.1/DTD/svg11.dtd">
<!-- Generated by graphviz version 2.38.0 (20140413.2041)
 -->
<!-- Title: infra::swap Pages: 1 -->
<svg width="241pt" height="50pt"
 viewBox="0.00 0.00 241.00 50.00" xmlns="http://www.w3.org/2000/svg" xmlns:xlink="http://www.w3.org/1999/xlink">
<g id="graph0" class="graph" transform="scale(1 1) rotate(0) translate(4 46)">
<title>infra::swap</title>
<polygon fill="white" stroke="none" points="-4,4 -4,-46 237,-46 237,4 -4,4"/>
<!-- Node1051 -->
<g id="node1" class="node"><title>Node1051</title>
<polygon fill="#bfbfbf" stroke="black" points="0,-11.5 0,-30.5 63,-30.5 63,-11.5 0,-11.5"/>
<text text-anchor="middle" x="31.5" y="-18.5" font-family="Helvetica,sans-Serif" font-size="10.00">infra::swap</text>
</g>
<!-- Node1052 -->
<g id="node2" class="node"><title>Node1052</title>
<g id="a_node2"><a xlink:href="../../df/da4/classinfra_1_1_intrusive_list.html#aa5141455b1cfcbc7bd85e7cbb1c66e98" target="_top" xlink:title="infra::IntrusiveList\l\&lt; infra::ClaimableResource\l::ClaimerBase \&gt;::swap">
<polygon fill="white" stroke="black" points="99,-0.5 99,-41.5 233,-41.5 233,-0.5 99,-0.5"/>
<text text-anchor="start" x="107" y="-29.5" font-family="Helvetica,sans-Serif" font-size="10.00">infra::IntrusiveList</text>
<text text-anchor="start" x="107" y="-18.5" font-family="Helvetica,sans-Serif" font-size="10.00">&lt; infra::ClaimableResource</text>
<text text-anchor="middle" x="166" y="-7.5" font-family="Helvetica,sans-Serif" font-size="10.00">::ClaimerBase &gt;::swap</text>
</a>
</g>
</g>
<!-- Node1051&#45;&gt;Node1052 -->
<g id="edge1" class="edge"><title>Node1051&#45;&gt;Node1052</title>
<path fill="none" stroke="midnightblue" d="M73.4535,-21C81.5257,-21 90.1875,-21 98.847,-21"/>
<polygon fill="midnightblue" stroke="midnightblue" points="73.2312,-17.5001 63.2312,-21 73.2312,-24.5001 73.2312,-17.5001"/>
</g>
</g>
</svg>
