<?xml version="1.0" encoding="UTF-8" standalone="no"?>
<!DOCTYPE svg PUBLIC "-//W3C//DTD SVG 1.1//EN"
 "http://www.w3.org/Graphics/SVG/1.1/DTD/svg11.dtd">
<!-- Generated by graphviz version 2.38.0 (20140413.2041)
 -->
<!-- Title: infra::swap Pages: 1 -->
<svg width="222pt" height="50pt"
 viewBox="0.00 0.00 222.00 50.00" xmlns="http://www.w3.org/2000/svg" xmlns:xlink="http://www.w3.org/1999/xlink">
<g id="graph0" class="graph" transform="scale(1 1) rotate(0) translate(4 46)">
<title>infra::swap</title>
<polygon fill="white" stroke="none" points="-4,4 -4,-46 218,-46 218,4 -4,4"/>
<!-- Node1084 -->
<g id="node1" class="node"><title>Node1084</title>
<polygon fill="#bfbfbf" stroke="black" points="0,-11.5 0,-30.5 63,-30.5 63,-11.5 0,-11.5"/>
<text text-anchor="middle" x="31.5" y="-18.5" font-family="Helvetica,sans-Serif" font-size="10.00">infra::swap</text>
</g>
<!-- Node1085 -->
<g id="node2" class="node"><title>Node1085</title>
<g id="a_node2"><a xlink:href="../../d4/d2a/classinfra_1_1_function_3_01_result_07_args_8_8_8_08_00_01_extra_size_01_4.html#a55582aeb3024e4948600189c04721ac7" target="_top" xlink:title="infra::Function\&lt; Result\l(Args...), ExtraSize \&gt;\l::Swap">
<polygon fill="white" stroke="black" points="99,-0.5 99,-41.5 214,-41.5 214,-0.5 99,-0.5"/>
<text text-anchor="start" x="107" y="-29.5" font-family="Helvetica,sans-Serif" font-size="10.00">infra::Function&lt; Result</text>
<text text-anchor="start" x="107" y="-18.5" font-family="Helvetica,sans-Serif" font-size="10.00">(Args...), ExtraSize &gt;</text>
<text text-anchor="middle" x="156.5" y="-7.5" font-family="Helvetica,sans-Serif" font-size="10.00">::Swap</text>
</a>
</g>
</g>
<!-- Node1084&#45;&gt;Node1085 -->
<g id="edge1" class="edge"><title>Node1084&#45;&gt;Node1085</title>
<path fill="none" stroke="midnightblue" d="M73.2544,-21C81.4516,-21 90.2057,-21 98.8322,-21"/>
<polygon fill="midnightblue" stroke="midnightblue" points="73.2208,-17.5001 63.2208,-21 73.2208,-24.5001 73.2208,-17.5001"/>
</g>
</g>
</svg>
