<?xml version="1.0" encoding="UTF-8" standalone="no"?>
<!DOCTYPE svg PUBLIC "-//W3C//DTD SVG 1.1//EN"
 "http://www.w3.org/Graphics/SVG/1.1/DTD/svg11.dtd">
<!-- Generated by graphviz version 2.38.0 (20140413.2041)
 -->
<!-- Title: infra::ByteInputStreamReader::Peek Pages: 1 -->
<svg width="657pt" height="176pt"
 viewBox="0.00 0.00 657.00 176.00" xmlns="http://www.w3.org/2000/svg" xmlns:xlink="http://www.w3.org/1999/xlink">
<g id="graph0" class="graph" transform="scale(1 1) rotate(0) translate(4 172)">
<title>infra::ByteInputStreamReader::Peek</title>
<polygon fill="white" stroke="none" points="-4,4 -4,-172 653,-172 653,4 -4,4"/>
<!-- Node21 -->
<g id="node1" class="node"><title>Node21</title>
<polygon fill="#bfbfbf" stroke="black" points="0,-71.5 0,-101.5 144,-101.5 144,-71.5 0,-71.5"/>
<text text-anchor="start" x="8" y="-89.5" font-family="Helvetica,sans-Serif" font-size="10.00">infra::ByteInputStreamReader</text>
<text text-anchor="middle" x="72" y="-78.5" font-family="Helvetica,sans-Serif" font-size="10.00">::Peek</text>
</g>
<!-- Node22 -->
<g id="node2" class="node"><title>Node22</title>
<g id="a_node2"><a xlink:href="../../d0/d6d/classinfra_1_1_memory_range.html#a7a83ceae17802af5ecebfb9557912ece" target="_top" xlink:title="infra::MemoryRange\l::begin">
<polygon fill="white" stroke="black" points="188,-137.5 188,-167.5 292,-167.5 292,-137.5 188,-137.5"/>
<text text-anchor="start" x="196" y="-155.5" font-family="Helvetica,sans-Serif" font-size="10.00">infra::MemoryRange</text>
<text text-anchor="middle" x="240" y="-144.5" font-family="Helvetica,sans-Serif" font-size="10.00">::begin</text>
</a>
</g>
</g>
<!-- Node21&#45;&gt;Node22 -->
<g id="edge1" class="edge"><title>Node21&#45;&gt;Node22</title>
<path fill="none" stroke="midnightblue" d="M111.084,-101.642C135.019,-111.158 166.086,-123.51 191.609,-133.658"/>
<polygon fill="midnightblue" stroke="midnightblue" points="190.508,-136.986 201.093,-137.429 193.094,-130.482 190.508,-136.986"/>
</g>
<!-- Node23 -->
<g id="node3" class="node"><title>Node23</title>
<g id="a_node3"><a xlink:href="../../d0/de3/namespaceinfra.html#ae4478bf95f90ceb679642cb4180f205f" target="_top" xlink:title="infra::MakeByteRange">
<polygon fill="white" stroke="black" points="183.5,-99 183.5,-118 296.5,-118 296.5,-99 183.5,-99"/>
<text text-anchor="middle" x="240" y="-106" font-family="Helvetica,sans-Serif" font-size="10.00">infra::MakeByteRange</text>
</a>
</g>
</g>
<!-- Node21&#45;&gt;Node23 -->
<g id="edge2" class="edge"><title>Node21&#45;&gt;Node23</title>
<path fill="none" stroke="midnightblue" d="M144.362,-95.9577C153.978,-97.232 163.806,-98.5345 173.316,-99.7949"/>
<polygon fill="midnightblue" stroke="midnightblue" points="173.113,-103.299 183.486,-101.143 174.033,-96.3592 173.113,-103.299"/>
</g>
<!-- Node28 -->
<g id="node8" class="node"><title>Node28</title>
<g id="a_node8"><a xlink:href="../../d5/d4a/classinfra_1_1_stream_error_policy.html#a708126a1c40b64fd503bed2d8b8f9700" target="_top" xlink:title="infra::StreamErrorPolicy\l::ReportResult">
<polygon fill="white" stroke="black" points="180,-49.5 180,-79.5 300,-79.5 300,-49.5 180,-49.5"/>
<text text-anchor="start" x="188" y="-67.5" font-family="Helvetica,sans-Serif" font-size="10.00">infra::StreamErrorPolicy</text>
<text text-anchor="middle" x="240" y="-56.5" font-family="Helvetica,sans-Serif" font-size="10.00">::ReportResult</text>
</a>
</g>
</g>
<!-- Node21&#45;&gt;Node28 -->
<g id="edge7" class="edge"><title>Node21&#45;&gt;Node28</title>
<path fill="none" stroke="midnightblue" d="M144.362,-77.0423C152.796,-75.9246 161.394,-74.7852 169.797,-73.6715"/>
<polygon fill="midnightblue" stroke="midnightblue" points="170.473,-77.1125 179.927,-72.329 169.554,-70.1732 170.473,-77.1125"/>
</g>
<!-- Node29 -->
<g id="node9" class="node"><title>Node29</title>
<g id="a_node9"><a xlink:href="../../d0/d6d/classinfra_1_1_memory_range.html#ae8fbbf531d3696b6a64ac13385acdc66" target="_top" xlink:title="infra::MemoryRange\l::size">
<polygon fill="white" stroke="black" points="188,-0.5 188,-30.5 292,-30.5 292,-0.5 188,-0.5"/>
<text text-anchor="start" x="196" y="-18.5" font-family="Helvetica,sans-Serif" font-size="10.00">infra::MemoryRange</text>
<text text-anchor="middle" x="240" y="-7.5" font-family="Helvetica,sans-Serif" font-size="10.00">::size</text>
</a>
</g>
</g>
<!-- Node21&#45;&gt;Node29 -->
<g id="edge8" class="edge"><title>Node21&#45;&gt;Node29</title>
<path fill="none" stroke="midnightblue" d="M108.16,-71.3296C129.027,-62.3398 156.01,-50.7394 180,-40.5 184.496,-38.5812 189.186,-36.5847 193.872,-34.5936"/>
<polygon fill="midnightblue" stroke="midnightblue" points="195.582,-37.6698 203.42,-30.5408 192.847,-31.2262 195.582,-37.6698"/>
</g>
<!-- Node24 -->
<g id="node4" class="node"><title>Node24</title>
<g id="a_node4"><a xlink:href="../../d0/de3/namespaceinfra.html#afe38b7d4318537de2f28b244211c4275" target="_top" xlink:title="infra::MakeRange">
<polygon fill="white" stroke="black" points="354,-121 354,-140 446,-140 446,-121 354,-121"/>
<text text-anchor="middle" x="400" y="-128" font-family="Helvetica,sans-Serif" font-size="10.00">infra::MakeRange</text>
</a>
</g>
</g>
<!-- Node23&#45;&gt;Node24 -->
<g id="edge3" class="edge"><title>Node23&#45;&gt;Node24</title>
<path fill="none" stroke="midnightblue" d="M296.705,-116.256C311.936,-118.377 328.437,-120.675 343.649,-122.793"/>
<polygon fill="midnightblue" stroke="midnightblue" points="343.555,-126.314 353.942,-124.226 344.521,-119.38 343.555,-126.314"/>
</g>
<!-- Node27 -->
<g id="node7" class="node"><title>Node27</title>
<g id="a_node7"><a xlink:href="../../d0/de3/namespaceinfra.html#a74203fdf2e029d2667c7e4925092cc9a" target="_top" xlink:title="infra::ReinterpretCastByte\lRange">
<polygon fill="white" stroke="black" points="336,-71.5 336,-101.5 464,-101.5 464,-71.5 336,-71.5"/>
<text text-anchor="start" x="344" y="-89.5" font-family="Helvetica,sans-Serif" font-size="10.00">infra::ReinterpretCastByte</text>
<text text-anchor="middle" x="400" y="-78.5" font-family="Helvetica,sans-Serif" font-size="10.00">Range</text>
</a>
</g>
</g>
<!-- Node23&#45;&gt;Node27 -->
<g id="edge6" class="edge"><title>Node23&#45;&gt;Node27</title>
<path fill="none" stroke="midnightblue" d="M296.705,-100.744C306.134,-99.4307 316.05,-98.05 325.845,-96.6861"/>
<polygon fill="midnightblue" stroke="midnightblue" points="326.562,-100.12 335.984,-95.2744 325.597,-93.187 326.562,-100.12"/>
</g>
<!-- Node25 -->
<g id="node5" class="node"><title>Node25</title>
<g id="a_node5"><a xlink:href="../../d1/d2a/classinfra_1_1_bounded_string_base.html#aef23e4250cad2fdc69ccc39f68734233" target="_top" xlink:title="infra::BoundedStringBase\l::begin">
<polygon fill="white" stroke="black" points="511,-137.5 511,-167.5 638,-167.5 638,-137.5 511,-137.5"/>
<text text-anchor="start" x="519" y="-155.5" font-family="Helvetica,sans-Serif" font-size="10.00">infra::BoundedStringBase</text>
<text text-anchor="middle" x="574.5" y="-144.5" font-family="Helvetica,sans-Serif" font-size="10.00">::begin</text>
</a>
</g>
</g>
<!-- Node24&#45;&gt;Node25 -->
<g id="edge4" class="edge"><title>Node24&#45;&gt;Node25</title>
<path fill="none" stroke="midnightblue" d="M446.322,-136.28C462.999,-138.407 482.333,-140.873 500.814,-143.23"/>
<polygon fill="midnightblue" stroke="midnightblue" points="500.61,-146.732 510.972,-144.525 501.495,-139.788 500.61,-146.732"/>
</g>
<!-- Node26 -->
<g id="node6" class="node"><title>Node26</title>
<g id="a_node6"><a xlink:href="../../d1/d2a/classinfra_1_1_bounded_string_base.html#af5021f1ea3898146d0a55c2895f07dbf" target="_top" xlink:title="infra::BoundedStringBase::end">
<polygon fill="white" stroke="black" points="500,-99 500,-118 649,-118 649,-99 500,-99"/>
<text text-anchor="middle" x="574.5" y="-106" font-family="Helvetica,sans-Serif" font-size="10.00">infra::BoundedStringBase::end</text>
</a>
</g>
</g>
<!-- Node24&#45;&gt;Node26 -->
<g id="edge5" class="edge"><title>Node24&#45;&gt;Node26</title>
<path fill="none" stroke="midnightblue" d="M446.322,-124.72C459.624,-123.023 474.615,-121.111 489.517,-119.211"/>
<polygon fill="midnightblue" stroke="midnightblue" points="490.32,-122.637 499.797,-117.9 489.435,-115.693 490.32,-122.637"/>
</g>
</g>
</svg>
