<?xml version="1.0" encoding="UTF-8" standalone="no"?>
<!DOCTYPE svg PUBLIC "-//W3C//DTD SVG 1.1//EN"
 "http://www.w3.org/Graphics/SVG/1.1/DTD/svg11.dtd">
<!-- Generated by graphviz version 2.38.0 (20140413.2041)
 -->
<!-- Title: infra::OutputStream::SaveMarker Pages: 1 -->
<svg width="1628pt" height="340pt"
 viewBox="0.00 0.00 1628.00 339.50" xmlns="http://www.w3.org/2000/svg" xmlns:xlink="http://www.w3.org/1999/xlink">
<g id="graph0" class="graph" transform="scale(1 1) rotate(0) translate(4 335.5)">
<title>infra::OutputStream::SaveMarker</title>
<polygon fill="white" stroke="none" points="-4,4 -4,-335.5 1624,-335.5 1624,4 -4,4"/>
<!-- Node40 -->
<g id="node1" class="node"><title>Node40</title>
<polygon fill="#bfbfbf" stroke="black" points="0,-166.5 0,-196.5 101,-196.5 101,-166.5 0,-166.5"/>
<text text-anchor="start" x="8" y="-184.5" font-family="Helvetica,sans-Serif" font-size="10.00">infra::OutputStream</text>
<text text-anchor="middle" x="50.5" y="-173.5" font-family="Helvetica,sans-Serif" font-size="10.00">::SaveMarker</text>
</g>
<!-- Node41 -->
<g id="node2" class="node"><title>Node41</title>
<g id="a_node2"><a xlink:href="../../d2/d1b/classinfra_1_1_proto_length_delimited_formatter.html#ad247ee660181cda6625da2ccf1ef6b11" target="_top" xlink:title="infra::ProtoLengthDelimited\lFormatter::ProtoLengthDelimited\lFormatter">
<polygon fill="white" stroke="black" points="137,-290 137,-331 295,-331 295,-290 137,-290"/>
<text text-anchor="start" x="145" y="-319" font-family="Helvetica,sans-Serif" font-size="10.00">infra::ProtoLengthDelimited</text>
<text text-anchor="start" x="145" y="-308" font-family="Helvetica,sans-Serif" font-size="10.00">Formatter::ProtoLengthDelimited</text>
<text text-anchor="middle" x="216" y="-297" font-family="Helvetica,sans-Serif" font-size="10.00">Formatter</text>
</a>
</g>
</g>
<!-- Node40&#45;&gt;Node41 -->
<g id="edge1" class="edge"><title>Node40&#45;&gt;Node41</title>
<path fill="none" stroke="midnightblue" d="M66.7891,-205.128C82.1779,-227.269 107.773,-259.95 137,-280.5 141.866,-283.921 147.174,-287.016 152.658,-289.802"/>
<polygon fill="midnightblue" stroke="midnightblue" points="69.5379,-202.945 61.0268,-196.636 63.7455,-206.876 69.5379,-202.945"/>
</g>
<!-- Node42 -->
<g id="node3" class="node"><title>Node42</title>
<g id="a_node3"><a xlink:href="../../db/dc0/classinfra_1_1_asn1_formatter.html#a431d7bf9494f31039208dabf07e81574" target="_top" xlink:title="infra::Asn1Formatter\l::StartBitString">
<polygon fill="white" stroke="black" points="163.5,-240.5 163.5,-270.5 268.5,-270.5 268.5,-240.5 163.5,-240.5"/>
<text text-anchor="start" x="171.5" y="-258.5" font-family="Helvetica,sans-Serif" font-size="10.00">infra::Asn1Formatter</text>
<text text-anchor="middle" x="216" y="-247.5" font-family="Helvetica,sans-Serif" font-size="10.00">::StartBitString</text>
</a>
</g>
</g>
<!-- Node40&#45;&gt;Node42 -->
<g id="edge2" class="edge"><title>Node40&#45;&gt;Node42</title>
<path fill="none" stroke="midnightblue" d="M82.7728,-202.136C98.5712,-211.946 118.311,-223.292 137,-231.5 145.302,-235.146 154.328,-238.469 163.197,-241.403"/>
<polygon fill="midnightblue" stroke="midnightblue" points="84.2882,-198.954 73.9641,-196.573 80.5504,-204.872 84.2882,-198.954"/>
</g>
<!-- Node43 -->
<g id="node4" class="node"><title>Node43</title>
<g id="a_node4"><a xlink:href="../../db/dc0/classinfra_1_1_asn1_formatter.html#aefe45b742ca0862df39a4ec8cbd2fefe" target="_top" xlink:title="infra::Asn1Formatter\l::StartContextSpecific">
<polygon fill="white" stroke="black" points="160,-191.5 160,-221.5 272,-221.5 272,-191.5 160,-191.5"/>
<text text-anchor="start" x="168" y="-209.5" font-family="Helvetica,sans-Serif" font-size="10.00">infra::Asn1Formatter</text>
<text text-anchor="middle" x="216" y="-198.5" font-family="Helvetica,sans-Serif" font-size="10.00">::StartContextSpecific</text>
</a>
</g>
</g>
<!-- Node40&#45;&gt;Node43 -->
<g id="edge3" class="edge"><title>Node40&#45;&gt;Node43</title>
<path fill="none" stroke="midnightblue" d="M111.639,-190.696C127.449,-193.113 144.421,-195.708 159.949,-198.082"/>
<polygon fill="midnightblue" stroke="midnightblue" points="111.858,-187.188 101.444,-189.137 110.8,-194.108 111.858,-187.188"/>
</g>
<!-- Node44 -->
<g id="node5" class="node"><title>Node44</title>
<g id="a_node5"><a xlink:href="../../db/dc0/classinfra_1_1_asn1_formatter.html#a9a12f4e6e52acc290d02deb03de934e2" target="_top" xlink:title="infra::Asn1Formatter\l::StartSequence">
<polygon fill="white" stroke="black" points="163.5,-142.5 163.5,-172.5 268.5,-172.5 268.5,-142.5 163.5,-142.5"/>
<text text-anchor="start" x="171.5" y="-160.5" font-family="Helvetica,sans-Serif" font-size="10.00">infra::Asn1Formatter</text>
<text text-anchor="middle" x="216" y="-149.5" font-family="Helvetica,sans-Serif" font-size="10.00">::StartSequence</text>
</a>
</g>
</g>
<!-- Node40&#45;&gt;Node44 -->
<g id="edge4" class="edge"><title>Node40&#45;&gt;Node44</title>
<path fill="none" stroke="midnightblue" d="M111.792,-172.65C128.733,-170.163 146.997,-167.482 163.383,-165.077"/>
<polygon fill="midnightblue" stroke="midnightblue" points="110.829,-169.254 101.444,-174.169 111.846,-176.179 110.829,-169.254"/>
</g>
<!-- Node49 -->
<g id="node10" class="node"><title>Node49</title>
<g id="a_node10"><a xlink:href="../../db/dc0/classinfra_1_1_asn1_formatter.html#a2bd0f8e3cd66dcc1deed08e60bfe06de" target="_top" xlink:title="infra::Asn1Formatter\l::StartSet">
<polygon fill="white" stroke="black" points="163.5,-93.5 163.5,-123.5 268.5,-123.5 268.5,-93.5 163.5,-93.5"/>
<text text-anchor="start" x="171.5" y="-111.5" font-family="Helvetica,sans-Serif" font-size="10.00">infra::Asn1Formatter</text>
<text text-anchor="middle" x="216" y="-100.5" font-family="Helvetica,sans-Serif" font-size="10.00">::StartSet</text>
</a>
</g>
</g>
<!-- Node40&#45;&gt;Node49 -->
<g id="edge11" class="edge"><title>Node40&#45;&gt;Node49</title>
<path fill="none" stroke="midnightblue" d="M83.494,-160.905C99.1901,-151.395 118.633,-140.471 137,-132.5 145.318,-128.89 154.352,-125.585 163.224,-122.658"/>
<polygon fill="midnightblue" stroke="midnightblue" points="81.4005,-158.084 74.7218,-166.309 85.0718,-164.044 81.4005,-158.084"/>
</g>
<!-- Node50 -->
<g id="node11" class="node"><title>Node50</title>
<g id="a_node11"><a xlink:href="../../d9/dce/classservices_1_1_http_response.html#a2bdfd05b582453e0ba050dfa18009be7" target="_top" xlink:title="services::HttpResponse\l::WriteResponse">
<polygon fill="white" stroke="black" points="156.5,-44.5 156.5,-74.5 275.5,-74.5 275.5,-44.5 156.5,-44.5"/>
<text text-anchor="start" x="164.5" y="-62.5" font-family="Helvetica,sans-Serif" font-size="10.00">services::HttpResponse</text>
<text text-anchor="middle" x="216" y="-51.5" font-family="Helvetica,sans-Serif" font-size="10.00">::WriteResponse</text>
</a>
</g>
</g>
<!-- Node40&#45;&gt;Node50 -->
<g id="edge13" class="edge"><title>Node40&#45;&gt;Node50</title>
<path fill="none" stroke="midnightblue" d="M66.5376,-157.667C81.7429,-135.426 107.209,-102.847 137,-83.5 142.941,-79.6417 149.537,-76.3751 156.305,-73.6161"/>
<polygon fill="midnightblue" stroke="midnightblue" points="63.4791,-155.946 60.8526,-166.21 69.3066,-159.824 63.4791,-155.946"/>
</g>
<!-- Node45 -->
<g id="node6" class="node"><title>Node45</title>
<g id="a_node6"><a xlink:href="../../df/d23/classservices_1_1_certificates_mbed_tls.html#a63f4477d0889d479f476070910087cef" target="_top" xlink:title="services::CertificatesMbed\lTls::WriteOwnCertificate">
<polygon fill="white" stroke="black" points="529.5,-142.5 529.5,-172.5 660.5,-172.5 660.5,-142.5 529.5,-142.5"/>
<text text-anchor="start" x="537.5" y="-160.5" font-family="Helvetica,sans-Serif" font-size="10.00">services::CertificatesMbed</text>
<text text-anchor="middle" x="595" y="-149.5" font-family="Helvetica,sans-Serif" font-size="10.00">Tls::WriteOwnCertificate</text>
</a>
</g>
</g>
<!-- Node44&#45;&gt;Node45 -->
<g id="edge5" class="edge"><title>Node44&#45;&gt;Node45</title>
<path fill="none" stroke="midnightblue" d="M278.181,-172.906C284.123,-175.62 289.849,-178.794 295,-182.5 316.936,-198.282 306.889,-219.296 331,-231.5 391.274,-262.01 418.343,-251.077 483,-231.5 520.905,-220.023 557.698,-190.861 577.951,-172.761"/>
<polygon fill="midnightblue" stroke="midnightblue" points="279.293,-169.579 268.714,-169.008 276.628,-176.052 279.293,-169.579"/>
</g>
<!-- Node46 -->
<g id="node7" class="node"><title>Node46</title>
<g id="a_node7"><a xlink:href="../../df/d23/classservices_1_1_certificates_mbed_tls.html#a5705b4ef4325d0b778078e6761e35fec" target="_top" xlink:title="services::CertificatesMbed\lTls::WritePrivateKey">
<polygon fill="white" stroke="black" points="341.5,-191.5 341.5,-221.5 472.5,-221.5 472.5,-191.5 341.5,-191.5"/>
<text text-anchor="start" x="349.5" y="-209.5" font-family="Helvetica,sans-Serif" font-size="10.00">services::CertificatesMbed</text>
<text text-anchor="middle" x="407" y="-198.5" font-family="Helvetica,sans-Serif" font-size="10.00">Tls::WritePrivateKey</text>
</a>
</g>
</g>
<!-- Node44&#45;&gt;Node46 -->
<g id="edge6" class="edge"><title>Node44&#45;&gt;Node46</title>
<path fill="none" stroke="midnightblue" d="M278.381,-173.413C300.774,-179.219 326.008,-185.761 348.09,-191.486"/>
<polygon fill="midnightblue" stroke="midnightblue" points="279.203,-170.011 268.645,-170.889 277.447,-176.787 279.203,-170.011"/>
</g>
<!-- Node47 -->
<g id="node8" class="node"><title>Node47</title>
<g id="a_node8"><a xlink:href="../../df/d23/classservices_1_1_certificates_mbed_tls.html#a60975eeeeaf6a805df536a7d167270af" target="_top" xlink:title="services::CertificatesMbed\lTls::X509AddAlgorithm">
<polygon fill="white" stroke="black" points="341.5,-142.5 341.5,-172.5 472.5,-172.5 472.5,-142.5 341.5,-142.5"/>
<text text-anchor="start" x="349.5" y="-160.5" font-family="Helvetica,sans-Serif" font-size="10.00">services::CertificatesMbed</text>
<text text-anchor="middle" x="407" y="-149.5" font-family="Helvetica,sans-Serif" font-size="10.00">Tls::X509AddAlgorithm</text>
</a>
</g>
</g>
<!-- Node44&#45;&gt;Node47 -->
<g id="edge7" class="edge"><title>Node44&#45;&gt;Node47</title>
<path fill="none" stroke="midnightblue" d="M278.87,-157.5C298.852,-157.5 321.053,-157.5 341.238,-157.5"/>
<polygon fill="midnightblue" stroke="midnightblue" points="278.645,-154 268.645,-157.5 278.645,-161 278.645,-154"/>
</g>
<!-- Node48 -->
<g id="node9" class="node"><title>Node48</title>
<g id="a_node9"><a xlink:href="../../df/d23/classservices_1_1_certificates_mbed_tls.html#a2a4620eb2357d703d8166932662f2445" target="_top" xlink:title="services::CertificatesMbed\lTls::X509AddName">
<polygon fill="white" stroke="black" points="341.5,-93.5 341.5,-123.5 472.5,-123.5 472.5,-93.5 341.5,-93.5"/>
<text text-anchor="start" x="349.5" y="-111.5" font-family="Helvetica,sans-Serif" font-size="10.00">services::CertificatesMbed</text>
<text text-anchor="middle" x="407" y="-100.5" font-family="Helvetica,sans-Serif" font-size="10.00">Tls::X509AddName</text>
</a>
</g>
</g>
<!-- Node44&#45;&gt;Node48 -->
<g id="edge9" class="edge"><title>Node44&#45;&gt;Node48</title>
<path fill="none" stroke="midnightblue" d="M278.381,-141.587C300.774,-135.781 326.008,-129.239 348.09,-123.514"/>
<polygon fill="midnightblue" stroke="midnightblue" points="277.447,-138.213 268.645,-144.111 279.203,-144.989 277.447,-138.213"/>
</g>
<!-- Node47&#45;&gt;Node45 -->
<g id="edge8" class="edge"><title>Node47&#45;&gt;Node45</title>
<path fill="none" stroke="midnightblue" d="M482.57,-157.5C498.029,-157.5 514.195,-157.5 529.267,-157.5"/>
<polygon fill="midnightblue" stroke="midnightblue" points="482.532,-154 472.532,-157.5 482.532,-161 482.532,-154"/>
</g>
<!-- Node48&#45;&gt;Node45 -->
<g id="edge10" class="edge"><title>Node48&#45;&gt;Node45</title>
<path fill="none" stroke="midnightblue" d="M474.895,-126.123C495.244,-131.484 517.408,-137.323 537.038,-142.494"/>
<polygon fill="midnightblue" stroke="midnightblue" points="475.632,-122.698 465.07,-123.535 473.849,-129.467 475.632,-122.698"/>
</g>
<!-- Node49&#45;&gt;Node48 -->
<g id="edge12" class="edge"><title>Node49&#45;&gt;Node48</title>
<path fill="none" stroke="midnightblue" d="M278.87,-108.5C298.852,-108.5 321.053,-108.5 341.238,-108.5"/>
<polygon fill="midnightblue" stroke="midnightblue" points="278.645,-105 268.645,-108.5 278.645,-112 278.645,-105"/>
</g>
<!-- Node51 -->
<g id="node12" class="node"><title>Node51</title>
<g id="a_node12"><a xlink:href="../../d2/db3/classservices_1_1_http_server_connection_observer.html#a48786ed298c958e0c90a861ab09f01b2" target="_top" xlink:title="services::HttpServerConnection\lObserver::SendResponse">
<polygon fill="white" stroke="black" points="331,-44.5 331,-74.5 483,-74.5 483,-44.5 331,-44.5"/>
<text text-anchor="start" x="339" y="-62.5" font-family="Helvetica,sans-Serif" font-size="10.00">services::HttpServerConnection</text>
<text text-anchor="middle" x="407" y="-51.5" font-family="Helvetica,sans-Serif" font-size="10.00">Observer::SendResponse</text>
</a>
</g>
</g>
<!-- Node50&#45;&gt;Node51 -->
<g id="edge14" class="edge"><title>Node50&#45;&gt;Node51</title>
<path fill="none" stroke="midnightblue" d="M285.508,-59.5C300.193,-59.5 315.786,-59.5 330.711,-59.5"/>
<polygon fill="midnightblue" stroke="midnightblue" points="285.506,-56.0001 275.506,-59.5 285.506,-63.0001 285.506,-56.0001"/>
</g>
<!-- Node52 -->
<g id="node13" class="node"><title>Node52</title>
<g id="a_node13"><a xlink:href="../../d2/db3/classservices_1_1_http_server_connection_observer.html#afd24d585e0b90fc44643244b0712f92f" target="_top" xlink:title="services::HttpServerConnection\lObserver::ReceivedTooMuchData">
<polygon fill="white" stroke="black" points="707,-88.5 707,-118.5 867,-118.5 867,-88.5 707,-88.5"/>
<text text-anchor="start" x="715" y="-106.5" font-family="Helvetica,sans-Serif" font-size="10.00">services::HttpServerConnection</text>
<text text-anchor="middle" x="787" y="-95.5" font-family="Helvetica,sans-Serif" font-size="10.00">Observer::ReceivedTooMuchData</text>
</a>
</g>
</g>
<!-- Node51&#45;&gt;Node52 -->
<g id="edge15" class="edge"><title>Node51&#45;&gt;Node52</title>
<path fill="none" stroke="midnightblue" d="M493.358,-70.3847C502.017,-71.4533 510.683,-72.5082 519,-73.5 582.108,-81.0248 653.672,-89.0378 706.815,-94.8877"/>
<polygon fill="midnightblue" stroke="midnightblue" points="493.571,-66.8844 483.216,-69.1269 492.709,-73.8311 493.571,-66.8844"/>
</g>
<!-- Node55 -->
<g id="node16" class="node"><title>Node55</title>
<g id="a_node16"><a xlink:href="../../d2/db3/classservices_1_1_http_server_connection_observer.html#a54d34389a1f80059a349bfb5b5f273dc" target="_top" xlink:title="services::HttpServerConnection\lObserver::TryHandleRequest">
<polygon fill="white" stroke="black" points="903,-44.5 903,-74.5 1055,-74.5 1055,-44.5 903,-44.5"/>
<text text-anchor="start" x="911" y="-62.5" font-family="Helvetica,sans-Serif" font-size="10.00">services::HttpServerConnection</text>
<text text-anchor="middle" x="979" y="-51.5" font-family="Helvetica,sans-Serif" font-size="10.00">Observer::TryHandleRequest</text>
</a>
</g>
</g>
<!-- Node51&#45;&gt;Node55 -->
<g id="edge18" class="edge"><title>Node51&#45;&gt;Node55</title>
<path fill="none" stroke="midnightblue" d="M493.263,-59.5C604.337,-59.5 796.811,-59.5 902.73,-59.5"/>
<polygon fill="midnightblue" stroke="midnightblue" points="493.104,-56.0001 483.104,-59.5 493.104,-63.0001 493.104,-56.0001"/>
</g>
<!-- Node57 -->
<g id="node18" class="node"><title>Node57</title>
<g id="a_node18"><a xlink:href="../../d2/db3/classservices_1_1_http_server_connection_observer.html#a9d0c9926c69222f44621afb71304247d" target="_top" xlink:title="services::HttpServerConnection\lObserver::ServePage">
<polygon fill="white" stroke="black" points="519,-0.5 519,-30.5 671,-30.5 671,-0.5 519,-0.5"/>
<text text-anchor="start" x="527" y="-18.5" font-family="Helvetica,sans-Serif" font-size="10.00">services::HttpServerConnection</text>
<text text-anchor="middle" x="595" y="-7.5" font-family="Helvetica,sans-Serif" font-size="10.00">Observer::ServePage</text>
</a>
</g>
</g>
<!-- Node51&#45;&gt;Node57 -->
<g id="edge21" class="edge"><title>Node51&#45;&gt;Node57</title>
<path fill="none" stroke="midnightblue" d="M481.457,-42.1231C497.666,-38.2888 514.704,-34.2582 530.48,-30.5262"/>
<polygon fill="midnightblue" stroke="midnightblue" points="480.416,-38.7726 471.49,-44.4808 482.028,-45.5846 480.416,-38.7726"/>
</g>
<!-- Node53 -->
<g id="node14" class="node"><title>Node53</title>
<g id="a_node14"><a xlink:href="../../d2/db3/classservices_1_1_http_server_connection_observer.html#a3c5cabea13da6e140280b1b8c77244b3" target="_top" xlink:title="services::HttpServerConnection\lObserver::DataReceived">
<polygon fill="white" stroke="black" points="1279,-66.5 1279,-96.5 1431,-96.5 1431,-66.5 1279,-66.5"/>
<text text-anchor="start" x="1287" y="-84.5" font-family="Helvetica,sans-Serif" font-size="10.00">services::HttpServerConnection</text>
<text text-anchor="middle" x="1355" y="-73.5" font-family="Helvetica,sans-Serif" font-size="10.00">Observer::DataReceived</text>
</a>
</g>
</g>
<!-- Node52&#45;&gt;Node53 -->
<g id="edge16" class="edge"><title>Node52&#45;&gt;Node53</title>
<path fill="none" stroke="midnightblue" d="M877.447,-100.023C988.264,-95.7159 1175.1,-88.4538 1278.85,-84.421"/>
<polygon fill="midnightblue" stroke="midnightblue" points="877.152,-96.532 867.296,-100.418 877.424,-103.527 877.152,-96.532"/>
</g>
<!-- Node54 -->
<g id="node15" class="node"><title>Node54</title>
<g id="a_node15"><a xlink:href="../../d2/db3/classservices_1_1_http_server_connection_observer.html#a579fc75f469c5b79141187fc04dbf74c" target="_top" xlink:title="services::HttpServerConnection\lObserver::SendStreamAvailable">
<polygon fill="white" stroke="black" points="1467,-66.5 1467,-96.5 1620,-96.5 1620,-66.5 1467,-66.5"/>
<text text-anchor="start" x="1475" y="-84.5" font-family="Helvetica,sans-Serif" font-size="10.00">services::HttpServerConnection</text>
<text text-anchor="middle" x="1543.5" y="-73.5" font-family="Helvetica,sans-Serif" font-size="10.00">Observer::SendStreamAvailable</text>
</a>
</g>
</g>
<!-- Node53&#45;&gt;Node54 -->
<g id="edge17" class="edge"><title>Node53&#45;&gt;Node54</title>
<path fill="none" stroke="midnightblue" d="M1441.12,-81.5C1449.75,-81.5 1458.48,-81.5 1467,-81.5"/>
<polygon fill="midnightblue" stroke="midnightblue" points="1441.05,-78.0001 1431.05,-81.5 1441.05,-85.0001 1441.05,-78.0001"/>
</g>
<!-- Node56 -->
<g id="node17" class="node"><title>Node56</title>
<g id="a_node17"><a xlink:href="../../d2/db3/classservices_1_1_http_server_connection_observer.html#a6213f7b12f5fb1c0ddbabdb859ddca0a" target="_top" xlink:title="services::HttpServerConnection\lObserver::ReceivedRequest">
<polygon fill="white" stroke="black" points="1091,-44.5 1091,-74.5 1243,-74.5 1243,-44.5 1091,-44.5"/>
<text text-anchor="start" x="1099" y="-62.5" font-family="Helvetica,sans-Serif" font-size="10.00">services::HttpServerConnection</text>
<text text-anchor="middle" x="1167" y="-51.5" font-family="Helvetica,sans-Serif" font-size="10.00">Observer::ReceivedRequest</text>
</a>
</g>
</g>
<!-- Node55&#45;&gt;Node56 -->
<g id="edge19" class="edge"><title>Node55&#45;&gt;Node56</title>
<path fill="none" stroke="midnightblue" d="M1065.15,-59.5C1073.74,-59.5 1082.43,-59.5 1090.9,-59.5"/>
<polygon fill="midnightblue" stroke="midnightblue" points="1065.12,-56.0001 1055.12,-59.5 1065.12,-63.0001 1065.12,-56.0001"/>
</g>
<!-- Node56&#45;&gt;Node53 -->
<g id="edge20" class="edge"><title>Node56&#45;&gt;Node53</title>
<path fill="none" stroke="midnightblue" d="M1253.15,-69.5712C1261.74,-70.5877 1270.43,-71.615 1278.9,-72.6178"/>
<polygon fill="midnightblue" stroke="midnightblue" points="1253.46,-66.0838 1243.12,-68.3848 1252.64,-73.0353 1253.46,-66.0838"/>
</g>
<!-- Node58 -->
<g id="node19" class="node"><title>Node58</title>
<g id="a_node19"><a xlink:href="../../d2/db3/classservices_1_1_http_server_connection_observer.html#a52e5c280fabbed909272946c730d6aff" target="_top" xlink:title="services::HttpServerConnection\lObserver::HandleRequest">
<polygon fill="white" stroke="black" points="711,-0.5 711,-30.5 863,-30.5 863,-0.5 711,-0.5"/>
<text text-anchor="start" x="719" y="-18.5" font-family="Helvetica,sans-Serif" font-size="10.00">services::HttpServerConnection</text>
<text text-anchor="middle" x="787" y="-7.5" font-family="Helvetica,sans-Serif" font-size="10.00">Observer::HandleRequest</text>
</a>
</g>
</g>
<!-- Node57&#45;&gt;Node58 -->
<g id="edge22" class="edge"><title>Node57&#45;&gt;Node58</title>
<path fill="none" stroke="midnightblue" d="M681.289,-15.5C691.138,-15.5 701.129,-15.5 710.83,-15.5"/>
<polygon fill="midnightblue" stroke="midnightblue" points="681.093,-12.0001 671.093,-15.5 681.093,-19.0001 681.093,-12.0001"/>
</g>
<!-- Node58&#45;&gt;Node55 -->
<g id="edge23" class="edge"><title>Node58&#45;&gt;Node55</title>
<path fill="none" stroke="midnightblue" d="M863.037,-32.8769C879.594,-36.7112 896.999,-40.7418 913.114,-44.4738"/>
<polygon fill="midnightblue" stroke="midnightblue" points="863.388,-29.3656 852.856,-30.5192 861.808,-36.1852 863.388,-29.3656"/>
</g>
</g>
</svg>
