<?xml version="1.0" encoding="UTF-8" standalone="no"?>
<!DOCTYPE svg PUBLIC "-//W3C//DTD SVG 1.1//EN"
 "http://www.w3.org/Graphics/SVG/1.1/DTD/svg11.dtd">
<!-- Generated by graphviz version 2.38.0 (20140413.2041)
 -->
<!-- Title: infra::OutputStream::Available Pages: 1 -->
<svg width="243pt" height="39pt"
 viewBox="0.00 0.00 243.00 39.00" xmlns="http://www.w3.org/2000/svg" xmlns:xlink="http://www.w3.org/1999/xlink">
<g id="graph0" class="graph" transform="scale(1 1) rotate(0) translate(4 35)">
<title>infra::OutputStream::Available</title>
<polygon fill="white" stroke="none" points="-4,4 -4,-35 239,-35 239,4 -4,4"/>
<!-- Node4 -->
<g id="node1" class="node"><title>Node4</title>
<polygon fill="#bfbfbf" stroke="black" points="0,-0.5 0,-30.5 101,-30.5 101,-0.5 0,-0.5"/>
<text text-anchor="start" x="8" y="-18.5" font-family="Helvetica,sans-Serif" font-size="10.00">infra::OutputStream</text>
<text text-anchor="middle" x="50.5" y="-7.5" font-family="Helvetica,sans-Serif" font-size="10.00">::Available</text>
</g>
<!-- Node5 -->
<g id="node2" class="node"><title>Node5</title>
<g id="a_node2"><a xlink:href="../../de/dba/classinfra_1_1_stream_writer.html#a0198c23104a3abe6a1baca4d3dd87bf3" target="_top" xlink:title="infra::StreamWriter\l::Available">
<polygon fill="white" stroke="black" points="137,-0.5 137,-30.5 235,-30.5 235,-0.5 137,-0.5"/>
<text text-anchor="start" x="145" y="-18.5" font-family="Helvetica,sans-Serif" font-size="10.00">infra::StreamWriter</text>
<text text-anchor="middle" x="186" y="-7.5" font-family="Helvetica,sans-Serif" font-size="10.00">::Available</text>
</a>
</g>
</g>
<!-- Node4&#45;&gt;Node5 -->
<g id="edge1" class="edge"><title>Node4&#45;&gt;Node5</title>
<path fill="none" stroke="midnightblue" d="M101.21,-15.5C109.432,-15.5 118.024,-15.5 126.439,-15.5"/>
<polygon fill="midnightblue" stroke="midnightblue" points="126.579,-19.0001 136.579,-15.5 126.579,-12.0001 126.579,-19.0001"/>
</g>
</g>
</svg>
