<?xml version="1.0" encoding="UTF-8" standalone="no"?>
<!DOCTYPE svg PUBLIC "-//W3C//DTD SVG 1.1//EN"
 "http://www.w3.org/Graphics/SVG/1.1/DTD/svg11.dtd">
<!-- Generated by graphviz version 2.38.0 (20140413.2041)
 -->
<!-- Title: infra::OutputStream::Writer Pages: 1 -->
<svg width="1639pt" height="389pt"
 viewBox="0.00 0.00 1639.00 389.00" xmlns="http://www.w3.org/2000/svg" xmlns:xlink="http://www.w3.org/1999/xlink">
<g id="graph0" class="graph" transform="scale(1 1) rotate(0) translate(4 385)">
<title>infra::OutputStream::Writer</title>
<polygon fill="white" stroke="none" points="-4,4 -4,-385 1635,-385 1635,4 -4,4"/>
<!-- Node60 -->
<g id="node1" class="node"><title>Node60</title>
<polygon fill="#bfbfbf" stroke="black" points="0,-175.5 0,-205.5 101,-205.5 101,-175.5 0,-175.5"/>
<text text-anchor="start" x="8" y="-193.5" font-family="Helvetica,sans-Serif" font-size="10.00">infra::OutputStream</text>
<text text-anchor="middle" x="50.5" y="-182.5" font-family="Helvetica,sans-Serif" font-size="10.00">::Writer</text>
</g>
<!-- Node61 -->
<g id="node2" class="node"><title>Node61</title>
<g id="a_node2"><a xlink:href="../../de/dad/classinfra_1_1_text_output_stream.html#a48c069cf897f332dee1d405702870bc9" target="_top" xlink:title="infra::TextOutputStream\l::FormatArgs">
<polygon fill="white" stroke="black" points="161.5,-350.5 161.5,-380.5 281.5,-380.5 281.5,-350.5 161.5,-350.5"/>
<text text-anchor="start" x="169.5" y="-368.5" font-family="Helvetica,sans-Serif" font-size="10.00">infra::TextOutputStream</text>
<text text-anchor="middle" x="221.5" y="-357.5" font-family="Helvetica,sans-Serif" font-size="10.00">::FormatArgs</text>
</a>
</g>
</g>
<!-- Node60&#45;&gt;Node61 -->
<g id="edge1" class="edge"><title>Node60&#45;&gt;Node61</title>
<path fill="none" stroke="midnightblue" d="M58.9934,-215.492C70.3642,-249.126 95.1957,-308.534 137,-341.5 144.106,-347.104 152.468,-351.399 161.107,-354.692"/>
<polygon fill="midnightblue" stroke="midnightblue" points="62.309,-214.37 55.8928,-205.939 55.6509,-216.531 62.309,-214.37"/>
</g>
<!-- Node64 -->
<g id="node5" class="node"><title>Node64</title>
<g id="a_node5"><a xlink:href="../../d6/d7d/classinfra_1_1_data_output_stream.html#abe014b5d666c0acb2d80c31743f5830a" target="_top" xlink:title="infra::DataOutputStream\l::operator\&lt;\&lt;">
<polygon fill="white" stroke="black" points="160.5,-301.5 160.5,-331.5 282.5,-331.5 282.5,-301.5 160.5,-301.5"/>
<text text-anchor="start" x="168.5" y="-319.5" font-family="Helvetica,sans-Serif" font-size="10.00">infra::DataOutputStream</text>
<text text-anchor="middle" x="221.5" y="-308.5" font-family="Helvetica,sans-Serif" font-size="10.00">::operator&lt;&lt;</text>
</a>
</g>
</g>
<!-- Node60&#45;&gt;Node64 -->
<g id="edge4" class="edge"><title>Node60&#45;&gt;Node64</title>
<path fill="none" stroke="midnightblue" d="M67.1068,-213.896C82.5648,-235.447 108.066,-266.957 137,-286.5 145.808,-292.449 155.934,-297.371 166.027,-301.386"/>
<polygon fill="midnightblue" stroke="midnightblue" points="69.9095,-211.797 61.3066,-205.613 64.1754,-215.812 69.9095,-211.797"/>
</g>
<!-- Node65 -->
<g id="node6" class="node"><title>Node65</title>
<g id="a_node6"><a xlink:href="../../de/dad/classinfra_1_1_text_output_stream.html#ad9a08dad6ccb61560ee3fe4988c46b14" target="_top" xlink:title="infra::TextOutputStream\l::operator\&lt;\&lt;">
<polygon fill="white" stroke="black" points="358,-251.5 358,-281.5 478,-281.5 478,-251.5 358,-251.5"/>
<text text-anchor="start" x="366" y="-269.5" font-family="Helvetica,sans-Serif" font-size="10.00">infra::TextOutputStream</text>
<text text-anchor="middle" x="418" y="-258.5" font-family="Helvetica,sans-Serif" font-size="10.00">::operator&lt;&lt;</text>
</a>
</g>
</g>
<!-- Node60&#45;&gt;Node65 -->
<g id="edge5" class="edge"><title>Node60&#45;&gt;Node65</title>
<path fill="none" stroke="midnightblue" d="M85.4529,-210.455C100.727,-218.559 119.276,-227.236 137,-232.5 211.167,-254.529 300.442,-262.317 357.924,-265.052"/>
<polygon fill="midnightblue" stroke="midnightblue" points="86.8576,-207.235 76.4027,-205.519 83.5056,-213.38 86.8576,-207.235"/>
</g>
<!-- Node66 -->
<g id="node7" class="node"><title>Node66</title>
<g id="a_node7"><a xlink:href="../../de/dad/classinfra_1_1_text_output_stream.html#a9b627105e14075f43bb5fc5d4ad68471" target="_top" xlink:title="infra::TextOutputStream\l::OutputAsBinary">
<polygon fill="white" stroke="black" points="358,-199.5 358,-229.5 478,-229.5 478,-199.5 358,-199.5"/>
<text text-anchor="start" x="366" y="-217.5" font-family="Helvetica,sans-Serif" font-size="10.00">infra::TextOutputStream</text>
<text text-anchor="middle" x="418" y="-206.5" font-family="Helvetica,sans-Serif" font-size="10.00">::OutputAsBinary</text>
</a>
</g>
</g>
<!-- Node60&#45;&gt;Node66 -->
<g id="edge6" class="edge"><title>Node60&#45;&gt;Node66</title>
<path fill="none" stroke="midnightblue" d="M103.796,-208.334C114.648,-211.312 126.099,-213.939 137,-215.5 212.67,-226.336 301.025,-223.482 357.931,-219.669"/>
<polygon fill="midnightblue" stroke="midnightblue" points="104.609,-204.926 94.0311,-205.519 102.671,-211.652 104.609,-204.926"/>
</g>
<!-- Node68 -->
<g id="node9" class="node"><title>Node68</title>
<g id="a_node9"><a xlink:href="../../de/dad/classinfra_1_1_text_output_stream.html#a55298d6ae079533b0ba5b3f39864e53d" target="_top" xlink:title="infra::TextOutputStream\l::OutputAsDecimal">
<polygon fill="white" stroke="black" points="358,-150.5 358,-180.5 478,-180.5 478,-150.5 358,-150.5"/>
<text text-anchor="start" x="366" y="-168.5" font-family="Helvetica,sans-Serif" font-size="10.00">infra::TextOutputStream</text>
<text text-anchor="middle" x="418" y="-157.5" font-family="Helvetica,sans-Serif" font-size="10.00">::OutputAsDecimal</text>
</a>
</g>
</g>
<!-- Node60&#45;&gt;Node68 -->
<g id="edge8" class="edge"><title>Node60&#45;&gt;Node68</title>
<path fill="none" stroke="midnightblue" d="M106.227,-172.787C116.358,-170.182 126.922,-167.906 137,-166.5 212.708,-155.938 301.055,-157.974 357.948,-161.117"/>
<polygon fill="midnightblue" stroke="midnightblue" points="105.014,-169.489 96.276,-175.48 106.843,-176.246 105.014,-169.489"/>
</g>
<!-- Node69 -->
<g id="node10" class="node"><title>Node69</title>
<g id="a_node10"><a xlink:href="../../de/dad/classinfra_1_1_text_output_stream.html#aa1bfa573ef214b73cb1e821d7a3d17e2" target="_top" xlink:title="infra::TextOutputStream\l::OutputAsHexadecimal">
<polygon fill="white" stroke="black" points="358,-101.5 358,-131.5 478,-131.5 478,-101.5 358,-101.5"/>
<text text-anchor="start" x="366" y="-119.5" font-family="Helvetica,sans-Serif" font-size="10.00">infra::TextOutputStream</text>
<text text-anchor="middle" x="418" y="-108.5" font-family="Helvetica,sans-Serif" font-size="10.00">::OutputAsHexadecimal</text>
</a>
</g>
</g>
<!-- Node60&#45;&gt;Node69 -->
<g id="edge10" class="edge"><title>Node60&#45;&gt;Node69</title>
<path fill="none" stroke="midnightblue" d="M91.1209,-171.253C105.306,-165.054 121.599,-158.708 137,-154.5 211.651,-134.104 300.621,-124.415 357.917,-119.983"/>
<polygon fill="midnightblue" stroke="midnightblue" points="89.3644,-168.205 81.6738,-175.492 92.2303,-174.591 89.3644,-168.205"/>
</g>
<!-- Node70 -->
<g id="node11" class="node"><title>Node70</title>
<g id="a_node11"><a xlink:href="../../de/dad/classinfra_1_1_text_output_stream.html#a85526809e527b195bc5cee71e475cebc" target="_top" xlink:title="infra::TextOutputStream\l::OutputOptionalPadding">
<polygon fill="white" stroke="black" points="160,-175.5 160,-205.5 283,-205.5 283,-175.5 160,-175.5"/>
<text text-anchor="start" x="168" y="-193.5" font-family="Helvetica,sans-Serif" font-size="10.00">infra::TextOutputStream</text>
<text text-anchor="middle" x="221.5" y="-182.5" font-family="Helvetica,sans-Serif" font-size="10.00">::OutputOptionalPadding</text>
</a>
</g>
</g>
<!-- Node60&#45;&gt;Node70 -->
<g id="edge12" class="edge"><title>Node60&#45;&gt;Node70</title>
<path fill="none" stroke="midnightblue" d="M111.388,-190.5C127.062,-190.5 143.975,-190.5 159.696,-190.5"/>
<polygon fill="midnightblue" stroke="midnightblue" points="111.292,-187 101.292,-190.5 111.291,-194 111.292,-187"/>
</g>
<!-- Node71 -->
<g id="node12" class="node"><title>Node71</title>
<g id="a_node12"><a xlink:href="../../d9/dce/classservices_1_1_http_response.html#a2bdfd05b582453e0ba050dfa18009be7" target="_top" xlink:title="services::HttpResponse\l::WriteResponse">
<polygon fill="white" stroke="black" points="162,-49.5 162,-79.5 281,-79.5 281,-49.5 162,-49.5"/>
<text text-anchor="start" x="170" y="-67.5" font-family="Helvetica,sans-Serif" font-size="10.00">services::HttpResponse</text>
<text text-anchor="middle" x="221.5" y="-56.5" font-family="Helvetica,sans-Serif" font-size="10.00">::WriteResponse</text>
</a>
</g>
</g>
<!-- Node60&#45;&gt;Node71 -->
<g id="edge17" class="edge"><title>Node60&#45;&gt;Node71</title>
<path fill="none" stroke="midnightblue" d="M67.1068,-167.104C82.5648,-145.553 108.066,-114.043 137,-94.5 145.808,-88.5509 155.934,-83.6294 166.027,-79.6136"/>
<polygon fill="midnightblue" stroke="midnightblue" points="64.1754,-165.188 61.3066,-175.387 69.9095,-169.203 64.1754,-165.188"/>
</g>
<!-- Node80 -->
<g id="node21" class="node"><title>Node80</title>
<g id="a_node21"><a xlink:href="../../d5/d41/classinfra_1_1_saved_marker_stream_writer.html#a01e3db354dd4bc1a28288f4aad9e73c9" target="_top" xlink:title="infra::SavedMarkerStream\lWriter::~SavedMarkerStreamWriter">
<polygon fill="white" stroke="black" points="137,-0.5 137,-30.5 306,-30.5 306,-0.5 137,-0.5"/>
<text text-anchor="start" x="145" y="-18.5" font-family="Helvetica,sans-Serif" font-size="10.00">infra::SavedMarkerStream</text>
<text text-anchor="middle" x="221.5" y="-7.5" font-family="Helvetica,sans-Serif" font-size="10.00">Writer::~SavedMarkerStreamWriter</text>
</a>
</g>
</g>
<!-- Node60&#45;&gt;Node80 -->
<g id="edge28" class="edge"><title>Node60&#45;&gt;Node80</title>
<path fill="none" stroke="midnightblue" d="M58.9934,-165.508C70.3642,-131.874 95.1957,-72.4655 137,-39.5 141.382,-36.0443 146.242,-33.0862 151.35,-30.5539"/>
<polygon fill="midnightblue" stroke="midnightblue" points="55.6509,-164.469 55.8928,-175.061 62.309,-166.63 55.6509,-164.469"/>
</g>
<!-- Node62 -->
<g id="node3" class="node"><title>Node62</title>
<g id="a_node3"><a xlink:href="../../de/dad/classinfra_1_1_text_output_stream.html#af330288c320a9be573f622c3461bb13e" target="_top" xlink:title="infra::TextOutputStream\l::FormatHelper">
<polygon fill="white" stroke="black" points="358,-350.5 358,-380.5 478,-380.5 478,-350.5 358,-350.5"/>
<text text-anchor="start" x="366" y="-368.5" font-family="Helvetica,sans-Serif" font-size="10.00">infra::TextOutputStream</text>
<text text-anchor="middle" x="418" y="-357.5" font-family="Helvetica,sans-Serif" font-size="10.00">::FormatHelper</text>
</a>
</g>
</g>
<!-- Node61&#45;&gt;Node62 -->
<g id="edge2" class="edge"><title>Node61&#45;&gt;Node62</title>
<path fill="none" stroke="midnightblue" d="M291.74,-365.5C313.339,-365.5 336.952,-365.5 357.798,-365.5"/>
<polygon fill="midnightblue" stroke="midnightblue" points="291.649,-362 281.649,-365.5 291.649,-369 291.649,-362"/>
</g>
<!-- Node63 -->
<g id="node4" class="node"><title>Node63</title>
<g id="a_node4"><a xlink:href="../../de/dad/classinfra_1_1_text_output_stream.html#a0cc7fbf3249a462792fed4557b33c4b2" target="_top" xlink:title="infra::TextOutputStream\l::Format">
<polygon fill="white" stroke="black" points="546,-350.5 546,-380.5 666,-380.5 666,-350.5 546,-350.5"/>
<text text-anchor="start" x="554" y="-368.5" font-family="Helvetica,sans-Serif" font-size="10.00">infra::TextOutputStream</text>
<text text-anchor="middle" x="606" y="-357.5" font-family="Helvetica,sans-Serif" font-size="10.00">::Format</text>
</a>
</g>
</g>
<!-- Node62&#45;&gt;Node63 -->
<g id="edge3" class="edge"><title>Node62&#45;&gt;Node63</title>
<path fill="none" stroke="midnightblue" d="M488.153,-365.5C507.076,-365.5 527.411,-365.5 545.728,-365.5"/>
<polygon fill="midnightblue" stroke="midnightblue" points="488.107,-362 478.107,-365.5 488.107,-369 488.107,-362"/>
</g>
<!-- Node67 -->
<g id="node8" class="node"><title>Node67</title>
<g id="a_node8"><a xlink:href="../../de/dad/classinfra_1_1_text_output_stream.html#ad5d6120732b9ad9d235c654c7eeb8a78" target="_top" xlink:title="infra::TextOutputStream\l::operator\&lt;\&lt;">
<polygon fill="white" stroke="black" points="546,-150.5 546,-180.5 666,-180.5 666,-150.5 546,-150.5"/>
<text text-anchor="start" x="554" y="-168.5" font-family="Helvetica,sans-Serif" font-size="10.00">infra::TextOutputStream</text>
<text text-anchor="middle" x="606" y="-157.5" font-family="Helvetica,sans-Serif" font-size="10.00">::operator&lt;&lt;</text>
</a>
</g>
</g>
<!-- Node66&#45;&gt;Node67 -->
<g id="edge7" class="edge"><title>Node66&#45;&gt;Node67</title>
<path fill="none" stroke="midnightblue" d="M485.895,-196.877C506.244,-191.516 528.408,-185.677 548.038,-180.506"/>
<polygon fill="midnightblue" stroke="midnightblue" points="484.849,-193.533 476.07,-199.465 486.632,-200.302 484.849,-193.533"/>
</g>
<!-- Node68&#45;&gt;Node67 -->
<g id="edge9" class="edge"><title>Node68&#45;&gt;Node67</title>
<path fill="none" stroke="midnightblue" d="M488.153,-165.5C507.076,-165.5 527.411,-165.5 545.728,-165.5"/>
<polygon fill="midnightblue" stroke="midnightblue" points="488.107,-162 478.107,-165.5 488.107,-169 488.107,-162"/>
</g>
<!-- Node69&#45;&gt;Node67 -->
<g id="edge11" class="edge"><title>Node69&#45;&gt;Node67</title>
<path fill="none" stroke="midnightblue" d="M485.895,-134.123C506.244,-139.484 528.408,-145.323 548.038,-150.494"/>
<polygon fill="midnightblue" stroke="midnightblue" points="486.632,-130.698 476.07,-131.535 484.849,-137.467 486.632,-130.698"/>
</g>
<!-- Node70&#45;&gt;Node65 -->
<g id="edge13" class="edge"><title>Node70&#45;&gt;Node65</title>
<path fill="none" stroke="midnightblue" d="M267.392,-209.449C289.727,-218.738 317.188,-229.952 342,-239.5 352.332,-243.476 363.531,-247.604 374.046,-251.4"/>
<polygon fill="midnightblue" stroke="midnightblue" points="268.733,-206.216 258.157,-205.596 266.038,-212.677 268.733,-206.216"/>
</g>
<!-- Node70&#45;&gt;Node66 -->
<g id="edge15" class="edge"><title>Node70&#45;&gt;Node66</title>
<path fill="none" stroke="midnightblue" d="M293.439,-199.253C314.545,-201.858 337.438,-204.683 357.719,-207.185"/>
<polygon fill="midnightblue" stroke="midnightblue" points="293.594,-195.746 283.241,-197.995 292.737,-202.693 293.594,-195.746"/>
</g>
<!-- Node70&#45;&gt;Node68 -->
<g id="edge14" class="edge"><title>Node70&#45;&gt;Node68</title>
<path fill="none" stroke="midnightblue" d="M293.439,-181.382C314.545,-178.669 337.438,-175.726 357.719,-173.12"/>
<polygon fill="midnightblue" stroke="midnightblue" points="292.713,-177.946 283.241,-182.693 293.606,-184.889 292.713,-177.946"/>
</g>
<!-- Node70&#45;&gt;Node69 -->
<g id="edge16" class="edge"><title>Node70&#45;&gt;Node69</title>
<path fill="none" stroke="midnightblue" d="M266.802,-171.502C289.201,-162.109 316.893,-150.82 342,-141.5 351.007,-138.157 360.696,-134.772 370.02,-131.62"/>
<polygon fill="midnightblue" stroke="midnightblue" points="265.407,-168.292 257.55,-175.4 268.124,-174.743 265.407,-168.292"/>
</g>
<!-- Node72 -->
<g id="node13" class="node"><title>Node72</title>
<g id="a_node13"><a xlink:href="../../d2/db3/classservices_1_1_http_server_connection_observer.html#a48786ed298c958e0c90a861ab09f01b2" target="_top" xlink:title="services::HttpServerConnection\lObserver::SendResponse">
<polygon fill="white" stroke="black" points="342,-49.5 342,-79.5 494,-79.5 494,-49.5 342,-49.5"/>
<text text-anchor="start" x="350" y="-67.5" font-family="Helvetica,sans-Serif" font-size="10.00">services::HttpServerConnection</text>
<text text-anchor="middle" x="418" y="-56.5" font-family="Helvetica,sans-Serif" font-size="10.00">Observer::SendResponse</text>
</a>
</g>
</g>
<!-- Node71&#45;&gt;Node72 -->
<g id="edge18" class="edge"><title>Node71&#45;&gt;Node72</title>
<path fill="none" stroke="midnightblue" d="M291.175,-64.5C307.601,-64.5 325.22,-64.5 341.919,-64.5"/>
<polygon fill="midnightblue" stroke="midnightblue" points="291.12,-61.0001 281.12,-64.5 291.12,-68.0001 291.12,-61.0001"/>
</g>
<!-- Node73 -->
<g id="node14" class="node"><title>Node73</title>
<g id="a_node14"><a xlink:href="../../d2/db3/classservices_1_1_http_server_connection_observer.html#afd24d585e0b90fc44643244b0712f92f" target="_top" xlink:title="services::HttpServerConnection\lObserver::ReceivedTooMuchData">
<polygon fill="white" stroke="black" points="718,-5.5 718,-35.5 878,-35.5 878,-5.5 718,-5.5"/>
<text text-anchor="start" x="726" y="-23.5" font-family="Helvetica,sans-Serif" font-size="10.00">services::HttpServerConnection</text>
<text text-anchor="middle" x="798" y="-12.5" font-family="Helvetica,sans-Serif" font-size="10.00">Observer::ReceivedTooMuchData</text>
</a>
</g>
</g>
<!-- Node72&#45;&gt;Node73 -->
<g id="edge19" class="edge"><title>Node72&#45;&gt;Node73</title>
<path fill="none" stroke="midnightblue" d="M504.358,-53.6153C513.017,-52.5467 521.683,-51.4918 530,-50.5 593.108,-42.9752 664.672,-34.9622 717.815,-29.1123"/>
<polygon fill="midnightblue" stroke="midnightblue" points="503.709,-50.1689 494.216,-54.8731 504.571,-57.1156 503.709,-50.1689"/>
</g>
<!-- Node76 -->
<g id="node17" class="node"><title>Node76</title>
<g id="a_node17"><a xlink:href="../../d2/db3/classservices_1_1_http_server_connection_observer.html#a54d34389a1f80059a349bfb5b5f273dc" target="_top" xlink:title="services::HttpServerConnection\lObserver::TryHandleRequest">
<polygon fill="white" stroke="black" points="914,-49.5 914,-79.5 1066,-79.5 1066,-49.5 914,-49.5"/>
<text text-anchor="start" x="922" y="-67.5" font-family="Helvetica,sans-Serif" font-size="10.00">services::HttpServerConnection</text>
<text text-anchor="middle" x="990" y="-56.5" font-family="Helvetica,sans-Serif" font-size="10.00">Observer::TryHandleRequest</text>
</a>
</g>
</g>
<!-- Node72&#45;&gt;Node76 -->
<g id="edge22" class="edge"><title>Node72&#45;&gt;Node76</title>
<path fill="none" stroke="midnightblue" d="M504.263,-64.5C615.337,-64.5 807.811,-64.5 913.73,-64.5"/>
<polygon fill="midnightblue" stroke="midnightblue" points="504.104,-61.0001 494.104,-64.5 504.104,-68.0001 504.104,-61.0001"/>
</g>
<!-- Node78 -->
<g id="node19" class="node"><title>Node78</title>
<g id="a_node19"><a xlink:href="../../d2/db3/classservices_1_1_http_server_connection_observer.html#a9d0c9926c69222f44621afb71304247d" target="_top" xlink:title="services::HttpServerConnection\lObserver::ServePage">
<polygon fill="white" stroke="black" points="530,-93.5 530,-123.5 682,-123.5 682,-93.5 530,-93.5"/>
<text text-anchor="start" x="538" y="-111.5" font-family="Helvetica,sans-Serif" font-size="10.00">services::HttpServerConnection</text>
<text text-anchor="middle" x="606" y="-100.5" font-family="Helvetica,sans-Serif" font-size="10.00">Observer::ServePage</text>
</a>
</g>
</g>
<!-- Node72&#45;&gt;Node78 -->
<g id="edge25" class="edge"><title>Node72&#45;&gt;Node78</title>
<path fill="none" stroke="midnightblue" d="M492.457,-81.8769C508.666,-85.7112 525.704,-89.7418 541.48,-93.4738"/>
<polygon fill="midnightblue" stroke="midnightblue" points="493.028,-78.4154 482.49,-79.5192 491.416,-85.2274 493.028,-78.4154"/>
</g>
<!-- Node74 -->
<g id="node15" class="node"><title>Node74</title>
<g id="a_node15"><a xlink:href="../../d2/db3/classservices_1_1_http_server_connection_observer.html#a3c5cabea13da6e140280b1b8c77244b3" target="_top" xlink:title="services::HttpServerConnection\lObserver::DataReceived">
<polygon fill="white" stroke="black" points="1290,-27.5 1290,-57.5 1442,-57.5 1442,-27.5 1290,-27.5"/>
<text text-anchor="start" x="1298" y="-45.5" font-family="Helvetica,sans-Serif" font-size="10.00">services::HttpServerConnection</text>
<text text-anchor="middle" x="1366" y="-34.5" font-family="Helvetica,sans-Serif" font-size="10.00">Observer::DataReceived</text>
</a>
</g>
</g>
<!-- Node73&#45;&gt;Node74 -->
<g id="edge20" class="edge"><title>Node73&#45;&gt;Node74</title>
<path fill="none" stroke="midnightblue" d="M888.447,-23.9768C999.264,-28.2841 1186.1,-35.5462 1289.85,-39.579"/>
<polygon fill="midnightblue" stroke="midnightblue" points="888.424,-20.4733 878.296,-23.5822 888.152,-27.468 888.424,-20.4733"/>
</g>
<!-- Node75 -->
<g id="node16" class="node"><title>Node75</title>
<g id="a_node16"><a xlink:href="../../d2/db3/classservices_1_1_http_server_connection_observer.html#a579fc75f469c5b79141187fc04dbf74c" target="_top" xlink:title="services::HttpServerConnection\lObserver::SendStreamAvailable">
<polygon fill="white" stroke="black" points="1478,-27.5 1478,-57.5 1631,-57.5 1631,-27.5 1478,-27.5"/>
<text text-anchor="start" x="1486" y="-45.5" font-family="Helvetica,sans-Serif" font-size="10.00">services::HttpServerConnection</text>
<text text-anchor="middle" x="1554.5" y="-34.5" font-family="Helvetica,sans-Serif" font-size="10.00">Observer::SendStreamAvailable</text>
</a>
</g>
</g>
<!-- Node74&#45;&gt;Node75 -->
<g id="edge21" class="edge"><title>Node74&#45;&gt;Node75</title>
<path fill="none" stroke="midnightblue" d="M1452.12,-42.5C1460.75,-42.5 1469.48,-42.5 1478,-42.5"/>
<polygon fill="midnightblue" stroke="midnightblue" points="1452.05,-39.0001 1442.05,-42.5 1452.05,-46.0001 1452.05,-39.0001"/>
</g>
<!-- Node77 -->
<g id="node18" class="node"><title>Node77</title>
<g id="a_node18"><a xlink:href="../../d2/db3/classservices_1_1_http_server_connection_observer.html#a6213f7b12f5fb1c0ddbabdb859ddca0a" target="_top" xlink:title="services::HttpServerConnection\lObserver::ReceivedRequest">
<polygon fill="white" stroke="black" points="1102,-49.5 1102,-79.5 1254,-79.5 1254,-49.5 1102,-49.5"/>
<text text-anchor="start" x="1110" y="-67.5" font-family="Helvetica,sans-Serif" font-size="10.00">services::HttpServerConnection</text>
<text text-anchor="middle" x="1178" y="-56.5" font-family="Helvetica,sans-Serif" font-size="10.00">Observer::ReceivedRequest</text>
</a>
</g>
</g>
<!-- Node76&#45;&gt;Node77 -->
<g id="edge23" class="edge"><title>Node76&#45;&gt;Node77</title>
<path fill="none" stroke="midnightblue" d="M1076.15,-64.5C1084.74,-64.5 1093.43,-64.5 1101.9,-64.5"/>
<polygon fill="midnightblue" stroke="midnightblue" points="1076.12,-61.0001 1066.12,-64.5 1076.12,-68.0001 1076.12,-61.0001"/>
</g>
<!-- Node77&#45;&gt;Node74 -->
<g id="edge24" class="edge"><title>Node77&#45;&gt;Node74</title>
<path fill="none" stroke="midnightblue" d="M1264.15,-54.4288C1272.74,-53.4123 1281.43,-52.385 1289.9,-51.3822"/>
<polygon fill="midnightblue" stroke="midnightblue" points="1263.64,-50.9647 1254.12,-55.6152 1264.46,-57.9162 1263.64,-50.9647"/>
</g>
<!-- Node79 -->
<g id="node20" class="node"><title>Node79</title>
<g id="a_node20"><a xlink:href="../../d2/db3/classservices_1_1_http_server_connection_observer.html#a52e5c280fabbed909272946c730d6aff" target="_top" xlink:title="services::HttpServerConnection\lObserver::HandleRequest">
<polygon fill="white" stroke="black" points="722,-93.5 722,-123.5 874,-123.5 874,-93.5 722,-93.5"/>
<text text-anchor="start" x="730" y="-111.5" font-family="Helvetica,sans-Serif" font-size="10.00">services::HttpServerConnection</text>
<text text-anchor="middle" x="798" y="-100.5" font-family="Helvetica,sans-Serif" font-size="10.00">Observer::HandleRequest</text>
</a>
</g>
</g>
<!-- Node78&#45;&gt;Node79 -->
<g id="edge26" class="edge"><title>Node78&#45;&gt;Node79</title>
<path fill="none" stroke="midnightblue" d="M692.289,-108.5C702.138,-108.5 712.129,-108.5 721.83,-108.5"/>
<polygon fill="midnightblue" stroke="midnightblue" points="692.093,-105 682.093,-108.5 692.093,-112 692.093,-105"/>
</g>
<!-- Node79&#45;&gt;Node76 -->
<g id="edge27" class="edge"><title>Node79&#45;&gt;Node76</title>
<path fill="none" stroke="midnightblue" d="M874.037,-91.1231C890.594,-87.2888 907.999,-83.2582 924.114,-79.5262"/>
<polygon fill="midnightblue" stroke="midnightblue" points="872.808,-87.8148 863.856,-93.4808 874.388,-94.6344 872.808,-87.8148"/>
</g>
</g>
</svg>
