<?xml version="1.0" encoding="UTF-8" standalone="no"?>
<!DOCTYPE svg PUBLIC "-//W3C//DTD SVG 1.1//EN"
 "http://www.w3.org/Graphics/SVG/1.1/DTD/svg11.dtd">
<!-- Generated by graphviz version 2.38.0 (20140413.2041)
 -->
<!-- Title: application::SecondStageToRamLoader::Load Pages: 1 -->
<svg width="828pt" height="464pt"
 viewBox="0.00 0.00 828.00 464.00" xmlns="http://www.w3.org/2000/svg" xmlns:xlink="http://www.w3.org/1999/xlink">
<g id="graph0" class="graph" transform="scale(1 1) rotate(0) translate(4 460)">
<title>application::SecondStageToRamLoader::Load</title>
<polygon fill="white" stroke="none" points="-4,4 -4,-460 824,-460 824,4 -4,4"/>
<!-- Node2 -->
<g id="node1" class="node"><title>Node2</title>
<polygon fill="#bfbfbf" stroke="black" points="0,-332.5 0,-362.5 128,-362.5 128,-332.5 0,-332.5"/>
<text text-anchor="start" x="8" y="-350.5" font-family="Helvetica,sans-Serif" font-size="10.00">application::SecondStage</text>
<text text-anchor="middle" x="64" y="-339.5" font-family="Helvetica,sans-Serif" font-size="10.00">ToRamLoader::Load</text>
</g>
<!-- Node3 -->
<g id="node2" class="node"><title>Node3</title>
<g id="a_node2"><a xlink:href="../../d1/dd1/classapplication_1_1_verifier.html#aee002f86c5aee7b77fb7450a3f5b1b71" target="_top" xlink:title="application::Verifier\l::IsValid">
<polygon fill="white" stroke="black" points="186,-425.5 186,-455.5 285,-455.5 285,-425.5 186,-425.5"/>
<text text-anchor="start" x="194" y="-443.5" font-family="Helvetica,sans-Serif" font-size="10.00">application::Verifier</text>
<text text-anchor="middle" x="235.5" y="-432.5" font-family="Helvetica,sans-Serif" font-size="10.00">::IsValid</text>
</a>
</g>
</g>
<!-- Node2&#45;&gt;Node3 -->
<g id="edge1" class="edge"><title>Node2&#45;&gt;Node3</title>
<path fill="none" stroke="midnightblue" d="M83.7841,-362.625C103.035,-377.576 134.275,-400.352 164,-415.5 168.259,-417.671 172.752,-419.734 177.322,-421.676"/>
<polygon fill="midnightblue" stroke="midnightblue" points="176.179,-424.989 186.762,-425.487 178.799,-418.498 176.179,-424.989"/>
</g>
<!-- Node4 -->
<g id="node3" class="node"><title>Node4</title>
<g id="a_node3"><a xlink:href="../../d0/de3/namespaceinfra.html#ae4478bf95f90ceb679642cb4180f205f" target="_top" xlink:title="infra::MakeByteRange">
<polygon fill="white" stroke="black" points="350.5,-344 350.5,-363 463.5,-363 463.5,-344 350.5,-344"/>
<text text-anchor="middle" x="407" y="-351" font-family="Helvetica,sans-Serif" font-size="10.00">infra::MakeByteRange</text>
</a>
</g>
</g>
<!-- Node2&#45;&gt;Node4 -->
<g id="edge2" class="edge"><title>Node2&#45;&gt;Node4</title>
<path fill="none" stroke="midnightblue" d="M128.34,-348.614C188.607,-349.675 278.912,-351.264 340.033,-352.339"/>
<polygon fill="midnightblue" stroke="midnightblue" points="340.276,-355.844 350.336,-352.521 340.399,-348.845 340.276,-355.844"/>
</g>
<!-- Node9 -->
<g id="node8" class="node"><title>Node9</title>
<g id="a_node8"><a xlink:href="../../d5/dc9/classapplication_1_1_second_stage_to_ram_loader.html#a2ea672dd0c1198a92881a9cb60cff7c0" target="_top" xlink:title="application::SecondStage\lToRamLoader::MarkAsError">
<polygon fill="white" stroke="black" points="167,-376.5 167,-406.5 304,-406.5 304,-376.5 167,-376.5"/>
<text text-anchor="start" x="175" y="-394.5" font-family="Helvetica,sans-Serif" font-size="10.00">application::SecondStage</text>
<text text-anchor="middle" x="235.5" y="-383.5" font-family="Helvetica,sans-Serif" font-size="10.00">ToRamLoader::MarkAsError</text>
</a>
</g>
</g>
<!-- Node2&#45;&gt;Node9 -->
<g id="edge7" class="edge"><title>Node2&#45;&gt;Node9</title>
<path fill="none" stroke="midnightblue" d="M122.858,-362.519C136.962,-366.18 152.174,-370.129 166.695,-373.899"/>
<polygon fill="midnightblue" stroke="midnightblue" points="166.056,-377.349 176.615,-376.474 167.815,-370.573 166.056,-377.349"/>
</g>
<!-- Node11 -->
<g id="node10" class="node"><title>Node11</title>
<g id="a_node10"><a xlink:href="../../d5/dff/classhal_1_1_synchronous_flash.html#a8e353a81cf310908c987d6cac6e452ec" target="_top" xlink:title="hal::SynchronousFlash\l::ReadBuffer">
<polygon fill="white" stroke="black" points="349,-294.5 349,-324.5 465,-324.5 465,-294.5 349,-294.5"/>
<text text-anchor="start" x="357" y="-312.5" font-family="Helvetica,sans-Serif" font-size="10.00">hal::SynchronousFlash</text>
<text text-anchor="middle" x="407" y="-301.5" font-family="Helvetica,sans-Serif" font-size="10.00">::ReadBuffer</text>
</a>
</g>
</g>
<!-- Node2&#45;&gt;Node11 -->
<g id="edge10" class="edge"><title>Node2&#45;&gt;Node11</title>
<path fill="none" stroke="midnightblue" d="M128.34,-340.442C188.151,-333.776 277.55,-323.814 338.643,-317.006"/>
<polygon fill="midnightblue" stroke="midnightblue" points="339.4,-320.443 348.951,-315.857 338.624,-313.487 339.4,-320.443"/>
</g>
<!-- Node12 -->
<g id="node11" class="node"><title>Node12</title>
<g id="a_node11"><a xlink:href="../../d5/dc9/classapplication_1_1_second_stage_to_ram_loader.html#a6eaba267be0f1fc5c12c3e4002d0fd78" target="_top" xlink:title="application::SecondStage\lToRamLoader::TryLoadImage">
<polygon fill="white" stroke="black" points="164,-196.5 164,-226.5 307,-226.5 307,-196.5 164,-196.5"/>
<text text-anchor="start" x="172" y="-214.5" font-family="Helvetica,sans-Serif" font-size="10.00">application::SecondStage</text>
<text text-anchor="middle" x="235.5" y="-203.5" font-family="Helvetica,sans-Serif" font-size="10.00">ToRamLoader::TryLoadImage</text>
</a>
</g>
</g>
<!-- Node2&#45;&gt;Node12 -->
<g id="edge11" class="edge"><title>Node2&#45;&gt;Node12</title>
<path fill="none" stroke="midnightblue" d="M83.7871,-332.426C113.95,-308.224 173.287,-260.615 207.828,-232.901"/>
<polygon fill="midnightblue" stroke="midnightblue" points="210.019,-235.63 215.629,-226.642 205.639,-230.17 210.019,-235.63"/>
</g>
<!-- Node5 -->
<g id="node4" class="node"><title>Node5</title>
<g id="a_node4"><a xlink:href="../../d0/de3/namespaceinfra.html#a74203fdf2e029d2667c7e4925092cc9a" target="_top" xlink:title="infra::ReinterpretCastByte\lRange">
<polygon fill="white" stroke="black" points="507,-360.5 507,-390.5 635,-390.5 635,-360.5 507,-360.5"/>
<text text-anchor="start" x="515" y="-378.5" font-family="Helvetica,sans-Serif" font-size="10.00">infra::ReinterpretCastByte</text>
<text text-anchor="middle" x="571" y="-367.5" font-family="Helvetica,sans-Serif" font-size="10.00">Range</text>
</a>
</g>
</g>
<!-- Node4&#45;&gt;Node5 -->
<g id="edge3" class="edge"><title>Node4&#45;&gt;Node5</title>
<path fill="none" stroke="midnightblue" d="M463.751,-361.071C474.402,-362.518 485.701,-364.052 496.802,-365.56"/>
<polygon fill="midnightblue" stroke="midnightblue" points="496.537,-369.056 506.917,-366.933 497.479,-362.119 496.537,-369.056"/>
</g>
<!-- Node6 -->
<g id="node5" class="node"><title>Node6</title>
<g id="a_node5"><a xlink:href="../../d0/de3/namespaceinfra.html#afe38b7d4318537de2f28b244211c4275" target="_top" xlink:title="infra::MakeRange">
<polygon fill="white" stroke="black" points="525,-322 525,-341 617,-341 617,-322 525,-322"/>
<text text-anchor="middle" x="571" y="-329" font-family="Helvetica,sans-Serif" font-size="10.00">infra::MakeRange</text>
</a>
</g>
</g>
<!-- Node4&#45;&gt;Node6 -->
<g id="edge4" class="edge"><title>Node4&#45;&gt;Node6</title>
<path fill="none" stroke="midnightblue" d="M463.751,-345.929C480.274,-343.685 498.355,-341.23 514.84,-338.991"/>
<polygon fill="midnightblue" stroke="midnightblue" points="515.433,-342.443 524.871,-337.629 514.491,-335.506 515.433,-342.443"/>
</g>
<!-- Node7 -->
<g id="node6" class="node"><title>Node7</title>
<g id="a_node6"><a xlink:href="../../d1/d2a/classinfra_1_1_bounded_string_base.html#aef23e4250cad2fdc69ccc39f68734233" target="_top" xlink:title="infra::BoundedStringBase\l::begin">
<polygon fill="white" stroke="black" points="682,-338.5 682,-368.5 809,-368.5 809,-338.5 682,-338.5"/>
<text text-anchor="start" x="690" y="-356.5" font-family="Helvetica,sans-Serif" font-size="10.00">infra::BoundedStringBase</text>
<text text-anchor="middle" x="745.5" y="-345.5" font-family="Helvetica,sans-Serif" font-size="10.00">::begin</text>
</a>
</g>
</g>
<!-- Node6&#45;&gt;Node7 -->
<g id="edge5" class="edge"><title>Node6&#45;&gt;Node7</title>
<path fill="none" stroke="midnightblue" d="M617.322,-337.28C633.999,-339.407 653.333,-341.873 671.814,-344.23"/>
<polygon fill="midnightblue" stroke="midnightblue" points="671.61,-347.732 681.972,-345.525 672.495,-340.788 671.61,-347.732"/>
</g>
<!-- Node8 -->
<g id="node7" class="node"><title>Node8</title>
<g id="a_node7"><a xlink:href="../../d1/d2a/classinfra_1_1_bounded_string_base.html#af5021f1ea3898146d0a55c2895f07dbf" target="_top" xlink:title="infra::BoundedStringBase::end">
<polygon fill="white" stroke="black" points="671,-300 671,-319 820,-319 820,-300 671,-300"/>
<text text-anchor="middle" x="745.5" y="-307" font-family="Helvetica,sans-Serif" font-size="10.00">infra::BoundedStringBase::end</text>
</a>
</g>
</g>
<!-- Node6&#45;&gt;Node8 -->
<g id="edge6" class="edge"><title>Node6&#45;&gt;Node8</title>
<path fill="none" stroke="midnightblue" d="M617.322,-325.72C630.624,-324.023 645.615,-322.111 660.517,-320.211"/>
<polygon fill="midnightblue" stroke="midnightblue" points="661.32,-323.637 670.797,-318.9 660.435,-316.693 661.32,-323.637"/>
</g>
<!-- Node9&#45;&gt;Node4 -->
<g id="edge9" class="edge"><title>Node9&#45;&gt;Node4</title>
<path fill="none" stroke="midnightblue" d="M303.491,-376.481C320.039,-372.772 337.533,-368.85 353.293,-365.316"/>
<polygon fill="midnightblue" stroke="midnightblue" points="354.379,-368.66 363.372,-363.057 352.848,-361.829 354.379,-368.66"/>
</g>
<!-- Node10 -->
<g id="node9" class="node"><title>Node10</title>
<g id="a_node9"><a xlink:href="../../d5/dff/classhal_1_1_synchronous_flash.html#a61b77f790bc72a2bb8d7316a2d8fa3ce" target="_top" xlink:title="hal::SynchronousFlash\l::WriteBuffer">
<polygon fill="white" stroke="black" points="349,-382.5 349,-412.5 465,-412.5 465,-382.5 349,-382.5"/>
<text text-anchor="start" x="357" y="-400.5" font-family="Helvetica,sans-Serif" font-size="10.00">hal::SynchronousFlash</text>
<text text-anchor="middle" x="407" y="-389.5" font-family="Helvetica,sans-Serif" font-size="10.00">::WriteBuffer</text>
</a>
</g>
</g>
<!-- Node9&#45;&gt;Node10 -->
<g id="edge8" class="edge"><title>Node9&#45;&gt;Node10</title>
<path fill="none" stroke="midnightblue" d="M304.465,-393.906C315.748,-394.305 327.444,-394.719 338.71,-395.118"/>
<polygon fill="midnightblue" stroke="midnightblue" points="338.793,-398.623 348.91,-395.479 339.04,-391.627 338.793,-398.623"/>
</g>
<!-- Node12&#45;&gt;Node4 -->
<g id="edge13" class="edge"><title>Node12&#45;&gt;Node4</title>
<path fill="none" stroke="midnightblue" d="M245.694,-226.617C262.08,-252.31 298.795,-304.521 343,-333.5 346.773,-335.973 350.873,-338.159 355.11,-340.086"/>
<polygon fill="midnightblue" stroke="midnightblue" points="353.95,-343.392 364.532,-343.905 356.58,-336.905 353.95,-343.392"/>
</g>
<!-- Node12&#45;&gt;Node11 -->
<g id="edge12" class="edge"><title>Node12&#45;&gt;Node11</title>
<path fill="none" stroke="midnightblue" d="M255.685,-226.603C276.392,-242.427 310.749,-267.326 343,-284.5 346.739,-286.491 350.672,-288.417 354.671,-290.256"/>
<polygon fill="midnightblue" stroke="midnightblue" points="353.498,-293.563 364.061,-294.38 356.313,-287.154 353.498,-293.563"/>
</g>
<!-- Node13 -->
<g id="node12" class="node"><title>Node13</title>
<g id="a_node12"><a xlink:href="../../d3/d66/classapplication_1_1_decryptor.html#a03615952b8158ef8245df43567f5ffac" target="_top" xlink:title="application::Decryptor\l::StateBuffer">
<polygon fill="white" stroke="black" points="351.5,-98.5 351.5,-128.5 462.5,-128.5 462.5,-98.5 351.5,-98.5"/>
<text text-anchor="start" x="359.5" y="-116.5" font-family="Helvetica,sans-Serif" font-size="10.00">application::Decryptor</text>
<text text-anchor="middle" x="407" y="-105.5" font-family="Helvetica,sans-Serif" font-size="10.00">::StateBuffer</text>
</a>
</g>
</g>
<!-- Node12&#45;&gt;Node13 -->
<g id="edge14" class="edge"><title>Node12&#45;&gt;Node13</title>
<path fill="none" stroke="midnightblue" d="M255.225,-196.375C275.821,-180.257 310.345,-154.734 343,-137.5 346.244,-135.788 349.639,-134.135 353.098,-132.553"/>
<polygon fill="midnightblue" stroke="midnightblue" points="354.567,-135.73 362.346,-128.537 351.779,-129.31 354.567,-135.73"/>
</g>
<!-- Node14 -->
<g id="node13" class="node"><title>Node14</title>
<g id="a_node13"><a xlink:href="../../d3/d66/classapplication_1_1_decryptor.html#a9f333644c7d602378054454d0c046f92" target="_top" xlink:title="application::Decryptor\l::Reset">
<polygon fill="white" stroke="black" points="351.5,-49.5 351.5,-79.5 462.5,-79.5 462.5,-49.5 351.5,-49.5"/>
<text text-anchor="start" x="359.5" y="-67.5" font-family="Helvetica,sans-Serif" font-size="10.00">application::Decryptor</text>
<text text-anchor="middle" x="407" y="-56.5" font-family="Helvetica,sans-Serif" font-size="10.00">::Reset</text>
</a>
</g>
</g>
<!-- Node12&#45;&gt;Node14 -->
<g id="edge15" class="edge"><title>Node12&#45;&gt;Node14</title>
<path fill="none" stroke="midnightblue" d="M246.108,-196.11C262.844,-170.456 299.723,-118.784 343,-88.5 345.098,-87.0321 347.297,-85.6398 349.565,-84.3209"/>
<polygon fill="midnightblue" stroke="midnightblue" points="351.353,-87.3355 358.585,-79.5932 348.103,-81.1355 351.353,-87.3355"/>
</g>
<!-- Node15 -->
<g id="node14" class="node"><title>Node15</title>
<g id="a_node14"><a xlink:href="../../d0/d6d/classinfra_1_1_memory_range.html#ae8fbbf531d3696b6a64ac13385acdc66" target="_top" xlink:title="infra::MemoryRange\l::size">
<polygon fill="white" stroke="black" points="355,-0.5 355,-30.5 459,-30.5 459,-0.5 355,-0.5"/>
<text text-anchor="start" x="363" y="-18.5" font-family="Helvetica,sans-Serif" font-size="10.00">infra::MemoryRange</text>
<text text-anchor="middle" x="407" y="-7.5" font-family="Helvetica,sans-Serif" font-size="10.00">::size</text>
</a>
</g>
</g>
<!-- Node12&#45;&gt;Node15 -->
<g id="edge16" class="edge"><title>Node12&#45;&gt;Node15</title>
<path fill="none" stroke="midnightblue" d="M241.972,-196.334C254.645,-163.249 289.104,-83.9992 343,-39.5 344.557,-38.2146 346.19,-36.9934 347.882,-35.8336"/>
<polygon fill="midnightblue" stroke="midnightblue" points="349.963,-38.6674 356.753,-30.5338 346.373,-32.6582 349.963,-38.6674"/>
</g>
<!-- Node16 -->
<g id="node15" class="node"><title>Node16</title>
<g id="a_node15"><a xlink:href="../../d3/d66/classapplication_1_1_decryptor.html#a9f27e7be16a169a5fe6dadcca097e35a" target="_top" xlink:title="application::Decryptor\l::DecryptPart">
<polygon fill="white" stroke="black" points="351.5,-245.5 351.5,-275.5 462.5,-275.5 462.5,-245.5 351.5,-245.5"/>
<text text-anchor="start" x="359.5" y="-263.5" font-family="Helvetica,sans-Serif" font-size="10.00">application::Decryptor</text>
<text text-anchor="middle" x="407" y="-252.5" font-family="Helvetica,sans-Serif" font-size="10.00">::DecryptPart</text>
</a>
</g>
</g>
<!-- Node12&#45;&gt;Node16 -->
<g id="edge17" class="edge"><title>Node12&#45;&gt;Node16</title>
<path fill="none" stroke="midnightblue" d="M288.739,-226.601C306.301,-231.679 326.059,-237.39 344.28,-242.658"/>
<polygon fill="midnightblue" stroke="midnightblue" points="343.355,-246.034 353.934,-245.448 345.299,-239.309 343.355,-246.034"/>
</g>
<!-- Node17 -->
<g id="node16" class="node"><title>Node17</title>
<g id="a_node16"><a xlink:href="../../d0/d6d/classinfra_1_1_memory_range.html#a322f6976f2774c6ba7494b9e27f07624" target="_top" xlink:title="infra::MemoryRange\l::shrink_from_back_to">
<polygon fill="white" stroke="black" points="350.5,-196.5 350.5,-226.5 463.5,-226.5 463.5,-196.5 350.5,-196.5"/>
<text text-anchor="start" x="358.5" y="-214.5" font-family="Helvetica,sans-Serif" font-size="10.00">infra::MemoryRange</text>
<text text-anchor="middle" x="407" y="-203.5" font-family="Helvetica,sans-Serif" font-size="10.00">::shrink_from_back_to</text>
</a>
</g>
</g>
<!-- Node12&#45;&gt;Node17 -->
<g id="edge18" class="edge"><title>Node12&#45;&gt;Node17</title>
<path fill="none" stroke="midnightblue" d="M307.401,-211.5C318.263,-211.5 329.437,-211.5 340.183,-211.5"/>
<polygon fill="midnightblue" stroke="midnightblue" points="340.331,-215 350.331,-211.5 340.331,-208 340.331,-215"/>
</g>
<!-- Node18 -->
<g id="node17" class="node"><title>Node18</title>
<g id="a_node17"><a xlink:href="../../d3/d66/classapplication_1_1_decryptor.html#a2780b4993f0b275fc1b15add51d39d38" target="_top" xlink:title="application::Decryptor\l::DecryptAndAuthenticate">
<polygon fill="white" stroke="black" points="343,-147.5 343,-177.5 471,-177.5 471,-147.5 343,-147.5"/>
<text text-anchor="start" x="351" y="-165.5" font-family="Helvetica,sans-Serif" font-size="10.00">application::Decryptor</text>
<text text-anchor="middle" x="407" y="-154.5" font-family="Helvetica,sans-Serif" font-size="10.00">::DecryptAndAuthenticate</text>
</a>
</g>
</g>
<!-- Node12&#45;&gt;Node18 -->
<g id="edge19" class="edge"><title>Node12&#45;&gt;Node18</title>
<path fill="none" stroke="midnightblue" d="M288.739,-196.399C306.301,-191.321 326.059,-185.61 344.28,-180.342"/>
<polygon fill="midnightblue" stroke="midnightblue" points="345.299,-183.691 353.934,-177.552 343.355,-176.966 345.299,-183.691"/>
</g>
</g>
</svg>
