<?xml version="1.0" encoding="UTF-8" standalone="no"?>
<!DOCTYPE svg PUBLIC "-//W3C//DTD SVG 1.1//EN"
 "http://www.w3.org/Graphics/SVG/1.1/DTD/svg11.dtd">
<!-- Generated by graphviz version 2.38.0 (20140413.2041)
 -->
<!-- Title: hal::Flash::WriteBuffer Pages: 1 -->
<!--zoomable 492 -->
<svg id="main" version="1.1" xmlns="http://www.w3.org/2000/svg" xmlns:xlink="http://www.w3.org/1999/xlink" xml:space="preserve" onload="init(evt)">
<style type="text/css"><![CDATA[
.edge:hover path { stroke: red; }
.edge:hover polygon { stroke: red; fill: red; }
]]></style>
<script type="text/javascript"><![CDATA[
var edges = document.getElementsByTagName('g');
if (edges && edges.length) {
  for (var i=0;i<edges.length;i++) {
    if (edges[i].id.substr(0,4)=='edge') {
      edges[i].setAttribute('class','edge');
    }
  }
}
]]></script>
        <defs>
                <circle id="rim" cx="0" cy="0" r="7"/>
                <circle id="rim2" cx="0" cy="0" r="3.5"/>
                <g id="zoomPlus">
                        <use xlink:href="#rim" fill="#404040">
                                <set attributeName="fill" to="#808080" begin="zoomplus.mouseover" end="zoomplus.mouseout"/>
                        </use>
                        <path d="M-4,0h8M0,-4v8" fill="none" stroke="white" stroke-width="1.5" pointer-events="none"/>
                </g>
                <g id="zoomMin">
                        <use xlink:href="#rim" fill="#404040">
                                <set attributeName="fill" to="#808080" begin="zoomminus.mouseover" end="zoomminus.mouseout"/>
                        </use>
                        <path d="M-4,0h8" fill="none" stroke="white" stroke-width="1.5" pointer-events="none"/>
                </g>
                <g id="dirArrow">
                        <path fill="none" stroke="white" stroke-width="1.5" d="M0,-3.0v7 M-2.5,-0.5L0,-3.0L2.5,-0.5"/>
                </g>
               <g id="resetDef">
                       <use xlink:href="#rim2" fill="#404040">
                               <set attributeName="fill" to="#808080" begin="reset.mouseover" end="reset.mouseout"/>
                       </use>
               </g>
        </defs>

<script type="text/javascript">
var viewWidth = 644;
var viewHeight = 492;
var sectionId = 'dynsection-25';
</script>
<script xlink:href="../../svgpan.js"/>
<svg id="graph" class="graph">
<g id="viewport">
<title>hal::Flash::WriteBuffer</title>
<polygon fill="white" stroke="none" points="-4,4 -4,-488 640,-488 640,4 -4,4"/>
<!-- Node259 -->
<g id="node1" class="node"><title>Node259</title>
<polygon fill="#bfbfbf" stroke="black" points="0,-226 0,-245 113,-245 113,-226 0,-226"/>
<text text-anchor="middle" x="56.5" y="-233" font-family="Helvetica,sans-Serif" font-size="10.00">hal::Flash::WriteBuffer</text>
</g>
<!-- Node260 -->
<g id="node2" class="node"><title>Node260</title>
<g id="a_node2"><a xlink:href="../../d8/db5/classapplication_1_1_deploy_pack_to_external.html#a266ba4b3faeea4ab1efca546279509cd" target="_top" xlink:title="application::DeployPackTo\lExternal::DeployPackToExternal">
<polygon fill="white" stroke="black" points="149,-453.5 149,-483.5 307,-483.5 307,-453.5 149,-453.5"/>
<text text-anchor="start" x="157" y="-471.5" font-family="Helvetica,sans-Serif" font-size="10.00">application::DeployPackTo</text>
<text text-anchor="middle" x="228" y="-460.5" font-family="Helvetica,sans-Serif" font-size="10.00">External::DeployPackToExternal</text>
</a>
</g>
</g>
<!-- Node259&#45;&gt;Node260 -->
<g id="edge1" class="edge"><title>Node259&#45;&gt;Node260</title>
<path fill="none" stroke="midnightblue" d="M60.5115,-255.135C67.8723,-296.369 90.6364,-392.446 149,-444.5 152.807,-447.895 157.085,-450.81 161.627,-453.312"/>
<polygon fill="midnightblue" stroke="midnightblue" points="63.9254,-254.33 58.827,-245.042 57.0209,-255.482 63.9254,-254.33"/>
</g>
<!-- Node261 -->
<g id="node3" class="node"><title>Node261</title>
<g id="a_node3"><a xlink:href="../../d4/d36/classservices_1_1_cyclic_store.html#a9a8d58930d91d2606ce40f651da398bb" target="_top" xlink:title="services::CyclicStore\l::EraseSectorIfAtStart">
<polygon fill="white" stroke="black" points="172,-147.5 172,-177.5 284,-177.5 284,-147.5 172,-147.5"/>
<text text-anchor="start" x="180" y="-165.5" font-family="Helvetica,sans-Serif" font-size="10.00">services::CyclicStore</text>
<text text-anchor="middle" x="228" y="-154.5" font-family="Helvetica,sans-Serif" font-size="10.00">::EraseSectorIfAtStart</text>
</a>
</g>
</g>
<!-- Node259&#45;&gt;Node261 -->
<g id="edge2" class="edge"><title>Node259&#45;&gt;Node261</title>
<path fill="none" stroke="midnightblue" d="M82.3705,-220.952C100.46,-210.746 125.752,-197.237 149,-187.5 157.526,-183.929 166.75,-180.56 175.769,-177.52"/>
<polygon fill="midnightblue" stroke="midnightblue" points="80.5649,-217.953 73.6166,-225.951 84.0361,-224.031 80.5649,-217.953"/>
</g>
<!-- Node264 -->
<g id="node6" class="node"><title>Node264</title>
<g id="a_node6"><a xlink:href="../../d4/d36/classservices_1_1_cyclic_store.html#abbfca86f746373ca05c917d087761080" target="_top" xlink:title="services::CyclicStore\l::FillSectorIfDataDoesNotFit">
<polygon fill="white" stroke="black" points="159.5,-49.5 159.5,-79.5 296.5,-79.5 296.5,-49.5 159.5,-49.5"/>
<text text-anchor="start" x="167.5" y="-67.5" font-family="Helvetica,sans-Serif" font-size="10.00">services::CyclicStore</text>
<text text-anchor="middle" x="228" y="-56.5" font-family="Helvetica,sans-Serif" font-size="10.00">::FillSectorIfDataDoesNotFit</text>
</a>
</g>
</g>
<!-- Node259&#45;&gt;Node264 -->
<g id="edge5" class="edge"><title>Node259&#45;&gt;Node264</title>
<path fill="none" stroke="midnightblue" d="M64.5929,-215.959C76.925,-184.691 105.261,-123.486 149,-89.5 153.941,-85.661 159.487,-82.4031 165.285,-79.64"/>
<polygon fill="midnightblue" stroke="midnightblue" points="61.1807,-215.086 60.8993,-225.677 67.7239,-217.573 61.1807,-215.086"/>
</g>
<!-- Node265 -->
<g id="node7" class="node"><title>Node265</title>
<g id="a_node7"><a xlink:href="../../db/d26/classservices_1_1_configuration_blob_impl.html#a7a0b2f45b21d419fcea42208f3d105bc" target="_top" xlink:title="services::ConfigurationBlob\lImpl::Write">
<polygon fill="white" stroke="black" points="161,-294.5 161,-324.5 295,-324.5 295,-294.5 161,-294.5"/>
<text text-anchor="start" x="169" y="-312.5" font-family="Helvetica,sans-Serif" font-size="10.00">services::ConfigurationBlob</text>
<text text-anchor="middle" x="228" y="-301.5" font-family="Helvetica,sans-Serif" font-size="10.00">Impl::Write</text>
</a>
</g>
</g>
<!-- Node259&#45;&gt;Node265 -->
<g id="edge7" class="edge"><title>Node259&#45;&gt;Node265</title>
<path fill="none" stroke="midnightblue" d="M81.6042,-250.422C99.6786,-261.173 125.282,-275.491 149,-285.5 156.571,-288.695 164.715,-291.674 172.784,-294.371"/>
<polygon fill="midnightblue" stroke="midnightblue" points="83.2595,-247.333 72.8886,-245.166 79.6449,-253.327 83.2595,-247.333"/>
</g>
<!-- Node266 -->
<g id="node8" class="node"><title>Node266</title>
<g id="a_node8"><a xlink:href="../../d6/d25/classservices_1_1_flash_region.html#aa9a0549b141b493dfaa05b2917ecc778" target="_top" xlink:title="services::FlashRegion\l::WriteBuffer">
<polygon fill="white" stroke="black" points="172,-245.5 172,-275.5 284,-275.5 284,-245.5 172,-245.5"/>
<text text-anchor="start" x="180" y="-263.5" font-family="Helvetica,sans-Serif" font-size="10.00">services::FlashRegion</text>
<text text-anchor="middle" x="228" y="-252.5" font-family="Helvetica,sans-Serif" font-size="10.00">::WriteBuffer</text>
</a>
</g>
</g>
<!-- Node259&#45;&gt;Node266 -->
<g id="edge8" class="edge"><title>Node259&#45;&gt;Node266</title>
<path fill="none" stroke="midnightblue" d="M122.932,-245.151C139.125,-247.539 156.312,-250.074 171.954,-252.381"/>
<polygon fill="midnightblue" stroke="midnightblue" points="123.404,-241.683 113.001,-243.686 122.383,-248.608 123.404,-241.683"/>
</g>
<!-- Node267 -->
<g id="node9" class="node"><title>Node267</title>
<g id="a_node9"><a xlink:href="../../d7/d35/classservices_1_1_tracing_flash.html#a9a1d3cfdb5b8bbe59a5824f2a9f276d1" target="_top" xlink:title="services::TracingFlash\l::WriteBuffer">
<polygon fill="white" stroke="black" points="171.5,-196.5 171.5,-226.5 284.5,-226.5 284.5,-196.5 171.5,-196.5"/>
<text text-anchor="start" x="179.5" y="-214.5" font-family="Helvetica,sans-Serif" font-size="10.00">services::TracingFlash</text>
<text text-anchor="middle" x="228" y="-203.5" font-family="Helvetica,sans-Serif" font-size="10.00">::WriteBuffer</text>
</a>
</g>
</g>
<!-- Node259&#45;&gt;Node267 -->
<g id="edge9" class="edge"><title>Node259&#45;&gt;Node267</title>
<path fill="none" stroke="midnightblue" d="M123.283,-226.186C139.173,-223.936 156.002,-221.553 171.375,-219.376"/>
<polygon fill="midnightblue" stroke="midnightblue" points="122.411,-222.774 113.001,-227.642 123.393,-229.705 122.411,-222.774"/>
</g>
<!-- Node268 -->
<g id="node10" class="node"><title>Node268</title>
<g id="a_node10"><a xlink:href="../../d8/d5b/classservices_1_1_flash_multiple_access_master.html#a12daac425a1763c1e7111a74b710b5a1" target="_top" xlink:title="services::FlashMultipleAccess\lMaster::WriteBuffer">
<polygon fill="white" stroke="black" points="153.5,-0.5 153.5,-30.5 302.5,-30.5 302.5,-0.5 153.5,-0.5"/>
<text text-anchor="start" x="161.5" y="-18.5" font-family="Helvetica,sans-Serif" font-size="10.00">services::FlashMultipleAccess</text>
<text text-anchor="middle" x="228" y="-7.5" font-family="Helvetica,sans-Serif" font-size="10.00">Master::WriteBuffer</text>
</a>
</g>
</g>
<!-- Node259&#45;&gt;Node268 -->
<g id="edge10" class="edge"><title>Node259&#45;&gt;Node268</title>
<path fill="none" stroke="midnightblue" d="M61.1769,-215.724C69.5406,-176.309 93.7121,-87.627 149,-39.5 152.954,-36.0581 157.394,-33.1098 162.098,-30.5843"/>
<polygon fill="midnightblue" stroke="midnightblue" points="57.7179,-215.172 59.1858,-225.665 64.5816,-216.547 57.7179,-215.172"/>
</g>
<!-- Node270 -->
<g id="node12" class="node"><title>Node270</title>
<g id="a_node12"><a xlink:href="../../db/dce/classservices_1_1_flash_delayed_init.html#a8ef6136fc3d80afac099f3ad9f27125b" target="_top" xlink:title="services::FlashDelayedInit\l::WriteBuffer">
<polygon fill="white" stroke="black" points="163,-98.5 163,-128.5 293,-128.5 293,-98.5 163,-98.5"/>
<text text-anchor="start" x="171" y="-116.5" font-family="Helvetica,sans-Serif" font-size="10.00">services::FlashDelayedInit</text>
<text text-anchor="middle" x="228" y="-105.5" font-family="Helvetica,sans-Serif" font-size="10.00">::WriteBuffer</text>
</a>
</g>
</g>
<!-- Node259&#45;&gt;Node270 -->
<g id="edge12" class="edge"><title>Node259&#45;&gt;Node270</title>
<path fill="none" stroke="midnightblue" d="M69.8475,-217.691C85.7616,-196.008 115.412,-159.669 149,-138.5 155.015,-134.709 161.656,-131.445 168.449,-128.647"/>
<polygon fill="midnightblue" stroke="midnightblue" points="66.8742,-215.832 63.8967,-226 72.5651,-219.908 66.8742,-215.832"/>
</g>
<!-- Node271 -->
<g id="node13" class="node"><title>Node271</title>
<g id="a_node13"><a xlink:href="../../d4/d36/classservices_1_1_cyclic_store.html#a08dbba8a0aaac53dc54133f23475c423" target="_top" xlink:title="services::CyclicStore\l::WriteRange">
<polygon fill="white" stroke="black" points="174,-404.5 174,-434.5 282,-434.5 282,-404.5 174,-404.5"/>
<text text-anchor="start" x="182" y="-422.5" font-family="Helvetica,sans-Serif" font-size="10.00">services::CyclicStore</text>
<text text-anchor="middle" x="228" y="-411.5" font-family="Helvetica,sans-Serif" font-size="10.00">::WriteRange</text>
</a>
</g>
</g>
<!-- Node259&#45;&gt;Node271 -->
<g id="edge13" class="edge"><title>Node259&#45;&gt;Node271</title>
<path fill="none" stroke="midnightblue" d="M63.4722,-254.918C74.7351,-288.336 102.273,-356.761 149,-394.5 156.301,-400.397 165.022,-404.915 173.946,-408.373"/>
<polygon fill="midnightblue" stroke="midnightblue" points="66.7945,-253.816 60.3836,-245.381 60.135,-255.973 66.7945,-253.816"/>
</g>
<!-- Node272 -->
<g id="node14" class="node"><title>Node272</title>
<g id="a_node14"><a xlink:href="../../d4/d36/classservices_1_1_cyclic_store.html#ad6ae3d3b0cade2999ee863bee7740db4" target="_top" xlink:title="services::CyclicStore\l::WriteSectorStatusIfAtStart\lOfSector">
<polygon fill="white" stroke="black" points="159,-344 159,-385 297,-385 297,-344 159,-344"/>
<text text-anchor="start" x="167" y="-373" font-family="Helvetica,sans-Serif" font-size="10.00">services::CyclicStore</text>
<text text-anchor="start" x="167" y="-362" font-family="Helvetica,sans-Serif" font-size="10.00">::WriteSectorStatusIfAtStart</text>
<text text-anchor="middle" x="228" y="-351" font-family="Helvetica,sans-Serif" font-size="10.00">OfSector</text>
</a>
</g>
</g>
<!-- Node259&#45;&gt;Node272 -->
<g id="edge15" class="edge"><title>Node259&#45;&gt;Node272</title>
<path fill="none" stroke="midnightblue" d="M69.9684,-253.374C86.0057,-275.196 115.781,-311.97 149,-334.5 154.043,-337.92 159.531,-341.026 165.182,-343.828"/>
<polygon fill="midnightblue" stroke="midnightblue" points="72.6444,-251.1 63.9664,-245.022 66.96,-255.185 72.6444,-251.1"/>
</g>
<!-- Node262 -->
<g id="node4" class="node"><title>Node262</title>
<g id="a_node4"><a xlink:href="../../d4/d36/classservices_1_1_cyclic_store.html#a6831a59811174b5a79616e69b555ef12" target="_top" xlink:title="services::CyclicStore::Add">
<polygon fill="white" stroke="black" points="352,-254 352,-273 483,-273 483,-254 352,-254"/>
<text text-anchor="middle" x="417.5" y="-261" font-family="Helvetica,sans-Serif" font-size="10.00">services::CyclicStore::Add</text>
</a>
</g>
</g>
<!-- Node261&#45;&gt;Node262 -->
<g id="edge3" class="edge"><title>Node261&#45;&gt;Node262</title>
<path fill="none" stroke="midnightblue" d="M292.655,-181.144C297.58,-183.117 302.415,-185.237 307,-187.5 345.597,-206.548 385.912,-238.037 405.074,-253.833"/>
<polygon fill="midnightblue" stroke="midnightblue" points="293.706,-177.8 283.115,-177.532 291.227,-184.346 293.706,-177.8"/>
</g>
<!-- Node263 -->
<g id="node5" class="node"><title>Node263</title>
<g id="a_node5"><a xlink:href="../../d4/d36/classservices_1_1_cyclic_store.html#a7aeab26acd5d9c4df8de0dd8eceb6af8" target="_top" xlink:title="services::CyclicStore\l::AddPartial">
<polygon fill="white" stroke="black" points="528,-248.5 528,-278.5 636,-278.5 636,-248.5 528,-248.5"/>
<text text-anchor="start" x="536" y="-266.5" font-family="Helvetica,sans-Serif" font-size="10.00">services::CyclicStore</text>
<text text-anchor="middle" x="582" y="-255.5" font-family="Helvetica,sans-Serif" font-size="10.00">::AddPartial</text>
</a>
</g>
</g>
<!-- Node262&#45;&gt;Node263 -->
<g id="edge4" class="edge"><title>Node262&#45;&gt;Node263</title>
<path fill="none" stroke="midnightblue" d="M493.331,-263.5C504.948,-263.5 516.742,-263.5 527.754,-263.5"/>
<polygon fill="midnightblue" stroke="midnightblue" points="493.191,-260 483.191,-263.5 493.191,-267 493.191,-260"/>
</g>
<!-- Node264&#45;&gt;Node262 -->
<g id="edge6" class="edge"><title>Node264&#45;&gt;Node262</title>
<path fill="none" stroke="midnightblue" d="M299.685,-84.481C302.232,-86.0326 304.682,-87.7026 307,-89.5 366.794,-135.871 402.648,-224.768 413.207,-253.956"/>
<polygon fill="midnightblue" stroke="midnightblue" points="301.172,-81.3065 290.707,-79.6495 297.854,-87.4706 301.172,-81.3065"/>
</g>
<!-- Node269 -->
<g id="node11" class="node"><title>Node269</title>
<g id="a_node11"><a xlink:href="../../db/d9d/classservices_1_1_flash_multiple_access.html#a2e75073b4dadbfade29ce1151cf64c01" target="_top" xlink:title="services::FlashMultipleAccess\l::WriteBuffer">
<polygon fill="white" stroke="black" points="343,-0.5 343,-30.5 492,-30.5 492,-0.5 343,-0.5"/>
<text text-anchor="start" x="351" y="-18.5" font-family="Helvetica,sans-Serif" font-size="10.00">services::FlashMultipleAccess</text>
<text text-anchor="middle" x="417.5" y="-7.5" font-family="Helvetica,sans-Serif" font-size="10.00">::WriteBuffer</text>
</a>
</g>
</g>
<!-- Node268&#45;&gt;Node269 -->
<g id="edge11" class="edge"><title>Node268&#45;&gt;Node269</title>
<path fill="none" stroke="midnightblue" d="M312.581,-15.5C322.666,-15.5 332.909,-15.5 342.838,-15.5"/>
<polygon fill="midnightblue" stroke="midnightblue" points="312.567,-12.0001 302.567,-15.5 312.567,-19.0001 312.567,-12.0001"/>
</g>
<!-- Node271&#45;&gt;Node262 -->
<g id="edge14" class="edge"><title>Node271&#45;&gt;Node262</title>
<path fill="none" stroke="midnightblue" d="M291.404,-403.106C296.875,-400.609 302.163,-397.755 307,-394.5 357.167,-360.738 396.914,-297.598 410.991,-273.34"/>
<polygon fill="midnightblue" stroke="midnightblue" points="289.965,-399.914 282.071,-406.981 292.649,-406.379 289.965,-399.914"/>
</g>
<!-- Node272&#45;&gt;Node262 -->
<g id="edge16" class="edge"><title>Node272&#45;&gt;Node262</title>
<path fill="none" stroke="midnightblue" d="M296.06,-339.764C299.795,-338.06 303.465,-336.301 307,-334.5 343.742,-315.78 383.586,-287.792 403.551,-273.175"/>
<polygon fill="midnightblue" stroke="midnightblue" points="294.428,-336.658 286.68,-343.884 297.243,-343.067 294.428,-336.658"/>
</g>
</g>
</svg>
        <g id="navigator" transform="translate(0 0)" fill="#404254">
                <rect fill="#f2f5e9" fill-opacity="0.5" stroke="#606060" stroke-width=".5" x="0" y="0" width="60" height="60"/>
                <use id="zoomplus" xlink:href="#zoomPlus" x="17" y="9" onmousedown="handleZoom(evt,'in')"/>
                <use id="zoomminus" xlink:href="#zoomMin" x="42" y="9" onmousedown="handleZoom(evt,'out')"/>
                <use id="reset" xlink:href="#resetDef" x="30" y="36" onmousedown="handleReset()"/>
                <g id="arrowUp" xlink:href="#dirArrow" transform="translate(30 24)" onmousedown="handlePan(0,-1)">
                  <use xlink:href="#rim" fill="#404040">
                        <set attributeName="fill" to="#808080" begin="arrowUp.mouseover" end="arrowUp.mouseout"/>
                  </use>
                  <path fill="none" stroke="white" stroke-width="1.5" d="M0,-3.0v7 M-2.5,-0.5L0,-3.0L2.5,-0.5"/>
                </g>
                <g id="arrowRight" xlink:href="#dirArrow" transform="rotate(90) translate(36 -43)" onmousedown="handlePan(1,0)">
                  <use xlink:href="#rim" fill="#404040">
                        <set attributeName="fill" to="#808080" begin="arrowRight.mouseover" end="arrowRight.mouseout"/>
                  </use>
                  <path fill="none" stroke="white" stroke-width="1.5" d="M0,-3.0v7 M-2.5,-0.5L0,-3.0L2.5,-0.5"/>
                </g>
                <g id="arrowDown" xlink:href="#dirArrow" transform="rotate(180) translate(-30 -48)" onmousedown="handlePan(0,1)">
                  <use xlink:href="#rim" fill="#404040">
                        <set attributeName="fill" to="#808080" begin="arrowDown.mouseover" end="arrowDown.mouseout"/>
                  </use>
                  <path fill="none" stroke="white" stroke-width="1.5" d="M0,-3.0v7 M-2.5,-0.5L0,-3.0L2.5,-0.5"/>
                </g>
                <g id="arrowLeft" xlink:href="#dirArrow" transform="rotate(270) translate(-36 17)" onmousedown="handlePan(-1,0)">
                  <use xlink:href="#rim" fill="#404040">
                        <set attributeName="fill" to="#808080" begin="arrowLeft.mouseover" end="arrowLeft.mouseout"/>
                  </use>
                  <path fill="none" stroke="white" stroke-width="1.5" d="M0,-3.0v7 M-2.5,-0.5L0,-3.0L2.5,-0.5"/>
                </g>
        </g>
        <svg viewBox="0 0 15 15" width="100%" height="30px" preserveAspectRatio="xMaxYMin meet">
         <g id="arrow_out" transform="scale(0.3 0.3)">
          <a xlink:href="classhal_1_1_flash_afe92eb7daa1043f56eac569140d018f9_icgraph_org.svg" target="_base">
           <rect id="button" ry="5" rx="5" y="6" x="6" height="38" width="38"
                fill="#f2f5e9" fill-opacity="0.5" stroke="#606060" stroke-width="1.0"/>
           <path id="arrow"
             d="M 11.500037,31.436501 C 11.940474,20.09759 22.043105,11.32322 32.158766,21.979434 L 37.068811,17.246167 C 37.068811,17.246167 37.088388,32 37.088388,32 L 22.160133,31.978069 C 22.160133,31.978069 26.997745,27.140456 26.997745,27.140456 C 18.528582,18.264221 13.291696,25.230495 11.500037,31.436501 z"
             style="fill:#404040;"/>
          </a>
         </g>
        </svg>
</svg>
