<?xml version="1.0" encoding="UTF-8" standalone="no"?>
<!DOCTYPE svg PUBLIC "-//W3C//DTD SVG 1.1//EN"
 "http://www.w3.org/Graphics/SVG/1.1/DTD/svg11.dtd">
<!-- Generated by graphviz version 2.38.0 (20140413.2041)
 -->
<!-- Title: hal::Flash::AtStartOfSector Pages: 1 -->
<svg width="479pt" height="66pt"
 viewBox="0.00 0.00 479.00 66.00" xmlns="http://www.w3.org/2000/svg" xmlns:xlink="http://www.w3.org/1999/xlink">
<g id="graph0" class="graph" transform="scale(1 1) rotate(0) translate(4 62)">
<title>hal::Flash::AtStartOfSector</title>
<polygon fill="white" stroke="none" points="-4,4 -4,-62 475,-62 475,4 -4,4"/>
<!-- Node57 -->
<g id="node1" class="node"><title>Node57</title>
<polygon fill="#bfbfbf" stroke="black" points="0,-19.5 0,-38.5 134,-38.5 134,-19.5 0,-19.5"/>
<text text-anchor="middle" x="67" y="-26.5" font-family="Helvetica,sans-Serif" font-size="10.00">hal::Flash::AtStartOfSector</text>
</g>
<!-- Node58 -->
<g id="node2" class="node"><title>Node58</title>
<g id="a_node2"><a xlink:href="../../dd/d95/classhal_1_1_flash.html#a82859c1d11698c606553fd546d0070f9" target="_top" xlink:title="hal::Flash::StartOfSector">
<polygon fill="white" stroke="black" points="170,-19.5 170,-38.5 295,-38.5 295,-19.5 170,-19.5"/>
<text text-anchor="middle" x="232.5" y="-26.5" font-family="Helvetica,sans-Serif" font-size="10.00">hal::Flash::StartOfSector</text>
</a>
</g>
</g>
<!-- Node57&#45;&gt;Node58 -->
<g id="edge1" class="edge"><title>Node57&#45;&gt;Node58</title>
<path fill="none" stroke="midnightblue" d="M134.03,-29C142.566,-29 151.34,-29 159.96,-29"/>
<polygon fill="midnightblue" stroke="midnightblue" points="159.984,-32.5001 169.984,-29 159.984,-25.5001 159.984,-32.5001"/>
</g>
<!-- Node59 -->
<g id="node3" class="node"><title>Node59</title>
<g id="a_node3"><a xlink:href="../../dd/d95/classhal_1_1_flash.html#a57e55c9b32c2eacb23e8a4e9dcb3133f" target="_top" xlink:title="hal::Flash::AddressOfSector">
<polygon fill="white" stroke="black" points="331,-38.5 331,-57.5 471,-57.5 471,-38.5 331,-38.5"/>
<text text-anchor="middle" x="401" y="-45.5" font-family="Helvetica,sans-Serif" font-size="10.00">hal::Flash::AddressOfSector</text>
</a>
</g>
</g>
<!-- Node58&#45;&gt;Node59 -->
<g id="edge2" class="edge"><title>Node58&#45;&gt;Node59</title>
<path fill="none" stroke="midnightblue" d="M295.025,-36.0209C303.415,-36.9783 312.121,-37.9717 320.768,-38.9586"/>
<polygon fill="midnightblue" stroke="midnightblue" points="320.539,-42.455 330.871,-40.1114 321.333,-35.5001 320.539,-42.455"/>
</g>
<!-- Node60 -->
<g id="node4" class="node"><title>Node60</title>
<g id="a_node4"><a xlink:href="../../dd/d95/classhal_1_1_flash.html#a8fdc674c7384cdfb555cad2201848751" target="_top" xlink:title="hal::Flash::SectorOfAddress">
<polygon fill="white" stroke="black" points="331,-0.5 331,-19.5 471,-19.5 471,-0.5 331,-0.5"/>
<text text-anchor="middle" x="401" y="-7.5" font-family="Helvetica,sans-Serif" font-size="10.00">hal::Flash::SectorOfAddress</text>
</a>
</g>
</g>
<!-- Node58&#45;&gt;Node60 -->
<g id="edge3" class="edge"><title>Node58&#45;&gt;Node60</title>
<path fill="none" stroke="midnightblue" d="M295.025,-21.9791C303.415,-21.0217 312.121,-20.0283 320.768,-19.0414"/>
<polygon fill="midnightblue" stroke="midnightblue" points="321.333,-22.4999 330.871,-17.8886 320.539,-15.545 321.333,-22.4999"/>
</g>
</g>
</svg>
