<?xml version="1.0" encoding="UTF-8" standalone="no"?>
<!DOCTYPE svg PUBLIC "-//W3C//DTD SVG 1.1//EN"
 "http://www.w3.org/Graphics/SVG/1.1/DTD/svg11.dtd">
<!-- Generated by graphviz version 2.38.0 (20140413.2041)
 -->
<!-- Title: hal::Flash::StartOfPreviousSectorCyclical Pages: 1 -->
<svg width="575pt" height="39pt"
 viewBox="0.00 0.00 575.00 39.00" xmlns="http://www.w3.org/2000/svg" xmlns:xlink="http://www.w3.org/1999/xlink">
<g id="graph0" class="graph" transform="scale(1 1) rotate(0) translate(4 35)">
<title>hal::Flash::StartOfPreviousSectorCyclical</title>
<polygon fill="white" stroke="none" points="-4,4 -4,-35 571,-35 571,4 -4,4"/>
<!-- Node220 -->
<g id="node1" class="node"><title>Node220</title>
<polygon fill="#bfbfbf" stroke="black" points="0,-0.5 0,-30.5 133,-30.5 133,-0.5 0,-0.5"/>
<text text-anchor="start" x="8" y="-18.5" font-family="Helvetica,sans-Serif" font-size="10.00">hal::Flash::StartOfPrevious</text>
<text text-anchor="middle" x="66.5" y="-7.5" font-family="Helvetica,sans-Serif" font-size="10.00">SectorCyclical</text>
</g>
<!-- Node221 -->
<g id="node2" class="node"><title>Node221</title>
<g id="a_node2"><a xlink:href="../../d4/d36/classservices_1_1_cyclic_store.html#aad16c79a455a56877863b2828a03a22b" target="_top" xlink:title="services::CyclicStore\l::RecoverEndAddress">
<polygon fill="white" stroke="black" points="169,-0.5 169,-30.5 279,-30.5 279,-0.5 169,-0.5"/>
<text text-anchor="start" x="177" y="-18.5" font-family="Helvetica,sans-Serif" font-size="10.00">services::CyclicStore</text>
<text text-anchor="middle" x="224" y="-7.5" font-family="Helvetica,sans-Serif" font-size="10.00">::RecoverEndAddress</text>
</a>
</g>
</g>
<!-- Node220&#45;&gt;Node221 -->
<g id="edge1" class="edge"><title>Node220&#45;&gt;Node221</title>
<path fill="none" stroke="midnightblue" d="M143.705,-15.5C152.147,-15.5 160.613,-15.5 168.706,-15.5"/>
<polygon fill="midnightblue" stroke="midnightblue" points="143.446,-12.0001 133.446,-15.5 143.446,-19.0001 143.446,-12.0001"/>
</g>
<!-- Node222 -->
<g id="node3" class="node"><title>Node222</title>
<g id="a_node3"><a xlink:href="../../d4/d36/classservices_1_1_cyclic_store.html#a5b397293a572ce5d6d3144f0d284770f" target="_top" xlink:title="services::CyclicStore\l::Recover">
<polygon fill="white" stroke="black" points="315,-0.5 315,-30.5 423,-30.5 423,-0.5 315,-0.5"/>
<text text-anchor="start" x="323" y="-18.5" font-family="Helvetica,sans-Serif" font-size="10.00">services::CyclicStore</text>
<text text-anchor="middle" x="369" y="-7.5" font-family="Helvetica,sans-Serif" font-size="10.00">::Recover</text>
</a>
</g>
</g>
<!-- Node221&#45;&gt;Node222 -->
<g id="edge2" class="edge"><title>Node221&#45;&gt;Node222</title>
<path fill="none" stroke="midnightblue" d="M289.066,-15.5C297.671,-15.5 306.42,-15.5 314.809,-15.5"/>
<polygon fill="midnightblue" stroke="midnightblue" points="289.062,-12.0001 279.062,-15.5 289.062,-19.0001 289.062,-12.0001"/>
</g>
<!-- Node223 -->
<g id="node4" class="node"><title>Node223</title>
<g id="a_node4"><a xlink:href="../../d4/d36/classservices_1_1_cyclic_store.html#a6a29c761506bd86c65acb03b1a717e9a" target="_top" xlink:title="services::CyclicStore\l::CyclicStore">
<polygon fill="white" stroke="black" points="459,-0.5 459,-30.5 567,-30.5 567,-0.5 459,-0.5"/>
<text text-anchor="start" x="467" y="-18.5" font-family="Helvetica,sans-Serif" font-size="10.00">services::CyclicStore</text>
<text text-anchor="middle" x="513" y="-7.5" font-family="Helvetica,sans-Serif" font-size="10.00">::CyclicStore</text>
</a>
</g>
</g>
<!-- Node222&#45;&gt;Node223 -->
<g id="edge3" class="edge"><title>Node222&#45;&gt;Node223</title>
<path fill="none" stroke="midnightblue" d="M433.517,-15.5C441.996,-15.5 450.618,-15.5 458.894,-15.5"/>
<polygon fill="midnightblue" stroke="midnightblue" points="433.28,-12.0001 423.28,-15.5 433.28,-19.0001 433.28,-12.0001"/>
</g>
</g>
</svg>
