<?xml version="1.0" encoding="UTF-8" standalone="no"?>
<!DOCTYPE svg PUBLIC "-//W3C//DTD SVG 1.1//EN"
 "http://www.w3.org/Graphics/SVG/1.1/DTD/svg11.dtd">
<!-- Generated by graphviz version 2.38.0 (20140413.2041)
 -->
<!-- Title: hal::Flash::AddressOffsetInSector Pages: 1 -->
<svg width="472pt" height="66pt"
 viewBox="0.00 0.00 472.00 66.00" xmlns="http://www.w3.org/2000/svg" xmlns:xlink="http://www.w3.org/1999/xlink">
<g id="graph0" class="graph" transform="scale(1 1) rotate(0) translate(4 62)">
<title>hal::Flash::AddressOffsetInSector</title>
<polygon fill="white" stroke="none" points="-4,4 -4,-62 468,-62 468,4 -4,4"/>
<!-- Node6 -->
<g id="node1" class="node"><title>Node6</title>
<polygon fill="#bfbfbf" stroke="black" points="0,-14 0,-44 127,-44 127,-14 0,-14"/>
<text text-anchor="start" x="8" y="-32" font-family="Helvetica,sans-Serif" font-size="10.00">hal::Flash::AddressOffset</text>
<text text-anchor="middle" x="63.5" y="-21" font-family="Helvetica,sans-Serif" font-size="10.00">InSector</text>
</g>
<!-- Node7 -->
<g id="node2" class="node"><title>Node7</title>
<g id="a_node2"><a xlink:href="../../dd/d95/classhal_1_1_flash.html#a82859c1d11698c606553fd546d0070f9" target="_top" xlink:title="hal::Flash::StartOfSector">
<polygon fill="white" stroke="black" points="163,-19.5 163,-38.5 288,-38.5 288,-19.5 163,-19.5"/>
<text text-anchor="middle" x="225.5" y="-26.5" font-family="Helvetica,sans-Serif" font-size="10.00">hal::Flash::StartOfSector</text>
</a>
</g>
</g>
<!-- Node6&#45;&gt;Node7 -->
<g id="edge1" class="edge"><title>Node6&#45;&gt;Node7</title>
<path fill="none" stroke="midnightblue" d="M127.277,-29C135.617,-29 144.22,-29 152.698,-29"/>
<polygon fill="midnightblue" stroke="midnightblue" points="152.953,-32.5001 162.953,-29 152.953,-25.5001 152.953,-32.5001"/>
</g>
<!-- Node8 -->
<g id="node3" class="node"><title>Node8</title>
<g id="a_node3"><a xlink:href="../../dd/d95/classhal_1_1_flash.html#a57e55c9b32c2eacb23e8a4e9dcb3133f" target="_top" xlink:title="hal::Flash::AddressOfSector">
<polygon fill="white" stroke="black" points="324,-38.5 324,-57.5 464,-57.5 464,-38.5 324,-38.5"/>
<text text-anchor="middle" x="394" y="-45.5" font-family="Helvetica,sans-Serif" font-size="10.00">hal::Flash::AddressOfSector</text>
</a>
</g>
</g>
<!-- Node7&#45;&gt;Node8 -->
<g id="edge2" class="edge"><title>Node7&#45;&gt;Node8</title>
<path fill="none" stroke="midnightblue" d="M288.025,-36.0209C296.415,-36.9783 305.121,-37.9717 313.768,-38.9586"/>
<polygon fill="midnightblue" stroke="midnightblue" points="313.539,-42.455 323.871,-40.1114 314.333,-35.5001 313.539,-42.455"/>
</g>
<!-- Node9 -->
<g id="node4" class="node"><title>Node9</title>
<g id="a_node4"><a xlink:href="../../dd/d95/classhal_1_1_flash.html#a8fdc674c7384cdfb555cad2201848751" target="_top" xlink:title="hal::Flash::SectorOfAddress">
<polygon fill="white" stroke="black" points="324,-0.5 324,-19.5 464,-19.5 464,-0.5 324,-0.5"/>
<text text-anchor="middle" x="394" y="-7.5" font-family="Helvetica,sans-Serif" font-size="10.00">hal::Flash::SectorOfAddress</text>
</a>
</g>
</g>
<!-- Node7&#45;&gt;Node9 -->
<g id="edge3" class="edge"><title>Node7&#45;&gt;Node9</title>
<path fill="none" stroke="midnightblue" d="M288.025,-21.9791C296.415,-21.0217 305.121,-20.0283 313.768,-19.0414"/>
<polygon fill="midnightblue" stroke="midnightblue" points="314.333,-22.4999 323.871,-17.8886 313.539,-15.545 314.333,-22.4999"/>
</g>
</g>
</svg>
