<?xml version="1.0" encoding="UTF-8" standalone="no"?>
<!DOCTYPE svg PUBLIC "-//W3C//DTD SVG 1.1//EN"
 "http://www.w3.org/Graphics/SVG/1.1/DTD/svg11.dtd">
<!-- Generated by graphviz version 2.38.0 (20140413.2041)
 -->
<!-- Title: services::NameLookupWin::NameLookupWin Pages: 1 -->
<svg width="854pt" height="351pt"
 viewBox="0.00 0.00 854.00 351.00" xmlns="http://www.w3.org/2000/svg" xmlns:xlink="http://www.w3.org/1999/xlink">
<g id="graph0" class="graph" transform="scale(1 1) rotate(0) translate(4 347)">
<title>services::NameLookupWin::NameLookupWin</title>
<polygon fill="white" stroke="none" points="-4,4 -4,-347 850,-347 850,4 -4,4"/>
<!-- Node0 -->
<g id="node1" class="node"><title>Node0</title>
<polygon fill="#bfbfbf" stroke="black" points="0,-159.5 0,-189.5 132,-189.5 132,-159.5 0,-159.5"/>
<text text-anchor="start" x="8" y="-177.5" font-family="Helvetica,sans-Serif" font-size="10.00">services::NameLookupWin</text>
<text text-anchor="middle" x="66" y="-166.5" font-family="Helvetica,sans-Serif" font-size="10.00">::NameLookupWin</text>
</g>
<!-- Node1 -->
<g id="node2" class="node"><title>Node1</title>
<g id="a_node2"><a xlink:href="../../d8/dbd/classservices_1_1_name_lookup_win.html#a94bebcaf572453651531050398cb47d8" target="_top" xlink:title="services::NameLookupWin::Run">
<polygon fill="white" stroke="black" points="168,-165 168,-184 323,-184 323,-165 168,-165"/>
<text text-anchor="middle" x="245.5" y="-172" font-family="Helvetica,sans-Serif" font-size="10.00">services::NameLookupWin::Run</text>
</a>
</g>
</g>
<!-- Node0&#45;&gt;Node1 -->
<g id="edge1" class="edge"><title>Node0&#45;&gt;Node1</title>
<path fill="none" stroke="midnightblue" d="M132.087,-174.5C140.478,-174.5 149.174,-174.5 157.843,-174.5"/>
<polygon fill="midnightblue" stroke="midnightblue" points="157.989,-178 167.989,-174.5 157.988,-171 157.989,-178"/>
</g>
<!-- Node2 -->
<g id="node3" class="node"><title>Node2</title>
<g id="a_node3"><a xlink:href="../../d8/dbd/classservices_1_1_name_lookup_win.html#afcf5c4d0f1af787356c6af874c8d0541" target="_top" xlink:title="services::NameLookupWin\l::LookupIPv4">
<polygon fill="white" stroke="black" points="359,-159.5 359,-189.5 491,-189.5 491,-159.5 359,-159.5"/>
<text text-anchor="start" x="367" y="-177.5" font-family="Helvetica,sans-Serif" font-size="10.00">services::NameLookupWin</text>
<text text-anchor="middle" x="425" y="-166.5" font-family="Helvetica,sans-Serif" font-size="10.00">::LookupIPv4</text>
</a>
</g>
</g>
<!-- Node1&#45;&gt;Node2 -->
<g id="edge2" class="edge"><title>Node1&#45;&gt;Node2</title>
<path fill="none" stroke="midnightblue" d="M323.064,-174.5C331.536,-174.5 340.158,-174.5 348.615,-174.5"/>
<polygon fill="midnightblue" stroke="midnightblue" points="348.827,-178 358.827,-174.5 348.827,-171 348.827,-178"/>
</g>
<!-- Node3 -->
<g id="node4" class="node"><title>Node3</title>
<g id="a_node4"><a xlink:href="../../df/d75/classservices_1_1_name_resolver_result.html#a26fb039e839d01accab6b3e5ed66f3ff" target="_top" xlink:title="services::NameResolverResult\l::Hostname">
<polygon fill="white" stroke="black" points="527.5,-312.5 527.5,-342.5 675.5,-342.5 675.5,-312.5 527.5,-312.5"/>
<text text-anchor="start" x="535.5" y="-330.5" font-family="Helvetica,sans-Serif" font-size="10.00">services::NameResolverResult</text>
<text text-anchor="middle" x="601.5" y="-319.5" font-family="Helvetica,sans-Serif" font-size="10.00">::Hostname</text>
</a>
</g>
</g>
<!-- Node2&#45;&gt;Node3 -->
<g id="edge3" class="edge"><title>Node2&#45;&gt;Node3</title>
<path fill="none" stroke="midnightblue" d="M433.852,-189.619C448.542,-216.453 482.737,-272.493 527,-303.5 529.116,-304.983 531.33,-306.378 533.614,-307.691"/>
<polygon fill="midnightblue" stroke="midnightblue" points="532.224,-310.911 542.72,-312.355 535.416,-304.681 532.224,-310.911"/>
</g>
<!-- Node4 -->
<g id="node5" class="node"><title>Node4</title>
<g id="a_node5"><a xlink:href="../../d1/d2a/classinfra_1_1_bounded_string_base.html#aef23e4250cad2fdc69ccc39f68734233" target="_top" xlink:title="infra::BoundedStringBase\l::begin">
<polygon fill="white" stroke="black" points="538,-263.5 538,-293.5 665,-293.5 665,-263.5 538,-263.5"/>
<text text-anchor="start" x="546" y="-281.5" font-family="Helvetica,sans-Serif" font-size="10.00">infra::BoundedStringBase</text>
<text text-anchor="middle" x="601.5" y="-270.5" font-family="Helvetica,sans-Serif" font-size="10.00">::begin</text>
</a>
</g>
</g>
<!-- Node2&#45;&gt;Node4 -->
<g id="edge4" class="edge"><title>Node2&#45;&gt;Node4</title>
<path fill="none" stroke="midnightblue" d="M441.937,-189.78C460.887,-207.245 494.104,-235.707 527,-253.5 530.975,-255.65 535.17,-257.666 539.459,-259.546"/>
<polygon fill="midnightblue" stroke="midnightblue" points="538.369,-262.882 548.949,-263.443 541.028,-256.406 538.369,-262.882"/>
</g>
<!-- Node5 -->
<g id="node6" class="node"><title>Node5</title>
<g id="a_node6"><a xlink:href="../../d1/d2a/classinfra_1_1_bounded_string_base.html#af5021f1ea3898146d0a55c2895f07dbf" target="_top" xlink:title="infra::BoundedStringBase::end">
<polygon fill="white" stroke="black" points="527,-225 527,-244 676,-244 676,-225 527,-225"/>
<text text-anchor="middle" x="601.5" y="-232" font-family="Helvetica,sans-Serif" font-size="10.00">infra::BoundedStringBase::end</text>
</a>
</g>
</g>
<!-- Node2&#45;&gt;Node5 -->
<g id="edge5" class="edge"><title>Node2&#45;&gt;Node5</title>
<path fill="none" stroke="midnightblue" d="M467.681,-189.639C485.86,-196.169 507.445,-203.824 527,-210.5 537.99,-214.252 549.947,-218.21 560.961,-221.805"/>
<polygon fill="midnightblue" stroke="midnightblue" points="560.165,-225.226 570.757,-224.988 562.328,-218.569 560.165,-225.226"/>
</g>
<!-- Node6 -->
<g id="node7" class="node"><title>Node6</title>
<g id="a_node7"><a xlink:href="../../d3/d0e/classinfra_1_1_interface_connector.html#aed1d9e952d3d0dfa68e59ee4e868b380" target="_top" xlink:title="infra::InterfaceConnector\l\&lt; EventDispatcherWorker\l \&gt;::Instance">
<polygon fill="white" stroke="black" points="715,-146 715,-187 843,-187 843,-146 715,-146"/>
<text text-anchor="start" x="723" y="-175" font-family="Helvetica,sans-Serif" font-size="10.00">infra::InterfaceConnector</text>
<text text-anchor="start" x="723" y="-164" font-family="Helvetica,sans-Serif" font-size="10.00">&lt; EventDispatcherWorker</text>
<text text-anchor="middle" x="779" y="-153" font-family="Helvetica,sans-Serif" font-size="10.00"> &gt;::Instance</text>
</a>
</g>
</g>
<!-- Node2&#45;&gt;Node6 -->
<g id="edge6" class="edge"><title>Node2&#45;&gt;Node6</title>
<path fill="none" stroke="midnightblue" d="M491.059,-177.618C541.543,-179.473 613.261,-180.873 676,-177.5 685.372,-176.996 695.208,-176.234 704.919,-175.34"/>
<polygon fill="midnightblue" stroke="midnightblue" points="705.353,-178.815 714.969,-174.367 704.678,-171.847 705.353,-178.815"/>
</g>
<!-- Node7 -->
<g id="node8" class="node"><title>Node7</title>
<g id="a_node8"><a xlink:href="../../d7/d34/classinfra_1_1_event_dispatcher_worker.html#a5922b8fd5101b15f20b639fcd11fa272" target="_top" xlink:title="infra::EventDispatcherWorker\l::Schedule">
<polygon fill="white" stroke="black" points="530,-137.5 530,-167.5 673,-167.5 673,-137.5 530,-137.5"/>
<text text-anchor="start" x="538" y="-155.5" font-family="Helvetica,sans-Serif" font-size="10.00">infra::EventDispatcherWorker</text>
<text text-anchor="middle" x="601.5" y="-144.5" font-family="Helvetica,sans-Serif" font-size="10.00">::Schedule</text>
</a>
</g>
</g>
<!-- Node2&#45;&gt;Node7 -->
<g id="edge7" class="edge"><title>Node2&#45;&gt;Node7</title>
<path fill="none" stroke="midnightblue" d="M491.474,-166.245C500.707,-165.081 510.287,-163.874 519.764,-162.679"/>
<polygon fill="midnightblue" stroke="midnightblue" points="520.502,-166.113 529.986,-161.39 519.627,-159.168 520.502,-166.113"/>
</g>
<!-- Node8 -->
<g id="node9" class="node"><title>Node8</title>
<g id="a_node9"><a xlink:href="../../df/d75/classservices_1_1_name_resolver_result.html#af05454bbfd89bfd139bf63ec3df9d00a" target="_top" xlink:title="services::NameResolverResult\l::NameLookupDone">
<polygon fill="white" stroke="black" points="527.5,-88.5 527.5,-118.5 675.5,-118.5 675.5,-88.5 527.5,-88.5"/>
<text text-anchor="start" x="535.5" y="-106.5" font-family="Helvetica,sans-Serif" font-size="10.00">services::NameResolverResult</text>
<text text-anchor="middle" x="601.5" y="-95.5" font-family="Helvetica,sans-Serif" font-size="10.00">::NameLookupDone</text>
</a>
</g>
</g>
<!-- Node2&#45;&gt;Node8 -->
<g id="edge8" class="edge"><title>Node2&#45;&gt;Node8</title>
<path fill="none" stroke="midnightblue" d="M456.082,-159.345C475.952,-149.624 502.711,-137.077 527,-127.5 531.794,-125.61 536.803,-123.747 541.855,-121.945"/>
<polygon fill="midnightblue" stroke="midnightblue" points="543.281,-125.155 551.578,-118.566 540.983,-118.543 543.281,-125.155"/>
</g>
<!-- Node9 -->
<g id="node10" class="node"><title>Node9</title>
<g id="a_node10"><a xlink:href="../../d0/de3/namespaceinfra.html#ab53300a9f254119ad1fa94f11bc1fccc" target="_top" xlink:title="infra::Now">
<polygon fill="white" stroke="black" points="572,-50 572,-69 631,-69 631,-50 572,-50"/>
<text text-anchor="middle" x="601.5" y="-57" font-family="Helvetica,sans-Serif" font-size="10.00">infra::Now</text>
</a>
</g>
</g>
<!-- Node2&#45;&gt;Node9 -->
<g id="edge9" class="edge"><title>Node2&#45;&gt;Node9</title>
<path fill="none" stroke="midnightblue" d="M437.638,-159.371C454.841,-138.072 489.133,-99.5071 527,-78.5 537.608,-72.6153 550.088,-68.506 561.724,-65.6563"/>
<polygon fill="midnightblue" stroke="midnightblue" points="562.653,-69.0356 571.664,-63.4632 561.145,-62.2 562.653,-69.0356"/>
</g>
<!-- Node12 -->
<g id="node13" class="node"><title>Node12</title>
<g id="a_node13"><a xlink:href="../../df/d75/classservices_1_1_name_resolver_result.html#a5c20cd74e9b4728feaae9f05e48e12c3" target="_top" xlink:title="services::NameResolverResult\l::NameLookupFailed">
<polygon fill="white" stroke="black" points="527.5,-0.5 527.5,-30.5 675.5,-30.5 675.5,-0.5 527.5,-0.5"/>
<text text-anchor="start" x="535.5" y="-18.5" font-family="Helvetica,sans-Serif" font-size="10.00">services::NameResolverResult</text>
<text text-anchor="middle" x="601.5" y="-7.5" font-family="Helvetica,sans-Serif" font-size="10.00">::NameLookupFailed</text>
</a>
</g>
</g>
<!-- Node2&#45;&gt;Node12 -->
<g id="edge13" class="edge"><title>Node2&#45;&gt;Node12</title>
<path fill="none" stroke="midnightblue" d="M433.509,-159.279C447.886,-131.656 481.921,-73.1186 527,-40.5 529.675,-38.5642 532.512,-36.7699 535.454,-35.1078"/>
<polygon fill="midnightblue" stroke="midnightblue" points="537.2,-38.1469 544.542,-30.5088 534.039,-31.901 537.2,-38.1469"/>
</g>
<!-- Node9&#45;&gt;Node6 -->
<g id="edge11" class="edge"><title>Node9&#45;&gt;Node6</title>
<path fill="none" stroke="midnightblue" d="M631.182,-63.7489C645.247,-66.6069 662.106,-71.224 676,-78.5 691.704,-86.7239 724.577,-116.066 748.778,-138.631"/>
<polygon fill="midnightblue" stroke="midnightblue" points="746.609,-141.396 756.298,-145.684 751.398,-136.291 746.609,-141.396"/>
</g>
<!-- Node10 -->
<g id="node11" class="node"><title>Node10</title>
<g id="a_node11"><a xlink:href="../../db/d70/classinfra_1_1_timer_service_manager.html#a30dbf09013c8e949fbded56e40d2a103" target="_top" xlink:title="infra::TimerServiceManager\l::GetTimerService">
<polygon fill="white" stroke="black" points="712,-66.5 712,-96.5 846,-96.5 846,-66.5 712,-66.5"/>
<text text-anchor="start" x="720" y="-84.5" font-family="Helvetica,sans-Serif" font-size="10.00">infra::TimerServiceManager</text>
<text text-anchor="middle" x="779" y="-73.5" font-family="Helvetica,sans-Serif" font-size="10.00">::GetTimerService</text>
</a>
</g>
</g>
<!-- Node9&#45;&gt;Node10 -->
<g id="edge10" class="edge"><title>Node9&#45;&gt;Node10</title>
<path fill="none" stroke="midnightblue" d="M631.088,-63.0836C650.295,-65.4914 676.582,-68.7866 701.614,-71.9245"/>
<polygon fill="midnightblue" stroke="midnightblue" points="701.509,-75.4387 711.867,-73.2098 702.38,-68.4931 701.509,-75.4387"/>
</g>
<!-- Node11 -->
<g id="node12" class="node"><title>Node11</title>
<g id="a_node12"><a xlink:href="../../da/def/classinfra_1_1_timer_service.html#acb34d2766047f27ebcd1f552916c9a99" target="_top" xlink:title="infra::TimerService::Now">
<polygon fill="white" stroke="black" points="718.5,-28 718.5,-47 839.5,-47 839.5,-28 718.5,-28"/>
<text text-anchor="middle" x="779" y="-35" font-family="Helvetica,sans-Serif" font-size="10.00">infra::TimerService::Now</text>
</a>
</g>
</g>
<!-- Node9&#45;&gt;Node11 -->
<g id="edge12" class="edge"><title>Node9&#45;&gt;Node11</title>
<path fill="none" stroke="midnightblue" d="M631.088,-55.9164C652.016,-53.2928 681.349,-49.6158 708.306,-46.2366"/>
<polygon fill="midnightblue" stroke="midnightblue" points="709.012,-49.6756 718.499,-44.9589 708.141,-42.73 709.012,-49.6756"/>
</g>
</g>
</svg>
