<?xml version="1.0" encoding="UTF-8" standalone="no"?>
<!DOCTYPE svg PUBLIC "-//W3C//DTD SVG 1.1//EN"
 "http://www.w3.org/Graphics/SVG/1.1/DTD/svg11.dtd">
<!-- Generated by graphviz version 2.38.0 (20140413.2041)
 -->
<!-- Title: services::NameLookupWin::Run Pages: 1 -->
<svg width="686pt" height="352pt"
 viewBox="0.00 0.00 686.00 352.00" xmlns="http://www.w3.org/2000/svg" xmlns:xlink="http://www.w3.org/1999/xlink">
<g id="graph0" class="graph" transform="scale(1 1) rotate(0) translate(4 348)">
<title>services::NameLookupWin::Run</title>
<polygon fill="white" stroke="none" points="-4,4 -4,-348 682,-348 682,4 -4,4"/>
<!-- Node35 -->
<g id="node1" class="node"><title>Node35</title>
<polygon fill="#bfbfbf" stroke="black" points="0,-165 0,-184 155,-184 155,-165 0,-165"/>
<text text-anchor="middle" x="77.5" y="-172" font-family="Helvetica,sans-Serif" font-size="10.00">services::NameLookupWin::Run</text>
</g>
<!-- Node36 -->
<g id="node2" class="node"><title>Node36</title>
<g id="a_node2"><a xlink:href="../../d8/dbd/classservices_1_1_name_lookup_win.html#afcf5c4d0f1af787356c6af874c8d0541" target="_top" xlink:title="services::NameLookupWin\l::LookupIPv4">
<polygon fill="white" stroke="black" points="191,-159.5 191,-189.5 323,-189.5 323,-159.5 191,-159.5"/>
<text text-anchor="start" x="199" y="-177.5" font-family="Helvetica,sans-Serif" font-size="10.00">services::NameLookupWin</text>
<text text-anchor="middle" x="257" y="-166.5" font-family="Helvetica,sans-Serif" font-size="10.00">::LookupIPv4</text>
</a>
</g>
</g>
<!-- Node35&#45;&gt;Node36 -->
<g id="edge1" class="edge"><title>Node35&#45;&gt;Node36</title>
<path fill="none" stroke="midnightblue" d="M155.064,-174.5C163.536,-174.5 172.158,-174.5 180.615,-174.5"/>
<polygon fill="midnightblue" stroke="midnightblue" points="180.827,-178 190.827,-174.5 180.827,-171 180.827,-178"/>
</g>
<!-- Node37 -->
<g id="node3" class="node"><title>Node37</title>
<g id="a_node3"><a xlink:href="../../d1/d2a/classinfra_1_1_bounded_string_base.html#aef23e4250cad2fdc69ccc39f68734233" target="_top" xlink:title="infra::BoundedStringBase\l::begin">
<polygon fill="white" stroke="black" points="370,-313.5 370,-343.5 497,-343.5 497,-313.5 370,-313.5"/>
<text text-anchor="start" x="378" y="-331.5" font-family="Helvetica,sans-Serif" font-size="10.00">infra::BoundedStringBase</text>
<text text-anchor="middle" x="433.5" y="-320.5" font-family="Helvetica,sans-Serif" font-size="10.00">::begin</text>
</a>
</g>
</g>
<!-- Node36&#45;&gt;Node37 -->
<g id="edge2" class="edge"><title>Node36&#45;&gt;Node37</title>
<path fill="none" stroke="midnightblue" d="M265.89,-189.565C280.64,-216.314 314.928,-272.222 359,-303.5 361.693,-305.411 364.544,-307.185 367.497,-308.832"/>
<polygon fill="midnightblue" stroke="midnightblue" points="366.103,-312.048 376.612,-313.394 369.236,-305.788 366.103,-312.048"/>
</g>
<!-- Node38 -->
<g id="node4" class="node"><title>Node38</title>
<g id="a_node4"><a xlink:href="../../d1/d2a/classinfra_1_1_bounded_string_base.html#af5021f1ea3898146d0a55c2895f07dbf" target="_top" xlink:title="infra::BoundedStringBase::end">
<polygon fill="white" stroke="black" points="359,-275 359,-294 508,-294 508,-275 359,-275"/>
<text text-anchor="middle" x="433.5" y="-282" font-family="Helvetica,sans-Serif" font-size="10.00">infra::BoundedStringBase::end</text>
</a>
</g>
</g>
<!-- Node36&#45;&gt;Node38 -->
<g id="edge3" class="edge"><title>Node36&#45;&gt;Node38</title>
<path fill="none" stroke="midnightblue" d="M270.706,-189.845C288.393,-210.197 322.41,-245.834 359,-265.5 363.274,-267.797 367.838,-269.826 372.521,-271.617"/>
<polygon fill="midnightblue" stroke="midnightblue" points="371.651,-275.019 382.246,-274.968 373.932,-268.401 371.651,-275.019"/>
</g>
<!-- Node39 -->
<g id="node5" class="node"><title>Node39</title>
<g id="a_node5"><a xlink:href="../../df/d75/classservices_1_1_name_resolver_result.html#a26fb039e839d01accab6b3e5ed66f3ff" target="_top" xlink:title="services::NameResolverResult\l::Hostname">
<polygon fill="white" stroke="black" points="359.5,-225.5 359.5,-255.5 507.5,-255.5 507.5,-225.5 359.5,-225.5"/>
<text text-anchor="start" x="367.5" y="-243.5" font-family="Helvetica,sans-Serif" font-size="10.00">services::NameResolverResult</text>
<text text-anchor="middle" x="433.5" y="-232.5" font-family="Helvetica,sans-Serif" font-size="10.00">::Hostname</text>
</a>
</g>
</g>
<!-- Node36&#45;&gt;Node39 -->
<g id="edge4" class="edge"><title>Node36&#45;&gt;Node39</title>
<path fill="none" stroke="midnightblue" d="M298.034,-189.642C323.306,-199.2 356.14,-211.619 383.037,-221.792"/>
<polygon fill="midnightblue" stroke="midnightblue" points="382.061,-225.165 392.652,-225.429 384.537,-218.617 382.061,-225.165"/>
</g>
<!-- Node40 -->
<g id="node6" class="node"><title>Node40</title>
<g id="a_node6"><a xlink:href="../../d3/d0e/classinfra_1_1_interface_connector.html#aed1d9e952d3d0dfa68e59ee4e868b380" target="_top" xlink:title="infra::InterfaceConnector\l\&lt; EventDispatcherWorker\l \&gt;::Instance">
<polygon fill="white" stroke="black" points="547,-146 547,-187 675,-187 675,-146 547,-146"/>
<text text-anchor="start" x="555" y="-175" font-family="Helvetica,sans-Serif" font-size="10.00">infra::InterfaceConnector</text>
<text text-anchor="start" x="555" y="-164" font-family="Helvetica,sans-Serif" font-size="10.00">&lt; EventDispatcherWorker</text>
<text text-anchor="middle" x="611" y="-153" font-family="Helvetica,sans-Serif" font-size="10.00"> &gt;::Instance</text>
</a>
</g>
</g>
<!-- Node36&#45;&gt;Node40 -->
<g id="edge5" class="edge"><title>Node36&#45;&gt;Node40</title>
<path fill="none" stroke="midnightblue" d="M323.059,-177.618C373.543,-179.473 445.261,-180.873 508,-177.5 517.372,-176.996 527.208,-176.234 536.919,-175.34"/>
<polygon fill="midnightblue" stroke="midnightblue" points="537.353,-178.815 546.969,-174.367 536.678,-171.847 537.353,-178.815"/>
</g>
<!-- Node41 -->
<g id="node7" class="node"><title>Node41</title>
<g id="a_node7"><a xlink:href="../../df/d75/classservices_1_1_name_resolver_result.html#af05454bbfd89bfd139bf63ec3df9d00a" target="_top" xlink:title="services::NameResolverResult\l::NameLookupDone">
<polygon fill="white" stroke="black" points="359.5,-137.5 359.5,-167.5 507.5,-167.5 507.5,-137.5 359.5,-137.5"/>
<text text-anchor="start" x="367.5" y="-155.5" font-family="Helvetica,sans-Serif" font-size="10.00">services::NameResolverResult</text>
<text text-anchor="middle" x="433.5" y="-144.5" font-family="Helvetica,sans-Serif" font-size="10.00">::NameLookupDone</text>
</a>
</g>
</g>
<!-- Node36&#45;&gt;Node41 -->
<g id="edge6" class="edge"><title>Node36&#45;&gt;Node41</title>
<path fill="none" stroke="midnightblue" d="M323.474,-166.245C331.885,-165.185 340.584,-164.088 349.23,-162.998"/>
<polygon fill="midnightblue" stroke="midnightblue" points="349.853,-166.447 359.337,-161.724 348.977,-159.502 349.853,-166.447"/>
</g>
<!-- Node42 -->
<g id="node8" class="node"><title>Node42</title>
<g id="a_node8"><a xlink:href="../../df/d75/classservices_1_1_name_resolver_result.html#a5c20cd74e9b4728feaae9f05e48e12c3" target="_top" xlink:title="services::NameResolverResult\l::NameLookupFailed">
<polygon fill="white" stroke="black" points="359.5,-88.5 359.5,-118.5 507.5,-118.5 507.5,-88.5 359.5,-88.5"/>
<text text-anchor="start" x="367.5" y="-106.5" font-family="Helvetica,sans-Serif" font-size="10.00">services::NameResolverResult</text>
<text text-anchor="middle" x="433.5" y="-95.5" font-family="Helvetica,sans-Serif" font-size="10.00">::NameLookupFailed</text>
</a>
</g>
</g>
<!-- Node36&#45;&gt;Node42 -->
<g id="edge7" class="edge"><title>Node36&#45;&gt;Node42</title>
<path fill="none" stroke="midnightblue" d="M288.082,-159.345C307.952,-149.624 334.711,-137.077 359,-127.5 363.794,-125.61 368.803,-123.747 373.855,-121.945"/>
<polygon fill="midnightblue" stroke="midnightblue" points="375.281,-125.155 383.578,-118.566 372.983,-118.543 375.281,-125.155"/>
</g>
<!-- Node43 -->
<g id="node9" class="node"><title>Node43</title>
<g id="a_node9"><a xlink:href="../../d0/de3/namespaceinfra.html#ab53300a9f254119ad1fa94f11bc1fccc" target="_top" xlink:title="infra::Now">
<polygon fill="white" stroke="black" points="404,-50 404,-69 463,-69 463,-50 404,-50"/>
<text text-anchor="middle" x="433.5" y="-57" font-family="Helvetica,sans-Serif" font-size="10.00">infra::Now</text>
</a>
</g>
</g>
<!-- Node36&#45;&gt;Node43 -->
<g id="edge8" class="edge"><title>Node36&#45;&gt;Node43</title>
<path fill="none" stroke="midnightblue" d="M269.638,-159.371C286.841,-138.072 321.133,-99.5071 359,-78.5 369.608,-72.6153 382.088,-68.506 393.724,-65.6563"/>
<polygon fill="midnightblue" stroke="midnightblue" points="394.653,-69.0356 403.664,-63.4632 393.145,-62.2 394.653,-69.0356"/>
</g>
<!-- Node46 -->
<g id="node12" class="node"><title>Node46</title>
<g id="a_node12"><a xlink:href="../../d7/d34/classinfra_1_1_event_dispatcher_worker.html#a5922b8fd5101b15f20b639fcd11fa272" target="_top" xlink:title="infra::EventDispatcherWorker\l::Schedule">
<polygon fill="white" stroke="black" points="362,-0.5 362,-30.5 505,-30.5 505,-0.5 362,-0.5"/>
<text text-anchor="start" x="370" y="-18.5" font-family="Helvetica,sans-Serif" font-size="10.00">infra::EventDispatcherWorker</text>
<text text-anchor="middle" x="433.5" y="-7.5" font-family="Helvetica,sans-Serif" font-size="10.00">::Schedule</text>
</a>
</g>
</g>
<!-- Node36&#45;&gt;Node46 -->
<g id="edge12" class="edge"><title>Node36&#45;&gt;Node46</title>
<path fill="none" stroke="midnightblue" d="M265.509,-159.279C279.886,-131.656 313.921,-73.1186 359,-40.5 361.675,-38.5642 364.512,-36.7699 367.454,-35.1078"/>
<polygon fill="midnightblue" stroke="midnightblue" points="369.2,-38.1469 376.542,-30.5088 366.039,-31.901 369.2,-38.1469"/>
</g>
<!-- Node43&#45;&gt;Node40 -->
<g id="edge10" class="edge"><title>Node43&#45;&gt;Node40</title>
<path fill="none" stroke="midnightblue" d="M463.182,-63.7489C477.247,-66.6069 494.106,-71.224 508,-78.5 523.704,-86.7239 556.577,-116.066 580.778,-138.631"/>
<polygon fill="midnightblue" stroke="midnightblue" points="578.609,-141.396 588.298,-145.684 583.398,-136.291 578.609,-141.396"/>
</g>
<!-- Node44 -->
<g id="node10" class="node"><title>Node44</title>
<g id="a_node10"><a xlink:href="../../db/d70/classinfra_1_1_timer_service_manager.html#a30dbf09013c8e949fbded56e40d2a103" target="_top" xlink:title="infra::TimerServiceManager\l::GetTimerService">
<polygon fill="white" stroke="black" points="544,-66.5 544,-96.5 678,-96.5 678,-66.5 544,-66.5"/>
<text text-anchor="start" x="552" y="-84.5" font-family="Helvetica,sans-Serif" font-size="10.00">infra::TimerServiceManager</text>
<text text-anchor="middle" x="611" y="-73.5" font-family="Helvetica,sans-Serif" font-size="10.00">::GetTimerService</text>
</a>
</g>
</g>
<!-- Node43&#45;&gt;Node44 -->
<g id="edge9" class="edge"><title>Node43&#45;&gt;Node44</title>
<path fill="none" stroke="midnightblue" d="M463.088,-63.0836C482.295,-65.4914 508.582,-68.7866 533.614,-71.9245"/>
<polygon fill="midnightblue" stroke="midnightblue" points="533.509,-75.4387 543.867,-73.2098 534.38,-68.4931 533.509,-75.4387"/>
</g>
<!-- Node45 -->
<g id="node11" class="node"><title>Node45</title>
<g id="a_node11"><a xlink:href="../../da/def/classinfra_1_1_timer_service.html#acb34d2766047f27ebcd1f552916c9a99" target="_top" xlink:title="infra::TimerService::Now">
<polygon fill="white" stroke="black" points="550.5,-28 550.5,-47 671.5,-47 671.5,-28 550.5,-28"/>
<text text-anchor="middle" x="611" y="-35" font-family="Helvetica,sans-Serif" font-size="10.00">infra::TimerService::Now</text>
</a>
</g>
</g>
<!-- Node43&#45;&gt;Node45 -->
<g id="edge11" class="edge"><title>Node43&#45;&gt;Node45</title>
<path fill="none" stroke="midnightblue" d="M463.088,-55.9164C484.016,-53.2928 513.349,-49.6158 540.306,-46.2366"/>
<polygon fill="midnightblue" stroke="midnightblue" points="541.012,-49.6756 550.499,-44.9589 540.141,-42.73 541.012,-49.6756"/>
</g>
</g>
</svg>
