<?xml version="1.0" encoding="UTF-8" standalone="no"?>
<!DOCTYPE svg PUBLIC "-//W3C//DTD SVG 1.1//EN"
 "http://www.w3.org/Graphics/SVG/1.1/DTD/svg11.dtd">
<!-- Generated by graphviz version 2.38.0 (20140413.2041)
 -->
<!-- Title: services::HttpRequestParserImpl::HttpRequestParserImpl Pages: 1 -->
<svg width="1041pt" height="165pt"
 viewBox="0.00 0.00 1041.00 165.00" xmlns="http://www.w3.org/2000/svg" xmlns:xlink="http://www.w3.org/1999/xlink">
<g id="graph0" class="graph" transform="scale(1 1) rotate(0) translate(4 161)">
<title>services::HttpRequestParserImpl::HttpRequestParserImpl</title>
<polygon fill="white" stroke="none" points="-4,4 -4,-161 1037,-161 1037,4 -4,4"/>
<!-- Node0 -->
<g id="node1" class="node"><title>Node0</title>
<polygon fill="#bfbfbf" stroke="black" points="0,-69.5 0,-99.5 141,-99.5 141,-69.5 0,-69.5"/>
<text text-anchor="start" x="8" y="-87.5" font-family="Helvetica,sans-Serif" font-size="10.00">services::HttpRequestParser</text>
<text text-anchor="middle" x="70.5" y="-76.5" font-family="Helvetica,sans-Serif" font-size="10.00">Impl::HttpRequestParserImpl</text>
</g>
<!-- Node1 -->
<g id="node2" class="node"><title>Node1</title>
<g id="a_node2"><a xlink:href="../../d2/d29/classservices_1_1_http_request_parser_impl.html#a500d7c8e93445385130cb832794e28d7" target="_top" xlink:title="services::HttpRequestParser\lImpl::FindHeadersAndBody">
<polygon fill="white" stroke="black" points="177,-119.5 177,-149.5 317,-149.5 317,-119.5 177,-119.5"/>
<text text-anchor="start" x="185" y="-137.5" font-family="Helvetica,sans-Serif" font-size="10.00">services::HttpRequestParser</text>
<text text-anchor="middle" x="247" y="-126.5" font-family="Helvetica,sans-Serif" font-size="10.00">Impl::FindHeadersAndBody</text>
</a>
</g>
</g>
<!-- Node0&#45;&gt;Node1 -->
<g id="edge1" class="edge"><title>Node0&#45;&gt;Node1</title>
<path fill="none" stroke="midnightblue" d="M123.856,-99.5016C142.664,-104.891 164.062,-111.022 183.636,-116.631"/>
<polygon fill="midnightblue" stroke="midnightblue" points="182.803,-120.033 193.38,-119.423 184.731,-113.303 182.803,-120.033"/>
</g>
<!-- Node4 -->
<g id="node5" class="node"><title>Node4</title>
<g id="a_node5"><a xlink:href="../../d2/d29/classservices_1_1_http_request_parser_impl.html#ac4dd3a05dbd4289b4f12f85bd444f0d5" target="_top" xlink:title="services::HttpRequestParser\lImpl::FindPath">
<polygon fill="white" stroke="black" points="177,-69.5 177,-99.5 317,-99.5 317,-69.5 177,-69.5"/>
<text text-anchor="start" x="185" y="-87.5" font-family="Helvetica,sans-Serif" font-size="10.00">services::HttpRequestParser</text>
<text text-anchor="middle" x="247" y="-76.5" font-family="Helvetica,sans-Serif" font-size="10.00">Impl::FindPath</text>
</a>
</g>
</g>
<!-- Node0&#45;&gt;Node4 -->
<g id="edge4" class="edge"><title>Node0&#45;&gt;Node4</title>
<path fill="none" stroke="midnightblue" d="M141.219,-84.5C149.68,-84.5 158.37,-84.5 166.954,-84.5"/>
<polygon fill="midnightblue" stroke="midnightblue" points="166.961,-88.0001 176.961,-84.5 166.961,-81.0001 166.961,-88.0001"/>
</g>
<!-- Node11 -->
<g id="node12" class="node"><title>Node11</title>
<g id="a_node12"><a xlink:href="../../d2/d29/classservices_1_1_http_request_parser_impl.html#a9eeee4c3c375323c0bc2b6a80157aa9e" target="_top" xlink:title="services::HttpRequestParser\lImpl::FindVerb">
<polygon fill="white" stroke="black" points="177,-20.5 177,-50.5 317,-50.5 317,-20.5 177,-20.5"/>
<text text-anchor="start" x="185" y="-38.5" font-family="Helvetica,sans-Serif" font-size="10.00">services::HttpRequestParser</text>
<text text-anchor="middle" x="247" y="-27.5" font-family="Helvetica,sans-Serif" font-size="10.00">Impl::FindVerb</text>
</a>
</g>
</g>
<!-- Node0&#45;&gt;Node11 -->
<g id="edge12" class="edge"><title>Node0&#45;&gt;Node11</title>
<path fill="none" stroke="midnightblue" d="M125.28,-69.3986C143.443,-64.2981 163.888,-58.5571 182.719,-53.2695"/>
<polygon fill="midnightblue" stroke="midnightblue" points="183.717,-56.6248 192.398,-50.5516 181.824,-49.8854 183.717,-56.6248"/>
</g>
<!-- Node2 -->
<g id="node3" class="node"><title>Node2</title>
<g id="a_node3"><a xlink:href="../../d2/d29/classservices_1_1_http_request_parser_impl.html#af25753415aaa876527f8ef7821d806ba" target="_top" xlink:title="services::HttpRequestParser\lImpl::CheckContentsLength">
<polygon fill="white" stroke="black" points="355,-124.5 355,-154.5 495,-154.5 495,-124.5 355,-124.5"/>
<text text-anchor="start" x="363" y="-142.5" font-family="Helvetica,sans-Serif" font-size="10.00">services::HttpRequestParser</text>
<text text-anchor="middle" x="425" y="-131.5" font-family="Helvetica,sans-Serif" font-size="10.00">Impl::CheckContentsLength</text>
</a>
</g>
</g>
<!-- Node1&#45;&gt;Node2 -->
<g id="edge2" class="edge"><title>Node1&#45;&gt;Node2</title>
<path fill="none" stroke="midnightblue" d="M317.055,-136.462C326.081,-136.718 335.386,-136.983 344.566,-137.243"/>
<polygon fill="midnightblue" stroke="midnightblue" points="344.76,-140.75 354.856,-137.536 344.959,-133.753 344.76,-140.75"/>
</g>
<!-- Node3 -->
<g id="node4" class="node"><title>Node3</title>
<g id="a_node4"><a xlink:href="../../d1/d2a/classinfra_1_1_bounded_string_base.html#aab36b8eaee21d6ab3be734e07f499382" target="_top" xlink:title="infra::BoundedStringBase\l::size">
<polygon fill="white" stroke="black" points="539.5,-126.5 539.5,-156.5 666.5,-156.5 666.5,-126.5 539.5,-126.5"/>
<text text-anchor="start" x="547.5" y="-144.5" font-family="Helvetica,sans-Serif" font-size="10.00">infra::BoundedStringBase</text>
<text text-anchor="middle" x="603" y="-133.5" font-family="Helvetica,sans-Serif" font-size="10.00">::size</text>
</a>
</g>
</g>
<!-- Node2&#45;&gt;Node3 -->
<g id="edge3" class="edge"><title>Node2&#45;&gt;Node3</title>
<path fill="none" stroke="midnightblue" d="M495.055,-140.285C506.262,-140.412 517.9,-140.544 529.193,-140.673"/>
<polygon fill="midnightblue" stroke="midnightblue" points="529.407,-144.175 539.446,-140.789 529.486,-137.176 529.407,-144.175"/>
</g>
<!-- Node5 -->
<g id="node6" class="node"><title>Node5</title>
<g id="a_node6"><a xlink:href="../../d6/dbd/classinfra_1_1_tokenizer.html#a9fea0107788ee101b1718a3cf526af72" target="_top" xlink:title="infra::Tokenizer::Token">
<polygon fill="white" stroke="black" points="367.5,-66 367.5,-85 482.5,-85 482.5,-66 367.5,-66"/>
<text text-anchor="middle" x="425" y="-73" font-family="Helvetica,sans-Serif" font-size="10.00">infra::Tokenizer::Token</text>
</a>
</g>
</g>
<!-- Node4&#45;&gt;Node5 -->
<g id="edge5" class="edge"><title>Node4&#45;&gt;Node5</title>
<path fill="none" stroke="midnightblue" d="M317.055,-80.9688C330.201,-80.2965 343.939,-79.594 357.02,-78.9251"/>
<polygon fill="midnightblue" stroke="midnightblue" points="357.536,-82.4034 367.345,-78.3971 357.179,-75.4125 357.536,-82.4034"/>
</g>
<!-- Node6 -->
<g id="node7" class="node"><title>Node6</title>
<g id="a_node7"><a xlink:href="../../d6/dbd/classinfra_1_1_tokenizer.html#a7d67c9a4cc86e9d94b8694ae59407e02" target="_top" xlink:title="infra::Tokenizer::MakeToken">
<polygon fill="white" stroke="black" points="533.5,-88 533.5,-107 672.5,-107 672.5,-88 533.5,-88"/>
<text text-anchor="middle" x="603" y="-95" font-family="Helvetica,sans-Serif" font-size="10.00">infra::Tokenizer::MakeToken</text>
</a>
</g>
</g>
<!-- Node5&#45;&gt;Node6 -->
<g id="edge6" class="edge"><title>Node5&#45;&gt;Node6</title>
<path fill="none" stroke="midnightblue" d="M482.656,-82.582C495.675,-84.2094 509.747,-85.9683 523.505,-87.6881"/>
<polygon fill="midnightblue" stroke="midnightblue" points="523.091,-91.1635 533.448,-88.931 523.959,-84.2176 523.091,-91.1635"/>
</g>
<!-- Node8 -->
<g id="node9" class="node"><title>Node8</title>
<g id="a_node9"><a xlink:href="../../d6/dbd/classinfra_1_1_tokenizer.html#a78ddaa04f929e29c37995f88b201dca0" target="_top" xlink:title="infra::Tokenizer::SkipTokens">
<polygon fill="white" stroke="black" points="533,-50 533,-69 673,-69 673,-50 533,-50"/>
<text text-anchor="middle" x="603" y="-57" font-family="Helvetica,sans-Serif" font-size="10.00">infra::Tokenizer::SkipTokens</text>
</a>
</g>
</g>
<!-- Node5&#45;&gt;Node8 -->
<g id="edge8" class="edge"><title>Node5&#45;&gt;Node8</title>
<path fill="none" stroke="midnightblue" d="M482.656,-70.3494C495.389,-69.1919 509.128,-67.9429 522.596,-66.7186"/>
<polygon fill="midnightblue" stroke="midnightblue" points="523.179,-70.1801 532.821,-65.789 522.545,-63.2088 523.179,-70.1801"/>
</g>
<!-- Node7 -->
<g id="node8" class="node"><title>Node7</title>
<g id="a_node8"><a xlink:href="../../d1/d2a/classinfra_1_1_bounded_string_base.html#a46ec1a3a673136ace03af8c6ec94aa89" target="_top" xlink:title="infra::BoundedStringBase\l::substr">
<polygon fill="white" stroke="black" points="709,-88.5 709,-118.5 836,-118.5 836,-88.5 709,-88.5"/>
<text text-anchor="start" x="717" y="-106.5" font-family="Helvetica,sans-Serif" font-size="10.00">infra::BoundedStringBase</text>
<text text-anchor="middle" x="772.5" y="-95.5" font-family="Helvetica,sans-Serif" font-size="10.00">::substr</text>
</a>
</g>
</g>
<!-- Node6&#45;&gt;Node7 -->
<g id="edge7" class="edge"><title>Node6&#45;&gt;Node7</title>
<path fill="none" stroke="midnightblue" d="M672.612,-99.9577C681.249,-100.267 690.107,-100.584 698.804,-100.896"/>
<polygon fill="midnightblue" stroke="midnightblue" points="698.797,-104.398 708.916,-101.258 699.048,-97.4024 698.797,-104.398"/>
</g>
<!-- Node9 -->
<g id="node10" class="node"><title>Node9</title>
<g id="a_node10"><a xlink:href="../../d6/dbd/classinfra_1_1_tokenizer.html#a661288c16f8b46d0ab3d27530f6b9c13" target="_top" xlink:title="infra::Tokenizer::SkipConsecutive\lSeparators">
<polygon fill="white" stroke="black" points="872,-22.5 872,-52.5 1033,-52.5 1033,-22.5 872,-22.5"/>
<text text-anchor="start" x="880" y="-40.5" font-family="Helvetica,sans-Serif" font-size="10.00">infra::Tokenizer::SkipConsecutive</text>
<text text-anchor="middle" x="952.5" y="-29.5" font-family="Helvetica,sans-Serif" font-size="10.00">Separators</text>
</a>
</g>
</g>
<!-- Node8&#45;&gt;Node9 -->
<g id="edge9" class="edge"><title>Node8&#45;&gt;Node9</title>
<path fill="none" stroke="midnightblue" d="M673.07,-55.1272C727.238,-51.6979 803.047,-46.8985 861.886,-43.1734"/>
<polygon fill="midnightblue" stroke="midnightblue" points="862.161,-46.6631 871.92,-42.5382 861.719,-39.6771 862.161,-46.6631"/>
</g>
<!-- Node10 -->
<g id="node11" class="node"><title>Node10</title>
<g id="a_node11"><a xlink:href="../../d6/dbd/classinfra_1_1_tokenizer.html#ac2a716e3917d2a5de009885dd9f6a1ce" target="_top" xlink:title="infra::Tokenizer::StartOf\lNextToken">
<polygon fill="white" stroke="black" points="713,-0.5 713,-30.5 832,-30.5 832,-0.5 713,-0.5"/>
<text text-anchor="start" x="721" y="-18.5" font-family="Helvetica,sans-Serif" font-size="10.00">infra::Tokenizer::StartOf</text>
<text text-anchor="middle" x="772.5" y="-7.5" font-family="Helvetica,sans-Serif" font-size="10.00">NextToken</text>
</a>
</g>
</g>
<!-- Node8&#45;&gt;Node10 -->
<g id="edge10" class="edge"><title>Node8&#45;&gt;Node10</title>
<path fill="none" stroke="midnightblue" d="M640.345,-49.9527C659.035,-45.043 682.422,-38.8996 704.251,-33.1653"/>
<polygon fill="midnightblue" stroke="midnightblue" points="705.366,-36.4913 714.149,-30.5654 703.588,-29.721 705.366,-36.4913"/>
</g>
<!-- Node10&#45;&gt;Node9 -->
<g id="edge11" class="edge"><title>Node10&#45;&gt;Node9</title>
<path fill="none" stroke="midnightblue" d="M832.277,-22.7646C841.771,-23.938 851.785,-25.1757 861.811,-26.4148"/>
<polygon fill="midnightblue" stroke="midnightblue" points="861.468,-29.899 871.822,-27.6521 862.326,-22.9518 861.468,-29.899"/>
</g>
<!-- Node11&#45;&gt;Node5 -->
<g id="edge13" class="edge"><title>Node11&#45;&gt;Node5</title>
<path fill="none" stroke="midnightblue" d="M314.037,-50.5083C333.295,-54.8852 354.052,-59.6028 372.289,-63.7474"/>
<polygon fill="midnightblue" stroke="midnightblue" points="371.608,-67.182 382.135,-65.9853 373.16,-60.356 371.608,-67.182"/>
</g>
<!-- Node12 -->
<g id="node13" class="node"><title>Node12</title>
<g id="a_node13"><a xlink:href="../../db/d91/namespaceservices.html#aafb69c34f9bdbc58e7a1dd5813fe2d9c" target="_top" xlink:title="services::HttpVerbFromString">
<polygon fill="white" stroke="black" points="353,-23 353,-42 497,-42 497,-23 353,-23"/>
<text text-anchor="middle" x="425" y="-30" font-family="Helvetica,sans-Serif" font-size="10.00">services::HttpVerbFromString</text>
</a>
</g>
</g>
<!-- Node11&#45;&gt;Node12 -->
<g id="edge14" class="edge"><title>Node11&#45;&gt;Node12</title>
<path fill="none" stroke="midnightblue" d="M317.055,-34.3229C325.499,-34.179 334.188,-34.0309 342.79,-33.8843"/>
<polygon fill="midnightblue" stroke="midnightblue" points="342.889,-37.3832 352.828,-33.7132 342.77,-30.3842 342.889,-37.3832"/>
</g>
<!-- Node13 -->
<g id="node14" class="node"><title>Node13</title>
<g id="a_node14"><a xlink:href="../../d0/de3/namespaceinfra.html#a0ec8c0f8585063ab97f13228d4888974" target="_top" xlink:title="infra::MakeOptional">
<polygon fill="white" stroke="black" points="552.5,-12 552.5,-31 653.5,-31 653.5,-12 552.5,-12"/>
<text text-anchor="middle" x="603" y="-19" font-family="Helvetica,sans-Serif" font-size="10.00">infra::MakeOptional</text>
</a>
</g>
</g>
<!-- Node12&#45;&gt;Node13 -->
<g id="edge15" class="edge"><title>Node12&#45;&gt;Node13</title>
<path fill="none" stroke="midnightblue" d="M497.079,-28.0576C511.972,-27.1268 527.537,-26.1539 541.98,-25.2512"/>
<polygon fill="midnightblue" stroke="midnightblue" points="542.511,-28.725 552.273,-24.6079 542.074,-21.7386 542.511,-28.725"/>
</g>
</g>
</svg>
