<?xml version="1.0" encoding="UTF-8" standalone="no"?>
<!DOCTYPE svg PUBLIC "-//W3C//DTD SVG 1.1//EN"
 "http://www.w3.org/Graphics/SVG/1.1/DTD/svg11.dtd">
<!-- Generated by graphviz version 2.38.0 (20140413.2041)
 -->
<!-- Title: infra::SharedObjectDeleter::Deallocate Pages: 1 -->
<svg width="694pt" height="39pt"
 viewBox="0.00 0.00 694.00 39.00" xmlns="http://www.w3.org/2000/svg" xmlns:xlink="http://www.w3.org/1999/xlink">
<g id="graph0" class="graph" transform="scale(1 1) rotate(0) translate(4 35)">
<title>infra::SharedObjectDeleter::Deallocate</title>
<polygon fill="white" stroke="none" points="-4,4 -4,-35 690,-35 690,4 -4,4"/>
<!-- Node7 -->
<g id="node1" class="node"><title>Node7</title>
<polygon fill="#bfbfbf" stroke="black" points="0,-0.5 0,-30.5 131,-30.5 131,-0.5 0,-0.5"/>
<text text-anchor="start" x="8" y="-18.5" font-family="Helvetica,sans-Serif" font-size="10.00">infra::SharedObjectDeleter</text>
<text text-anchor="middle" x="65.5" y="-7.5" font-family="Helvetica,sans-Serif" font-size="10.00">::Deallocate</text>
</g>
<!-- Node8 -->
<g id="node2" class="node"><title>Node8</title>
<g id="a_node2"><a xlink:href="../../dd/d9a/classinfra_1_1detail_1_1_shared_ptr_control.html#a114ef466ae1f9db484748a1a352ab669" target="_top" xlink:title="infra::detail::SharedPtr\lControl::DecreaseWeakCount">
<polygon fill="white" stroke="black" points="167,-0.5 167,-30.5 313,-30.5 313,-0.5 167,-0.5"/>
<text text-anchor="start" x="175" y="-18.5" font-family="Helvetica,sans-Serif" font-size="10.00">infra::detail::SharedPtr</text>
<text text-anchor="middle" x="240" y="-7.5" font-family="Helvetica,sans-Serif" font-size="10.00">Control::DecreaseWeakCount</text>
</a>
</g>
</g>
<!-- Node7&#45;&gt;Node8 -->
<g id="edge1" class="edge"><title>Node7&#45;&gt;Node8</title>
<path fill="none" stroke="midnightblue" d="M141.456,-15.5C149.923,-15.5 158.538,-15.5 166.967,-15.5"/>
<polygon fill="midnightblue" stroke="midnightblue" points="141.223,-12.0001 131.223,-15.5 141.223,-19.0001 141.223,-12.0001"/>
</g>
<!-- Node9 -->
<g id="node3" class="node"><title>Node9</title>
<g id="a_node3"><a xlink:href="../../dd/d9a/classinfra_1_1detail_1_1_shared_ptr_control.html#a605c1f8ddda5e5c9135a409ff098c7f1" target="_top" xlink:title="infra::detail::SharedPtr\lControl::DecreaseSharedCount">
<polygon fill="white" stroke="black" points="349,-0.5 349,-30.5 500,-30.5 500,-0.5 349,-0.5"/>
<text text-anchor="start" x="357" y="-18.5" font-family="Helvetica,sans-Serif" font-size="10.00">infra::detail::SharedPtr</text>
<text text-anchor="middle" x="424.5" y="-7.5" font-family="Helvetica,sans-Serif" font-size="10.00">Control::DecreaseSharedCount</text>
</a>
</g>
</g>
<!-- Node8&#45;&gt;Node9 -->
<g id="edge2" class="edge"><title>Node8&#45;&gt;Node9</title>
<path fill="none" stroke="midnightblue" d="M323.135,-15.5C331.718,-15.5 340.408,-15.5 348.9,-15.5"/>
<polygon fill="midnightblue" stroke="midnightblue" points="323.129,-12.0001 313.129,-15.5 323.129,-19.0001 323.129,-12.0001"/>
</g>
<!-- Node10 -->
<g id="node4" class="node"><title>Node10</title>
<g id="a_node4"><a xlink:href="../../d1/d17/classinfra_1_1_shared_ptr.html#afa914a68ea25ce2fd55032bc4ab4e0aa" target="_top" xlink:title="infra::SharedPtr\&lt; services\l::ConnectionObserver \&gt;::Reset">
<polygon fill="white" stroke="black" points="536,-0.5 536,-30.5 686,-30.5 686,-0.5 536,-0.5"/>
<text text-anchor="start" x="544" y="-18.5" font-family="Helvetica,sans-Serif" font-size="10.00">infra::SharedPtr&lt; services</text>
<text text-anchor="middle" x="611" y="-7.5" font-family="Helvetica,sans-Serif" font-size="10.00">::ConnectionObserver &gt;::Reset</text>
</a>
</g>
</g>
<!-- Node9&#45;&gt;Node10 -->
<g id="edge3" class="edge"><title>Node9&#45;&gt;Node10</title>
<path fill="none" stroke="midnightblue" d="M510.046,-15.5C518.645,-15.5 527.333,-15.5 535.81,-15.5"/>
<polygon fill="midnightblue" stroke="midnightblue" points="510.011,-12.0001 500.011,-15.5 510.011,-19.0001 510.011,-12.0001"/>
</g>
</g>
</svg>
