<?xml version="1.0" encoding="UTF-8" standalone="no"?>
<!DOCTYPE svg PUBLIC "-//W3C//DTD SVG 1.1//EN"
 "http://www.w3.org/Graphics/SVG/1.1/DTD/svg11.dtd">
<!-- Generated by graphviz version 2.38.0 (20140413.2041)
 -->
<!-- Title: services::ConnectionSerial::StateInitSizeResponseRequest Pages: 1 -->
<svg width="166pt" height="173pt"
 viewBox="0.00 0.00 166.00 173.00" xmlns="http://www.w3.org/2000/svg" xmlns:xlink="http://www.w3.org/1999/xlink">
<g id="graph0" class="graph" transform="scale(1 1) rotate(0) translate(4 169)">
<title>services::ConnectionSerial::StateInitSizeResponseRequest</title>
<polygon fill="white" stroke="none" points="-4,4 -4,-169 162,-169 162,4 -4,4"/>
<!-- Node0 -->
<g id="node1" class="node"><title>Node0</title>
<polygon fill="#bfbfbf" stroke="black" points="0,-0.5 0,-30.5 158,-30.5 158,-0.5 0,-0.5"/>
<text text-anchor="start" x="8" y="-18.5" font-family="Helvetica,sans-Serif" font-size="10.00">services::ConnectionSerial</text>
<text text-anchor="middle" x="79" y="-7.5" font-family="Helvetica,sans-Serif" font-size="10.00">::StateInitSizeResponseRequest</text>
</g>
<!-- Node1 -->
<g id="node2" class="node"><title>Node1</title>
<g id="a_node2"><a xlink:href="../../d0/db5/classservices_1_1_connection_serial_1_1_state_init.html" target="_top" xlink:title="services::ConnectionSerial\l::StateInit">
<polygon fill="white" stroke="black" points="13.5,-67.5 13.5,-97.5 144.5,-97.5 144.5,-67.5 13.5,-67.5"/>
<text text-anchor="start" x="21.5" y="-85.5" font-family="Helvetica,sans-Serif" font-size="10.00">services::ConnectionSerial</text>
<text text-anchor="middle" x="79" y="-74.5" font-family="Helvetica,sans-Serif" font-size="10.00">::StateInit</text>
</a>
</g>
</g>
<!-- Node1&#45;&gt;Node0 -->
<g id="edge1" class="edge"><title>Node1&#45;&gt;Node0</title>
<path fill="none" stroke="midnightblue" d="M79,-57.1081C79,-48.1539 79,-38.3227 79,-30.5765"/>
<polygon fill="midnightblue" stroke="midnightblue" points="75.5001,-57.3959 79,-67.396 82.5001,-57.396 75.5001,-57.3959"/>
</g>
<!-- Node2 -->
<g id="node3" class="node"><title>Node2</title>
<g id="a_node3"><a xlink:href="../../d6/dcc/classservices_1_1_connection_serial_1_1_state.html" target="_top" xlink:title="services::ConnectionSerial\l::State">
<polygon fill="white" stroke="black" points="13.5,-134.5 13.5,-164.5 144.5,-164.5 144.5,-134.5 13.5,-134.5"/>
<text text-anchor="start" x="21.5" y="-152.5" font-family="Helvetica,sans-Serif" font-size="10.00">services::ConnectionSerial</text>
<text text-anchor="middle" x="79" y="-141.5" font-family="Helvetica,sans-Serif" font-size="10.00">::State</text>
</a>
</g>
</g>
<!-- Node2&#45;&gt;Node1 -->
<g id="edge2" class="edge"><title>Node2&#45;&gt;Node1</title>
<path fill="none" stroke="midnightblue" d="M79,-124.108C79,-115.154 79,-105.323 79,-97.5765"/>
<polygon fill="midnightblue" stroke="midnightblue" points="75.5001,-124.396 79,-134.396 82.5001,-124.396 75.5001,-124.396"/>
</g>
</g>
</svg>
