<?xml version="1.0" encoding="UTF-8" standalone="no"?>
<!DOCTYPE svg PUBLIC "-//W3C//DTD SVG 1.1//EN"
 "http://www.w3.org/Graphics/SVG/1.1/DTD/svg11.dtd">
<!-- Generated by graphviz version 2.38.0 (20140413.2041)
 -->
<!-- Title: infra::ByteInputStreamReader Pages: 1 -->
<svg width="359pt" height="184pt"
 viewBox="0.00 0.00 359.00 184.00" xmlns="http://www.w3.org/2000/svg" xmlns:xlink="http://www.w3.org/1999/xlink">
<g id="graph0" class="graph" transform="scale(1 1) rotate(0) translate(4 180)">
<title>infra::ByteInputStreamReader</title>
<polygon fill="white" stroke="none" points="-4,4 -4,-180 355,-180 355,4 -4,4"/>
<!-- Node3 -->
<g id="node1" class="node"><title>Node3</title>
<polygon fill="#bfbfbf" stroke="black" points="165.5,-0.5 165.5,-19.5 309.5,-19.5 309.5,-0.5 165.5,-0.5"/>
<text text-anchor="middle" x="237.5" y="-7.5" font-family="Helvetica,sans-Serif" font-size="10.00">infra::ByteInputStreamReader</text>
</g>
<!-- Node4 -->
<g id="node2" class="node"><title>Node4</title>
<g id="a_node2"><a xlink:href="../../d0/d1b/classinfra_1_1_stream_reader_with_rewinding.html" target="_top" xlink:title="infra::StreamReaderWithRewinding">
<polygon fill="white" stroke="black" points="0,-73 0,-92 167,-92 167,-73 0,-73"/>
<text text-anchor="middle" x="83.5" y="-80" font-family="Helvetica,sans-Serif" font-size="10.00">infra::StreamReaderWithRewinding</text>
</a>
</g>
</g>
<!-- Node4&#45;&gt;Node3 -->
<g id="edge1" class="edge"><title>Node4&#45;&gt;Node3</title>
<path fill="none" stroke="midnightblue" d="M111.495,-68.684C142.648,-54.4225 192.112,-31.7783 218.858,-19.5341"/>
<polygon fill="midnightblue" stroke="midnightblue" points="109.712,-65.6511 102.076,-72.9961 112.625,-72.0159 109.712,-65.6511"/>
</g>
<!-- Node5 -->
<g id="node3" class="node"><title>Node5</title>
<g id="a_node3"><a xlink:href="../../d2/d90/classinfra_1_1_stream_reader.html" target="_top" xlink:title="infra::StreamReader">
<polygon fill="white" stroke="black" points="32,-156.5 32,-175.5 135,-175.5 135,-156.5 32,-156.5"/>
<text text-anchor="middle" x="83.5" y="-163.5" font-family="Helvetica,sans-Serif" font-size="10.00">infra::StreamReader</text>
</a>
</g>
</g>
<!-- Node5&#45;&gt;Node4 -->
<g id="edge2" class="edge"><title>Node5&#45;&gt;Node4</title>
<path fill="none" stroke="midnightblue" d="M83.5,-145.876C83.5,-128.898 83.5,-104.867 83.5,-92.1592"/>
<polygon fill="midnightblue" stroke="midnightblue" points="80.0001,-146.278 83.5,-156.278 87.0001,-146.278 80.0001,-146.278"/>
</g>
<!-- Node6 -->
<g id="node4" class="node"><title>Node6</title>
<g id="a_node4"><a xlink:href="../../d0/d6d/classinfra_1_1_memory_range.html" target="_top" xlink:title="infra::MemoryRange\l\&lt; const uint8_t \&gt;">
<polygon fill="white" stroke="black" points="185.5,-67.5 185.5,-97.5 289.5,-97.5 289.5,-67.5 185.5,-67.5"/>
<text text-anchor="start" x="193.5" y="-85.5" font-family="Helvetica,sans-Serif" font-size="10.00">infra::MemoryRange</text>
<text text-anchor="middle" x="237.5" y="-74.5" font-family="Helvetica,sans-Serif" font-size="10.00">&lt; const uint8_t &gt;</text>
</a>
</g>
</g>
<!-- Node6&#45;&gt;Node3 -->
<g id="edge3" class="edge"><title>Node6&#45;&gt;Node3</title>
<path fill="none" stroke="#9a32cd" stroke-dasharray="5,2" d="M237.5,-57.0913C237.5,-44.2136 237.5,-29.1974 237.5,-19.8932"/>
<polygon fill="#9a32cd" stroke="#9a32cd" points="234,-57.2332 237.5,-67.2333 241,-57.2333 234,-57.2332"/>
<text text-anchor="middle" x="251.5" y="-41" font-family="Helvetica,sans-Serif" font-size="10.00"> range</text>
</g>
<!-- Node7 -->
<g id="node5" class="node"><title>Node7</title>
<polygon fill="white" stroke="#bfbfbf" points="197.5,-156.5 197.5,-175.5 277.5,-175.5 277.5,-156.5 197.5,-156.5"/>
<text text-anchor="middle" x="237.5" y="-163.5" font-family="Helvetica,sans-Serif" font-size="10.00">const uint8_t *</text>
</g>
<!-- Node7&#45;&gt;Node6 -->
<g id="edge4" class="edge"><title>Node7&#45;&gt;Node6</title>
<path fill="none" stroke="#9a32cd" stroke-dasharray="5,2" d="M237.5,-146.229C237.5,-131.408 237.5,-111.051 237.5,-97.5974"/>
<polygon fill="#9a32cd" stroke="#9a32cd" points="234,-146.278 237.5,-156.278 241,-146.278 234,-146.278"/>
<text text-anchor="middle" x="269" y="-130" font-family="Helvetica,sans-Serif" font-size="10.00"> beginElement</text>
<text text-anchor="middle" x="269" y="-119" font-family="Helvetica,sans-Serif" font-size="10.00">endElement</text>
</g>
<!-- Node8 -->
<g id="node6" class="node"><title>Node8</title>
<polygon fill="white" stroke="#bfbfbf" points="308,-73 308,-92 351,-92 351,-73 308,-73"/>
<text text-anchor="middle" x="329.5" y="-80" font-family="Helvetica,sans-Serif" font-size="10.00">size_t</text>
</g>
<!-- Node8&#45;&gt;Node3 -->
<g id="edge5" class="edge"><title>Node8&#45;&gt;Node3</title>
<path fill="none" stroke="#9a32cd" stroke-dasharray="5,2" d="M310.145,-66.6682C291.576,-52.4385 264.165,-31.4338 248.873,-19.7154"/>
<polygon fill="#9a32cd" stroke="#9a32cd" points="308.153,-69.5509 318.219,-72.8553 312.41,-63.9947 308.153,-69.5509"/>
<text text-anchor="middle" x="300" y="-41" font-family="Helvetica,sans-Serif" font-size="10.00"> offset</text>
</g>
</g>
</svg>
