<?xml version="1.0" encoding="UTF-8" standalone="no"?>
<!DOCTYPE svg PUBLIC "-//W3C//DTD SVG 1.1//EN"
 "http://www.w3.org/Graphics/SVG/1.1/DTD/svg11.dtd">
<!-- Generated by graphviz version 2.38.0 (20140413.2041)
 -->
<!-- Title: T Pages: 1 -->
<svg width="252pt" height="78pt"
 viewBox="0.00 0.00 252.00 77.50" xmlns="http://www.w3.org/2000/svg" xmlns:xlink="http://www.w3.org/1999/xlink">
<g id="graph0" class="graph" transform="scale(1 1) rotate(0) translate(4 73.5)">
<title>T</title>
<polygon fill="white" stroke="none" points="-4,4 -4,-73.5 248,-73.5 248,4 -4,4"/>
<!-- Node0 -->
<g id="node1" class="node"><title>Node0</title>
<polygon fill="#bfbfbf" stroke="black" points="0,-28 0,-47 29,-47 29,-28 0,-28"/>
<text text-anchor="middle" x="14.5" y="-35" font-family="Helvetica,sans-Serif" font-size="10.00">T</text>
</g>
<!-- Node1 -->
<g id="node2" class="node"><title>Node1</title>
<g id="a_node2"><a xlink:href="../../d3/d09/classinfra_1_1_event_dispatcher_connector.html" target="_top" xlink:title="infra::EventDispatcherConnector\&lt; T \&gt;">
<polygon fill="white" stroke="black" points="65,-50 65,-69 244,-69 244,-50 65,-50"/>
<text text-anchor="middle" x="154.5" y="-57" font-family="Helvetica,sans-Serif" font-size="10.00">infra::EventDispatcherConnector&lt; T &gt;</text>
</a>
</g>
</g>
<!-- Node0&#45;&gt;Node1 -->
<g id="edge1" class="edge"><title>Node0&#45;&gt;Node1</title>
<path fill="none" stroke="midnightblue" d="M39.1888,-41.2765C54.2256,-43.6736 74.4087,-46.8912 93.6297,-49.9555"/>
<polygon fill="midnightblue" stroke="midnightblue" points="39.6628,-37.8079 29.2365,-39.6899 38.5607,-44.7206 39.6628,-37.8079"/>
</g>
<!-- Node2 -->
<g id="node3" class="node"><title>Node2</title>
<g id="a_node3"><a xlink:href="../../d8/d3a/classinfra_1_1_event_dispatcher_with_weak_ptr_connector.html" target="_top" xlink:title="infra::EventDispatcherWith\lWeakPtrConnector\&lt; T \&gt;">
<polygon fill="white" stroke="black" points="89,-0.5 89,-30.5 220,-30.5 220,-0.5 89,-0.5"/>
<text text-anchor="start" x="97" y="-18.5" font-family="Helvetica,sans-Serif" font-size="10.00">infra::EventDispatcherWith</text>
<text text-anchor="middle" x="154.5" y="-7.5" font-family="Helvetica,sans-Serif" font-size="10.00">WeakPtrConnector&lt; T &gt;</text>
</a>
</g>
</g>
<!-- Node0&#45;&gt;Node2 -->
<g id="edge2" class="edge"><title>Node0&#45;&gt;Node2</title>
<path fill="none" stroke="midnightblue" d="M39.2657,-33.7113C53.0303,-31.5169 71.0885,-28.6381 88.7711,-25.8191"/>
<polygon fill="midnightblue" stroke="midnightblue" points="38.5607,-30.2794 29.2365,-35.3101 39.6628,-37.1921 38.5607,-30.2794"/>
</g>
</g>
</svg>
