<?xml version="1.0" encoding="UTF-8" standalone="no"?>
<!DOCTYPE svg PUBLIC "-//W3C//DTD SVG 1.1//EN"
 "http://www.w3.org/Graphics/SVG/1.1/DTD/svg11.dtd">
<!-- Generated by graphviz version 2.38.0 (20140413.2041)
 -->
<!-- Title: infra::JsonString::AppendTo Pages: 1 -->
<svg width="263pt" height="88pt"
 viewBox="0.00 0.00 263.00 88.00" xmlns="http://www.w3.org/2000/svg" xmlns:xlink="http://www.w3.org/1999/xlink">
<g id="graph0" class="graph" transform="scale(1 1) rotate(0) translate(4 84)">
<title>infra::JsonString::AppendTo</title>
<polygon fill="white" stroke="none" points="-4,4 -4,-84 259,-84 259,4 -4,4"/>
<!-- Node6 -->
<g id="node1" class="node"><title>Node6</title>
<polygon fill="#bfbfbf" stroke="black" points="0,-24.5 0,-54.5 92,-54.5 92,-24.5 0,-24.5"/>
<text text-anchor="start" x="8" y="-42.5" font-family="Helvetica,sans-Serif" font-size="10.00">infra::JsonString::</text>
<text text-anchor="middle" x="46" y="-31.5" font-family="Helvetica,sans-Serif" font-size="10.00">AppendTo</text>
</g>
<!-- Node7 -->
<g id="node2" class="node"><title>Node7</title>
<g id="a_node2"><a xlink:href="../../d1/d2a/classinfra_1_1_bounded_string_base.html#aca8ce15650affe10787e972764ebe08b" target="_top" xlink:title="infra::BoundedStringBase\l::full">
<polygon fill="white" stroke="black" points="128,-49.5 128,-79.5 255,-79.5 255,-49.5 128,-49.5"/>
<text text-anchor="start" x="136" y="-67.5" font-family="Helvetica,sans-Serif" font-size="10.00">infra::BoundedStringBase</text>
<text text-anchor="middle" x="191.5" y="-56.5" font-family="Helvetica,sans-Serif" font-size="10.00">::full</text>
</a>
</g>
</g>
<!-- Node6&#45;&gt;Node7 -->
<g id="edge1" class="edge"><title>Node6&#45;&gt;Node7</title>
<path fill="none" stroke="midnightblue" d="M92.0106,-47.3416C100.252,-48.7773 109.042,-50.3088 117.851,-51.8434"/>
<polygon fill="midnightblue" stroke="midnightblue" points="117.323,-55.3041 127.776,-53.5724 118.525,-48.408 117.323,-55.3041"/>
</g>
<!-- Node8 -->
<g id="node3" class="node"><title>Node8</title>
<g id="a_node3"><a xlink:href="../../d1/d2a/classinfra_1_1_bounded_string_base.html#a8020014adaf92c328de6193c744c0d67" target="_top" xlink:title="infra::BoundedStringBase\l::push_back">
<polygon fill="white" stroke="black" points="128,-0.5 128,-30.5 255,-30.5 255,-0.5 128,-0.5"/>
<text text-anchor="start" x="136" y="-18.5" font-family="Helvetica,sans-Serif" font-size="10.00">infra::BoundedStringBase</text>
<text text-anchor="middle" x="191.5" y="-7.5" font-family="Helvetica,sans-Serif" font-size="10.00">::push_back</text>
</a>
</g>
</g>
<!-- Node6&#45;&gt;Node8 -->
<g id="edge2" class="edge"><title>Node6&#45;&gt;Node8</title>
<path fill="none" stroke="midnightblue" d="M92.0106,-31.9721C100.252,-30.5938 109.042,-29.1236 117.851,-27.6503"/>
<polygon fill="midnightblue" stroke="midnightblue" points="118.49,-31.0922 127.776,-25.9905 117.335,-24.1881 118.49,-31.0922"/>
</g>
</g>
</svg>
