<?xml version="1.0" encoding="UTF-8" standalone="no"?>
<!DOCTYPE svg PUBLIC "-//W3C//DTD SVG 1.1//EN"
 "http://www.w3.org/Graphics/SVG/1.1/DTD/svg11.dtd">
<!-- Generated by graphviz version 2.38.0 (20140413.2041)
 -->
<!-- Title: services::FactoryDefaultConfigurationStoreBase::Write Pages: 1 -->
<svg width="648pt" height="154pt"
 viewBox="0.00 0.00 648.00 153.50" xmlns="http://www.w3.org/2000/svg" xmlns:xlink="http://www.w3.org/1999/xlink">
<g id="graph0" class="graph" transform="scale(1 1) rotate(0) translate(4 149.5)">
<title>services::FactoryDefaultConfigurationStoreBase::Write</title>
<polygon fill="white" stroke="none" points="-4,4 -4,-149.5 644,-149.5 644,4 -4,4"/>
<!-- Node13 -->
<g id="node1" class="node"><title>Node13</title>
<polygon fill="#bfbfbf" stroke="black" points="0,-44 0,-85 121,-85 121,-44 0,-44"/>
<text text-anchor="start" x="8" y="-73" font-family="Helvetica,sans-Serif" font-size="10.00">services::FactoryDefault</text>
<text text-anchor="start" x="8" y="-62" font-family="Helvetica,sans-Serif" font-size="10.00">ConfigurationStoreBase</text>
<text text-anchor="middle" x="60.5" y="-51" font-family="Helvetica,sans-Serif" font-size="10.00">::Write</text>
</g>
<!-- Node14 -->
<g id="node2" class="node"><title>Node14</title>
<g id="a_node2"><a xlink:href="../../d4/dc9/classservices_1_1_configuration_store_base.html#a3f4f36d27ca7dba5f93547df908f98a7" target="_top" xlink:title="services::ConfigurationStore\lBase::Write">
<polygon fill="white" stroke="black" points="157,-49.5 157,-79.5 294,-79.5 294,-49.5 157,-49.5"/>
<text text-anchor="start" x="165" y="-67.5" font-family="Helvetica,sans-Serif" font-size="10.00">services::ConfigurationStore</text>
<text text-anchor="middle" x="225.5" y="-56.5" font-family="Helvetica,sans-Serif" font-size="10.00">Base::Write</text>
</a>
</g>
</g>
<!-- Node13&#45;&gt;Node14 -->
<g id="edge1" class="edge"><title>Node13&#45;&gt;Node14</title>
<path fill="none" stroke="midnightblue" d="M121.27,-64.5C129.563,-64.5 138.181,-64.5 146.744,-64.5"/>
<polygon fill="midnightblue" stroke="midnightblue" points="146.747,-68.0001 156.747,-64.5 146.747,-61.0001 146.747,-68.0001"/>
</g>
<!-- Node15 -->
<g id="node3" class="node"><title>Node15</title>
<g id="a_node3"><a xlink:href="../../d4/dc9/classservices_1_1_configuration_store_base.html#a98f71c00b571f3c5f9d58bb8192f85fa" target="_top" xlink:title="services::ConfigurationStore\lBase::BlobWriteDone">
<polygon fill="white" stroke="black" points="330,-98.5 330,-128.5 467,-128.5 467,-98.5 330,-98.5"/>
<text text-anchor="start" x="338" y="-116.5" font-family="Helvetica,sans-Serif" font-size="10.00">services::ConfigurationStore</text>
<text text-anchor="middle" x="398.5" y="-105.5" font-family="Helvetica,sans-Serif" font-size="10.00">Base::BlobWriteDone</text>
</a>
</g>
</g>
<!-- Node14&#45;&gt;Node15 -->
<g id="edge2" class="edge"><title>Node14&#45;&gt;Node15</title>
<path fill="none" stroke="midnightblue" d="M279.201,-79.6014C296.919,-84.6785 316.852,-90.3902 335.234,-95.6577"/>
<polygon fill="midnightblue" stroke="midnightblue" points="334.396,-99.0583 344.973,-98.4484 336.324,-92.3291 334.396,-99.0583"/>
</g>
<!-- Node18 -->
<g id="node6" class="node"><title>Node18</title>
<g id="a_node6"><a xlink:href="../../d1/da2/classservices_1_1_configuration_blob.html#a279b97e0a18250115b470e71b57dad3e" target="_top" xlink:title="services::ConfigurationBlob\l::Erase">
<polygon fill="white" stroke="black" points="331.5,-49.5 331.5,-79.5 465.5,-79.5 465.5,-49.5 331.5,-49.5"/>
<text text-anchor="start" x="339.5" y="-67.5" font-family="Helvetica,sans-Serif" font-size="10.00">services::ConfigurationBlob</text>
<text text-anchor="middle" x="398.5" y="-56.5" font-family="Helvetica,sans-Serif" font-size="10.00">::Erase</text>
</a>
</g>
</g>
<!-- Node14&#45;&gt;Node18 -->
<g id="edge5" class="edge"><title>Node14&#45;&gt;Node18</title>
<path fill="none" stroke="midnightblue" d="M294.084,-64.5C302.969,-64.5 312.125,-64.5 321.143,-64.5"/>
<polygon fill="midnightblue" stroke="midnightblue" points="321.245,-68.0001 331.245,-64.5 321.245,-61.0001 321.245,-68.0001"/>
</g>
<!-- Node19 -->
<g id="node7" class="node"><title>Node19</title>
<g id="a_node7"><a xlink:href="../../d4/dc9/classservices_1_1_configuration_store_base.html#a190f61ac910e9c41edbf4b0c57a98a84" target="_top" xlink:title="services::ConfigurationStore\lBase::Serialize">
<polygon fill="white" stroke="black" points="330,-0.5 330,-30.5 467,-30.5 467,-0.5 330,-0.5"/>
<text text-anchor="start" x="338" y="-18.5" font-family="Helvetica,sans-Serif" font-size="10.00">services::ConfigurationStore</text>
<text text-anchor="middle" x="398.5" y="-7.5" font-family="Helvetica,sans-Serif" font-size="10.00">Base::Serialize</text>
</a>
</g>
</g>
<!-- Node14&#45;&gt;Node19 -->
<g id="edge6" class="edge"><title>Node14&#45;&gt;Node19</title>
<path fill="none" stroke="midnightblue" d="M279.201,-49.3986C296.919,-44.3215 316.852,-38.6098 335.234,-33.3423"/>
<polygon fill="midnightblue" stroke="midnightblue" points="336.324,-36.6709 344.973,-30.5516 334.396,-29.9417 336.324,-36.6709"/>
</g>
<!-- Node16 -->
<g id="node4" class="node"><title>Node16</title>
<g id="a_node4"><a xlink:href="../../d0/de3/namespaceinfra.html#a032811931ada58a358282ecfcfd58de5" target="_top" xlink:title="infra::swap">
<polygon fill="white" stroke="black" points="540,-126 540,-145 603,-145 603,-126 540,-126"/>
<text text-anchor="middle" x="571.5" y="-133" font-family="Helvetica,sans-Serif" font-size="10.00">infra::swap</text>
</a>
</g>
</g>
<!-- Node15&#45;&gt;Node16 -->
<g id="edge3" class="edge"><title>Node15&#45;&gt;Node16</title>
<path fill="none" stroke="midnightblue" d="M467.084,-122.195C488.351,-124.931 511.167,-127.866 529.943,-130.282"/>
<polygon fill="midnightblue" stroke="midnightblue" points="529.558,-133.761 539.922,-131.566 530.451,-126.819 529.558,-133.761"/>
</g>
<!-- Node17 -->
<g id="node5" class="node"><title>Node17</title>
<g id="a_node5"><a xlink:href="../../d4/dc9/classservices_1_1_configuration_store_base.html#a8457cc48e1bddf54171324635e2b4743" target="_top" xlink:title="services::ConfigurationStore\lBase::Write">
<polygon fill="white" stroke="black" points="503,-76.5 503,-106.5 640,-106.5 640,-76.5 503,-76.5"/>
<text text-anchor="start" x="511" y="-94.5" font-family="Helvetica,sans-Serif" font-size="10.00">services::ConfigurationStore</text>
<text text-anchor="middle" x="571.5" y="-83.5" font-family="Helvetica,sans-Serif" font-size="10.00">Base::Write</text>
</a>
</g>
</g>
<!-- Node15&#45;&gt;Node17 -->
<g id="edge4" class="edge"><title>Node15&#45;&gt;Node17</title>
<path fill="none" stroke="midnightblue" d="M467.084,-104.805C475.538,-103.717 484.237,-102.598 492.83,-101.493"/>
<polygon fill="midnightblue" stroke="midnightblue" points="493.376,-104.951 502.847,-100.204 492.482,-98.0086 493.376,-104.951"/>
</g>
</g>
</svg>
