<?xml version="1.0" encoding="UTF-8" standalone="no"?>
<!DOCTYPE svg PUBLIC "-//W3C//DTD SVG 1.1//EN"
 "http://www.w3.org/Graphics/SVG/1.1/DTD/svg11.dtd">
<!-- Generated by graphviz version 2.38.0 (20140413.2041)
 -->
<!-- Title: services::SpiMultipleAccessMaster::SetChipSelectConfigurator Pages: 1 -->
<svg width="530pt" height="39pt"
 viewBox="0.00 0.00 530.00 39.00" xmlns="http://www.w3.org/2000/svg" xmlns:xlink="http://www.w3.org/1999/xlink">
<g id="graph0" class="graph" transform="scale(1 1) rotate(0) translate(4 35)">
<title>services::SpiMultipleAccessMaster::SetChipSelectConfigurator</title>
<polygon fill="white" stroke="none" points="-4,4 -4,-35 526,-35 526,4 -4,4"/>
<!-- Node14 -->
<g id="node1" class="node"><title>Node14</title>
<polygon fill="#bfbfbf" stroke="black" points="0,-0.5 0,-30.5 167,-30.5 167,-0.5 0,-0.5"/>
<text text-anchor="start" x="8" y="-18.5" font-family="Helvetica,sans-Serif" font-size="10.00">services::SpiMultipleAccess</text>
<text text-anchor="middle" x="83.5" y="-7.5" font-family="Helvetica,sans-Serif" font-size="10.00">Master::SetChipSelectConfigurator</text>
</g>
<!-- Node15 -->
<g id="node2" class="node"><title>Node15</title>
<g id="a_node2"><a xlink:href="../../d9/d2d/classservices_1_1_spi_multiple_access.html#a3395b2a1dcc5d0cd7ff24f30011f800e" target="_top" xlink:title="services::SpiMultipleAccess\l::SendAndReceiveOnClaimed">
<polygon fill="white" stroke="black" points="203,-0.5 203,-30.5 347,-30.5 347,-0.5 203,-0.5"/>
<text text-anchor="start" x="211" y="-18.5" font-family="Helvetica,sans-Serif" font-size="10.00">services::SpiMultipleAccess</text>
<text text-anchor="middle" x="275" y="-7.5" font-family="Helvetica,sans-Serif" font-size="10.00">::SendAndReceiveOnClaimed</text>
</a>
</g>
</g>
<!-- Node14&#45;&gt;Node15 -->
<g id="edge1" class="edge"><title>Node14&#45;&gt;Node15</title>
<path fill="none" stroke="midnightblue" d="M177.21,-15.5C185.875,-15.5 194.562,-15.5 202.982,-15.5"/>
<polygon fill="midnightblue" stroke="midnightblue" points="177.066,-12.0001 167.066,-15.5 177.066,-19.0001 177.066,-12.0001"/>
</g>
<!-- Node16 -->
<g id="node3" class="node"><title>Node16</title>
<g id="a_node3"><a xlink:href="../../d9/d2d/classservices_1_1_spi_multiple_access.html#a88befdf785d01e504a686609a242f7b5" target="_top" xlink:title="services::SpiMultipleAccess\l::SendAndReceive">
<polygon fill="white" stroke="black" points="383,-0.5 383,-30.5 522,-30.5 522,-0.5 383,-0.5"/>
<text text-anchor="start" x="391" y="-18.5" font-family="Helvetica,sans-Serif" font-size="10.00">services::SpiMultipleAccess</text>
<text text-anchor="middle" x="452.5" y="-7.5" font-family="Helvetica,sans-Serif" font-size="10.00">::SendAndReceive</text>
</a>
</g>
</g>
<!-- Node15&#45;&gt;Node16 -->
<g id="edge2" class="edge"><title>Node15&#45;&gt;Node16</title>
<path fill="none" stroke="midnightblue" d="M357.149,-15.5C365.735,-15.5 374.405,-15.5 382.828,-15.5"/>
<polygon fill="midnightblue" stroke="midnightblue" points="357.13,-12.0001 347.13,-15.5 357.13,-19.0001 357.13,-12.0001"/>
</g>
</g>
</svg>
