<?xml version="1.0" encoding="UTF-8" standalone="no"?>
<!DOCTYPE svg PUBLIC "-//W3C//DTD SVG 1.1//EN"
 "http://www.w3.org/Graphics/SVG/1.1/DTD/svg11.dtd">
<!-- Generated by graphviz version 2.38.0 (20140413.2041)
 -->
<!-- Title: services::SpiMultipleAccessMaster::ResetCommunicationConfigurator Pages: 1 -->
<svg width="560pt" height="39pt"
 viewBox="0.00 0.00 560.00 39.00" xmlns="http://www.w3.org/2000/svg" xmlns:xlink="http://www.w3.org/1999/xlink">
<g id="graph0" class="graph" transform="scale(1 1) rotate(0) translate(4 35)">
<title>services::SpiMultipleAccessMaster::ResetCommunicationConfigurator</title>
<polygon fill="white" stroke="none" points="-4,4 -4,-35 556,-35 556,4 -4,4"/>
<!-- Node4 -->
<g id="node1" class="node"><title>Node4</title>
<polygon fill="#bfbfbf" stroke="black" points="0,-0.5 0,-30.5 197,-30.5 197,-0.5 0,-0.5"/>
<text text-anchor="start" x="8" y="-18.5" font-family="Helvetica,sans-Serif" font-size="10.00">services::SpiMultipleAccess</text>
<text text-anchor="middle" x="98.5" y="-7.5" font-family="Helvetica,sans-Serif" font-size="10.00">Master::ResetCommunicationConfigurator</text>
</g>
<!-- Node5 -->
<g id="node2" class="node"><title>Node5</title>
<g id="a_node2"><a xlink:href="../../d9/d2d/classservices_1_1_spi_multiple_access.html#a3395b2a1dcc5d0cd7ff24f30011f800e" target="_top" xlink:title="services::SpiMultipleAccess\l::SendAndReceiveOnClaimed">
<polygon fill="white" stroke="black" points="233,-0.5 233,-30.5 377,-30.5 377,-0.5 233,-0.5"/>
<text text-anchor="start" x="241" y="-18.5" font-family="Helvetica,sans-Serif" font-size="10.00">services::SpiMultipleAccess</text>
<text text-anchor="middle" x="305" y="-7.5" font-family="Helvetica,sans-Serif" font-size="10.00">::SendAndReceiveOnClaimed</text>
</a>
</g>
</g>
<!-- Node4&#45;&gt;Node5 -->
<g id="edge1" class="edge"><title>Node4&#45;&gt;Node5</title>
<path fill="none" stroke="midnightblue" d="M207.4,-15.5C216.032,-15.5 224.609,-15.5 232.886,-15.5"/>
<polygon fill="midnightblue" stroke="midnightblue" points="207.258,-12.0001 197.258,-15.5 207.258,-19.0001 207.258,-12.0001"/>
</g>
<!-- Node6 -->
<g id="node3" class="node"><title>Node6</title>
<g id="a_node3"><a xlink:href="../../d9/d2d/classservices_1_1_spi_multiple_access.html#a88befdf785d01e504a686609a242f7b5" target="_top" xlink:title="services::SpiMultipleAccess\l::SendAndReceive">
<polygon fill="white" stroke="black" points="413,-0.5 413,-30.5 552,-30.5 552,-0.5 413,-0.5"/>
<text text-anchor="start" x="421" y="-18.5" font-family="Helvetica,sans-Serif" font-size="10.00">services::SpiMultipleAccess</text>
<text text-anchor="middle" x="482.5" y="-7.5" font-family="Helvetica,sans-Serif" font-size="10.00">::SendAndReceive</text>
</a>
</g>
</g>
<!-- Node5&#45;&gt;Node6 -->
<g id="edge2" class="edge"><title>Node5&#45;&gt;Node6</title>
<path fill="none" stroke="midnightblue" d="M387.149,-15.5C395.735,-15.5 404.405,-15.5 412.828,-15.5"/>
<polygon fill="midnightblue" stroke="midnightblue" points="387.13,-12.0001 377.13,-15.5 387.13,-19.0001 387.13,-12.0001"/>
</g>
</g>
</svg>
