<?xml version="1.0" encoding="UTF-8" standalone="no"?>
<!DOCTYPE svg PUBLIC "-//W3C//DTD SVG 1.1//EN"
 "http://www.w3.org/Graphics/SVG/1.1/DTD/svg11.dtd">
<!-- Generated by graphviz version 2.38.0 (20140413.2041)
 -->
<!-- Title: services::SpiMultipleAccessMaster::SetCommunicationConfigurator Pages: 1 -->
<svg width="550pt" height="39pt"
 viewBox="0.00 0.00 550.00 39.00" xmlns="http://www.w3.org/2000/svg" xmlns:xlink="http://www.w3.org/1999/xlink">
<g id="graph0" class="graph" transform="scale(1 1) rotate(0) translate(4 35)">
<title>services::SpiMultipleAccessMaster::SetCommunicationConfigurator</title>
<polygon fill="white" stroke="none" points="-4,4 -4,-35 546,-35 546,4 -4,4"/>
<!-- Node19 -->
<g id="node1" class="node"><title>Node19</title>
<polygon fill="#bfbfbf" stroke="black" points="0,-0.5 0,-30.5 187,-30.5 187,-0.5 0,-0.5"/>
<text text-anchor="start" x="8" y="-18.5" font-family="Helvetica,sans-Serif" font-size="10.00">services::SpiMultipleAccess</text>
<text text-anchor="middle" x="93.5" y="-7.5" font-family="Helvetica,sans-Serif" font-size="10.00">Master::SetCommunicationConfigurator</text>
</g>
<!-- Node20 -->
<g id="node2" class="node"><title>Node20</title>
<g id="a_node2"><a xlink:href="../../d9/d2d/classservices_1_1_spi_multiple_access.html#a3395b2a1dcc5d0cd7ff24f30011f800e" target="_top" xlink:title="services::SpiMultipleAccess\l::SendAndReceiveOnClaimed">
<polygon fill="white" stroke="black" points="223,-0.5 223,-30.5 367,-30.5 367,-0.5 223,-0.5"/>
<text text-anchor="start" x="231" y="-18.5" font-family="Helvetica,sans-Serif" font-size="10.00">services::SpiMultipleAccess</text>
<text text-anchor="middle" x="295" y="-7.5" font-family="Helvetica,sans-Serif" font-size="10.00">::SendAndReceiveOnClaimed</text>
</a>
</g>
</g>
<!-- Node19&#45;&gt;Node20 -->
<g id="edge1" class="edge"><title>Node19&#45;&gt;Node20</title>
<path fill="none" stroke="midnightblue" d="M197.389,-15.5C206.034,-15.5 214.648,-15.5 222.97,-15.5"/>
<polygon fill="midnightblue" stroke="midnightblue" points="197.241,-12.0001 187.241,-15.5 197.241,-19.0001 197.241,-12.0001"/>
</g>
<!-- Node21 -->
<g id="node3" class="node"><title>Node21</title>
<g id="a_node3"><a xlink:href="../../d9/d2d/classservices_1_1_spi_multiple_access.html#a88befdf785d01e504a686609a242f7b5" target="_top" xlink:title="services::SpiMultipleAccess\l::SendAndReceive">
<polygon fill="white" stroke="black" points="403,-0.5 403,-30.5 542,-30.5 542,-0.5 403,-0.5"/>
<text text-anchor="start" x="411" y="-18.5" font-family="Helvetica,sans-Serif" font-size="10.00">services::SpiMultipleAccess</text>
<text text-anchor="middle" x="472.5" y="-7.5" font-family="Helvetica,sans-Serif" font-size="10.00">::SendAndReceive</text>
</a>
</g>
</g>
<!-- Node20&#45;&gt;Node21 -->
<g id="edge2" class="edge"><title>Node20&#45;&gt;Node21</title>
<path fill="none" stroke="midnightblue" d="M377.149,-15.5C385.735,-15.5 394.405,-15.5 402.828,-15.5"/>
<polygon fill="midnightblue" stroke="midnightblue" points="377.13,-12.0001 367.13,-15.5 377.13,-19.0001 377.13,-12.0001"/>
</g>
</g>
</svg>
