<?xml version="1.0" encoding="UTF-8" standalone="no"?>
<!DOCTYPE svg PUBLIC "-//W3C//DTD SVG 1.1//EN"
 "http://www.w3.org/Graphics/SVG/1.1/DTD/svg11.dtd">
<!-- Generated by graphviz version 2.38.0 (20140413.2041)
 -->
<!-- Title: services::HttpResponse::Status Pages: 1 -->
<svg width="1607pt" height="127pt"
 viewBox="0.00 0.00 1607.00 127.00" xmlns="http://www.w3.org/2000/svg" xmlns:xlink="http://www.w3.org/1999/xlink">
<g id="graph0" class="graph" transform="scale(1 1) rotate(0) translate(4 123)">
<title>services::HttpResponse::Status</title>
<polygon fill="white" stroke="none" points="-4,4 -4,-123 1603,-123 1603,4 -4,4"/>
<!-- Node31 -->
<g id="node1" class="node"><title>Node31</title>
<polygon fill="#bfbfbf" stroke="black" points="0,-44.5 0,-74.5 119,-74.5 119,-44.5 0,-44.5"/>
<text text-anchor="start" x="8" y="-62.5" font-family="Helvetica,sans-Serif" font-size="10.00">services::HttpResponse</text>
<text text-anchor="middle" x="59.5" y="-51.5" font-family="Helvetica,sans-Serif" font-size="10.00">::Status</text>
</g>
<!-- Node32 -->
<g id="node2" class="node"><title>Node32</title>
<g id="a_node2"><a xlink:href="../../d9/dce/classservices_1_1_http_response.html#a2bdfd05b582453e0ba050dfa18009be7" target="_top" xlink:title="services::HttpResponse\l::WriteResponse">
<polygon fill="white" stroke="black" points="155,-44.5 155,-74.5 274,-74.5 274,-44.5 155,-44.5"/>
<text text-anchor="start" x="163" y="-62.5" font-family="Helvetica,sans-Serif" font-size="10.00">services::HttpResponse</text>
<text text-anchor="middle" x="214.5" y="-51.5" font-family="Helvetica,sans-Serif" font-size="10.00">::WriteResponse</text>
</a>
</g>
</g>
<!-- Node31&#45;&gt;Node32 -->
<g id="edge1" class="edge"><title>Node31&#45;&gt;Node32</title>
<path fill="none" stroke="midnightblue" d="M129.493,-59.5C137.993,-59.5 146.617,-59.5 154.941,-59.5"/>
<polygon fill="midnightblue" stroke="midnightblue" points="129.216,-56.0001 119.216,-59.5 129.216,-63.0001 129.216,-56.0001"/>
</g>
<!-- Node33 -->
<g id="node3" class="node"><title>Node33</title>
<g id="a_node3"><a xlink:href="../../d2/db3/classservices_1_1_http_server_connection_observer.html#a48786ed298c958e0c90a861ab09f01b2" target="_top" xlink:title="services::HttpServerConnection\lObserver::SendResponse">
<polygon fill="white" stroke="black" points="310,-44.5 310,-74.5 462,-74.5 462,-44.5 310,-44.5"/>
<text text-anchor="start" x="318" y="-62.5" font-family="Helvetica,sans-Serif" font-size="10.00">services::HttpServerConnection</text>
<text text-anchor="middle" x="386" y="-51.5" font-family="Helvetica,sans-Serif" font-size="10.00">Observer::SendResponse</text>
</a>
</g>
</g>
<!-- Node32&#45;&gt;Node33 -->
<g id="edge2" class="edge"><title>Node32&#45;&gt;Node33</title>
<path fill="none" stroke="midnightblue" d="M284.41,-59.5C292.799,-59.5 301.403,-59.5 309.876,-59.5"/>
<polygon fill="midnightblue" stroke="midnightblue" points="284.307,-56.0001 274.307,-59.5 284.307,-63.0001 284.307,-56.0001"/>
</g>
<!-- Node34 -->
<g id="node4" class="node"><title>Node34</title>
<g id="a_node4"><a xlink:href="../../d2/db3/classservices_1_1_http_server_connection_observer.html#afd24d585e0b90fc44643244b0712f92f" target="_top" xlink:title="services::HttpServerConnection\lObserver::ReceivedTooMuchData">
<polygon fill="white" stroke="black" points="686,-88.5 686,-118.5 846,-118.5 846,-88.5 686,-88.5"/>
<text text-anchor="start" x="694" y="-106.5" font-family="Helvetica,sans-Serif" font-size="10.00">services::HttpServerConnection</text>
<text text-anchor="middle" x="766" y="-95.5" font-family="Helvetica,sans-Serif" font-size="10.00">Observer::ReceivedTooMuchData</text>
</a>
</g>
</g>
<!-- Node33&#45;&gt;Node34 -->
<g id="edge3" class="edge"><title>Node33&#45;&gt;Node34</title>
<path fill="none" stroke="midnightblue" d="M472.358,-70.3847C481.017,-71.4533 489.683,-72.5082 498,-73.5 561.108,-81.0248 632.672,-89.0378 685.815,-94.8877"/>
<polygon fill="midnightblue" stroke="midnightblue" points="472.571,-66.8844 462.216,-69.1269 471.709,-73.8311 472.571,-66.8844"/>
</g>
<!-- Node37 -->
<g id="node7" class="node"><title>Node37</title>
<g id="a_node7"><a xlink:href="../../d2/db3/classservices_1_1_http_server_connection_observer.html#a54d34389a1f80059a349bfb5b5f273dc" target="_top" xlink:title="services::HttpServerConnection\lObserver::TryHandleRequest">
<polygon fill="white" stroke="black" points="882,-44.5 882,-74.5 1034,-74.5 1034,-44.5 882,-44.5"/>
<text text-anchor="start" x="890" y="-62.5" font-family="Helvetica,sans-Serif" font-size="10.00">services::HttpServerConnection</text>
<text text-anchor="middle" x="958" y="-51.5" font-family="Helvetica,sans-Serif" font-size="10.00">Observer::TryHandleRequest</text>
</a>
</g>
</g>
<!-- Node33&#45;&gt;Node37 -->
<g id="edge6" class="edge"><title>Node33&#45;&gt;Node37</title>
<path fill="none" stroke="midnightblue" d="M472.263,-59.5C583.337,-59.5 775.811,-59.5 881.73,-59.5"/>
<polygon fill="midnightblue" stroke="midnightblue" points="472.104,-56.0001 462.104,-59.5 472.104,-63.0001 472.104,-56.0001"/>
</g>
<!-- Node39 -->
<g id="node9" class="node"><title>Node39</title>
<g id="a_node9"><a xlink:href="../../d2/db3/classservices_1_1_http_server_connection_observer.html#a9d0c9926c69222f44621afb71304247d" target="_top" xlink:title="services::HttpServerConnection\lObserver::ServePage">
<polygon fill="white" stroke="black" points="498,-0.5 498,-30.5 650,-30.5 650,-0.5 498,-0.5"/>
<text text-anchor="start" x="506" y="-18.5" font-family="Helvetica,sans-Serif" font-size="10.00">services::HttpServerConnection</text>
<text text-anchor="middle" x="574" y="-7.5" font-family="Helvetica,sans-Serif" font-size="10.00">Observer::ServePage</text>
</a>
</g>
</g>
<!-- Node33&#45;&gt;Node39 -->
<g id="edge9" class="edge"><title>Node33&#45;&gt;Node39</title>
<path fill="none" stroke="midnightblue" d="M460.457,-42.1231C476.666,-38.2888 493.704,-34.2582 509.48,-30.5262"/>
<polygon fill="midnightblue" stroke="midnightblue" points="459.416,-38.7726 450.49,-44.4808 461.028,-45.5846 459.416,-38.7726"/>
</g>
<!-- Node35 -->
<g id="node5" class="node"><title>Node35</title>
<g id="a_node5"><a xlink:href="../../d2/db3/classservices_1_1_http_server_connection_observer.html#a3c5cabea13da6e140280b1b8c77244b3" target="_top" xlink:title="services::HttpServerConnection\lObserver::DataReceived">
<polygon fill="white" stroke="black" points="1258,-66.5 1258,-96.5 1410,-96.5 1410,-66.5 1258,-66.5"/>
<text text-anchor="start" x="1266" y="-84.5" font-family="Helvetica,sans-Serif" font-size="10.00">services::HttpServerConnection</text>
<text text-anchor="middle" x="1334" y="-73.5" font-family="Helvetica,sans-Serif" font-size="10.00">Observer::DataReceived</text>
</a>
</g>
</g>
<!-- Node34&#45;&gt;Node35 -->
<g id="edge4" class="edge"><title>Node34&#45;&gt;Node35</title>
<path fill="none" stroke="midnightblue" d="M856.447,-100.023C967.264,-95.7159 1154.1,-88.4538 1257.85,-84.421"/>
<polygon fill="midnightblue" stroke="midnightblue" points="856.152,-96.532 846.296,-100.418 856.424,-103.527 856.152,-96.532"/>
</g>
<!-- Node36 -->
<g id="node6" class="node"><title>Node36</title>
<g id="a_node6"><a xlink:href="../../d2/db3/classservices_1_1_http_server_connection_observer.html#a579fc75f469c5b79141187fc04dbf74c" target="_top" xlink:title="services::HttpServerConnection\lObserver::SendStreamAvailable">
<polygon fill="white" stroke="black" points="1446,-66.5 1446,-96.5 1599,-96.5 1599,-66.5 1446,-66.5"/>
<text text-anchor="start" x="1454" y="-84.5" font-family="Helvetica,sans-Serif" font-size="10.00">services::HttpServerConnection</text>
<text text-anchor="middle" x="1522.5" y="-73.5" font-family="Helvetica,sans-Serif" font-size="10.00">Observer::SendStreamAvailable</text>
</a>
</g>
</g>
<!-- Node35&#45;&gt;Node36 -->
<g id="edge5" class="edge"><title>Node35&#45;&gt;Node36</title>
<path fill="none" stroke="midnightblue" d="M1420.12,-81.5C1428.75,-81.5 1437.48,-81.5 1446,-81.5"/>
<polygon fill="midnightblue" stroke="midnightblue" points="1420.05,-78.0001 1410.05,-81.5 1420.05,-85.0001 1420.05,-78.0001"/>
</g>
<!-- Node38 -->
<g id="node8" class="node"><title>Node38</title>
<g id="a_node8"><a xlink:href="../../d2/db3/classservices_1_1_http_server_connection_observer.html#a6213f7b12f5fb1c0ddbabdb859ddca0a" target="_top" xlink:title="services::HttpServerConnection\lObserver::ReceivedRequest">
<polygon fill="white" stroke="black" points="1070,-44.5 1070,-74.5 1222,-74.5 1222,-44.5 1070,-44.5"/>
<text text-anchor="start" x="1078" y="-62.5" font-family="Helvetica,sans-Serif" font-size="10.00">services::HttpServerConnection</text>
<text text-anchor="middle" x="1146" y="-51.5" font-family="Helvetica,sans-Serif" font-size="10.00">Observer::ReceivedRequest</text>
</a>
</g>
</g>
<!-- Node37&#45;&gt;Node38 -->
<g id="edge7" class="edge"><title>Node37&#45;&gt;Node38</title>
<path fill="none" stroke="midnightblue" d="M1044.15,-59.5C1052.74,-59.5 1061.43,-59.5 1069.9,-59.5"/>
<polygon fill="midnightblue" stroke="midnightblue" points="1044.12,-56.0001 1034.12,-59.5 1044.12,-63.0001 1044.12,-56.0001"/>
</g>
<!-- Node38&#45;&gt;Node35 -->
<g id="edge8" class="edge"><title>Node38&#45;&gt;Node35</title>
<path fill="none" stroke="midnightblue" d="M1232.15,-69.5712C1240.74,-70.5877 1249.43,-71.615 1257.9,-72.6178"/>
<polygon fill="midnightblue" stroke="midnightblue" points="1232.46,-66.0838 1222.12,-68.3848 1231.64,-73.0353 1232.46,-66.0838"/>
</g>
<!-- Node40 -->
<g id="node10" class="node"><title>Node40</title>
<g id="a_node10"><a xlink:href="../../d2/db3/classservices_1_1_http_server_connection_observer.html#a52e5c280fabbed909272946c730d6aff" target="_top" xlink:title="services::HttpServerConnection\lObserver::HandleRequest">
<polygon fill="white" stroke="black" points="690,-0.5 690,-30.5 842,-30.5 842,-0.5 690,-0.5"/>
<text text-anchor="start" x="698" y="-18.5" font-family="Helvetica,sans-Serif" font-size="10.00">services::HttpServerConnection</text>
<text text-anchor="middle" x="766" y="-7.5" font-family="Helvetica,sans-Serif" font-size="10.00">Observer::HandleRequest</text>
</a>
</g>
</g>
<!-- Node39&#45;&gt;Node40 -->
<g id="edge10" class="edge"><title>Node39&#45;&gt;Node40</title>
<path fill="none" stroke="midnightblue" d="M660.289,-15.5C670.138,-15.5 680.129,-15.5 689.83,-15.5"/>
<polygon fill="midnightblue" stroke="midnightblue" points="660.093,-12.0001 650.093,-15.5 660.093,-19.0001 660.093,-12.0001"/>
</g>
<!-- Node40&#45;&gt;Node37 -->
<g id="edge11" class="edge"><title>Node40&#45;&gt;Node37</title>
<path fill="none" stroke="midnightblue" d="M842.037,-32.8769C858.594,-36.7112 875.999,-40.7418 892.114,-44.4738"/>
<polygon fill="midnightblue" stroke="midnightblue" points="842.388,-29.3656 831.856,-30.5192 840.808,-36.1852 842.388,-29.3656"/>
</g>
</g>
</svg>
