<?xml version="1.0" encoding="UTF-8" standalone="no"?>
<!DOCTYPE svg PUBLIC "-//W3C//DTD SVG 1.1//EN"
 "http://www.w3.org/Graphics/SVG/1.1/DTD/svg11.dtd">
<!-- Generated by graphviz version 2.38.0 (20140413.2041)
 -->
<!-- Title: services::HttpResponse::WriteBody Pages: 1 -->
<!--zoomable 127 -->
<svg id="main" version="1.1" xmlns="http://www.w3.org/2000/svg" xmlns:xlink="http://www.w3.org/1999/xlink" xml:space="preserve" onload="init(evt)">
<style type="text/css"><![CDATA[
.edge:hover path { stroke: red; }
.edge:hover polygon { stroke: red; fill: red; }
]]></style>
<script type="text/javascript"><![CDATA[
var edges = document.getElementsByTagName('g');
if (edges && edges.length) {
  for (var i=0;i<edges.length;i++) {
    if (edges[i].id.substr(0,4)=='edge') {
      edges[i].setAttribute('class','edge');
    }
  }
}
]]></script>
        <defs>
                <circle id="rim" cx="0" cy="0" r="7"/>
                <circle id="rim2" cx="0" cy="0" r="3.5"/>
                <g id="zoomPlus">
                        <use xlink:href="#rim" fill="#404040">
                                <set attributeName="fill" to="#808080" begin="zoomplus.mouseover" end="zoomplus.mouseout"/>
                        </use>
                        <path d="M-4,0h8M0,-4v8" fill="none" stroke="white" stroke-width="1.5" pointer-events="none"/>
                </g>
                <g id="zoomMin">
                        <use xlink:href="#rim" fill="#404040">
                                <set attributeName="fill" to="#808080" begin="zoomminus.mouseover" end="zoomminus.mouseout"/>
                        </use>
                        <path d="M-4,0h8" fill="none" stroke="white" stroke-width="1.5" pointer-events="none"/>
                </g>
                <g id="dirArrow">
                        <path fill="none" stroke="white" stroke-width="1.5" d="M0,-3.0v7 M-2.5,-0.5L0,-3.0L2.5,-0.5"/>
                </g>
               <g id="resetDef">
                       <use xlink:href="#rim2" fill="#404040">
                               <set attributeName="fill" to="#808080" begin="reset.mouseover" end="reset.mouseout"/>
                       </use>
               </g>
        </defs>

<script type="text/javascript">
var viewWidth = 1607;
var viewHeight = 127;
var sectionId = 'dynsection-5';
</script>
<script xlink:href="../../svgpan.js"/>
<svg id="graph" class="graph">
<g id="viewport">
<title>services::HttpResponse::WriteBody</title>
<polygon fill="white" stroke="none" points="-4,4 -4,-123 1603,-123 1603,4 -4,4"/>
<!-- Node42 -->
<g id="node1" class="node"><title>Node42</title>
<polygon fill="#bfbfbf" stroke="black" points="0,-44.5 0,-74.5 119,-74.5 119,-44.5 0,-44.5"/>
<text text-anchor="start" x="8" y="-62.5" font-family="Helvetica,sans-Serif" font-size="10.00">services::HttpResponse</text>
<text text-anchor="middle" x="59.5" y="-51.5" font-family="Helvetica,sans-Serif" font-size="10.00">::WriteBody</text>
</g>
<!-- Node43 -->
<g id="node2" class="node"><title>Node43</title>
<g id="a_node2"><a xlink:href="../../d9/dce/classservices_1_1_http_response.html#a2bdfd05b582453e0ba050dfa18009be7" target="_top" xlink:title="services::HttpResponse\l::WriteResponse">
<polygon fill="white" stroke="black" points="155,-44.5 155,-74.5 274,-74.5 274,-44.5 155,-44.5"/>
<text text-anchor="start" x="163" y="-62.5" font-family="Helvetica,sans-Serif" font-size="10.00">services::HttpResponse</text>
<text text-anchor="middle" x="214.5" y="-51.5" font-family="Helvetica,sans-Serif" font-size="10.00">::WriteResponse</text>
</a>
</g>
</g>
<!-- Node42&#45;&gt;Node43 -->
<g id="edge1" class="edge"><title>Node42&#45;&gt;Node43</title>
<path fill="none" stroke="midnightblue" d="M129.493,-59.5C137.993,-59.5 146.617,-59.5 154.941,-59.5"/>
<polygon fill="midnightblue" stroke="midnightblue" points="129.216,-56.0001 119.216,-59.5 129.216,-63.0001 129.216,-56.0001"/>
</g>
<!-- Node44 -->
<g id="node3" class="node"><title>Node44</title>
<g id="a_node3"><a xlink:href="../../d2/db3/classservices_1_1_http_server_connection_observer.html#a48786ed298c958e0c90a861ab09f01b2" target="_top" xlink:title="services::HttpServerConnection\lObserver::SendResponse">
<polygon fill="white" stroke="black" points="310,-44.5 310,-74.5 462,-74.5 462,-44.5 310,-44.5"/>
<text text-anchor="start" x="318" y="-62.5" font-family="Helvetica,sans-Serif" font-size="10.00">services::HttpServerConnection</text>
<text text-anchor="middle" x="386" y="-51.5" font-family="Helvetica,sans-Serif" font-size="10.00">Observer::SendResponse</text>
</a>
</g>
</g>
<!-- Node43&#45;&gt;Node44 -->
<g id="edge2" class="edge"><title>Node43&#45;&gt;Node44</title>
<path fill="none" stroke="midnightblue" d="M284.41,-59.5C292.799,-59.5 301.403,-59.5 309.876,-59.5"/>
<polygon fill="midnightblue" stroke="midnightblue" points="284.307,-56.0001 274.307,-59.5 284.307,-63.0001 284.307,-56.0001"/>
</g>
<!-- Node45 -->
<g id="node4" class="node"><title>Node45</title>
<g id="a_node4"><a xlink:href="../../d2/db3/classservices_1_1_http_server_connection_observer.html#afd24d585e0b90fc44643244b0712f92f" target="_top" xlink:title="services::HttpServerConnection\lObserver::ReceivedTooMuchData">
<polygon fill="white" stroke="black" points="686,-88.5 686,-118.5 846,-118.5 846,-88.5 686,-88.5"/>
<text text-anchor="start" x="694" y="-106.5" font-family="Helvetica,sans-Serif" font-size="10.00">services::HttpServerConnection</text>
<text text-anchor="middle" x="766" y="-95.5" font-family="Helvetica,sans-Serif" font-size="10.00">Observer::ReceivedTooMuchData</text>
</a>
</g>
</g>
<!-- Node44&#45;&gt;Node45 -->
<g id="edge3" class="edge"><title>Node44&#45;&gt;Node45</title>
<path fill="none" stroke="midnightblue" d="M472.358,-70.3847C481.017,-71.4533 489.683,-72.5082 498,-73.5 561.108,-81.0248 632.672,-89.0378 685.815,-94.8877"/>
<polygon fill="midnightblue" stroke="midnightblue" points="472.571,-66.8844 462.216,-69.1269 471.709,-73.8311 472.571,-66.8844"/>
</g>
<!-- Node48 -->
<g id="node7" class="node"><title>Node48</title>
<g id="a_node7"><a xlink:href="../../d2/db3/classservices_1_1_http_server_connection_observer.html#a54d34389a1f80059a349bfb5b5f273dc" target="_top" xlink:title="services::HttpServerConnection\lObserver::TryHandleRequest">
<polygon fill="white" stroke="black" points="882,-44.5 882,-74.5 1034,-74.5 1034,-44.5 882,-44.5"/>
<text text-anchor="start" x="890" y="-62.5" font-family="Helvetica,sans-Serif" font-size="10.00">services::HttpServerConnection</text>
<text text-anchor="middle" x="958" y="-51.5" font-family="Helvetica,sans-Serif" font-size="10.00">Observer::TryHandleRequest</text>
</a>
</g>
</g>
<!-- Node44&#45;&gt;Node48 -->
<g id="edge6" class="edge"><title>Node44&#45;&gt;Node48</title>
<path fill="none" stroke="midnightblue" d="M472.263,-59.5C583.337,-59.5 775.811,-59.5 881.73,-59.5"/>
<polygon fill="midnightblue" stroke="midnightblue" points="472.104,-56.0001 462.104,-59.5 472.104,-63.0001 472.104,-56.0001"/>
</g>
<!-- Node50 -->
<g id="node9" class="node"><title>Node50</title>
<g id="a_node9"><a xlink:href="../../d2/db3/classservices_1_1_http_server_connection_observer.html#a9d0c9926c69222f44621afb71304247d" target="_top" xlink:title="services::HttpServerConnection\lObserver::ServePage">
<polygon fill="white" stroke="black" points="498,-0.5 498,-30.5 650,-30.5 650,-0.5 498,-0.5"/>
<text text-anchor="start" x="506" y="-18.5" font-family="Helvetica,sans-Serif" font-size="10.00">services::HttpServerConnection</text>
<text text-anchor="middle" x="574" y="-7.5" font-family="Helvetica,sans-Serif" font-size="10.00">Observer::ServePage</text>
</a>
</g>
</g>
<!-- Node44&#45;&gt;Node50 -->
<g id="edge9" class="edge"><title>Node44&#45;&gt;Node50</title>
<path fill="none" stroke="midnightblue" d="M460.457,-42.1231C476.666,-38.2888 493.704,-34.2582 509.48,-30.5262"/>
<polygon fill="midnightblue" stroke="midnightblue" points="459.416,-38.7726 450.49,-44.4808 461.028,-45.5846 459.416,-38.7726"/>
</g>
<!-- Node46 -->
<g id="node5" class="node"><title>Node46</title>
<g id="a_node5"><a xlink:href="../../d2/db3/classservices_1_1_http_server_connection_observer.html#a3c5cabea13da6e140280b1b8c77244b3" target="_top" xlink:title="services::HttpServerConnection\lObserver::DataReceived">
<polygon fill="white" stroke="black" points="1258,-66.5 1258,-96.5 1410,-96.5 1410,-66.5 1258,-66.5"/>
<text text-anchor="start" x="1266" y="-84.5" font-family="Helvetica,sans-Serif" font-size="10.00">services::HttpServerConnection</text>
<text text-anchor="middle" x="1334" y="-73.5" font-family="Helvetica,sans-Serif" font-size="10.00">Observer::DataReceived</text>
</a>
</g>
</g>
<!-- Node45&#45;&gt;Node46 -->
<g id="edge4" class="edge"><title>Node45&#45;&gt;Node46</title>
<path fill="none" stroke="midnightblue" d="M856.447,-100.023C967.264,-95.7159 1154.1,-88.4538 1257.85,-84.421"/>
<polygon fill="midnightblue" stroke="midnightblue" points="856.152,-96.532 846.296,-100.418 856.424,-103.527 856.152,-96.532"/>
</g>
<!-- Node47 -->
<g id="node6" class="node"><title>Node47</title>
<g id="a_node6"><a xlink:href="../../d2/db3/classservices_1_1_http_server_connection_observer.html#a579fc75f469c5b79141187fc04dbf74c" target="_top" xlink:title="services::HttpServerConnection\lObserver::SendStreamAvailable">
<polygon fill="white" stroke="black" points="1446,-66.5 1446,-96.5 1599,-96.5 1599,-66.5 1446,-66.5"/>
<text text-anchor="start" x="1454" y="-84.5" font-family="Helvetica,sans-Serif" font-size="10.00">services::HttpServerConnection</text>
<text text-anchor="middle" x="1522.5" y="-73.5" font-family="Helvetica,sans-Serif" font-size="10.00">Observer::SendStreamAvailable</text>
</a>
</g>
</g>
<!-- Node46&#45;&gt;Node47 -->
<g id="edge5" class="edge"><title>Node46&#45;&gt;Node47</title>
<path fill="none" stroke="midnightblue" d="M1420.12,-81.5C1428.75,-81.5 1437.48,-81.5 1446,-81.5"/>
<polygon fill="midnightblue" stroke="midnightblue" points="1420.05,-78.0001 1410.05,-81.5 1420.05,-85.0001 1420.05,-78.0001"/>
</g>
<!-- Node49 -->
<g id="node8" class="node"><title>Node49</title>
<g id="a_node8"><a xlink:href="../../d2/db3/classservices_1_1_http_server_connection_observer.html#a6213f7b12f5fb1c0ddbabdb859ddca0a" target="_top" xlink:title="services::HttpServerConnection\lObserver::ReceivedRequest">
<polygon fill="white" stroke="black" points="1070,-44.5 1070,-74.5 1222,-74.5 1222,-44.5 1070,-44.5"/>
<text text-anchor="start" x="1078" y="-62.5" font-family="Helvetica,sans-Serif" font-size="10.00">services::HttpServerConnection</text>
<text text-anchor="middle" x="1146" y="-51.5" font-family="Helvetica,sans-Serif" font-size="10.00">Observer::ReceivedRequest</text>
</a>
</g>
</g>
<!-- Node48&#45;&gt;Node49 -->
<g id="edge7" class="edge"><title>Node48&#45;&gt;Node49</title>
<path fill="none" stroke="midnightblue" d="M1044.15,-59.5C1052.74,-59.5 1061.43,-59.5 1069.9,-59.5"/>
<polygon fill="midnightblue" stroke="midnightblue" points="1044.12,-56.0001 1034.12,-59.5 1044.12,-63.0001 1044.12,-56.0001"/>
</g>
<!-- Node49&#45;&gt;Node46 -->
<g id="edge8" class="edge"><title>Node49&#45;&gt;Node46</title>
<path fill="none" stroke="midnightblue" d="M1232.15,-69.5712C1240.74,-70.5877 1249.43,-71.615 1257.9,-72.6178"/>
<polygon fill="midnightblue" stroke="midnightblue" points="1232.46,-66.0838 1222.12,-68.3848 1231.64,-73.0353 1232.46,-66.0838"/>
</g>
<!-- Node51 -->
<g id="node10" class="node"><title>Node51</title>
<g id="a_node10"><a xlink:href="../../d2/db3/classservices_1_1_http_server_connection_observer.html#a52e5c280fabbed909272946c730d6aff" target="_top" xlink:title="services::HttpServerConnection\lObserver::HandleRequest">
<polygon fill="white" stroke="black" points="690,-0.5 690,-30.5 842,-30.5 842,-0.5 690,-0.5"/>
<text text-anchor="start" x="698" y="-18.5" font-family="Helvetica,sans-Serif" font-size="10.00">services::HttpServerConnection</text>
<text text-anchor="middle" x="766" y="-7.5" font-family="Helvetica,sans-Serif" font-size="10.00">Observer::HandleRequest</text>
</a>
</g>
</g>
<!-- Node50&#45;&gt;Node51 -->
<g id="edge10" class="edge"><title>Node50&#45;&gt;Node51</title>
<path fill="none" stroke="midnightblue" d="M660.289,-15.5C670.138,-15.5 680.129,-15.5 689.83,-15.5"/>
<polygon fill="midnightblue" stroke="midnightblue" points="660.093,-12.0001 650.093,-15.5 660.093,-19.0001 660.093,-12.0001"/>
</g>
<!-- Node51&#45;&gt;Node48 -->
<g id="edge11" class="edge"><title>Node51&#45;&gt;Node48</title>
<path fill="none" stroke="midnightblue" d="M842.037,-32.8769C858.594,-36.7112 875.999,-40.7418 892.114,-44.4738"/>
<polygon fill="midnightblue" stroke="midnightblue" points="842.388,-29.3656 831.856,-30.5192 840.808,-36.1852 842.388,-29.3656"/>
</g>
</g>
</svg>
        <g id="navigator" transform="translate(0 0)" fill="#404254">
                <rect fill="#f2f5e9" fill-opacity="0.5" stroke="#606060" stroke-width=".5" x="0" y="0" width="60" height="60"/>
                <use id="zoomplus" xlink:href="#zoomPlus" x="17" y="9" onmousedown="handleZoom(evt,'in')"/>
                <use id="zoomminus" xlink:href="#zoomMin" x="42" y="9" onmousedown="handleZoom(evt,'out')"/>
                <use id="reset" xlink:href="#resetDef" x="30" y="36" onmousedown="handleReset()"/>
                <g id="arrowUp" xlink:href="#dirArrow" transform="translate(30 24)" onmousedown="handlePan(0,-1)">
                  <use xlink:href="#rim" fill="#404040">
                        <set attributeName="fill" to="#808080" begin="arrowUp.mouseover" end="arrowUp.mouseout"/>
                  </use>
                  <path fill="none" stroke="white" stroke-width="1.5" d="M0,-3.0v7 M-2.5,-0.5L0,-3.0L2.5,-0.5"/>
                </g>
                <g id="arrowRight" xlink:href="#dirArrow" transform="rotate(90) translate(36 -43)" onmousedown="handlePan(1,0)">
                  <use xlink:href="#rim" fill="#404040">
                        <set attributeName="fill" to="#808080" begin="arrowRight.mouseover" end="arrowRight.mouseout"/>
                  </use>
                  <path fill="none" stroke="white" stroke-width="1.5" d="M0,-3.0v7 M-2.5,-0.5L0,-3.0L2.5,-0.5"/>
                </g>
                <g id="arrowDown" xlink:href="#dirArrow" transform="rotate(180) translate(-30 -48)" onmousedown="handlePan(0,1)">
                  <use xlink:href="#rim" fill="#404040">
                        <set attributeName="fill" to="#808080" begin="arrowDown.mouseover" end="arrowDown.mouseout"/>
                  </use>
                  <path fill="none" stroke="white" stroke-width="1.5" d="M0,-3.0v7 M-2.5,-0.5L0,-3.0L2.5,-0.5"/>
                </g>
                <g id="arrowLeft" xlink:href="#dirArrow" transform="rotate(270) translate(-36 17)" onmousedown="handlePan(-1,0)">
                  <use xlink:href="#rim" fill="#404040">
                        <set attributeName="fill" to="#808080" begin="arrowLeft.mouseover" end="arrowLeft.mouseout"/>
                  </use>
                  <path fill="none" stroke="white" stroke-width="1.5" d="M0,-3.0v7 M-2.5,-0.5L0,-3.0L2.5,-0.5"/>
                </g>
        </g>
        <svg viewBox="0 0 15 15" width="100%" height="30px" preserveAspectRatio="xMaxYMin meet">
         <g id="arrow_out" transform="scale(0.3 0.3)">
          <a xlink:href="classservices_1_1_http_response_a5f6fa1332ba1a8b3b7fa2f8e7d723601_icgraph_org.svg" target="_base">
           <rect id="button" ry="5" rx="5" y="6" x="6" height="38" width="38"
                fill="#f2f5e9" fill-opacity="0.5" stroke="#606060" stroke-width="1.0"/>
           <path id="arrow"
             d="M 11.500037,31.436501 C 11.940474,20.09759 22.043105,11.32322 32.158766,21.979434 L 37.068811,17.246167 C 37.068811,17.246167 37.088388,32 37.088388,32 L 22.160133,31.978069 C 22.160133,31.978069 26.997745,27.140456 26.997745,27.140456 C 18.528582,18.264221 13.291696,25.230495 11.500037,31.436501 z"
             style="fill:#404040;"/>
          </a>
         </g>
        </svg>
</svg>
