<?xml version="1.0" encoding="UTF-8" standalone="no"?>
<!DOCTYPE svg PUBLIC "-//W3C//DTD SVG 1.1//EN"
 "http://www.w3.org/Graphics/SVG/1.1/DTD/svg11.dtd">
<!-- Generated by graphviz version 2.38.0 (20140413.2041)
 -->
<!-- Title: infra::SavedMarkerStreamWriter Pages: 1 -->
<svg width="451pt" height="251pt"
 viewBox="0.00 0.00 450.50 251.00" xmlns="http://www.w3.org/2000/svg" xmlns:xlink="http://www.w3.org/1999/xlink">
<g id="graph0" class="graph" transform="scale(1 1) rotate(0) translate(4 247)">
<title>infra::SavedMarkerStreamWriter</title>
<polygon fill="white" stroke="none" points="-4,4 -4,-247 446.5,-247 446.5,4 -4,4"/>
<!-- Node3 -->
<g id="node1" class="node"><title>Node3</title>
<polygon fill="#bfbfbf" stroke="black" points="194,-0.5 194,-30.5 322,-30.5 322,-0.5 194,-0.5"/>
<text text-anchor="start" x="202" y="-18.5" font-family="Helvetica,sans-Serif" font-size="10.00">infra::SavedMarkerStream</text>
<text text-anchor="middle" x="258" y="-7.5" font-family="Helvetica,sans-Serif" font-size="10.00">Writer</text>
</g>
<!-- Node4 -->
<g id="node2" class="node"><title>Node4</title>
<g id="a_node2"><a xlink:href="../../df/d15/classinfra_1_1_byte_output_stream_writer.html" target="_top" xlink:title="infra::ByteOutputStreamWriter">
<polygon fill="white" stroke="black" points="244,-78.5 244,-97.5 392,-97.5 392,-78.5 244,-78.5"/>
<text text-anchor="middle" x="318" y="-85.5" font-family="Helvetica,sans-Serif" font-size="10.00">infra::ByteOutputStreamWriter</text>
</a>
</g>
</g>
<!-- Node4&#45;&gt;Node3 -->
<g id="edge1" class="edge"><title>Node4&#45;&gt;Node3</title>
<path fill="none" stroke="midnightblue" d="M303.866,-70.3927C293.56,-58.2828 279.746,-42.0514 269.98,-30.5762"/>
<polygon fill="midnightblue" stroke="midnightblue" points="301.496,-73.0083 310.643,-78.3553 306.827,-68.4715 301.496,-73.0083"/>
</g>
<!-- Node5 -->
<g id="node3" class="node"><title>Node5</title>
<g id="a_node3"><a xlink:href="../../de/dba/classinfra_1_1_stream_writer.html" target="_top" xlink:title="infra::StreamWriter">
<polygon fill="white" stroke="black" points="138,-145.5 138,-164.5 236,-164.5 236,-145.5 138,-145.5"/>
<text text-anchor="middle" x="187" y="-152.5" font-family="Helvetica,sans-Serif" font-size="10.00">infra::StreamWriter</text>
</a>
</g>
</g>
<!-- Node5&#45;&gt;Node4 -->
<g id="edge2" class="edge"><title>Node5&#45;&gt;Node4</title>
<path fill="none" stroke="midnightblue" d="M213.656,-140.774C239.602,-127.9 278.28,-108.709 300.532,-97.6672"/>
<polygon fill="midnightblue" stroke="midnightblue" points="211.798,-137.788 204.396,-145.369 214.909,-144.059 211.798,-137.788"/>
</g>
<!-- Node8 -->
<g id="node6" class="node"><title>Node8</title>
<g id="a_node6"><a xlink:href="../../d6/d97/classinfra_1_1_output_stream.html" target="_top" xlink:title="infra::OutputStream">
<polygon fill="white" stroke="black" points="124.5,-78.5 124.5,-97.5 225.5,-97.5 225.5,-78.5 124.5,-78.5"/>
<text text-anchor="middle" x="175" y="-85.5" font-family="Helvetica,sans-Serif" font-size="10.00">infra::OutputStream</text>
</a>
</g>
</g>
<!-- Node5&#45;&gt;Node8 -->
<g id="edge9" class="edge"><title>Node5&#45;&gt;Node8</title>
<path fill="none" stroke="#9a32cd" stroke-dasharray="5,2" d="M183.499,-135.037C181.216,-122.67 178.345,-107.12 176.593,-97.6273"/>
<polygon fill="#9a32cd" stroke="#9a32cd" points="180.124,-136.035 185.382,-145.234 187.008,-134.765 180.124,-136.035"/>
<text text-anchor="middle" x="195.5" y="-119" font-family="Helvetica,sans-Serif" font-size="10.00"> writer</text>
</g>
<!-- Node6 -->
<g id="node4" class="node"><title>Node6</title>
<polygon fill="white" stroke="#bfbfbf" points="399.5,-145.5 399.5,-164.5 442.5,-164.5 442.5,-145.5 399.5,-145.5"/>
<text text-anchor="middle" x="421" y="-152.5" font-family="Helvetica,sans-Serif" font-size="10.00">size_t</text>
</g>
<!-- Node6&#45;&gt;Node4 -->
<g id="edge3" class="edge"><title>Node6&#45;&gt;Node4</title>
<path fill="none" stroke="#9a32cd" stroke-dasharray="5,2" d="M407.232,-137.544C400.492,-130.24 391.918,-121.965 383,-116 371.421,-108.255 357.265,-102.054 345.123,-97.5571"/>
<polygon fill="#9a32cd" stroke="#9a32cd" points="404.978,-140.282 414.211,-145.478 410.234,-135.658 404.978,-140.282"/>
<text text-anchor="middle" x="409.5" y="-119" font-family="Helvetica,sans-Serif" font-size="10.00"> offset</text>
</g>
<!-- Node7 -->
<g id="node5" class="node"><title>Node7</title>
<polygon fill="white" stroke="#bfbfbf" points="254.5,-145.5 254.5,-164.5 381.5,-164.5 381.5,-145.5 254.5,-145.5"/>
<text text-anchor="middle" x="318" y="-152.5" font-family="Helvetica,sans-Serif" font-size="10.00">MemoryRange&lt; uint8_t &gt;</text>
</g>
<!-- Node7&#45;&gt;Node4 -->
<g id="edge4" class="edge"><title>Node7&#45;&gt;Node4</title>
<path fill="none" stroke="#9a32cd" stroke-dasharray="5,2" d="M318,-135.037C318,-122.67 318,-107.12 318,-97.6273"/>
<polygon fill="#9a32cd" stroke="#9a32cd" points="314.5,-135.234 318,-145.234 321.5,-135.234 314.5,-135.234"/>
<text text-anchor="middle" x="348.5" y="-119" font-family="Helvetica,sans-Serif" font-size="10.00"> streamRange</text>
</g>
<!-- Node8&#45;&gt;Node3 -->
<g id="edge5" class="edge"><title>Node8&#45;&gt;Node3</title>
<path fill="none" stroke="#9a32cd" stroke-dasharray="5,2" d="M192.913,-71.7844C207.316,-59.5506 227.394,-42.497 241.428,-30.5762"/>
<polygon fill="#9a32cd" stroke="#9a32cd" points="190.533,-69.2139 185.177,-78.3553 195.065,-74.5491 190.533,-69.2139"/>
<text text-anchor="middle" x="236" y="-52" font-family="Helvetica,sans-Serif" font-size="10.00"> stream</text>
</g>
<!-- Node9 -->
<g id="node7" class="node"><title>Node9</title>
<g id="a_node7"><a xlink:href="../../d5/d4a/classinfra_1_1_stream_error_policy.html" target="_top" xlink:title="infra::StreamErrorPolicy">
<polygon fill="white" stroke="black" points="0,-145.5 0,-164.5 120,-164.5 120,-145.5 0,-145.5"/>
<text text-anchor="middle" x="60" y="-152.5" font-family="Helvetica,sans-Serif" font-size="10.00">infra::StreamErrorPolicy</text>
</a>
</g>
</g>
<!-- Node9&#45;&gt;Node8 -->
<g id="edge6" class="edge"><title>Node9&#45;&gt;Node8</title>
<path fill="none" stroke="#9a32cd" stroke-dasharray="5,2" d="M84.2021,-140.246C96.9328,-133.018 112.804,-124.018 127,-116 137.823,-109.887 150.031,-103.02 159.428,-97.7411"/>
<polygon fill="#9a32cd" stroke="#9a32cd" points="82.1257,-137.4 75.1588,-145.382 85.5828,-143.487 82.1257,-137.4"/>
<text text-anchor="middle" x="152" y="-119" font-family="Helvetica,sans-Serif" font-size="10.00"> errorPolicy</text>
</g>
<!-- Node10 -->
<g id="node8" class="node"><title>Node10</title>
<polygon fill="white" stroke="#bfbfbf" points="3.5,-223.5 3.5,-242.5 38.5,-242.5 38.5,-223.5 3.5,-223.5"/>
<text text-anchor="middle" x="21" y="-230.5" font-family="Helvetica,sans-Serif" font-size="10.00">bool</text>
</g>
<!-- Node10&#45;&gt;Node9 -->
<g id="edge7" class="edge"><title>Node10&#45;&gt;Node9</title>
<path fill="none" stroke="#9a32cd" stroke-dasharray="5,2" d="M17.5482,-213.364C16.6886,-203.769 17.1372,-192.189 22,-183 26.1639,-175.132 33.7654,-169.04 41.0816,-164.651"/>
<polygon fill="#9a32cd" stroke="#9a32cd" points="14.109,-214.042 18.9721,-223.454 21.0403,-213.063 14.109,-214.042"/>
<text text-anchor="middle" x="50" y="-197" font-family="Helvetica,sans-Serif" font-size="10.00"> checkedFail</text>
<text text-anchor="middle" x="50" y="-186" font-family="Helvetica,sans-Serif" font-size="10.00">failed</text>
</g>
<!-- Node11 -->
<g id="node9" class="node"><title>Node11</title>
<polygon fill="white" stroke="#bfbfbf" points="65,-223.5 65,-242.5 135,-242.5 135,-223.5 65,-223.5"/>
<text text-anchor="middle" x="100" y="-230.5" font-family="Helvetica,sans-Serif" font-size="10.00">FailureMode</text>
</g>
<!-- Node11&#45;&gt;Node9 -->
<g id="edge8" class="edge"><title>Node11&#45;&gt;Node9</title>
<path fill="none" stroke="#9a32cd" stroke-dasharray="5,2" d="M92.7574,-213.977C88.7639,-204.564 83.5069,-192.962 78,-183 74.5112,-176.689 70.0112,-169.939 66.3834,-164.767"/>
<polygon fill="#9a32cd" stroke="#9a32cd" points="89.6252,-215.562 96.6752,-223.471 96.0959,-212.892 89.6252,-215.562"/>
<text text-anchor="middle" x="115.5" y="-191.5" font-family="Helvetica,sans-Serif" font-size="10.00"> failureMode</text>
</g>
</g>
</svg>
