<?xml version="1.0" encoding="UTF-8" standalone="no"?>
<!DOCTYPE svg PUBLIC "-//W3C//DTD SVG 1.1//EN"
 "http://www.w3.org/Graphics/SVG/1.1/DTD/svg11.dtd">
<!-- Generated by graphviz version 2.38.0 (20140413.2041)
 -->
<!-- Title: services::FlashQuadSpiMicronN25q::ReadBuffer Pages: 1 -->
<svg width="516pt" height="166pt"
 viewBox="0.00 0.00 516.00 165.50" xmlns="http://www.w3.org/2000/svg" xmlns:xlink="http://www.w3.org/1999/xlink">
<g id="graph0" class="graph" transform="scale(1 1) rotate(0) translate(4 161.5)">
<title>services::FlashQuadSpiMicronN25q::ReadBuffer</title>
<polygon fill="white" stroke="none" points="-4,4 -4,-161.5 512,-161.5 512,4 -4,4"/>
<!-- Node81 -->
<g id="node1" class="node"><title>Node81</title>
<polygon fill="#bfbfbf" stroke="black" points="0,-61 0,-91 149,-91 149,-61 0,-61"/>
<text text-anchor="start" x="8" y="-79" font-family="Helvetica,sans-Serif" font-size="10.00">services::FlashQuadSpiMicron</text>
<text text-anchor="middle" x="74.5" y="-68" font-family="Helvetica,sans-Serif" font-size="10.00">N25q::ReadBuffer</text>
</g>
<!-- Node82 -->
<g id="node2" class="node"><title>Node82</title>
<g id="a_node2"><a xlink:href="../../d0/db3/classservices_1_1_flash_quad_spi.html#afa24eb06baec2e2b6413ed10a567e876" target="_top" xlink:title="services::FlashQuadSpi\l::ConvertAddress">
<polygon fill="white" stroke="black" points="192,-127 192,-157 311,-157 311,-127 192,-127"/>
<text text-anchor="start" x="200" y="-145" font-family="Helvetica,sans-Serif" font-size="10.00">services::FlashQuadSpi</text>
<text text-anchor="middle" x="251.5" y="-134" font-family="Helvetica,sans-Serif" font-size="10.00">::ConvertAddress</text>
</a>
</g>
</g>
<!-- Node81&#45;&gt;Node82 -->
<g id="edge1" class="edge"><title>Node81&#45;&gt;Node82</title>
<path fill="none" stroke="midnightblue" d="M115.649,-91.1417C140.993,-100.7 173.921,-113.119 200.895,-123.292"/>
<polygon fill="midnightblue" stroke="midnightblue" points="199.946,-126.675 210.538,-126.929 202.417,-120.125 199.946,-126.675"/>
</g>
<!-- Node84 -->
<g id="node4" class="node"><title>Node84</title>
<g id="a_node4"><a xlink:href="../../d0/de3/namespaceinfra.html#a0ec8c0f8585063ab97f13228d4888974" target="_top" xlink:title="infra::MakeOptional">
<polygon fill="white" stroke="black" points="201,-88.5 201,-107.5 302,-107.5 302,-88.5 201,-88.5"/>
<text text-anchor="middle" x="251.5" y="-95.5" font-family="Helvetica,sans-Serif" font-size="10.00">infra::MakeOptional</text>
</a>
</g>
</g>
<!-- Node81&#45;&gt;Node84 -->
<g id="edge3" class="edge"><title>Node81&#45;&gt;Node84</title>
<path fill="none" stroke="midnightblue" d="M149.209,-85.2662C163.128,-87.0161 177.526,-88.8261 190.943,-90.5129"/>
<polygon fill="midnightblue" stroke="midnightblue" points="190.63,-94.001 200.989,-91.7758 191.504,-87.0557 190.63,-94.001"/>
</g>
<!-- Node85 -->
<g id="node5" class="node"><title>Node85</title>
<g id="a_node5"><a xlink:href="../../da/d1d/structhal_1_1_quad_spi_1_1_lines.html#a355cdd0f183ce81c385236c7d850df73" target="_top" xlink:title="hal::QuadSpi::Lines\l::QuadSpeed">
<polygon fill="white" stroke="black" points="200.5,-39 200.5,-69 302.5,-69 302.5,-39 200.5,-39"/>
<text text-anchor="start" x="208.5" y="-57" font-family="Helvetica,sans-Serif" font-size="10.00">hal::QuadSpi::Lines</text>
<text text-anchor="middle" x="251.5" y="-46" font-family="Helvetica,sans-Serif" font-size="10.00">::QuadSpeed</text>
</a>
</g>
</g>
<!-- Node81&#45;&gt;Node85 -->
<g id="edge4" class="edge"><title>Node81&#45;&gt;Node85</title>
<path fill="none" stroke="midnightblue" d="M149.209,-66.7338C162.979,-65.0026 177.218,-63.2126 190.512,-61.5413"/>
<polygon fill="midnightblue" stroke="midnightblue" points="190.987,-65.0093 200.472,-60.2892 190.113,-58.064 190.987,-65.0093"/>
</g>
<!-- Node86 -->
<g id="node6" class="node"><title>Node86</title>
<g id="a_node6"><a xlink:href="../../dd/df2/classhal_1_1_quad_spi.html#a07c583b84750ae9f6276c0d702fa6bcc" target="_top" xlink:title="hal::QuadSpi::ReceiveData">
<polygon fill="white" stroke="black" points="185,-0.5 185,-19.5 318,-19.5 318,-0.5 185,-0.5"/>
<text text-anchor="middle" x="251.5" y="-7.5" font-family="Helvetica,sans-Serif" font-size="10.00">hal::QuadSpi::ReceiveData</text>
</a>
</g>
</g>
<!-- Node81&#45;&gt;Node86 -->
<g id="edge5" class="edge"><title>Node81&#45;&gt;Node86</title>
<path fill="none" stroke="midnightblue" d="M109.183,-60.8065C130.663,-51.3788 159.211,-39.3271 185,-30 192.152,-27.4132 199.82,-24.8704 207.299,-22.5112"/>
<polygon fill="midnightblue" stroke="midnightblue" points="208.441,-25.8218 216.963,-19.5271 206.375,-19.1334 208.441,-25.8218"/>
</g>
<!-- Node83 -->
<g id="node3" class="node"><title>Node83</title>
<g id="a_node3"><a xlink:href="../../dd/df2/classhal_1_1_quad_spi.html#a962b4ce2b2f8ae4fb7b83324db78244c" target="_top" xlink:title="hal::QuadSpi::AddressToVector">
<polygon fill="white" stroke="black" points="354,-132.5 354,-151.5 508,-151.5 508,-132.5 354,-132.5"/>
<text text-anchor="middle" x="431" y="-139.5" font-family="Helvetica,sans-Serif" font-size="10.00">hal::QuadSpi::AddressToVector</text>
</a>
</g>
</g>
<!-- Node82&#45;&gt;Node83 -->
<g id="edge2" class="edge"><title>Node82&#45;&gt;Node83</title>
<path fill="none" stroke="midnightblue" d="M311.112,-142C321.549,-142 332.618,-142 343.637,-142"/>
<polygon fill="midnightblue" stroke="midnightblue" points="343.723,-145.5 353.723,-142 343.723,-138.5 343.723,-145.5"/>
</g>
</g>
</svg>
