<?xml version="1.0" encoding="UTF-8" standalone="no"?>
<!DOCTYPE svg PUBLIC "-//W3C//DTD SVG 1.1//EN"
 "http://www.w3.org/Graphics/SVG/1.1/DTD/svg11.dtd">
<!-- Generated by graphviz version 2.38.0 (20140413.2041)
 -->
<!-- Title: services::FlashQuadSpiMicronN25q::EraseSomeSectors Pages: 1 -->
<!--zoomable 313 -->
<svg id="main" version="1.1" xmlns="http://www.w3.org/2000/svg" xmlns:xlink="http://www.w3.org/1999/xlink" xml:space="preserve" onload="init(evt)">
<style type="text/css"><![CDATA[
.edge:hover path { stroke: red; }
.edge:hover polygon { stroke: red; fill: red; }
]]></style>
<script type="text/javascript"><![CDATA[
var edges = document.getElementsByTagName('g');
if (edges && edges.length) {
  for (var i=0;i<edges.length;i++) {
    if (edges[i].id.substr(0,4)=='edge') {
      edges[i].setAttribute('class','edge');
    }
  }
}
]]></script>
        <defs>
                <circle id="rim" cx="0" cy="0" r="7"/>
                <circle id="rim2" cx="0" cy="0" r="3.5"/>
                <g id="zoomPlus">
                        <use xlink:href="#rim" fill="#404040">
                                <set attributeName="fill" to="#808080" begin="zoomplus.mouseover" end="zoomplus.mouseout"/>
                        </use>
                        <path d="M-4,0h8M0,-4v8" fill="none" stroke="white" stroke-width="1.5" pointer-events="none"/>
                </g>
                <g id="zoomMin">
                        <use xlink:href="#rim" fill="#404040">
                                <set attributeName="fill" to="#808080" begin="zoomminus.mouseover" end="zoomminus.mouseout"/>
                        </use>
                        <path d="M-4,0h8" fill="none" stroke="white" stroke-width="1.5" pointer-events="none"/>
                </g>
                <g id="dirArrow">
                        <path fill="none" stroke="white" stroke-width="1.5" d="M0,-3.0v7 M-2.5,-0.5L0,-3.0L2.5,-0.5"/>
                </g>
               <g id="resetDef">
                       <use xlink:href="#rim2" fill="#404040">
                               <set attributeName="fill" to="#808080" begin="reset.mouseover" end="reset.mouseout"/>
                       </use>
               </g>
        </defs>

<script type="text/javascript">
var viewWidth = 1008;
var viewHeight = 313;
var sectionId = 'dynsection-3';
</script>
<script xlink:href="../../svgpan.js"/>
<svg id="graph" class="graph">
<g id="viewport">
<title>services::FlashQuadSpiMicronN25q::EraseSomeSectors</title>
<polygon fill="white" stroke="none" points="-4,4 -4,-308.5 1004,-308.5 1004,4 -4,4"/>
<!-- Node40 -->
<g id="node1" class="node"><title>Node40</title>
<polygon fill="#bfbfbf" stroke="black" points="0,-170 0,-200 149,-200 149,-170 0,-170"/>
<text text-anchor="start" x="8" y="-188" font-family="Helvetica,sans-Serif" font-size="10.00">services::FlashQuadSpiMicron</text>
<text text-anchor="middle" x="74.5" y="-177" font-family="Helvetica,sans-Serif" font-size="10.00">N25q::EraseSomeSectors</text>
</g>
<!-- Node41 -->
<g id="node2" class="node"><title>Node41</title>
<g id="a_node2"><a xlink:href="../../d8/d29/classhal_1_1_flash_homogeneous.html#a51f40ebc3117a8a4f9b56b0b22bd1785" target="_top" xlink:title="hal::FlashHomogeneous\l::NumberOfSectors">
<polygon fill="white" stroke="black" points="198.5,-244 198.5,-274 320.5,-274 320.5,-244 198.5,-244"/>
<text text-anchor="start" x="206.5" y="-262" font-family="Helvetica,sans-Serif" font-size="10.00">hal::FlashHomogeneous</text>
<text text-anchor="middle" x="259.5" y="-251" font-family="Helvetica,sans-Serif" font-size="10.00">::NumberOfSectors</text>
</a>
</g>
</g>
<!-- Node40&#45;&gt;Node41 -->
<g id="edge1" class="edge"><title>Node40&#45;&gt;Node41</title>
<path fill="none" stroke="midnightblue" d="M106.252,-200.169C127.981,-210.608 157.938,-224.442 185,-235 189.801,-236.873 194.815,-238.724 199.87,-240.518"/>
<polygon fill="midnightblue" stroke="midnightblue" points="199.002,-243.921 209.597,-243.886 201.293,-237.306 199.002,-243.921"/>
</g>
<!-- Node42 -->
<g id="node3" class="node"><title>Node42</title>
<g id="a_node3"><a xlink:href="../../d8/dbe/classservices_1_1_flash_quad_spi_micron_n25q.html#af3a71d02b3bac284a6385808813dfc0c" target="_top" xlink:title="services::FlashQuadSpiMicron\lN25q::SendEraseBulk">
<polygon fill="white" stroke="black" points="185,-195 185,-225 334,-225 334,-195 185,-195"/>
<text text-anchor="start" x="193" y="-213" font-family="Helvetica,sans-Serif" font-size="10.00">services::FlashQuadSpiMicron</text>
<text text-anchor="middle" x="259.5" y="-202" font-family="Helvetica,sans-Serif" font-size="10.00">N25q::SendEraseBulk</text>
</a>
</g>
</g>
<!-- Node40&#45;&gt;Node42 -->
<g id="edge2" class="edge"><title>Node40&#45;&gt;Node42</title>
<path fill="none" stroke="midnightblue" d="M149.142,-195.06C157.565,-196.211 166.199,-197.391 174.742,-198.558"/>
<polygon fill="midnightblue" stroke="midnightblue" points="174.329,-202.034 184.711,-199.919 175.277,-195.098 174.329,-202.034"/>
</g>
<!-- Node58 -->
<g id="node19" class="node"><title>Node58</title>
<g id="a_node19"><a xlink:href="../../d8/dbe/classservices_1_1_flash_quad_spi_micron_n25q.html#a2bd0652b1635b6024bbf6ea803d41afe" target="_top" xlink:title="services::FlashQuadSpiMicron\lN25q::SendEraseSector">
<polygon fill="white" stroke="black" points="185,-146 185,-176 334,-176 334,-146 185,-146"/>
<text text-anchor="start" x="193" y="-164" font-family="Helvetica,sans-Serif" font-size="10.00">services::FlashQuadSpiMicron</text>
<text text-anchor="middle" x="259.5" y="-153" font-family="Helvetica,sans-Serif" font-size="10.00">N25q::SendEraseSector</text>
</a>
</g>
</g>
<!-- Node40&#45;&gt;Node58 -->
<g id="edge23" class="edge"><title>Node40&#45;&gt;Node58</title>
<path fill="none" stroke="midnightblue" d="M149.142,-175.342C157.565,-174.237 166.199,-173.105 174.742,-171.985"/>
<polygon fill="midnightblue" stroke="midnightblue" points="175.251,-175.448 184.711,-170.677 174.34,-168.507 175.251,-175.448"/>
</g>
<!-- Node62 -->
<g id="node23" class="node"><title>Node62</title>
<g id="a_node23"><a xlink:href="../../d8/dbe/classservices_1_1_flash_quad_spi_micron_n25q.html#a5eea01af8022205b1bf55d9cdf5d7730" target="_top" xlink:title="services::FlashQuadSpiMicron\lN25q::SendEraseSubSector">
<polygon fill="white" stroke="black" points="185,-97 185,-127 334,-127 334,-97 185,-97"/>
<text text-anchor="start" x="193" y="-115" font-family="Helvetica,sans-Serif" font-size="10.00">services::FlashQuadSpiMicron</text>
<text text-anchor="middle" x="259.5" y="-104" font-family="Helvetica,sans-Serif" font-size="10.00">N25q::SendEraseSubSector</text>
</a>
</g>
</g>
<!-- Node40&#45;&gt;Node62 -->
<g id="edge31" class="edge"><title>Node40&#45;&gt;Node62</title>
<path fill="none" stroke="midnightblue" d="M106.755,-169.959C128.46,-159.775 158.185,-146.345 185,-136 190.01,-134.067 195.248,-132.153 200.522,-130.298"/>
<polygon fill="midnightblue" stroke="midnightblue" points="201.694,-133.596 210.01,-127.032 199.415,-126.977 201.694,-133.596"/>
</g>
<!-- Node43 -->
<g id="node4" class="node"><title>Node43</title>
<g id="a_node4"><a xlink:href="../../d0/de3/namespaceinfra.html#a0ec8c0f8585063ab97f13228d4888974" target="_top" xlink:title="infra::MakeOptional">
<polygon fill="white" stroke="black" points="385,-236.5 385,-255.5 486,-255.5 486,-236.5 385,-236.5"/>
<text text-anchor="middle" x="435.5" y="-243.5" font-family="Helvetica,sans-Serif" font-size="10.00">infra::MakeOptional</text>
</a>
</g>
</g>
<!-- Node42&#45;&gt;Node43 -->
<g id="edge3" class="edge"><title>Node42&#45;&gt;Node43</title>
<path fill="none" stroke="midnightblue" d="M333.032,-225.007C348.26,-228.157 364.098,-231.434 378.606,-234.436"/>
<polygon fill="midnightblue" stroke="midnightblue" points="377.912,-237.866 388.414,-236.465 379.331,-231.011 377.912,-237.866"/>
</g>
<!-- Node44 -->
<g id="node5" class="node"><title>Node44</title>
<g id="a_node5"><a xlink:href="../../dd/df2/classhal_1_1_quad_spi.html#a34a6210e60687a16a723e6dfef934968" target="_top" xlink:title="hal::QuadSpi::SendData">
<polygon fill="white" stroke="black" points="374.5,-198.5 374.5,-217.5 496.5,-217.5 496.5,-198.5 374.5,-198.5"/>
<text text-anchor="middle" x="435.5" y="-205.5" font-family="Helvetica,sans-Serif" font-size="10.00">hal::QuadSpi::SendData</text>
</a>
</g>
</g>
<!-- Node42&#45;&gt;Node44 -->
<g id="edge4" class="edge"><title>Node42&#45;&gt;Node44</title>
<path fill="none" stroke="midnightblue" d="M334.039,-209.155C344.021,-209.04 354.245,-208.922 364.168,-208.808"/>
<polygon fill="midnightblue" stroke="midnightblue" points="364.419,-212.306 374.378,-208.691 364.338,-205.306 364.419,-212.306"/>
</g>
<!-- Node45 -->
<g id="node6" class="node"><title>Node45</title>
<g id="a_node6"><a xlink:href="../../da/d1d/structhal_1_1_quad_spi_1_1_lines.html#a355cdd0f183ce81c385236c7d850df73" target="_top" xlink:title="hal::QuadSpi::Lines\l::QuadSpeed">
<polygon fill="white" stroke="black" points="384.5,-149 384.5,-179 486.5,-179 486.5,-149 384.5,-149"/>
<text text-anchor="start" x="392.5" y="-167" font-family="Helvetica,sans-Serif" font-size="10.00">hal::QuadSpi::Lines</text>
<text text-anchor="middle" x="435.5" y="-156" font-family="Helvetica,sans-Serif" font-size="10.00">::QuadSpeed</text>
</a>
</g>
</g>
<!-- Node42&#45;&gt;Node45 -->
<g id="edge5" class="edge"><title>Node42&#45;&gt;Node45</title>
<path fill="none" stroke="midnightblue" d="M317.474,-194.938C335.789,-190.096 356.128,-184.719 374.643,-179.824"/>
<polygon fill="midnightblue" stroke="midnightblue" points="375.654,-183.177 384.427,-177.238 373.865,-176.41 375.654,-183.177"/>
</g>
<!-- Node46 -->
<g id="node7" class="node"><title>Node46</title>
<g id="a_node7"><a xlink:href="../../d8/dcc/classinfra_1_1_sequencer.html#a540855dbc1e4f39faed3b55ec7c947c0" target="_top" xlink:title="infra::Sequencer::Continue">
<polygon fill="white" stroke="black" points="370,-110.5 370,-129.5 501,-129.5 501,-110.5 370,-110.5"/>
<text text-anchor="middle" x="435.5" y="-117.5" font-family="Helvetica,sans-Serif" font-size="10.00">infra::Sequencer::Continue</text>
</a>
</g>
</g>
<!-- Node42&#45;&gt;Node46 -->
<g id="edge6" class="edge"><title>Node42&#45;&gt;Node46</title>
<path fill="none" stroke="midnightblue" d="M316.389,-194.896C322.598,-192.098 328.615,-188.823 334,-185 355.17,-169.973 348.524,-153.586 370,-139 372.938,-137.005 376.088,-135.215 379.359,-133.611"/>
<polygon fill="midnightblue" stroke="midnightblue" points="381.004,-136.715 388.821,-129.563 378.25,-130.279 381.004,-136.715"/>
</g>
<!-- Node47 -->
<g id="node8" class="node"><title>Node47</title>
<g id="a_node8"><a xlink:href="../../dc/de7/classinfra_1_1_bounded_vector.html#a0d65fc52854eb5ee43419e451e3cd49a" target="_top" xlink:title="infra::BoundedVector\l::clear">
<polygon fill="white" stroke="black" points="560.5,-83 560.5,-113 667.5,-113 667.5,-83 560.5,-83"/>
<text text-anchor="start" x="568.5" y="-101" font-family="Helvetica,sans-Serif" font-size="10.00">infra::BoundedVector</text>
<text text-anchor="middle" x="614" y="-90" font-family="Helvetica,sans-Serif" font-size="10.00">::clear</text>
</a>
</g>
</g>
<!-- Node46&#45;&gt;Node47 -->
<g id="edge7" class="edge"><title>Node46&#45;&gt;Node47</title>
<path fill="none" stroke="midnightblue" d="M501.22,-111.933C517.2,-109.941 534.29,-107.811 550.178,-105.831"/>
<polygon fill="midnightblue" stroke="midnightblue" points="550.931,-109.264 560.421,-104.554 550.065,-102.318 550.931,-109.264"/>
</g>
<!-- Node48 -->
<g id="node9" class="node"><title>Node48</title>
<g id="a_node9"><a xlink:href="../../d8/dcc/classinfra_1_1_sequencer.html#a144aefdee6184f0c01287ef64e4e588a" target="_top" xlink:title="infra::Sequencer::Execute\lNextStep">
<polygon fill="white" stroke="black" points="727.5,-176 727.5,-206 856.5,-206 856.5,-176 727.5,-176"/>
<text text-anchor="start" x="735.5" y="-194" font-family="Helvetica,sans-Serif" font-size="10.00">infra::Sequencer::Execute</text>
<text text-anchor="middle" x="792" y="-183" font-family="Helvetica,sans-Serif" font-size="10.00">NextStep</text>
</a>
</g>
</g>
<!-- Node46&#45;&gt;Node48 -->
<g id="edge8" class="edge"><title>Node46&#45;&gt;Node48</title>
<path fill="none" stroke="midnightblue" d="M474.953,-129.531C483.674,-132.184 492.783,-135.355 501,-139 518.14,-146.603 519.279,-154.87 537,-161 595.52,-181.245 665.655,-188.335 717.387,-190.596"/>
<polygon fill="midnightblue" stroke="midnightblue" points="717.351,-194.097 727.479,-190.986 717.621,-187.102 717.351,-194.097"/>
</g>
<!-- Node50 -->
<g id="node11" class="node"><title>Node50</title>
<g id="a_node11"><a xlink:href="../../d8/dcc/classinfra_1_1_sequencer.html#aa8d62e488058da02b14a31017a33b199" target="_top" xlink:title="infra::Sequencer::Finished">
<polygon fill="white" stroke="black" points="727,-0.5 727,-19.5 857,-19.5 857,-0.5 727,-0.5"/>
<text text-anchor="middle" x="792" y="-7.5" font-family="Helvetica,sans-Serif" font-size="10.00">infra::Sequencer::Finished</text>
</a>
</g>
</g>
<!-- Node46&#45;&gt;Node50 -->
<g id="edge10" class="edge"><title>Node46&#45;&gt;Node50</title>
<path fill="none" stroke="midnightblue" d="M474.873,-110.47C483.686,-107.64 492.856,-104.159 501,-100 518.812,-90.905 518.928,-81.5678 537,-73 600.701,-42.7996 622.581,-51.9935 691,-35 707.972,-30.7847 726.557,-26.1448 743.052,-22.0187"/>
<polygon fill="midnightblue" stroke="midnightblue" points="744.167,-25.3475 753.018,-19.5244 742.468,-18.5569 744.167,-25.3475"/>
</g>
<!-- Node52 -->
<g id="node13" class="node"><title>Node52</title>
<g id="a_node13"><a xlink:href="../../d8/dcc/classinfra_1_1_sequencer.html#a5a0bb79e770ee68910377bcbd24f9c14" target="_top" xlink:title="infra::Sequencer::PopContext">
<polygon fill="white" stroke="black" points="542,-132.5 542,-151.5 686,-151.5 686,-132.5 542,-132.5"/>
<text text-anchor="middle" x="614" y="-139.5" font-family="Helvetica,sans-Serif" font-size="10.00">infra::Sequencer::PopContext</text>
</a>
</g>
</g>
<!-- Node46&#45;&gt;Node52 -->
<g id="edge12" class="edge"><title>Node46&#45;&gt;Node52</title>
<path fill="none" stroke="midnightblue" d="M501.22,-128.067C511.108,-129.3 521.42,-130.585 531.61,-131.855"/>
<polygon fill="midnightblue" stroke="midnightblue" points="531.383,-135.354 541.739,-133.118 532.249,-128.408 531.383,-135.354"/>
</g>
<!-- Node56 -->
<g id="node17" class="node"><title>Node56</title>
<g id="a_node17"><a xlink:href="../../d8/dcc/classinfra_1_1_sequencer.html#adb44b85c61f00faae6ca6ad1de6a7380" target="_top" xlink:title="infra::Sequencer::PushContext">
<polygon fill="white" stroke="black" points="539.5,-230.5 539.5,-249.5 688.5,-249.5 688.5,-230.5 539.5,-230.5"/>
<text text-anchor="middle" x="614" y="-237.5" font-family="Helvetica,sans-Serif" font-size="10.00">infra::Sequencer::PushContext</text>
</a>
</g>
</g>
<!-- Node46&#45;&gt;Node56 -->
<g id="edge20" class="edge"><title>Node46&#45;&gt;Node56</title>
<path fill="none" stroke="midnightblue" d="M484.314,-129.582C490.284,-132.039 496.028,-135.125 501,-139 525.829,-158.352 514.205,-178.288 537,-200 548.579,-211.029 563.796,-219.838 577.569,-226.35"/>
<polygon fill="midnightblue" stroke="midnightblue" points="576.255,-229.597 586.812,-230.492 579.117,-223.209 576.255,-229.597"/>
</g>
<!-- Node49 -->
<g id="node10" class="node"><title>Node49</title>
<g id="a_node10"><a xlink:href="../../dc/de7/classinfra_1_1_bounded_vector.html#aa142a336c186d6e58c5573ba860be106" target="_top" xlink:title="infra::BoundedVector\l::back">
<polygon fill="white" stroke="black" points="893,-150 893,-180 1000,-180 1000,-150 893,-150"/>
<text text-anchor="start" x="901" y="-168" font-family="Helvetica,sans-Serif" font-size="10.00">infra::BoundedVector</text>
<text text-anchor="middle" x="946.5" y="-157" font-family="Helvetica,sans-Serif" font-size="10.00">::back</text>
</a>
</g>
</g>
<!-- Node48&#45;&gt;Node49 -->
<g id="edge9" class="edge"><title>Node48&#45;&gt;Node49</title>
<path fill="none" stroke="midnightblue" d="M856.79,-180.124C865.355,-178.664 874.135,-177.167 882.683,-175.71"/>
<polygon fill="midnightblue" stroke="midnightblue" points="883.315,-179.153 892.584,-174.022 882.138,-172.252 883.315,-179.153"/>
</g>
<!-- Node51 -->
<g id="node12" class="node"><title>Node51</title>
<g id="a_node12"><a xlink:href="../../dc/de7/classinfra_1_1_bounded_vector.html#ab9477e08e53eb7d020fac8bd1d37fda7" target="_top" xlink:title="infra::BoundedVector\l::empty">
<polygon fill="white" stroke="black" points="893,-60 893,-90 1000,-90 1000,-60 893,-60"/>
<text text-anchor="start" x="901" y="-78" font-family="Helvetica,sans-Serif" font-size="10.00">infra::BoundedVector</text>
<text text-anchor="middle" x="946.5" y="-67" font-family="Helvetica,sans-Serif" font-size="10.00">::empty</text>
</a>
</g>
</g>
<!-- Node50&#45;&gt;Node51 -->
<g id="edge11" class="edge"><title>Node50&#45;&gt;Node51</title>
<path fill="none" stroke="midnightblue" d="M829.63,-19.567C838.692,-22.2897 848.295,-25.4832 857,-29 875.253,-36.3745 894.748,-46.2711 910.781,-54.9953"/>
<polygon fill="midnightblue" stroke="midnightblue" points="909.341,-58.1978 919.786,-59.9686 912.725,-52.0702 909.341,-58.1978"/>
</g>
<!-- Node52&#45;&gt;Node48 -->
<g id="edge15" class="edge"><title>Node52&#45;&gt;Node48</title>
<path fill="none" stroke="midnightblue" d="M649.352,-151.564C671.44,-157.713 700.819,-165.893 727.093,-173.208"/>
<polygon fill="midnightblue" stroke="midnightblue" points="726.417,-176.653 736.99,-175.963 728.295,-169.909 726.417,-176.653"/>
</g>
<!-- Node52&#45;&gt;Node50 -->
<g id="edge16" class="edge"><title>Node52&#45;&gt;Node50</title>
<path fill="none" stroke="midnightblue" d="M674.316,-132.489C680.394,-129.795 686.117,-126.364 691,-122 724.046,-92.463 694.42,-59.0499 727,-29 728.696,-27.4357 730.515,-25.9998 732.428,-24.6818"/>
<polygon fill="midnightblue" stroke="midnightblue" points="734.36,-27.6095 741.325,-19.6255 730.902,-21.5236 734.36,-27.6095"/>
</g>
<!-- Node52&#45;&gt;Node51 -->
<g id="edge13" class="edge"><title>Node52&#45;&gt;Node51</title>
<path fill="none" stroke="midnightblue" d="M656.424,-132.445C677.519,-127.658 703.592,-121.861 727,-117 779.457,-106.106 839.209,-94.6884 882.954,-86.512"/>
<polygon fill="midnightblue" stroke="midnightblue" points="883.686,-89.9361 892.875,-84.6621 882.402,-83.0547 883.686,-89.9361"/>
</g>
<!-- Node53 -->
<g id="node14" class="node"><title>Node53</title>
<g id="a_node14"><a xlink:href="../../d8/dcc/classinfra_1_1_sequencer.html#abfc36f76cfc75495f321bc6643826c98" target="_top" xlink:title="infra::Sequencer::Execute\lCurrentStep">
<polygon fill="white" stroke="black" points="727.5,-225 727.5,-255 856.5,-255 856.5,-225 727.5,-225"/>
<text text-anchor="start" x="735.5" y="-243" font-family="Helvetica,sans-Serif" font-size="10.00">infra::Sequencer::Execute</text>
<text text-anchor="middle" x="792" y="-232" font-family="Helvetica,sans-Serif" font-size="10.00">CurrentStep</text>
</a>
</g>
</g>
<!-- Node52&#45;&gt;Node53 -->
<g id="edge14" class="edge"><title>Node52&#45;&gt;Node53</title>
<path fill="none" stroke="midnightblue" d="M627.913,-151.684C648.226,-166.618 689.228,-195.574 727,-215 730.986,-217.05 735.181,-219.037 739.438,-220.935"/>
<polygon fill="midnightblue" stroke="midnightblue" points="738.227,-224.224 748.798,-224.939 740.98,-217.788 738.227,-224.224"/>
</g>
<!-- Node54 -->
<g id="node15" class="node"><title>Node54</title>
<g id="a_node15"><a xlink:href="../../d8/dcc/classinfra_1_1_sequencer.html#aa1da1c05382c54296fe23b30d6cf6cf8" target="_top" xlink:title="infra::Sequencer::Increase\lCurrentStep">
<polygon fill="white" stroke="black" points="727,-127 727,-157 857,-157 857,-127 727,-127"/>
<text text-anchor="start" x="735" y="-145" font-family="Helvetica,sans-Serif" font-size="10.00">infra::Sequencer::Increase</text>
<text text-anchor="middle" x="792" y="-134" font-family="Helvetica,sans-Serif" font-size="10.00">CurrentStep</text>
</a>
</g>
</g>
<!-- Node52&#45;&gt;Node54 -->
<g id="edge17" class="edge"><title>Node52&#45;&gt;Node54</title>
<path fill="none" stroke="midnightblue" d="M686.079,-142C696.168,-142 706.565,-142 716.713,-142"/>
<polygon fill="midnightblue" stroke="midnightblue" points="716.757,-145.5 726.757,-142 716.757,-138.5 716.757,-145.5"/>
</g>
<!-- Node55 -->
<g id="node16" class="node"><title>Node55</title>
<g id="a_node16"><a xlink:href="../../dc/de7/classinfra_1_1_bounded_vector.html#acd442a237e9f5935f766dd3ef4a818e9" target="_top" xlink:title="infra::BoundedVector\l::pop_back">
<polygon fill="white" stroke="black" points="738.5,-39 738.5,-69 845.5,-69 845.5,-39 738.5,-39"/>
<text text-anchor="start" x="746.5" y="-57" font-family="Helvetica,sans-Serif" font-size="10.00">infra::BoundedVector</text>
<text text-anchor="middle" x="792" y="-46" font-family="Helvetica,sans-Serif" font-size="10.00">::pop_back</text>
</a>
</g>
</g>
<!-- Node52&#45;&gt;Node55 -->
<g id="edge19" class="edge"><title>Node52&#45;&gt;Node55</title>
<path fill="none" stroke="midnightblue" d="M667.248,-132.38C675.512,-129.708 683.722,-126.312 691,-122 711.015,-110.141 708.139,-97.6191 727,-84 732.158,-80.2757 737.851,-76.8295 743.652,-73.7015"/>
<polygon fill="midnightblue" stroke="midnightblue" points="745.466,-76.7057 752.794,-69.0538 742.294,-70.4657 745.466,-76.7057"/>
</g>
<!-- Node54&#45;&gt;Node49 -->
<g id="edge18" class="edge"><title>Node54&#45;&gt;Node49</title>
<path fill="none" stroke="midnightblue" d="M857.232,-151.687C865.681,-152.962 874.332,-154.266 882.756,-155.537"/>
<polygon fill="midnightblue" stroke="midnightblue" points="882.48,-159.035 892.89,-157.065 883.524,-152.113 882.48,-159.035"/>
</g>
<!-- Node56&#45;&gt;Node53 -->
<g id="edge21" class="edge"><title>Node56&#45;&gt;Node53</title>
<path fill="none" stroke="midnightblue" d="M688.62,-240C698.097,-240 707.803,-240 717.281,-240"/>
<polygon fill="midnightblue" stroke="midnightblue" points="717.456,-243.5 727.456,-240 717.456,-236.5 717.456,-243.5"/>
</g>
<!-- Node57 -->
<g id="node18" class="node"><title>Node57</title>
<g id="a_node18"><a xlink:href="../../dc/de7/classinfra_1_1_bounded_vector.html#a17cb2ff4e6291f156cb5a41cca1b4edf" target="_top" xlink:title="infra::BoundedVector\l::push_back">
<polygon fill="white" stroke="black" points="738.5,-274 738.5,-304 845.5,-304 845.5,-274 738.5,-274"/>
<text text-anchor="start" x="746.5" y="-292" font-family="Helvetica,sans-Serif" font-size="10.00">infra::BoundedVector</text>
<text text-anchor="middle" x="792" y="-281" font-family="Helvetica,sans-Serif" font-size="10.00">::push_back</text>
</a>
</g>
</g>
<!-- Node56&#45;&gt;Node57 -->
<g id="edge22" class="edge"><title>Node56&#45;&gt;Node57</title>
<path fill="none" stroke="midnightblue" d="M649.352,-249.564C671.894,-255.84 702.029,-264.23 728.708,-271.657"/>
<polygon fill="midnightblue" stroke="midnightblue" points="727.789,-275.034 738.361,-274.345 729.666,-268.291 727.789,-275.034"/>
</g>
<!-- Node58&#45;&gt;Node43 -->
<g id="edge24" class="edge"><title>Node58&#45;&gt;Node43</title>
<path fill="none" stroke="midnightblue" d="M317.368,-176.03C323.203,-178.598 328.865,-181.57 334,-185 354.444,-198.656 349.359,-213.644 370,-227 373.176,-229.055 376.582,-230.894 380.108,-232.54"/>
<polygon fill="midnightblue" stroke="midnightblue" points="379.068,-235.896 389.648,-236.456 381.726,-229.421 379.068,-235.896"/>
</g>
<!-- Node58&#45;&gt;Node44 -->
<g id="edge28" class="edge"><title>Node58&#45;&gt;Node44</title>
<path fill="none" stroke="midnightblue" d="M316.033,-176C339.665,-182.384 366.877,-189.734 389.257,-195.779"/>
<polygon fill="midnightblue" stroke="midnightblue" points="388.602,-199.228 399.169,-198.457 390.428,-192.47 388.602,-199.228"/>
</g>
<!-- Node58&#45;&gt;Node45 -->
<g id="edge29" class="edge"><title>Node58&#45;&gt;Node45</title>
<path fill="none" stroke="midnightblue" d="M334.039,-162.268C347.433,-162.499 361.262,-162.737 374.216,-162.961"/>
<polygon fill="midnightblue" stroke="midnightblue" points="374.333,-166.463 384.392,-163.136 374.454,-159.464 374.333,-166.463"/>
</g>
<!-- Node58&#45;&gt;Node46 -->
<g id="edge30" class="edge"><title>Node58&#45;&gt;Node46</title>
<path fill="none" stroke="midnightblue" d="M324.303,-145.966C344.035,-141.317 365.484,-136.262 384.17,-131.859"/>
<polygon fill="midnightblue" stroke="midnightblue" points="385.021,-135.255 393.952,-129.554 383.416,-128.441 385.021,-135.255"/>
</g>
<!-- Node59 -->
<g id="node20" class="node"><title>Node59</title>
<g id="a_node20"><a xlink:href="../../d0/db3/classservices_1_1_flash_quad_spi.html#afa24eb06baec2e2b6413ed10a567e876" target="_top" xlink:title="services::FlashQuadSpi\l::ConvertAddress">
<polygon fill="white" stroke="black" points="376,-61 376,-91 495,-91 495,-61 376,-61"/>
<text text-anchor="start" x="384" y="-79" font-family="Helvetica,sans-Serif" font-size="10.00">services::FlashQuadSpi</text>
<text text-anchor="middle" x="435.5" y="-68" font-family="Helvetica,sans-Serif" font-size="10.00">::ConvertAddress</text>
</a>
</g>
</g>
<!-- Node58&#45;&gt;Node59 -->
<g id="edge25" class="edge"><title>Node58&#45;&gt;Node59</title>
<path fill="none" stroke="midnightblue" d="M313.976,-145.969C320.935,-143.112 327.793,-139.802 334,-136 353.029,-124.344 351.219,-113.052 370,-101 372.971,-99.0936 376.109,-97.2955 379.338,-95.6059"/>
<polygon fill="midnightblue" stroke="midnightblue" points="381.127,-98.629 388.613,-91.1315 378.085,-92.3243 381.127,-98.629"/>
</g>
<!-- Node61 -->
<g id="node22" class="node"><title>Node61</title>
<g id="a_node22"><a xlink:href="../../d8/d29/classhal_1_1_flash_homogeneous.html#addb167ba9e733c6041f17ebf9eda5ad1" target="_top" xlink:title="hal::FlashHomogeneous\l::AddressOfSector">
<polygon fill="white" stroke="black" points="374.5,-12 374.5,-42 496.5,-42 496.5,-12 374.5,-12"/>
<text text-anchor="start" x="382.5" y="-30" font-family="Helvetica,sans-Serif" font-size="10.00">hal::FlashHomogeneous</text>
<text text-anchor="middle" x="435.5" y="-19" font-family="Helvetica,sans-Serif" font-size="10.00">::AddressOfSector</text>
</a>
</g>
</g>
<!-- Node58&#45;&gt;Node61 -->
<g id="edge27" class="edge"><title>Node58&#45;&gt;Node61</title>
<path fill="none" stroke="midnightblue" d="M320.023,-145.879C325.09,-143.117 329.854,-139.855 334,-136 364.046,-108.064 340.353,-79.3588 370,-51 371.247,-49.8076 372.558,-48.6734 373.922,-47.5946"/>
<polygon fill="midnightblue" stroke="midnightblue" points="375.894,-50.486 382.241,-42.0022 371.989,-44.6767 375.894,-50.486"/>
</g>
<!-- Node60 -->
<g id="node21" class="node"><title>Node60</title>
<g id="a_node21"><a xlink:href="../../dd/df2/classhal_1_1_quad_spi.html#a962b4ce2b2f8ae4fb7b83324db78244c" target="_top" xlink:title="hal::QuadSpi::AddressToVector">
<polygon fill="white" stroke="black" points="537,-6.5 537,-25.5 691,-25.5 691,-6.5 537,-6.5"/>
<text text-anchor="middle" x="614" y="-13.5" font-family="Helvetica,sans-Serif" font-size="10.00">hal::QuadSpi::AddressToVector</text>
</a>
</g>
</g>
<!-- Node59&#45;&gt;Node60 -->
<g id="edge26" class="edge"><title>Node59&#45;&gt;Node60</title>
<path fill="none" stroke="midnightblue" d="M477.45,-60.9327C495.633,-54.3455 517.329,-46.6266 537,-40 548.359,-36.1736 560.733,-32.1888 572.134,-28.5908"/>
<polygon fill="midnightblue" stroke="midnightblue" points="573.358,-31.8748 581.853,-25.5423 571.263,-25.1957 573.358,-31.8748"/>
</g>
<!-- Node62&#45;&gt;Node43 -->
<g id="edge32" class="edge"><title>Node62&#45;&gt;Node43</title>
<path fill="none" stroke="midnightblue" d="M321.895,-127.17C326.275,-129.676 330.382,-132.597 334,-136 365.68,-165.801 337.889,-197.663 370,-227 371.751,-228.599 373.63,-230.065 375.605,-231.407"/>
<polygon fill="midnightblue" stroke="midnightblue" points="374.354,-234.717 384.791,-236.539 377.768,-228.606 374.354,-234.717"/>
</g>
<!-- Node62&#45;&gt;Node44 -->
<g id="edge35" class="edge"><title>Node62&#45;&gt;Node44</title>
<path fill="none" stroke="midnightblue" d="M318.863,-127.033C324.225,-129.583 329.372,-132.551 334,-136 356.539,-152.796 347.336,-171.372 370,-188 373.257,-190.389 376.805,-192.498 380.508,-194.358"/>
<polygon fill="midnightblue" stroke="midnightblue" points="379.386,-197.687 389.951,-198.487 382.191,-191.274 379.386,-197.687"/>
</g>
<!-- Node62&#45;&gt;Node45 -->
<g id="edge36" class="edge"><title>Node62&#45;&gt;Node45</title>
<path fill="none" stroke="midnightblue" d="M310.828,-127.041C330.757,-132.996 353.828,-139.891 374.607,-146.101"/>
<polygon fill="midnightblue" stroke="midnightblue" points="373.702,-149.483 384.285,-148.993 375.706,-142.776 373.702,-149.483"/>
</g>
<!-- Node62&#45;&gt;Node46 -->
<g id="edge37" class="edge"><title>Node62&#45;&gt;Node46</title>
<path fill="none" stroke="midnightblue" d="M334.039,-115.381C342.48,-115.769 351.093,-116.165 359.552,-116.554"/>
<polygon fill="midnightblue" stroke="midnightblue" points="359.62,-120.061 369.771,-117.024 359.942,-113.068 359.62,-120.061"/>
</g>
<!-- Node62&#45;&gt;Node59 -->
<g id="edge33" class="edge"><title>Node62&#45;&gt;Node59</title>
<path fill="none" stroke="midnightblue" d="M333.032,-96.9934C343.955,-94.7335 355.191,-92.4087 366.026,-90.1671"/>
<polygon fill="midnightblue" stroke="midnightblue" points="366.759,-93.5897 375.842,-88.1361 365.34,-86.7348 366.759,-93.5897"/>
</g>
<!-- Node62&#45;&gt;Node61 -->
<g id="edge34" class="edge"><title>Node62&#45;&gt;Node61</title>
<path fill="none" stroke="midnightblue" d="M285.161,-96.838C306.994,-83.763 339.965,-64.8562 370,-51 373.784,-49.2545 377.733,-47.5391 381.734,-45.8781"/>
<polygon fill="midnightblue" stroke="midnightblue" points="383.132,-49.0885 391.106,-42.1125 380.522,-42.5932 383.132,-49.0885"/>
</g>
</g>
</svg>
        <g id="navigator" transform="translate(0 0)" fill="#404254">
                <rect fill="#f2f5e9" fill-opacity="0.5" stroke="#606060" stroke-width=".5" x="0" y="0" width="60" height="60"/>
                <use id="zoomplus" xlink:href="#zoomPlus" x="17" y="9" onmousedown="handleZoom(evt,'in')"/>
                <use id="zoomminus" xlink:href="#zoomMin" x="42" y="9" onmousedown="handleZoom(evt,'out')"/>
                <use id="reset" xlink:href="#resetDef" x="30" y="36" onmousedown="handleReset()"/>
                <g id="arrowUp" xlink:href="#dirArrow" transform="translate(30 24)" onmousedown="handlePan(0,-1)">
                  <use xlink:href="#rim" fill="#404040">
                        <set attributeName="fill" to="#808080" begin="arrowUp.mouseover" end="arrowUp.mouseout"/>
                  </use>
                  <path fill="none" stroke="white" stroke-width="1.5" d="M0,-3.0v7 M-2.5,-0.5L0,-3.0L2.5,-0.5"/>
                </g>
                <g id="arrowRight" xlink:href="#dirArrow" transform="rotate(90) translate(36 -43)" onmousedown="handlePan(1,0)">
                  <use xlink:href="#rim" fill="#404040">
                        <set attributeName="fill" to="#808080" begin="arrowRight.mouseover" end="arrowRight.mouseout"/>
                  </use>
                  <path fill="none" stroke="white" stroke-width="1.5" d="M0,-3.0v7 M-2.5,-0.5L0,-3.0L2.5,-0.5"/>
                </g>
                <g id="arrowDown" xlink:href="#dirArrow" transform="rotate(180) translate(-30 -48)" onmousedown="handlePan(0,1)">
                  <use xlink:href="#rim" fill="#404040">
                        <set attributeName="fill" to="#808080" begin="arrowDown.mouseover" end="arrowDown.mouseout"/>
                  </use>
                  <path fill="none" stroke="white" stroke-width="1.5" d="M0,-3.0v7 M-2.5,-0.5L0,-3.0L2.5,-0.5"/>
                </g>
                <g id="arrowLeft" xlink:href="#dirArrow" transform="rotate(270) translate(-36 17)" onmousedown="handlePan(-1,0)">
                  <use xlink:href="#rim" fill="#404040">
                        <set attributeName="fill" to="#808080" begin="arrowLeft.mouseover" end="arrowLeft.mouseout"/>
                  </use>
                  <path fill="none" stroke="white" stroke-width="1.5" d="M0,-3.0v7 M-2.5,-0.5L0,-3.0L2.5,-0.5"/>
                </g>
        </g>
        <svg viewBox="0 0 15 15" width="100%" height="30px" preserveAspectRatio="xMaxYMin meet">
         <g id="arrow_out" transform="scale(0.3 0.3)">
          <a xlink:href="classservices_1_1_flash_quad_spi_micron_n25q_a930007b55bc31caa9663b3e04ee562bf_cgraph_org.svg" target="_base">
           <rect id="button" ry="5" rx="5" y="6" x="6" height="38" width="38"
                fill="#f2f5e9" fill-opacity="0.5" stroke="#606060" stroke-width="1.0"/>
           <path id="arrow"
             d="M 11.500037,31.436501 C 11.940474,20.09759 22.043105,11.32322 32.158766,21.979434 L 37.068811,17.246167 C 37.068811,17.246167 37.088388,32 37.088388,32 L 22.160133,31.978069 C 22.160133,31.978069 26.997745,27.140456 26.997745,27.140456 C 18.528582,18.264221 13.291696,25.230495 11.500037,31.436501 z"
             style="fill:#404040;"/>
          </a>
         </g>
        </svg>
</svg>
