<?xml version="1.0" encoding="UTF-8" standalone="no"?>
<!DOCTYPE svg PUBLIC "-//W3C//DTD SVG 1.1//EN"
 "http://www.w3.org/Graphics/SVG/1.1/DTD/svg11.dtd">
<!-- Generated by graphviz version 2.38.0 (20140413.2041)
 -->
<!-- Title: application::MaterialGenerator::WriteKeys Pages: 1 -->
<svg width="518pt" height="61pt"
 viewBox="0.00 0.00 518.00 61.00" xmlns="http://www.w3.org/2000/svg" xmlns:xlink="http://www.w3.org/1999/xlink">
<g id="graph0" class="graph" transform="scale(1 1) rotate(0) translate(4 57)">
<title>application::MaterialGenerator::WriteKeys</title>
<polygon fill="white" stroke="none" points="-4,4 -4,-57 514,-57 514,4 -4,4"/>
<!-- Node25 -->
<g id="node1" class="node"><title>Node25</title>
<polygon fill="#bfbfbf" stroke="black" points="0,-0.5 0,-30.5 146,-30.5 146,-0.5 0,-0.5"/>
<text text-anchor="start" x="8" y="-18.5" font-family="Helvetica,sans-Serif" font-size="10.00">application::MaterialGenerator</text>
<text text-anchor="middle" x="73" y="-7.5" font-family="Helvetica,sans-Serif" font-size="10.00">::WriteKeys</text>
</g>
<!-- Node26 -->
<g id="node2" class="node"><title>Node26</title>
<g id="a_node2"><a xlink:href="../../d5/dc1/classapplication_1_1_material_generator.html#ae2f724d8f321afbe3e87ea957456f745" target="_top" xlink:title="application::MaterialGenerator\l::PrintMpi">
<polygon fill="white" stroke="black" points="182,-22.5 182,-52.5 328,-52.5 328,-22.5 182,-22.5"/>
<text text-anchor="start" x="190" y="-40.5" font-family="Helvetica,sans-Serif" font-size="10.00">application::MaterialGenerator</text>
<text text-anchor="middle" x="255" y="-29.5" font-family="Helvetica,sans-Serif" font-size="10.00">::PrintMpi</text>
</a>
</g>
</g>
<!-- Node25&#45;&gt;Node26 -->
<g id="edge1" class="edge"><title>Node25&#45;&gt;Node26</title>
<path fill="none" stroke="midnightblue" d="M146.176,-24.3215C154.612,-25.3525 163.265,-26.4102 171.824,-27.4562"/>
<polygon fill="midnightblue" stroke="midnightblue" points="171.457,-30.9374 181.808,-28.6765 172.307,-23.9891 171.457,-30.9374"/>
</g>
<!-- Node27 -->
<g id="node3" class="node"><title>Node27</title>
<g id="a_node3"><a xlink:href="../../d5/dc1/classapplication_1_1_material_generator.html#aab3b9be42c78ebef2c6250732ac02fe3" target="_top" xlink:title="application::MaterialGenerator\l::PrintVector">
<polygon fill="white" stroke="black" points="364,-0.5 364,-30.5 510,-30.5 510,-0.5 364,-0.5"/>
<text text-anchor="start" x="372" y="-18.5" font-family="Helvetica,sans-Serif" font-size="10.00">application::MaterialGenerator</text>
<text text-anchor="middle" x="437" y="-7.5" font-family="Helvetica,sans-Serif" font-size="10.00">::PrintVector</text>
</a>
</g>
</g>
<!-- Node25&#45;&gt;Node27 -->
<g id="edge3" class="edge"><title>Node25&#45;&gt;Node27</title>
<path fill="none" stroke="midnightblue" d="M146.034,-13.9806C158.044,-13.7805 170.374,-13.6076 182,-13.5 246.886,-12.8993 263.114,-12.8993 328,-13.5 336.357,-13.5774 345.076,-13.6884 353.78,-13.819"/>
<polygon fill="midnightblue" stroke="midnightblue" points="353.912,-17.3215 363.966,-13.9806 354.023,-10.3224 353.912,-17.3215"/>
</g>
<!-- Node26&#45;&gt;Node27 -->
<g id="edge2" class="edge"><title>Node26&#45;&gt;Node27</title>
<path fill="none" stroke="midnightblue" d="M328.176,-28.6785C336.612,-27.6475 345.265,-26.5898 353.824,-25.5438"/>
<polygon fill="midnightblue" stroke="midnightblue" points="354.307,-29.0109 363.808,-24.3235 353.457,-22.0626 354.307,-29.0109"/>
</g>
</g>
</svg>
