<?xml version="1.0" encoding="UTF-8" standalone="no"?>
<!DOCTYPE svg PUBLIC "-//W3C//DTD SVG 1.1//EN"
 "http://www.w3.org/Graphics/SVG/1.1/DTD/svg11.dtd">
<!-- Generated by graphviz version 2.38.0 (20140413.2041)
 -->
<!-- Title: services::DatagramBsd::Receive Pages: 1 -->
<svg width="431pt" height="39pt"
 viewBox="0.00 0.00 431.00 39.00" xmlns="http://www.w3.org/2000/svg" xmlns:xlink="http://www.w3.org/1999/xlink">
<g id="graph0" class="graph" transform="scale(1 1) rotate(0) translate(4 35)">
<title>services::DatagramBsd::Receive</title>
<polygon fill="white" stroke="none" points="-4,4 -4,-35 427,-35 427,4 -4,4"/>
<!-- Node86 -->
<g id="node1" class="node"><title>Node86</title>
<polygon fill="#bfbfbf" stroke="black" points="0,-0.5 0,-30.5 117,-30.5 117,-0.5 0,-0.5"/>
<text text-anchor="start" x="8" y="-18.5" font-family="Helvetica,sans-Serif" font-size="10.00">services::DatagramBsd</text>
<text text-anchor="middle" x="58.5" y="-7.5" font-family="Helvetica,sans-Serif" font-size="10.00">::Receive</text>
</g>
<!-- Node87 -->
<g id="node2" class="node"><title>Node87</title>
<g id="a_node2"><a xlink:href="../../d1/d3f/classservices_1_1_datagram_bsd.html#a18e1ec8aa7a2f5e0a8401af799af99f9" target="_top" xlink:title="services::DatagramBsd\l::InitSocket">
<polygon fill="white" stroke="black" points="153,-0.5 153,-30.5 270,-30.5 270,-0.5 153,-0.5"/>
<text text-anchor="start" x="161" y="-18.5" font-family="Helvetica,sans-Serif" font-size="10.00">services::DatagramBsd</text>
<text text-anchor="middle" x="211.5" y="-7.5" font-family="Helvetica,sans-Serif" font-size="10.00">::InitSocket</text>
</a>
</g>
</g>
<!-- Node86&#45;&gt;Node87 -->
<g id="edge1" class="edge"><title>Node86&#45;&gt;Node87</title>
<path fill="none" stroke="midnightblue" d="M127.052,-15.5C135.678,-15.5 144.444,-15.5 152.893,-15.5"/>
<polygon fill="midnightblue" stroke="midnightblue" points="127.017,-12.0001 117.017,-15.5 127.017,-19.0001 127.017,-12.0001"/>
</g>
<!-- Node88 -->
<g id="node3" class="node"><title>Node88</title>
<g id="a_node3"><a xlink:href="../../d1/d3f/classservices_1_1_datagram_bsd.html#ab7a4b207514941e4eb588be4f8f0ed7f" target="_top" xlink:title="services::DatagramBsd\l::DatagramBsd">
<polygon fill="white" stroke="black" points="306,-0.5 306,-30.5 423,-30.5 423,-0.5 306,-0.5"/>
<text text-anchor="start" x="314" y="-18.5" font-family="Helvetica,sans-Serif" font-size="10.00">services::DatagramBsd</text>
<text text-anchor="middle" x="364.5" y="-7.5" font-family="Helvetica,sans-Serif" font-size="10.00">::DatagramBsd</text>
</a>
</g>
</g>
<!-- Node87&#45;&gt;Node88 -->
<g id="edge2" class="edge"><title>Node87&#45;&gt;Node88</title>
<path fill="none" stroke="midnightblue" d="M280.052,-15.5C288.678,-15.5 297.444,-15.5 305.893,-15.5"/>
<polygon fill="midnightblue" stroke="midnightblue" points="280.017,-12.0001 270.017,-15.5 280.017,-19.0001 280.017,-12.0001"/>
</g>
</g>
</svg>
