<?xml version="1.0" encoding="UTF-8" standalone="no"?>
<!DOCTYPE svg PUBLIC "-//W3C//DTD SVG 1.1//EN"
 "http://www.w3.org/Graphics/SVG/1.1/DTD/svg11.dtd">
<!-- Generated by graphviz version 2.38.0 (20140413.2041)
 -->
<!-- Title: services::DatagramBsd::InitSocket Pages: 1 -->
<svg width="692pt" height="149pt"
 viewBox="0.00 0.00 692.00 148.50" xmlns="http://www.w3.org/2000/svg" xmlns:xlink="http://www.w3.org/1999/xlink">
<g id="graph0" class="graph" transform="scale(1 1) rotate(0) translate(4 144.5)">
<title>services::DatagramBsd::InitSocket</title>
<polygon fill="white" stroke="none" points="-4,4 -4,-144.5 688,-144.5 688,4 -4,4"/>
<!-- Node69 -->
<g id="node1" class="node"><title>Node69</title>
<polygon fill="#bfbfbf" stroke="black" points="0,-49.5 0,-79.5 117,-79.5 117,-49.5 0,-49.5"/>
<text text-anchor="start" x="8" y="-67.5" font-family="Helvetica,sans-Serif" font-size="10.00">services::DatagramBsd</text>
<text text-anchor="middle" x="58.5" y="-56.5" font-family="Helvetica,sans-Serif" font-size="10.00">::InitSocket</text>
</g>
<!-- Node70 -->
<g id="node2" class="node"><title>Node70</title>
<g id="a_node2"><a xlink:href="../../d3/d0e/classinfra_1_1_interface_connector.html#aed1d9e952d3d0dfa68e59ee4e868b380" target="_top" xlink:title="infra::InterfaceConnector\l\&lt; EventDispatcherWorker\l \&gt;::Instance">
<polygon fill="white" stroke="black" points="160.5,-99 160.5,-140 288.5,-140 288.5,-99 160.5,-99"/>
<text text-anchor="start" x="168.5" y="-128" font-family="Helvetica,sans-Serif" font-size="10.00">infra::InterfaceConnector</text>
<text text-anchor="start" x="168.5" y="-117" font-family="Helvetica,sans-Serif" font-size="10.00">&lt; EventDispatcherWorker</text>
<text text-anchor="middle" x="224.5" y="-106" font-family="Helvetica,sans-Serif" font-size="10.00"> &gt;::Instance</text>
</a>
</g>
</g>
<!-- Node69&#45;&gt;Node70 -->
<g id="edge1" class="edge"><title>Node69&#45;&gt;Node70</title>
<path fill="none" stroke="midnightblue" d="M104.314,-79.529C119.218,-84.5274 136.202,-90.2233 152.585,-95.7175"/>
<polygon fill="midnightblue" stroke="midnightblue" points="151.547,-99.0609 162.141,-98.9223 153.773,-92.4242 151.547,-99.0609"/>
</g>
<!-- Node71 -->
<g id="node3" class="node"><title>Node71</title>
<g id="a_node3"><a xlink:href="../../d1/d3f/classservices_1_1_datagram_bsd.html#a6dac6d4cc7bd7c41e4c92ffdefc75feb" target="_top" xlink:title="services::DatagramBsd\l::Receive">
<polygon fill="white" stroke="black" points="166,-49.5 166,-79.5 283,-79.5 283,-49.5 166,-49.5"/>
<text text-anchor="start" x="174" y="-67.5" font-family="Helvetica,sans-Serif" font-size="10.00">services::DatagramBsd</text>
<text text-anchor="middle" x="224.5" y="-56.5" font-family="Helvetica,sans-Serif" font-size="10.00">::Receive</text>
</a>
</g>
</g>
<!-- Node69&#45;&gt;Node71 -->
<g id="edge2" class="edge"><title>Node69&#45;&gt;Node71</title>
<path fill="none" stroke="midnightblue" d="M117.32,-64.5C129.763,-64.5 143.022,-64.5 155.803,-64.5"/>
<polygon fill="midnightblue" stroke="midnightblue" points="155.926,-68.0001 165.926,-64.5 155.926,-61.0001 155.926,-68.0001"/>
</g>
<!-- Node77 -->
<g id="node9" class="node"><title>Node77</title>
<g id="a_node9"><a xlink:href="../../d7/d34/classinfra_1_1_event_dispatcher_worker.html#a5922b8fd5101b15f20b639fcd11fa272" target="_top" xlink:title="infra::EventDispatcherWorker\l::Schedule">
<polygon fill="white" stroke="black" points="153,-0.5 153,-30.5 296,-30.5 296,-0.5 153,-0.5"/>
<text text-anchor="start" x="161" y="-18.5" font-family="Helvetica,sans-Serif" font-size="10.00">infra::EventDispatcherWorker</text>
<text text-anchor="middle" x="224.5" y="-7.5" font-family="Helvetica,sans-Serif" font-size="10.00">::Schedule</text>
</a>
</g>
</g>
<!-- Node69&#45;&gt;Node77 -->
<g id="edge8" class="edge"><title>Node69&#45;&gt;Node77</title>
<path fill="none" stroke="midnightblue" d="M110.044,-49.3986C126.958,-44.3449 145.977,-38.6624 163.539,-33.4152"/>
<polygon fill="midnightblue" stroke="midnightblue" points="164.544,-36.7679 173.123,-30.5516 162.54,-30.0609 164.544,-36.7679"/>
</g>
<!-- Node72 -->
<g id="node4" class="node"><title>Node72</title>
<g id="a_node4"><a xlink:href="../../d0/de3/namespaceinfra.html#afe38b7d4318537de2f28b244211c4275" target="_top" xlink:title="infra::MakeRange">
<polygon fill="white" stroke="black" points="369.5,-93 369.5,-112 461.5,-112 461.5,-93 369.5,-93"/>
<text text-anchor="middle" x="415.5" y="-100" font-family="Helvetica,sans-Serif" font-size="10.00">infra::MakeRange</text>
</a>
</g>
</g>
<!-- Node71&#45;&gt;Node72 -->
<g id="edge3" class="edge"><title>Node71&#45;&gt;Node72</title>
<path fill="none" stroke="midnightblue" d="M283.233,-76.1077C307.455,-80.9777 335.495,-86.6154 359.425,-91.4267"/>
<polygon fill="midnightblue" stroke="midnightblue" points="358.912,-94.8936 369.406,-93.4335 360.292,-88.031 358.912,-94.8936"/>
</g>
<!-- Node75 -->
<g id="node7" class="node"><title>Node75</title>
<g id="a_node7"><a xlink:href="../../db/d91/namespaceservices.html#a82b8b8d9694834be0149747c77ac7cd7" target="_top" xlink:title="services::ConvertFromUint32">
<polygon fill="white" stroke="black" points="345.5,-55 345.5,-74 485.5,-74 485.5,-55 345.5,-55"/>
<text text-anchor="middle" x="415.5" y="-62" font-family="Helvetica,sans-Serif" font-size="10.00">services::ConvertFromUint32</text>
</a>
</g>
</g>
<!-- Node71&#45;&gt;Node75 -->
<g id="edge6" class="edge"><title>Node71&#45;&gt;Node75</title>
<path fill="none" stroke="midnightblue" d="M283.233,-64.5C299.658,-64.5 317.839,-64.5 335.304,-64.5"/>
<polygon fill="midnightblue" stroke="midnightblue" points="335.485,-68.0001 345.485,-64.5 335.485,-61.0001 335.485,-68.0001"/>
</g>
<!-- Node76 -->
<g id="node8" class="node"><title>Node76</title>
<g id="a_node8"><a xlink:href="../../d1/db2/classinfra_1_1_subject.html#ae6779efb6b9b18a7638fef4ce0553466" target="_top" xlink:title="infra::Subject\&lt; Datagram\lExchangeObserver \&gt;::GetObserver">
<polygon fill="white" stroke="black" points="332,-5.5 332,-35.5 499,-35.5 499,-5.5 332,-5.5"/>
<text text-anchor="start" x="340" y="-23.5" font-family="Helvetica,sans-Serif" font-size="10.00">infra::Subject&lt; Datagram</text>
<text text-anchor="middle" x="415.5" y="-12.5" font-family="Helvetica,sans-Serif" font-size="10.00">ExchangeObserver &gt;::GetObserver</text>
</a>
</g>
</g>
<!-- Node71&#45;&gt;Node76 -->
<g id="edge7" class="edge"><title>Node71&#45;&gt;Node76</title>
<path fill="none" stroke="midnightblue" d="M283.233,-51.0595C301.167,-46.8843 321.194,-42.222 340.097,-37.8214"/>
<polygon fill="midnightblue" stroke="midnightblue" points="340.916,-41.2244 349.862,-35.5481 339.329,-34.4067 340.916,-41.2244"/>
</g>
<!-- Node73 -->
<g id="node5" class="node"><title>Node73</title>
<g id="a_node5"><a xlink:href="../../d1/d2a/classinfra_1_1_bounded_string_base.html#aef23e4250cad2fdc69ccc39f68734233" target="_top" xlink:title="infra::BoundedStringBase\l::begin">
<polygon fill="white" stroke="black" points="546,-109.5 546,-139.5 673,-139.5 673,-109.5 546,-109.5"/>
<text text-anchor="start" x="554" y="-127.5" font-family="Helvetica,sans-Serif" font-size="10.00">infra::BoundedStringBase</text>
<text text-anchor="middle" x="609.5" y="-116.5" font-family="Helvetica,sans-Serif" font-size="10.00">::begin</text>
</a>
</g>
</g>
<!-- Node72&#45;&gt;Node73 -->
<g id="edge4" class="edge"><title>Node72&#45;&gt;Node73</title>
<path fill="none" stroke="midnightblue" d="M461.515,-107.658C483.629,-110.192 510.827,-113.308 535.79,-116.169"/>
<polygon fill="midnightblue" stroke="midnightblue" points="535.627,-119.673 545.961,-117.334 536.424,-112.718 535.627,-119.673"/>
</g>
<!-- Node74 -->
<g id="node6" class="node"><title>Node74</title>
<g id="a_node6"><a xlink:href="../../d1/d2a/classinfra_1_1_bounded_string_base.html#af5021f1ea3898146d0a55c2895f07dbf" target="_top" xlink:title="infra::BoundedStringBase::end">
<polygon fill="white" stroke="black" points="535,-71 535,-90 684,-90 684,-71 535,-71"/>
<text text-anchor="middle" x="609.5" y="-78" font-family="Helvetica,sans-Serif" font-size="10.00">infra::BoundedStringBase::end</text>
</a>
</g>
</g>
<!-- Node72&#45;&gt;Node74 -->
<g id="edge5" class="edge"><title>Node72&#45;&gt;Node74</title>
<path fill="none" stroke="midnightblue" d="M461.515,-97.342C480.451,-95.1723 503.114,-92.5755 524.909,-90.0781"/>
<polygon fill="midnightblue" stroke="midnightblue" points="525.309,-93.5553 534.846,-88.9395 524.512,-86.6008 525.309,-93.5553"/>
</g>
</g>
</svg>
