<?xml version="1.0" encoding="UTF-8" standalone="no"?>
<!DOCTYPE svg PUBLIC "-//W3C//DTD SVG 1.1//EN"
 "http://www.w3.org/Graphics/SVG/1.1/DTD/svg11.dtd">
<!-- Generated by graphviz version 2.38.0 (20140413.2041)
 -->
<!-- Title: services::DatagramBsd::TrySend Pages: 1 -->
<svg width="442pt" height="166pt"
 viewBox="0.00 0.00 442.00 165.50" xmlns="http://www.w3.org/2000/svg" xmlns:xlink="http://www.w3.org/1999/xlink">
<g id="graph0" class="graph" transform="scale(1 1) rotate(0) translate(4 161.5)">
<title>services::DatagramBsd::TrySend</title>
<polygon fill="white" stroke="none" points="-4,4 -4,-161.5 438,-161.5 438,4 -4,4"/>
<!-- Node114 -->
<g id="node1" class="node"><title>Node114</title>
<polygon fill="#bfbfbf" stroke="black" points="0,-66.5 0,-96.5 117,-96.5 117,-66.5 0,-66.5"/>
<text text-anchor="start" x="8" y="-84.5" font-family="Helvetica,sans-Serif" font-size="10.00">services::DatagramBsd</text>
<text text-anchor="middle" x="58.5" y="-73.5" font-family="Helvetica,sans-Serif" font-size="10.00">::TrySend</text>
</g>
<!-- Node115 -->
<g id="node2" class="node"><title>Node115</title>
<g id="a_node2"><a xlink:href="../../d1/d3f/classservices_1_1_datagram_bsd.html#aca4978658bb0d48c8dda99b879efd44e" target="_top" xlink:title="services::DatagramBsd\l::Send">
<polygon fill="white" stroke="black" points="153,-66.5 153,-96.5 270,-96.5 270,-66.5 153,-66.5"/>
<text text-anchor="start" x="161" y="-84.5" font-family="Helvetica,sans-Serif" font-size="10.00">services::DatagramBsd</text>
<text text-anchor="middle" x="211.5" y="-73.5" font-family="Helvetica,sans-Serif" font-size="10.00">::Send</text>
</a>
</g>
</g>
<!-- Node114&#45;&gt;Node115 -->
<g id="edge1" class="edge"><title>Node114&#45;&gt;Node115</title>
<path fill="none" stroke="midnightblue" d="M117.017,-81.5C125.464,-81.5 134.229,-81.5 142.856,-81.5"/>
<polygon fill="midnightblue" stroke="midnightblue" points="142.893,-85.0001 152.893,-81.5 142.892,-78.0001 142.893,-85.0001"/>
</g>
<!-- Node116 -->
<g id="node3" class="node"><title>Node116</title>
<g id="a_node3"><a xlink:href="../../db/d91/namespaceservices.html#aa2955038d028912fedb9998664996b37" target="_top" xlink:title="services::ConvertToUint32">
<polygon fill="white" stroke="black" points="306,-138 306,-157 434,-157 434,-138 306,-138"/>
<text text-anchor="middle" x="370" y="-145" font-family="Helvetica,sans-Serif" font-size="10.00">services::ConvertToUint32</text>
</a>
</g>
</g>
<!-- Node115&#45;&gt;Node116 -->
<g id="edge2" class="edge"><title>Node115&#45;&gt;Node116</title>
<path fill="none" stroke="midnightblue" d="M239.34,-96.5506C257.727,-106.47 282.879,-119.283 306,-128.5 311.575,-130.722 317.514,-132.833 323.434,-134.783"/>
<polygon fill="midnightblue" stroke="midnightblue" points="322.721,-138.229 333.311,-137.907 324.832,-131.554 322.721,-138.229"/>
</g>
<!-- Node117 -->
<g id="node4" class="node"><title>Node117</title>
<g id="a_node4"><a xlink:href="../../dc/de7/classinfra_1_1_bounded_vector.html#a2acdc0e18f57006a615569baaf8232e7" target="_top" xlink:title="infra::BoundedVector\l::data">
<polygon fill="white" stroke="black" points="316.5,-88.5 316.5,-118.5 423.5,-118.5 423.5,-88.5 316.5,-88.5"/>
<text text-anchor="start" x="324.5" y="-106.5" font-family="Helvetica,sans-Serif" font-size="10.00">infra::BoundedVector</text>
<text text-anchor="middle" x="370" y="-95.5" font-family="Helvetica,sans-Serif" font-size="10.00">::data</text>
</a>
</g>
</g>
<!-- Node115&#45;&gt;Node117 -->
<g id="edge3" class="edge"><title>Node115&#45;&gt;Node117</title>
<path fill="none" stroke="midnightblue" d="M270.33,-89.6295C281.981,-91.2673 294.281,-92.9964 306.095,-94.6571"/>
<polygon fill="midnightblue" stroke="midnightblue" points="305.934,-98.1688 316.324,-96.095 306.908,-91.237 305.934,-98.1688"/>
</g>
<!-- Node118 -->
<g id="node5" class="node"><title>Node118</title>
<g id="a_node5"><a xlink:href="../../da/d2a/classinfra_1_1_variant.html#a5c22ee95a815d91911bf3ce196c852a0" target="_top" xlink:title="infra::Variant::Get">
<polygon fill="white" stroke="black" points="323.5,-50 323.5,-69 416.5,-69 416.5,-50 323.5,-50"/>
<text text-anchor="middle" x="370" y="-57" font-family="Helvetica,sans-Serif" font-size="10.00">infra::Variant::Get</text>
</a>
</g>
</g>
<!-- Node115&#45;&gt;Node118 -->
<g id="edge4" class="edge"><title>Node115&#45;&gt;Node118</title>
<path fill="none" stroke="midnightblue" d="M270.33,-73.3705C284.343,-71.4006 299.296,-69.2986 313.213,-67.3423"/>
<polygon fill="midnightblue" stroke="midnightblue" points="313.72,-70.8055 323.135,-65.9474 312.745,-63.8737 313.72,-70.8055"/>
</g>
<!-- Node119 -->
<g id="node6" class="node"><title>Node119</title>
<g id="a_node6"><a xlink:href="../../dc/de7/classinfra_1_1_bounded_vector.html#a605f344af39e74f48bb205c86f57b5da" target="_top" xlink:title="infra::BoundedVector\l::size">
<polygon fill="white" stroke="black" points="316.5,-0.5 316.5,-30.5 423.5,-30.5 423.5,-0.5 316.5,-0.5"/>
<text text-anchor="start" x="324.5" y="-18.5" font-family="Helvetica,sans-Serif" font-size="10.00">infra::BoundedVector</text>
<text text-anchor="middle" x="370" y="-7.5" font-family="Helvetica,sans-Serif" font-size="10.00">::size</text>
</a>
</g>
</g>
<!-- Node115&#45;&gt;Node119 -->
<g id="edge5" class="edge"><title>Node115&#45;&gt;Node119</title>
<path fill="none" stroke="midnightblue" d="M246.133,-66.4077C263.875,-58.5334 286.045,-48.8313 306,-40.5 310.764,-38.5109 315.746,-36.4692 320.731,-34.4515"/>
<polygon fill="midnightblue" stroke="midnightblue" points="322.29,-37.597 330.264,-30.6208 319.68,-31.1018 322.29,-37.597"/>
</g>
</g>
</svg>
