<?xml version="1.0" encoding="UTF-8" standalone="no"?>
<!DOCTYPE svg PUBLIC "-//W3C//DTD SVG 1.1//EN"
 "http://www.w3.org/Graphics/SVG/1.1/DTD/svg11.dtd">
<!-- Generated by graphviz version 2.38.0 (20140413.2041)
 -->
<!-- Title: services::DatagramBsd::DatagramBsd Pages: 1 -->
<svg width="845pt" height="334pt"
 viewBox="0.00 0.00 845.00 334.00" xmlns="http://www.w3.org/2000/svg" xmlns:xlink="http://www.w3.org/1999/xlink">
<g id="graph0" class="graph" transform="scale(1 1) rotate(0) translate(4 330)">
<title>services::DatagramBsd::DatagramBsd</title>
<polygon fill="white" stroke="none" points="-4,4 -4,-330 841,-330 841,4 -4,4"/>
<!-- Node26 -->
<g id="node1" class="node"><title>Node26</title>
<polygon fill="#bfbfbf" stroke="black" points="0,-221.5 0,-251.5 117,-251.5 117,-221.5 0,-221.5"/>
<text text-anchor="start" x="8" y="-239.5" font-family="Helvetica,sans-Serif" font-size="10.00">services::DatagramBsd</text>
<text text-anchor="middle" x="58.5" y="-228.5" font-family="Helvetica,sans-Serif" font-size="10.00">::DatagramBsd</text>
</g>
<!-- Node27 -->
<g id="node2" class="node"><title>Node27</title>
<g id="a_node2"><a xlink:href="../../dc/d4c/classinfra_1_1_single_observer.html#a7691ac8d2aa56fb17be6a73d1b47e9b5" target="_top" xlink:title="infra::SingleObserver\l::Attach">
<polygon fill="white" stroke="black" points="158.5,-295.5 158.5,-325.5 264.5,-325.5 264.5,-295.5 158.5,-295.5"/>
<text text-anchor="start" x="166.5" y="-313.5" font-family="Helvetica,sans-Serif" font-size="10.00">infra::SingleObserver</text>
<text text-anchor="middle" x="211.5" y="-302.5" font-family="Helvetica,sans-Serif" font-size="10.00">::Attach</text>
</a>
</g>
</g>
<!-- Node26&#45;&gt;Node27 -->
<g id="edge1" class="edge"><title>Node26&#45;&gt;Node27</title>
<path fill="none" stroke="midnightblue" d="M86.1557,-251.632C104.675,-261.927 130.052,-275.606 153,-286.5 156.374,-288.102 159.885,-289.708 163.433,-291.289"/>
<polygon fill="midnightblue" stroke="midnightblue" points="162.28,-294.605 172.846,-295.392 165.077,-288.188 162.28,-294.605"/>
</g>
<!-- Node28 -->
<g id="node3" class="node"><title>Node28</title>
<g id="a_node3"><a xlink:href="../../d1/d3f/classservices_1_1_datagram_bsd.html#a3e4804f20d494adbddb7c0409cc81b8d" target="_top" xlink:title="services::DatagramBsd\l::BindLocal">
<polygon fill="white" stroke="black" points="153,-246.5 153,-276.5 270,-276.5 270,-246.5 153,-246.5"/>
<text text-anchor="start" x="161" y="-264.5" font-family="Helvetica,sans-Serif" font-size="10.00">services::DatagramBsd</text>
<text text-anchor="middle" x="211.5" y="-253.5" font-family="Helvetica,sans-Serif" font-size="10.00">::BindLocal</text>
</a>
</g>
</g>
<!-- Node26&#45;&gt;Node28 -->
<g id="edge2" class="edge"><title>Node26&#45;&gt;Node28</title>
<path fill="none" stroke="midnightblue" d="M117.017,-246.023C125.464,-247.421 134.229,-248.872 142.856,-250.301"/>
<polygon fill="midnightblue" stroke="midnightblue" points="142.455,-253.782 152.893,-251.962 143.599,-246.876 142.455,-253.782"/>
</g>
<!-- Node29 -->
<g id="node4" class="node"><title>Node29</title>
<g id="a_node4"><a xlink:href="../../d1/d3f/classservices_1_1_datagram_bsd.html#ae8ba6d6dc3bf1c052257705787359199" target="_top" xlink:title="services::DatagramBsd\l::BindRemote">
<polygon fill="white" stroke="black" points="153,-197.5 153,-227.5 270,-227.5 270,-197.5 153,-197.5"/>
<text text-anchor="start" x="161" y="-215.5" font-family="Helvetica,sans-Serif" font-size="10.00">services::DatagramBsd</text>
<text text-anchor="middle" x="211.5" y="-204.5" font-family="Helvetica,sans-Serif" font-size="10.00">::BindRemote</text>
</a>
</g>
</g>
<!-- Node26&#45;&gt;Node29 -->
<g id="edge3" class="edge"><title>Node26&#45;&gt;Node29</title>
<path fill="none" stroke="midnightblue" d="M117.017,-227.358C125.464,-226.016 134.229,-224.623 142.856,-223.251"/>
<polygon fill="midnightblue" stroke="midnightblue" points="143.566,-226.683 152.893,-221.656 142.467,-219.769 143.566,-226.683"/>
</g>
<!-- Node32 -->
<g id="node7" class="node"><title>Node32</title>
<g id="a_node7"><a xlink:href="../../d1/d3f/classservices_1_1_datagram_bsd.html#a18e1ec8aa7a2f5e0a8401af799af99f9" target="_top" xlink:title="services::DatagramBsd\l::InitSocket">
<polygon fill="white" stroke="black" points="153,-120.5 153,-150.5 270,-150.5 270,-120.5 153,-120.5"/>
<text text-anchor="start" x="161" y="-138.5" font-family="Helvetica,sans-Serif" font-size="10.00">services::DatagramBsd</text>
<text text-anchor="middle" x="211.5" y="-127.5" font-family="Helvetica,sans-Serif" font-size="10.00">::InitSocket</text>
</a>
</g>
</g>
<!-- Node26&#45;&gt;Node32 -->
<g id="edge6" class="edge"><title>Node26&#45;&gt;Node32</title>
<path fill="none" stroke="midnightblue" d="M82.1062,-221.379C107.904,-204.124 150.26,-175.793 179.216,-156.425"/>
<polygon fill="midnightblue" stroke="midnightblue" points="181.373,-159.193 187.739,-150.724 177.481,-153.375 181.373,-159.193"/>
</g>
<!-- Node30 -->
<g id="node5" class="node"><title>Node30</title>
<g id="a_node5"><a xlink:href="../../db/d91/namespaceservices.html#aa2955038d028912fedb9998664996b37" target="_top" xlink:title="services::ConvertToUint32">
<polygon fill="white" stroke="black" points="313.5,-241 313.5,-260 441.5,-260 441.5,-241 313.5,-241"/>
<text text-anchor="middle" x="377.5" y="-248" font-family="Helvetica,sans-Serif" font-size="10.00">services::ConvertToUint32</text>
</a>
</g>
</g>
<!-- Node29&#45;&gt;Node30 -->
<g id="edge4" class="edge"><title>Node29&#45;&gt;Node30</title>
<path fill="none" stroke="midnightblue" d="M270.32,-225.897C288.282,-230.059 307.944,-234.615 325.413,-238.663"/>
<polygon fill="midnightblue" stroke="midnightblue" points="324.884,-242.133 335.416,-240.981 326.464,-235.314 324.884,-242.133"/>
</g>
<!-- Node31 -->
<g id="node6" class="node"><title>Node31</title>
<g id="a_node6"><a xlink:href="../../da/d2a/classinfra_1_1_variant.html#a5c22ee95a815d91911bf3ce196c852a0" target="_top" xlink:title="infra::Variant::Get">
<polygon fill="white" stroke="black" points="331,-203 331,-222 424,-222 424,-203 331,-203"/>
<text text-anchor="middle" x="377.5" y="-210" font-family="Helvetica,sans-Serif" font-size="10.00">infra::Variant::Get</text>
</a>
</g>
</g>
<!-- Node29&#45;&gt;Node31 -->
<g id="edge5" class="edge"><title>Node29&#45;&gt;Node31</title>
<path fill="none" stroke="midnightblue" d="M270.32,-212.5C286.585,-212.5 304.243,-212.5 320.405,-212.5"/>
<polygon fill="midnightblue" stroke="midnightblue" points="320.78,-216 330.78,-212.5 320.78,-209 320.78,-216"/>
</g>
<!-- Node33 -->
<g id="node8" class="node"><title>Node33</title>
<g id="a_node8"><a xlink:href="../../d3/d0e/classinfra_1_1_interface_connector.html#aed1d9e952d3d0dfa68e59ee4e868b380" target="_top" xlink:title="infra::InterfaceConnector\l\&lt; EventDispatcherWorker\l \&gt;::Instance">
<polygon fill="white" stroke="black" points="313.5,-143 313.5,-184 441.5,-184 441.5,-143 313.5,-143"/>
<text text-anchor="start" x="321.5" y="-172" font-family="Helvetica,sans-Serif" font-size="10.00">infra::InterfaceConnector</text>
<text text-anchor="start" x="321.5" y="-161" font-family="Helvetica,sans-Serif" font-size="10.00">&lt; EventDispatcherWorker</text>
<text text-anchor="middle" x="377.5" y="-150" font-family="Helvetica,sans-Serif" font-size="10.00"> &gt;::Instance</text>
</a>
</g>
</g>
<!-- Node32&#45;&gt;Node33 -->
<g id="edge7" class="edge"><title>Node32&#45;&gt;Node33</title>
<path fill="none" stroke="midnightblue" d="M270.32,-145.372C280.982,-147.192 292.242,-149.115 303.287,-151"/>
<polygon fill="midnightblue" stroke="midnightblue" points="302.901,-154.485 313.347,-152.718 304.079,-147.585 302.901,-154.485"/>
</g>
<!-- Node34 -->
<g id="node9" class="node"><title>Node34</title>
<g id="a_node9"><a xlink:href="../../d7/d34/classinfra_1_1_event_dispatcher_worker.html#a5922b8fd5101b15f20b639fcd11fa272" target="_top" xlink:title="infra::EventDispatcherWorker\l::Schedule">
<polygon fill="white" stroke="black" points="306,-93.5 306,-123.5 449,-123.5 449,-93.5 306,-93.5"/>
<text text-anchor="start" x="314" y="-111.5" font-family="Helvetica,sans-Serif" font-size="10.00">infra::EventDispatcherWorker</text>
<text text-anchor="middle" x="377.5" y="-100.5" font-family="Helvetica,sans-Serif" font-size="10.00">::Schedule</text>
</a>
</g>
</g>
<!-- Node32&#45;&gt;Node34 -->
<g id="edge8" class="edge"><title>Node32&#45;&gt;Node34</title>
<path fill="none" stroke="midnightblue" d="M270.32,-125.981C278.606,-124.617 287.253,-123.193 295.879,-121.773"/>
<polygon fill="midnightblue" stroke="midnightblue" points="296.676,-125.189 305.974,-120.111 295.538,-118.282 296.676,-125.189"/>
</g>
<!-- Node35 -->
<g id="node10" class="node"><title>Node35</title>
<g id="a_node10"><a xlink:href="../../d1/d3f/classservices_1_1_datagram_bsd.html#a6dac6d4cc7bd7c41e4c92ffdefc75feb" target="_top" xlink:title="services::DatagramBsd\l::Receive">
<polygon fill="white" stroke="black" points="319,-44.5 319,-74.5 436,-74.5 436,-44.5 319,-44.5"/>
<text text-anchor="start" x="327" y="-62.5" font-family="Helvetica,sans-Serif" font-size="10.00">services::DatagramBsd</text>
<text text-anchor="middle" x="377.5" y="-51.5" font-family="Helvetica,sans-Serif" font-size="10.00">::Receive</text>
</a>
</g>
</g>
<!-- Node32&#45;&gt;Node35 -->
<g id="edge9" class="edge"><title>Node32&#45;&gt;Node35</title>
<path fill="none" stroke="midnightblue" d="M236.88,-120.349C255.394,-109.24 281.724,-94.278 306,-83.5 310.099,-81.6801 314.382,-79.9128 318.723,-78.2172"/>
<polygon fill="midnightblue" stroke="midnightblue" points="320.143,-81.4226 328.271,-74.6272 317.679,-74.8704 320.143,-81.4226"/>
</g>
<!-- Node36 -->
<g id="node11" class="node"><title>Node36</title>
<g id="a_node11"><a xlink:href="../../d0/de3/namespaceinfra.html#afe38b7d4318537de2f28b244211c4275" target="_top" xlink:title="infra::MakeRange">
<polygon fill="white" stroke="black" points="522.5,-88 522.5,-107 614.5,-107 614.5,-88 522.5,-88"/>
<text text-anchor="middle" x="568.5" y="-95" font-family="Helvetica,sans-Serif" font-size="10.00">infra::MakeRange</text>
</a>
</g>
</g>
<!-- Node35&#45;&gt;Node36 -->
<g id="edge10" class="edge"><title>Node35&#45;&gt;Node36</title>
<path fill="none" stroke="midnightblue" d="M436.233,-71.1077C460.455,-75.9777 488.495,-81.6154 512.425,-86.4267"/>
<polygon fill="midnightblue" stroke="midnightblue" points="511.912,-89.8936 522.406,-88.4335 513.292,-83.031 511.912,-89.8936"/>
</g>
<!-- Node39 -->
<g id="node14" class="node"><title>Node39</title>
<g id="a_node14"><a xlink:href="../../db/d91/namespaceservices.html#a82b8b8d9694834be0149747c77ac7cd7" target="_top" xlink:title="services::ConvertFromUint32">
<polygon fill="white" stroke="black" points="498.5,-50 498.5,-69 638.5,-69 638.5,-50 498.5,-50"/>
<text text-anchor="middle" x="568.5" y="-57" font-family="Helvetica,sans-Serif" font-size="10.00">services::ConvertFromUint32</text>
</a>
</g>
</g>
<!-- Node35&#45;&gt;Node39 -->
<g id="edge13" class="edge"><title>Node35&#45;&gt;Node39</title>
<path fill="none" stroke="midnightblue" d="M436.233,-59.5C452.658,-59.5 470.839,-59.5 488.304,-59.5"/>
<polygon fill="midnightblue" stroke="midnightblue" points="488.485,-63.0001 498.485,-59.5 488.485,-56.0001 488.485,-63.0001"/>
</g>
<!-- Node40 -->
<g id="node15" class="node"><title>Node40</title>
<g id="a_node15"><a xlink:href="../../d1/db2/classinfra_1_1_subject.html#ae6779efb6b9b18a7638fef4ce0553466" target="_top" xlink:title="infra::Subject\&lt; Datagram\lExchangeObserver \&gt;::GetObserver">
<polygon fill="white" stroke="black" points="485,-0.5 485,-30.5 652,-30.5 652,-0.5 485,-0.5"/>
<text text-anchor="start" x="493" y="-18.5" font-family="Helvetica,sans-Serif" font-size="10.00">infra::Subject&lt; Datagram</text>
<text text-anchor="middle" x="568.5" y="-7.5" font-family="Helvetica,sans-Serif" font-size="10.00">ExchangeObserver &gt;::GetObserver</text>
</a>
</g>
</g>
<!-- Node35&#45;&gt;Node40 -->
<g id="edge14" class="edge"><title>Node35&#45;&gt;Node40</title>
<path fill="none" stroke="midnightblue" d="M436.233,-46.0595C454.167,-41.8843 474.194,-37.222 493.097,-32.8214"/>
<polygon fill="midnightblue" stroke="midnightblue" points="493.916,-36.2244 502.862,-30.5481 492.329,-29.4067 493.916,-36.2244"/>
</g>
<!-- Node37 -->
<g id="node12" class="node"><title>Node37</title>
<g id="a_node12"><a xlink:href="../../d1/d2a/classinfra_1_1_bounded_string_base.html#aef23e4250cad2fdc69ccc39f68734233" target="_top" xlink:title="infra::BoundedStringBase\l::begin">
<polygon fill="white" stroke="black" points="699,-104.5 699,-134.5 826,-134.5 826,-104.5 699,-104.5"/>
<text text-anchor="start" x="707" y="-122.5" font-family="Helvetica,sans-Serif" font-size="10.00">infra::BoundedStringBase</text>
<text text-anchor="middle" x="762.5" y="-111.5" font-family="Helvetica,sans-Serif" font-size="10.00">::begin</text>
</a>
</g>
</g>
<!-- Node36&#45;&gt;Node37 -->
<g id="edge11" class="edge"><title>Node36&#45;&gt;Node37</title>
<path fill="none" stroke="midnightblue" d="M614.515,-102.658C636.629,-105.192 663.827,-108.308 688.79,-111.169"/>
<polygon fill="midnightblue" stroke="midnightblue" points="688.627,-114.673 698.961,-112.334 689.424,-107.718 688.627,-114.673"/>
</g>
<!-- Node38 -->
<g id="node13" class="node"><title>Node38</title>
<g id="a_node13"><a xlink:href="../../d1/d2a/classinfra_1_1_bounded_string_base.html#af5021f1ea3898146d0a55c2895f07dbf" target="_top" xlink:title="infra::BoundedStringBase::end">
<polygon fill="white" stroke="black" points="688,-66 688,-85 837,-85 837,-66 688,-66"/>
<text text-anchor="middle" x="762.5" y="-73" font-family="Helvetica,sans-Serif" font-size="10.00">infra::BoundedStringBase::end</text>
</a>
</g>
</g>
<!-- Node36&#45;&gt;Node38 -->
<g id="edge12" class="edge"><title>Node36&#45;&gt;Node38</title>
<path fill="none" stroke="midnightblue" d="M614.515,-92.342C633.451,-90.1723 656.114,-87.5755 677.909,-85.0781"/>
<polygon fill="midnightblue" stroke="midnightblue" points="678.309,-88.5553 687.846,-83.9395 677.512,-81.6008 678.309,-88.5553"/>
</g>
</g>
</svg>
