<?xml version="1.0" encoding="UTF-8" standalone="no"?>
<!DOCTYPE svg PUBLIC "-//W3C//DTD SVG 1.1//EN"
 "http://www.w3.org/Graphics/SVG/1.1/DTD/svg11.dtd">
<!-- Generated by graphviz version 2.38.0 (20140413.2041)
 -->
<!-- Title: infra::TextOutputStream::WithErrorPolicy Pages: 1 -->
<svg width="128pt" height="151pt"
 viewBox="0.00 0.00 128.00 151.00" xmlns="http://www.w3.org/2000/svg" xmlns:xlink="http://www.w3.org/1999/xlink">
<g id="graph0" class="graph" transform="scale(1 1) rotate(0) translate(4 147)">
<title>infra::TextOutputStream::WithErrorPolicy</title>
<polygon fill="white" stroke="none" points="-4,4 -4,-147 124,-147 124,4 -4,4"/>
<!-- Node0 -->
<g id="node1" class="node"><title>Node0</title>
<polygon fill="#bfbfbf" stroke="black" points="0,-0.5 0,-30.5 120,-30.5 120,-0.5 0,-0.5"/>
<text text-anchor="start" x="8" y="-18.5" font-family="Helvetica,sans-Serif" font-size="10.00">infra::TextOutputStream</text>
<text text-anchor="middle" x="60" y="-7.5" font-family="Helvetica,sans-Serif" font-size="10.00">::WithErrorPolicy</text>
</g>
<!-- Node1 -->
<g id="node2" class="node"><title>Node1</title>
<g id="a_node2"><a xlink:href="../../de/dad/classinfra_1_1_text_output_stream.html" target="_top" xlink:title="infra::TextOutputStream">
<polygon fill="white" stroke="black" points="0,-67.5 0,-86.5 120,-86.5 120,-67.5 0,-67.5"/>
<text text-anchor="middle" x="60" y="-74.5" font-family="Helvetica,sans-Serif" font-size="10.00">infra::TextOutputStream</text>
</a>
</g>
</g>
<!-- Node1&#45;&gt;Node0 -->
<g id="edge1" class="edge"><title>Node1&#45;&gt;Node0</title>
<path fill="none" stroke="midnightblue" d="M60,-57.2349C60,-48.5864 60,-38.4969 60,-30.523"/>
<polygon fill="midnightblue" stroke="midnightblue" points="56.5001,-57.4751 60,-67.4751 63.5001,-57.4751 56.5001,-57.4751"/>
</g>
<!-- Node2 -->
<g id="node3" class="node"><title>Node2</title>
<g id="a_node3"><a xlink:href="../../d6/d97/classinfra_1_1_output_stream.html" target="_top" xlink:title="infra::OutputStream">
<polygon fill="white" stroke="black" points="9.5,-123.5 9.5,-142.5 110.5,-142.5 110.5,-123.5 9.5,-123.5"/>
<text text-anchor="middle" x="60" y="-130.5" font-family="Helvetica,sans-Serif" font-size="10.00">infra::OutputStream</text>
</a>
</g>
</g>
<!-- Node2&#45;&gt;Node1 -->
<g id="edge2" class="edge"><title>Node2&#45;&gt;Node1</title>
<path fill="none" stroke="midnightblue" d="M60,-112.805C60,-103.91 60,-93.7798 60,-86.7511"/>
<polygon fill="midnightblue" stroke="midnightblue" points="56.5001,-113.083 60,-123.083 63.5001,-113.083 56.5001,-113.083"/>
</g>
</g>
</svg>
