<?xml version="1.0" encoding="UTF-8" standalone="no"?>
<!DOCTYPE svg PUBLIC "-//W3C//DTD SVG 1.1//EN"
 "http://www.w3.org/Graphics/SVG/1.1/DTD/svg11.dtd">
<!-- Generated by graphviz version 2.38.0 (20140413.2041)
 -->
<!-- Title: services::StreamEchoServer Pages: 1 -->
<!--zoomable 188 -->
<svg id="main" version="1.1" xmlns="http://www.w3.org/2000/svg" xmlns:xlink="http://www.w3.org/1999/xlink" xml:space="preserve" onload="init(evt)">
<style type="text/css"><![CDATA[
.edge:hover path { stroke: red; }
.edge:hover polygon { stroke: red; fill: red; }
]]></style>
<script type="text/javascript"><![CDATA[
var edges = document.getElementsByTagName('g');
if (edges && edges.length) {
  for (var i=0;i<edges.length;i++) {
    if (edges[i].id.substr(0,4)=='edge') {
      edges[i].setAttribute('class','edge');
    }
  }
}
]]></script>
        <defs>
                <circle id="rim" cx="0" cy="0" r="7"/>
                <circle id="rim2" cx="0" cy="0" r="3.5"/>
                <g id="zoomPlus">
                        <use xlink:href="#rim" fill="#404040">
                                <set attributeName="fill" to="#808080" begin="zoomplus.mouseover" end="zoomplus.mouseout"/>
                        </use>
                        <path d="M-4,0h8M0,-4v8" fill="none" stroke="white" stroke-width="1.5" pointer-events="none"/>
                </g>
                <g id="zoomMin">
                        <use xlink:href="#rim" fill="#404040">
                                <set attributeName="fill" to="#808080" begin="zoomminus.mouseover" end="zoomminus.mouseout"/>
                        </use>
                        <path d="M-4,0h8" fill="none" stroke="white" stroke-width="1.5" pointer-events="none"/>
                </g>
                <g id="dirArrow">
                        <path fill="none" stroke="white" stroke-width="1.5" d="M0,-3.0v7 M-2.5,-0.5L0,-3.0L2.5,-0.5"/>
                </g>
               <g id="resetDef">
                       <use xlink:href="#rim2" fill="#404040">
                               <set attributeName="fill" to="#808080" begin="reset.mouseover" end="reset.mouseout"/>
                       </use>
               </g>
        </defs>

<script type="text/javascript">
var viewWidth = 808;
var viewHeight = 188;
var sectionId = 'dynsection-1';
</script>
<script xlink:href="../../svgpan.js"/>
<svg id="graph" class="graph">
<g id="viewport">
<title>services::StreamEchoServer</title>
<polygon fill="white" stroke="none" points="-4,4 -4,-184 804,-184 804,4 -4,4"/>
<!-- Node2 -->
<g id="node1" class="node"><title>Node2</title>
<polygon fill="#bfbfbf" stroke="black" points="661,-63.5 661,-82.5 800,-82.5 800,-63.5 661,-63.5"/>
<text text-anchor="middle" x="730.5" y="-70.5" font-family="Helvetica,sans-Serif" font-size="10.00">services::StreamEchoServer</text>
</g>
<!-- Node3 -->
<g id="node2" class="node"><title>Node3</title>
<g id="a_node2"><a xlink:href="../../d8/d79/classservices_1_1_server_connection_observer_factory.html" target="_top" xlink:title="services::ServerConnection\lObserverFactory">
<polygon fill="white" stroke="black" points="420,-127 420,-157 554,-157 554,-127 420,-127"/>
<text text-anchor="start" x="428" y="-145" font-family="Helvetica,sans-Serif" font-size="10.00">services::ServerConnection</text>
<text text-anchor="middle" x="487" y="-134" font-family="Helvetica,sans-Serif" font-size="10.00">ObserverFactory</text>
</a>
</g>
</g>
<!-- Node3&#45;&gt;Node2 -->
<g id="edge1" class="edge"><title>Node3&#45;&gt;Node2</title>
<path fill="none" stroke="midnightblue" d="M563.93,-125.047C589.232,-118.958 617.47,-111.682 643,-104 664.234,-97.611 687.911,-89.0208 705.117,-82.5033"/>
<polygon fill="midnightblue" stroke="midnightblue" points="562.939,-121.685 554.023,-127.408 564.561,-128.495 562.939,-121.685"/>
</g>
<!-- Node4 -->
<g id="node3" class="node"><title>Node4</title>
<g id="a_node3"><a xlink:href="../../d1/d17/classinfra_1_1_shared_ptr.html" target="_top" xlink:title="infra::SharedPtr\&lt; void \&gt;">
<polygon fill="white" stroke="black" points="427.5,-88.5 427.5,-107.5 546.5,-107.5 546.5,-88.5 427.5,-88.5"/>
<text text-anchor="middle" x="487" y="-95.5" font-family="Helvetica,sans-Serif" font-size="10.00">infra::SharedPtr&lt; void &gt;</text>
</a>
</g>
</g>
<!-- Node4&#45;&gt;Node2 -->
<g id="edge2" class="edge"><title>Node4&#45;&gt;Node2</title>
<path fill="none" stroke="#9a32cd" stroke-dasharray="5,2" d="M557.078,-90.8491C589.544,-87.4882 628.151,-83.4916 660.595,-80.133"/>
<polygon fill="#9a32cd" stroke="#9a32cd" points="556.355,-87.4051 546.769,-91.9163 557.076,-94.3679 556.355,-87.4051"/>
<text text-anchor="middle" x="609" y="-92" font-family="Helvetica,sans-Serif" font-size="10.00"> listenPort</text>
</g>
<!-- Node5 -->
<g id="node4" class="node"><title>Node5</title>
<g id="a_node4"><a xlink:href="../../dd/d9a/classinfra_1_1detail_1_1_shared_ptr_control.html" target="_top" xlink:title="infra::detail::SharedPtr\lControl">
<polygon fill="white" stroke="black" points="235,-110 235,-140 348,-140 348,-110 235,-110"/>
<text text-anchor="start" x="243" y="-128" font-family="Helvetica,sans-Serif" font-size="10.00">infra::detail::SharedPtr</text>
<text text-anchor="middle" x="291.5" y="-117" font-family="Helvetica,sans-Serif" font-size="10.00">Control</text>
</a>
</g>
</g>
<!-- Node5&#45;&gt;Node4 -->
<g id="edge3" class="edge"><title>Node5&#45;&gt;Node4</title>
<path fill="none" stroke="#9a32cd" stroke-dasharray="5,2" d="M358.298,-115.819C380.678,-112.696 405.528,-109.229 427.315,-106.189"/>
<polygon fill="#9a32cd" stroke="#9a32cd" points="357.629,-112.378 348.209,-117.227 358.596,-119.311 357.629,-112.378"/>
<text text-anchor="middle" x="382.5" y="-118" font-family="Helvetica,sans-Serif" font-size="10.00"> control</text>
</g>
<!-- Node6 -->
<g id="node5" class="node"><title>Node6</title>
<polygon fill="white" stroke="#bfbfbf" points="32,-160.5 32,-179.5 99,-179.5 99,-160.5 32,-160.5"/>
<text text-anchor="middle" x="65.5" y="-167.5" font-family="Helvetica,sans-Serif" font-size="10.00">const void *</text>
</g>
<!-- Node6&#45;&gt;Node5 -->
<g id="edge4" class="edge"><title>Node6&#45;&gt;Node5</title>
<path fill="none" stroke="#9a32cd" stroke-dasharray="5,2" d="M109.292,-165.57C139.595,-161.991 181.073,-156.193 217,-148 226.647,-145.8 236.858,-142.95 246.501,-140.01"/>
<polygon fill="#9a32cd" stroke="#9a32cd" points="108.603,-162.127 99.0675,-166.744 109.401,-169.081 108.603,-162.127"/>
<text text-anchor="middle" x="183" y="-163" font-family="Helvetica,sans-Serif" font-size="10.00"> object</text>
</g>
<!-- Node7 -->
<g id="node6" class="node"><title>Node7</title>
<polygon fill="white" stroke="#bfbfbf" points="40,-115.5 40,-134.5 91,-134.5 91,-115.5 40,-115.5"/>
<text text-anchor="middle" x="65.5" y="-122.5" font-family="Helvetica,sans-Serif" font-size="10.00">uint16_t</text>
</g>
<!-- Node7&#45;&gt;Node5 -->
<g id="edge5" class="edge"><title>Node7&#45;&gt;Node5</title>
<path fill="none" stroke="#9a32cd" stroke-dasharray="5,2" d="M101.722,-125C137.411,-125 193.153,-125 234.828,-125"/>
<polygon fill="#9a32cd" stroke="#9a32cd" points="101.328,-121.5 91.3278,-125 101.328,-128.5 101.328,-121.5"/>
<text text-anchor="middle" x="183" y="-139" font-family="Helvetica,sans-Serif" font-size="10.00"> weakPtrCount</text>
<text text-anchor="middle" x="183" y="-128" font-family="Helvetica,sans-Serif" font-size="10.00">sharedPtrCount</text>
</g>
<!-- Node8 -->
<g id="node7" class="node"><title>Node8</title>
<g id="a_node7"><a xlink:href="../../da/dcd/classinfra_1_1_shared_object_deleter.html" target="_top" xlink:title="infra::SharedObjectDeleter">
<polygon fill="white" stroke="black" points="0,-77.5 0,-96.5 131,-96.5 131,-77.5 0,-77.5"/>
<text text-anchor="middle" x="65.5" y="-84.5" font-family="Helvetica,sans-Serif" font-size="10.00">infra::SharedObjectDeleter</text>
</a>
</g>
</g>
<!-- Node8&#45;&gt;Node5 -->
<g id="edge6" class="edge"><title>Node8&#45;&gt;Node5</title>
<path fill="none" stroke="#9a32cd" stroke-dasharray="5,2" d="M141.258,-97.6756C165.466,-101.333 192.41,-105.615 217,-110 222.77,-111.029 228.782,-112.16 234.773,-113.324"/>
<polygon fill="#9a32cd" stroke="#9a32cd" points="141.473,-94.1689 131.065,-96.1481 140.436,-101.092 141.473,-94.1689"/>
<text text-anchor="middle" x="183" y="-113" font-family="Helvetica,sans-Serif" font-size="10.00"> deleter</text>
</g>
<!-- Node9 -->
<g id="node8" class="node"><title>Node9</title>
<polygon fill="white" stroke="#bfbfbf" points="271.5,-71.5 271.5,-90.5 311.5,-90.5 311.5,-71.5 271.5,-71.5"/>
<text text-anchor="middle" x="291.5" y="-78.5" font-family="Helvetica,sans-Serif" font-size="10.00">void *</text>
</g>
<!-- Node9&#45;&gt;Node4 -->
<g id="edge7" class="edge"><title>Node9&#45;&gt;Node4</title>
<path fill="none" stroke="#9a32cd" stroke-dasharray="5,2" d="M321.854,-82.1046C343.265,-83.044 372.968,-84.6239 399,-87 408.097,-87.8303 417.709,-88.8757 427.094,-89.9897"/>
<polygon fill="#9a32cd" stroke="#9a32cd" points="321.907,-78.6038 311.769,-81.6826 321.614,-85.5977 321.907,-78.6038"/>
<text text-anchor="middle" x="382.5" y="-90" font-family="Helvetica,sans-Serif" font-size="10.00"> object</text>
</g>
<!-- Node10 -->
<g id="node9" class="node"><title>Node10</title>
<g id="a_node9"><a xlink:href="../../d9/d7e/classinfra_1_1_shared_object_allocator.html" target="_top" xlink:title="infra::SharedObjectAllocator\l\&lt; T, ConstructionArgs \&gt;">
<polygon fill="white" stroke="black" points="418,-39 418,-69 556,-69 556,-39 418,-39"/>
<text text-anchor="start" x="426" y="-57" font-family="Helvetica,sans-Serif" font-size="10.00">infra::SharedObjectAllocator</text>
<text text-anchor="middle" x="487" y="-46" font-family="Helvetica,sans-Serif" font-size="10.00">&lt; T, ConstructionArgs &gt;</text>
</a>
</g>
</g>
<!-- Node10&#45;&gt;Node2 -->
<g id="edge8" class="edge"><title>Node10&#45;&gt;Node2</title>
<path fill="none" stroke="#9a32cd" stroke-dasharray="5,2" d="M566.039,-55.3382C590.696,-56.2118 618.022,-57.6468 643,-60 652.374,-60.8831 662.281,-62.101 671.913,-63.4396"/>
<polygon fill="#9a32cd" stroke="#9a32cd" points="566.122,-51.8392 556.012,-55.0082 565.892,-58.8354 566.122,-51.8392"/>
<text text-anchor="middle" x="609" y="-63" font-family="Helvetica,sans-Serif" font-size="10.00"> allocator</text>
</g>
<!-- Node11 -->
<g id="node10" class="node"><title>Node11</title>
<g id="a_node10"><a xlink:href="../../db/db4/classservices_1_1_connection_factory.html" target="_top" xlink:title="services::ConnectionFactory">
<polygon fill="white" stroke="black" points="417,-0.5 417,-19.5 557,-19.5 557,-0.5 417,-0.5"/>
<text text-anchor="middle" x="487" y="-7.5" font-family="Helvetica,sans-Serif" font-size="10.00">services::ConnectionFactory</text>
</a>
</g>
</g>
<!-- Node11&#45;&gt;Node2 -->
<g id="edge9" class="edge"><title>Node11&#45;&gt;Node2</title>
<path fill="none" stroke="#9a32cd" stroke-dasharray="5,2" d="M557.167,-21.4299C584.172,-26.5166 615.255,-33.1458 643,-41 665.031,-47.2367 689.44,-56.4907 706.696,-63.4451"/>
<polygon fill="#9a32cd" stroke="#9a32cd" points="557.501,-17.9325 547.032,-19.5566 556.229,-24.8159 557.501,-17.9325"/>
<text text-anchor="middle" x="609" y="-44" font-family="Helvetica,sans-Serif" font-size="10.00"> listenerFactory</text>
</g>
</g>
</svg>
        <g id="navigator" transform="translate(0 0)" fill="#404254">
                <rect fill="#f2f5e9" fill-opacity="0.5" stroke="#606060" stroke-width=".5" x="0" y="0" width="60" height="60"/>
                <use id="zoomplus" xlink:href="#zoomPlus" x="17" y="9" onmousedown="handleZoom(evt,'in')"/>
                <use id="zoomminus" xlink:href="#zoomMin" x="42" y="9" onmousedown="handleZoom(evt,'out')"/>
                <use id="reset" xlink:href="#resetDef" x="30" y="36" onmousedown="handleReset()"/>
                <g id="arrowUp" xlink:href="#dirArrow" transform="translate(30 24)" onmousedown="handlePan(0,-1)">
                  <use xlink:href="#rim" fill="#404040">
                        <set attributeName="fill" to="#808080" begin="arrowUp.mouseover" end="arrowUp.mouseout"/>
                  </use>
                  <path fill="none" stroke="white" stroke-width="1.5" d="M0,-3.0v7 M-2.5,-0.5L0,-3.0L2.5,-0.5"/>
                </g>
                <g id="arrowRight" xlink:href="#dirArrow" transform="rotate(90) translate(36 -43)" onmousedown="handlePan(1,0)">
                  <use xlink:href="#rim" fill="#404040">
                        <set attributeName="fill" to="#808080" begin="arrowRight.mouseover" end="arrowRight.mouseout"/>
                  </use>
                  <path fill="none" stroke="white" stroke-width="1.5" d="M0,-3.0v7 M-2.5,-0.5L0,-3.0L2.5,-0.5"/>
                </g>
                <g id="arrowDown" xlink:href="#dirArrow" transform="rotate(180) translate(-30 -48)" onmousedown="handlePan(0,1)">
                  <use xlink:href="#rim" fill="#404040">
                        <set attributeName="fill" to="#808080" begin="arrowDown.mouseover" end="arrowDown.mouseout"/>
                  </use>
                  <path fill="none" stroke="white" stroke-width="1.5" d="M0,-3.0v7 M-2.5,-0.5L0,-3.0L2.5,-0.5"/>
                </g>
                <g id="arrowLeft" xlink:href="#dirArrow" transform="rotate(270) translate(-36 17)" onmousedown="handlePan(-1,0)">
                  <use xlink:href="#rim" fill="#404040">
                        <set attributeName="fill" to="#808080" begin="arrowLeft.mouseover" end="arrowLeft.mouseout"/>
                  </use>
                  <path fill="none" stroke="white" stroke-width="1.5" d="M0,-3.0v7 M-2.5,-0.5L0,-3.0L2.5,-0.5"/>
                </g>
        </g>
        <svg viewBox="0 0 15 15" width="100%" height="30px" preserveAspectRatio="xMaxYMin meet">
         <g id="arrow_out" transform="scale(0.3 0.3)">
          <a xlink:href="classservices_1_1_stream_echo_server__coll__graph_org.svg" target="_base">
           <rect id="button" ry="5" rx="5" y="6" x="6" height="38" width="38"
                fill="#f2f5e9" fill-opacity="0.5" stroke="#606060" stroke-width="1.0"/>
           <path id="arrow"
             d="M 11.500037,31.436501 C 11.940474,20.09759 22.043105,11.32322 32.158766,21.979434 L 37.068811,17.246167 C 37.068811,17.246167 37.088388,32 37.088388,32 L 22.160133,31.978069 C 22.160133,31.978069 26.997745,27.140456 26.997745,27.140456 C 18.528582,18.264221 13.291696,25.230495 11.500037,31.436501 z"
             style="fill:#404040;"/>
          </a>
         </g>
        </svg>
</svg>
