<?xml version="1.0" encoding="UTF-8" standalone="no"?>
<!DOCTYPE svg PUBLIC "-//W3C//DTD SVG 1.1//EN"
 "http://www.w3.org/Graphics/SVG/1.1/DTD/svg11.dtd">
<!-- Generated by graphviz version 2.38.0 (20140413.2041)
 -->
<!-- Title: infra::DataOutputStream::operator&lt;&lt; Pages: 1 -->
<svg width="479pt" height="225pt"
 viewBox="0.00 0.00 479.00 225.00" xmlns="http://www.w3.org/2000/svg" xmlns:xlink="http://www.w3.org/1999/xlink">
<g id="graph0" class="graph" transform="scale(1 1) rotate(0) translate(4 221)">
<title>infra::DataOutputStream::operator&lt;&lt;</title>
<polygon fill="white" stroke="none" points="-4,4 -4,-221 475,-221 475,4 -4,4"/>
<!-- Node4 -->
<g id="node1" class="node"><title>Node4</title>
<polygon fill="#bfbfbf" stroke="black" points="0,-93.5 0,-123.5 122,-123.5 122,-93.5 0,-93.5"/>
<text text-anchor="start" x="8" y="-111.5" font-family="Helvetica,sans-Serif" font-size="10.00">infra::DataOutputStream</text>
<text text-anchor="middle" x="61" y="-100.5" font-family="Helvetica,sans-Serif" font-size="10.00">::operator&lt;&lt;</text>
</g>
<!-- Node5 -->
<g id="node2" class="node"><title>Node5</title>
<g id="a_node2"><a xlink:href="../../d6/d97/classinfra_1_1_output_stream.html#a6487a46afede51852f17cd7239848f3e" target="_top" xlink:title="infra::OutputStream\l::ErrorPolicy">
<polygon fill="white" stroke="black" points="171.5,-186.5 171.5,-216.5 272.5,-216.5 272.5,-186.5 171.5,-186.5"/>
<text text-anchor="start" x="179.5" y="-204.5" font-family="Helvetica,sans-Serif" font-size="10.00">infra::OutputStream</text>
<text text-anchor="middle" x="222" y="-193.5" font-family="Helvetica,sans-Serif" font-size="10.00">::ErrorPolicy</text>
</a>
</g>
</g>
<!-- Node4&#45;&gt;Node5 -->
<g id="edge1" class="edge"><title>Node4&#45;&gt;Node5</title>
<path fill="none" stroke="midnightblue" d="M80.1743,-123.768C98.8098,-138.877 129.08,-161.941 158,-177.5 161.083,-179.158 164.305,-180.757 167.592,-182.287"/>
<polygon fill="midnightblue" stroke="midnightblue" points="166.402,-185.587 176.965,-186.41 169.22,-179.18 166.402,-185.587"/>
</g>
<!-- Node6 -->
<g id="node3" class="node"><title>Node6</title>
<g id="a_node3"><a xlink:href="../../de/dba/classinfra_1_1_stream_writer.html#a2135664b27111d57a0e6b36f91dadffa" target="_top" xlink:title="infra::StreamWriter\l::Insert">
<polygon fill="white" stroke="black" points="173,-137.5 173,-167.5 271,-167.5 271,-137.5 173,-137.5"/>
<text text-anchor="start" x="181" y="-155.5" font-family="Helvetica,sans-Serif" font-size="10.00">infra::StreamWriter</text>
<text text-anchor="middle" x="222" y="-144.5" font-family="Helvetica,sans-Serif" font-size="10.00">::Insert</text>
</a>
</g>
</g>
<!-- Node4&#45;&gt;Node6 -->
<g id="edge2" class="edge"><title>Node4&#45;&gt;Node6</title>
<path fill="none" stroke="midnightblue" d="M116.274,-123.519C131.329,-127.685 147.73,-132.224 162.989,-136.447"/>
<polygon fill="midnightblue" stroke="midnightblue" points="162.255,-139.875 172.826,-139.169 164.122,-133.129 162.255,-139.875"/>
</g>
<!-- Node7 -->
<g id="node4" class="node"><title>Node7</title>
<g id="a_node4"><a xlink:href="../../d0/de3/namespaceinfra.html#afe38b7d4318537de2f28b244211c4275" target="_top" xlink:title="infra::MakeRange">
<polygon fill="white" stroke="black" points="176,-99 176,-118 268,-118 268,-99 176,-99"/>
<text text-anchor="middle" x="222" y="-106" font-family="Helvetica,sans-Serif" font-size="10.00">infra::MakeRange</text>
</a>
</g>
</g>
<!-- Node4&#45;&gt;Node7 -->
<g id="edge3" class="edge"><title>Node4&#45;&gt;Node7</title>
<path fill="none" stroke="midnightblue" d="M122.111,-108.5C136.406,-108.5 151.591,-108.5 165.661,-108.5"/>
<polygon fill="midnightblue" stroke="midnightblue" points="165.68,-112 175.68,-108.5 165.68,-105 165.68,-112"/>
</g>
<!-- Node10 -->
<g id="node7" class="node"><title>Node10</title>
<g id="a_node7"><a xlink:href="../../d0/de3/namespaceinfra.html#a74203fdf2e029d2667c7e4925092cc9a" target="_top" xlink:title="infra::ReinterpretCastByte\lRange">
<polygon fill="white" stroke="black" points="158,-49.5 158,-79.5 286,-79.5 286,-49.5 158,-49.5"/>
<text text-anchor="start" x="166" y="-67.5" font-family="Helvetica,sans-Serif" font-size="10.00">infra::ReinterpretCastByte</text>
<text text-anchor="middle" x="222" y="-56.5" font-family="Helvetica,sans-Serif" font-size="10.00">Range</text>
</a>
</g>
</g>
<!-- Node4&#45;&gt;Node10 -->
<g id="edge6" class="edge"><title>Node4&#45;&gt;Node10</title>
<path fill="none" stroke="midnightblue" d="M116.274,-93.4808C129.377,-89.8548 143.5,-85.9466 157.002,-82.2101"/>
<polygon fill="midnightblue" stroke="midnightblue" points="157.996,-85.5666 166.701,-79.5262 156.129,-78.8201 157.996,-85.5666"/>
</g>
<!-- Node11 -->
<g id="node8" class="node"><title>Node11</title>
<g id="a_node8"><a xlink:href="../../d6/d97/classinfra_1_1_output_stream.html#a84a64f5c0f2237260bbc1aa42f39eacc" target="_top" xlink:title="infra::OutputStream\l::Writer">
<polygon fill="white" stroke="black" points="171.5,-0.5 171.5,-30.5 272.5,-30.5 272.5,-0.5 171.5,-0.5"/>
<text text-anchor="start" x="179.5" y="-18.5" font-family="Helvetica,sans-Serif" font-size="10.00">infra::OutputStream</text>
<text text-anchor="middle" x="222" y="-7.5" font-family="Helvetica,sans-Serif" font-size="10.00">::Writer</text>
</a>
</g>
</g>
<!-- Node4&#45;&gt;Node11 -->
<g id="edge7" class="edge"><title>Node4&#45;&gt;Node11</title>
<path fill="none" stroke="midnightblue" d="M80.6088,-93.2794C99.3354,-78.4658 129.455,-55.9845 158,-40.5 161.724,-38.4801 165.646,-36.5339 169.637,-34.6807"/>
<polygon fill="midnightblue" stroke="midnightblue" points="171.284,-37.7793 179.015,-30.5341 168.453,-31.3772 171.284,-37.7793"/>
</g>
<!-- Node8 -->
<g id="node5" class="node"><title>Node8</title>
<g id="a_node5"><a xlink:href="../../d1/d2a/classinfra_1_1_bounded_string_base.html#aef23e4250cad2fdc69ccc39f68734233" target="_top" xlink:title="infra::BoundedStringBase\l::begin">
<polygon fill="white" stroke="black" points="333,-115.5 333,-145.5 460,-145.5 460,-115.5 333,-115.5"/>
<text text-anchor="start" x="341" y="-133.5" font-family="Helvetica,sans-Serif" font-size="10.00">infra::BoundedStringBase</text>
<text text-anchor="middle" x="396.5" y="-122.5" font-family="Helvetica,sans-Serif" font-size="10.00">::begin</text>
</a>
</g>
</g>
<!-- Node7&#45;&gt;Node8 -->
<g id="edge4" class="edge"><title>Node7&#45;&gt;Node8</title>
<path fill="none" stroke="midnightblue" d="M268.322,-114.28C284.999,-116.407 304.333,-118.873 322.814,-121.23"/>
<polygon fill="midnightblue" stroke="midnightblue" points="322.61,-124.732 332.972,-122.525 323.495,-117.788 322.61,-124.732"/>
</g>
<!-- Node9 -->
<g id="node6" class="node"><title>Node9</title>
<g id="a_node6"><a xlink:href="../../d1/d2a/classinfra_1_1_bounded_string_base.html#af5021f1ea3898146d0a55c2895f07dbf" target="_top" xlink:title="infra::BoundedStringBase::end">
<polygon fill="white" stroke="black" points="322,-77 322,-96 471,-96 471,-77 322,-77"/>
<text text-anchor="middle" x="396.5" y="-84" font-family="Helvetica,sans-Serif" font-size="10.00">infra::BoundedStringBase::end</text>
</a>
</g>
</g>
<!-- Node7&#45;&gt;Node9 -->
<g id="edge5" class="edge"><title>Node7&#45;&gt;Node9</title>
<path fill="none" stroke="midnightblue" d="M268.322,-102.72C281.624,-101.023 296.615,-99.1114 311.517,-97.2109"/>
<polygon fill="midnightblue" stroke="midnightblue" points="312.32,-100.637 321.797,-95.8998 311.435,-93.6931 312.32,-100.637"/>
</g>
</g>
</svg>
