<?xml version="1.0" encoding="UTF-8" standalone="no"?>
<!DOCTYPE svg PUBLIC "-//W3C//DTD SVG 1.1//EN"
 "http://www.w3.org/Graphics/SVG/1.1/DTD/svg11.dtd">
<!-- Generated by graphviz version 2.38.0 (20140413.2041)
 -->
<!-- Title: services::PathFromUrl Pages: 1 -->
<svg width="439pt" height="88pt"
 viewBox="0.00 0.00 439.00 88.00" xmlns="http://www.w3.org/2000/svg" xmlns:xlink="http://www.w3.org/1999/xlink">
<g id="graph0" class="graph" transform="scale(1 1) rotate(0) translate(4 84)">
<title>services::PathFromUrl</title>
<polygon fill="white" stroke="none" points="-4,4 -4,-84 435,-84 435,4 -4,4"/>
<!-- Node64 -->
<g id="node1" class="node"><title>Node64</title>
<polygon fill="#bfbfbf" stroke="black" points="0,-30 0,-49 113,-49 113,-30 0,-30"/>
<text text-anchor="middle" x="56.5" y="-37" font-family="Helvetica,sans-Serif" font-size="10.00">services::PathFromUrl</text>
</g>
<!-- Node65 -->
<g id="node2" class="node"><title>Node65</title>
<g id="a_node2"><a xlink:href="../../db/dae/classservices_1_1_http_client_basic.html#afe3f34509600d5aa457f0fe9c59af112" target="_top" xlink:title="services::HttpClientBasic\l::Path">
<polygon fill="white" stroke="black" points="149,-24.5 149,-54.5 274,-54.5 274,-24.5 149,-24.5"/>
<text text-anchor="start" x="157" y="-42.5" font-family="Helvetica,sans-Serif" font-size="10.00">services::HttpClientBasic</text>
<text text-anchor="middle" x="211.5" y="-31.5" font-family="Helvetica,sans-Serif" font-size="10.00">::Path</text>
</a>
</g>
</g>
<!-- Node64&#45;&gt;Node65 -->
<g id="edge1" class="edge"><title>Node64&#45;&gt;Node65</title>
<path fill="none" stroke="midnightblue" d="M123.391,-39.5C131.867,-39.5 140.52,-39.5 148.924,-39.5"/>
<polygon fill="midnightblue" stroke="midnightblue" points="123.169,-36.0001 113.169,-39.5 123.169,-43.0001 123.169,-36.0001"/>
</g>
<!-- Node66 -->
<g id="node3" class="node"><title>Node66</title>
<g id="a_node3"><a xlink:href="../../df/dd9/classservices_1_1_http_client_json.html#ab4d16df0033aab2282ed087d7eaf8b19" target="_top" xlink:title="services::HttpClientJson\l::Connected">
<polygon fill="white" stroke="black" points="310,-49.5 310,-79.5 431,-79.5 431,-49.5 310,-49.5"/>
<text text-anchor="start" x="318" y="-67.5" font-family="Helvetica,sans-Serif" font-size="10.00">services::HttpClientJson</text>
<text text-anchor="middle" x="370.5" y="-56.5" font-family="Helvetica,sans-Serif" font-size="10.00">::Connected</text>
</a>
</g>
</g>
<!-- Node65&#45;&gt;Node66 -->
<g id="edge2" class="edge"><title>Node65&#45;&gt;Node66</title>
<path fill="none" stroke="midnightblue" d="M284.131,-50.9063C292.742,-52.2773 301.463,-53.6661 309.877,-55.0058"/>
<polygon fill="midnightblue" stroke="midnightblue" points="284.526,-47.4251 274.1,-49.3089 283.425,-54.338 284.526,-47.4251"/>
</g>
<!-- Node67 -->
<g id="node4" class="node"><title>Node67</title>
<g id="a_node4"><a xlink:href="../../d7/da4/classapplication_1_1_tracing_http_client.html#afaf22b944651d759337a20329916d4ef" target="_top" xlink:title="application::TracingHttp\lClient::Connected">
<polygon fill="white" stroke="black" points="311,-0.5 311,-30.5 430,-30.5 430,-0.5 311,-0.5"/>
<text text-anchor="start" x="319" y="-18.5" font-family="Helvetica,sans-Serif" font-size="10.00">application::TracingHttp</text>
<text text-anchor="middle" x="370.5" y="-7.5" font-family="Helvetica,sans-Serif" font-size="10.00">Client::Connected</text>
</a>
</g>
</g>
<!-- Node65&#45;&gt;Node67 -->
<g id="edge3" class="edge"><title>Node65&#45;&gt;Node67</title>
<path fill="none" stroke="midnightblue" d="M284.138,-28.549C293.096,-27.1797 302.174,-25.7919 310.9,-24.4579"/>
<polygon fill="midnightblue" stroke="midnightblue" points="283.456,-25.1124 274.1,-30.0834 284.514,-32.0321 283.456,-25.1124"/>
</g>
</g>
</svg>
