<?xml version="1.0" encoding="UTF-8" standalone="no"?>
<!DOCTYPE svg PUBLIC "-//W3C//DTD SVG 1.1//EN"
 "http://www.w3.org/Graphics/SVG/1.1/DTD/svg11.dtd">
<!-- Generated by graphviz version 2.38.0 (20140413.2041)
 -->
<!-- Title: services::NameResolverCache::NameLookupSuccess Pages: 1 -->
<svg width="1693pt" height="364pt"
 viewBox="0.00 0.00 1693.00 364.00" xmlns="http://www.w3.org/2000/svg" xmlns:xlink="http://www.w3.org/1999/xlink">
<g id="graph0" class="graph" transform="scale(1 1) rotate(0) translate(4 360)">
<title>services::NameResolverCache::NameLookupSuccess</title>
<polygon fill="white" stroke="none" points="-4,4 -4,-360 1689,-360 1689,4 -4,4"/>
<!-- Node83 -->
<g id="node1" class="node"><title>Node83</title>
<polygon fill="#bfbfbf" stroke="black" points="0,-251.5 0,-281.5 148,-281.5 148,-251.5 0,-251.5"/>
<text text-anchor="start" x="8" y="-269.5" font-family="Helvetica,sans-Serif" font-size="10.00">services::NameResolverCache</text>
<text text-anchor="middle" x="74" y="-258.5" font-family="Helvetica,sans-Serif" font-size="10.00">::NameLookupSuccess</text>
</g>
<!-- Node84 -->
<g id="node2" class="node"><title>Node84</title>
<g id="a_node2"><a xlink:href="../../df/d75/classservices_1_1_name_resolver_result.html#a26fb039e839d01accab6b3e5ed66f3ff" target="_top" xlink:title="services::NameResolverResult\l::Hostname">
<polygon fill="white" stroke="black" points="184,-325.5 184,-355.5 332,-355.5 332,-325.5 184,-325.5"/>
<text text-anchor="start" x="192" y="-343.5" font-family="Helvetica,sans-Serif" font-size="10.00">services::NameResolverResult</text>
<text text-anchor="middle" x="258" y="-332.5" font-family="Helvetica,sans-Serif" font-size="10.00">::Hostname</text>
</a>
</g>
</g>
<!-- Node83&#45;&gt;Node84 -->
<g id="edge1" class="edge"><title>Node83&#45;&gt;Node84</title>
<path fill="none" stroke="midnightblue" d="M105.61,-281.662C127.24,-292.099 157.06,-305.931 184,-316.5 188.768,-318.37 193.747,-320.22 198.768,-322.012"/>
<polygon fill="midnightblue" stroke="midnightblue" points="197.834,-325.393 208.428,-325.379 200.138,-318.783 197.834,-325.393"/>
</g>
<!-- Node85 -->
<g id="node3" class="node"><title>Node85</title>
<g id="a_node3"><a xlink:href="../../df/d75/classservices_1_1_name_resolver_result.html#af05454bbfd89bfd139bf63ec3df9d00a" target="_top" xlink:title="services::NameResolverResult\l::NameLookupDone">
<polygon fill="white" stroke="black" points="184,-276.5 184,-306.5 332,-306.5 332,-276.5 184,-276.5"/>
<text text-anchor="start" x="192" y="-294.5" font-family="Helvetica,sans-Serif" font-size="10.00">services::NameResolverResult</text>
<text text-anchor="middle" x="258" y="-283.5" font-family="Helvetica,sans-Serif" font-size="10.00">::NameLookupDone</text>
</a>
</g>
</g>
<!-- Node83&#45;&gt;Node85 -->
<g id="edge2" class="edge"><title>Node83&#45;&gt;Node85</title>
<path fill="none" stroke="midnightblue" d="M148.24,-276.56C156.688,-277.721 165.349,-278.911 173.916,-280.087"/>
<polygon fill="midnightblue" stroke="midnightblue" points="173.527,-283.567 183.91,-281.46 174.48,-276.632 173.527,-283.567"/>
</g>
<!-- Node86 -->
<g id="node4" class="node"><title>Node86</title>
<g id="a_node4"><a xlink:href="../../d0/d0e/classservices_1_1_name_resolver_cache.html#a305b317d2e9c12c41b6620185e61e8e1" target="_top" xlink:title="services::NameResolverCache\l::NameLookupDone">
<polygon fill="white" stroke="black" points="184,-227.5 184,-257.5 332,-257.5 332,-227.5 184,-227.5"/>
<text text-anchor="start" x="192" y="-245.5" font-family="Helvetica,sans-Serif" font-size="10.00">services::NameResolverCache</text>
<text text-anchor="middle" x="258" y="-234.5" font-family="Helvetica,sans-Serif" font-size="10.00">::NameLookupDone</text>
</a>
</g>
</g>
<!-- Node83&#45;&gt;Node86 -->
<g id="edge3" class="edge"><title>Node83&#45;&gt;Node86</title>
<path fill="none" stroke="midnightblue" d="M148.24,-256.842C156.688,-255.728 165.349,-254.586 173.916,-253.456"/>
<polygon fill="midnightblue" stroke="midnightblue" points="174.454,-256.916 183.91,-252.138 173.538,-249.976 174.454,-256.916"/>
</g>
<!-- Node88 -->
<g id="node6" class="node"><title>Node88</title>
<g id="a_node6"><a xlink:href="../../d0/d0e/classservices_1_1_name_resolver_cache.html#a8d759a5e4b14b66215080996aed525c0" target="_top" xlink:title="services::NameResolverCache\l::TryAddToCache">
<polygon fill="white" stroke="black" points="184,-178.5 184,-208.5 332,-208.5 332,-178.5 184,-178.5"/>
<text text-anchor="start" x="192" y="-196.5" font-family="Helvetica,sans-Serif" font-size="10.00">services::NameResolverCache</text>
<text text-anchor="middle" x="258" y="-185.5" font-family="Helvetica,sans-Serif" font-size="10.00">::TryAddToCache</text>
</a>
</g>
</g>
<!-- Node83&#45;&gt;Node88 -->
<g id="edge5" class="edge"><title>Node83&#45;&gt;Node88</title>
<path fill="none" stroke="midnightblue" d="M106.112,-251.466C127.718,-241.285 157.306,-227.855 184,-217.5 188.851,-215.618 193.918,-213.753 199.023,-211.942"/>
<polygon fill="midnightblue" stroke="midnightblue" points="200.537,-215.122 208.839,-208.539 198.244,-208.508 200.537,-215.122"/>
</g>
<!-- Node87 -->
<g id="node5" class="node"><title>Node87</title>
<g id="a_node5"><a xlink:href="../../d0/d0e/classservices_1_1_name_resolver_cache.html#a5ef26e44fb52ac9685a60176f8a027e7" target="_top" xlink:title="services::NameResolverCache\l::TryResolveNext">
<polygon fill="white" stroke="black" points="368,-227.5 368,-257.5 516,-257.5 516,-227.5 368,-227.5"/>
<text text-anchor="start" x="376" y="-245.5" font-family="Helvetica,sans-Serif" font-size="10.00">services::NameResolverCache</text>
<text text-anchor="middle" x="442" y="-234.5" font-family="Helvetica,sans-Serif" font-size="10.00">::TryResolveNext</text>
</a>
</g>
</g>
<!-- Node86&#45;&gt;Node87 -->
<g id="edge4" class="edge"><title>Node86&#45;&gt;Node87</title>
<path fill="none" stroke="midnightblue" d="M332.24,-242.5C340.596,-242.5 349.161,-242.5 357.636,-242.5"/>
<polygon fill="midnightblue" stroke="midnightblue" points="357.91,-246 367.91,-242.5 357.91,-239 357.91,-246"/>
</g>
<!-- Node89 -->
<g id="node7" class="node"><title>Node89</title>
<g id="a_node7"><a xlink:href="../../d0/d0e/classservices_1_1_name_resolver_cache.html#a61262a46c3e4b38ee9e40ae710157753" target="_top" xlink:title="services::NameResolverCache\l::RemoveOneCacheEntry">
<polygon fill="white" stroke="black" points="368,-178.5 368,-208.5 516,-208.5 516,-178.5 368,-178.5"/>
<text text-anchor="start" x="376" y="-196.5" font-family="Helvetica,sans-Serif" font-size="10.00">services::NameResolverCache</text>
<text text-anchor="middle" x="442" y="-185.5" font-family="Helvetica,sans-Serif" font-size="10.00">::RemoveOneCacheEntry</text>
</a>
</g>
</g>
<!-- Node88&#45;&gt;Node89 -->
<g id="edge6" class="edge"><title>Node88&#45;&gt;Node89</title>
<path fill="none" stroke="midnightblue" d="M332.24,-193.5C340.596,-193.5 349.161,-193.5 357.636,-193.5"/>
<polygon fill="midnightblue" stroke="midnightblue" points="357.91,-197 367.91,-193.5 357.91,-190 357.91,-197"/>
</g>
<!-- Node90 -->
<g id="node8" class="node"><title>Node90</title>
<g id="a_node8"><a xlink:href="../../d0/d0e/classservices_1_1_name_resolver_cache.html#a4bea9f7ed8aa9320e48906769a0ad9f6" target="_top" xlink:title="services::NameResolverCache\l::AddToCache">
<polygon fill="white" stroke="black" points="368,-129.5 368,-159.5 516,-159.5 516,-129.5 368,-129.5"/>
<text text-anchor="start" x="376" y="-147.5" font-family="Helvetica,sans-Serif" font-size="10.00">services::NameResolverCache</text>
<text text-anchor="middle" x="442" y="-136.5" font-family="Helvetica,sans-Serif" font-size="10.00">::AddToCache</text>
</a>
</g>
</g>
<!-- Node88&#45;&gt;Node90 -->
<g id="edge7" class="edge"><title>Node88&#45;&gt;Node90</title>
<path fill="none" stroke="midnightblue" d="M315.091,-178.399C334.123,-173.275 355.555,-167.504 375.269,-162.197"/>
<polygon fill="midnightblue" stroke="midnightblue" points="376.348,-165.531 385.094,-159.552 374.528,-158.772 376.348,-165.531"/>
</g>
<!-- Node91 -->
<g id="node9" class="node"><title>Node91</title>
<g id="a_node9"><a xlink:href="../../d0/d0e/classservices_1_1_name_resolver_cache.html#a94507ff8cefc3037d6695fdc82c827e3" target="_top" xlink:title="services::NameResolverCache\l::Cleanup">
<polygon fill="white" stroke="black" points="552,-154.5 552,-184.5 700,-184.5 700,-154.5 552,-154.5"/>
<text text-anchor="start" x="560" y="-172.5" font-family="Helvetica,sans-Serif" font-size="10.00">services::NameResolverCache</text>
<text text-anchor="middle" x="626" y="-161.5" font-family="Helvetica,sans-Serif" font-size="10.00">::Cleanup</text>
</a>
</g>
</g>
<!-- Node90&#45;&gt;Node91 -->
<g id="edge8" class="edge"><title>Node90&#45;&gt;Node91</title>
<path fill="none" stroke="midnightblue" d="M516.24,-154.56C524.688,-155.721 533.349,-156.911 541.916,-158.087"/>
<polygon fill="midnightblue" stroke="midnightblue" points="541.527,-161.567 551.91,-159.46 542.48,-154.632 541.527,-161.567"/>
</g>
<!-- Node108 -->
<g id="node26" class="node"><title>Node108</title>
<g id="a_node26"><a xlink:href="../../d0/d0e/classservices_1_1_name_resolver_cache.html#afbe83775c43f88d5f7c58dbe56010aee" target="_top" xlink:title="services::NameResolverCache\l::Hash">
<polygon fill="white" stroke="black" points="552,-105.5 552,-135.5 700,-135.5 700,-105.5 552,-105.5"/>
<text text-anchor="start" x="560" y="-123.5" font-family="Helvetica,sans-Serif" font-size="10.00">services::NameResolverCache</text>
<text text-anchor="middle" x="626" y="-112.5" font-family="Helvetica,sans-Serif" font-size="10.00">::Hash</text>
</a>
</g>
</g>
<!-- Node90&#45;&gt;Node108 -->
<g id="edge27" class="edge"><title>Node90&#45;&gt;Node108</title>
<path fill="none" stroke="midnightblue" d="M516.24,-134.842C524.688,-133.728 533.349,-132.586 541.916,-131.456"/>
<polygon fill="midnightblue" stroke="midnightblue" points="542.454,-134.916 551.91,-130.138 541.538,-127.976 542.454,-134.916"/>
</g>
<!-- Node92 -->
<g id="node10" class="node"><title>Node92</title>
<g id="a_node10"><a xlink:href="../../d0/de3/namespaceinfra.html#ab53300a9f254119ad1fa94f11bc1fccc" target="_top" xlink:title="infra::Now">
<polygon fill="white" stroke="black" points="770,-225 770,-244 829,-244 829,-225 770,-225"/>
<text text-anchor="middle" x="799.5" y="-232" font-family="Helvetica,sans-Serif" font-size="10.00">infra::Now</text>
</a>
</g>
</g>
<!-- Node91&#45;&gt;Node92 -->
<g id="edge9" class="edge"><title>Node91&#45;&gt;Node92</title>
<path fill="none" stroke="midnightblue" d="M666.777,-184.576C696.163,-195.714 735.778,-210.728 763.867,-221.374"/>
<polygon fill="midnightblue" stroke="midnightblue" points="762.695,-224.673 773.287,-224.944 765.176,-218.127 762.695,-224.673"/>
</g>
<!-- Node96 -->
<g id="node14" class="node"><title>Node96</title>
<g id="a_node14"><a xlink:href="../../d8/d87/classinfra_1_1_timer_single_shot.html#aa76a7526e88f2818fbc6567db181f24d" target="_top" xlink:title="infra::TimerSingleShot\l::Start">
<polygon fill="white" stroke="black" points="743.5,-154.5 743.5,-184.5 855.5,-184.5 855.5,-154.5 743.5,-154.5"/>
<text text-anchor="start" x="751.5" y="-172.5" font-family="Helvetica,sans-Serif" font-size="10.00">infra::TimerSingleShot</text>
<text text-anchor="middle" x="799.5" y="-161.5" font-family="Helvetica,sans-Serif" font-size="10.00">::Start</text>
</a>
</g>
</g>
<!-- Node91&#45;&gt;Node96 -->
<g id="edge13" class="edge"><title>Node91&#45;&gt;Node96</title>
<path fill="none" stroke="midnightblue" d="M700.229,-169.5C711.199,-169.5 722.448,-169.5 733.237,-169.5"/>
<polygon fill="midnightblue" stroke="midnightblue" points="733.417,-173 743.417,-169.5 733.417,-166 733.417,-173"/>
</g>
<!-- Node93 -->
<g id="node11" class="node"><title>Node93</title>
<g id="a_node11"><a xlink:href="../../db/d70/classinfra_1_1_timer_service_manager.html#a30dbf09013c8e949fbded56e40d2a103" target="_top" xlink:title="infra::TimerServiceManager\l::GetTimerService">
<polygon fill="white" stroke="black" points="910,-296.5 910,-326.5 1044,-326.5 1044,-296.5 910,-296.5"/>
<text text-anchor="start" x="918" y="-314.5" font-family="Helvetica,sans-Serif" font-size="10.00">infra::TimerServiceManager</text>
<text text-anchor="middle" x="977" y="-303.5" font-family="Helvetica,sans-Serif" font-size="10.00">::GetTimerService</text>
</a>
</g>
</g>
<!-- Node92&#45;&gt;Node93 -->
<g id="edge10" class="edge"><title>Node92&#45;&gt;Node93</title>
<path fill="none" stroke="midnightblue" d="M816.466,-244.027C835.613,-255.192 868.897,-273.779 899,-286.5 904.391,-288.778 910.065,-290.977 915.788,-293.061"/>
<polygon fill="midnightblue" stroke="midnightblue" points="914.83,-296.434 925.424,-296.455 917.155,-289.832 914.83,-296.434"/>
</g>
<!-- Node94 -->
<g id="node12" class="node"><title>Node94</title>
<g id="a_node12"><a xlink:href="../../d3/d0e/classinfra_1_1_interface_connector.html#aed1d9e952d3d0dfa68e59ee4e868b380" target="_top" xlink:title="infra::InterfaceConnector\l\&lt; TimerServiceManager \&gt;\l::Instance">
<polygon fill="white" stroke="black" points="913,-236 913,-277 1041,-277 1041,-236 913,-236"/>
<text text-anchor="start" x="921" y="-265" font-family="Helvetica,sans-Serif" font-size="10.00">infra::InterfaceConnector</text>
<text text-anchor="start" x="921" y="-254" font-family="Helvetica,sans-Serif" font-size="10.00">&lt; TimerServiceManager &gt;</text>
<text text-anchor="middle" x="977" y="-243" font-family="Helvetica,sans-Serif" font-size="10.00">::Instance</text>
</a>
</g>
</g>
<!-- Node92&#45;&gt;Node94 -->
<g id="edge11" class="edge"><title>Node92&#45;&gt;Node94</title>
<path fill="none" stroke="midnightblue" d="M829.088,-238.084C849.067,-240.588 876.705,-244.053 902.623,-247.302"/>
<polygon fill="midnightblue" stroke="midnightblue" points="902.474,-250.81 912.831,-248.581 903.344,-243.865 902.474,-250.81"/>
</g>
<!-- Node95 -->
<g id="node13" class="node"><title>Node95</title>
<g id="a_node13"><a xlink:href="../../da/def/classinfra_1_1_timer_service.html#acb34d2766047f27ebcd1f552916c9a99" target="_top" xlink:title="infra::TimerService::Now">
<polygon fill="white" stroke="black" points="916.5,-198 916.5,-217 1037.5,-217 1037.5,-198 916.5,-198"/>
<text text-anchor="middle" x="977" y="-205" font-family="Helvetica,sans-Serif" font-size="10.00">infra::TimerService::Now</text>
</a>
</g>
</g>
<!-- Node92&#45;&gt;Node95 -->
<g id="edge12" class="edge"><title>Node92&#45;&gt;Node95</title>
<path fill="none" stroke="midnightblue" d="M829.088,-230.102C850.016,-226.882 879.349,-222.369 906.306,-218.222"/>
<polygon fill="midnightblue" stroke="midnightblue" points="907.147,-221.634 916.499,-216.654 906.083,-214.715 907.147,-221.634"/>
</g>
<!-- Node97 -->
<g id="node15" class="node"><title>Node97</title>
<g id="a_node15"><a xlink:href="../../d5/da5/classinfra_1_1_timer.html#a729101dbfbc04caf3f1217f9feeeff41" target="_top" xlink:title="infra::Timer::Resolution">
<polygon fill="white" stroke="black" points="919,-160 919,-179 1035,-179 1035,-160 919,-160"/>
<text text-anchor="middle" x="977" y="-167" font-family="Helvetica,sans-Serif" font-size="10.00">infra::Timer::Resolution</text>
</a>
</g>
</g>
<!-- Node96&#45;&gt;Node97 -->
<g id="edge14" class="edge"><title>Node96&#45;&gt;Node97</title>
<path fill="none" stroke="midnightblue" d="M855.548,-169.5C872.354,-169.5 891.028,-169.5 908.558,-169.5"/>
<polygon fill="midnightblue" stroke="midnightblue" points="908.725,-173 918.724,-169.5 908.724,-166 908.725,-173"/>
</g>
<!-- Node99 -->
<g id="node17" class="node"><title>Node99</title>
<g id="a_node17"><a xlink:href="../../d5/da5/classinfra_1_1_timer.html#aa5f1d8f856a15a67ddc7c88e40fe4796" target="_top" xlink:title="infra::Timer::SetNextTriggerTime">
<polygon fill="white" stroke="black" points="899,-97 899,-116 1055,-116 1055,-97 899,-97"/>
<text text-anchor="middle" x="977" y="-104" font-family="Helvetica,sans-Serif" font-size="10.00">infra::Timer::SetNextTriggerTime</text>
</a>
</g>
</g>
<!-- Node96&#45;&gt;Node99 -->
<g id="edge16" class="edge"><title>Node96&#45;&gt;Node99</title>
<path fill="none" stroke="midnightblue" d="M842.537,-154.41C872.199,-143.762 911.531,-129.643 939.801,-119.494"/>
<polygon fill="midnightblue" stroke="midnightblue" points="941.076,-122.755 949.306,-116.083 938.711,-116.167 941.076,-122.755"/>
</g>
<!-- Node98 -->
<g id="node16" class="node"><title>Node98</title>
<g id="a_node16"><a xlink:href="../../da/def/classinfra_1_1_timer_service.html#ab717e40a1a49d2f31f4a9e2e63f0f5ce" target="_top" xlink:title="infra::TimerService\l::Resolution">
<polygon fill="white" stroke="black" points="1119,-164.5 1119,-194.5 1215,-194.5 1215,-164.5 1119,-164.5"/>
<text text-anchor="start" x="1127" y="-182.5" font-family="Helvetica,sans-Serif" font-size="10.00">infra::TimerService</text>
<text text-anchor="middle" x="1167" y="-171.5" font-family="Helvetica,sans-Serif" font-size="10.00">::Resolution</text>
</a>
</g>
</g>
<!-- Node97&#45;&gt;Node98 -->
<g id="edge15" class="edge"><title>Node97&#45;&gt;Node98</title>
<path fill="none" stroke="midnightblue" d="M1035.17,-172.541C1058.51,-173.782 1085.44,-175.215 1108.79,-176.457"/>
<polygon fill="midnightblue" stroke="midnightblue" points="1108.72,-179.958 1118.89,-176.994 1109.09,-172.968 1108.72,-179.958"/>
</g>
<!-- Node100 -->
<g id="node18" class="node"><title>Node100</title>
<g id="a_node18"><a xlink:href="../../d5/da5/classinfra_1_1_timer.html#a11b396e8d4300da06b8ce83624991b73" target="_top" xlink:title="infra::Timer::Convert">
<polygon fill="white" stroke="black" points="1578.5,-100 1578.5,-119 1681.5,-119 1681.5,-100 1578.5,-100"/>
<text text-anchor="middle" x="1630" y="-107" font-family="Helvetica,sans-Serif" font-size="10.00">infra::Timer::Convert</text>
</a>
</g>
</g>
<!-- Node99&#45;&gt;Node100 -->
<g id="edge17" class="edge"><title>Node99&#45;&gt;Node100</title>
<path fill="none" stroke="midnightblue" d="M1055.17,-111.809C1067.16,-112.481 1079.41,-113.08 1091,-113.5 1289.98,-120.717 1340.03,-124.226 1539,-116.5 1548.41,-116.134 1558.37,-115.555 1568.09,-114.881"/>
<polygon fill="midnightblue" stroke="midnightblue" points="1568.39,-118.369 1578.11,-114.151 1567.88,-111.387 1568.39,-118.369"/>
</g>
<!-- Node101 -->
<g id="node19" class="node"><title>Node101</title>
<g id="a_node19"><a xlink:href="../../d5/da5/classinfra_1_1_timer.html#aaabecdbe93d2f0299f5f1356c9d1337f" target="_top" xlink:title="infra::Timer::RegisterSelf">
<polygon fill="white" stroke="black" points="1105.5,-85 1105.5,-104 1228.5,-104 1228.5,-85 1105.5,-85"/>
<text text-anchor="middle" x="1167" y="-92" font-family="Helvetica,sans-Serif" font-size="10.00">infra::Timer::RegisterSelf</text>
</a>
</g>
</g>
<!-- Node99&#45;&gt;Node101 -->
<g id="edge18" class="edge"><title>Node99&#45;&gt;Node101</title>
<path fill="none" stroke="midnightblue" d="M1055.01,-101.585C1068.21,-100.742 1081.88,-99.8696 1094.91,-99.0373"/>
<polygon fill="midnightblue" stroke="midnightblue" points="1095.46,-102.51 1105.22,-98.3798 1095.01,-95.524 1095.46,-102.51"/>
</g>
<!-- Node105 -->
<g id="node23" class="node"><title>Node105</title>
<g id="a_node23"><a xlink:href="../../d5/da5/classinfra_1_1_timer.html#a51a6dd500d70207c8163a053db0b6e60" target="_top" xlink:title="infra::Timer::UpdateTriggerTime">
<polygon fill="white" stroke="black" points="1091,-28 1091,-47 1243,-47 1243,-28 1091,-28"/>
<text text-anchor="middle" x="1167" y="-35" font-family="Helvetica,sans-Serif" font-size="10.00">infra::Timer::UpdateTriggerTime</text>
</a>
</g>
</g>
<!-- Node99&#45;&gt;Node105 -->
<g id="edge23" class="edge"><title>Node99&#45;&gt;Node105</title>
<path fill="none" stroke="midnightblue" d="M1004.14,-96.9058C1036.97,-84.8561 1093.45,-64.1269 1130.26,-50.6181"/>
<polygon fill="midnightblue" stroke="midnightblue" points="1131.9,-53.7439 1140.08,-47.0127 1129.49,-47.1725 1131.9,-53.7439"/>
</g>
<!-- Node102 -->
<g id="node20" class="node"><title>Node102</title>
<g id="a_node20"><a xlink:href="../../da/def/classinfra_1_1_timer_service.html#ac048d92f92957b56b420dd78bcc84528" target="_top" xlink:title="infra::TimerService\l::RegisterTimer">
<polygon fill="white" stroke="black" points="1283,-76.5 1283,-106.5 1379,-106.5 1379,-76.5 1283,-76.5"/>
<text text-anchor="start" x="1291" y="-94.5" font-family="Helvetica,sans-Serif" font-size="10.00">infra::TimerService</text>
<text text-anchor="middle" x="1331" y="-83.5" font-family="Helvetica,sans-Serif" font-size="10.00">::RegisterTimer</text>
</a>
</g>
</g>
<!-- Node101&#45;&gt;Node102 -->
<g id="edge19" class="edge"><title>Node101&#45;&gt;Node102</title>
<path fill="none" stroke="midnightblue" d="M1228.78,-93.3744C1243.16,-93.1081 1258.45,-92.8251 1272.66,-92.5618"/>
<polygon fill="midnightblue" stroke="midnightblue" points="1272.87,-96.0587 1282.8,-92.3741 1272.74,-89.0599 1272.87,-96.0587"/>
</g>
<!-- Node103 -->
<g id="node21" class="node"><title>Node103</title>
<g id="a_node21"><a xlink:href="../../d5/da5/classinfra_1_1_timer.html#a1efe7b4dc3d40f8357b1fc94855e5145" target="_top" xlink:title="infra::Timer::NextTrigger">
<polygon fill="white" stroke="black" points="1419,-88 1419,-107 1539,-107 1539,-88 1419,-88"/>
<text text-anchor="middle" x="1479" y="-95" font-family="Helvetica,sans-Serif" font-size="10.00">infra::Timer::NextTrigger</text>
</a>
</g>
</g>
<!-- Node102&#45;&gt;Node103 -->
<g id="edge20" class="edge"><title>Node102&#45;&gt;Node103</title>
<path fill="none" stroke="midnightblue" d="M1379.4,-93.448C1388.73,-93.8315 1398.7,-94.2413 1408.59,-94.6474"/>
<polygon fill="midnightblue" stroke="midnightblue" points="1408.69,-98.1544 1418.82,-95.0681 1408.97,-91.1603 1408.69,-98.1544"/>
</g>
<!-- Node104 -->
<g id="node22" class="node"><title>Node104</title>
<g id="a_node22"><a xlink:href="../../da/def/classinfra_1_1_timer_service.html#a6ae66196dc18d8b383ba5e0f0b6f22fa" target="_top" xlink:title="infra::TimerService\l::NextTriggerChanged">
<polygon fill="white" stroke="black" points="1575,-31.5 1575,-61.5 1685,-61.5 1685,-31.5 1575,-31.5"/>
<text text-anchor="start" x="1583" y="-49.5" font-family="Helvetica,sans-Serif" font-size="10.00">infra::TimerService</text>
<text text-anchor="middle" x="1630" y="-38.5" font-family="Helvetica,sans-Serif" font-size="10.00">::NextTriggerChanged</text>
</a>
</g>
</g>
<!-- Node102&#45;&gt;Node104 -->
<g id="edge22" class="edge"><title>Node102&#45;&gt;Node104</title>
<path fill="none" stroke="midnightblue" d="M1379.06,-84.3696C1429.18,-76.7755 1508.84,-64.7068 1564.72,-56.2397"/>
<polygon fill="midnightblue" stroke="midnightblue" points="1565.5,-59.6611 1574.86,-54.7025 1564.45,-52.7401 1565.5,-59.6611"/>
</g>
<!-- Node103&#45;&gt;Node100 -->
<g id="edge21" class="edge"><title>Node103&#45;&gt;Node100</title>
<path fill="none" stroke="midnightblue" d="M1539.32,-102.277C1548.73,-103.036 1558.49,-103.821 1567.94,-104.583"/>
<polygon fill="midnightblue" stroke="midnightblue" points="1567.81,-108.083 1578.06,-105.397 1568.37,-101.106 1567.81,-108.083"/>
</g>
<!-- Node106 -->
<g id="node24" class="node"><title>Node106</title>
<g id="a_node24"><a xlink:href="../../da/def/classinfra_1_1_timer_service.html#ac08c18576f1ca147f34136e9f75d124f" target="_top" xlink:title="infra::TimerService\l::UpdateTriggerTime">
<polygon fill="white" stroke="black" points="1279,-11.5 1279,-41.5 1383,-41.5 1383,-11.5 1279,-11.5"/>
<text text-anchor="start" x="1287" y="-29.5" font-family="Helvetica,sans-Serif" font-size="10.00">infra::TimerService</text>
<text text-anchor="middle" x="1331" y="-18.5" font-family="Helvetica,sans-Serif" font-size="10.00">::UpdateTriggerTime</text>
</a>
</g>
</g>
<!-- Node105&#45;&gt;Node106 -->
<g id="edge24" class="edge"><title>Node105&#45;&gt;Node106</title>
<path fill="none" stroke="midnightblue" d="M1243.31,-32.3864C1251.89,-31.8041 1260.55,-31.2159 1268.91,-30.6482"/>
<polygon fill="midnightblue" stroke="midnightblue" points="1269.19,-34.1372 1278.93,-29.9677 1268.72,-27.1533 1269.19,-34.1372"/>
</g>
<!-- Node107 -->
<g id="node25" class="node"><title>Node107</title>
<g id="a_node25"><a xlink:href="../../da/def/classinfra_1_1_timer_service.html#afb8a6ef3ee5ba728f1a8f232514bad8c" target="_top" xlink:title="infra::TimerService\l::ComputeNextTrigger">
<polygon fill="white" stroke="black" points="1423.5,-0.5 1423.5,-30.5 1534.5,-30.5 1534.5,-0.5 1423.5,-0.5"/>
<text text-anchor="start" x="1431.5" y="-18.5" font-family="Helvetica,sans-Serif" font-size="10.00">infra::TimerService</text>
<text text-anchor="middle" x="1479" y="-7.5" font-family="Helvetica,sans-Serif" font-size="10.00">::ComputeNextTrigger</text>
</a>
</g>
</g>
<!-- Node106&#45;&gt;Node107 -->
<g id="edge25" class="edge"><title>Node106&#45;&gt;Node107</title>
<path fill="none" stroke="midnightblue" d="M1383.06,-22.6527C1392.87,-21.9139 1403.26,-21.1313 1413.43,-20.3652"/>
<polygon fill="midnightblue" stroke="midnightblue" points="1413.78,-23.8485 1423.49,-19.607 1413.25,-16.8683 1413.78,-23.8485"/>
</g>
<!-- Node107&#45;&gt;Node104 -->
<g id="edge26" class="edge"><title>Node107&#45;&gt;Node104</title>
<path fill="none" stroke="midnightblue" d="M1534.64,-26.8672C1544.48,-28.9149 1554.82,-31.0664 1564.9,-33.164"/>
<polygon fill="midnightblue" stroke="midnightblue" points="1564.37,-36.6274 1574.87,-35.2377 1565.79,-29.7741 1564.37,-36.6274"/>
</g>
<!-- Node109 -->
<g id="node27" class="node"><title>Node109</title>
<g id="a_node27"><a xlink:href="../../d1/d2a/classinfra_1_1_bounded_string_base.html#aef23e4250cad2fdc69ccc39f68734233" target="_top" xlink:title="infra::BoundedStringBase\l::begin">
<polygon fill="white" stroke="black" points="736,-105.5 736,-135.5 863,-135.5 863,-105.5 736,-105.5"/>
<text text-anchor="start" x="744" y="-123.5" font-family="Helvetica,sans-Serif" font-size="10.00">infra::BoundedStringBase</text>
<text text-anchor="middle" x="799.5" y="-112.5" font-family="Helvetica,sans-Serif" font-size="10.00">::begin</text>
</a>
</g>
</g>
<!-- Node108&#45;&gt;Node109 -->
<g id="edge28" class="edge"><title>Node108&#45;&gt;Node109</title>
<path fill="none" stroke="midnightblue" d="M700.229,-120.5C708.643,-120.5 717.222,-120.5 725.631,-120.5"/>
<polygon fill="midnightblue" stroke="midnightblue" points="725.783,-124 735.783,-120.5 725.783,-117 725.783,-124"/>
</g>
<!-- Node110 -->
<g id="node28" class="node"><title>Node110</title>
<g id="a_node28"><a xlink:href="../../d1/d2a/classinfra_1_1_bounded_string_base.html#aab36b8eaee21d6ab3be734e07f499382" target="_top" xlink:title="infra::BoundedStringBase\l::size">
<polygon fill="white" stroke="black" points="736,-56.5 736,-86.5 863,-86.5 863,-56.5 736,-56.5"/>
<text text-anchor="start" x="744" y="-74.5" font-family="Helvetica,sans-Serif" font-size="10.00">infra::BoundedStringBase</text>
<text text-anchor="middle" x="799.5" y="-63.5" font-family="Helvetica,sans-Serif" font-size="10.00">::size</text>
</a>
</g>
</g>
<!-- Node108&#45;&gt;Node110 -->
<g id="edge29" class="edge"><title>Node108&#45;&gt;Node110</title>
<path fill="none" stroke="midnightblue" d="M679.855,-105.399C697.625,-100.321 717.616,-94.6098 736.052,-89.3423"/>
<polygon fill="midnightblue" stroke="midnightblue" points="737.166,-92.6642 745.819,-86.5516 735.243,-85.9335 737.166,-92.6642"/>
</g>
</g>
</svg>
