<?xml version="1.0" encoding="UTF-8" standalone="no"?>
<!DOCTYPE svg PUBLIC "-//W3C//DTD SVG 1.1//EN"
 "http://www.w3.org/Graphics/SVG/1.1/DTD/svg11.dtd">
<!-- Generated by graphviz version 2.38.0 (20140413.2041)
 -->
<!-- Title: services::NameResolverCache::NameLookupDone Pages: 1 -->
<svg width="340pt" height="137pt"
 viewBox="0.00 0.00 340.00 137.00" xmlns="http://www.w3.org/2000/svg" xmlns:xlink="http://www.w3.org/1999/xlink">
<g id="graph0" class="graph" transform="scale(1 1) rotate(0) translate(4 133)">
<title>services::NameResolverCache::NameLookupDone</title>
<polygon fill="white" stroke="none" points="-4,4 -4,-133 336,-133 336,4 -4,4"/>
<!-- Node74 -->
<g id="node1" class="node"><title>Node74</title>
<polygon fill="#bfbfbf" stroke="black" points="0,-49.5 0,-79.5 148,-79.5 148,-49.5 0,-49.5"/>
<text text-anchor="start" x="8" y="-67.5" font-family="Helvetica,sans-Serif" font-size="10.00">services::NameResolverCache</text>
<text text-anchor="middle" x="74" y="-56.5" font-family="Helvetica,sans-Serif" font-size="10.00">::NameLookupDone</text>
</g>
<!-- Node75 -->
<g id="node2" class="node"><title>Node75</title>
<g id="a_node2"><a xlink:href="../../d0/d0e/classservices_1_1_name_resolver_cache.html#ac6156bc4cc11655f69b747d66be6e2e8" target="_top" xlink:title="services::NameResolverCache\l::NameLookupCancelled">
<polygon fill="white" stroke="black" points="184,-98.5 184,-128.5 332,-128.5 332,-98.5 184,-98.5"/>
<text text-anchor="start" x="192" y="-116.5" font-family="Helvetica,sans-Serif" font-size="10.00">services::NameResolverCache</text>
<text text-anchor="middle" x="258" y="-105.5" font-family="Helvetica,sans-Serif" font-size="10.00">::NameLookupCancelled</text>
</a>
</g>
</g>
<!-- Node74&#45;&gt;Node75 -->
<g id="edge1" class="edge"><title>Node74&#45;&gt;Node75</title>
<path fill="none" stroke="midnightblue" d="M140.923,-82.2485C160.648,-87.5591 182.078,-93.3288 201.094,-98.4484"/>
<polygon fill="midnightblue" stroke="midnightblue" points="141.657,-78.8216 131.091,-79.6014 139.837,-85.5809 141.657,-78.8216"/>
</g>
<!-- Node76 -->
<g id="node3" class="node"><title>Node76</title>
<g id="a_node3"><a xlink:href="../../d0/d0e/classservices_1_1_name_resolver_cache.html#a284f1785bb30775e050c62eb61b4a63d" target="_top" xlink:title="services::NameResolverCache\l::NameLookupFailed">
<polygon fill="white" stroke="black" points="184,-49.5 184,-79.5 332,-79.5 332,-49.5 184,-49.5"/>
<text text-anchor="start" x="192" y="-67.5" font-family="Helvetica,sans-Serif" font-size="10.00">services::NameResolverCache</text>
<text text-anchor="middle" x="258" y="-56.5" font-family="Helvetica,sans-Serif" font-size="10.00">::NameLookupFailed</text>
</a>
</g>
</g>
<!-- Node74&#45;&gt;Node76 -->
<g id="edge2" class="edge"><title>Node74&#45;&gt;Node76</title>
<path fill="none" stroke="midnightblue" d="M158.516,-64.5C166.992,-64.5 175.556,-64.5 183.91,-64.5"/>
<polygon fill="midnightblue" stroke="midnightblue" points="158.24,-61.0001 148.24,-64.5 158.24,-68.0001 158.24,-61.0001"/>
</g>
<!-- Node77 -->
<g id="node4" class="node"><title>Node77</title>
<g id="a_node4"><a xlink:href="../../d0/d0e/classservices_1_1_name_resolver_cache.html#acf7510ed181dff53bc67837c490b6062" target="_top" xlink:title="services::NameResolverCache\l::NameLookupSuccess">
<polygon fill="white" stroke="black" points="184,-0.5 184,-30.5 332,-30.5 332,-0.5 184,-0.5"/>
<text text-anchor="start" x="192" y="-18.5" font-family="Helvetica,sans-Serif" font-size="10.00">services::NameResolverCache</text>
<text text-anchor="middle" x="258" y="-7.5" font-family="Helvetica,sans-Serif" font-size="10.00">::NameLookupSuccess</text>
</a>
</g>
</g>
<!-- Node74&#45;&gt;Node77 -->
<g id="edge3" class="edge"><title>Node74&#45;&gt;Node77</title>
<path fill="none" stroke="midnightblue" d="M140.923,-46.7515C160.648,-41.4409 182.078,-35.6712 201.094,-30.5516"/>
<polygon fill="midnightblue" stroke="midnightblue" points="139.837,-43.4191 131.091,-49.3986 141.657,-50.1784 139.837,-43.4191"/>
</g>
</g>
</svg>
