<?xml version="1.0" encoding="UTF-8" standalone="no"?>
<!DOCTYPE svg PUBLIC "-//W3C//DTD SVG 1.1//EN"
 "http://www.w3.org/Graphics/SVG/1.1/DTD/svg11.dtd">
<!-- Generated by graphviz version 2.38.0 (20140413.2041)
 -->
<!-- Title: services::NameResolverCache::TryResolveNext Pages: 1 -->
<svg width="524pt" height="137pt"
 viewBox="0.00 0.00 524.00 137.00" xmlns="http://www.w3.org/2000/svg" xmlns:xlink="http://www.w3.org/1999/xlink">
<g id="graph0" class="graph" transform="scale(1 1) rotate(0) translate(4 133)">
<title>services::NameResolverCache::TryResolveNext</title>
<polygon fill="white" stroke="none" points="-4,4 -4,-133 520,-133 520,4 -4,4"/>
<!-- Node150 -->
<g id="node1" class="node"><title>Node150</title>
<polygon fill="#bfbfbf" stroke="black" points="0,-73.5 0,-103.5 148,-103.5 148,-73.5 0,-73.5"/>
<text text-anchor="start" x="8" y="-91.5" font-family="Helvetica,sans-Serif" font-size="10.00">services::NameResolverCache</text>
<text text-anchor="middle" x="74" y="-80.5" font-family="Helvetica,sans-Serif" font-size="10.00">::TryResolveNext</text>
</g>
<!-- Node151 -->
<g id="node2" class="node"><title>Node151</title>
<g id="a_node2"><a xlink:href="../../d0/d0e/classservices_1_1_name_resolver_cache.html#abc352a890afcb36ba7bfe88c9e040ed5" target="_top" xlink:title="services::NameResolverCache\l::Lookup">
<polygon fill="white" stroke="black" points="184,-98.5 184,-128.5 332,-128.5 332,-98.5 184,-98.5"/>
<text text-anchor="start" x="192" y="-116.5" font-family="Helvetica,sans-Serif" font-size="10.00">services::NameResolverCache</text>
<text text-anchor="middle" x="258" y="-105.5" font-family="Helvetica,sans-Serif" font-size="10.00">::Lookup</text>
</a>
</g>
</g>
<!-- Node150&#45;&gt;Node151 -->
<g id="edge1" class="edge"><title>Node150&#45;&gt;Node151</title>
<path fill="none" stroke="midnightblue" d="M158.237,-99.9336C166.804,-101.11 175.464,-102.3 183.91,-103.46"/>
<polygon fill="midnightblue" stroke="midnightblue" points="158.623,-96.4539 148.24,-98.5604 157.67,-103.389 158.623,-96.4539"/>
</g>
<!-- Node152 -->
<g id="node3" class="node"><title>Node152</title>
<g id="a_node3"><a xlink:href="../../d0/d0e/classservices_1_1_name_resolver_cache.html#a305b317d2e9c12c41b6620185e61e8e1" target="_top" xlink:title="services::NameResolverCache\l::NameLookupDone">
<polygon fill="white" stroke="black" points="184,-49.5 184,-79.5 332,-79.5 332,-49.5 184,-49.5"/>
<text text-anchor="start" x="192" y="-67.5" font-family="Helvetica,sans-Serif" font-size="10.00">services::NameResolverCache</text>
<text text-anchor="middle" x="258" y="-56.5" font-family="Helvetica,sans-Serif" font-size="10.00">::NameLookupDone</text>
</a>
</g>
</g>
<!-- Node150&#45;&gt;Node152 -->
<g id="edge2" class="edge"><title>Node150&#45;&gt;Node152</title>
<path fill="none" stroke="midnightblue" d="M158.237,-77.5238C166.804,-76.3939 175.464,-75.2519 183.91,-74.1382"/>
<polygon fill="midnightblue" stroke="midnightblue" points="157.696,-74.0646 148.24,-78.842 158.611,-81.0045 157.696,-74.0646"/>
</g>
<!-- Node153 -->
<g id="node4" class="node"><title>Node153</title>
<g id="a_node4"><a xlink:href="../../d0/d0e/classservices_1_1_name_resolver_cache.html#ac6156bc4cc11655f69b747d66be6e2e8" target="_top" xlink:title="services::NameResolverCache\l::NameLookupCancelled">
<polygon fill="white" stroke="black" points="368,-98.5 368,-128.5 516,-128.5 516,-98.5 368,-98.5"/>
<text text-anchor="start" x="376" y="-116.5" font-family="Helvetica,sans-Serif" font-size="10.00">services::NameResolverCache</text>
<text text-anchor="middle" x="442" y="-105.5" font-family="Helvetica,sans-Serif" font-size="10.00">::NameLookupCancelled</text>
</a>
</g>
</g>
<!-- Node152&#45;&gt;Node153 -->
<g id="edge3" class="edge"><title>Node152&#45;&gt;Node153</title>
<path fill="none" stroke="midnightblue" d="M324.923,-82.2485C344.648,-87.5591 366.078,-93.3288 385.094,-98.4484"/>
<polygon fill="midnightblue" stroke="midnightblue" points="325.657,-78.8216 315.091,-79.6014 323.837,-85.5809 325.657,-78.8216"/>
</g>
<!-- Node154 -->
<g id="node5" class="node"><title>Node154</title>
<g id="a_node5"><a xlink:href="../../d0/d0e/classservices_1_1_name_resolver_cache.html#a284f1785bb30775e050c62eb61b4a63d" target="_top" xlink:title="services::NameResolverCache\l::NameLookupFailed">
<polygon fill="white" stroke="black" points="368,-49.5 368,-79.5 516,-79.5 516,-49.5 368,-49.5"/>
<text text-anchor="start" x="376" y="-67.5" font-family="Helvetica,sans-Serif" font-size="10.00">services::NameResolverCache</text>
<text text-anchor="middle" x="442" y="-56.5" font-family="Helvetica,sans-Serif" font-size="10.00">::NameLookupFailed</text>
</a>
</g>
</g>
<!-- Node152&#45;&gt;Node154 -->
<g id="edge4" class="edge"><title>Node152&#45;&gt;Node154</title>
<path fill="none" stroke="midnightblue" d="M342.516,-64.5C350.992,-64.5 359.556,-64.5 367.91,-64.5"/>
<polygon fill="midnightblue" stroke="midnightblue" points="342.24,-61.0001 332.24,-64.5 342.24,-68.0001 342.24,-61.0001"/>
</g>
<!-- Node155 -->
<g id="node6" class="node"><title>Node155</title>
<g id="a_node6"><a xlink:href="../../d0/d0e/classservices_1_1_name_resolver_cache.html#acf7510ed181dff53bc67837c490b6062" target="_top" xlink:title="services::NameResolverCache\l::NameLookupSuccess">
<polygon fill="white" stroke="black" points="368,-0.5 368,-30.5 516,-30.5 516,-0.5 368,-0.5"/>
<text text-anchor="start" x="376" y="-18.5" font-family="Helvetica,sans-Serif" font-size="10.00">services::NameResolverCache</text>
<text text-anchor="middle" x="442" y="-7.5" font-family="Helvetica,sans-Serif" font-size="10.00">::NameLookupSuccess</text>
</a>
</g>
</g>
<!-- Node152&#45;&gt;Node155 -->
<g id="edge5" class="edge"><title>Node152&#45;&gt;Node155</title>
<path fill="none" stroke="midnightblue" d="M324.923,-46.7515C344.648,-41.4409 366.078,-35.6712 385.094,-30.5516"/>
<polygon fill="midnightblue" stroke="midnightblue" points="323.837,-43.4191 315.091,-49.3986 325.657,-50.1784 323.837,-43.4191"/>
</g>
</g>
</svg>
