<?xml version="1.0" encoding="UTF-8" standalone="no"?>
<!DOCTYPE svg PUBLIC "-//W3C//DTD SVG 1.1//EN"
 "http://www.w3.org/Graphics/SVG/1.1/DTD/svg11.dtd">
<!-- Generated by graphviz version 2.38.0 (20140413.2041)
 -->
<!-- Title: services::NameResolverCache::Hash Pages: 1 -->
<svg width="708pt" height="88pt"
 viewBox="0.00 0.00 708.00 88.00" xmlns="http://www.w3.org/2000/svg" xmlns:xlink="http://www.w3.org/1999/xlink">
<g id="graph0" class="graph" transform="scale(1 1) rotate(0) translate(4 84)">
<title>services::NameResolverCache::Hash</title>
<polygon fill="white" stroke="none" points="-4,4 -4,-84 704,-84 704,4 -4,4"/>
<!-- Node52 -->
<g id="node1" class="node"><title>Node52</title>
<polygon fill="#bfbfbf" stroke="black" points="0,-24.5 0,-54.5 148,-54.5 148,-24.5 0,-24.5"/>
<text text-anchor="start" x="8" y="-42.5" font-family="Helvetica,sans-Serif" font-size="10.00">services::NameResolverCache</text>
<text text-anchor="middle" x="74" y="-31.5" font-family="Helvetica,sans-Serif" font-size="10.00">::Hash</text>
</g>
<!-- Node53 -->
<g id="node2" class="node"><title>Node53</title>
<g id="a_node2"><a xlink:href="../../d0/d0e/classservices_1_1_name_resolver_cache.html#a4bea9f7ed8aa9320e48906769a0ad9f6" target="_top" xlink:title="services::NameResolverCache\l::AddToCache">
<polygon fill="white" stroke="black" points="184,-49.5 184,-79.5 332,-79.5 332,-49.5 184,-49.5"/>
<text text-anchor="start" x="192" y="-67.5" font-family="Helvetica,sans-Serif" font-size="10.00">services::NameResolverCache</text>
<text text-anchor="middle" x="258" y="-56.5" font-family="Helvetica,sans-Serif" font-size="10.00">::AddToCache</text>
</a>
</g>
</g>
<!-- Node52&#45;&gt;Node53 -->
<g id="edge1" class="edge"><title>Node52&#45;&gt;Node53</title>
<path fill="none" stroke="midnightblue" d="M158.237,-50.9336C166.804,-52.1105 175.464,-53.3001 183.91,-54.4602"/>
<polygon fill="midnightblue" stroke="midnightblue" points="158.623,-47.4539 148.24,-49.5604 157.67,-54.3888 158.623,-47.4539"/>
</g>
<!-- Node56 -->
<g id="node5" class="node"><title>Node56</title>
<g id="a_node5"><a xlink:href="../../d0/d0e/classservices_1_1_name_resolver_cache.html#ab7141f612bda1a9d19040d37b6a74cbe" target="_top" xlink:title="services::NameResolverCache\l::SearchCache">
<polygon fill="white" stroke="black" points="184,-0.5 184,-30.5 332,-30.5 332,-0.5 184,-0.5"/>
<text text-anchor="start" x="192" y="-18.5" font-family="Helvetica,sans-Serif" font-size="10.00">services::NameResolverCache</text>
<text text-anchor="middle" x="258" y="-7.5" font-family="Helvetica,sans-Serif" font-size="10.00">::SearchCache</text>
</a>
</g>
</g>
<!-- Node52&#45;&gt;Node56 -->
<g id="edge4" class="edge"><title>Node52&#45;&gt;Node56</title>
<path fill="none" stroke="midnightblue" d="M158.237,-28.5238C166.804,-27.3939 175.464,-26.2519 183.91,-25.1382"/>
<polygon fill="midnightblue" stroke="midnightblue" points="157.696,-25.0646 148.24,-29.842 158.611,-32.0045 157.696,-25.0646"/>
</g>
<!-- Node54 -->
<g id="node3" class="node"><title>Node54</title>
<g id="a_node3"><a xlink:href="../../d0/d0e/classservices_1_1_name_resolver_cache.html#a8d759a5e4b14b66215080996aed525c0" target="_top" xlink:title="services::NameResolverCache\l::TryAddToCache">
<polygon fill="white" stroke="black" points="368,-49.5 368,-79.5 516,-79.5 516,-49.5 368,-49.5"/>
<text text-anchor="start" x="376" y="-67.5" font-family="Helvetica,sans-Serif" font-size="10.00">services::NameResolverCache</text>
<text text-anchor="middle" x="442" y="-56.5" font-family="Helvetica,sans-Serif" font-size="10.00">::TryAddToCache</text>
</a>
</g>
</g>
<!-- Node53&#45;&gt;Node54 -->
<g id="edge2" class="edge"><title>Node53&#45;&gt;Node54</title>
<path fill="none" stroke="midnightblue" d="M342.516,-64.5C350.992,-64.5 359.556,-64.5 367.91,-64.5"/>
<polygon fill="midnightblue" stroke="midnightblue" points="342.24,-61.0001 332.24,-64.5 342.24,-68.0001 342.24,-61.0001"/>
</g>
<!-- Node55 -->
<g id="node4" class="node"><title>Node55</title>
<g id="a_node4"><a xlink:href="../../d0/d0e/classservices_1_1_name_resolver_cache.html#acf7510ed181dff53bc67837c490b6062" target="_top" xlink:title="services::NameResolverCache\l::NameLookupSuccess">
<polygon fill="white" stroke="black" points="552,-49.5 552,-79.5 700,-79.5 700,-49.5 552,-49.5"/>
<text text-anchor="start" x="560" y="-67.5" font-family="Helvetica,sans-Serif" font-size="10.00">services::NameResolverCache</text>
<text text-anchor="middle" x="626" y="-56.5" font-family="Helvetica,sans-Serif" font-size="10.00">::NameLookupSuccess</text>
</a>
</g>
</g>
<!-- Node54&#45;&gt;Node55 -->
<g id="edge3" class="edge"><title>Node54&#45;&gt;Node55</title>
<path fill="none" stroke="midnightblue" d="M526.516,-64.5C534.992,-64.5 543.556,-64.5 551.91,-64.5"/>
<polygon fill="midnightblue" stroke="midnightblue" points="526.24,-61.0001 516.24,-64.5 526.24,-68.0001 526.24,-61.0001"/>
</g>
<!-- Node57 -->
<g id="node6" class="node"><title>Node57</title>
<g id="a_node6"><a xlink:href="../../d0/d0e/classservices_1_1_name_resolver_cache.html#abc352a890afcb36ba7bfe88c9e040ed5" target="_top" xlink:title="services::NameResolverCache\l::Lookup">
<polygon fill="white" stroke="black" points="368,-0.5 368,-30.5 516,-30.5 516,-0.5 368,-0.5"/>
<text text-anchor="start" x="376" y="-18.5" font-family="Helvetica,sans-Serif" font-size="10.00">services::NameResolverCache</text>
<text text-anchor="middle" x="442" y="-7.5" font-family="Helvetica,sans-Serif" font-size="10.00">::Lookup</text>
</a>
</g>
</g>
<!-- Node56&#45;&gt;Node57 -->
<g id="edge5" class="edge"><title>Node56&#45;&gt;Node57</title>
<path fill="none" stroke="midnightblue" d="M342.516,-15.5C350.992,-15.5 359.556,-15.5 367.91,-15.5"/>
<polygon fill="midnightblue" stroke="midnightblue" points="342.24,-12.0001 332.24,-15.5 342.24,-19.0001 342.24,-12.0001"/>
</g>
</g>
</svg>
