<?xml version="1.0" encoding="UTF-8" standalone="no"?>
<!DOCTYPE svg PUBLIC "-//W3C//DTD SVG 1.1//EN"
 "http://www.w3.org/Graphics/SVG/1.1/DTD/svg11.dtd">
<!-- Generated by graphviz version 2.38.0 (20140413.2041)
 -->
<!-- Title: infra::JsonObject::Error Pages: 1 -->
<svg width="487pt" height="94pt"
 viewBox="0.00 0.00 487.00 93.50" xmlns="http://www.w3.org/2000/svg" xmlns:xlink="http://www.w3.org/1999/xlink">
<g id="graph0" class="graph" transform="scale(1 1) rotate(0) translate(4 89.5)">
<title>infra::JsonObject::Error</title>
<polygon fill="white" stroke="none" points="-4,4 -4,-89.5 483,-89.5 483,4 -4,4"/>
<!-- Node13 -->
<g id="node1" class="node"><title>Node13</title>
<polygon fill="#bfbfbf" stroke="black" points="0,-24.5 0,-54.5 95,-54.5 95,-24.5 0,-24.5"/>
<text text-anchor="start" x="8" y="-42.5" font-family="Helvetica,sans-Serif" font-size="10.00">infra::JsonObject::</text>
<text text-anchor="middle" x="47.5" y="-31.5" font-family="Helvetica,sans-Serif" font-size="10.00">Error</text>
</g>
<!-- Node14 -->
<g id="node2" class="node"><title>Node14</title>
<g id="a_node2"><a xlink:href="../../d0/de4/classapplication_1_1_upgrade_pack_config_parser.html#aab7188a9e91fc4628dd2997be87226e5" target="_top" xlink:title="application::UpgradePack\lConfigParser::CheckValidJson">
<polygon fill="white" stroke="black" points="131,-49.5 131,-79.5 279,-79.5 279,-49.5 131,-49.5"/>
<text text-anchor="start" x="139" y="-67.5" font-family="Helvetica,sans-Serif" font-size="10.00">application::UpgradePack</text>
<text text-anchor="middle" x="205" y="-56.5" font-family="Helvetica,sans-Serif" font-size="10.00">ConfigParser::CheckValidJson</text>
</a>
</g>
</g>
<!-- Node13&#45;&gt;Node14 -->
<g id="edge1" class="edge"><title>Node13&#45;&gt;Node14</title>
<path fill="none" stroke="midnightblue" d="M105.163,-48.6098C113.534,-49.9557 122.259,-51.3584 130.906,-52.7486"/>
<polygon fill="midnightblue" stroke="midnightblue" points="105.584,-45.1326 95.1551,-47.0008 104.473,-52.0439 105.584,-45.1326"/>
</g>
<!-- Node16 -->
<g id="node4" class="node"><title>Node16</title>
<g id="a_node4"><a xlink:href="../../d1/dcf/classinfra_1_1_json_object.html#a931aab12ab0958cfb2439a9b7acf1ee0" target="_top" xlink:title="infra::JsonObject::\loperator==">
<polygon fill="white" stroke="black" points="157.5,-0.5 157.5,-30.5 252.5,-30.5 252.5,-0.5 157.5,-0.5"/>
<text text-anchor="start" x="165.5" y="-18.5" font-family="Helvetica,sans-Serif" font-size="10.00">infra::JsonObject::</text>
<text text-anchor="middle" x="205" y="-7.5" font-family="Helvetica,sans-Serif" font-size="10.00">operator==</text>
</a>
</g>
</g>
<!-- Node13&#45;&gt;Node16 -->
<g id="edge3" class="edge"><title>Node13&#45;&gt;Node16</title>
<path fill="none" stroke="midnightblue" d="M105.071,-30.7688C122.253,-28.1169 140.929,-25.2345 157.378,-22.6957"/>
<polygon fill="midnightblue" stroke="midnightblue" points="104.504,-27.3147 95.1551,-32.2992 105.572,-34.2328 104.504,-27.3147"/>
</g>
<!-- Node15 -->
<g id="node3" class="node"><title>Node15</title>
<g id="a_node3"><a xlink:href="../../d0/de4/classapplication_1_1_upgrade_pack_config_parser.html#a5a1aeea9f1ad42bcab6b9e68d1d7bb9c" target="_top" xlink:title="application::UpgradePack\lConfigParser::UpgradePackConfig\lParser">
<polygon fill="white" stroke="black" points="315,-44 315,-85 479,-85 479,-44 315,-44"/>
<text text-anchor="start" x="323" y="-73" font-family="Helvetica,sans-Serif" font-size="10.00">application::UpgradePack</text>
<text text-anchor="start" x="323" y="-62" font-family="Helvetica,sans-Serif" font-size="10.00">ConfigParser::UpgradePackConfig</text>
<text text-anchor="middle" x="397" y="-51" font-family="Helvetica,sans-Serif" font-size="10.00">Parser</text>
</a>
</g>
</g>
<!-- Node14&#45;&gt;Node15 -->
<g id="edge2" class="edge"><title>Node14&#45;&gt;Node15</title>
<path fill="none" stroke="midnightblue" d="M289.439,-64.5C297.91,-64.5 306.505,-64.5 314.949,-64.5"/>
<polygon fill="midnightblue" stroke="midnightblue" points="289.187,-61.0001 279.187,-64.5 289.187,-68.0001 289.187,-61.0001"/>
</g>
</g>
</svg>
