<?xml version="1.0" encoding="UTF-8" standalone="no"?>
<!DOCTYPE svg PUBLIC "-//W3C//DTD SVG 1.1//EN"
 "http://www.w3.org/Graphics/SVG/1.1/DTD/svg11.dtd">
<!-- Generated by graphviz version 2.38.0 (20140413.2041)
 -->
<!-- Title: infra::JsonObject::GetValue Pages: 1 -->
<svg width="234pt" height="78pt"
 viewBox="0.00 0.00 234.00 77.50" xmlns="http://www.w3.org/2000/svg" xmlns:xlink="http://www.w3.org/1999/xlink">
<g id="graph0" class="graph" transform="scale(1 1) rotate(0) translate(4 73.5)">
<title>infra::JsonObject::GetValue</title>
<polygon fill="white" stroke="none" points="-4,4 -4,-73.5 230,-73.5 230,4 -4,4"/>
<!-- Node47 -->
<g id="node1" class="node"><title>Node47</title>
<polygon fill="#bfbfbf" stroke="black" points="0,-22.5 0,-52.5 95,-52.5 95,-22.5 0,-22.5"/>
<text text-anchor="start" x="8" y="-40.5" font-family="Helvetica,sans-Serif" font-size="10.00">infra::JsonObject::</text>
<text text-anchor="middle" x="47.5" y="-29.5" font-family="Helvetica,sans-Serif" font-size="10.00">GetValue</text>
</g>
<!-- Node48 -->
<g id="node2" class="node"><title>Node48</title>
<g id="a_node2"><a xlink:href="../../da/d2a/classinfra_1_1_variant.html#a5c22ee95a815d91911bf3ce196c852a0" target="_top" xlink:title="infra::Variant::Get">
<polygon fill="white" stroke="black" points="132,-50 132,-69 225,-69 225,-50 132,-50"/>
<text text-anchor="middle" x="178.5" y="-57" font-family="Helvetica,sans-Serif" font-size="10.00">infra::Variant::Get</text>
</a>
</g>
</g>
<!-- Node47&#45;&gt;Node48 -->
<g id="edge1" class="edge"><title>Node47&#45;&gt;Node48</title>
<path fill="none" stroke="midnightblue" d="M95.072,-45.4425C103.776,-46.927 112.954,-48.4921 121.898,-50.0175"/>
<polygon fill="midnightblue" stroke="midnightblue" points="121.414,-53.4855 131.861,-51.7165 122.591,-46.5851 121.414,-53.4855"/>
</g>
<!-- Node49 -->
<g id="node3" class="node"><title>Node49</title>
<g id="a_node3"><a xlink:href="../../d1/dcf/classinfra_1_1_json_object.html#a19172fbafbc4d78c476b774105a3f2d4" target="_top" xlink:title="infra::JsonObject::\lSetError">
<polygon fill="white" stroke="black" points="131,-0.5 131,-30.5 226,-30.5 226,-0.5 131,-0.5"/>
<text text-anchor="start" x="139" y="-18.5" font-family="Helvetica,sans-Serif" font-size="10.00">infra::JsonObject::</text>
<text text-anchor="middle" x="178.5" y="-7.5" font-family="Helvetica,sans-Serif" font-size="10.00">SetError</text>
</a>
</g>
</g>
<!-- Node47&#45;&gt;Node49 -->
<g id="edge2" class="edge"><title>Node47&#45;&gt;Node49</title>
<path fill="none" stroke="midnightblue" d="M95.072,-29.5575C103.475,-28.1244 112.319,-26.6161 120.969,-25.1409"/>
<polygon fill="midnightblue" stroke="midnightblue" points="121.727,-28.5623 130.996,-23.4308 120.55,-21.6619 121.727,-28.5623"/>
</g>
</g>
</svg>
