<?xml version="1.0" encoding="UTF-8" standalone="no"?>
<!DOCTYPE svg PUBLIC "-//W3C//DTD SVG 1.1//EN"
 "http://www.w3.org/Graphics/SVG/1.1/DTD/svg11.dtd">
<!-- Generated by graphviz version 2.38.0 (20140413.2041)
 -->
<!-- Title: services::MqttClientImpl::MqttFormatter Pages: 1 -->
<svg width="244pt" height="308pt"
 viewBox="0.00 0.00 244.00 308.00" xmlns="http://www.w3.org/2000/svg" xmlns:xlink="http://www.w3.org/1999/xlink">
<g id="graph0" class="graph" transform="scale(1 1) rotate(0) translate(4 304)">
<title>services::MqttClientImpl::MqttFormatter</title>
<polygon fill="white" stroke="none" points="-4,4 -4,-304 240,-304 240,4 -4,4"/>
<!-- Node1 -->
<g id="node1" class="node"><title>Node1</title>
<polygon fill="#bfbfbf" stroke="black" points="90,-0.5 90,-30.5 210,-30.5 210,-0.5 90,-0.5"/>
<text text-anchor="start" x="98" y="-18.5" font-family="Helvetica,sans-Serif" font-size="10.00">services::MqttClientImpl</text>
<text text-anchor="middle" x="150" y="-7.5" font-family="Helvetica,sans-Serif" font-size="10.00">::MqttFormatter</text>
</g>
<!-- Node2 -->
<g id="node2" class="node"><title>Node2</title>
<g id="a_node2"><a xlink:href="../../d6/d7d/classinfra_1_1_data_output_stream.html" target="_top" xlink:title="infra::DataOutputStream">
<polygon fill="white" stroke="black" points="89,-78.5 89,-97.5 211,-97.5 211,-78.5 89,-78.5"/>
<text text-anchor="middle" x="150" y="-85.5" font-family="Helvetica,sans-Serif" font-size="10.00">infra::DataOutputStream</text>
</a>
</g>
</g>
<!-- Node2&#45;&gt;Node1 -->
<g id="edge1" class="edge"><title>Node2&#45;&gt;Node1</title>
<path fill="none" stroke="#9a32cd" stroke-dasharray="5,2" d="M150,-68.2362C150,-56.4079 150,-41.3829 150,-30.5762"/>
<polygon fill="#9a32cd" stroke="#9a32cd" points="146.5,-68.3553 150,-78.3553 153.5,-68.3554 146.5,-68.3553"/>
<text text-anchor="middle" x="167" y="-52" font-family="Helvetica,sans-Serif" font-size="10.00"> stream</text>
</g>
<!-- Node3 -->
<g id="node3" class="node"><title>Node3</title>
<g id="a_node3"><a xlink:href="../../d6/d97/classinfra_1_1_output_stream.html" target="_top" xlink:title="infra::OutputStream">
<polygon fill="white" stroke="black" points="99.5,-135.5 99.5,-154.5 200.5,-154.5 200.5,-135.5 99.5,-135.5"/>
<text text-anchor="middle" x="150" y="-142.5" font-family="Helvetica,sans-Serif" font-size="10.00">infra::OutputStream</text>
</a>
</g>
</g>
<!-- Node3&#45;&gt;Node2 -->
<g id="edge2" class="edge"><title>Node3&#45;&gt;Node2</title>
<path fill="none" stroke="midnightblue" d="M150,-125.117C150,-115.817 150,-105.056 150,-97.7149"/>
<polygon fill="midnightblue" stroke="midnightblue" points="146.5,-125.406 150,-135.406 153.5,-125.406 146.5,-125.406"/>
</g>
<!-- Node4 -->
<g id="node4" class="node"><title>Node4</title>
<g id="a_node4"><a xlink:href="../../d5/d4a/classinfra_1_1_stream_error_policy.html" target="_top" xlink:title="infra::StreamErrorPolicy">
<polygon fill="white" stroke="black" points="0,-202.5 0,-221.5 120,-221.5 120,-202.5 0,-202.5"/>
<text text-anchor="middle" x="60" y="-209.5" font-family="Helvetica,sans-Serif" font-size="10.00">infra::StreamErrorPolicy</text>
</a>
</g>
</g>
<!-- Node4&#45;&gt;Node3 -->
<g id="edge3" class="edge"><title>Node4&#45;&gt;Node3</title>
<path fill="none" stroke="#9a32cd" stroke-dasharray="5,2" d="M80.6753,-196.068C98.4402,-183.238 123.436,-165.185 138.055,-154.627"/>
<polygon fill="#9a32cd" stroke="#9a32cd" points="78.1954,-193.541 72.1378,-202.234 82.2938,-199.216 78.1954,-193.541"/>
<text text-anchor="middle" x="136" y="-176" font-family="Helvetica,sans-Serif" font-size="10.00"> errorPolicy</text>
</g>
<!-- Node5 -->
<g id="node5" class="node"><title>Node5</title>
<polygon fill="white" stroke="#bfbfbf" points="3.5,-280.5 3.5,-299.5 38.5,-299.5 38.5,-280.5 3.5,-280.5"/>
<text text-anchor="middle" x="21" y="-287.5" font-family="Helvetica,sans-Serif" font-size="10.00">bool</text>
</g>
<!-- Node5&#45;&gt;Node4 -->
<g id="edge4" class="edge"><title>Node5&#45;&gt;Node4</title>
<path fill="none" stroke="#9a32cd" stroke-dasharray="5,2" d="M17.5482,-270.364C16.6886,-260.769 17.1372,-249.189 22,-240 26.1639,-232.132 33.7654,-226.04 41.0816,-221.651"/>
<polygon fill="#9a32cd" stroke="#9a32cd" points="14.109,-271.042 18.9721,-280.454 21.0403,-270.063 14.109,-271.042"/>
<text text-anchor="middle" x="50" y="-254" font-family="Helvetica,sans-Serif" font-size="10.00"> checkedFail</text>
<text text-anchor="middle" x="50" y="-243" font-family="Helvetica,sans-Serif" font-size="10.00">failed</text>
</g>
<!-- Node6 -->
<g id="node6" class="node"><title>Node6</title>
<polygon fill="white" stroke="#bfbfbf" points="65,-280.5 65,-299.5 135,-299.5 135,-280.5 65,-280.5"/>
<text text-anchor="middle" x="100" y="-287.5" font-family="Helvetica,sans-Serif" font-size="10.00">FailureMode</text>
</g>
<!-- Node6&#45;&gt;Node4 -->
<g id="edge5" class="edge"><title>Node6&#45;&gt;Node4</title>
<path fill="none" stroke="#9a32cd" stroke-dasharray="5,2" d="M92.7574,-270.977C88.7639,-261.564 83.5069,-249.962 78,-240 74.5112,-233.689 70.0112,-226.939 66.3834,-221.767"/>
<polygon fill="#9a32cd" stroke="#9a32cd" points="89.6252,-272.562 96.6752,-280.471 96.0959,-269.892 89.6252,-272.562"/>
<text text-anchor="middle" x="115.5" y="-248.5" font-family="Helvetica,sans-Serif" font-size="10.00"> failureMode</text>
</g>
<!-- Node7 -->
<g id="node7" class="node"><title>Node7</title>
<g id="a_node7"><a xlink:href="../../de/dba/classinfra_1_1_stream_writer.html" target="_top" xlink:title="infra::StreamWriter">
<polygon fill="white" stroke="black" points="138,-202.5 138,-221.5 236,-221.5 236,-202.5 138,-202.5"/>
<text text-anchor="middle" x="187" y="-209.5" font-family="Helvetica,sans-Serif" font-size="10.00">infra::StreamWriter</text>
</a>
</g>
</g>
<!-- Node7&#45;&gt;Node3 -->
<g id="edge6" class="edge"><title>Node7&#45;&gt;Node3</title>
<path fill="none" stroke="#9a32cd" stroke-dasharray="5,2" d="M177.058,-193.535C169.895,-180.95 160.535,-164.507 154.911,-154.627"/>
<polygon fill="#9a32cd" stroke="#9a32cd" points="174.021,-195.275 182.01,-202.234 180.105,-191.812 174.021,-195.275"/>
<text text-anchor="middle" x="184.5" y="-176" font-family="Helvetica,sans-Serif" font-size="10.00"> writer</text>
</g>
</g>
</svg>
