<?xml version="1.0" encoding="UTF-8" standalone="no"?>
<!DOCTYPE svg PUBLIC "-//W3C//DTD SVG 1.1//EN"
 "http://www.w3.org/Graphics/SVG/1.1/DTD/svg11.dtd">
<!-- Generated by graphviz version 2.38.0 (20140413.2041)
 -->
<!-- Title: services::I2cMultipleAccessMaster Pages: 1 -->
<svg width="1120pt" height="246pt"
 viewBox="0.00 0.00 1120.00 246.00" xmlns="http://www.w3.org/2000/svg" xmlns:xlink="http://www.w3.org/1999/xlink">
<g id="graph0" class="graph" transform="scale(1 1) rotate(0) translate(4 242)">
<title>services::I2cMultipleAccessMaster</title>
<polygon fill="white" stroke="none" points="-4,4 -4,-242 1116,-242 1116,4 -4,4"/>
<!-- Node3 -->
<g id="node1" class="node"><title>Node3</title>
<polygon fill="#bfbfbf" stroke="black" points="975,-151 975,-181 1112,-181 1112,-151 975,-151"/>
<text text-anchor="start" x="983" y="-169" font-family="Helvetica,sans-Serif" font-size="10.00">services::I2cMultipleAccess</text>
<text text-anchor="middle" x="1043.5" y="-158" font-family="Helvetica,sans-Serif" font-size="10.00">Master</text>
</g>
<!-- Node4 -->
<g id="node2" class="node"><title>Node4</title>
<g id="a_node2"><a xlink:href="../../df/d85/classhal_1_1_i2c_master.html" target="_top" xlink:title="hal::I2cMaster">
<polygon fill="white" stroke="black" points="779.5,-176.5 779.5,-195.5 857.5,-195.5 857.5,-176.5 779.5,-176.5"/>
<text text-anchor="middle" x="818.5" y="-183.5" font-family="Helvetica,sans-Serif" font-size="10.00">hal::I2cMaster</text>
</a>
</g>
</g>
<!-- Node4&#45;&gt;Node3 -->
<g id="edge1" class="edge"><title>Node4&#45;&gt;Node3</title>
<path fill="none" stroke="midnightblue" d="M867.789,-181.669C899.078,-178.863 940.284,-175.167 974.821,-172.07"/>
<polygon fill="midnightblue" stroke="midnightblue" points="867.229,-178.205 857.582,-182.585 867.854,-185.177 867.229,-178.205"/>
</g>
<!-- Node4&#45;&gt;Node3 -->
<g id="edge14" class="edge"><title>Node4&#45;&gt;Node3</title>
<path fill="none" stroke="#9a32cd" stroke-dasharray="5,2" d="M867.899,-183.574C894.273,-182.065 927.466,-179.864 957,-177 962.81,-176.437 968.833,-175.79 974.871,-175.098"/>
<polygon fill="#9a32cd" stroke="#9a32cd" points="867.571,-180.087 857.782,-184.138 867.961,-187.076 867.571,-180.087"/>
<text text-anchor="middle" x="928" y="-184" font-family="Helvetica,sans-Serif" font-size="10.00"> master</text>
</g>
<!-- Node5 -->
<g id="node3" class="node"><title>Node5</title>
<g id="a_node3"><a xlink:href="../../d0/d93/classinfra_1_1_claimable_resource.html" target="_top" xlink:title="infra::ClaimableResource">
<polygon fill="white" stroke="black" points="756,-125.5 756,-144.5 881,-144.5 881,-125.5 756,-125.5"/>
<text text-anchor="middle" x="818.5" y="-132.5" font-family="Helvetica,sans-Serif" font-size="10.00">infra::ClaimableResource</text>
</a>
</g>
</g>
<!-- Node5&#45;&gt;Node3 -->
<g id="edge2" class="edge"><title>Node5&#45;&gt;Node3</title>
<path fill="none" stroke="midnightblue" d="M891.133,-144.958C917.999,-148.693 948.422,-152.922 974.909,-156.604"/>
<polygon fill="midnightblue" stroke="midnightblue" points="891.413,-141.463 881.026,-143.553 890.449,-148.397 891.413,-141.463"/>
</g>
<!-- Node6 -->
<g id="node4" class="node"><title>Node6</title>
<g id="a_node4"><a xlink:href="../../da/d20/classinfra_1_1_claimable_resource_1_1_claimer_base.html" target="_top" xlink:title="infra::ClaimableResource\l::ClaimerBase">
<polygon fill="white" stroke="black" points="981,-49 981,-79 1106,-79 1106,-49 981,-49"/>
<text text-anchor="start" x="989" y="-67" font-family="Helvetica,sans-Serif" font-size="10.00">infra::ClaimableResource</text>
<text text-anchor="middle" x="1043.5" y="-56" font-family="Helvetica,sans-Serif" font-size="10.00">::ClaimerBase</text>
</a>
</g>
</g>
<!-- Node5&#45;&gt;Node6 -->
<g id="edge6" class="edge"><title>Node5&#45;&gt;Node6</title>
<path fill="none" stroke="#9a32cd" stroke-dasharray="5,2" d="M837.434,-118.671C852.646,-105.844 875.658,-88.736 899,-80 924.825,-70.3346 954.951,-66.0213 980.914,-64.2452"/>
<polygon fill="#9a32cd" stroke="#9a32cd" points="835.086,-116.075 829.834,-125.277 839.678,-121.359 835.086,-116.075"/>
<text text-anchor="middle" x="928" y="-83" font-family="Helvetica,sans-Serif" font-size="10.00"> resource</text>
</g>
<!-- Node6&#45;&gt;Node5 -->
<g id="edge3" class="edge"><title>Node6&#45;&gt;Node5</title>
<path fill="none" stroke="#9a32cd" stroke-dasharray="5,2" d="M989.42,-82.2843C978.707,-85.8955 967.509,-89.6138 957,-93 921.126,-104.56 879.734,-117.095 851.814,-125.433"/>
<polygon fill="#9a32cd" stroke="#9a32cd" points="990.74,-85.5328 999.089,-79.0105 988.495,-78.9026 990.74,-85.5328"/>
<text text-anchor="middle" x="928" y="-114" font-family="Helvetica,sans-Serif" font-size="10.00"> currentClaim</text>
</g>
<!-- Node7 -->
<g id="node5" class="node"><title>Node7</title>
<g id="a_node5"><a xlink:href="../../d7/da5/classinfra_1_1detail_1_1_intrusive_list_node.html" target="_top" xlink:title="infra::IntrusiveList\l\&lt; ClaimerBase \&gt;::NodeType">
<polygon fill="white" stroke="black" points="361,-30 361,-60 501,-60 501,-30 361,-30"/>
<text text-anchor="start" x="369" y="-48" font-family="Helvetica,sans-Serif" font-size="10.00">infra::IntrusiveList</text>
<text text-anchor="middle" x="431" y="-37" font-family="Helvetica,sans-Serif" font-size="10.00">&lt; ClaimerBase &gt;::NodeType</text>
</a>
</g>
</g>
<!-- Node7&#45;&gt;Node6 -->
<g id="edge4" class="edge"><title>Node7&#45;&gt;Node6</title>
<path fill="none" stroke="midnightblue" d="M511.263,-47.4668C634.479,-51.3016 869.365,-58.6117 980.838,-62.0809"/>
<polygon fill="midnightblue" stroke="midnightblue" points="511.245,-43.9647 501.141,-47.1518 511.028,-50.9613 511.245,-43.9647"/>
</g>
<!-- Node8 -->
<g id="node6" class="node"><title>Node8</title>
<polygon fill="white" stroke="#bfbfbf" points="0,-72 0,-102 96,-102 96,-72 0,-72"/>
<text text-anchor="start" x="8" y="-90" font-family="Helvetica,sans-Serif" font-size="10.00">IntrusiveListNode&lt;</text>
<text text-anchor="middle" x="48" y="-79" font-family="Helvetica,sans-Serif" font-size="10.00"> T &gt; *</text>
</g>
<!-- Node8&#45;&gt;Node7 -->
<g id="edge5" class="edge"><title>Node8&#45;&gt;Node7</title>
<path fill="none" stroke="#9a32cd" stroke-dasharray="5,2" d="M105.915,-71.8071C126.303,-66.9322 149.548,-62.0187 171,-59 234.989,-49.9955 308.621,-46.6869 360.98,-45.5179"/>
<polygon fill="#9a32cd" stroke="#9a32cd" points="105.042,-68.4175 96.1564,-74.1886 106.701,-75.218 105.042,-68.4175"/>
<text text-anchor="middle" x="133.5" y="-84" font-family="Helvetica,sans-Serif" font-size="10.00"> previous</text>
<text text-anchor="middle" x="133.5" y="-73" font-family="Helvetica,sans-Serif" font-size="10.00">next</text>
</g>
<!-- Node11 -->
<g id="node9" class="node"><title>Node11</title>
<g id="a_node9"><a xlink:href="../../d7/da5/classinfra_1_1detail_1_1_intrusive_list_node.html" target="_top" xlink:title="infra::detail::Intrusive\lListNode\&lt; T \&gt;">
<polygon fill="white" stroke="black" points="204.5,-169 204.5,-199 309.5,-199 309.5,-169 204.5,-169"/>
<text text-anchor="start" x="212.5" y="-187" font-family="Helvetica,sans-Serif" font-size="10.00">infra::detail::Intrusive</text>
<text text-anchor="middle" x="257" y="-176" font-family="Helvetica,sans-Serif" font-size="10.00">ListNode&lt; T &gt;</text>
</a>
</g>
</g>
<!-- Node8&#45;&gt;Node11 -->
<g id="edge10" class="edge"><title>Node8&#45;&gt;Node11</title>
<path fill="none" stroke="#9a32cd" stroke-dasharray="5,2" d="M79.3842,-107.804C103.411,-123.535 138.25,-144.781 171,-159 181.582,-163.594 193.259,-167.642 204.482,-171.07"/>
<polygon fill="#9a32cd" stroke="#9a32cd" points="81.3152,-104.885 71.0452,-102.282 77.4499,-110.721 81.3152,-104.885"/>
<text text-anchor="middle" x="133.5" y="-164" font-family="Helvetica,sans-Serif" font-size="10.00"> previous</text>
<text text-anchor="middle" x="133.5" y="-153" font-family="Helvetica,sans-Serif" font-size="10.00">next</text>
</g>
<!-- Node9 -->
<g id="node7" class="node"><title>Node9</title>
<polygon fill="white" stroke="#bfbfbf" points="801,-0.5 801,-19.5 836,-19.5 836,-0.5 801,-0.5"/>
<text text-anchor="middle" x="818.5" y="-7.5" font-family="Helvetica,sans-Serif" font-size="10.00">bool</text>
</g>
<!-- Node9&#45;&gt;Node6 -->
<g id="edge7" class="edge"><title>Node9&#45;&gt;Node6</title>
<path fill="none" stroke="#9a32cd" stroke-dasharray="5,2" d="M846.702,-6.25623C874.894,-3.32559 919.938,-1.32323 957,-12 982.376,-19.3101 1007.76,-36.2715 1024.2,-48.8462"/>
<polygon fill="#9a32cd" stroke="#9a32cd" points="845.956,-2.8191 836.424,-7.44489 846.76,-9.77275 845.956,-2.8191"/>
<text text-anchor="middle" x="928" y="-26" font-family="Helvetica,sans-Serif" font-size="10.00"> isQueued</text>
<text text-anchor="middle" x="928" y="-15" font-family="Helvetica,sans-Serif" font-size="10.00">isGranted</text>
</g>
<!-- Node10 -->
<g id="node8" class="node"><title>Node10</title>
<g id="a_node8"><a xlink:href="../../df/da4/classinfra_1_1_intrusive_list.html" target="_top" xlink:title="infra::IntrusiveList\l\&lt; infra::ClaimableResource\l::ClaimerBase \&gt;">
<polygon fill="white" stroke="black" points="519,-125.5 519,-166.5 653,-166.5 653,-125.5 519,-125.5"/>
<text text-anchor="start" x="527" y="-154.5" font-family="Helvetica,sans-Serif" font-size="10.00">infra::IntrusiveList</text>
<text text-anchor="start" x="527" y="-143.5" font-family="Helvetica,sans-Serif" font-size="10.00">&lt; infra::ClaimableResource</text>
<text text-anchor="middle" x="586" y="-132.5" font-family="Helvetica,sans-Serif" font-size="10.00">::ClaimerBase &gt;</text>
</a>
</g>
</g>
<!-- Node10&#45;&gt;Node5 -->
<g id="edge8" class="edge"><title>Node10&#45;&gt;Node5</title>
<path fill="none" stroke="#9a32cd" stroke-dasharray="5,2" d="M663.084,-142.369C693.165,-140.934 727.285,-139.305 755.788,-137.945"/>
<polygon fill="#9a32cd" stroke="#9a32cd" points="662.874,-138.875 653.052,-142.848 663.208,-145.867 662.874,-138.875"/>
<text text-anchor="middle" x="704.5" y="-145" font-family="Helvetica,sans-Serif" font-size="10.00"> pendingClaims</text>
</g>
<!-- Node11&#45;&gt;Node10 -->
<g id="edge9" class="edge"><title>Node11&#45;&gt;Node10</title>
<path fill="none" stroke="#9a32cd" stroke-dasharray="5,2" d="M320.093,-176.784C376.89,-170.184 460.666,-160.449 518.737,-153.7"/>
<polygon fill="#9a32cd" stroke="#9a32cd" points="319.343,-173.348 309.814,-177.979 320.151,-180.301 319.343,-173.348"/>
<text text-anchor="middle" x="431" y="-174" font-family="Helvetica,sans-Serif" font-size="10.00"> beginNode</text>
</g>
<!-- Node12 -->
<g id="node10" class="node"><title>Node12</title>
<g id="a_node10"><a xlink:href="../../d7/da5/classinfra_1_1detail_1_1_intrusive_list_node.html" target="_top" xlink:title="infra::detail::Intrusive\lListNode\&lt; infra::ClaimableResource\l::ClaimerBase \&gt;">
<polygon fill="white" stroke="black" points="171,-68.5 171,-109.5 343,-109.5 343,-68.5 171,-68.5"/>
<text text-anchor="start" x="179" y="-97.5" font-family="Helvetica,sans-Serif" font-size="10.00">infra::detail::Intrusive</text>
<text text-anchor="start" x="179" y="-86.5" font-family="Helvetica,sans-Serif" font-size="10.00">ListNode&lt; infra::ClaimableResource</text>
<text text-anchor="middle" x="257" y="-75.5" font-family="Helvetica,sans-Serif" font-size="10.00">::ClaimerBase &gt;</text>
</a>
</g>
</g>
<!-- Node12&#45;&gt;Node10 -->
<g id="edge11" class="edge"><title>Node12&#45;&gt;Node10</title>
<path fill="none" stroke="#9a32cd" stroke-dasharray="5,2" d="M353.192,-105.593C406.384,-114.865 471.337,-126.187 518.94,-134.485"/>
<polygon fill="#9a32cd" stroke="#9a32cd" points="353.514,-102.097 343.062,-103.827 352.312,-108.993 353.514,-102.097"/>
<text text-anchor="middle" x="431" y="-134" font-family="Helvetica,sans-Serif" font-size="10.00"> endNode</text>
</g>
<!-- Node12&#45;&gt;Node12 -->
<g id="edge12" class="edge"><title>Node12&#45;&gt;Node12</title>
<path fill="none" stroke="#9a32cd" stroke-dasharray="5,2" d="M236.011,-119.856C239.132,-124.697 246.128,-128 257,-128 274.395,-128 281.869,-119.543 279.423,-109.864"/>
<polygon fill="#9a32cd" stroke="#9a32cd" points="239.462,-119.266 234.577,-109.864 232.533,-120.26 239.462,-119.266"/>
<text text-anchor="middle" x="257" y="-142" font-family="Helvetica,sans-Serif" font-size="10.00"> previous</text>
<text text-anchor="middle" x="257" y="-131" font-family="Helvetica,sans-Serif" font-size="10.00">next</text>
</g>
<!-- Node13 -->
<g id="node11" class="node"><title>Node13</title>
<polygon fill="white" stroke="#bfbfbf" points="235.5,-218.5 235.5,-237.5 278.5,-237.5 278.5,-218.5 235.5,-218.5"/>
<text text-anchor="middle" x="257" y="-225.5" font-family="Helvetica,sans-Serif" font-size="10.00">size_t</text>
</g>
<!-- Node13&#45;&gt;Node10 -->
<g id="edge13" class="edge"><title>Node13&#45;&gt;Node10</title>
<path fill="none" stroke="#9a32cd" stroke-dasharray="5,2" d="M288.687,-225.406C335.415,-220.855 426.809,-209.584 501,-186 516.701,-181.009 533.226,-173.645 547.425,-166.591"/>
<polygon fill="#9a32cd" stroke="#9a32cd" points="288.239,-221.932 278.609,-226.349 288.892,-228.902 288.239,-221.932"/>
<text text-anchor="middle" x="431" y="-219" font-family="Helvetica,sans-Serif" font-size="10.00"> numberOfElements</text>
</g>
</g>
</svg>
