<?xml version="1.0" encoding="UTF-8" standalone="no"?>
<!DOCTYPE svg PUBLIC "-//W3C//DTD SVG 1.1//EN"
 "http://www.w3.org/Graphics/SVG/1.1/DTD/svg11.dtd">
<!-- Generated by graphviz version 2.38.0 (20140413.2041)
 -->
<!-- Title: infra::Creator&lt; T, U, void(ConstructionArgs...)&gt; Pages: 1 -->
<svg width="714pt" height="167pt"
 viewBox="0.00 0.00 714.00 166.50" xmlns="http://www.w3.org/2000/svg" xmlns:xlink="http://www.w3.org/1999/xlink">
<g id="graph0" class="graph" transform="scale(1 1) rotate(0) translate(4 162.5)">
<title>infra::Creator&lt; T, U, void(ConstructionArgs...)&gt;</title>
<polygon fill="white" stroke="none" points="-4,4 -4,-162.5 710,-162.5 710,4 -4,4"/>
<!-- Node2 -->
<g id="node1" class="node"><title>Node2</title>
<polygon fill="#bfbfbf" stroke="black" points="561,-68 561,-98 706,-98 706,-68 561,-68"/>
<text text-anchor="start" x="569" y="-86" font-family="Helvetica,sans-Serif" font-size="10.00">infra::Creator&lt; T,</text>
<text text-anchor="middle" x="633.5" y="-75" font-family="Helvetica,sans-Serif" font-size="10.00"> U, void(ConstructionArgs...)&gt;</text>
</g>
<!-- Node3 -->
<g id="node2" class="node"><title>Node3</title>
<g id="a_node2"><a xlink:href="../../de/de2/classinfra_1_1_creator_base_3_01_t_00_01void_07_construction_args_8_8_8_08_4.html" target="_top" xlink:title="infra::CreatorBase\l\&lt; T, void(ConstructionArgs...)\&gt;">
<polygon fill="white" stroke="black" points="298,-128 298,-158 447,-158 447,-128 298,-128"/>
<text text-anchor="start" x="306" y="-146" font-family="Helvetica,sans-Serif" font-size="10.00">infra::CreatorBase</text>
<text text-anchor="middle" x="372.5" y="-135" font-family="Helvetica,sans-Serif" font-size="10.00">&lt; T, void(ConstructionArgs...)&gt;</text>
</a>
</g>
</g>
<!-- Node3&#45;&gt;Node2 -->
<g id="edge1" class="edge"><title>Node3&#45;&gt;Node2</title>
<path fill="none" stroke="midnightblue" d="M448.425,-125.643C486.08,-116.92 531.27,-106.451 567.451,-98.0693"/>
<polygon fill="midnightblue" stroke="midnightblue" points="447.474,-122.27 438.522,-127.937 449.054,-129.09 447.474,-122.27"/>
</g>
<!-- Node4 -->
<g id="node3" class="node"><title>Node4</title>
<g id="a_node3"><a xlink:href="../../da/d07/classinfra_1_1_function.html" target="_top" xlink:title="infra::Function\&lt; void\l(infra::Optional\&lt; U \&gt;\l &amp;object, ConstructionArgs...\l args)\&gt;">
<polygon fill="white" stroke="black" points="301,-57 301,-109 444,-109 444,-57 301,-57"/>
<text text-anchor="start" x="309" y="-97" font-family="Helvetica,sans-Serif" font-size="10.00">infra::Function&lt; void</text>
<text text-anchor="start" x="309" y="-86" font-family="Helvetica,sans-Serif" font-size="10.00">(infra::Optional&lt; U &gt;</text>
<text text-anchor="start" x="309" y="-75" font-family="Helvetica,sans-Serif" font-size="10.00"> &amp;object, ConstructionArgs...</text>
<text text-anchor="middle" x="372.5" y="-64" font-family="Helvetica,sans-Serif" font-size="10.00"> args)&gt;</text>
</a>
</g>
</g>
<!-- Node4&#45;&gt;Node2 -->
<g id="edge2" class="edge"><title>Node4&#45;&gt;Node2</title>
<path fill="none" stroke="#9a32cd" stroke-dasharray="5,2" d="M454.66,-83C488.707,-83 527.96,-83 560.913,-83"/>
<polygon fill="#9a32cd" stroke="#9a32cd" points="454.273,-79.5001 444.273,-83 454.273,-86.5001 454.273,-79.5001"/>
<text text-anchor="middle" x="504" y="-86" font-family="Helvetica,sans-Serif" font-size="10.00"> emplaceFunction</text>
</g>
<!-- Node5 -->
<g id="node4" class="node"><title>Node5</title>
<g id="a_node4"><a xlink:href="../../dc/df7/classinfra_1_1_optional.html" target="_top" xlink:title="infra::Optional\&lt; U \&gt;">
<polygon fill="white" stroke="black" points="322,-18.5 322,-37.5 423,-37.5 423,-18.5 322,-18.5"/>
<text text-anchor="middle" x="372.5" y="-25.5" font-family="Helvetica,sans-Serif" font-size="10.00">infra::Optional&lt; U &gt;</text>
</a>
</g>
</g>
<!-- Node5&#45;&gt;Node2 -->
<g id="edge3" class="edge"><title>Node5&#45;&gt;Node2</title>
<path fill="none" stroke="#9a32cd" stroke-dasharray="5,2" d="M428.388,-39.6557C467.225,-47.9031 519.652,-59.0362 561.647,-67.954"/>
<polygon fill="#9a32cd" stroke="#9a32cd" points="428.828,-36.1711 418.319,-37.5175 427.373,-43.0184 428.828,-36.1711"/>
<text text-anchor="middle" x="504" y="-67" font-family="Helvetica,sans-Serif" font-size="10.00"> object</text>
</g>
<!-- Node6 -->
<g id="node5" class="node"><title>Node6</title>
<g id="a_node5"><a xlink:href="../../d0/d8c/classinfra_1_1_static_storage.html" target="_top" xlink:title="infra::StaticStorage\&lt; U \&gt;">
<polygon fill="white" stroke="black" points="93,-38.5 93,-57.5 218,-57.5 218,-38.5 93,-38.5"/>
<text text-anchor="middle" x="155.5" y="-45.5" font-family="Helvetica,sans-Serif" font-size="10.00">infra::StaticStorage&lt; U &gt;</text>
</a>
</g>
</g>
<!-- Node6&#45;&gt;Node5 -->
<g id="edge4" class="edge"><title>Node6&#45;&gt;Node5</title>
<path fill="none" stroke="#9a32cd" stroke-dasharray="5,2" d="M228.331,-41.3181C259.012,-38.464 294.064,-35.2033 321.807,-32.6226"/>
<polygon fill="#9a32cd" stroke="#9a32cd" points="227.743,-37.8575 218.11,-42.2688 228.392,-44.8274 227.743,-37.8575"/>
<text text-anchor="middle" x="258" y="-44" font-family="Helvetica,sans-Serif" font-size="10.00"> data</text>
</g>
<!-- Node7 -->
<g id="node6" class="node"><title>Node7</title>
<polygon fill="white" stroke="#bfbfbf" points="0,-38.5 0,-57.5 35,-57.5 35,-38.5 0,-38.5"/>
<text text-anchor="middle" x="17.5" y="-45.5" font-family="Helvetica,sans-Serif" font-size="10.00">type</text>
</g>
<!-- Node7&#45;&gt;Node6 -->
<g id="edge5" class="edge"><title>Node7&#45;&gt;Node6</title>
<path fill="none" stroke="#9a32cd" stroke-dasharray="5,2" d="M45.2987,-48C58.9716,-48 76.2116,-48 92.9287,-48"/>
<polygon fill="#9a32cd" stroke="#9a32cd" points="45.1763,-44.5001 35.1763,-48 45.1762,-51.5001 45.1763,-44.5001"/>
<text text-anchor="middle" x="64" y="-51" font-family="Helvetica,sans-Serif" font-size="10.00"> data</text>
</g>
<!-- Node8 -->
<g id="node7" class="node"><title>Node8</title>
<polygon fill="white" stroke="#bfbfbf" points="138,-0.5 138,-19.5 173,-19.5 173,-0.5 138,-0.5"/>
<text text-anchor="middle" x="155.5" y="-7.5" font-family="Helvetica,sans-Serif" font-size="10.00">bool</text>
</g>
<!-- Node8&#45;&gt;Node5 -->
<g id="edge6" class="edge"><title>Node8&#45;&gt;Node5</title>
<path fill="none" stroke="#9a32cd" stroke-dasharray="5,2" d="M183.519,-9.58497C208.582,-9.4538 246.89,-9.89889 280,-13 293.623,-14.276 308.287,-16.3583 321.799,-18.5708"/>
<polygon fill="#9a32cd" stroke="#9a32cd" points="183.292,-6.08673 173.323,-9.67432 183.353,-13.0865 183.292,-6.08673"/>
<text text-anchor="middle" x="258" y="-16" font-family="Helvetica,sans-Serif" font-size="10.00"> initialized</text>
</g>
</g>
</svg>
