<?xml version="1.0" encoding="UTF-8" standalone="no"?>
<!DOCTYPE svg PUBLIC "-//W3C//DTD SVG 1.1//EN"
 "http://www.w3.org/Graphics/SVG/1.1/DTD/svg11.dtd">
<!-- Generated by graphviz version 2.38.0 (20140413.2041)
 -->
<!-- Title: services::ListenerBsd Pages: 1 -->
<!--zoomable 673 -->
<svg id="main" version="1.1" xmlns="http://www.w3.org/2000/svg" xmlns:xlink="http://www.w3.org/1999/xlink" xml:space="preserve" onload="init(evt)">
<style type="text/css"><![CDATA[
.edge:hover path { stroke: red; }
.edge:hover polygon { stroke: red; fill: red; }
]]></style>
<script type="text/javascript"><![CDATA[
var edges = document.getElementsByTagName('g');
if (edges && edges.length) {
  for (var i=0;i<edges.length;i++) {
    if (edges[i].id.substr(0,4)=='edge') {
      edges[i].setAttribute('class','edge');
    }
  }
}
]]></script>
        <defs>
                <circle id="rim" cx="0" cy="0" r="7"/>
                <circle id="rim2" cx="0" cy="0" r="3.5"/>
                <g id="zoomPlus">
                        <use xlink:href="#rim" fill="#404040">
                                <set attributeName="fill" to="#808080" begin="zoomplus.mouseover" end="zoomplus.mouseout"/>
                        </use>
                        <path d="M-4,0h8M0,-4v8" fill="none" stroke="white" stroke-width="1.5" pointer-events="none"/>
                </g>
                <g id="zoomMin">
                        <use xlink:href="#rim" fill="#404040">
                                <set attributeName="fill" to="#808080" begin="zoomminus.mouseover" end="zoomminus.mouseout"/>
                        </use>
                        <path d="M-4,0h8" fill="none" stroke="white" stroke-width="1.5" pointer-events="none"/>
                </g>
                <g id="dirArrow">
                        <path fill="none" stroke="white" stroke-width="1.5" d="M0,-3.0v7 M-2.5,-0.5L0,-3.0L2.5,-0.5"/>
                </g>
               <g id="resetDef">
                       <use xlink:href="#rim2" fill="#404040">
                               <set attributeName="fill" to="#808080" begin="reset.mouseover" end="reset.mouseout"/>
                       </use>
               </g>
        </defs>

<script type="text/javascript">
var viewWidth = 1132;
var viewHeight = 673;
var sectionId = 'dynsection-1';
</script>
<script xlink:href="../../svgpan.js"/>
<svg id="graph" class="graph">
<g id="viewport">
<title>services::ListenerBsd</title>
<polygon fill="white" stroke="none" points="-4,4 -4,-669 1128,-669 1128,4 -4,4"/>
<!-- Node2 -->
<g id="node1" class="node"><title>Node2</title>
<polygon fill="#bfbfbf" stroke="black" points="1014,-573 1014,-592 1124,-592 1124,-573 1014,-573"/>
<text text-anchor="middle" x="1069" y="-580" font-family="Helvetica,sans-Serif" font-size="10.00">services::ListenerBsd</text>
</g>
<!-- Node3 -->
<g id="node2" class="node"><title>Node3</title>
<g id="a_node2"><a xlink:href="../../d7/da5/classinfra_1_1detail_1_1_intrusive_list_node.html" target="_top" xlink:title="infra::IntrusiveList\l\&lt; ListenerBsd \&gt;::NodeType">
<polygon fill="white" stroke="black" points="355,-634.5 355,-664.5 491,-664.5 491,-634.5 355,-634.5"/>
<text text-anchor="start" x="363" y="-652.5" font-family="Helvetica,sans-Serif" font-size="10.00">infra::IntrusiveList</text>
<text text-anchor="middle" x="423" y="-641.5" font-family="Helvetica,sans-Serif" font-size="10.00">&lt; ListenerBsd &gt;::NodeType</text>
</a>
</g>
</g>
<!-- Node3&#45;&gt;Node2 -->
<g id="edge1" class="edge"><title>Node3&#45;&gt;Node2</title>
<path fill="none" stroke="midnightblue" d="M501.297,-646.975C602.596,-643.047 785.641,-633.82 941,-614.5 965.655,-611.434 971.856,-610.362 996,-604.5 1010.48,-600.984 1026.34,-596.237 1039.48,-592.052"/>
<polygon fill="midnightblue" stroke="midnightblue" points="501.014,-643.483 491.154,-647.361 501.28,-650.478 501.014,-643.483"/>
</g>
<!-- Node4 -->
<g id="node3" class="node"><title>Node4</title>
<polygon fill="white" stroke="#bfbfbf" points="0,-581.5 0,-611.5 96,-611.5 96,-581.5 0,-581.5"/>
<text text-anchor="start" x="8" y="-599.5" font-family="Helvetica,sans-Serif" font-size="10.00">IntrusiveListNode&lt;</text>
<text text-anchor="middle" x="48" y="-588.5" font-family="Helvetica,sans-Serif" font-size="10.00"> T &gt; *</text>
</g>
<!-- Node4&#45;&gt;Node3 -->
<g id="edge2" class="edge"><title>Node4&#45;&gt;Node3</title>
<path fill="none" stroke="#9a32cd" stroke-dasharray="5,2" d="M104.711,-614.507C125.333,-620.512 149.039,-626.647 171,-630.5 232.768,-641.337 304.155,-645.994 354.97,-647.995"/>
<polygon fill="#9a32cd" stroke="#9a32cd" points="105.438,-611.072 94.8558,-611.58 103.445,-617.782 105.438,-611.072"/>
<text text-anchor="middle" x="133.5" y="-641.5" font-family="Helvetica,sans-Serif" font-size="10.00"> previous</text>
<text text-anchor="middle" x="133.5" y="-630.5" font-family="Helvetica,sans-Serif" font-size="10.00">next</text>
</g>
<!-- Node18 -->
<g id="node17" class="node"><title>Node18</title>
<g id="a_node17"><a xlink:href="../../d7/da5/classinfra_1_1detail_1_1_intrusive_list_node.html" target="_top" xlink:title="infra::detail::Intrusive\lListNode\&lt; T \&gt;">
<polygon fill="white" stroke="black" points="201.5,-463.5 201.5,-493.5 306.5,-493.5 306.5,-463.5 201.5,-463.5"/>
<text text-anchor="start" x="209.5" y="-481.5" font-family="Helvetica,sans-Serif" font-size="10.00">infra::detail::Intrusive</text>
<text text-anchor="middle" x="254" y="-470.5" font-family="Helvetica,sans-Serif" font-size="10.00">ListNode&lt; T &gt;</text>
</a>
</g>
</g>
<!-- Node4&#45;&gt;Node18 -->
<g id="edge22" class="edge"><title>Node4&#45;&gt;Node18</title>
<path fill="none" stroke="#9a32cd" stroke-dasharray="5,2" d="M72.7342,-574.263C96.1252,-553.4 133.686,-522.625 171,-503.5 180.404,-498.68 190.899,-494.611 201.156,-491.247"/>
<polygon fill="#9a32cd" stroke="#9a32cd" points="70.1416,-571.889 65.075,-581.194 74.8384,-577.079 70.1416,-571.889"/>
<text text-anchor="middle" x="133.5" y="-554.5" font-family="Helvetica,sans-Serif" font-size="10.00"> previous</text>
<text text-anchor="middle" x="133.5" y="-543.5" font-family="Helvetica,sans-Serif" font-size="10.00">next</text>
</g>
<!-- Node5 -->
<g id="node4" class="node"><title>Node5</title>
<polygon fill="white" stroke="#bfbfbf" points="570,-598 570,-617 599,-617 599,-598 570,-598"/>
<text text-anchor="middle" x="584.5" y="-605" font-family="Helvetica,sans-Serif" font-size="10.00">int</text>
</g>
<!-- Node5&#45;&gt;Node2 -->
<g id="edge3" class="edge"><title>Node5&#45;&gt;Node2</title>
<path fill="none" stroke="#9a32cd" stroke-dasharray="5,2" d="M609.463,-606.7C672.691,-604.522 849.251,-598.007 996,-588.5 1001.76,-588.127 1007.77,-587.694 1013.76,-587.235"/>
<polygon fill="#9a32cd" stroke="#9a32cd" points="609.206,-603.207 599.331,-607.045 609.444,-610.203 609.206,-603.207"/>
<text text-anchor="middle" x="874" y="-602.5" font-family="Helvetica,sans-Serif" font-size="10.00"> listenSocket</text>
</g>
<!-- Node7 -->
<g id="node6" class="node"><title>Node7</title>
<g id="a_node6"><a xlink:href="../../d0/d67/classservices_1_1_event_dispatcher_with_network.html" target="_top" xlink:title="services::EventDispatcher\lWithNetwork">
<polygon fill="white" stroke="black" points="810,-264.5 810,-294.5 938,-294.5 938,-264.5 810,-264.5"/>
<text text-anchor="start" x="818" y="-282.5" font-family="Helvetica,sans-Serif" font-size="10.00">services::EventDispatcher</text>
<text text-anchor="middle" x="874" y="-271.5" font-family="Helvetica,sans-Serif" font-size="10.00">WithNetwork</text>
</a>
</g>
</g>
<!-- Node5&#45;&gt;Node7 -->
<g id="edge16" class="edge"><title>Node5&#45;&gt;Node7</title>
<path fill="none" stroke="#9a32cd" stroke-dasharray="5,2" d="M609.325,-603.24C624.394,-599.961 643.979,-594.596 660,-586.5 669.046,-581.929 668.799,-576.75 678,-572.5 723.738,-551.375 751.685,-583.35 789,-549.5 865.901,-479.74 873.07,-340.956 873.239,-294.815"/>
<polygon fill="#9a32cd" stroke="#9a32cd" points="608.378,-599.861 599.267,-605.269 609.762,-606.722 608.378,-599.861"/>
<text text-anchor="middle" x="733.5" y="-586.5" font-family="Helvetica,sans-Serif" font-size="10.00"> numberOfFileDescriptors</text>
<text text-anchor="middle" x="733.5" y="-575.5" font-family="Helvetica,sans-Serif" font-size="10.00">wakeUpEvent</text>
</g>
<!-- Node6 -->
<g id="node5" class="node"><title>Node6</title>
<g id="a_node5"><a xlink:href="../../d8/d79/classservices_1_1_server_connection_observer_factory.html" target="_top" xlink:title="services::ServerConnection\lObserverFactory">
<polygon fill="white" stroke="black" points="807,-541.5 807,-571.5 941,-571.5 941,-541.5 807,-541.5"/>
<text text-anchor="start" x="815" y="-559.5" font-family="Helvetica,sans-Serif" font-size="10.00">services::ServerConnection</text>
<text text-anchor="middle" x="874" y="-548.5" font-family="Helvetica,sans-Serif" font-size="10.00">ObserverFactory</text>
</a>
</g>
</g>
<!-- Node6&#45;&gt;Node2 -->
<g id="edge4" class="edge"><title>Node6&#45;&gt;Node2</title>
<path fill="none" stroke="#9a32cd" stroke-dasharray="5,2" d="M951.282,-566.776C972.176,-569.591 994.394,-572.584 1013.78,-575.195"/>
<polygon fill="#9a32cd" stroke="#9a32cd" points="951.527,-563.278 941.15,-565.411 950.593,-570.215 951.527,-563.278"/>
<text text-anchor="middle" x="977.5" y="-576.5" font-family="Helvetica,sans-Serif" font-size="10.00"> factory</text>
</g>
<!-- Node7&#45;&gt;Node2 -->
<g id="edge5" class="edge"><title>Node7&#45;&gt;Node2</title>
<path fill="none" stroke="#9a32cd" stroke-dasharray="5,2" d="M890.134,-303.26C929.776,-365.495 1035.4,-531.322 1061.9,-572.928"/>
<polygon fill="#9a32cd" stroke="#9a32cd" points="892.895,-301.08 884.571,-294.526 886.991,-304.84 892.895,-301.08"/>
<text text-anchor="middle" x="977.5" y="-470.5" font-family="Helvetica,sans-Serif" font-size="10.00"> network</text>
</g>
<!-- Node8 -->
<g id="node7" class="node"><title>Node8</title>
<g id="a_node7"><a xlink:href="../../db/da8/classinfra_1_1_event_dispatcher_with_weak_ptr_1_1_with_size.html" target="_top" xlink:title="infra::EventDispatcherWith\lWeakPtr::WithSize\&lt; 50 \&gt;">
<polygon fill="white" stroke="black" points="519,-263.5 519,-293.5 650,-293.5 650,-263.5 519,-263.5"/>
<text text-anchor="start" x="527" y="-281.5" font-family="Helvetica,sans-Serif" font-size="10.00">infra::EventDispatcherWith</text>
<text text-anchor="middle" x="584.5" y="-270.5" font-family="Helvetica,sans-Serif" font-size="10.00">WeakPtr::WithSize&lt; 50 &gt;</text>
</a>
</g>
</g>
<!-- Node8&#45;&gt;Node7 -->
<g id="edge6" class="edge"><title>Node8&#45;&gt;Node7</title>
<path fill="none" stroke="midnightblue" d="M660.025,-272.76C706.451,-271.831 765.532,-272.134 809.685,-273.574"/>
<polygon fill="midnightblue" stroke="midnightblue" points="659.94,-269.26 650.021,-272.984 660.097,-276.259 659.94,-269.26"/>
</g>
<!-- Node8&#45;&gt;Node7 -->
<g id="edge9" class="edge"><title>Node8&#45;&gt;Node7</title>
<path fill="none" stroke="midnightblue" d="M660.025,-284.759C706.451,-286.011 765.532,-286.118 809.685,-284.986"/>
<polygon fill="midnightblue" stroke="midnightblue" points="660.119,-281.26 650.021,-284.465 659.913,-288.257 660.119,-281.26"/>
</g>
<!-- Node9 -->
<g id="node8" class="node"><title>Node9</title>
<g id="a_node8"><a xlink:href="../../db/db4/classservices_1_1_connection_factory.html" target="_top" xlink:title="services::ConnectionFactory">
<polygon fill="white" stroke="black" points="514.5,-225 514.5,-244 654.5,-244 654.5,-225 514.5,-225"/>
<text text-anchor="middle" x="584.5" y="-232" font-family="Helvetica,sans-Serif" font-size="10.00">services::ConnectionFactory</text>
</a>
</g>
</g>
<!-- Node9&#45;&gt;Node7 -->
<g id="edge7" class="edge"><title>Node9&#45;&gt;Node7</title>
<path fill="none" stroke="midnightblue" d="M664.817,-240.808C711.531,-247.122 769.692,-256.389 812.655,-264.438"/>
<polygon fill="midnightblue" stroke="midnightblue" points="665.103,-237.315 654.729,-239.467 664.181,-244.254 665.103,-237.315"/>
</g>
<!-- Node9&#45;&gt;Node7 -->
<g id="edge10" class="edge"><title>Node9&#45;&gt;Node7</title>
<path fill="none" stroke="midnightblue" d="M627.976,-246.106C675.997,-255.732 754.666,-268.293 809.879,-275.32"/>
<polygon fill="midnightblue" stroke="midnightblue" points="628.421,-242.625 617.921,-244.038 627.011,-249.481 628.421,-242.625"/>
</g>
<!-- Node10 -->
<g id="node9" class="node"><title>Node10</title>
<g id="a_node9"><a xlink:href="../../d7/da1/classservices_1_1_datagram_factory.html" target="_top" xlink:title="services::DatagramFactory">
<polygon fill="white" stroke="black" points="518,-187 518,-206 651,-206 651,-187 518,-187"/>
<text text-anchor="middle" x="584.5" y="-194" font-family="Helvetica,sans-Serif" font-size="10.00">services::DatagramFactory</text>
</a>
</g>
</g>
<!-- Node10&#45;&gt;Node7 -->
<g id="edge8" class="edge"><title>Node10&#45;&gt;Node7</title>
<path fill="none" stroke="midnightblue" d="M661.375,-203.893C699.967,-211.53 747.389,-223.15 789,-236.5 812.37,-243.997 838.45,-254.983 855.259,-264.458"/>
<polygon fill="midnightblue" stroke="midnightblue" points="661.733,-200.398 651.252,-201.943 660.409,-207.272 661.733,-200.398"/>
</g>
<!-- Node10&#45;&gt;Node7 -->
<g id="edge11" class="edge"><title>Node10&#45;&gt;Node7</title>
<path fill="none" stroke="midnightblue" d="M616.964,-208.789C657.294,-219.679 729.157,-235.301 789,-254.5 798.138,-257.432 807.691,-260.897 816.941,-264.353"/>
<polygon fill="midnightblue" stroke="midnightblue" points="617.75,-205.375 607.177,-206.053 615.866,-212.116 617.75,-205.375"/>
</g>
<!-- Node11 -->
<g id="node10" class="node"><title>Node11</title>
<polygon fill="white" stroke="#bfbfbf" points="512.5,-137.5 512.5,-167.5 656.5,-167.5 656.5,-137.5 512.5,-137.5"/>
<text text-anchor="start" x="520.5" y="-155.5" font-family="Helvetica,sans-Serif" font-size="10.00">list&lt; infra::WeakPtr</text>
<text text-anchor="middle" x="584.5" y="-144.5" font-family="Helvetica,sans-Serif" font-size="10.00">&lt; services::DatagramBsd &gt; &gt;</text>
</g>
<!-- Node11&#45;&gt;Node7 -->
<g id="edge12" class="edge"><title>Node11&#45;&gt;Node7</title>
<path fill="none" stroke="#9a32cd" stroke-dasharray="5,2" d="M666.701,-162.285C705.415,-169.339 751.372,-181.317 789,-201.5 818.814,-217.492 846.073,-246.641 861.024,-264.421"/>
<polygon fill="#9a32cd" stroke="#9a32cd" points="666.96,-158.778 656.507,-160.51 665.759,-165.674 666.96,-158.778"/>
<text text-anchor="middle" x="733.5" y="-204.5" font-family="Helvetica,sans-Serif" font-size="10.00"> datagrams</text>
</g>
<!-- Node12 -->
<g id="node11" class="node"><title>Node12</title>
<polygon fill="white" stroke="#bfbfbf" points="548.5,-99 548.5,-118 620.5,-118 620.5,-99 548.5,-99"/>
<text text-anchor="middle" x="584.5" y="-106" font-family="Helvetica,sans-Serif" font-size="10.00">WSAEVENT</text>
</g>
<!-- Node12&#45;&gt;Node7 -->
<g id="edge13" class="edge"><title>Node12&#45;&gt;Node7</title>
<path fill="none" stroke="#9a32cd" stroke-dasharray="5,2" d="M630.789,-108.107C674.781,-109.83 741.682,-118.227 789,-150.5 831.171,-179.262 857.174,-236.914 867.66,-264.337"/>
<polygon fill="#9a32cd" stroke="#9a32cd" points="630.77,-104.606 620.672,-107.813 630.566,-111.603 630.77,-104.606"/>
<text text-anchor="middle" x="733.5" y="-153.5" font-family="Helvetica,sans-Serif" font-size="10.00"> wakeUpEvent</text>
</g>
<!-- Node13 -->
<g id="node12" class="node"><title>Node13</title>
<polygon fill="white" stroke="#bfbfbf" points="522.5,-49.5 522.5,-79.5 646.5,-79.5 646.5,-49.5 522.5,-49.5"/>
<text text-anchor="start" x="530.5" y="-67.5" font-family="Helvetica,sans-Serif" font-size="10.00">list&lt; services::Connector</text>
<text text-anchor="middle" x="584.5" y="-56.5" font-family="Helvetica,sans-Serif" font-size="10.00">Bsd &gt;</text>
</g>
<!-- Node13&#45;&gt;Node7 -->
<g id="edge14" class="edge"><title>Node13&#45;&gt;Node7</title>
<path fill="none" stroke="#9a32cd" stroke-dasharray="5,2" d="M656.79,-60.1316C699.103,-61.1418 751.61,-69.1009 789,-97.5 844.98,-140.019 864.917,-228.754 870.837,-264.298"/>
<polygon fill="#9a32cd" stroke="#9a32cd" points="656.584,-56.6291 646.545,-60.0158 656.505,-63.6287 656.584,-56.6291"/>
<text text-anchor="middle" x="733.5" y="-100.5" font-family="Helvetica,sans-Serif" font-size="10.00"> connectors</text>
</g>
<!-- Node14 -->
<g id="node13" class="node"><title>Node14</title>
<polygon fill="white" stroke="#bfbfbf" points="509,-0.5 509,-30.5 660,-30.5 660,-0.5 509,-0.5"/>
<text text-anchor="start" x="517" y="-18.5" font-family="Helvetica,sans-Serif" font-size="10.00">list&lt; infra::WeakPtr</text>
<text text-anchor="middle" x="584.5" y="-7.5" font-family="Helvetica,sans-Serif" font-size="10.00">&lt; services::ConnectionBsd &gt; &gt;</text>
</g>
<!-- Node14&#45;&gt;Node7 -->
<g id="edge15" class="edge"><title>Node14&#45;&gt;Node7</title>
<path fill="none" stroke="#9a32cd" stroke-dasharray="5,2" d="M670.282,-9.45125C710.283,-10.9771 756.295,-19.6183 789,-46.5 858.261,-103.429 870.422,-222.183 872.551,-264.292"/>
<polygon fill="#9a32cd" stroke="#9a32cd" points="670.335,-5.95161 660.254,-9.20986 670.167,-12.9496 670.335,-5.95161"/>
<text text-anchor="middle" x="733.5" y="-49.5" font-family="Helvetica,sans-Serif" font-size="10.00"> connections</text>
</g>
<!-- Node15 -->
<g id="node14" class="node"><title>Node15</title>
<polygon fill="white" stroke="#bfbfbf" points="509,-547.5 509,-577.5 660,-577.5 660,-547.5 509,-547.5"/>
<text text-anchor="start" x="517" y="-565.5" font-family="Helvetica,sans-Serif" font-size="10.00">list&lt; infra::WeakPtr</text>
<text text-anchor="middle" x="584.5" y="-554.5" font-family="Helvetica,sans-Serif" font-size="10.00">&lt; services::ConnectionWin &gt; &gt;</text>
</g>
<!-- Node15&#45;&gt;Node7 -->
<g id="edge17" class="edge"><title>Node15&#45;&gt;Node7</title>
<path fill="none" stroke="#9a32cd" stroke-dasharray="5,2" d="M651.574,-544.932C660.441,-542.699 669.43,-540.498 678,-538.5 727.065,-527.059 751.01,-548.591 789,-515.5 857.376,-455.942 870.094,-336.852 872.459,-294.708"/>
<polygon fill="#9a32cd" stroke="#9a32cd" points="650.472,-541.601 641.643,-547.458 652.198,-548.385 650.472,-541.601"/>
<text text-anchor="middle" x="733.5" y="-541.5" font-family="Helvetica,sans-Serif" font-size="10.00"> connections</text>
</g>
<!-- Node16 -->
<g id="node15" class="node"><title>Node16</title>
<g id="a_node15"><a xlink:href="../../df/da4/classinfra_1_1_intrusive_list.html" target="_top" xlink:title="infra::IntrusiveList\l\&lt; services::ListenerWin \&gt;">
<polygon fill="white" stroke="black" points="520.5,-498.5 520.5,-528.5 648.5,-528.5 648.5,-498.5 520.5,-498.5"/>
<text text-anchor="start" x="528.5" y="-516.5" font-family="Helvetica,sans-Serif" font-size="10.00">infra::IntrusiveList</text>
<text text-anchor="middle" x="584.5" y="-505.5" font-family="Helvetica,sans-Serif" font-size="10.00">&lt; services::ListenerWin &gt;</text>
</a>
</g>
</g>
<!-- Node16&#45;&gt;Node7 -->
<g id="edge18" class="edge"><title>Node16&#45;&gt;Node7</title>
<path fill="none" stroke="#9a32cd" stroke-dasharray="5,2" d="M658.812,-506.305C708.683,-500.086 769.096,-489.534 789,-473.5 847.164,-426.645 865.936,-331.693 871.189,-294.719"/>
<polygon fill="#9a32cd" stroke="#9a32cd" points="658.18,-502.856 648.672,-507.529 659.019,-509.805 658.18,-502.856"/>
<text text-anchor="middle" x="733.5" y="-507.5" font-family="Helvetica,sans-Serif" font-size="10.00"> listeners</text>
</g>
<!-- Node17 -->
<g id="node16" class="node"><title>Node17</title>
<g id="a_node16"><a xlink:href="../../d7/da5/classinfra_1_1detail_1_1_intrusive_list_node.html" target="_top" xlink:title="infra::detail::Intrusive\lListNode\&lt; services::ListenerWin \&gt;">
<polygon fill="white" stroke="black" points="171,-551.5 171,-581.5 337,-581.5 337,-551.5 171,-551.5"/>
<text text-anchor="start" x="179" y="-569.5" font-family="Helvetica,sans-Serif" font-size="10.00">infra::detail::Intrusive</text>
<text text-anchor="middle" x="254" y="-558.5" font-family="Helvetica,sans-Serif" font-size="10.00">ListNode&lt; services::ListenerWin &gt;</text>
</a>
</g>
</g>
<!-- Node17&#45;&gt;Node16 -->
<g id="edge19" class="edge"><title>Node17&#45;&gt;Node16</title>
<path fill="none" stroke="#9a32cd" stroke-dasharray="5,2" d="M347.284,-556.609C391.011,-551.353 443.87,-544.176 491,-535.5 501.715,-533.528 513.053,-531.11 523.981,-528.608"/>
<polygon fill="#9a32cd" stroke="#9a32cd" points="346.757,-553.147 337.24,-557.802 347.583,-560.098 346.757,-553.147"/>
<text text-anchor="middle" x="423" y="-558.5" font-family="Helvetica,sans-Serif" font-size="10.00"> endNode</text>
</g>
<!-- Node17&#45;&gt;Node17 -->
<g id="edge20" class="edge"><title>Node17&#45;&gt;Node17</title>
<path fill="none" stroke="#9a32cd" stroke-dasharray="5,2" d="M232.677,-591.958C235.324,-596.679 242.431,-600 254,-600 272.984,-600 279.955,-591.057 274.912,-581.659"/>
<polygon fill="#9a32cd" stroke="#9a32cd" points="236.187,-591.79 233.088,-581.659 229.192,-591.512 236.187,-591.79"/>
<text text-anchor="middle" x="254" y="-614" font-family="Helvetica,sans-Serif" font-size="10.00"> previous</text>
<text text-anchor="middle" x="254" y="-603" font-family="Helvetica,sans-Serif" font-size="10.00">next</text>
</g>
<!-- Node18&#45;&gt;Node16 -->
<g id="edge21" class="edge"><title>Node18&#45;&gt;Node16</title>
<path fill="none" stroke="#9a32cd" stroke-dasharray="5,2" d="M316.768,-483.977C364.412,-488.334 431.934,-494.792 491,-501.5 500.493,-502.578 510.524,-503.797 520.34,-505.034"/>
<polygon fill="#9a32cd" stroke="#9a32cd" points="316.888,-480.474 306.612,-483.053 316.254,-487.445 316.888,-480.474"/>
<text text-anchor="middle" x="423" y="-504.5" font-family="Helvetica,sans-Serif" font-size="10.00"> beginNode</text>
</g>
<!-- Node20 -->
<g id="node19" class="node"><title>Node20</title>
<g id="a_node19"><a xlink:href="../../df/da4/classinfra_1_1_intrusive_list.html" target="_top" xlink:title="infra::IntrusiveList\l\&lt; services::ListenerBsd \&gt;">
<polygon fill="white" stroke="black" points="520.5,-449.5 520.5,-479.5 648.5,-479.5 648.5,-449.5 520.5,-449.5"/>
<text text-anchor="start" x="528.5" y="-467.5" font-family="Helvetica,sans-Serif" font-size="10.00">infra::IntrusiveList</text>
<text text-anchor="middle" x="584.5" y="-456.5" font-family="Helvetica,sans-Serif" font-size="10.00">&lt; services::ListenerBsd &gt;</text>
</a>
</g>
</g>
<!-- Node18&#45;&gt;Node20 -->
<g id="edge25" class="edge"><title>Node18&#45;&gt;Node20</title>
<path fill="none" stroke="#9a32cd" stroke-dasharray="5,2" d="M315.964,-464.39C323.362,-461.403 330.567,-457.812 337,-453.5 347.494,-446.466 343.584,-436.91 355,-431.5 409.622,-405.616 431.872,-418.952 491,-431.5 499.564,-433.317 500.841,-436.326 509,-439.5 517.773,-442.913 527.229,-446.302 536.363,-449.433"/>
<polygon fill="#9a32cd" stroke="#9a32cd" points="314.712,-461.121 306.534,-467.857 317.128,-467.691 314.712,-461.121"/>
<text text-anchor="middle" x="423" y="-434.5" font-family="Helvetica,sans-Serif" font-size="10.00"> beginNode</text>
</g>
<!-- Node19 -->
<g id="node18" class="node"><title>Node19</title>
<polygon fill="white" stroke="#bfbfbf" points="232.5,-513 232.5,-532 275.5,-532 275.5,-513 232.5,-513"/>
<text text-anchor="middle" x="254" y="-520" font-family="Helvetica,sans-Serif" font-size="10.00">size_t</text>
</g>
<!-- Node19&#45;&gt;Node16 -->
<g id="edge23" class="edge"><title>Node19&#45;&gt;Node16</title>
<path fill="none" stroke="#9a32cd" stroke-dasharray="5,2" d="M285.735,-521.658C339.133,-520.195 450.054,-517.156 520.413,-515.228"/>
<polygon fill="#9a32cd" stroke="#9a32cd" points="285.45,-518.164 275.549,-521.937 285.641,-525.162 285.45,-518.164"/>
<text text-anchor="middle" x="423" y="-523.5" font-family="Helvetica,sans-Serif" font-size="10.00"> numberOfElements</text>
</g>
<!-- Node19&#45;&gt;Node20 -->
<g id="edge28" class="edge"><title>Node19&#45;&gt;Node20</title>
<path fill="none" stroke="#9a32cd" stroke-dasharray="5,2" d="M285.915,-520.576C302.372,-518.246 322.207,-513.224 337,-502.5 349.282,-493.596 341.891,-481.134 355,-473.5 404.918,-444.431 471.906,-445.498 520.435,-451.835"/>
<polygon fill="#9a32cd" stroke="#9a32cd" points="285.211,-517.134 275.675,-521.752 286.009,-524.089 285.211,-517.134"/>
<text text-anchor="middle" x="423" y="-476.5" font-family="Helvetica,sans-Serif" font-size="10.00"> numberOfElements</text>
</g>
<!-- Node20&#45;&gt;Node7 -->
<g id="edge24" class="edge"><title>Node20&#45;&gt;Node7</title>
<path fill="none" stroke="#9a32cd" stroke-dasharray="5,2" d="M658.785,-459.75C708.305,-455.286 768.294,-447.044 789,-432.5 837.85,-398.188 861.26,-326.081 869.455,-294.667"/>
<polygon fill="#9a32cd" stroke="#9a32cd" points="658.377,-456.272 648.715,-460.62 658.979,-463.246 658.377,-456.272"/>
<text text-anchor="middle" x="733.5" y="-461.5" font-family="Helvetica,sans-Serif" font-size="10.00"> listeners</text>
</g>
<!-- Node21 -->
<g id="node20" class="node"><title>Node21</title>
<g id="a_node20"><a xlink:href="../../d7/da5/classinfra_1_1detail_1_1_intrusive_list_node.html" target="_top" xlink:title="infra::detail::Intrusive\lListNode\&lt; services::ListenerBsd \&gt;">
<polygon fill="white" stroke="black" points="171,-374.5 171,-404.5 337,-404.5 337,-374.5 171,-374.5"/>
<text text-anchor="start" x="179" y="-392.5" font-family="Helvetica,sans-Serif" font-size="10.00">infra::detail::Intrusive</text>
<text text-anchor="middle" x="254" y="-381.5" font-family="Helvetica,sans-Serif" font-size="10.00">ListNode&lt; services::ListenerBsd &gt;</text>
</a>
</g>
</g>
<!-- Node21&#45;&gt;Node20 -->
<g id="edge26" class="edge"><title>Node21&#45;&gt;Node20</title>
<path fill="none" stroke="#9a32cd" stroke-dasharray="5,2" d="M346.968,-373.686C393.711,-370.538 449.29,-374.782 491,-402.5 506.231,-412.621 495.262,-427.43 509,-439.5 513.407,-443.372 518.435,-446.649 523.752,-449.421"/>
<polygon fill="#9a32cd" stroke="#9a32cd" points="346.521,-370.21 336.83,-374.491 347.076,-377.188 346.521,-370.21"/>
<text text-anchor="middle" x="423" y="-405.5" font-family="Helvetica,sans-Serif" font-size="10.00"> endNode</text>
</g>
<!-- Node21&#45;&gt;Node21 -->
<g id="edge27" class="edge"><title>Node21&#45;&gt;Node21</title>
<path fill="none" stroke="#9a32cd" stroke-dasharray="5,2" d="M232.677,-414.958C235.324,-419.679 242.431,-423 254,-423 272.984,-423 279.955,-414.057 274.912,-404.659"/>
<polygon fill="#9a32cd" stroke="#9a32cd" points="236.187,-414.79 233.088,-404.659 229.192,-414.512 236.187,-414.79"/>
<text text-anchor="middle" x="254" y="-437" font-family="Helvetica,sans-Serif" font-size="10.00"> previous</text>
<text text-anchor="middle" x="254" y="-426" font-family="Helvetica,sans-Serif" font-size="10.00">next</text>
</g>
<!-- Node22 -->
<g id="node21" class="node"><title>Node22</title>
<polygon fill="white" stroke="#bfbfbf" points="512.5,-400.5 512.5,-430.5 656.5,-430.5 656.5,-400.5 512.5,-400.5"/>
<text text-anchor="start" x="520.5" y="-418.5" font-family="Helvetica,sans-Serif" font-size="10.00">list&lt; infra::WeakPtr</text>
<text text-anchor="middle" x="584.5" y="-407.5" font-family="Helvetica,sans-Serif" font-size="10.00">&lt; services::DatagramWin &gt; &gt;</text>
</g>
<!-- Node22&#45;&gt;Node7 -->
<g id="edge29" class="edge"><title>Node22&#45;&gt;Node7</title>
<path fill="none" stroke="#9a32cd" stroke-dasharray="5,2" d="M666.707,-418.229C705.941,-416.206 752.341,-408.647 789,-387.5 827.065,-365.541 853.981,-318.919 865.984,-294.747"/>
<polygon fill="#9a32cd" stroke="#9a32cd" points="666.486,-414.735 656.636,-418.637 666.769,-421.729 666.486,-414.735"/>
<text text-anchor="middle" x="733.5" y="-420.5" font-family="Helvetica,sans-Serif" font-size="10.00"> datagrams</text>
</g>
<!-- Node23 -->
<g id="node22" class="node"><title>Node23</title>
<polygon fill="white" stroke="#bfbfbf" points="522.5,-351.5 522.5,-381.5 646.5,-381.5 646.5,-351.5 522.5,-351.5"/>
<text text-anchor="start" x="530.5" y="-369.5" font-family="Helvetica,sans-Serif" font-size="10.00">list&lt; services::Connector</text>
<text text-anchor="middle" x="584.5" y="-358.5" font-family="Helvetica,sans-Serif" font-size="10.00">Win &gt;</text>
</g>
<!-- Node23&#45;&gt;Node7 -->
<g id="edge30" class="edge"><title>Node23&#45;&gt;Node7</title>
<path fill="none" stroke="#9a32cd" stroke-dasharray="5,2" d="M656.55,-371.974C696.825,-372.49 747.335,-368.68 789,-351.5 819.009,-339.126 846.005,-311.711 860.887,-294.507"/>
<polygon fill="#9a32cd" stroke="#9a32cd" points="656.617,-368.475 646.543,-371.756 656.464,-375.473 656.617,-368.475"/>
<text text-anchor="middle" x="733.5" y="-375.5" font-family="Helvetica,sans-Serif" font-size="10.00"> connectors</text>
</g>
<!-- Node24 -->
<g id="node23" class="node"><title>Node24</title>
<polygon fill="white" stroke="#bfbfbf" points="563,-313 563,-332 606,-332 606,-313 563,-313"/>
<text text-anchor="middle" x="584.5" y="-320" font-family="Helvetica,sans-Serif" font-size="10.00">fd_set</text>
</g>
<!-- Node24&#45;&gt;Node7 -->
<g id="edge31" class="edge"><title>Node24&#45;&gt;Node7</title>
<path fill="none" stroke="#9a32cd" stroke-dasharray="5,2" d="M616.291,-320.19C656.292,-316.921 728.205,-310.133 789,-299.5 797.122,-298.08 805.631,-296.346 813.986,-294.5"/>
<polygon fill="#9a32cd" stroke="#9a32cd" points="615.816,-316.716 606.126,-321 616.373,-323.694 615.816,-316.716"/>
<text text-anchor="middle" x="733.5" y="-339.5" font-family="Helvetica,sans-Serif" font-size="10.00"> exceptFileDescriptors</text>
<text text-anchor="middle" x="733.5" y="-328.5" font-family="Helvetica,sans-Serif" font-size="10.00">writeFileDescriptors</text>
<text text-anchor="middle" x="733.5" y="-317.5" font-family="Helvetica,sans-Serif" font-size="10.00">readFileDescriptors</text>
</g>
</g>
</svg>
        <g id="navigator" transform="translate(0 0)" fill="#404254">
                <rect fill="#f2f5e9" fill-opacity="0.5" stroke="#606060" stroke-width=".5" x="0" y="0" width="60" height="60"/>
                <use id="zoomplus" xlink:href="#zoomPlus" x="17" y="9" onmousedown="handleZoom(evt,'in')"/>
                <use id="zoomminus" xlink:href="#zoomMin" x="42" y="9" onmousedown="handleZoom(evt,'out')"/>
                <use id="reset" xlink:href="#resetDef" x="30" y="36" onmousedown="handleReset()"/>
                <g id="arrowUp" xlink:href="#dirArrow" transform="translate(30 24)" onmousedown="handlePan(0,-1)">
                  <use xlink:href="#rim" fill="#404040">
                        <set attributeName="fill" to="#808080" begin="arrowUp.mouseover" end="arrowUp.mouseout"/>
                  </use>
                  <path fill="none" stroke="white" stroke-width="1.5" d="M0,-3.0v7 M-2.5,-0.5L0,-3.0L2.5,-0.5"/>
                </g>
                <g id="arrowRight" xlink:href="#dirArrow" transform="rotate(90) translate(36 -43)" onmousedown="handlePan(1,0)">
                  <use xlink:href="#rim" fill="#404040">
                        <set attributeName="fill" to="#808080" begin="arrowRight.mouseover" end="arrowRight.mouseout"/>
                  </use>
                  <path fill="none" stroke="white" stroke-width="1.5" d="M0,-3.0v7 M-2.5,-0.5L0,-3.0L2.5,-0.5"/>
                </g>
                <g id="arrowDown" xlink:href="#dirArrow" transform="rotate(180) translate(-30 -48)" onmousedown="handlePan(0,1)">
                  <use xlink:href="#rim" fill="#404040">
                        <set attributeName="fill" to="#808080" begin="arrowDown.mouseover" end="arrowDown.mouseout"/>
                  </use>
                  <path fill="none" stroke="white" stroke-width="1.5" d="M0,-3.0v7 M-2.5,-0.5L0,-3.0L2.5,-0.5"/>
                </g>
                <g id="arrowLeft" xlink:href="#dirArrow" transform="rotate(270) translate(-36 17)" onmousedown="handlePan(-1,0)">
                  <use xlink:href="#rim" fill="#404040">
                        <set attributeName="fill" to="#808080" begin="arrowLeft.mouseover" end="arrowLeft.mouseout"/>
                  </use>
                  <path fill="none" stroke="white" stroke-width="1.5" d="M0,-3.0v7 M-2.5,-0.5L0,-3.0L2.5,-0.5"/>
                </g>
        </g>
        <svg viewBox="0 0 15 15" width="100%" height="30px" preserveAspectRatio="xMaxYMin meet">
         <g id="arrow_out" transform="scale(0.3 0.3)">
          <a xlink:href="classservices_1_1_listener_bsd__coll__graph_org.svg" target="_base">
           <rect id="button" ry="5" rx="5" y="6" x="6" height="38" width="38"
                fill="#f2f5e9" fill-opacity="0.5" stroke="#606060" stroke-width="1.0"/>
           <path id="arrow"
             d="M 11.500037,31.436501 C 11.940474,20.09759 22.043105,11.32322 32.158766,21.979434 L 37.068811,17.246167 C 37.068811,17.246167 37.088388,32 37.088388,32 L 22.160133,31.978069 C 22.160133,31.978069 26.997745,27.140456 26.997745,27.140456 C 18.528582,18.264221 13.291696,25.230495 11.500037,31.436501 z"
             style="fill:#404040;"/>
          </a>
         </g>
        </svg>
</svg>
