<?xml version="1.0" encoding="UTF-8" standalone="no"?>
<!DOCTYPE svg PUBLIC "-//W3C//DTD SVG 1.1//EN"
 "http://www.w3.org/Graphics/SVG/1.1/DTD/svg11.dtd">
<!-- Generated by graphviz version 2.38.0 (20140413.2041)
 -->
<!-- Title: infra::ClaimableResource::ClaimerWithSize&lt; ExtraSize &gt; Pages: 1 -->
<!--zoomable 276 -->
<svg id="main" version="1.1" xmlns="http://www.w3.org/2000/svg" xmlns:xlink="http://www.w3.org/1999/xlink" xml:space="preserve" onload="init(evt)">
<style type="text/css"><![CDATA[
.edge:hover path { stroke: red; }
.edge:hover polygon { stroke: red; fill: red; }
]]></style>
<script type="text/javascript"><![CDATA[
var edges = document.getElementsByTagName('g');
if (edges && edges.length) {
  for (var i=0;i<edges.length;i++) {
    if (edges[i].id.substr(0,4)=='edge') {
      edges[i].setAttribute('class','edge');
    }
  }
}
]]></script>
        <defs>
                <circle id="rim" cx="0" cy="0" r="7"/>
                <circle id="rim2" cx="0" cy="0" r="3.5"/>
                <g id="zoomPlus">
                        <use xlink:href="#rim" fill="#404040">
                                <set attributeName="fill" to="#808080" begin="zoomplus.mouseover" end="zoomplus.mouseout"/>
                        </use>
                        <path d="M-4,0h8M0,-4v8" fill="none" stroke="white" stroke-width="1.5" pointer-events="none"/>
                </g>
                <g id="zoomMin">
                        <use xlink:href="#rim" fill="#404040">
                                <set attributeName="fill" to="#808080" begin="zoomminus.mouseover" end="zoomminus.mouseout"/>
                        </use>
                        <path d="M-4,0h8" fill="none" stroke="white" stroke-width="1.5" pointer-events="none"/>
                </g>
                <g id="dirArrow">
                        <path fill="none" stroke="white" stroke-width="1.5" d="M0,-3.0v7 M-2.5,-0.5L0,-3.0L2.5,-0.5"/>
                </g>
               <g id="resetDef">
                       <use xlink:href="#rim2" fill="#404040">
                               <set attributeName="fill" to="#808080" begin="reset.mouseover" end="reset.mouseout"/>
                       </use>
               </g>
        </defs>

<script type="text/javascript">
var viewWidth = 867;
var viewHeight = 276;
var sectionId = 'dynsection-1';
</script>
<script xlink:href="../../svgpan.js"/>
<svg id="graph" class="graph">
<g id="viewport">
<title>infra::ClaimableResource::ClaimerWithSize&lt; ExtraSize &gt;</title>
<polygon fill="white" stroke="none" points="-4,4 -4,-271.5 863,-271.5 863,4 -4,4"/>
<!-- Node3 -->
<g id="node1" class="node"><title>Node3</title>
<polygon fill="#bfbfbf" stroke="black" points="703,-220 703,-250 859,-250 859,-220 703,-220"/>
<text text-anchor="start" x="711" y="-238" font-family="Helvetica,sans-Serif" font-size="10.00">infra::ClaimableResource</text>
<text text-anchor="middle" x="781" y="-227" font-family="Helvetica,sans-Serif" font-size="10.00">::ClaimerWithSize&lt; ExtraSize &gt;</text>
</g>
<!-- Node4 -->
<g id="node2" class="node"><title>Node4</title>
<g id="a_node2"><a xlink:href="../../da/d20/classinfra_1_1_claimable_resource_1_1_claimer_base.html" target="_top" xlink:title="infra::ClaimableResource\l::ClaimerBase">
<polygon fill="white" stroke="black" points="470.5,-183 470.5,-213 595.5,-213 595.5,-183 470.5,-183"/>
<text text-anchor="start" x="478.5" y="-201" font-family="Helvetica,sans-Serif" font-size="10.00">infra::ClaimableResource</text>
<text text-anchor="middle" x="533" y="-190" font-family="Helvetica,sans-Serif" font-size="10.00">::ClaimerBase</text>
</a>
</g>
</g>
<!-- Node4&#45;&gt;Node3 -->
<g id="edge1" class="edge"><title>Node4&#45;&gt;Node3</title>
<path fill="none" stroke="midnightblue" d="M605.868,-208.809C636.293,-213.386 671.796,-218.725 702.778,-223.385"/>
<polygon fill="midnightblue" stroke="midnightblue" points="606.168,-205.315 595.759,-207.289 605.127,-212.237 606.168,-205.315"/>
</g>
<!-- Node7 -->
<g id="node5" class="node"><title>Node7</title>
<g id="a_node5"><a xlink:href="../../d0/d93/classinfra_1_1_claimable_resource.html" target="_top" xlink:title="infra::ClaimableResource">
<polygon fill="white" stroke="black" points="718.5,-149.5 718.5,-168.5 843.5,-168.5 843.5,-149.5 718.5,-149.5"/>
<text text-anchor="middle" x="781" y="-156.5" font-family="Helvetica,sans-Serif" font-size="10.00">infra::ClaimableResource</text>
</a>
</g>
</g>
<!-- Node4&#45;&gt;Node7 -->
<g id="edge5" class="edge"><title>Node4&#45;&gt;Node7</title>
<path fill="none" stroke="#9a32cd" stroke-dasharray="5,2" d="M605.774,-186.621C642.01,-180.876 685.469,-173.987 719.917,-168.525"/>
<polygon fill="#9a32cd" stroke="#9a32cd" points="605.087,-183.186 595.759,-188.209 606.183,-190.1 605.087,-183.186"/>
<text text-anchor="middle" x="651.5" y="-188" font-family="Helvetica,sans-Serif" font-size="10.00"> currentClaim</text>
</g>
<!-- Node5 -->
<g id="node3" class="node"><title>Node5</title>
<g id="a_node3"><a xlink:href="../../d7/da5/classinfra_1_1detail_1_1_intrusive_list_node.html" target="_top" xlink:title="infra::IntrusiveList\l\&lt; ClaimerBase \&gt;::NodeType">
<polygon fill="white" stroke="black" points="187,-227 187,-257 327,-257 327,-227 187,-227"/>
<text text-anchor="start" x="195" y="-245" font-family="Helvetica,sans-Serif" font-size="10.00">infra::IntrusiveList</text>
<text text-anchor="middle" x="257" y="-234" font-family="Helvetica,sans-Serif" font-size="10.00">&lt; ClaimerBase &gt;::NodeType</text>
</a>
</g>
</g>
<!-- Node5&#45;&gt;Node4 -->
<g id="edge2" class="edge"><title>Node5&#45;&gt;Node4</title>
<path fill="none" stroke="midnightblue" d="M337.068,-238.159C371.396,-235.555 411.922,-231.212 448,-224 461.622,-221.277 476.174,-217.204 489.273,-213.086"/>
<polygon fill="midnightblue" stroke="midnightblue" points="336.814,-234.669 327.093,-238.881 337.32,-241.65 336.814,-234.669"/>
</g>
<!-- Node6 -->
<g id="node4" class="node"><title>Node6</title>
<polygon fill="white" stroke="#bfbfbf" points="0,-188 0,-218 96,-218 96,-188 0,-188"/>
<text text-anchor="start" x="8" y="-206" font-family="Helvetica,sans-Serif" font-size="10.00">IntrusiveListNode&lt;</text>
<text text-anchor="middle" x="48" y="-195" font-family="Helvetica,sans-Serif" font-size="10.00"> T &gt; *</text>
</g>
<!-- Node6&#45;&gt;Node5 -->
<g id="edge3" class="edge"><title>Node6&#45;&gt;Node5</title>
<path fill="none" stroke="#9a32cd" stroke-dasharray="5,2" d="M106.283,-213.792C131.275,-218.501 160.793,-224.062 186.984,-228.997"/>
<polygon fill="#9a32cd" stroke="#9a32cd" points="106.706,-210.311 96.2305,-211.899 105.41,-217.19 106.706,-210.311"/>
<text text-anchor="middle" x="133.5" y="-237" font-family="Helvetica,sans-Serif" font-size="10.00"> previous</text>
<text text-anchor="middle" x="133.5" y="-226" font-family="Helvetica,sans-Serif" font-size="10.00">next</text>
</g>
<!-- Node9 -->
<g id="node7" class="node"><title>Node9</title>
<g id="a_node7"><a xlink:href="../../d7/da5/classinfra_1_1detail_1_1_intrusive_list_node.html" target="_top" xlink:title="infra::detail::Intrusive\lListNode\&lt; T \&gt;">
<polygon fill="white" stroke="black" points="204.5,-139 204.5,-169 309.5,-169 309.5,-139 204.5,-139"/>
<text text-anchor="start" x="212.5" y="-157" font-family="Helvetica,sans-Serif" font-size="10.00">infra::detail::Intrusive</text>
<text text-anchor="middle" x="257" y="-146" font-family="Helvetica,sans-Serif" font-size="10.00">ListNode&lt; T &gt;</text>
</a>
</g>
</g>
<!-- Node6&#45;&gt;Node9 -->
<g id="edge8" class="edge"><title>Node6&#45;&gt;Node9</title>
<path fill="none" stroke="#9a32cd" stroke-dasharray="5,2" d="M106.349,-189.425C137.017,-182.165 174.482,-173.296 204.254,-166.249"/>
<polygon fill="#9a32cd" stroke="#9a32cd" points="105.155,-186.11 96.2305,-191.82 106.768,-192.922 105.155,-186.11"/>
<text text-anchor="middle" x="133.5" y="-202" font-family="Helvetica,sans-Serif" font-size="10.00"> previous</text>
<text text-anchor="middle" x="133.5" y="-191" font-family="Helvetica,sans-Serif" font-size="10.00">next</text>
</g>
<!-- Node7&#45;&gt;Node4 -->
<g id="edge4" class="edge"><title>Node7&#45;&gt;Node4</title>
<path fill="none" stroke="#9a32cd" stroke-dasharray="5,2" d="M707.948,-153.052C679.619,-152.369 646.997,-153.653 618,-160 597.517,-164.484 576.001,-174.329 559.873,-182.875"/>
<polygon fill="#9a32cd" stroke="#9a32cd" points="708.067,-156.558 718.176,-153.387 708.296,-149.562 708.067,-156.558"/>
<text text-anchor="middle" x="651.5" y="-163" font-family="Helvetica,sans-Serif" font-size="10.00"> resource</text>
</g>
<!-- Node8 -->
<g id="node6" class="node"><title>Node8</title>
<g id="a_node6"><a xlink:href="../../df/da4/classinfra_1_1_intrusive_list.html" target="_top" xlink:title="infra::IntrusiveList\l\&lt; infra::ClaimableResource\l::ClaimerBase \&gt;">
<polygon fill="white" stroke="black" points="466,-62.5 466,-103.5 600,-103.5 600,-62.5 466,-62.5"/>
<text text-anchor="start" x="474" y="-91.5" font-family="Helvetica,sans-Serif" font-size="10.00">infra::IntrusiveList</text>
<text text-anchor="start" x="474" y="-80.5" font-family="Helvetica,sans-Serif" font-size="10.00">&lt; infra::ClaimableResource</text>
<text text-anchor="middle" x="533" y="-69.5" font-family="Helvetica,sans-Serif" font-size="10.00">::ClaimerBase &gt;</text>
</a>
</g>
</g>
<!-- Node8&#45;&gt;Node7 -->
<g id="edge6" class="edge"><title>Node8&#45;&gt;Node7</title>
<path fill="none" stroke="#9a32cd" stroke-dasharray="5,2" d="M610.073,-106.502C656.935,-120.98 714.488,-138.761 749.153,-149.47"/>
<polygon fill="#9a32cd" stroke="#9a32cd" points="610.835,-103.074 600.247,-103.467 608.768,-109.762 610.835,-103.074"/>
<text text-anchor="middle" x="651.5" y="-131" font-family="Helvetica,sans-Serif" font-size="10.00"> pendingClaims</text>
</g>
<!-- Node9&#45;&gt;Node8 -->
<g id="edge7" class="edge"><title>Node9&#45;&gt;Node8</title>
<path fill="none" stroke="#9a32cd" stroke-dasharray="5,2" d="M319.429,-138.082C362.973,-126.799 421.338,-111.675 465.895,-100.129"/>
<polygon fill="#9a32cd" stroke="#9a32cd" points="318.34,-134.749 309.537,-140.645 320.096,-141.525 318.34,-134.749"/>
<text text-anchor="middle" x="404.5" y="-130" font-family="Helvetica,sans-Serif" font-size="10.00"> beginNode</text>
</g>
<!-- Node10 -->
<g id="node8" class="node"><title>Node10</title>
<g id="a_node8"><a xlink:href="../../d7/da5/classinfra_1_1detail_1_1_intrusive_list_node.html" target="_top" xlink:title="infra::detail::Intrusive\lListNode\&lt; infra::ClaimableResource\l::ClaimerBase \&gt;">
<polygon fill="white" stroke="black" points="171,-38.5 171,-79.5 343,-79.5 343,-38.5 171,-38.5"/>
<text text-anchor="start" x="179" y="-67.5" font-family="Helvetica,sans-Serif" font-size="10.00">infra::detail::Intrusive</text>
<text text-anchor="start" x="179" y="-56.5" font-family="Helvetica,sans-Serif" font-size="10.00">ListNode&lt; infra::ClaimableResource</text>
<text text-anchor="middle" x="257" y="-45.5" font-family="Helvetica,sans-Serif" font-size="10.00">::ClaimerBase &gt;</text>
</a>
</g>
</g>
<!-- Node10&#45;&gt;Node8 -->
<g id="edge9" class="edge"><title>Node10&#45;&gt;Node8</title>
<path fill="none" stroke="#9a32cd" stroke-dasharray="5,2" d="M353.498,-67.3648C390.487,-70.6047 431.933,-74.235 465.571,-77.1814"/>
<polygon fill="#9a32cd" stroke="#9a32cd" points="353.461,-63.8482 343.193,-66.4622 352.85,-70.8215 353.461,-63.8482"/>
<text text-anchor="middle" x="404.5" y="-79" font-family="Helvetica,sans-Serif" font-size="10.00"> endNode</text>
</g>
<!-- Node10&#45;&gt;Node10 -->
<g id="edge10" class="edge"><title>Node10&#45;&gt;Node10</title>
<path fill="none" stroke="#9a32cd" stroke-dasharray="5,2" d="M236.011,-89.8561C239.132,-94.6966 246.128,-98 257,-98 274.395,-98 281.869,-89.5433 279.423,-79.8644"/>
<polygon fill="#9a32cd" stroke="#9a32cd" points="239.462,-89.2661 234.577,-79.8644 232.533,-90.2601 239.462,-89.2661"/>
<text text-anchor="middle" x="257" y="-112" font-family="Helvetica,sans-Serif" font-size="10.00"> previous</text>
<text text-anchor="middle" x="257" y="-101" font-family="Helvetica,sans-Serif" font-size="10.00">next</text>
</g>
<!-- Node11 -->
<g id="node9" class="node"><title>Node11</title>
<polygon fill="white" stroke="#bfbfbf" points="235.5,-0.5 235.5,-19.5 278.5,-19.5 278.5,-0.5 235.5,-0.5"/>
<text text-anchor="middle" x="257" y="-7.5" font-family="Helvetica,sans-Serif" font-size="10.00">size_t</text>
</g>
<!-- Node11&#45;&gt;Node8 -->
<g id="edge11" class="edge"><title>Node11&#45;&gt;Node8</title>
<path fill="none" stroke="#9a32cd" stroke-dasharray="5,2" d="M288.621,-16.7375C304.803,-20.325 324.991,-24.8436 343,-29 389.742,-39.7882 401.938,-40.6007 448,-54 456.74,-56.5425 465.913,-59.4534 474.856,-62.4279"/>
<polygon fill="#9a32cd" stroke="#9a32cd" points="289.149,-13.2697 278.629,-14.5276 287.637,-20.1046 289.149,-13.2697"/>
<text text-anchor="middle" x="404.5" y="-57" font-family="Helvetica,sans-Serif" font-size="10.00"> numberOfElements</text>
</g>
<!-- Node12 -->
<g id="node10" class="node"><title>Node12</title>
<polygon fill="white" stroke="#bfbfbf" points="239.5,-188.5 239.5,-207.5 274.5,-207.5 274.5,-188.5 239.5,-188.5"/>
<text text-anchor="middle" x="257" y="-195.5" font-family="Helvetica,sans-Serif" font-size="10.00">bool</text>
</g>
<!-- Node12&#45;&gt;Node4 -->
<g id="edge12" class="edge"><title>Node12&#45;&gt;Node4</title>
<path fill="none" stroke="#9a32cd" stroke-dasharray="5,2" d="M284.895,-198C327.641,-198 412.192,-198 470.388,-198"/>
<polygon fill="#9a32cd" stroke="#9a32cd" points="284.728,-194.5 274.727,-198 284.727,-201.5 284.728,-194.5"/>
<text text-anchor="middle" x="404.5" y="-212" font-family="Helvetica,sans-Serif" font-size="10.00"> isQueued</text>
<text text-anchor="middle" x="404.5" y="-201" font-family="Helvetica,sans-Serif" font-size="10.00">isGranted</text>
</g>
<!-- Node13 -->
<g id="node11" class="node"><title>Node13</title>
<g id="a_node11"><a xlink:href="../../d5/d33/classinfra_1_1_auto_reset_function.html" target="_top" xlink:title="infra::AutoResetFunction\l\&lt; void(), ExtraSize \&gt;">
<polygon fill="white" stroke="black" points="471,-237 471,-267 595,-267 595,-237 471,-237"/>
<text text-anchor="start" x="479" y="-255" font-family="Helvetica,sans-Serif" font-size="10.00">infra::AutoResetFunction</text>
<text text-anchor="middle" x="533" y="-244" font-family="Helvetica,sans-Serif" font-size="10.00">&lt; void(), ExtraSize &gt;</text>
</a>
</g>
</g>
<!-- Node13&#45;&gt;Node3 -->
<g id="edge13" class="edge"><title>Node13&#45;&gt;Node3</title>
<path fill="none" stroke="#9a32cd" stroke-dasharray="5,2" d="M605.282,-247.074C635.863,-244.961 671.659,-242.487 702.859,-240.331"/>
<polygon fill="#9a32cd" stroke="#9a32cd" points="604.86,-243.595 595.125,-247.776 605.343,-250.578 604.86,-243.595"/>
<text text-anchor="middle" x="651.5" y="-250" font-family="Helvetica,sans-Serif" font-size="10.00"> onGranted</text>
</g>
</g>
</svg>
        <g id="navigator" transform="translate(0 0)" fill="#404254">
                <rect fill="#f2f5e9" fill-opacity="0.5" stroke="#606060" stroke-width=".5" x="0" y="0" width="60" height="60"/>
                <use id="zoomplus" xlink:href="#zoomPlus" x="17" y="9" onmousedown="handleZoom(evt,'in')"/>
                <use id="zoomminus" xlink:href="#zoomMin" x="42" y="9" onmousedown="handleZoom(evt,'out')"/>
                <use id="reset" xlink:href="#resetDef" x="30" y="36" onmousedown="handleReset()"/>
                <g id="arrowUp" xlink:href="#dirArrow" transform="translate(30 24)" onmousedown="handlePan(0,-1)">
                  <use xlink:href="#rim" fill="#404040">
                        <set attributeName="fill" to="#808080" begin="arrowUp.mouseover" end="arrowUp.mouseout"/>
                  </use>
                  <path fill="none" stroke="white" stroke-width="1.5" d="M0,-3.0v7 M-2.5,-0.5L0,-3.0L2.5,-0.5"/>
                </g>
                <g id="arrowRight" xlink:href="#dirArrow" transform="rotate(90) translate(36 -43)" onmousedown="handlePan(1,0)">
                  <use xlink:href="#rim" fill="#404040">
                        <set attributeName="fill" to="#808080" begin="arrowRight.mouseover" end="arrowRight.mouseout"/>
                  </use>
                  <path fill="none" stroke="white" stroke-width="1.5" d="M0,-3.0v7 M-2.5,-0.5L0,-3.0L2.5,-0.5"/>
                </g>
                <g id="arrowDown" xlink:href="#dirArrow" transform="rotate(180) translate(-30 -48)" onmousedown="handlePan(0,1)">
                  <use xlink:href="#rim" fill="#404040">
                        <set attributeName="fill" to="#808080" begin="arrowDown.mouseover" end="arrowDown.mouseout"/>
                  </use>
                  <path fill="none" stroke="white" stroke-width="1.5" d="M0,-3.0v7 M-2.5,-0.5L0,-3.0L2.5,-0.5"/>
                </g>
                <g id="arrowLeft" xlink:href="#dirArrow" transform="rotate(270) translate(-36 17)" onmousedown="handlePan(-1,0)">
                  <use xlink:href="#rim" fill="#404040">
                        <set attributeName="fill" to="#808080" begin="arrowLeft.mouseover" end="arrowLeft.mouseout"/>
                  </use>
                  <path fill="none" stroke="white" stroke-width="1.5" d="M0,-3.0v7 M-2.5,-0.5L0,-3.0L2.5,-0.5"/>
                </g>
        </g>
        <svg viewBox="0 0 15 15" width="100%" height="30px" preserveAspectRatio="xMaxYMin meet">
         <g id="arrow_out" transform="scale(0.3 0.3)">
          <a xlink:href="classinfra_1_1_claimable_resource_1_1_claimer_with_size__coll__graph_org.svg" target="_base">
           <rect id="button" ry="5" rx="5" y="6" x="6" height="38" width="38"
                fill="#f2f5e9" fill-opacity="0.5" stroke="#606060" stroke-width="1.0"/>
           <path id="arrow"
             d="M 11.500037,31.436501 C 11.940474,20.09759 22.043105,11.32322 32.158766,21.979434 L 37.068811,17.246167 C 37.068811,17.246167 37.088388,32 37.088388,32 L 22.160133,31.978069 C 22.160133,31.978069 26.997745,27.140456 26.997745,27.140456 C 18.528582,18.264221 13.291696,25.230495 11.500037,31.436501 z"
             style="fill:#404040;"/>
          </a>
         </g>
        </svg>
</svg>
