<?xml version="1.0" encoding="UTF-8" standalone="no"?>
<!DOCTYPE svg PUBLIC "-//W3C//DTD SVG 1.1//EN"
 "http://www.w3.org/Graphics/SVG/1.1/DTD/svg11.dtd">
<!-- Generated by graphviz version 2.38.0 (20140413.2041)
 -->
<!-- Title: services::ConnectionSerial::State Pages: 1 -->
<!--zoomable 235 -->
<svg id="main" version="1.1" xmlns="http://www.w3.org/2000/svg" xmlns:xlink="http://www.w3.org/1999/xlink" xml:space="preserve" onload="init(evt)">
<style type="text/css"><![CDATA[
.edge:hover path { stroke: red; }
.edge:hover polygon { stroke: red; fill: red; }
]]></style>
<script type="text/javascript"><![CDATA[
var edges = document.getElementsByTagName('g');
if (edges && edges.length) {
  for (var i=0;i<edges.length;i++) {
    if (edges[i].id.substr(0,4)=='edge') {
      edges[i].setAttribute('class','edge');
    }
  }
}
]]></script>
        <defs>
                <circle id="rim" cx="0" cy="0" r="7"/>
                <circle id="rim2" cx="0" cy="0" r="3.5"/>
                <g id="zoomPlus">
                        <use xlink:href="#rim" fill="#404040">
                                <set attributeName="fill" to="#808080" begin="zoomplus.mouseover" end="zoomplus.mouseout"/>
                        </use>
                        <path d="M-4,0h8M0,-4v8" fill="none" stroke="white" stroke-width="1.5" pointer-events="none"/>
                </g>
                <g id="zoomMin">
                        <use xlink:href="#rim" fill="#404040">
                                <set attributeName="fill" to="#808080" begin="zoomminus.mouseover" end="zoomminus.mouseout"/>
                        </use>
                        <path d="M-4,0h8" fill="none" stroke="white" stroke-width="1.5" pointer-events="none"/>
                </g>
                <g id="dirArrow">
                        <path fill="none" stroke="white" stroke-width="1.5" d="M0,-3.0v7 M-2.5,-0.5L0,-3.0L2.5,-0.5"/>
                </g>
               <g id="resetDef">
                       <use xlink:href="#rim2" fill="#404040">
                               <set attributeName="fill" to="#808080" begin="reset.mouseover" end="reset.mouseout"/>
                       </use>
               </g>
        </defs>

<script type="text/javascript">
var viewWidth = 697;
var viewHeight = 235;
var sectionId = 'dynsection-0';
</script>
<script xlink:href="../../svgpan.js"/>
<svg id="graph" class="graph">
<g id="viewport">
<title>services::ConnectionSerial::State</title>
<polygon fill="white" stroke="none" points="-4,4 -4,-231 693,-231 693,4 -4,4"/>
<!-- Node0 -->
<g id="node1" class="node"><title>Node0</title>
<polygon fill="#bfbfbf" stroke="black" points="0,-122.5 0,-152.5 131,-152.5 131,-122.5 0,-122.5"/>
<text text-anchor="start" x="8" y="-140.5" font-family="Helvetica,sans-Serif" font-size="10.00">services::ConnectionSerial</text>
<text text-anchor="middle" x="65.5" y="-129.5" font-family="Helvetica,sans-Serif" font-size="10.00">::State</text>
</g>
<!-- Node1 -->
<g id="node2" class="node"><title>Node1</title>
<g id="a_node2"><a xlink:href="../../d2/d3d/classservices_1_1_connection_serial_1_1_state_connected.html" target="_top" xlink:title="services::ConnectionSerial\l::StateConnected">
<polygon fill="white" stroke="black" points="167,-147.5 167,-177.5 298,-177.5 298,-147.5 167,-147.5"/>
<text text-anchor="start" x="175" y="-165.5" font-family="Helvetica,sans-Serif" font-size="10.00">services::ConnectionSerial</text>
<text text-anchor="middle" x="232.5" y="-154.5" font-family="Helvetica,sans-Serif" font-size="10.00">::StateConnected</text>
</a>
</g>
</g>
<!-- Node0&#45;&gt;Node1 -->
<g id="edge1" class="edge"><title>Node0&#45;&gt;Node1</title>
<path fill="none" stroke="midnightblue" d="M141.239,-148.824C149.821,-150.124 158.516,-151.442 166.948,-152.719"/>
<polygon fill="midnightblue" stroke="midnightblue" points="141.65,-145.347 131.239,-147.309 140.602,-152.268 141.65,-145.347"/>
</g>
<!-- Node6 -->
<g id="node7" class="node"><title>Node6</title>
<g id="a_node7"><a xlink:href="../../d0/db5/classservices_1_1_connection_serial_1_1_state_init.html" target="_top" xlink:title="services::ConnectionSerial\l::StateInit">
<polygon fill="white" stroke="black" points="167,-73.5 167,-103.5 298,-103.5 298,-73.5 167,-73.5"/>
<text text-anchor="start" x="175" y="-91.5" font-family="Helvetica,sans-Serif" font-size="10.00">services::ConnectionSerial</text>
<text text-anchor="middle" x="232.5" y="-80.5" font-family="Helvetica,sans-Serif" font-size="10.00">::StateInit</text>
</a>
</g>
</g>
<!-- Node0&#45;&gt;Node6 -->
<g id="edge6" class="edge"><title>Node0&#45;&gt;Node6</title>
<path fill="none" stroke="midnightblue" d="M127.001,-119.533C144.68,-114.283 163.813,-108.601 180.816,-103.552"/>
<polygon fill="midnightblue" stroke="midnightblue" points="125.942,-116.196 117.352,-122.399 127.934,-122.907 125.942,-116.196"/>
</g>
<!-- Node2 -->
<g id="node3" class="node"><title>Node2</title>
<g id="a_node3"><a xlink:href="../../dc/dee/classservices_1_1_connection_serial_1_1_state_connected_idle.html" target="_top" xlink:title="services::ConnectionSerial\l::StateConnectedIdle">
<polygon fill="white" stroke="black" points="347.5,-196.5 347.5,-226.5 478.5,-226.5 478.5,-196.5 347.5,-196.5"/>
<text text-anchor="start" x="355.5" y="-214.5" font-family="Helvetica,sans-Serif" font-size="10.00">services::ConnectionSerial</text>
<text text-anchor="middle" x="413" y="-203.5" font-family="Helvetica,sans-Serif" font-size="10.00">::StateConnectedIdle</text>
</a>
</g>
</g>
<!-- Node1&#45;&gt;Node2 -->
<g id="edge2" class="edge"><title>Node1&#45;&gt;Node2</title>
<path fill="none" stroke="midnightblue" d="M298.42,-180.321C317.693,-185.612 338.604,-191.352 357.169,-196.448"/>
<polygon fill="midnightblue" stroke="midnightblue" points="299.082,-176.874 288.512,-177.601 297.229,-183.624 299.082,-176.874"/>
</g>
<!-- Node3 -->
<g id="node4" class="node"><title>Node3</title>
<g id="a_node4"><a xlink:href="../../dc/d3d/classservices_1_1_connection_serial_1_1_state_sending.html" target="_top" xlink:title="services::ConnectionSerial\l::StateSending">
<polygon fill="white" stroke="black" points="347.5,-147.5 347.5,-177.5 478.5,-177.5 478.5,-147.5 347.5,-147.5"/>
<text text-anchor="start" x="355.5" y="-165.5" font-family="Helvetica,sans-Serif" font-size="10.00">services::ConnectionSerial</text>
<text text-anchor="middle" x="413" y="-154.5" font-family="Helvetica,sans-Serif" font-size="10.00">::StateSending</text>
</a>
</g>
</g>
<!-- Node1&#45;&gt;Node3 -->
<g id="edge3" class="edge"><title>Node1&#45;&gt;Node3</title>
<path fill="none" stroke="midnightblue" d="M308.427,-162.5C321.322,-162.5 334.627,-162.5 347.226,-162.5"/>
<polygon fill="midnightblue" stroke="midnightblue" points="308.195,-159 298.195,-162.5 308.195,-166 308.195,-159"/>
</g>
<!-- Node4 -->
<g id="node5" class="node"><title>Node4</title>
<g id="a_node5"><a xlink:href="../../d4/d55/classservices_1_1_connection_serial_1_1_state_connected_sending_content.html" target="_top" xlink:title="services::ConnectionSerial\l::StateConnectedSendingContent">
<polygon fill="white" stroke="black" points="528,-171.5 528,-201.5 689,-201.5 689,-171.5 528,-171.5"/>
<text text-anchor="start" x="536" y="-189.5" font-family="Helvetica,sans-Serif" font-size="10.00">services::ConnectionSerial</text>
<text text-anchor="middle" x="608.5" y="-178.5" font-family="Helvetica,sans-Serif" font-size="10.00">::StateConnectedSendingContent</text>
</a>
</g>
</g>
<!-- Node3&#45;&gt;Node4 -->
<g id="edge4" class="edge"><title>Node3&#45;&gt;Node4</title>
<path fill="none" stroke="midnightblue" d="M488.795,-171.777C501.547,-173.359 514.837,-175.007 527.712,-176.604"/>
<polygon fill="midnightblue" stroke="midnightblue" points="489.057,-168.283 478.702,-170.525 488.195,-175.229 489.057,-168.283"/>
</g>
<!-- Node5 -->
<g id="node6" class="node"><title>Node5</title>
<g id="a_node6"><a xlink:href="../../da/d87/classservices_1_1_connection_serial_1_1_state_sending_update.html" target="_top" xlink:title="services::ConnectionSerial\l::StateSendingUpdate">
<polygon fill="white" stroke="black" points="543,-122.5 543,-152.5 674,-152.5 674,-122.5 543,-122.5"/>
<text text-anchor="start" x="551" y="-140.5" font-family="Helvetica,sans-Serif" font-size="10.00">services::ConnectionSerial</text>
<text text-anchor="middle" x="608.5" y="-129.5" font-family="Helvetica,sans-Serif" font-size="10.00">::StateSendingUpdate</text>
</a>
</g>
</g>
<!-- Node3&#45;&gt;Node5 -->
<g id="edge5" class="edge"><title>Node3&#45;&gt;Node5</title>
<path fill="none" stroke="midnightblue" d="M489.026,-152.807C506.796,-150.511 525.597,-148.082 542.859,-145.852"/>
<polygon fill="midnightblue" stroke="midnightblue" points="488.171,-149.388 478.702,-154.141 489.068,-156.33 488.171,-149.388"/>
</g>
<!-- Node7 -->
<g id="node8" class="node"><title>Node7</title>
<g id="a_node8"><a xlink:href="../../d5/d0a/classservices_1_1_connection_serial_1_1_state_init_size_request.html" target="_top" xlink:title="services::ConnectionSerial\l::StateInitSizeRequest">
<polygon fill="white" stroke="black" points="347.5,-98.5 347.5,-128.5 478.5,-128.5 478.5,-98.5 347.5,-98.5"/>
<text text-anchor="start" x="355.5" y="-116.5" font-family="Helvetica,sans-Serif" font-size="10.00">services::ConnectionSerial</text>
<text text-anchor="middle" x="413" y="-105.5" font-family="Helvetica,sans-Serif" font-size="10.00">::StateInitSizeRequest</text>
</a>
</g>
</g>
<!-- Node6&#45;&gt;Node7 -->
<g id="edge7" class="edge"><title>Node6&#45;&gt;Node7</title>
<path fill="none" stroke="midnightblue" d="M308.427,-98.994C321.322,-100.8 334.627,-102.663 347.226,-104.428"/>
<polygon fill="midnightblue" stroke="midnightblue" points="308.584,-95.4819 298.195,-97.5609 307.613,-102.414 308.584,-95.4819"/>
</g>
<!-- Node8 -->
<g id="node9" class="node"><title>Node8</title>
<g id="a_node9"><a xlink:href="../../df/dfb/classservices_1_1_connection_serial_1_1_state_init_size_response.html" target="_top" xlink:title="services::ConnectionSerial\l::StateInitSizeResponse">
<polygon fill="white" stroke="black" points="347.5,-49.5 347.5,-79.5 478.5,-79.5 478.5,-49.5 347.5,-49.5"/>
<text text-anchor="start" x="355.5" y="-67.5" font-family="Helvetica,sans-Serif" font-size="10.00">services::ConnectionSerial</text>
<text text-anchor="middle" x="413" y="-56.5" font-family="Helvetica,sans-Serif" font-size="10.00">::StateInitSizeResponse</text>
</a>
</g>
</g>
<!-- Node6&#45;&gt;Node8 -->
<g id="edge8" class="edge"><title>Node6&#45;&gt;Node8</title>
<path fill="none" stroke="midnightblue" d="M308.427,-78.4257C321.322,-76.692 334.627,-74.9031 347.226,-73.2091"/>
<polygon fill="midnightblue" stroke="midnightblue" points="307.639,-75.0001 298.195,-79.8015 308.572,-81.9377 307.639,-75.0001"/>
</g>
<!-- Node9 -->
<g id="node10" class="node"><title>Node9</title>
<g id="a_node10"><a xlink:href="../../d4/d34/classservices_1_1_connection_serial_1_1_state_init_size_response_request.html" target="_top" xlink:title="services::ConnectionSerial\l::StateInitSizeResponseRequest">
<polygon fill="white" stroke="black" points="334,-0.5 334,-30.5 492,-30.5 492,-0.5 334,-0.5"/>
<text text-anchor="start" x="342" y="-18.5" font-family="Helvetica,sans-Serif" font-size="10.00">services::ConnectionSerial</text>
<text text-anchor="middle" x="413" y="-7.5" font-family="Helvetica,sans-Serif" font-size="10.00">::StateInitSizeResponseRequest</text>
</a>
</g>
</g>
<!-- Node6&#45;&gt;Node9 -->
<g id="edge9" class="edge"><title>Node6&#45;&gt;Node9</title>
<path fill="none" stroke="midnightblue" d="M270.624,-68.6877C289.323,-59.1513 312.531,-47.9773 334,-39.5 342.039,-36.3258 350.675,-33.3017 359.168,-30.5363"/>
<polygon fill="midnightblue" stroke="midnightblue" points="268.846,-65.6663 261.562,-73.3601 272.054,-71.8879 268.846,-65.6663"/>
</g>
</g>
</svg>
        <g id="navigator" transform="translate(0 0)" fill="#404254">
                <rect fill="#f2f5e9" fill-opacity="0.5" stroke="#606060" stroke-width=".5" x="0" y="0" width="60" height="60"/>
                <use id="zoomplus" xlink:href="#zoomPlus" x="17" y="9" onmousedown="handleZoom(evt,'in')"/>
                <use id="zoomminus" xlink:href="#zoomMin" x="42" y="9" onmousedown="handleZoom(evt,'out')"/>
                <use id="reset" xlink:href="#resetDef" x="30" y="36" onmousedown="handleReset()"/>
                <g id="arrowUp" xlink:href="#dirArrow" transform="translate(30 24)" onmousedown="handlePan(0,-1)">
                  <use xlink:href="#rim" fill="#404040">
                        <set attributeName="fill" to="#808080" begin="arrowUp.mouseover" end="arrowUp.mouseout"/>
                  </use>
                  <path fill="none" stroke="white" stroke-width="1.5" d="M0,-3.0v7 M-2.5,-0.5L0,-3.0L2.5,-0.5"/>
                </g>
                <g id="arrowRight" xlink:href="#dirArrow" transform="rotate(90) translate(36 -43)" onmousedown="handlePan(1,0)">
                  <use xlink:href="#rim" fill="#404040">
                        <set attributeName="fill" to="#808080" begin="arrowRight.mouseover" end="arrowRight.mouseout"/>
                  </use>
                  <path fill="none" stroke="white" stroke-width="1.5" d="M0,-3.0v7 M-2.5,-0.5L0,-3.0L2.5,-0.5"/>
                </g>
                <g id="arrowDown" xlink:href="#dirArrow" transform="rotate(180) translate(-30 -48)" onmousedown="handlePan(0,1)">
                  <use xlink:href="#rim" fill="#404040">
                        <set attributeName="fill" to="#808080" begin="arrowDown.mouseover" end="arrowDown.mouseout"/>
                  </use>
                  <path fill="none" stroke="white" stroke-width="1.5" d="M0,-3.0v7 M-2.5,-0.5L0,-3.0L2.5,-0.5"/>
                </g>
                <g id="arrowLeft" xlink:href="#dirArrow" transform="rotate(270) translate(-36 17)" onmousedown="handlePan(-1,0)">
                  <use xlink:href="#rim" fill="#404040">
                        <set attributeName="fill" to="#808080" begin="arrowLeft.mouseover" end="arrowLeft.mouseout"/>
                  </use>
                  <path fill="none" stroke="white" stroke-width="1.5" d="M0,-3.0v7 M-2.5,-0.5L0,-3.0L2.5,-0.5"/>
                </g>
        </g>
        <svg viewBox="0 0 15 15" width="100%" height="30px" preserveAspectRatio="xMaxYMin meet">
         <g id="arrow_out" transform="scale(0.3 0.3)">
          <a xlink:href="classservices_1_1_connection_serial_1_1_state__inherit__graph_org.svg" target="_base">
           <rect id="button" ry="5" rx="5" y="6" x="6" height="38" width="38"
                fill="#f2f5e9" fill-opacity="0.5" stroke="#606060" stroke-width="1.0"/>
           <path id="arrow"
             d="M 11.500037,31.436501 C 11.940474,20.09759 22.043105,11.32322 32.158766,21.979434 L 37.068811,17.246167 C 37.068811,17.246167 37.088388,32 37.088388,32 L 22.160133,31.978069 C 22.160133,31.978069 26.997745,27.140456 26.997745,27.140456 C 18.528582,18.264221 13.291696,25.230495 11.500037,31.436501 z"
             style="fill:#404040;"/>
          </a>
         </g>
        </svg>
</svg>
