<?xml version="1.0" encoding="UTF-8" standalone="no"?>
<!DOCTYPE svg PUBLIC "-//W3C//DTD SVG 1.1//EN"
 "http://www.w3.org/Graphics/SVG/1.1/DTD/svg11.dtd">
<!-- Generated by graphviz version 2.38.0 (20140413.2041)
 -->
<!-- Title: infra::OverwriteDataStream Pages: 1 -->
<svg width="689pt" height="88pt"
 viewBox="0.00 0.00 689.00 88.00" xmlns="http://www.w3.org/2000/svg" xmlns:xlink="http://www.w3.org/1999/xlink">
<g id="graph0" class="graph" transform="scale(1 1) rotate(0) translate(4 84)">
<title>infra::OverwriteDataStream</title>
<polygon fill="white" stroke="none" points="-4,4 -4,-84 685,-84 685,4 -4,4"/>
<!-- Node0 -->
<g id="node1" class="node"><title>Node0</title>
<polygon fill="#bfbfbf" stroke="black" points="549,-24.5 549,-43.5 681,-43.5 681,-24.5 549,-24.5"/>
<text text-anchor="middle" x="615" y="-31.5" font-family="Helvetica,sans-Serif" font-size="10.00">infra::OverwriteDataStream</text>
</g>
<!-- Node1 -->
<g id="node2" class="node"><title>Node1</title>
<g id="a_node2"><a xlink:href="../../dd/dd9/classinfra_1_1_data_output_stream_1_1_with_writer.html" target="_top" xlink:title="infra::DataOutputStream\l::WithWriter\&lt; OverwriteStream\lWriter \&gt;">
<polygon fill="white" stroke="black" points="364,-13.5 364,-54.5 513,-54.5 513,-13.5 364,-13.5"/>
<text text-anchor="start" x="372" y="-42.5" font-family="Helvetica,sans-Serif" font-size="10.00">infra::DataOutputStream</text>
<text text-anchor="start" x="372" y="-31.5" font-family="Helvetica,sans-Serif" font-size="10.00">::WithWriter&lt; OverwriteStream</text>
<text text-anchor="middle" x="438.5" y="-20.5" font-family="Helvetica,sans-Serif" font-size="10.00">Writer &gt;</text>
</a>
</g>
</g>
<!-- Node1&#45;&gt;Node0 -->
<g id="edge1" class="edge"><title>Node1&#45;&gt;Node0</title>
<path fill="none" stroke="midnightblue" d="M523.279,-34C531.855,-34 540.477,-34 548.811,-34"/>
<polygon fill="midnightblue" stroke="midnightblue" points="523.251,-30.5001 513.251,-34 523.251,-37.5001 523.251,-30.5001"/>
</g>
<!-- Node2 -->
<g id="node3" class="node"><title>Node2</title>
<g id="a_node3"><a xlink:href="../../d9/d00/classinfra_1_1detail_1_1_storage_holder.html" target="_top" xlink:title="infra::detail::StorageHolder\l\&lt; OverwriteStreamWriter,\l WithWriter\&lt; OverwriteStreamWriter \&gt; \&gt;">
<polygon fill="white" stroke="black" points="137,-38.5 137,-79.5 328,-79.5 328,-38.5 137,-38.5"/>
<text text-anchor="start" x="145" y="-67.5" font-family="Helvetica,sans-Serif" font-size="10.00">infra::detail::StorageHolder</text>
<text text-anchor="start" x="145" y="-56.5" font-family="Helvetica,sans-Serif" font-size="10.00">&lt; OverwriteStreamWriter,</text>
<text text-anchor="middle" x="232.5" y="-45.5" font-family="Helvetica,sans-Serif" font-size="10.00"> WithWriter&lt; OverwriteStreamWriter &gt; &gt;</text>
</a>
</g>
</g>
<!-- Node2&#45;&gt;Node1 -->
<g id="edge2" class="edge"><title>Node2&#45;&gt;Node1</title>
<path fill="none" stroke="#8b1a1a" d="M338.166,-46.1733C346.799,-45.1153 355.406,-44.0605 363.74,-43.0392"/>
<polygon fill="#8b1a1a" stroke="#8b1a1a" points="337.535,-42.7243 328.035,-47.4148 338.387,-49.6723 337.535,-42.7243"/>
</g>
<!-- Node3 -->
<g id="node4" class="node"><title>Node3</title>
<g id="a_node4"><a xlink:href="../../d6/d7d/classinfra_1_1_data_output_stream.html" target="_top" xlink:title="infra::DataOutputStream">
<polygon fill="white" stroke="black" points="171.5,-0.5 171.5,-19.5 293.5,-19.5 293.5,-0.5 171.5,-0.5"/>
<text text-anchor="middle" x="232.5" y="-7.5" font-family="Helvetica,sans-Serif" font-size="10.00">infra::DataOutputStream</text>
</a>
</g>
</g>
<!-- Node3&#45;&gt;Node1 -->
<g id="edge3" class="edge"><title>Node3&#45;&gt;Node1</title>
<path fill="none" stroke="midnightblue" d="M303.581,-18.2448C322.993,-20.5285 344.119,-23.014 363.734,-25.3217"/>
<polygon fill="midnightblue" stroke="midnightblue" points="303.944,-14.7635 293.603,-17.071 303.126,-21.7155 303.944,-14.7635"/>
</g>
<!-- Node4 -->
<g id="node5" class="node"><title>Node4</title>
<g id="a_node5"><a xlink:href="../../d6/d97/classinfra_1_1_output_stream.html" target="_top" xlink:title="infra::OutputStream">
<polygon fill="white" stroke="black" points="0,-0.5 0,-19.5 101,-19.5 101,-0.5 0,-0.5"/>
<text text-anchor="middle" x="50.5" y="-7.5" font-family="Helvetica,sans-Serif" font-size="10.00">infra::OutputStream</text>
</a>
</g>
</g>
<!-- Node4&#45;&gt;Node3 -->
<g id="edge4" class="edge"><title>Node4&#45;&gt;Node3</title>
<path fill="none" stroke="midnightblue" d="M111.354,-10C130.678,-10 152.098,-10 171.437,-10"/>
<polygon fill="midnightblue" stroke="midnightblue" points="111.162,-6.5001 101.162,-10 111.162,-13.5001 111.162,-6.5001"/>
</g>
</g>
</svg>
