<?xml version="1.0" encoding="UTF-8" standalone="no"?>
<!DOCTYPE svg PUBLIC "-//W3C//DTD SVG 1.1//EN"
 "http://www.w3.org/Graphics/SVG/1.1/DTD/svg11.dtd">
<!-- Generated by graphviz version 2.38.0 (20140413.2041)
 -->
<!-- Title: services::FlashQuadSpiSingleSpeed Pages: 1 -->
<!--zoomable 503 -->
<svg id="main" version="1.1" xmlns="http://www.w3.org/2000/svg" xmlns:xlink="http://www.w3.org/1999/xlink" xml:space="preserve" onload="init(evt)">
<style type="text/css"><![CDATA[
.edge:hover path { stroke: red; }
.edge:hover polygon { stroke: red; fill: red; }
]]></style>
<script type="text/javascript"><![CDATA[
var edges = document.getElementsByTagName('g');
if (edges && edges.length) {
  for (var i=0;i<edges.length;i++) {
    if (edges[i].id.substr(0,4)=='edge') {
      edges[i].setAttribute('class','edge');
    }
  }
}
]]></script>
        <defs>
                <circle id="rim" cx="0" cy="0" r="7"/>
                <circle id="rim2" cx="0" cy="0" r="3.5"/>
                <g id="zoomPlus">
                        <use xlink:href="#rim" fill="#404040">
                                <set attributeName="fill" to="#808080" begin="zoomplus.mouseover" end="zoomplus.mouseout"/>
                        </use>
                        <path d="M-4,0h8M0,-4v8" fill="none" stroke="white" stroke-width="1.5" pointer-events="none"/>
                </g>
                <g id="zoomMin">
                        <use xlink:href="#rim" fill="#404040">
                                <set attributeName="fill" to="#808080" begin="zoomminus.mouseover" end="zoomminus.mouseout"/>
                        </use>
                        <path d="M-4,0h8" fill="none" stroke="white" stroke-width="1.5" pointer-events="none"/>
                </g>
                <g id="dirArrow">
                        <path fill="none" stroke="white" stroke-width="1.5" d="M0,-3.0v7 M-2.5,-0.5L0,-3.0L2.5,-0.5"/>
                </g>
               <g id="resetDef">
                       <use xlink:href="#rim2" fill="#404040">
                               <set attributeName="fill" to="#808080" begin="reset.mouseover" end="reset.mouseout"/>
                       </use>
               </g>
        </defs>

<script type="text/javascript">
var viewWidth = 1776;
var viewHeight = 503;
var sectionId = 'dynsection-1';
</script>
<script xlink:href="../../svgpan.js"/>
<svg id="graph" class="graph">
<g id="viewport">
<title>services::FlashQuadSpiSingleSpeed</title>
<polygon fill="white" stroke="none" points="-4,4 -4,-499.14 1772,-499.14 1772,4 -4,4"/>
<!-- Node4 -->
<g id="node1" class="node"><title>Node4</title>
<polygon fill="#bfbfbf" stroke="black" points="1622,-280.64 1622,-310.64 1768,-310.64 1768,-280.64 1622,-280.64"/>
<text text-anchor="start" x="1630" y="-298.64" font-family="Helvetica,sans-Serif" font-size="10.00">services::FlashQuadSpiSingle</text>
<text text-anchor="middle" x="1695" y="-287.64" font-family="Helvetica,sans-Serif" font-size="10.00">Speed</text>
</g>
<!-- Node5 -->
<g id="node2" class="node"><title>Node5</title>
<g id="a_node2"><a xlink:href="../../d0/db3/classservices_1_1_flash_quad_spi.html" target="_top" xlink:title="services::FlashQuadSpi">
<polygon fill="white" stroke="black" points="1121,-171.14 1121,-190.14 1240,-190.14 1240,-171.14 1121,-171.14"/>
<text text-anchor="middle" x="1180.5" y="-178.14" font-family="Helvetica,sans-Serif" font-size="10.00">services::FlashQuadSpi</text>
</a>
</g>
</g>
<!-- Node5&#45;&gt;Node4 -->
<g id="edge1" class="edge"><title>Node5&#45;&gt;Node4</title>
<path fill="none" stroke="midnightblue" d="M1233.69,-192.35C1327.27,-213.35 1523.49,-257.38 1626.92,-280.588"/>
<polygon fill="midnightblue" stroke="midnightblue" points="1234.4,-188.923 1223.88,-190.149 1232.87,-195.753 1234.4,-188.923"/>
</g>
<!-- Node6 -->
<g id="node3" class="node"><title>Node6</title>
<g id="a_node3"><a xlink:href="../../d8/d29/classhal_1_1_flash_homogeneous.html" target="_top" xlink:title="hal::FlashHomogeneous">
<polygon fill="white" stroke="black" points="856,-190.14 856,-209.14 978,-209.14 978,-190.14 856,-190.14"/>
<text text-anchor="middle" x="917" y="-197.14" font-family="Helvetica,sans-Serif" font-size="10.00">hal::FlashHomogeneous</text>
</a>
</g>
</g>
<!-- Node6&#45;&gt;Node5 -->
<g id="edge2" class="edge"><title>Node6&#45;&gt;Node5</title>
<path fill="none" stroke="midnightblue" d="M988.348,-194.529C1029.79,-191.518 1081.61,-187.753 1120.83,-184.903"/>
<polygon fill="midnightblue" stroke="midnightblue" points="988.042,-191.042 978.322,-195.257 988.549,-198.023 988.042,-191.042"/>
</g>
<!-- Node7 -->
<g id="node4" class="node"><title>Node7</title>
<g id="a_node4"><a xlink:href="../../dd/d95/classhal_1_1_flash.html" target="_top" xlink:title="hal::Flash">
<polygon fill="white" stroke="black" points="575,-190.14 575,-209.14 634,-209.14 634,-190.14 575,-190.14"/>
<text text-anchor="middle" x="604.5" y="-197.14" font-family="Helvetica,sans-Serif" font-size="10.00">hal::Flash</text>
</a>
</g>
</g>
<!-- Node7&#45;&gt;Node6 -->
<g id="edge3" class="edge"><title>Node7&#45;&gt;Node6</title>
<path fill="none" stroke="midnightblue" d="M644.189,-199.64C697.337,-199.64 793.442,-199.64 855.972,-199.64"/>
<polygon fill="midnightblue" stroke="midnightblue" points="644.155,-196.14 634.155,-199.64 644.155,-203.14 644.155,-196.14"/>
</g>
<!-- Node8 -->
<g id="node5" class="node"><title>Node8</title>
<polygon fill="white" stroke="#bfbfbf" points="579,-293.14 579,-312.14 630,-312.14 630,-293.14 579,-293.14"/>
<text text-anchor="middle" x="604.5" y="-300.14" font-family="Helvetica,sans-Serif" font-size="10.00">uint32_t</text>
</g>
<!-- Node8&#45;&gt;Node5 -->
<g id="edge16" class="edge"><title>Node8&#45;&gt;Node5</title>
<path fill="none" stroke="#9a32cd" stroke-dasharray="5,2" d="M640.432,-304.557C696.948,-307.002 805.31,-308.77 837,-288.64 851.102,-279.682 841.571,-265.579 855,-255.64 900.226,-222.169 1048.53,-218.746 1103,-204.64 1119.17,-200.452 1136.99,-194.917 1151.36,-190.218"/>
<polygon fill="#9a32cd" stroke="#9a32cd" points="640.337,-301.049 630.185,-304.081 640.012,-308.041 640.337,-301.049"/>
<text text-anchor="middle" x="917" y="-302.64" font-family="Helvetica,sans-Serif" font-size="10.00"> address</text>
<text text-anchor="middle" x="917" y="-291.64" font-family="Helvetica,sans-Serif" font-size="10.00">sizePage</text>
<text text-anchor="middle" x="917" y="-280.64" font-family="Helvetica,sans-Serif" font-size="10.00">sizeSector</text>
<text text-anchor="middle" x="917" y="-269.64" font-family="Helvetica,sans-Serif" font-size="10.00">sizeBlock</text>
<text text-anchor="middle" x="917" y="-258.64" font-family="Helvetica,sans-Serif" font-size="10.00">sectorIndex</text>
</g>
<!-- Node8&#45;&gt;Node6 -->
<g id="edge4" class="edge"><title>Node8&#45;&gt;Node6</title>
<path fill="none" stroke="#9a32cd" stroke-dasharray="5,2" d="M621.305,-285.874C640.5,-266.709 674.825,-236.124 711,-221.64 736.504,-211.428 805.127,-205.553 855.991,-202.485"/>
<polygon fill="#9a32cd" stroke="#9a32cd" points="618.754,-283.476 614.267,-293.074 623.76,-288.369 618.754,-283.476"/>
<text text-anchor="middle" x="774" y="-235.64" font-family="Helvetica,sans-Serif" font-size="10.00"> sizeOfEachSector</text>
<text text-anchor="middle" x="774" y="-224.64" font-family="Helvetica,sans-Serif" font-size="10.00">numberOfSectors</text>
</g>
<!-- Node28 -->
<g id="node25" class="node"><title>Node28</title>
<g id="a_node25"><a xlink:href="../../da/def/classinfra_1_1_timer_service.html" target="_top" xlink:title="infra::TimerService">
<polygon fill="white" stroke="black" points="869,-396.14 869,-415.14 965,-415.14 965,-396.14 869,-396.14"/>
<text text-anchor="middle" x="917" y="-403.14" font-family="Helvetica,sans-Serif" font-size="10.00">infra::TimerService</text>
</a>
</g>
</g>
<!-- Node8&#45;&gt;Node28 -->
<g id="edge32" class="edge"><title>Node8&#45;&gt;Node28</title>
<path fill="none" stroke="#9a32cd" stroke-dasharray="5,2" d="M640.651,-306.311C701.63,-312.964 821.982,-327.451 837,-339.64 854.368,-353.736 838.687,-371.336 855,-386.64 859.126,-390.511 864.028,-393.593 869.235,-396.048"/>
<polygon fill="#9a32cd" stroke="#9a32cd" points="640.662,-302.792 630.344,-305.2 639.912,-309.752 640.662,-302.792"/>
<text text-anchor="middle" x="774" y="-342.64" font-family="Helvetica,sans-Serif" font-size="10.00"> id</text>
</g>
<!-- Node9 -->
<g id="node6" class="node"><title>Node9</title>
<g id="a_node6"><a xlink:href="../../d0/d6d/classinfra_1_1_memory_range.html" target="_top" xlink:title="infra::MemoryRange\l\&lt; const uint8_t \&gt;">
<polygon fill="white" stroke="black" points="865,-102.64 865,-132.64 969,-132.64 969,-102.64 865,-102.64"/>
<text text-anchor="start" x="873" y="-120.64" font-family="Helvetica,sans-Serif" font-size="10.00">infra::MemoryRange</text>
<text text-anchor="middle" x="917" y="-109.64" font-family="Helvetica,sans-Serif" font-size="10.00">&lt; const uint8_t &gt;</text>
</a>
</g>
</g>
<!-- Node9&#45;&gt;Node5 -->
<g id="edge5" class="edge"><title>Node9&#45;&gt;Node5</title>
<path fill="none" stroke="#9a32cd" stroke-dasharray="5,2" d="M979.224,-125.462C1015.59,-130.873 1062.39,-139.176 1103,-150.64 1122.22,-156.066 1143.3,-164.529 1158.45,-171.085"/>
<polygon fill="#9a32cd" stroke="#9a32cd" points="979.657,-121.989 969.257,-124.013 978.649,-128.916 979.657,-121.989"/>
<text text-anchor="middle" x="1050" y="-153.64" font-family="Helvetica,sans-Serif" font-size="10.00"> buffer</text>
</g>
<!-- Node10 -->
<g id="node7" class="node"><title>Node10</title>
<polygon fill="white" stroke="#bfbfbf" points="564.5,-4.14004 564.5,-23.14 644.5,-23.14 644.5,-4.14004 564.5,-4.14004"/>
<text text-anchor="middle" x="604.5" y="-11.14" font-family="Helvetica,sans-Serif" font-size="10.00">const uint8_t *</text>
</g>
<!-- Node10&#45;&gt;Node9 -->
<g id="edge6" class="edge"><title>Node10&#45;&gt;Node9</title>
<path fill="none" stroke="#9a32cd" stroke-dasharray="5,2" d="M654.883,-4.13601C706.147,2.74438 785.853,4.6712 837,-36.64 857.338,-53.0666 837.249,-73.4478 855,-92.64 858.575,-96.5051 862.835,-99.7883 867.418,-102.574"/>
<polygon fill="#9a32cd" stroke="#9a32cd" points="654.104,-0.712526 644.712,-5.61607 655.112,-7.63958 654.104,-0.712526"/>
<text text-anchor="middle" x="774" y="-50.64" font-family="Helvetica,sans-Serif" font-size="10.00"> beginElement</text>
<text text-anchor="middle" x="774" y="-39.64" font-family="Helvetica,sans-Serif" font-size="10.00">endElement</text>
</g>
<!-- Node11 -->
<g id="node8" class="node"><title>Node11</title>
<g id="a_node8"><a xlink:href="../../d5/d33/classinfra_1_1_auto_reset_function.html" target="_top" xlink:title="infra::AutoResetFunction\l\&lt; void()\&gt;">
<polygon fill="white" stroke="black" points="855,-53.64 855,-83.64 979,-83.64 979,-53.64 855,-53.64"/>
<text text-anchor="start" x="863" y="-71.64" font-family="Helvetica,sans-Serif" font-size="10.00">infra::AutoResetFunction</text>
<text text-anchor="middle" x="917" y="-60.64" font-family="Helvetica,sans-Serif" font-size="10.00">&lt; void()&gt;</text>
</a>
</g>
</g>
<!-- Node11&#45;&gt;Node5 -->
<g id="edge7" class="edge"><title>Node11&#45;&gt;Node5</title>
<path fill="none" stroke="#9a32cd" stroke-dasharray="5,2" d="M989.635,-77.8212C1025.17,-84.3879 1067.89,-95.4082 1103,-113.64 1131.52,-128.448 1158.15,-156.065 1171.17,-170.794"/>
<polygon fill="#9a32cd" stroke="#9a32cd" points="989.792,-74.2948 979.336,-76.0041 988.576,-81.1884 989.792,-74.2948"/>
<text text-anchor="middle" x="1050" y="-116.64" font-family="Helvetica,sans-Serif" font-size="10.00"> onDone</text>
</g>
<!-- Node12 -->
<g id="node9" class="node"><title>Node12</title>
<g id="a_node9"><a xlink:href="../../d8/dcc/classinfra_1_1_sequencer.html" target="_top" xlink:title="infra::Sequencer">
<polygon fill="white" stroke="black" points="873.5,-152.14 873.5,-171.14 960.5,-171.14 960.5,-152.14 873.5,-152.14"/>
<text text-anchor="middle" x="917" y="-159.14" font-family="Helvetica,sans-Serif" font-size="10.00">infra::Sequencer</text>
</a>
</g>
</g>
<!-- Node12&#45;&gt;Node5 -->
<g id="edge8" class="edge"><title>Node12&#45;&gt;Node5</title>
<path fill="none" stroke="#9a32cd" stroke-dasharray="5,2" d="M970.742,-163.605C1007.79,-165.202 1058.47,-167.821 1103,-171.64 1108.73,-172.131 1114.69,-172.712 1120.65,-173.337"/>
<polygon fill="#9a32cd" stroke="#9a32cd" points="970.809,-160.105 960.671,-163.182 970.515,-167.099 970.809,-160.105"/>
<text text-anchor="middle" x="1050" y="-174.64" font-family="Helvetica,sans-Serif" font-size="10.00"> sequencer</text>
</g>
<!-- Node13 -->
<g id="node10" class="node"><title>Node13</title>
<g id="a_node10"><a xlink:href="../../dc/de7/classinfra_1_1_bounded_vector.html" target="_top" xlink:title="infra::BoundedVector\l\&lt; uint8_t \&gt;">
<polygon fill="white" stroke="black" points="551,-102.64 551,-132.64 658,-132.64 658,-102.64 551,-102.64"/>
<text text-anchor="start" x="559" y="-120.64" font-family="Helvetica,sans-Serif" font-size="10.00">infra::BoundedVector</text>
<text text-anchor="middle" x="604.5" y="-109.64" font-family="Helvetica,sans-Serif" font-size="10.00">&lt; uint8_t &gt;</text>
</a>
</g>
</g>
<!-- Node13&#45;&gt;Node12 -->
<g id="edge9" class="edge"><title>Node13&#45;&gt;Node12</title>
<path fill="none" stroke="#9a32cd" stroke-dasharray="5,2" d="M668.423,-118.397C715.307,-119.957 780.68,-124.243 837,-135.64 845.265,-137.313 846.993,-138.993 855,-141.64 865.37,-145.068 876.74,-148.803 886.824,-152.107"/>
<polygon fill="#9a32cd" stroke="#9a32cd" points="668.513,-114.898 658.412,-118.096 668.302,-121.895 668.513,-114.898"/>
<text text-anchor="middle" x="774" y="-149.64" font-family="Helvetica,sans-Serif" font-size="10.00"> execute</text>
<text text-anchor="middle" x="774" y="-138.64" font-family="Helvetica,sans-Serif" font-size="10.00">examine</text>
</g>
<!-- Node14 -->
<g id="node11" class="node"><title>Node14</title>
<g id="a_node11"><a xlink:href="../../d0/d6d/classinfra_1_1_memory_range.html" target="_top" xlink:title="infra::MemoryRange\l\&lt; infra::StaticStorage\l\&lt; uint8_t \&gt; \&gt;">
<polygon fill="white" stroke="black" points="300,-122.14 300,-163.14 409,-163.14 409,-122.14 300,-122.14"/>
<text text-anchor="start" x="308" y="-151.14" font-family="Helvetica,sans-Serif" font-size="10.00">infra::MemoryRange</text>
<text text-anchor="start" x="308" y="-140.14" font-family="Helvetica,sans-Serif" font-size="10.00">&lt; infra::StaticStorage</text>
<text text-anchor="middle" x="354.5" y="-129.14" font-family="Helvetica,sans-Serif" font-size="10.00">&lt; uint8_t &gt; &gt;</text>
</a>
</g>
</g>
<!-- Node14&#45;&gt;Node13 -->
<g id="edge10" class="edge"><title>Node14&#45;&gt;Node13</title>
<path fill="none" stroke="#9a32cd" stroke-dasharray="5,2" d="M419.133,-136.225C460.001,-132.106 512.443,-126.819 550.941,-122.938"/>
<polygon fill="#9a32cd" stroke="#9a32cd" points="418.605,-132.761 409.007,-137.246 419.308,-139.725 418.605,-132.761"/>
<text text-anchor="middle" x="466.5" y="-137.64" font-family="Helvetica,sans-Serif" font-size="10.00"> storage</text>
</g>
<!-- Node15 -->
<g id="node12" class="node"><title>Node15</title>
<g id="a_node12"><a xlink:href="../../d0/d8c/classinfra_1_1_static_storage.html" target="_top" xlink:title="infra::StaticStorage\l\&lt; uint8_t \&gt;">
<polygon fill="white" stroke="black" points="93,-127.64 93,-157.64 193,-157.64 193,-127.64 93,-127.64"/>
<text text-anchor="start" x="101" y="-145.64" font-family="Helvetica,sans-Serif" font-size="10.00">infra::StaticStorage</text>
<text text-anchor="middle" x="143" y="-134.64" font-family="Helvetica,sans-Serif" font-size="10.00">&lt; uint8_t &gt;</text>
</a>
</g>
</g>
<!-- Node15&#45;&gt;Node14 -->
<g id="edge11" class="edge"><title>Node15&#45;&gt;Node14</title>
<path fill="none" stroke="#9a32cd" stroke-dasharray="5,2" d="M203.167,-142.64C233.574,-142.64 270.347,-142.64 299.913,-142.64"/>
<polygon fill="#9a32cd" stroke="#9a32cd" points="203.118,-139.14 193.118,-142.64 203.118,-146.14 203.118,-139.14"/>
<text text-anchor="middle" x="242.5" y="-156.64" font-family="Helvetica,sans-Serif" font-size="10.00"> beginElement</text>
<text text-anchor="middle" x="242.5" y="-145.64" font-family="Helvetica,sans-Serif" font-size="10.00">endElement</text>
</g>
<!-- Node16 -->
<g id="node13" class="node"><title>Node16</title>
<polygon fill="white" stroke="#bfbfbf" points="0,-133.14 0,-152.14 35,-152.14 35,-133.14 0,-133.14"/>
<text text-anchor="middle" x="17.5" y="-140.14" font-family="Helvetica,sans-Serif" font-size="10.00">type</text>
</g>
<!-- Node16&#45;&gt;Node15 -->
<g id="edge12" class="edge"><title>Node16&#45;&gt;Node15</title>
<path fill="none" stroke="#9a32cd" stroke-dasharray="5,2" d="M45.4569,-142.64C59.3452,-142.64 76.7192,-142.64 92.886,-142.64"/>
<polygon fill="#9a32cd" stroke="#9a32cd" points="45.1558,-139.14 35.1558,-142.64 45.1557,-146.14 45.1558,-139.14"/>
<text text-anchor="middle" x="64" y="-145.64" font-family="Helvetica,sans-Serif" font-size="10.00"> data</text>
</g>
<!-- Node17 -->
<g id="node14" class="node"><title>Node17</title>
<polygon fill="white" stroke="#bfbfbf" points="333,-84.14 333,-103.14 376,-103.14 376,-84.14 333,-84.14"/>
<text text-anchor="middle" x="354.5" y="-91.14" font-family="Helvetica,sans-Serif" font-size="10.00">size_t</text>
</g>
<!-- Node17&#45;&gt;Node13 -->
<g id="edge13" class="edge"><title>Node17&#45;&gt;Node13</title>
<path fill="none" stroke="#9a32cd" stroke-dasharray="5,2" d="M386.594,-94.9031C415.5,-96.2434 459.734,-98.7174 498,-102.64 515.207,-104.404 533.919,-106.88 550.74,-109.313"/>
<polygon fill="#9a32cd" stroke="#9a32cd" points="386.456,-91.3936 376.31,-94.4443 386.144,-98.3866 386.456,-91.3936"/>
<text text-anchor="middle" x="466.5" y="-105.64" font-family="Helvetica,sans-Serif" font-size="10.00"> numAllocated</text>
</g>
<!-- Node18 -->
<g id="node15" class="node"><title>Node18</title>
<g id="a_node15"><a xlink:href="../../da/d07/classinfra_1_1_function.html" target="_top" xlink:title="infra::Function\&lt; void\l(), INFRA_SEQUENCER_FUNCTION\l_EXTRA_SIZE \&gt;">
<polygon fill="white" stroke="black" points="516,-42.14 516,-83.14 693,-83.14 693,-42.14 516,-42.14"/>
<text text-anchor="start" x="524" y="-71.14" font-family="Helvetica,sans-Serif" font-size="10.00">infra::Function&lt; void</text>
<text text-anchor="start" x="524" y="-60.14" font-family="Helvetica,sans-Serif" font-size="10.00">(), INFRA_SEQUENCER_FUNCTION</text>
<text text-anchor="middle" x="604.5" y="-49.14" font-family="Helvetica,sans-Serif" font-size="10.00">_EXTRA_SIZE &gt;</text>
</a>
</g>
</g>
<!-- Node18&#45;&gt;Node12 -->
<g id="edge14" class="edge"><title>Node18&#45;&gt;Node12</title>
<path fill="none" stroke="#9a32cd" stroke-dasharray="5,2" d="M703.249,-61.5409C747.85,-65.572 799.05,-77.0648 837,-105.64 851.29,-116.4 841.457,-129.953 855,-141.64 860.316,-146.227 866.709,-149.768 873.328,-152.5"/>
<polygon fill="#9a32cd" stroke="#9a32cd" points="703.496,-58.0497 693.252,-60.7502 702.944,-65.0279 703.496,-58.0497"/>
<text text-anchor="middle" x="774" y="-108.64" font-family="Helvetica,sans-Serif" font-size="10.00"> sequence</text>
</g>
<!-- Node19 -->
<g id="node16" class="node"><title>Node19</title>
<polygon fill="white" stroke="#bfbfbf" points="587,-152.14 587,-171.14 622,-171.14 622,-152.14 587,-152.14"/>
<text text-anchor="middle" x="604.5" y="-159.14" font-family="Helvetica,sans-Serif" font-size="10.00">bool</text>
</g>
<!-- Node19&#45;&gt;Node12 -->
<g id="edge15" class="edge"><title>Node19&#45;&gt;Node12</title>
<path fill="none" stroke="#9a32cd" stroke-dasharray="5,2" d="M632.343,-161.64C686.342,-161.64 808.476,-161.64 873.462,-161.64"/>
<polygon fill="#9a32cd" stroke="#9a32cd" points="632.194,-158.14 622.194,-161.64 632.194,-165.14 632.194,-158.14"/>
<text text-anchor="middle" x="774" y="-164.64" font-family="Helvetica,sans-Serif" font-size="10.00"> repeat</text>
</g>
<!-- Node19&#45;&gt;Node28 -->
<g id="edge33" class="edge"><title>Node19&#45;&gt;Node28</title>
<path fill="none" stroke="#9a32cd" stroke-dasharray="5,2" d="M632.548,-160.607C651.759,-161.352 676.904,-165.55 693,-180.64 714.244,-200.557 691.16,-222.324 711,-243.64 751.615,-287.279 798.498,-244.125 837,-289.64 865.318,-323.116 825.885,-353.854 855,-386.64 858.83,-390.953 863.621,-394.298 868.824,-396.889"/>
<polygon fill="#9a32cd" stroke="#9a32cd" points="632.342,-157.105 622.308,-160.506 632.273,-164.105 632.342,-157.105"/>
<text text-anchor="middle" x="774" y="-303.64" font-family="Helvetica,sans-Serif" font-size="10.00"> holdUpdate</text>
<text text-anchor="middle" x="774" y="-292.64" font-family="Helvetica,sans-Serif" font-size="10.00">updateNeeded</text>
</g>
<!-- Node20 -->
<g id="node17" class="node"><title>Node20</title>
<polygon fill="white" stroke="#bfbfbf" points="894,-15.14 894,-34.14 940,-34.14 940,-15.14 894,-15.14"/>
<text text-anchor="middle" x="917" y="-22.14" font-family="Helvetica,sans-Serif" font-size="10.00">uint8_t</text>
</g>
<!-- Node20&#45;&gt;Node4 -->
<g id="edge35" class="edge"><title>Node20&#45;&gt;Node4</title>
<path fill="none" stroke="#9a32cd" stroke-dasharray="5,2" d="M950.427,-24.2809C1029.1,-24.5008 1235.09,-31.6599 1391,-95.64 1510.25,-144.574 1632.33,-242.954 1676.62,-280.556"/>
<polygon fill="#9a32cd" stroke="#9a32cd" points="950.186,-20.781 940.19,-24.2908 950.193,-27.781 950.186,-20.781"/>
<text text-anchor="middle" x="1324.5" y="-186.64" font-family="Helvetica,sans-Serif" font-size="10.00"> commandReadStatusRegister</text>
<text text-anchor="middle" x="1324.5" y="-175.64" font-family="Helvetica,sans-Serif" font-size="10.00">commandEraseChip</text>
<text text-anchor="middle" x="1324.5" y="-164.64" font-family="Helvetica,sans-Serif" font-size="10.00">commandWriteEnable</text>
<text text-anchor="middle" x="1324.5" y="-153.64" font-family="Helvetica,sans-Serif" font-size="10.00">commandEraseSector</text>
<text text-anchor="middle" x="1324.5" y="-142.64" font-family="Helvetica,sans-Serif" font-size="10.00">commandEraseHalfBlock</text>
<text text-anchor="middle" x="1324.5" y="-131.64" font-family="Helvetica,sans-Serif" font-size="10.00">commandEraseBlock</text>
<text text-anchor="middle" x="1324.5" y="-120.64" font-family="Helvetica,sans-Serif" font-size="10.00">statusFlagWriteInProgress</text>
<text text-anchor="middle" x="1324.5" y="-109.64" font-family="Helvetica,sans-Serif" font-size="10.00">commandReadData</text>
<text text-anchor="middle" x="1324.5" y="-98.64" font-family="Helvetica,sans-Serif" font-size="10.00">commandPageProgram</text>
</g>
<!-- Node20&#45;&gt;Node5 -->
<g id="edge17" class="edge"><title>Node20&#45;&gt;Node5</title>
<path fill="none" stroke="#9a32cd" stroke-dasharray="5,2" d="M950.435,-28.8606C996.636,-35.3639 1078.52,-48.8579 1103,-65.64 1142.95,-93.0281 1167.49,-148.796 1176.06,-171.104"/>
<polygon fill="#9a32cd" stroke="#9a32cd" points="950.716,-25.3663 940.332,-27.4698 949.761,-32.3009 950.716,-25.3663"/>
<text text-anchor="middle" x="1050" y="-68.64" font-family="Helvetica,sans-Serif" font-size="10.00"> commandPageProgram</text>
</g>
<!-- Node21 -->
<g id="node18" class="node"><title>Node21</title>
<g id="a_node18"><a xlink:href="../../dd/df2/classhal_1_1_quad_spi.html" target="_top" xlink:title="hal::QuadSpi">
<polygon fill="white" stroke="black" points="880.5,-320.14 880.5,-339.14 953.5,-339.14 953.5,-320.14 880.5,-320.14"/>
<text text-anchor="middle" x="917" y="-327.14" font-family="Helvetica,sans-Serif" font-size="10.00">hal::QuadSpi</text>
</a>
</g>
</g>
<!-- Node21&#45;&gt;Node5 -->
<g id="edge18" class="edge"><title>Node21&#45;&gt;Node5</title>
<path fill="none" stroke="#9a32cd" stroke-dasharray="5,2" d="M963.409,-318.874C1002.58,-308.197 1059.55,-289.258 1103,-260.64 1133.17,-240.769 1160.29,-206.939 1172.56,-190.369"/>
<polygon fill="#9a32cd" stroke="#9a32cd" points="962.371,-315.528 953.603,-321.475 964.166,-322.294 962.371,-315.528"/>
<text text-anchor="middle" x="1050" y="-310.64" font-family="Helvetica,sans-Serif" font-size="10.00"> spi</text>
</g>
<!-- Node22 -->
<g id="node19" class="node"><title>Node22</title>
<g id="a_node19"><a xlink:href="../../d8/d87/classinfra_1_1_timer_single_shot.html" target="_top" xlink:title="infra::TimerSingleShot">
<polygon fill="white" stroke="black" points="1409,-380.14 1409,-399.14 1521,-399.14 1521,-380.14 1409,-380.14"/>
<text text-anchor="middle" x="1465" y="-387.14" font-family="Helvetica,sans-Serif" font-size="10.00">infra::TimerSingleShot</text>
</a>
</g>
</g>
<!-- Node22&#45;&gt;Node4 -->
<g id="edge19" class="edge"><title>Node22&#45;&gt;Node4</title>
<path fill="none" stroke="#9a32cd" stroke-dasharray="5,2" d="M1531.21,-380.397C1554.79,-375.666 1581.2,-368.708 1604,-358.64 1631.74,-346.39 1659.74,-325.054 1676.98,-310.644"/>
<polygon fill="#9a32cd" stroke="#9a32cd" points="1530.46,-376.976 1521.3,-382.291 1531.78,-383.852 1530.46,-376.976"/>
<text text-anchor="middle" x="1571.5" y="-381.64" font-family="Helvetica,sans-Serif" font-size="10.00"> initDelayTimer</text>
</g>
<!-- Node23 -->
<g id="node20" class="node"><title>Node23</title>
<g id="a_node20"><a xlink:href="../../d5/da5/classinfra_1_1_timer.html" target="_top" xlink:title="infra::Timer">
<polygon fill="white" stroke="black" points="1148,-402.14 1148,-421.14 1213,-421.14 1213,-402.14 1148,-402.14"/>
<text text-anchor="middle" x="1180.5" y="-409.14" font-family="Helvetica,sans-Serif" font-size="10.00">infra::Timer</text>
</a>
</g>
</g>
<!-- Node23&#45;&gt;Node22 -->
<g id="edge20" class="edge"><title>Node23&#45;&gt;Node22</title>
<path fill="none" stroke="midnightblue" d="M1223.06,-408.403C1272.28,-404.571 1354.43,-398.173 1408.9,-393.931"/>
<polygon fill="midnightblue" stroke="midnightblue" points="1222.78,-404.914 1213.08,-409.18 1223.33,-411.893 1222.78,-404.914"/>
</g>
<!-- Node24 -->
<g id="node21" class="node"><title>Node24</title>
<g id="a_node21"><a xlink:href="../../d7/d4a/classinfra_1_1detail_1_1_intrusive_forward_list_node.html" target="_top" xlink:title="infra::IntrusiveForwardList\l\&lt; Timer \&gt;::NodeType">
<polygon fill="white" stroke="black" points="711,-464.64 711,-494.64 837,-494.64 837,-464.64 711,-464.64"/>
<text text-anchor="start" x="719" y="-482.64" font-family="Helvetica,sans-Serif" font-size="10.00">infra::IntrusiveForwardList</text>
<text text-anchor="middle" x="774" y="-471.64" font-family="Helvetica,sans-Serif" font-size="10.00">&lt; Timer &gt;::NodeType</text>
</a>
</g>
</g>
<!-- Node24&#45;&gt;Node23 -->
<g id="edge21" class="edge"><title>Node24&#45;&gt;Node23</title>
<path fill="none" stroke="midnightblue" d="M847.374,-464.054C849.946,-463.566 852.494,-463.093 855,-462.64 964.667,-442.826 993.063,-443.895 1103,-425.64 1117.78,-423.185 1134.13,-420.227 1147.9,-417.664"/>
<polygon fill="midnightblue" stroke="midnightblue" points="846.526,-460.653 837.379,-465.999 847.863,-467.524 846.526,-460.653"/>
</g>
<!-- Node25 -->
<g id="node22" class="node"><title>Node25</title>
<polygon fill="white" stroke="#bfbfbf" points="292,-443.64 292,-473.64 417,-473.64 417,-443.64 292,-443.64"/>
<text text-anchor="start" x="300" y="-461.64" font-family="Helvetica,sans-Serif" font-size="10.00">IntrusiveForwardListNode</text>
<text text-anchor="middle" x="354.5" y="-450.64" font-family="Helvetica,sans-Serif" font-size="10.00">&lt; T &gt; *</text>
</g>
<!-- Node25&#45;&gt;Node24 -->
<g id="edge22" class="edge"><title>Node25&#45;&gt;Node24</title>
<path fill="none" stroke="#9a32cd" stroke-dasharray="5,2" d="M427.571,-462.265C507.489,-466.285 635.095,-472.704 710.803,-476.512"/>
<polygon fill="#9a32cd" stroke="#9a32cd" points="427.267,-458.746 417.104,-461.739 426.915,-465.737 427.267,-458.746"/>
<text text-anchor="middle" x="466.5" y="-468.64" font-family="Helvetica,sans-Serif" font-size="10.00"> next</text>
</g>
<!-- Node29 -->
<g id="node26" class="node"><title>Node29</title>
<g id="a_node26"><a xlink:href="../../d7/d4a/classinfra_1_1detail_1_1_intrusive_forward_list_node.html" target="_top" xlink:title="infra::IntrusiveForwardList\l\&lt; TimerService \&gt;::NodeType">
<polygon fill="white" stroke="black" points="534.5,-385.64 534.5,-415.64 674.5,-415.64 674.5,-385.64 534.5,-385.64"/>
<text text-anchor="start" x="542.5" y="-403.64" font-family="Helvetica,sans-Serif" font-size="10.00">infra::IntrusiveForwardList</text>
<text text-anchor="middle" x="604.5" y="-392.64" font-family="Helvetica,sans-Serif" font-size="10.00">&lt; TimerService &gt;::NodeType</text>
</a>
</g>
</g>
<!-- Node25&#45;&gt;Node29 -->
<g id="edge27" class="edge"><title>Node25&#45;&gt;Node29</title>
<path fill="none" stroke="#9a32cd" stroke-dasharray="5,2" d="M426.912,-441.939C462.328,-433.656 504.768,-423.731 539.166,-415.686"/>
<polygon fill="#9a32cd" stroke="#9a32cd" points="426.062,-438.543 417.122,-444.228 427.656,-445.359 426.062,-438.543"/>
<text text-anchor="middle" x="466.5" y="-443.64" font-family="Helvetica,sans-Serif" font-size="10.00"> next</text>
</g>
<!-- Node26 -->
<g id="node23" class="node"><title>Node26</title>
<g id="a_node23"><a xlink:href="../../da/d07/classinfra_1_1_function.html" target="_top" xlink:title="infra::Function\&lt; void()\&gt;">
<polygon fill="white" stroke="black" points="859,-358.14 859,-377.14 975,-377.14 975,-358.14 859,-358.14"/>
<text text-anchor="middle" x="917" y="-365.14" font-family="Helvetica,sans-Serif" font-size="10.00">infra::Function&lt; void()&gt;</text>
</a>
</g>
</g>
<!-- Node26&#45;&gt;Node4 -->
<g id="edge34" class="edge"><title>Node26&#45;&gt;Node4</title>
<path fill="none" stroke="#9a32cd" stroke-dasharray="5,2" d="M985.17,-361.408C1130.37,-347.935 1472.42,-316.199 1621.94,-302.326"/>
<polygon fill="#9a32cd" stroke="#9a32cd" points="984.695,-357.937 975.061,-362.346 985.342,-364.907 984.695,-357.937"/>
<text text-anchor="middle" x="1324.5" y="-339.64" font-family="Helvetica,sans-Serif" font-size="10.00"> onInitialized</text>
</g>
<!-- Node26&#45;&gt;Node23 -->
<g id="edge23" class="edge"><title>Node26&#45;&gt;Node23</title>
<path fill="none" stroke="#9a32cd" stroke-dasharray="5,2" d="M985.505,-374.968C1020.68,-379.239 1064.32,-385.246 1103,-392.64 1117.79,-395.466 1133.99,-399.372 1147.66,-402.907"/>
<polygon fill="#9a32cd" stroke="#9a32cd" points="985.693,-371.466 975.349,-373.754 984.863,-378.416 985.693,-371.466"/>
<text text-anchor="middle" x="1050" y="-395.64" font-family="Helvetica,sans-Serif" font-size="10.00"> action</text>
</g>
<!-- Node27 -->
<g id="node24" class="node"><title>Node27</title>
<polygon fill="white" stroke="#bfbfbf" points="866,-472.14 866,-491.14 968,-491.14 968,-472.14 866,-472.14"/>
<text text-anchor="middle" x="917" y="-479.14" font-family="Helvetica,sans-Serif" font-size="10.00">array&lt; uint32_t, 2 &gt;</text>
</g>
<!-- Node27&#45;&gt;Node23 -->
<g id="edge24" class="edge"><title>Node27&#45;&gt;Node23</title>
<path fill="none" stroke="#9a32cd" stroke-dasharray="5,2" d="M978.45,-480.054C1015.31,-477.569 1062.88,-471.615 1103,-457.64 1127.59,-449.076 1152.85,-431.941 1167.31,-421.174"/>
<polygon fill="#9a32cd" stroke="#9a32cd" points="978.123,-476.567 968.353,-480.666 978.547,-483.554 978.123,-476.567"/>
<text text-anchor="middle" x="1050" y="-481.64" font-family="Helvetica,sans-Serif" font-size="10.00"> nextTriggerTime</text>
</g>
<!-- Node28&#45;&gt;Node23 -->
<g id="edge25" class="edge"><title>Node28&#45;&gt;Node23</title>
<path fill="none" stroke="#9a32cd" stroke-dasharray="5,2" d="M975.302,-406.955C1028.22,-408.169 1104.88,-409.928 1147.64,-410.909"/>
<polygon fill="#9a32cd" stroke="#9a32cd" points="975.131,-403.45 965.053,-406.72 974.97,-410.448 975.131,-403.45"/>
<text text-anchor="middle" x="1050" y="-413.64" font-family="Helvetica,sans-Serif" font-size="10.00"> timerService</text>
</g>
<!-- Node29&#45;&gt;Node28 -->
<g id="edge26" class="edge"><title>Node29&#45;&gt;Node28</title>
<path fill="none" stroke="midnightblue" d="M685.041,-401.921C743.096,-402.856 819.856,-404.092 868.592,-404.877"/>
<polygon fill="midnightblue" stroke="midnightblue" points="684.851,-398.417 674.796,-401.756 684.738,-405.417 684.851,-398.417"/>
</g>
<!-- Node30 -->
<g id="node27" class="node"><title>Node30</title>
<polygon fill="white" stroke="#bfbfbf" points="573.5,-435.14 573.5,-454.14 635.5,-454.14 635.5,-435.14 573.5,-435.14"/>
<text text-anchor="middle" x="604.5" y="-442.14" font-family="Helvetica,sans-Serif" font-size="10.00">time_point</text>
</g>
<!-- Node30&#45;&gt;Node28 -->
<g id="edge28" class="edge"><title>Node30&#45;&gt;Node28</title>
<path fill="none" stroke="#9a32cd" stroke-dasharray="5,2" d="M645.708,-440.378C691.925,-435.38 770.03,-426.629 837,-417.64 847.312,-416.256 858.362,-414.653 868.834,-413.078"/>
<polygon fill="#9a32cd" stroke="#9a32cd" points="645.077,-436.926 635.509,-441.476 645.826,-443.885 645.077,-436.926"/>
<text text-anchor="middle" x="774" y="-436.64" font-family="Helvetica,sans-Serif" font-size="10.00"> nextTrigger</text>
</g>
<!-- Node31 -->
<g id="node28" class="node"><title>Node31</title>
<g id="a_node28"><a xlink:href="../../d3/d66/classinfra_1_1_intrusive_forward_list.html" target="_top" xlink:title="infra::IntrusiveForwardList\l\&lt; infra::Timer \&gt;">
<polygon fill="white" stroke="black" points="541.5,-336.64 541.5,-366.64 667.5,-366.64 667.5,-336.64 541.5,-336.64"/>
<text text-anchor="start" x="549.5" y="-354.64" font-family="Helvetica,sans-Serif" font-size="10.00">infra::IntrusiveForwardList</text>
<text text-anchor="middle" x="604.5" y="-343.64" font-family="Helvetica,sans-Serif" font-size="10.00">&lt; infra::Timer &gt;</text>
</a>
</g>
</g>
<!-- Node31&#45;&gt;Node28 -->
<g id="edge29" class="edge"><title>Node31&#45;&gt;Node28</title>
<path fill="none" stroke="#9a32cd" stroke-dasharray="5,2" d="M678.069,-352.102C724.475,-354.183 785.417,-360.268 837,-376.64 845.723,-379.409 846.587,-383.038 855,-386.64 863.259,-390.176 872.399,-393.377 881.035,-396.1"/>
<polygon fill="#9a32cd" stroke="#9a32cd" points="677.931,-348.594 667.8,-351.696 677.654,-355.589 677.931,-348.594"/>
<text text-anchor="middle" x="774" y="-390.64" font-family="Helvetica,sans-Serif" font-size="10.00"> timerIterator</text>
<text text-anchor="middle" x="774" y="-379.64" font-family="Helvetica,sans-Serif" font-size="10.00">scheduledTimers</text>
</g>
<!-- Node32 -->
<g id="node29" class="node"><title>Node32</title>
<g id="a_node29"><a xlink:href="../../d7/d4a/classinfra_1_1detail_1_1_intrusive_forward_list_node.html" target="_top" xlink:title="infra::detail::Intrusive\lForwardListNode\&lt; infra\l::Timer \&gt;">
<polygon fill="white" stroke="black" points="296.5,-331.14 296.5,-372.14 412.5,-372.14 412.5,-331.14 296.5,-331.14"/>
<text text-anchor="start" x="304.5" y="-360.14" font-family="Helvetica,sans-Serif" font-size="10.00">infra::detail::Intrusive</text>
<text text-anchor="start" x="304.5" y="-349.14" font-family="Helvetica,sans-Serif" font-size="10.00">ForwardListNode&lt; infra</text>
<text text-anchor="middle" x="354.5" y="-338.14" font-family="Helvetica,sans-Serif" font-size="10.00">::Timer &gt;</text>
</a>
</g>
</g>
<!-- Node32&#45;&gt;Node31 -->
<g id="edge30" class="edge"><title>Node32&#45;&gt;Node31</title>
<path fill="none" stroke="#9a32cd" stroke-dasharray="5,2" d="M422.884,-351.64C459.82,-351.64 505.291,-351.64 541.367,-351.64"/>
<polygon fill="#9a32cd" stroke="#9a32cd" points="422.708,-348.14 412.708,-351.64 422.708,-355.14 422.708,-348.14"/>
<text text-anchor="middle" x="466.5" y="-354.64" font-family="Helvetica,sans-Serif" font-size="10.00"> beginNode</text>
</g>
<!-- Node32&#45;&gt;Node32 -->
<g id="edge31" class="edge"><title>Node32&#45;&gt;Node32</title>
<path fill="none" stroke="#9a32cd" stroke-dasharray="5,2" d="M335.231,-382.496C338.097,-387.337 344.52,-390.64 354.5,-390.64 370.469,-390.64 377.33,-382.183 375.085,-372.504"/>
<polygon fill="#9a32cd" stroke="#9a32cd" points="338.691,-381.962 333.915,-372.504 331.751,-382.876 338.691,-381.962"/>
<text text-anchor="middle" x="354.5" y="-393.64" font-family="Helvetica,sans-Serif" font-size="10.00"> next</text>
</g>
</g>
</svg>
        <g id="navigator" transform="translate(0 0)" fill="#404254">
                <rect fill="#f2f5e9" fill-opacity="0.5" stroke="#606060" stroke-width=".5" x="0" y="0" width="60" height="60"/>
                <use id="zoomplus" xlink:href="#zoomPlus" x="17" y="9" onmousedown="handleZoom(evt,'in')"/>
                <use id="zoomminus" xlink:href="#zoomMin" x="42" y="9" onmousedown="handleZoom(evt,'out')"/>
                <use id="reset" xlink:href="#resetDef" x="30" y="36" onmousedown="handleReset()"/>
                <g id="arrowUp" xlink:href="#dirArrow" transform="translate(30 24)" onmousedown="handlePan(0,-1)">
                  <use xlink:href="#rim" fill="#404040">
                        <set attributeName="fill" to="#808080" begin="arrowUp.mouseover" end="arrowUp.mouseout"/>
                  </use>
                  <path fill="none" stroke="white" stroke-width="1.5" d="M0,-3.0v7 M-2.5,-0.5L0,-3.0L2.5,-0.5"/>
                </g>
                <g id="arrowRight" xlink:href="#dirArrow" transform="rotate(90) translate(36 -43)" onmousedown="handlePan(1,0)">
                  <use xlink:href="#rim" fill="#404040">
                        <set attributeName="fill" to="#808080" begin="arrowRight.mouseover" end="arrowRight.mouseout"/>
                  </use>
                  <path fill="none" stroke="white" stroke-width="1.5" d="M0,-3.0v7 M-2.5,-0.5L0,-3.0L2.5,-0.5"/>
                </g>
                <g id="arrowDown" xlink:href="#dirArrow" transform="rotate(180) translate(-30 -48)" onmousedown="handlePan(0,1)">
                  <use xlink:href="#rim" fill="#404040">
                        <set attributeName="fill" to="#808080" begin="arrowDown.mouseover" end="arrowDown.mouseout"/>
                  </use>
                  <path fill="none" stroke="white" stroke-width="1.5" d="M0,-3.0v7 M-2.5,-0.5L0,-3.0L2.5,-0.5"/>
                </g>
                <g id="arrowLeft" xlink:href="#dirArrow" transform="rotate(270) translate(-36 17)" onmousedown="handlePan(-1,0)">
                  <use xlink:href="#rim" fill="#404040">
                        <set attributeName="fill" to="#808080" begin="arrowLeft.mouseover" end="arrowLeft.mouseout"/>
                  </use>
                  <path fill="none" stroke="white" stroke-width="1.5" d="M0,-3.0v7 M-2.5,-0.5L0,-3.0L2.5,-0.5"/>
                </g>
        </g>
        <svg viewBox="0 0 15 15" width="100%" height="30px" preserveAspectRatio="xMaxYMin meet">
         <g id="arrow_out" transform="scale(0.3 0.3)">
          <a xlink:href="classservices_1_1_flash_quad_spi_single_speed__coll__graph_org.svg" target="_base">
           <rect id="button" ry="5" rx="5" y="6" x="6" height="38" width="38"
                fill="#f2f5e9" fill-opacity="0.5" stroke="#606060" stroke-width="1.0"/>
           <path id="arrow"
             d="M 11.500037,31.436501 C 11.940474,20.09759 22.043105,11.32322 32.158766,21.979434 L 37.068811,17.246167 C 37.068811,17.246167 37.088388,32 37.088388,32 L 22.160133,31.978069 C 22.160133,31.978069 26.997745,27.140456 26.997745,27.140456 C 18.528582,18.264221 13.291696,25.230495 11.500037,31.436501 z"
             style="fill:#404040;"/>
          </a>
         </g>
        </svg>
</svg>
