<?xml version="1.0" encoding="UTF-8" standalone="no"?>
<!DOCTYPE svg PUBLIC "-//W3C//DTD SVG 1.1//EN"
 "http://www.w3.org/Graphics/SVG/1.1/DTD/svg11.dtd">
<!-- Generated by graphviz version 2.38.0 (20140413.2041)
 -->
<!-- Title: infra::StdStringOutputStream Pages: 1 -->
<svg width="728pt" height="88pt"
 viewBox="0.00 0.00 728.00 88.00" xmlns="http://www.w3.org/2000/svg" xmlns:xlink="http://www.w3.org/1999/xlink">
<g id="graph0" class="graph" transform="scale(1 1) rotate(0) translate(4 84)">
<title>infra::StdStringOutputStream</title>
<polygon fill="white" stroke="none" points="-4,4 -4,-84 724,-84 724,4 -4,4"/>
<!-- Node0 -->
<g id="node1" class="node"><title>Node0</title>
<polygon fill="#bfbfbf" stroke="black" points="578,-24.5 578,-43.5 720,-43.5 720,-24.5 578,-24.5"/>
<text text-anchor="middle" x="649" y="-31.5" font-family="Helvetica,sans-Serif" font-size="10.00">infra::StdStringOutputStream</text>
</g>
<!-- Node1 -->
<g id="node2" class="node"><title>Node1</title>
<g id="a_node2"><a xlink:href="../../da/d99/classinfra_1_1_text_output_stream_1_1_with_writer.html" target="_top" xlink:title="infra::TextOutputStream\l::WithWriter\&lt; StdStringOutput\lStreamWriter \&gt;">
<polygon fill="white" stroke="black" points="394,-13.5 394,-54.5 542,-54.5 542,-13.5 394,-13.5"/>
<text text-anchor="start" x="402" y="-42.5" font-family="Helvetica,sans-Serif" font-size="10.00">infra::TextOutputStream</text>
<text text-anchor="start" x="402" y="-31.5" font-family="Helvetica,sans-Serif" font-size="10.00">::WithWriter&lt; StdStringOutput</text>
<text text-anchor="middle" x="468" y="-20.5" font-family="Helvetica,sans-Serif" font-size="10.00">StreamWriter &gt;</text>
</a>
</g>
</g>
<!-- Node1&#45;&gt;Node0 -->
<g id="edge1" class="edge"><title>Node1&#45;&gt;Node0</title>
<path fill="none" stroke="midnightblue" d="M552.09,-34C560.677,-34 569.344,-34 577.771,-34"/>
<polygon fill="midnightblue" stroke="midnightblue" points="552.064,-30.5001 542.064,-34 552.064,-37.5001 552.064,-30.5001"/>
</g>
<!-- Node2 -->
<g id="node3" class="node"><title>Node2</title>
<g id="a_node3"><a xlink:href="../../d9/d00/classinfra_1_1detail_1_1_storage_holder.html" target="_top" xlink:title="infra::detail::StorageHolder\l\&lt; StdStringOutputStreamWriter,\l WithWriter\&lt; StdStringOutputStreamWriter \&gt; \&gt;">
<polygon fill="white" stroke="black" points="137,-38.5 137,-79.5 358,-79.5 358,-38.5 137,-38.5"/>
<text text-anchor="start" x="145" y="-67.5" font-family="Helvetica,sans-Serif" font-size="10.00">infra::detail::StorageHolder</text>
<text text-anchor="start" x="145" y="-56.5" font-family="Helvetica,sans-Serif" font-size="10.00">&lt; StdStringOutputStreamWriter,</text>
<text text-anchor="middle" x="247.5" y="-45.5" font-family="Helvetica,sans-Serif" font-size="10.00"> WithWriter&lt; StdStringOutputStreamWriter &gt; &gt;</text>
</a>
</g>
</g>
<!-- Node2&#45;&gt;Node1 -->
<g id="edge2" class="edge"><title>Node2&#45;&gt;Node1</title>
<path fill="none" stroke="#8b1a1a" d="M368.014,-45.3256C376.799,-44.3205 385.495,-43.3255 393.871,-42.3671"/>
<polygon fill="#8b1a1a" stroke="#8b1a1a" points="367.607,-41.8492 358.07,-46.4634 368.403,-48.8039 367.607,-41.8492"/>
</g>
<!-- Node3 -->
<g id="node4" class="node"><title>Node3</title>
<g id="a_node4"><a xlink:href="../../de/dad/classinfra_1_1_text_output_stream.html" target="_top" xlink:title="infra::TextOutputStream">
<polygon fill="white" stroke="black" points="187.5,-0.5 187.5,-19.5 307.5,-19.5 307.5,-0.5 187.5,-0.5"/>
<text text-anchor="middle" x="247.5" y="-7.5" font-family="Helvetica,sans-Serif" font-size="10.00">infra::TextOutputStream</text>
</a>
</g>
</g>
<!-- Node3&#45;&gt;Node1 -->
<g id="edge3" class="edge"><title>Node3&#45;&gt;Node1</title>
<path fill="none" stroke="midnightblue" d="M317.802,-17.6121C342.01,-20.2711 369.253,-23.2634 393.77,-25.9565"/>
<polygon fill="midnightblue" stroke="midnightblue" points="317.952,-14.1076 307.629,-16.4947 317.187,-21.0657 317.952,-14.1076"/>
</g>
<!-- Node4 -->
<g id="node5" class="node"><title>Node4</title>
<g id="a_node5"><a xlink:href="../../d6/d97/classinfra_1_1_output_stream.html" target="_top" xlink:title="infra::OutputStream">
<polygon fill="white" stroke="black" points="0,-0.5 0,-19.5 101,-19.5 101,-0.5 0,-0.5"/>
<text text-anchor="middle" x="50.5" y="-7.5" font-family="Helvetica,sans-Serif" font-size="10.00">infra::OutputStream</text>
</a>
</g>
</g>
<!-- Node4&#45;&gt;Node3 -->
<g id="edge4" class="edge"><title>Node4&#45;&gt;Node3</title>
<path fill="none" stroke="midnightblue" d="M111.293,-10C135.386,-10 163.111,-10 187.158,-10"/>
<polygon fill="midnightblue" stroke="midnightblue" points="111.211,-6.5001 101.211,-10 111.211,-13.5001 111.211,-6.5001"/>
</g>
</g>
</svg>
