<?xml version="1.0" encoding="UTF-8" standalone="no"?>
<!DOCTYPE svg PUBLIC "-//W3C//DTD SVG 1.1//EN"
 "http://www.w3.org/Graphics/SVG/1.1/DTD/svg11.dtd">
<!-- Generated by graphviz version 2.38.0 (20140413.2041)
 -->
<!-- Title: infra::BoundedDeque::resize Pages: 1 -->
<svg width="449pt" height="39pt"
 viewBox="0.00 0.00 449.00 39.00" xmlns="http://www.w3.org/2000/svg" xmlns:xlink="http://www.w3.org/1999/xlink">
<g id="graph0" class="graph" transform="scale(1 1) rotate(0) translate(4 35)">
<title>infra::BoundedDeque::resize</title>
<polygon fill="white" stroke="none" points="-4,4 -4,-35 445,-35 445,4 -4,4"/>
<!-- Node242 -->
<g id="node1" class="node"><title>Node242</title>
<polygon fill="#bfbfbf" stroke="black" points="0,-0.5 0,-30.5 107,-30.5 107,-0.5 0,-0.5"/>
<text text-anchor="start" x="8" y="-18.5" font-family="Helvetica,sans-Serif" font-size="10.00">infra::BoundedDeque</text>
<text text-anchor="middle" x="53.5" y="-7.5" font-family="Helvetica,sans-Serif" font-size="10.00">::resize</text>
</g>
<!-- Node243 -->
<g id="node2" class="node"><title>Node243</title>
<g id="a_node2"><a xlink:href="../../de/dcb/classservices_1_1_connection_mbed_tls.html#a53639b78d992c6e48dbab1e8228d054d" target="_top" xlink:title="services::ConnectionMbed\lTls::DataReceived">
<polygon fill="white" stroke="black" points="143,-0.5 143,-30.5 274,-30.5 274,-0.5 143,-0.5"/>
<text text-anchor="start" x="151" y="-18.5" font-family="Helvetica,sans-Serif" font-size="10.00">services::ConnectionMbed</text>
<text text-anchor="middle" x="208.5" y="-7.5" font-family="Helvetica,sans-Serif" font-size="10.00">Tls::DataReceived</text>
</a>
</g>
</g>
<!-- Node242&#45;&gt;Node243 -->
<g id="edge1" class="edge"><title>Node242&#45;&gt;Node243</title>
<path fill="none" stroke="midnightblue" d="M117.295,-15.5C125.726,-15.5 134.386,-15.5 142.848,-15.5"/>
<polygon fill="midnightblue" stroke="midnightblue" points="117.154,-12.0001 107.154,-15.5 117.154,-19.0001 117.154,-12.0001"/>
</g>
<!-- Node244 -->
<g id="node3" class="node"><title>Node244</title>
<g id="a_node3"><a xlink:href="../../de/dcb/classservices_1_1_connection_mbed_tls.html#a68236d63ecd3cacd23fd95bf9c17d70f" target="_top" xlink:title="services::ConnectionMbed\lTls::AckReceived">
<polygon fill="white" stroke="black" points="310,-0.5 310,-30.5 441,-30.5 441,-0.5 310,-0.5"/>
<text text-anchor="start" x="318" y="-18.5" font-family="Helvetica,sans-Serif" font-size="10.00">services::ConnectionMbed</text>
<text text-anchor="middle" x="375.5" y="-7.5" font-family="Helvetica,sans-Serif" font-size="10.00">Tls::AckReceived</text>
</a>
</g>
</g>
<!-- Node243&#45;&gt;Node244 -->
<g id="edge2" class="edge"><title>Node243&#45;&gt;Node244</title>
<path fill="none" stroke="midnightblue" d="M284.239,-15.5C292.821,-15.5 301.516,-15.5 309.948,-15.5"/>
<polygon fill="midnightblue" stroke="midnightblue" points="284.239,-12.0001 274.239,-15.5 284.239,-19.0001 284.239,-12.0001"/>
</g>
</g>
</svg>
