<?xml version="1.0" encoding="UTF-8" standalone="no"?>
<!DOCTYPE svg PUBLIC "-//W3C//DTD SVG 1.1//EN"
 "http://www.w3.org/Graphics/SVG/1.1/DTD/svg11.dtd">
<!-- Generated by graphviz version 2.38.0 (20140413.2041)
 -->
<!-- Title: infra::BoundedDeque::begin Pages: 1 -->
<!--zoomable 646 -->
<svg id="main" version="1.1" xmlns="http://www.w3.org/2000/svg" xmlns:xlink="http://www.w3.org/1999/xlink" xml:space="preserve" onload="init(evt)">
<style type="text/css"><![CDATA[
.edge:hover path { stroke: red; }
.edge:hover polygon { stroke: red; fill: red; }
]]></style>
<script type="text/javascript"><![CDATA[
var edges = document.getElementsByTagName('g');
if (edges && edges.length) {
  for (var i=0;i<edges.length;i++) {
    if (edges[i].id.substr(0,4)=='edge') {
      edges[i].setAttribute('class','edge');
    }
  }
}
]]></script>
        <defs>
                <circle id="rim" cx="0" cy="0" r="7"/>
                <circle id="rim2" cx="0" cy="0" r="3.5"/>
                <g id="zoomPlus">
                        <use xlink:href="#rim" fill="#404040">
                                <set attributeName="fill" to="#808080" begin="zoomplus.mouseover" end="zoomplus.mouseout"/>
                        </use>
                        <path d="M-4,0h8M0,-4v8" fill="none" stroke="white" stroke-width="1.5" pointer-events="none"/>
                </g>
                <g id="zoomMin">
                        <use xlink:href="#rim" fill="#404040">
                                <set attributeName="fill" to="#808080" begin="zoomminus.mouseover" end="zoomminus.mouseout"/>
                        </use>
                        <path d="M-4,0h8" fill="none" stroke="white" stroke-width="1.5" pointer-events="none"/>
                </g>
                <g id="dirArrow">
                        <path fill="none" stroke="white" stroke-width="1.5" d="M0,-3.0v7 M-2.5,-0.5L0,-3.0L2.5,-0.5"/>
                </g>
               <g id="resetDef">
                       <use xlink:href="#rim2" fill="#404040">
                               <set attributeName="fill" to="#808080" begin="reset.mouseover" end="reset.mouseout"/>
                       </use>
               </g>
        </defs>

<script type="text/javascript">
var viewWidth = 511;
var viewHeight = 646;
var sectionId = 'dynsection-1';
</script>
<script xlink:href="../../svgpan.js"/>
<svg id="graph" class="graph">
<g id="viewport">
<title>infra::BoundedDeque::begin</title>
<polygon fill="white" stroke="none" points="-4,4 -4,-641.5 507,-641.5 507,4 -4,4"/>
<!-- Node31 -->
<g id="node1" class="node"><title>Node31</title>
<polygon fill="#bfbfbf" stroke="black" points="0,-303.5 0,-333.5 107,-333.5 107,-303.5 0,-303.5"/>
<text text-anchor="start" x="8" y="-321.5" font-family="Helvetica,sans-Serif" font-size="10.00">infra::BoundedDeque</text>
<text text-anchor="middle" x="53.5" y="-310.5" font-family="Helvetica,sans-Serif" font-size="10.00">::begin</text>
</g>
<!-- Node32 -->
<g id="node2" class="node"><title>Node32</title>
<g id="a_node2"><a xlink:href="../../d5/db7/classinfra_1_1_bounded_deque.html#a299ea56d3491ab3d97b1856bddfc7a2d" target="_top" xlink:title="infra::BoundedDeque\l\&lt; decltype(buffer)\&gt;\l::BoundedDeque">
<polygon fill="white" stroke="black" points="186,-596 186,-637 293,-637 293,-596 186,-596"/>
<text text-anchor="start" x="194" y="-625" font-family="Helvetica,sans-Serif" font-size="10.00">infra::BoundedDeque</text>
<text text-anchor="start" x="194" y="-614" font-family="Helvetica,sans-Serif" font-size="10.00">&lt; decltype(buffer)&gt;</text>
<text text-anchor="middle" x="239.5" y="-603" font-family="Helvetica,sans-Serif" font-size="10.00">::BoundedDeque</text>
</a>
</g>
</g>
<!-- Node31&#45;&gt;Node32 -->
<g id="edge1" class="edge"><title>Node31&#45;&gt;Node32</title>
<path fill="none" stroke="midnightblue" d="M55.4808,-343.856C58.904,-396.579 74.2528,-518.748 143,-586.5 154.511,-597.845 170.262,-604.906 185.654,-609.299"/>
<polygon fill="midnightblue" stroke="midnightblue" points="58.9662,-343.495 54.9164,-333.704 51.977,-343.883 58.9662,-343.495"/>
</g>
<!-- Node33 -->
<g id="node3" class="node"><title>Node33</title>
<g id="a_node3"><a xlink:href="../../de/dcb/classservices_1_1_connection_mbed_tls.html#a53639b78d992c6e48dbab1e8228d054d" target="_top" xlink:title="services::ConnectionMbed\lTls::DataReceived">
<polygon fill="white" stroke="black" points="174,-546.5 174,-576.5 305,-576.5 305,-546.5 174,-546.5"/>
<text text-anchor="start" x="182" y="-564.5" font-family="Helvetica,sans-Serif" font-size="10.00">services::ConnectionMbed</text>
<text text-anchor="middle" x="239.5" y="-553.5" font-family="Helvetica,sans-Serif" font-size="10.00">Tls::DataReceived</text>
</a>
</g>
</g>
<!-- Node31&#45;&gt;Node33 -->
<g id="edge2" class="edge"><title>Node31&#45;&gt;Node33</title>
<path fill="none" stroke="midnightblue" d="M57.2777,-343.613C63.7044,-389.295 83.8795,-486.014 143,-537.5 151.767,-545.134 162.614,-550.406 173.818,-554.032"/>
<polygon fill="midnightblue" stroke="midnightblue" points="60.7438,-343.125 55.9841,-333.66 53.8022,-344.027 60.7438,-343.125"/>
</g>
<!-- Node35 -->
<g id="node5" class="node"><title>Node35</title>
<g id="a_node5"><a xlink:href="../../d7/dea/classinfra_1_1_bounded_deque_input_stream_reader.html#add207634d408ca8d692e005700e66cc2" target="_top" xlink:title="infra::BoundedDequeInput\lStreamReader::Extract">
<polygon fill="white" stroke="black" points="175.5,-497.5 175.5,-527.5 303.5,-527.5 303.5,-497.5 175.5,-497.5"/>
<text text-anchor="start" x="183.5" y="-515.5" font-family="Helvetica,sans-Serif" font-size="10.00">infra::BoundedDequeInput</text>
<text text-anchor="middle" x="239.5" y="-504.5" font-family="Helvetica,sans-Serif" font-size="10.00">StreamReader::Extract</text>
</a>
</g>
</g>
<!-- Node31&#45;&gt;Node35 -->
<g id="edge4" class="edge"><title>Node31&#45;&gt;Node35</title>
<path fill="none" stroke="midnightblue" d="M60.5689,-343.755C70.9103,-381.203 95.588,-451.052 143,-488.5 152.391,-495.917 163.786,-501.073 175.388,-504.649"/>
<polygon fill="midnightblue" stroke="midnightblue" points="63.8462,-342.455 57.9174,-333.674 57.0765,-344.236 63.8462,-342.455"/>
</g>
<!-- Node37 -->
<g id="node7" class="node"><title>Node37</title>
<g id="a_node7"><a xlink:href="../../d7/dea/classinfra_1_1_bounded_deque_input_stream_reader.html#a0b1db30ed8d9e68f48772573a9a0f255" target="_top" xlink:title="infra::BoundedDequeInput\lStreamReader::ExtractContiguousRange">
<polygon fill="white" stroke="black" points="143,-448.5 143,-478.5 336,-478.5 336,-448.5 143,-448.5"/>
<text text-anchor="start" x="151" y="-466.5" font-family="Helvetica,sans-Serif" font-size="10.00">infra::BoundedDequeInput</text>
<text text-anchor="middle" x="239.5" y="-455.5" font-family="Helvetica,sans-Serif" font-size="10.00">StreamReader::ExtractContiguousRange</text>
</a>
</g>
</g>
<!-- Node31&#45;&gt;Node37 -->
<g id="edge6" class="edge"><title>Node31&#45;&gt;Node37</title>
<path fill="none" stroke="midnightblue" d="M66.0651,-342.916C80.3173,-370.34 107.122,-414.181 143,-438.5 148.675,-442.346 154.908,-445.601 161.386,-448.355"/>
<polygon fill="midnightblue" stroke="midnightblue" points="69.01,-340.982 61.3886,-333.623 62.757,-344.129 69.01,-340.982"/>
</g>
<!-- Node38 -->
<g id="node8" class="node"><title>Node38</title>
<g id="a_node8"><a xlink:href="../../df/d30/classservices_1_1_connection_serial_1_1_serial_connection_stream_reader.html#a2590804ca9e3794c3b35a650449f67db" target="_top" xlink:title="services::ConnectionSerial\l::SerialConnectionStreamReader\l::ExtractContiguousRange">
<polygon fill="white" stroke="black" points="160.5,-388 160.5,-429 318.5,-429 318.5,-388 160.5,-388"/>
<text text-anchor="start" x="168.5" y="-417" font-family="Helvetica,sans-Serif" font-size="10.00">services::ConnectionSerial</text>
<text text-anchor="start" x="168.5" y="-406" font-family="Helvetica,sans-Serif" font-size="10.00">::SerialConnectionStreamReader</text>
<text text-anchor="middle" x="239.5" y="-395" font-family="Helvetica,sans-Serif" font-size="10.00">::ExtractContiguousRange</text>
</a>
</g>
</g>
<!-- Node31&#45;&gt;Node38 -->
<g id="edge7" class="edge"><title>Node31&#45;&gt;Node38</title>
<path fill="none" stroke="midnightblue" d="M81.4793,-339.838C98.3947,-352.424 121.081,-367.91 143,-378.5 150.12,-381.94 157.726,-385.105 165.42,-387.984"/>
<polygon fill="midnightblue" stroke="midnightblue" points="83.2788,-336.811 73.1942,-333.562 79.0519,-342.39 83.2788,-336.811"/>
</g>
<!-- Node39 -->
<g id="node9" class="node"><title>Node39</title>
<g id="a_node9"><a xlink:href="../../d5/db7/classinfra_1_1_bounded_deque.html#ab0c96610d1900d4164a06c798a436065" target="_top" xlink:title="infra::BoundedDeque\l\&lt; decltype(buffer)\&gt;\l::operator\&lt;">
<polygon fill="white" stroke="black" points="186,-328 186,-369 293,-369 293,-328 186,-328"/>
<text text-anchor="start" x="194" y="-357" font-family="Helvetica,sans-Serif" font-size="10.00">infra::BoundedDeque</text>
<text text-anchor="start" x="194" y="-346" font-family="Helvetica,sans-Serif" font-size="10.00">&lt; decltype(buffer)&gt;</text>
<text text-anchor="middle" x="239.5" y="-335" font-family="Helvetica,sans-Serif" font-size="10.00">::operator&lt;</text>
</a>
</g>
</g>
<!-- Node31&#45;&gt;Node39 -->
<g id="edge8" class="edge"><title>Node31&#45;&gt;Node39</title>
<path fill="none" stroke="midnightblue" d="M117.266,-328.734C139.556,-332.368 164.399,-336.418 185.765,-339.902"/>
<polygon fill="midnightblue" stroke="midnightblue" points="117.66,-325.252 107.227,-327.097 116.533,-332.16 117.66,-325.252"/>
</g>
<!-- Node40 -->
<g id="node10" class="node"><title>Node40</title>
<g id="a_node10"><a xlink:href="../../d5/db7/classinfra_1_1_bounded_deque.html#ad494bf021499522464ddb7eead0be2b6" target="_top" xlink:title="infra::BoundedDeque\l\&lt; decltype(buffer)\&gt;\l::operator=">
<polygon fill="white" stroke="black" points="186,-268 186,-309 293,-309 293,-268 186,-268"/>
<text text-anchor="start" x="194" y="-297" font-family="Helvetica,sans-Serif" font-size="10.00">infra::BoundedDeque</text>
<text text-anchor="start" x="194" y="-286" font-family="Helvetica,sans-Serif" font-size="10.00">&lt; decltype(buffer)&gt;</text>
<text text-anchor="middle" x="239.5" y="-275" font-family="Helvetica,sans-Serif" font-size="10.00">::operator=</text>
</a>
</g>
</g>
<!-- Node31&#45;&gt;Node40 -->
<g id="edge9" class="edge"><title>Node31&#45;&gt;Node40</title>
<path fill="none" stroke="midnightblue" d="M117.266,-308.266C139.556,-304.632 164.399,-300.582 185.765,-297.098"/>
<polygon fill="midnightblue" stroke="midnightblue" points="116.533,-304.84 107.227,-309.903 117.66,-311.748 116.533,-304.84"/>
</g>
<!-- Node41 -->
<g id="node11" class="node"><title>Node41</title>
<g id="a_node11"><a xlink:href="../../d5/db7/classinfra_1_1_bounded_deque.html#a4c13762c18c72d73a8ed4581c6f72a2a" target="_top" xlink:title="infra::BoundedDeque\l\&lt; decltype(buffer)\&gt;\l::operator==">
<polygon fill="white" stroke="black" points="186,-208 186,-249 293,-249 293,-208 186,-208"/>
<text text-anchor="start" x="194" y="-237" font-family="Helvetica,sans-Serif" font-size="10.00">infra::BoundedDeque</text>
<text text-anchor="start" x="194" y="-226" font-family="Helvetica,sans-Serif" font-size="10.00">&lt; decltype(buffer)&gt;</text>
<text text-anchor="middle" x="239.5" y="-215" font-family="Helvetica,sans-Serif" font-size="10.00">::operator==</text>
</a>
</g>
</g>
<!-- Node31&#45;&gt;Node41 -->
<g id="edge10" class="edge"><title>Node31&#45;&gt;Node41</title>
<path fill="none" stroke="midnightblue" d="M81.4793,-297.162C98.3947,-284.576 121.081,-269.09 143,-258.5 156.457,-251.998 171.65,-246.479 185.895,-242.016"/>
<polygon fill="midnightblue" stroke="midnightblue" points="79.0519,-294.61 73.1942,-303.438 83.2788,-300.189 79.0519,-294.61"/>
</g>
<!-- Node42 -->
<g id="node12" class="node"><title>Node42</title>
<g id="a_node12"><a xlink:href="../../df/d30/classservices_1_1_connection_serial_1_1_serial_connection_stream_reader.html#a7987651529ceb23c67ca83dceebe94a8" target="_top" xlink:title="services::ConnectionSerial\l::SerialConnectionStreamReader\l::PeekContiguousRange">
<polygon fill="white" stroke="black" points="160.5,-148 160.5,-189 318.5,-189 318.5,-148 160.5,-148"/>
<text text-anchor="start" x="168.5" y="-177" font-family="Helvetica,sans-Serif" font-size="10.00">services::ConnectionSerial</text>
<text text-anchor="start" x="168.5" y="-166" font-family="Helvetica,sans-Serif" font-size="10.00">::SerialConnectionStreamReader</text>
<text text-anchor="middle" x="239.5" y="-155" font-family="Helvetica,sans-Serif" font-size="10.00">::PeekContiguousRange</text>
</a>
</g>
</g>
<!-- Node31&#45;&gt;Node42 -->
<g id="edge11" class="edge"><title>Node31&#45;&gt;Node42</title>
<path fill="none" stroke="midnightblue" d="M66.5115,-293.958C81.0185,-266.792 107.908,-223.545 143,-198.5 148.375,-194.664 154.259,-191.305 160.382,-188.367"/>
<polygon fill="midnightblue" stroke="midnightblue" points="63.2285,-292.686 61.7348,-303.175 69.4435,-295.907 63.2285,-292.686"/>
</g>
<!-- Node43 -->
<g id="node13" class="node"><title>Node43</title>
<g id="a_node13"><a xlink:href="../../de/d8b/classservices_1_1_connection_bsd.html#abd0d4817f9fbeb070f1fe89332f33d0f" target="_top" xlink:title="services::ConnectionBsd\l::Send">
<polygon fill="white" stroke="black" points="177.5,-98.5 177.5,-128.5 301.5,-128.5 301.5,-98.5 177.5,-98.5"/>
<text text-anchor="start" x="185.5" y="-116.5" font-family="Helvetica,sans-Serif" font-size="10.00">services::ConnectionBsd</text>
<text text-anchor="middle" x="239.5" y="-105.5" font-family="Helvetica,sans-Serif" font-size="10.00">::Send</text>
</a>
</g>
</g>
<!-- Node31&#45;&gt;Node43 -->
<g id="edge12" class="edge"><title>Node31&#45;&gt;Node43</title>
<path fill="none" stroke="midnightblue" d="M59.7694,-293.489C69.3369,-254.387 93.3451,-179.061 143,-138.5 152.822,-130.477 164.946,-125.003 177.219,-121.275"/>
<polygon fill="midnightblue" stroke="midnightblue" points="56.3495,-292.743 57.4933,-303.276 63.1675,-294.329 56.3495,-292.743"/>
</g>
<!-- Node45 -->
<g id="node15" class="node"><title>Node45</title>
<g id="a_node15"><a xlink:href="../../db/d8b/classservices_1_1_connection_win.html#aa7aa4096aa674d9d564d99c365e865f8" target="_top" xlink:title="services::ConnectionWin\l::Send">
<polygon fill="white" stroke="black" points="177.5,-49.5 177.5,-79.5 301.5,-79.5 301.5,-49.5 177.5,-49.5"/>
<text text-anchor="start" x="185.5" y="-67.5" font-family="Helvetica,sans-Serif" font-size="10.00">services::ConnectionWin</text>
<text text-anchor="middle" x="239.5" y="-56.5" font-family="Helvetica,sans-Serif" font-size="10.00">::Send</text>
</a>
</g>
</g>
<!-- Node31&#45;&gt;Node45 -->
<g id="edge14" class="edge"><title>Node31&#45;&gt;Node45</title>
<path fill="none" stroke="midnightblue" d="M56.7129,-293.492C62.2802,-246.139 81.1947,-143.239 143,-88.5 152.598,-79.9991 164.769,-74.4192 177.182,-70.7785"/>
<polygon fill="midnightblue" stroke="midnightblue" points="53.2263,-293.181 55.6409,-303.497 60.1864,-293.927 53.2263,-293.181"/>
</g>
<!-- Node47 -->
<g id="node17" class="node"><title>Node47</title>
<g id="a_node17"><a xlink:href="../../de/dcb/classservices_1_1_connection_mbed_tls.html#a4ee3315ea0084ee8d0e8269b0e08b6ee" target="_top" xlink:title="services::ConnectionMbed\lTls::TrySend">
<polygon fill="white" stroke="black" points="174,-0.5 174,-30.5 305,-30.5 305,-0.5 174,-0.5"/>
<text text-anchor="start" x="182" y="-18.5" font-family="Helvetica,sans-Serif" font-size="10.00">services::ConnectionMbed</text>
<text text-anchor="middle" x="239.5" y="-7.5" font-family="Helvetica,sans-Serif" font-size="10.00">Tls::TrySend</text>
</a>
</g>
</g>
<!-- Node31&#45;&gt;Node47 -->
<g id="edge16" class="edge"><title>Node31&#45;&gt;Node47</title>
<path fill="none" stroke="midnightblue" d="M54.7605,-293.309C56.7499,-238.69 69.4216,-108.725 143,-39.5 151.591,-31.4171 162.489,-25.9479 173.826,-22.2706"/>
<polygon fill="midnightblue" stroke="midnightblue" points="51.2572,-293.389 54.485,-303.48 58.2546,-293.578 51.2572,-293.389"/>
</g>
<!-- Node34 -->
<g id="node4" class="node"><title>Node34</title>
<g id="a_node4"><a xlink:href="../../de/dcb/classservices_1_1_connection_mbed_tls.html#a68236d63ecd3cacd23fd95bf9c17d70f" target="_top" xlink:title="services::ConnectionMbed\lTls::AckReceived">
<polygon fill="white" stroke="black" points="372,-546.5 372,-576.5 503,-576.5 503,-546.5 372,-546.5"/>
<text text-anchor="start" x="380" y="-564.5" font-family="Helvetica,sans-Serif" font-size="10.00">services::ConnectionMbed</text>
<text text-anchor="middle" x="437.5" y="-553.5" font-family="Helvetica,sans-Serif" font-size="10.00">Tls::AckReceived</text>
</a>
</g>
</g>
<!-- Node33&#45;&gt;Node34 -->
<g id="edge3" class="edge"><title>Node33&#45;&gt;Node34</title>
<path fill="none" stroke="midnightblue" d="M315.414,-561.5C334.013,-561.5 353.788,-561.5 371.847,-561.5"/>
<polygon fill="midnightblue" stroke="midnightblue" points="315.221,-558 305.221,-561.5 315.221,-565 315.221,-558"/>
</g>
<!-- Node36 -->
<g id="node6" class="node"><title>Node36</title>
<g id="a_node6"><a xlink:href="../../d7/dea/classinfra_1_1_bounded_deque_input_stream_reader.html#ae987011fb2d903568c0fbbb8e70f87d0" target="_top" xlink:title="infra::BoundedDequeInput\lStreamReader::Peek">
<polygon fill="white" stroke="black" points="373.5,-497.5 373.5,-527.5 501.5,-527.5 501.5,-497.5 373.5,-497.5"/>
<text text-anchor="start" x="381.5" y="-515.5" font-family="Helvetica,sans-Serif" font-size="10.00">infra::BoundedDequeInput</text>
<text text-anchor="middle" x="437.5" y="-504.5" font-family="Helvetica,sans-Serif" font-size="10.00">StreamReader::Peek</text>
</a>
</g>
</g>
<!-- Node35&#45;&gt;Node36 -->
<g id="edge5" class="edge"><title>Node35&#45;&gt;Node36</title>
<path fill="none" stroke="midnightblue" d="M313.676,-512.5C333.236,-512.5 354.209,-512.5 373.188,-512.5"/>
<polygon fill="midnightblue" stroke="midnightblue" points="313.595,-509 303.595,-512.5 313.594,-516 313.595,-509"/>
</g>
<!-- Node44 -->
<g id="node14" class="node"><title>Node44</title>
<g id="a_node14"><a xlink:href="../../de/d8b/classservices_1_1_connection_bsd.html#ae7929b686931d7def6a1d13821958d0a" target="_top" xlink:title="services::ConnectionBsd\l::TrySend">
<polygon fill="white" stroke="black" points="375.5,-98.5 375.5,-128.5 499.5,-128.5 499.5,-98.5 375.5,-98.5"/>
<text text-anchor="start" x="383.5" y="-116.5" font-family="Helvetica,sans-Serif" font-size="10.00">services::ConnectionBsd</text>
<text text-anchor="middle" x="437.5" y="-105.5" font-family="Helvetica,sans-Serif" font-size="10.00">::TrySend</text>
</a>
</g>
</g>
<!-- Node43&#45;&gt;Node44 -->
<g id="edge13" class="edge"><title>Node43&#45;&gt;Node44</title>
<path fill="none" stroke="midnightblue" d="M311.79,-113.5C332.648,-113.5 355.254,-113.5 375.418,-113.5"/>
<polygon fill="midnightblue" stroke="midnightblue" points="311.709,-110 301.709,-113.5 311.709,-117 311.709,-110"/>
</g>
<!-- Node46 -->
<g id="node16" class="node"><title>Node46</title>
<g id="a_node16"><a xlink:href="../../db/d8b/classservices_1_1_connection_win.html#aad7f5b3d01110daf5b57e1c6ad734f40" target="_top" xlink:title="services::ConnectionWin\l::TrySend">
<polygon fill="white" stroke="black" points="375.5,-49.5 375.5,-79.5 499.5,-79.5 499.5,-49.5 375.5,-49.5"/>
<text text-anchor="start" x="383.5" y="-67.5" font-family="Helvetica,sans-Serif" font-size="10.00">services::ConnectionWin</text>
<text text-anchor="middle" x="437.5" y="-56.5" font-family="Helvetica,sans-Serif" font-size="10.00">::TrySend</text>
</a>
</g>
</g>
<!-- Node45&#45;&gt;Node46 -->
<g id="edge15" class="edge"><title>Node45&#45;&gt;Node46</title>
<path fill="none" stroke="midnightblue" d="M311.79,-64.5C332.648,-64.5 355.254,-64.5 375.418,-64.5"/>
<polygon fill="midnightblue" stroke="midnightblue" points="311.709,-61.0001 301.709,-64.5 311.709,-68.0001 311.709,-61.0001"/>
</g>
<!-- Node48 -->
<g id="node18" class="node"><title>Node48</title>
<g id="a_node18"><a xlink:href="../../de/dcb/classservices_1_1_connection_mbed_tls.html#a5a3ba98e94df8c89d1f597e3d8eb3d89" target="_top" xlink:title="services::ConnectionMbed\lTls::SendStreamAvailable">
<polygon fill="white" stroke="black" points="372,-0.5 372,-30.5 503,-30.5 503,-0.5 372,-0.5"/>
<text text-anchor="start" x="380" y="-18.5" font-family="Helvetica,sans-Serif" font-size="10.00">services::ConnectionMbed</text>
<text text-anchor="middle" x="437.5" y="-7.5" font-family="Helvetica,sans-Serif" font-size="10.00">Tls::SendStreamAvailable</text>
</a>
</g>
</g>
<!-- Node47&#45;&gt;Node48 -->
<g id="edge17" class="edge"><title>Node47&#45;&gt;Node48</title>
<path fill="none" stroke="midnightblue" d="M315.414,-15.5C334.013,-15.5 353.788,-15.5 371.847,-15.5"/>
<polygon fill="midnightblue" stroke="midnightblue" points="315.221,-12.0001 305.221,-15.5 315.221,-19.0001 315.221,-12.0001"/>
</g>
</g>
</svg>
        <g id="navigator" transform="translate(0 0)" fill="#404254">
                <rect fill="#f2f5e9" fill-opacity="0.5" stroke="#606060" stroke-width=".5" x="0" y="0" width="60" height="60"/>
                <use id="zoomplus" xlink:href="#zoomPlus" x="17" y="9" onmousedown="handleZoom(evt,'in')"/>
                <use id="zoomminus" xlink:href="#zoomMin" x="42" y="9" onmousedown="handleZoom(evt,'out')"/>
                <use id="reset" xlink:href="#resetDef" x="30" y="36" onmousedown="handleReset()"/>
                <g id="arrowUp" xlink:href="#dirArrow" transform="translate(30 24)" onmousedown="handlePan(0,-1)">
                  <use xlink:href="#rim" fill="#404040">
                        <set attributeName="fill" to="#808080" begin="arrowUp.mouseover" end="arrowUp.mouseout"/>
                  </use>
                  <path fill="none" stroke="white" stroke-width="1.5" d="M0,-3.0v7 M-2.5,-0.5L0,-3.0L2.5,-0.5"/>
                </g>
                <g id="arrowRight" xlink:href="#dirArrow" transform="rotate(90) translate(36 -43)" onmousedown="handlePan(1,0)">
                  <use xlink:href="#rim" fill="#404040">
                        <set attributeName="fill" to="#808080" begin="arrowRight.mouseover" end="arrowRight.mouseout"/>
                  </use>
                  <path fill="none" stroke="white" stroke-width="1.5" d="M0,-3.0v7 M-2.5,-0.5L0,-3.0L2.5,-0.5"/>
                </g>
                <g id="arrowDown" xlink:href="#dirArrow" transform="rotate(180) translate(-30 -48)" onmousedown="handlePan(0,1)">
                  <use xlink:href="#rim" fill="#404040">
                        <set attributeName="fill" to="#808080" begin="arrowDown.mouseover" end="arrowDown.mouseout"/>
                  </use>
                  <path fill="none" stroke="white" stroke-width="1.5" d="M0,-3.0v7 M-2.5,-0.5L0,-3.0L2.5,-0.5"/>
                </g>
                <g id="arrowLeft" xlink:href="#dirArrow" transform="rotate(270) translate(-36 17)" onmousedown="handlePan(-1,0)">
                  <use xlink:href="#rim" fill="#404040">
                        <set attributeName="fill" to="#808080" begin="arrowLeft.mouseover" end="arrowLeft.mouseout"/>
                  </use>
                  <path fill="none" stroke="white" stroke-width="1.5" d="M0,-3.0v7 M-2.5,-0.5L0,-3.0L2.5,-0.5"/>
                </g>
        </g>
        <svg viewBox="0 0 15 15" width="100%" height="30px" preserveAspectRatio="xMaxYMin meet">
         <g id="arrow_out" transform="scale(0.3 0.3)">
          <a xlink:href="classinfra_1_1_bounded_deque_a11e8b6093e259d16920cdcd2b83999c4_icgraph_org.svg" target="_base">
           <rect id="button" ry="5" rx="5" y="6" x="6" height="38" width="38"
                fill="#f2f5e9" fill-opacity="0.5" stroke="#606060" stroke-width="1.0"/>
           <path id="arrow"
             d="M 11.500037,31.436501 C 11.940474,20.09759 22.043105,11.32322 32.158766,21.979434 L 37.068811,17.246167 C 37.068811,17.246167 37.088388,32 37.088388,32 L 22.160133,31.978069 C 22.160133,31.978069 26.997745,27.140456 26.997745,27.140456 C 18.528582,18.264221 13.291696,25.230495 11.500037,31.436501 z"
             style="fill:#404040;"/>
          </a>
         </g>
        </svg>
</svg>
