<?xml version="1.0" encoding="UTF-8" standalone="no"?>
<!DOCTYPE svg PUBLIC "-//W3C//DTD SVG 1.1//EN"
 "http://www.w3.org/Graphics/SVG/1.1/DTD/svg11.dtd">
<!-- Generated by graphviz version 2.38.0 (20140413.2041)
 -->
<!-- Title: hal::LowPowerSpiMaster Pages: 1 -->
<svg width="384pt" height="173pt"
 viewBox="0.00 0.00 384.00 173.00" xmlns="http://www.w3.org/2000/svg" xmlns:xlink="http://www.w3.org/1999/xlink">
<g id="graph0" class="graph" transform="scale(1 1) rotate(0) translate(4 169)">
<title>hal::LowPowerSpiMaster</title>
<polygon fill="white" stroke="none" points="-4,4 -4,-169 380,-169 380,4 -4,4"/>
<!-- Node2 -->
<g id="node1" class="node"><title>Node2</title>
<polygon fill="#bfbfbf" stroke="black" points="61,-0.5 61,-19.5 185,-19.5 185,-0.5 61,-0.5"/>
<text text-anchor="middle" x="123" y="-7.5" font-family="Helvetica,sans-Serif" font-size="10.00">hal::LowPowerSpiMaster</text>
</g>
<!-- Node3 -->
<g id="node2" class="node"><title>Node3</title>
<g id="a_node2"><a xlink:href="../../dd/da3/classhal_1_1_spi_master.html" target="_top" xlink:title="hal::SpiMaster">
<polygon fill="white" stroke="black" points="0,-73 0,-92 80,-92 80,-73 0,-73"/>
<text text-anchor="middle" x="40" y="-80" font-family="Helvetica,sans-Serif" font-size="10.00">hal::SpiMaster</text>
</a>
</g>
</g>
<!-- Node3&#45;&gt;Node2 -->
<g id="edge1" class="edge"><title>Node3&#45;&gt;Node2</title>
<path fill="none" stroke="midnightblue" d="M47.2214,-63.5484C51.3923,-54.9521 57.3424,-45.0263 65,-38 73.8387,-29.89 85.5425,-23.8174 96.1209,-19.5065"/>
<polygon fill="midnightblue" stroke="midnightblue" points="43.9846,-62.2141 43.1467,-72.7757 50.3881,-65.0418 43.9846,-62.2141"/>
</g>
<!-- Node3&#45;&gt;Node2 -->
<g id="edge3" class="edge"><title>Node3&#45;&gt;Node2</title>
<path fill="none" stroke="#9a32cd" stroke-dasharray="5,2" d="M56.5866,-65.8744C65.7023,-57.4391 77.3014,-46.9505 88,-38 95.6519,-31.5984 104.558,-24.7358 111.471,-19.5313"/>
<polygon fill="#9a32cd" stroke="#9a32cd" points="53.936,-63.5605 49.0103,-72.9408 58.7105,-68.6795 53.936,-63.5605"/>
<text text-anchor="middle" x="111" y="-41" font-family="Helvetica,sans-Serif" font-size="10.00"> spiMaster</text>
</g>
<!-- Node4 -->
<g id="node3" class="node"><title>Node4</title>
<g id="a_node3"><a xlink:href="../../d5/d33/classinfra_1_1_auto_reset_function.html" target="_top" xlink:title="infra::AutoResetFunction\l\&lt; void()\&gt;">
<polygon fill="white" stroke="black" points="98,-67.5 98,-97.5 222,-97.5 222,-67.5 98,-67.5"/>
<text text-anchor="start" x="106" y="-85.5" font-family="Helvetica,sans-Serif" font-size="10.00">infra::AutoResetFunction</text>
<text text-anchor="middle" x="160" y="-74.5" font-family="Helvetica,sans-Serif" font-size="10.00">&lt; void()&gt;</text>
</a>
</g>
</g>
<!-- Node4&#45;&gt;Node2 -->
<g id="edge2" class="edge"><title>Node4&#45;&gt;Node2</title>
<path fill="none" stroke="#9a32cd" stroke-dasharray="5,2" d="M147.795,-58.2443C140.907,-45.1198 132.697,-29.4765 127.667,-19.8932"/>
<polygon fill="#9a32cd" stroke="#9a32cd" points="144.766,-60.0051 152.512,-67.2333 150.964,-56.7521 144.766,-60.0051"/>
<text text-anchor="middle" x="160.5" y="-41" font-family="Helvetica,sans-Serif" font-size="10.00"> onDone</text>
</g>
<!-- Node5 -->
<g id="node4" class="node"><title>Node5</title>
<g id="a_node4"><a xlink:href="../../d3/d8e/classinfra_1_1_main_clock_reference.html" target="_top" xlink:title="infra::MainClockReference">
<polygon fill="white" stroke="black" points="240,-73 240,-92 370,-92 370,-73 240,-73"/>
<text text-anchor="middle" x="305" y="-80" font-family="Helvetica,sans-Serif" font-size="10.00">infra::MainClockReference</text>
</a>
</g>
</g>
<!-- Node5&#45;&gt;Node2 -->
<g id="edge4" class="edge"><title>Node5&#45;&gt;Node2</title>
<path fill="none" stroke="#9a32cd" stroke-dasharray="5,2" d="M273.338,-69.2354C236.621,-55.0124 177.051,-31.9374 145.031,-19.5341"/>
<polygon fill="#9a32cd" stroke="#9a32cd" points="272.457,-72.6476 283.047,-72.9961 274.986,-66.1202 272.457,-72.6476"/>
<text text-anchor="middle" x="243.5" y="-41" font-family="Helvetica,sans-Serif" font-size="10.00"> mainClock</text>
</g>
<!-- Node6 -->
<g id="node5" class="node"><title>Node6</title>
<polygon fill="white" stroke="#bfbfbf" points="256,-145.5 256,-164.5 354,-164.5 354,-145.5 256,-145.5"/>
<text text-anchor="middle" x="305" y="-152.5" font-family="Helvetica,sans-Serif" font-size="10.00">atomic&lt; uint32_t &gt;</text>
</g>
<!-- Node6&#45;&gt;Node5 -->
<g id="edge5" class="edge"><title>Node6&#45;&gt;Node5</title>
<path fill="none" stroke="#9a32cd" stroke-dasharray="5,2" d="M305,-134.942C305,-121.03 305,-102.82 305,-92.2154"/>
<polygon fill="#9a32cd" stroke="#9a32cd" points="301.5,-135.355 305,-145.355 308.5,-135.355 301.5,-135.355"/>
<text text-anchor="middle" x="340.5" y="-119" font-family="Helvetica,sans-Serif" font-size="10.00"> numReferenced</text>
</g>
</g>
</svg>
