<?xml version="1.0" encoding="UTF-8" standalone="no"?>
<!DOCTYPE svg PUBLIC "-//W3C//DTD SVG 1.1//EN"
 "http://www.w3.org/Graphics/SVG/1.1/DTD/svg11.dtd">
<!-- Generated by graphviz version 2.38.0 (20140413.2041)
 -->
<!-- Title: infra::Tokenizer::Token Pages: 1 -->
<!--zoomable 198 -->
<svg id="main" version="1.1" xmlns="http://www.w3.org/2000/svg" xmlns:xlink="http://www.w3.org/1999/xlink" xml:space="preserve" onload="init(evt)">
<style type="text/css"><![CDATA[
.edge:hover path { stroke: red; }
.edge:hover polygon { stroke: red; fill: red; }
]]></style>
<script type="text/javascript"><![CDATA[
var edges = document.getElementsByTagName('g');
if (edges && edges.length) {
  for (var i=0;i<edges.length;i++) {
    if (edges[i].id.substr(0,4)=='edge') {
      edges[i].setAttribute('class','edge');
    }
  }
}
]]></script>
        <defs>
                <circle id="rim" cx="0" cy="0" r="7"/>
                <circle id="rim2" cx="0" cy="0" r="3.5"/>
                <g id="zoomPlus">
                        <use xlink:href="#rim" fill="#404040">
                                <set attributeName="fill" to="#808080" begin="zoomplus.mouseover" end="zoomplus.mouseout"/>
                        </use>
                        <path d="M-4,0h8M0,-4v8" fill="none" stroke="white" stroke-width="1.5" pointer-events="none"/>
                </g>
                <g id="zoomMin">
                        <use xlink:href="#rim" fill="#404040">
                                <set attributeName="fill" to="#808080" begin="zoomminus.mouseover" end="zoomminus.mouseout"/>
                        </use>
                        <path d="M-4,0h8" fill="none" stroke="white" stroke-width="1.5" pointer-events="none"/>
                </g>
                <g id="dirArrow">
                        <path fill="none" stroke="white" stroke-width="1.5" d="M0,-3.0v7 M-2.5,-0.5L0,-3.0L2.5,-0.5"/>
                </g>
               <g id="resetDef">
                       <use xlink:href="#rim2" fill="#404040">
                               <set attributeName="fill" to="#808080" begin="reset.mouseover" end="reset.mouseout"/>
                       </use>
               </g>
        </defs>

<script type="text/javascript">
var viewWidth = 527;
var viewHeight = 198;
var sectionId = 'dynsection-10';
</script>
<script xlink:href="../../svgpan.js"/>
<svg id="graph" class="graph">
<g id="viewport">
<title>infra::Tokenizer::Token</title>
<polygon fill="white" stroke="none" points="-4,4 -4,-194 523,-194 523,4 -4,4"/>
<!-- Node59 -->
<g id="node1" class="node"><title>Node59</title>
<polygon fill="#bfbfbf" stroke="black" points="0,-88 0,-107 115,-107 115,-88 0,-88"/>
<text text-anchor="middle" x="57.5" y="-95" font-family="Helvetica,sans-Serif" font-size="10.00">infra::Tokenizer::Token</text>
</g>
<!-- Node60 -->
<g id="node2" class="node"><title>Node60</title>
<g id="a_node2"><a xlink:href="../../d2/d29/classservices_1_1_http_request_parser_impl.html#ac4dd3a05dbd4289b4f12f85bd444f0d5" target="_top" xlink:title="services::HttpRequestParser\lImpl::FindPath">
<polygon fill="white" stroke="black" points="176.5,-159.5 176.5,-189.5 316.5,-189.5 316.5,-159.5 176.5,-159.5"/>
<text text-anchor="start" x="184.5" y="-177.5" font-family="Helvetica,sans-Serif" font-size="10.00">services::HttpRequestParser</text>
<text text-anchor="middle" x="246.5" y="-166.5" font-family="Helvetica,sans-Serif" font-size="10.00">Impl::FindPath</text>
</a>
</g>
</g>
<!-- Node59&#45;&gt;Node60 -->
<g id="edge1" class="edge"><title>Node59&#45;&gt;Node60</title>
<path fill="none" stroke="midnightblue" d="M81.0089,-112.72C99.2167,-124.449 125.871,-140.331 151,-150.5 159.238,-153.833 168.071,-156.809 176.91,-159.433"/>
<polygon fill="midnightblue" stroke="midnightblue" points="82.592,-109.573 72.31,-107.017 78.7542,-115.427 82.592,-109.573"/>
</g>
<!-- Node62 -->
<g id="node4" class="node"><title>Node62</title>
<g id="a_node4"><a xlink:href="../../d2/d29/classservices_1_1_http_request_parser_impl.html#a9eeee4c3c375323c0bc2b6a80157aa9e" target="_top" xlink:title="services::HttpRequestParser\lImpl::FindVerb">
<polygon fill="white" stroke="black" points="176.5,-110.5 176.5,-140.5 316.5,-140.5 316.5,-110.5 176.5,-110.5"/>
<text text-anchor="start" x="184.5" y="-128.5" font-family="Helvetica,sans-Serif" font-size="10.00">services::HttpRequestParser</text>
<text text-anchor="middle" x="246.5" y="-117.5" font-family="Helvetica,sans-Serif" font-size="10.00">Impl::FindVerb</text>
</a>
</g>
</g>
<!-- Node59&#45;&gt;Node62 -->
<g id="edge3" class="edge"><title>Node59&#45;&gt;Node62</title>
<path fill="none" stroke="midnightblue" d="M125.235,-107.492C141.776,-109.969 159.538,-112.629 176.199,-115.123"/>
<polygon fill="midnightblue" stroke="midnightblue" points="125.522,-103.996 115.114,-105.977 124.485,-110.919 125.522,-103.996"/>
</g>
<!-- Node63 -->
<g id="node5" class="node"><title>Node63</title>
<g id="a_node5"><a xlink:href="../../d1/d68/classservices_1_1_http_client_impl_1_1_http_response_parser.html#ab86e0af86e056eae73398d07d0460d93" target="_top" xlink:title="services::HttpClientImpl\l::HttpResponseParser::HeaderFrom\lString">
<polygon fill="white" stroke="black" points="160.5,-50 160.5,-91 332.5,-91 332.5,-50 160.5,-50"/>
<text text-anchor="start" x="168.5" y="-79" font-family="Helvetica,sans-Serif" font-size="10.00">services::HttpClientImpl</text>
<text text-anchor="start" x="168.5" y="-68" font-family="Helvetica,sans-Serif" font-size="10.00">::HttpResponseParser::HeaderFrom</text>
<text text-anchor="middle" x="246.5" y="-57" font-family="Helvetica,sans-Serif" font-size="10.00">String</text>
</a>
</g>
</g>
<!-- Node59&#45;&gt;Node63 -->
<g id="edge5" class="edge"><title>Node59&#45;&gt;Node63</title>
<path fill="none" stroke="midnightblue" d="M125.023,-87.8951C136.495,-86.2388 148.559,-84.4969 160.44,-82.7814"/>
<polygon fill="midnightblue" stroke="midnightblue" points="124.511,-84.4326 115.114,-89.3258 125.511,-91.3608 124.511,-84.4326"/>
</g>
<!-- Node64 -->
<g id="node6" class="node"><title>Node64</title>
<g id="a_node6"><a xlink:href="../../d1/d68/classservices_1_1_http_client_impl_1_1_http_response_parser.html#a03728efaf9cbc991702311c178f460e9" target="_top" xlink:title="services::HttpClientImpl\l::HttpResponseParser::ParseStatusLine">
<polygon fill="white" stroke="black" points="151,-0.5 151,-30.5 342,-30.5 342,-0.5 151,-0.5"/>
<text text-anchor="start" x="159" y="-18.5" font-family="Helvetica,sans-Serif" font-size="10.00">services::HttpClientImpl</text>
<text text-anchor="middle" x="246.5" y="-7.5" font-family="Helvetica,sans-Serif" font-size="10.00">::HttpResponseParser::ParseStatusLine</text>
</a>
</g>
</g>
<!-- Node59&#45;&gt;Node64 -->
<g id="edge6" class="edge"><title>Node59&#45;&gt;Node64</title>
<path fill="none" stroke="midnightblue" d="M79.9257,-81.7667C98.0659,-69.0818 125.168,-51.5875 151,-40.5 159.733,-36.7516 169.167,-33.4468 178.578,-30.5709"/>
<polygon fill="midnightblue" stroke="midnightblue" points="77.4257,-79.2503 71.3106,-87.9023 81.4864,-84.952 77.4257,-79.2503"/>
</g>
<!-- Node61 -->
<g id="node3" class="node"><title>Node61</title>
<g id="a_node3"><a xlink:href="../../d2/d29/classservices_1_1_http_request_parser_impl.html#a0cbb30e51fa49af4b15ec76f087c2725" target="_top" xlink:title="services::HttpRequestParser\lImpl::HttpRequestParserImpl">
<polygon fill="white" stroke="black" points="378,-134.5 378,-164.5 519,-164.5 519,-134.5 378,-134.5"/>
<text text-anchor="start" x="386" y="-152.5" font-family="Helvetica,sans-Serif" font-size="10.00">services::HttpRequestParser</text>
<text text-anchor="middle" x="448.5" y="-141.5" font-family="Helvetica,sans-Serif" font-size="10.00">Impl::HttpRequestParserImpl</text>
</a>
</g>
</g>
<!-- Node60&#45;&gt;Node61 -->
<g id="edge2" class="edge"><title>Node60&#45;&gt;Node61</title>
<path fill="none" stroke="midnightblue" d="M326.937,-164.57C343.722,-162.472 361.314,-160.273 377.71,-158.224"/>
<polygon fill="midnightblue" stroke="midnightblue" points="326.097,-161.148 316.609,-165.861 326.966,-168.094 326.097,-161.148"/>
</g>
<!-- Node62&#45;&gt;Node61 -->
<g id="edge4" class="edge"><title>Node62&#45;&gt;Node61</title>
<path fill="none" stroke="midnightblue" d="M326.937,-135.032C343.722,-137.047 361.314,-139.158 377.71,-141.125"/>
<polygon fill="midnightblue" stroke="midnightblue" points="326.955,-131.51 316.609,-133.793 326.12,-138.46 326.955,-131.51"/>
</g>
</g>
</svg>
        <g id="navigator" transform="translate(0 0)" fill="#404254">
                <rect fill="#f2f5e9" fill-opacity="0.5" stroke="#606060" stroke-width=".5" x="0" y="0" width="60" height="60"/>
                <use id="zoomplus" xlink:href="#zoomPlus" x="17" y="9" onmousedown="handleZoom(evt,'in')"/>
                <use id="zoomminus" xlink:href="#zoomMin" x="42" y="9" onmousedown="handleZoom(evt,'out')"/>
                <use id="reset" xlink:href="#resetDef" x="30" y="36" onmousedown="handleReset()"/>
                <g id="arrowUp" xlink:href="#dirArrow" transform="translate(30 24)" onmousedown="handlePan(0,-1)">
                  <use xlink:href="#rim" fill="#404040">
                        <set attributeName="fill" to="#808080" begin="arrowUp.mouseover" end="arrowUp.mouseout"/>
                  </use>
                  <path fill="none" stroke="white" stroke-width="1.5" d="M0,-3.0v7 M-2.5,-0.5L0,-3.0L2.5,-0.5"/>
                </g>
                <g id="arrowRight" xlink:href="#dirArrow" transform="rotate(90) translate(36 -43)" onmousedown="handlePan(1,0)">
                  <use xlink:href="#rim" fill="#404040">
                        <set attributeName="fill" to="#808080" begin="arrowRight.mouseover" end="arrowRight.mouseout"/>
                  </use>
                  <path fill="none" stroke="white" stroke-width="1.5" d="M0,-3.0v7 M-2.5,-0.5L0,-3.0L2.5,-0.5"/>
                </g>
                <g id="arrowDown" xlink:href="#dirArrow" transform="rotate(180) translate(-30 -48)" onmousedown="handlePan(0,1)">
                  <use xlink:href="#rim" fill="#404040">
                        <set attributeName="fill" to="#808080" begin="arrowDown.mouseover" end="arrowDown.mouseout"/>
                  </use>
                  <path fill="none" stroke="white" stroke-width="1.5" d="M0,-3.0v7 M-2.5,-0.5L0,-3.0L2.5,-0.5"/>
                </g>
                <g id="arrowLeft" xlink:href="#dirArrow" transform="rotate(270) translate(-36 17)" onmousedown="handlePan(-1,0)">
                  <use xlink:href="#rim" fill="#404040">
                        <set attributeName="fill" to="#808080" begin="arrowLeft.mouseover" end="arrowLeft.mouseout"/>
                  </use>
                  <path fill="none" stroke="white" stroke-width="1.5" d="M0,-3.0v7 M-2.5,-0.5L0,-3.0L2.5,-0.5"/>
                </g>
        </g>
        <svg viewBox="0 0 15 15" width="100%" height="30px" preserveAspectRatio="xMaxYMin meet">
         <g id="arrow_out" transform="scale(0.3 0.3)">
          <a xlink:href="classinfra_1_1_tokenizer_a9fea0107788ee101b1718a3cf526af72_icgraph_org.svg" target="_base">
           <rect id="button" ry="5" rx="5" y="6" x="6" height="38" width="38"
                fill="#f2f5e9" fill-opacity="0.5" stroke="#606060" stroke-width="1.0"/>
           <path id="arrow"
             d="M 11.500037,31.436501 C 11.940474,20.09759 22.043105,11.32322 32.158766,21.979434 L 37.068811,17.246167 C 37.068811,17.246167 37.088388,32 37.088388,32 L 22.160133,31.978069 C 22.160133,31.978069 26.997745,27.140456 26.997745,27.140456 C 18.528582,18.264221 13.291696,25.230495 11.500037,31.436501 z"
             style="fill:#404040;"/>
          </a>
         </g>
        </svg>
</svg>
