<?xml version="1.0" encoding="UTF-8" standalone="no"?>
<!DOCTYPE svg PUBLIC "-//W3C//DTD SVG 1.1//EN"
 "http://www.w3.org/Graphics/SVG/1.1/DTD/svg11.dtd">
<!-- Generated by graphviz version 2.38.0 (20140413.2041)
 -->
<!-- Title: infra::Tokenizer::SkipTokens Pages: 1 -->
<svg width="500pt" height="61pt"
 viewBox="0.00 0.00 500.00 61.00" xmlns="http://www.w3.org/2000/svg" xmlns:xlink="http://www.w3.org/1999/xlink">
<g id="graph0" class="graph" transform="scale(1 1) rotate(0) translate(4 57)">
<title>infra::Tokenizer::SkipTokens</title>
<polygon fill="white" stroke="none" points="-4,4 -4,-57 496,-57 496,4 -4,4"/>
<!-- Node28 -->
<g id="node1" class="node"><title>Node28</title>
<polygon fill="#bfbfbf" stroke="black" points="0,-28 0,-47 140,-47 140,-28 0,-28"/>
<text text-anchor="middle" x="70" y="-35" font-family="Helvetica,sans-Serif" font-size="10.00">infra::Tokenizer::SkipTokens</text>
</g>
<!-- Node29 -->
<g id="node2" class="node"><title>Node29</title>
<g id="a_node2"><a xlink:href="../../d6/dbd/classinfra_1_1_tokenizer.html#a661288c16f8b46d0ab3d27530f6b9c13" target="_top" xlink:title="infra::Tokenizer::SkipConsecutive\lSeparators">
<polygon fill="white" stroke="black" points="331,-22.5 331,-52.5 492,-52.5 492,-22.5 331,-22.5"/>
<text text-anchor="start" x="339" y="-40.5" font-family="Helvetica,sans-Serif" font-size="10.00">infra::Tokenizer::SkipConsecutive</text>
<text text-anchor="middle" x="411.5" y="-29.5" font-family="Helvetica,sans-Serif" font-size="10.00">Separators</text>
</a>
</g>
</g>
<!-- Node28&#45;&gt;Node29 -->
<g id="edge1" class="edge"><title>Node28&#45;&gt;Node29</title>
<path fill="none" stroke="midnightblue" d="M140.182,-39.7573C152.126,-40.0667 164.421,-40.3346 176,-40.5 228.883,-41.2553 242.116,-41.1867 295,-40.5 303.361,-40.3914 312.062,-40.2387 320.771,-40.059"/>
<polygon fill="midnightblue" stroke="midnightblue" points="321.055,-43.5537 330.977,-39.8367 320.903,-36.5554 321.055,-43.5537"/>
</g>
<!-- Node30 -->
<g id="node3" class="node"><title>Node30</title>
<g id="a_node3"><a xlink:href="../../d6/dbd/classinfra_1_1_tokenizer.html#ac2a716e3917d2a5de009885dd9f6a1ce" target="_top" xlink:title="infra::Tokenizer::StartOf\lNextToken">
<polygon fill="white" stroke="black" points="176,-0.5 176,-30.5 295,-30.5 295,-0.5 176,-0.5"/>
<text text-anchor="start" x="184" y="-18.5" font-family="Helvetica,sans-Serif" font-size="10.00">infra::Tokenizer::StartOf</text>
<text text-anchor="middle" x="235.5" y="-7.5" font-family="Helvetica,sans-Serif" font-size="10.00">NextToken</text>
</a>
</g>
</g>
<!-- Node28&#45;&gt;Node30 -->
<g id="edge2" class="edge"><title>Node28&#45;&gt;Node30</title>
<path fill="none" stroke="midnightblue" d="M140.339,-28.17C148.754,-27.0377 157.349,-25.8812 165.755,-24.7501"/>
<polygon fill="midnightblue" stroke="midnightblue" points="166.447,-28.1886 175.891,-23.3862 165.514,-21.2511 166.447,-28.1886"/>
</g>
<!-- Node30&#45;&gt;Node29 -->
<g id="edge3" class="edge"><title>Node30&#45;&gt;Node29</title>
<path fill="none" stroke="midnightblue" d="M295.408,-22.9482C303.629,-23.9875 312.223,-25.0742 320.853,-26.1653"/>
<polygon fill="midnightblue" stroke="midnightblue" points="320.619,-29.6635 330.979,-27.4456 321.497,-22.7188 320.619,-29.6635"/>
</g>
</g>
</svg>
