<?xml version="1.0" encoding="UTF-8" standalone="no"?>
<!DOCTYPE svg PUBLIC "-//W3C//DTD SVG 1.1//EN"
 "http://www.w3.org/Graphics/SVG/1.1/DTD/svg11.dtd">
<!-- Generated by graphviz version 2.38.0 (20140413.2041)
 -->
<!-- Title: infra::ByteInputStream Pages: 1 -->
<svg width="678pt" height="88pt"
 viewBox="0.00 0.00 678.00 88.00" xmlns="http://www.w3.org/2000/svg" xmlns:xlink="http://www.w3.org/1999/xlink">
<g id="graph0" class="graph" transform="scale(1 1) rotate(0) translate(4 84)">
<title>infra::ByteInputStream</title>
<polygon fill="white" stroke="none" points="-4,4 -4,-84 674,-84 674,4 -4,4"/>
<!-- Node0 -->
<g id="node1" class="node"><title>Node0</title>
<polygon fill="#bfbfbf" stroke="black" points="557,-24.5 557,-43.5 670,-43.5 670,-24.5 557,-24.5"/>
<text text-anchor="middle" x="613.5" y="-31.5" font-family="Helvetica,sans-Serif" font-size="10.00">infra::ByteInputStream</text>
</g>
<!-- Node1 -->
<g id="node2" class="node"><title>Node1</title>
<g id="a_node2"><a xlink:href="../../d8/def/classinfra_1_1_data_input_stream_1_1_with_reader.html" target="_top" xlink:title="infra::DataInputStream\l::WithReader\&lt; ByteInputStream\lReader \&gt;">
<polygon fill="white" stroke="black" points="366,-13.5 366,-54.5 521,-54.5 521,-13.5 366,-13.5"/>
<text text-anchor="start" x="374" y="-42.5" font-family="Helvetica,sans-Serif" font-size="10.00">infra::DataInputStream</text>
<text text-anchor="start" x="374" y="-31.5" font-family="Helvetica,sans-Serif" font-size="10.00">::WithReader&lt; ByteInputStream</text>
<text text-anchor="middle" x="443.5" y="-20.5" font-family="Helvetica,sans-Serif" font-size="10.00">Reader &gt;</text>
</a>
</g>
</g>
<!-- Node1&#45;&gt;Node0 -->
<g id="edge1" class="edge"><title>Node1&#45;&gt;Node0</title>
<path fill="none" stroke="midnightblue" d="M531.228,-34C539.837,-34 548.408,-34 556.578,-34"/>
<polygon fill="midnightblue" stroke="midnightblue" points="531.126,-30.5001 521.126,-34 531.126,-37.5001 531.126,-30.5001"/>
</g>
<!-- Node2 -->
<g id="node3" class="node"><title>Node2</title>
<g id="a_node3"><a xlink:href="../../d9/d00/classinfra_1_1detail_1_1_storage_holder.html" target="_top" xlink:title="infra::detail::StorageHolder\l\&lt; ByteInputStreamReader,\l WithReader\&lt; ByteInputStreamReader \&gt; \&gt;">
<polygon fill="white" stroke="black" points="129,-38.5 129,-79.5 330,-79.5 330,-38.5 129,-38.5"/>
<text text-anchor="start" x="137" y="-67.5" font-family="Helvetica,sans-Serif" font-size="10.00">infra::detail::StorageHolder</text>
<text text-anchor="start" x="137" y="-56.5" font-family="Helvetica,sans-Serif" font-size="10.00">&lt; ByteInputStreamReader,</text>
<text text-anchor="middle" x="229.5" y="-45.5" font-family="Helvetica,sans-Serif" font-size="10.00"> WithReader&lt; ByteInputStreamReader &gt; &gt;</text>
</a>
</g>
</g>
<!-- Node2&#45;&gt;Node1 -->
<g id="edge2" class="edge"><title>Node2&#45;&gt;Node1</title>
<path fill="none" stroke="#8b1a1a" d="M340.362,-46.0446C348.938,-45.0333 357.48,-44.0259 365.764,-43.049"/>
<polygon fill="#8b1a1a" stroke="#8b1a1a" points="339.813,-42.5849 330.292,-47.232 340.633,-49.5367 339.813,-42.5849"/>
</g>
<!-- Node3 -->
<g id="node4" class="node"><title>Node3</title>
<g id="a_node4"><a xlink:href="../../d0/db4/classinfra_1_1_data_input_stream.html" target="_top" xlink:title="infra::DataInputStream">
<polygon fill="white" stroke="black" points="173,-0.5 173,-19.5 286,-19.5 286,-0.5 173,-0.5"/>
<text text-anchor="middle" x="229.5" y="-7.5" font-family="Helvetica,sans-Serif" font-size="10.00">infra::DataInputStream</text>
</a>
</g>
</g>
<!-- Node3&#45;&gt;Node1 -->
<g id="edge3" class="edge"><title>Node3&#45;&gt;Node1</title>
<path fill="none" stroke="midnightblue" d="M296.402,-17.4606C318.339,-19.944 342.963,-22.7316 365.654,-25.3005"/>
<polygon fill="midnightblue" stroke="midnightblue" points="296.531,-13.9529 286.201,-16.3057 295.743,-20.9085 296.531,-13.9529"/>
</g>
<!-- Node4 -->
<g id="node5" class="node"><title>Node4</title>
<g id="a_node5"><a xlink:href="../../db/dda/classinfra_1_1_input_stream.html" target="_top" xlink:title="infra::InputStream">
<polygon fill="white" stroke="black" points="0,-0.5 0,-19.5 93,-19.5 93,-0.5 0,-0.5"/>
<text text-anchor="middle" x="46.5" y="-7.5" font-family="Helvetica,sans-Serif" font-size="10.00">infra::InputStream</text>
</a>
</g>
</g>
<!-- Node4&#45;&gt;Node3 -->
<g id="edge4" class="edge"><title>Node4&#45;&gt;Node3</title>
<path fill="none" stroke="midnightblue" d="M103.391,-10C125.462,-10 150.767,-10 172.817,-10"/>
<polygon fill="midnightblue" stroke="midnightblue" points="103.174,-6.5001 93.1739,-10 103.174,-13.5001 103.174,-6.5001"/>
</g>
</g>
</svg>
