<?xml version="1.0" encoding="UTF-8" standalone="no"?>
<!DOCTYPE svg PUBLIC "-//W3C//DTD SVG 1.1//EN"
 "http://www.w3.org/Graphics/SVG/1.1/DTD/svg11.dtd">
<!-- Generated by graphviz version 2.38.0 (20140413.2041)
 -->
<!-- Title: infra::SavedMarkerStreamWriter::~SavedMarkerStreamWriter Pages: 1 -->
<svg width="707pt" height="181pt"
 viewBox="0.00 0.00 707.00 181.00" xmlns="http://www.w3.org/2000/svg" xmlns:xlink="http://www.w3.org/1999/xlink">
<g id="graph0" class="graph" transform="scale(1 1) rotate(0) translate(4 177)">
<title>infra::SavedMarkerStreamWriter::~SavedMarkerStreamWriter</title>
<polygon fill="white" stroke="none" points="-4,4 -4,-177 703,-177 703,4 -4,4"/>
<!-- Node2 -->
<g id="node1" class="node"><title>Node2</title>
<polygon fill="#bfbfbf" stroke="black" points="0,-49.5 0,-79.5 169,-79.5 169,-49.5 0,-49.5"/>
<text text-anchor="start" x="8" y="-67.5" font-family="Helvetica,sans-Serif" font-size="10.00">infra::SavedMarkerStream</text>
<text text-anchor="middle" x="84.5" y="-56.5" font-family="Helvetica,sans-Serif" font-size="10.00">Writer::~SavedMarkerStreamWriter</text>
</g>
<!-- Node3 -->
<g id="node2" class="node"><title>Node3</title>
<g id="a_node2"><a xlink:href="../../df/d15/classinfra_1_1_byte_output_stream_writer.html#aec5f3922c0892be680981c32e0255754" target="_top" xlink:title="infra::ByteOutputStreamWriter\l::Remaining">
<polygon fill="white" stroke="black" points="205,-98.5 205,-128.5 353,-128.5 353,-98.5 205,-98.5"/>
<text text-anchor="start" x="213" y="-116.5" font-family="Helvetica,sans-Serif" font-size="10.00">infra::ByteOutputStreamWriter</text>
<text text-anchor="middle" x="279" y="-105.5" font-family="Helvetica,sans-Serif" font-size="10.00">::Remaining</text>
</a>
</g>
</g>
<!-- Node2&#45;&gt;Node3 -->
<g id="edge1" class="edge"><title>Node2&#45;&gt;Node3</title>
<path fill="none" stroke="midnightblue" d="M144.565,-79.5346C164.982,-84.7318 188.038,-90.6006 209.17,-95.9796"/>
<polygon fill="midnightblue" stroke="midnightblue" points="208.493,-99.4188 219.047,-98.4938 210.22,-92.6351 208.493,-99.4188"/>
</g>
<!-- Node9 -->
<g id="node8" class="node"><title>Node9</title>
<g id="a_node8"><a xlink:href="../../de/dba/classinfra_1_1_stream_writer.html#a21bfe99aa3ce1f796fd2017a2a9ef808" target="_top" xlink:title="infra::StreamWriter\l::RestoreState">
<polygon fill="white" stroke="black" points="230,-49.5 230,-79.5 328,-79.5 328,-49.5 230,-49.5"/>
<text text-anchor="start" x="238" y="-67.5" font-family="Helvetica,sans-Serif" font-size="10.00">infra::StreamWriter</text>
<text text-anchor="middle" x="279" y="-56.5" font-family="Helvetica,sans-Serif" font-size="10.00">::RestoreState</text>
</a>
</g>
</g>
<!-- Node2&#45;&gt;Node9 -->
<g id="edge7" class="edge"><title>Node2&#45;&gt;Node9</title>
<path fill="none" stroke="midnightblue" d="M169.093,-64.5C186.156,-64.5 203.759,-64.5 219.707,-64.5"/>
<polygon fill="midnightblue" stroke="midnightblue" points="219.925,-68.0001 229.925,-64.5 219.925,-61.0001 219.925,-68.0001"/>
</g>
<!-- Node10 -->
<g id="node9" class="node"><title>Node10</title>
<g id="a_node9"><a xlink:href="../../d6/d97/classinfra_1_1_output_stream.html#a84a64f5c0f2237260bbc1aa42f39eacc" target="_top" xlink:title="infra::OutputStream\l::Writer">
<polygon fill="white" stroke="black" points="228.5,-0.5 228.5,-30.5 329.5,-30.5 329.5,-0.5 228.5,-0.5"/>
<text text-anchor="start" x="236.5" y="-18.5" font-family="Helvetica,sans-Serif" font-size="10.00">infra::OutputStream</text>
<text text-anchor="middle" x="279" y="-7.5" font-family="Helvetica,sans-Serif" font-size="10.00">::Writer</text>
</a>
</g>
</g>
<!-- Node2&#45;&gt;Node10 -->
<g id="edge8" class="edge"><title>Node2&#45;&gt;Node10</title>
<path fill="none" stroke="midnightblue" d="M144.565,-49.4654C168.064,-43.4837 195.058,-36.6126 218.591,-30.6223"/>
<polygon fill="midnightblue" stroke="midnightblue" points="219.617,-33.9728 228.445,-28.1141 217.89,-27.1891 219.617,-33.9728"/>
</g>
<!-- Node4 -->
<g id="node3" class="node"><title>Node4</title>
<g id="a_node3"><a xlink:href="../../d0/d6d/classinfra_1_1_memory_range.html#a7a83ceae17802af5ecebfb9557912ece" target="_top" xlink:title="infra::MemoryRange\l::begin">
<polygon fill="white" stroke="black" points="399.5,-142.5 399.5,-172.5 503.5,-172.5 503.5,-142.5 399.5,-142.5"/>
<text text-anchor="start" x="407.5" y="-160.5" font-family="Helvetica,sans-Serif" font-size="10.00">infra::MemoryRange</text>
<text text-anchor="middle" x="451.5" y="-149.5" font-family="Helvetica,sans-Serif" font-size="10.00">::begin</text>
</a>
</g>
</g>
<!-- Node3&#45;&gt;Node4 -->
<g id="edge2" class="edge"><title>Node3&#45;&gt;Node4</title>
<path fill="none" stroke="midnightblue" d="M338.2,-128.519C354.812,-132.806 372.953,-137.488 389.716,-141.814"/>
<polygon fill="midnightblue" stroke="midnightblue" points="388.847,-145.204 399.404,-144.314 390.596,-138.426 388.847,-145.204"/>
</g>
<!-- Node5 -->
<g id="node4" class="node"><title>Node5</title>
<g id="a_node4"><a xlink:href="../../d0/d6d/classinfra_1_1_memory_range.html#a1be4daa094045e4e3bff3b2748646c12" target="_top" xlink:title="infra::MemoryRange::end">
<polygon fill="white" stroke="black" points="389,-104 389,-123 514,-123 514,-104 389,-104"/>
<text text-anchor="middle" x="451.5" y="-111" font-family="Helvetica,sans-Serif" font-size="10.00">infra::MemoryRange::end</text>
</a>
</g>
</g>
<!-- Node3&#45;&gt;Node5 -->
<g id="edge3" class="edge"><title>Node3&#45;&gt;Node5</title>
<path fill="none" stroke="midnightblue" d="M353.297,-113.5C361.703,-113.5 370.267,-113.5 378.653,-113.5"/>
<polygon fill="midnightblue" stroke="midnightblue" points="378.772,-117 388.772,-113.5 378.772,-110 378.772,-117"/>
</g>
<!-- Node6 -->
<g id="node5" class="node"><title>Node6</title>
<g id="a_node5"><a xlink:href="../../d0/de3/namespaceinfra.html#afe38b7d4318537de2f28b244211c4275" target="_top" xlink:title="infra::MakeRange">
<polygon fill="white" stroke="black" points="405.5,-66 405.5,-85 497.5,-85 497.5,-66 405.5,-66"/>
<text text-anchor="middle" x="451.5" y="-73" font-family="Helvetica,sans-Serif" font-size="10.00">infra::MakeRange</text>
</a>
</g>
</g>
<!-- Node3&#45;&gt;Node6 -->
<g id="edge4" class="edge"><title>Node3&#45;&gt;Node6</title>
<path fill="none" stroke="midnightblue" d="M347.386,-98.4814C364.108,-94.7545 381.79,-90.8136 397.7,-87.2678"/>
<polygon fill="midnightblue" stroke="midnightblue" points="398.872,-90.5925 407.871,-85.0009 397.349,-83.7602 398.872,-90.5925"/>
</g>
<!-- Node7 -->
<g id="node6" class="node"><title>Node7</title>
<g id="a_node6"><a xlink:href="../../d1/d2a/classinfra_1_1_bounded_string_base.html#aef23e4250cad2fdc69ccc39f68734233" target="_top" xlink:title="infra::BoundedStringBase\l::begin">
<polygon fill="white" stroke="black" points="561,-82.5 561,-112.5 688,-112.5 688,-82.5 561,-82.5"/>
<text text-anchor="start" x="569" y="-100.5" font-family="Helvetica,sans-Serif" font-size="10.00">infra::BoundedStringBase</text>
<text text-anchor="middle" x="624.5" y="-89.5" font-family="Helvetica,sans-Serif" font-size="10.00">::begin</text>
</a>
</g>
</g>
<!-- Node6&#45;&gt;Node7 -->
<g id="edge5" class="edge"><title>Node6&#45;&gt;Node7</title>
<path fill="none" stroke="midnightblue" d="M497.876,-81.3378C514.08,-83.4226 532.771,-85.8272 550.7,-88.1339"/>
<polygon fill="midnightblue" stroke="midnightblue" points="550.486,-91.6351 560.851,-89.4399 551.379,-84.6924 550.486,-91.6351"/>
</g>
<!-- Node8 -->
<g id="node7" class="node"><title>Node8</title>
<g id="a_node7"><a xlink:href="../../d1/d2a/classinfra_1_1_bounded_string_base.html#af5021f1ea3898146d0a55c2895f07dbf" target="_top" xlink:title="infra::BoundedStringBase::end">
<polygon fill="white" stroke="black" points="550,-44 550,-63 699,-63 699,-44 550,-44"/>
<text text-anchor="middle" x="624.5" y="-51" font-family="Helvetica,sans-Serif" font-size="10.00">infra::BoundedStringBase::end</text>
</a>
</g>
</g>
<!-- Node6&#45;&gt;Node8 -->
<g id="edge6" class="edge"><title>Node6&#45;&gt;Node8</title>
<path fill="none" stroke="midnightblue" d="M497.876,-69.6622C510.819,-67.997 525.349,-66.1276 539.809,-64.2672"/>
<polygon fill="midnightblue" stroke="midnightblue" points="540.318,-67.7307 549.789,-62.9832 539.424,-60.788 540.318,-67.7307"/>
</g>
</g>
</svg>
