<?xml version="1.0" encoding="UTF-8" standalone="no"?>
<!DOCTYPE svg PUBLIC "-//W3C//DTD SVG 1.1//EN"
 "http://www.w3.org/Graphics/SVG/1.1/DTD/svg11.dtd">
<!-- Generated by graphviz version 2.38.0 (20140413.2041)
 -->
<!-- Title: services::NameResolverCache::ActiveLookup Pages: 1 -->
<!--zoomable 398 -->
<svg id="main" version="1.1" xmlns="http://www.w3.org/2000/svg" xmlns:xlink="http://www.w3.org/1999/xlink" xml:space="preserve" onload="init(evt)">
<style type="text/css"><![CDATA[
.edge:hover path { stroke: red; }
.edge:hover polygon { stroke: red; fill: red; }
]]></style>
<script type="text/javascript"><![CDATA[
var edges = document.getElementsByTagName('g');
if (edges && edges.length) {
  for (var i=0;i<edges.length;i++) {
    if (edges[i].id.substr(0,4)=='edge') {
      edges[i].setAttribute('class','edge');
    }
  }
}
]]></script>
        <defs>
                <circle id="rim" cx="0" cy="0" r="7"/>
                <circle id="rim2" cx="0" cy="0" r="3.5"/>
                <g id="zoomPlus">
                        <use xlink:href="#rim" fill="#404040">
                                <set attributeName="fill" to="#808080" begin="zoomplus.mouseover" end="zoomplus.mouseout"/>
                        </use>
                        <path d="M-4,0h8M0,-4v8" fill="none" stroke="white" stroke-width="1.5" pointer-events="none"/>
                </g>
                <g id="zoomMin">
                        <use xlink:href="#rim" fill="#404040">
                                <set attributeName="fill" to="#808080" begin="zoomminus.mouseover" end="zoomminus.mouseout"/>
                        </use>
                        <path d="M-4,0h8" fill="none" stroke="white" stroke-width="1.5" pointer-events="none"/>
                </g>
                <g id="dirArrow">
                        <path fill="none" stroke="white" stroke-width="1.5" d="M0,-3.0v7 M-2.5,-0.5L0,-3.0L2.5,-0.5"/>
                </g>
               <g id="resetDef">
                       <use xlink:href="#rim2" fill="#404040">
                               <set attributeName="fill" to="#808080" begin="reset.mouseover" end="reset.mouseout"/>
                       </use>
               </g>
        </defs>

<script type="text/javascript">
var viewWidth = 1810;
var viewHeight = 398;
var sectionId = 'dynsection-1';
</script>
<script xlink:href="../../svgpan.js"/>
<svg id="graph" class="graph">
<g id="viewport">
<title>services::NameResolverCache::ActiveLookup</title>
<polygon fill="white" stroke="none" points="-4,4 -4,-393.5 1806,-393.5 1806,4 -4,4"/>
<!-- Node3 -->
<g id="node1" class="node"><title>Node3</title>
<polygon fill="#bfbfbf" stroke="black" points="1654,-242.5 1654,-272.5 1802,-272.5 1802,-242.5 1654,-242.5"/>
<text text-anchor="start" x="1662" y="-260.5" font-family="Helvetica,sans-Serif" font-size="10.00">services::NameResolverCache</text>
<text text-anchor="middle" x="1728" y="-249.5" font-family="Helvetica,sans-Serif" font-size="10.00">::ActiveLookup</text>
</g>
<!-- Node4 -->
<g id="node2" class="node"><title>Node4</title>
<g id="a_node2"><a xlink:href="../../df/d75/classservices_1_1_name_resolver_result.html" target="_top" xlink:title="services::NameResolverResult">
<polygon fill="white" stroke="black" points="1378,-281 1378,-300 1526,-300 1526,-281 1378,-281"/>
<text text-anchor="middle" x="1452" y="-288" font-family="Helvetica,sans-Serif" font-size="10.00">services::NameResolverResult</text>
</a>
</g>
</g>
<!-- Node4&#45;&gt;Node3 -->
<g id="edge1" class="edge"><title>Node4&#45;&gt;Node3</title>
<path fill="none" stroke="#8b1a1a" d="M1503.02,-278.844C1516.28,-276.086 1530.63,-273.399 1544,-271.5 1579.96,-266.392 1620.19,-263.057 1653.74,-260.929"/>
<polygon fill="#8b1a1a" stroke="#8b1a1a" points="1502.17,-275.445 1493.12,-280.954 1503.63,-282.292 1502.17,-275.445"/>
</g>
<!-- Node4&#45;&gt;Node3 -->
<g id="edge4" class="edge"><title>Node4&#45;&gt;Node3</title>
<path fill="none" stroke="#9a32cd" stroke-dasharray="5,2" d="M1536.02,-280.531C1567.35,-276.765 1603.32,-272.44 1636,-268.5 1641.85,-267.795 1647.9,-267.065 1653.99,-266.33"/>
<polygon fill="#9a32cd" stroke="#9a32cd" points="1535.53,-277.064 1526.02,-281.732 1536.37,-284.014 1535.53,-277.064"/>
<text text-anchor="middle" x="1590" y="-281.5" font-family="Helvetica,sans-Serif" font-size="10.00"> resolving</text>
</g>
<!-- Node5 -->
<g id="node3" class="node"><title>Node5</title>
<g id="a_node3"><a xlink:href="../../d7/da5/classinfra_1_1detail_1_1_intrusive_list_node.html" target="_top" xlink:title="infra::IntrusiveList\l\&lt; NameResolverResult\l \&gt;::NodeType">
<polygon fill="white" stroke="black" points="981,-324 981,-365 1097,-365 1097,-324 981,-324"/>
<text text-anchor="start" x="989" y="-353" font-family="Helvetica,sans-Serif" font-size="10.00">infra::IntrusiveList</text>
<text text-anchor="start" x="989" y="-342" font-family="Helvetica,sans-Serif" font-size="10.00">&lt; NameResolverResult</text>
<text text-anchor="middle" x="1039" y="-331" font-family="Helvetica,sans-Serif" font-size="10.00"> &gt;::NodeType</text>
</a>
</g>
</g>
<!-- Node5&#45;&gt;Node4 -->
<g id="edge2" class="edge"><title>Node5&#45;&gt;Node4</title>
<path fill="none" stroke="midnightblue" d="M1107.36,-335.649C1181.97,-325.848 1301.79,-310.104 1378.42,-300.036"/>
<polygon fill="midnightblue" stroke="midnightblue" points="1106.61,-332.219 1097.15,-336.992 1107.52,-339.159 1106.61,-332.219"/>
</g>
<!-- Node6 -->
<g id="node4" class="node"><title>Node6</title>
<polygon fill="white" stroke="#bfbfbf" points="542.5,-354.5 542.5,-384.5 638.5,-384.5 638.5,-354.5 542.5,-354.5"/>
<text text-anchor="start" x="550.5" y="-372.5" font-family="Helvetica,sans-Serif" font-size="10.00">IntrusiveListNode&lt;</text>
<text text-anchor="middle" x="590.5" y="-361.5" font-family="Helvetica,sans-Serif" font-size="10.00"> T &gt; *</text>
</g>
<!-- Node6&#45;&gt;Node5 -->
<g id="edge3" class="edge"><title>Node6&#45;&gt;Node5</title>
<path fill="none" stroke="#9a32cd" stroke-dasharray="5,2" d="M649.131,-368.006C722.224,-365.849 852.107,-361.139 963,-352.5 968.744,-352.053 974.73,-351.523 980.703,-350.952"/>
<polygon fill="#9a32cd" stroke="#9a32cd" points="648.662,-364.518 638.768,-368.306 648.865,-371.515 648.662,-364.518"/>
<text text-anchor="middle" x="723.5" y="-380.5" font-family="Helvetica,sans-Serif" font-size="10.00"> previous</text>
<text text-anchor="middle" x="723.5" y="-369.5" font-family="Helvetica,sans-Serif" font-size="10.00">next</text>
</g>
<!-- Node15 -->
<g id="node13" class="node"><title>Node15</title>
<g id="a_node13"><a xlink:href="../../d7/da5/classinfra_1_1detail_1_1_intrusive_list_node.html" target="_top" xlink:title="infra::detail::Intrusive\lListNode\&lt; T \&gt;">
<polygon fill="white" stroke="black" points="818,-312.5 818,-342.5 923,-342.5 923,-312.5 818,-312.5"/>
<text text-anchor="start" x="826" y="-330.5" font-family="Helvetica,sans-Serif" font-size="10.00">infra::detail::Intrusive</text>
<text text-anchor="middle" x="870.5" y="-319.5" font-family="Helvetica,sans-Serif" font-size="10.00">ListNode&lt; T &gt;</text>
</a>
</g>
</g>
<!-- Node6&#45;&gt;Node15 -->
<g id="edge14" class="edge"><title>Node6&#45;&gt;Node15</title>
<path fill="none" stroke="#9a32cd" stroke-dasharray="5,2" d="M643.675,-351.357C657.599,-347.151 672.741,-343.138 687,-340.5 730.728,-332.409 781.209,-329.279 817.979,-328.105"/>
<polygon fill="#9a32cd" stroke="#9a32cd" points="642.289,-348.123 633.782,-354.437 644.37,-354.806 642.289,-348.123"/>
<text text-anchor="middle" x="723.5" y="-354.5" font-family="Helvetica,sans-Serif" font-size="10.00"> previous</text>
<text text-anchor="middle" x="723.5" y="-343.5" font-family="Helvetica,sans-Serif" font-size="10.00">next</text>
</g>
<!-- Node7 -->
<g id="node5" class="node"><title>Node7</title>
<g id="a_node5"><a xlink:href="../../d0/d0e/classservices_1_1_name_resolver_cache.html" target="_top" xlink:title="services::NameResolverCache">
<polygon fill="white" stroke="black" points="1378,-141 1378,-160 1526,-160 1526,-141 1378,-141"/>
<text text-anchor="middle" x="1452" y="-148" font-family="Helvetica,sans-Serif" font-size="10.00">services::NameResolverCache</text>
</a>
</g>
</g>
<!-- Node7&#45;&gt;Node3 -->
<g id="edge5" class="edge"><title>Node7&#45;&gt;Node3</title>
<path fill="none" stroke="#9a32cd" stroke-dasharray="5,2" d="M1487.41,-163.939C1538.59,-183.924 1634.47,-221.366 1688.12,-242.316"/>
<polygon fill="#9a32cd" stroke="#9a32cd" points="1488.39,-160.562 1477.8,-160.184 1485.84,-167.082 1488.39,-160.562"/>
<text text-anchor="middle" x="1590" y="-223.5" font-family="Helvetica,sans-Serif" font-size="10.00"> nameResolverCache</text>
</g>
<!-- Node8 -->
<g id="node6" class="node"><title>Node8</title>
<g id="a_node6"><a xlink:href="../../d0/d69/classservices_1_1_name_resolver.html" target="_top" xlink:title="services::NameResolver">
<polygon fill="white" stroke="black" points="1138,-37 1138,-56 1258,-56 1258,-37 1138,-37"/>
<text text-anchor="middle" x="1198" y="-44" font-family="Helvetica,sans-Serif" font-size="10.00">services::NameResolver</text>
</a>
</g>
</g>
<!-- Node8&#45;&gt;Node7 -->
<g id="edge6" class="edge"><title>Node8&#45;&gt;Node7</title>
<path fill="none" stroke="midnightblue" d="M1268.29,-42.8874C1297.75,-43.8561 1331.74,-48.4177 1360,-61.5 1399.1,-79.6044 1431.44,-121.767 1444.62,-140.832"/>
<polygon fill="midnightblue" stroke="midnightblue" points="1268.14,-39.384 1258.08,-42.6866 1268.01,-46.3826 1268.14,-39.384"/>
</g>
<!-- Node8&#45;&gt;Node7 -->
<g id="edge18" class="edge"><title>Node8&#45;&gt;Node7</title>
<path fill="none" stroke="#9a32cd" stroke-dasharray="5,2" d="M1257.94,-58.498C1265.77,-60.5741 1273.63,-62.9104 1281,-65.5 1340.46,-86.4002 1405.83,-123.429 1435.19,-140.885"/>
<polygon fill="#9a32cd" stroke="#9a32cd" points="1258.62,-55.0618 1248.07,-56.0082 1256.91,-61.8489 1258.62,-55.0618"/>
<text text-anchor="middle" x="1329.5" y="-101.5" font-family="Helvetica,sans-Serif" font-size="10.00"> resolver</text>
</g>
<!-- Node9 -->
<g id="node7" class="node"><title>Node9</title>
<g id="a_node7"><a xlink:href="../../dc/de7/classinfra_1_1_bounded_vector.html" target="_top" xlink:title="infra::BoundedVector\l\&lt; services::NameResolverCache\l::CacheEntry \&gt;">
<polygon fill="white" stroke="black" points="1119.5,-75 1119.5,-116 1276.5,-116 1276.5,-75 1119.5,-75"/>
<text text-anchor="start" x="1127.5" y="-104" font-family="Helvetica,sans-Serif" font-size="10.00">infra::BoundedVector</text>
<text text-anchor="start" x="1127.5" y="-93" font-family="Helvetica,sans-Serif" font-size="10.00">&lt; services::NameResolverCache</text>
<text text-anchor="middle" x="1198" y="-82" font-family="Helvetica,sans-Serif" font-size="10.00">::CacheEntry &gt;</text>
</a>
</g>
</g>
<!-- Node9&#45;&gt;Node7 -->
<g id="edge7" class="edge"><title>Node9&#45;&gt;Node7</title>
<path fill="none" stroke="#9a32cd" stroke-dasharray="5,2" d="M1286.62,-114.624C1327.41,-123.527 1374.13,-133.724 1407.32,-140.966"/>
<polygon fill="#9a32cd" stroke="#9a32cd" points="1287.18,-111.164 1276.66,-112.451 1285.69,-118.003 1287.18,-111.164"/>
<text text-anchor="middle" x="1329.5" y="-133.5" font-family="Helvetica,sans-Serif" font-size="10.00"> cache</text>
</g>
<!-- Node10 -->
<g id="node8" class="node"><title>Node10</title>
<g id="a_node8"><a xlink:href="../../d0/d6d/classinfra_1_1_memory_range.html" target="_top" xlink:title="infra::MemoryRange\l\&lt; infra::StaticStorage\l\&lt; services::NameResolverCache\l::CacheEntry \&gt; \&gt;">
<polygon fill="white" stroke="black" points="792,-0.5 792,-52.5 949,-52.5 949,-0.5 792,-0.5"/>
<text text-anchor="start" x="800" y="-40.5" font-family="Helvetica,sans-Serif" font-size="10.00">infra::MemoryRange</text>
<text text-anchor="start" x="800" y="-29.5" font-family="Helvetica,sans-Serif" font-size="10.00">&lt; infra::StaticStorage</text>
<text text-anchor="start" x="800" y="-18.5" font-family="Helvetica,sans-Serif" font-size="10.00">&lt; services::NameResolverCache</text>
<text text-anchor="middle" x="870.5" y="-7.5" font-family="Helvetica,sans-Serif" font-size="10.00">::CacheEntry &gt; &gt;</text>
</a>
</g>
</g>
<!-- Node10&#45;&gt;Node9 -->
<g id="edge8" class="edge"><title>Node10&#45;&gt;Node9</title>
<path fill="none" stroke="#9a32cd" stroke-dasharray="5,2" d="M959.162,-38.4845C1001.13,-44.9308 1051.95,-53.772 1097,-64.5 1109.47,-67.4684 1122.65,-71.153 1135.21,-74.934"/>
<polygon fill="#9a32cd" stroke="#9a32cd" points="959.658,-35.0196 949.246,-36.9805 958.608,-41.9405 959.658,-35.0196"/>
<text text-anchor="middle" x="1039" y="-67.5" font-family="Helvetica,sans-Serif" font-size="10.00"> storage</text>
</g>
<!-- Node11 -->
<g id="node9" class="node"><title>Node11</title>
<g id="a_node9"><a xlink:href="../../d0/d8c/classinfra_1_1_static_storage.html" target="_top" xlink:title="infra::StaticStorage\l\&lt; services::NameResolverCache\l::CacheEntry \&gt;">
<polygon fill="white" stroke="black" points="512,-6 512,-47 669,-47 669,-6 512,-6"/>
<text text-anchor="start" x="520" y="-35" font-family="Helvetica,sans-Serif" font-size="10.00">infra::StaticStorage</text>
<text text-anchor="start" x="520" y="-24" font-family="Helvetica,sans-Serif" font-size="10.00">&lt; services::NameResolverCache</text>
<text text-anchor="middle" x="590.5" y="-13" font-family="Helvetica,sans-Serif" font-size="10.00">::CacheEntry &gt;</text>
</a>
</g>
</g>
<!-- Node11&#45;&gt;Node10 -->
<g id="edge9" class="edge"><title>Node11&#45;&gt;Node10</title>
<path fill="none" stroke="#9a32cd" stroke-dasharray="5,2" d="M679.325,-26.5C715.378,-26.5 756.769,-26.5 791.711,-26.5"/>
<polygon fill="#9a32cd" stroke="#9a32cd" points="679.308,-23.0001 669.308,-26.5 679.308,-30.0001 679.308,-23.0001"/>
<text text-anchor="middle" x="723.5" y="-40.5" font-family="Helvetica,sans-Serif" font-size="10.00"> beginElement</text>
<text text-anchor="middle" x="723.5" y="-29.5" font-family="Helvetica,sans-Serif" font-size="10.00">endElement</text>
</g>
<!-- Node12 -->
<g id="node10" class="node"><title>Node12</title>
<polygon fill="white" stroke="#bfbfbf" points="262.5,-44 262.5,-63 297.5,-63 297.5,-44 262.5,-44"/>
<text text-anchor="middle" x="280" y="-51" font-family="Helvetica,sans-Serif" font-size="10.00">type</text>
</g>
<!-- Node12&#45;&gt;Node11 -->
<g id="edge10" class="edge"><title>Node12&#45;&gt;Node11</title>
<path fill="none" stroke="#9a32cd" stroke-dasharray="5,2" d="M307.518,-48.9379C324.714,-46.1282 347.626,-42.6621 368,-40.5 415.704,-35.4376 469.396,-31.988 511.97,-29.7798"/>
<polygon fill="#9a32cd" stroke="#9a32cd" points="306.914,-45.4903 297.624,-50.585 308.063,-52.3952 306.914,-45.4903"/>
<text text-anchor="middle" x="431" y="-43.5" font-family="Helvetica,sans-Serif" font-size="10.00"> data</text>
</g>
<!-- Node31 -->
<g id="node29" class="node"><title>Node31</title>
<g id="a_node29"><a xlink:href="../../d0/d8c/classinfra_1_1_static_storage.html" target="_top" xlink:title="infra::StaticStorage\l\&lt; services::NameResolverCache\l::ActiveLookup \&gt;">
<polygon fill="white" stroke="black" points="512,-66 512,-107 669,-107 669,-66 512,-66"/>
<text text-anchor="start" x="520" y="-95" font-family="Helvetica,sans-Serif" font-size="10.00">infra::StaticStorage</text>
<text text-anchor="start" x="520" y="-84" font-family="Helvetica,sans-Serif" font-size="10.00">&lt; services::NameResolverCache</text>
<text text-anchor="middle" x="590.5" y="-73" font-family="Helvetica,sans-Serif" font-size="10.00">::ActiveLookup &gt;</text>
</a>
</g>
</g>
<!-- Node12&#45;&gt;Node31 -->
<g id="edge37" class="edge"><title>Node12&#45;&gt;Node31</title>
<path fill="none" stroke="#9a32cd" stroke-dasharray="5,2" d="M307.704,-56.3565C352.692,-61.1689 445.213,-71.0657 511.988,-78.2087"/>
<polygon fill="#9a32cd" stroke="#9a32cd" points="307.902,-52.8578 297.586,-55.2742 307.157,-59.8181 307.902,-52.8578"/>
<text text-anchor="middle" x="431" y="-79.5" font-family="Helvetica,sans-Serif" font-size="10.00"> data</text>
</g>
<!-- Node13 -->
<g id="node11" class="node"><title>Node13</title>
<polygon fill="white" stroke="#bfbfbf" points="849,-72 849,-91 892,-91 892,-72 849,-72"/>
<text text-anchor="middle" x="870.5" y="-79" font-family="Helvetica,sans-Serif" font-size="10.00">size_t</text>
</g>
<!-- Node13&#45;&gt;Node9 -->
<g id="edge11" class="edge"><title>Node13&#45;&gt;Node9</title>
<path fill="none" stroke="#9a32cd" stroke-dasharray="5,2" d="M902.238,-80.4237C945.681,-79.1785 1027.5,-77.8466 1097,-82.5 1104.25,-82.9854 1111.78,-83.655 1119.3,-84.4364"/>
<polygon fill="#9a32cd" stroke="#9a32cd" points="901.94,-76.9311 892.051,-80.7348 902.153,-83.9279 901.94,-76.9311"/>
<text text-anchor="middle" x="1039" y="-85.5" font-family="Helvetica,sans-Serif" font-size="10.00"> numAllocated</text>
</g>
<!-- Node14 -->
<g id="node12" class="node"><title>Node14</title>
<g id="a_node12"><a xlink:href="../../df/da4/classinfra_1_1_intrusive_list.html" target="_top" xlink:title="infra::IntrusiveList\l\&lt; services::NameResolverResult \&gt;">
<polygon fill="white" stroke="black" points="1115,-135.5 1115,-165.5 1281,-165.5 1281,-135.5 1115,-135.5"/>
<text text-anchor="start" x="1123" y="-153.5" font-family="Helvetica,sans-Serif" font-size="10.00">infra::IntrusiveList</text>
<text text-anchor="middle" x="1198" y="-142.5" font-family="Helvetica,sans-Serif" font-size="10.00">&lt; services::NameResolverResult &gt;</text>
</a>
</g>
</g>
<!-- Node13&#45;&gt;Node14 -->
<g id="edge17" class="edge"><title>Node13&#45;&gt;Node14</title>
<path fill="none" stroke="#9a32cd" stroke-dasharray="5,2" d="M902.078,-86.4013C945.588,-93.5553 1027.77,-107.733 1097,-123.5 1112.52,-127.034 1129.26,-131.351 1144.52,-135.488"/>
<polygon fill="#9a32cd" stroke="#9a32cd" points="902.567,-82.9348 892.133,-84.778 901.439,-89.8434 902.567,-82.9348"/>
<text text-anchor="middle" x="1039" y="-126.5" font-family="Helvetica,sans-Serif" font-size="10.00"> numberOfElements</text>
</g>
<!-- Node14&#45;&gt;Node7 -->
<g id="edge12" class="edge"><title>Node14&#45;&gt;Node7</title>
<path fill="none" stroke="#9a32cd" stroke-dasharray="5,2" d="M1291.53,-150.5C1319.99,-150.5 1350.9,-150.5 1377.87,-150.5"/>
<polygon fill="#9a32cd" stroke="#9a32cd" points="1291.17,-147 1281.17,-150.5 1291.17,-154 1291.17,-147"/>
<text text-anchor="middle" x="1329.5" y="-153.5" font-family="Helvetica,sans-Serif" font-size="10.00"> waiting</text>
</g>
<!-- Node15&#45;&gt;Node14 -->
<g id="edge13" class="edge"><title>Node15&#45;&gt;Node14</title>
<path fill="none" stroke="#9a32cd" stroke-dasharray="5,2" d="M921.349,-308.495C935.124,-302.645 949.884,-295.804 963,-288.5 1035.18,-248.303 1042.01,-220.192 1115,-181.5 1126.3,-175.513 1139.01,-170.117 1150.99,-165.569"/>
<polygon fill="#9a32cd" stroke="#9a32cd" points="919.893,-305.31 912.003,-312.381 922.58,-311.774 919.893,-305.31"/>
<text text-anchor="middle" x="1039" y="-279.5" font-family="Helvetica,sans-Serif" font-size="10.00"> beginNode</text>
</g>
<!-- Node16 -->
<g id="node14" class="node"><title>Node16</title>
<g id="a_node14"><a xlink:href="../../d7/da5/classinfra_1_1detail_1_1_intrusive_list_node.html" target="_top" xlink:title="infra::detail::Intrusive\lListNode\&lt; services::NameResolver\lResult \&gt;">
<polygon fill="white" stroke="black" points="787,-110 787,-151 954,-151 954,-110 787,-110"/>
<text text-anchor="start" x="795" y="-139" font-family="Helvetica,sans-Serif" font-size="10.00">infra::detail::Intrusive</text>
<text text-anchor="start" x="795" y="-128" font-family="Helvetica,sans-Serif" font-size="10.00">ListNode&lt; services::NameResolver</text>
<text text-anchor="middle" x="870.5" y="-117" font-family="Helvetica,sans-Serif" font-size="10.00">Result &gt;</text>
</a>
</g>
</g>
<!-- Node16&#45;&gt;Node14 -->
<g id="edge15" class="edge"><title>Node16&#45;&gt;Node14</title>
<path fill="none" stroke="#9a32cd" stroke-dasharray="5,2" d="M964.334,-136.204C1011.77,-139.119 1068.99,-142.634 1114.81,-145.45"/>
<polygon fill="#9a32cd" stroke="#9a32cd" points="964.254,-132.693 954.058,-135.573 963.825,-139.679 964.254,-132.693"/>
<text text-anchor="middle" x="1039" y="-147.5" font-family="Helvetica,sans-Serif" font-size="10.00"> endNode</text>
</g>
<!-- Node16&#45;&gt;Node16 -->
<g id="edge16" class="edge"><title>Node16&#45;&gt;Node16</title>
<path fill="none" stroke="#9a32cd" stroke-dasharray="5,2" d="M845.382,-161.356C849.117,-166.197 857.49,-169.5 870.5,-169.5 891.316,-169.5 900.261,-161.043 897.334,-151.364"/>
<polygon fill="#9a32cd" stroke="#9a32cd" points="848.808,-160.628 843.666,-151.364 841.909,-161.812 848.808,-160.628"/>
<text text-anchor="middle" x="870.5" y="-183.5" font-family="Helvetica,sans-Serif" font-size="10.00"> previous</text>
<text text-anchor="middle" x="870.5" y="-172.5" font-family="Helvetica,sans-Serif" font-size="10.00">next</text>
</g>
<!-- Node17 -->
<g id="node15" class="node"><title>Node17</title>
<g id="a_node15"><a xlink:href="../../d8/d87/classinfra_1_1_timer_single_shot.html" target="_top" xlink:title="infra::TimerSingleShot">
<polygon fill="white" stroke="black" points="1142,-246 1142,-265 1254,-265 1254,-246 1142,-246"/>
<text text-anchor="middle" x="1198" y="-253" font-family="Helvetica,sans-Serif" font-size="10.00">infra::TimerSingleShot</text>
</a>
</g>
</g>
<!-- Node17&#45;&gt;Node7 -->
<g id="edge19" class="edge"><title>Node17&#45;&gt;Node7</title>
<path fill="none" stroke="#9a32cd" stroke-dasharray="5,2" d="M1264.09,-246.301C1294.21,-240.512 1329.91,-231.419 1360,-217.5 1392.59,-202.428 1425.09,-174.667 1440.97,-160.06"/>
<polygon fill="#9a32cd" stroke="#9a32cd" points="1263.3,-242.887 1254.1,-248.14 1264.57,-249.771 1263.3,-242.887"/>
<text text-anchor="middle" x="1329.5" y="-241.5" font-family="Helvetica,sans-Serif" font-size="10.00"> cleanupTimer</text>
</g>
<!-- Node18 -->
<g id="node16" class="node"><title>Node18</title>
<g id="a_node16"><a xlink:href="../../d5/da5/classinfra_1_1_timer.html" target="_top" xlink:title="infra::Timer">
<polygon fill="white" stroke="black" points="838,-260 838,-279 903,-279 903,-260 838,-260"/>
<text text-anchor="middle" x="870.5" y="-267" font-family="Helvetica,sans-Serif" font-size="10.00">infra::Timer</text>
</a>
</g>
</g>
<!-- Node18&#45;&gt;Node17 -->
<g id="edge20" class="edge"><title>Node18&#45;&gt;Node17</title>
<path fill="none" stroke="midnightblue" d="M913.303,-267.702C971.51,-265.198 1077.09,-260.658 1141.74,-257.877"/>
<polygon fill="midnightblue" stroke="midnightblue" points="912.846,-264.218 903.006,-268.145 913.147,-271.212 912.846,-264.218"/>
</g>
<!-- Node19 -->
<g id="node17" class="node"><title>Node19</title>
<g id="a_node17"><a xlink:href="../../d7/d4a/classinfra_1_1detail_1_1_intrusive_forward_list_node.html" target="_top" xlink:title="infra::IntrusiveForwardList\l\&lt; Timer \&gt;::NodeType">
<polygon fill="white" stroke="black" points="368,-128.5 368,-158.5 494,-158.5 494,-128.5 368,-128.5"/>
<text text-anchor="start" x="376" y="-146.5" font-family="Helvetica,sans-Serif" font-size="10.00">infra::IntrusiveForwardList</text>
<text text-anchor="middle" x="431" y="-135.5" font-family="Helvetica,sans-Serif" font-size="10.00">&lt; Timer &gt;::NodeType</text>
</a>
</g>
</g>
<!-- Node19&#45;&gt;Node18 -->
<g id="edge21" class="edge"><title>Node19&#45;&gt;Node18</title>
<path fill="none" stroke="midnightblue" d="M504.237,-137.105C552.537,-135.503 616.595,-138.641 669,-159.5 698.185,-171.117 749.752,-235.76 778,-249.5 796.717,-258.604 819.592,-263.604 837.788,-266.328"/>
<polygon fill="midnightblue" stroke="midnightblue" points="504.028,-133.611 494.179,-137.515 504.313,-140.605 504.028,-133.611"/>
</g>
<!-- Node20 -->
<g id="node18" class="node"><title>Node20</title>
<polygon fill="white" stroke="#bfbfbf" points="0,-172.5 0,-202.5 125,-202.5 125,-172.5 0,-172.5"/>
<text text-anchor="start" x="8" y="-190.5" font-family="Helvetica,sans-Serif" font-size="10.00">IntrusiveForwardListNode</text>
<text text-anchor="middle" x="62.5" y="-179.5" font-family="Helvetica,sans-Serif" font-size="10.00">&lt; T &gt; *</text>
</g>
<!-- Node20&#45;&gt;Node19 -->
<g id="edge22" class="edge"><title>Node20&#45;&gt;Node19</title>
<path fill="none" stroke="#9a32cd" stroke-dasharray="5,2" d="M135.165,-178.628C158.973,-175.698 185.624,-172.438 210,-169.5 263.267,-163.08 323.808,-155.936 367.878,-150.764"/>
<polygon fill="#9a32cd" stroke="#9a32cd" points="134.647,-175.165 125.15,-179.861 135.503,-182.112 134.647,-175.165"/>
<text text-anchor="middle" x="167.5" y="-181.5" font-family="Helvetica,sans-Serif" font-size="10.00"> next</text>
</g>
<!-- Node24 -->
<g id="node22" class="node"><title>Node24</title>
<g id="a_node22"><a xlink:href="../../d7/d4a/classinfra_1_1detail_1_1_intrusive_forward_list_node.html" target="_top" xlink:title="infra::IntrusiveForwardList\l\&lt; TimerService \&gt;::NodeType">
<polygon fill="white" stroke="black" points="210,-219.5 210,-249.5 350,-249.5 350,-219.5 210,-219.5"/>
<text text-anchor="start" x="218" y="-237.5" font-family="Helvetica,sans-Serif" font-size="10.00">infra::IntrusiveForwardList</text>
<text text-anchor="middle" x="280" y="-226.5" font-family="Helvetica,sans-Serif" font-size="10.00">&lt; TimerService &gt;::NodeType</text>
</a>
</g>
</g>
<!-- Node20&#45;&gt;Node24 -->
<g id="edge27" class="edge"><title>Node20&#45;&gt;Node24</title>
<path fill="none" stroke="#9a32cd" stroke-dasharray="5,2" d="M135.064,-203.108C159.211,-208.374 186.103,-214.239 210.045,-219.461"/>
<polygon fill="#9a32cd" stroke="#9a32cd" points="135.77,-199.68 125.254,-200.968 134.278,-206.519 135.77,-199.68"/>
<text text-anchor="middle" x="167.5" y="-218.5" font-family="Helvetica,sans-Serif" font-size="10.00"> next</text>
</g>
<!-- Node21 -->
<g id="node19" class="node"><title>Node21</title>
<g id="a_node19"><a xlink:href="../../da/d07/classinfra_1_1_function.html" target="_top" xlink:title="infra::Function\&lt; void()\&gt;">
<polygon fill="white" stroke="black" points="532.5,-302 532.5,-321 648.5,-321 648.5,-302 532.5,-302"/>
<text text-anchor="middle" x="590.5" y="-309" font-family="Helvetica,sans-Serif" font-size="10.00">infra::Function&lt; void()&gt;</text>
</a>
</g>
</g>
<!-- Node21&#45;&gt;Node18 -->
<g id="edge23" class="edge"><title>Node21&#45;&gt;Node18</title>
<path fill="none" stroke="#9a32cd" stroke-dasharray="5,2" d="M658.751,-301.34C715.586,-292.753 794.47,-280.835 837.817,-274.287"/>
<polygon fill="#9a32cd" stroke="#9a32cd" points="658.13,-297.894 648.765,-302.848 659.175,-304.815 658.13,-297.894"/>
<text text-anchor="middle" x="723.5" y="-299.5" font-family="Helvetica,sans-Serif" font-size="10.00"> action</text>
</g>
<!-- Node22 -->
<g id="node20" class="node"><title>Node22</title>
<polygon fill="white" stroke="#bfbfbf" points="539.5,-226 539.5,-245 641.5,-245 641.5,-226 539.5,-226"/>
<text text-anchor="middle" x="590.5" y="-233" font-family="Helvetica,sans-Serif" font-size="10.00">array&lt; uint32_t, 2 &gt;</text>
</g>
<!-- Node22&#45;&gt;Node18 -->
<g id="edge24" class="edge"><title>Node22&#45;&gt;Node18</title>
<path fill="none" stroke="#9a32cd" stroke-dasharray="5,2" d="M651.785,-242.522C683.919,-246.299 724.12,-251.077 760,-255.5 786.249,-258.736 816.018,-262.551 837.884,-265.381"/>
<polygon fill="#9a32cd" stroke="#9a32cd" points="651.991,-239.022 641.651,-241.333 651.175,-245.974 651.991,-239.022"/>
<text text-anchor="middle" x="723.5" y="-258.5" font-family="Helvetica,sans-Serif" font-size="10.00"> nextTriggerTime</text>
</g>
<!-- Node23 -->
<g id="node21" class="node"><title>Node23</title>
<g id="a_node21"><a xlink:href="../../da/def/classinfra_1_1_timer_service.html" target="_top" xlink:title="infra::TimerService">
<polygon fill="white" stroke="black" points="542.5,-264 542.5,-283 638.5,-283 638.5,-264 542.5,-264"/>
<text text-anchor="middle" x="590.5" y="-271" font-family="Helvetica,sans-Serif" font-size="10.00">infra::TimerService</text>
</a>
</g>
</g>
<!-- Node23&#45;&gt;Node18 -->
<g id="edge25" class="edge"><title>Node23&#45;&gt;Node18</title>
<path fill="none" stroke="#9a32cd" stroke-dasharray="5,2" d="M648.989,-272.673C706.171,-271.85 791.812,-270.618 837.724,-269.957"/>
<polygon fill="#9a32cd" stroke="#9a32cd" points="648.607,-269.178 638.659,-272.821 648.708,-276.177 648.607,-269.178"/>
<text text-anchor="middle" x="723.5" y="-274.5" font-family="Helvetica,sans-Serif" font-size="10.00"> timerService</text>
</g>
<!-- Node24&#45;&gt;Node23 -->
<g id="edge26" class="edge"><title>Node24&#45;&gt;Node23</title>
<path fill="none" stroke="midnightblue" d="M360.383,-244.535C417.884,-251.805 493.711,-261.39 542.051,-267.502"/>
<polygon fill="midnightblue" stroke="midnightblue" points="360.593,-241.034 350.233,-243.252 359.715,-247.979 360.593,-241.034"/>
</g>
<!-- Node25 -->
<g id="node23" class="node"><title>Node25</title>
<polygon fill="white" stroke="#bfbfbf" points="249,-320 249,-339 311,-339 311,-320 249,-320"/>
<text text-anchor="middle" x="280" y="-327" font-family="Helvetica,sans-Serif" font-size="10.00">time_point</text>
</g>
<!-- Node25&#45;&gt;Node23 -->
<g id="edge28" class="edge"><title>Node25&#45;&gt;Node23</title>
<path fill="none" stroke="#9a32cd" stroke-dasharray="5,2" d="M321.21,-331.573C365.252,-332.405 437.179,-329.479 494,-306.5 503.396,-302.7 502.877,-296.915 512,-292.5 521.477,-287.914 532.158,-284.376 542.492,-281.668"/>
<polygon fill="#9a32cd" stroke="#9a32cd" points="321.267,-328.073 311.178,-331.308 321.082,-335.071 321.267,-328.073"/>
<text text-anchor="middle" x="431" y="-333.5" font-family="Helvetica,sans-Serif" font-size="10.00"> nextTrigger</text>
</g>
<!-- Node26 -->
<g id="node24" class="node"><title>Node26</title>
<g id="a_node24"><a xlink:href="../../d3/d66/classinfra_1_1_intrusive_forward_list.html" target="_top" xlink:title="infra::IntrusiveForwardList\l\&lt; infra::Timer \&gt;">
<polygon fill="white" stroke="black" points="217,-269.5 217,-299.5 343,-299.5 343,-269.5 217,-269.5"/>
<text text-anchor="start" x="225" y="-287.5" font-family="Helvetica,sans-Serif" font-size="10.00">infra::IntrusiveForwardList</text>
<text text-anchor="middle" x="280" y="-276.5" font-family="Helvetica,sans-Serif" font-size="10.00">&lt; infra::Timer &gt;</text>
</a>
</g>
</g>
<!-- Node26&#45;&gt;Node23 -->
<g id="edge29" class="edge"><title>Node26&#45;&gt;Node23</title>
<path fill="none" stroke="#9a32cd" stroke-dasharray="5,2" d="M353.305,-281.922C411.57,-279.844 491.817,-276.983 542.161,-275.188"/>
<polygon fill="#9a32cd" stroke="#9a32cd" points="352.927,-278.433 343.058,-282.287 353.177,-285.429 352.927,-278.433"/>
<text text-anchor="middle" x="431" y="-294.5" font-family="Helvetica,sans-Serif" font-size="10.00"> timerIterator</text>
<text text-anchor="middle" x="431" y="-283.5" font-family="Helvetica,sans-Serif" font-size="10.00">scheduledTimers</text>
</g>
<!-- Node27 -->
<g id="node25" class="node"><title>Node27</title>
<g id="a_node25"><a xlink:href="../../d7/d4a/classinfra_1_1detail_1_1_intrusive_forward_list_node.html" target="_top" xlink:title="infra::detail::Intrusive\lForwardListNode\&lt; infra\l::Timer \&gt;">
<polygon fill="white" stroke="black" points="4.5,-264 4.5,-305 120.5,-305 120.5,-264 4.5,-264"/>
<text text-anchor="start" x="12.5" y="-293" font-family="Helvetica,sans-Serif" font-size="10.00">infra::detail::Intrusive</text>
<text text-anchor="start" x="12.5" y="-282" font-family="Helvetica,sans-Serif" font-size="10.00">ForwardListNode&lt; infra</text>
<text text-anchor="middle" x="62.5" y="-271" font-family="Helvetica,sans-Serif" font-size="10.00">::Timer &gt;</text>
</a>
</g>
</g>
<!-- Node27&#45;&gt;Node26 -->
<g id="edge30" class="edge"><title>Node27&#45;&gt;Node26</title>
<path fill="none" stroke="#9a32cd" stroke-dasharray="5,2" d="M130.962,-284.5C158.344,-284.5 189.781,-284.5 216.622,-284.5"/>
<polygon fill="#9a32cd" stroke="#9a32cd" points="130.684,-281 120.684,-284.5 130.684,-288 130.684,-281"/>
<text text-anchor="middle" x="167.5" y="-287.5" font-family="Helvetica,sans-Serif" font-size="10.00"> beginNode</text>
</g>
<!-- Node27&#45;&gt;Node27 -->
<g id="edge31" class="edge"><title>Node27&#45;&gt;Node27</title>
<path fill="none" stroke="#9a32cd" stroke-dasharray="5,2" d="M44.6074,-315.356C47.2682,-320.197 53.2324,-323.5 62.5,-323.5 77.3281,-323.5 83.6996,-315.043 81.6144,-305.364"/>
<polygon fill="#9a32cd" stroke="#9a32cd" points="48.0736,-314.866 43.3856,-305.364 41.1254,-315.715 48.0736,-314.866"/>
<text text-anchor="middle" x="62.5" y="-326.5" font-family="Helvetica,sans-Serif" font-size="10.00"> next</text>
</g>
<!-- Node28 -->
<g id="node26" class="node"><title>Node28</title>
<polygon fill="white" stroke="#bfbfbf" points="254.5,-358 254.5,-377 305.5,-377 305.5,-358 254.5,-358"/>
<text text-anchor="middle" x="280" y="-365" font-family="Helvetica,sans-Serif" font-size="10.00">uint32_t</text>
</g>
<!-- Node28&#45;&gt;Node23 -->
<g id="edge32" class="edge"><title>Node28&#45;&gt;Node23</title>
<path fill="none" stroke="#9a32cd" stroke-dasharray="5,2" d="M315.567,-374.372C361.531,-381.405 442.9,-386.248 494,-345.5 513.45,-329.99 493.661,-309.309 512,-292.5 520.374,-284.824 531.335,-280.116 542.367,-277.263"/>
<polygon fill="#9a32cd" stroke="#9a32cd" points="315.938,-370.886 305.501,-372.709 314.797,-377.792 315.938,-370.886"/>
<text text-anchor="middle" x="431" y="-381.5" font-family="Helvetica,sans-Serif" font-size="10.00"> id</text>
</g>
<!-- Node29 -->
<g id="node27" class="node"><title>Node29</title>
<polygon fill="white" stroke="#bfbfbf" points="262.5,-179 262.5,-198 297.5,-198 297.5,-179 262.5,-179"/>
<text text-anchor="middle" x="280" y="-186" font-family="Helvetica,sans-Serif" font-size="10.00">bool</text>
</g>
<!-- Node29&#45;&gt;Node23 -->
<g id="edge33" class="edge"><title>Node29&#45;&gt;Node23</title>
<path fill="none" stroke="#9a32cd" stroke-dasharray="5,2" d="M307.754,-189.557C358.098,-192.018 464.51,-199.602 494,-220.5 507.95,-230.386 498.515,-243.988 512,-254.5 520.741,-261.314 531.587,-265.724 542.369,-268.569"/>
<polygon fill="#9a32cd" stroke="#9a32cd" points="307.779,-186.055 297.63,-189.095 307.46,-193.048 307.779,-186.055"/>
<text text-anchor="middle" x="431" y="-234.5" font-family="Helvetica,sans-Serif" font-size="10.00"> holdUpdate</text>
<text text-anchor="middle" x="431" y="-223.5" font-family="Helvetica,sans-Serif" font-size="10.00">updateNeeded</text>
</g>
<!-- Node30 -->
<g id="node28" class="node"><title>Node30</title>
<g id="a_node28"><a xlink:href="../../dc/df7/classinfra_1_1_optional.html" target="_top" xlink:title="infra::Optional\&lt; services\l::NameResolverCache::ActiveLookup \&gt;">
<polygon fill="white" stroke="black" points="778,-210.5 778,-240.5 963,-240.5 963,-210.5 778,-210.5"/>
<text text-anchor="start" x="786" y="-228.5" font-family="Helvetica,sans-Serif" font-size="10.00">infra::Optional&lt; services</text>
<text text-anchor="middle" x="870.5" y="-217.5" font-family="Helvetica,sans-Serif" font-size="10.00">::NameResolverCache::ActiveLookup &gt;</text>
</a>
</g>
</g>
<!-- Node29&#45;&gt;Node30 -->
<g id="edge35" class="edge"><title>Node29&#45;&gt;Node30</title>
<path fill="none" stroke="#9a32cd" stroke-dasharray="5,2" d="M307.939,-189.041C371.097,-190.45 533.615,-194.884 669,-205.5 704.659,-208.296 743.819,-212.049 777.994,-215.549"/>
<polygon fill="#9a32cd" stroke="#9a32cd" points="307.738,-185.536 297.664,-188.82 307.587,-192.535 307.738,-185.536"/>
<text text-anchor="middle" x="590.5" y="-208.5" font-family="Helvetica,sans-Serif" font-size="10.00"> initialized</text>
</g>
<!-- Node30&#45;&gt;Node7 -->
<g id="edge34" class="edge"><title>Node30&#45;&gt;Node7</title>
<path fill="none" stroke="#9a32cd" stroke-dasharray="5,2" d="M973.024,-214.264C1071.94,-203.025 1226.51,-184.691 1360,-165.5 1371.41,-163.859 1383.6,-161.955 1395.23,-160.065"/>
<polygon fill="#9a32cd" stroke="#9a32cd" points="972.575,-210.792 963.033,-215.396 973.363,-217.748 972.575,-210.792"/>
<text text-anchor="middle" x="1198" y="-201.5" font-family="Helvetica,sans-Serif" font-size="10.00"> activeLookup</text>
</g>
<!-- Node31&#45;&gt;Node30 -->
<g id="edge36" class="edge"><title>Node31&#45;&gt;Node30</title>
<path fill="none" stroke="#9a32cd" stroke-dasharray="5,2" d="M678.865,-106.722C707.689,-117.016 737.972,-132.238 760,-154.5 775.441,-170.106 761.674,-185.823 778,-200.5 782.286,-204.353 787.111,-207.62 792.246,-210.389"/>
<polygon fill="#9a32cd" stroke="#9a32cd" points="679.755,-103.327 669.16,-103.416 677.498,-109.954 679.755,-103.327"/>
<text text-anchor="middle" x="723.5" y="-157.5" font-family="Helvetica,sans-Serif" font-size="10.00"> data</text>
</g>
</g>
</svg>
        <g id="navigator" transform="translate(0 0)" fill="#404254">
                <rect fill="#f2f5e9" fill-opacity="0.5" stroke="#606060" stroke-width=".5" x="0" y="0" width="60" height="60"/>
                <use id="zoomplus" xlink:href="#zoomPlus" x="17" y="9" onmousedown="handleZoom(evt,'in')"/>
                <use id="zoomminus" xlink:href="#zoomMin" x="42" y="9" onmousedown="handleZoom(evt,'out')"/>
                <use id="reset" xlink:href="#resetDef" x="30" y="36" onmousedown="handleReset()"/>
                <g id="arrowUp" xlink:href="#dirArrow" transform="translate(30 24)" onmousedown="handlePan(0,-1)">
                  <use xlink:href="#rim" fill="#404040">
                        <set attributeName="fill" to="#808080" begin="arrowUp.mouseover" end="arrowUp.mouseout"/>
                  </use>
                  <path fill="none" stroke="white" stroke-width="1.5" d="M0,-3.0v7 M-2.5,-0.5L0,-3.0L2.5,-0.5"/>
                </g>
                <g id="arrowRight" xlink:href="#dirArrow" transform="rotate(90) translate(36 -43)" onmousedown="handlePan(1,0)">
                  <use xlink:href="#rim" fill="#404040">
                        <set attributeName="fill" to="#808080" begin="arrowRight.mouseover" end="arrowRight.mouseout"/>
                  </use>
                  <path fill="none" stroke="white" stroke-width="1.5" d="M0,-3.0v7 M-2.5,-0.5L0,-3.0L2.5,-0.5"/>
                </g>
                <g id="arrowDown" xlink:href="#dirArrow" transform="rotate(180) translate(-30 -48)" onmousedown="handlePan(0,1)">
                  <use xlink:href="#rim" fill="#404040">
                        <set attributeName="fill" to="#808080" begin="arrowDown.mouseover" end="arrowDown.mouseout"/>
                  </use>
                  <path fill="none" stroke="white" stroke-width="1.5" d="M0,-3.0v7 M-2.5,-0.5L0,-3.0L2.5,-0.5"/>
                </g>
                <g id="arrowLeft" xlink:href="#dirArrow" transform="rotate(270) translate(-36 17)" onmousedown="handlePan(-1,0)">
                  <use xlink:href="#rim" fill="#404040">
                        <set attributeName="fill" to="#808080" begin="arrowLeft.mouseover" end="arrowLeft.mouseout"/>
                  </use>
                  <path fill="none" stroke="white" stroke-width="1.5" d="M0,-3.0v7 M-2.5,-0.5L0,-3.0L2.5,-0.5"/>
                </g>
        </g>
        <svg viewBox="0 0 15 15" width="100%" height="30px" preserveAspectRatio="xMaxYMin meet">
         <g id="arrow_out" transform="scale(0.3 0.3)">
          <a xlink:href="classservices_1_1_name_resolver_cache_1_1_active_lookup__coll__graph_org.svg" target="_base">
           <rect id="button" ry="5" rx="5" y="6" x="6" height="38" width="38"
                fill="#f2f5e9" fill-opacity="0.5" stroke="#606060" stroke-width="1.0"/>
           <path id="arrow"
             d="M 11.500037,31.436501 C 11.940474,20.09759 22.043105,11.32322 32.158766,21.979434 L 37.068811,17.246167 C 37.068811,17.246167 37.088388,32 37.088388,32 L 22.160133,31.978069 C 22.160133,31.978069 26.997745,27.140456 26.997745,27.140456 C 18.528582,18.264221 13.291696,25.230495 11.500037,31.436501 z"
             style="fill:#404040;"/>
          </a>
         </g>
        </svg>
</svg>
