<?xml version="1.0" encoding="UTF-8" standalone="no"?>
<!DOCTYPE svg PUBLIC "-//W3C//DTD SVG 1.1//EN"
 "http://www.w3.org/Graphics/SVG/1.1/DTD/svg11.dtd">
<!-- Generated by graphviz version 2.38.0 (20140413.2041)
 -->
<!-- Title: infra::JsonArrayIterator Pages: 1 -->
<!--zoomable 284 -->
<svg id="main" version="1.1" xmlns="http://www.w3.org/2000/svg" xmlns:xlink="http://www.w3.org/1999/xlink" xml:space="preserve" onload="init(evt)">
<style type="text/css"><![CDATA[
.edge:hover path { stroke: red; }
.edge:hover polygon { stroke: red; fill: red; }
]]></style>
<script type="text/javascript"><![CDATA[
var edges = document.getElementsByTagName('g');
if (edges && edges.length) {
  for (var i=0;i<edges.length;i++) {
    if (edges[i].id.substr(0,4)=='edge') {
      edges[i].setAttribute('class','edge');
    }
  }
}
]]></script>
        <defs>
                <circle id="rim" cx="0" cy="0" r="7"/>
                <circle id="rim2" cx="0" cy="0" r="3.5"/>
                <g id="zoomPlus">
                        <use xlink:href="#rim" fill="#404040">
                                <set attributeName="fill" to="#808080" begin="zoomplus.mouseover" end="zoomplus.mouseout"/>
                        </use>
                        <path d="M-4,0h8M0,-4v8" fill="none" stroke="white" stroke-width="1.5" pointer-events="none"/>
                </g>
                <g id="zoomMin">
                        <use xlink:href="#rim" fill="#404040">
                                <set attributeName="fill" to="#808080" begin="zoomminus.mouseover" end="zoomminus.mouseout"/>
                        </use>
                        <path d="M-4,0h8" fill="none" stroke="white" stroke-width="1.5" pointer-events="none"/>
                </g>
                <g id="dirArrow">
                        <path fill="none" stroke="white" stroke-width="1.5" d="M0,-3.0v7 M-2.5,-0.5L0,-3.0L2.5,-0.5"/>
                </g>
               <g id="resetDef">
                       <use xlink:href="#rim2" fill="#404040">
                               <set attributeName="fill" to="#808080" begin="reset.mouseover" end="reset.mouseout"/>
                       </use>
               </g>
        </defs>

<script type="text/javascript">
var viewWidth = 1094;
var viewHeight = 284;
var sectionId = 'dynsection-1';
</script>
<script xlink:href="../../svgpan.js"/>
<svg id="graph" class="graph">
<g id="viewport">
<title>infra::JsonArrayIterator</title>
<polygon fill="white" stroke="none" points="-4,4 -4,-280 1090,-280 1090,4 -4,4"/>
<!-- Node3 -->
<g id="node1" class="node"><title>Node3</title>
<polygon fill="#bfbfbf" stroke="black" points="972,-138.5 972,-157.5 1086,-157.5 1086,-138.5 972,-138.5"/>
<text text-anchor="middle" x="1029" y="-145.5" font-family="Helvetica,sans-Serif" font-size="10.00">infra::JsonArrayIterator</text>
</g>
<!-- Node4 -->
<g id="node2" class="node"><title>Node4</title>
<polygon fill="white" stroke="#bfbfbf" points="781,-218.5 781,-259.5 891,-259.5 891,-218.5 781,-218.5"/>
<text text-anchor="start" x="789" y="-247.5" font-family="Helvetica,sans-Serif" font-size="10.00">std::iterator&lt; std</text>
<text text-anchor="start" x="789" y="-236.5" font-family="Helvetica,sans-Serif" font-size="10.00">::forward_iterator_tag,</text>
<text text-anchor="middle" x="836" y="-225.5" font-family="Helvetica,sans-Serif" font-size="10.00"> JsonValue &gt;</text>
</g>
<!-- Node4&#45;&gt;Node3 -->
<g id="edge1" class="edge"><title>Node4&#45;&gt;Node3</title>
<path fill="none" stroke="midnightblue" d="M900.937,-224.344C918.624,-219.106 937.486,-212.373 954,-204 979.003,-191.323 1004.2,-170.008 1017.78,-157.654"/>
<polygon fill="midnightblue" stroke="midnightblue" points="899.914,-220.996 891.255,-227.101 901.831,-227.729 899.914,-220.996"/>
</g>
<!-- Node5 -->
<g id="node3" class="node"><title>Node5</title>
<g id="a_node3"><a xlink:href="../../df/dd0/classinfra_1_1_json_iterator.html" target="_top" xlink:title="infra::JsonIterator">
<polygon fill="white" stroke="black" points="790.5,-138.5 790.5,-157.5 881.5,-157.5 881.5,-138.5 790.5,-138.5"/>
<text text-anchor="middle" x="836" y="-145.5" font-family="Helvetica,sans-Serif" font-size="10.00">infra::JsonIterator</text>
</a>
</g>
</g>
<!-- Node5&#45;&gt;Node3 -->
<g id="edge2" class="edge"><title>Node5&#45;&gt;Node3</title>
<path fill="none" stroke="#8b1a1a" d="M891.864,-148C916.948,-148 946.631,-148 971.868,-148"/>
<polygon fill="#8b1a1a" stroke="#8b1a1a" points="891.781,-144.5 881.781,-148 891.781,-151.5 891.781,-144.5"/>
</g>
<!-- Node6 -->
<g id="node4" class="node"><title>Node6</title>
<g id="a_node4"><a xlink:href="../../d3/d5c/classinfra_1_1_json_tokenizer.html" target="_top" xlink:title="infra::JsonTokenizer">
<polygon fill="white" stroke="black" points="584,-138.5 584,-157.5 687,-157.5 687,-138.5 584,-138.5"/>
<text text-anchor="middle" x="635.5" y="-145.5" font-family="Helvetica,sans-Serif" font-size="10.00">infra::JsonTokenizer</text>
</a>
</g>
</g>
<!-- Node6&#45;&gt;Node5 -->
<g id="edge3" class="edge"><title>Node6&#45;&gt;Node5</title>
<path fill="none" stroke="#9a32cd" stroke-dasharray="5,2" d="M697.444,-148C727.39,-148 762.831,-148 790.239,-148"/>
<polygon fill="#9a32cd" stroke="#9a32cd" points="697.104,-144.5 687.104,-148 697.104,-151.5 697.104,-144.5"/>
<text text-anchor="middle" x="735.5" y="-151" font-family="Helvetica,sans-Serif" font-size="10.00"> tokenizer</text>
</g>
<!-- Node7 -->
<g id="node5" class="node"><title>Node7</title>
<polygon fill="white" stroke="#bfbfbf" points="203,-171.5 203,-190.5 246,-190.5 246,-171.5 203,-171.5"/>
<text text-anchor="middle" x="224.5" y="-178.5" font-family="Helvetica,sans-Serif" font-size="10.00">size_t</text>
</g>
<!-- Node7&#45;&gt;Node6 -->
<g id="edge4" class="edge"><title>Node7&#45;&gt;Node6</title>
<path fill="none" stroke="#9a32cd" stroke-dasharray="5,2" d="M256.405,-178.506C326.443,-172.855 497.82,-159.028 583.703,-152.099"/>
<polygon fill="#9a32cd" stroke="#9a32cd" points="255.749,-175.048 246.063,-179.341 256.312,-182.025 255.749,-175.048"/>
<text text-anchor="middle" x="426.5" y="-173" font-family="Helvetica,sans-Serif" font-size="10.00"> parseIndex</text>
</g>
<!-- Node8 -->
<g id="node6" class="node"><title>Node8</title>
<g id="a_node6"><a xlink:href="../../d1/d2a/classinfra_1_1_bounded_string_base.html" target="_top" xlink:title="infra::BoundedStringBase\l\&lt; const char \&gt;">
<polygon fill="white" stroke="black" points="363,-91 363,-121 490,-121 490,-91 363,-91"/>
<text text-anchor="start" x="371" y="-109" font-family="Helvetica,sans-Serif" font-size="10.00">infra::BoundedStringBase</text>
<text text-anchor="middle" x="426.5" y="-98" font-family="Helvetica,sans-Serif" font-size="10.00">&lt; const char &gt;</text>
</a>
</g>
</g>
<!-- Node7&#45;&gt;Node8 -->
<g id="edge8" class="edge"><title>Node7&#45;&gt;Node8</title>
<path fill="none" stroke="#9a32cd" stroke-dasharray="5,2" d="M248.726,-166.096C262.834,-157.544 281.453,-147.125 299,-140 319.228,-131.787 342.074,-124.952 362.73,-119.617"/>
<polygon fill="#9a32cd" stroke="#9a32cd" points="246.826,-163.156 240.163,-171.393 250.508,-169.109 246.826,-163.156"/>
<text text-anchor="middle" x="322" y="-143" font-family="Helvetica,sans-Serif" font-size="10.00"> length</text>
</g>
<!-- Node12 -->
<g id="node10" class="node"><title>Node12</title>
<g id="a_node10"><a xlink:href="../../da/d2a/classinfra_1_1_variant.html" target="_top" xlink:title="infra::Variant\&lt; bool,\l int32_t, JsonString,\l JsonObject, JsonArray \&gt;">
<polygon fill="white" stroke="black" points="363,-202.5 363,-243.5 490,-243.5 490,-202.5 363,-202.5"/>
<text text-anchor="start" x="371" y="-231.5" font-family="Helvetica,sans-Serif" font-size="10.00">infra::Variant&lt; bool,</text>
<text text-anchor="start" x="371" y="-220.5" font-family="Helvetica,sans-Serif" font-size="10.00"> int32_t, JsonString,</text>
<text text-anchor="middle" x="426.5" y="-209.5" font-family="Helvetica,sans-Serif" font-size="10.00"> JsonObject, JsonArray &gt;</text>
</a>
</g>
</g>
<!-- Node7&#45;&gt;Node12 -->
<g id="edge12" class="edge"><title>Node7&#45;&gt;Node12</title>
<path fill="none" stroke="#9a32cd" stroke-dasharray="5,2" d="M256.434,-184.45C280.69,-187.446 315.212,-192.351 345,-199 350.836,-200.303 356.867,-201.804 362.881,-203.406"/>
<polygon fill="#9a32cd" stroke="#9a32cd" points="256.734,-180.961 246.388,-183.246 255.901,-187.911 256.734,-180.961"/>
<text text-anchor="middle" x="322" y="-202" font-family="Helvetica,sans-Serif" font-size="10.00"> size</text>
</g>
<!-- Node7&#45;&gt;Node12 -->
<g id="edge13" class="edge"><title>Node7&#45;&gt;Node12</title>
<path fill="none" stroke="#9a32cd" stroke-dasharray="5,2" d="M254.809,-194.697C268.037,-200.317 284.025,-206.35 299,-210 319.484,-214.993 342.289,-218.07 362.833,-219.966"/>
<polygon fill="#9a32cd" stroke="#9a32cd" points="255.858,-191.335 245.294,-190.525 253.047,-197.746 255.858,-191.335"/>
<text text-anchor="middle" x="322" y="-221" font-family="Helvetica,sans-Serif" font-size="10.00"> dataIndex</text>
</g>
<!-- Node8&#45;&gt;Node5 -->
<g id="edge10" class="edge"><title>Node8&#45;&gt;Node5</title>
<path fill="none" stroke="#9a32cd" stroke-dasharray="5,2" d="M500.343,-106.243C553.172,-107.169 626.239,-109.998 690,-118 726.73,-122.61 768.017,-131.526 797.114,-138.445"/>
<polygon fill="#9a32cd" stroke="#9a32cd" points="500.109,-102.739 490.056,-106.082 500,-109.738 500.109,-102.739"/>
<text text-anchor="middle" x="635.5" y="-121" font-family="Helvetica,sans-Serif" font-size="10.00"> objectString</text>
</g>
<!-- Node8&#45;&gt;Node6 -->
<g id="edge5" class="edge"><title>Node8&#45;&gt;Node6</title>
<path fill="none" stroke="#9a32cd" stroke-dasharray="5,2" d="M500.252,-120.761C529.223,-126.64 561.73,-133.235 587.499,-138.464"/>
<polygon fill="#9a32cd" stroke="#9a32cd" points="500.665,-117.274 490.169,-118.715 499.273,-124.134 500.665,-117.274"/>
<text text-anchor="middle" x="535.5" y="-137" font-family="Helvetica,sans-Serif" font-size="10.00"> objectString</text>
</g>
<!-- Node9 -->
<g id="node7" class="node"><title>Node9</title>
<g id="a_node7"><a xlink:href="../../d0/d6d/classinfra_1_1_memory_range.html" target="_top" xlink:title="infra::MemoryRange\l\&lt; const char \&gt;">
<polygon fill="white" stroke="black" points="172.5,-95 172.5,-125 276.5,-125 276.5,-95 172.5,-95"/>
<text text-anchor="start" x="180.5" y="-113" font-family="Helvetica,sans-Serif" font-size="10.00">infra::MemoryRange</text>
<text text-anchor="middle" x="224.5" y="-102" font-family="Helvetica,sans-Serif" font-size="10.00">&lt; const char &gt;</text>
</a>
</g>
</g>
<!-- Node9&#45;&gt;Node8 -->
<g id="edge6" class="edge"><title>Node9&#45;&gt;Node8</title>
<path fill="none" stroke="#9a32cd" stroke-dasharray="5,2" d="M287,-106.405C291.06,-106.245 295.088,-106.106 299,-106 319.746,-105.436 342.413,-105.288 362.756,-105.326"/>
<polygon fill="#9a32cd" stroke="#9a32cd" points="286.726,-102.914 276.889,-106.847 287.032,-109.907 286.726,-102.914"/>
<text text-anchor="middle" x="322" y="-109" font-family="Helvetica,sans-Serif" font-size="10.00"> range</text>
</g>
<!-- Node10 -->
<g id="node8" class="node"><title>Node10</title>
<polygon fill="white" stroke="#bfbfbf" points="0,-100.5 0,-119.5 69,-119.5 69,-100.5 0,-100.5"/>
<text text-anchor="middle" x="34.5" y="-107.5" font-family="Helvetica,sans-Serif" font-size="10.00">const char *</text>
</g>
<!-- Node10&#45;&gt;Node9 -->
<g id="edge7" class="edge"><title>Node10&#45;&gt;Node9</title>
<path fill="none" stroke="#9a32cd" stroke-dasharray="5,2" d="M79.344,-110C107.189,-110 143.337,-110 172.47,-110"/>
<polygon fill="#9a32cd" stroke="#9a32cd" points="79.1107,-106.5 69.1106,-110 79.1106,-113.5 79.1107,-106.5"/>
<text text-anchor="middle" x="118.5" y="-124" font-family="Helvetica,sans-Serif" font-size="10.00"> beginElement</text>
<text text-anchor="middle" x="118.5" y="-113" font-family="Helvetica,sans-Serif" font-size="10.00">endElement</text>
</g>
<!-- Node11 -->
<g id="node9" class="node"><title>Node11</title>
<polygon fill="white" stroke="#bfbfbf" points="168,-56.5 168,-75.5 281,-75.5 281,-56.5 168,-56.5"/>
<text text-anchor="middle" x="224.5" y="-63.5" font-family="Helvetica,sans-Serif" font-size="10.00">static const size_type</text>
</g>
<!-- Node11&#45;&gt;Node8 -->
<g id="edge9" class="edge"><title>Node11&#45;&gt;Node8</title>
<path fill="none" stroke="#9a32cd" stroke-dasharray="5,2" d="M283.175,-77.535C308.069,-82.5138 337.255,-88.3509 362.695,-93.4389"/>
<polygon fill="#9a32cd" stroke="#9a32cd" points="283.643,-74.0594 273.151,-75.5302 282.27,-80.9235 283.643,-74.0594"/>
<text text-anchor="middle" x="322" y="-93" font-family="Helvetica,sans-Serif" font-size="10.00"> npos</text>
</g>
<!-- Node12&#45;&gt;Node3 -->
<g id="edge11" class="edge"><title>Node12&#45;&gt;Node3</title>
<path fill="none" stroke="#9a32cd" stroke-dasharray="5,2" d="M500.268,-216.233C602.06,-206.389 792.615,-186.583 954,-162 962.531,-160.7 971.582,-159.141 980.318,-157.541"/>
<polygon fill="#9a32cd" stroke="#9a32cd" points="499.718,-212.77 490.1,-217.212 500.389,-219.738 499.718,-212.77"/>
<text text-anchor="middle" x="735.5" y="-197" font-family="Helvetica,sans-Serif" font-size="10.00"> value</text>
</g>
<!-- Node13 -->
<g id="node11" class="node"><title>Node13</title>
<polygon fill="white" stroke="#bfbfbf" points="207,-256.5 207,-275.5 242,-275.5 242,-256.5 207,-256.5"/>
<text text-anchor="middle" x="224.5" y="-263.5" font-family="Helvetica,sans-Serif" font-size="10.00">type</text>
</g>
<!-- Node13&#45;&gt;Node12 -->
<g id="edge14" class="edge"><title>Node13&#45;&gt;Node12</title>
<path fill="none" stroke="#9a32cd" stroke-dasharray="5,2" d="M252.092,-260.283C280.224,-254.234 325.611,-244.476 362.896,-236.46"/>
<polygon fill="#9a32cd" stroke="#9a32cd" points="251.249,-256.884 242.208,-262.408 252.72,-263.728 251.249,-256.884"/>
<text text-anchor="middle" x="322" y="-252" font-family="Helvetica,sans-Serif" font-size="10.00"> data</text>
</g>
<!-- Node14 -->
<g id="node12" class="node"><title>Node14</title>
<polygon fill="white" stroke="#bfbfbf" points="790,-100.5 790,-119.5 882,-119.5 882,-100.5 790,-100.5"/>
<text text-anchor="middle" x="836" y="-107.5" font-family="Helvetica,sans-Serif" font-size="10.00">anonymous:state</text>
</g>
<!-- Node14&#45;&gt;Node3 -->
<g id="edge15" class="edge"><title>Node14&#45;&gt;Node3</title>
<path fill="none" stroke="#9a32cd" stroke-dasharray="5,2" d="M891.99,-120.741C911.569,-124.583 933.774,-128.962 954,-133 962.741,-134.745 972.06,-136.621 981.033,-138.436"/>
<polygon fill="#9a32cd" stroke="#9a32cd" points="892.502,-117.275 882.015,-118.785 891.155,-124.144 892.502,-117.275"/>
<text text-anchor="middle" x="931.5" y="-136" font-family="Helvetica,sans-Serif" font-size="10.00"> state</text>
</g>
<!-- Node15 -->
<g id="node13" class="node"><title>Node15</title>
<g id="a_node13"><a xlink:href="../../d4/d83/classinfra_1_1_json_array.html" target="_top" xlink:title="infra::JsonArray">
<polygon fill="white" stroke="black" points="794,-44.5 794,-63.5 878,-63.5 878,-44.5 794,-44.5"/>
<text text-anchor="middle" x="836" y="-51.5" font-family="Helvetica,sans-Serif" font-size="10.00">infra::JsonArray</text>
</a>
</g>
</g>
<!-- Node15&#45;&gt;Node3 -->
<g id="edge16" class="edge"><title>Node15&#45;&gt;Node3</title>
<path fill="none" stroke="#9a32cd" stroke-dasharray="5,2" d="M866.549,-67.863C890.271,-79.0597 924.388,-95.3141 954,-110 973.149,-119.497 994.89,-130.714 1009.83,-138.488"/>
<polygon fill="#9a32cd" stroke="#9a32cd" points="867.913,-64.6366 857.375,-63.5404 864.929,-70.9689 867.913,-64.6366"/>
<text text-anchor="middle" x="931.5" y="-113" font-family="Helvetica,sans-Serif" font-size="10.00"> jsonArray</text>
</g>
<!-- Node16 -->
<g id="node14" class="node"><title>Node16</title>
<polygon fill="white" stroke="#bfbfbf" points="618,-0.5 618,-19.5 653,-19.5 653,-0.5 618,-0.5"/>
<text text-anchor="middle" x="635.5" y="-7.5" font-family="Helvetica,sans-Serif" font-size="10.00">bool</text>
</g>
<!-- Node16&#45;&gt;Node15 -->
<g id="edge17" class="edge"><title>Node16&#45;&gt;Node15</title>
<path fill="none" stroke="#9a32cd" stroke-dasharray="5,2" d="M663.031,-15.881C696.484,-23.2962 754.363,-36.1257 793.642,-44.8324"/>
<polygon fill="#9a32cd" stroke="#9a32cd" points="663.603,-12.4228 653.083,-13.6757 662.088,-19.257 663.603,-12.4228"/>
<text text-anchor="middle" x="735.5" y="-41" font-family="Helvetica,sans-Serif" font-size="10.00"> error</text>
</g>
<!-- Node17 -->
<g id="node15" class="node"><title>Node17</title>
<polygon fill="white" stroke="#bfbfbf" points="581,-39 581,-69 690,-69 690,-39 581,-39"/>
<text text-anchor="start" x="589" y="-57" font-family="Helvetica,sans-Serif" font-size="10.00">BoundedStringBase&lt;</text>
<text text-anchor="middle" x="635.5" y="-46" font-family="Helvetica,sans-Serif" font-size="10.00"> const char &gt;</text>
</g>
<!-- Node17&#45;&gt;Node15 -->
<g id="edge18" class="edge"><title>Node17&#45;&gt;Node15</title>
<path fill="none" stroke="#9a32cd" stroke-dasharray="5,2" d="M700.391,-54C731.036,-54 766.855,-54 793.837,-54"/>
<polygon fill="#9a32cd" stroke="#9a32cd" points="700.217,-50.5001 690.217,-54 700.217,-57.5001 700.217,-50.5001"/>
<text text-anchor="middle" x="735.5" y="-57" font-family="Helvetica,sans-Serif" font-size="10.00"> objectString</text>
</g>
</g>
</svg>
        <g id="navigator" transform="translate(0 0)" fill="#404254">
                <rect fill="#f2f5e9" fill-opacity="0.5" stroke="#606060" stroke-width=".5" x="0" y="0" width="60" height="60"/>
                <use id="zoomplus" xlink:href="#zoomPlus" x="17" y="9" onmousedown="handleZoom(evt,'in')"/>
                <use id="zoomminus" xlink:href="#zoomMin" x="42" y="9" onmousedown="handleZoom(evt,'out')"/>
                <use id="reset" xlink:href="#resetDef" x="30" y="36" onmousedown="handleReset()"/>
                <g id="arrowUp" xlink:href="#dirArrow" transform="translate(30 24)" onmousedown="handlePan(0,-1)">
                  <use xlink:href="#rim" fill="#404040">
                        <set attributeName="fill" to="#808080" begin="arrowUp.mouseover" end="arrowUp.mouseout"/>
                  </use>
                  <path fill="none" stroke="white" stroke-width="1.5" d="M0,-3.0v7 M-2.5,-0.5L0,-3.0L2.5,-0.5"/>
                </g>
                <g id="arrowRight" xlink:href="#dirArrow" transform="rotate(90) translate(36 -43)" onmousedown="handlePan(1,0)">
                  <use xlink:href="#rim" fill="#404040">
                        <set attributeName="fill" to="#808080" begin="arrowRight.mouseover" end="arrowRight.mouseout"/>
                  </use>
                  <path fill="none" stroke="white" stroke-width="1.5" d="M0,-3.0v7 M-2.5,-0.5L0,-3.0L2.5,-0.5"/>
                </g>
                <g id="arrowDown" xlink:href="#dirArrow" transform="rotate(180) translate(-30 -48)" onmousedown="handlePan(0,1)">
                  <use xlink:href="#rim" fill="#404040">
                        <set attributeName="fill" to="#808080" begin="arrowDown.mouseover" end="arrowDown.mouseout"/>
                  </use>
                  <path fill="none" stroke="white" stroke-width="1.5" d="M0,-3.0v7 M-2.5,-0.5L0,-3.0L2.5,-0.5"/>
                </g>
                <g id="arrowLeft" xlink:href="#dirArrow" transform="rotate(270) translate(-36 17)" onmousedown="handlePan(-1,0)">
                  <use xlink:href="#rim" fill="#404040">
                        <set attributeName="fill" to="#808080" begin="arrowLeft.mouseover" end="arrowLeft.mouseout"/>
                  </use>
                  <path fill="none" stroke="white" stroke-width="1.5" d="M0,-3.0v7 M-2.5,-0.5L0,-3.0L2.5,-0.5"/>
                </g>
        </g>
        <svg viewBox="0 0 15 15" width="100%" height="30px" preserveAspectRatio="xMaxYMin meet">
         <g id="arrow_out" transform="scale(0.3 0.3)">
          <a xlink:href="classinfra_1_1_json_array_iterator__coll__graph_org.svg" target="_base">
           <rect id="button" ry="5" rx="5" y="6" x="6" height="38" width="38"
                fill="#f2f5e9" fill-opacity="0.5" stroke="#606060" stroke-width="1.0"/>
           <path id="arrow"
             d="M 11.500037,31.436501 C 11.940474,20.09759 22.043105,11.32322 32.158766,21.979434 L 37.068811,17.246167 C 37.068811,17.246167 37.088388,32 37.088388,32 L 22.160133,31.978069 C 22.160133,31.978069 26.997745,27.140456 26.997745,27.140456 C 18.528582,18.264221 13.291696,25.230495 11.500037,31.436501 z"
             style="fill:#404040;"/>
          </a>
         </g>
        </svg>
</svg>
