<?xml version="1.0" encoding="UTF-8" standalone="no"?>
<!DOCTYPE svg PUBLIC "-//W3C//DTD SVG 1.1//EN"
 "http://www.w3.org/Graphics/SVG/1.1/DTD/svg11.dtd">
<!-- Generated by graphviz version 2.38.0 (20140413.2041)
 -->
<!-- Title: application::SparseVector::Size Pages: 1 -->
<svg width="300pt" height="39pt"
 viewBox="0.00 0.00 300.00 39.00" xmlns="http://www.w3.org/2000/svg" xmlns:xlink="http://www.w3.org/1999/xlink">
<g id="graph0" class="graph" transform="scale(1 1) rotate(0) translate(4 35)">
<title>application::SparseVector::Size</title>
<polygon fill="white" stroke="none" points="-4,4 -4,-35 296,-35 296,4 -4,4"/>
<!-- Node24 -->
<g id="node1" class="node"><title>Node24</title>
<polygon fill="#bfbfbf" stroke="black" points="0,-0.5 0,-30.5 128,-30.5 128,-0.5 0,-0.5"/>
<text text-anchor="start" x="8" y="-18.5" font-family="Helvetica,sans-Serif" font-size="10.00">application::SparseVector</text>
<text text-anchor="middle" x="64" y="-7.5" font-family="Helvetica,sans-Serif" font-size="10.00">::Size</text>
</g>
<!-- Node25 -->
<g id="node2" class="node"><title>Node25</title>
<g id="a_node2"><a xlink:href="../../dd/d04/classapplication_1_1_sparse_vector.html#a4ff767c1d78a09ec389f57c5c91dfafa" target="_top" xlink:title="application::SparseVector\l\&lt; uint8_t \&gt;::end">
<polygon fill="white" stroke="black" points="164,-0.5 164,-30.5 292,-30.5 292,-0.5 164,-0.5"/>
<text text-anchor="start" x="172" y="-18.5" font-family="Helvetica,sans-Serif" font-size="10.00">application::SparseVector</text>
<text text-anchor="middle" x="228" y="-7.5" font-family="Helvetica,sans-Serif" font-size="10.00">&lt; uint8_t &gt;::end</text>
</a>
</g>
</g>
<!-- Node24&#45;&gt;Node25 -->
<g id="edge1" class="edge"><title>Node24&#45;&gt;Node25</title>
<path fill="none" stroke="midnightblue" d="M138.374,-15.5C146.865,-15.5 155.469,-15.5 163.808,-15.5"/>
<polygon fill="midnightblue" stroke="midnightblue" points="138.097,-12.0001 128.097,-15.5 138.097,-19.0001 138.097,-12.0001"/>
</g>
</g>
</svg>
