<?xml version="1.0" encoding="UTF-8" standalone="no"?>
<!DOCTYPE svg PUBLIC "-//W3C//DTD SVG 1.1//EN"
 "http://www.w3.org/Graphics/SVG/1.1/DTD/svg11.dtd">
<!-- Generated by graphviz version 2.38.0 (20140413.2041)
 -->
<!-- Title: application::SparseVector::Insert Pages: 1 -->
<svg width="762pt" height="88pt"
 viewBox="0.00 0.00 762.00 88.00" xmlns="http://www.w3.org/2000/svg" xmlns:xlink="http://www.w3.org/1999/xlink">
<g id="graph0" class="graph" transform="scale(1 1) rotate(0) translate(4 84)">
<title>application::SparseVector::Insert</title>
<polygon fill="white" stroke="none" points="-4,4 -4,-84 758,-84 758,4 -4,4"/>
<!-- Node9 -->
<g id="node1" class="node"><title>Node9</title>
<polygon fill="#bfbfbf" stroke="black" points="0,-24.5 0,-54.5 128,-54.5 128,-24.5 0,-24.5"/>
<text text-anchor="start" x="8" y="-42.5" font-family="Helvetica,sans-Serif" font-size="10.00">application::SparseVector</text>
<text text-anchor="middle" x="64" y="-31.5" font-family="Helvetica,sans-Serif" font-size="10.00">::Insert</text>
</g>
<!-- Node10 -->
<g id="node2" class="node"><title>Node10</title>
<g id="a_node2"><a xlink:href="../../d5/df0/classapplication_1_1_binary_object.html#af91a58a0d4c529ccb3b6d2822ab351fb" target="_top" xlink:title="application::BinaryObject\l::AddBinary">
<polygon fill="white" stroke="black" points="164,-49.5 164,-79.5 289,-79.5 289,-49.5 164,-49.5"/>
<text text-anchor="start" x="172" y="-67.5" font-family="Helvetica,sans-Serif" font-size="10.00">application::BinaryObject</text>
<text text-anchor="middle" x="226.5" y="-56.5" font-family="Helvetica,sans-Serif" font-size="10.00">::AddBinary</text>
</a>
</g>
</g>
<!-- Node9&#45;&gt;Node10 -->
<g id="edge1" class="edge"><title>Node9&#45;&gt;Node10</title>
<path fill="none" stroke="midnightblue" d="M138.361,-50.927C146.878,-52.2536 155.499,-53.5965 163.837,-54.8952"/>
<polygon fill="midnightblue" stroke="midnightblue" points="138.853,-47.4615 128.434,-49.3807 137.776,-54.3781 138.853,-47.4615"/>
</g>
<!-- Node11 -->
<g id="node3" class="node"><title>Node11</title>
<g id="a_node3"><a xlink:href="../../d5/df0/classapplication_1_1_binary_object.html#a609e7c790abb156244690a25cd73e7bb" target="_top" xlink:title="application::BinaryObject\l::InsertLineContents">
<polygon fill="white" stroke="black" points="164,-0.5 164,-30.5 289,-30.5 289,-0.5 164,-0.5"/>
<text text-anchor="start" x="172" y="-18.5" font-family="Helvetica,sans-Serif" font-size="10.00">application::BinaryObject</text>
<text text-anchor="middle" x="226.5" y="-7.5" font-family="Helvetica,sans-Serif" font-size="10.00">::InsertLineContents</text>
</a>
</g>
</g>
<!-- Node9&#45;&gt;Node11 -->
<g id="edge2" class="edge"><title>Node9&#45;&gt;Node11</title>
<path fill="none" stroke="midnightblue" d="M138.361,-28.5301C146.878,-27.2565 155.499,-25.9674 163.837,-24.7206"/>
<polygon fill="midnightblue" stroke="midnightblue" points="137.806,-25.0741 128.434,-30.0146 138.842,-31.9971 137.806,-25.0741"/>
</g>
<!-- Node12 -->
<g id="node4" class="node"><title>Node12</title>
<g id="a_node4"><a xlink:href="../../d5/df0/classapplication_1_1_binary_object.html#aa3908cfec7241bba431ccb47667c7eea" target="_top" xlink:title="application::BinaryObject\l::AddLine">
<polygon fill="white" stroke="black" points="325,-0.5 325,-30.5 450,-30.5 450,-0.5 325,-0.5"/>
<text text-anchor="start" x="333" y="-18.5" font-family="Helvetica,sans-Serif" font-size="10.00">application::BinaryObject</text>
<text text-anchor="middle" x="387.5" y="-7.5" font-family="Helvetica,sans-Serif" font-size="10.00">::AddLine</text>
</a>
</g>
</g>
<!-- Node11&#45;&gt;Node12 -->
<g id="edge3" class="edge"><title>Node11&#45;&gt;Node12</title>
<path fill="none" stroke="midnightblue" d="M299.592,-15.5C307.99,-15.5 316.499,-15.5 324.74,-15.5"/>
<polygon fill="midnightblue" stroke="midnightblue" points="299.429,-12.0001 289.429,-15.5 299.429,-19.0001 299.429,-12.0001"/>
</g>
<!-- Node13 -->
<g id="node5" class="node"><title>Node13</title>
<g id="a_node5"><a xlink:href="../../d5/df0/classapplication_1_1_binary_object.html#a4f2f3da377d6ed3915ea08bad1749965" target="_top" xlink:title="application::BinaryObject\l::AddHex">
<polygon fill="white" stroke="black" points="486,-0.5 486,-30.5 611,-30.5 611,-0.5 486,-0.5"/>
<text text-anchor="start" x="494" y="-18.5" font-family="Helvetica,sans-Serif" font-size="10.00">application::BinaryObject</text>
<text text-anchor="middle" x="548.5" y="-7.5" font-family="Helvetica,sans-Serif" font-size="10.00">::AddHex</text>
</a>
</g>
</g>
<!-- Node12&#45;&gt;Node13 -->
<g id="edge4" class="edge"><title>Node12&#45;&gt;Node13</title>
<path fill="none" stroke="midnightblue" d="M460.592,-15.5C468.99,-15.5 477.499,-15.5 485.74,-15.5"/>
<polygon fill="midnightblue" stroke="midnightblue" points="460.429,-12.0001 450.429,-15.5 460.429,-19.0001 460.429,-12.0001"/>
</g>
<!-- Node14 -->
<g id="node6" class="node"><title>Node14</title>
<g id="a_node6"><a xlink:href="../../dd/dac/classapplication_1_1_input_hex.html#a7416ca9974689771d7cff64670871f3a" target="_top" xlink:title="application::InputHex\l::InputHex">
<polygon fill="white" stroke="black" points="647,-0.5 647,-30.5 754,-30.5 754,-0.5 647,-0.5"/>
<text text-anchor="start" x="655" y="-18.5" font-family="Helvetica,sans-Serif" font-size="10.00">application::InputHex</text>
<text text-anchor="middle" x="700.5" y="-7.5" font-family="Helvetica,sans-Serif" font-size="10.00">::InputHex</text>
</a>
</g>
</g>
<!-- Node13&#45;&gt;Node14 -->
<g id="edge5" class="edge"><title>Node13&#45;&gt;Node14</title>
<path fill="none" stroke="midnightblue" d="M621.397,-15.5C629.977,-15.5 638.611,-15.5 646.85,-15.5"/>
<polygon fill="midnightblue" stroke="midnightblue" points="621.377,-12.0001 611.377,-15.5 621.377,-19.0001 621.377,-12.0001"/>
</g>
</g>
</svg>
