<?xml version="1.0" encoding="UTF-8" standalone="no"?>
<!DOCTYPE svg PUBLIC "-//W3C//DTD SVG 1.1//EN"
 "http://www.w3.org/Graphics/SVG/1.1/DTD/svg11.dtd">
<!-- Generated by graphviz version 2.38.0 (20140413.2041)
 -->
<!-- Title: infra::ProtoParser::GetField Pages: 1 -->
<svg width="513pt" height="155pt"
 viewBox="0.00 0.00 513.00 155.00" xmlns="http://www.w3.org/2000/svg" xmlns:xlink="http://www.w3.org/1999/xlink">
<g id="graph0" class="graph" transform="scale(1 1) rotate(0) translate(4 151)">
<title>infra::ProtoParser::GetField</title>
<polygon fill="white" stroke="none" points="-4,4 -4,-151 509,-151 509,4 -4,4"/>
<!-- Node6 -->
<g id="node1" class="node"><title>Node6</title>
<polygon fill="#bfbfbf" stroke="black" points="0,-73.5 0,-103.5 92,-103.5 92,-73.5 0,-73.5"/>
<text text-anchor="start" x="8" y="-91.5" font-family="Helvetica,sans-Serif" font-size="10.00">infra::ProtoParser</text>
<text text-anchor="middle" x="46" y="-80.5" font-family="Helvetica,sans-Serif" font-size="10.00">::GetField</text>
</g>
<!-- Node7 -->
<g id="node2" class="node"><title>Node7</title>
<g id="a_node2"><a xlink:href="../../db/dda/classinfra_1_1_input_stream.html#ae6c6c4af7669aa70e60847a11ffd8e85" target="_top" xlink:title="infra::InputStream\l::Failed">
<polygon fill="white" stroke="black" points="256,-71.5 256,-101.5 349,-101.5 349,-71.5 256,-71.5"/>
<text text-anchor="start" x="264" y="-89.5" font-family="Helvetica,sans-Serif" font-size="10.00">infra::InputStream</text>
<text text-anchor="middle" x="302.5" y="-78.5" font-family="Helvetica,sans-Serif" font-size="10.00">::Failed</text>
</a>
</g>
</g>
<!-- Node6&#45;&gt;Node7 -->
<g id="edge1" class="edge"><title>Node6&#45;&gt;Node7</title>
<path fill="none" stroke="midnightblue" d="M64.8958,-103.637C80.4424,-115.73 104.153,-131.733 128,-138.5 167.336,-149.663 180.749,-149.955 220,-138.5 240.663,-132.469 261.078,-119.43 276.307,-107.919"/>
<polygon fill="midnightblue" stroke="midnightblue" points="278.488,-110.656 284.202,-101.734 274.171,-105.145 278.488,-110.656"/>
</g>
<!-- Node9 -->
<g id="node4" class="node"><title>Node9</title>
<g id="a_node4"><a xlink:href="../../de/db9/classinfra_1_1_proto_parser.html#a67885de2711f77d17d629b6c9b517982" target="_top" xlink:title="infra::ProtoParser\l::GetFixed32">
<polygon fill="white" stroke="black" points="128,-98.5 128,-128.5 220,-128.5 220,-98.5 128,-98.5"/>
<text text-anchor="start" x="136" y="-116.5" font-family="Helvetica,sans-Serif" font-size="10.00">infra::ProtoParser</text>
<text text-anchor="middle" x="174" y="-105.5" font-family="Helvetica,sans-Serif" font-size="10.00">::GetFixed32</text>
</a>
</g>
</g>
<!-- Node6&#45;&gt;Node9 -->
<g id="edge3" class="edge"><title>Node6&#45;&gt;Node9</title>
<path fill="none" stroke="midnightblue" d="M92.133,-97.455C100.457,-99.1065 109.234,-100.848 117.815,-102.551"/>
<polygon fill="midnightblue" stroke="midnightblue" points="117.269,-106.01 127.759,-104.524 118.631,-99.1442 117.269,-106.01"/>
</g>
<!-- Node10 -->
<g id="node5" class="node"><title>Node10</title>
<g id="a_node5"><a xlink:href="../../de/db9/classinfra_1_1_proto_parser.html#a48014b56b9688adf1c4e1d7c7033f683" target="_top" xlink:title="infra::ProtoParser\l::GetFixed64">
<polygon fill="white" stroke="black" points="128,-49.5 128,-79.5 220,-79.5 220,-49.5 128,-49.5"/>
<text text-anchor="start" x="136" y="-67.5" font-family="Helvetica,sans-Serif" font-size="10.00">infra::ProtoParser</text>
<text text-anchor="middle" x="174" y="-56.5" font-family="Helvetica,sans-Serif" font-size="10.00">::GetFixed64</text>
</a>
</g>
</g>
<!-- Node6&#45;&gt;Node10 -->
<g id="edge4" class="edge"><title>Node6&#45;&gt;Node10</title>
<path fill="none" stroke="midnightblue" d="M92.133,-79.9032C100.457,-78.3178 109.234,-76.6459 117.815,-75.0115"/>
<polygon fill="midnightblue" stroke="midnightblue" points="118.59,-78.4268 127.759,-73.1174 117.28,-71.5504 118.59,-78.4268"/>
</g>
<!-- Node11 -->
<g id="node6" class="node"><title>Node11</title>
<g id="a_node6"><a xlink:href="../../de/db9/classinfra_1_1_proto_parser.html#a3ab7e8722bbf3e0a3a0889a2a5146891" target="_top" xlink:title="infra::ProtoParser\l::GetVarInt">
<polygon fill="white" stroke="black" points="128,-0.5 128,-30.5 220,-30.5 220,-0.5 128,-0.5"/>
<text text-anchor="start" x="136" y="-18.5" font-family="Helvetica,sans-Serif" font-size="10.00">infra::ProtoParser</text>
<text text-anchor="middle" x="174" y="-7.5" font-family="Helvetica,sans-Serif" font-size="10.00">::GetVarInt</text>
</a>
</g>
</g>
<!-- Node6&#45;&gt;Node11 -->
<g id="edge5" class="edge"><title>Node6&#45;&gt;Node11</title>
<path fill="none" stroke="midnightblue" d="M72.0696,-73.4002C88.0179,-63.8548 109.144,-51.3218 128,-40.5 130.79,-38.8985 133.686,-37.253 136.602,-35.6076"/>
<polygon fill="midnightblue" stroke="midnightblue" points="138.315,-38.6595 145.326,-30.7157 134.892,-32.5539 138.315,-38.6595"/>
</g>
<!-- Node8 -->
<g id="node3" class="node"><title>Node8</title>
<g id="a_node3"><a xlink:href="../../d5/d4a/classinfra_1_1_stream_error_policy.html#ac1558d645711dd9685f926115719eb15" target="_top" xlink:title="infra::StreamErrorPolicy\l::Failed">
<polygon fill="white" stroke="black" points="385,-71.5 385,-101.5 505,-101.5 505,-71.5 385,-71.5"/>
<text text-anchor="start" x="393" y="-89.5" font-family="Helvetica,sans-Serif" font-size="10.00">infra::StreamErrorPolicy</text>
<text text-anchor="middle" x="445" y="-78.5" font-family="Helvetica,sans-Serif" font-size="10.00">::Failed</text>
</a>
</g>
</g>
<!-- Node7&#45;&gt;Node8 -->
<g id="edge2" class="edge"><title>Node7&#45;&gt;Node8</title>
<path fill="none" stroke="midnightblue" d="M349.116,-86.5C357.294,-86.5 365.982,-86.5 374.652,-86.5"/>
<polygon fill="midnightblue" stroke="midnightblue" points="374.789,-90.0001 384.789,-86.5 374.789,-83.0001 374.789,-90.0001"/>
</g>
<!-- Node11&#45;&gt;Node7 -->
<g id="edge6" class="edge"><title>Node11&#45;&gt;Node7</title>
<path fill="none" stroke="midnightblue" d="M202.144,-30.5413C208.035,-33.8166 214.23,-37.2687 220,-40.5 235.001,-48.9004 251.526,-58.2159 265.752,-66.2546"/>
<polygon fill="midnightblue" stroke="midnightblue" points="264.302,-69.4552 274.73,-71.3303 267.747,-63.3618 264.302,-69.4552"/>
</g>
</g>
</svg>
