<?xml version="1.0" encoding="UTF-8" standalone="no"?>
<!DOCTYPE svg PUBLIC "-//W3C//DTD SVG 1.1//EN"
 "http://www.w3.org/Graphics/SVG/1.1/DTD/svg11.dtd">
<!-- Generated by graphviz version 2.38.0 (20140413.2041)
 -->
<!-- Title: infra::ProtoParser::GetVarInt Pages: 1 -->
<svg width="385pt" height="39pt"
 viewBox="0.00 0.00 385.00 39.00" xmlns="http://www.w3.org/2000/svg" xmlns:xlink="http://www.w3.org/1999/xlink">
<g id="graph0" class="graph" transform="scale(1 1) rotate(0) translate(4 35)">
<title>infra::ProtoParser::GetVarInt</title>
<polygon fill="white" stroke="none" points="-4,4 -4,-35 381,-35 381,4 -4,4"/>
<!-- Node19 -->
<g id="node1" class="node"><title>Node19</title>
<polygon fill="#bfbfbf" stroke="black" points="0,-0.5 0,-30.5 92,-30.5 92,-0.5 0,-0.5"/>
<text text-anchor="start" x="8" y="-18.5" font-family="Helvetica,sans-Serif" font-size="10.00">infra::ProtoParser</text>
<text text-anchor="middle" x="46" y="-7.5" font-family="Helvetica,sans-Serif" font-size="10.00">::GetVarInt</text>
</g>
<!-- Node20 -->
<g id="node2" class="node"><title>Node20</title>
<g id="a_node2"><a xlink:href="../../db/dda/classinfra_1_1_input_stream.html#ae6c6c4af7669aa70e60847a11ffd8e85" target="_top" xlink:title="infra::InputStream\l::Failed">
<polygon fill="white" stroke="black" points="128,-0.5 128,-30.5 221,-30.5 221,-0.5 128,-0.5"/>
<text text-anchor="start" x="136" y="-18.5" font-family="Helvetica,sans-Serif" font-size="10.00">infra::InputStream</text>
<text text-anchor="middle" x="174.5" y="-7.5" font-family="Helvetica,sans-Serif" font-size="10.00">::Failed</text>
</a>
</g>
</g>
<!-- Node19&#45;&gt;Node20 -->
<g id="edge1" class="edge"><title>Node19&#45;&gt;Node20</title>
<path fill="none" stroke="midnightblue" d="M92.3121,-15.5C100.477,-15.5 109.077,-15.5 117.503,-15.5"/>
<polygon fill="midnightblue" stroke="midnightblue" points="117.653,-19.0001 127.653,-15.5 117.653,-12.0001 117.653,-19.0001"/>
</g>
<!-- Node21 -->
<g id="node3" class="node"><title>Node21</title>
<g id="a_node3"><a xlink:href="../../d5/d4a/classinfra_1_1_stream_error_policy.html#ac1558d645711dd9685f926115719eb15" target="_top" xlink:title="infra::StreamErrorPolicy\l::Failed">
<polygon fill="white" stroke="black" points="257,-0.5 257,-30.5 377,-30.5 377,-0.5 257,-0.5"/>
<text text-anchor="start" x="265" y="-18.5" font-family="Helvetica,sans-Serif" font-size="10.00">infra::StreamErrorPolicy</text>
<text text-anchor="middle" x="317" y="-7.5" font-family="Helvetica,sans-Serif" font-size="10.00">::Failed</text>
</a>
</g>
</g>
<!-- Node20&#45;&gt;Node21 -->
<g id="edge2" class="edge"><title>Node20&#45;&gt;Node21</title>
<path fill="none" stroke="midnightblue" d="M221.116,-15.5C229.294,-15.5 237.982,-15.5 246.652,-15.5"/>
<polygon fill="midnightblue" stroke="midnightblue" points="246.789,-19.0001 256.789,-15.5 246.789,-12.0001 246.789,-19.0001"/>
</g>
</g>
</svg>
