<?xml version="1.0" encoding="UTF-8" standalone="no"?>
<!DOCTYPE svg PUBLIC "-//W3C//DTD SVG 1.1//EN"
 "http://www.w3.org/Graphics/SVG/1.1/DTD/svg11.dtd">
<!-- Generated by graphviz version 2.38.0 (20140413.2041)
 -->
<!-- Title: application::UpgradePackBuilder::CreateUpgradePack Pages: 1 -->
<!--zoomable 259 -->
<svg id="main" version="1.1" xmlns="http://www.w3.org/2000/svg" xmlns:xlink="http://www.w3.org/1999/xlink" xml:space="preserve" onload="init(evt)">
<style type="text/css"><![CDATA[
.edge:hover path { stroke: red; }
.edge:hover polygon { stroke: red; fill: red; }
]]></style>
<script type="text/javascript"><![CDATA[
var edges = document.getElementsByTagName('g');
if (edges && edges.length) {
  for (var i=0;i<edges.length;i++) {
    if (edges[i].id.substr(0,4)=='edge') {
      edges[i].setAttribute('class','edge');
    }
  }
}
]]></script>
        <defs>
                <circle id="rim" cx="0" cy="0" r="7"/>
                <circle id="rim2" cx="0" cy="0" r="3.5"/>
                <g id="zoomPlus">
                        <use xlink:href="#rim" fill="#404040">
                                <set attributeName="fill" to="#808080" begin="zoomplus.mouseover" end="zoomplus.mouseout"/>
                        </use>
                        <path d="M-4,0h8M0,-4v8" fill="none" stroke="white" stroke-width="1.5" pointer-events="none"/>
                </g>
                <g id="zoomMin">
                        <use xlink:href="#rim" fill="#404040">
                                <set attributeName="fill" to="#808080" begin="zoomminus.mouseover" end="zoomminus.mouseout"/>
                        </use>
                        <path d="M-4,0h8" fill="none" stroke="white" stroke-width="1.5" pointer-events="none"/>
                </g>
                <g id="dirArrow">
                        <path fill="none" stroke="white" stroke-width="1.5" d="M0,-3.0v7 M-2.5,-0.5L0,-3.0L2.5,-0.5"/>
                </g>
               <g id="resetDef">
                       <use xlink:href="#rim2" fill="#404040">
                               <set attributeName="fill" to="#808080" begin="reset.mouseover" end="reset.mouseout"/>
                       </use>
               </g>
        </defs>

<script type="text/javascript">
var viewWidth = 655;
var viewHeight = 259;
var sectionId = 'dynsection-11';
</script>
<script xlink:href="../../svgpan.js"/>
<svg id="graph" class="graph">
<g id="viewport">
<title>application::UpgradePackBuilder::CreateUpgradePack</title>
<polygon fill="white" stroke="none" points="-4,4 -4,-255 651,-255 651,4 -4,4"/>
<!-- Node45 -->
<g id="node1" class="node"><title>Node45</title>
<polygon fill="#bfbfbf" stroke="black" points="0,-122.5 0,-152.5 140,-152.5 140,-122.5 0,-122.5"/>
<text text-anchor="start" x="8" y="-140.5" font-family="Helvetica,sans-Serif" font-size="10.00">application::UpgradePack</text>
<text text-anchor="middle" x="70" y="-129.5" font-family="Helvetica,sans-Serif" font-size="10.00">Builder::CreateUpgradePack</text>
</g>
<!-- Node46 -->
<g id="node2" class="node"><title>Node46</title>
<g id="a_node2"><a xlink:href="../../db/dab/classapplication_1_1_upgrade_pack_builder.html#a3c32bb010ca8df1f816926377101caab" target="_top" xlink:title="application::UpgradePack\lBuilder::AddEpilogue">
<polygon fill="white" stroke="black" points="195.5,-196.5 195.5,-226.5 323.5,-226.5 323.5,-196.5 195.5,-196.5"/>
<text text-anchor="start" x="203.5" y="-214.5" font-family="Helvetica,sans-Serif" font-size="10.00">application::UpgradePack</text>
<text text-anchor="middle" x="259.5" y="-203.5" font-family="Helvetica,sans-Serif" font-size="10.00">Builder::AddEpilogue</text>
</a>
</g>
</g>
<!-- Node45&#45;&gt;Node46 -->
<g id="edge1" class="edge"><title>Node45&#45;&gt;Node46</title>
<path fill="none" stroke="midnightblue" d="M100.384,-152.588C121.173,-162.921 149.884,-176.508 176,-186.5 182.198,-188.872 188.725,-191.172 195.279,-193.354"/>
<polygon fill="midnightblue" stroke="midnightblue" points="194.276,-196.708 204.868,-196.461 196.434,-190.049 194.276,-196.708"/>
</g>
<!-- Node51 -->
<g id="node7" class="node"><title>Node51</title>
<g id="a_node7"><a xlink:href="../../db/dab/classapplication_1_1_upgrade_pack_builder.html#ad5237b5b88a6b59ab752c42fdfc34e3d" target="_top" xlink:title="application::UpgradePack\lBuilder::AddImages">
<polygon fill="white" stroke="black" points="195.5,-147.5 195.5,-177.5 323.5,-177.5 323.5,-147.5 195.5,-147.5"/>
<text text-anchor="start" x="203.5" y="-165.5" font-family="Helvetica,sans-Serif" font-size="10.00">application::UpgradePack</text>
<text text-anchor="middle" x="259.5" y="-154.5" font-family="Helvetica,sans-Serif" font-size="10.00">Builder::AddImages</text>
</a>
</g>
</g>
<!-- Node45&#45;&gt;Node51 -->
<g id="edge6" class="edge"><title>Node45&#45;&gt;Node51</title>
<path fill="none" stroke="midnightblue" d="M140.019,-146.703C154.697,-148.66 170.245,-150.733 185.08,-152.711"/>
<polygon fill="midnightblue" stroke="midnightblue" points="184.842,-156.21 195.217,-154.062 185.767,-149.271 184.842,-156.21"/>
</g>
<!-- Node52 -->
<g id="node8" class="node"><title>Node52</title>
<g id="a_node8"><a xlink:href="../../db/dab/classapplication_1_1_upgrade_pack_builder.html#a1b80aa84f448859013555a9d77e030fc" target="_top" xlink:title="application::UpgradePack\lBuilder::AddPrologueAndSignature">
<polygon fill="white" stroke="black" points="176,-49.5 176,-79.5 343,-79.5 343,-49.5 176,-49.5"/>
<text text-anchor="start" x="184" y="-67.5" font-family="Helvetica,sans-Serif" font-size="10.00">application::UpgradePack</text>
<text text-anchor="middle" x="259.5" y="-56.5" font-family="Helvetica,sans-Serif" font-size="10.00">Builder::AddPrologueAndSignature</text>
</a>
</g>
</g>
<!-- Node45&#45;&gt;Node52 -->
<g id="edge7" class="edge"><title>Node45&#45;&gt;Node52</title>
<path fill="none" stroke="midnightblue" d="M100.35,-122.321C121.123,-111.946 149.829,-98.3466 176,-88.5 181.366,-86.4809 186.981,-84.5271 192.649,-82.6645"/>
<polygon fill="midnightblue" stroke="midnightblue" points="193.737,-85.9913 202.202,-79.6205 191.611,-79.3217 193.737,-85.9913"/>
</g>
<!-- Node55 -->
<g id="node11" class="node"><title>Node55</title>
<g id="a_node11"><a xlink:href="../../db/dab/classapplication_1_1_upgrade_pack_builder.html#a173565742e1c0fb0cfe7c57b9cc542a6" target="_top" xlink:title="application::UpgradePack\lBuilder::CheckSignature">
<polygon fill="white" stroke="black" points="195.5,-98.5 195.5,-128.5 323.5,-128.5 323.5,-98.5 195.5,-98.5"/>
<text text-anchor="start" x="203.5" y="-116.5" font-family="Helvetica,sans-Serif" font-size="10.00">application::UpgradePack</text>
<text text-anchor="middle" x="259.5" y="-105.5" font-family="Helvetica,sans-Serif" font-size="10.00">Builder::CheckSignature</text>
</a>
</g>
</g>
<!-- Node45&#45;&gt;Node55 -->
<g id="edge10" class="edge"><title>Node45&#45;&gt;Node55</title>
<path fill="none" stroke="midnightblue" d="M140.019,-128.666C154.697,-126.787 170.245,-124.797 185.08,-122.898"/>
<polygon fill="midnightblue" stroke="midnightblue" points="185.742,-126.342 195.217,-121.6 184.853,-119.398 185.742,-126.342"/>
</g>
<!-- Node47 -->
<g id="node3" class="node"><title>Node47</title>
<g id="a_node3"><a xlink:href="../../db/dab/classapplication_1_1_upgrade_pack_builder.html#afac237e4e13d10d8b75ae7f0c3a076a2" target="_top" xlink:title="application::UpgradePack\lBuilder::AssignZeroFilled">
<polygon fill="white" stroke="black" points="379,-196.5 379,-226.5 507,-226.5 507,-196.5 379,-196.5"/>
<text text-anchor="start" x="387" y="-214.5" font-family="Helvetica,sans-Serif" font-size="10.00">application::UpgradePack</text>
<text text-anchor="middle" x="443" y="-203.5" font-family="Helvetica,sans-Serif" font-size="10.00">Builder::AssignZeroFilled</text>
</a>
</g>
</g>
<!-- Node46&#45;&gt;Node47 -->
<g id="edge2" class="edge"><title>Node46&#45;&gt;Node47</title>
<path fill="none" stroke="midnightblue" d="M323.725,-211.5C338.189,-211.5 353.682,-211.5 368.535,-211.5"/>
<polygon fill="midnightblue" stroke="midnightblue" points="368.694,-215 378.694,-211.5 368.694,-208 368.694,-215"/>
</g>
<!-- Node50 -->
<g id="node6" class="node"><title>Node50</title>
<g id="a_node6"><a xlink:href="../../de/d60/classapplication_1_1_image_signer.html#af5a8470d905a09dbc4242a97ea53f7d5" target="_top" xlink:title="application::ImageSigner\l::SignatureLength">
<polygon fill="white" stroke="black" points="381.5,-147.5 381.5,-177.5 504.5,-177.5 504.5,-147.5 381.5,-147.5"/>
<text text-anchor="start" x="389.5" y="-165.5" font-family="Helvetica,sans-Serif" font-size="10.00">application::ImageSigner</text>
<text text-anchor="middle" x="443" y="-154.5" font-family="Helvetica,sans-Serif" font-size="10.00">::SignatureLength</text>
</a>
</g>
</g>
<!-- Node46&#45;&gt;Node50 -->
<g id="edge5" class="edge"><title>Node46&#45;&gt;Node50</title>
<path fill="none" stroke="midnightblue" d="M316.437,-196.399C335.416,-191.275 356.79,-185.504 376.45,-180.197"/>
<polygon fill="midnightblue" stroke="midnightblue" points="377.506,-183.537 386.248,-177.552 375.681,-176.779 377.506,-183.537"/>
</g>
<!-- Node48 -->
<g id="node4" class="node"><title>Node48</title>
<g id="a_node4"><a xlink:href="../../d0/d6d/classinfra_1_1_memory_range.html#a7a83ceae17802af5ecebfb9557912ece" target="_top" xlink:title="infra::MemoryRange\l::begin">
<polygon fill="white" stroke="black" points="543,-220.5 543,-250.5 647,-250.5 647,-220.5 543,-220.5"/>
<text text-anchor="start" x="551" y="-238.5" font-family="Helvetica,sans-Serif" font-size="10.00">infra::MemoryRange</text>
<text text-anchor="middle" x="595" y="-227.5" font-family="Helvetica,sans-Serif" font-size="10.00">::begin</text>
</a>
</g>
</g>
<!-- Node47&#45;&gt;Node48 -->
<g id="edge3" class="edge"><title>Node47&#45;&gt;Node48</title>
<path fill="none" stroke="midnightblue" d="M507.179,-221.609C515.603,-222.957 524.232,-224.337 532.625,-225.68"/>
<polygon fill="midnightblue" stroke="midnightblue" points="532.289,-229.171 542.716,-227.295 533.395,-222.259 532.289,-229.171"/>
</g>
<!-- Node49 -->
<g id="node5" class="node"><title>Node49</title>
<g id="a_node5"><a xlink:href="../../d0/d6d/classinfra_1_1_memory_range.html#ae8fbbf531d3696b6a64ac13385acdc66" target="_top" xlink:title="infra::MemoryRange\l::size">
<polygon fill="white" stroke="black" points="543,-171.5 543,-201.5 647,-201.5 647,-171.5 543,-171.5"/>
<text text-anchor="start" x="551" y="-189.5" font-family="Helvetica,sans-Serif" font-size="10.00">infra::MemoryRange</text>
<text text-anchor="middle" x="595" y="-178.5" font-family="Helvetica,sans-Serif" font-size="10.00">::size</text>
</a>
</g>
</g>
<!-- Node47&#45;&gt;Node49 -->
<g id="edge4" class="edge"><title>Node47&#45;&gt;Node49</title>
<path fill="none" stroke="midnightblue" d="M507.179,-200.97C515.603,-199.566 524.232,-198.128 532.625,-196.729"/>
<polygon fill="midnightblue" stroke="midnightblue" points="533.428,-200.144 542.716,-195.047 532.277,-193.239 533.428,-200.144"/>
</g>
<!-- Node53 -->
<g id="node9" class="node"><title>Node53</title>
<g id="a_node9"><a xlink:href="../../de/d60/classapplication_1_1_image_signer.html#aacffd25652b344775cac8463f88889af" target="_top" xlink:title="application::ImageSigner\l::ImageSignature">
<polygon fill="white" stroke="black" points="381.5,-0.5 381.5,-30.5 504.5,-30.5 504.5,-0.5 381.5,-0.5"/>
<text text-anchor="start" x="389.5" y="-18.5" font-family="Helvetica,sans-Serif" font-size="10.00">application::ImageSigner</text>
<text text-anchor="middle" x="443" y="-7.5" font-family="Helvetica,sans-Serif" font-size="10.00">::ImageSignature</text>
</a>
</g>
</g>
<!-- Node52&#45;&gt;Node53 -->
<g id="edge8" class="edge"><title>Node52&#45;&gt;Node53</title>
<path fill="none" stroke="midnightblue" d="M316.437,-49.3986C335.416,-44.2747 356.79,-38.5044 376.45,-33.1968"/>
<polygon fill="midnightblue" stroke="midnightblue" points="377.506,-36.5371 386.248,-30.5516 375.681,-29.779 377.506,-36.5371"/>
</g>
<!-- Node54 -->
<g id="node10" class="node"><title>Node54</title>
<g id="a_node10"><a xlink:href="../../de/d60/classapplication_1_1_image_signer.html#a0ad1f2de28ef9d8df7851b4daaee76a0" target="_top" xlink:title="application::ImageSigner\l::SignatureMethod">
<polygon fill="white" stroke="black" points="381.5,-49.5 381.5,-79.5 504.5,-79.5 504.5,-49.5 381.5,-49.5"/>
<text text-anchor="start" x="389.5" y="-67.5" font-family="Helvetica,sans-Serif" font-size="10.00">application::ImageSigner</text>
<text text-anchor="middle" x="443" y="-56.5" font-family="Helvetica,sans-Serif" font-size="10.00">::SignatureMethod</text>
</a>
</g>
</g>
<!-- Node52&#45;&gt;Node54 -->
<g id="edge9" class="edge"><title>Node52&#45;&gt;Node54</title>
<path fill="none" stroke="midnightblue" d="M343.018,-64.5C352.407,-64.5 361.915,-64.5 371.135,-64.5"/>
<polygon fill="midnightblue" stroke="midnightblue" points="371.401,-68.0001 381.401,-64.5 371.4,-61.0001 371.401,-68.0001"/>
</g>
<!-- Node55&#45;&gt;Node50 -->
<g id="edge12" class="edge"><title>Node55&#45;&gt;Node50</title>
<path fill="none" stroke="midnightblue" d="M316.437,-128.601C335.416,-133.725 356.79,-139.496 376.45,-144.803"/>
<polygon fill="midnightblue" stroke="midnightblue" points="375.681,-148.221 386.248,-147.448 377.506,-141.463 375.681,-148.221"/>
</g>
<!-- Node56 -->
<g id="node12" class="node"><title>Node56</title>
<g id="a_node12"><a xlink:href="../../de/d60/classapplication_1_1_image_signer.html#a7e04e1204b664207a6eebacc666fe55d" target="_top" xlink:title="application::ImageSigner\l::CheckSignature">
<polygon fill="white" stroke="black" points="381.5,-98.5 381.5,-128.5 504.5,-128.5 504.5,-98.5 381.5,-98.5"/>
<text text-anchor="start" x="389.5" y="-116.5" font-family="Helvetica,sans-Serif" font-size="10.00">application::ImageSigner</text>
<text text-anchor="middle" x="443" y="-105.5" font-family="Helvetica,sans-Serif" font-size="10.00">::CheckSignature</text>
</a>
</g>
</g>
<!-- Node55&#45;&gt;Node56 -->
<g id="edge11" class="edge"><title>Node55&#45;&gt;Node56</title>
<path fill="none" stroke="midnightblue" d="M323.725,-113.5C339.083,-113.5 355.603,-113.5 371.282,-113.5"/>
<polygon fill="midnightblue" stroke="midnightblue" points="371.444,-117 381.444,-113.5 371.444,-110 371.444,-117"/>
</g>
</g>
</svg>
        <g id="navigator" transform="translate(0 0)" fill="#404254">
                <rect fill="#f2f5e9" fill-opacity="0.5" stroke="#606060" stroke-width=".5" x="0" y="0" width="60" height="60"/>
                <use id="zoomplus" xlink:href="#zoomPlus" x="17" y="9" onmousedown="handleZoom(evt,'in')"/>
                <use id="zoomminus" xlink:href="#zoomMin" x="42" y="9" onmousedown="handleZoom(evt,'out')"/>
                <use id="reset" xlink:href="#resetDef" x="30" y="36" onmousedown="handleReset()"/>
                <g id="arrowUp" xlink:href="#dirArrow" transform="translate(30 24)" onmousedown="handlePan(0,-1)">
                  <use xlink:href="#rim" fill="#404040">
                        <set attributeName="fill" to="#808080" begin="arrowUp.mouseover" end="arrowUp.mouseout"/>
                  </use>
                  <path fill="none" stroke="white" stroke-width="1.5" d="M0,-3.0v7 M-2.5,-0.5L0,-3.0L2.5,-0.5"/>
                </g>
                <g id="arrowRight" xlink:href="#dirArrow" transform="rotate(90) translate(36 -43)" onmousedown="handlePan(1,0)">
                  <use xlink:href="#rim" fill="#404040">
                        <set attributeName="fill" to="#808080" begin="arrowRight.mouseover" end="arrowRight.mouseout"/>
                  </use>
                  <path fill="none" stroke="white" stroke-width="1.5" d="M0,-3.0v7 M-2.5,-0.5L0,-3.0L2.5,-0.5"/>
                </g>
                <g id="arrowDown" xlink:href="#dirArrow" transform="rotate(180) translate(-30 -48)" onmousedown="handlePan(0,1)">
                  <use xlink:href="#rim" fill="#404040">
                        <set attributeName="fill" to="#808080" begin="arrowDown.mouseover" end="arrowDown.mouseout"/>
                  </use>
                  <path fill="none" stroke="white" stroke-width="1.5" d="M0,-3.0v7 M-2.5,-0.5L0,-3.0L2.5,-0.5"/>
                </g>
                <g id="arrowLeft" xlink:href="#dirArrow" transform="rotate(270) translate(-36 17)" onmousedown="handlePan(-1,0)">
                  <use xlink:href="#rim" fill="#404040">
                        <set attributeName="fill" to="#808080" begin="arrowLeft.mouseover" end="arrowLeft.mouseout"/>
                  </use>
                  <path fill="none" stroke="white" stroke-width="1.5" d="M0,-3.0v7 M-2.5,-0.5L0,-3.0L2.5,-0.5"/>
                </g>
        </g>
        <svg viewBox="0 0 15 15" width="100%" height="30px" preserveAspectRatio="xMaxYMin meet">
         <g id="arrow_out" transform="scale(0.3 0.3)">
          <a xlink:href="classapplication_1_1_upgrade_pack_builder_af2b0b0df0753894f42d41294a2f47e78_cgraph_org.svg" target="_base">
           <rect id="button" ry="5" rx="5" y="6" x="6" height="38" width="38"
                fill="#f2f5e9" fill-opacity="0.5" stroke="#606060" stroke-width="1.0"/>
           <path id="arrow"
             d="M 11.500037,31.436501 C 11.940474,20.09759 22.043105,11.32322 32.158766,21.979434 L 37.068811,17.246167 C 37.068811,17.246167 37.088388,32 37.088388,32 L 22.160133,31.978069 C 22.160133,31.978069 26.997745,27.140456 26.997745,27.140456 C 18.528582,18.264221 13.291696,25.230495 11.500037,31.436501 z"
             style="fill:#404040;"/>
          </a>
         </g>
        </svg>
</svg>
