<?xml version="1.0" encoding="UTF-8" standalone="no"?>
<!DOCTYPE svg PUBLIC "-//W3C//DTD SVG 1.1//EN"
 "http://www.w3.org/Graphics/SVG/1.1/DTD/svg11.dtd">
<!-- Generated by graphviz version 2.38.0 (20140413.2041)
 -->
<!-- Title: services::ConfigurationStoreImpl&lt; T &gt; Pages: 1 -->
<!--zoomable 259 -->
<svg id="main" version="1.1" xmlns="http://www.w3.org/2000/svg" xmlns:xlink="http://www.w3.org/1999/xlink" xml:space="preserve" onload="init(evt)">
<style type="text/css"><![CDATA[
.edge:hover path { stroke: red; }
.edge:hover polygon { stroke: red; fill: red; }
]]></style>
<script type="text/javascript"><![CDATA[
var edges = document.getElementsByTagName('g');
if (edges && edges.length) {
  for (var i=0;i<edges.length;i++) {
    if (edges[i].id.substr(0,4)=='edge') {
      edges[i].setAttribute('class','edge');
    }
  }
}
]]></script>
        <defs>
                <circle id="rim" cx="0" cy="0" r="7"/>
                <circle id="rim2" cx="0" cy="0" r="3.5"/>
                <g id="zoomPlus">
                        <use xlink:href="#rim" fill="#404040">
                                <set attributeName="fill" to="#808080" begin="zoomplus.mouseover" end="zoomplus.mouseout"/>
                        </use>
                        <path d="M-4,0h8M0,-4v8" fill="none" stroke="white" stroke-width="1.5" pointer-events="none"/>
                </g>
                <g id="zoomMin">
                        <use xlink:href="#rim" fill="#404040">
                                <set attributeName="fill" to="#808080" begin="zoomminus.mouseover" end="zoomminus.mouseout"/>
                        </use>
                        <path d="M-4,0h8" fill="none" stroke="white" stroke-width="1.5" pointer-events="none"/>
                </g>
                <g id="dirArrow">
                        <path fill="none" stroke="white" stroke-width="1.5" d="M0,-3.0v7 M-2.5,-0.5L0,-3.0L2.5,-0.5"/>
                </g>
               <g id="resetDef">
                       <use xlink:href="#rim2" fill="#404040">
                               <set attributeName="fill" to="#808080" begin="reset.mouseover" end="reset.mouseout"/>
                       </use>
               </g>
        </defs>

<script type="text/javascript">
var viewWidth = 640;
var viewHeight = 259;
var sectionId = 'dynsection-1';
</script>
<script xlink:href="../../svgpan.js"/>
<svg id="graph" class="graph">
<g id="viewport">
<title>services::ConfigurationStoreImpl&lt; T &gt;</title>
<polygon fill="white" stroke="none" points="-4,4 -4,-254.5 636,-254.5 636,4 -4,4"/>
<!-- Node5 -->
<g id="node1" class="node"><title>Node5</title>
<polygon fill="#bfbfbf" stroke="black" points="495,-65 495,-95 632,-95 632,-65 495,-65"/>
<text text-anchor="start" x="503" y="-83" font-family="Helvetica,sans-Serif" font-size="10.00">services::ConfigurationStore</text>
<text text-anchor="middle" x="563.5" y="-72" font-family="Helvetica,sans-Serif" font-size="10.00">Impl&lt; T &gt;</text>
</g>
<!-- Node6 -->
<g id="node2" class="node"><title>Node6</title>
<g id="a_node2"><a xlink:href="../../d4/dc9/classservices_1_1_configuration_store_base.html" target="_top" xlink:title="services::ConfigurationStoreBase">
<polygon fill="white" stroke="black" points="240.5,-108.5 240.5,-127.5 400.5,-127.5 400.5,-108.5 240.5,-108.5"/>
<text text-anchor="middle" x="320.5" y="-115.5" font-family="Helvetica,sans-Serif" font-size="10.00">services::ConfigurationStoreBase</text>
</a>
</g>
</g>
<!-- Node6&#45;&gt;Node5 -->
<g id="edge1" class="edge"><title>Node6&#45;&gt;Node5</title>
<path fill="none" stroke="midnightblue" d="M394.146,-106.929C420.276,-102.909 449.969,-98.2989 477,-94 482.793,-93.0786 488.806,-92.1131 494.836,-91.1382"/>
<polygon fill="midnightblue" stroke="midnightblue" points="393.296,-103.518 383.943,-108.496 394.359,-110.437 393.296,-103.518"/>
</g>
<!-- Node7 -->
<g id="node3" class="node"><title>Node7</title>
<g id="a_node3"><a xlink:href="../../d7/d56/classservices_1_1_configuration_store_interface.html" target="_top" xlink:title="services::ConfigurationStore\lInterface">
<polygon fill="white" stroke="black" points="0,-220 0,-250 137,-250 137,-220 0,-220"/>
<text text-anchor="start" x="8" y="-238" font-family="Helvetica,sans-Serif" font-size="10.00">services::ConfigurationStore</text>
<text text-anchor="middle" x="68.5" y="-227" font-family="Helvetica,sans-Serif" font-size="10.00">Interface</text>
</a>
</g>
</g>
<!-- Node7&#45;&gt;Node6 -->
<g id="edge2" class="edge"><title>Node7&#45;&gt;Node6</title>
<path fill="none" stroke="midnightblue" d="M127.851,-216.748C156.762,-206.913 191.848,-193.77 222,-179 253.559,-163.541 287.808,-140.506 306.132,-127.619"/>
<polygon fill="midnightblue" stroke="midnightblue" points="126.665,-213.454 118.299,-219.954 128.893,-220.09 126.665,-213.454"/>
</g>
<!-- Node8 -->
<g id="node4" class="node"><title>Node8</title>
<g id="a_node4"><a xlink:href="../../d5/d33/classinfra_1_1_auto_reset_function.html" target="_top" xlink:title="infra::AutoResetFunction\l\&lt; void()\&gt;">
<polygon fill="white" stroke="black" points="6.5,-171 6.5,-201 130.5,-201 130.5,-171 6.5,-171"/>
<text text-anchor="start" x="14.5" y="-189" font-family="Helvetica,sans-Serif" font-size="10.00">infra::AutoResetFunction</text>
<text text-anchor="middle" x="68.5" y="-178" font-family="Helvetica,sans-Serif" font-size="10.00">&lt; void()&gt;</text>
</a>
</g>
</g>
<!-- Node8&#45;&gt;Node6 -->
<g id="edge3" class="edge"><title>Node8&#45;&gt;Node6</title>
<path fill="none" stroke="#9a32cd" stroke-dasharray="5,2" d="M138.106,-168.365C164.383,-161.516 194.618,-153.522 222,-146 243.737,-140.029 268.112,-133.029 287.053,-127.522"/>
<polygon fill="#9a32cd" stroke="#9a32cd" points="137.04,-165.026 128.243,-170.931 138.802,-171.801 137.04,-165.026"/>
<text text-anchor="middle" x="188.5" y="-167" font-family="Helvetica,sans-Serif" font-size="10.00"> onWriteDone</text>
</g>
<!-- Node9 -->
<g id="node5" class="node"><title>Node9</title>
<g id="a_node5"><a xlink:href="../../d5/d33/classinfra_1_1_auto_reset_function.html" target="_top" xlink:title="infra::AutoResetFunction\l\&lt; void(bool success)\&gt;">
<polygon fill="white" stroke="black" points="6.5,-122 6.5,-152 130.5,-152 130.5,-122 6.5,-122"/>
<text text-anchor="start" x="14.5" y="-140" font-family="Helvetica,sans-Serif" font-size="10.00">infra::AutoResetFunction</text>
<text text-anchor="middle" x="68.5" y="-129" font-family="Helvetica,sans-Serif" font-size="10.00">&lt; void(bool success)&gt;</text>
</a>
</g>
</g>
<!-- Node9&#45;&gt;Node6 -->
<g id="edge4" class="edge"><title>Node9&#45;&gt;Node6</title>
<path fill="none" stroke="#9a32cd" stroke-dasharray="5,2" d="M140.935,-131.571C171.896,-129.218 208.264,-126.454 240.071,-124.037"/>
<polygon fill="#9a32cd" stroke="#9a32cd" points="140.363,-128.104 130.657,-132.352 140.893,-135.084 140.363,-128.104"/>
<text text-anchor="middle" x="188.5" y="-134" font-family="Helvetica,sans-Serif" font-size="10.00"> onRecovered</text>
</g>
<!-- Node10 -->
<g id="node6" class="node"><title>Node10</title>
<polygon fill="white" stroke="#bfbfbf" points="43,-83.5 43,-102.5 94,-102.5 94,-83.5 43,-83.5"/>
<text text-anchor="middle" x="68.5" y="-90.5" font-family="Helvetica,sans-Serif" font-size="10.00">uint32_t</text>
</g>
<!-- Node10&#45;&gt;Node6 -->
<g id="edge5" class="edge"><title>Node10&#45;&gt;Node6</title>
<path fill="none" stroke="#9a32cd" stroke-dasharray="5,2" d="M104.595,-96.5095C139.673,-100.017 194.812,-105.531 240.455,-110.095"/>
<polygon fill="#9a32cd" stroke="#9a32cd" points="104.684,-93.001 94.3849,-95.4885 103.987,-99.9662 104.684,-93.001"/>
<text text-anchor="middle" x="188.5" y="-111" font-family="Helvetica,sans-Serif" font-size="10.00"> lockCount</text>
</g>
<!-- Node11 -->
<g id="node7" class="node"><title>Node11</title>
<polygon fill="white" stroke="#bfbfbf" points="51,-45.5 51,-64.5 86,-64.5 86,-45.5 51,-45.5"/>
<text text-anchor="middle" x="68.5" y="-52.5" font-family="Helvetica,sans-Serif" font-size="10.00">bool</text>
</g>
<!-- Node11&#45;&gt;Node6 -->
<g id="edge6" class="edge"><title>Node11&#45;&gt;Node6</title>
<path fill="none" stroke="#9a32cd" stroke-dasharray="5,2" d="M96.7626,-52.8289C128.884,-51.545 182.829,-53.4786 222,-76 233.253,-82.47 229.076,-91.988 240,-99 246.09,-102.91 252.909,-106.015 259.925,-108.483"/>
<polygon fill="#9a32cd" stroke="#9a32cd" points="96.1684,-49.3558 86.3712,-53.3888 96.5451,-56.3456 96.1684,-49.3558"/>
<text text-anchor="middle" x="188.5" y="-90" font-family="Helvetica,sans-Serif" font-size="10.00"> writingBlob</text>
<text text-anchor="middle" x="188.5" y="-79" font-family="Helvetica,sans-Serif" font-size="10.00">writeRequested</text>
</g>
<!-- Node12 -->
<g id="node8" class="node"><title>Node12</title>
<g id="a_node8"><a xlink:href="../../d1/da2/classservices_1_1_configuration_blob.html" target="_top" xlink:title="services::ConfigurationBlob">
<polygon fill="white" stroke="black" points="1.5,-0.5 1.5,-19.5 135.5,-19.5 135.5,-0.5 1.5,-0.5"/>
<text text-anchor="middle" x="68.5" y="-7.5" font-family="Helvetica,sans-Serif" font-size="10.00">services::ConfigurationBlob</text>
</a>
</g>
</g>
<!-- Node12&#45;&gt;Node6 -->
<g id="edge7" class="edge"><title>Node12&#45;&gt;Node6</title>
<path fill="none" stroke="#9a32cd" stroke-dasharray="5,2" d="M145.816,-3.39903C172.741,-5.02925 201.406,-11.8273 222,-30 245.764,-50.9695 217.36,-76.8216 240,-99 243.852,-102.774 248.312,-105.846 253.115,-108.341"/>
<polygon fill="#9a32cd" stroke="#9a32cd" points="145.728,0.106704 135.603,-3.01432 145.464,-6.88834 145.728,0.106704"/>
<text text-anchor="middle" x="188.5" y="-44" font-family="Helvetica,sans-Serif" font-size="10.00"> activeBlob</text>
<text text-anchor="middle" x="188.5" y="-33" font-family="Helvetica,sans-Serif" font-size="10.00">inactiveBlob</text>
</g>
<!-- Node13 -->
<g id="node9" class="node"><title>Node13</title>
<g id="a_node9"><a xlink:href="../../d3/db6/classservices_1_1_configuration_store.html" target="_top" xlink:title="services::ConfigurationStore\&lt; T \&gt;">
<polygon fill="white" stroke="black" points="240,-70.5 240,-89.5 401,-89.5 401,-70.5 240,-70.5"/>
<text text-anchor="middle" x="320.5" y="-77.5" font-family="Helvetica,sans-Serif" font-size="10.00">services::ConfigurationStore&lt; T &gt;</text>
</a>
</g>
</g>
<!-- Node13&#45;&gt;Node5 -->
<g id="edge8" class="edge"><title>Node13&#45;&gt;Node5</title>
<path fill="none" stroke="midnightblue" d="M411.151,-80C438.805,-80 468.782,-80 494.705,-80"/>
<polygon fill="midnightblue" stroke="midnightblue" points="411.08,-76.5001 401.08,-80 411.08,-83.5001 411.08,-76.5001"/>
</g>
<!-- Node14 -->
<g id="node10" class="node"><title>Node14</title>
<polygon fill="white" stroke="#bfbfbf" points="306,-32.5 306,-51.5 335,-51.5 335,-32.5 306,-32.5"/>
<text text-anchor="middle" x="320.5" y="-39.5" font-family="Helvetica,sans-Serif" font-size="10.00">T</text>
</g>
<!-- Node14&#45;&gt;Node5 -->
<g id="edge9" class="edge"><title>Node14&#45;&gt;Node5</title>
<path fill="none" stroke="#9a32cd" stroke-dasharray="5,2" d="M345.356,-45.3259C375.903,-49.631 430.452,-57.4757 477,-65 482.802,-65.9379 488.821,-66.9381 494.855,-67.96"/>
<polygon fill="#9a32cd" stroke="#9a32cd" points="345.637,-41.8311 335.248,-43.9071 344.664,-48.7632 345.637,-41.8311"/>
<text text-anchor="middle" x="448" y="-68" font-family="Helvetica,sans-Serif" font-size="10.00"> configuration</text>
</g>
</g>
</svg>
        <g id="navigator" transform="translate(0 0)" fill="#404254">
                <rect fill="#f2f5e9" fill-opacity="0.5" stroke="#606060" stroke-width=".5" x="0" y="0" width="60" height="60"/>
                <use id="zoomplus" xlink:href="#zoomPlus" x="17" y="9" onmousedown="handleZoom(evt,'in')"/>
                <use id="zoomminus" xlink:href="#zoomMin" x="42" y="9" onmousedown="handleZoom(evt,'out')"/>
                <use id="reset" xlink:href="#resetDef" x="30" y="36" onmousedown="handleReset()"/>
                <g id="arrowUp" xlink:href="#dirArrow" transform="translate(30 24)" onmousedown="handlePan(0,-1)">
                  <use xlink:href="#rim" fill="#404040">
                        <set attributeName="fill" to="#808080" begin="arrowUp.mouseover" end="arrowUp.mouseout"/>
                  </use>
                  <path fill="none" stroke="white" stroke-width="1.5" d="M0,-3.0v7 M-2.5,-0.5L0,-3.0L2.5,-0.5"/>
                </g>
                <g id="arrowRight" xlink:href="#dirArrow" transform="rotate(90) translate(36 -43)" onmousedown="handlePan(1,0)">
                  <use xlink:href="#rim" fill="#404040">
                        <set attributeName="fill" to="#808080" begin="arrowRight.mouseover" end="arrowRight.mouseout"/>
                  </use>
                  <path fill="none" stroke="white" stroke-width="1.5" d="M0,-3.0v7 M-2.5,-0.5L0,-3.0L2.5,-0.5"/>
                </g>
                <g id="arrowDown" xlink:href="#dirArrow" transform="rotate(180) translate(-30 -48)" onmousedown="handlePan(0,1)">
                  <use xlink:href="#rim" fill="#404040">
                        <set attributeName="fill" to="#808080" begin="arrowDown.mouseover" end="arrowDown.mouseout"/>
                  </use>
                  <path fill="none" stroke="white" stroke-width="1.5" d="M0,-3.0v7 M-2.5,-0.5L0,-3.0L2.5,-0.5"/>
                </g>
                <g id="arrowLeft" xlink:href="#dirArrow" transform="rotate(270) translate(-36 17)" onmousedown="handlePan(-1,0)">
                  <use xlink:href="#rim" fill="#404040">
                        <set attributeName="fill" to="#808080" begin="arrowLeft.mouseover" end="arrowLeft.mouseout"/>
                  </use>
                  <path fill="none" stroke="white" stroke-width="1.5" d="M0,-3.0v7 M-2.5,-0.5L0,-3.0L2.5,-0.5"/>
                </g>
        </g>
        <svg viewBox="0 0 15 15" width="100%" height="30px" preserveAspectRatio="xMaxYMin meet">
         <g id="arrow_out" transform="scale(0.3 0.3)">
          <a xlink:href="classservices_1_1_configuration_store_impl__coll__graph_org.svg" target="_base">
           <rect id="button" ry="5" rx="5" y="6" x="6" height="38" width="38"
                fill="#f2f5e9" fill-opacity="0.5" stroke="#606060" stroke-width="1.0"/>
           <path id="arrow"
             d="M 11.500037,31.436501 C 11.940474,20.09759 22.043105,11.32322 32.158766,21.979434 L 37.068811,17.246167 C 37.068811,17.246167 37.088388,32 37.088388,32 L 22.160133,31.978069 C 22.160133,31.978069 26.997745,27.140456 26.997745,27.140456 C 18.528582,18.264221 13.291696,25.230495 11.500037,31.436501 z"
             style="fill:#404040;"/>
          </a>
         </g>
        </svg>
</svg>
