<?xml version="1.0" encoding="UTF-8" standalone="no"?>
<!DOCTYPE svg PUBLIC "-//W3C//DTD SVG 1.1//EN"
 "http://www.w3.org/Graphics/SVG/1.1/DTD/svg11.dtd">
<!-- Generated by graphviz version 2.38.0 (20140413.2041)
 -->
<!-- Title: services::SynchronousFlashSpi Pages: 1 -->
<svg width="727pt" height="432pt"
 viewBox="0.00 0.00 727.00 432.00" xmlns="http://www.w3.org/2000/svg" xmlns:xlink="http://www.w3.org/1999/xlink">
<g id="graph0" class="graph" transform="scale(1 1) rotate(0) translate(4 428)">
<title>services::SynchronousFlashSpi</title>
<polygon fill="white" stroke="none" points="-4,4 -4,-428 723,-428 723,4 -4,4"/>
<!-- Node3 -->
<g id="node1" class="node"><title>Node3</title>
<polygon fill="#bfbfbf" stroke="black" points="566,-220.5 566,-239.5 719,-239.5 719,-220.5 566,-220.5"/>
<text text-anchor="middle" x="642.5" y="-227.5" font-family="Helvetica,sans-Serif" font-size="10.00">services::SynchronousFlashSpi</text>
</g>
<!-- Node4 -->
<g id="node2" class="node"><title>Node4</title>
<g id="a_node2"><a xlink:href="../../de/d9c/classhal_1_1_synchronous_flash_homogeneous.html" target="_top" xlink:title="hal::SynchronousFlashHomogeneous">
<polygon fill="white" stroke="black" points="249,-404.5 249,-423.5 428,-423.5 428,-404.5 249,-404.5"/>
<text text-anchor="middle" x="338.5" y="-411.5" font-family="Helvetica,sans-Serif" font-size="10.00">hal::SynchronousFlashHomogeneous</text>
</a>
</g>
</g>
<!-- Node4&#45;&gt;Node3 -->
<g id="edge1" class="edge"><title>Node4&#45;&gt;Node3</title>
<path fill="none" stroke="midnightblue" d="M408.108,-402.261C451.291,-392.352 506.502,-374.843 548,-345 589.781,-314.953 623.347,-261.664 636.033,-239.788"/>
<polygon fill="midnightblue" stroke="midnightblue" points="407.257,-398.865 398.248,-404.441 408.768,-405.7 407.257,-398.865"/>
</g>
<!-- Node5 -->
<g id="node3" class="node"><title>Node5</title>
<g id="a_node3"><a xlink:href="../../d5/dff/classhal_1_1_synchronous_flash.html" target="_top" xlink:title="hal::SynchronousFlash">
<polygon fill="white" stroke="black" points="0,-404.5 0,-423.5 116,-423.5 116,-404.5 0,-404.5"/>
<text text-anchor="middle" x="58" y="-411.5" font-family="Helvetica,sans-Serif" font-size="10.00">hal::SynchronousFlash</text>
</a>
</g>
</g>
<!-- Node5&#45;&gt;Node4 -->
<g id="edge2" class="edge"><title>Node5&#45;&gt;Node4</title>
<path fill="none" stroke="midnightblue" d="M126.149,-414C162.942,-414 209.009,-414 248.735,-414"/>
<polygon fill="midnightblue" stroke="midnightblue" points="126.031,-410.5 116.031,-414 126.031,-417.5 126.031,-410.5"/>
</g>
<!-- Node6 -->
<g id="node4" class="node"><title>Node6</title>
<polygon fill="white" stroke="#bfbfbf" points="32.5,-321.5 32.5,-340.5 83.5,-340.5 83.5,-321.5 32.5,-321.5"/>
<text text-anchor="middle" x="58" y="-328.5" font-family="Helvetica,sans-Serif" font-size="10.00">uint32_t</text>
</g>
<!-- Node6&#45;&gt;Node3 -->
<g id="edge9" class="edge"><title>Node6&#45;&gt;Node3</title>
<path fill="none" stroke="#9a32cd" stroke-dasharray="5,2" d="M93.7658,-332.331C175.594,-334.342 385.681,-332.938 548,-275 575.655,-265.129 605.999,-249.584 624.396,-239.593"/>
<polygon fill="#9a32cd" stroke="#9a32cd" points="93.6299,-328.826 83.5357,-332.044 93.4337,-335.823 93.6299,-328.826"/>
<text text-anchor="middle" x="338.5" y="-376" font-family="Helvetica,sans-Serif" font-size="10.00"> address</text>
<text text-anchor="middle" x="338.5" y="-365" font-family="Helvetica,sans-Serif" font-size="10.00">sizePage</text>
<text text-anchor="middle" x="338.5" y="-354" font-family="Helvetica,sans-Serif" font-size="10.00">sizeSector</text>
<text text-anchor="middle" x="338.5" y="-343" font-family="Helvetica,sans-Serif" font-size="10.00">sizeSubSector</text>
<text text-anchor="middle" x="338.5" y="-332" font-family="Helvetica,sans-Serif" font-size="10.00">sectorIndex</text>
</g>
<!-- Node6&#45;&gt;Node4 -->
<g id="edge3" class="edge"><title>Node6&#45;&gt;Node4</title>
<path fill="none" stroke="#9a32cd" stroke-dasharray="5,2" d="M93.0496,-341.982C130.985,-354.122 194.198,-374.066 249,-390 266.121,-394.978 285.2,-400.194 301.248,-404.487"/>
<polygon fill="#9a32cd" stroke="#9a32cd" points="94.1004,-338.643 83.5093,-338.923 91.9631,-345.309 94.1004,-338.643"/>
<text text-anchor="middle" x="182.5" y="-397" font-family="Helvetica,sans-Serif" font-size="10.00"> sizeOfEachSector</text>
<text text-anchor="middle" x="182.5" y="-386" font-family="Helvetica,sans-Serif" font-size="10.00">numberOfSectors</text>
</g>
<!-- Node10 -->
<g id="node8" class="node"><title>Node10</title>
<g id="a_node8"><a xlink:href="../../dc/dec/structservices_1_1_synchronous_flash_spi_config.html" target="_top" xlink:title="services::SynchronousFlash\lSpiConfig">
<polygon fill="white" stroke="black" points="269,-264 269,-294 408,-294 408,-264 269,-264"/>
<text text-anchor="start" x="277" y="-282" font-family="Helvetica,sans-Serif" font-size="10.00">services::SynchronousFlash</text>
<text text-anchor="middle" x="338.5" y="-271" font-family="Helvetica,sans-Serif" font-size="10.00">SpiConfig</text>
</a>
</g>
</g>
<!-- Node6&#45;&gt;Node10 -->
<g id="edge8" class="edge"><title>Node6&#45;&gt;Node10</title>
<path fill="none" stroke="#9a32cd" stroke-dasharray="5,2" d="M93.3342,-318.032C105.969,-313.666 120.493,-309.118 134,-306 178.276,-295.781 228.928,-289.044 268.621,-284.855"/>
<polygon fill="#9a32cd" stroke="#9a32cd" points="91.916,-314.821 83.6614,-321.463 94.2561,-321.419 91.916,-314.821"/>
<text text-anchor="middle" x="182.5" y="-309" font-family="Helvetica,sans-Serif" font-size="10.00"> numberOfSubSectors</text>
</g>
<!-- Node7 -->
<g id="node5" class="node"><title>Node7</title>
<g id="a_node5"><a xlink:href="../../d0/d6d/classinfra_1_1_memory_range.html" target="_top" xlink:title="infra::MemoryRange\l\&lt; const uint8_t \&gt;">
<polygon fill="white" stroke="black" points="286.5,-215 286.5,-245 390.5,-245 390.5,-215 286.5,-215"/>
<text text-anchor="start" x="294.5" y="-233" font-family="Helvetica,sans-Serif" font-size="10.00">infra::MemoryRange</text>
<text text-anchor="middle" x="338.5" y="-222" font-family="Helvetica,sans-Serif" font-size="10.00">&lt; const uint8_t &gt;</text>
</a>
</g>
</g>
<!-- Node7&#45;&gt;Node3 -->
<g id="edge4" class="edge"><title>Node7&#45;&gt;Node3</title>
<path fill="none" stroke="#9a32cd" stroke-dasharray="5,2" d="M400.912,-230C448.596,-230 514.951,-230 565.9,-230"/>
<polygon fill="#9a32cd" stroke="#9a32cd" points="400.73,-226.5 390.73,-230 400.73,-233.5 400.73,-226.5"/>
<text text-anchor="middle" x="497" y="-233" font-family="Helvetica,sans-Serif" font-size="10.00"> buffer</text>
</g>
<!-- Node8 -->
<g id="node6" class="node"><title>Node8</title>
<polygon fill="white" stroke="#bfbfbf" points="18,-220.5 18,-239.5 98,-239.5 98,-220.5 18,-220.5"/>
<text text-anchor="middle" x="58" y="-227.5" font-family="Helvetica,sans-Serif" font-size="10.00">const uint8_t *</text>
</g>
<!-- Node8&#45;&gt;Node7 -->
<g id="edge5" class="edge"><title>Node8&#45;&gt;Node7</title>
<path fill="none" stroke="#9a32cd" stroke-dasharray="5,2" d="M108.281,-230C158.403,-230 235.718,-230 286.464,-230"/>
<polygon fill="#9a32cd" stroke="#9a32cd" points="108.018,-226.5 98.0175,-230 108.017,-233.5 108.018,-226.5"/>
<text text-anchor="middle" x="182.5" y="-244" font-family="Helvetica,sans-Serif" font-size="10.00"> beginElement</text>
<text text-anchor="middle" x="182.5" y="-233" font-family="Helvetica,sans-Serif" font-size="10.00">endElement</text>
</g>
<!-- Node9 -->
<g id="node7" class="node"><title>Node9</title>
<g id="a_node7"><a xlink:href="../../d9/dad/classhal_1_1_synchronous_spi.html" target="_top" xlink:title="hal::SynchronousSpi">
<polygon fill="white" stroke="black" points="285,-176.5 285,-195.5 392,-195.5 392,-176.5 285,-176.5"/>
<text text-anchor="middle" x="338.5" y="-183.5" font-family="Helvetica,sans-Serif" font-size="10.00">hal::SynchronousSpi</text>
</a>
</g>
</g>
<!-- Node9&#45;&gt;Node3 -->
<g id="edge6" class="edge"><title>Node9&#45;&gt;Node3</title>
<path fill="none" stroke="#9a32cd" stroke-dasharray="5,2" d="M402.192,-194.372C443.613,-199.99 499.083,-207.675 548,-215 559.381,-216.704 571.529,-218.598 583.174,-220.45"/>
<polygon fill="#9a32cd" stroke="#9a32cd" points="402.623,-190.899 392.244,-193.026 401.684,-197.836 402.623,-190.899"/>
<text text-anchor="middle" x="497" y="-218" font-family="Helvetica,sans-Serif" font-size="10.00"> spi</text>
</g>
<!-- Node10&#45;&gt;Node3 -->
<g id="edge7" class="edge"><title>Node10&#45;&gt;Node3</title>
<path fill="none" stroke="#9a32cd" stroke-dasharray="5,2" d="M418.132,-266.242C469.684,-257.877 535.974,-247.122 582.91,-239.506"/>
<polygon fill="#9a32cd" stroke="#9a32cd" points="417.339,-262.825 408.028,-267.881 418.46,-269.734 417.339,-262.825"/>
<text text-anchor="middle" x="497" y="-263" font-family="Helvetica,sans-Serif" font-size="10.00"> config</text>
</g>
<!-- Node11 -->
<g id="node9" class="node"><title>Node11</title>
<polygon fill="white" stroke="#bfbfbf" points="35,-49.5 35,-68.5 81,-68.5 81,-49.5 35,-49.5"/>
<text text-anchor="middle" x="58" y="-56.5" font-family="Helvetica,sans-Serif" font-size="10.00">uint8_t</text>
</g>
<!-- Node11&#45;&gt;Node3 -->
<g id="edge10" class="edge"><title>Node11&#45;&gt;Node3</title>
<path fill="none" stroke="#9a32cd" stroke-dasharray="5,2" d="M91.4918,-58.4707C169.673,-57.5627 366.367,-57.5537 428,-79 518.044,-110.332 604.026,-191.87 632.019,-220.161"/>
<polygon fill="#9a32cd" stroke="#9a32cd" points="91.2269,-54.9737 81.273,-58.6026 91.3174,-61.9731 91.2269,-54.9737"/>
<text text-anchor="middle" x="338.5" y="-159" font-family="Helvetica,sans-Serif" font-size="10.00"> commandReadStatusRegister</text>
<text text-anchor="middle" x="338.5" y="-148" font-family="Helvetica,sans-Serif" font-size="10.00">commandWriteEnable</text>
<text text-anchor="middle" x="338.5" y="-137" font-family="Helvetica,sans-Serif" font-size="10.00">commandEraseSector</text>
<text text-anchor="middle" x="338.5" y="-126" font-family="Helvetica,sans-Serif" font-size="10.00">commandEraseBulk</text>
<text text-anchor="middle" x="338.5" y="-115" font-family="Helvetica,sans-Serif" font-size="10.00">statusFlagWriteInProgress</text>
<text text-anchor="middle" x="338.5" y="-104" font-family="Helvetica,sans-Serif" font-size="10.00">commandReadData</text>
<text text-anchor="middle" x="338.5" y="-93" font-family="Helvetica,sans-Serif" font-size="10.00">commandEraseSubSector</text>
<text text-anchor="middle" x="338.5" y="-82" font-family="Helvetica,sans-Serif" font-size="10.00">commandPageProgram</text>
</g>
<!-- Node12 -->
<g id="node10" class="node"><title>Node12</title>
<g id="a_node10"><a xlink:href="../../df/d0d/structservices_1_1_synchronous_flash_spi_1_1_instruction_and_address.html" target="_top" xlink:title="services::SynchronousFlash\lSpi::InstructionAndAddress">
<polygon fill="white" stroke="black" points="269,-3 269,-33 408,-33 408,-3 269,-3"/>
<text text-anchor="start" x="277" y="-21" font-family="Helvetica,sans-Serif" font-size="10.00">services::SynchronousFlash</text>
<text text-anchor="middle" x="338.5" y="-10" font-family="Helvetica,sans-Serif" font-size="10.00">Spi::InstructionAndAddress</text>
</a>
</g>
</g>
<!-- Node11&#45;&gt;Node12 -->
<g id="edge12" class="edge"><title>Node11&#45;&gt;Node12</title>
<path fill="none" stroke="#9a32cd" stroke-dasharray="5,2" d="M91.3065,-52.5844C104.516,-50.0618 119.963,-47.2397 134,-45 178.697,-37.8682 229.129,-31.1676 268.606,-26.2255"/>
<polygon fill="#9a32cd" stroke="#9a32cd" points="90.4164,-49.1916 81.2627,-54.5264 91.7453,-56.0643 90.4164,-49.1916"/>
<text text-anchor="middle" x="182.5" y="-48" font-family="Helvetica,sans-Serif" font-size="10.00"> instruction</text>
</g>
<!-- Node12&#45;&gt;Node3 -->
<g id="edge11" class="edge"><title>Node12&#45;&gt;Node3</title>
<path fill="none" stroke="#9a32cd" stroke-dasharray="5,2" d="M418.442,-11.274C460.402,-11.6232 510.84,-18.7058 548,-45 610.866,-89.4836 633.965,-188.873 639.852,-220.287"/>
<polygon fill="#9a32cd" stroke="#9a32cd" points="418.233,-7.77478 408.248,-11.318 418.263,-14.7747 418.233,-7.77478"/>
<text text-anchor="middle" x="497" y="-48" font-family="Helvetica,sans-Serif" font-size="10.00"> instructionAndAddress</text>
</g>
<!-- Node13 -->
<g id="node11" class="node"><title>Node13</title>
<polygon fill="white" stroke="#bfbfbf" points="9.5,-0.5 9.5,-19.5 106.5,-19.5 106.5,-0.5 9.5,-0.5"/>
<text text-anchor="middle" x="58" y="-7.5" font-family="Helvetica,sans-Serif" font-size="10.00">array&lt; uint8_t, 3 &gt;</text>
</g>
<!-- Node13&#45;&gt;Node12 -->
<g id="edge13" class="edge"><title>Node13&#45;&gt;Node12</title>
<path fill="none" stroke="#9a32cd" stroke-dasharray="5,2" d="M116.879,-9.47471C150.253,-9.38749 193.002,-9.642 231,-11 243.222,-11.4368 256.22,-12.1136 268.783,-12.8777"/>
<polygon fill="#9a32cd" stroke="#9a32cd" points="116.825,-5.97479 106.838,-9.51191 116.851,-12.9747 116.825,-5.97479"/>
<text text-anchor="middle" x="182.5" y="-14" font-family="Helvetica,sans-Serif" font-size="10.00"> address</text>
</g>
</g>
</svg>
