<?xml version="1.0" encoding="UTF-8" standalone="no"?>
<!DOCTYPE svg PUBLIC "-//W3C//DTD SVG 1.1//EN"
 "http://www.w3.org/Graphics/SVG/1.1/DTD/svg11.dtd">
<!-- Generated by graphviz version 2.38.0 (20140413.2041)
 -->
<!-- Title: infra::EventDispatcherWithWeakPtrWorker::ActionWithWeakPtr&lt; T &gt; Pages: 1 -->
<svg width="414pt" height="138pt"
 viewBox="0.00 0.00 414.00 137.50" xmlns="http://www.w3.org/2000/svg" xmlns:xlink="http://www.w3.org/1999/xlink">
<g id="graph0" class="graph" transform="scale(1 1) rotate(0) translate(4 133.5)">
<title>infra::EventDispatcherWithWeakPtrWorker::ActionWithWeakPtr&lt; T &gt;</title>
<polygon fill="white" stroke="none" points="-4,4 -4,-133.5 410,-133.5 410,4 -4,4"/>
<!-- Node2 -->
<g id="node1" class="node"><title>Node2</title>
<polygon fill="#bfbfbf" stroke="black" points="204,-55 204,-85 406,-85 406,-55 204,-55"/>
<text text-anchor="start" x="212" y="-73" font-family="Helvetica,sans-Serif" font-size="10.00">infra::EventDispatcherWith</text>
<text text-anchor="middle" x="305" y="-62" font-family="Helvetica,sans-Serif" font-size="10.00">WeakPtrWorker::ActionWithWeakPtr&lt; T &gt;</text>
</g>
<!-- Node3 -->
<g id="node2" class="node"><title>Node3</title>
<g id="a_node2"><a xlink:href="../../db/d25/classinfra_1_1_event_dispatcher_with_weak_ptr_worker_1_1_action.html" target="_top" xlink:title="infra::EventDispatcherWith\lWeakPtrWorker::Action">
<polygon fill="white" stroke="black" points="0,-99 0,-129 131,-129 131,-99 0,-99"/>
<text text-anchor="start" x="8" y="-117" font-family="Helvetica,sans-Serif" font-size="10.00">infra::EventDispatcherWith</text>
<text text-anchor="middle" x="65.5" y="-106" font-family="Helvetica,sans-Serif" font-size="10.00">WeakPtrWorker::Action</text>
</a>
</g>
</g>
<!-- Node3&#45;&gt;Node2 -->
<g id="edge1" class="edge"><title>Node3&#45;&gt;Node2</title>
<path fill="none" stroke="midnightblue" d="M141.233,-100.155C167.187,-95.3463 196.409,-89.9326 222.856,-85.0329"/>
<polygon fill="midnightblue" stroke="midnightblue" points="140.279,-96.7718 131.084,-102.035 141.554,-103.655 140.279,-96.7718"/>
</g>
<!-- Node4 -->
<g id="node3" class="node"><title>Node4</title>
<polygon fill="white" stroke="#bfbfbf" points="26.5,-60.5 26.5,-79.5 104.5,-79.5 104.5,-60.5 26.5,-60.5"/>
<text text-anchor="middle" x="65.5" y="-67.5" font-family="Helvetica,sans-Serif" font-size="10.00">WeakPtr&lt; T &gt;</text>
</g>
<!-- Node4&#45;&gt;Node2 -->
<g id="edge2" class="edge"><title>Node4&#45;&gt;Node2</title>
<path fill="none" stroke="#9a32cd" stroke-dasharray="5,2" d="M114.86,-70C140.543,-70 173.099,-70 203.932,-70"/>
<polygon fill="#9a32cd" stroke="#9a32cd" points="114.659,-66.5001 104.658,-70 114.658,-73.5001 114.659,-66.5001"/>
<text text-anchor="middle" x="167.5" y="-73" font-family="Helvetica,sans-Serif" font-size="10.00"> object</text>
</g>
<!-- Node5 -->
<g id="node4" class="node"><title>Node5</title>
<g id="a_node4"><a xlink:href="../../da/d07/classinfra_1_1_function.html" target="_top" xlink:title="infra::Function\&lt; void\l(const infra::SharedPtr\l\&lt; T \&gt; &amp;object)\&gt;">
<polygon fill="white" stroke="black" points="8.5,-0.5 8.5,-41.5 122.5,-41.5 122.5,-0.5 8.5,-0.5"/>
<text text-anchor="start" x="16.5" y="-29.5" font-family="Helvetica,sans-Serif" font-size="10.00">infra::Function&lt; void</text>
<text text-anchor="start" x="16.5" y="-18.5" font-family="Helvetica,sans-Serif" font-size="10.00">(const infra::SharedPtr</text>
<text text-anchor="middle" x="65.5" y="-7.5" font-family="Helvetica,sans-Serif" font-size="10.00">&lt; T &gt; &amp;object)&gt;</text>
</a>
</g>
</g>
<!-- Node5&#45;&gt;Node2 -->
<g id="edge3" class="edge"><title>Node5&#45;&gt;Node2</title>
<path fill="none" stroke="#9a32cd" stroke-dasharray="5,2" d="M132.9,-34.6994C163.427,-40.9976 199.725,-48.4864 231.017,-54.9424"/>
<polygon fill="#9a32cd" stroke="#9a32cd" points="133.285,-31.2052 122.784,-32.6123 131.871,-38.0608 133.285,-31.2052"/>
<text text-anchor="middle" x="167.5" y="-49" font-family="Helvetica,sans-Serif" font-size="10.00"> function</text>
</g>
</g>
</svg>
