<?xml version="1.0" encoding="UTF-8" standalone="no"?>
<!DOCTYPE svg PUBLIC "-//W3C//DTD SVG 1.1//EN"
 "http://www.w3.org/Graphics/SVG/1.1/DTD/svg11.dtd">
<!-- Generated by graphviz version 2.38.0 (20140413.2041)
 -->
<!-- Title: services::EventDispatcherWithNetwork::RegisterDatagram Pages: 1 -->
<svg width="328pt" height="88pt"
 viewBox="0.00 0.00 328.00 88.00" xmlns="http://www.w3.org/2000/svg" xmlns:xlink="http://www.w3.org/1999/xlink">
<g id="graph0" class="graph" transform="scale(1 1) rotate(0) translate(4 84)">
<title>services::EventDispatcherWithNetwork::RegisterDatagram</title>
<polygon fill="white" stroke="none" points="-4,4 -4,-84 324,-84 324,4 -4,4"/>
<!-- Node74 -->
<g id="node1" class="node"><title>Node74</title>
<polygon fill="#bfbfbf" stroke="black" points="0,-24.5 0,-54.5 156,-54.5 156,-24.5 0,-24.5"/>
<text text-anchor="start" x="8" y="-42.5" font-family="Helvetica,sans-Serif" font-size="10.00">services::EventDispatcher</text>
<text text-anchor="middle" x="78" y="-31.5" font-family="Helvetica,sans-Serif" font-size="10.00">WithNetwork::RegisterDatagram</text>
</g>
<!-- Node75 -->
<g id="node2" class="node"><title>Node75</title>
<g id="a_node2"><a xlink:href="../../d0/d67/classservices_1_1_event_dispatcher_with_network.html#a3b4f72ae87f8f3fa158528c356a19328" target="_top" xlink:title="services::EventDispatcher\lWithNetwork::Connect">
<polygon fill="white" stroke="black" points="192,-49.5 192,-79.5 320,-79.5 320,-49.5 192,-49.5"/>
<text text-anchor="start" x="200" y="-67.5" font-family="Helvetica,sans-Serif" font-size="10.00">services::EventDispatcher</text>
<text text-anchor="middle" x="256" y="-56.5" font-family="Helvetica,sans-Serif" font-size="10.00">WithNetwork::Connect</text>
</a>
</g>
</g>
<!-- Node74&#45;&gt;Node75 -->
<g id="edge1" class="edge"><title>Node74&#45;&gt;Node75</title>
<path fill="none" stroke="midnightblue" d="M166.293,-51.8996C174.914,-53.1242 183.545,-54.3501 191.853,-55.5303"/>
<polygon fill="midnightblue" stroke="midnightblue" points="166.589,-48.4066 156.196,-50.4654 165.605,-55.337 166.589,-48.4066"/>
</g>
<!-- Node76 -->
<g id="node3" class="node"><title>Node76</title>
<g id="a_node3"><a xlink:href="../../d0/d67/classservices_1_1_event_dispatcher_with_network.html#a9979ea59f36f3cb94dc696ae6672fbeb" target="_top" xlink:title="services::EventDispatcher\lWithNetwork::Listen">
<polygon fill="white" stroke="black" points="192,-0.5 192,-30.5 320,-30.5 320,-0.5 192,-0.5"/>
<text text-anchor="start" x="200" y="-18.5" font-family="Helvetica,sans-Serif" font-size="10.00">services::EventDispatcher</text>
<text text-anchor="middle" x="256" y="-7.5" font-family="Helvetica,sans-Serif" font-size="10.00">WithNetwork::Listen</text>
</a>
</g>
</g>
<!-- Node74&#45;&gt;Node76 -->
<g id="edge2" class="edge"><title>Node74&#45;&gt;Node76</title>
<path fill="none" stroke="midnightblue" d="M166.293,-27.5964C174.914,-26.4208 183.545,-25.2439 191.853,-24.1109"/>
<polygon fill="midnightblue" stroke="midnightblue" points="165.632,-24.1541 156.196,-28.9733 166.577,-31.0899 165.632,-24.1541"/>
</g>
</g>
</svg>
