<?xml version="1.0" encoding="UTF-8" standalone="no"?>
<!DOCTYPE svg PUBLIC "-//W3C//DTD SVG 1.1//EN"
 "http://www.w3.org/Graphics/SVG/1.1/DTD/svg11.dtd">
<!-- Generated by graphviz version 2.38.0 (20140413.2041)
 -->
<!-- Title: services::EventDispatcherWithNetwork::DeregisterListener Pages: 1 -->
<svg width="311pt" height="88pt"
 viewBox="0.00 0.00 311.00 88.00" xmlns="http://www.w3.org/2000/svg" xmlns:xlink="http://www.w3.org/1999/xlink">
<g id="graph0" class="graph" transform="scale(1 1) rotate(0) translate(4 84)">
<title>services::EventDispatcherWithNetwork::DeregisterListener</title>
<polygon fill="white" stroke="none" points="-4,4 -4,-84 307,-84 307,4 -4,4"/>
<!-- Node42 -->
<g id="node1" class="node"><title>Node42</title>
<polygon fill="#bfbfbf" stroke="black" points="0,-24.5 0,-54.5 157,-54.5 157,-24.5 0,-24.5"/>
<text text-anchor="start" x="8" y="-42.5" font-family="Helvetica,sans-Serif" font-size="10.00">services::EventDispatcher</text>
<text text-anchor="middle" x="78.5" y="-31.5" font-family="Helvetica,sans-Serif" font-size="10.00">WithNetwork::DeregisterListener</text>
</g>
<!-- Node43 -->
<g id="node2" class="node"><title>Node43</title>
<g id="a_node2"><a xlink:href="../../da/d77/classservices_1_1_listener_bsd.html#a9c1514b5a4c0390abd462b2fe0b993fe" target="_top" xlink:title="services::ListenerBsd\l::~ListenerBsd">
<polygon fill="white" stroke="black" points="193,-49.5 193,-79.5 303,-79.5 303,-49.5 193,-49.5"/>
<text text-anchor="start" x="201" y="-67.5" font-family="Helvetica,sans-Serif" font-size="10.00">services::ListenerBsd</text>
<text text-anchor="middle" x="248" y="-56.5" font-family="Helvetica,sans-Serif" font-size="10.00">::~ListenerBsd</text>
</a>
</g>
</g>
<!-- Node42&#45;&gt;Node43 -->
<g id="edge1" class="edge"><title>Node42&#45;&gt;Node43</title>
<path fill="none" stroke="midnightblue" d="M167.474,-52.6304C176.08,-53.9149 184.626,-55.1904 192.748,-56.4026"/>
<polygon fill="midnightblue" stroke="midnightblue" points="167.773,-49.1364 157.366,-51.1217 166.739,-56.0597 167.773,-49.1364"/>
</g>
<!-- Node44 -->
<g id="node3" class="node"><title>Node44</title>
<g id="a_node3"><a xlink:href="../../d2/deb/classservices_1_1_listener_win.html#af4542037088090bc1479311691485edc" target="_top" xlink:title="services::ListenerWin\l::~ListenerWin">
<polygon fill="white" stroke="black" points="193,-0.5 193,-30.5 303,-30.5 303,-0.5 193,-0.5"/>
<text text-anchor="start" x="201" y="-18.5" font-family="Helvetica,sans-Serif" font-size="10.00">services::ListenerWin</text>
<text text-anchor="middle" x="248" y="-7.5" font-family="Helvetica,sans-Serif" font-size="10.00">::~ListenerWin</text>
</a>
</g>
</g>
<!-- Node42&#45;&gt;Node44 -->
<g id="edge2" class="edge"><title>Node42&#45;&gt;Node44</title>
<path fill="none" stroke="midnightblue" d="M167.474,-26.8948C176.08,-25.6617 184.626,-24.4372 192.748,-23.2735"/>
<polygon fill="midnightblue" stroke="midnightblue" points="166.768,-23.4601 157.366,-28.3431 167.761,-30.3893 166.768,-23.4601"/>
</g>
</g>
</svg>
