<?xml version="1.0" encoding="UTF-8" standalone="no"?>
<!DOCTYPE svg PUBLIC "-//W3C//DTD SVG 1.1//EN"
 "http://www.w3.org/Graphics/SVG/1.1/DTD/svg11.dtd">
<!-- Generated by graphviz version 2.38.0 (20140413.2041)
 -->
<!-- Title: infra::JsonObjectFormatter::Add Pages: 1 -->
<svg width="330pt" height="78pt"
 viewBox="0.00 0.00 330.00 77.50" xmlns="http://www.w3.org/2000/svg" xmlns:xlink="http://www.w3.org/1999/xlink">
<g id="graph0" class="graph" transform="scale(1 1) rotate(0) translate(4 73.5)">
<title>infra::JsonObjectFormatter::Add</title>
<polygon fill="white" stroke="none" points="-4,4 -4,-73.5 326,-73.5 326,4 -4,4"/>
<!-- Node27 -->
<g id="node1" class="node"><title>Node27</title>
<polygon fill="#bfbfbf" stroke="black" points="0,-22.5 0,-41.5 155,-41.5 155,-22.5 0,-22.5"/>
<text text-anchor="middle" x="77.5" y="-29.5" font-family="Helvetica,sans-Serif" font-size="10.00">infra::JsonObjectFormatter::Add</text>
</g>
<!-- Node28 -->
<g id="node2" class="node"><title>Node28</title>
<g id="a_node2"><a xlink:href="../../d5/d0c/classinfra_1_1_json_object_formatter.html#ac2041229a3087e80db335a43a8f00293" target="_top" xlink:title="infra::JsonObjectFormatter\l::InsertSeparation">
<polygon fill="white" stroke="black" points="191,-39 191,-69 322,-69 322,-39 191,-39"/>
<text text-anchor="start" x="199" y="-57" font-family="Helvetica,sans-Serif" font-size="10.00">infra::JsonObjectFormatter</text>
<text text-anchor="middle" x="256.5" y="-46" font-family="Helvetica,sans-Serif" font-size="10.00">::InsertSeparation</text>
</a>
</g>
</g>
<!-- Node27&#45;&gt;Node28 -->
<g id="edge1" class="edge"><title>Node27&#45;&gt;Node28</title>
<path fill="none" stroke="midnightblue" d="M155.105,-41.5216C163.701,-42.5899 172.449,-43.6773 181.017,-44.7422"/>
<polygon fill="midnightblue" stroke="midnightblue" points="180.618,-48.2194 190.973,-45.9797 181.481,-41.2729 180.618,-48.2194"/>
</g>
<!-- Node29 -->
<g id="node3" class="node"><title>Node29</title>
<g id="a_node3"><a xlink:href="../../d1/d16/classinfra_1_1_json_string.html#ad263c80c4c79cde62e14e4b83eb34e97" target="_top" xlink:title="infra::JsonString::Raw">
<polygon fill="white" stroke="black" points="201,-0.5 201,-19.5 312,-19.5 312,-0.5 201,-0.5"/>
<text text-anchor="middle" x="256.5" y="-7.5" font-family="Helvetica,sans-Serif" font-size="10.00">infra::JsonString::Raw</text>
</a>
</g>
</g>
<!-- Node27&#45;&gt;Node29 -->
<g id="edge2" class="edge"><title>Node27&#45;&gt;Node29</title>
<path fill="none" stroke="midnightblue" d="M155.105,-22.4784C167.029,-20.9964 179.245,-19.478 190.868,-18.0333"/>
<polygon fill="midnightblue" stroke="midnightblue" points="191.416,-21.4923 200.907,-16.7855 190.552,-14.5458 191.416,-21.4923"/>
</g>
</g>
</svg>
