<?xml version="1.0" encoding="UTF-8" standalone="no"?>
<!DOCTYPE svg PUBLIC "-//W3C//DTD SVG 1.1//EN"
 "http://www.w3.org/Graphics/SVG/1.1/DTD/svg11.dtd">
<!-- Generated by graphviz version 2.38.0 (20140413.2041)
 -->
<!-- Title: services::HttpResponseHeaderBuilder Pages: 1 -->
<svg width="385pt" height="318pt"
 viewBox="0.00 0.00 384.50 318.00" xmlns="http://www.w3.org/2000/svg" xmlns:xlink="http://www.w3.org/1999/xlink">
<g id="graph0" class="graph" transform="scale(1 1) rotate(0) translate(4 314)">
<title>services::HttpResponseHeaderBuilder</title>
<polygon fill="white" stroke="none" points="-4,4 -4,-314 380.5,-314 380.5,4 -4,4"/>
<!-- Node1 -->
<g id="node1" class="node"><title>Node1</title>
<polygon fill="#bfbfbf" stroke="black" points="178,-0.5 178,-30.5 328,-30.5 328,-0.5 178,-0.5"/>
<text text-anchor="start" x="186" y="-18.5" font-family="Helvetica,sans-Serif" font-size="10.00">services::HttpResponseHeader</text>
<text text-anchor="middle" x="253" y="-7.5" font-family="Helvetica,sans-Serif" font-size="10.00">Builder</text>
</g>
<!-- Node2 -->
<g id="node2" class="node"><title>Node2</title>
<g id="a_node2"><a xlink:href="../../de/dad/classinfra_1_1_text_output_stream.html" target="_top" xlink:title="infra::TextOutputStream">
<polygon fill="white" stroke="black" points="193,-78.5 193,-97.5 313,-97.5 313,-78.5 193,-78.5"/>
<text text-anchor="middle" x="253" y="-85.5" font-family="Helvetica,sans-Serif" font-size="10.00">infra::TextOutputStream</text>
</a>
</g>
</g>
<!-- Node2&#45;&gt;Node1 -->
<g id="edge1" class="edge"><title>Node2&#45;&gt;Node1</title>
<path fill="none" stroke="#9a32cd" stroke-dasharray="5,2" d="M253,-68.2362C253,-56.4079 253,-41.3829 253,-30.5762"/>
<polygon fill="#9a32cd" stroke="#9a32cd" points="249.5,-68.3553 253,-78.3553 256.5,-68.3554 249.5,-68.3553"/>
<text text-anchor="middle" x="268.5" y="-52" font-family="Helvetica,sans-Serif" font-size="10.00"> output</text>
</g>
<!-- Node3 -->
<g id="node3" class="node"><title>Node3</title>
<g id="a_node3"><a xlink:href="../../d6/d97/classinfra_1_1_output_stream.html" target="_top" xlink:title="infra::OutputStream">
<polygon fill="white" stroke="black" points="113.5,-145.5 113.5,-164.5 214.5,-164.5 214.5,-145.5 113.5,-145.5"/>
<text text-anchor="middle" x="164" y="-152.5" font-family="Helvetica,sans-Serif" font-size="10.00">infra::OutputStream</text>
</a>
</g>
</g>
<!-- Node3&#45;&gt;Node2 -->
<g id="edge2" class="edge"><title>Node3&#45;&gt;Node2</title>
<path fill="none" stroke="midnightblue" d="M184.446,-139.068C202.013,-126.238 226.731,-108.185 241.187,-97.6273"/>
<polygon fill="midnightblue" stroke="midnightblue" points="182.014,-136.509 176.003,-145.234 186.143,-142.162 182.014,-136.509"/>
</g>
<!-- Node4 -->
<g id="node4" class="node"><title>Node4</title>
<g id="a_node4"><a xlink:href="../../d5/d4a/classinfra_1_1_stream_error_policy.html" target="_top" xlink:title="infra::StreamErrorPolicy">
<polygon fill="white" stroke="black" points="0,-212.5 0,-231.5 120,-231.5 120,-212.5 0,-212.5"/>
<text text-anchor="middle" x="60" y="-219.5" font-family="Helvetica,sans-Serif" font-size="10.00">infra::StreamErrorPolicy</text>
</a>
</g>
</g>
<!-- Node4&#45;&gt;Node3 -->
<g id="edge3" class="edge"><title>Node4&#45;&gt;Node3</title>
<path fill="none" stroke="#9a32cd" stroke-dasharray="5,2" d="M82.7701,-206.769C103.356,-193.903 132.994,-175.379 150.196,-164.627"/>
<polygon fill="#9a32cd" stroke="#9a32cd" points="80.6509,-203.966 74.0259,-212.234 84.3609,-209.902 80.6509,-203.966"/>
<text text-anchor="middle" x="144" y="-186" font-family="Helvetica,sans-Serif" font-size="10.00"> errorPolicy</text>
</g>
<!-- Node5 -->
<g id="node5" class="node"><title>Node5</title>
<polygon fill="white" stroke="#bfbfbf" points="3.5,-290.5 3.5,-309.5 38.5,-309.5 38.5,-290.5 3.5,-290.5"/>
<text text-anchor="middle" x="21" y="-297.5" font-family="Helvetica,sans-Serif" font-size="10.00">bool</text>
</g>
<!-- Node5&#45;&gt;Node4 -->
<g id="edge4" class="edge"><title>Node5&#45;&gt;Node4</title>
<path fill="none" stroke="#9a32cd" stroke-dasharray="5,2" d="M17.5482,-280.364C16.6886,-270.769 17.1372,-259.189 22,-250 26.1639,-242.132 33.7654,-236.04 41.0816,-231.651"/>
<polygon fill="#9a32cd" stroke="#9a32cd" points="14.109,-281.042 18.9721,-290.454 21.0403,-280.063 14.109,-281.042"/>
<text text-anchor="middle" x="50" y="-264" font-family="Helvetica,sans-Serif" font-size="10.00"> checkedFail</text>
<text text-anchor="middle" x="50" y="-253" font-family="Helvetica,sans-Serif" font-size="10.00">failed</text>
</g>
<!-- Node6 -->
<g id="node6" class="node"><title>Node6</title>
<polygon fill="white" stroke="#bfbfbf" points="65,-290.5 65,-309.5 135,-309.5 135,-290.5 65,-290.5"/>
<text text-anchor="middle" x="100" y="-297.5" font-family="Helvetica,sans-Serif" font-size="10.00">FailureMode</text>
</g>
<!-- Node6&#45;&gt;Node4 -->
<g id="edge5" class="edge"><title>Node6&#45;&gt;Node4</title>
<path fill="none" stroke="#9a32cd" stroke-dasharray="5,2" d="M92.7574,-280.977C88.7639,-271.564 83.5069,-259.962 78,-250 74.5112,-243.689 70.0112,-236.939 66.3834,-231.767"/>
<polygon fill="#9a32cd" stroke="#9a32cd" points="89.6252,-282.562 96.6752,-290.471 96.0959,-279.892 89.6252,-282.562"/>
<text text-anchor="middle" x="115.5" y="-258.5" font-family="Helvetica,sans-Serif" font-size="10.00"> failureMode</text>
</g>
<!-- Node7 -->
<g id="node7" class="node"><title>Node7</title>
<g id="a_node7"><a xlink:href="../../de/dba/classinfra_1_1_stream_writer.html" target="_top" xlink:title="infra::StreamWriter">
<polygon fill="white" stroke="black" points="138,-212.5 138,-231.5 236,-231.5 236,-212.5 138,-212.5"/>
<text text-anchor="middle" x="187" y="-219.5" font-family="Helvetica,sans-Serif" font-size="10.00">infra::StreamWriter</text>
</a>
</g>
</g>
<!-- Node7&#45;&gt;Node3 -->
<g id="edge6" class="edge"><title>Node7&#45;&gt;Node3</title>
<path fill="none" stroke="#9a32cd" stroke-dasharray="5,2" d="M180.556,-202.79C176.14,-190.308 170.48,-174.314 167.053,-164.627"/>
<polygon fill="#9a32cd" stroke="#9a32cd" points="177.263,-203.974 183.898,-212.234 183.862,-201.639 177.263,-203.974"/>
<text text-anchor="middle" x="190.5" y="-186" font-family="Helvetica,sans-Serif" font-size="10.00"> writer</text>
</g>
<!-- Node8 -->
<g id="node8" class="node"><title>Node8</title>
<polygon fill="white" stroke="#bfbfbf" points="232.5,-145.5 232.5,-164.5 273.5,-164.5 273.5,-145.5 232.5,-145.5"/>
<text text-anchor="middle" x="253" y="-152.5" font-family="Helvetica,sans-Serif" font-size="10.00">Radix</text>
</g>
<!-- Node8&#45;&gt;Node2 -->
<g id="edge7" class="edge"><title>Node8&#45;&gt;Node2</title>
<path fill="none" stroke="#9a32cd" stroke-dasharray="5,2" d="M253,-135.037C253,-122.67 253,-107.12 253,-97.6273"/>
<polygon fill="#9a32cd" stroke="#9a32cd" points="249.5,-135.234 253,-145.234 256.5,-135.234 249.5,-135.234"/>
<text text-anchor="middle" x="265.5" y="-119" font-family="Helvetica,sans-Serif" font-size="10.00"> radix</text>
</g>
<!-- Node9 -->
<g id="node9" class="node"><title>Node9</title>
<g id="a_node9"><a xlink:href="../../d4/daa/structinfra_1_1_width.html" target="_top" xlink:title="infra::Width">
<polygon fill="white" stroke="black" points="292,-145.5 292,-164.5 358,-164.5 358,-145.5 292,-145.5"/>
<text text-anchor="middle" x="325" y="-152.5" font-family="Helvetica,sans-Serif" font-size="10.00">infra::Width</text>
</a>
</g>
</g>
<!-- Node9&#45;&gt;Node2 -->
<g id="edge8" class="edge"><title>Node9&#45;&gt;Node2</title>
<path fill="none" stroke="#9a32cd" stroke-dasharray="5,2" d="M307.672,-138.356C293.517,-125.578 274.037,-107.992 262.556,-97.6273"/>
<polygon fill="#9a32cd" stroke="#9a32cd" points="305.522,-141.131 315.29,-145.234 310.212,-135.935 305.522,-141.131"/>
<text text-anchor="middle" x="307" y="-119" font-family="Helvetica,sans-Serif" font-size="10.00"> width</text>
</g>
<!-- Node10 -->
<g id="node10" class="node"><title>Node10</title>
<polygon fill="white" stroke="#bfbfbf" points="277.5,-212.5 277.5,-231.5 312.5,-231.5 312.5,-212.5 277.5,-212.5"/>
<text text-anchor="middle" x="295" y="-219.5" font-family="Helvetica,sans-Serif" font-size="10.00">char</text>
</g>
<!-- Node10&#45;&gt;Node9 -->
<g id="edge9" class="edge"><title>Node10&#45;&gt;Node9</title>
<path fill="none" stroke="#9a32cd" stroke-dasharray="5,2" d="M292.633,-202.083C292.579,-195.775 293.355,-188.866 296,-183 299.337,-175.601 305.759,-169.286 311.714,-164.628"/>
<polygon fill="#9a32cd" stroke="#9a32cd" points="289.17,-202.717 293.401,-212.431 296.151,-202.199 289.17,-202.717"/>
<text text-anchor="middle" x="314.5" y="-186" font-family="Helvetica,sans-Serif" font-size="10.00"> padding</text>
</g>
<!-- Node11 -->
<g id="node11" class="node"><title>Node11</title>
<polygon fill="white" stroke="#bfbfbf" points="333.5,-212.5 333.5,-231.5 376.5,-231.5 376.5,-212.5 333.5,-212.5"/>
<text text-anchor="middle" x="355" y="-219.5" font-family="Helvetica,sans-Serif" font-size="10.00">size_t</text>
</g>
<!-- Node11&#45;&gt;Node9 -->
<g id="edge10" class="edge"><title>Node11&#45;&gt;Node9</title>
<path fill="none" stroke="#9a32cd" stroke-dasharray="5,2" d="M346.595,-202.79C340.834,-190.308 333.452,-174.314 328.982,-164.627"/>
<polygon fill="#9a32cd" stroke="#9a32cd" points="343.586,-204.621 350.954,-212.234 349.941,-201.687 343.586,-204.621"/>
<text text-anchor="middle" x="355" y="-186" font-family="Helvetica,sans-Serif" font-size="10.00"> width</text>
</g>
</g>
</svg>
