<?xml version="1.0" encoding="UTF-8" standalone="no"?>
<!DOCTYPE svg PUBLIC "-//W3C//DTD SVG 1.1//EN"
 "http://www.w3.org/Graphics/SVG/1.1/DTD/svg11.dtd">
<!-- Generated by graphviz version 2.38.0 (20140413.2041)
 -->
<!-- Title: infra::BaseUnit&lt; Identifier &gt; Pages: 1 -->
<svg width="142pt" height="117pt"
 viewBox="0.00 0.00 142.00 117.00" xmlns="http://www.w3.org/2000/svg" xmlns:xlink="http://www.w3.org/1999/xlink">
<g id="graph0" class="graph" transform="scale(1 1) rotate(0) translate(4 113)">
<title>infra::BaseUnit&lt; Identifier &gt;</title>
<polygon fill="white" stroke="none" points="-4,4 -4,-113 138,-113 138,4 -4,4"/>
<!-- Node2 -->
<g id="node1" class="node"><title>Node2</title>
<polygon fill="#bfbfbf" stroke="black" points="0,-0.5 0,-19.5 134,-19.5 134,-0.5 0,-0.5"/>
<text text-anchor="middle" x="67" y="-7.5" font-family="Helvetica,sans-Serif" font-size="10.00">infra::BaseUnit&lt; Identifier &gt;</text>
</g>
<!-- Node3 -->
<g id="node2" class="node"><title>Node3</title>
<g id="a_node2"><a xlink:href="../../d0/df9/structinfra_1_1_unit_base.html" target="_top" xlink:title="infra::UnitBase\&lt; List\l\&lt; Unit\&lt; Identifier, 1\l \&gt; \&gt;, StaticRational\&lt;\l 1, 1 \&gt; \&gt;">
<polygon fill="white" stroke="black" points="13.5,-56.5 13.5,-108.5 120.5,-108.5 120.5,-56.5 13.5,-56.5"/>
<text text-anchor="start" x="21.5" y="-96.5" font-family="Helvetica,sans-Serif" font-size="10.00">infra::UnitBase&lt; List</text>
<text text-anchor="start" x="21.5" y="-85.5" font-family="Helvetica,sans-Serif" font-size="10.00">&lt; Unit&lt; Identifier, 1</text>
<text text-anchor="start" x="21.5" y="-74.5" font-family="Helvetica,sans-Serif" font-size="10.00"> &gt; &gt;, StaticRational&lt;</text>
<text text-anchor="middle" x="67" y="-63.5" font-family="Helvetica,sans-Serif" font-size="10.00"> 1, 1 &gt; &gt;</text>
</a>
</g>
</g>
<!-- Node3&#45;&gt;Node2 -->
<g id="edge1" class="edge"><title>Node3&#45;&gt;Node2</title>
<path fill="none" stroke="midnightblue" d="M67,-46.2659C67,-36.3713 67,-26.475 67,-19.6955"/>
<polygon fill="midnightblue" stroke="midnightblue" points="63.5001,-46.4458 67,-56.4458 70.5001,-46.4459 63.5001,-46.4458"/>
</g>
</g>
</svg>
