<?xml version="1.0" encoding="UTF-8" standalone="no"?>
<!DOCTYPE svg PUBLIC "-//W3C//DTD SVG 1.1//EN"
 "http://www.w3.org/Graphics/SVG/1.1/DTD/svg11.dtd">
<!-- Generated by graphviz version 2.38.0 (20140413.2041)
 -->
<!-- Title: services::HttpResponseMethodNotAllowed Pages: 1 -->
<svg width="160pt" height="151pt"
 viewBox="0.00 0.00 160.00 151.00" xmlns="http://www.w3.org/2000/svg" xmlns:xlink="http://www.w3.org/1999/xlink">
<g id="graph0" class="graph" transform="scale(1 1) rotate(0) translate(4 147)">
<title>services::HttpResponseMethodNotAllowed</title>
<polygon fill="white" stroke="none" points="-4,4 -4,-147 156,-147 156,4 -4,4"/>
<!-- Node0 -->
<g id="node1" class="node"><title>Node0</title>
<polygon fill="#bfbfbf" stroke="black" points="0,-0.5 0,-30.5 152,-30.5 152,-0.5 0,-0.5"/>
<text text-anchor="start" x="8" y="-18.5" font-family="Helvetica,sans-Serif" font-size="10.00">services::HttpResponseMethod</text>
<text text-anchor="middle" x="76" y="-7.5" font-family="Helvetica,sans-Serif" font-size="10.00">NotAllowed</text>
</g>
<!-- Node1 -->
<g id="node2" class="node"><title>Node1</title>
<g id="a_node2"><a xlink:href="../../d8/d8d/classservices_1_1_http_error_response.html" target="_top" xlink:title="services::HttpErrorResponse">
<polygon fill="white" stroke="black" points="6,-67.5 6,-86.5 146,-86.5 146,-67.5 6,-67.5"/>
<text text-anchor="middle" x="76" y="-74.5" font-family="Helvetica,sans-Serif" font-size="10.00">services::HttpErrorResponse</text>
</a>
</g>
</g>
<!-- Node1&#45;&gt;Node0 -->
<g id="edge1" class="edge"><title>Node1&#45;&gt;Node0</title>
<path fill="none" stroke="midnightblue" d="M76,-57.2349C76,-48.5864 76,-38.4969 76,-30.523"/>
<polygon fill="midnightblue" stroke="midnightblue" points="72.5001,-57.4751 76,-67.4751 79.5001,-57.4751 72.5001,-57.4751"/>
</g>
<!-- Node2 -->
<g id="node3" class="node"><title>Node2</title>
<g id="a_node3"><a xlink:href="../../d9/dce/classservices_1_1_http_response.html" target="_top" xlink:title="services::HttpResponse">
<polygon fill="white" stroke="black" points="16.5,-123.5 16.5,-142.5 135.5,-142.5 135.5,-123.5 16.5,-123.5"/>
<text text-anchor="middle" x="76" y="-130.5" font-family="Helvetica,sans-Serif" font-size="10.00">services::HttpResponse</text>
</a>
</g>
</g>
<!-- Node2&#45;&gt;Node1 -->
<g id="edge2" class="edge"><title>Node2&#45;&gt;Node1</title>
<path fill="none" stroke="midnightblue" d="M76,-112.805C76,-103.91 76,-93.7798 76,-86.7511"/>
<polygon fill="midnightblue" stroke="midnightblue" points="72.5001,-113.083 76,-123.083 79.5001,-113.083 72.5001,-113.083"/>
</g>
</g>
</svg>
