<?xml version="1.0" encoding="UTF-8" standalone="no"?>
<!DOCTYPE svg PUBLIC "-//W3C//DTD SVG 1.1//EN"
 "http://www.w3.org/Graphics/SVG/1.1/DTD/svg11.dtd">
<!-- Generated by graphviz version 2.38.0 (20140413.2041)
 -->
<!-- Title: infra::StreamErrorPolicy Pages: 1 -->
<svg width="150pt" height="106pt"
 viewBox="0.00 0.00 150.00 106.00" xmlns="http://www.w3.org/2000/svg" xmlns:xlink="http://www.w3.org/1999/xlink">
<g id="graph0" class="graph" transform="scale(1 1) rotate(0) translate(4 102)">
<title>infra::StreamErrorPolicy</title>
<polygon fill="white" stroke="none" points="-4,4 -4,-102 146,-102 146,4 -4,4"/>
<!-- Node2 -->
<g id="node1" class="node"><title>Node2</title>
<polygon fill="#bfbfbf" stroke="black" points="0,-0.5 0,-19.5 120,-19.5 120,-0.5 0,-0.5"/>
<text text-anchor="middle" x="60" y="-7.5" font-family="Helvetica,sans-Serif" font-size="10.00">infra::StreamErrorPolicy</text>
</g>
<!-- Node3 -->
<g id="node2" class="node"><title>Node3</title>
<polygon fill="white" stroke="#bfbfbf" points="3.5,-78.5 3.5,-97.5 38.5,-97.5 38.5,-78.5 3.5,-78.5"/>
<text text-anchor="middle" x="21" y="-85.5" font-family="Helvetica,sans-Serif" font-size="10.00">bool</text>
</g>
<!-- Node3&#45;&gt;Node2 -->
<g id="edge1" class="edge"><title>Node3&#45;&gt;Node2</title>
<path fill="none" stroke="#9a32cd" stroke-dasharray="5,2" d="M17.5482,-68.3644C16.6886,-58.7692 17.1372,-47.1892 22,-38 26.1639,-30.1316 33.7654,-24.04 41.0816,-19.6511"/>
<polygon fill="#9a32cd" stroke="#9a32cd" points="14.109,-69.0416 18.9721,-78.4543 21.0403,-68.0633 14.109,-69.0416"/>
<text text-anchor="middle" x="50" y="-52" font-family="Helvetica,sans-Serif" font-size="10.00"> checkedFail</text>
<text text-anchor="middle" x="50" y="-41" font-family="Helvetica,sans-Serif" font-size="10.00">failed</text>
</g>
<!-- Node4 -->
<g id="node3" class="node"><title>Node4</title>
<polygon fill="white" stroke="#bfbfbf" points="65,-78.5 65,-97.5 135,-97.5 135,-78.5 65,-78.5"/>
<text text-anchor="middle" x="100" y="-85.5" font-family="Helvetica,sans-Serif" font-size="10.00">FailureMode</text>
</g>
<!-- Node4&#45;&gt;Node2 -->
<g id="edge2" class="edge"><title>Node4&#45;&gt;Node2</title>
<path fill="none" stroke="#9a32cd" stroke-dasharray="5,2" d="M92.7574,-68.9769C88.7639,-59.5635 83.5069,-47.9615 78,-38 74.5112,-31.689 70.0112,-24.939 66.3834,-19.7668"/>
<polygon fill="#9a32cd" stroke="#9a32cd" points="89.6252,-70.5621 96.6752,-78.4708 96.0959,-67.8918 89.6252,-70.5621"/>
<text text-anchor="middle" x="115.5" y="-46.5" font-family="Helvetica,sans-Serif" font-size="10.00"> failureMode</text>
</g>
</g>
</svg>
