<?xml version="1.0" encoding="UTF-8" standalone="no"?>
<!DOCTYPE svg PUBLIC "-//W3C//DTD SVG 1.1//EN"
 "http://www.w3.org/Graphics/SVG/1.1/DTD/svg11.dtd">
<!-- Generated by graphviz version 2.38.0 (20140413.2041)
 -->
<!-- Title: infra::Asn1Formatter::AddTagLengthValue Pages: 1 -->
<svg width="616pt" height="247pt"
 viewBox="0.00 0.00 616.00 246.50" xmlns="http://www.w3.org/2000/svg" xmlns:xlink="http://www.w3.org/1999/xlink">
<g id="graph0" class="graph" transform="scale(1 1) rotate(0) translate(4 242.5)">
<title>infra::Asn1Formatter::AddTagLengthValue</title>
<polygon fill="white" stroke="none" points="-4,4 -4,-242.5 612,-242.5 612,4 -4,4"/>
<!-- Node80 -->
<g id="node1" class="node"><title>Node80</title>
<polygon fill="#bfbfbf" stroke="black" points="0,-98.5 0,-128.5 110,-128.5 110,-98.5 0,-98.5"/>
<text text-anchor="start" x="8" y="-116.5" font-family="Helvetica,sans-Serif" font-size="10.00">infra::Asn1Formatter</text>
<text text-anchor="middle" x="55" y="-105.5" font-family="Helvetica,sans-Serif" font-size="10.00">::AddTagLengthValue</text>
</g>
<!-- Node81 -->
<g id="node2" class="node"><title>Node81</title>
<g id="a_node2"><a xlink:href="../../db/dc0/classinfra_1_1_asn1_formatter.html#a769de02219119ba669c43f3784b6b9d3" target="_top" xlink:title="infra::Asn1Formatter::Add">
<polygon fill="white" stroke="black" points="146,-197 146,-216 274,-216 274,-197 146,-197"/>
<text text-anchor="middle" x="210" y="-204" font-family="Helvetica,sans-Serif" font-size="10.00">infra::Asn1Formatter::Add</text>
</a>
</g>
</g>
<!-- Node80&#45;&gt;Node81 -->
<g id="edge1" class="edge"><title>Node80&#45;&gt;Node81</title>
<path fill="none" stroke="midnightblue" d="M77.8691,-135.735C95.0574,-152.093 120.314,-173.782 146,-187.5 153.054,-191.267 160.961,-194.395 168.726,-196.951"/>
<polygon fill="midnightblue" stroke="midnightblue" points="80.1788,-133.099 70.567,-128.642 75.3014,-138.12 80.1788,-133.099"/>
</g>
<!-- Node84 -->
<g id="node5" class="node"><title>Node84</title>
<g id="a_node5"><a xlink:href="../../db/dc0/classinfra_1_1_asn1_formatter.html#a96178cb08e7db3ded3b4dcd0196d929c" target="_top" xlink:title="infra::Asn1Formatter\l::AddContextSpecific">
<polygon fill="white" stroke="black" points="156,-147.5 156,-177.5 264,-177.5 264,-147.5 156,-147.5"/>
<text text-anchor="start" x="164" y="-165.5" font-family="Helvetica,sans-Serif" font-size="10.00">infra::Asn1Formatter</text>
<text text-anchor="middle" x="210" y="-154.5" font-family="Helvetica,sans-Serif" font-size="10.00">::AddContextSpecific</text>
</a>
</g>
</g>
<!-- Node80&#45;&gt;Node84 -->
<g id="edge4" class="edge"><title>Node80&#45;&gt;Node84</title>
<path fill="none" stroke="midnightblue" d="M113.013,-131.759C129.15,-136.927 146.527,-142.492 162.002,-147.448"/>
<polygon fill="midnightblue" stroke="midnightblue" points="113.745,-128.318 103.153,-128.601 111.609,-134.985 113.745,-128.318"/>
</g>
<!-- Node85 -->
<g id="node6" class="node"><title>Node85</title>
<g id="a_node6"><a xlink:href="../../db/dc0/classinfra_1_1_asn1_formatter.html#ae6f89ced0f3e081c74a1be91d70aa9a4" target="_top" xlink:title="infra::Asn1Formatter\l::AddObjectId">
<polygon fill="white" stroke="black" points="157.5,-98.5 157.5,-128.5 262.5,-128.5 262.5,-98.5 157.5,-98.5"/>
<text text-anchor="start" x="165.5" y="-116.5" font-family="Helvetica,sans-Serif" font-size="10.00">infra::Asn1Formatter</text>
<text text-anchor="middle" x="210" y="-105.5" font-family="Helvetica,sans-Serif" font-size="10.00">::AddObjectId</text>
</a>
</g>
</g>
<!-- Node80&#45;&gt;Node85 -->
<g id="edge5" class="edge"><title>Node80&#45;&gt;Node85</title>
<path fill="none" stroke="midnightblue" d="M120.563,-113.5C132.845,-113.5 145.549,-113.5 157.365,-113.5"/>
<polygon fill="midnightblue" stroke="midnightblue" points="120.373,-110 110.373,-113.5 120.373,-117 120.373,-110"/>
</g>
<!-- Node89 -->
<g id="node10" class="node"><title>Node89</title>
<g id="a_node10"><a xlink:href="../../db/dc0/classinfra_1_1_asn1_formatter.html#a3bf446a44d7cca9ca46c881cc2e56cda" target="_top" xlink:title="infra::Asn1Formatter\l::AddPrintableString">
<polygon fill="white" stroke="black" points="157.5,-49.5 157.5,-79.5 262.5,-79.5 262.5,-49.5 157.5,-49.5"/>
<text text-anchor="start" x="165.5" y="-67.5" font-family="Helvetica,sans-Serif" font-size="10.00">infra::Asn1Formatter</text>
<text text-anchor="middle" x="210" y="-56.5" font-family="Helvetica,sans-Serif" font-size="10.00">::AddPrintableString</text>
</a>
</g>
</g>
<!-- Node80&#45;&gt;Node89 -->
<g id="edge10" class="edge"><title>Node80&#45;&gt;Node89</title>
<path fill="none" stroke="midnightblue" d="M113.013,-95.2409C129.15,-90.0727 146.527,-84.5076 162.002,-79.5516"/>
<polygon fill="midnightblue" stroke="midnightblue" points="111.609,-92.0152 103.153,-98.3986 113.745,-98.6817 111.609,-92.0152"/>
</g>
<!-- Node90 -->
<g id="node11" class="node"><title>Node90</title>
<g id="a_node11"><a xlink:href="../../db/dc0/classinfra_1_1_asn1_formatter.html#a81297f5c00d2da2ace95be86fd4a0f93" target="_top" xlink:title="infra::Asn1Formatter\l::AddSerial">
<polygon fill="white" stroke="black" points="157.5,-0.5 157.5,-30.5 262.5,-30.5 262.5,-0.5 157.5,-0.5"/>
<text text-anchor="start" x="165.5" y="-18.5" font-family="Helvetica,sans-Serif" font-size="10.00">infra::Asn1Formatter</text>
<text text-anchor="middle" x="210" y="-7.5" font-family="Helvetica,sans-Serif" font-size="10.00">::AddSerial</text>
</a>
</g>
</g>
<!-- Node80&#45;&gt;Node90 -->
<g id="edge11" class="edge"><title>Node80&#45;&gt;Node90</title>
<path fill="none" stroke="midnightblue" d="M78.8992,-91.6234C96.274,-75.8793 121.307,-54.9553 146,-40.5 152.195,-36.8736 159.014,-33.556 165.809,-30.6059"/>
<polygon fill="midnightblue" stroke="midnightblue" points="76.4698,-89.1026 71.4838,-98.4509 81.2112,-94.2523 76.4698,-89.1026"/>
</g>
<!-- Node82 -->
<g id="node3" class="node"><title>Node82</title>
<g id="a_node3"><a xlink:href="../../db/dc0/classinfra_1_1_asn1_formatter.html#a21a19cd9d98a176b95d3cf76694ed35a" target="_top" xlink:title="infra::Asn1Formatter::Add">
<polygon fill="white" stroke="black" points="311.5,-219 311.5,-238 439.5,-238 439.5,-219 311.5,-219"/>
<text text-anchor="middle" x="375.5" y="-226" font-family="Helvetica,sans-Serif" font-size="10.00">infra::Asn1Formatter::Add</text>
</a>
</g>
</g>
<!-- Node81&#45;&gt;Node82 -->
<g id="edge2" class="edge"><title>Node81&#45;&gt;Node82</title>
<path fill="none" stroke="midnightblue" d="M284.345,-216.369C293.393,-217.587 302.579,-218.823 311.455,-220.017"/>
<polygon fill="midnightblue" stroke="midnightblue" points="284.591,-212.871 274.213,-215.006 283.657,-219.808 284.591,-212.871"/>
</g>
<!-- Node83 -->
<g id="node4" class="node"><title>Node83</title>
<g id="a_node4"><a xlink:href="../../db/dc0/classinfra_1_1_asn1_formatter.html#af2233460774c945b68a15d02202bd3fa" target="_top" xlink:title="infra::Asn1Formatter\l::AddOptional">
<polygon fill="white" stroke="black" points="323,-169.5 323,-199.5 428,-199.5 428,-169.5 323,-169.5"/>
<text text-anchor="start" x="331" y="-187.5" font-family="Helvetica,sans-Serif" font-size="10.00">infra::Asn1Formatter</text>
<text text-anchor="middle" x="375.5" y="-176.5" font-family="Helvetica,sans-Serif" font-size="10.00">::AddOptional</text>
</a>
</g>
</g>
<!-- Node81&#45;&gt;Node83 -->
<g id="edge3" class="edge"><title>Node81&#45;&gt;Node83</title>
<path fill="none" stroke="midnightblue" d="M284.502,-196.61C297.437,-194.869 310.65,-193.091 322.828,-191.453"/>
<polygon fill="midnightblue" stroke="midnightblue" points="283.657,-193.192 274.213,-197.994 284.591,-200.129 283.657,-193.192"/>
</g>
<!-- Node86 -->
<g id="node7" class="node"><title>Node86</title>
<g id="a_node7"><a xlink:href="../../df/d23/classservices_1_1_certificates_mbed_tls.html#a60975eeeeaf6a805df536a7d167270af" target="_top" xlink:title="services::CertificatesMbed\lTls::X509AddAlgorithm">
<polygon fill="white" stroke="black" points="310,-120.5 310,-150.5 441,-150.5 441,-120.5 310,-120.5"/>
<text text-anchor="start" x="318" y="-138.5" font-family="Helvetica,sans-Serif" font-size="10.00">services::CertificatesMbed</text>
<text text-anchor="middle" x="375.5" y="-127.5" font-family="Helvetica,sans-Serif" font-size="10.00">Tls::X509AddAlgorithm</text>
</a>
</g>
</g>
<!-- Node85&#45;&gt;Node86 -->
<g id="edge6" class="edge"><title>Node85&#45;&gt;Node86</title>
<path fill="none" stroke="midnightblue" d="M272.754,-121.809C284.89,-123.442 297.653,-125.16 309.88,-126.805"/>
<polygon fill="midnightblue" stroke="midnightblue" points="273.11,-118.326 262.732,-120.461 272.176,-125.263 273.11,-118.326"/>
</g>
<!-- Node88 -->
<g id="node9" class="node"><title>Node88</title>
<g id="a_node9"><a xlink:href="../../df/d23/classservices_1_1_certificates_mbed_tls.html#a2a4620eb2357d703d8166932662f2445" target="_top" xlink:title="services::CertificatesMbed\lTls::X509AddName">
<polygon fill="white" stroke="black" points="310,-71.5 310,-101.5 441,-101.5 441,-71.5 310,-71.5"/>
<text text-anchor="start" x="318" y="-89.5" font-family="Helvetica,sans-Serif" font-size="10.00">services::CertificatesMbed</text>
<text text-anchor="middle" x="375.5" y="-78.5" font-family="Helvetica,sans-Serif" font-size="10.00">Tls::X509AddName</text>
</a>
</g>
</g>
<!-- Node85&#45;&gt;Node88 -->
<g id="edge8" class="edge"><title>Node85&#45;&gt;Node88</title>
<path fill="none" stroke="midnightblue" d="M272.754,-103.302C284.89,-101.298 297.653,-99.1903 309.88,-97.1711"/>
<polygon fill="midnightblue" stroke="midnightblue" points="272.029,-99.8744 262.732,-104.957 273.169,-106.781 272.029,-99.8744"/>
</g>
<!-- Node87 -->
<g id="node8" class="node"><title>Node87</title>
<g id="a_node8"><a xlink:href="../../df/d23/classservices_1_1_certificates_mbed_tls.html#a63f4477d0889d479f476070910087cef" target="_top" xlink:title="services::CertificatesMbed\lTls::WriteOwnCertificate">
<polygon fill="white" stroke="black" points="477,-95.5 477,-125.5 608,-125.5 608,-95.5 477,-95.5"/>
<text text-anchor="start" x="485" y="-113.5" font-family="Helvetica,sans-Serif" font-size="10.00">services::CertificatesMbed</text>
<text text-anchor="middle" x="542.5" y="-102.5" font-family="Helvetica,sans-Serif" font-size="10.00">Tls::WriteOwnCertificate</text>
</a>
</g>
</g>
<!-- Node86&#45;&gt;Node87 -->
<g id="edge7" class="edge"><title>Node86&#45;&gt;Node87</title>
<path fill="none" stroke="midnightblue" d="M451.239,-124.176C459.821,-122.876 468.516,-121.558 476.948,-120.281"/>
<polygon fill="midnightblue" stroke="midnightblue" points="450.602,-120.732 441.239,-125.691 451.65,-127.653 450.602,-120.732"/>
</g>
<!-- Node88&#45;&gt;Node87 -->
<g id="edge9" class="edge"><title>Node88&#45;&gt;Node87</title>
<path fill="none" stroke="midnightblue" d="M451.239,-97.3711C459.821,-98.6194 468.516,-99.8841 476.948,-101.111"/>
<polygon fill="midnightblue" stroke="midnightblue" points="451.638,-93.8925 441.239,-95.9166 450.631,-100.82 451.638,-93.8925"/>
</g>
</g>
</svg>
