<?xml version="1.0" encoding="UTF-8" standalone="no"?>
<!DOCTYPE svg PUBLIC "-//W3C//DTD SVG 1.1//EN"
 "http://www.w3.org/Graphics/SVG/1.1/DTD/svg11.dtd">
<!-- Generated by graphviz version 2.38.0 (20140413.2041)
 -->
<!-- Title: infra::Asn1Formatter::AddPrintableString Pages: 1 -->
<svg width="400pt" height="39pt"
 viewBox="0.00 0.00 400.00 39.00" xmlns="http://www.w3.org/2000/svg" xmlns:xlink="http://www.w3.org/1999/xlink">
<g id="graph0" class="graph" transform="scale(1 1) rotate(0) translate(4 35)">
<title>infra::Asn1Formatter::AddPrintableString</title>
<polygon fill="white" stroke="none" points="-4,4 -4,-35 396,-35 396,4 -4,4"/>
<!-- Node50 -->
<g id="node1" class="node"><title>Node50</title>
<polygon fill="#bfbfbf" stroke="black" points="0,-0.5 0,-30.5 105,-30.5 105,-0.5 0,-0.5"/>
<text text-anchor="start" x="8" y="-18.5" font-family="Helvetica,sans-Serif" font-size="10.00">infra::Asn1Formatter</text>
<text text-anchor="middle" x="52.5" y="-7.5" font-family="Helvetica,sans-Serif" font-size="10.00">::AddPrintableString</text>
</g>
<!-- Node51 -->
<g id="node2" class="node"><title>Node51</title>
<g id="a_node2"><a xlink:href="../../db/dc0/classinfra_1_1_asn1_formatter.html#a421b7c541b9c87d2b04c9d1699cbdd51" target="_top" xlink:title="infra::Asn1Formatter\l::AddTagLengthValue">
<polygon fill="white" stroke="black" points="141,-0.5 141,-30.5 251,-30.5 251,-0.5 141,-0.5"/>
<text text-anchor="start" x="149" y="-18.5" font-family="Helvetica,sans-Serif" font-size="10.00">infra::Asn1Formatter</text>
<text text-anchor="middle" x="196" y="-7.5" font-family="Helvetica,sans-Serif" font-size="10.00">::AddTagLengthValue</text>
</a>
</g>
</g>
<!-- Node50&#45;&gt;Node51 -->
<g id="edge1" class="edge"><title>Node50&#45;&gt;Node51</title>
<path fill="none" stroke="midnightblue" d="M105.386,-15.5C113.573,-15.5 122.123,-15.5 130.554,-15.5"/>
<polygon fill="midnightblue" stroke="midnightblue" points="130.745,-19.0001 140.744,-15.5 130.744,-12.0001 130.745,-19.0001"/>
</g>
<!-- Node52 -->
<g id="node3" class="node"><title>Node52</title>
<g id="a_node3"><a xlink:href="../../db/dc0/classinfra_1_1_asn1_formatter.html#a25264b39e8e0a864d67b1b3f917eee1d" target="_top" xlink:title="infra::Asn1Formatter\l::AddTagLength">
<polygon fill="white" stroke="black" points="287,-0.5 287,-30.5 392,-30.5 392,-0.5 287,-0.5"/>
<text text-anchor="start" x="295" y="-18.5" font-family="Helvetica,sans-Serif" font-size="10.00">infra::Asn1Formatter</text>
<text text-anchor="middle" x="339.5" y="-7.5" font-family="Helvetica,sans-Serif" font-size="10.00">::AddTagLength</text>
</a>
</g>
</g>
<!-- Node51&#45;&gt;Node52 -->
<g id="edge2" class="edge"><title>Node51&#45;&gt;Node52</title>
<path fill="none" stroke="midnightblue" d="M251.303,-15.5C259.614,-15.5 268.246,-15.5 276.704,-15.5"/>
<polygon fill="midnightblue" stroke="midnightblue" points="276.902,-19.0001 286.902,-15.5 276.902,-12.0001 276.902,-19.0001"/>
</g>
</g>
</svg>
