<?xml version="1.0" encoding="UTF-8" standalone="no"?>
<!DOCTYPE svg PUBLIC "-//W3C//DTD SVG 1.1//EN"
 "http://www.w3.org/Graphics/SVG/1.1/DTD/svg11.dtd">
<!-- Generated by graphviz version 2.38.0 (20140413.2041)
 -->
<!-- Title: infra::Asn1Formatter::AddOptional Pages: 1 -->
<svg width="564pt" height="63pt"
 viewBox="0.00 0.00 564.00 63.00" xmlns="http://www.w3.org/2000/svg" xmlns:xlink="http://www.w3.org/1999/xlink">
<g id="graph0" class="graph" transform="scale(1 1) rotate(0) translate(4 59)">
<title>infra::Asn1Formatter::AddOptional</title>
<polygon fill="white" stroke="none" points="-4,4 -4,-59 560,-59 560,4 -4,4"/>
<!-- Node45 -->
<g id="node1" class="node"><title>Node45</title>
<polygon fill="#bfbfbf" stroke="black" points="0,-0.5 0,-30.5 105,-30.5 105,-0.5 0,-0.5"/>
<text text-anchor="start" x="8" y="-18.5" font-family="Helvetica,sans-Serif" font-size="10.00">infra::Asn1Formatter</text>
<text text-anchor="middle" x="52.5" y="-7.5" font-family="Helvetica,sans-Serif" font-size="10.00">::AddOptional</text>
</g>
<!-- Node46 -->
<g id="node2" class="node"><title>Node46</title>
<g id="a_node2"><a xlink:href="../../db/dc0/classinfra_1_1_asn1_formatter.html#a769de02219119ba669c43f3784b6b9d3" target="_top" xlink:title="infra::Asn1Formatter::Add">
<polygon fill="white" stroke="black" points="141,-27 141,-46 269,-46 269,-27 141,-27"/>
<text text-anchor="middle" x="205" y="-34" font-family="Helvetica,sans-Serif" font-size="10.00">infra::Asn1Formatter::Add</text>
</a>
</g>
</g>
<!-- Node45&#45;&gt;Node46 -->
<g id="edge1" class="edge"><title>Node45&#45;&gt;Node46</title>
<path fill="none" stroke="midnightblue" d="M105.294,-22.727C113.544,-23.8782 122.212,-25.0878 130.844,-26.2922"/>
<polygon fill="midnightblue" stroke="midnightblue" points="130.545,-29.7842 140.932,-27.6999 131.512,-22.8514 130.545,-29.7842"/>
</g>
<!-- Node48 -->
<g id="node4" class="node"><title>Node48</title>
<g id="a_node4"><a xlink:href="../../db/dc0/classinfra_1_1_asn1_formatter.html#a25264b39e8e0a864d67b1b3f917eee1d" target="_top" xlink:title="infra::Asn1Formatter\l::AddTagLength">
<polygon fill="white" stroke="black" points="451,-2.5 451,-32.5 556,-32.5 556,-2.5 451,-2.5"/>
<text text-anchor="start" x="459" y="-20.5" font-family="Helvetica,sans-Serif" font-size="10.00">infra::Asn1Formatter</text>
<text text-anchor="middle" x="503.5" y="-9.5" font-family="Helvetica,sans-Serif" font-size="10.00">::AddTagLength</text>
</a>
</g>
</g>
<!-- Node45&#45;&gt;Node48 -->
<g id="edge4" class="edge"><title>Node45&#45;&gt;Node48</title>
<path fill="none" stroke="midnightblue" d="M105.287,-14.7096C175.476,-13.7863 304.714,-12.6099 415,-14.5 423.302,-14.6423 432.045,-14.8604 440.662,-15.1156"/>
<polygon fill="midnightblue" stroke="midnightblue" points="440.582,-18.6147 450.687,-15.4298 440.802,-11.6181 440.582,-18.6147"/>
</g>
<!-- Node47 -->
<g id="node3" class="node"><title>Node47</title>
<g id="a_node3"><a xlink:href="../../db/dc0/classinfra_1_1_asn1_formatter.html#a421b7c541b9c87d2b04c9d1699cbdd51" target="_top" xlink:title="infra::Asn1Formatter\l::AddTagLengthValue">
<polygon fill="white" stroke="black" points="305,-24.5 305,-54.5 415,-54.5 415,-24.5 305,-24.5"/>
<text text-anchor="start" x="313" y="-42.5" font-family="Helvetica,sans-Serif" font-size="10.00">infra::Asn1Formatter</text>
<text text-anchor="middle" x="360" y="-31.5" font-family="Helvetica,sans-Serif" font-size="10.00">::AddTagLengthValue</text>
</a>
</g>
</g>
<!-- Node46&#45;&gt;Node47 -->
<g id="edge2" class="edge"><title>Node46&#45;&gt;Node47</title>
<path fill="none" stroke="midnightblue" d="M269.114,-37.7375C277.541,-37.9028 286.192,-38.0724 294.64,-38.238"/>
<polygon fill="midnightblue" stroke="midnightblue" points="294.749,-41.7408 304.816,-38.4376 294.886,-34.7421 294.749,-41.7408"/>
</g>
<!-- Node47&#45;&gt;Node48 -->
<g id="edge3" class="edge"><title>Node47&#45;&gt;Node48</title>
<path fill="none" stroke="midnightblue" d="M415.303,-31.0571C423.705,-29.7507 432.436,-28.3934 440.983,-27.0645"/>
<polygon fill="midnightblue" stroke="midnightblue" points="441.559,-30.5171 450.902,-25.5223 440.483,-23.6002 441.559,-30.5171"/>
</g>
</g>
</svg>
