<?xml version="1.0" encoding="UTF-8" standalone="no"?>
<!DOCTYPE svg PUBLIC "-//W3C//DTD SVG 1.1//EN"
 "http://www.w3.org/Graphics/SVG/1.1/DTD/svg11.dtd">
<!-- Generated by graphviz version 2.38.0 (20140413.2041)
 -->
<!-- Title: infra::Asn1Formatter::AddObjectId Pages: 1 -->
<svg width="447pt" height="88pt"
 viewBox="0.00 0.00 447.00 88.00" xmlns="http://www.w3.org/2000/svg" xmlns:xlink="http://www.w3.org/1999/xlink">
<g id="graph0" class="graph" transform="scale(1 1) rotate(0) translate(4 84)">
<title>infra::Asn1Formatter::AddObjectId</title>
<polygon fill="white" stroke="none" points="-4,4 -4,-84 443,-84 443,4 -4,4"/>
<!-- Node41 -->
<g id="node1" class="node"><title>Node41</title>
<polygon fill="#bfbfbf" stroke="black" points="0,-24.5 0,-54.5 105,-54.5 105,-24.5 0,-24.5"/>
<text text-anchor="start" x="8" y="-42.5" font-family="Helvetica,sans-Serif" font-size="10.00">infra::Asn1Formatter</text>
<text text-anchor="middle" x="52.5" y="-31.5" font-family="Helvetica,sans-Serif" font-size="10.00">::AddObjectId</text>
</g>
<!-- Node42 -->
<g id="node2" class="node"><title>Node42</title>
<g id="a_node2"><a xlink:href="../../df/d23/classservices_1_1_certificates_mbed_tls.html#a60975eeeeaf6a805df536a7d167270af" target="_top" xlink:title="services::CertificatesMbed\lTls::X509AddAlgorithm">
<polygon fill="white" stroke="black" points="141,-49.5 141,-79.5 272,-79.5 272,-49.5 141,-49.5"/>
<text text-anchor="start" x="149" y="-67.5" font-family="Helvetica,sans-Serif" font-size="10.00">services::CertificatesMbed</text>
<text text-anchor="middle" x="206.5" y="-56.5" font-family="Helvetica,sans-Serif" font-size="10.00">Tls::X509AddAlgorithm</text>
</a>
</g>
</g>
<!-- Node41&#45;&gt;Node42 -->
<g id="edge1" class="edge"><title>Node41&#45;&gt;Node42</title>
<path fill="none" stroke="midnightblue" d="M115.479,-49.6939C123.874,-51.0747 132.506,-52.4943 140.944,-53.8823"/>
<polygon fill="midnightblue" stroke="midnightblue" points="115.82,-46.2031 105.385,-48.0337 114.684,-53.1103 115.82,-46.2031"/>
</g>
<!-- Node44 -->
<g id="node4" class="node"><title>Node44</title>
<g id="a_node4"><a xlink:href="../../df/d23/classservices_1_1_certificates_mbed_tls.html#a2a4620eb2357d703d8166932662f2445" target="_top" xlink:title="services::CertificatesMbed\lTls::X509AddName">
<polygon fill="white" stroke="black" points="141,-0.5 141,-30.5 272,-30.5 272,-0.5 141,-0.5"/>
<text text-anchor="start" x="149" y="-18.5" font-family="Helvetica,sans-Serif" font-size="10.00">services::CertificatesMbed</text>
<text text-anchor="middle" x="206.5" y="-7.5" font-family="Helvetica,sans-Serif" font-size="10.00">Tls::X509AddName</text>
</a>
</g>
</g>
<!-- Node41&#45;&gt;Node44 -->
<g id="edge3" class="edge"><title>Node41&#45;&gt;Node44</title>
<path fill="none" stroke="midnightblue" d="M115.479,-29.7139C123.874,-28.3883 132.506,-27.0254 140.944,-25.693"/>
<polygon fill="midnightblue" stroke="midnightblue" points="114.716,-26.2908 105.385,-31.3077 115.808,-33.2051 114.716,-26.2908"/>
</g>
<!-- Node43 -->
<g id="node3" class="node"><title>Node43</title>
<g id="a_node3"><a xlink:href="../../df/d23/classservices_1_1_certificates_mbed_tls.html#a63f4477d0889d479f476070910087cef" target="_top" xlink:title="services::CertificatesMbed\lTls::WriteOwnCertificate">
<polygon fill="white" stroke="black" points="308,-24.5 308,-54.5 439,-54.5 439,-24.5 308,-24.5"/>
<text text-anchor="start" x="316" y="-42.5" font-family="Helvetica,sans-Serif" font-size="10.00">services::CertificatesMbed</text>
<text text-anchor="middle" x="373.5" y="-31.5" font-family="Helvetica,sans-Serif" font-size="10.00">Tls::WriteOwnCertificate</text>
</a>
</g>
</g>
<!-- Node42&#45;&gt;Node43 -->
<g id="edge2" class="edge"><title>Node42&#45;&gt;Node43</title>
<path fill="none" stroke="midnightblue" d="M282.239,-53.1759C290.821,-51.8756 299.516,-50.5582 307.948,-49.2806"/>
<polygon fill="midnightblue" stroke="midnightblue" points="281.602,-49.7324 272.239,-54.6911 282.65,-56.6535 281.602,-49.7324"/>
</g>
<!-- Node44&#45;&gt;Node43 -->
<g id="edge4" class="edge"><title>Node44&#45;&gt;Node43</title>
<path fill="none" stroke="midnightblue" d="M282.239,-26.3711C290.821,-27.6194 299.516,-28.8841 307.948,-30.1106"/>
<polygon fill="midnightblue" stroke="midnightblue" points="282.638,-22.8925 272.239,-24.9166 281.631,-29.8196 282.638,-22.8925"/>
</g>
</g>
</svg>
