<?xml version="1.0" encoding="UTF-8" standalone="no"?>
<!DOCTYPE svg PUBLIC "-//W3C//DTD SVG 1.1//EN"
 "http://www.w3.org/Graphics/SVG/1.1/DTD/svg11.dtd">
<!-- Generated by graphviz version 2.38.0 (20140413.2041)
 -->
<!-- Title: infra::Asn1Formatter::AddUtcTime Pages: 1 -->
<svg width="588pt" height="39pt"
 viewBox="0.00 0.00 588.00 39.00" xmlns="http://www.w3.org/2000/svg" xmlns:xlink="http://www.w3.org/1999/xlink">
<g id="graph0" class="graph" transform="scale(1 1) rotate(0) translate(4 35)">
<title>infra::Asn1Formatter::AddUtcTime</title>
<polygon fill="white" stroke="none" points="-4,4 -4,-35 584,-35 584,4 -4,4"/>
<!-- Node100 -->
<g id="node1" class="node"><title>Node100</title>
<polygon fill="#bfbfbf" stroke="black" points="0,-0.5 0,-30.5 105,-30.5 105,-0.5 0,-0.5"/>
<text text-anchor="start" x="8" y="-18.5" font-family="Helvetica,sans-Serif" font-size="10.00">infra::Asn1Formatter</text>
<text text-anchor="middle" x="52.5" y="-7.5" font-family="Helvetica,sans-Serif" font-size="10.00">::AddUtcTime</text>
</g>
<!-- Node101 -->
<g id="node2" class="node"><title>Node101</title>
<g id="a_node2"><a xlink:href="../../db/dc0/classinfra_1_1_asn1_formatter.html#a1537dc929bc1eb21682a7d487d48cdaf" target="_top" xlink:title="infra::Asn1Formatter\l::AddTime">
<polygon fill="white" stroke="black" points="141,-0.5 141,-30.5 246,-30.5 246,-0.5 141,-0.5"/>
<text text-anchor="start" x="149" y="-18.5" font-family="Helvetica,sans-Serif" font-size="10.00">infra::Asn1Formatter</text>
<text text-anchor="middle" x="193.5" y="-7.5" font-family="Helvetica,sans-Serif" font-size="10.00">::AddTime</text>
</a>
</g>
</g>
<!-- Node100&#45;&gt;Node101 -->
<g id="edge1" class="edge"><title>Node100&#45;&gt;Node101</title>
<path fill="none" stroke="midnightblue" d="M115.441,-15.5C123.878,-15.5 132.466,-15.5 140.698,-15.5"/>
<polygon fill="midnightblue" stroke="midnightblue" points="115.259,-12.0001 105.258,-15.5 115.258,-19.0001 115.259,-12.0001"/>
</g>
<!-- Node102 -->
<g id="node3" class="node"><title>Node102</title>
<g id="a_node3"><a xlink:href="../../df/d23/classservices_1_1_certificates_mbed_tls.html#ac4a7e29ccd14e6b00124d7f4bf4c18c1" target="_top" xlink:title="services::CertificatesMbed\lTls::X509AddTime">
<polygon fill="white" stroke="black" points="282,-0.5 282,-30.5 413,-30.5 413,-0.5 282,-0.5"/>
<text text-anchor="start" x="290" y="-18.5" font-family="Helvetica,sans-Serif" font-size="10.00">services::CertificatesMbed</text>
<text text-anchor="middle" x="347.5" y="-7.5" font-family="Helvetica,sans-Serif" font-size="10.00">Tls::X509AddTime</text>
</a>
</g>
</g>
<!-- Node101&#45;&gt;Node102 -->
<g id="edge2" class="edge"><title>Node101&#45;&gt;Node102</title>
<path fill="none" stroke="midnightblue" d="M256.479,-15.5C264.874,-15.5 273.506,-15.5 281.944,-15.5"/>
<polygon fill="midnightblue" stroke="midnightblue" points="256.385,-12.0001 246.385,-15.5 256.385,-19.0001 256.385,-12.0001"/>
</g>
<!-- Node103 -->
<g id="node4" class="node"><title>Node103</title>
<g id="a_node4"><a xlink:href="../../df/d23/classservices_1_1_certificates_mbed_tls.html#a63f4477d0889d479f476070910087cef" target="_top" xlink:title="services::CertificatesMbed\lTls::WriteOwnCertificate">
<polygon fill="white" stroke="black" points="449,-0.5 449,-30.5 580,-30.5 580,-0.5 449,-0.5"/>
<text text-anchor="start" x="457" y="-18.5" font-family="Helvetica,sans-Serif" font-size="10.00">services::CertificatesMbed</text>
<text text-anchor="middle" x="514.5" y="-7.5" font-family="Helvetica,sans-Serif" font-size="10.00">Tls::WriteOwnCertificate</text>
</a>
</g>
</g>
<!-- Node102&#45;&gt;Node103 -->
<g id="edge3" class="edge"><title>Node102&#45;&gt;Node103</title>
<path fill="none" stroke="midnightblue" d="M423.239,-15.5C431.821,-15.5 440.516,-15.5 448.948,-15.5"/>
<polygon fill="midnightblue" stroke="midnightblue" points="423.239,-12.0001 413.239,-15.5 423.239,-19.0001 423.239,-12.0001"/>
</g>
</g>
</svg>
