<?xml version="1.0" encoding="UTF-8" standalone="no"?>
<!DOCTYPE svg PUBLIC "-//W3C//DTD SVG 1.1//EN"
 "http://www.w3.org/Graphics/SVG/1.1/DTD/svg11.dtd">
<!-- Generated by graphviz version 2.38.0 (20140413.2041)
 -->
<!-- Title: infra::Asn1Formatter::AddTagLengthValue Pages: 1 -->
<svg width="259pt" height="39pt"
 viewBox="0.00 0.00 259.00 39.00" xmlns="http://www.w3.org/2000/svg" xmlns:xlink="http://www.w3.org/1999/xlink">
<g id="graph0" class="graph" transform="scale(1 1) rotate(0) translate(4 35)">
<title>infra::Asn1Formatter::AddTagLengthValue</title>
<polygon fill="white" stroke="none" points="-4,4 -4,-35 255,-35 255,4 -4,4"/>
<!-- Node78 -->
<g id="node1" class="node"><title>Node78</title>
<polygon fill="#bfbfbf" stroke="black" points="0,-0.5 0,-30.5 110,-30.5 110,-0.5 0,-0.5"/>
<text text-anchor="start" x="8" y="-18.5" font-family="Helvetica,sans-Serif" font-size="10.00">infra::Asn1Formatter</text>
<text text-anchor="middle" x="55" y="-7.5" font-family="Helvetica,sans-Serif" font-size="10.00">::AddTagLengthValue</text>
</g>
<!-- Node79 -->
<g id="node2" class="node"><title>Node79</title>
<g id="a_node2"><a xlink:href="../../db/dc0/classinfra_1_1_asn1_formatter.html#a25264b39e8e0a864d67b1b3f917eee1d" target="_top" xlink:title="infra::Asn1Formatter\l::AddTagLength">
<polygon fill="white" stroke="black" points="146,-0.5 146,-30.5 251,-30.5 251,-0.5 146,-0.5"/>
<text text-anchor="start" x="154" y="-18.5" font-family="Helvetica,sans-Serif" font-size="10.00">infra::Asn1Formatter</text>
<text text-anchor="middle" x="198.5" y="-7.5" font-family="Helvetica,sans-Serif" font-size="10.00">::AddTagLength</text>
</a>
</g>
</g>
<!-- Node78&#45;&gt;Node79 -->
<g id="edge1" class="edge"><title>Node78&#45;&gt;Node79</title>
<path fill="none" stroke="midnightblue" d="M110.303,-15.5C118.614,-15.5 127.246,-15.5 135.704,-15.5"/>
<polygon fill="midnightblue" stroke="midnightblue" points="135.902,-19.0001 145.902,-15.5 135.902,-12.0001 135.902,-19.0001"/>
</g>
</g>
</svg>
