<?xml version="1.0" encoding="UTF-8" standalone="no"?>
<!DOCTYPE svg PUBLIC "-//W3C//DTD SVG 1.1//EN"
 "http://www.w3.org/Graphics/SVG/1.1/DTD/svg11.dtd">
<!-- Generated by graphviz version 2.38.0 (20140413.2041)
 -->
<!-- Title: infra::detail::SharedObjectOnHeap&lt; T &gt; Pages: 1 -->
<svg width="355pt" height="195pt"
 viewBox="0.00 0.00 355.00 195.00" xmlns="http://www.w3.org/2000/svg" xmlns:xlink="http://www.w3.org/1999/xlink">
<g id="graph0" class="graph" transform="scale(1 1) rotate(0) translate(4 191)">
<title>infra::detail::SharedObjectOnHeap&lt; T &gt;</title>
<polygon fill="white" stroke="none" points="-4,4 -4,-191 351,-191 351,4 -4,4"/>
<!-- Node2 -->
<g id="node1" class="node"><title>Node2</title>
<polygon fill="#bfbfbf" stroke="black" points="109,-0.5 109,-30.5 238,-30.5 238,-0.5 109,-0.5"/>
<text text-anchor="start" x="117" y="-18.5" font-family="Helvetica,sans-Serif" font-size="10.00">infra::detail::SharedObject</text>
<text text-anchor="middle" x="173.5" y="-7.5" font-family="Helvetica,sans-Serif" font-size="10.00">OnHeap&lt; T &gt;</text>
</g>
<!-- Node3 -->
<g id="node2" class="node"><title>Node3</title>
<g id="a_node2"><a xlink:href="../../da/dcd/classinfra_1_1_shared_object_deleter.html" target="_top" xlink:title="infra::SharedObjectDeleter">
<polygon fill="white" stroke="black" points="0,-167.5 0,-186.5 131,-186.5 131,-167.5 0,-167.5"/>
<text text-anchor="middle" x="65.5" y="-174.5" font-family="Helvetica,sans-Serif" font-size="10.00">infra::SharedObjectDeleter</text>
</a>
</g>
</g>
<!-- Node3&#45;&gt;Node2 -->
<g id="edge1" class="edge"><title>Node3&#45;&gt;Node2</title>
<path fill="none" stroke="#8b1a1a" d="M70.8537,-157.552C77.3929,-136.938 89.8122,-103.158 107.5,-78 120.561,-59.4224 140.001,-42.1595 154.402,-30.6821"/>
<polygon fill="#8b1a1a" stroke="#8b1a1a" points="67.461,-156.679 67.9012,-167.265 74.1584,-158.715 67.461,-156.679"/>
</g>
<!-- Node5 -->
<g id="node4" class="node"><title>Node5</title>
<g id="a_node4"><a xlink:href="../../dd/d9a/classinfra_1_1detail_1_1_shared_ptr_control.html" target="_top" xlink:title="infra::detail::SharedPtr\lControl">
<polygon fill="white" stroke="black" points="117,-78.5 117,-108.5 230,-108.5 230,-78.5 117,-78.5"/>
<text text-anchor="start" x="125" y="-96.5" font-family="Helvetica,sans-Serif" font-size="10.00">infra::detail::SharedPtr</text>
<text text-anchor="middle" x="173.5" y="-85.5" font-family="Helvetica,sans-Serif" font-size="10.00">Control</text>
</a>
</g>
</g>
<!-- Node3&#45;&gt;Node5 -->
<g id="edge6" class="edge"><title>Node3&#45;&gt;Node5</title>
<path fill="none" stroke="#9a32cd" stroke-dasharray="5,2" d="M85.0908,-161.216C104.911,-146.259 135.331,-123.304 154.819,-108.597"/>
<polygon fill="#9a32cd" stroke="#9a32cd" points="82.9319,-158.461 77.0579,-167.278 87.1484,-164.048 82.9319,-158.461"/>
<text text-anchor="middle" x="146" y="-135.5" font-family="Helvetica,sans-Serif" font-size="10.00"> deleter</text>
</g>
<!-- Node4 -->
<g id="node3" class="node"><title>Node4</title>
<polygon fill="white" stroke="#bfbfbf" points="248,-84 248,-103 347,-103 347,-84 248,-84"/>
<text text-anchor="middle" x="297.5" y="-91" font-family="Helvetica,sans-Serif" font-size="10.00">StaticStorage&lt; T &gt;</text>
</g>
<!-- Node4&#45;&gt;Node2 -->
<g id="edge2" class="edge"><title>Node4&#45;&gt;Node2</title>
<path fill="none" stroke="#9a32cd" stroke-dasharray="5,2" d="M274.484,-78.3932C252.2,-64.7352 218.61,-44.1482 196.374,-30.5198"/>
<polygon fill="#9a32cd" stroke="#9a32cd" points="272.921,-81.5403 283.276,-83.7818 276.579,-75.5721 272.921,-81.5403"/>
<text text-anchor="middle" x="258.5" y="-52" font-family="Helvetica,sans-Serif" font-size="10.00"> object</text>
</g>
<!-- Node5&#45;&gt;Node2 -->
<g id="edge3" class="edge"><title>Node5&#45;&gt;Node2</title>
<path fill="none" stroke="#9a32cd" stroke-dasharray="5,2" d="M173.5,-68.0898C173.5,-55.7565 173.5,-41.2237 173.5,-30.7309"/>
<polygon fill="#9a32cd" stroke="#9a32cd" points="170,-68.2049 173.5,-78.205 177,-68.205 170,-68.2049"/>
<text text-anchor="middle" x="190" y="-52" font-family="Helvetica,sans-Serif" font-size="10.00"> control</text>
</g>
<!-- Node6 -->
<g id="node5" class="node"><title>Node6</title>
<polygon fill="white" stroke="#bfbfbf" points="149,-167.5 149,-186.5 216,-186.5 216,-167.5 149,-167.5"/>
<text text-anchor="middle" x="182.5" y="-174.5" font-family="Helvetica,sans-Serif" font-size="10.00">const void *</text>
</g>
<!-- Node6&#45;&gt;Node5 -->
<g id="edge4" class="edge"><title>Node6&#45;&gt;Node5</title>
<path fill="none" stroke="#9a32cd" stroke-dasharray="5,2" d="M180.427,-157.229C178.79,-142.408 176.542,-122.051 175.057,-108.597"/>
<polygon fill="#9a32cd" stroke="#9a32cd" points="176.96,-157.723 181.537,-167.278 183.918,-156.954 176.96,-157.723"/>
<text text-anchor="middle" x="194.5" y="-135.5" font-family="Helvetica,sans-Serif" font-size="10.00"> object</text>
</g>
<!-- Node7 -->
<g id="node6" class="node"><title>Node7</title>
<polygon fill="white" stroke="#bfbfbf" points="234,-167.5 234,-186.5 285,-186.5 285,-167.5 234,-167.5"/>
<text text-anchor="middle" x="259.5" y="-174.5" font-family="Helvetica,sans-Serif" font-size="10.00">uint16_t</text>
</g>
<!-- Node7&#45;&gt;Node5 -->
<g id="edge5" class="edge"><title>Node7&#45;&gt;Node5</title>
<path fill="none" stroke="#9a32cd" stroke-dasharray="5,2" d="M245.361,-159.867C236.516,-150.05 224.709,-137.435 213.5,-127 206.689,-120.659 198.81,-114.107 191.856,-108.561"/>
<polygon fill="#9a32cd" stroke="#9a32cd" points="242.754,-162.202 252.016,-167.345 247.983,-157.548 242.754,-162.202"/>
<text text-anchor="middle" x="268.5" y="-141" font-family="Helvetica,sans-Serif" font-size="10.00"> weakPtrCount</text>
<text text-anchor="middle" x="268.5" y="-130" font-family="Helvetica,sans-Serif" font-size="10.00">sharedPtrCount</text>
</g>
</g>
</svg>
