<?xml version="1.0" encoding="UTF-8" standalone="no"?>
<!DOCTYPE svg PUBLIC "-//W3C//DTD SVG 1.1//EN"
 "http://www.w3.org/Graphics/SVG/1.1/DTD/svg11.dtd">
<!-- Generated by graphviz version 2.38.0 (20140413.2041)
 -->
<!-- Title: hal::TimerServiceWin::TimerServiceWin Pages: 1 -->
<svg width="732pt" height="236pt"
 viewBox="0.00 0.00 732.00 235.50" xmlns="http://www.w3.org/2000/svg" xmlns:xlink="http://www.w3.org/1999/xlink">
<g id="graph0" class="graph" transform="scale(1 1) rotate(0) translate(4 231.5)">
<title>hal::TimerServiceWin::TimerServiceWin</title>
<polygon fill="white" stroke="none" points="-4,4 -4,-231.5 728,-231.5 728,4 -4,4"/>
<!-- Node0 -->
<g id="node1" class="node"><title>Node0</title>
<polygon fill="#bfbfbf" stroke="black" points="0,-98.5 0,-128.5 108,-128.5 108,-98.5 0,-98.5"/>
<text text-anchor="start" x="8" y="-116.5" font-family="Helvetica,sans-Serif" font-size="10.00">hal::TimerServiceWin</text>
<text text-anchor="middle" x="54" y="-105.5" font-family="Helvetica,sans-Serif" font-size="10.00">::TimerServiceWin</text>
</g>
<!-- Node1 -->
<g id="node2" class="node"><title>Node1</title>
<g id="a_node2"><a xlink:href="../../d1/d79/classhal_1_1_timer_service_win.html#ab1bb01d8405ab7b2634952c09a04e249" target="_top" xlink:title="hal::TimerServiceWin\l::WaitForTrigger">
<polygon fill="white" stroke="black" points="144,-98.5 144,-128.5 252,-128.5 252,-98.5 144,-98.5"/>
<text text-anchor="start" x="152" y="-116.5" font-family="Helvetica,sans-Serif" font-size="10.00">hal::TimerServiceWin</text>
<text text-anchor="middle" x="198" y="-105.5" font-family="Helvetica,sans-Serif" font-size="10.00">::WaitForTrigger</text>
</a>
</g>
</g>
<!-- Node0&#45;&gt;Node1 -->
<g id="edge1" class="edge"><title>Node0&#45;&gt;Node1</title>
<path fill="none" stroke="midnightblue" d="M108.28,-113.5C116.56,-113.5 125.184,-113.5 133.661,-113.5"/>
<polygon fill="midnightblue" stroke="midnightblue" points="133.894,-117 143.894,-113.5 133.894,-110 133.894,-117"/>
</g>
<!-- Node2 -->
<g id="node3" class="node"><title>Node2</title>
<g id="a_node3"><a xlink:href="../../d1/d79/classhal_1_1_timer_service_win.html#a9e759bab9e52e9402366edfe9fc07512" target="_top" xlink:title="hal::TimerServiceWin::Now">
<polygon fill="white" stroke="black" points="293,-208 293,-227 426,-227 426,-208 293,-208"/>
<text text-anchor="middle" x="359.5" y="-215" font-family="Helvetica,sans-Serif" font-size="10.00">hal::TimerServiceWin::Now</text>
</a>
</g>
</g>
<!-- Node1&#45;&gt;Node2 -->
<g id="edge2" class="edge"><title>Node1&#45;&gt;Node2</title>
<path fill="none" stroke="midnightblue" d="M210.843,-128.792C226.47,-147.922 255.792,-180.364 288,-198.5 291.959,-200.729 296.192,-202.707 300.544,-204.459"/>
<polygon fill="midnightblue" stroke="midnightblue" points="299.607,-207.842 310.201,-207.947 301.984,-201.258 299.607,-207.842"/>
</g>
<!-- Node3 -->
<g id="node4" class="node"><title>Node3</title>
<g id="a_node4"><a xlink:href="../../d3/d0e/classinfra_1_1_interface_connector.html#aed1d9e952d3d0dfa68e59ee4e868b380" target="_top" xlink:title="infra::InterfaceConnector\l\&lt; EventDispatcherWorker\l \&gt;::Instance">
<polygon fill="white" stroke="black" points="295.5,-148 295.5,-189 423.5,-189 423.5,-148 295.5,-148"/>
<text text-anchor="start" x="303.5" y="-177" font-family="Helvetica,sans-Serif" font-size="10.00">infra::InterfaceConnector</text>
<text text-anchor="start" x="303.5" y="-166" font-family="Helvetica,sans-Serif" font-size="10.00">&lt; EventDispatcherWorker</text>
<text text-anchor="middle" x="359.5" y="-155" font-family="Helvetica,sans-Serif" font-size="10.00"> &gt;::Instance</text>
</a>
</g>
</g>
<!-- Node1&#45;&gt;Node3 -->
<g id="edge3" class="edge"><title>Node1&#45;&gt;Node3</title>
<path fill="none" stroke="midnightblue" d="M242.584,-128.529C256.944,-133.481 273.289,-139.117 289.084,-144.563"/>
<polygon fill="midnightblue" stroke="midnightblue" points="288.23,-147.971 298.825,-147.922 290.512,-141.353 288.23,-147.971"/>
</g>
<!-- Node4 -->
<g id="node5" class="node"><title>Node4</title>
<g id="a_node5"><a xlink:href="../../d7/d34/classinfra_1_1_event_dispatcher_worker.html#a5922b8fd5101b15f20b639fcd11fa272" target="_top" xlink:title="infra::EventDispatcherWorker\l::Schedule">
<polygon fill="white" stroke="black" points="288,-98.5 288,-128.5 431,-128.5 431,-98.5 288,-98.5"/>
<text text-anchor="start" x="296" y="-116.5" font-family="Helvetica,sans-Serif" font-size="10.00">infra::EventDispatcherWorker</text>
<text text-anchor="middle" x="359.5" y="-105.5" font-family="Helvetica,sans-Serif" font-size="10.00">::Schedule</text>
</a>
</g>
</g>
<!-- Node1&#45;&gt;Node4 -->
<g id="edge4" class="edge"><title>Node1&#45;&gt;Node4</title>
<path fill="none" stroke="midnightblue" d="M252.111,-113.5C260.318,-113.5 268.95,-113.5 277.601,-113.5"/>
<polygon fill="midnightblue" stroke="midnightblue" points="277.739,-117 287.739,-113.5 277.739,-110 277.739,-117"/>
</g>
<!-- Node5 -->
<g id="node6" class="node"><title>Node5</title>
<g id="a_node6"><a xlink:href="../../da/def/classinfra_1_1_timer_service.html#a62136eeac9187506213715289cb9c560" target="_top" xlink:title="infra::TimerService\l::Progressed">
<polygon fill="white" stroke="black" points="311.5,-49.5 311.5,-79.5 407.5,-79.5 407.5,-49.5 311.5,-49.5"/>
<text text-anchor="start" x="319.5" y="-67.5" font-family="Helvetica,sans-Serif" font-size="10.00">infra::TimerService</text>
<text text-anchor="middle" x="359.5" y="-56.5" font-family="Helvetica,sans-Serif" font-size="10.00">::Progressed</text>
</a>
</g>
</g>
<!-- Node1&#45;&gt;Node5 -->
<g id="edge5" class="edge"><title>Node1&#45;&gt;Node5</title>
<path fill="none" stroke="midnightblue" d="M248.157,-98.3986C264.99,-93.2271 283.967,-87.3972 301.376,-82.0491"/>
<polygon fill="midnightblue" stroke="midnightblue" points="302.885,-85.2469 311.417,-78.9645 300.83,-78.5555 302.885,-85.2469"/>
</g>
<!-- Node8 -->
<g id="node9" class="node"><title>Node8</title>
<g id="a_node9"><a xlink:href="../../d1/d79/classhal_1_1_timer_service_win.html#aff5649316722acf961a1ab1fd48ad221" target="_top" xlink:title="hal::TimerServiceWin\l::NextTriggerChanged">
<polygon fill="white" stroke="black" points="304.5,-0.5 304.5,-30.5 414.5,-30.5 414.5,-0.5 304.5,-0.5"/>
<text text-anchor="start" x="312.5" y="-18.5" font-family="Helvetica,sans-Serif" font-size="10.00">hal::TimerServiceWin</text>
<text text-anchor="middle" x="359.5" y="-7.5" font-family="Helvetica,sans-Serif" font-size="10.00">::NextTriggerChanged</text>
</a>
</g>
</g>
<!-- Node1&#45;&gt;Node8 -->
<g id="edge8" class="edge"><title>Node1&#45;&gt;Node8</title>
<path fill="none" stroke="midnightblue" d="M213.779,-98.2415C230.465,-81.7665 259.077,-55.7115 288,-39.5 291.082,-37.7724 294.31,-36.1401 297.616,-34.6026"/>
<polygon fill="midnightblue" stroke="midnightblue" points="299.292,-37.6917 307.09,-30.5195 296.522,-31.2633 299.292,-37.6917"/>
</g>
<!-- Node6 -->
<g id="node7" class="node"><title>Node6</title>
<g id="a_node7"><a xlink:href="../../da/def/classinfra_1_1_timer_service.html#afb8a6ef3ee5ba728f1a8f232514bad8c" target="_top" xlink:title="infra::TimerService\l::ComputeNextTrigger">
<polygon fill="white" stroke="black" points="467,-49.5 467,-79.5 578,-79.5 578,-49.5 467,-49.5"/>
<text text-anchor="start" x="475" y="-67.5" font-family="Helvetica,sans-Serif" font-size="10.00">infra::TimerService</text>
<text text-anchor="middle" x="522.5" y="-56.5" font-family="Helvetica,sans-Serif" font-size="10.00">::ComputeNextTrigger</text>
</a>
</g>
</g>
<!-- Node5&#45;&gt;Node6 -->
<g id="edge6" class="edge"><title>Node5&#45;&gt;Node6</title>
<path fill="none" stroke="midnightblue" d="M407.501,-64.5C422.873,-64.5 440.229,-64.5 456.677,-64.5"/>
<polygon fill="midnightblue" stroke="midnightblue" points="456.775,-68.0001 466.775,-64.5 456.775,-61.0001 456.775,-68.0001"/>
</g>
<!-- Node7 -->
<g id="node8" class="node"><title>Node7</title>
<g id="a_node8"><a xlink:href="../../da/def/classinfra_1_1_timer_service.html#a6ae66196dc18d8b383ba5e0f0b6f22fa" target="_top" xlink:title="infra::TimerService\l::NextTriggerChanged">
<polygon fill="white" stroke="black" points="614,-49.5 614,-79.5 724,-79.5 724,-49.5 614,-49.5"/>
<text text-anchor="start" x="622" y="-67.5" font-family="Helvetica,sans-Serif" font-size="10.00">infra::TimerService</text>
<text text-anchor="middle" x="669" y="-56.5" font-family="Helvetica,sans-Serif" font-size="10.00">::NextTriggerChanged</text>
</a>
</g>
</g>
<!-- Node6&#45;&gt;Node7 -->
<g id="edge7" class="edge"><title>Node6&#45;&gt;Node7</title>
<path fill="none" stroke="midnightblue" d="M578.129,-64.5C586.425,-64.5 595.051,-64.5 603.532,-64.5"/>
<polygon fill="midnightblue" stroke="midnightblue" points="603.773,-68.0001 613.773,-64.5 603.773,-61.0001 603.773,-68.0001"/>
</g>
<!-- Node9 -->
<g id="node10" class="node"><title>Node9</title>
<g id="a_node10"><a xlink:href="../../da/def/classinfra_1_1_timer_service.html#ae092e0679a0307ceb7ec802c576e9ef2" target="_top" xlink:title="infra::TimerService\l::NextTrigger">
<polygon fill="white" stroke="black" points="474.5,-0.5 474.5,-30.5 570.5,-30.5 570.5,-0.5 474.5,-0.5"/>
<text text-anchor="start" x="482.5" y="-18.5" font-family="Helvetica,sans-Serif" font-size="10.00">infra::TimerService</text>
<text text-anchor="middle" x="522.5" y="-7.5" font-family="Helvetica,sans-Serif" font-size="10.00">::NextTrigger</text>
</a>
</g>
</g>
<!-- Node8&#45;&gt;Node9 -->
<g id="edge9" class="edge"><title>Node8&#45;&gt;Node9</title>
<path fill="none" stroke="midnightblue" d="M414.559,-15.5C430.445,-15.5 447.878,-15.5 463.973,-15.5"/>
<polygon fill="midnightblue" stroke="midnightblue" points="464.327,-19.0001 474.327,-15.5 464.327,-12.0001 464.327,-19.0001"/>
</g>
</g>
</svg>
