<?xml version="1.0" encoding="UTF-8" standalone="no"?>
<!DOCTYPE svg PUBLIC "-//W3C//DTD SVG 1.1//EN"
 "http://www.w3.org/Graphics/SVG/1.1/DTD/svg11.dtd">
<!-- Generated by graphviz version 2.38.0 (20140413.2041)
 -->
<!-- Title: hal::FlashHomogeneous::NumberOfSectors Pages: 1 -->
<svg width="453pt" height="186pt"
 viewBox="0.00 0.00 453.00 186.00" xmlns="http://www.w3.org/2000/svg" xmlns:xlink="http://www.w3.org/1999/xlink">
<g id="graph0" class="graph" transform="scale(1 1) rotate(0) translate(4 182)">
<title>hal::FlashHomogeneous::NumberOfSectors</title>
<polygon fill="white" stroke="none" points="-4,4 -4,-182 449,-182 449,4 -4,4"/>
<!-- Node21 -->
<g id="node1" class="node"><title>Node21</title>
<polygon fill="#bfbfbf" stroke="black" points="0,-73.5 0,-103.5 122,-103.5 122,-73.5 0,-73.5"/>
<text text-anchor="start" x="8" y="-91.5" font-family="Helvetica,sans-Serif" font-size="10.00">hal::FlashHomogeneous</text>
<text text-anchor="middle" x="61" y="-80.5" font-family="Helvetica,sans-Serif" font-size="10.00">::NumberOfSectors</text>
</g>
<!-- Node22 -->
<g id="node2" class="node"><title>Node22</title>
<g id="a_node2"><a xlink:href="../../d2/d0c/classservices_1_1_flash_quad_spi_single_speed.html#a60db54616912db21b04d3f6b8f809f56" target="_top" xlink:title="services::FlashQuadSpiSingle\lSpeed::EraseSomeSectors">
<polygon fill="white" stroke="black" points="162.5,-147.5 162.5,-177.5 308.5,-177.5 308.5,-147.5 162.5,-147.5"/>
<text text-anchor="start" x="170.5" y="-165.5" font-family="Helvetica,sans-Serif" font-size="10.00">services::FlashQuadSpiSingle</text>
<text text-anchor="middle" x="235.5" y="-154.5" font-family="Helvetica,sans-Serif" font-size="10.00">Speed::EraseSomeSectors</text>
</a>
</g>
</g>
<!-- Node21&#45;&gt;Node22 -->
<g id="edge1" class="edge"><title>Node21&#45;&gt;Node22</title>
<path fill="none" stroke="midnightblue" d="M96.8188,-108.528C114.739,-118.345 137.149,-129.878 158,-138.5 165.718,-141.691 174.02,-144.705 182.209,-147.449"/>
<polygon fill="midnightblue" stroke="midnightblue" points="98.3318,-105.365 87.8892,-103.575 94.9366,-111.486 98.3318,-105.365"/>
</g>
<!-- Node23 -->
<g id="node3" class="node"><title>Node23</title>
<g id="a_node3"><a xlink:href="../../d8/dbe/classservices_1_1_flash_quad_spi_micron_n25q.html#a930007b55bc31caa9663b3e04ee562bf" target="_top" xlink:title="services::FlashQuadSpiMicron\lN25q::EraseSomeSectors">
<polygon fill="white" stroke="black" points="161,-98.5 161,-128.5 310,-128.5 310,-98.5 161,-98.5"/>
<text text-anchor="start" x="169" y="-116.5" font-family="Helvetica,sans-Serif" font-size="10.00">services::FlashQuadSpiMicron</text>
<text text-anchor="middle" x="235.5" y="-105.5" font-family="Helvetica,sans-Serif" font-size="10.00">N25q::EraseSomeSectors</text>
</a>
</g>
</g>
<!-- Node21&#45;&gt;Node23 -->
<g id="edge2" class="edge"><title>Node21&#45;&gt;Node23</title>
<path fill="none" stroke="midnightblue" d="M132.388,-98.7011C141.769,-100.061 151.409,-101.458 160.844,-102.825"/>
<polygon fill="midnightblue" stroke="midnightblue" points="132.731,-95.2143 122.332,-97.2438 131.727,-102.142 132.731,-95.2143"/>
</g>
<!-- Node24 -->
<g id="node4" class="node"><title>Node24</title>
<g id="a_node4"><a xlink:href="../../d1/d88/classservices_1_1_flash_quad_spi_cypress_fll.html#a6462920d4d5e7d433e896cfd160da015" target="_top" xlink:title="services::FlashQuadSpiCypress\lFll::EraseSomeSectors">
<polygon fill="white" stroke="black" points="158,-49.5 158,-79.5 313,-79.5 313,-49.5 158,-49.5"/>
<text text-anchor="start" x="166" y="-67.5" font-family="Helvetica,sans-Serif" font-size="10.00">services::FlashQuadSpiCypress</text>
<text text-anchor="middle" x="235.5" y="-56.5" font-family="Helvetica,sans-Serif" font-size="10.00">Fll::EraseSomeSectors</text>
</a>
</g>
</g>
<!-- Node21&#45;&gt;Node24 -->
<g id="edge3" class="edge"><title>Node21&#45;&gt;Node24</title>
<path fill="none" stroke="midnightblue" d="M132.421,-78.7024C140.793,-77.5375 149.372,-76.3439 157.827,-75.1676"/>
<polygon fill="midnightblue" stroke="midnightblue" points="131.754,-75.2612 122.332,-80.106 132.719,-82.1945 131.754,-75.2612"/>
</g>
<!-- Node25 -->
<g id="node5" class="node"><title>Node25</title>
<g id="a_node5"><a xlink:href="../../df/d28/classservices_1_1_flash_spi.html#aa87d4ca73eedb68b123567cb8d678743" target="_top" xlink:title="services::FlashSpi\l::EraseSomeSectors">
<polygon fill="white" stroke="black" points="182,-0.5 182,-30.5 289,-30.5 289,-0.5 182,-0.5"/>
<text text-anchor="start" x="190" y="-18.5" font-family="Helvetica,sans-Serif" font-size="10.00">services::FlashSpi</text>
<text text-anchor="middle" x="235.5" y="-7.5" font-family="Helvetica,sans-Serif" font-size="10.00">::EraseSomeSectors</text>
</a>
</g>
</g>
<!-- Node21&#45;&gt;Node25 -->
<g id="edge4" class="edge"><title>Node21&#45;&gt;Node25</title>
<path fill="none" stroke="midnightblue" d="M98.9764,-68.4073C116.572,-59.264 138.076,-48.6842 158,-40.5 166.53,-36.9961 175.747,-33.6372 184.729,-30.5814"/>
<polygon fill="midnightblue" stroke="midnightblue" points="96.8622,-65.5645 89.6384,-73.3148 100.119,-71.7609 96.8622,-65.5645"/>
</g>
<!-- Node26 -->
<g id="node6" class="node"><title>Node26</title>
<g id="a_node6"><a xlink:href="../../df/d28/classservices_1_1_flash_spi.html#a5b3e05583977f2aebb2cb4b25491390a" target="_top" xlink:title="services::FlashSpi\l::EraseSectors">
<polygon fill="white" stroke="black" points="349,-0.5 349,-30.5 445,-30.5 445,-0.5 349,-0.5"/>
<text text-anchor="start" x="357" y="-18.5" font-family="Helvetica,sans-Serif" font-size="10.00">services::FlashSpi</text>
<text text-anchor="middle" x="397" y="-7.5" font-family="Helvetica,sans-Serif" font-size="10.00">::EraseSectors</text>
</a>
</g>
</g>
<!-- Node25&#45;&gt;Node26 -->
<g id="edge5" class="edge"><title>Node25&#45;&gt;Node26</title>
<path fill="none" stroke="midnightblue" d="M299.272,-15.5C315.753,-15.5 333.248,-15.5 348.762,-15.5"/>
<polygon fill="midnightblue" stroke="midnightblue" points="299.168,-12.0001 289.168,-15.5 299.168,-19.0001 299.168,-12.0001"/>
</g>
</g>
</svg>
