<?xml version="1.0" encoding="UTF-8" standalone="no"?>
<!DOCTYPE svg PUBLIC "-//W3C//DTD SVG 1.1//EN"
 "http://www.w3.org/Graphics/SVG/1.1/DTD/svg11.dtd">
<!-- Generated by graphviz version 2.38.0 (20140413.2041)
 -->
<!-- Title: hal::ChipSelectConfigurator Pages: 1 -->
<svg width="308pt" height="95pt"
 viewBox="0.00 0.00 307.50 95.00" xmlns="http://www.w3.org/2000/svg" xmlns:xlink="http://www.w3.org/1999/xlink">
<g id="graph0" class="graph" transform="scale(1 1) rotate(0) translate(4 91)">
<title>hal::ChipSelectConfigurator</title>
<polygon fill="white" stroke="none" points="-4,4 -4,-91 303.5,-91 303.5,4 -4,4"/>
<!-- Node0 -->
<g id="node1" class="node"><title>Node0</title>
<polygon fill="#bfbfbf" stroke="black" points="83,-67.5 83,-86.5 217,-86.5 217,-67.5 83,-67.5"/>
<text text-anchor="middle" x="150" y="-74.5" font-family="Helvetica,sans-Serif" font-size="10.00">hal::ChipSelectConfigurator</text>
</g>
<!-- Node1 -->
<g id="node2" class="node"><title>Node1</title>
<g id="a_node2"><a xlink:href="../../d4/d41/classservices_1_1_spi_master_with_chip_select.html" target="_top" xlink:title="services::SpiMasterWithChip\lSelect">
<polygon fill="white" stroke="black" points="0,-0.5 0,-30.5 142,-30.5 142,-0.5 0,-0.5"/>
<text text-anchor="start" x="8" y="-18.5" font-family="Helvetica,sans-Serif" font-size="10.00">services::SpiMasterWithChip</text>
<text text-anchor="middle" x="71" y="-7.5" font-family="Helvetica,sans-Serif" font-size="10.00">Select</text>
</a>
</g>
</g>
<!-- Node0&#45;&gt;Node1 -->
<g id="edge1" class="edge"><title>Node0&#45;&gt;Node1</title>
<path fill="none" stroke="midnightblue" d="M130.344,-61.1955C117.886,-51.8129 101.871,-39.7512 89.6187,-30.523"/>
<polygon fill="midnightblue" stroke="midnightblue" points="128.588,-64.2547 138.681,-67.4751 132.799,-58.6631 128.588,-64.2547"/>
</g>
<!-- Node2 -->
<g id="node3" class="node"><title>Node2</title>
<g id="a_node3"><a xlink:href="../../d9/d2d/classservices_1_1_spi_multiple_access.html" target="_top" xlink:title="services::SpiMultipleAccess">
<polygon fill="white" stroke="black" points="160.5,-6 160.5,-25 299.5,-25 299.5,-6 160.5,-6"/>
<text text-anchor="middle" x="230" y="-13" font-family="Helvetica,sans-Serif" font-size="10.00">services::SpiMultipleAccess</text>
</a>
</g>
</g>
<!-- Node0&#45;&gt;Node2 -->
<g id="edge2" class="edge"><title>Node0&#45;&gt;Node2</title>
<path fill="none" stroke="#8b1a1a" d="M169.773,-61.2938C185.119,-49.8803 205.855,-34.4577 218.559,-25.0091"/>
<polygon fill="#8b1a1a" stroke="#8b1a1a" points="167.397,-58.6988 161.462,-67.4751 171.575,-64.3156 167.397,-58.6988"/>
</g>
</g>
</svg>
