<?xml version="1.0" encoding="UTF-8" standalone="no"?>
<!DOCTYPE svg PUBLIC "-//W3C//DTD SVG 1.1//EN"
 "http://www.w3.org/Graphics/SVG/1.1/DTD/svg11.dtd">
<!-- Generated by graphviz version 2.38.0 (20140413.2041)
 -->
<!-- Title: services::SynchronousFlashQuadSpi Pages: 1 -->
<svg width="635pt" height="196pt"
 viewBox="0.00 0.00 635.00 196.00" xmlns="http://www.w3.org/2000/svg" xmlns:xlink="http://www.w3.org/1999/xlink">
<g id="graph0" class="graph" transform="scale(1 1) rotate(0) translate(4 192)">
<title>services::SynchronousFlashQuadSpi</title>
<polygon fill="white" stroke="none" points="-4,4 -4,-192 631,-192 631,4 -4,4"/>
<!-- Node3 -->
<g id="node1" class="node"><title>Node3</title>
<polygon fill="#bfbfbf" stroke="black" points="488,-71 488,-101 627,-101 627,-71 488,-71"/>
<text text-anchor="start" x="496" y="-89" font-family="Helvetica,sans-Serif" font-size="10.00">services::SynchronousFlash</text>
<text text-anchor="middle" x="557.5" y="-78" font-family="Helvetica,sans-Serif" font-size="10.00">QuadSpi</text>
</g>
<!-- Node4 -->
<g id="node2" class="node"><title>Node4</title>
<g id="a_node2"><a xlink:href="../../de/d9c/classhal_1_1_synchronous_flash_homogeneous.html" target="_top" xlink:title="hal::SynchronousFlashHomogeneous">
<polygon fill="white" stroke="black" points="234,-168.5 234,-187.5 413,-187.5 413,-168.5 234,-168.5"/>
<text text-anchor="middle" x="323.5" y="-175.5" font-family="Helvetica,sans-Serif" font-size="10.00">hal::SynchronousFlashHomogeneous</text>
</a>
</g>
</g>
<!-- Node4&#45;&gt;Node3 -->
<g id="edge1" class="edge"><title>Node4&#45;&gt;Node3</title>
<path fill="none" stroke="midnightblue" d="M375.308,-165.883C387.771,-162.457 400.98,-158.438 413,-154 454.38,-138.723 500.09,-115.98 528.553,-101.071"/>
<polygon fill="midnightblue" stroke="midnightblue" points="374.268,-162.538 365.51,-168.5 376.074,-169.301 374.268,-162.538"/>
</g>
<!-- Node5 -->
<g id="node3" class="node"><title>Node5</title>
<g id="a_node3"><a xlink:href="../../d5/dff/classhal_1_1_synchronous_flash.html" target="_top" xlink:title="hal::SynchronousFlash">
<polygon fill="white" stroke="black" points="0,-168.5 0,-187.5 116,-187.5 116,-168.5 0,-168.5"/>
<text text-anchor="middle" x="58" y="-175.5" font-family="Helvetica,sans-Serif" font-size="10.00">hal::SynchronousFlash</text>
</a>
</g>
</g>
<!-- Node5&#45;&gt;Node4 -->
<g id="edge2" class="edge"><title>Node5&#45;&gt;Node4</title>
<path fill="none" stroke="midnightblue" d="M126.516,-178C159.163,-178 198.777,-178 233.822,-178"/>
<polygon fill="midnightblue" stroke="midnightblue" points="126.176,-174.5 116.176,-178 126.176,-181.5 126.176,-174.5"/>
</g>
<!-- Node6 -->
<g id="node4" class="node"><title>Node6</title>
<polygon fill="white" stroke="#bfbfbf" points="32.5,-113.5 32.5,-132.5 83.5,-132.5 83.5,-113.5 32.5,-113.5"/>
<text text-anchor="middle" x="58" y="-120.5" font-family="Helvetica,sans-Serif" font-size="10.00">uint32_t</text>
</g>
<!-- Node6&#45;&gt;Node3 -->
<g id="edge7" class="edge"><title>Node6&#45;&gt;Node3</title>
<path fill="none" stroke="#9a32cd" stroke-dasharray="5,2" d="M93.9077,-120.404C175.58,-114.33 380.326,-99.1024 487.949,-91.0983"/>
<polygon fill="#9a32cd" stroke="#9a32cd" points="93.3839,-116.933 83.6711,-121.165 93.9032,-123.914 93.3839,-116.933"/>
<text text-anchor="middle" x="323.5" y="-146" font-family="Helvetica,sans-Serif" font-size="10.00"> address</text>
<text text-anchor="middle" x="323.5" y="-135" font-family="Helvetica,sans-Serif" font-size="10.00">sizePage</text>
<text text-anchor="middle" x="323.5" y="-124" font-family="Helvetica,sans-Serif" font-size="10.00">sizeSector</text>
<text text-anchor="middle" x="323.5" y="-113" font-family="Helvetica,sans-Serif" font-size="10.00">sizeSubSector</text>
</g>
<!-- Node6&#45;&gt;Node4 -->
<g id="edge3" class="edge"><title>Node6&#45;&gt;Node4</title>
<path fill="none" stroke="#9a32cd" stroke-dasharray="5,2" d="M93.7032,-128.827C125.591,-134.32 174.117,-143.027 216,-152 239.263,-156.984 265.2,-163.3 285.653,-168.458"/>
<polygon fill="#9a32cd" stroke="#9a32cd" points="94.0075,-125.329 83.5605,-127.092 92.827,-132.228 94.0075,-125.329"/>
<text text-anchor="middle" x="175" y="-166" font-family="Helvetica,sans-Serif" font-size="10.00"> sizeOfEachSector</text>
<text text-anchor="middle" x="175" y="-155" font-family="Helvetica,sans-Serif" font-size="10.00">numberOfSectors</text>
</g>
<!-- Node7 -->
<g id="node5" class="node"><title>Node7</title>
<g id="a_node5"><a xlink:href="../../d0/d6d/classinfra_1_1_memory_range.html" target="_top" xlink:title="infra::MemoryRange\l\&lt; const uint8_t \&gt;">
<polygon fill="white" stroke="black" points="271.5,-39 271.5,-69 375.5,-69 375.5,-39 271.5,-39"/>
<text text-anchor="start" x="279.5" y="-57" font-family="Helvetica,sans-Serif" font-size="10.00">infra::MemoryRange</text>
<text text-anchor="middle" x="323.5" y="-46" font-family="Helvetica,sans-Serif" font-size="10.00">&lt; const uint8_t &gt;</text>
</a>
</g>
</g>
<!-- Node7&#45;&gt;Node3 -->
<g id="edge4" class="edge"><title>Node7&#45;&gt;Node3</title>
<path fill="none" stroke="#9a32cd" stroke-dasharray="5,2" d="M385.634,-62.4323C417.035,-66.7635 455.405,-72.0559 487.824,-76.5274"/>
<polygon fill="#9a32cd" stroke="#9a32cd" points="386.085,-58.9614 375.701,-61.0622 385.129,-65.8958 386.085,-58.9614"/>
<text text-anchor="middle" x="450.5" y="-77" font-family="Helvetica,sans-Serif" font-size="10.00"> buffer</text>
</g>
<!-- Node8 -->
<g id="node6" class="node"><title>Node8</title>
<polygon fill="white" stroke="#bfbfbf" points="18,-44.5 18,-63.5 98,-63.5 98,-44.5 18,-44.5"/>
<text text-anchor="middle" x="58" y="-51.5" font-family="Helvetica,sans-Serif" font-size="10.00">const uint8_t *</text>
</g>
<!-- Node8&#45;&gt;Node7 -->
<g id="edge5" class="edge"><title>Node8&#45;&gt;Node7</title>
<path fill="none" stroke="#9a32cd" stroke-dasharray="5,2" d="M108.304,-54C154.814,-54 224.242,-54 271.347,-54"/>
<polygon fill="#9a32cd" stroke="#9a32cd" points="108.164,-50.5001 98.1641,-54 108.164,-57.5001 108.164,-50.5001"/>
<text text-anchor="middle" x="175" y="-68" font-family="Helvetica,sans-Serif" font-size="10.00"> beginElement</text>
<text text-anchor="middle" x="175" y="-57" font-family="Helvetica,sans-Serif" font-size="10.00">endElement</text>
</g>
<!-- Node9 -->
<g id="node7" class="node"><title>Node9</title>
<g id="a_node7"><a xlink:href="../../db/dce/classhal_1_1_synchronous_quad_spi.html" target="_top" xlink:title="hal::SynchronousQuadSpi">
<polygon fill="white" stroke="black" points="258.5,-0.5 258.5,-19.5 388.5,-19.5 388.5,-0.5 258.5,-0.5"/>
<text text-anchor="middle" x="323.5" y="-7.5" font-family="Helvetica,sans-Serif" font-size="10.00">hal::SynchronousQuadSpi</text>
</a>
</g>
</g>
<!-- Node9&#45;&gt;Node3 -->
<g id="edge6" class="edge"><title>Node9&#45;&gt;Node3</title>
<path fill="none" stroke="#9a32cd" stroke-dasharray="5,2" d="M385.771,-21.762C394.961,-23.9271 404.276,-26.3512 413,-29 451.604,-40.7215 494.414,-58.3612 523.142,-70.9094"/>
<polygon fill="#9a32cd" stroke="#9a32cd" points="386.409,-18.3177 375.882,-19.5158 384.858,-25.1438 386.409,-18.3177"/>
<text text-anchor="middle" x="450.5" y="-52" font-family="Helvetica,sans-Serif" font-size="10.00"> quadSpi</text>
</g>
</g>
</svg>
