<?xml version="1.0" encoding="UTF-8" standalone="no"?>
<!DOCTYPE svg PUBLIC "-//W3C//DTD SVG 1.1//EN"
 "http://www.w3.org/Graphics/SVG/1.1/DTD/svg11.dtd">
<!-- Generated by graphviz version 2.38.0 (20140413.2041)
 -->
<!-- Title: hal::TimerServiceBsd Pages: 1 -->
<svg width="148pt" height="151pt"
 viewBox="0.00 0.00 148.00 151.00" xmlns="http://www.w3.org/2000/svg" xmlns:xlink="http://www.w3.org/1999/xlink">
<g id="graph0" class="graph" transform="scale(1 1) rotate(0) translate(4 147)">
<title>hal::TimerServiceBsd</title>
<polygon fill="white" stroke="none" points="-4,4 -4,-147 144,-147 144,4 -4,4"/>
<!-- Node0 -->
<g id="node1" class="node"><title>Node0</title>
<polygon fill="#bfbfbf" stroke="black" points="16,-0.5 16,-19.5 124,-19.5 124,-0.5 16,-0.5"/>
<text text-anchor="middle" x="70" y="-7.5" font-family="Helvetica,sans-Serif" font-size="10.00">hal::TimerServiceBsd</text>
</g>
<!-- Node1 -->
<g id="node2" class="node"><title>Node1</title>
<g id="a_node2"><a xlink:href="../../da/def/classinfra_1_1_timer_service.html" target="_top" xlink:title="infra::TimerService">
<polygon fill="white" stroke="black" points="22,-56.5 22,-75.5 118,-75.5 118,-56.5 22,-56.5"/>
<text text-anchor="middle" x="70" y="-63.5" font-family="Helvetica,sans-Serif" font-size="10.00">infra::TimerService</text>
</a>
</g>
</g>
<!-- Node1&#45;&gt;Node0 -->
<g id="edge1" class="edge"><title>Node1&#45;&gt;Node0</title>
<path fill="none" stroke="midnightblue" d="M70,-45.8045C70,-36.9102 70,-26.7798 70,-19.7511"/>
<polygon fill="midnightblue" stroke="midnightblue" points="66.5001,-46.083 70,-56.083 73.5001,-46.083 66.5001,-46.083"/>
</g>
<!-- Node2 -->
<g id="node3" class="node"><title>Node2</title>
<g id="a_node3"><a xlink:href="../../d7/d4a/classinfra_1_1detail_1_1_intrusive_forward_list_node.html" target="_top" xlink:title="infra::IntrusiveForwardList\l\&lt; TimerService \&gt;::NodeType">
<polygon fill="white" stroke="black" points="0,-112.5 0,-142.5 140,-142.5 140,-112.5 0,-112.5"/>
<text text-anchor="start" x="8" y="-130.5" font-family="Helvetica,sans-Serif" font-size="10.00">infra::IntrusiveForwardList</text>
<text text-anchor="middle" x="70" y="-119.5" font-family="Helvetica,sans-Serif" font-size="10.00">&lt; TimerService &gt;::NodeType</text>
</a>
</g>
</g>
<!-- Node2&#45;&gt;Node1 -->
<g id="edge2" class="edge"><title>Node2&#45;&gt;Node1</title>
<path fill="none" stroke="midnightblue" d="M70,-102.289C70,-92.857 70,-82.6548 70,-75.6578"/>
<polygon fill="midnightblue" stroke="midnightblue" points="66.5001,-102.399 70,-112.399 73.5001,-102.399 66.5001,-102.399"/>
</g>
</g>
</svg>
