<?xml version="1.0" encoding="UTF-8" standalone="no"?>
<!DOCTYPE svg PUBLIC "-//W3C//DTD SVG 1.1//EN"
 "http://www.w3.org/Graphics/SVG/1.1/DTD/svg11.dtd">
<!-- Generated by graphviz version 2.38.0 (20140413.2041)
 -->
<!-- Title: services::ConnectionSerial::StateSending Pages: 1 -->
<svg width="670pt" height="88pt"
 viewBox="0.00 0.00 670.00 88.00" xmlns="http://www.w3.org/2000/svg" xmlns:xlink="http://www.w3.org/1999/xlink">
<g id="graph0" class="graph" transform="scale(1 1) rotate(0) translate(4 84)">
<title>services::ConnectionSerial::StateSending</title>
<polygon fill="white" stroke="none" points="-4,4 -4,-84 666,-84 666,4 -4,4"/>
<!-- Node0 -->
<g id="node1" class="node"><title>Node0</title>
<polygon fill="#bfbfbf" stroke="black" points="334,-24.5 334,-54.5 465,-54.5 465,-24.5 334,-24.5"/>
<text text-anchor="start" x="342" y="-42.5" font-family="Helvetica,sans-Serif" font-size="10.00">services::ConnectionSerial</text>
<text text-anchor="middle" x="399.5" y="-31.5" font-family="Helvetica,sans-Serif" font-size="10.00">::StateSending</text>
</g>
<!-- Node3 -->
<g id="node4" class="node"><title>Node3</title>
<g id="a_node4"><a xlink:href="../../d4/d55/classservices_1_1_connection_serial_1_1_state_connected_sending_content.html" target="_top" xlink:title="services::ConnectionSerial\l::StateConnectedSendingContent">
<polygon fill="white" stroke="black" points="501,-49.5 501,-79.5 662,-79.5 662,-49.5 501,-49.5"/>
<text text-anchor="start" x="509" y="-67.5" font-family="Helvetica,sans-Serif" font-size="10.00">services::ConnectionSerial</text>
<text text-anchor="middle" x="581.5" y="-56.5" font-family="Helvetica,sans-Serif" font-size="10.00">::StateConnectedSendingContent</text>
</a>
</g>
</g>
<!-- Node0&#45;&gt;Node3 -->
<g id="edge3" class="edge"><title>Node0&#45;&gt;Node3</title>
<path fill="none" stroke="midnightblue" d="M475.135,-49.866C483.663,-51.0504 492.381,-52.2612 500.97,-53.4541"/>
<polygon fill="midnightblue" stroke="midnightblue" points="475.616,-46.3993 465.23,-48.4903 474.653,-53.3327 475.616,-46.3993"/>
</g>
<!-- Node4 -->
<g id="node5" class="node"><title>Node4</title>
<g id="a_node5"><a xlink:href="../../da/d87/classservices_1_1_connection_serial_1_1_state_sending_update.html" target="_top" xlink:title="services::ConnectionSerial\l::StateSendingUpdate">
<polygon fill="white" stroke="black" points="516,-0.5 516,-30.5 647,-30.5 647,-0.5 516,-0.5"/>
<text text-anchor="start" x="524" y="-18.5" font-family="Helvetica,sans-Serif" font-size="10.00">services::ConnectionSerial</text>
<text text-anchor="middle" x="581.5" y="-7.5" font-family="Helvetica,sans-Serif" font-size="10.00">::StateSendingUpdate</text>
</a>
</g>
</g>
<!-- Node0&#45;&gt;Node4 -->
<g id="edge4" class="edge"><title>Node0&#45;&gt;Node4</title>
<path fill="none" stroke="midnightblue" d="M475.372,-29.5171C488.779,-27.7295 502.647,-25.8804 515.74,-24.1347"/>
<polygon fill="midnightblue" stroke="midnightblue" points="474.68,-26.0783 465.23,-30.8694 475.605,-33.0169 474.68,-26.0783"/>
</g>
<!-- Node1 -->
<g id="node2" class="node"><title>Node1</title>
<g id="a_node2"><a xlink:href="../../d2/d3d/classservices_1_1_connection_serial_1_1_state_connected.html" target="_top" xlink:title="services::ConnectionSerial\l::StateConnected">
<polygon fill="white" stroke="black" points="167,-24.5 167,-54.5 298,-54.5 298,-24.5 167,-24.5"/>
<text text-anchor="start" x="175" y="-42.5" font-family="Helvetica,sans-Serif" font-size="10.00">services::ConnectionSerial</text>
<text text-anchor="middle" x="232.5" y="-31.5" font-family="Helvetica,sans-Serif" font-size="10.00">::StateConnected</text>
</a>
</g>
</g>
<!-- Node1&#45;&gt;Node0 -->
<g id="edge1" class="edge"><title>Node1&#45;&gt;Node0</title>
<path fill="none" stroke="midnightblue" d="M308.239,-39.5C316.821,-39.5 325.516,-39.5 333.948,-39.5"/>
<polygon fill="midnightblue" stroke="midnightblue" points="308.239,-36.0001 298.239,-39.5 308.239,-43.0001 308.239,-36.0001"/>
</g>
<!-- Node2 -->
<g id="node3" class="node"><title>Node2</title>
<g id="a_node3"><a xlink:href="../../d6/dcc/classservices_1_1_connection_serial_1_1_state.html" target="_top" xlink:title="services::ConnectionSerial\l::State">
<polygon fill="white" stroke="black" points="0,-24.5 0,-54.5 131,-54.5 131,-24.5 0,-24.5"/>
<text text-anchor="start" x="8" y="-42.5" font-family="Helvetica,sans-Serif" font-size="10.00">services::ConnectionSerial</text>
<text text-anchor="middle" x="65.5" y="-31.5" font-family="Helvetica,sans-Serif" font-size="10.00">::State</text>
</a>
</g>
</g>
<!-- Node2&#45;&gt;Node1 -->
<g id="edge2" class="edge"><title>Node2&#45;&gt;Node1</title>
<path fill="none" stroke="midnightblue" d="M141.239,-39.5C149.821,-39.5 158.516,-39.5 166.948,-39.5"/>
<polygon fill="midnightblue" stroke="midnightblue" points="141.239,-36.0001 131.239,-39.5 141.239,-43.0001 141.239,-36.0001"/>
</g>
</g>
</svg>
