<?xml version="1.0" encoding="UTF-8" standalone="no"?>
<!DOCTYPE svg PUBLIC "-//W3C//DTD SVG 1.1//EN"
 "http://www.w3.org/Graphics/SVG/1.1/DTD/svg11.dtd">
<!-- Generated by graphviz version 2.38.0 (20140413.2041)
 -->
<!-- Title: services::ConfigurationBlobImpl::RecoverCurrentSize Pages: 1 -->
<!--zoomable 225 -->
<svg id="main" version="1.1" xmlns="http://www.w3.org/2000/svg" xmlns:xlink="http://www.w3.org/1999/xlink" xml:space="preserve" onload="init(evt)">
<style type="text/css"><![CDATA[
.edge:hover path { stroke: red; }
.edge:hover polygon { stroke: red; fill: red; }
]]></style>
<script type="text/javascript"><![CDATA[
var edges = document.getElementsByTagName('g');
if (edges && edges.length) {
  for (var i=0;i<edges.length;i++) {
    if (edges[i].id.substr(0,4)=='edge') {
      edges[i].setAttribute('class','edge');
    }
  }
}
]]></script>
        <defs>
                <circle id="rim" cx="0" cy="0" r="7"/>
                <circle id="rim2" cx="0" cy="0" r="3.5"/>
                <g id="zoomPlus">
                        <use xlink:href="#rim" fill="#404040">
                                <set attributeName="fill" to="#808080" begin="zoomplus.mouseover" end="zoomplus.mouseout"/>
                        </use>
                        <path d="M-4,0h8M0,-4v8" fill="none" stroke="white" stroke-width="1.5" pointer-events="none"/>
                </g>
                <g id="zoomMin">
                        <use xlink:href="#rim" fill="#404040">
                                <set attributeName="fill" to="#808080" begin="zoomminus.mouseover" end="zoomminus.mouseout"/>
                        </use>
                        <path d="M-4,0h8" fill="none" stroke="white" stroke-width="1.5" pointer-events="none"/>
                </g>
                <g id="dirArrow">
                        <path fill="none" stroke="white" stroke-width="1.5" d="M0,-3.0v7 M-2.5,-0.5L0,-3.0L2.5,-0.5"/>
                </g>
               <g id="resetDef">
                       <use xlink:href="#rim2" fill="#404040">
                               <set attributeName="fill" to="#808080" begin="reset.mouseover" end="reset.mouseout"/>
                       </use>
               </g>
        </defs>

<script type="text/javascript">
var viewWidth = 640;
var viewHeight = 225;
var sectionId = 'dynsection-11';
</script>
<script xlink:href="../../svgpan.js"/>
<svg id="graph" class="graph">
<g id="viewport">
<title>services::ConfigurationBlobImpl::RecoverCurrentSize</title>
<polygon fill="white" stroke="none" points="-4,4 -4,-221 636,-221 636,4 -4,4"/>
<!-- Node65 -->
<g id="node1" class="node"><title>Node65</title>
<polygon fill="#bfbfbf" stroke="black" points="0,-88.5 0,-118.5 134,-118.5 134,-88.5 0,-88.5"/>
<text text-anchor="start" x="8" y="-106.5" font-family="Helvetica,sans-Serif" font-size="10.00">services::ConfigurationBlob</text>
<text text-anchor="middle" x="67" y="-95.5" font-family="Helvetica,sans-Serif" font-size="10.00">Impl::RecoverCurrentSize</text>
</g>
<!-- Node66 -->
<g id="node2" class="node"><title>Node66</title>
<g id="a_node2"><a xlink:href="../../d0/de3/namespaceinfra.html#ad2eae6128b7a057916770ee2ccc8945c" target="_top" xlink:title="infra::Copy">
<polygon fill="white" stroke="black" points="195,-143 195,-162 258,-162 258,-143 195,-143"/>
<text text-anchor="middle" x="226.5" y="-150" font-family="Helvetica,sans-Serif" font-size="10.00">infra::Copy</text>
</a>
</g>
</g>
<!-- Node65&#45;&gt;Node66 -->
<g id="edge1" class="edge"><title>Node65&#45;&gt;Node66</title>
<path fill="none" stroke="midnightblue" d="M116.54,-118.601C138.445,-125.416 164.024,-133.374 184.893,-139.867"/>
<polygon fill="midnightblue" stroke="midnightblue" points="184.134,-143.296 194.722,-142.925 186.213,-136.612 184.134,-143.296"/>
</g>
<!-- Node69 -->
<g id="node5" class="node"><title>Node69</title>
<g id="a_node5"><a xlink:href="../../d0/de3/namespaceinfra.html#a97dc5194236a205b697e668f00d42353" target="_top" xlink:title="infra::Head">
<polygon fill="white" stroke="black" points="195,-94 195,-113 258,-113 258,-94 195,-94"/>
<text text-anchor="middle" x="226.5" y="-101" font-family="Helvetica,sans-Serif" font-size="10.00">infra::Head</text>
</a>
</g>
</g>
<!-- Node65&#45;&gt;Node69 -->
<g id="edge4" class="edge"><title>Node65&#45;&gt;Node69</title>
<path fill="none" stroke="midnightblue" d="M134.338,-103.5C151.414,-103.5 169.29,-103.5 184.642,-103.5"/>
<polygon fill="midnightblue" stroke="midnightblue" points="184.827,-107 194.827,-103.5 184.827,-100 184.827,-107"/>
</g>
<!-- Node71 -->
<g id="node7" class="node"><title>Node71</title>
<g id="a_node7"><a xlink:href="../../d0/de3/namespaceinfra.html#ae4478bf95f90ceb679642cb4180f205f" target="_top" xlink:title="infra::MakeByteRange">
<polygon fill="white" stroke="black" points="170,-50 170,-69 283,-69 283,-50 170,-50"/>
<text text-anchor="middle" x="226.5" y="-57" font-family="Helvetica,sans-Serif" font-size="10.00">infra::MakeByteRange</text>
</a>
</g>
</g>
<!-- Node65&#45;&gt;Node71 -->
<g id="edge6" class="edge"><title>Node65&#45;&gt;Node71</title>
<path fill="none" stroke="midnightblue" d="M121.762,-88.4808C141.251,-83.0362 163.018,-76.9554 181.561,-71.7751"/>
<polygon fill="midnightblue" stroke="midnightblue" points="182.525,-75.1399 191.214,-69.0783 180.641,-68.3981 182.525,-75.1399"/>
</g>
<!-- Node67 -->
<g id="node3" class="node"><title>Node67</title>
<g id="a_node3"><a xlink:href="../../d0/d6d/classinfra_1_1_memory_range.html#a7a83ceae17802af5ecebfb9557912ece" target="_top" xlink:title="infra::MemoryRange\l::begin">
<polygon fill="white" stroke="black" points="331,-186.5 331,-216.5 435,-216.5 435,-186.5 331,-186.5"/>
<text text-anchor="start" x="339" y="-204.5" font-family="Helvetica,sans-Serif" font-size="10.00">infra::MemoryRange</text>
<text text-anchor="middle" x="383" y="-193.5" font-family="Helvetica,sans-Serif" font-size="10.00">::begin</text>
</a>
</g>
</g>
<!-- Node66&#45;&gt;Node67 -->
<g id="edge2" class="edge"><title>Node66&#45;&gt;Node67</title>
<path fill="none" stroke="midnightblue" d="M257.656,-162.064C276.789,-168.132 302.155,-176.177 324.984,-183.417"/>
<polygon fill="midnightblue" stroke="midnightblue" points="323.997,-186.776 334.588,-186.463 326.114,-180.104 323.997,-186.776"/>
</g>
<!-- Node68 -->
<g id="node4" class="node"><title>Node68</title>
<g id="a_node4"><a xlink:href="../../d0/d6d/classinfra_1_1_memory_range.html#ae8fbbf531d3696b6a64ac13385acdc66" target="_top" xlink:title="infra::MemoryRange\l::size">
<polygon fill="white" stroke="black" points="331,-137.5 331,-167.5 435,-167.5 435,-137.5 331,-137.5"/>
<text text-anchor="start" x="339" y="-155.5" font-family="Helvetica,sans-Serif" font-size="10.00">infra::MemoryRange</text>
<text text-anchor="middle" x="383" y="-144.5" font-family="Helvetica,sans-Serif" font-size="10.00">::size</text>
</a>
</g>
</g>
<!-- Node66&#45;&gt;Node68 -->
<g id="edge3" class="edge"><title>Node66&#45;&gt;Node68</title>
<path fill="none" stroke="midnightblue" d="M258.024,-152.5C275.941,-152.5 299.229,-152.5 320.777,-152.5"/>
<polygon fill="midnightblue" stroke="midnightblue" points="320.855,-156 330.855,-152.5 320.855,-149 320.855,-156"/>
</g>
<!-- Node70 -->
<g id="node6" class="node"><title>Node70</title>
<g id="a_node6"><a xlink:href="../../d0/d6d/classinfra_1_1_memory_range.html#a322f6976f2774c6ba7494b9e27f07624" target="_top" xlink:title="infra::MemoryRange\l::shrink_from_back_to">
<polygon fill="white" stroke="black" points="326.5,-88.5 326.5,-118.5 439.5,-118.5 439.5,-88.5 326.5,-88.5"/>
<text text-anchor="start" x="334.5" y="-106.5" font-family="Helvetica,sans-Serif" font-size="10.00">infra::MemoryRange</text>
<text text-anchor="middle" x="383" y="-95.5" font-family="Helvetica,sans-Serif" font-size="10.00">::shrink_from_back_to</text>
</a>
</g>
</g>
<!-- Node69&#45;&gt;Node70 -->
<g id="edge5" class="edge"><title>Node69&#45;&gt;Node70</title>
<path fill="none" stroke="midnightblue" d="M258.024,-103.5C274.65,-103.5 295.902,-103.5 316.096,-103.5"/>
<polygon fill="midnightblue" stroke="midnightblue" points="316.213,-107 326.213,-103.5 316.213,-100 316.213,-107"/>
</g>
<!-- Node72 -->
<g id="node8" class="node"><title>Node72</title>
<g id="a_node8"><a xlink:href="../../d0/de3/namespaceinfra.html#afe38b7d4318537de2f28b244211c4275" target="_top" xlink:title="infra::MakeRange">
<polygon fill="white" stroke="black" points="337,-50 337,-69 429,-69 429,-50 337,-50"/>
<text text-anchor="middle" x="383" y="-57" font-family="Helvetica,sans-Serif" font-size="10.00">infra::MakeRange</text>
</a>
</g>
</g>
<!-- Node71&#45;&gt;Node72 -->
<g id="edge7" class="edge"><title>Node71&#45;&gt;Node72</title>
<path fill="none" stroke="midnightblue" d="M283.278,-59.5C297.467,-59.5 312.706,-59.5 326.862,-59.5"/>
<polygon fill="midnightblue" stroke="midnightblue" points="326.949,-63.0001 336.949,-59.5 326.949,-56.0001 326.949,-63.0001"/>
</g>
<!-- Node75 -->
<g id="node11" class="node"><title>Node75</title>
<g id="a_node11"><a xlink:href="../../d0/de3/namespaceinfra.html#a74203fdf2e029d2667c7e4925092cc9a" target="_top" xlink:title="infra::ReinterpretCastByte\lRange">
<polygon fill="white" stroke="black" points="319,-0.5 319,-30.5 447,-30.5 447,-0.5 319,-0.5"/>
<text text-anchor="start" x="327" y="-18.5" font-family="Helvetica,sans-Serif" font-size="10.00">infra::ReinterpretCastByte</text>
<text text-anchor="middle" x="383" y="-7.5" font-family="Helvetica,sans-Serif" font-size="10.00">Range</text>
</a>
</g>
</g>
<!-- Node71&#45;&gt;Node75 -->
<g id="edge10" class="edge"><title>Node71&#45;&gt;Node75</title>
<path fill="none" stroke="midnightblue" d="M261.024,-49.9527C278.108,-45.0872 299.447,-39.0102 319.426,-33.3204"/>
<polygon fill="midnightblue" stroke="midnightblue" points="320.441,-36.6706 329.1,-30.5654 318.524,-29.9383 320.441,-36.6706"/>
</g>
<!-- Node73 -->
<g id="node9" class="node"><title>Node73</title>
<g id="a_node9"><a xlink:href="../../d1/d2a/classinfra_1_1_bounded_string_base.html#aef23e4250cad2fdc69ccc39f68734233" target="_top" xlink:title="infra::BoundedStringBase\l::begin">
<polygon fill="white" stroke="black" points="494,-66.5 494,-96.5 621,-96.5 621,-66.5 494,-66.5"/>
<text text-anchor="start" x="502" y="-84.5" font-family="Helvetica,sans-Serif" font-size="10.00">infra::BoundedStringBase</text>
<text text-anchor="middle" x="557.5" y="-73.5" font-family="Helvetica,sans-Serif" font-size="10.00">::begin</text>
</a>
</g>
</g>
<!-- Node72&#45;&gt;Node73 -->
<g id="edge8" class="edge"><title>Node72&#45;&gt;Node73</title>
<path fill="none" stroke="midnightblue" d="M429.322,-65.2802C445.999,-67.4071 465.333,-69.8729 483.814,-72.23"/>
<polygon fill="midnightblue" stroke="midnightblue" points="483.61,-75.7321 493.972,-73.5254 484.495,-68.7883 483.61,-75.7321"/>
</g>
<!-- Node74 -->
<g id="node10" class="node"><title>Node74</title>
<g id="a_node10"><a xlink:href="../../d1/d2a/classinfra_1_1_bounded_string_base.html#af5021f1ea3898146d0a55c2895f07dbf" target="_top" xlink:title="infra::BoundedStringBase::end">
<polygon fill="white" stroke="black" points="483,-28 483,-47 632,-47 632,-28 483,-28"/>
<text text-anchor="middle" x="557.5" y="-35" font-family="Helvetica,sans-Serif" font-size="10.00">infra::BoundedStringBase::end</text>
</a>
</g>
</g>
<!-- Node72&#45;&gt;Node74 -->
<g id="edge9" class="edge"><title>Node72&#45;&gt;Node74</title>
<path fill="none" stroke="midnightblue" d="M429.322,-53.7198C442.624,-52.0234 457.615,-50.1114 472.517,-48.2109"/>
<polygon fill="midnightblue" stroke="midnightblue" points="473.32,-51.6369 482.797,-46.8998 472.435,-44.6931 473.32,-51.6369"/>
</g>
</g>
</svg>
        <g id="navigator" transform="translate(0 0)" fill="#404254">
                <rect fill="#f2f5e9" fill-opacity="0.5" stroke="#606060" stroke-width=".5" x="0" y="0" width="60" height="60"/>
                <use id="zoomplus" xlink:href="#zoomPlus" x="17" y="9" onmousedown="handleZoom(evt,'in')"/>
                <use id="zoomminus" xlink:href="#zoomMin" x="42" y="9" onmousedown="handleZoom(evt,'out')"/>
                <use id="reset" xlink:href="#resetDef" x="30" y="36" onmousedown="handleReset()"/>
                <g id="arrowUp" xlink:href="#dirArrow" transform="translate(30 24)" onmousedown="handlePan(0,-1)">
                  <use xlink:href="#rim" fill="#404040">
                        <set attributeName="fill" to="#808080" begin="arrowUp.mouseover" end="arrowUp.mouseout"/>
                  </use>
                  <path fill="none" stroke="white" stroke-width="1.5" d="M0,-3.0v7 M-2.5,-0.5L0,-3.0L2.5,-0.5"/>
                </g>
                <g id="arrowRight" xlink:href="#dirArrow" transform="rotate(90) translate(36 -43)" onmousedown="handlePan(1,0)">
                  <use xlink:href="#rim" fill="#404040">
                        <set attributeName="fill" to="#808080" begin="arrowRight.mouseover" end="arrowRight.mouseout"/>
                  </use>
                  <path fill="none" stroke="white" stroke-width="1.5" d="M0,-3.0v7 M-2.5,-0.5L0,-3.0L2.5,-0.5"/>
                </g>
                <g id="arrowDown" xlink:href="#dirArrow" transform="rotate(180) translate(-30 -48)" onmousedown="handlePan(0,1)">
                  <use xlink:href="#rim" fill="#404040">
                        <set attributeName="fill" to="#808080" begin="arrowDown.mouseover" end="arrowDown.mouseout"/>
                  </use>
                  <path fill="none" stroke="white" stroke-width="1.5" d="M0,-3.0v7 M-2.5,-0.5L0,-3.0L2.5,-0.5"/>
                </g>
                <g id="arrowLeft" xlink:href="#dirArrow" transform="rotate(270) translate(-36 17)" onmousedown="handlePan(-1,0)">
                  <use xlink:href="#rim" fill="#404040">
                        <set attributeName="fill" to="#808080" begin="arrowLeft.mouseover" end="arrowLeft.mouseout"/>
                  </use>
                  <path fill="none" stroke="white" stroke-width="1.5" d="M0,-3.0v7 M-2.5,-0.5L0,-3.0L2.5,-0.5"/>
                </g>
        </g>
        <svg viewBox="0 0 15 15" width="100%" height="30px" preserveAspectRatio="xMaxYMin meet">
         <g id="arrow_out" transform="scale(0.3 0.3)">
          <a xlink:href="classservices_1_1_configuration_blob_impl_a105075372cbfccd2efc41376788f178f_cgraph_org.svg" target="_base">
           <rect id="button" ry="5" rx="5" y="6" x="6" height="38" width="38"
                fill="#f2f5e9" fill-opacity="0.5" stroke="#606060" stroke-width="1.0"/>
           <path id="arrow"
             d="M 11.500037,31.436501 C 11.940474,20.09759 22.043105,11.32322 32.158766,21.979434 L 37.068811,17.246167 C 37.068811,17.246167 37.088388,32 37.088388,32 L 22.160133,31.978069 C 22.160133,31.978069 26.997745,27.140456 26.997745,27.140456 C 18.528582,18.264221 13.291696,25.230495 11.500037,31.436501 z"
             style="fill:#404040;"/>
          </a>
         </g>
        </svg>
</svg>
