<?xml version="1.0" encoding="UTF-8" standalone="no"?>
<!DOCTYPE svg PUBLIC "-//W3C//DTD SVG 1.1//EN"
 "http://www.w3.org/Graphics/SVG/1.1/DTD/svg11.dtd">
<!-- Generated by graphviz version 2.38.0 (20140413.2041)
 -->
<!-- Title: infra::LimitedStreamReader Pages: 1 -->
<svg width="180pt" height="95pt"
 viewBox="0.00 0.00 180.00 95.00" xmlns="http://www.w3.org/2000/svg" xmlns:xlink="http://www.w3.org/1999/xlink">
<g id="graph0" class="graph" transform="scale(1 1) rotate(0) translate(4 91)">
<title>infra::LimitedStreamReader</title>
<polygon fill="white" stroke="none" points="-4,4 -4,-91 176,-91 176,4 -4,4"/>
<!-- Node2 -->
<g id="node1" class="node"><title>Node2</title>
<polygon fill="#bfbfbf" stroke="black" points="17.5,-0.5 17.5,-19.5 151.5,-19.5 151.5,-0.5 17.5,-0.5"/>
<text text-anchor="middle" x="84.5" y="-7.5" font-family="Helvetica,sans-Serif" font-size="10.00">infra::LimitedStreamReader</text>
</g>
<!-- Node3 -->
<g id="node2" class="node"><title>Node3</title>
<g id="a_node2"><a xlink:href="../../d2/d90/classinfra_1_1_stream_reader.html" target="_top" xlink:title="infra::StreamReader">
<polygon fill="white" stroke="black" points="0,-67.5 0,-86.5 103,-86.5 103,-67.5 0,-67.5"/>
<text text-anchor="middle" x="51.5" y="-74.5" font-family="Helvetica,sans-Serif" font-size="10.00">infra::StreamReader</text>
</a>
</g>
</g>
<!-- Node3&#45;&gt;Node2 -->
<g id="edge1" class="edge"><title>Node3&#45;&gt;Node2</title>
<path fill="none" stroke="midnightblue" d="M57.2134,-57.5421C59.4601,-51.1942 62.2779,-44.1425 65.5,-38 68.9081,-31.5029 73.6581,-24.7529 77.5561,-19.6272"/>
<polygon fill="midnightblue" stroke="midnightblue" points="53.8114,-56.6828 54.0012,-67.2759 60.4588,-58.8765 53.8114,-56.6828"/>
</g>
<!-- Node3&#45;&gt;Node2 -->
<g id="edge2" class="edge"><title>Node3&#45;&gt;Node2</title>
<path fill="none" stroke="#9a32cd" stroke-dasharray="5,2" d="M60.5555,-58.1635C66.9196,-45.6281 75.1532,-29.4104 80.12,-19.6273"/>
<polygon fill="#9a32cd" stroke="#9a32cd" points="57.3567,-56.7327 55.9505,-67.2338 63.5983,-59.9016 57.3567,-56.7327"/>
<text text-anchor="middle" x="82" y="-41" font-family="Helvetica,sans-Serif" font-size="10.00"> input</text>
</g>
<!-- Node4 -->
<g id="node3" class="node"><title>Node4</title>
<polygon fill="white" stroke="#bfbfbf" points="121,-67.5 121,-86.5 172,-86.5 172,-67.5 121,-67.5"/>
<text text-anchor="middle" x="146.5" y="-74.5" font-family="Helvetica,sans-Serif" font-size="10.00">uint32_t</text>
</g>
<!-- Node4&#45;&gt;Node2 -->
<g id="edge3" class="edge"><title>Node4&#45;&gt;Node2</title>
<path fill="none" stroke="#9a32cd" stroke-dasharray="5,2" d="M131.235,-59.9968C119.077,-47.2496 102.523,-29.8947 92.7291,-19.6273"/>
<polygon fill="#9a32cd" stroke="#9a32cd" points="128.704,-62.4134 138.138,-67.2338 133.769,-57.582 128.704,-62.4134"/>
<text text-anchor="middle" x="133.5" y="-41" font-family="Helvetica,sans-Serif" font-size="10.00"> length</text>
</g>
</g>
</svg>
