<?xml version="1.0" encoding="UTF-8" standalone="no"?>
<!DOCTYPE svg PUBLIC "-//W3C//DTD SVG 1.1//EN"
 "http://www.w3.org/Graphics/SVG/1.1/DTD/svg11.dtd">
<!-- Generated by graphviz version 2.38.0 (20140413.2041)
 -->
<!-- Title: services::WiFiNetworkScanNetworksResultObserver::Network Pages: 1 -->
<svg width="472pt" height="396pt"
 viewBox="0.00 0.00 472.00 396.00" xmlns="http://www.w3.org/2000/svg" xmlns:xlink="http://www.w3.org/1999/xlink">
<g id="graph0" class="graph" transform="scale(1 1) rotate(0) translate(4 392)">
<title>services::WiFiNetworkScanNetworksResultObserver::Network</title>
<polygon fill="white" stroke="none" points="-4,4 -4,-392 468,-392 468,4 -4,4"/>
<!-- Node1 -->
<g id="node1" class="node"><title>Node1</title>
<polygon fill="#bfbfbf" stroke="black" points="245.5,-0.5 245.5,-41.5 381.5,-41.5 381.5,-0.5 245.5,-0.5"/>
<text text-anchor="start" x="253.5" y="-29.5" font-family="Helvetica,sans-Serif" font-size="10.00">services::WiFiNetworkScan</text>
<text text-anchor="start" x="253.5" y="-18.5" font-family="Helvetica,sans-Serif" font-size="10.00">NetworksResultObserver</text>
<text text-anchor="middle" x="313.5" y="-7.5" font-family="Helvetica,sans-Serif" font-size="10.00">::Network</text>
</g>
<!-- Node2 -->
<g id="node2" class="node"><title>Node2</title>
<g id="a_node2"><a xlink:href="../../d7/dde/structservices_1_1_wi_fi_security.html" target="_top" xlink:title="services::WiFiSecurity">
<polygon fill="white" stroke="black" points="158.5,-95 158.5,-114 272.5,-114 272.5,-95 158.5,-95"/>
<text text-anchor="middle" x="215.5" y="-102" font-family="Helvetica,sans-Serif" font-size="10.00">services::WiFiSecurity</text>
</a>
</g>
</g>
<!-- Node2&#45;&gt;Node1 -->
<g id="edge1" class="edge"><title>Node2&#45;&gt;Node1</title>
<path fill="none" stroke="#9a32cd" stroke-dasharray="5,2" d="M233.956,-88.1512C249.749,-75.0176 272.582,-56.0288 289.738,-41.7614"/>
<polygon fill="#9a32cd" stroke="#9a32cd" points="231.438,-85.6929 225.988,-94.7781 235.914,-91.0749 231.438,-85.6929"/>
<text text-anchor="middle" x="286.5" y="-63" font-family="Helvetica,sans-Serif" font-size="10.00"> security</text>
</g>
<!-- Node3 -->
<g id="node3" class="node"><title>Node3</title>
<polygon fill="white" stroke="#bfbfbf" points="55,-228 55,-247 98,-247 98,-228 55,-228"/>
<text text-anchor="middle" x="76.5" y="-235" font-family="Helvetica,sans-Serif" font-size="10.00">size_t</text>
</g>
<!-- Node3&#45;&gt;Node2 -->
<g id="edge2" class="edge"><title>Node3&#45;&gt;Node2</title>
<path fill="none" stroke="#9a32cd" stroke-dasharray="5,2" d="M71.0213,-218.05C65.8094,-196.362 61.1947,-160.483 79.5,-138 89.6544,-125.528 125.73,-117.26 158.174,-112.186"/>
<polygon fill="#9a32cd" stroke="#9a32cd" points="67.7069,-219.203 73.6829,-227.952 74.4669,-217.386 67.7069,-219.203"/>
<text text-anchor="middle" x="137.5" y="-174" font-family="Helvetica,sans-Serif" font-size="10.00"> minimumSecurityKeySize</text>
<text text-anchor="middle" x="137.5" y="-163" font-family="Helvetica,sans-Serif" font-size="10.00">securityKeySize</text>
</g>
<!-- Node4 -->
<g id="node4" class="node"><title>Node4</title>
<g id="a_node4"><a xlink:href="../../d2/d40/classinfra_1_1_with_storage.html" target="_top" xlink:title="infra::WithStorage\l\&lt; securityKeySize \&gt;">
<polygon fill="white" stroke="black" points="139.5,-222.5 139.5,-252.5 245.5,-252.5 245.5,-222.5 139.5,-222.5"/>
<text text-anchor="start" x="147.5" y="-240.5" font-family="Helvetica,sans-Serif" font-size="10.00">infra::WithStorage</text>
<text text-anchor="middle" x="192.5" y="-229.5" font-family="Helvetica,sans-Serif" font-size="10.00">&lt; securityKeySize &gt;</text>
</a>
</g>
</g>
<!-- Node4&#45;&gt;Node2 -->
<g id="edge3" class="edge"><title>Node4&#45;&gt;Node2</title>
<path fill="none" stroke="#9a32cd" stroke-dasharray="5,2" d="M196.714,-212.5C201.931,-182.786 210.55,-133.696 214.002,-114.032"/>
<polygon fill="#9a32cd" stroke="#9a32cd" points="193.243,-212.026 194.961,-222.481 200.138,-213.237 193.243,-212.026"/>
<text text-anchor="middle" x="219" y="-168.5" font-family="Helvetica,sans-Serif" font-size="10.00"> key</text>
</g>
<!-- Node5 -->
<g id="node5" class="node"><title>Node5</title>
<g id="a_node5"><a xlink:href="../../d9/d00/classinfra_1_1detail_1_1_storage_holder.html" target="_top" xlink:title="infra::detail::StorageHolder\l\&lt; StorageType, securityKeySize \&gt;">
<polygon fill="white" stroke="black" points="0,-290.5 0,-320.5 167,-320.5 167,-290.5 0,-290.5"/>
<text text-anchor="start" x="8" y="-308.5" font-family="Helvetica,sans-Serif" font-size="10.00">infra::detail::StorageHolder</text>
<text text-anchor="middle" x="83.5" y="-297.5" font-family="Helvetica,sans-Serif" font-size="10.00">&lt; StorageType, securityKeySize &gt;</text>
</a>
</g>
</g>
<!-- Node5&#45;&gt;Node4 -->
<g id="edge4" class="edge"><title>Node5&#45;&gt;Node4</title>
<path fill="none" stroke="#8b1a1a" d="M115.496,-285.126C132.688,-274.717 153.503,-262.113 169.155,-252.635"/>
<polygon fill="#8b1a1a" stroke="#8b1a1a" points="113.624,-282.168 106.883,-290.341 117.25,-288.156 113.624,-282.168"/>
</g>
<!-- Node6 -->
<g id="node6" class="node"><title>Node6</title>
<polygon fill="white" stroke="#bfbfbf" points="48,-368.5 48,-387.5 119,-387.5 119,-368.5 48,-368.5"/>
<text text-anchor="middle" x="83.5" y="-375.5" font-family="Helvetica,sans-Serif" font-size="10.00">StorageType</text>
</g>
<!-- Node6&#45;&gt;Node5 -->
<g id="edge5" class="edge"><title>Node6&#45;&gt;Node5</title>
<path fill="none" stroke="#9a32cd" stroke-dasharray="5,2" d="M83.5,-358.236C83.5,-346.408 83.5,-331.383 83.5,-320.576"/>
<polygon fill="#9a32cd" stroke="#9a32cd" points="80.0001,-358.355 83.5,-368.355 87.0001,-358.355 80.0001,-358.355"/>
<text text-anchor="middle" x="101.5" y="-342" font-family="Helvetica,sans-Serif" font-size="10.00"> storage</text>
</g>
<!-- Node7 -->
<g id="node7" class="node"><title>Node7</title>
<polygon fill="white" stroke="#bfbfbf" points="185.5,-296 185.5,-315 273.5,-315 273.5,-296 185.5,-296"/>
<text text-anchor="middle" x="229.5" y="-303" font-family="Helvetica,sans-Serif" font-size="10.00">securityKeySize</text>
</g>
<!-- Node7&#45;&gt;Node4 -->
<g id="edge6" class="edge"><title>Node7&#45;&gt;Node4</title>
<path fill="none" stroke="midnightblue" d="M219.69,-287C213.679,-276.278 206.084,-262.731 200.45,-252.681"/>
<polygon fill="midnightblue" stroke="midnightblue" points="216.72,-288.86 224.663,-295.872 222.826,-285.437 216.72,-288.86"/>
</g>
<!-- Node8 -->
<g id="node8" class="node"><title>Node8</title>
<polygon fill="white" stroke="#bfbfbf" points="264,-228 264,-247 299,-247 299,-228 264,-228"/>
<text text-anchor="middle" x="281.5" y="-235" font-family="Helvetica,sans-Serif" font-size="10.00">bool</text>
</g>
<!-- Node8&#45;&gt;Node2 -->
<g id="edge7" class="edge"><title>Node8&#45;&gt;Node2</title>
<path fill="none" stroke="#9a32cd" stroke-dasharray="5,2" d="M272.792,-218.724C263.078,-198.957 246.84,-166.107 232.5,-138 228.333,-129.832 223.475,-120.57 220.022,-114.029"/>
<polygon fill="#9a32cd" stroke="#9a32cd" points="269.686,-220.338 277.233,-227.774 275.97,-217.255 269.686,-220.338"/>
<text text-anchor="middle" x="287" y="-196" font-family="Helvetica,sans-Serif" font-size="10.00"> wpa</text>
<text text-anchor="middle" x="287" y="-185" font-family="Helvetica,sans-Serif" font-size="10.00">enterprise</text>
<text text-anchor="middle" x="287" y="-174" font-family="Helvetica,sans-Serif" font-size="10.00">aes</text>
<text text-anchor="middle" x="287" y="-163" font-family="Helvetica,sans-Serif" font-size="10.00">wep</text>
<text text-anchor="middle" x="287" y="-152" font-family="Helvetica,sans-Serif" font-size="10.00">wpa2</text>
<text text-anchor="middle" x="287" y="-141" font-family="Helvetica,sans-Serif" font-size="10.00">tkip</text>
</g>
<!-- Node9 -->
<g id="node9" class="node"><title>Node9</title>
<polygon fill="white" stroke="#bfbfbf" points="290.5,-95 290.5,-114 336.5,-114 336.5,-95 290.5,-95"/>
<text text-anchor="middle" x="313.5" y="-102" font-family="Helvetica,sans-Serif" font-size="10.00">int32_t</text>
</g>
<!-- Node9&#45;&gt;Node1 -->
<g id="edge8" class="edge"><title>Node9&#45;&gt;Node1</title>
<path fill="none" stroke="#9a32cd" stroke-dasharray="5,2" d="M313.5,-84.752C313.5,-71.8856 313.5,-54.8398 313.5,-41.7614"/>
<polygon fill="#9a32cd" stroke="#9a32cd" points="310,-84.778 313.5,-94.7781 317,-84.7781 310,-84.778"/>
<text text-anchor="middle" x="346.5" y="-63" font-family="Helvetica,sans-Serif" font-size="10.00"> signalStrength</text>
</g>
<!-- Node10 -->
<g id="node10" class="node"><title>Node10</title>
<polygon fill="white" stroke="#bfbfbf" points="355,-89.5 355,-119.5 464,-119.5 464,-89.5 355,-89.5"/>
<text text-anchor="start" x="363" y="-107.5" font-family="Helvetica,sans-Serif" font-size="10.00">BoundedStringBase&lt;</text>
<text text-anchor="middle" x="409.5" y="-96.5" font-family="Helvetica,sans-Serif" font-size="10.00"> const char &gt;</text>
</g>
<!-- Node10&#45;&gt;Node1 -->
<g id="edge9" class="edge"><title>Node10&#45;&gt;Node1</title>
<path fill="none" stroke="#9a32cd" stroke-dasharray="5,2" d="M398.547,-80.0539C394.504,-73.0331 389.436,-65.6953 383.5,-60 376.116,-52.9156 367.152,-46.7518 358.138,-41.5681"/>
<polygon fill="#9a32cd" stroke="#9a32cd" points="395.64,-82.0435 403.409,-89.2471 401.828,-78.7709 395.64,-82.0435"/>
<text text-anchor="middle" x="403.5" y="-63" font-family="Helvetica,sans-Serif" font-size="10.00"> ssid</text>
</g>
</g>
</svg>
