<?xml version="1.0" encoding="UTF-8" standalone="no"?>
<!DOCTYPE svg PUBLIC "-//W3C//DTD SVG 1.1//EN"
 "http://www.w3.org/Graphics/SVG/1.1/DTD/svg11.dtd">
<!-- Generated by graphviz version 2.38.0 (20140413.2041)
 -->
<!-- Title: services::SynchronousFlashQuadSpi::WriteBuffer Pages: 1 -->
<svg width="1055pt" height="362pt"
 viewBox="0.00 0.00 1055.00 362.00" xmlns="http://www.w3.org/2000/svg" xmlns:xlink="http://www.w3.org/1999/xlink">
<g id="graph0" class="graph" transform="scale(1 1) rotate(0) translate(4 358)">
<title>services::SynchronousFlashQuadSpi::WriteBuffer</title>
<polygon fill="white" stroke="none" points="-4,4 -4,-358 1051,-358 1051,4 -4,4"/>
<!-- Node45 -->
<g id="node1" class="node"><title>Node45</title>
<polygon fill="#bfbfbf" stroke="black" points="0,-122.5 0,-152.5 139,-152.5 139,-122.5 0,-122.5"/>
<text text-anchor="start" x="8" y="-140.5" font-family="Helvetica,sans-Serif" font-size="10.00">services::SynchronousFlash</text>
<text text-anchor="middle" x="69.5" y="-129.5" font-family="Helvetica,sans-Serif" font-size="10.00">QuadSpi::WriteBuffer</text>
</g>
<!-- Node46 -->
<g id="node2" class="node"><title>Node46</title>
<g id="a_node2"><a xlink:href="../../d0/d6d/classinfra_1_1_memory_range.html#a0dc90caa282524ee9828bf8128e3a569" target="_top" xlink:title="infra::MemoryRange\l::empty">
<polygon fill="white" stroke="black" points="210,-196.5 210,-226.5 314,-226.5 314,-196.5 210,-196.5"/>
<text text-anchor="start" x="218" y="-214.5" font-family="Helvetica,sans-Serif" font-size="10.00">infra::MemoryRange</text>
<text text-anchor="middle" x="262" y="-203.5" font-family="Helvetica,sans-Serif" font-size="10.00">::empty</text>
</a>
</g>
</g>
<!-- Node45&#45;&gt;Node46 -->
<g id="edge1" class="edge"><title>Node45&#45;&gt;Node46</title>
<path fill="none" stroke="midnightblue" d="M99.7009,-152.69C120.371,-163.069 148.94,-176.671 175,-186.5 182.947,-189.497 191.418,-192.354 199.828,-194.993"/>
<polygon fill="midnightblue" stroke="midnightblue" points="199.051,-198.415 209.637,-197.987 201.094,-191.72 199.051,-198.415"/>
</g>
<!-- Node47 -->
<g id="node3" class="node"><title>Node47</title>
<g id="a_node3"><a xlink:href="../../d7/ddb/classservices_1_1_synchronous_flash_quad_spi.html#a70d888de46b5dc987b6dc802f6637069" target="_top" xlink:title="services::SynchronousFlash\lQuadSpi::HoldWhileWriteInProgress">
<polygon fill="white" stroke="black" points="175,-147.5 175,-177.5 349,-177.5 349,-147.5 175,-147.5"/>
<text text-anchor="start" x="183" y="-165.5" font-family="Helvetica,sans-Serif" font-size="10.00">services::SynchronousFlash</text>
<text text-anchor="middle" x="262" y="-154.5" font-family="Helvetica,sans-Serif" font-size="10.00">QuadSpi::HoldWhileWriteInProgress</text>
</a>
</g>
</g>
<!-- Node45&#45;&gt;Node47 -->
<g id="edge2" class="edge"><title>Node45&#45;&gt;Node47</title>
<path fill="none" stroke="midnightblue" d="M139.006,-146.49C147.363,-147.587 156.018,-148.723 164.686,-149.86"/>
<polygon fill="midnightblue" stroke="midnightblue" points="164.478,-153.363 174.849,-151.194 165.389,-146.423 164.478,-153.363"/>
</g>
<!-- Node55 -->
<g id="node11" class="node"><title>Node55</title>
<g id="a_node11"><a xlink:href="../../d7/ddb/classservices_1_1_synchronous_flash_quad_spi.html#a7f860e4ff104978a992a29616fa64df0" target="_top" xlink:title="services::SynchronousFlash\lQuadSpi::PageProgram">
<polygon fill="white" stroke="black" points="192.5,-98.5 192.5,-128.5 331.5,-128.5 331.5,-98.5 192.5,-98.5"/>
<text text-anchor="start" x="200.5" y="-116.5" font-family="Helvetica,sans-Serif" font-size="10.00">services::SynchronousFlash</text>
<text text-anchor="middle" x="262" y="-105.5" font-family="Helvetica,sans-Serif" font-size="10.00">QuadSpi::PageProgram</text>
</a>
</g>
</g>
<!-- Node45&#45;&gt;Node55 -->
<g id="edge10" class="edge"><title>Node45&#45;&gt;Node55</title>
<path fill="none" stroke="midnightblue" d="M139.006,-128.869C152.997,-127.107 167.826,-125.238 182.145,-123.434"/>
<polygon fill="midnightblue" stroke="midnightblue" points="182.978,-126.857 192.462,-122.135 182.103,-119.912 182.978,-126.857"/>
</g>
<!-- Node65 -->
<g id="node21" class="node"><title>Node65</title>
<g id="a_node21"><a xlink:href="../../d7/ddb/classservices_1_1_synchronous_flash_quad_spi.html#a4852e7f5e9ac0badcaad07a7fa1892b4" target="_top" xlink:title="services::SynchronousFlash\lQuadSpi::WriteEnable">
<polygon fill="white" stroke="black" points="192.5,-25.5 192.5,-55.5 331.5,-55.5 331.5,-25.5 192.5,-25.5"/>
<text text-anchor="start" x="200.5" y="-43.5" font-family="Helvetica,sans-Serif" font-size="10.00">services::SynchronousFlash</text>
<text text-anchor="middle" x="262" y="-32.5" font-family="Helvetica,sans-Serif" font-size="10.00">QuadSpi::WriteEnable</text>
</a>
</g>
</g>
<!-- Node45&#45;&gt;Node65 -->
<g id="edge20" class="edge"><title>Node45&#45;&gt;Node65</title>
<path fill="none" stroke="midnightblue" d="M100.266,-122.344C133.118,-105.616 186.116,-78.6301 222.201,-60.2559"/>
<polygon fill="midnightblue" stroke="midnightblue" points="224.12,-63.2063 231.443,-55.5498 220.944,-56.9684 224.12,-63.2063"/>
</g>
<!-- Node48 -->
<g id="node4" class="node"><title>Node48</title>
<g id="a_node4"><a xlink:href="../../d7/ddb/classservices_1_1_synchronous_flash_quad_spi.html#aca959594eb79c62ac69e05c83ddb7a7b" target="_top" xlink:title="services::SynchronousFlash\lQuadSpi::ReadStatusRegister">
<polygon fill="white" stroke="black" points="385,-235.5 385,-265.5 532,-265.5 532,-235.5 385,-235.5"/>
<text text-anchor="start" x="393" y="-253.5" font-family="Helvetica,sans-Serif" font-size="10.00">services::SynchronousFlash</text>
<text text-anchor="middle" x="458.5" y="-242.5" font-family="Helvetica,sans-Serif" font-size="10.00">QuadSpi::ReadStatusRegister</text>
</a>
</g>
</g>
<!-- Node47&#45;&gt;Node48 -->
<g id="edge3" class="edge"><title>Node47&#45;&gt;Node48</title>
<path fill="none" stroke="midnightblue" d="M331.171,-177.655C337.399,-180.176 343.445,-183.104 349,-186.5 369.126,-198.805 365.252,-212.598 385,-225.5 388.079,-227.512 391.338,-229.38 394.702,-231.113"/>
<polygon fill="midnightblue" stroke="midnightblue" points="393.261,-234.304 403.8,-235.389 396.239,-227.968 393.261,-234.304"/>
</g>
<!-- Node49 -->
<g id="node5" class="node"><title>Node49</title>
<g id="a_node5"><a xlink:href="../../d0/de3/namespaceinfra.html#ae4478bf95f90ceb679642cb4180f205f" target="_top" xlink:title="infra::MakeByteRange">
<polygon fill="white" stroke="black" points="576.5,-285 576.5,-304 689.5,-304 689.5,-285 576.5,-285"/>
<text text-anchor="middle" x="633" y="-292" font-family="Helvetica,sans-Serif" font-size="10.00">infra::MakeByteRange</text>
</a>
</g>
</g>
<!-- Node48&#45;&gt;Node49 -->
<g id="edge4" class="edge"><title>Node48&#45;&gt;Node49</title>
<path fill="none" stroke="midnightblue" d="M518.382,-265.519C540.106,-271.06 564.414,-277.261 584.954,-282.5"/>
<polygon fill="midnightblue" stroke="midnightblue" points="584.152,-285.907 594.707,-284.988 585.882,-279.125 584.152,-285.907"/>
</g>
<!-- Node54 -->
<g id="node10" class="node"><title>Node54</title>
<g id="a_node10"><a xlink:href="../../db/dce/classhal_1_1_synchronous_quad_spi.html#af2e82eb9bf5a96b0f731a8b8f423332e" target="_top" xlink:title="hal::SynchronousQuadSpi\l::ReceiveDataQuad">
<polygon fill="white" stroke="black" points="568,-235.5 568,-265.5 698,-265.5 698,-235.5 568,-235.5"/>
<text text-anchor="start" x="576" y="-253.5" font-family="Helvetica,sans-Serif" font-size="10.00">hal::SynchronousQuadSpi</text>
<text text-anchor="middle" x="633" y="-242.5" font-family="Helvetica,sans-Serif" font-size="10.00">::ReceiveDataQuad</text>
</a>
</g>
</g>
<!-- Node48&#45;&gt;Node54 -->
<g id="edge9" class="edge"><title>Node48&#45;&gt;Node54</title>
<path fill="none" stroke="midnightblue" d="M532.156,-250.5C540.6,-250.5 549.223,-250.5 557.689,-250.5"/>
<polygon fill="midnightblue" stroke="midnightblue" points="557.916,-254 567.916,-250.5 557.916,-247 557.916,-254"/>
</g>
<!-- Node50 -->
<g id="node6" class="node"><title>Node50</title>
<g id="a_node6"><a xlink:href="../../d0/de3/namespaceinfra.html#afe38b7d4318537de2f28b244211c4275" target="_top" xlink:title="infra::MakeRange">
<polygon fill="white" stroke="black" points="752,-307 752,-326 844,-326 844,-307 752,-307"/>
<text text-anchor="middle" x="798" y="-314" font-family="Helvetica,sans-Serif" font-size="10.00">infra::MakeRange</text>
</a>
</g>
</g>
<!-- Node49&#45;&gt;Node50 -->
<g id="edge5" class="edge"><title>Node49&#45;&gt;Node50</title>
<path fill="none" stroke="midnightblue" d="M689.639,-302.01C706.442,-304.277 724.88,-306.766 741.663,-309.031"/>
<polygon fill="midnightblue" stroke="midnightblue" points="741.491,-312.54 751.869,-310.409 742.427,-305.603 741.491,-312.54"/>
</g>
<!-- Node53 -->
<g id="node9" class="node"><title>Node53</title>
<g id="a_node9"><a xlink:href="../../d0/de3/namespaceinfra.html#a74203fdf2e029d2667c7e4925092cc9a" target="_top" xlink:title="infra::ReinterpretCastByte\lRange">
<polygon fill="white" stroke="black" points="734,-257.5 734,-287.5 862,-287.5 862,-257.5 734,-257.5"/>
<text text-anchor="start" x="742" y="-275.5" font-family="Helvetica,sans-Serif" font-size="10.00">infra::ReinterpretCastByte</text>
<text text-anchor="middle" x="798" y="-264.5" font-family="Helvetica,sans-Serif" font-size="10.00">Range</text>
</a>
</g>
</g>
<!-- Node49&#45;&gt;Node53 -->
<g id="edge8" class="edge"><title>Node49&#45;&gt;Node53</title>
<path fill="none" stroke="midnightblue" d="M689.639,-286.99C700.624,-285.508 712.309,-283.931 723.772,-282.383"/>
<polygon fill="midnightblue" stroke="midnightblue" points="724.325,-285.841 733.767,-281.035 723.388,-278.904 724.325,-285.841"/>
</g>
<!-- Node51 -->
<g id="node7" class="node"><title>Node51</title>
<g id="a_node7"><a xlink:href="../../d1/d2a/classinfra_1_1_bounded_string_base.html#aef23e4250cad2fdc69ccc39f68734233" target="_top" xlink:title="infra::BoundedStringBase\l::begin">
<polygon fill="white" stroke="black" points="909,-323.5 909,-353.5 1036,-353.5 1036,-323.5 909,-323.5"/>
<text text-anchor="start" x="917" y="-341.5" font-family="Helvetica,sans-Serif" font-size="10.00">infra::BoundedStringBase</text>
<text text-anchor="middle" x="972.5" y="-330.5" font-family="Helvetica,sans-Serif" font-size="10.00">::begin</text>
</a>
</g>
</g>
<!-- Node50&#45;&gt;Node51 -->
<g id="edge6" class="edge"><title>Node50&#45;&gt;Node51</title>
<path fill="none" stroke="midnightblue" d="M844.322,-322.28C860.999,-324.407 880.333,-326.873 898.814,-329.23"/>
<polygon fill="midnightblue" stroke="midnightblue" points="898.61,-332.732 908.972,-330.525 899.495,-325.788 898.61,-332.732"/>
</g>
<!-- Node52 -->
<g id="node8" class="node"><title>Node52</title>
<g id="a_node8"><a xlink:href="../../d1/d2a/classinfra_1_1_bounded_string_base.html#af5021f1ea3898146d0a55c2895f07dbf" target="_top" xlink:title="infra::BoundedStringBase::end">
<polygon fill="white" stroke="black" points="898,-285 898,-304 1047,-304 1047,-285 898,-285"/>
<text text-anchor="middle" x="972.5" y="-292" font-family="Helvetica,sans-Serif" font-size="10.00">infra::BoundedStringBase::end</text>
</a>
</g>
</g>
<!-- Node50&#45;&gt;Node52 -->
<g id="edge7" class="edge"><title>Node50&#45;&gt;Node52</title>
<path fill="none" stroke="midnightblue" d="M844.322,-310.72C857.624,-309.023 872.615,-307.111 887.517,-305.211"/>
<polygon fill="midnightblue" stroke="midnightblue" points="888.32,-308.637 897.797,-303.9 887.435,-301.693 888.32,-308.637"/>
</g>
<!-- Node56 -->
<g id="node12" class="node"><title>Node56</title>
<g id="a_node12"><a xlink:href="../../d5/dff/classhal_1_1_synchronous_flash.html#ae0ffa50633226598ff634051fdf07530" target="_top" xlink:title="hal::SynchronousFlash\l::AddressOffsetInSector">
<polygon fill="white" stroke="black" points="398.5,-186.5 398.5,-216.5 518.5,-216.5 518.5,-186.5 398.5,-186.5"/>
<text text-anchor="start" x="406.5" y="-204.5" font-family="Helvetica,sans-Serif" font-size="10.00">hal::SynchronousFlash</text>
<text text-anchor="middle" x="458.5" y="-193.5" font-family="Helvetica,sans-Serif" font-size="10.00">::AddressOffsetInSector</text>
</a>
</g>
</g>
<!-- Node55&#45;&gt;Node56 -->
<g id="edge11" class="edge"><title>Node55&#45;&gt;Node56</title>
<path fill="none" stroke="midnightblue" d="M331.171,-128.655C337.399,-131.176 343.445,-134.104 349,-137.5 369.126,-149.805 365.252,-163.598 385,-176.5 388.079,-178.512 391.338,-180.38 394.702,-182.113"/>
<polygon fill="midnightblue" stroke="midnightblue" points="393.261,-185.304 403.8,-186.389 396.239,-178.968 393.261,-185.304"/>
</g>
<!-- Node60 -->
<g id="node16" class="node"><title>Node60</title>
<g id="a_node16"><a xlink:href="../../d0/de3/namespaceinfra.html#a97dc5194236a205b697e668f00d42353" target="_top" xlink:title="infra::Head">
<polygon fill="white" stroke="black" points="427,-148 427,-167 490,-167 490,-148 427,-148"/>
<text text-anchor="middle" x="458.5" y="-155" font-family="Helvetica,sans-Serif" font-size="10.00">infra::Head</text>
</a>
</g>
</g>
<!-- Node55&#45;&gt;Node60 -->
<g id="edge15" class="edge"><title>Node55&#45;&gt;Node60</title>
<path fill="none" stroke="midnightblue" d="M329.392,-128.519C358.409,-135.083 391.515,-142.573 416.802,-148.293"/>
<polygon fill="midnightblue" stroke="midnightblue" points="416.252,-151.757 426.778,-150.55 417.797,-144.93 416.252,-151.757"/>
</g>
<!-- Node62 -->
<g id="node18" class="node"><title>Node62</title>
<g id="a_node18"><a xlink:href="../../d0/d6d/classinfra_1_1_memory_range.html#adf5b31ae0a4ccba88bb4b284935e8a1a" target="_top" xlink:title="infra::MemoryRange\l::pop_front">
<polygon fill="white" stroke="black" points="406.5,-98.5 406.5,-128.5 510.5,-128.5 510.5,-98.5 406.5,-98.5"/>
<text text-anchor="start" x="414.5" y="-116.5" font-family="Helvetica,sans-Serif" font-size="10.00">infra::MemoryRange</text>
<text text-anchor="middle" x="458.5" y="-105.5" font-family="Helvetica,sans-Serif" font-size="10.00">::pop_front</text>
</a>
</g>
</g>
<!-- Node55&#45;&gt;Node62 -->
<g id="edge17" class="edge"><title>Node55&#45;&gt;Node62</title>
<path fill="none" stroke="midnightblue" d="M331.573,-113.5C352.625,-113.5 375.646,-113.5 396.18,-113.5"/>
<polygon fill="midnightblue" stroke="midnightblue" points="396.353,-117 406.353,-113.5 396.353,-110 396.353,-117"/>
</g>
<!-- Node63 -->
<g id="node19" class="node"><title>Node63</title>
<g id="a_node19"><a xlink:href="../../db/dce/classhal_1_1_synchronous_quad_spi.html#a77788357712031752af41518d70c3d32" target="_top" xlink:title="hal::SynchronousQuadSpi\l::SendDataQuad">
<polygon fill="white" stroke="black" points="393.5,-0.5 393.5,-30.5 523.5,-30.5 523.5,-0.5 393.5,-0.5"/>
<text text-anchor="start" x="401.5" y="-18.5" font-family="Helvetica,sans-Serif" font-size="10.00">hal::SynchronousQuadSpi</text>
<text text-anchor="middle" x="458.5" y="-7.5" font-family="Helvetica,sans-Serif" font-size="10.00">::SendDataQuad</text>
</a>
</g>
</g>
<!-- Node55&#45;&gt;Node63 -->
<g id="edge18" class="edge"><title>Node55&#45;&gt;Node63</title>
<path fill="none" stroke="midnightblue" d="M290.868,-98.4471C307.883,-89.0537 329.957,-76.5041 349,-64.5 365.479,-54.1124 367.574,-48.2061 385,-39.5 388.567,-37.7177 392.297,-36.0228 396.103,-34.4196"/>
<polygon fill="midnightblue" stroke="midnightblue" points="397.662,-37.5665 405.666,-30.6252 395.08,-31.06 397.662,-37.5665"/>
</g>
<!-- Node64 -->
<g id="node20" class="node"><title>Node64</title>
<g id="a_node20"><a xlink:href="../../d0/d6d/classinfra_1_1_memory_range.html#ae8fbbf531d3696b6a64ac13385acdc66" target="_top" xlink:title="infra::MemoryRange\l::size">
<polygon fill="white" stroke="black" points="406.5,-49.5 406.5,-79.5 510.5,-79.5 510.5,-49.5 406.5,-49.5"/>
<text text-anchor="start" x="414.5" y="-67.5" font-family="Helvetica,sans-Serif" font-size="10.00">infra::MemoryRange</text>
<text text-anchor="middle" x="458.5" y="-56.5" font-family="Helvetica,sans-Serif" font-size="10.00">::size</text>
</a>
</g>
</g>
<!-- Node55&#45;&gt;Node64 -->
<g id="edge19" class="edge"><title>Node55&#45;&gt;Node64</title>
<path fill="none" stroke="midnightblue" d="M322.678,-98.4654C346.129,-92.5576 373.023,-85.7821 396.592,-79.8446"/>
<polygon fill="midnightblue" stroke="midnightblue" points="397.627,-83.1931 406.469,-77.3562 395.917,-76.4052 397.627,-83.1931"/>
</g>
<!-- Node57 -->
<g id="node13" class="node"><title>Node57</title>
<g id="a_node13"><a xlink:href="../../d5/dff/classhal_1_1_synchronous_flash.html#a2b4419e346a7d9feecb65501c61a6f8e" target="_top" xlink:title="hal::SynchronousFlash\l::StartOfSector">
<polygon fill="white" stroke="black" points="575,-186.5 575,-216.5 691,-216.5 691,-186.5 575,-186.5"/>
<text text-anchor="start" x="583" y="-204.5" font-family="Helvetica,sans-Serif" font-size="10.00">hal::SynchronousFlash</text>
<text text-anchor="middle" x="633" y="-193.5" font-family="Helvetica,sans-Serif" font-size="10.00">::StartOfSector</text>
</a>
</g>
</g>
<!-- Node56&#45;&gt;Node57 -->
<g id="edge12" class="edge"><title>Node56&#45;&gt;Node57</title>
<path fill="none" stroke="midnightblue" d="M518.865,-201.5C533.593,-201.5 549.483,-201.5 564.567,-201.5"/>
<polygon fill="midnightblue" stroke="midnightblue" points="564.856,-205 574.856,-201.5 564.856,-198 564.856,-205"/>
</g>
<!-- Node58 -->
<g id="node14" class="node"><title>Node58</title>
<g id="a_node14"><a xlink:href="../../d5/dff/classhal_1_1_synchronous_flash.html#a1e8a643bee9d6a9c199ed42957201500" target="_top" xlink:title="hal::SynchronousFlash\l::AddressOfSector">
<polygon fill="white" stroke="black" points="740,-197.5 740,-227.5 856,-227.5 856,-197.5 740,-197.5"/>
<text text-anchor="start" x="748" y="-215.5" font-family="Helvetica,sans-Serif" font-size="10.00">hal::SynchronousFlash</text>
<text text-anchor="middle" x="798" y="-204.5" font-family="Helvetica,sans-Serif" font-size="10.00">::AddressOfSector</text>
</a>
</g>
</g>
<!-- Node57&#45;&gt;Node58 -->
<g id="edge13" class="edge"><title>Node57&#45;&gt;Node58</title>
<path fill="none" stroke="midnightblue" d="M691.009,-205.347C703.469,-206.188 716.771,-207.086 729.593,-207.951"/>
<polygon fill="midnightblue" stroke="midnightblue" points="729.534,-211.455 739.747,-208.636 730.006,-204.471 729.534,-211.455"/>
</g>
<!-- Node59 -->
<g id="node15" class="node"><title>Node59</title>
<g id="a_node15"><a xlink:href="../../d5/dff/classhal_1_1_synchronous_flash.html#a4414c85ecb179359e5d0dc1c830cc903" target="_top" xlink:title="hal::SynchronousFlash\l::SectorOfAddress">
<polygon fill="white" stroke="black" points="740,-148.5 740,-178.5 856,-178.5 856,-148.5 740,-148.5"/>
<text text-anchor="start" x="748" y="-166.5" font-family="Helvetica,sans-Serif" font-size="10.00">hal::SynchronousFlash</text>
<text text-anchor="middle" x="798" y="-155.5" font-family="Helvetica,sans-Serif" font-size="10.00">::SectorOfAddress</text>
</a>
</g>
</g>
<!-- Node57&#45;&gt;Node59 -->
<g id="edge14" class="edge"><title>Node57&#45;&gt;Node59</title>
<path fill="none" stroke="midnightblue" d="M691.009,-188.209C703.593,-185.276 717.034,-182.142 729.973,-179.126"/>
<polygon fill="midnightblue" stroke="midnightblue" points="730.803,-182.526 739.747,-176.847 729.214,-175.709 730.803,-182.526"/>
</g>
<!-- Node61 -->
<g id="node17" class="node"><title>Node61</title>
<g id="a_node17"><a xlink:href="../../d0/d6d/classinfra_1_1_memory_range.html#a322f6976f2774c6ba7494b9e27f07624" target="_top" xlink:title="infra::MemoryRange\l::shrink_from_back_to">
<polygon fill="white" stroke="black" points="576.5,-137.5 576.5,-167.5 689.5,-167.5 689.5,-137.5 576.5,-137.5"/>
<text text-anchor="start" x="584.5" y="-155.5" font-family="Helvetica,sans-Serif" font-size="10.00">infra::MemoryRange</text>
<text text-anchor="middle" x="633" y="-144.5" font-family="Helvetica,sans-Serif" font-size="10.00">::shrink_from_back_to</text>
</a>
</g>
</g>
<!-- Node60&#45;&gt;Node61 -->
<g id="edge16" class="edge"><title>Node60&#45;&gt;Node61</title>
<path fill="none" stroke="midnightblue" d="M490.34,-156.606C511.385,-155.996 540.064,-155.165 566.114,-154.41"/>
<polygon fill="midnightblue" stroke="midnightblue" points="566.431,-157.902 576.325,-154.114 566.228,-150.905 566.431,-157.902"/>
</g>
<!-- Node65&#45;&gt;Node63 -->
<g id="edge21" class="edge"><title>Node65&#45;&gt;Node63</title>
<path fill="none" stroke="midnightblue" d="M331.573,-31.6859C348.239,-29.5439 366.138,-27.2432 383.061,-25.068"/>
<polygon fill="midnightblue" stroke="midnightblue" points="383.979,-28.4789 393.451,-23.7325 383.087,-21.536 383.979,-28.4789"/>
</g>
</g>
</svg>
