<?xml version="1.0" encoding="UTF-8" standalone="no"?>
<!DOCTYPE svg PUBLIC "-//W3C//DTD SVG 1.1//EN"
 "http://www.w3.org/Graphics/SVG/1.1/DTD/svg11.dtd">
<!-- Generated by graphviz version 2.38.0 (20140413.2041)
 -->
<!-- Title: services::SynchronousFlashQuadSpi::ReadStatusRegister Pages: 1 -->
<svg width="670pt" height="127pt"
 viewBox="0.00 0.00 670.00 127.00" xmlns="http://www.w3.org/2000/svg" xmlns:xlink="http://www.w3.org/1999/xlink">
<g id="graph0" class="graph" transform="scale(1 1) rotate(0) translate(4 123)">
<title>services::SynchronousFlashQuadSpi::ReadStatusRegister</title>
<polygon fill="white" stroke="none" points="-4,4 -4,-123 666,-123 666,4 -4,4"/>
<!-- Node35 -->
<g id="node1" class="node"><title>Node35</title>
<polygon fill="#bfbfbf" stroke="black" points="0,-22.5 0,-52.5 147,-52.5 147,-22.5 0,-22.5"/>
<text text-anchor="start" x="8" y="-40.5" font-family="Helvetica,sans-Serif" font-size="10.00">services::SynchronousFlash</text>
<text text-anchor="middle" x="73.5" y="-29.5" font-family="Helvetica,sans-Serif" font-size="10.00">QuadSpi::ReadStatusRegister</text>
</g>
<!-- Node36 -->
<g id="node2" class="node"><title>Node36</title>
<g id="a_node2"><a xlink:href="../../d0/de3/namespaceinfra.html#ae4478bf95f90ceb679642cb4180f205f" target="_top" xlink:title="infra::MakeByteRange">
<polygon fill="white" stroke="black" points="191.5,-50 191.5,-69 304.5,-69 304.5,-50 191.5,-50"/>
<text text-anchor="middle" x="248" y="-57" font-family="Helvetica,sans-Serif" font-size="10.00">infra::MakeByteRange</text>
</a>
</g>
</g>
<!-- Node35&#45;&gt;Node36 -->
<g id="edge1" class="edge"><title>Node35&#45;&gt;Node36</title>
<path fill="none" stroke="midnightblue" d="M147.156,-46.7662C158.505,-48.2137 170.177,-49.7023 181.359,-51.1283"/>
<polygon fill="midnightblue" stroke="midnightblue" points="181.103,-54.624 191.466,-52.4174 181.989,-47.6803 181.103,-54.624"/>
</g>
<!-- Node41 -->
<g id="node7" class="node"><title>Node41</title>
<g id="a_node7"><a xlink:href="../../db/dce/classhal_1_1_synchronous_quad_spi.html#af2e82eb9bf5a96b0f731a8b8f423332e" target="_top" xlink:title="hal::SynchronousQuadSpi\l::ReceiveDataQuad">
<polygon fill="white" stroke="black" points="183,-0.5 183,-30.5 313,-30.5 313,-0.5 183,-0.5"/>
<text text-anchor="start" x="191" y="-18.5" font-family="Helvetica,sans-Serif" font-size="10.00">hal::SynchronousQuadSpi</text>
<text text-anchor="middle" x="248" y="-7.5" font-family="Helvetica,sans-Serif" font-size="10.00">::ReceiveDataQuad</text>
</a>
</g>
</g>
<!-- Node35&#45;&gt;Node41 -->
<g id="edge6" class="edge"><title>Node35&#45;&gt;Node41</title>
<path fill="none" stroke="midnightblue" d="M147.156,-28.2338C155.693,-27.145 164.412,-26.0329 172.968,-24.9418"/>
<polygon fill="midnightblue" stroke="midnightblue" points="173.439,-28.4101 182.916,-23.6731 172.553,-21.4664 173.439,-28.4101"/>
</g>
<!-- Node37 -->
<g id="node3" class="node"><title>Node37</title>
<g id="a_node3"><a xlink:href="../../d0/de3/namespaceinfra.html#afe38b7d4318537de2f28b244211c4275" target="_top" xlink:title="infra::MakeRange">
<polygon fill="white" stroke="black" points="367,-72 367,-91 459,-91 459,-72 367,-72"/>
<text text-anchor="middle" x="413" y="-79" font-family="Helvetica,sans-Serif" font-size="10.00">infra::MakeRange</text>
</a>
</g>
</g>
<!-- Node36&#45;&gt;Node37 -->
<g id="edge2" class="edge"><title>Node36&#45;&gt;Node37</title>
<path fill="none" stroke="midnightblue" d="M304.639,-67.0096C321.442,-69.2774 339.88,-71.7661 356.663,-74.0312"/>
<polygon fill="midnightblue" stroke="midnightblue" points="356.491,-77.5396 366.869,-75.4087 357.427,-70.6025 356.491,-77.5396"/>
</g>
<!-- Node40 -->
<g id="node6" class="node"><title>Node40</title>
<g id="a_node6"><a xlink:href="../../d0/de3/namespaceinfra.html#a74203fdf2e029d2667c7e4925092cc9a" target="_top" xlink:title="infra::ReinterpretCastByte\lRange">
<polygon fill="white" stroke="black" points="349,-22.5 349,-52.5 477,-52.5 477,-22.5 349,-22.5"/>
<text text-anchor="start" x="357" y="-40.5" font-family="Helvetica,sans-Serif" font-size="10.00">infra::ReinterpretCastByte</text>
<text text-anchor="middle" x="413" y="-29.5" font-family="Helvetica,sans-Serif" font-size="10.00">Range</text>
</a>
</g>
</g>
<!-- Node36&#45;&gt;Node40 -->
<g id="edge5" class="edge"><title>Node36&#45;&gt;Node40</title>
<path fill="none" stroke="midnightblue" d="M304.639,-51.9904C315.624,-50.5077 327.309,-48.9307 338.772,-47.3835"/>
<polygon fill="midnightblue" stroke="midnightblue" points="339.325,-50.8408 348.767,-46.0346 338.388,-43.9037 339.325,-50.8408"/>
</g>
<!-- Node38 -->
<g id="node4" class="node"><title>Node38</title>
<g id="a_node4"><a xlink:href="../../d1/d2a/classinfra_1_1_bounded_string_base.html#aef23e4250cad2fdc69ccc39f68734233" target="_top" xlink:title="infra::BoundedStringBase\l::begin">
<polygon fill="white" stroke="black" points="524,-88.5 524,-118.5 651,-118.5 651,-88.5 524,-88.5"/>
<text text-anchor="start" x="532" y="-106.5" font-family="Helvetica,sans-Serif" font-size="10.00">infra::BoundedStringBase</text>
<text text-anchor="middle" x="587.5" y="-95.5" font-family="Helvetica,sans-Serif" font-size="10.00">::begin</text>
</a>
</g>
</g>
<!-- Node37&#45;&gt;Node38 -->
<g id="edge3" class="edge"><title>Node37&#45;&gt;Node38</title>
<path fill="none" stroke="midnightblue" d="M459.322,-87.2802C475.999,-89.4071 495.333,-91.8729 513.814,-94.23"/>
<polygon fill="midnightblue" stroke="midnightblue" points="513.61,-97.7321 523.972,-95.5254 514.495,-90.7883 513.61,-97.7321"/>
</g>
<!-- Node39 -->
<g id="node5" class="node"><title>Node39</title>
<g id="a_node5"><a xlink:href="../../d1/d2a/classinfra_1_1_bounded_string_base.html#af5021f1ea3898146d0a55c2895f07dbf" target="_top" xlink:title="infra::BoundedStringBase::end">
<polygon fill="white" stroke="black" points="513,-50 513,-69 662,-69 662,-50 513,-50"/>
<text text-anchor="middle" x="587.5" y="-57" font-family="Helvetica,sans-Serif" font-size="10.00">infra::BoundedStringBase::end</text>
</a>
</g>
</g>
<!-- Node37&#45;&gt;Node39 -->
<g id="edge4" class="edge"><title>Node37&#45;&gt;Node39</title>
<path fill="none" stroke="midnightblue" d="M459.322,-75.7198C472.624,-74.0234 487.615,-72.1114 502.517,-70.2109"/>
<polygon fill="midnightblue" stroke="midnightblue" points="503.32,-73.6369 512.797,-68.8998 502.435,-66.6931 503.32,-73.6369"/>
</g>
</g>
</svg>
