<?xml version="1.0" encoding="UTF-8" standalone="no"?>
<!DOCTYPE svg PUBLIC "-//W3C//DTD SVG 1.1//EN"
 "http://www.w3.org/Graphics/SVG/1.1/DTD/svg11.dtd">
<!-- Generated by graphviz version 2.38.0 (20140413.2041)
 -->
<!-- Title: services::SynchronousFlashQuadSpi::HoldWhileWriteInProgress Pages: 1 -->
<svg width="880pt" height="105pt"
 viewBox="0.00 0.00 880.00 105.00" xmlns="http://www.w3.org/2000/svg" xmlns:xlink="http://www.w3.org/1999/xlink">
<g id="graph0" class="graph" transform="scale(1 1) rotate(0) translate(4 101)">
<title>services::SynchronousFlashQuadSpi::HoldWhileWriteInProgress</title>
<polygon fill="white" stroke="none" points="-4,4 -4,-101 876,-101 876,4 -4,4"/>
<!-- Node10 -->
<g id="node1" class="node"><title>Node10</title>
<polygon fill="#bfbfbf" stroke="black" points="0,-44.5 0,-74.5 174,-74.5 174,-44.5 0,-44.5"/>
<text text-anchor="start" x="8" y="-62.5" font-family="Helvetica,sans-Serif" font-size="10.00">services::SynchronousFlash</text>
<text text-anchor="middle" x="87" y="-51.5" font-family="Helvetica,sans-Serif" font-size="10.00">QuadSpi::HoldWhileWriteInProgress</text>
</g>
<!-- Node11 -->
<g id="node2" class="node"><title>Node11</title>
<g id="a_node2"><a xlink:href="../../d7/ddb/classservices_1_1_synchronous_flash_quad_spi.html#aca959594eb79c62ac69e05c83ddb7a7b" target="_top" xlink:title="services::SynchronousFlash\lQuadSpi::ReadStatusRegister">
<polygon fill="white" stroke="black" points="210,-44.5 210,-74.5 357,-74.5 357,-44.5 210,-44.5"/>
<text text-anchor="start" x="218" y="-62.5" font-family="Helvetica,sans-Serif" font-size="10.00">services::SynchronousFlash</text>
<text text-anchor="middle" x="283.5" y="-51.5" font-family="Helvetica,sans-Serif" font-size="10.00">QuadSpi::ReadStatusRegister</text>
</a>
</g>
</g>
<!-- Node10&#45;&gt;Node11 -->
<g id="edge1" class="edge"><title>Node10&#45;&gt;Node11</title>
<path fill="none" stroke="midnightblue" d="M174.16,-59.5C182.612,-59.5 191.177,-59.5 199.596,-59.5"/>
<polygon fill="midnightblue" stroke="midnightblue" points="199.775,-63.0001 209.774,-59.5 199.774,-56.0001 199.775,-63.0001"/>
</g>
<!-- Node12 -->
<g id="node3" class="node"><title>Node12</title>
<g id="a_node3"><a xlink:href="../../db/dce/classhal_1_1_synchronous_quad_spi.html#af2e82eb9bf5a96b0f731a8b8f423332e" target="_top" xlink:title="hal::SynchronousQuadSpi\l::ReceiveDataQuad">
<polygon fill="white" stroke="black" points="393,-66.5 393,-96.5 523,-96.5 523,-66.5 393,-66.5"/>
<text text-anchor="start" x="401" y="-84.5" font-family="Helvetica,sans-Serif" font-size="10.00">hal::SynchronousQuadSpi</text>
<text text-anchor="middle" x="458" y="-73.5" font-family="Helvetica,sans-Serif" font-size="10.00">::ReceiveDataQuad</text>
</a>
</g>
</g>
<!-- Node11&#45;&gt;Node12 -->
<g id="edge2" class="edge"><title>Node11&#45;&gt;Node12</title>
<path fill="none" stroke="midnightblue" d="M357.156,-68.7662C365.693,-69.855 374.412,-70.9671 382.968,-72.0582"/>
<polygon fill="midnightblue" stroke="midnightblue" points="382.553,-75.5336 392.916,-73.3269 383.439,-68.5899 382.553,-75.5336"/>
</g>
<!-- Node13 -->
<g id="node4" class="node"><title>Node13</title>
<g id="a_node4"><a xlink:href="../../d0/de3/namespaceinfra.html#ae4478bf95f90ceb679642cb4180f205f" target="_top" xlink:title="infra::MakeByteRange">
<polygon fill="white" stroke="black" points="401.5,-28 401.5,-47 514.5,-47 514.5,-28 401.5,-28"/>
<text text-anchor="middle" x="458" y="-35" font-family="Helvetica,sans-Serif" font-size="10.00">infra::MakeByteRange</text>
</a>
</g>
</g>
<!-- Node11&#45;&gt;Node13 -->
<g id="edge3" class="edge"><title>Node11&#45;&gt;Node13</title>
<path fill="none" stroke="midnightblue" d="M357.156,-50.2338C368.505,-48.7863 380.177,-47.2977 391.359,-45.8717"/>
<polygon fill="midnightblue" stroke="midnightblue" points="391.989,-49.3197 401.466,-44.5826 391.103,-42.376 391.989,-49.3197"/>
</g>
<!-- Node14 -->
<g id="node5" class="node"><title>Node14</title>
<g id="a_node5"><a xlink:href="../../d0/de3/namespaceinfra.html#afe38b7d4318537de2f28b244211c4275" target="_top" xlink:title="infra::MakeRange">
<polygon fill="white" stroke="black" points="577,-50 577,-69 669,-69 669,-50 577,-50"/>
<text text-anchor="middle" x="623" y="-57" font-family="Helvetica,sans-Serif" font-size="10.00">infra::MakeRange</text>
</a>
</g>
</g>
<!-- Node13&#45;&gt;Node14 -->
<g id="edge4" class="edge"><title>Node13&#45;&gt;Node14</title>
<path fill="none" stroke="midnightblue" d="M514.639,-45.0096C531.442,-47.2774 549.88,-49.7661 566.663,-52.0312"/>
<polygon fill="midnightblue" stroke="midnightblue" points="566.491,-55.5396 576.869,-53.4087 567.427,-48.6025 566.491,-55.5396"/>
</g>
<!-- Node17 -->
<g id="node8" class="node"><title>Node17</title>
<g id="a_node8"><a xlink:href="../../d0/de3/namespaceinfra.html#a74203fdf2e029d2667c7e4925092cc9a" target="_top" xlink:title="infra::ReinterpretCastByte\lRange">
<polygon fill="white" stroke="black" points="559,-0.5 559,-30.5 687,-30.5 687,-0.5 559,-0.5"/>
<text text-anchor="start" x="567" y="-18.5" font-family="Helvetica,sans-Serif" font-size="10.00">infra::ReinterpretCastByte</text>
<text text-anchor="middle" x="623" y="-7.5" font-family="Helvetica,sans-Serif" font-size="10.00">Range</text>
</a>
</g>
</g>
<!-- Node13&#45;&gt;Node17 -->
<g id="edge7" class="edge"><title>Node13&#45;&gt;Node17</title>
<path fill="none" stroke="midnightblue" d="M514.639,-29.9904C525.624,-28.5077 537.309,-26.9307 548.772,-25.3835"/>
<polygon fill="midnightblue" stroke="midnightblue" points="549.325,-28.8408 558.767,-24.0346 548.388,-21.9037 549.325,-28.8408"/>
</g>
<!-- Node15 -->
<g id="node6" class="node"><title>Node15</title>
<g id="a_node6"><a xlink:href="../../d1/d2a/classinfra_1_1_bounded_string_base.html#aef23e4250cad2fdc69ccc39f68734233" target="_top" xlink:title="infra::BoundedStringBase\l::begin">
<polygon fill="white" stroke="black" points="734,-66.5 734,-96.5 861,-96.5 861,-66.5 734,-66.5"/>
<text text-anchor="start" x="742" y="-84.5" font-family="Helvetica,sans-Serif" font-size="10.00">infra::BoundedStringBase</text>
<text text-anchor="middle" x="797.5" y="-73.5" font-family="Helvetica,sans-Serif" font-size="10.00">::begin</text>
</a>
</g>
</g>
<!-- Node14&#45;&gt;Node15 -->
<g id="edge5" class="edge"><title>Node14&#45;&gt;Node15</title>
<path fill="none" stroke="midnightblue" d="M669.322,-65.2802C685.999,-67.4071 705.333,-69.8729 723.814,-72.23"/>
<polygon fill="midnightblue" stroke="midnightblue" points="723.61,-75.7321 733.972,-73.5254 724.495,-68.7883 723.61,-75.7321"/>
</g>
<!-- Node16 -->
<g id="node7" class="node"><title>Node16</title>
<g id="a_node7"><a xlink:href="../../d1/d2a/classinfra_1_1_bounded_string_base.html#af5021f1ea3898146d0a55c2895f07dbf" target="_top" xlink:title="infra::BoundedStringBase::end">
<polygon fill="white" stroke="black" points="723,-28 723,-47 872,-47 872,-28 723,-28"/>
<text text-anchor="middle" x="797.5" y="-35" font-family="Helvetica,sans-Serif" font-size="10.00">infra::BoundedStringBase::end</text>
</a>
</g>
</g>
<!-- Node14&#45;&gt;Node16 -->
<g id="edge6" class="edge"><title>Node14&#45;&gt;Node16</title>
<path fill="none" stroke="midnightblue" d="M669.322,-53.7198C682.624,-52.0234 697.615,-50.1114 712.517,-48.2109"/>
<polygon fill="midnightblue" stroke="midnightblue" points="713.32,-51.6369 722.797,-46.8998 712.435,-44.6931 713.32,-51.6369"/>
</g>
</g>
</svg>
