<?xml version="1.0" encoding="UTF-8" standalone="no"?>
<!DOCTYPE svg PUBLIC "-//W3C//DTD SVG 1.1//EN"
 "http://www.w3.org/Graphics/SVG/1.1/DTD/svg11.dtd">
<!-- Generated by graphviz version 2.38.0 (20140413.2041)
 -->
<!-- Title: services::SynchronousFlashQuadSpi::HoldWhileWriteInProgress Pages: 1 -->
<svg width="357pt" height="39pt"
 viewBox="0.00 0.00 357.00 39.00" xmlns="http://www.w3.org/2000/svg" xmlns:xlink="http://www.w3.org/1999/xlink">
<g id="graph0" class="graph" transform="scale(1 1) rotate(0) translate(4 35)">
<title>services::SynchronousFlashQuadSpi::HoldWhileWriteInProgress</title>
<polygon fill="white" stroke="none" points="-4,4 -4,-35 353,-35 353,4 -4,4"/>
<!-- Node18 -->
<g id="node1" class="node"><title>Node18</title>
<polygon fill="#bfbfbf" stroke="black" points="0,-0.5 0,-30.5 174,-30.5 174,-0.5 0,-0.5"/>
<text text-anchor="start" x="8" y="-18.5" font-family="Helvetica,sans-Serif" font-size="10.00">services::SynchronousFlash</text>
<text text-anchor="middle" x="87" y="-7.5" font-family="Helvetica,sans-Serif" font-size="10.00">QuadSpi::HoldWhileWriteInProgress</text>
</g>
<!-- Node19 -->
<g id="node2" class="node"><title>Node19</title>
<g id="a_node2"><a xlink:href="../../d7/ddb/classservices_1_1_synchronous_flash_quad_spi.html#a269561aa405364b3c6df913a1c607b00" target="_top" xlink:title="services::SynchronousFlash\lQuadSpi::WriteBuffer">
<polygon fill="white" stroke="black" points="210,-0.5 210,-30.5 349,-30.5 349,-0.5 210,-0.5"/>
<text text-anchor="start" x="218" y="-18.5" font-family="Helvetica,sans-Serif" font-size="10.00">services::SynchronousFlash</text>
<text text-anchor="middle" x="279.5" y="-7.5" font-family="Helvetica,sans-Serif" font-size="10.00">QuadSpi::WriteBuffer</text>
</a>
</g>
</g>
<!-- Node18&#45;&gt;Node19 -->
<g id="edge1" class="edge"><title>Node18&#45;&gt;Node19</title>
<path fill="none" stroke="midnightblue" d="M184.233,-15.5C192.915,-15.5 201.586,-15.5 209.957,-15.5"/>
<polygon fill="midnightblue" stroke="midnightblue" points="184.054,-12.0001 174.054,-15.5 184.054,-19.0001 184.054,-12.0001"/>
</g>
</g>
</svg>
