<?xml version="1.0" encoding="UTF-8" standalone="no"?>
<!DOCTYPE svg PUBLIC "-//W3C//DTD SVG 1.1//EN"
 "http://www.w3.org/Graphics/SVG/1.1/DTD/svg11.dtd">
<!-- Generated by graphviz version 2.38.0 (20140413.2041)
 -->
<!-- Title: services::SynchronousFlashQuadSpi::PageProgram Pages: 1 -->
<!--zoomable 253 -->
<svg id="main" version="1.1" xmlns="http://www.w3.org/2000/svg" xmlns:xlink="http://www.w3.org/1999/xlink" xml:space="preserve" onload="init(evt)">
<style type="text/css"><![CDATA[
.edge:hover path { stroke: red; }
.edge:hover polygon { stroke: red; fill: red; }
]]></style>
<script type="text/javascript"><![CDATA[
var edges = document.getElementsByTagName('g');
if (edges && edges.length) {
  for (var i=0;i<edges.length;i++) {
    if (edges[i].id.substr(0,4)=='edge') {
      edges[i].setAttribute('class','edge');
    }
  }
}
]]></script>
        <defs>
                <circle id="rim" cx="0" cy="0" r="7"/>
                <circle id="rim2" cx="0" cy="0" r="3.5"/>
                <g id="zoomPlus">
                        <use xlink:href="#rim" fill="#404040">
                                <set attributeName="fill" to="#808080" begin="zoomplus.mouseover" end="zoomplus.mouseout"/>
                        </use>
                        <path d="M-4,0h8M0,-4v8" fill="none" stroke="white" stroke-width="1.5" pointer-events="none"/>
                </g>
                <g id="zoomMin">
                        <use xlink:href="#rim" fill="#404040">
                                <set attributeName="fill" to="#808080" begin="zoomminus.mouseover" end="zoomminus.mouseout"/>
                        </use>
                        <path d="M-4,0h8" fill="none" stroke="white" stroke-width="1.5" pointer-events="none"/>
                </g>
                <g id="dirArrow">
                        <path fill="none" stroke="white" stroke-width="1.5" d="M0,-3.0v7 M-2.5,-0.5L0,-3.0L2.5,-0.5"/>
                </g>
               <g id="resetDef">
                       <use xlink:href="#rim2" fill="#404040">
                               <set attributeName="fill" to="#808080" begin="reset.mouseover" end="reset.mouseout"/>
                       </use>
               </g>
        </defs>

<script type="text/javascript">
var viewWidth = 617;
var viewHeight = 253;
var sectionId = 'dynsection-5';
</script>
<script xlink:href="../../svgpan.js"/>
<svg id="graph" class="graph">
<g id="viewport">
<title>services::SynchronousFlashQuadSpi::PageProgram</title>
<polygon fill="white" stroke="none" points="-4,4 -4,-249 613,-249 613,4 -4,4"/>
<!-- Node20 -->
<g id="node1" class="node"><title>Node20</title>
<polygon fill="#bfbfbf" stroke="black" points="0,-98.5 0,-128.5 139,-128.5 139,-98.5 0,-98.5"/>
<text text-anchor="start" x="8" y="-116.5" font-family="Helvetica,sans-Serif" font-size="10.00">services::SynchronousFlash</text>
<text text-anchor="middle" x="69.5" y="-105.5" font-family="Helvetica,sans-Serif" font-size="10.00">QuadSpi::PageProgram</text>
</g>
<!-- Node21 -->
<g id="node2" class="node"><title>Node21</title>
<g id="a_node2"><a xlink:href="../../d5/dff/classhal_1_1_synchronous_flash.html#ae0ffa50633226598ff634051fdf07530" target="_top" xlink:title="hal::SynchronousFlash\l::AddressOffsetInSector">
<polygon fill="white" stroke="black" points="180,-187.5 180,-217.5 300,-217.5 300,-187.5 180,-187.5"/>
<text text-anchor="start" x="188" y="-205.5" font-family="Helvetica,sans-Serif" font-size="10.00">hal::SynchronousFlash</text>
<text text-anchor="middle" x="240" y="-194.5" font-family="Helvetica,sans-Serif" font-size="10.00">::AddressOffsetInSector</text>
</a>
</g>
</g>
<!-- Node20&#45;&gt;Node21 -->
<g id="edge1" class="edge"><title>Node20&#45;&gt;Node21</title>
<path fill="none" stroke="midnightblue" d="M93.1559,-128.578C113.938,-142.063 145.829,-161.894 175,-176.5 179.64,-178.823 184.539,-181.104 189.478,-183.29"/>
<polygon fill="midnightblue" stroke="midnightblue" points="188.397,-186.634 198.967,-187.363 191.158,-180.202 188.397,-186.634"/>
</g>
<!-- Node25 -->
<g id="node6" class="node"><title>Node25</title>
<g id="a_node6"><a xlink:href="../../d0/de3/namespaceinfra.html#a97dc5194236a205b697e668f00d42353" target="_top" xlink:title="infra::Head">
<polygon fill="white" stroke="black" points="208.5,-148 208.5,-167 271.5,-167 271.5,-148 208.5,-148"/>
<text text-anchor="middle" x="240" y="-155" font-family="Helvetica,sans-Serif" font-size="10.00">infra::Head</text>
</a>
</g>
</g>
<!-- Node20&#45;&gt;Node25 -->
<g id="edge5" class="edge"><title>Node20&#45;&gt;Node25</title>
<path fill="none" stroke="midnightblue" d="M128.017,-128.519C151.121,-134.552 177.219,-141.367 198.299,-146.872"/>
<polygon fill="midnightblue" stroke="midnightblue" points="197.649,-150.32 208.209,-149.46 199.418,-143.547 197.649,-150.32"/>
</g>
<!-- Node27 -->
<g id="node8" class="node"><title>Node27</title>
<g id="a_node8"><a xlink:href="../../d0/d6d/classinfra_1_1_memory_range.html#adf5b31ae0a4ccba88bb4b284935e8a1a" target="_top" xlink:title="infra::MemoryRange\l::pop_front">
<polygon fill="white" stroke="black" points="188,-98.5 188,-128.5 292,-128.5 292,-98.5 188,-98.5"/>
<text text-anchor="start" x="196" y="-116.5" font-family="Helvetica,sans-Serif" font-size="10.00">infra::MemoryRange</text>
<text text-anchor="middle" x="240" y="-105.5" font-family="Helvetica,sans-Serif" font-size="10.00">::pop_front</text>
</a>
</g>
</g>
<!-- Node20&#45;&gt;Node27 -->
<g id="edge7" class="edge"><title>Node20&#45;&gt;Node27</title>
<path fill="none" stroke="midnightblue" d="M139.035,-113.5C151.777,-113.5 165.016,-113.5 177.53,-113.5"/>
<polygon fill="midnightblue" stroke="midnightblue" points="177.844,-117 187.844,-113.5 177.844,-110 177.844,-117"/>
</g>
<!-- Node28 -->
<g id="node9" class="node"><title>Node28</title>
<g id="a_node9"><a xlink:href="../../db/dce/classhal_1_1_synchronous_quad_spi.html#a77788357712031752af41518d70c3d32" target="_top" xlink:title="hal::SynchronousQuadSpi\l::SendDataQuad">
<polygon fill="white" stroke="black" points="175,-49.5 175,-79.5 305,-79.5 305,-49.5 175,-49.5"/>
<text text-anchor="start" x="183" y="-67.5" font-family="Helvetica,sans-Serif" font-size="10.00">hal::SynchronousQuadSpi</text>
<text text-anchor="middle" x="240" y="-56.5" font-family="Helvetica,sans-Serif" font-size="10.00">::SendDataQuad</text>
</a>
</g>
</g>
<!-- Node20&#45;&gt;Node28 -->
<g id="edge8" class="edge"><title>Node20&#45;&gt;Node28</title>
<path fill="none" stroke="midnightblue" d="M122.43,-98.3986C139.809,-93.3449 159.35,-87.6624 177.394,-82.4152"/>
<polygon fill="midnightblue" stroke="midnightblue" points="178.616,-85.7048 187.241,-79.5516 176.661,-78.9832 178.616,-85.7048"/>
</g>
<!-- Node29 -->
<g id="node10" class="node"><title>Node29</title>
<g id="a_node10"><a xlink:href="../../d0/d6d/classinfra_1_1_memory_range.html#ae8fbbf531d3696b6a64ac13385acdc66" target="_top" xlink:title="infra::MemoryRange\l::size">
<polygon fill="white" stroke="black" points="188,-0.5 188,-30.5 292,-30.5 292,-0.5 188,-0.5"/>
<text text-anchor="start" x="196" y="-18.5" font-family="Helvetica,sans-Serif" font-size="10.00">infra::MemoryRange</text>
<text text-anchor="middle" x="240" y="-7.5" font-family="Helvetica,sans-Serif" font-size="10.00">::size</text>
</a>
</g>
</g>
<!-- Node20&#45;&gt;Node29 -->
<g id="edge9" class="edge"><title>Node20&#45;&gt;Node29</title>
<path fill="none" stroke="midnightblue" d="M89.2592,-98.3327C109.523,-82.4547 143.19,-57.5112 175,-40.5 178.892,-38.4186 182.996,-36.4167 187.169,-34.5146"/>
<polygon fill="midnightblue" stroke="midnightblue" points="188.585,-37.7155 196.361,-30.5184 185.794,-31.296 188.585,-37.7155"/>
</g>
<!-- Node22 -->
<g id="node3" class="node"><title>Node22</title>
<g id="a_node3"><a xlink:href="../../d5/dff/classhal_1_1_synchronous_flash.html#a2b4419e346a7d9feecb65501c61a6f8e" target="_top" xlink:title="hal::SynchronousFlash\l::StartOfSector">
<polygon fill="white" stroke="black" points="341,-189.5 341,-219.5 457,-219.5 457,-189.5 341,-189.5"/>
<text text-anchor="start" x="349" y="-207.5" font-family="Helvetica,sans-Serif" font-size="10.00">hal::SynchronousFlash</text>
<text text-anchor="middle" x="399" y="-196.5" font-family="Helvetica,sans-Serif" font-size="10.00">::StartOfSector</text>
</a>
</g>
</g>
<!-- Node21&#45;&gt;Node22 -->
<g id="edge2" class="edge"><title>Node21&#45;&gt;Node22</title>
<path fill="none" stroke="midnightblue" d="M300.355,-203.256C310.319,-203.383 320.722,-203.516 330.866,-203.645"/>
<polygon fill="midnightblue" stroke="midnightblue" points="330.854,-207.145 340.898,-203.773 330.943,-200.145 330.854,-207.145"/>
</g>
<!-- Node23 -->
<g id="node4" class="node"><title>Node23</title>
<g id="a_node4"><a xlink:href="../../d5/dff/classhal_1_1_synchronous_flash.html#a1e8a643bee9d6a9c199ed42957201500" target="_top" xlink:title="hal::SynchronousFlash\l::AddressOfSector">
<polygon fill="white" stroke="black" points="493,-214.5 493,-244.5 609,-244.5 609,-214.5 493,-214.5"/>
<text text-anchor="start" x="501" y="-232.5" font-family="Helvetica,sans-Serif" font-size="10.00">hal::SynchronousFlash</text>
<text text-anchor="middle" x="551" y="-221.5" font-family="Helvetica,sans-Serif" font-size="10.00">::AddressOfSector</text>
</a>
</g>
</g>
<!-- Node22&#45;&gt;Node23 -->
<g id="edge3" class="edge"><title>Node22&#45;&gt;Node23</title>
<path fill="none" stroke="midnightblue" d="M457.136,-214.023C465.468,-215.411 474.111,-216.852 482.622,-218.27"/>
<polygon fill="midnightblue" stroke="midnightblue" points="482.086,-221.729 492.525,-219.921 483.237,-214.824 482.086,-221.729"/>
</g>
<!-- Node24 -->
<g id="node5" class="node"><title>Node24</title>
<g id="a_node5"><a xlink:href="../../d5/dff/classhal_1_1_synchronous_flash.html#a4414c85ecb179359e5d0dc1c830cc903" target="_top" xlink:title="hal::SynchronousFlash\l::SectorOfAddress">
<polygon fill="white" stroke="black" points="493,-165.5 493,-195.5 609,-195.5 609,-165.5 493,-165.5"/>
<text text-anchor="start" x="501" y="-183.5" font-family="Helvetica,sans-Serif" font-size="10.00">hal::SynchronousFlash</text>
<text text-anchor="middle" x="551" y="-172.5" font-family="Helvetica,sans-Serif" font-size="10.00">::SectorOfAddress</text>
</a>
</g>
</g>
<!-- Node22&#45;&gt;Node24 -->
<g id="edge4" class="edge"><title>Node22&#45;&gt;Node24</title>
<path fill="none" stroke="midnightblue" d="M457.136,-195.358C465.468,-194.025 474.111,-192.642 482.622,-191.281"/>
<polygon fill="midnightblue" stroke="midnightblue" points="483.204,-194.732 492.525,-189.696 482.098,-187.82 483.204,-194.732"/>
</g>
<!-- Node26 -->
<g id="node7" class="node"><title>Node26</title>
<g id="a_node7"><a xlink:href="../../d0/d6d/classinfra_1_1_memory_range.html#a322f6976f2774c6ba7494b9e27f07624" target="_top" xlink:title="infra::MemoryRange\l::shrink_from_back_to">
<polygon fill="white" stroke="black" points="342.5,-140.5 342.5,-170.5 455.5,-170.5 455.5,-140.5 342.5,-140.5"/>
<text text-anchor="start" x="350.5" y="-158.5" font-family="Helvetica,sans-Serif" font-size="10.00">infra::MemoryRange</text>
<text text-anchor="middle" x="399" y="-147.5" font-family="Helvetica,sans-Serif" font-size="10.00">::shrink_from_back_to</text>
</a>
</g>
</g>
<!-- Node25&#45;&gt;Node26 -->
<g id="edge6" class="edge"><title>Node25&#45;&gt;Node26</title>
<path fill="none" stroke="midnightblue" d="M271.644,-157.11C288.899,-156.89 311.142,-156.606 332.145,-156.339"/>
<polygon fill="midnightblue" stroke="midnightblue" points="332.375,-159.836 342.329,-156.209 332.285,-152.837 332.375,-159.836"/>
</g>
</g>
</svg>
        <g id="navigator" transform="translate(0 0)" fill="#404254">
                <rect fill="#f2f5e9" fill-opacity="0.5" stroke="#606060" stroke-width=".5" x="0" y="0" width="60" height="60"/>
                <use id="zoomplus" xlink:href="#zoomPlus" x="17" y="9" onmousedown="handleZoom(evt,'in')"/>
                <use id="zoomminus" xlink:href="#zoomMin" x="42" y="9" onmousedown="handleZoom(evt,'out')"/>
                <use id="reset" xlink:href="#resetDef" x="30" y="36" onmousedown="handleReset()"/>
                <g id="arrowUp" xlink:href="#dirArrow" transform="translate(30 24)" onmousedown="handlePan(0,-1)">
                  <use xlink:href="#rim" fill="#404040">
                        <set attributeName="fill" to="#808080" begin="arrowUp.mouseover" end="arrowUp.mouseout"/>
                  </use>
                  <path fill="none" stroke="white" stroke-width="1.5" d="M0,-3.0v7 M-2.5,-0.5L0,-3.0L2.5,-0.5"/>
                </g>
                <g id="arrowRight" xlink:href="#dirArrow" transform="rotate(90) translate(36 -43)" onmousedown="handlePan(1,0)">
                  <use xlink:href="#rim" fill="#404040">
                        <set attributeName="fill" to="#808080" begin="arrowRight.mouseover" end="arrowRight.mouseout"/>
                  </use>
                  <path fill="none" stroke="white" stroke-width="1.5" d="M0,-3.0v7 M-2.5,-0.5L0,-3.0L2.5,-0.5"/>
                </g>
                <g id="arrowDown" xlink:href="#dirArrow" transform="rotate(180) translate(-30 -48)" onmousedown="handlePan(0,1)">
                  <use xlink:href="#rim" fill="#404040">
                        <set attributeName="fill" to="#808080" begin="arrowDown.mouseover" end="arrowDown.mouseout"/>
                  </use>
                  <path fill="none" stroke="white" stroke-width="1.5" d="M0,-3.0v7 M-2.5,-0.5L0,-3.0L2.5,-0.5"/>
                </g>
                <g id="arrowLeft" xlink:href="#dirArrow" transform="rotate(270) translate(-36 17)" onmousedown="handlePan(-1,0)">
                  <use xlink:href="#rim" fill="#404040">
                        <set attributeName="fill" to="#808080" begin="arrowLeft.mouseover" end="arrowLeft.mouseout"/>
                  </use>
                  <path fill="none" stroke="white" stroke-width="1.5" d="M0,-3.0v7 M-2.5,-0.5L0,-3.0L2.5,-0.5"/>
                </g>
        </g>
        <svg viewBox="0 0 15 15" width="100%" height="30px" preserveAspectRatio="xMaxYMin meet">
         <g id="arrow_out" transform="scale(0.3 0.3)">
          <a xlink:href="classservices_1_1_synchronous_flash_quad_spi_a7f860e4ff104978a992a29616fa64df0_cgraph_org.svg" target="_base">
           <rect id="button" ry="5" rx="5" y="6" x="6" height="38" width="38"
                fill="#f2f5e9" fill-opacity="0.5" stroke="#606060" stroke-width="1.0"/>
           <path id="arrow"
             d="M 11.500037,31.436501 C 11.940474,20.09759 22.043105,11.32322 32.158766,21.979434 L 37.068811,17.246167 C 37.068811,17.246167 37.088388,32 37.088388,32 L 22.160133,31.978069 C 22.160133,31.978069 26.997745,27.140456 26.997745,27.140456 C 18.528582,18.264221 13.291696,25.230495 11.500037,31.436501 z"
             style="fill:#404040;"/>
          </a>
         </g>
        </svg>
</svg>
