<?xml version="1.0" encoding="UTF-8" standalone="no"?>
<!DOCTYPE svg PUBLIC "-//W3C//DTD SVG 1.1//EN"
 "http://www.w3.org/Graphics/SVG/1.1/DTD/svg11.dtd">
<!-- Generated by graphviz version 2.38.0 (20140413.2041)
 -->
<!-- Title: services::DnsResolver::HostnameParts::ConsumeCurrent Pages: 1 -->
<svg width="362pt" height="50pt"
 viewBox="0.00 0.00 362.00 50.00" xmlns="http://www.w3.org/2000/svg" xmlns:xlink="http://www.w3.org/1999/xlink">
<g id="graph0" class="graph" transform="scale(1 1) rotate(0) translate(4 46)">
<title>services::DnsResolver::HostnameParts::ConsumeCurrent</title>
<polygon fill="white" stroke="none" points="-4,4 -4,-46 358,-46 358,4 -4,4"/>
<!-- Node7 -->
<g id="node1" class="node"><title>Node7</title>
<polygon fill="#bfbfbf" stroke="black" points="0,-6 0,-36 169,-36 169,-6 0,-6"/>
<text text-anchor="start" x="8" y="-24" font-family="Helvetica,sans-Serif" font-size="10.00">services::DnsResolver</text>
<text text-anchor="middle" x="84.5" y="-13" font-family="Helvetica,sans-Serif" font-size="10.00">::HostnameParts::ConsumeCurrent</text>
</g>
<!-- Node8 -->
<g id="node2" class="node"><title>Node8</title>
<g id="a_node2"><a xlink:href="../../d5/d9a/classservices_1_1_dns_resolver_1_1_reply_parser.html#a024b65ab82f603cbe52834d663412524" target="_top" xlink:title="services::DnsResolver\l::ReplyParser::ReadAndMatch\lHostnameWithoutReference">
<polygon fill="white" stroke="black" points="205,-0.5 205,-41.5 354,-41.5 354,-0.5 205,-0.5"/>
<text text-anchor="start" x="213" y="-29.5" font-family="Helvetica,sans-Serif" font-size="10.00">services::DnsResolver</text>
<text text-anchor="start" x="213" y="-18.5" font-family="Helvetica,sans-Serif" font-size="10.00">::ReplyParser::ReadAndMatch</text>
<text text-anchor="middle" x="279.5" y="-7.5" font-family="Helvetica,sans-Serif" font-size="10.00">HostnameWithoutReference</text>
</a>
</g>
</g>
<!-- Node7&#45;&gt;Node8 -->
<g id="edge1" class="edge"><title>Node7&#45;&gt;Node8</title>
<path fill="none" stroke="midnightblue" d="M179.134,-21C187.768,-21 196.432,-21 204.85,-21"/>
<polygon fill="midnightblue" stroke="midnightblue" points="179.03,-17.5001 169.03,-21 179.03,-24.5001 179.03,-17.5001"/>
</g>
</g>
</svg>
