<?xml version="1.0" encoding="UTF-8" standalone="no"?>
<!DOCTYPE svg PUBLIC "-//W3C//DTD SVG 1.1//EN"
 "http://www.w3.org/Graphics/SVG/1.1/DTD/svg11.dtd">
<!-- Generated by graphviz version 2.38.0 (20140413.2041)
 -->
<!-- Title: services::DnsResolver::HostnameParts::Empty Pages: 1 -->
<svg width="318pt" height="110pt"
 viewBox="0.00 0.00 318.00 110.00" xmlns="http://www.w3.org/2000/svg" xmlns:xlink="http://www.w3.org/1999/xlink">
<g id="graph0" class="graph" transform="scale(1 1) rotate(0) translate(4 106)">
<title>services::DnsResolver::HostnameParts::Empty</title>
<polygon fill="white" stroke="none" points="-4,4 -4,-106 314,-106 314,4 -4,4"/>
<!-- Node13 -->
<g id="node1" class="node"><title>Node13</title>
<polygon fill="#bfbfbf" stroke="black" points="0,-36 0,-66 125,-66 125,-36 0,-36"/>
<text text-anchor="start" x="8" y="-54" font-family="Helvetica,sans-Serif" font-size="10.00">services::DnsResolver</text>
<text text-anchor="middle" x="62.5" y="-43" font-family="Helvetica,sans-Serif" font-size="10.00">::HostnameParts::Empty</text>
</g>
<!-- Node14 -->
<g id="node2" class="node"><title>Node14</title>
<g id="a_node2"><a xlink:href="../../d5/d9a/classservices_1_1_dns_resolver_1_1_reply_parser.html#a1934eecbc0cf508af672a675098b280d" target="_top" xlink:title="services::DnsResolver\l::ReplyParser::ReadAndMatch\lHostnamePart">
<polygon fill="white" stroke="black" points="161,-60.5 161,-101.5 310,-101.5 310,-60.5 161,-60.5"/>
<text text-anchor="start" x="169" y="-89.5" font-family="Helvetica,sans-Serif" font-size="10.00">services::DnsResolver</text>
<text text-anchor="start" x="169" y="-78.5" font-family="Helvetica,sans-Serif" font-size="10.00">::ReplyParser::ReadAndMatch</text>
<text text-anchor="middle" x="235.5" y="-67.5" font-family="Helvetica,sans-Serif" font-size="10.00">HostnamePart</text>
</a>
</g>
</g>
<!-- Node13&#45;&gt;Node14 -->
<g id="edge1" class="edge"><title>Node13&#45;&gt;Node14</title>
<path fill="none" stroke="midnightblue" d="M135.131,-63.5668C143.652,-65.0618 152.362,-66.5899 160.911,-68.0896"/>
<polygon fill="midnightblue" stroke="midnightblue" points="135.689,-60.1114 125.235,-61.8307 134.48,-67.0061 135.689,-60.1114"/>
</g>
<!-- Node15 -->
<g id="node3" class="node"><title>Node15</title>
<g id="a_node3"><a xlink:href="../../d5/d9a/classservices_1_1_dns_resolver_1_1_reply_parser.html#a024b65ab82f603cbe52834d663412524" target="_top" xlink:title="services::DnsResolver\l::ReplyParser::ReadAndMatch\lHostnameWithoutReference">
<polygon fill="white" stroke="black" points="161,-0.5 161,-41.5 310,-41.5 310,-0.5 161,-0.5"/>
<text text-anchor="start" x="169" y="-29.5" font-family="Helvetica,sans-Serif" font-size="10.00">services::DnsResolver</text>
<text text-anchor="start" x="169" y="-18.5" font-family="Helvetica,sans-Serif" font-size="10.00">::ReplyParser::ReadAndMatch</text>
<text text-anchor="middle" x="235.5" y="-7.5" font-family="Helvetica,sans-Serif" font-size="10.00">HostnameWithoutReference</text>
</a>
</g>
</g>
<!-- Node13&#45;&gt;Node15 -->
<g id="edge2" class="edge"><title>Node13&#45;&gt;Node15</title>
<path fill="none" stroke="midnightblue" d="M135.131,-38.4332C143.652,-36.9382 152.362,-35.4101 160.911,-33.9104"/>
<polygon fill="midnightblue" stroke="midnightblue" points="134.48,-34.9939 125.235,-40.1693 135.689,-41.8886 134.48,-34.9939"/>
</g>
</g>
</svg>
