<?xml version="1.0" encoding="UTF-8" standalone="no"?>
<!DOCTYPE svg PUBLIC "-//W3C//DTD SVG 1.1//EN"
 "http://www.w3.org/Graphics/SVG/1.1/DTD/svg11.dtd">
<!-- Generated by graphviz version 2.38.0 (20140413.2041)
 -->
<!-- Title: services::SynchronousFlashSpi::EraseSectors Pages: 1 -->
<svg width="1113pt" height="284pt"
 viewBox="0.00 0.00 1113.00 284.00" xmlns="http://www.w3.org/2000/svg" xmlns:xlink="http://www.w3.org/1999/xlink">
<g id="graph0" class="graph" transform="scale(1 1) rotate(0) translate(4 280)">
<title>services::SynchronousFlashSpi::EraseSectors</title>
<polygon fill="white" stroke="none" points="-4,4 -4,-280 1109,-280 1109,4 -4,4"/>
<!-- Node11 -->
<g id="node1" class="node"><title>Node11</title>
<polygon fill="#bfbfbf" stroke="black" points="0,-49.5 0,-79.5 139,-79.5 139,-49.5 0,-49.5"/>
<text text-anchor="start" x="8" y="-67.5" font-family="Helvetica,sans-Serif" font-size="10.00">services::SynchronousFlash</text>
<text text-anchor="middle" x="69.5" y="-56.5" font-family="Helvetica,sans-Serif" font-size="10.00">Spi::EraseSectors</text>
</g>
<!-- Node12 -->
<g id="node2" class="node"><title>Node12</title>
<g id="a_node2"><a xlink:href="../../dd/d11/classservices_1_1_synchronous_flash_spi.html#a839c8db6b02afe47fb8c6745fde89ab7" target="_top" xlink:title="services::SynchronousFlash\lSpi::EraseSomeSectors">
<polygon fill="white" stroke="black" points="181,-147.5 181,-177.5 320,-177.5 320,-147.5 181,-147.5"/>
<text text-anchor="start" x="189" y="-165.5" font-family="Helvetica,sans-Serif" font-size="10.00">services::SynchronousFlash</text>
<text text-anchor="middle" x="250.5" y="-154.5" font-family="Helvetica,sans-Serif" font-size="10.00">Spi::EraseSomeSectors</text>
</a>
</g>
</g>
<!-- Node11&#45;&gt;Node12 -->
<g id="edge1" class="edge"><title>Node11&#45;&gt;Node12</title>
<path fill="none" stroke="midnightblue" d="M98.0765,-79.5977C128.823,-96.4311 178.694,-123.735 212.739,-142.374"/>
<polygon fill="midnightblue" stroke="midnightblue" points="211.44,-145.653 221.892,-147.385 214.802,-139.513 211.44,-145.653"/>
</g>
<!-- Node26 -->
<g id="node16" class="node"><title>Node26</title>
<g id="a_node16"><a xlink:href="../../dd/d11/classservices_1_1_synchronous_flash_spi.html#a911aa2c148a6f543628e934953f49466" target="_top" xlink:title="services::SynchronousFlash\lSpi::HoldWhileWriteInProgress">
<polygon fill="white" stroke="black" points="175,-3.5 175,-33.5 326,-33.5 326,-3.5 175,-3.5"/>
<text text-anchor="start" x="183" y="-21.5" font-family="Helvetica,sans-Serif" font-size="10.00">services::SynchronousFlash</text>
<text text-anchor="middle" x="250.5" y="-10.5" font-family="Helvetica,sans-Serif" font-size="10.00">Spi::HoldWhileWriteInProgress</text>
</a>
</g>
</g>
<!-- Node11&#45;&gt;Node26 -->
<g id="edge21" class="edge"><title>Node11&#45;&gt;Node26</title>
<path fill="none" stroke="midnightblue" d="M129.111,-49.4379C145.732,-45.1667 163.972,-40.4793 181.116,-36.0735"/>
<polygon fill="midnightblue" stroke="midnightblue" points="182.249,-39.3963 191.063,-33.5174 180.506,-32.6165 182.249,-39.3963"/>
</g>
<!-- Node29 -->
<g id="node19" class="node"><title>Node29</title>
<g id="a_node19"><a xlink:href="../../dd/d11/classservices_1_1_synchronous_flash_spi.html#a82154f35b1a25be71221a813f08c797c" target="_top" xlink:title="services::SynchronousFlash\lSpi::WriteEnable">
<polygon fill="white" stroke="black" points="382,-49.5 382,-79.5 521,-79.5 521,-49.5 382,-49.5"/>
<text text-anchor="start" x="390" y="-67.5" font-family="Helvetica,sans-Serif" font-size="10.00">services::SynchronousFlash</text>
<text text-anchor="middle" x="451.5" y="-56.5" font-family="Helvetica,sans-Serif" font-size="10.00">Spi::WriteEnable</text>
</a>
</g>
</g>
<!-- Node11&#45;&gt;Node29 -->
<g id="edge27" class="edge"><title>Node11&#45;&gt;Node29</title>
<path fill="none" stroke="midnightblue" d="M139.315,-64.5C204.719,-64.5 303.005,-64.5 371.562,-64.5"/>
<polygon fill="midnightblue" stroke="midnightblue" points="371.877,-68.0001 381.877,-64.5 371.877,-61.0001 371.877,-68.0001"/>
</g>
<!-- Node13 -->
<g id="node3" class="node"><title>Node13</title>
<g id="a_node3"><a xlink:href="../../de/d9c/classhal_1_1_synchronous_flash_homogeneous.html#a30e980da0c9863d92f5bf58e1f0f2849" target="_top" xlink:title="hal::SynchronousFlashHomogeneous\l::NumberOfSectors">
<polygon fill="white" stroke="black" points="362,-98.5 362,-128.5 541,-128.5 541,-98.5 362,-98.5"/>
<text text-anchor="start" x="370" y="-116.5" font-family="Helvetica,sans-Serif" font-size="10.00">hal::SynchronousFlashHomogeneous</text>
<text text-anchor="middle" x="451.5" y="-105.5" font-family="Helvetica,sans-Serif" font-size="10.00">::NumberOfSectors</text>
</a>
</g>
</g>
<!-- Node12&#45;&gt;Node13 -->
<g id="edge2" class="edge"><title>Node12&#45;&gt;Node13</title>
<path fill="none" stroke="midnightblue" d="M312.559,-147.465C333.762,-142.245 357.716,-136.346 379.642,-130.947"/>
<polygon fill="midnightblue" stroke="midnightblue" points="380.683,-134.296 389.557,-128.506 379.01,-127.499 380.683,-134.296"/>
</g>
<!-- Node14 -->
<g id="node4" class="node"><title>Node14</title>
<g id="a_node4"><a xlink:href="../../dd/d11/classservices_1_1_synchronous_flash_spi.html#afbf0215232b0c02459c375e86995a7e9" target="_top" xlink:title="services::SynchronousFlash\lSpi::SendEraseBulk">
<polygon fill="white" stroke="black" points="382,-147.5 382,-177.5 521,-177.5 521,-147.5 382,-147.5"/>
<text text-anchor="start" x="390" y="-165.5" font-family="Helvetica,sans-Serif" font-size="10.00">services::SynchronousFlash</text>
<text text-anchor="middle" x="451.5" y="-154.5" font-family="Helvetica,sans-Serif" font-size="10.00">Spi::SendEraseBulk</text>
</a>
</g>
</g>
<!-- Node12&#45;&gt;Node14 -->
<g id="edge3" class="edge"><title>Node12&#45;&gt;Node14</title>
<path fill="none" stroke="midnightblue" d="M320.263,-162.5C336.73,-162.5 354.443,-162.5 371.338,-162.5"/>
<polygon fill="midnightblue" stroke="midnightblue" points="371.734,-166 381.734,-162.5 371.734,-159 371.734,-166"/>
</g>
<!-- Node22 -->
<g id="node12" class="node"><title>Node22</title>
<g id="a_node12"><a xlink:href="../../dd/d11/classservices_1_1_synchronous_flash_spi.html#abac18ce91a4d374f2fbfe18daf6e2bc6" target="_top" xlink:title="services::SynchronousFlash\lSpi::SendEraseSector">
<polygon fill="white" stroke="black" points="382,-245.5 382,-275.5 521,-275.5 521,-245.5 382,-245.5"/>
<text text-anchor="start" x="390" y="-263.5" font-family="Helvetica,sans-Serif" font-size="10.00">services::SynchronousFlash</text>
<text text-anchor="middle" x="451.5" y="-252.5" font-family="Helvetica,sans-Serif" font-size="10.00">Spi::SendEraseSector</text>
</a>
</g>
</g>
<!-- Node12&#45;&gt;Node22 -->
<g id="edge11" class="edge"><title>Node12&#45;&gt;Node22</title>
<path fill="none" stroke="midnightblue" d="M269.937,-177.616C291.014,-194.213 327.122,-220.611 362,-236.5 366.387,-238.498 370.974,-240.36 375.653,-242.089"/>
<polygon fill="midnightblue" stroke="midnightblue" points="374.756,-245.482 385.351,-245.453 377.051,-238.869 374.756,-245.482"/>
</g>
<!-- Node25 -->
<g id="node15" class="node"><title>Node25</title>
<g id="a_node15"><a xlink:href="../../dd/d11/classservices_1_1_synchronous_flash_spi.html#aefd2455cea1f166037d34796641986c5" target="_top" xlink:title="services::SynchronousFlash\lSpi::SendEraseSubSector">
<polygon fill="white" stroke="black" points="382,-196.5 382,-226.5 521,-226.5 521,-196.5 382,-196.5"/>
<text text-anchor="start" x="390" y="-214.5" font-family="Helvetica,sans-Serif" font-size="10.00">services::SynchronousFlash</text>
<text text-anchor="middle" x="451.5" y="-203.5" font-family="Helvetica,sans-Serif" font-size="10.00">Spi::SendEraseSubSector</text>
</a>
</g>
</g>
<!-- Node12&#45;&gt;Node25 -->
<g id="edge16" class="edge"><title>Node12&#45;&gt;Node25</title>
<path fill="none" stroke="midnightblue" d="M312.559,-177.535C333.762,-182.755 357.716,-188.654 379.642,-194.053"/>
<polygon fill="midnightblue" stroke="midnightblue" points="379.01,-197.501 389.557,-196.494 380.683,-190.704 379.01,-197.501"/>
</g>
<!-- Node15 -->
<g id="node5" class="node"><title>Node15</title>
<g id="a_node5"><a xlink:href="../../d9/dad/classhal_1_1_synchronous_spi.html#ae01d83039d23d9544bd55eab8c8303bb" target="_top" xlink:title="hal::SynchronousSpi\l::SendData">
<polygon fill="white" stroke="black" points="613,-81.5 613,-111.5 720,-111.5 720,-81.5 613,-81.5"/>
<text text-anchor="start" x="621" y="-99.5" font-family="Helvetica,sans-Serif" font-size="10.00">hal::SynchronousSpi</text>
<text text-anchor="middle" x="666.5" y="-88.5" font-family="Helvetica,sans-Serif" font-size="10.00">::SendData</text>
</a>
</g>
</g>
<!-- Node14&#45;&gt;Node15 -->
<g id="edge4" class="edge"><title>Node14&#45;&gt;Node15</title>
<path fill="none" stroke="midnightblue" d="M507.37,-147.395C518.525,-144.213 530.16,-140.814 541,-137.5 564.212,-130.403 589.695,-122.102 611.526,-114.833"/>
<polygon fill="midnightblue" stroke="midnightblue" points="612.904,-118.063 621.279,-111.574 610.685,-111.424 612.904,-118.063"/>
</g>
<!-- Node17 -->
<g id="node7" class="node"><title>Node17</title>
<g id="a_node7"><a xlink:href="../../d0/de3/namespaceinfra.html#ae4478bf95f90ceb679642cb4180f205f" target="_top" xlink:title="infra::MakeByteRange">
<polygon fill="white" stroke="black" points="610,-153 610,-172 723,-172 723,-153 610,-153"/>
<text text-anchor="middle" x="666.5" y="-160" font-family="Helvetica,sans-Serif" font-size="10.00">infra::MakeByteRange</text>
</a>
</g>
</g>
<!-- Node14&#45;&gt;Node17 -->
<g id="edge6" class="edge"><title>Node14&#45;&gt;Node17</title>
<path fill="none" stroke="midnightblue" d="M521.067,-162.5C546.293,-162.5 574.784,-162.5 599.755,-162.5"/>
<polygon fill="midnightblue" stroke="midnightblue" points="599.858,-166 609.858,-162.5 599.858,-159 599.858,-166"/>
</g>
<!-- Node16 -->
<g id="node6" class="node"><title>Node16</title>
<g id="a_node6"><a xlink:href="../../d9/dad/classhal_1_1_synchronous_spi.html#a2212bc9655e63f99a392d28f36016750" target="_top" xlink:title="hal::SynchronousSpi\l::SendAndReceive">
<polygon fill="white" stroke="black" points="802.5,-59.5 802.5,-89.5 909.5,-89.5 909.5,-59.5 802.5,-59.5"/>
<text text-anchor="start" x="810.5" y="-77.5" font-family="Helvetica,sans-Serif" font-size="10.00">hal::SynchronousSpi</text>
<text text-anchor="middle" x="856" y="-66.5" font-family="Helvetica,sans-Serif" font-size="10.00">::SendAndReceive</text>
</a>
</g>
</g>
<!-- Node15&#45;&gt;Node16 -->
<g id="edge5" class="edge"><title>Node15&#45;&gt;Node16</title>
<path fill="none" stroke="midnightblue" d="M720.228,-90.3132C742.59,-87.6894 768.83,-84.6106 792.186,-81.8702"/>
<polygon fill="midnightblue" stroke="midnightblue" points="792.819,-85.32 802.343,-80.6784 792.003,-78.3677 792.819,-85.32"/>
</g>
<!-- Node18 -->
<g id="node8" class="node"><title>Node18</title>
<g id="a_node8"><a xlink:href="../../d0/de3/namespaceinfra.html#afe38b7d4318537de2f28b244211c4275" target="_top" xlink:title="infra::MakeRange">
<polygon fill="white" stroke="black" points="810,-130 810,-149 902,-149 902,-130 810,-130"/>
<text text-anchor="middle" x="856" y="-137" font-family="Helvetica,sans-Serif" font-size="10.00">infra::MakeRange</text>
</a>
</g>
</g>
<!-- Node17&#45;&gt;Node18 -->
<g id="edge7" class="edge"><title>Node17&#45;&gt;Node18</title>
<path fill="none" stroke="midnightblue" d="M723.249,-155.662C747.429,-152.695 775.67,-149.231 799.79,-146.272"/>
<polygon fill="midnightblue" stroke="midnightblue" points="800.351,-149.73 809.85,-145.038 799.499,-142.782 800.351,-149.73"/>
</g>
<!-- Node21 -->
<g id="node11" class="node"><title>Node21</title>
<g id="a_node11"><a xlink:href="../../d0/de3/namespaceinfra.html#a74203fdf2e029d2667c7e4925092cc9a" target="_top" xlink:title="infra::ReinterpretCastByte\lRange">
<polygon fill="white" stroke="black" points="792,-168.5 792,-198.5 920,-198.5 920,-168.5 792,-168.5"/>
<text text-anchor="start" x="800" y="-186.5" font-family="Helvetica,sans-Serif" font-size="10.00">infra::ReinterpretCastByte</text>
<text text-anchor="middle" x="856" y="-175.5" font-family="Helvetica,sans-Serif" font-size="10.00">Range</text>
</a>
</g>
</g>
<!-- Node17&#45;&gt;Node21 -->
<g id="edge10" class="edge"><title>Node17&#45;&gt;Node21</title>
<path fill="none" stroke="midnightblue" d="M723.249,-168.744C741.634,-170.803 762.366,-173.125 781.849,-175.307"/>
<polygon fill="midnightblue" stroke="midnightblue" points="781.577,-178.798 791.905,-176.433 782.357,-171.842 781.577,-178.798"/>
</g>
<!-- Node19 -->
<g id="node9" class="node"><title>Node19</title>
<g id="a_node9"><a xlink:href="../../d1/d2a/classinfra_1_1_bounded_string_base.html#aef23e4250cad2fdc69ccc39f68734233" target="_top" xlink:title="infra::BoundedStringBase\l::begin">
<polygon fill="white" stroke="black" points="967,-146.5 967,-176.5 1094,-176.5 1094,-146.5 967,-146.5"/>
<text text-anchor="start" x="975" y="-164.5" font-family="Helvetica,sans-Serif" font-size="10.00">infra::BoundedStringBase</text>
<text text-anchor="middle" x="1030.5" y="-153.5" font-family="Helvetica,sans-Serif" font-size="10.00">::begin</text>
</a>
</g>
</g>
<!-- Node18&#45;&gt;Node19 -->
<g id="edge8" class="edge"><title>Node18&#45;&gt;Node19</title>
<path fill="none" stroke="midnightblue" d="M902.322,-145.28C918.999,-147.407 938.333,-149.873 956.814,-152.23"/>
<polygon fill="midnightblue" stroke="midnightblue" points="956.61,-155.732 966.972,-153.525 957.495,-148.788 956.61,-155.732"/>
</g>
<!-- Node20 -->
<g id="node10" class="node"><title>Node20</title>
<g id="a_node10"><a xlink:href="../../d1/d2a/classinfra_1_1_bounded_string_base.html#af5021f1ea3898146d0a55c2895f07dbf" target="_top" xlink:title="infra::BoundedStringBase::end">
<polygon fill="white" stroke="black" points="956,-108 956,-127 1105,-127 1105,-108 956,-108"/>
<text text-anchor="middle" x="1030.5" y="-115" font-family="Helvetica,sans-Serif" font-size="10.00">infra::BoundedStringBase::end</text>
</a>
</g>
</g>
<!-- Node18&#45;&gt;Node20 -->
<g id="edge9" class="edge"><title>Node18&#45;&gt;Node20</title>
<path fill="none" stroke="midnightblue" d="M902.322,-133.72C915.624,-132.023 930.615,-130.111 945.517,-128.211"/>
<polygon fill="midnightblue" stroke="midnightblue" points="946.32,-131.637 955.797,-126.9 945.435,-124.693 946.32,-131.637"/>
</g>
<!-- Node22&#45;&gt;Node15 -->
<g id="edge14" class="edge"><title>Node22&#45;&gt;Node15</title>
<path fill="none" stroke="midnightblue" d="M521.145,-249.04C528.384,-245.821 535.204,-241.72 541,-236.5 573.935,-206.839 547.576,-176.647 577,-143.5 587.04,-132.189 600.468,-123.14 613.824,-116.121"/>
<polygon fill="midnightblue" stroke="midnightblue" points="615.599,-119.148 623.017,-111.584 612.5,-112.871 615.599,-119.148"/>
</g>
<!-- Node22&#45;&gt;Node17 -->
<g id="edge15" class="edge"><title>Node22&#45;&gt;Node17</title>
<path fill="none" stroke="midnightblue" d="M521.302,-246.964C528.266,-244.116 534.98,-240.67 541,-236.5 563.51,-220.908 554.49,-202.092 577,-186.5 583.96,-181.679 591.849,-177.825 599.979,-174.744"/>
<polygon fill="midnightblue" stroke="midnightblue" points="601.254,-178.008 609.593,-171.472 598.999,-171.381 601.254,-178.008"/>
</g>
<!-- Node23 -->
<g id="node13" class="node"><title>Node23</title>
<g id="a_node13"><a xlink:href="../../dd/d11/classservices_1_1_synchronous_flash_spi.html#a5b06c4000681af2ce3e572e05da688cf" target="_top" xlink:title="services::SynchronousFlash\lSpi::ConvertAddress">
<polygon fill="white" stroke="black" points="597,-245.5 597,-275.5 736,-275.5 736,-245.5 597,-245.5"/>
<text text-anchor="start" x="605" y="-263.5" font-family="Helvetica,sans-Serif" font-size="10.00">services::SynchronousFlash</text>
<text text-anchor="middle" x="666.5" y="-252.5" font-family="Helvetica,sans-Serif" font-size="10.00">Spi::ConvertAddress</text>
</a>
</g>
</g>
<!-- Node22&#45;&gt;Node23 -->
<g id="edge12" class="edge"><title>Node22&#45;&gt;Node23</title>
<path fill="none" stroke="midnightblue" d="M521.067,-260.5C541.96,-260.5 565.092,-260.5 586.61,-260.5"/>
<polygon fill="midnightblue" stroke="midnightblue" points="586.697,-264 596.697,-260.5 586.697,-257 586.697,-264"/>
</g>
<!-- Node24 -->
<g id="node14" class="node"><title>Node24</title>
<g id="a_node14"><a xlink:href="../../de/d9c/classhal_1_1_synchronous_flash_homogeneous.html#a7285b36ce4c26da1588344190d1cbaa6" target="_top" xlink:title="hal::SynchronousFlashHomogeneous\l::AddressOfSector">
<polygon fill="white" stroke="black" points="577,-196.5 577,-226.5 756,-226.5 756,-196.5 577,-196.5"/>
<text text-anchor="start" x="585" y="-214.5" font-family="Helvetica,sans-Serif" font-size="10.00">hal::SynchronousFlashHomogeneous</text>
<text text-anchor="middle" x="666.5" y="-203.5" font-family="Helvetica,sans-Serif" font-size="10.00">::AddressOfSector</text>
</a>
</g>
</g>
<!-- Node22&#45;&gt;Node24 -->
<g id="edge13" class="edge"><title>Node22&#45;&gt;Node24</title>
<path fill="none" stroke="midnightblue" d="M517.855,-245.465C540.753,-240.198 566.651,-234.24 590.291,-228.802"/>
<polygon fill="midnightblue" stroke="midnightblue" points="591.308,-232.159 600.269,-226.506 589.739,-225.337 591.308,-232.159"/>
</g>
<!-- Node25&#45;&gt;Node15 -->
<g id="edge19" class="edge"><title>Node25&#45;&gt;Node15</title>
<path fill="none" stroke="midnightblue" d="M521.009,-196.689C528.028,-193.855 534.835,-190.491 541,-186.5 561.923,-172.955 557.635,-159.191 577,-143.5 589.973,-132.988 605.658,-123.752 620.197,-116.313"/>
<polygon fill="midnightblue" stroke="midnightblue" points="622.135,-119.259 629.547,-111.688 619.032,-112.985 622.135,-119.259"/>
</g>
<!-- Node25&#45;&gt;Node17 -->
<g id="edge20" class="edge"><title>Node25&#45;&gt;Node17</title>
<path fill="none" stroke="midnightblue" d="M517.855,-196.465C548.812,-189.344 585.252,-180.961 614.183,-174.305"/>
<polygon fill="midnightblue" stroke="midnightblue" points="615.122,-177.681 624.083,-172.028 613.552,-170.859 615.122,-177.681"/>
</g>
<!-- Node25&#45;&gt;Node23 -->
<g id="edge17" class="edge"><title>Node25&#45;&gt;Node23</title>
<path fill="none" stroke="midnightblue" d="M517.855,-226.535C540.753,-231.802 566.651,-237.76 590.291,-243.198"/>
<polygon fill="midnightblue" stroke="midnightblue" points="589.739,-246.663 600.269,-245.494 591.308,-239.841 589.739,-246.663"/>
</g>
<!-- Node25&#45;&gt;Node24 -->
<g id="edge18" class="edge"><title>Node25&#45;&gt;Node24</title>
<path fill="none" stroke="midnightblue" d="M521.067,-211.5C535.632,-211.5 551.286,-211.5 566.723,-211.5"/>
<polygon fill="midnightblue" stroke="midnightblue" points="566.822,-215 576.822,-211.5 566.822,-208 566.822,-215"/>
</g>
<!-- Node27 -->
<g id="node17" class="node"><title>Node27</title>
<g id="a_node17"><a xlink:href="../../dd/d11/classservices_1_1_synchronous_flash_spi.html#a2745bcafe68f1a06f501b92b3592e564" target="_top" xlink:title="services::SynchronousFlash\lSpi::ReadStatusRegister">
<polygon fill="white" stroke="black" points="382,-0.5 382,-30.5 521,-30.5 521,-0.5 382,-0.5"/>
<text text-anchor="start" x="390" y="-18.5" font-family="Helvetica,sans-Serif" font-size="10.00">services::SynchronousFlash</text>
<text text-anchor="middle" x="451.5" y="-7.5" font-family="Helvetica,sans-Serif" font-size="10.00">Spi::ReadStatusRegister</text>
</a>
</g>
</g>
<!-- Node26&#45;&gt;Node27 -->
<g id="edge22" class="edge"><title>Node26&#45;&gt;Node27</title>
<path fill="none" stroke="midnightblue" d="M326.166,-17.3744C341.041,-17.1501 356.707,-16.914 371.716,-16.6877"/>
<polygon fill="midnightblue" stroke="midnightblue" points="372.037,-20.1834 381.983,-16.5329 371.931,-13.1842 372.037,-20.1834"/>
</g>
<!-- Node27&#45;&gt;Node15 -->
<g id="edge23" class="edge"><title>Node27&#45;&gt;Node15</title>
<path fill="none" stroke="midnightblue" d="M513.373,-30.5874C522.706,-33.308 532.168,-36.3051 541,-39.5 545.278,-41.0476 588.971,-61.1321 623.403,-77.0273"/>
<polygon fill="midnightblue" stroke="midnightblue" points="622.282,-80.365 632.828,-81.3806 625.217,-74.0101 622.282,-80.365"/>
</g>
<!-- Node27&#45;&gt;Node17 -->
<g id="edge24" class="edge"><title>Node27&#45;&gt;Node17</title>
<path fill="none" stroke="midnightblue" d="M521.343,-27.4356C528.461,-30.5746 535.199,-34.5267 541,-39.5 570.909,-65.1403 549.492,-92.2989 577,-120.5 589.391,-133.203 606.384,-142.529 622.168,-149.119"/>
<polygon fill="midnightblue" stroke="midnightblue" points="621.2,-152.498 631.789,-152.875 623.746,-145.978 621.2,-152.498"/>
</g>
<!-- Node28 -->
<g id="node18" class="node"><title>Node28</title>
<g id="a_node18"><a xlink:href="../../d9/dad/classhal_1_1_synchronous_spi.html#aaf616027bcd6a4f8e5abe143f4ed2180" target="_top" xlink:title="hal::SynchronousSpi\l::ReceiveData">
<polygon fill="white" stroke="black" points="613,-16.5 613,-46.5 720,-46.5 720,-16.5 613,-16.5"/>
<text text-anchor="start" x="621" y="-34.5" font-family="Helvetica,sans-Serif" font-size="10.00">hal::SynchronousSpi</text>
<text text-anchor="middle" x="666.5" y="-23.5" font-family="Helvetica,sans-Serif" font-size="10.00">::ReceiveData</text>
</a>
</g>
</g>
<!-- Node27&#45;&gt;Node28 -->
<g id="edge25" class="edge"><title>Node27&#45;&gt;Node28</title>
<path fill="none" stroke="midnightblue" d="M521.067,-20.6506C547.371,-22.6265 577.226,-24.8691 602.938,-26.8005"/>
<polygon fill="midnightblue" stroke="midnightblue" points="602.706,-30.2929 612.94,-27.5518 603.23,-23.3125 602.706,-30.2929"/>
</g>
<!-- Node28&#45;&gt;Node16 -->
<g id="edge26" class="edge"><title>Node28&#45;&gt;Node16</title>
<path fill="none" stroke="midnightblue" d="M720.228,-43.5923C742.69,-48.7436 769.066,-54.7924 792.5,-60.1667"/>
<polygon fill="midnightblue" stroke="midnightblue" points="791.814,-63.6001 802.343,-62.424 793.378,-56.7772 791.814,-63.6001"/>
</g>
<!-- Node29&#45;&gt;Node15 -->
<g id="edge28" class="edge"><title>Node29&#45;&gt;Node15</title>
<path fill="none" stroke="midnightblue" d="M521.067,-74.8011C547.371,-78.7529 577.226,-83.2382 602.938,-87.101"/>
<polygon fill="midnightblue" stroke="midnightblue" points="602.531,-90.5791 612.94,-88.6037 603.571,-83.6568 602.531,-90.5791"/>
</g>
<!-- Node29&#45;&gt;Node17 -->
<g id="edge29" class="edge"><title>Node29&#45;&gt;Node17</title>
<path fill="none" stroke="midnightblue" d="M520.915,-79.5912C527.878,-82.1412 534.699,-85.0924 541,-88.5 559.83,-98.6829 559.151,-108.681 577,-120.5 593.832,-131.646 614.083,-141.485 630.962,-148.834"/>
<polygon fill="midnightblue" stroke="midnightblue" points="629.887,-152.179 640.46,-152.864 632.621,-145.736 629.887,-152.179"/>
</g>
</g>
</svg>
