<?xml version="1.0" encoding="UTF-8" standalone="no"?>
<!DOCTYPE svg PUBLIC "-//W3C//DTD SVG 1.1//EN"
 "http://www.w3.org/Graphics/SVG/1.1/DTD/svg11.dtd">
<!-- Generated by graphviz version 2.38.0 (20140413.2041)
 -->
<!-- Title: services::ConnectionWin::TrySend Pages: 1 -->
<!--zoomable 546 -->
<svg id="main" version="1.1" xmlns="http://www.w3.org/2000/svg" xmlns:xlink="http://www.w3.org/1999/xlink" xml:space="preserve" onload="init(evt)">
<style type="text/css"><![CDATA[
.edge:hover path { stroke: red; }
.edge:hover polygon { stroke: red; fill: red; }
]]></style>
<script type="text/javascript"><![CDATA[
var edges = document.getElementsByTagName('g');
if (edges && edges.length) {
  for (var i=0;i<edges.length;i++) {
    if (edges[i].id.substr(0,4)=='edge') {
      edges[i].setAttribute('class','edge');
    }
  }
}
]]></script>
        <defs>
                <circle id="rim" cx="0" cy="0" r="7"/>
                <circle id="rim2" cx="0" cy="0" r="3.5"/>
                <g id="zoomPlus">
                        <use xlink:href="#rim" fill="#404040">
                                <set attributeName="fill" to="#808080" begin="zoomplus.mouseover" end="zoomplus.mouseout"/>
                        </use>
                        <path d="M-4,0h8M0,-4v8" fill="none" stroke="white" stroke-width="1.5" pointer-events="none"/>
                </g>
                <g id="zoomMin">
                        <use xlink:href="#rim" fill="#404040">
                                <set attributeName="fill" to="#808080" begin="zoomminus.mouseover" end="zoomminus.mouseout"/>
                        </use>
                        <path d="M-4,0h8" fill="none" stroke="white" stroke-width="1.5" pointer-events="none"/>
                </g>
                <g id="dirArrow">
                        <path fill="none" stroke="white" stroke-width="1.5" d="M0,-3.0v7 M-2.5,-0.5L0,-3.0L2.5,-0.5"/>
                </g>
               <g id="resetDef">
                       <use xlink:href="#rim2" fill="#404040">
                               <set attributeName="fill" to="#808080" begin="reset.mouseover" end="reset.mouseout"/>
                       </use>
               </g>
        </defs>

<script type="text/javascript">
var viewWidth = 883;
var viewHeight = 546;
var sectionId = 'dynsection-16';
</script>
<script xlink:href="../../svgpan.js"/>
<svg id="graph" class="graph">
<g id="viewport">
<title>services::ConnectionWin::TrySend</title>
<polygon fill="white" stroke="none" points="-4,4 -4,-541.5 879,-541.5 879,4 -4,4"/>
<!-- Node95 -->
<g id="node1" class="node"><title>Node95</title>
<polygon fill="#bfbfbf" stroke="black" points="0,-353.5 0,-383.5 124,-383.5 124,-353.5 0,-353.5"/>
<text text-anchor="start" x="8" y="-371.5" font-family="Helvetica,sans-Serif" font-size="10.00">services::ConnectionWin</text>
<text text-anchor="middle" x="62" y="-360.5" font-family="Helvetica,sans-Serif" font-size="10.00">::TrySend</text>
</g>
<!-- Node96 -->
<g id="node2" class="node"><title>Node96</title>
<g id="a_node2"><a xlink:href="../../db/d8b/classservices_1_1_connection_win.html#aa7aa4096aa674d9d564d99c365e865f8" target="_top" xlink:title="services::ConnectionWin\l::Send">
<polygon fill="white" stroke="black" points="160,-353.5 160,-383.5 284,-383.5 284,-353.5 160,-353.5"/>
<text text-anchor="start" x="168" y="-371.5" font-family="Helvetica,sans-Serif" font-size="10.00">services::ConnectionWin</text>
<text text-anchor="middle" x="222" y="-360.5" font-family="Helvetica,sans-Serif" font-size="10.00">::Send</text>
</a>
</g>
</g>
<!-- Node95&#45;&gt;Node96 -->
<g id="edge1" class="edge"><title>Node95&#45;&gt;Node96</title>
<path fill="none" stroke="midnightblue" d="M124.087,-368.5C132.513,-368.5 141.226,-368.5 149.815,-368.5"/>
<polygon fill="midnightblue" stroke="midnightblue" points="149.815,-372 159.815,-368.5 149.815,-365 149.815,-372"/>
</g>
<!-- Node97 -->
<g id="node3" class="node"><title>Node97</title>
<g id="a_node3"><a xlink:href="../../d2/dc5/namespaceinfra_1_1detail.html#ad178b71c4a19a9b0bfe48a065920cf8c" target="_top" xlink:title="infra::detail::begin">
<polygon fill="white" stroke="black" points="336,-518 336,-537 429,-537 429,-518 336,-518"/>
<text text-anchor="middle" x="382.5" y="-525" font-family="Helvetica,sans-Serif" font-size="10.00">infra::detail::begin</text>
</a>
</g>
</g>
<!-- Node96&#45;&gt;Node97 -->
<g id="edge2" class="edge"><title>Node96&#45;&gt;Node97</title>
<path fill="none" stroke="midnightblue" d="M229.368,-383.635C242.209,-412.328 273.963,-474.774 320,-508.5 322.659,-510.448 325.522,-512.2 328.507,-513.774"/>
<polygon fill="midnightblue" stroke="midnightblue" points="327.192,-517.021 337.743,-517.985 330.096,-510.652 327.192,-517.021"/>
</g>
<!-- Node98 -->
<g id="node4" class="node"><title>Node98</title>
<g id="a_node4"><a xlink:href="../../d5/db7/classinfra_1_1_bounded_deque.html#a11e8b6093e259d16920cdcd2b83999c4" target="_top" xlink:title="infra::BoundedDeque\l::begin">
<polygon fill="white" stroke="black" points="329,-468.5 329,-498.5 436,-498.5 436,-468.5 329,-468.5"/>
<text text-anchor="start" x="337" y="-486.5" font-family="Helvetica,sans-Serif" font-size="10.00">infra::BoundedDeque</text>
<text text-anchor="middle" x="382.5" y="-475.5" font-family="Helvetica,sans-Serif" font-size="10.00">::begin</text>
</a>
</g>
</g>
<!-- Node96&#45;&gt;Node98 -->
<g id="edge3" class="edge"><title>Node96&#45;&gt;Node98</title>
<path fill="none" stroke="midnightblue" d="M235.723,-383.59C253.044,-403.332 285.823,-437.94 320,-459.5 322.454,-461.048 325.023,-462.524 327.662,-463.928"/>
<polygon fill="midnightblue" stroke="midnightblue" points="326.312,-467.164 336.832,-468.421 329.392,-460.878 326.312,-467.164"/>
</g>
<!-- Node99 -->
<g id="node5" class="node"><title>Node99</title>
<g id="a_node5"><a xlink:href="../../d5/db7/classinfra_1_1_bounded_deque.html#ae7bdbe1764e9168b674e51e2c1ea973c" target="_top" xlink:title="infra::BoundedDeque\l::contiguous_range">
<polygon fill="white" stroke="black" points="329,-419.5 329,-449.5 436,-449.5 436,-419.5 329,-419.5"/>
<text text-anchor="start" x="337" y="-437.5" font-family="Helvetica,sans-Serif" font-size="10.00">infra::BoundedDeque</text>
<text text-anchor="middle" x="382.5" y="-426.5" font-family="Helvetica,sans-Serif" font-size="10.00">::contiguous_range</text>
</a>
</g>
</g>
<!-- Node96&#45;&gt;Node99 -->
<g id="edge4" class="edge"><title>Node96&#45;&gt;Node99</title>
<path fill="none" stroke="midnightblue" d="M259.363,-383.642C282.116,-393.116 311.619,-405.401 335.928,-415.524"/>
<polygon fill="midnightblue" stroke="midnightblue" points="334.729,-418.816 345.306,-419.429 337.42,-412.354 334.729,-418.816"/>
</g>
<!-- Node100 -->
<g id="node6" class="node"><title>Node100</title>
<g id="a_node6"><a xlink:href="../../d5/db7/classinfra_1_1_bounded_deque.html#aefd90e50dffa5df25589ca940842d2a8" target="_top" xlink:title="infra::BoundedDeque\l::empty">
<polygon fill="white" stroke="black" points="520.5,-352.5 520.5,-382.5 627.5,-382.5 627.5,-352.5 520.5,-352.5"/>
<text text-anchor="start" x="528.5" y="-370.5" font-family="Helvetica,sans-Serif" font-size="10.00">infra::BoundedDeque</text>
<text text-anchor="middle" x="574" y="-359.5" font-family="Helvetica,sans-Serif" font-size="10.00">::empty</text>
</a>
</g>
</g>
<!-- Node96&#45;&gt;Node100 -->
<g id="edge5" class="edge"><title>Node96&#45;&gt;Node100</title>
<path fill="none" stroke="midnightblue" d="M284.051,-370.676C295.971,-371.02 308.376,-371.32 320,-371.5 375.549,-372.359 389.451,-372.368 445,-371.5 466.204,-371.169 489.377,-370.529 510.108,-369.857"/>
<polygon fill="midnightblue" stroke="midnightblue" points="510.507,-373.345 520.385,-369.514 510.274,-366.349 510.507,-373.345"/>
</g>
<!-- Node101 -->
<g id="node7" class="node"><title>Node101</title>
<g id="a_node7"><a xlink:href="../../d5/db7/classinfra_1_1_bounded_deque.html#adb958e9757694e13abb837098e5c4f53" target="_top" xlink:title="infra::BoundedDeque\l::erase">
<polygon fill="white" stroke="black" points="329,-331.5 329,-361.5 436,-361.5 436,-331.5 329,-331.5"/>
<text text-anchor="start" x="337" y="-349.5" font-family="Helvetica,sans-Serif" font-size="10.00">infra::BoundedDeque</text>
<text text-anchor="middle" x="382.5" y="-338.5" font-family="Helvetica,sans-Serif" font-size="10.00">::erase</text>
</a>
</g>
</g>
<!-- Node96&#45;&gt;Node101 -->
<g id="edge6" class="edge"><title>Node96&#45;&gt;Node101</title>
<path fill="none" stroke="midnightblue" d="M284.28,-359.994C295.552,-358.43 307.335,-356.794 318.652,-355.223"/>
<polygon fill="midnightblue" stroke="midnightblue" points="319.462,-358.645 328.886,-353.803 318.5,-351.711 319.462,-358.645"/>
</g>
<!-- Node102 -->
<g id="node8" class="node"><title>Node102</title>
<g id="a_node8"><a xlink:href="../../d0/dde/classservices_1_1_connection.html#ae93c3fdf056fd6e66613fd384a365fde" target="_top" xlink:title="services::Connection\l::ResetOwnership">
<polygon fill="white" stroke="black" points="329,-282.5 329,-312.5 436,-312.5 436,-282.5 329,-282.5"/>
<text text-anchor="start" x="337" y="-300.5" font-family="Helvetica,sans-Serif" font-size="10.00">services::Connection</text>
<text text-anchor="middle" x="382.5" y="-289.5" font-family="Helvetica,sans-Serif" font-size="10.00">::ResetOwnership</text>
</a>
</g>
</g>
<!-- Node96&#45;&gt;Node102 -->
<g id="edge7" class="edge"><title>Node96&#45;&gt;Node102</title>
<path fill="none" stroke="midnightblue" d="M253.81,-353.341C272.775,-344.147 297.651,-332.332 320,-322.5 324.629,-320.464 329.477,-318.391 334.334,-316.354"/>
<polygon fill="midnightblue" stroke="midnightblue" points="335.732,-319.564 343.63,-312.501 333.052,-313.097 335.732,-319.564"/>
</g>
<!-- Node103 -->
<g id="node9" class="node"><title>Node103</title>
<g id="a_node9"><a xlink:href="../../db/d8b/classservices_1_1_connection_win.html#a472c673e00b1003c63354b7ce040e2e7" target="_top" xlink:title="services::ConnectionWin\l::TryAllocateSendStream">
<polygon fill="white" stroke="black" points="320,-131.5 320,-161.5 445,-161.5 445,-131.5 320,-131.5"/>
<text text-anchor="start" x="328" y="-149.5" font-family="Helvetica,sans-Serif" font-size="10.00">services::ConnectionWin</text>
<text text-anchor="middle" x="382.5" y="-138.5" font-family="Helvetica,sans-Serif" font-size="10.00">::TryAllocateSendStream</text>
</a>
</g>
</g>
<!-- Node96&#45;&gt;Node103 -->
<g id="edge8" class="edge"><title>Node96&#45;&gt;Node103</title>
<path fill="none" stroke="midnightblue" d="M232.827,-353.108C249.945,-326.482 286.603,-270.282 320,-224.5 333.72,-205.692 350.072,-185.03 362.465,-169.699"/>
<polygon fill="midnightblue" stroke="midnightblue" points="365.313,-171.744 368.901,-161.776 359.879,-167.331 365.313,-171.744"/>
</g>
<!-- Node110 -->
<g id="node16" class="node"><title>Node110</title>
<g id="a_node16"><a xlink:href="../../db/d8b/classservices_1_1_connection_win.html#a9ddd6d5cc9b447ff24886a2afc50ef0c" target="_top" xlink:title="services::ConnectionWin\l::UpdateEventFlags">
<polygon fill="white" stroke="black" points="320.5,-233.5 320.5,-263.5 444.5,-263.5 444.5,-233.5 320.5,-233.5"/>
<text text-anchor="start" x="328.5" y="-251.5" font-family="Helvetica,sans-Serif" font-size="10.00">services::ConnectionWin</text>
<text text-anchor="middle" x="382.5" y="-240.5" font-family="Helvetica,sans-Serif" font-size="10.00">::UpdateEventFlags</text>
</a>
</g>
</g>
<!-- Node96&#45;&gt;Node110 -->
<g id="edge15" class="edge"><title>Node96&#45;&gt;Node110</title>
<path fill="none" stroke="midnightblue" d="M235.044,-353.481C252.099,-333.037 285.114,-296.383 320,-273.5 322.932,-271.577 326.035,-269.758 329.228,-268.045"/>
<polygon fill="midnightblue" stroke="midnightblue" points="330.989,-271.079 338.396,-263.502 327.881,-264.807 330.989,-271.079"/>
</g>
<!-- Node104 -->
<g id="node10" class="node"><title>Node104</title>
<g id="a_node10"><a xlink:href="../../d3/d0e/classinfra_1_1_interface_connector.html#aed1d9e952d3d0dfa68e59ee4e868b380" target="_top" xlink:title="infra::InterfaceConnector\l\&lt; EventDispatcherWithWeakPtrWorker\l \&gt;::Instance">
<polygon fill="white" stroke="black" points="481,-99 481,-140 667,-140 667,-99 481,-99"/>
<text text-anchor="start" x="489" y="-128" font-family="Helvetica,sans-Serif" font-size="10.00">infra::InterfaceConnector</text>
<text text-anchor="start" x="489" y="-117" font-family="Helvetica,sans-Serif" font-size="10.00">&lt; EventDispatcherWithWeakPtrWorker</text>
<text text-anchor="middle" x="574" y="-106" font-family="Helvetica,sans-Serif" font-size="10.00"> &gt;::Instance</text>
</a>
</g>
</g>
<!-- Node103&#45;&gt;Node104 -->
<g id="edge9" class="edge"><title>Node103&#45;&gt;Node104</title>
<path fill="none" stroke="midnightblue" d="M445.025,-137.734C453.348,-136.548 462.063,-135.306 470.864,-134.052"/>
<polygon fill="midnightblue" stroke="midnightblue" points="471.413,-137.51 480.82,-132.634 470.426,-130.58 471.413,-137.51"/>
</g>
<!-- Node105 -->
<g id="node11" class="node"><title>Node105</title>
<g id="a_node11"><a xlink:href="../../d5/db7/classinfra_1_1_bounded_deque.html#a092bec48cdf6aeba4065e1c9c44f37cd" target="_top" xlink:title="infra::BoundedDeque\l::max_size">
<polygon fill="white" stroke="black" points="520.5,-49.5 520.5,-79.5 627.5,-79.5 627.5,-49.5 520.5,-49.5"/>
<text text-anchor="start" x="528.5" y="-67.5" font-family="Helvetica,sans-Serif" font-size="10.00">infra::BoundedDeque</text>
<text text-anchor="middle" x="574" y="-56.5" font-family="Helvetica,sans-Serif" font-size="10.00">::max_size</text>
</a>
</g>
</g>
<!-- Node103&#45;&gt;Node105 -->
<g id="edge10" class="edge"><title>Node103&#45;&gt;Node105</title>
<path fill="none" stroke="midnightblue" d="M405.473,-131.379C424.682,-118.726 453.697,-100.953 481,-89.5 490.272,-85.6105 500.325,-82.1592 510.265,-79.1571"/>
<polygon fill="midnightblue" stroke="midnightblue" points="511.499,-82.4437 520.134,-76.3051 509.556,-75.7188 511.499,-82.4437"/>
</g>
<!-- Node106 -->
<g id="node12" class="node"><title>Node106</title>
<g id="a_node12"><a xlink:href="../../de/d88/classinfra_1_1_event_dispatcher_with_weak_ptr_worker.html#a0444150202eeeeb51399634d6e24b13b" target="_top" xlink:title="infra::EventDispatcherWith\lWeakPtrWorker::Schedule">
<polygon fill="white" stroke="black" points="507.5,-0.5 507.5,-30.5 640.5,-30.5 640.5,-0.5 507.5,-0.5"/>
<text text-anchor="start" x="515.5" y="-18.5" font-family="Helvetica,sans-Serif" font-size="10.00">infra::EventDispatcherWith</text>
<text text-anchor="middle" x="574" y="-7.5" font-family="Helvetica,sans-Serif" font-size="10.00">WeakPtrWorker::Schedule</text>
</a>
</g>
</g>
<!-- Node103&#45;&gt;Node106 -->
<g id="edge11" class="edge"><title>Node103&#45;&gt;Node106</title>
<path fill="none" stroke="midnightblue" d="M393.16,-131.162C408.728,-107.741 441.636,-63.2837 481,-39.5 486.285,-36.3069 491.989,-33.5346 497.878,-31.1281"/>
<polygon fill="midnightblue" stroke="midnightblue" points="499.099,-34.4084 507.25,-27.64 496.658,-27.848 499.099,-34.4084"/>
</g>
<!-- Node108 -->
<g id="node14" class="node"><title>Node108</title>
<g id="a_node14"><a xlink:href="../../dd/df1/classinfra_1_1_enable_shared_from_this.html#af905d6b4aef4f252a28b1f4edebc99b3" target="_top" xlink:title="infra::EnableSharedFromThis\l\&lt; ConnectionWin \&gt;::SharedFromThis">
<polygon fill="white" stroke="black" points="485,-208.5 485,-238.5 663,-238.5 663,-208.5 485,-208.5"/>
<text text-anchor="start" x="493" y="-226.5" font-family="Helvetica,sans-Serif" font-size="10.00">infra::EnableSharedFromThis</text>
<text text-anchor="middle" x="574" y="-215.5" font-family="Helvetica,sans-Serif" font-size="10.00">&lt; ConnectionWin &gt;::SharedFromThis</text>
</a>
</g>
</g>
<!-- Node103&#45;&gt;Node108 -->
<g id="edge13" class="edge"><title>Node103&#45;&gt;Node108</title>
<path fill="none" stroke="midnightblue" d="M408.012,-161.566C427.298,-172.923 455.143,-188.243 481,-198.5 487.202,-200.96 493.732,-203.266 500.333,-205.404"/>
<polygon fill="midnightblue" stroke="midnightblue" points="499.437,-208.79 510.025,-208.416 501.515,-202.106 499.437,-208.79"/>
</g>
<!-- Node109 -->
<g id="node15" class="node"><title>Node109</title>
<g id="a_node15"><a xlink:href="../../d5/db7/classinfra_1_1_bounded_deque.html#ac32cda72da6791ea7b4e2244b84c09d4" target="_top" xlink:title="infra::BoundedDeque\l::size">
<polygon fill="white" stroke="black" points="520.5,-159.5 520.5,-189.5 627.5,-189.5 627.5,-159.5 520.5,-159.5"/>
<text text-anchor="start" x="528.5" y="-177.5" font-family="Helvetica,sans-Serif" font-size="10.00">infra::BoundedDeque</text>
<text text-anchor="middle" x="574" y="-166.5" font-family="Helvetica,sans-Serif" font-size="10.00">::size</text>
</a>
</g>
</g>
<!-- Node103&#45;&gt;Node109 -->
<g id="edge14" class="edge"><title>Node103&#45;&gt;Node109</title>
<path fill="none" stroke="midnightblue" d="M445.025,-155.591C465.922,-158.678 489.287,-162.131 510.276,-165.232"/>
<polygon fill="midnightblue" stroke="midnightblue" points="509.964,-168.724 520.368,-166.723 510.987,-161.799 509.964,-168.724"/>
</g>
<!-- Node107 -->
<g id="node13" class="node"><title>Node107</title>
<g id="a_node13"><a xlink:href="../../de/d88/classinfra_1_1_event_dispatcher_with_weak_ptr_worker.html#ac68250c0670ca6c8c2bfadb6cdbadff7" target="_top" xlink:title="infra::EventDispatcherWith\lWeakPtrWorker::RequestExecution">
<polygon fill="white" stroke="black" points="703,-0.5 703,-30.5 875,-30.5 875,-0.5 703,-0.5"/>
<text text-anchor="start" x="711" y="-18.5" font-family="Helvetica,sans-Serif" font-size="10.00">infra::EventDispatcherWith</text>
<text text-anchor="middle" x="789" y="-7.5" font-family="Helvetica,sans-Serif" font-size="10.00">WeakPtrWorker::RequestExecution</text>
</a>
</g>
</g>
<!-- Node106&#45;&gt;Node107 -->
<g id="edge12" class="edge"><title>Node106&#45;&gt;Node107</title>
<path fill="none" stroke="midnightblue" d="M640.645,-15.5C657.096,-15.5 675.08,-15.5 692.655,-15.5"/>
<polygon fill="midnightblue" stroke="midnightblue" points="692.94,-19.0001 702.94,-15.5 692.94,-12.0001 692.94,-19.0001"/>
</g>
<!-- Node110&#45;&gt;Node100 -->
<g id="edge17" class="edge"><title>Node110&#45;&gt;Node100</title>
<path fill="none" stroke="midnightblue" d="M424.526,-263.52C431.498,-266.538 438.561,-269.901 445,-273.5 465.238,-284.814 514.132,-321.834 545.294,-345.901"/>
<polygon fill="midnightblue" stroke="midnightblue" points="543.525,-348.958 553.574,-352.313 547.811,-343.423 543.525,-348.958"/>
</g>
<!-- Node111 -->
<g id="node17" class="node"><title>Node111</title>
<g id="a_node17"><a xlink:href="../../d5/db7/classinfra_1_1_bounded_deque.html#ac5bf03d3538657af1663cec133161225" target="_top" xlink:title="infra::BoundedDeque\l::full">
<polygon fill="white" stroke="black" points="520.5,-257.5 520.5,-287.5 627.5,-287.5 627.5,-257.5 520.5,-257.5"/>
<text text-anchor="start" x="528.5" y="-275.5" font-family="Helvetica,sans-Serif" font-size="10.00">infra::BoundedDeque</text>
<text text-anchor="middle" x="574" y="-264.5" font-family="Helvetica,sans-Serif" font-size="10.00">::full</text>
</a>
</g>
</g>
<!-- Node110&#45;&gt;Node111 -->
<g id="edge16" class="edge"><title>Node110&#45;&gt;Node111</title>
<path fill="none" stroke="midnightblue" d="M444.502,-256.226C465.516,-258.887 489.077,-261.871 510.23,-264.55"/>
<polygon fill="midnightblue" stroke="midnightblue" points="510.038,-268.054 520.399,-265.838 510.918,-261.109 510.038,-268.054"/>
</g>
</g>
</svg>
        <g id="navigator" transform="translate(0 0)" fill="#404254">
                <rect fill="#f2f5e9" fill-opacity="0.5" stroke="#606060" stroke-width=".5" x="0" y="0" width="60" height="60"/>
                <use id="zoomplus" xlink:href="#zoomPlus" x="17" y="9" onmousedown="handleZoom(evt,'in')"/>
                <use id="zoomminus" xlink:href="#zoomMin" x="42" y="9" onmousedown="handleZoom(evt,'out')"/>
                <use id="reset" xlink:href="#resetDef" x="30" y="36" onmousedown="handleReset()"/>
                <g id="arrowUp" xlink:href="#dirArrow" transform="translate(30 24)" onmousedown="handlePan(0,-1)">
                  <use xlink:href="#rim" fill="#404040">
                        <set attributeName="fill" to="#808080" begin="arrowUp.mouseover" end="arrowUp.mouseout"/>
                  </use>
                  <path fill="none" stroke="white" stroke-width="1.5" d="M0,-3.0v7 M-2.5,-0.5L0,-3.0L2.5,-0.5"/>
                </g>
                <g id="arrowRight" xlink:href="#dirArrow" transform="rotate(90) translate(36 -43)" onmousedown="handlePan(1,0)">
                  <use xlink:href="#rim" fill="#404040">
                        <set attributeName="fill" to="#808080" begin="arrowRight.mouseover" end="arrowRight.mouseout"/>
                  </use>
                  <path fill="none" stroke="white" stroke-width="1.5" d="M0,-3.0v7 M-2.5,-0.5L0,-3.0L2.5,-0.5"/>
                </g>
                <g id="arrowDown" xlink:href="#dirArrow" transform="rotate(180) translate(-30 -48)" onmousedown="handlePan(0,1)">
                  <use xlink:href="#rim" fill="#404040">
                        <set attributeName="fill" to="#808080" begin="arrowDown.mouseover" end="arrowDown.mouseout"/>
                  </use>
                  <path fill="none" stroke="white" stroke-width="1.5" d="M0,-3.0v7 M-2.5,-0.5L0,-3.0L2.5,-0.5"/>
                </g>
                <g id="arrowLeft" xlink:href="#dirArrow" transform="rotate(270) translate(-36 17)" onmousedown="handlePan(-1,0)">
                  <use xlink:href="#rim" fill="#404040">
                        <set attributeName="fill" to="#808080" begin="arrowLeft.mouseover" end="arrowLeft.mouseout"/>
                  </use>
                  <path fill="none" stroke="white" stroke-width="1.5" d="M0,-3.0v7 M-2.5,-0.5L0,-3.0L2.5,-0.5"/>
                </g>
        </g>
        <svg viewBox="0 0 15 15" width="100%" height="30px" preserveAspectRatio="xMaxYMin meet">
         <g id="arrow_out" transform="scale(0.3 0.3)">
          <a xlink:href="classservices_1_1_connection_win_aad7f5b3d01110daf5b57e1c6ad734f40_cgraph_org.svg" target="_base">
           <rect id="button" ry="5" rx="5" y="6" x="6" height="38" width="38"
                fill="#f2f5e9" fill-opacity="0.5" stroke="#606060" stroke-width="1.0"/>
           <path id="arrow"
             d="M 11.500037,31.436501 C 11.940474,20.09759 22.043105,11.32322 32.158766,21.979434 L 37.068811,17.246167 C 37.068811,17.246167 37.088388,32 37.088388,32 L 22.160133,31.978069 C 22.160133,31.978069 26.997745,27.140456 26.997745,27.140456 C 18.528582,18.264221 13.291696,25.230495 11.500037,31.436501 z"
             style="fill:#404040;"/>
          </a>
         </g>
        </svg>
</svg>
