<?xml version="1.0" encoding="UTF-8" standalone="no"?>
<!DOCTYPE svg PUBLIC "-//W3C//DTD SVG 1.1//EN"
 "http://www.w3.org/Graphics/SVG/1.1/DTD/svg11.dtd">
<!-- Generated by graphviz version 2.38.0 (20140413.2041)
 -->
<!-- Title: services::ConnectionWin::TryAllocateSendStream Pages: 1 -->
<svg width="563pt" height="247pt"
 viewBox="0.00 0.00 563.00 246.50" xmlns="http://www.w3.org/2000/svg" xmlns:xlink="http://www.w3.org/1999/xlink">
<g id="graph0" class="graph" transform="scale(1 1) rotate(0) translate(4 242.5)">
<title>services::ConnectionWin::TryAllocateSendStream</title>
<polygon fill="white" stroke="none" points="-4,4 -4,-242.5 559,-242.5 559,4 -4,4"/>
<!-- Node84 -->
<g id="node1" class="node"><title>Node84</title>
<polygon fill="#bfbfbf" stroke="black" points="0,-98.5 0,-128.5 125,-128.5 125,-98.5 0,-98.5"/>
<text text-anchor="start" x="8" y="-116.5" font-family="Helvetica,sans-Serif" font-size="10.00">services::ConnectionWin</text>
<text text-anchor="middle" x="62.5" y="-105.5" font-family="Helvetica,sans-Serif" font-size="10.00">::TryAllocateSendStream</text>
</g>
<!-- Node85 -->
<g id="node2" class="node"><title>Node85</title>
<g id="a_node2"><a xlink:href="../../d3/d0e/classinfra_1_1_interface_connector.html#aed1d9e952d3d0dfa68e59ee4e868b380" target="_top" xlink:title="infra::InterfaceConnector\l\&lt; EventDispatcherWithWeakPtrWorker\l \&gt;::Instance">
<polygon fill="white" stroke="black" points="161,-197 161,-238 347,-238 347,-197 161,-197"/>
<text text-anchor="start" x="169" y="-226" font-family="Helvetica,sans-Serif" font-size="10.00">infra::InterfaceConnector</text>
<text text-anchor="start" x="169" y="-215" font-family="Helvetica,sans-Serif" font-size="10.00">&lt; EventDispatcherWithWeakPtrWorker</text>
<text text-anchor="middle" x="254" y="-204" font-family="Helvetica,sans-Serif" font-size="10.00"> &gt;::Instance</text>
</a>
</g>
</g>
<!-- Node84&#45;&gt;Node85 -->
<g id="edge1" class="edge"><title>Node84&#45;&gt;Node85</title>
<path fill="none" stroke="midnightblue" d="M79.9252,-128.74C98.4114,-145.199 129.935,-171.24 161,-187.5 164.684,-189.428 168.515,-191.264 172.431,-193.007"/>
<polygon fill="midnightblue" stroke="midnightblue" points="171.118,-196.252 181.693,-196.907 173.835,-189.8 171.118,-196.252"/>
</g>
<!-- Node86 -->
<g id="node3" class="node"><title>Node86</title>
<g id="a_node3"><a xlink:href="../../d5/db7/classinfra_1_1_bounded_deque.html#a092bec48cdf6aeba4065e1c9c44f37cd" target="_top" xlink:title="infra::BoundedDeque\l::max_size">
<polygon fill="white" stroke="black" points="200.5,-147.5 200.5,-177.5 307.5,-177.5 307.5,-147.5 200.5,-147.5"/>
<text text-anchor="start" x="208.5" y="-165.5" font-family="Helvetica,sans-Serif" font-size="10.00">infra::BoundedDeque</text>
<text text-anchor="middle" x="254" y="-154.5" font-family="Helvetica,sans-Serif" font-size="10.00">::max_size</text>
</a>
</g>
</g>
<!-- Node84&#45;&gt;Node86 -->
<g id="edge2" class="edge"><title>Node84&#45;&gt;Node86</title>
<path fill="none" stroke="midnightblue" d="M121.644,-128.535C143.438,-134.17 168.286,-140.595 190.462,-146.329"/>
<polygon fill="midnightblue" stroke="midnightblue" points="189.884,-149.795 200.442,-148.91 191.637,-143.018 189.884,-149.795"/>
</g>
<!-- Node87 -->
<g id="node4" class="node"><title>Node87</title>
<g id="a_node4"><a xlink:href="../../de/d88/classinfra_1_1_event_dispatcher_with_weak_ptr_worker.html#a0444150202eeeeb51399634d6e24b13b" target="_top" xlink:title="infra::EventDispatcherWith\lWeakPtrWorker::Schedule">
<polygon fill="white" stroke="black" points="187.5,-98.5 187.5,-128.5 320.5,-128.5 320.5,-98.5 187.5,-98.5"/>
<text text-anchor="start" x="195.5" y="-116.5" font-family="Helvetica,sans-Serif" font-size="10.00">infra::EventDispatcherWith</text>
<text text-anchor="middle" x="254" y="-105.5" font-family="Helvetica,sans-Serif" font-size="10.00">WeakPtrWorker::Schedule</text>
</a>
</g>
</g>
<!-- Node84&#45;&gt;Node87 -->
<g id="edge3" class="edge"><title>Node84&#45;&gt;Node87</title>
<path fill="none" stroke="midnightblue" d="M125.025,-113.5C141.648,-113.5 159.833,-113.5 177.141,-113.5"/>
<polygon fill="midnightblue" stroke="midnightblue" points="177.212,-117 187.212,-113.5 177.212,-110 177.212,-117"/>
</g>
<!-- Node89 -->
<g id="node6" class="node"><title>Node89</title>
<g id="a_node6"><a xlink:href="../../dd/df1/classinfra_1_1_enable_shared_from_this.html#af905d6b4aef4f252a28b1f4edebc99b3" target="_top" xlink:title="infra::EnableSharedFromThis\l\&lt; ConnectionWin \&gt;::SharedFromThis">
<polygon fill="white" stroke="black" points="165,-49.5 165,-79.5 343,-79.5 343,-49.5 165,-49.5"/>
<text text-anchor="start" x="173" y="-67.5" font-family="Helvetica,sans-Serif" font-size="10.00">infra::EnableSharedFromThis</text>
<text text-anchor="middle" x="254" y="-56.5" font-family="Helvetica,sans-Serif" font-size="10.00">&lt; ConnectionWin &gt;::SharedFromThis</text>
</a>
</g>
</g>
<!-- Node84&#45;&gt;Node89 -->
<g id="edge5" class="edge"><title>Node84&#45;&gt;Node89</title>
<path fill="none" stroke="midnightblue" d="M121.644,-98.4654C141.744,-93.2682 164.44,-87.3994 185.243,-82.0204"/>
<polygon fill="midnightblue" stroke="midnightblue" points="186.161,-85.3982 194.966,-79.5062 184.408,-78.6211 186.161,-85.3982"/>
</g>
<!-- Node90 -->
<g id="node7" class="node"><title>Node90</title>
<g id="a_node7"><a xlink:href="../../d5/db7/classinfra_1_1_bounded_deque.html#ac32cda72da6791ea7b4e2244b84c09d4" target="_top" xlink:title="infra::BoundedDeque\l::size">
<polygon fill="white" stroke="black" points="200.5,-0.5 200.5,-30.5 307.5,-30.5 307.5,-0.5 200.5,-0.5"/>
<text text-anchor="start" x="208.5" y="-18.5" font-family="Helvetica,sans-Serif" font-size="10.00">infra::BoundedDeque</text>
<text text-anchor="middle" x="254" y="-7.5" font-family="Helvetica,sans-Serif" font-size="10.00">::size</text>
</a>
</g>
</g>
<!-- Node84&#45;&gt;Node90 -->
<g id="edge6" class="edge"><title>Node84&#45;&gt;Node90</title>
<path fill="none" stroke="midnightblue" d="M79.4818,-98.4846C97.8232,-82.0188 129.454,-55.8947 161,-40.5 170.243,-35.9892 180.42,-32.1953 190.532,-29.036"/>
<polygon fill="midnightblue" stroke="midnightblue" points="191.57,-32.3791 200.175,-26.1987 189.594,-25.6638 191.57,-32.3791"/>
</g>
<!-- Node88 -->
<g id="node5" class="node"><title>Node88</title>
<g id="a_node5"><a xlink:href="../../de/d88/classinfra_1_1_event_dispatcher_with_weak_ptr_worker.html#ac68250c0670ca6c8c2bfadb6cdbadff7" target="_top" xlink:title="infra::EventDispatcherWith\lWeakPtrWorker::RequestExecution">
<polygon fill="white" stroke="black" points="383,-98.5 383,-128.5 555,-128.5 555,-98.5 383,-98.5"/>
<text text-anchor="start" x="391" y="-116.5" font-family="Helvetica,sans-Serif" font-size="10.00">infra::EventDispatcherWith</text>
<text text-anchor="middle" x="469" y="-105.5" font-family="Helvetica,sans-Serif" font-size="10.00">WeakPtrWorker::RequestExecution</text>
</a>
</g>
</g>
<!-- Node87&#45;&gt;Node88 -->
<g id="edge4" class="edge"><title>Node87&#45;&gt;Node88</title>
<path fill="none" stroke="midnightblue" d="M320.645,-113.5C337.096,-113.5 355.08,-113.5 372.655,-113.5"/>
<polygon fill="midnightblue" stroke="midnightblue" points="372.94,-117 382.94,-113.5 372.94,-110 372.94,-117"/>
</g>
</g>
</svg>
