<?xml version="1.0" encoding="UTF-8" standalone="no"?>
<!DOCTYPE svg PUBLIC "-//W3C//DTD SVG 1.1//EN"
 "http://www.w3.org/Graphics/SVG/1.1/DTD/svg11.dtd">
<!-- Generated by graphviz version 2.38.0 (20140413.2041)
 -->
<!-- Title: services::ConnectionWin::Receive Pages: 1 -->
<svg width="562pt" height="433pt"
 viewBox="0.00 0.00 562.00 432.50" xmlns="http://www.w3.org/2000/svg" xmlns:xlink="http://www.w3.org/1999/xlink">
<g id="graph0" class="graph" transform="scale(1 1) rotate(0) translate(4 428.5)">
<title>services::ConnectionWin::Receive</title>
<polygon fill="white" stroke="none" points="-4,4 -4,-428.5 558,-428.5 558,4 -4,4"/>
<!-- Node34 -->
<g id="node1" class="node"><title>Node34</title>
<polygon fill="#bfbfbf" stroke="black" points="0,-196.5 0,-226.5 124,-226.5 124,-196.5 0,-196.5"/>
<text text-anchor="start" x="8" y="-214.5" font-family="Helvetica,sans-Serif" font-size="10.00">services::ConnectionWin</text>
<text text-anchor="middle" x="62" y="-203.5" font-family="Helvetica,sans-Serif" font-size="10.00">::Receive</text>
</g>
<!-- Node35 -->
<g id="node2" class="node"><title>Node35</title>
<g id="a_node2"><a xlink:href="../../d5/db7/classinfra_1_1_bounded_deque.html#a5a35a0944e4ed13a840c6be08aa1761c" target="_top" xlink:title="infra::BoundedDeque::end">
<polygon fill="white" stroke="black" points="189,-405 189,-424 317,-424 317,-405 189,-405"/>
<text text-anchor="middle" x="253" y="-412" font-family="Helvetica,sans-Serif" font-size="10.00">infra::BoundedDeque::end</text>
</a>
</g>
</g>
<!-- Node34&#45;&gt;Node35 -->
<g id="edge1" class="edge"><title>Node34&#45;&gt;Node35</title>
<path fill="none" stroke="midnightblue" d="M66.3442,-226.756C75.0081,-262.445 101.694,-351.666 160,-395.5 165.826,-399.88 172.421,-403.309 179.339,-405.987"/>
<polygon fill="midnightblue" stroke="midnightblue" points="178.338,-409.343 188.932,-409.191 180.556,-402.703 178.338,-409.343"/>
</g>
<!-- Node36 -->
<g id="node3" class="node"><title>Node36</title>
<g id="a_node3"><a xlink:href="../../d5/db7/classinfra_1_1_bounded_deque.html#ac5bf03d3538657af1663cec133161225" target="_top" xlink:title="infra::BoundedDeque\l::full">
<polygon fill="white" stroke="black" points="199.5,-355.5 199.5,-385.5 306.5,-385.5 306.5,-355.5 199.5,-355.5"/>
<text text-anchor="start" x="207.5" y="-373.5" font-family="Helvetica,sans-Serif" font-size="10.00">infra::BoundedDeque</text>
<text text-anchor="middle" x="253" y="-362.5" font-family="Helvetica,sans-Serif" font-size="10.00">::full</text>
</a>
</g>
</g>
<!-- Node34&#45;&gt;Node36 -->
<g id="edge2" class="edge"><title>Node34&#45;&gt;Node36</title>
<path fill="none" stroke="midnightblue" d="M69.5899,-226.715C82.5939,-254.885 114.313,-315.145 160,-346.5 168.767,-352.517 178.946,-357.025 189.273,-360.403"/>
<polygon fill="midnightblue" stroke="midnightblue" points="188.596,-363.852 199.177,-363.308 190.566,-357.135 188.596,-363.852"/>
</g>
<!-- Node37 -->
<g id="node4" class="node"><title>Node37</title>
<g id="a_node4"><a xlink:href="../../d5/db7/classinfra_1_1_bounded_deque.html#ada9c4e05fa965d4d57f3f2faf93c8838" target="_top" xlink:title="infra::BoundedDeque\l::insert">
<polygon fill="white" stroke="black" points="199.5,-306.5 199.5,-336.5 306.5,-336.5 306.5,-306.5 199.5,-306.5"/>
<text text-anchor="start" x="207.5" y="-324.5" font-family="Helvetica,sans-Serif" font-size="10.00">infra::BoundedDeque</text>
<text text-anchor="middle" x="253" y="-313.5" font-family="Helvetica,sans-Serif" font-size="10.00">::insert</text>
</a>
</g>
</g>
<!-- Node34&#45;&gt;Node37 -->
<g id="edge3" class="edge"><title>Node34&#45;&gt;Node37</title>
<path fill="none" stroke="midnightblue" d="M76.2133,-226.736C93.5683,-245.807 125.866,-278.186 160,-296.5 169.174,-301.422 179.393,-305.434 189.591,-308.687"/>
<polygon fill="midnightblue" stroke="midnightblue" points="188.744,-312.087 199.326,-311.578 190.736,-305.376 188.744,-312.087"/>
</g>
<!-- Node38 -->
<g id="node5" class="node"><title>Node38</title>
<g id="a_node5"><a xlink:href="../../d3/d0e/classinfra_1_1_interface_connector.html#aed1d9e952d3d0dfa68e59ee4e868b380" target="_top" xlink:title="infra::InterfaceConnector\l\&lt; EventDispatcherWithWeakPtrWorker\l \&gt;::Instance">
<polygon fill="white" stroke="black" points="160,-246 160,-287 346,-287 346,-246 160,-246"/>
<text text-anchor="start" x="168" y="-275" font-family="Helvetica,sans-Serif" font-size="10.00">infra::InterfaceConnector</text>
<text text-anchor="start" x="168" y="-264" font-family="Helvetica,sans-Serif" font-size="10.00">&lt; EventDispatcherWithWeakPtrWorker</text>
<text text-anchor="middle" x="253" y="-253" font-family="Helvetica,sans-Serif" font-size="10.00"> &gt;::Instance</text>
</a>
</g>
</g>
<!-- Node34&#45;&gt;Node38 -->
<g id="edge4" class="edge"><title>Node34&#45;&gt;Node38</title>
<path fill="none" stroke="midnightblue" d="M114.645,-226.529C132.223,-231.644 152.311,-237.49 171.597,-243.102"/>
<polygon fill="midnightblue" stroke="midnightblue" points="170.708,-246.489 181.287,-245.922 172.664,-239.767 170.708,-246.489"/>
</g>
<!-- Node39 -->
<g id="node6" class="node"><title>Node39</title>
<g id="a_node6"><a xlink:href="../../d5/db7/classinfra_1_1_bounded_deque.html#a092bec48cdf6aeba4065e1c9c44f37cd" target="_top" xlink:title="infra::BoundedDeque\l::max_size">
<polygon fill="white" stroke="black" points="199.5,-196.5 199.5,-226.5 306.5,-226.5 306.5,-196.5 199.5,-196.5"/>
<text text-anchor="start" x="207.5" y="-214.5" font-family="Helvetica,sans-Serif" font-size="10.00">infra::BoundedDeque</text>
<text text-anchor="middle" x="253" y="-203.5" font-family="Helvetica,sans-Serif" font-size="10.00">::max_size</text>
</a>
</g>
</g>
<!-- Node34&#45;&gt;Node39 -->
<g id="edge5" class="edge"><title>Node34&#45;&gt;Node39</title>
<path fill="none" stroke="midnightblue" d="M124.102,-211.5C144.956,-211.5 168.3,-211.5 189.279,-211.5"/>
<polygon fill="midnightblue" stroke="midnightblue" points="189.366,-215 199.366,-211.5 189.366,-208 189.366,-215"/>
</g>
<!-- Node40 -->
<g id="node7" class="node"><title>Node40</title>
<g id="a_node7"><a xlink:href="../../d0/dde/classservices_1_1_connection.html#ae93c3fdf056fd6e66613fd384a365fde" target="_top" xlink:title="services::Connection\l::ResetOwnership">
<polygon fill="white" stroke="black" points="199.5,-147.5 199.5,-177.5 306.5,-177.5 306.5,-147.5 199.5,-147.5"/>
<text text-anchor="start" x="207.5" y="-165.5" font-family="Helvetica,sans-Serif" font-size="10.00">services::Connection</text>
<text text-anchor="middle" x="253" y="-154.5" font-family="Helvetica,sans-Serif" font-size="10.00">::ResetOwnership</text>
</a>
</g>
</g>
<!-- Node34&#45;&gt;Node40 -->
<g id="edge6" class="edge"><title>Node34&#45;&gt;Node40</title>
<path fill="none" stroke="midnightblue" d="M120.991,-196.465C142.633,-190.854 167.295,-184.46 189.34,-178.745"/>
<polygon fill="midnightblue" stroke="midnightblue" points="190.462,-182.07 199.264,-176.172 188.705,-175.294 190.462,-182.07"/>
</g>
<!-- Node41 -->
<g id="node8" class="node"><title>Node41</title>
<g id="a_node8"><a xlink:href="../../de/d88/classinfra_1_1_event_dispatcher_with_weak_ptr_worker.html#a0444150202eeeeb51399634d6e24b13b" target="_top" xlink:title="infra::EventDispatcherWith\lWeakPtrWorker::Schedule">
<polygon fill="white" stroke="black" points="186.5,-98.5 186.5,-128.5 319.5,-128.5 319.5,-98.5 186.5,-98.5"/>
<text text-anchor="start" x="194.5" y="-116.5" font-family="Helvetica,sans-Serif" font-size="10.00">infra::EventDispatcherWith</text>
<text text-anchor="middle" x="253" y="-105.5" font-family="Helvetica,sans-Serif" font-size="10.00">WeakPtrWorker::Schedule</text>
</a>
</g>
</g>
<!-- Node34&#45;&gt;Node41 -->
<g id="edge7" class="edge"><title>Node34&#45;&gt;Node41</title>
<path fill="none" stroke="midnightblue" d="M78.8853,-196.48C97.1196,-180.011 128.576,-153.883 160,-138.5 165.238,-135.936 170.777,-133.604 176.434,-131.489"/>
<polygon fill="midnightblue" stroke="midnightblue" points="177.752,-134.736 186.036,-128.132 175.441,-128.129 177.752,-134.736"/>
</g>
<!-- Node43 -->
<g id="node10" class="node"><title>Node43</title>
<g id="a_node10"><a xlink:href="../../dd/df1/classinfra_1_1_enable_shared_from_this.html#af905d6b4aef4f252a28b1f4edebc99b3" target="_top" xlink:title="infra::EnableSharedFromThis\l\&lt; ConnectionWin \&gt;::SharedFromThis">
<polygon fill="white" stroke="black" points="164,-49.5 164,-79.5 342,-79.5 342,-49.5 164,-49.5"/>
<text text-anchor="start" x="172" y="-67.5" font-family="Helvetica,sans-Serif" font-size="10.00">infra::EnableSharedFromThis</text>
<text text-anchor="middle" x="253" y="-56.5" font-family="Helvetica,sans-Serif" font-size="10.00">&lt; ConnectionWin &gt;::SharedFromThis</text>
</a>
</g>
</g>
<!-- Node34&#45;&gt;Node43 -->
<g id="edge9" class="edge"><title>Node34&#45;&gt;Node43</title>
<path fill="none" stroke="midnightblue" d="M70.9021,-196.17C85.114,-170.156 117.509,-117.472 160,-89.5 163.085,-87.4693 166.33,-85.6028 169.686,-83.8871"/>
<polygon fill="midnightblue" stroke="midnightblue" points="171.174,-87.0552 178.789,-79.6889 168.242,-80.6987 171.174,-87.0552"/>
</g>
<!-- Node44 -->
<g id="node11" class="node"><title>Node44</title>
<g id="a_node11"><a xlink:href="../../d5/db7/classinfra_1_1_bounded_deque.html#ac32cda72da6791ea7b4e2244b84c09d4" target="_top" xlink:title="infra::BoundedDeque\l::size">
<polygon fill="white" stroke="black" points="199.5,-0.5 199.5,-30.5 306.5,-30.5 306.5,-0.5 199.5,-0.5"/>
<text text-anchor="start" x="207.5" y="-18.5" font-family="Helvetica,sans-Serif" font-size="10.00">infra::BoundedDeque</text>
<text text-anchor="middle" x="253" y="-7.5" font-family="Helvetica,sans-Serif" font-size="10.00">::size</text>
</a>
</g>
</g>
<!-- Node34&#45;&gt;Node44 -->
<g id="edge10" class="edge"><title>Node34&#45;&gt;Node44</title>
<path fill="none" stroke="midnightblue" d="M67.2288,-196.29C77.3487,-162.778 106.211,-82.2519 160,-40.5 168.609,-33.8176 178.875,-28.9188 189.377,-25.3283"/>
<polygon fill="midnightblue" stroke="midnightblue" points="190.5,-28.6452 199.047,-22.3849 188.462,-21.9485 190.5,-28.6452"/>
</g>
<!-- Node42 -->
<g id="node9" class="node"><title>Node42</title>
<g id="a_node9"><a xlink:href="../../de/d88/classinfra_1_1_event_dispatcher_with_weak_ptr_worker.html#ac68250c0670ca6c8c2bfadb6cdbadff7" target="_top" xlink:title="infra::EventDispatcherWith\lWeakPtrWorker::RequestExecution">
<polygon fill="white" stroke="black" points="382,-98.5 382,-128.5 554,-128.5 554,-98.5 382,-98.5"/>
<text text-anchor="start" x="390" y="-116.5" font-family="Helvetica,sans-Serif" font-size="10.00">infra::EventDispatcherWith</text>
<text text-anchor="middle" x="468" y="-105.5" font-family="Helvetica,sans-Serif" font-size="10.00">WeakPtrWorker::RequestExecution</text>
</a>
</g>
</g>
<!-- Node41&#45;&gt;Node42 -->
<g id="edge8" class="edge"><title>Node41&#45;&gt;Node42</title>
<path fill="none" stroke="midnightblue" d="M319.645,-113.5C336.096,-113.5 354.08,-113.5 371.655,-113.5"/>
<polygon fill="midnightblue" stroke="midnightblue" points="371.94,-117 381.94,-113.5 371.94,-110 371.94,-117"/>
</g>
</g>
</svg>
