<?xml version="1.0" encoding="UTF-8" standalone="no"?>
<!DOCTYPE svg PUBLIC "-//W3C//DTD SVG 1.1//EN"
 "http://www.w3.org/Graphics/SVG/1.1/DTD/svg11.dtd">
<!-- Generated by graphviz version 2.38.0 (20140413.2041)
 -->
<!-- Title: services::TracingStreamReader::Extract Pages: 1 -->
<svg width="476pt" height="144pt"
 viewBox="0.00 0.00 476.00 143.50" xmlns="http://www.w3.org/2000/svg" xmlns:xlink="http://www.w3.org/1999/xlink">
<g id="graph0" class="graph" transform="scale(1 1) rotate(0) translate(4 139.5)">
<title>services::TracingStreamReader::Extract</title>
<polygon fill="white" stroke="none" points="-4,4 -4,-139.5 472,-139.5 472,4 -4,4"/>
<!-- Node8 -->
<g id="node1" class="node"><title>Node8</title>
<polygon fill="#bfbfbf" stroke="black" points="0,-66.5 0,-96.5 152,-96.5 152,-66.5 0,-66.5"/>
<text text-anchor="start" x="8" y="-84.5" font-family="Helvetica,sans-Serif" font-size="10.00">services::TracingStreamReader</text>
<text text-anchor="middle" x="76" y="-73.5" font-family="Helvetica,sans-Serif" font-size="10.00">::Extract</text>
</g>
<!-- Node9 -->
<g id="node2" class="node"><title>Node9</title>
<g id="a_node2"><a xlink:href="../../d0/de3/namespaceinfra.html#abcc96346504ff058726ec5eea5fd3c06" target="_top" xlink:title="infra::AsHex">
<polygon fill="white" stroke="black" points="210.5,-116 210.5,-135 280.5,-135 280.5,-116 210.5,-116"/>
<text text-anchor="middle" x="245.5" y="-123" font-family="Helvetica,sans-Serif" font-size="10.00">infra::AsHex</text>
</a>
</g>
</g>
<!-- Node8&#45;&gt;Node9 -->
<g id="edge1" class="edge"><title>Node8&#45;&gt;Node9</title>
<path fill="none" stroke="midnightblue" d="M134.176,-96.5192C155.741,-102.184 179.93,-108.538 200.15,-113.85"/>
<polygon fill="midnightblue" stroke="midnightblue" points="199.466,-117.289 210.027,-116.444 201.244,-110.519 199.466,-117.289"/>
</g>
<!-- Node10 -->
<g id="node3" class="node"><title>Node10</title>
<g id="a_node3"><a xlink:href="../../d2/d90/classinfra_1_1_stream_reader.html#a31b3e381cbdb9a8628c4176904c90d6c" target="_top" xlink:title="infra::StreamReader\l::Extract">
<polygon fill="white" stroke="black" points="194,-66.5 194,-96.5 297,-96.5 297,-66.5 194,-66.5"/>
<text text-anchor="start" x="202" y="-84.5" font-family="Helvetica,sans-Serif" font-size="10.00">infra::StreamReader</text>
<text text-anchor="middle" x="245.5" y="-73.5" font-family="Helvetica,sans-Serif" font-size="10.00">::Extract</text>
</a>
</g>
</g>
<!-- Node8&#45;&gt;Node10 -->
<g id="edge2" class="edge"><title>Node8&#45;&gt;Node10</title>
<path fill="none" stroke="midnightblue" d="M152.42,-81.5C162.97,-81.5 173.699,-81.5 183.926,-81.5"/>
<polygon fill="midnightblue" stroke="midnightblue" points="183.962,-85.0001 193.962,-81.5 183.962,-78.0001 183.962,-85.0001"/>
</g>
<!-- Node11 -->
<g id="node4" class="node"><title>Node11</title>
<g id="a_node4"><a xlink:href="../../dc/d42/classservices_1_1_tracer.html#a25248c7fb378a73f189defd30a4593f2" target="_top" xlink:title="services::Tracer::Trace">
<polygon fill="white" stroke="black" points="188,-28 188,-47 303,-47 303,-28 188,-28"/>
<text text-anchor="middle" x="245.5" y="-35" font-family="Helvetica,sans-Serif" font-size="10.00">services::Tracer::Trace</text>
</a>
</g>
</g>
<!-- Node8&#45;&gt;Node11 -->
<g id="edge3" class="edge"><title>Node8&#45;&gt;Node11</title>
<path fill="none" stroke="midnightblue" d="M134.176,-66.4808C155.174,-60.9648 178.659,-54.7956 198.546,-49.5716"/>
<polygon fill="midnightblue" stroke="midnightblue" points="199.505,-52.9383 208.288,-47.0124 197.727,-46.168 199.505,-52.9383"/>
</g>
<!-- Node12 -->
<g id="node5" class="node"><title>Node12</title>
<g id="a_node5"><a xlink:href="../../dc/d42/classservices_1_1_tracer.html#a9bbd41af2cd3049df3e56fe63ebad051" target="_top" xlink:title="services::Tracer::Continue">
<polygon fill="white" stroke="black" points="339,-50 339,-69 468,-69 468,-50 339,-50"/>
<text text-anchor="middle" x="403.5" y="-57" font-family="Helvetica,sans-Serif" font-size="10.00">services::Tracer::Continue</text>
</a>
</g>
</g>
<!-- Node11&#45;&gt;Node12 -->
<g id="edge4" class="edge"><title>Node11&#45;&gt;Node12</title>
<path fill="none" stroke="midnightblue" d="M303.261,-45.5047C311.589,-46.6792 320.266,-47.9029 328.873,-49.1167"/>
<polygon fill="midnightblue" stroke="midnightblue" points="328.527,-52.6025 338.918,-50.5333 329.505,-45.6711 328.527,-52.6025"/>
</g>
<!-- Node13 -->
<g id="node6" class="node"><title>Node13</title>
<g id="a_node6"><a xlink:href="../../dc/d42/classservices_1_1_tracer.html#a38963ac748f455f5439fd9e312273588" target="_top" xlink:title="services::Tracer::Insert\lHeader">
<polygon fill="white" stroke="black" points="346,-0.5 346,-30.5 461,-30.5 461,-0.5 346,-0.5"/>
<text text-anchor="start" x="354" y="-18.5" font-family="Helvetica,sans-Serif" font-size="10.00">services::Tracer::Insert</text>
<text text-anchor="middle" x="403.5" y="-7.5" font-family="Helvetica,sans-Serif" font-size="10.00">Header</text>
</a>
</g>
</g>
<!-- Node11&#45;&gt;Node13 -->
<g id="edge5" class="edge"><title>Node11&#45;&gt;Node13</title>
<path fill="none" stroke="midnightblue" d="M303.261,-29.4953C313.758,-28.0149 324.81,-26.4562 335.576,-24.9381"/>
<polygon fill="midnightblue" stroke="midnightblue" points="336.368,-28.361 345.781,-23.4988 335.391,-21.4296 336.368,-28.361"/>
</g>
</g>
</svg>
