<?xml version="1.0" encoding="UTF-8" standalone="no"?>
<!DOCTYPE svg PUBLIC "-//W3C//DTD SVG 1.1//EN"
 "http://www.w3.org/Graphics/SVG/1.1/DTD/svg11.dtd">
<!-- Generated by graphviz version 2.38.0 (20140413.2041)
 -->
<!-- Title: services::Tracer::InsertHeader Pages: 1 -->
<!--zoomable 1064 -->
<svg id="main" version="1.1" xmlns="http://www.w3.org/2000/svg" xmlns:xlink="http://www.w3.org/1999/xlink" xml:space="preserve" onload="init(evt)">
<style type="text/css"><![CDATA[
.edge:hover path { stroke: red; }
.edge:hover polygon { stroke: red; fill: red; }
]]></style>
<script type="text/javascript"><![CDATA[
var edges = document.getElementsByTagName('g');
if (edges && edges.length) {
  for (var i=0;i<edges.length;i++) {
    if (edges[i].id.substr(0,4)=='edge') {
      edges[i].setAttribute('class','edge');
    }
  }
}
]]></script>
        <defs>
                <circle id="rim" cx="0" cy="0" r="7"/>
                <circle id="rim2" cx="0" cy="0" r="3.5"/>
                <g id="zoomPlus">
                        <use xlink:href="#rim" fill="#404040">
                                <set attributeName="fill" to="#808080" begin="zoomplus.mouseover" end="zoomplus.mouseout"/>
                        </use>
                        <path d="M-4,0h8M0,-4v8" fill="none" stroke="white" stroke-width="1.5" pointer-events="none"/>
                </g>
                <g id="zoomMin">
                        <use xlink:href="#rim" fill="#404040">
                                <set attributeName="fill" to="#808080" begin="zoomminus.mouseover" end="zoomminus.mouseout"/>
                        </use>
                        <path d="M-4,0h8" fill="none" stroke="white" stroke-width="1.5" pointer-events="none"/>
                </g>
                <g id="dirArrow">
                        <path fill="none" stroke="white" stroke-width="1.5" d="M0,-3.0v7 M-2.5,-0.5L0,-3.0L2.5,-0.5"/>
                </g>
               <g id="resetDef">
                       <use xlink:href="#rim2" fill="#404040">
                               <set attributeName="fill" to="#808080" begin="reset.mouseover" end="reset.mouseout"/>
                       </use>
               </g>
        </defs>

<script type="text/javascript">
var viewWidth = 657;
var viewHeight = 1064;
var sectionId = 'dynsection-3';
</script>
<script xlink:href="../../svgpan.js"/>
<svg id="graph" class="graph">
<g id="viewport">
<title>services::Tracer::InsertHeader</title>
<polygon fill="white" stroke="none" points="-4,4 -4,-1060 653,-1060 653,4 -4,4"/>
<!-- Node38 -->
<g id="node1" class="node"><title>Node38</title>
<polygon fill="#bfbfbf" stroke="black" points="0,-496.5 0,-526.5 115,-526.5 115,-496.5 0,-496.5"/>
<text text-anchor="start" x="8" y="-514.5" font-family="Helvetica,sans-Serif" font-size="10.00">services::Tracer::Insert</text>
<text text-anchor="middle" x="57.5" y="-503.5" font-family="Helvetica,sans-Serif" font-size="10.00">Header</text>
</g>
<!-- Node39 -->
<g id="node2" class="node"><title>Node39</title>
<g id="a_node2"><a xlink:href="../../dc/d42/classservices_1_1_tracer.html#a25248c7fb378a73f189defd30a4593f2" target="_top" xlink:title="services::Tracer::Trace">
<polygon fill="white" stroke="black" points="151,-502 151,-521 266,-521 266,-502 151,-502"/>
<text text-anchor="middle" x="208.5" y="-509" font-family="Helvetica,sans-Serif" font-size="10.00">services::Tracer::Trace</text>
</a>
</g>
</g>
<!-- Node38&#45;&gt;Node39 -->
<g id="edge1" class="edge"><title>Node38&#45;&gt;Node39</title>
<path fill="none" stroke="midnightblue" d="M125.508,-511.5C133.99,-511.5 142.604,-511.5 150.902,-511.5"/>
<polygon fill="midnightblue" stroke="midnightblue" points="125.256,-508 115.256,-511.5 125.256,-515 125.256,-508"/>
</g>
<!-- Node40 -->
<g id="node3" class="node"><title>Node40</title>
<g id="a_node3"><a xlink:href="../../d7/da4/classapplication_1_1_tracing_http_client.html#a3d395ac041582bd17cc8ec2a47bacfc9" target="_top" xlink:title="application::TracingHttp\lClient::StatusAvailable">
<polygon fill="white" stroke="black" points="329,-1025.5 329,-1055.5 448,-1055.5 448,-1025.5 329,-1025.5"/>
<text text-anchor="start" x="337" y="-1043.5" font-family="Helvetica,sans-Serif" font-size="10.00">application::TracingHttp</text>
<text text-anchor="middle" x="388.5" y="-1032.5" font-family="Helvetica,sans-Serif" font-size="10.00">Client::StatusAvailable</text>
</a>
</g>
</g>
<!-- Node39&#45;&gt;Node40 -->
<g id="edge2" class="edge"><title>Node39&#45;&gt;Node40</title>
<path fill="none" stroke="midnightblue" d="M210.404,-531.377C214.636,-615.743 235.19,-943.206 302,-1016.5 309.166,-1024.36 318.681,-1029.73 328.757,-1033.38"/>
<polygon fill="midnightblue" stroke="midnightblue" points="213.888,-530.959 209.912,-521.138 206.896,-531.295 213.888,-530.959"/>
</g>
<!-- Node41 -->
<g id="node4" class="node"><title>Node41</title>
<g id="a_node4"><a xlink:href="../../d7/da4/classapplication_1_1_tracing_http_client.html#a651b81eef38c41aa8d8556e7f7282c7e" target="_top" xlink:title="application::TracingHttp\lClient::HeaderAvailable">
<polygon fill="white" stroke="black" points="329,-976.5 329,-1006.5 448,-1006.5 448,-976.5 329,-976.5"/>
<text text-anchor="start" x="337" y="-994.5" font-family="Helvetica,sans-Serif" font-size="10.00">application::TracingHttp</text>
<text text-anchor="middle" x="388.5" y="-983.5" font-family="Helvetica,sans-Serif" font-size="10.00">Client::HeaderAvailable</text>
</a>
</g>
</g>
<!-- Node39&#45;&gt;Node41 -->
<g id="edge3" class="edge"><title>Node39&#45;&gt;Node41</title>
<path fill="none" stroke="midnightblue" d="M210.834,-531.45C216.53,-610.712 241.342,-902.21 302,-967.5 309.241,-975.294 318.79,-980.63 328.876,-984.266"/>
<polygon fill="midnightblue" stroke="midnightblue" points="214.317,-531.081 210.131,-521.348 207.334,-531.567 214.317,-531.081"/>
</g>
<!-- Node42 -->
<g id="node5" class="node"><title>Node42</title>
<g id="a_node5"><a xlink:href="../../d7/da4/classapplication_1_1_tracing_http_client.html#ada950b62a2814b3604a73b9566e09a79" target="_top" xlink:title="application::TracingHttp\lClient::BodyAvailable">
<polygon fill="white" stroke="black" points="329,-927.5 329,-957.5 448,-957.5 448,-927.5 329,-927.5"/>
<text text-anchor="start" x="337" y="-945.5" font-family="Helvetica,sans-Serif" font-size="10.00">application::TracingHttp</text>
<text text-anchor="middle" x="388.5" y="-934.5" font-family="Helvetica,sans-Serif" font-size="10.00">Client::BodyAvailable</text>
</a>
</g>
</g>
<!-- Node39&#45;&gt;Node42 -->
<g id="edge4" class="edge"><title>Node39&#45;&gt;Node42</title>
<path fill="none" stroke="midnightblue" d="M211.332,-531.151C218.554,-604.508 247.371,-861.058 302,-918.5 309.225,-926.097 318.644,-931.351 328.582,-934.972"/>
<polygon fill="midnightblue" stroke="midnightblue" points="214.798,-530.628 210.357,-521.009 207.83,-531.298 214.798,-530.628"/>
</g>
<!-- Node43 -->
<g id="node6" class="node"><title>Node43</title>
<g id="a_node6"><a xlink:href="../../d7/da4/classapplication_1_1_tracing_http_client.html#ad7939e1dfea9b26ac41d58511fe8b2c7" target="_top" xlink:title="application::TracingHttp\lClient::Done">
<polygon fill="white" stroke="black" points="329,-878.5 329,-908.5 448,-908.5 448,-878.5 329,-878.5"/>
<text text-anchor="start" x="337" y="-896.5" font-family="Helvetica,sans-Serif" font-size="10.00">application::TracingHttp</text>
<text text-anchor="middle" x="388.5" y="-885.5" font-family="Helvetica,sans-Serif" font-size="10.00">Client::Done</text>
</a>
</g>
</g>
<!-- Node39&#45;&gt;Node43 -->
<g id="edge5" class="edge"><title>Node39&#45;&gt;Node43</title>
<path fill="none" stroke="midnightblue" d="M212.016,-531.358C220.987,-599.148 253.489,-819.968 302,-869.5 309.336,-876.99 318.807,-882.194 328.762,-885.799"/>
<polygon fill="midnightblue" stroke="midnightblue" points="215.454,-530.658 210.696,-521.192 208.513,-531.559 215.454,-530.658"/>
</g>
<!-- Node44 -->
<g id="node7" class="node"><title>Node44</title>
<g id="a_node7"><a xlink:href="../../d7/da4/classapplication_1_1_tracing_http_client.html#a953e1c5abdb159e8754bb1cc44e6169c" target="_top" xlink:title="application::TracingHttp\lClient::Error">
<polygon fill="white" stroke="black" points="329,-829.5 329,-859.5 448,-859.5 448,-829.5 329,-829.5"/>
<text text-anchor="start" x="337" y="-847.5" font-family="Helvetica,sans-Serif" font-size="10.00">application::TracingHttp</text>
<text text-anchor="middle" x="388.5" y="-836.5" font-family="Helvetica,sans-Serif" font-size="10.00">Client::Error</text>
</a>
</g>
</g>
<!-- Node39&#45;&gt;Node44 -->
<g id="edge6" class="edge"><title>Node39&#45;&gt;Node44</title>
<path fill="none" stroke="midnightblue" d="M209.274,-531.254C209.769,-585.612 218.857,-738.776 302,-820.5 309.477,-827.849 319.014,-832.987 328.99,-836.571"/>
<polygon fill="midnightblue" stroke="midnightblue" points="212.774,-531.217 209.275,-521.216 205.774,-531.216 212.774,-531.217"/>
</g>
<!-- Node45 -->
<g id="node8" class="node"><title>Node45</title>
<g id="a_node8"><a xlink:href="../../de/dc5/classservices_1_1_tracer_adapter_printf.html#a39fd568ffac473ec9b08f7820b688fb5" target="_top" xlink:title="services::TracerAdapterPrintf\l::Print">
<polygon fill="white" stroke="black" points="318,-780.5 318,-810.5 459,-810.5 459,-780.5 318,-780.5"/>
<text text-anchor="start" x="326" y="-798.5" font-family="Helvetica,sans-Serif" font-size="10.00">services::TracerAdapterPrintf</text>
<text text-anchor="middle" x="388.5" y="-787.5" font-family="Helvetica,sans-Serif" font-size="10.00">::Print</text>
</a>
</g>
</g>
<!-- Node39&#45;&gt;Node45 -->
<g id="edge7" class="edge"><title>Node39&#45;&gt;Node45</title>
<path fill="none" stroke="midnightblue" d="M210.576,-531.3C214.298,-579.698 230.69,-704.891 302,-771.5 306.619,-775.815 311.952,-779.363 317.651,-782.28"/>
<polygon fill="midnightblue" stroke="midnightblue" points="214.061,-530.955 209.903,-521.21 207.076,-531.421 214.061,-530.955"/>
</g>
<!-- Node46 -->
<g id="node9" class="node"><title>Node46</title>
<g id="a_node9"><a xlink:href="../../d9/d36/classservices_1_1_tracing_connection_mbed_tls.html#a2068fde3a3e451d63ebfd73f0f295f8a" target="_top" xlink:title="services::TracingConnection\lMbedTls::TlsLog">
<polygon fill="white" stroke="black" points="319.5,-731.5 319.5,-761.5 457.5,-761.5 457.5,-731.5 319.5,-731.5"/>
<text text-anchor="start" x="327.5" y="-749.5" font-family="Helvetica,sans-Serif" font-size="10.00">services::TracingConnection</text>
<text text-anchor="middle" x="388.5" y="-738.5" font-family="Helvetica,sans-Serif" font-size="10.00">MbedTls::TlsLog</text>
</a>
</g>
</g>
<!-- Node39&#45;&gt;Node46 -->
<g id="edge8" class="edge"><title>Node39&#45;&gt;Node46</title>
<path fill="none" stroke="midnightblue" d="M212.405,-531.172C219.617,-572.873 242.277,-670.577 302,-722.5 307.119,-726.951 313.005,-730.581 319.242,-733.54"/>
<polygon fill="midnightblue" stroke="midnightblue" points="215.843,-530.507 210.794,-521.193 208.932,-531.623 215.843,-530.507"/>
</g>
<!-- Node47 -->
<g id="node10" class="node"><title>Node47</title>
<g id="a_node10"><a xlink:href="../../d9/d36/classservices_1_1_tracing_connection_mbed_tls.html#a237e4c4051969403dd59654fd25287a4" target="_top" xlink:title="services::TracingConnection\lMbedTls::LogFailure">
<polygon fill="white" stroke="black" points="319.5,-682.5 319.5,-712.5 457.5,-712.5 457.5,-682.5 319.5,-682.5"/>
<text text-anchor="start" x="327.5" y="-700.5" font-family="Helvetica,sans-Serif" font-size="10.00">services::TracingConnection</text>
<text text-anchor="middle" x="388.5" y="-689.5" font-family="Helvetica,sans-Serif" font-size="10.00">MbedTls::LogFailure</text>
</a>
</g>
</g>
<!-- Node39&#45;&gt;Node47 -->
<g id="edge9" class="edge"><title>Node39&#45;&gt;Node47</title>
<path fill="none" stroke="midnightblue" d="M215.19,-530.974C226.183,-565.118 253.624,-635.736 302,-673.5 307.226,-677.579 313.108,-680.966 319.279,-683.776"/>
<polygon fill="midnightblue" stroke="midnightblue" points="218.486,-529.782 212.194,-521.258 211.797,-531.846 218.486,-529.782"/>
</g>
<!-- Node51 -->
<g id="node14" class="node"><title>Node51</title>
<g id="a_node14"><a xlink:href="../../d9/d63/classservices_1_1_allocator_tracing_connection_mbed_tls_adapter.html#a999d2304bbbefb132ea5f6f39c93680c" target="_top" xlink:title="services::AllocatorTracing\lConnectionMbedTlsAdapter\l::AllocatorTracingConnectionMbed\lTlsAdapter">
<polygon fill="white" stroke="black" points="306,-611.5 306,-663.5 471,-663.5 471,-611.5 306,-611.5"/>
<text text-anchor="start" x="314" y="-651.5" font-family="Helvetica,sans-Serif" font-size="10.00">services::AllocatorTracing</text>
<text text-anchor="start" x="314" y="-640.5" font-family="Helvetica,sans-Serif" font-size="10.00">ConnectionMbedTlsAdapter</text>
<text text-anchor="start" x="314" y="-629.5" font-family="Helvetica,sans-Serif" font-size="10.00">::AllocatorTracingConnectionMbed</text>
<text text-anchor="middle" x="388.5" y="-618.5" font-family="Helvetica,sans-Serif" font-size="10.00">TlsAdapter</text>
</a>
</g>
</g>
<!-- Node39&#45;&gt;Node51 -->
<g id="edge13" class="edge"><title>Node39&#45;&gt;Node51</title>
<path fill="none" stroke="midnightblue" d="M223.88,-528.988C240.858,-548.735 270.76,-580.803 302,-601.5 307.371,-605.058 313.15,-608.383 319.08,-611.461"/>
<polygon fill="midnightblue" stroke="midnightblue" points="226.353,-526.492 217.229,-521.108 221.004,-531.007 226.353,-526.492"/>
</g>
<!-- Node52 -->
<g id="node15" class="node"><title>Node52</title>
<g id="a_node15"><a xlink:href="../../d9/d63/classservices_1_1_allocator_tracing_connection_mbed_tls_adapter.html#a2ab9df31e137315f04941a53dcda50f1" target="_top" xlink:title="services::AllocatorTracing\lConnectionMbedTlsAdapter\l::Allocate">
<polygon fill="white" stroke="black" points="320.5,-551 320.5,-592 456.5,-592 456.5,-551 320.5,-551"/>
<text text-anchor="start" x="328.5" y="-580" font-family="Helvetica,sans-Serif" font-size="10.00">services::AllocatorTracing</text>
<text text-anchor="start" x="328.5" y="-569" font-family="Helvetica,sans-Serif" font-size="10.00">ConnectionMbedTlsAdapter</text>
<text text-anchor="middle" x="388.5" y="-558" font-family="Helvetica,sans-Serif" font-size="10.00">::Allocate</text>
</a>
</g>
</g>
<!-- Node39&#45;&gt;Node52 -->
<g id="edge14" class="edge"><title>Node39&#45;&gt;Node52</title>
<path fill="none" stroke="midnightblue" d="M247.437,-524.288C270.457,-532.047 300.364,-542.128 326.629,-550.982"/>
<polygon fill="midnightblue" stroke="midnightblue" points="248.299,-520.885 237.705,-521.007 246.063,-527.518 248.299,-520.885"/>
</g>
<!-- Node53 -->
<g id="node16" class="node"><title>Node53</title>
<g id="a_node16"><a xlink:href="../../d0/dca/classservices_1_1_tracing_connection_factory_mbed_tls.html#a7af9772e0be4517e69d3b954a482175a" target="_top" xlink:title="services::TracingConnection\lFactoryMbedTls::TracingConnection\lFactoryMbedTls">
<polygon fill="white" stroke="black" points="302,-491 302,-532 475,-532 475,-491 302,-491"/>
<text text-anchor="start" x="310" y="-520" font-family="Helvetica,sans-Serif" font-size="10.00">services::TracingConnection</text>
<text text-anchor="start" x="310" y="-509" font-family="Helvetica,sans-Serif" font-size="10.00">FactoryMbedTls::TracingConnection</text>
<text text-anchor="middle" x="388.5" y="-498" font-family="Helvetica,sans-Serif" font-size="10.00">FactoryMbedTls</text>
</a>
</g>
</g>
<!-- Node39&#45;&gt;Node53 -->
<g id="edge15" class="edge"><title>Node39&#45;&gt;Node53</title>
<path fill="none" stroke="midnightblue" d="M276.556,-511.5C284.777,-511.5 293.263,-511.5 301.711,-511.5"/>
<polygon fill="midnightblue" stroke="midnightblue" points="276.31,-508 266.31,-511.5 276.31,-515 276.31,-508"/>
</g>
<!-- Node54 -->
<g id="node17" class="node"><title>Node54</title>
<g id="a_node17"><a xlink:href="../../d7/d35/classservices_1_1_tracing_flash.html#a9a1d3cfdb5b8bbe59a5824f2a9f276d1" target="_top" xlink:title="services::TracingFlash\l::WriteBuffer">
<polygon fill="white" stroke="black" points="332,-441.5 332,-471.5 445,-471.5 445,-441.5 332,-441.5"/>
<text text-anchor="start" x="340" y="-459.5" font-family="Helvetica,sans-Serif" font-size="10.00">services::TracingFlash</text>
<text text-anchor="middle" x="388.5" y="-448.5" font-family="Helvetica,sans-Serif" font-size="10.00">::WriteBuffer</text>
</a>
</g>
</g>
<!-- Node39&#45;&gt;Node54 -->
<g id="edge16" class="edge"><title>Node39&#45;&gt;Node54</title>
<path fill="none" stroke="midnightblue" d="M248.062,-498.716C264.629,-493.296 284.231,-486.978 302,-481.5 312.641,-478.22 324.059,-474.807 334.976,-471.596"/>
<polygon fill="midnightblue" stroke="midnightblue" points="246.591,-495.515 238.181,-501.96 248.774,-502.166 246.591,-495.515"/>
</g>
<!-- Node55 -->
<g id="node18" class="node"><title>Node55</title>
<g id="a_node18"><a xlink:href="../../d7/d35/classservices_1_1_tracing_flash.html#aef065129a5911ba49726eec5fc37a8bf" target="_top" xlink:title="services::TracingFlash\l::ReadBuffer">
<polygon fill="white" stroke="black" points="332,-392.5 332,-422.5 445,-422.5 445,-392.5 332,-392.5"/>
<text text-anchor="start" x="340" y="-410.5" font-family="Helvetica,sans-Serif" font-size="10.00">services::TracingFlash</text>
<text text-anchor="middle" x="388.5" y="-399.5" font-family="Helvetica,sans-Serif" font-size="10.00">::ReadBuffer</text>
</a>
</g>
</g>
<!-- Node39&#45;&gt;Node55 -->
<g id="edge17" class="edge"><title>Node39&#45;&gt;Node55</title>
<path fill="none" stroke="midnightblue" d="M224.98,-494.574C242.176,-476.727 271.552,-448.962 302,-432.5 311.251,-427.498 321.62,-423.39 331.86,-420.053"/>
<polygon fill="midnightblue" stroke="midnightblue" points="222.292,-492.323 217.976,-502 227.384,-497.126 222.292,-492.323"/>
</g>
<!-- Node56 -->
<g id="node19" class="node"><title>Node56</title>
<g id="a_node19"><a xlink:href="../../d7/d35/classservices_1_1_tracing_flash.html#ae975c6b820f57e9691632514ca1e3f36" target="_top" xlink:title="services::TracingFlash\l::EraseSectors">
<polygon fill="white" stroke="black" points="332,-343.5 332,-373.5 445,-373.5 445,-343.5 332,-343.5"/>
<text text-anchor="start" x="340" y="-361.5" font-family="Helvetica,sans-Serif" font-size="10.00">services::TracingFlash</text>
<text text-anchor="middle" x="388.5" y="-350.5" font-family="Helvetica,sans-Serif" font-size="10.00">::EraseSectors</text>
</a>
</g>
</g>
<!-- Node39&#45;&gt;Node56 -->
<g id="edge18" class="edge"><title>Node39&#45;&gt;Node56</title>
<path fill="none" stroke="midnightblue" d="M218.071,-492.667C231.782,-464.653 261.306,-412.23 302,-383.5 310.844,-377.256 321.244,-372.558 331.688,-369.027"/>
<polygon fill="midnightblue" stroke="midnightblue" points="214.865,-491.259 213.743,-501.795 221.19,-494.258 214.865,-491.259"/>
</g>
<!-- Node57 -->
<g id="node20" class="node"><title>Node57</title>
<g id="a_node20"><a xlink:href="../../df/d09/classservices_1_1_tracing_http_client_impl.html#a17a4c8c6e500a0483ebfad6df5e2596c" target="_top" xlink:title="services::TracingHttpClient\lImpl::WriteRequest">
<polygon fill="white" stroke="black" points="322.5,-294.5 322.5,-324.5 454.5,-324.5 454.5,-294.5 322.5,-294.5"/>
<text text-anchor="start" x="330.5" y="-312.5" font-family="Helvetica,sans-Serif" font-size="10.00">services::TracingHttpClient</text>
<text text-anchor="middle" x="388.5" y="-301.5" font-family="Helvetica,sans-Serif" font-size="10.00">Impl::WriteRequest</text>
</a>
</g>
</g>
<!-- Node39&#45;&gt;Node57 -->
<g id="edge19" class="edge"><title>Node39&#45;&gt;Node57</title>
<path fill="none" stroke="midnightblue" d="M214.282,-491.83C224.197,-455.271 250.491,-376.74 302,-334.5 307.979,-329.597 314.884,-325.655 322.126,-322.487"/>
<polygon fill="midnightblue" stroke="midnightblue" points="210.834,-491.184 211.721,-501.742 217.611,-492.935 210.834,-491.184"/>
</g>
<!-- Node58 -->
<g id="node21" class="node"><title>Node58</title>
<g id="a_node21"><a xlink:href="../../df/d09/classservices_1_1_tracing_http_client_impl.html#a2a4ebdef9cd37da3c11625013714992d" target="_top" xlink:title="services::TracingHttpClient\lImpl::DataReceived">
<polygon fill="white" stroke="black" points="322.5,-245.5 322.5,-275.5 454.5,-275.5 454.5,-245.5 322.5,-245.5"/>
<text text-anchor="start" x="330.5" y="-263.5" font-family="Helvetica,sans-Serif" font-size="10.00">services::TracingHttpClient</text>
<text text-anchor="middle" x="388.5" y="-252.5" font-family="Helvetica,sans-Serif" font-size="10.00">Impl::DataReceived</text>
</a>
</g>
</g>
<!-- Node39&#45;&gt;Node58 -->
<g id="edge20" class="edge"><title>Node39&#45;&gt;Node58</title>
<path fill="none" stroke="midnightblue" d="M211.835,-491.688C218.063,-447.872 239.127,-342.151 302,-285.5 307.86,-280.22 314.778,-276.052 322.1,-272.762"/>
<polygon fill="midnightblue" stroke="midnightblue" points="208.358,-491.28 210.528,-501.65 215.299,-492.191 208.358,-491.28"/>
</g>
<!-- Node59 -->
<g id="node22" class="node"><title>Node59</title>
<g id="a_node22"><a xlink:href="../../df/d09/classservices_1_1_tracing_http_client_impl.html#ab41cdb0f4439fc7acd89ec93a4db5de7" target="_top" xlink:title="services::TracingHttpClient\lImpl::Connected">
<polygon fill="white" stroke="black" points="322.5,-196.5 322.5,-226.5 454.5,-226.5 454.5,-196.5 322.5,-196.5"/>
<text text-anchor="start" x="330.5" y="-214.5" font-family="Helvetica,sans-Serif" font-size="10.00">services::TracingHttpClient</text>
<text text-anchor="middle" x="388.5" y="-203.5" font-family="Helvetica,sans-Serif" font-size="10.00">Impl::Connected</text>
</a>
</g>
</g>
<!-- Node39&#45;&gt;Node59 -->
<g id="edge21" class="edge"><title>Node39&#45;&gt;Node59</title>
<path fill="none" stroke="midnightblue" d="M210.184,-491.646C213.011,-441.387 227.526,-308.052 302,-236.5 307.799,-230.928 314.77,-226.589 322.197,-223.21"/>
<polygon fill="midnightblue" stroke="midnightblue" points="206.679,-491.658 209.713,-501.81 213.672,-491.982 206.679,-491.658"/>
</g>
<!-- Node60 -->
<g id="node23" class="node"><title>Node60</title>
<g id="a_node23"><a xlink:href="../../df/d09/classservices_1_1_tracing_http_client_impl.html#a46205f0da6b1c07e2a24709e0600c115" target="_top" xlink:title="services::TracingHttpClient\lImpl::ClosingConnection">
<polygon fill="white" stroke="black" points="322.5,-147.5 322.5,-177.5 454.5,-177.5 454.5,-147.5 322.5,-147.5"/>
<text text-anchor="start" x="330.5" y="-165.5" font-family="Helvetica,sans-Serif" font-size="10.00">services::TracingHttpClient</text>
<text text-anchor="middle" x="388.5" y="-154.5" font-family="Helvetica,sans-Serif" font-size="10.00">Impl::ClosingConnection</text>
</a>
</g>
</g>
<!-- Node39&#45;&gt;Node60 -->
<g id="edge22" class="edge"><title>Node39&#45;&gt;Node60</title>
<path fill="none" stroke="midnightblue" d="M208.995,-491.618C208.696,-435.489 215.774,-274.278 302,-187.5 307.777,-181.686 314.827,-177.207 322.375,-173.761"/>
<polygon fill="midnightblue" stroke="midnightblue" points="205.5,-491.987 209.145,-501.935 212.499,-491.885 205.5,-491.987"/>
</g>
<!-- Node61 -->
<g id="node24" class="node"><title>Node61</title>
<g id="a_node24"><a xlink:href="../../df/dbd/classservices_1_1_tracing_stream_reader.html#a39adcec02f721adb154832c16e43d232" target="_top" xlink:title="services::TracingStreamReader\l::Extract">
<polygon fill="white" stroke="black" points="312.5,-98.5 312.5,-128.5 464.5,-128.5 464.5,-98.5 312.5,-98.5"/>
<text text-anchor="start" x="320.5" y="-116.5" font-family="Helvetica,sans-Serif" font-size="10.00">services::TracingStreamReader</text>
<text text-anchor="middle" x="388.5" y="-105.5" font-family="Helvetica,sans-Serif" font-size="10.00">::Extract</text>
</a>
</g>
</g>
<!-- Node39&#45;&gt;Node61 -->
<g id="edge23" class="edge"><title>Node39&#45;&gt;Node61</title>
<path fill="none" stroke="midnightblue" d="M211.806,-491.731C220.289,-422.261 251.9,-190.717 302,-138.5 305.64,-134.706 309.822,-131.478 314.337,-128.734"/>
<polygon fill="midnightblue" stroke="midnightblue" points="208.318,-491.422 210.605,-501.767 215.268,-492.254 208.318,-491.422"/>
</g>
<!-- Node62 -->
<g id="node25" class="node"><title>Node62</title>
<g id="a_node25"><a xlink:href="../../df/dbd/classservices_1_1_tracing_stream_reader.html#a621b61dc781f18c75279a29198e65884" target="_top" xlink:title="services::TracingStreamReader\l::ExtractContiguousRange">
<polygon fill="white" stroke="black" points="312.5,-49.5 312.5,-79.5 464.5,-79.5 464.5,-49.5 312.5,-49.5"/>
<text text-anchor="start" x="320.5" y="-67.5" font-family="Helvetica,sans-Serif" font-size="10.00">services::TracingStreamReader</text>
<text text-anchor="middle" x="388.5" y="-56.5" font-family="Helvetica,sans-Serif" font-size="10.00">::ExtractContiguousRange</text>
</a>
</g>
</g>
<!-- Node39&#45;&gt;Node62 -->
<g id="edge24" class="edge"><title>Node39&#45;&gt;Node62</title>
<path fill="none" stroke="midnightblue" d="M211.203,-491.618C218.043,-416.28 245.892,-149.601 302,-89.5 305.588,-85.6564 309.732,-82.3928 314.219,-79.6229"/>
<polygon fill="midnightblue" stroke="midnightblue" points="207.71,-491.384 210.315,-501.654 214.683,-492.001 207.71,-491.384"/>
</g>
<!-- Node63 -->
<g id="node26" class="node"><title>Node63</title>
<g id="a_node26"><a xlink:href="../../d5/d53/classservices_1_1_tracing_status_http_client_impl.html#a292b80f4bf5ac17b93717cdb65bdedc4" target="_top" xlink:title="services::TracingStatusHttp\lClientImpl::StatusAvailable">
<polygon fill="white" stroke="black" points="320.5,-0.5 320.5,-30.5 456.5,-30.5 456.5,-0.5 320.5,-0.5"/>
<text text-anchor="start" x="328.5" y="-18.5" font-family="Helvetica,sans-Serif" font-size="10.00">services::TracingStatusHttp</text>
<text text-anchor="middle" x="388.5" y="-7.5" font-family="Helvetica,sans-Serif" font-size="10.00">ClientImpl::StatusAvailable</text>
</a>
</g>
</g>
<!-- Node39&#45;&gt;Node63 -->
<g id="edge25" class="edge"><title>Node39&#45;&gt;Node63</title>
<path fill="none" stroke="midnightblue" d="M210.696,-491.385C215.926,-410.143 239.385,-107.345 302,-39.5 307.124,-33.9484 313.418,-29.6428 320.248,-26.3095"/>
<polygon fill="midnightblue" stroke="midnightblue" points="207.182,-491.511 210.054,-501.709 214.168,-491.946 207.182,-491.511"/>
</g>
<!-- Node48 -->
<g id="node11" class="node"><title>Node48</title>
<g id="a_node11"><a xlink:href="../../d9/d36/classservices_1_1_tracing_connection_mbed_tls.html#ad1c84ac3e7a9d6b4b3c10448d2b8bb70" target="_top" xlink:title="services::TracingConnection\lMbedTls::TlsInitFailure">
<polygon fill="white" stroke="black" points="511,-731.5 511,-761.5 649,-761.5 649,-731.5 511,-731.5"/>
<text text-anchor="start" x="519" y="-749.5" font-family="Helvetica,sans-Serif" font-size="10.00">services::TracingConnection</text>
<text text-anchor="middle" x="580" y="-738.5" font-family="Helvetica,sans-Serif" font-size="10.00">MbedTls::TlsInitFailure</text>
</a>
</g>
</g>
<!-- Node47&#45;&gt;Node48 -->
<g id="edge10" class="edge"><title>Node47&#45;&gt;Node48</title>
<path fill="none" stroke="midnightblue" d="M457.371,-715.05C478.181,-720.431 500.876,-726.299 520.966,-731.494"/>
<polygon fill="midnightblue" stroke="midnightblue" points="458.202,-711.65 447.644,-712.535 456.449,-718.427 458.202,-711.65"/>
</g>
<!-- Node49 -->
<g id="node12" class="node"><title>Node49</title>
<g id="a_node12"><a xlink:href="../../d9/d36/classservices_1_1_tracing_connection_mbed_tls.html#a86daa5f30fef8c81eb983ce39737ab05" target="_top" xlink:title="services::TracingConnection\lMbedTls::TlsReadFailure">
<polygon fill="white" stroke="black" points="511,-682.5 511,-712.5 649,-712.5 649,-682.5 511,-682.5"/>
<text text-anchor="start" x="519" y="-700.5" font-family="Helvetica,sans-Serif" font-size="10.00">services::TracingConnection</text>
<text text-anchor="middle" x="580" y="-689.5" font-family="Helvetica,sans-Serif" font-size="10.00">MbedTls::TlsReadFailure</text>
</a>
</g>
</g>
<!-- Node47&#45;&gt;Node49 -->
<g id="edge11" class="edge"><title>Node47&#45;&gt;Node49</title>
<path fill="none" stroke="midnightblue" d="M467.908,-697.5C482.152,-697.5 496.903,-697.5 510.822,-697.5"/>
<polygon fill="midnightblue" stroke="midnightblue" points="467.646,-694 457.646,-697.5 467.646,-701 467.646,-694"/>
</g>
<!-- Node50 -->
<g id="node13" class="node"><title>Node50</title>
<g id="a_node13"><a xlink:href="../../d9/d36/classservices_1_1_tracing_connection_mbed_tls.html#a71315c4c6d5309ed22e8353ee522abc3" target="_top" xlink:title="services::TracingConnection\lMbedTls::TlsWriteFailure">
<polygon fill="white" stroke="black" points="511,-633.5 511,-663.5 649,-663.5 649,-633.5 511,-633.5"/>
<text text-anchor="start" x="519" y="-651.5" font-family="Helvetica,sans-Serif" font-size="10.00">services::TracingConnection</text>
<text text-anchor="middle" x="580" y="-640.5" font-family="Helvetica,sans-Serif" font-size="10.00">MbedTls::TlsWriteFailure</text>
</a>
</g>
</g>
<!-- Node47&#45;&gt;Node50 -->
<g id="edge12" class="edge"><title>Node47&#45;&gt;Node50</title>
<path fill="none" stroke="midnightblue" d="M457.371,-679.95C478.181,-674.569 500.876,-668.701 520.966,-663.506"/>
<polygon fill="midnightblue" stroke="midnightblue" points="456.449,-676.573 447.644,-682.465 458.202,-683.35 456.449,-676.573"/>
</g>
</g>
</svg>
        <g id="navigator" transform="translate(0 0)" fill="#404254">
                <rect fill="#f2f5e9" fill-opacity="0.5" stroke="#606060" stroke-width=".5" x="0" y="0" width="60" height="60"/>
                <use id="zoomplus" xlink:href="#zoomPlus" x="17" y="9" onmousedown="handleZoom(evt,'in')"/>
                <use id="zoomminus" xlink:href="#zoomMin" x="42" y="9" onmousedown="handleZoom(evt,'out')"/>
                <use id="reset" xlink:href="#resetDef" x="30" y="36" onmousedown="handleReset()"/>
                <g id="arrowUp" xlink:href="#dirArrow" transform="translate(30 24)" onmousedown="handlePan(0,-1)">
                  <use xlink:href="#rim" fill="#404040">
                        <set attributeName="fill" to="#808080" begin="arrowUp.mouseover" end="arrowUp.mouseout"/>
                  </use>
                  <path fill="none" stroke="white" stroke-width="1.5" d="M0,-3.0v7 M-2.5,-0.5L0,-3.0L2.5,-0.5"/>
                </g>
                <g id="arrowRight" xlink:href="#dirArrow" transform="rotate(90) translate(36 -43)" onmousedown="handlePan(1,0)">
                  <use xlink:href="#rim" fill="#404040">
                        <set attributeName="fill" to="#808080" begin="arrowRight.mouseover" end="arrowRight.mouseout"/>
                  </use>
                  <path fill="none" stroke="white" stroke-width="1.5" d="M0,-3.0v7 M-2.5,-0.5L0,-3.0L2.5,-0.5"/>
                </g>
                <g id="arrowDown" xlink:href="#dirArrow" transform="rotate(180) translate(-30 -48)" onmousedown="handlePan(0,1)">
                  <use xlink:href="#rim" fill="#404040">
                        <set attributeName="fill" to="#808080" begin="arrowDown.mouseover" end="arrowDown.mouseout"/>
                  </use>
                  <path fill="none" stroke="white" stroke-width="1.5" d="M0,-3.0v7 M-2.5,-0.5L0,-3.0L2.5,-0.5"/>
                </g>
                <g id="arrowLeft" xlink:href="#dirArrow" transform="rotate(270) translate(-36 17)" onmousedown="handlePan(-1,0)">
                  <use xlink:href="#rim" fill="#404040">
                        <set attributeName="fill" to="#808080" begin="arrowLeft.mouseover" end="arrowLeft.mouseout"/>
                  </use>
                  <path fill="none" stroke="white" stroke-width="1.5" d="M0,-3.0v7 M-2.5,-0.5L0,-3.0L2.5,-0.5"/>
                </g>
        </g>
        <svg viewBox="0 0 15 15" width="100%" height="30px" preserveAspectRatio="xMaxYMin meet">
         <g id="arrow_out" transform="scale(0.3 0.3)">
          <a xlink:href="classservices_1_1_tracer_a38963ac748f455f5439fd9e312273588_icgraph_org.svg" target="_base">
           <rect id="button" ry="5" rx="5" y="6" x="6" height="38" width="38"
                fill="#f2f5e9" fill-opacity="0.5" stroke="#606060" stroke-width="1.0"/>
           <path id="arrow"
             d="M 11.500037,31.436501 C 11.940474,20.09759 22.043105,11.32322 32.158766,21.979434 L 37.068811,17.246167 C 37.068811,17.246167 37.088388,32 37.088388,32 L 22.160133,31.978069 C 22.160133,31.978069 26.997745,27.140456 26.997745,27.140456 C 18.528582,18.264221 13.291696,25.230495 11.500037,31.436501 z"
             style="fill:#404040;"/>
          </a>
         </g>
        </svg>
</svg>
