<?xml version="1.0" encoding="UTF-8" standalone="no"?>
<!DOCTYPE svg PUBLIC "-//W3C//DTD SVG 1.1//EN"
 "http://www.w3.org/Graphics/SVG/1.1/DTD/svg11.dtd">
<!-- Generated by graphviz version 2.38.0 (20140413.2041)
 -->
<!-- Title: services::ConnectionSerial::StateInitSizeResponseRequest::SendWindowSizeResponseRequest Pages: 1 -->
<svg width="381pt" height="50pt"
 viewBox="0.00 0.00 381.00 50.00" xmlns="http://www.w3.org/2000/svg" xmlns:xlink="http://www.w3.org/1999/xlink">
<g id="graph0" class="graph" transform="scale(1 1) rotate(0) translate(4 46)">
<title>services::ConnectionSerial::StateInitSizeResponseRequest::SendWindowSizeResponseRequest</title>
<polygon fill="white" stroke="none" points="-4,4 -4,-46 377,-46 377,4 -4,4"/>
<!-- Node6 -->
<g id="node1" class="node"><title>Node6</title>
<polygon fill="#bfbfbf" stroke="black" points="0,-0.5 0,-41.5 179,-41.5 179,-0.5 0,-0.5"/>
<text text-anchor="start" x="8" y="-29.5" font-family="Helvetica,sans-Serif" font-size="10.00">services::ConnectionSerial</text>
<text text-anchor="start" x="8" y="-18.5" font-family="Helvetica,sans-Serif" font-size="10.00">::StateInitSizeResponseRequest</text>
<text text-anchor="middle" x="89.5" y="-7.5" font-family="Helvetica,sans-Serif" font-size="10.00">::SendWindowSizeResponseRequest</text>
</g>
<!-- Node7 -->
<g id="node2" class="node"><title>Node7</title>
<g id="a_node2"><a xlink:href="../../d4/d34/classservices_1_1_connection_serial_1_1_state_init_size_response_request.html#a7c744e27b000fb82fdb6513ee4c2fc21" target="_top" xlink:title="services::ConnectionSerial\l::StateInitSizeResponseRequest\l::StateInitSizeResponseRequest">
<polygon fill="white" stroke="black" points="215,-0.5 215,-41.5 373,-41.5 373,-0.5 215,-0.5"/>
<text text-anchor="start" x="223" y="-29.5" font-family="Helvetica,sans-Serif" font-size="10.00">services::ConnectionSerial</text>
<text text-anchor="start" x="223" y="-18.5" font-family="Helvetica,sans-Serif" font-size="10.00">::StateInitSizeResponseRequest</text>
<text text-anchor="middle" x="294" y="-7.5" font-family="Helvetica,sans-Serif" font-size="10.00">::StateInitSizeResponseRequest</text>
</a>
</g>
</g>
<!-- Node6&#45;&gt;Node7 -->
<g id="edge1" class="edge"><title>Node6&#45;&gt;Node7</title>
<path fill="none" stroke="midnightblue" d="M189.124,-21C197.749,-21 206.4,-21 214.826,-21"/>
<polygon fill="midnightblue" stroke="midnightblue" points="189.025,-17.5001 179.025,-21 189.025,-24.5001 189.025,-17.5001"/>
</g>
</g>
</svg>
