<?xml version="1.0" encoding="UTF-8" standalone="no"?>
<!DOCTYPE svg PUBLIC "-//W3C//DTD SVG 1.1//EN"
 "http://www.w3.org/Graphics/SVG/1.1/DTD/svg11.dtd">
<!-- Generated by graphviz version 2.38.0 (20140413.2041)
 -->
<!-- Title: infra::ClaimableResource::ClaimerBase::ClaimGranted Pages: 1 -->
<svg width="473pt" height="88pt"
 viewBox="0.00 0.00 473.00 88.00" xmlns="http://www.w3.org/2000/svg" xmlns:xlink="http://www.w3.org/1999/xlink">
<g id="graph0" class="graph" transform="scale(1 1) rotate(0) translate(4 84)">
<title>infra::ClaimableResource::ClaimerBase::ClaimGranted</title>
<polygon fill="white" stroke="none" points="-4,4 -4,-84 469,-84 469,4 -4,4"/>
<!-- Node8 -->
<g id="node1" class="node"><title>Node8</title>
<polygon fill="#bfbfbf" stroke="black" points="0,-24.5 0,-54.5 143,-54.5 143,-24.5 0,-24.5"/>
<text text-anchor="start" x="8" y="-42.5" font-family="Helvetica,sans-Serif" font-size="10.00">infra::ClaimableResource</text>
<text text-anchor="middle" x="71.5" y="-31.5" font-family="Helvetica,sans-Serif" font-size="10.00">::ClaimerBase::ClaimGranted</text>
</g>
<!-- Node9 -->
<g id="node2" class="node"><title>Node9</title>
<g id="a_node2"><a xlink:href="../../d0/d93/classinfra_1_1_claimable_resource.html#a3adbeebc85bacdddbb97a48154649021" target="_top" xlink:title="infra::ClaimableResource\l::ReEvaluateClaim">
<polygon fill="white" stroke="black" points="179,-24.5 179,-54.5 304,-54.5 304,-24.5 179,-24.5"/>
<text text-anchor="start" x="187" y="-42.5" font-family="Helvetica,sans-Serif" font-size="10.00">infra::ClaimableResource</text>
<text text-anchor="middle" x="241.5" y="-31.5" font-family="Helvetica,sans-Serif" font-size="10.00">::ReEvaluateClaim</text>
</a>
</g>
</g>
<!-- Node8&#45;&gt;Node9 -->
<g id="edge1" class="edge"><title>Node8&#45;&gt;Node9</title>
<path fill="none" stroke="midnightblue" d="M153.311,-39.5C161.909,-39.5 170.552,-39.5 178.878,-39.5"/>
<polygon fill="midnightblue" stroke="midnightblue" points="153.26,-36.0001 143.26,-39.5 153.26,-43.0001 153.26,-36.0001"/>
</g>
<!-- Node10 -->
<g id="node3" class="node"><title>Node10</title>
<g id="a_node3"><a xlink:href="../../d0/d93/classinfra_1_1_claimable_resource.html#af0c7794a3ed43ac41f1c657990b4f24e" target="_top" xlink:title="infra::ClaimableResource\l::AddClaim">
<polygon fill="white" stroke="black" points="340,-49.5 340,-79.5 465,-79.5 465,-49.5 340,-49.5"/>
<text text-anchor="start" x="348" y="-67.5" font-family="Helvetica,sans-Serif" font-size="10.00">infra::ClaimableResource</text>
<text text-anchor="middle" x="402.5" y="-56.5" font-family="Helvetica,sans-Serif" font-size="10.00">::AddClaim</text>
</a>
</g>
</g>
<!-- Node9&#45;&gt;Node10 -->
<g id="edge2" class="edge"><title>Node9&#45;&gt;Node10</title>
<path fill="none" stroke="midnightblue" d="M314.315,-50.7917C322.803,-52.1262 331.408,-53.4793 339.74,-54.7893"/>
<polygon fill="midnightblue" stroke="midnightblue" points="314.851,-47.333 304.429,-49.2372 313.764,-54.2481 314.851,-47.333"/>
</g>
<!-- Node11 -->
<g id="node4" class="node"><title>Node11</title>
<g id="a_node4"><a xlink:href="../../d0/d93/classinfra_1_1_claimable_resource.html#ad16fa9c6beff4ee4ce162a408ab8efe2" target="_top" xlink:title="infra::ClaimableResource\l::RemoveClaim">
<polygon fill="white" stroke="black" points="340,-0.5 340,-30.5 465,-30.5 465,-0.5 340,-0.5"/>
<text text-anchor="start" x="348" y="-18.5" font-family="Helvetica,sans-Serif" font-size="10.00">infra::ClaimableResource</text>
<text text-anchor="middle" x="402.5" y="-7.5" font-family="Helvetica,sans-Serif" font-size="10.00">::RemoveClaim</text>
</a>
</g>
</g>
<!-- Node9&#45;&gt;Node11 -->
<g id="edge3" class="edge"><title>Node9&#45;&gt;Node11</title>
<path fill="none" stroke="midnightblue" d="M314.592,-28.6182C322.99,-27.3506 331.499,-26.0662 339.74,-24.8222"/>
<polygon fill="midnightblue" stroke="midnightblue" points="313.794,-25.1988 304.429,-30.1523 314.839,-32.1204 313.794,-25.1988"/>
</g>
</g>
</svg>
