<?xml version="1.0" encoding="UTF-8" standalone="no"?>
<!DOCTYPE svg PUBLIC "-//W3C//DTD SVG 1.1//EN"
 "http://www.w3.org/Graphics/SVG/1.1/DTD/svg11.dtd">
<!-- Generated by graphviz version 2.38.0 (20140413.2041)
 -->
<!-- Title: infra::Timer Pages: 1 -->
<!--zoomable 246 -->
<svg id="main" version="1.1" xmlns="http://www.w3.org/2000/svg" xmlns:xlink="http://www.w3.org/1999/xlink" xml:space="preserve" onload="init(evt)">
<style type="text/css"><![CDATA[
.edge:hover path { stroke: red; }
.edge:hover polygon { stroke: red; fill: red; }
]]></style>
<script type="text/javascript"><![CDATA[
var edges = document.getElementsByTagName('g');
if (edges && edges.length) {
  for (var i=0;i<edges.length;i++) {
    if (edges[i].id.substr(0,4)=='edge') {
      edges[i].setAttribute('class','edge');
    }
  }
}
]]></script>
        <defs>
                <circle id="rim" cx="0" cy="0" r="7"/>
                <circle id="rim2" cx="0" cy="0" r="3.5"/>
                <g id="zoomPlus">
                        <use xlink:href="#rim" fill="#404040">
                                <set attributeName="fill" to="#808080" begin="zoomplus.mouseover" end="zoomplus.mouseout"/>
                        </use>
                        <path d="M-4,0h8M0,-4v8" fill="none" stroke="white" stroke-width="1.5" pointer-events="none"/>
                </g>
                <g id="zoomMin">
                        <use xlink:href="#rim" fill="#404040">
                                <set attributeName="fill" to="#808080" begin="zoomminus.mouseover" end="zoomminus.mouseout"/>
                        </use>
                        <path d="M-4,0h8" fill="none" stroke="white" stroke-width="1.5" pointer-events="none"/>
                </g>
                <g id="dirArrow">
                        <path fill="none" stroke="white" stroke-width="1.5" d="M0,-3.0v7 M-2.5,-0.5L0,-3.0L2.5,-0.5"/>
                </g>
               <g id="resetDef">
                       <use xlink:href="#rim2" fill="#404040">
                               <set attributeName="fill" to="#808080" begin="reset.mouseover" end="reset.mouseout"/>
                       </use>
               </g>
        </defs>

<script type="text/javascript">
var viewWidth = 810;
var viewHeight = 246;
var sectionId = 'dynsection-1';
</script>
<script xlink:href="../../svgpan.js"/>
<svg id="graph" class="graph">
<g id="viewport">
<title>infra::Timer</title>
<polygon fill="white" stroke="none" points="-4,4 -4,-242.235 806,-242.235 806,4 -4,4"/>
<!-- Node9 -->
<g id="node1" class="node"><title>Node9</title>
<polygon fill="#bfbfbf" stroke="black" points="737,-87.2346 737,-106.235 802,-106.235 802,-87.2346 737,-87.2346"/>
<text text-anchor="middle" x="769.5" y="-94.2346" font-family="Helvetica,sans-Serif" font-size="10.00">infra::Timer</text>
</g>
<!-- Node10 -->
<g id="node2" class="node"><title>Node10</title>
<g id="a_node2"><a xlink:href="../../d7/d4a/classinfra_1_1detail_1_1_intrusive_forward_list_node.html" target="_top" xlink:title="infra::IntrusiveForwardList\l\&lt; Timer \&gt;::NodeType">
<polygon fill="white" stroke="black" points="368,-207.735 368,-237.735 494,-237.735 494,-207.735 368,-207.735"/>
<text text-anchor="start" x="376" y="-225.735" font-family="Helvetica,sans-Serif" font-size="10.00">infra::IntrusiveForwardList</text>
<text text-anchor="middle" x="431" y="-214.735" font-family="Helvetica,sans-Serif" font-size="10.00">&lt; Timer &gt;::NodeType</text>
</a>
</g>
</g>
<!-- Node10&#45;&gt;Node9 -->
<g id="edge1" class="edge"><title>Node10&#45;&gt;Node9</title>
<path fill="none" stroke="midnightblue" d="M495.428,-204.786C554.458,-187.219 644.305,-158.263 719,-124.735 730.89,-119.398 743.679,-112.12 753.279,-106.322"/>
<polygon fill="midnightblue" stroke="midnightblue" points="494.099,-201.528 485.501,-207.719 496.083,-208.241 494.099,-201.528"/>
</g>
<!-- Node11 -->
<g id="node3" class="node"><title>Node11</title>
<polygon fill="white" stroke="#bfbfbf" points="0,-201.735 0,-231.735 125,-231.735 125,-201.735 0,-201.735"/>
<text text-anchor="start" x="8" y="-219.735" font-family="Helvetica,sans-Serif" font-size="10.00">IntrusiveForwardListNode</text>
<text text-anchor="middle" x="62.5" y="-208.735" font-family="Helvetica,sans-Serif" font-size="10.00">&lt; T &gt; *</text>
</g>
<!-- Node11&#45;&gt;Node10 -->
<g id="edge2" class="edge"><title>Node11&#45;&gt;Node10</title>
<path fill="none" stroke="#9a32cd" stroke-dasharray="5,2" d="M135.426,-217.912C203.193,-219.021 303.666,-220.666 367.989,-221.719"/>
<polygon fill="#9a32cd" stroke="#9a32cd" points="135.313,-214.41 125.257,-217.746 135.199,-221.409 135.313,-214.41"/>
<text text-anchor="middle" x="167.5" y="-221.735" font-family="Helvetica,sans-Serif" font-size="10.00"> next</text>
</g>
<!-- Node15 -->
<g id="node7" class="node"><title>Node15</title>
<g id="a_node7"><a xlink:href="../../d7/d4a/classinfra_1_1detail_1_1_intrusive_forward_list_node.html" target="_top" xlink:title="infra::IntrusiveForwardList\l\&lt; TimerService \&gt;::NodeType">
<polygon fill="white" stroke="black" points="210,-174.735 210,-204.735 350,-204.735 350,-174.735 210,-174.735"/>
<text text-anchor="start" x="218" y="-192.735" font-family="Helvetica,sans-Serif" font-size="10.00">infra::IntrusiveForwardList</text>
<text text-anchor="middle" x="280" y="-181.735" font-family="Helvetica,sans-Serif" font-size="10.00">&lt; TimerService &gt;::NodeType</text>
</a>
</g>
</g>
<!-- Node11&#45;&gt;Node15 -->
<g id="edge7" class="edge"><title>Node11&#45;&gt;Node15</title>
<path fill="none" stroke="#9a32cd" stroke-dasharray="5,2" d="M134.927,-201.945C137.649,-201.513 140.347,-201.108 143,-200.735 164.698,-197.684 188.472,-195.402 209.989,-193.732"/>
<polygon fill="#9a32cd" stroke="#9a32cd" points="134.29,-198.503 125.007,-203.611 135.449,-205.407 134.29,-198.503"/>
<text text-anchor="middle" x="167.5" y="-203.735" font-family="Helvetica,sans-Serif" font-size="10.00"> next</text>
</g>
<!-- Node12 -->
<g id="node4" class="node"><title>Node12</title>
<g id="a_node4"><a xlink:href="../../da/d07/classinfra_1_1_function.html" target="_top" xlink:title="infra::Function\&lt; void()\&gt;">
<polygon fill="white" stroke="black" points="512,-69.2346 512,-88.2346 628,-88.2346 628,-69.2346 512,-69.2346"/>
<text text-anchor="middle" x="570" y="-76.2346" font-family="Helvetica,sans-Serif" font-size="10.00">infra::Function&lt; void()&gt;</text>
</a>
</g>
</g>
<!-- Node12&#45;&gt;Node9 -->
<g id="edge3" class="edge"><title>Node12&#45;&gt;Node9</title>
<path fill="none" stroke="#9a32cd" stroke-dasharray="5,2" d="M638.513,-76.2266C663.886,-76.2981 692.899,-77.5959 719,-81.7346 726.539,-82.9299 734.528,-84.9851 741.838,-87.1974"/>
<polygon fill="#9a32cd" stroke="#9a32cd" points="638.237,-72.7275 628.25,-76.2627 638.262,-79.7274 638.237,-72.7275"/>
<text text-anchor="middle" x="682.5" y="-84.7346" font-family="Helvetica,sans-Serif" font-size="10.00"> action</text>
</g>
<!-- Node13 -->
<g id="node5" class="node"><title>Node13</title>
<polygon fill="white" stroke="#bfbfbf" points="519,-31.2346 519,-50.2346 621,-50.2346 621,-31.2346 519,-31.2346"/>
<text text-anchor="middle" x="570" y="-38.2346" font-family="Helvetica,sans-Serif" font-size="10.00">array&lt; uint32_t, 2 &gt;</text>
</g>
<!-- Node13&#45;&gt;Node9 -->
<g id="edge4" class="edge"><title>Node13&#45;&gt;Node9</title>
<path fill="none" stroke="#9a32cd" stroke-dasharray="5,2" d="M631.435,-42.8406C658.93,-45.4147 691.412,-50.7732 719,-61.7346 733.867,-67.6418 748.53,-78.8731 757.99,-87.0236"/>
<polygon fill="#9a32cd" stroke="#9a32cd" points="631.418,-39.3272 621.162,-41.9845 630.837,-46.303 631.418,-39.3272"/>
<text text-anchor="middle" x="682.5" y="-64.7346" font-family="Helvetica,sans-Serif" font-size="10.00"> nextTriggerTime</text>
</g>
<!-- Node14 -->
<g id="node6" class="node"><title>Node14</title>
<g id="a_node6"><a xlink:href="../../da/def/classinfra_1_1_timer_service.html" target="_top" xlink:title="infra::TimerService">
<polygon fill="white" stroke="black" points="522,-107.235 522,-126.235 618,-126.235 618,-107.235 522,-107.235"/>
<text text-anchor="middle" x="570" y="-114.235" font-family="Helvetica,sans-Serif" font-size="10.00">infra::TimerService</text>
</a>
</g>
</g>
<!-- Node14&#45;&gt;Node9 -->
<g id="edge5" class="edge"><title>Node14&#45;&gt;Node9</title>
<path fill="none" stroke="#9a32cd" stroke-dasharray="5,2" d="M628.257,-110.936C663.639,-107.353 707.708,-102.891 736.901,-99.9345"/>
<polygon fill="#9a32cd" stroke="#9a32cd" points="627.652,-107.48 618.055,-111.969 628.357,-114.444 627.652,-107.48"/>
<text text-anchor="middle" x="682.5" y="-112.735" font-family="Helvetica,sans-Serif" font-size="10.00"> timerService</text>
</g>
<!-- Node15&#45;&gt;Node14 -->
<g id="edge6" class="edge"><title>Node15&#45;&gt;Node14</title>
<path fill="none" stroke="midnightblue" d="M360.313,-180.587C400.907,-174.656 450.752,-165.425 494,-151.735 514.685,-145.186 537.062,-134.186 551.938,-126.264"/>
<polygon fill="midnightblue" stroke="midnightblue" points="359.609,-177.152 350.202,-182.025 360.595,-184.082 359.609,-177.152"/>
</g>
<!-- Node16 -->
<g id="node8" class="node"><title>Node16</title>
<polygon fill="white" stroke="#bfbfbf" points="249,-136.235 249,-155.235 311,-155.235 311,-136.235 249,-136.235"/>
<text text-anchor="middle" x="280" y="-143.235" font-family="Helvetica,sans-Serif" font-size="10.00">time_point</text>
</g>
<!-- Node16&#45;&gt;Node14 -->
<g id="edge8" class="edge"><title>Node16&#45;&gt;Node14</title>
<path fill="none" stroke="#9a32cd" stroke-dasharray="5,2" d="M320.982,-141.709C373.626,-136.408 466.041,-127.102 521.979,-121.469"/>
<polygon fill="#9a32cd" stroke="#9a32cd" points="320.605,-138.229 311.006,-142.713 321.306,-145.194 320.605,-138.229"/>
<text text-anchor="middle" x="431" y="-139.735" font-family="Helvetica,sans-Serif" font-size="10.00"> nextTrigger</text>
</g>
<!-- Node17 -->
<g id="node9" class="node"><title>Node17</title>
<g id="a_node9"><a xlink:href="../../d3/d66/classinfra_1_1_intrusive_forward_list.html" target="_top" xlink:title="infra::IntrusiveForwardList\l\&lt; infra::Timer \&gt;">
<polygon fill="white" stroke="black" points="217,-86.7346 217,-116.735 343,-116.735 343,-86.7346 217,-86.7346"/>
<text text-anchor="start" x="225" y="-104.735" font-family="Helvetica,sans-Serif" font-size="10.00">infra::IntrusiveForwardList</text>
<text text-anchor="middle" x="280" y="-93.7346" font-family="Helvetica,sans-Serif" font-size="10.00">&lt; infra::Timer &gt;</text>
</a>
</g>
</g>
<!-- Node17&#45;&gt;Node14 -->
<g id="edge9" class="edge"><title>Node17&#45;&gt;Node14</title>
<path fill="none" stroke="#9a32cd" stroke-dasharray="5,2" d="M353.384,-98.2029C394.68,-97.0709 447.354,-97.1157 494,-101.735 505.364,-102.86 517.557,-104.922 528.739,-107.164"/>
<polygon fill="#9a32cd" stroke="#9a32cd" points="353.029,-94.7119 343.14,-98.5139 353.242,-101.709 353.029,-94.7119"/>
<text text-anchor="middle" x="431" y="-115.735" font-family="Helvetica,sans-Serif" font-size="10.00"> timerIterator</text>
<text text-anchor="middle" x="431" y="-104.735" font-family="Helvetica,sans-Serif" font-size="10.00">scheduledTimers</text>
</g>
<!-- Node18 -->
<g id="node10" class="node"><title>Node18</title>
<g id="a_node10"><a xlink:href="../../d7/d4a/classinfra_1_1detail_1_1_intrusive_forward_list_node.html" target="_top" xlink:title="infra::detail::Intrusive\lForwardListNode\&lt; infra\l::Timer \&gt;">
<polygon fill="white" stroke="black" points="4.5,-81.2346 4.5,-122.235 120.5,-122.235 120.5,-81.2346 4.5,-81.2346"/>
<text text-anchor="start" x="12.5" y="-110.235" font-family="Helvetica,sans-Serif" font-size="10.00">infra::detail::Intrusive</text>
<text text-anchor="start" x="12.5" y="-99.2346" font-family="Helvetica,sans-Serif" font-size="10.00">ForwardListNode&lt; infra</text>
<text text-anchor="middle" x="62.5" y="-88.2346" font-family="Helvetica,sans-Serif" font-size="10.00">::Timer &gt;</text>
</a>
</g>
</g>
<!-- Node18&#45;&gt;Node17 -->
<g id="edge10" class="edge"><title>Node18&#45;&gt;Node17</title>
<path fill="none" stroke="#9a32cd" stroke-dasharray="5,2" d="M130.962,-101.735C158.344,-101.735 189.781,-101.735 216.622,-101.735"/>
<polygon fill="#9a32cd" stroke="#9a32cd" points="130.684,-98.2347 120.684,-101.735 130.684,-105.235 130.684,-98.2347"/>
<text text-anchor="middle" x="167.5" y="-104.735" font-family="Helvetica,sans-Serif" font-size="10.00"> beginNode</text>
</g>
<!-- Node18&#45;&gt;Node18 -->
<g id="edge11" class="edge"><title>Node18&#45;&gt;Node18</title>
<path fill="none" stroke="#9a32cd" stroke-dasharray="5,2" d="M44.6074,-132.591C47.2682,-137.431 53.2324,-140.735 62.5,-140.735 77.3281,-140.735 83.6996,-132.278 81.6144,-122.599"/>
<polygon fill="#9a32cd" stroke="#9a32cd" points="48.0736,-132.1 43.3856,-122.599 41.1254,-132.95 48.0736,-132.1"/>
<text text-anchor="middle" x="62.5" y="-143.735" font-family="Helvetica,sans-Serif" font-size="10.00"> next</text>
</g>
<!-- Node19 -->
<g id="node11" class="node"><title>Node19</title>
<polygon fill="white" stroke="#bfbfbf" points="254.5,-48.2346 254.5,-67.2346 305.5,-67.2346 305.5,-48.2346 254.5,-48.2346"/>
<text text-anchor="middle" x="280" y="-55.2346" font-family="Helvetica,sans-Serif" font-size="10.00">uint32_t</text>
</g>
<!-- Node19&#45;&gt;Node14 -->
<g id="edge12" class="edge"><title>Node19&#45;&gt;Node14</title>
<path fill="none" stroke="#9a32cd" stroke-dasharray="5,2" d="M315.871,-55.8749C359.383,-54.8645 435.217,-57.4797 494,-82.7346 503.568,-86.8453 502.903,-92.6668 512,-97.7346 518.652,-101.44 526.146,-104.577 533.459,-107.169"/>
<polygon fill="#9a32cd" stroke="#9a32cd" points="315.682,-52.379 305.795,-56.1881 315.899,-59.3756 315.682,-52.379"/>
<text text-anchor="middle" x="431" y="-85.7346" font-family="Helvetica,sans-Serif" font-size="10.00"> id</text>
</g>
<!-- Node20 -->
<g id="node12" class="node"><title>Node20</title>
<polygon fill="white" stroke="#bfbfbf" points="262.5,-7.23457 262.5,-26.2346 297.5,-26.2346 297.5,-7.23457 262.5,-7.23457"/>
<text text-anchor="middle" x="280" y="-14.2346" font-family="Helvetica,sans-Serif" font-size="10.00">bool</text>
</g>
<!-- Node20&#45;&gt;Node14 -->
<g id="edge13" class="edge"><title>Node20&#45;&gt;Node14</title>
<path fill="none" stroke="#9a32cd" stroke-dasharray="5,2" d="M307.677,-9.76848C351.832,0.0322254 440.533,12.1629 494,-31.7346 517.499,-51.0278 491.105,-75.647 512,-97.7346 515.656,-101.599 520.117,-104.678 524.918,-107.131"/>
<polygon fill="#9a32cd" stroke="#9a32cd" points="306.642,-6.41643 297.708,-12.1125 308.244,-13.2306 306.642,-6.41643"/>
<text text-anchor="middle" x="431" y="-45.7346" font-family="Helvetica,sans-Serif" font-size="10.00"> holdUpdate</text>
<text text-anchor="middle" x="431" y="-34.7346" font-family="Helvetica,sans-Serif" font-size="10.00">updateNeeded</text>
</g>
</g>
</svg>
        <g id="navigator" transform="translate(0 0)" fill="#404254">
                <rect fill="#f2f5e9" fill-opacity="0.5" stroke="#606060" stroke-width=".5" x="0" y="0" width="60" height="60"/>
                <use id="zoomplus" xlink:href="#zoomPlus" x="17" y="9" onmousedown="handleZoom(evt,'in')"/>
                <use id="zoomminus" xlink:href="#zoomMin" x="42" y="9" onmousedown="handleZoom(evt,'out')"/>
                <use id="reset" xlink:href="#resetDef" x="30" y="36" onmousedown="handleReset()"/>
                <g id="arrowUp" xlink:href="#dirArrow" transform="translate(30 24)" onmousedown="handlePan(0,-1)">
                  <use xlink:href="#rim" fill="#404040">
                        <set attributeName="fill" to="#808080" begin="arrowUp.mouseover" end="arrowUp.mouseout"/>
                  </use>
                  <path fill="none" stroke="white" stroke-width="1.5" d="M0,-3.0v7 M-2.5,-0.5L0,-3.0L2.5,-0.5"/>
                </g>
                <g id="arrowRight" xlink:href="#dirArrow" transform="rotate(90) translate(36 -43)" onmousedown="handlePan(1,0)">
                  <use xlink:href="#rim" fill="#404040">
                        <set attributeName="fill" to="#808080" begin="arrowRight.mouseover" end="arrowRight.mouseout"/>
                  </use>
                  <path fill="none" stroke="white" stroke-width="1.5" d="M0,-3.0v7 M-2.5,-0.5L0,-3.0L2.5,-0.5"/>
                </g>
                <g id="arrowDown" xlink:href="#dirArrow" transform="rotate(180) translate(-30 -48)" onmousedown="handlePan(0,1)">
                  <use xlink:href="#rim" fill="#404040">
                        <set attributeName="fill" to="#808080" begin="arrowDown.mouseover" end="arrowDown.mouseout"/>
                  </use>
                  <path fill="none" stroke="white" stroke-width="1.5" d="M0,-3.0v7 M-2.5,-0.5L0,-3.0L2.5,-0.5"/>
                </g>
                <g id="arrowLeft" xlink:href="#dirArrow" transform="rotate(270) translate(-36 17)" onmousedown="handlePan(-1,0)">
                  <use xlink:href="#rim" fill="#404040">
                        <set attributeName="fill" to="#808080" begin="arrowLeft.mouseover" end="arrowLeft.mouseout"/>
                  </use>
                  <path fill="none" stroke="white" stroke-width="1.5" d="M0,-3.0v7 M-2.5,-0.5L0,-3.0L2.5,-0.5"/>
                </g>
        </g>
        <svg viewBox="0 0 15 15" width="100%" height="30px" preserveAspectRatio="xMaxYMin meet">
         <g id="arrow_out" transform="scale(0.3 0.3)">
          <a xlink:href="classinfra_1_1_timer__coll__graph_org.svg" target="_base">
           <rect id="button" ry="5" rx="5" y="6" x="6" height="38" width="38"
                fill="#f2f5e9" fill-opacity="0.5" stroke="#606060" stroke-width="1.0"/>
           <path id="arrow"
             d="M 11.500037,31.436501 C 11.940474,20.09759 22.043105,11.32322 32.158766,21.979434 L 37.068811,17.246167 C 37.068811,17.246167 37.088388,32 37.088388,32 L 22.160133,31.978069 C 22.160133,31.978069 26.997745,27.140456 26.997745,27.140456 C 18.528582,18.264221 13.291696,25.230495 11.500037,31.436501 z"
             style="fill:#404040;"/>
          </a>
         </g>
        </svg>
</svg>
