<?xml version="1.0" encoding="UTF-8" standalone="no"?>
<!DOCTYPE svg PUBLIC "-//W3C//DTD SVG 1.1//EN"
 "http://www.w3.org/Graphics/SVG/1.1/DTD/svg11.dtd">
<!-- Generated by graphviz version 2.38.0 (20140413.2041)
 -->
<!-- Title: infra::JsonSubArrayParser::Feed Pages: 1 -->
<!--zoomable 578 -->
<svg id="main" version="1.1" xmlns="http://www.w3.org/2000/svg" xmlns:xlink="http://www.w3.org/1999/xlink" xml:space="preserve" onload="init(evt)">
<style type="text/css"><![CDATA[
.edge:hover path { stroke: red; }
.edge:hover polygon { stroke: red; fill: red; }
]]></style>
<script type="text/javascript"><![CDATA[
var edges = document.getElementsByTagName('g');
if (edges && edges.length) {
  for (var i=0;i<edges.length;i++) {
    if (edges[i].id.substr(0,4)=='edge') {
      edges[i].setAttribute('class','edge');
    }
  }
}
]]></script>
        <defs>
                <circle id="rim" cx="0" cy="0" r="7"/>
                <circle id="rim2" cx="0" cy="0" r="3.5"/>
                <g id="zoomPlus">
                        <use xlink:href="#rim" fill="#404040">
                                <set attributeName="fill" to="#808080" begin="zoomplus.mouseover" end="zoomplus.mouseout"/>
                        </use>
                        <path d="M-4,0h8M0,-4v8" fill="none" stroke="white" stroke-width="1.5" pointer-events="none"/>
                </g>
                <g id="zoomMin">
                        <use xlink:href="#rim" fill="#404040">
                                <set attributeName="fill" to="#808080" begin="zoomminus.mouseover" end="zoomminus.mouseout"/>
                        </use>
                        <path d="M-4,0h8" fill="none" stroke="white" stroke-width="1.5" pointer-events="none"/>
                </g>
                <g id="dirArrow">
                        <path fill="none" stroke="white" stroke-width="1.5" d="M0,-3.0v7 M-2.5,-0.5L0,-3.0L2.5,-0.5"/>
                </g>
               <g id="resetDef">
                       <use xlink:href="#rim2" fill="#404040">
                               <set attributeName="fill" to="#808080" begin="reset.mouseover" end="reset.mouseout"/>
                       </use>
               </g>
        </defs>

<script type="text/javascript">
var viewWidth = 760;
var viewHeight = 578;
var sectionId = 'dynsection-2';
</script>
<script xlink:href="../../svgpan.js"/>
<svg id="graph" class="graph">
<g id="viewport">
<title>infra::JsonSubArrayParser::Feed</title>
<polygon fill="white" stroke="none" points="-4,4 -4,-574 756,-574 756,4 -4,4"/>
<!-- Node4 -->
<g id="node1" class="node"><title>Node4</title>
<polygon fill="#bfbfbf" stroke="black" points="0,-269.5 0,-299.5 130,-299.5 130,-269.5 0,-269.5"/>
<text text-anchor="start" x="8" y="-287.5" font-family="Helvetica,sans-Serif" font-size="10.00">infra::JsonSubArrayParser</text>
<text text-anchor="middle" x="65" y="-276.5" font-family="Helvetica,sans-Serif" font-size="10.00">::Feed</text>
</g>
<!-- Node5 -->
<g id="node2" class="node"><title>Node5</title>
<g id="a_node2"><a xlink:href="../../d1/d2a/classinfra_1_1_bounded_string_base.html#a997d5df64b1649389d4bf107c2a91cb4" target="_top" xlink:title="infra::BoundedStringBase\l::clear">
<polygon fill="white" stroke="black" points="166,-539.5 166,-569.5 293,-569.5 293,-539.5 166,-539.5"/>
<text text-anchor="start" x="174" y="-557.5" font-family="Helvetica,sans-Serif" font-size="10.00">infra::BoundedStringBase</text>
<text text-anchor="middle" x="229.5" y="-546.5" font-family="Helvetica,sans-Serif" font-size="10.00">::clear</text>
</a>
</g>
</g>
<!-- Node4&#45;&gt;Node5 -->
<g id="edge1" class="edge"><title>Node4&#45;&gt;Node5</title>
<path fill="none" stroke="midnightblue" d="M67.9181,-299.509C74.0885,-341.764 97.208,-463.034 166,-530.5 167.089,-531.568 168.231,-532.59 169.417,-533.567"/>
<polygon fill="midnightblue" stroke="midnightblue" points="167.592,-536.561 177.801,-539.392 171.586,-530.812 167.592,-536.561"/>
</g>
<!-- Node6 -->
<g id="node3" class="node"><title>Node6</title>
<g id="a_node3"><a xlink:href="../../da/d3e/classinfra_1_1_json_array_visitor.html#ab9173695552dfa9d346bb8f596d003f9" target="_top" xlink:title="infra::JsonArrayVisitor\l::Close">
<polygon fill="white" stroke="black" points="173.5,-490.5 173.5,-520.5 285.5,-520.5 285.5,-490.5 173.5,-490.5"/>
<text text-anchor="start" x="181.5" y="-508.5" font-family="Helvetica,sans-Serif" font-size="10.00">infra::JsonArrayVisitor</text>
<text text-anchor="middle" x="229.5" y="-497.5" font-family="Helvetica,sans-Serif" font-size="10.00">::Close</text>
</a>
</g>
</g>
<!-- Node4&#45;&gt;Node6 -->
<g id="edge2" class="edge"><title>Node4&#45;&gt;Node6</title>
<path fill="none" stroke="midnightblue" d="M69.649,-299.63C79.179,-336.034 108.18,-429.353 166,-481.5 167.305,-482.677 168.675,-483.799 170.096,-484.869"/>
<polygon fill="midnightblue" stroke="midnightblue" points="168.417,-487.951 178.718,-490.43 172.212,-482.068 168.417,-487.951"/>
</g>
<!-- Node7 -->
<g id="node4" class="node"><title>Node7</title>
<g id="a_node4"><a xlink:href="../../dd/d09/classinfra_1_1_json_sub_parser.html#afb1b7fbe41c26db6aef05316d9508caf" target="_top" xlink:title="infra::JsonSubParser\l::FeedToken">
<polygon fill="white" stroke="black" points="176,-441.5 176,-471.5 283,-471.5 283,-441.5 176,-441.5"/>
<text text-anchor="start" x="184" y="-459.5" font-family="Helvetica,sans-Serif" font-size="10.00">infra::JsonSubParser</text>
<text text-anchor="middle" x="229.5" y="-448.5" font-family="Helvetica,sans-Serif" font-size="10.00">::FeedToken</text>
</a>
</g>
</g>
<!-- Node4&#45;&gt;Node7 -->
<g id="edge3" class="edge"><title>Node4&#45;&gt;Node7</title>
<path fill="none" stroke="midnightblue" d="M72.4685,-299.751C85.7609,-329.375 118.906,-395.066 166,-432.5 167.604,-433.775 169.283,-434.988 171.019,-436.141"/>
<polygon fill="midnightblue" stroke="midnightblue" points="169.694,-439.42 180.098,-441.427 173.217,-433.371 169.694,-439.42"/>
</g>
<!-- Node12 -->
<g id="node9" class="node"><title>Node12</title>
<g id="a_node9"><a xlink:href="../../dd/d09/classinfra_1_1_json_sub_parser.html#a4e5ca6369c34898a73500dc7cd98b9fd" target="_top" xlink:title="infra::JsonSubParser\l::ReportParseError">
<polygon fill="white" stroke="black" points="176,-392.5 176,-422.5 283,-422.5 283,-392.5 176,-392.5"/>
<text text-anchor="start" x="184" y="-410.5" font-family="Helvetica,sans-Serif" font-size="10.00">infra::JsonSubParser</text>
<text text-anchor="middle" x="229.5" y="-399.5" font-family="Helvetica,sans-Serif" font-size="10.00">::ReportParseError</text>
</a>
</g>
</g>
<!-- Node4&#45;&gt;Node12 -->
<g id="edge11" class="edge"><title>Node4&#45;&gt;Node12</title>
<path fill="none" stroke="midnightblue" d="M77.7289,-299.542C95.0122,-320.825 129.267,-359.773 166,-383.5 168.426,-385.067 170.969,-386.555 173.585,-387.967"/>
<polygon fill="midnightblue" stroke="midnightblue" points="172.173,-391.173 182.689,-392.465 175.274,-384.897 172.173,-391.173"/>
</g>
<!-- Node13 -->
<g id="node10" class="node"><title>Node13</title>
<g id="a_node10"><a xlink:href="../../dd/d09/classinfra_1_1_json_sub_parser.html#a38620cfd08cb25cf91e91b109b7238f4" target="_top" xlink:title="infra::JsonSubParser\l::ReportSemanticError">
<polygon fill="white" stroke="black" points="173,-343.5 173,-373.5 286,-373.5 286,-343.5 173,-343.5"/>
<text text-anchor="start" x="181" y="-361.5" font-family="Helvetica,sans-Serif" font-size="10.00">infra::JsonSubParser</text>
<text text-anchor="middle" x="229.5" y="-350.5" font-family="Helvetica,sans-Serif" font-size="10.00">::ReportSemanticError</text>
</a>
</g>
</g>
<!-- Node4&#45;&gt;Node13 -->
<g id="edge12" class="edge"><title>Node4&#45;&gt;Node13</title>
<path fill="none" stroke="midnightblue" d="M94.5295,-299.69C114.345,-310.011 141.489,-323.697 166,-334.5 169.889,-336.214 173.942,-337.928 178.032,-339.607"/>
<polygon fill="midnightblue" stroke="midnightblue" points="177.003,-342.965 187.587,-343.445 179.612,-336.47 177.003,-342.965"/>
</g>
<!-- Node14 -->
<g id="node11" class="node"><title>Node14</title>
<g id="a_node11"><a xlink:href="../../da/d3e/classinfra_1_1_json_array_visitor.html#acf2e6df52149dfd7390f36c286bcddd0" target="_top" xlink:title="infra::JsonArrayVisitor\l::StringOverflow">
<polygon fill="white" stroke="black" points="173.5,-294.5 173.5,-324.5 285.5,-324.5 285.5,-294.5 173.5,-294.5"/>
<text text-anchor="start" x="181.5" y="-312.5" font-family="Helvetica,sans-Serif" font-size="10.00">infra::JsonArrayVisitor</text>
<text text-anchor="middle" x="229.5" y="-301.5" font-family="Helvetica,sans-Serif" font-size="10.00">::StringOverflow</text>
</a>
</g>
</g>
<!-- Node4&#45;&gt;Node14 -->
<g id="edge13" class="edge"><title>Node4&#45;&gt;Node14</title>
<path fill="none" stroke="midnightblue" d="M130.224,-294.381C141.16,-296.063 152.526,-297.812 163.482,-299.497"/>
<polygon fill="midnightblue" stroke="midnightblue" points="162.988,-302.962 173.403,-301.024 164.052,-296.044 162.988,-302.962"/>
</g>
<!-- Node15 -->
<g id="node12" class="node"><title>Node15</title>
<g id="a_node12"><a xlink:href="../../da/d3e/classinfra_1_1_json_array_visitor.html#a3a319042f9aeeb8aada3f580d246815e" target="_top" xlink:title="infra::JsonArrayVisitor\l::VisitArray">
<polygon fill="white" stroke="black" points="173.5,-245.5 173.5,-275.5 285.5,-275.5 285.5,-245.5 173.5,-245.5"/>
<text text-anchor="start" x="181.5" y="-263.5" font-family="Helvetica,sans-Serif" font-size="10.00">infra::JsonArrayVisitor</text>
<text text-anchor="middle" x="229.5" y="-252.5" font-family="Helvetica,sans-Serif" font-size="10.00">::VisitArray</text>
</a>
</g>
</g>
<!-- Node4&#45;&gt;Node15 -->
<g id="edge14" class="edge"><title>Node4&#45;&gt;Node15</title>
<path fill="none" stroke="midnightblue" d="M130.224,-275.015C141.16,-273.399 152.526,-271.721 163.482,-270.103"/>
<polygon fill="midnightblue" stroke="midnightblue" points="164.022,-273.561 173.403,-268.637 162.999,-266.636 164.022,-273.561"/>
</g>
<!-- Node16 -->
<g id="node13" class="node"><title>Node16</title>
<g id="a_node13"><a xlink:href="../../da/d3e/classinfra_1_1_json_array_visitor.html#a739334b06ce80479ffa0a5feaea266bc" target="_top" xlink:title="infra::JsonArrayVisitor\l::VisitBoolean">
<polygon fill="white" stroke="black" points="173.5,-196.5 173.5,-226.5 285.5,-226.5 285.5,-196.5 173.5,-196.5"/>
<text text-anchor="start" x="181.5" y="-214.5" font-family="Helvetica,sans-Serif" font-size="10.00">infra::JsonArrayVisitor</text>
<text text-anchor="middle" x="229.5" y="-203.5" font-family="Helvetica,sans-Serif" font-size="10.00">::VisitBoolean</text>
</a>
</g>
</g>
<!-- Node4&#45;&gt;Node16 -->
<g id="edge15" class="edge"><title>Node4&#45;&gt;Node16</title>
<path fill="none" stroke="midnightblue" d="M95.9507,-269.476C115.691,-259.735 142.199,-246.959 166,-236.5 170.629,-234.466 175.479,-232.405 180.342,-230.385"/>
<polygon fill="midnightblue" stroke="midnightblue" points="181.731,-233.599 189.657,-226.568 179.077,-227.121 181.731,-233.599"/>
</g>
<!-- Node17 -->
<g id="node14" class="node"><title>Node17</title>
<g id="a_node14"><a xlink:href="../../da/d3e/classinfra_1_1_json_array_visitor.html#a1ddb20d8cfb01592b03a7a719b215a61" target="_top" xlink:title="infra::JsonArrayVisitor\l::VisitNull">
<polygon fill="white" stroke="black" points="173.5,-147.5 173.5,-177.5 285.5,-177.5 285.5,-147.5 173.5,-147.5"/>
<text text-anchor="start" x="181.5" y="-165.5" font-family="Helvetica,sans-Serif" font-size="10.00">infra::JsonArrayVisitor</text>
<text text-anchor="middle" x="229.5" y="-154.5" font-family="Helvetica,sans-Serif" font-size="10.00">::VisitNull</text>
</a>
</g>
</g>
<!-- Node4&#45;&gt;Node17 -->
<g id="edge16" class="edge"><title>Node4&#45;&gt;Node17</title>
<path fill="none" stroke="midnightblue" d="M78.1333,-269.497C95.6425,-248.671 129.879,-210.926 166,-187.5 168.932,-185.598 172.033,-183.8 175.221,-182.106"/>
<polygon fill="midnightblue" stroke="midnightblue" points="176.942,-185.161 184.377,-177.613 173.858,-178.877 176.942,-185.161"/>
</g>
<!-- Node18 -->
<g id="node15" class="node"><title>Node18</title>
<g id="a_node15"><a xlink:href="../../da/d3e/classinfra_1_1_json_array_visitor.html#a9cb6a95a8361425fbe5b1329d64e953a" target="_top" xlink:title="infra::JsonArrayVisitor\l::VisitNumber">
<polygon fill="white" stroke="black" points="173.5,-98.5 173.5,-128.5 285.5,-128.5 285.5,-98.5 173.5,-98.5"/>
<text text-anchor="start" x="181.5" y="-116.5" font-family="Helvetica,sans-Serif" font-size="10.00">infra::JsonArrayVisitor</text>
<text text-anchor="middle" x="229.5" y="-105.5" font-family="Helvetica,sans-Serif" font-size="10.00">::VisitNumber</text>
</a>
</g>
</g>
<!-- Node4&#45;&gt;Node18 -->
<g id="edge17" class="edge"><title>Node4&#45;&gt;Node18</title>
<path fill="none" stroke="midnightblue" d="M72.7798,-269.061C86.3851,-239.729 119.722,-175.571 166,-138.5 168.075,-136.838 170.275,-135.274 172.561,-133.803"/>
<polygon fill="midnightblue" stroke="midnightblue" points="174.765,-136.576 181.724,-128.587 171.302,-130.492 174.765,-136.576"/>
</g>
<!-- Node19 -->
<g id="node16" class="node"><title>Node19</title>
<g id="a_node16"><a xlink:href="../../da/d3e/classinfra_1_1_json_array_visitor.html#a074244e53535860c6a20532ba0a47db6" target="_top" xlink:title="infra::JsonArrayVisitor\l::VisitObject">
<polygon fill="white" stroke="black" points="173.5,-49.5 173.5,-79.5 285.5,-79.5 285.5,-49.5 173.5,-49.5"/>
<text text-anchor="start" x="181.5" y="-67.5" font-family="Helvetica,sans-Serif" font-size="10.00">infra::JsonArrayVisitor</text>
<text text-anchor="middle" x="229.5" y="-56.5" font-family="Helvetica,sans-Serif" font-size="10.00">::VisitObject</text>
</a>
</g>
</g>
<!-- Node4&#45;&gt;Node19 -->
<g id="edge18" class="edge"><title>Node4&#45;&gt;Node19</title>
<path fill="none" stroke="midnightblue" d="M69.8137,-269.307C79.6218,-233.196 109.04,-141.377 166,-89.5 167.72,-87.9336 169.55,-86.4596 171.464,-85.0731"/>
<polygon fill="midnightblue" stroke="midnightblue" points="173.68,-87.8145 180.297,-79.5397 169.964,-81.8822 173.68,-87.8145"/>
</g>
<!-- Node20 -->
<g id="node17" class="node"><title>Node20</title>
<g id="a_node17"><a xlink:href="../../da/d3e/classinfra_1_1_json_array_visitor.html#a56d7cd38a96d2a714ab088d21ad9fefd" target="_top" xlink:title="infra::JsonArrayVisitor\l::VisitString">
<polygon fill="white" stroke="black" points="173.5,-0.5 173.5,-30.5 285.5,-30.5 285.5,-0.5 173.5,-0.5"/>
<text text-anchor="start" x="181.5" y="-18.5" font-family="Helvetica,sans-Serif" font-size="10.00">infra::JsonArrayVisitor</text>
<text text-anchor="middle" x="229.5" y="-7.5" font-family="Helvetica,sans-Serif" font-size="10.00">::VisitString</text>
</a>
</g>
</g>
<!-- Node4&#45;&gt;Node20 -->
<g id="edge19" class="edge"><title>Node4&#45;&gt;Node20</title>
<path fill="none" stroke="midnightblue" d="M67.9825,-269.248C74.2705,-226.888 97.5642,-106.521 166,-39.5 167.09,-38.4326 168.232,-37.4116 169.419,-36.4349"/>
<polygon fill="midnightblue" stroke="midnightblue" points="171.587,-39.1907 177.807,-30.6134 167.596,-33.4401 171.587,-39.1907"/>
</g>
<!-- Node8 -->
<g id="node5" class="node"><title>Node8</title>
<g id="a_node5"><a xlink:href="../../dd/d09/classinfra_1_1_json_sub_parser.html#a0d6841fa369a3fb1f8e421934421de1e" target="_top" xlink:title="infra::JsonSubParser\l::FoundToken">
<polygon fill="white" stroke="black" points="635,-450.5 635,-480.5 742,-480.5 742,-450.5 635,-450.5"/>
<text text-anchor="start" x="643" y="-468.5" font-family="Helvetica,sans-Serif" font-size="10.00">infra::JsonSubParser</text>
<text text-anchor="middle" x="688.5" y="-457.5" font-family="Helvetica,sans-Serif" font-size="10.00">::FoundToken</text>
</a>
</g>
</g>
<!-- Node7&#45;&gt;Node8 -->
<g id="edge4" class="edge"><title>Node7&#45;&gt;Node8</title>
<path fill="none" stroke="midnightblue" d="M283.132,-467.901C353.093,-481.522 480.521,-500.997 589,-488.5 600.789,-487.142 613.218,-484.898 625.127,-482.331"/>
<polygon fill="midnightblue" stroke="midnightblue" points="625.997,-485.723 634.984,-480.11 624.459,-478.894 625.997,-485.723"/>
</g>
<!-- Node9 -->
<g id="node6" class="node"><title>Node9</title>
<g id="a_node6"><a xlink:href="../../dd/d09/classinfra_1_1_json_sub_parser.html#ad7720b7d93156301e4855651ff1199de" target="_top" xlink:title="infra::JsonSubParser\l::AddToValueBuffer">
<polygon fill="white" stroke="black" points="482,-448.5 482,-478.5 589,-478.5 589,-448.5 482,-448.5"/>
<text text-anchor="start" x="490" y="-466.5" font-family="Helvetica,sans-Serif" font-size="10.00">infra::JsonSubParser</text>
<text text-anchor="middle" x="535.5" y="-455.5" font-family="Helvetica,sans-Serif" font-size="10.00">::AddToValueBuffer</text>
</a>
</g>
</g>
<!-- Node7&#45;&gt;Node9 -->
<g id="edge5" class="edge"><title>Node7&#45;&gt;Node9</title>
<path fill="none" stroke="midnightblue" d="M283.15,-458.21C297.978,-458.663 314.12,-459.129 329,-459.5 376.849,-460.694 430.972,-461.735 471.659,-462.456"/>
<polygon fill="midnightblue" stroke="midnightblue" points="471.642,-465.956 481.702,-462.632 471.765,-458.957 471.642,-465.956"/>
</g>
<!-- Node10 -->
<g id="node7" class="node"><title>Node10</title>
<g id="a_node7"><a xlink:href="../../d1/d2a/classinfra_1_1_bounded_string_base.html#aca8ce15650affe10787e972764ebe08b" target="_top" xlink:title="infra::BoundedStringBase\l::full">
<polygon fill="white" stroke="black" points="625,-392.5 625,-422.5 752,-422.5 752,-392.5 625,-392.5"/>
<text text-anchor="start" x="633" y="-410.5" font-family="Helvetica,sans-Serif" font-size="10.00">infra::BoundedStringBase</text>
<text text-anchor="middle" x="688.5" y="-399.5" font-family="Helvetica,sans-Serif" font-size="10.00">::full</text>
</a>
</g>
</g>
<!-- Node7&#45;&gt;Node10 -->
<g id="edge10" class="edge"><title>Node7&#45;&gt;Node10</title>
<path fill="none" stroke="midnightblue" d="M272.974,-441.391C279.761,-438.635 286.639,-435.632 293,-432.5 309.822,-424.216 310.971,-415.654 329,-410.5 424.879,-383.089 541.163,-388.813 614.759,-396.933"/>
<polygon fill="midnightblue" stroke="midnightblue" points="614.52,-400.429 624.854,-398.092 615.318,-393.475 614.52,-400.429"/>
</g>
<!-- Node11 -->
<g id="node8" class="node"><title>Node11</title>
<g id="a_node8"><a xlink:href="../../dd/d09/classinfra_1_1_json_sub_parser.html#aabaaceb8b7a0e39085bbb6ae43de9dea" target="_top" xlink:title="infra::JsonSubParser\l::ProcessEscapedData">
<polygon fill="white" stroke="black" points="329,-419.5 329,-449.5 446,-449.5 446,-419.5 329,-419.5"/>
<text text-anchor="start" x="337" y="-437.5" font-family="Helvetica,sans-Serif" font-size="10.00">infra::JsonSubParser</text>
<text text-anchor="middle" x="387.5" y="-426.5" font-family="Helvetica,sans-Serif" font-size="10.00">::ProcessEscapedData</text>
</a>
</g>
</g>
<!-- Node7&#45;&gt;Node11 -->
<g id="edge8" class="edge"><title>Node7&#45;&gt;Node11</title>
<path fill="none" stroke="midnightblue" d="M283.314,-449.052C294.778,-447.435 307.054,-445.704 318.996,-444.02"/>
<polygon fill="midnightblue" stroke="midnightblue" points="319.511,-447.482 328.924,-442.62 318.533,-440.551 319.511,-447.482"/>
</g>
<!-- Node9&#45;&gt;Node8 -->
<g id="edge7" class="edge"><title>Node9&#45;&gt;Node8</title>
<path fill="none" stroke="midnightblue" d="M589.312,-464.2C600.758,-464.351 612.97,-464.513 624.756,-464.669"/>
<polygon fill="midnightblue" stroke="midnightblue" points="624.927,-468.171 634.972,-464.804 625.02,-461.172 624.927,-468.171"/>
</g>
<!-- Node9&#45;&gt;Node10 -->
<g id="edge6" class="edge"><title>Node9&#45;&gt;Node10</title>
<path fill="none" stroke="midnightblue" d="M576.965,-448.493C595.584,-441.588 617.855,-433.329 637.511,-426.039"/>
<polygon fill="midnightblue" stroke="midnightblue" points="638.764,-429.307 646.923,-422.548 636.33,-422.744 638.764,-429.307"/>
</g>
<!-- Node11&#45;&gt;Node9 -->
<g id="edge9" class="edge"><title>Node11&#45;&gt;Node9</title>
<path fill="none" stroke="midnightblue" d="M446.203,-445.962C454.682,-447.646 463.449,-449.387 472.018,-451.089"/>
<polygon fill="midnightblue" stroke="midnightblue" points="471.468,-454.548 481.958,-453.064 472.832,-447.682 471.468,-454.548"/>
</g>
</g>
</svg>
        <g id="navigator" transform="translate(0 0)" fill="#404254">
                <rect fill="#f2f5e9" fill-opacity="0.5" stroke="#606060" stroke-width=".5" x="0" y="0" width="60" height="60"/>
                <use id="zoomplus" xlink:href="#zoomPlus" x="17" y="9" onmousedown="handleZoom(evt,'in')"/>
                <use id="zoomminus" xlink:href="#zoomMin" x="42" y="9" onmousedown="handleZoom(evt,'out')"/>
                <use id="reset" xlink:href="#resetDef" x="30" y="36" onmousedown="handleReset()"/>
                <g id="arrowUp" xlink:href="#dirArrow" transform="translate(30 24)" onmousedown="handlePan(0,-1)">
                  <use xlink:href="#rim" fill="#404040">
                        <set attributeName="fill" to="#808080" begin="arrowUp.mouseover" end="arrowUp.mouseout"/>
                  </use>
                  <path fill="none" stroke="white" stroke-width="1.5" d="M0,-3.0v7 M-2.5,-0.5L0,-3.0L2.5,-0.5"/>
                </g>
                <g id="arrowRight" xlink:href="#dirArrow" transform="rotate(90) translate(36 -43)" onmousedown="handlePan(1,0)">
                  <use xlink:href="#rim" fill="#404040">
                        <set attributeName="fill" to="#808080" begin="arrowRight.mouseover" end="arrowRight.mouseout"/>
                  </use>
                  <path fill="none" stroke="white" stroke-width="1.5" d="M0,-3.0v7 M-2.5,-0.5L0,-3.0L2.5,-0.5"/>
                </g>
                <g id="arrowDown" xlink:href="#dirArrow" transform="rotate(180) translate(-30 -48)" onmousedown="handlePan(0,1)">
                  <use xlink:href="#rim" fill="#404040">
                        <set attributeName="fill" to="#808080" begin="arrowDown.mouseover" end="arrowDown.mouseout"/>
                  </use>
                  <path fill="none" stroke="white" stroke-width="1.5" d="M0,-3.0v7 M-2.5,-0.5L0,-3.0L2.5,-0.5"/>
                </g>
                <g id="arrowLeft" xlink:href="#dirArrow" transform="rotate(270) translate(-36 17)" onmousedown="handlePan(-1,0)">
                  <use xlink:href="#rim" fill="#404040">
                        <set attributeName="fill" to="#808080" begin="arrowLeft.mouseover" end="arrowLeft.mouseout"/>
                  </use>
                  <path fill="none" stroke="white" stroke-width="1.5" d="M0,-3.0v7 M-2.5,-0.5L0,-3.0L2.5,-0.5"/>
                </g>
        </g>
        <svg viewBox="0 0 15 15" width="100%" height="30px" preserveAspectRatio="xMaxYMin meet">
         <g id="arrow_out" transform="scale(0.3 0.3)">
          <a xlink:href="classinfra_1_1_json_sub_array_parser_aee8c45bfcf7f58e9422493d56019fbc8_cgraph_org.svg" target="_base">
           <rect id="button" ry="5" rx="5" y="6" x="6" height="38" width="38"
                fill="#f2f5e9" fill-opacity="0.5" stroke="#606060" stroke-width="1.0"/>
           <path id="arrow"
             d="M 11.500037,31.436501 C 11.940474,20.09759 22.043105,11.32322 32.158766,21.979434 L 37.068811,17.246167 C 37.068811,17.246167 37.088388,32 37.088388,32 L 22.160133,31.978069 C 22.160133,31.978069 26.997745,27.140456 26.997745,27.140456 C 18.528582,18.264221 13.291696,25.230495 11.500037,31.436501 z"
             style="fill:#404040;"/>
          </a>
         </g>
        </svg>
</svg>
