<?xml version="1.0" encoding="UTF-8" standalone="no"?>
<!DOCTYPE svg PUBLIC "-//W3C//DTD SVG 1.1//EN"
 "http://www.w3.org/Graphics/SVG/1.1/DTD/svg11.dtd">
<!-- Generated by graphviz version 2.38.0 (20140413.2041)
 -->
<!-- Title: infra::OverwriteTextStream Pages: 1 -->
<svg width="1235pt" height="284pt"
 viewBox="0.00 0.00 1235.00 284.00" xmlns="http://www.w3.org/2000/svg" xmlns:xlink="http://www.w3.org/1999/xlink">
<g id="graph0" class="graph" transform="scale(1 1) rotate(0) translate(4 280)">
<title>infra::OverwriteTextStream</title>
<polygon fill="white" stroke="none" points="-4,4 -4,-280 1231,-280 1231,4 -4,4"/>
<!-- Node5 -->
<g id="node1" class="node"><title>Node5</title>
<polygon fill="#bfbfbf" stroke="black" points="1096,-114.5 1096,-133.5 1227,-133.5 1227,-114.5 1096,-114.5"/>
<text text-anchor="middle" x="1161.5" y="-121.5" font-family="Helvetica,sans-Serif" font-size="10.00">infra::OverwriteTextStream</text>
</g>
<!-- Node6 -->
<g id="node2" class="node"><title>Node6</title>
<g id="a_node2"><a xlink:href="../../da/d99/classinfra_1_1_text_output_stream_1_1_with_writer.html" target="_top" xlink:title="infra::TextOutputStream\l::WithWriter\&lt; OverwriteStream\lWriter \&gt;">
<polygon fill="white" stroke="black" points="910,-103.5 910,-144.5 1059,-144.5 1059,-103.5 910,-103.5"/>
<text text-anchor="start" x="918" y="-132.5" font-family="Helvetica,sans-Serif" font-size="10.00">infra::TextOutputStream</text>
<text text-anchor="start" x="918" y="-121.5" font-family="Helvetica,sans-Serif" font-size="10.00">::WithWriter&lt; OverwriteStream</text>
<text text-anchor="middle" x="984.5" y="-110.5" font-family="Helvetica,sans-Serif" font-size="10.00">Writer &gt;</text>
</a>
</g>
</g>
<!-- Node6&#45;&gt;Node5 -->
<g id="edge1" class="edge"><title>Node6&#45;&gt;Node5</title>
<path fill="none" stroke="midnightblue" d="M1069.23,-124C1078.15,-124 1087.11,-124 1095.76,-124"/>
<polygon fill="midnightblue" stroke="midnightblue" points="1069.21,-120.5 1059.21,-124 1069.21,-127.5 1069.21,-120.5"/>
</g>
<!-- Node7 -->
<g id="node3" class="node"><title>Node7</title>
<g id="a_node3"><a xlink:href="../../d9/d00/classinfra_1_1detail_1_1_storage_holder.html" target="_top" xlink:title="infra::detail::StorageHolder\l\&lt; OverwriteStreamWriter,\l WithWriter\&lt; OverwriteStreamWriter \&gt; \&gt;">
<polygon fill="white" stroke="black" points="682,-169.5 682,-210.5 873,-210.5 873,-169.5 682,-169.5"/>
<text text-anchor="start" x="690" y="-198.5" font-family="Helvetica,sans-Serif" font-size="10.00">infra::detail::StorageHolder</text>
<text text-anchor="start" x="690" y="-187.5" font-family="Helvetica,sans-Serif" font-size="10.00">&lt; OverwriteStreamWriter,</text>
<text text-anchor="middle" x="777.5" y="-176.5" font-family="Helvetica,sans-Serif" font-size="10.00"> WithWriter&lt; OverwriteStreamWriter &gt; &gt;</text>
</a>
</g>
</g>
<!-- Node7&#45;&gt;Node6 -->
<g id="edge2" class="edge"><title>Node7&#45;&gt;Node6</title>
<path fill="none" stroke="#8b1a1a" d="M851.945,-166.354C874.134,-159.211 898.302,-151.429 919.8,-144.508"/>
<polygon fill="#8b1a1a" stroke="#8b1a1a" points="850.686,-163.083 842.24,-169.479 852.831,-169.746 850.686,-163.083"/>
</g>
<!-- Node8 -->
<g id="node4" class="node"><title>Node8</title>
<g id="a_node4"><a xlink:href="../../dc/dcc/classinfra_1_1_overwrite_stream_writer.html" target="_top" xlink:title="infra::OverwriteStreamWriter">
<polygon fill="white" stroke="black" points="458,-201.5 458,-220.5 596,-220.5 596,-201.5 458,-201.5"/>
<text text-anchor="middle" x="527" y="-208.5" font-family="Helvetica,sans-Serif" font-size="10.00">infra::OverwriteStreamWriter</text>
</a>
</g>
</g>
<!-- Node8&#45;&gt;Node7 -->
<g id="edge3" class="edge"><title>Node8&#45;&gt;Node7</title>
<path fill="none" stroke="#9a32cd" stroke-dasharray="5,2" d="M606.334,-204.38C630.315,-202.354 656.951,-200.103 681.894,-197.995"/>
<polygon fill="#9a32cd" stroke="#9a32cd" points="605.902,-200.904 596.232,-205.234 606.492,-207.879 605.902,-200.904"/>
<text text-anchor="middle" x="639" y="-206" font-family="Helvetica,sans-Serif" font-size="10.00"> storage</text>
</g>
<!-- Node9 -->
<g id="node5" class="node"><title>Node9</title>
<g id="a_node5"><a xlink:href="../../df/d15/classinfra_1_1_byte_output_stream_writer.html" target="_top" xlink:title="infra::ByteOutputStreamWriter">
<polygon fill="white" stroke="black" points="224,-220.5 224,-239.5 372,-239.5 372,-220.5 224,-220.5"/>
<text text-anchor="middle" x="298" y="-227.5" font-family="Helvetica,sans-Serif" font-size="10.00">infra::ByteOutputStreamWriter</text>
</a>
</g>
</g>
<!-- Node9&#45;&gt;Node8 -->
<g id="edge4" class="edge"><title>Node9&#45;&gt;Node8</title>
<path fill="none" stroke="midnightblue" d="M382.202,-223.036C407.026,-220.958 433.936,-218.706 457.691,-216.718"/>
<polygon fill="midnightblue" stroke="midnightblue" points="381.747,-219.562 372.074,-223.884 382.331,-226.537 381.747,-219.562"/>
</g>
<!-- Node10 -->
<g id="node6" class="node"><title>Node10</title>
<g id="a_node6"><a xlink:href="../../de/dba/classinfra_1_1_stream_writer.html" target="_top" xlink:title="infra::StreamWriter">
<polygon fill="white" stroke="black" points="14.5,-93.5 14.5,-112.5 112.5,-112.5 112.5,-93.5 14.5,-93.5"/>
<text text-anchor="middle" x="63.5" y="-100.5" font-family="Helvetica,sans-Serif" font-size="10.00">infra::StreamWriter</text>
</a>
</g>
</g>
<!-- Node10&#45;&gt;Node9 -->
<g id="edge5" class="edge"><title>Node10&#45;&gt;Node9</title>
<path fill="none" stroke="midnightblue" d="M119.195,-116.91C121.937,-118.435 124.561,-120.126 127,-122 139.028,-131.243 133.873,-140.69 145,-151 146.363,-152.263 238.37,-199.77 278.558,-220.494"/>
<polygon fill="midnightblue" stroke="midnightblue" points="120.649,-113.726 110.115,-112.584 117.637,-120.046 120.649,-113.726"/>
</g>
<!-- Node14 -->
<g id="node10" class="node"><title>Node14</title>
<g id="a_node10"><a xlink:href="../../d6/d97/classinfra_1_1_output_stream.html" target="_top" xlink:title="infra::OutputStream">
<polygon fill="white" stroke="black" points="476.5,-76.5 476.5,-95.5 577.5,-95.5 577.5,-76.5 476.5,-76.5"/>
<text text-anchor="middle" x="527" y="-83.5" font-family="Helvetica,sans-Serif" font-size="10.00">infra::OutputStream</text>
</a>
</g>
</g>
<!-- Node10&#45;&gt;Node14 -->
<g id="edge13" class="edge"><title>Node10&#45;&gt;Node14</title>
<path fill="none" stroke="#9a32cd" stroke-dasharray="5,2" d="M122.784,-100.853C214.354,-97.4799 390.322,-90.9979 476.283,-87.8314"/>
<polygon fill="#9a32cd" stroke="#9a32cd" points="122.447,-97.363 112.583,-101.229 122.705,-104.358 122.447,-97.363"/>
<text text-anchor="middle" x="298" y="-100" font-family="Helvetica,sans-Serif" font-size="10.00"> writer</text>
</g>
<!-- Node11 -->
<g id="node7" class="node"><title>Node11</title>
<polygon fill="white" stroke="#bfbfbf" points="42,-203.5 42,-222.5 85,-222.5 85,-203.5 42,-203.5"/>
<text text-anchor="middle" x="63.5" y="-210.5" font-family="Helvetica,sans-Serif" font-size="10.00">size_t</text>
</g>
<!-- Node11&#45;&gt;Node9 -->
<g id="edge6" class="edge"><title>Node11&#45;&gt;Node9</title>
<path fill="none" stroke="#9a32cd" stroke-dasharray="5,2" d="M95.3787,-215.258C127.97,-217.641 180.512,-221.483 223.788,-224.647"/>
<polygon fill="#9a32cd" stroke="#9a32cd" points="95.3615,-211.747 85.1328,-214.509 94.8509,-218.729 95.3615,-211.747"/>
<text text-anchor="middle" x="175.5" y="-226" font-family="Helvetica,sans-Serif" font-size="10.00"> offset</text>
</g>
<!-- Node19 -->
<g id="node15" class="node"><title>Node19</title>
<g id="a_node15"><a xlink:href="../../d4/daa/structinfra_1_1_width.html" target="_top" xlink:title="infra::Width">
<polygon fill="white" stroke="black" points="265,-160.5 265,-179.5 331,-179.5 331,-160.5 265,-160.5"/>
<text text-anchor="middle" x="298" y="-167.5" font-family="Helvetica,sans-Serif" font-size="10.00">infra::Width</text>
</a>
</g>
</g>
<!-- Node11&#45;&gt;Node19 -->
<g id="edge17" class="edge"><title>Node11&#45;&gt;Node19</title>
<path fill="none" stroke="#9a32cd" stroke-dasharray="5,2" d="M95.2294,-207.317C139.227,-199.18 219.799,-184.278 264.666,-175.98"/>
<polygon fill="#9a32cd" stroke="#9a32cd" points="94.3295,-203.924 85.1328,-209.184 95.6026,-210.807 94.3295,-203.924"/>
<text text-anchor="middle" x="175.5" y="-200" font-family="Helvetica,sans-Serif" font-size="10.00"> width</text>
</g>
<!-- Node12 -->
<g id="node8" class="node"><title>Node12</title>
<polygon fill="white" stroke="#bfbfbf" points="0,-256.5 0,-275.5 127,-275.5 127,-256.5 0,-256.5"/>
<text text-anchor="middle" x="63.5" y="-263.5" font-family="Helvetica,sans-Serif" font-size="10.00">MemoryRange&lt; uint8_t &gt;</text>
</g>
<!-- Node12&#45;&gt;Node9 -->
<g id="edge7" class="edge"><title>Node12&#45;&gt;Node9</title>
<path fill="none" stroke="#9a32cd" stroke-dasharray="5,2" d="M135.998,-254.929C167.744,-250.014 204.745,-244.285 235.265,-239.559"/>
<polygon fill="#9a32cd" stroke="#9a32cd" points="135.237,-251.505 125.891,-256.494 136.309,-258.423 135.237,-251.505"/>
<text text-anchor="middle" x="175.5" y="-256" font-family="Helvetica,sans-Serif" font-size="10.00"> streamRange</text>
</g>
<!-- Node13 -->
<g id="node9" class="node"><title>Node13</title>
<g id="a_node9"><a xlink:href="../../de/dad/classinfra_1_1_text_output_stream.html" target="_top" xlink:title="infra::TextOutputStream">
<polygon fill="white" stroke="black" points="717.5,-114.5 717.5,-133.5 837.5,-133.5 837.5,-114.5 717.5,-114.5"/>
<text text-anchor="middle" x="777.5" y="-121.5" font-family="Helvetica,sans-Serif" font-size="10.00">infra::TextOutputStream</text>
</a>
</g>
</g>
<!-- Node13&#45;&gt;Node6 -->
<g id="edge8" class="edge"><title>Node13&#45;&gt;Node6</title>
<path fill="none" stroke="midnightblue" d="M847.79,-124C867.796,-124 889.694,-124 909.949,-124"/>
<polygon fill="midnightblue" stroke="midnightblue" points="847.519,-120.5 837.519,-124 847.519,-127.5 847.519,-120.5"/>
</g>
<!-- Node14&#45;&gt;Node13 -->
<g id="edge9" class="edge"><title>Node14&#45;&gt;Node13</title>
<path fill="none" stroke="midnightblue" d="M587.656,-95.1225C626.917,-101.126 678.095,-108.952 717.269,-114.943"/>
<polygon fill="midnightblue" stroke="midnightblue" points="588.105,-91.6504 577.69,-93.5985 587.046,-98.57 588.105,-91.6504"/>
</g>
<!-- Node15 -->
<g id="node11" class="node"><title>Node15</title>
<g id="a_node11"><a xlink:href="../../d5/d4a/classinfra_1_1_stream_error_policy.html" target="_top" xlink:title="infra::StreamErrorPolicy">
<polygon fill="white" stroke="black" points="238,-40.5 238,-59.5 358,-59.5 358,-40.5 238,-40.5"/>
<text text-anchor="middle" x="298" y="-47.5" font-family="Helvetica,sans-Serif" font-size="10.00">infra::StreamErrorPolicy</text>
</a>
</g>
</g>
<!-- Node15&#45;&gt;Node6 -->
<g id="edge18" class="edge"><title>Node15&#45;&gt;Node6</title>
<path fill="none" stroke="#9a32cd" stroke-dasharray="5,2" d="M368.432,-52.4192C428.699,-54.8902 518.249,-59.4537 596,-67 719.683,-79.0044 750.193,-86.024 873,-105 884.927,-106.843 897.558,-108.908 909.853,-110.979"/>
<polygon fill="#9a32cd" stroke="#9a32cd" points="368.407,-48.9154 358.274,-52.0111 368.125,-55.9098 368.407,-48.9154"/>
<text text-anchor="middle" x="639" y="-77" font-family="Helvetica,sans-Serif" font-size="10.00"> errorPolicy</text>
</g>
<!-- Node15&#45;&gt;Node14 -->
<g id="edge10" class="edge"><title>Node15&#45;&gt;Node14</title>
<path fill="none" stroke="#9a32cd" stroke-dasharray="5,2" d="M368.189,-60.9727C403.141,-66.5157 444.743,-73.1134 476.456,-78.1427"/>
<polygon fill="#9a32cd" stroke="#9a32cd" points="368.474,-57.4742 358.049,-59.3646 367.377,-64.3878 368.474,-57.4742"/>
<text text-anchor="middle" x="415" y="-76" font-family="Helvetica,sans-Serif" font-size="10.00"> errorPolicy</text>
</g>
<!-- Node16 -->
<g id="node12" class="node"><title>Node16</title>
<polygon fill="white" stroke="#bfbfbf" points="46,-0.5 46,-19.5 81,-19.5 81,-0.5 46,-0.5"/>
<text text-anchor="middle" x="63.5" y="-7.5" font-family="Helvetica,sans-Serif" font-size="10.00">bool</text>
</g>
<!-- Node16&#45;&gt;Node15 -->
<g id="edge11" class="edge"><title>Node16&#45;&gt;Node15</title>
<path fill="none" stroke="#9a32cd" stroke-dasharray="5,2" d="M91.1732,-12.1785C119.735,-14.7499 166.309,-19.6312 206,-27 225.226,-30.5694 246.423,-35.8462 263.518,-40.4454"/>
<polygon fill="#9a32cd" stroke="#9a32cd" points="91.4267,-8.68741 81.1605,-11.3057 90.8188,-15.661 91.4267,-8.68741"/>
<text text-anchor="middle" x="175.5" y="-41" font-family="Helvetica,sans-Serif" font-size="10.00"> checkedFail</text>
<text text-anchor="middle" x="175.5" y="-30" font-family="Helvetica,sans-Serif" font-size="10.00">failed</text>
</g>
<!-- Node17 -->
<g id="node13" class="node"><title>Node17</title>
<polygon fill="white" stroke="#bfbfbf" points="28.5,-45.5 28.5,-64.5 98.5,-64.5 98.5,-45.5 28.5,-45.5"/>
<text text-anchor="middle" x="63.5" y="-52.5" font-family="Helvetica,sans-Serif" font-size="10.00">FailureMode</text>
</g>
<!-- Node17&#45;&gt;Node15 -->
<g id="edge12" class="edge"><title>Node17&#45;&gt;Node15</title>
<path fill="none" stroke="#9a32cd" stroke-dasharray="5,2" d="M109.15,-54.0398C145.696,-53.2539 197.703,-52.1354 237.734,-51.2745"/>
<polygon fill="#9a32cd" stroke="#9a32cd" points="108.729,-50.5479 98.8062,-54.2622 108.879,-57.5463 108.729,-50.5479"/>
<text text-anchor="middle" x="175.5" y="-57" font-family="Helvetica,sans-Serif" font-size="10.00"> failureMode</text>
</g>
<!-- Node18 -->
<g id="node14" class="node"><title>Node18</title>
<polygon fill="white" stroke="#bfbfbf" points="506.5,-114.5 506.5,-133.5 547.5,-133.5 547.5,-114.5 506.5,-114.5"/>
<text text-anchor="middle" x="527" y="-121.5" font-family="Helvetica,sans-Serif" font-size="10.00">Radix</text>
</g>
<!-- Node18&#45;&gt;Node13 -->
<g id="edge14" class="edge"><title>Node18&#45;&gt;Node13</title>
<path fill="none" stroke="#9a32cd" stroke-dasharray="5,2" d="M557.921,-124C597.247,-124 667.206,-124 717.393,-124"/>
<polygon fill="#9a32cd" stroke="#9a32cd" points="557.916,-120.5 547.916,-124 557.916,-127.5 557.916,-120.5"/>
<text text-anchor="middle" x="639" y="-127" font-family="Helvetica,sans-Serif" font-size="10.00"> radix</text>
</g>
<!-- Node19&#45;&gt;Node13 -->
<g id="edge15" class="edge"><title>Node19&#45;&gt;Node13</title>
<path fill="none" stroke="#9a32cd" stroke-dasharray="5,2" d="M341.606,-167.046C409.784,-162.168 547.579,-151.698 664,-139 681.335,-137.109 700.13,-134.733 717.303,-132.433"/>
<polygon fill="#9a32cd" stroke="#9a32cd" points="341.002,-163.58 331.275,-167.78 341.498,-170.562 341.002,-163.58"/>
<text text-anchor="middle" x="527" y="-160" font-family="Helvetica,sans-Serif" font-size="10.00"> width</text>
</g>
<!-- Node20 -->
<g id="node16" class="node"><title>Node20</title>
<polygon fill="white" stroke="#bfbfbf" points="46,-131.5 46,-150.5 81,-150.5 81,-131.5 46,-131.5"/>
<text text-anchor="middle" x="63.5" y="-138.5" font-family="Helvetica,sans-Serif" font-size="10.00">char</text>
</g>
<!-- Node20&#45;&gt;Node19 -->
<g id="edge16" class="edge"><title>Node20&#45;&gt;Node19</title>
<path fill="none" stroke="#9a32cd" stroke-dasharray="5,2" d="M91.2154,-144.332C134.229,-149.697 218.678,-160.231 264.897,-165.996"/>
<polygon fill="#9a32cd" stroke="#9a32cd" points="91.5772,-140.85 81.2208,-143.086 90.7107,-147.797 91.5772,-140.85"/>
<text text-anchor="middle" x="175.5" y="-161" font-family="Helvetica,sans-Serif" font-size="10.00"> padding</text>
</g>
</g>
</svg>
