<?xml version="1.0" encoding="UTF-8" standalone="no"?>
<!DOCTYPE svg PUBLIC "-//W3C//DTD SVG 1.1//EN"
 "http://www.w3.org/Graphics/SVG/1.1/DTD/svg11.dtd">
<!-- Generated by graphviz version 2.38.0 (20140413.2041)
 -->
<!-- Title: services::TracingFlash Pages: 1 -->
<svg width="1068pt" height="213pt"
 viewBox="0.00 0.00 1068.00 212.50" xmlns="http://www.w3.org/2000/svg" xmlns:xlink="http://www.w3.org/1999/xlink">
<g id="graph0" class="graph" transform="scale(1 1) rotate(0) translate(4 208.5)">
<title>services::TracingFlash</title>
<polygon fill="white" stroke="none" points="-4,4 -4,-208.5 1064,-208.5 1064,4 -4,4"/>
<!-- Node2 -->
<g id="node1" class="node"><title>Node2</title>
<polygon fill="#bfbfbf" stroke="black" points="947,-89 947,-108 1060,-108 1060,-89 947,-89"/>
<text text-anchor="middle" x="1003.5" y="-96" font-family="Helvetica,sans-Serif" font-size="10.00">services::TracingFlash</text>
</g>
<!-- Node3 -->
<g id="node2" class="node"><title>Node3</title>
<g id="a_node2"><a xlink:href="../../dd/d95/classhal_1_1_flash.html" target="_top" xlink:title="hal::Flash">
<polygon fill="white" stroke="black" points="782.5,-144 782.5,-163 841.5,-163 841.5,-144 782.5,-144"/>
<text text-anchor="middle" x="812" y="-151" font-family="Helvetica,sans-Serif" font-size="10.00">hal::Flash</text>
</a>
</g>
</g>
<!-- Node3&#45;&gt;Node2 -->
<g id="edge1" class="edge"><title>Node3&#45;&gt;Node2</title>
<path fill="none" stroke="midnightblue" d="M851.936,-155.075C874.895,-154.884 904.211,-152.669 929,-144.5 953.019,-136.585 977.167,-119.248 990.93,-108.264"/>
<polygon fill="midnightblue" stroke="midnightblue" points="851.887,-151.575 841.873,-155.034 851.859,-158.575 851.887,-151.575"/>
</g>
<!-- Node3&#45;&gt;Node2 -->
<g id="edge16" class="edge"><title>Node3&#45;&gt;Node2</title>
<path fill="none" stroke="#9a32cd" stroke-dasharray="5,2" d="M851.571,-142.305C886.293,-132.228 936.771,-117.577 969.62,-108.043"/>
<polygon fill="#9a32cd" stroke="#9a32cd" points="850.409,-138.998 841.781,-145.147 852.36,-145.721 850.409,-138.998"/>
<text text-anchor="middle" x="910.5" y="-132.5" font-family="Helvetica,sans-Serif" font-size="10.00"> flash</text>
</g>
<!-- Node4 -->
<g id="node3" class="node"><title>Node4</title>
<g id="a_node3"><a xlink:href="../../dc/d42/classservices_1_1_tracer.html" target="_top" xlink:title="services::Tracer">
<polygon fill="white" stroke="black" points="769.5,-100 769.5,-119 854.5,-119 854.5,-100 769.5,-100"/>
<text text-anchor="middle" x="812" y="-107" font-family="Helvetica,sans-Serif" font-size="10.00">services::Tracer</text>
</a>
</g>
</g>
<!-- Node4&#45;&gt;Node2 -->
<g id="edge2" class="edge"><title>Node4&#45;&gt;Node2</title>
<path fill="none" stroke="#9a32cd" stroke-dasharray="5,2" d="M864.786,-102.066C873.839,-101.018 883.181,-100.096 892,-99.5 909.801,-98.2969 929.252,-97.836 946.804,-97.7367"/>
<polygon fill="#9a32cd" stroke="#9a32cd" points="864.233,-98.6076 854.731,-103.292 865.081,-105.556 864.233,-98.6076"/>
<text text-anchor="middle" x="910.5" y="-102.5" font-family="Helvetica,sans-Serif" font-size="10.00"> tracer</text>
</g>
<!-- Node5 -->
<g id="node4" class="node"><title>Node5</title>
<g id="a_node4"><a xlink:href="../../de/dad/classinfra_1_1_text_output_stream.html" target="_top" xlink:title="infra::TextOutputStream">
<polygon fill="white" stroke="black" points="531,-100 531,-119 651,-119 651,-100 531,-100"/>
<text text-anchor="middle" x="591" y="-107" font-family="Helvetica,sans-Serif" font-size="10.00">infra::TextOutputStream</text>
</a>
</g>
</g>
<!-- Node5&#45;&gt;Node4 -->
<g id="edge3" class="edge"><title>Node5&#45;&gt;Node4</title>
<path fill="none" stroke="#9a32cd" stroke-dasharray="5,2" d="M661.561,-109.5C697.027,-109.5 738.971,-109.5 769.38,-109.5"/>
<polygon fill="#9a32cd" stroke="#9a32cd" points="661.265,-106 651.265,-109.5 661.265,-113 661.265,-106"/>
<text text-anchor="middle" x="700.5" y="-112.5" font-family="Helvetica,sans-Serif" font-size="10.00"> stream</text>
</g>
<!-- Node6 -->
<g id="node5" class="node"><title>Node6</title>
<g id="a_node5"><a xlink:href="../../d6/d97/classinfra_1_1_output_stream.html" target="_top" xlink:title="infra::OutputStream">
<polygon fill="white" stroke="black" points="368,-138 368,-157 469,-157 469,-138 368,-138"/>
<text text-anchor="middle" x="418.5" y="-145" font-family="Helvetica,sans-Serif" font-size="10.00">infra::OutputStream</text>
</a>
</g>
</g>
<!-- Node6&#45;&gt;Node5 -->
<g id="edge4" class="edge"><title>Node6&#45;&gt;Node5</title>
<path fill="none" stroke="midnightblue" d="M472.554,-135.676C496.591,-130.318 524.632,-124.069 547.285,-119.02"/>
<polygon fill="midnightblue" stroke="midnightblue" points="471.523,-132.319 462.524,-137.911 473.046,-139.152 471.523,-132.319"/>
</g>
<!-- Node7 -->
<g id="node6" class="node"><title>Node7</title>
<g id="a_node6"><a xlink:href="../../d5/d4a/classinfra_1_1_stream_error_policy.html" target="_top" xlink:title="infra::StreamErrorPolicy">
<polygon fill="white" stroke="black" points="162,-159 162,-178 282,-178 282,-159 162,-159"/>
<text text-anchor="middle" x="222" y="-166" font-family="Helvetica,sans-Serif" font-size="10.00">infra::StreamErrorPolicy</text>
</a>
</g>
</g>
<!-- Node7&#45;&gt;Node6 -->
<g id="edge5" class="edge"><title>Node7&#45;&gt;Node6</title>
<path fill="none" stroke="#9a32cd" stroke-dasharray="5,2" d="M292.287,-161.019C317.233,-158.326 344.861,-155.343 367.804,-152.866"/>
<polygon fill="#9a32cd" stroke="#9a32cd" points="291.715,-157.56 282.149,-162.114 292.467,-164.52 291.715,-157.56"/>
<text text-anchor="middle" x="325" y="-163.5" font-family="Helvetica,sans-Serif" font-size="10.00"> errorPolicy</text>
</g>
<!-- Node8 -->
<g id="node7" class="node"><title>Node8</title>
<polygon fill="white" stroke="#bfbfbf" points="17.5,-178 17.5,-197 52.5,-197 52.5,-178 17.5,-178"/>
<text text-anchor="middle" x="35" y="-185" font-family="Helvetica,sans-Serif" font-size="10.00">bool</text>
</g>
<!-- Node8&#45;&gt;Node7 -->
<g id="edge6" class="edge"><title>Node8&#45;&gt;Node7</title>
<path fill="none" stroke="#9a32cd" stroke-dasharray="5,2" d="M62.8993,-184.737C88.7485,-182.083 128.68,-177.982 161.943,-174.565"/>
<polygon fill="#9a32cd" stroke="#9a32cd" points="62.3339,-181.277 52.7438,-185.78 63.0491,-188.24 62.3339,-181.277"/>
<text text-anchor="middle" x="116" y="-196.5" font-family="Helvetica,sans-Serif" font-size="10.00"> checkedFail</text>
<text text-anchor="middle" x="116" y="-185.5" font-family="Helvetica,sans-Serif" font-size="10.00">failed</text>
</g>
<!-- Node9 -->
<g id="node8" class="node"><title>Node9</title>
<polygon fill="white" stroke="#bfbfbf" points="0,-140 0,-159 70,-159 70,-140 0,-140"/>
<text text-anchor="middle" x="35" y="-147" font-family="Helvetica,sans-Serif" font-size="10.00">FailureMode</text>
</g>
<!-- Node9&#45;&gt;Node7 -->
<g id="edge7" class="edge"><title>Node9&#45;&gt;Node7</title>
<path fill="none" stroke="#9a32cd" stroke-dasharray="5,2" d="M80.4021,-154.06C104.778,-156.564 135.327,-159.701 161.716,-162.411"/>
<polygon fill="#9a32cd" stroke="#9a32cd" points="80.6688,-150.569 70.3635,-153.029 79.9536,-157.533 80.6688,-150.569"/>
<text text-anchor="middle" x="116" y="-163.5" font-family="Helvetica,sans-Serif" font-size="10.00"> failureMode</text>
</g>
<!-- Node10 -->
<g id="node9" class="node"><title>Node10</title>
<g id="a_node9"><a xlink:href="../../de/dba/classinfra_1_1_stream_writer.html" target="_top" xlink:title="infra::StreamWriter">
<polygon fill="white" stroke="black" points="173,-121 173,-140 271,-140 271,-121 173,-121"/>
<text text-anchor="middle" x="222" y="-128" font-family="Helvetica,sans-Serif" font-size="10.00">infra::StreamWriter</text>
</a>
</g>
</g>
<!-- Node10&#45;&gt;Node6 -->
<g id="edge8" class="edge"><title>Node10&#45;&gt;Node6</title>
<path fill="none" stroke="#9a32cd" stroke-dasharray="5,2" d="M281.128,-129.669C302.804,-129.937 327.585,-130.932 350,-133.5 358.918,-134.522 368.404,-136.146 377.36,-137.933"/>
<polygon fill="#9a32cd" stroke="#9a32cd" points="281.111,-126.169 271.085,-129.592 281.058,-133.168 281.111,-126.169"/>
<text text-anchor="middle" x="325" y="-136.5" font-family="Helvetica,sans-Serif" font-size="10.00"> writer</text>
</g>
<!-- Node11 -->
<g id="node10" class="node"><title>Node11</title>
<polygon fill="white" stroke="#bfbfbf" points="398,-100 398,-119 439,-119 439,-100 398,-100"/>
<text text-anchor="middle" x="418.5" y="-107" font-family="Helvetica,sans-Serif" font-size="10.00">Radix</text>
</g>
<!-- Node11&#45;&gt;Node5 -->
<g id="edge9" class="edge"><title>Node11&#45;&gt;Node5</title>
<path fill="none" stroke="#9a32cd" stroke-dasharray="5,2" d="M449.314,-109.5C471.81,-109.5 503.399,-109.5 530.947,-109.5"/>
<polygon fill="#9a32cd" stroke="#9a32cd" points="449.059,-106 439.059,-109.5 449.058,-113 449.059,-106"/>
<text text-anchor="middle" x="500" y="-112.5" font-family="Helvetica,sans-Serif" font-size="10.00"> radix</text>
</g>
<!-- Node12 -->
<g id="node11" class="node"><title>Node12</title>
<g id="a_node11"><a xlink:href="../../d4/daa/structinfra_1_1_width.html" target="_top" xlink:title="infra::Width">
<polygon fill="white" stroke="black" points="385.5,-62 385.5,-81 451.5,-81 451.5,-62 385.5,-62"/>
<text text-anchor="middle" x="418.5" y="-69" font-family="Helvetica,sans-Serif" font-size="10.00">infra::Width</text>
</a>
</g>
</g>
<!-- Node12&#45;&gt;Node5 -->
<g id="edge10" class="edge"><title>Node12&#45;&gt;Node5</title>
<path fill="none" stroke="#9a32cd" stroke-dasharray="5,2" d="M461.52,-80.8652C487.563,-86.6695 520.926,-94.1052 547.127,-99.9447"/>
<polygon fill="#9a32cd" stroke="#9a32cd" points="462.092,-77.4068 451.57,-78.6475 460.569,-84.2391 462.092,-77.4068"/>
<text text-anchor="middle" x="500" y="-95.5" font-family="Helvetica,sans-Serif" font-size="10.00"> width</text>
</g>
<!-- Node13 -->
<g id="node12" class="node"><title>Node13</title>
<polygon fill="white" stroke="#bfbfbf" points="204.5,-73 204.5,-92 239.5,-92 239.5,-73 204.5,-73"/>
<text text-anchor="middle" x="222" y="-80" font-family="Helvetica,sans-Serif" font-size="10.00">char</text>
</g>
<!-- Node13&#45;&gt;Node12 -->
<g id="edge11" class="edge"><title>Node13&#45;&gt;Node12</title>
<path fill="none" stroke="#9a32cd" stroke-dasharray="5,2" d="M249.634,-80.9937C285.001,-78.9935 347.404,-75.4643 385.352,-73.3182"/>
<polygon fill="#9a32cd" stroke="#9a32cd" points="249.369,-77.503 239.583,-81.5621 249.765,-84.4918 249.369,-77.503"/>
<text text-anchor="middle" x="325" y="-81.5" font-family="Helvetica,sans-Serif" font-size="10.00"> padding</text>
</g>
<!-- Node14 -->
<g id="node13" class="node"><title>Node14</title>
<polygon fill="white" stroke="#bfbfbf" points="200.5,-35 200.5,-54 243.5,-54 243.5,-35 200.5,-35"/>
<text text-anchor="middle" x="222" y="-42" font-family="Helvetica,sans-Serif" font-size="10.00">size_t</text>
</g>
<!-- Node14&#45;&gt;Node12 -->
<g id="edge12" class="edge"><title>Node14&#45;&gt;Node12</title>
<path fill="none" stroke="#9a32cd" stroke-dasharray="5,2" d="M253.967,-48.0837C279.708,-51.1388 317.283,-55.7748 350,-60.5 361.516,-62.1633 374.107,-64.1651 385.262,-66.0025"/>
<polygon fill="#9a32cd" stroke="#9a32cd" points="254.049,-44.5693 243.709,-46.8755 253.231,-51.5212 254.049,-44.5693"/>
<text text-anchor="middle" x="325" y="-63.5" font-family="Helvetica,sans-Serif" font-size="10.00"> width</text>
</g>
<!-- Node15 -->
<g id="node14" class="node"><title>Node15</title>
<g id="a_node14"><a xlink:href="../../d0/d6d/classinfra_1_1_memory_range.html" target="_top" xlink:title="infra::MemoryRange\l\&lt; const uint8_t \&gt;">
<polygon fill="white" stroke="black" points="760,-49.5 760,-79.5 864,-79.5 864,-49.5 760,-49.5"/>
<text text-anchor="start" x="768" y="-67.5" font-family="Helvetica,sans-Serif" font-size="10.00">infra::MemoryRange</text>
<text text-anchor="middle" x="812" y="-56.5" font-family="Helvetica,sans-Serif" font-size="10.00">&lt; const uint8_t &gt;</text>
</a>
</g>
</g>
<!-- Node15&#45;&gt;Node2 -->
<g id="edge13" class="edge"><title>Node15&#45;&gt;Node2</title>
<path fill="none" stroke="#9a32cd" stroke-dasharray="5,2" d="M874.368,-74.0937C892.028,-76.9784 911.299,-80.2455 929,-83.5 938.094,-85.1721 947.798,-87.0705 957.073,-88.9411"/>
<polygon fill="#9a32cd" stroke="#9a32cd" points="874.612,-70.5876 864.181,-72.4423 873.492,-77.4974 874.612,-70.5876"/>
<text text-anchor="middle" x="910.5" y="-86.5" font-family="Helvetica,sans-Serif" font-size="10.00"> buffer</text>
</g>
<!-- Node16 -->
<g id="node15" class="node"><title>Node16</title>
<polygon fill="white" stroke="#bfbfbf" points="551,-55 551,-74 631,-74 631,-55 551,-55"/>
<text text-anchor="middle" x="591" y="-62" font-family="Helvetica,sans-Serif" font-size="10.00">const uint8_t *</text>
</g>
<!-- Node16&#45;&gt;Node15 -->
<g id="edge14" class="edge"><title>Node16&#45;&gt;Node15</title>
<path fill="none" stroke="#9a32cd" stroke-dasharray="5,2" d="M641.237,-64.5C676.567,-64.5 724.053,-64.5 759.818,-64.5"/>
<polygon fill="#9a32cd" stroke="#9a32cd" points="641.153,-61.0001 631.153,-64.5 641.153,-68.0001 641.153,-61.0001"/>
<text text-anchor="middle" x="700.5" y="-78.5" font-family="Helvetica,sans-Serif" font-size="10.00"> beginElement</text>
<text text-anchor="middle" x="700.5" y="-67.5" font-family="Helvetica,sans-Serif" font-size="10.00">endElement</text>
</g>
<!-- Node17 -->
<g id="node16" class="node"><title>Node17</title>
<g id="a_node16"><a xlink:href="../../d5/d33/classinfra_1_1_auto_reset_function.html" target="_top" xlink:title="infra::AutoResetFunction\l\&lt; void()\&gt;">
<polygon fill="white" stroke="black" points="750,-0.5 750,-30.5 874,-30.5 874,-0.5 750,-0.5"/>
<text text-anchor="start" x="758" y="-18.5" font-family="Helvetica,sans-Serif" font-size="10.00">infra::AutoResetFunction</text>
<text text-anchor="middle" x="812" y="-7.5" font-family="Helvetica,sans-Serif" font-size="10.00">&lt; void()&gt;</text>
</a>
</g>
</g>
<!-- Node17&#45;&gt;Node2 -->
<g id="edge15" class="edge"><title>Node17&#45;&gt;Node2</title>
<path fill="none" stroke="#9a32cd" stroke-dasharray="5,2" d="M861.216,-34.3604C865.543,-36.0864 869.854,-37.8179 874,-39.5 898.552,-49.462 904.87,-51.5568 929,-62.5 947.763,-71.0093 968.851,-81.4286 983.611,-88.8642"/>
<polygon fill="#9a32cd" stroke="#9a32cd" points="862.359,-31.0484 851.773,-30.6119 859.776,-37.5546 862.359,-31.0484"/>
<text text-anchor="middle" x="910.5" y="-65.5" font-family="Helvetica,sans-Serif" font-size="10.00"> onDone</text>
</g>
</g>
</svg>
