<?xml version="1.0" encoding="UTF-8" standalone="no"?>
<!DOCTYPE svg PUBLIC "-//W3C//DTD SVG 1.1//EN"
 "http://www.w3.org/Graphics/SVG/1.1/DTD/svg11.dtd">
<!-- Generated by graphviz version 2.38.0 (20140413.2041)
 -->
<!-- Title: services::DebouncedButton::ButtonReleased Pages: 1 -->
<!--zoomable 248 -->
<svg id="main" version="1.1" xmlns="http://www.w3.org/2000/svg" xmlns:xlink="http://www.w3.org/1999/xlink" xml:space="preserve" onload="init(evt)">
<style type="text/css"><![CDATA[
.edge:hover path { stroke: red; }
.edge:hover polygon { stroke: red; fill: red; }
]]></style>
<script type="text/javascript"><![CDATA[
var edges = document.getElementsByTagName('g');
if (edges && edges.length) {
  for (var i=0;i<edges.length;i++) {
    if (edges[i].id.substr(0,4)=='edge') {
      edges[i].setAttribute('class','edge');
    }
  }
}
]]></script>
        <defs>
                <circle id="rim" cx="0" cy="0" r="7"/>
                <circle id="rim2" cx="0" cy="0" r="3.5"/>
                <g id="zoomPlus">
                        <use xlink:href="#rim" fill="#404040">
                                <set attributeName="fill" to="#808080" begin="zoomplus.mouseover" end="zoomplus.mouseout"/>
                        </use>
                        <path d="M-4,0h8M0,-4v8" fill="none" stroke="white" stroke-width="1.5" pointer-events="none"/>
                </g>
                <g id="zoomMin">
                        <use xlink:href="#rim" fill="#404040">
                                <set attributeName="fill" to="#808080" begin="zoomminus.mouseover" end="zoomminus.mouseout"/>
                        </use>
                        <path d="M-4,0h8" fill="none" stroke="white" stroke-width="1.5" pointer-events="none"/>
                </g>
                <g id="dirArrow">
                        <path fill="none" stroke="white" stroke-width="1.5" d="M0,-3.0v7 M-2.5,-0.5L0,-3.0L2.5,-0.5"/>
                </g>
               <g id="resetDef">
                       <use xlink:href="#rim2" fill="#404040">
                               <set attributeName="fill" to="#808080" begin="reset.mouseover" end="reset.mouseout"/>
                       </use>
               </g>
        </defs>

<script type="text/javascript">
var viewWidth = 1136;
var viewHeight = 248;
var sectionId = 'dynsection-7';
</script>
<script xlink:href="../../svgpan.js"/>
<svg id="graph" class="graph">
<g id="viewport">
<title>services::DebouncedButton::ButtonReleased</title>
<polygon fill="white" stroke="none" points="-4,4 -4,-243.5 1132,-243.5 1132,4 -4,4"/>
<!-- Node65 -->
<g id="node1" class="node"><title>Node65</title>
<polygon fill="#bfbfbf" stroke="black" points="0,-170.5 0,-200.5 135,-200.5 135,-170.5 0,-170.5"/>
<text text-anchor="start" x="8" y="-188.5" font-family="Helvetica,sans-Serif" font-size="10.00">services::DebouncedButton</text>
<text text-anchor="middle" x="67.5" y="-177.5" font-family="Helvetica,sans-Serif" font-size="10.00">::ButtonReleased</text>
</g>
<!-- Node66 -->
<g id="node2" class="node"><title>Node66</title>
<g id="a_node2"><a xlink:href="../../d5/da5/classinfra_1_1_timer.html#ac2338a506304f76320c470103a00faac" target="_top" xlink:title="infra::Timer::Armed">
<polygon fill="white" stroke="black" points="189,-220 189,-239 288,-239 288,-220 189,-220"/>
<text text-anchor="middle" x="238.5" y="-227" font-family="Helvetica,sans-Serif" font-size="10.00">infra::Timer::Armed</text>
</a>
</g>
</g>
<!-- Node65&#45;&gt;Node66 -->
<g id="edge1" class="edge"><title>Node65&#45;&gt;Node66</title>
<path fill="none" stroke="midnightblue" d="M126.188,-200.519C147.374,-206.035 171.069,-212.204 191.134,-217.428"/>
<polygon fill="midnightblue" stroke="midnightblue" points="190.404,-220.855 200.964,-219.988 192.168,-214.081 190.404,-220.855"/>
</g>
<!-- Node67 -->
<g id="node3" class="node"><title>Node67</title>
<g id="a_node3"><a xlink:href="../../d1/dfe/classservices_1_1_debounced_button.html#ad76c47e6890142a9a4ad9971bbd2991b" target="_top" xlink:title="services::DebouncedButton\l::DebounceEnd">
<polygon fill="white" stroke="black" points="171,-170.5 171,-200.5 306,-200.5 306,-170.5 171,-170.5"/>
<text text-anchor="start" x="179" y="-188.5" font-family="Helvetica,sans-Serif" font-size="10.00">services::DebouncedButton</text>
<text text-anchor="middle" x="238.5" y="-177.5" font-family="Helvetica,sans-Serif" font-size="10.00">::DebounceEnd</text>
</a>
</g>
</g>
<!-- Node65&#45;&gt;Node67 -->
<g id="edge2" class="edge"><title>Node65&#45;&gt;Node67</title>
<path fill="none" stroke="midnightblue" d="M135.293,-185.5C143.624,-185.5 152.194,-185.5 160.661,-185.5"/>
<polygon fill="midnightblue" stroke="midnightblue" points="160.915,-189 170.915,-185.5 160.915,-182 160.915,-189"/>
</g>
<!-- Node68 -->
<g id="node4" class="node"><title>Node68</title>
<g id="a_node4"><a xlink:href="../../d8/d87/classinfra_1_1_timer_single_shot.html#aa76a7526e88f2818fbc6567db181f24d" target="_top" xlink:title="infra::TimerSingleShot\l::Start">
<polygon fill="white" stroke="black" points="182.5,-121.5 182.5,-151.5 294.5,-151.5 294.5,-121.5 182.5,-121.5"/>
<text text-anchor="start" x="190.5" y="-139.5" font-family="Helvetica,sans-Serif" font-size="10.00">infra::TimerSingleShot</text>
<text text-anchor="middle" x="238.5" y="-128.5" font-family="Helvetica,sans-Serif" font-size="10.00">::Start</text>
</a>
</g>
</g>
<!-- Node65&#45;&gt;Node68 -->
<g id="edge3" class="edge"><title>Node65&#45;&gt;Node68</title>
<path fill="none" stroke="midnightblue" d="M120.585,-170.399C138.095,-165.321 157.795,-159.61 175.962,-154.342"/>
<polygon fill="midnightblue" stroke="midnightblue" points="176.958,-157.698 185.587,-151.552 175.008,-150.975 176.958,-157.698"/>
</g>
<!-- Node69 -->
<g id="node5" class="node"><title>Node69</title>
<g id="a_node5"><a xlink:href="../../d5/da5/classinfra_1_1_timer.html#a729101dbfbc04caf3f1217f9feeeff41" target="_top" xlink:title="infra::Timer::Resolution">
<polygon fill="white" stroke="black" points="362,-158 362,-177 478,-177 478,-158 362,-158"/>
<text text-anchor="middle" x="420" y="-165" font-family="Helvetica,sans-Serif" font-size="10.00">infra::Timer::Resolution</text>
</a>
</g>
</g>
<!-- Node68&#45;&gt;Node69 -->
<g id="edge4" class="edge"><title>Node68&#45;&gt;Node69</title>
<path fill="none" stroke="midnightblue" d="M294.821,-146.054C313.505,-149.281 334.536,-152.913 353.906,-156.258"/>
<polygon fill="midnightblue" stroke="midnightblue" points="353.412,-159.725 363.862,-157.978 354.604,-152.827 353.412,-159.725"/>
</g>
<!-- Node71 -->
<g id="node7" class="node"><title>Node71</title>
<g id="a_node7"><a xlink:href="../../d5/da5/classinfra_1_1_timer.html#aa5f1d8f856a15a67ddc7c88e40fe4796" target="_top" xlink:title="infra::Timer::SetNextTriggerTime">
<polygon fill="white" stroke="black" points="342,-97 342,-116 498,-116 498,-97 342,-97"/>
<text text-anchor="middle" x="420" y="-104" font-family="Helvetica,sans-Serif" font-size="10.00">infra::Timer::SetNextTriggerTime</text>
</a>
</g>
</g>
<!-- Node68&#45;&gt;Node71 -->
<g id="edge6" class="edge"><title>Node68&#45;&gt;Node71</title>
<path fill="none" stroke="midnightblue" d="M294.821,-127.254C312.895,-124.233 333.166,-120.846 352.004,-117.697"/>
<polygon fill="midnightblue" stroke="midnightblue" points="352.716,-121.127 362.002,-116.026 351.562,-114.223 352.716,-121.127"/>
</g>
<!-- Node70 -->
<g id="node6" class="node"><title>Node70</title>
<g id="a_node6"><a xlink:href="../../da/def/classinfra_1_1_timer_service.html#ab717e40a1a49d2f31f4a9e2e63f0f5ce" target="_top" xlink:title="infra::TimerService\l::Resolution">
<polygon fill="white" stroke="black" points="562,-164.5 562,-194.5 658,-194.5 658,-164.5 562,-164.5"/>
<text text-anchor="start" x="570" y="-182.5" font-family="Helvetica,sans-Serif" font-size="10.00">infra::TimerService</text>
<text text-anchor="middle" x="610" y="-171.5" font-family="Helvetica,sans-Serif" font-size="10.00">::Resolution</text>
</a>
</g>
</g>
<!-- Node69&#45;&gt;Node70 -->
<g id="edge5" class="edge"><title>Node69&#45;&gt;Node70</title>
<path fill="none" stroke="midnightblue" d="M478.172,-171.149C501.509,-172.639 528.444,-174.358 551.786,-175.848"/>
<polygon fill="midnightblue" stroke="midnightblue" points="551.687,-179.349 561.889,-176.493 552.133,-172.363 551.687,-179.349"/>
</g>
<!-- Node72 -->
<g id="node8" class="node"><title>Node72</title>
<g id="a_node8"><a xlink:href="../../d5/da5/classinfra_1_1_timer.html#a11b396e8d4300da06b8ce83624991b73" target="_top" xlink:title="infra::Timer::Convert">
<polygon fill="white" stroke="black" points="1021.5,-100 1021.5,-119 1124.5,-119 1124.5,-100 1021.5,-100"/>
<text text-anchor="middle" x="1073" y="-107" font-family="Helvetica,sans-Serif" font-size="10.00">infra::Timer::Convert</text>
</a>
</g>
</g>
<!-- Node71&#45;&gt;Node72 -->
<g id="edge7" class="edge"><title>Node71&#45;&gt;Node72</title>
<path fill="none" stroke="midnightblue" d="M498.172,-111.809C510.161,-112.481 522.411,-113.08 534,-113.5 732.985,-120.717 783.034,-124.226 982,-116.5 991.415,-116.134 1001.37,-115.555 1011.09,-114.881"/>
<polygon fill="midnightblue" stroke="midnightblue" points="1011.39,-118.369 1021.11,-114.151 1010.88,-111.387 1011.39,-118.369"/>
</g>
<!-- Node73 -->
<g id="node9" class="node"><title>Node73</title>
<g id="a_node9"><a xlink:href="../../d5/da5/classinfra_1_1_timer.html#aaabecdbe93d2f0299f5f1356c9d1337f" target="_top" xlink:title="infra::Timer::RegisterSelf">
<polygon fill="white" stroke="black" points="548.5,-85 548.5,-104 671.5,-104 671.5,-85 548.5,-85"/>
<text text-anchor="middle" x="610" y="-92" font-family="Helvetica,sans-Serif" font-size="10.00">infra::Timer::RegisterSelf</text>
</a>
</g>
</g>
<!-- Node71&#45;&gt;Node73 -->
<g id="edge8" class="edge"><title>Node71&#45;&gt;Node73</title>
<path fill="none" stroke="midnightblue" d="M498.009,-101.585C511.212,-100.742 524.876,-99.8696 537.915,-99.0373"/>
<polygon fill="midnightblue" stroke="midnightblue" points="538.46,-102.51 548.216,-98.3798 538.014,-95.524 538.46,-102.51"/>
</g>
<!-- Node77 -->
<g id="node13" class="node"><title>Node77</title>
<g id="a_node13"><a xlink:href="../../d5/da5/classinfra_1_1_timer.html#a51a6dd500d70207c8163a053db0b6e60" target="_top" xlink:title="infra::Timer::UpdateTriggerTime">
<polygon fill="white" stroke="black" points="534,-27 534,-46 686,-46 686,-27 534,-27"/>
<text text-anchor="middle" x="610" y="-34" font-family="Helvetica,sans-Serif" font-size="10.00">infra::Timer::UpdateTriggerTime</text>
</a>
</g>
</g>
<!-- Node71&#45;&gt;Node77 -->
<g id="edge13" class="edge"><title>Node71&#45;&gt;Node77</title>
<path fill="none" stroke="midnightblue" d="M446.746,-96.9136C479.703,-84.6427 536.944,-63.3295 573.88,-49.5767"/>
<polygon fill="midnightblue" stroke="midnightblue" points="575.113,-52.8522 583.264,-46.0827 572.671,-46.2921 575.113,-52.8522"/>
</g>
<!-- Node74 -->
<g id="node10" class="node"><title>Node74</title>
<g id="a_node10"><a xlink:href="../../da/def/classinfra_1_1_timer_service.html#ac048d92f92957b56b420dd78bcc84528" target="_top" xlink:title="infra::TimerService\l::RegisterTimer">
<polygon fill="white" stroke="black" points="726,-76.5 726,-106.5 822,-106.5 822,-76.5 726,-76.5"/>
<text text-anchor="start" x="734" y="-94.5" font-family="Helvetica,sans-Serif" font-size="10.00">infra::TimerService</text>
<text text-anchor="middle" x="774" y="-83.5" font-family="Helvetica,sans-Serif" font-size="10.00">::RegisterTimer</text>
</a>
</g>
</g>
<!-- Node73&#45;&gt;Node74 -->
<g id="edge9" class="edge"><title>Node73&#45;&gt;Node74</title>
<path fill="none" stroke="midnightblue" d="M671.784,-93.3744C686.161,-93.1081 701.445,-92.8251 715.664,-92.5618"/>
<polygon fill="midnightblue" stroke="midnightblue" points="715.867,-96.0587 725.8,-92.3741 715.737,-89.0599 715.867,-96.0587"/>
</g>
<!-- Node75 -->
<g id="node11" class="node"><title>Node75</title>
<g id="a_node11"><a xlink:href="../../d5/da5/classinfra_1_1_timer.html#a1efe7b4dc3d40f8357b1fc94855e5145" target="_top" xlink:title="infra::Timer::NextTrigger">
<polygon fill="white" stroke="black" points="862,-88 862,-107 982,-107 982,-88 862,-88"/>
<text text-anchor="middle" x="922" y="-95" font-family="Helvetica,sans-Serif" font-size="10.00">infra::Timer::NextTrigger</text>
</a>
</g>
</g>
<!-- Node74&#45;&gt;Node75 -->
<g id="edge10" class="edge"><title>Node74&#45;&gt;Node75</title>
<path fill="none" stroke="midnightblue" d="M822.402,-93.448C831.733,-93.8315 841.704,-94.2413 851.586,-94.6474"/>
<polygon fill="midnightblue" stroke="midnightblue" points="851.687,-98.1544 861.823,-95.0681 851.975,-91.1603 851.687,-98.1544"/>
</g>
<!-- Node76 -->
<g id="node12" class="node"><title>Node76</title>
<g id="a_node12"><a xlink:href="../../da/def/classinfra_1_1_timer_service.html#a6ae66196dc18d8b383ba5e0f0b6f22fa" target="_top" xlink:title="infra::TimerService\l::NextTriggerChanged">
<polygon fill="white" stroke="black" points="1018,-31.5 1018,-61.5 1128,-61.5 1128,-31.5 1018,-31.5"/>
<text text-anchor="start" x="1026" y="-49.5" font-family="Helvetica,sans-Serif" font-size="10.00">infra::TimerService</text>
<text text-anchor="middle" x="1073" y="-38.5" font-family="Helvetica,sans-Serif" font-size="10.00">::NextTriggerChanged</text>
</a>
</g>
</g>
<!-- Node74&#45;&gt;Node76 -->
<g id="edge12" class="edge"><title>Node74&#45;&gt;Node76</title>
<path fill="none" stroke="midnightblue" d="M822.061,-84.3696C872.182,-76.7755 951.835,-64.7068 1007.72,-56.2397"/>
<polygon fill="midnightblue" stroke="midnightblue" points="1008.5,-59.6611 1017.86,-54.7025 1007.45,-52.7401 1008.5,-59.6611"/>
</g>
<!-- Node75&#45;&gt;Node72 -->
<g id="edge11" class="edge"><title>Node75&#45;&gt;Node72</title>
<path fill="none" stroke="midnightblue" d="M982.317,-102.277C991.733,-103.036 1001.49,-103.821 1010.94,-104.583"/>
<polygon fill="midnightblue" stroke="midnightblue" points="1010.81,-108.083 1021.06,-105.397 1011.37,-101.106 1010.81,-108.083"/>
</g>
<!-- Node78 -->
<g id="node14" class="node"><title>Node78</title>
<g id="a_node14"><a xlink:href="../../da/def/classinfra_1_1_timer_service.html#ac08c18576f1ca147f34136e9f75d124f" target="_top" xlink:title="infra::TimerService\l::UpdateTriggerTime">
<polygon fill="white" stroke="black" points="722,-10.5 722,-40.5 826,-40.5 826,-10.5 722,-10.5"/>
<text text-anchor="start" x="730" y="-28.5" font-family="Helvetica,sans-Serif" font-size="10.00">infra::TimerService</text>
<text text-anchor="middle" x="774" y="-17.5" font-family="Helvetica,sans-Serif" font-size="10.00">::UpdateTriggerTime</text>
</a>
</g>
</g>
<!-- Node77&#45;&gt;Node78 -->
<g id="edge14" class="edge"><title>Node77&#45;&gt;Node78</title>
<path fill="none" stroke="midnightblue" d="M686.309,-31.3864C694.885,-30.8041 703.547,-30.2159 711.908,-29.6482"/>
<polygon fill="midnightblue" stroke="midnightblue" points="712.19,-33.1372 721.93,-28.9677 711.716,-26.1533 712.19,-33.1372"/>
</g>
<!-- Node79 -->
<g id="node15" class="node"><title>Node79</title>
<g id="a_node15"><a xlink:href="../../da/def/classinfra_1_1_timer_service.html#afb8a6ef3ee5ba728f1a8f232514bad8c" target="_top" xlink:title="infra::TimerService\l::ComputeNextTrigger">
<polygon fill="white" stroke="black" points="866.5,-0.5 866.5,-30.5 977.5,-30.5 977.5,-0.5 866.5,-0.5"/>
<text text-anchor="start" x="874.5" y="-18.5" font-family="Helvetica,sans-Serif" font-size="10.00">infra::TimerService</text>
<text text-anchor="middle" x="922" y="-7.5" font-family="Helvetica,sans-Serif" font-size="10.00">::ComputeNextTrigger</text>
</a>
</g>
</g>
<!-- Node78&#45;&gt;Node79 -->
<g id="edge15" class="edge"><title>Node78&#45;&gt;Node79</title>
<path fill="none" stroke="midnightblue" d="M826.064,-22.0025C835.87,-21.3308 846.258,-20.6193 856.425,-19.9229"/>
<polygon fill="midnightblue" stroke="midnightblue" points="856.752,-23.4089 866.489,-19.2336 856.273,-16.4252 856.752,-23.4089"/>
</g>
<!-- Node79&#45;&gt;Node76 -->
<g id="edge16" class="edge"><title>Node79&#45;&gt;Node76</title>
<path fill="none" stroke="midnightblue" d="M977.636,-26.8672C987.478,-28.9149 997.819,-31.0664 1007.9,-33.164"/>
<polygon fill="midnightblue" stroke="midnightblue" points="1007.37,-36.6274 1017.87,-35.2377 1008.79,-29.7741 1007.37,-36.6274"/>
</g>
</g>
</svg>
        <g id="navigator" transform="translate(0 0)" fill="#404254">
                <rect fill="#f2f5e9" fill-opacity="0.5" stroke="#606060" stroke-width=".5" x="0" y="0" width="60" height="60"/>
                <use id="zoomplus" xlink:href="#zoomPlus" x="17" y="9" onmousedown="handleZoom(evt,'in')"/>
                <use id="zoomminus" xlink:href="#zoomMin" x="42" y="9" onmousedown="handleZoom(evt,'out')"/>
                <use id="reset" xlink:href="#resetDef" x="30" y="36" onmousedown="handleReset()"/>
                <g id="arrowUp" xlink:href="#dirArrow" transform="translate(30 24)" onmousedown="handlePan(0,-1)">
                  <use xlink:href="#rim" fill="#404040">
                        <set attributeName="fill" to="#808080" begin="arrowUp.mouseover" end="arrowUp.mouseout"/>
                  </use>
                  <path fill="none" stroke="white" stroke-width="1.5" d="M0,-3.0v7 M-2.5,-0.5L0,-3.0L2.5,-0.5"/>
                </g>
                <g id="arrowRight" xlink:href="#dirArrow" transform="rotate(90) translate(36 -43)" onmousedown="handlePan(1,0)">
                  <use xlink:href="#rim" fill="#404040">
                        <set attributeName="fill" to="#808080" begin="arrowRight.mouseover" end="arrowRight.mouseout"/>
                  </use>
                  <path fill="none" stroke="white" stroke-width="1.5" d="M0,-3.0v7 M-2.5,-0.5L0,-3.0L2.5,-0.5"/>
                </g>
                <g id="arrowDown" xlink:href="#dirArrow" transform="rotate(180) translate(-30 -48)" onmousedown="handlePan(0,1)">
                  <use xlink:href="#rim" fill="#404040">
                        <set attributeName="fill" to="#808080" begin="arrowDown.mouseover" end="arrowDown.mouseout"/>
                  </use>
                  <path fill="none" stroke="white" stroke-width="1.5" d="M0,-3.0v7 M-2.5,-0.5L0,-3.0L2.5,-0.5"/>
                </g>
                <g id="arrowLeft" xlink:href="#dirArrow" transform="rotate(270) translate(-36 17)" onmousedown="handlePan(-1,0)">
                  <use xlink:href="#rim" fill="#404040">
                        <set attributeName="fill" to="#808080" begin="arrowLeft.mouseover" end="arrowLeft.mouseout"/>
                  </use>
                  <path fill="none" stroke="white" stroke-width="1.5" d="M0,-3.0v7 M-2.5,-0.5L0,-3.0L2.5,-0.5"/>
                </g>
        </g>
        <svg viewBox="0 0 15 15" width="100%" height="30px" preserveAspectRatio="xMaxYMin meet">
         <g id="arrow_out" transform="scale(0.3 0.3)">
          <a xlink:href="classservices_1_1_debounced_button_a04ba592736f64e1d65e1f103cfa934f6_cgraph_org.svg" target="_base">
           <rect id="button" ry="5" rx="5" y="6" x="6" height="38" width="38"
                fill="#f2f5e9" fill-opacity="0.5" stroke="#606060" stroke-width="1.0"/>
           <path id="arrow"
             d="M 11.500037,31.436501 C 11.940474,20.09759 22.043105,11.32322 32.158766,21.979434 L 37.068811,17.246167 C 37.068811,17.246167 37.088388,32 37.088388,32 L 22.160133,31.978069 C 22.160133,31.978069 26.997745,27.140456 26.997745,27.140456 C 18.528582,18.264221 13.291696,25.230495 11.500037,31.436501 z"
             style="fill:#404040;"/>
          </a>
         </g>
        </svg>
</svg>
