<?xml version="1.0" encoding="UTF-8" standalone="no"?>
<!DOCTYPE svg PUBLIC "-//W3C//DTD SVG 1.1//EN"
 "http://www.w3.org/Graphics/SVG/1.1/DTD/svg11.dtd">
<!-- Generated by graphviz version 2.38.0 (20140413.2041)
 -->
<!-- Title: services::DebouncedButton::ButtonReleased Pages: 1 -->
<svg width="485pt" height="39pt"
 viewBox="0.00 0.00 485.00 39.00" xmlns="http://www.w3.org/2000/svg" xmlns:xlink="http://www.w3.org/1999/xlink">
<g id="graph0" class="graph" transform="scale(1 1) rotate(0) translate(4 35)">
<title>services::DebouncedButton::ButtonReleased</title>
<polygon fill="white" stroke="none" points="-4,4 -4,-35 481,-35 481,4 -4,4"/>
<!-- Node80 -->
<g id="node1" class="node"><title>Node80</title>
<polygon fill="#bfbfbf" stroke="black" points="0,-0.5 0,-30.5 135,-30.5 135,-0.5 0,-0.5"/>
<text text-anchor="start" x="8" y="-18.5" font-family="Helvetica,sans-Serif" font-size="10.00">services::DebouncedButton</text>
<text text-anchor="middle" x="67.5" y="-7.5" font-family="Helvetica,sans-Serif" font-size="10.00">::ButtonReleased</text>
</g>
<!-- Node81 -->
<g id="node2" class="node"><title>Node81</title>
<g id="a_node2"><a xlink:href="../../d1/dfe/classservices_1_1_debounced_button.html#a1256f1c824fb2ad839ca74f87622feab" target="_top" xlink:title="services::DebouncedButton\l::ButtonChanged">
<polygon fill="white" stroke="black" points="171,-0.5 171,-30.5 306,-30.5 306,-0.5 171,-0.5"/>
<text text-anchor="start" x="179" y="-18.5" font-family="Helvetica,sans-Serif" font-size="10.00">services::DebouncedButton</text>
<text text-anchor="middle" x="238.5" y="-7.5" font-family="Helvetica,sans-Serif" font-size="10.00">::ButtonChanged</text>
</a>
</g>
</g>
<!-- Node80&#45;&gt;Node81 -->
<g id="edge1" class="edge"><title>Node80&#45;&gt;Node81</title>
<path fill="none" stroke="midnightblue" d="M145.551,-15.5C154.019,-15.5 162.589,-15.5 170.915,-15.5"/>
<polygon fill="midnightblue" stroke="midnightblue" points="145.293,-12.0001 135.293,-15.5 145.293,-19.0001 145.293,-12.0001"/>
</g>
<!-- Node82 -->
<g id="node3" class="node"><title>Node82</title>
<g id="a_node3"><a xlink:href="../../d1/dfe/classservices_1_1_debounced_button.html#aa4d2ea4a1751a1d33ddb65e61ae719b1" target="_top" xlink:title="services::DebouncedButton\l::DebouncedButton">
<polygon fill="white" stroke="black" points="342,-0.5 342,-30.5 477,-30.5 477,-0.5 342,-0.5"/>
<text text-anchor="start" x="350" y="-18.5" font-family="Helvetica,sans-Serif" font-size="10.00">services::DebouncedButton</text>
<text text-anchor="middle" x="409.5" y="-7.5" font-family="Helvetica,sans-Serif" font-size="10.00">::DebouncedButton</text>
</a>
</g>
</g>
<!-- Node81&#45;&gt;Node82 -->
<g id="edge2" class="edge"><title>Node81&#45;&gt;Node82</title>
<path fill="none" stroke="midnightblue" d="M316.551,-15.5C325.019,-15.5 333.589,-15.5 341.915,-15.5"/>
<polygon fill="midnightblue" stroke="midnightblue" points="316.293,-12.0001 306.293,-15.5 316.293,-19.0001 316.293,-12.0001"/>
</g>
</g>
</svg>
