<?xml version="1.0" encoding="UTF-8" standalone="no"?>
<!DOCTYPE svg PUBLIC "-//W3C//DTD SVG 1.1//EN"
 "http://www.w3.org/Graphics/SVG/1.1/DTD/svg11.dtd">
<!-- Generated by graphviz version 2.38.0 (20140413.2041)
 -->
<!-- Title: services::ConnectionSerial::StateConnectedSendingContent::StateConnectedSendingContent Pages: 1 -->
<svg width="530pt" height="50pt"
 viewBox="0.00 0.00 530.00 50.00" xmlns="http://www.w3.org/2000/svg" xmlns:xlink="http://www.w3.org/1999/xlink">
<g id="graph0" class="graph" transform="scale(1 1) rotate(0) translate(4 46)">
<title>services::ConnectionSerial::StateConnectedSendingContent::StateConnectedSendingContent</title>
<polygon fill="white" stroke="none" points="-4,4 -4,-46 526,-46 526,4 -4,4"/>
<!-- Node0 -->
<g id="node1" class="node"><title>Node0</title>
<polygon fill="#bfbfbf" stroke="black" points="0,-0.5 0,-41.5 161,-41.5 161,-0.5 0,-0.5"/>
<text text-anchor="start" x="8" y="-29.5" font-family="Helvetica,sans-Serif" font-size="10.00">services::ConnectionSerial</text>
<text text-anchor="start" x="8" y="-18.5" font-family="Helvetica,sans-Serif" font-size="10.00">::StateConnectedSendingContent</text>
<text text-anchor="middle" x="80.5" y="-7.5" font-family="Helvetica,sans-Serif" font-size="10.00">::StateConnectedSendingContent</text>
</g>
<!-- Node1 -->
<g id="node2" class="node"><title>Node1</title>
<g id="a_node2"><a xlink:href="../../d4/d55/classservices_1_1_connection_serial_1_1_state_connected_sending_content.html#a6fc48730dbfc337a09e6825dc11bc1a7" target="_top" xlink:title="services::ConnectionSerial\l::StateConnectedSendingContent\l::SendContentWithSize">
<polygon fill="white" stroke="black" points="197,-0.5 197,-41.5 358,-41.5 358,-0.5 197,-0.5"/>
<text text-anchor="start" x="205" y="-29.5" font-family="Helvetica,sans-Serif" font-size="10.00">services::ConnectionSerial</text>
<text text-anchor="start" x="205" y="-18.5" font-family="Helvetica,sans-Serif" font-size="10.00">::StateConnectedSendingContent</text>
<text text-anchor="middle" x="277.5" y="-7.5" font-family="Helvetica,sans-Serif" font-size="10.00">::SendContentWithSize</text>
</a>
</g>
</g>
<!-- Node0&#45;&gt;Node1 -->
<g id="edge1" class="edge"><title>Node0&#45;&gt;Node1</title>
<path fill="none" stroke="midnightblue" d="M161.095,-21C169.573,-21 178.237,-21 186.821,-21"/>
<polygon fill="midnightblue" stroke="midnightblue" points="186.843,-24.5001 196.843,-21 186.843,-17.5001 186.843,-24.5001"/>
</g>
<!-- Node2 -->
<g id="node3" class="node"><title>Node2</title>
<g id="a_node3"><a xlink:href="../../d6/dba/classhal_1_1_serial_communication.html#a9c94f3aed0ca15268f0f731ea53fcdf6" target="_top" xlink:title="hal::SerialCommunication\l::SendData">
<polygon fill="white" stroke="black" points="394,-6 394,-36 522,-36 522,-6 394,-6"/>
<text text-anchor="start" x="402" y="-24" font-family="Helvetica,sans-Serif" font-size="10.00">hal::SerialCommunication</text>
<text text-anchor="middle" x="458" y="-13" font-family="Helvetica,sans-Serif" font-size="10.00">::SendData</text>
</a>
</g>
</g>
<!-- Node1&#45;&gt;Node2 -->
<g id="edge2" class="edge"><title>Node1&#45;&gt;Node2</title>
<path fill="none" stroke="midnightblue" d="M358.092,-21C366.619,-21 375.264,-21 383.712,-21"/>
<polygon fill="midnightblue" stroke="midnightblue" points="383.897,-24.5001 393.897,-21 383.897,-17.5001 383.897,-24.5001"/>
</g>
</g>
</svg>
