<?xml version="1.0" encoding="UTF-8" standalone="no"?>
<!DOCTYPE svg PUBLIC "-//W3C//DTD SVG 1.1//EN"
 "http://www.w3.org/Graphics/SVG/1.1/DTD/svg11.dtd">
<!-- Generated by graphviz version 2.38.0 (20140413.2041)
 -->
<!-- Title: services::ConnectionSerial::SendStreamFilled Pages: 1 -->
<svg width="318pt" height="100pt"
 viewBox="0.00 0.00 318.00 99.50" xmlns="http://www.w3.org/2000/svg" xmlns:xlink="http://www.w3.org/1999/xlink">
<g id="graph0" class="graph" transform="scale(1 1) rotate(0) translate(4 95.5)">
<title>services::ConnectionSerial::SendStreamFilled</title>
<polygon fill="white" stroke="none" points="-4,4 -4,-95.5 314,-95.5 314,4 -4,4"/>
<!-- Node93 -->
<g id="node1" class="node"><title>Node93</title>
<polygon fill="#bfbfbf" stroke="black" points="0,-27.5 0,-57.5 131,-57.5 131,-27.5 0,-27.5"/>
<text text-anchor="start" x="8" y="-45.5" font-family="Helvetica,sans-Serif" font-size="10.00">services::ConnectionSerial</text>
<text text-anchor="middle" x="65.5" y="-34.5" font-family="Helvetica,sans-Serif" font-size="10.00">::SendStreamFilled</text>
</g>
<!-- Node94 -->
<g id="node2" class="node"><title>Node94</title>
<g id="a_node2"><a xlink:href="../../d3/d0e/classinfra_1_1_interface_connector.html#aed1d9e952d3d0dfa68e59ee4e868b380" target="_top" xlink:title="infra::InterfaceConnector\l\&lt; EventDispatcherWorker\l \&gt;::Instance">
<polygon fill="white" stroke="black" points="174.5,-50 174.5,-91 302.5,-91 302.5,-50 174.5,-50"/>
<text text-anchor="start" x="182.5" y="-79" font-family="Helvetica,sans-Serif" font-size="10.00">infra::InterfaceConnector</text>
<text text-anchor="start" x="182.5" y="-68" font-family="Helvetica,sans-Serif" font-size="10.00">&lt; EventDispatcherWorker</text>
<text text-anchor="middle" x="238.5" y="-57" font-family="Helvetica,sans-Serif" font-size="10.00"> &gt;::Instance</text>
</a>
</g>
</g>
<!-- Node93&#45;&gt;Node94 -->
<g id="edge1" class="edge"><title>Node93&#45;&gt;Node94</title>
<path fill="none" stroke="midnightblue" d="M131.148,-53.0856C142.01,-54.8641 153.349,-56.721 164.407,-58.5315"/>
<polygon fill="midnightblue" stroke="midnightblue" points="164.025,-62.0156 174.46,-60.1776 165.157,-55.1076 164.025,-62.0156"/>
</g>
<!-- Node95 -->
<g id="node3" class="node"><title>Node95</title>
<g id="a_node3"><a xlink:href="../../d7/d34/classinfra_1_1_event_dispatcher_worker.html#a5922b8fd5101b15f20b639fcd11fa272" target="_top" xlink:title="infra::EventDispatcherWorker\l::Schedule">
<polygon fill="white" stroke="black" points="167,-0.5 167,-30.5 310,-30.5 310,-0.5 167,-0.5"/>
<text text-anchor="start" x="175" y="-18.5" font-family="Helvetica,sans-Serif" font-size="10.00">infra::EventDispatcherWorker</text>
<text text-anchor="middle" x="238.5" y="-7.5" font-family="Helvetica,sans-Serif" font-size="10.00">::Schedule</text>
</a>
</g>
</g>
<!-- Node93&#45;&gt;Node95 -->
<g id="edge2" class="edge"><title>Node93&#45;&gt;Node95</title>
<path fill="none" stroke="midnightblue" d="M131.148,-32.2925C139.509,-30.9722 148.154,-29.6073 156.735,-28.2524"/>
<polygon fill="midnightblue" stroke="midnightblue" points="157.426,-31.6867 166.758,-26.6698 156.334,-24.7724 157.426,-31.6867"/>
</g>
</g>
</svg>
