<?xml version="1.0" encoding="UTF-8" standalone="no"?>
<!DOCTYPE svg PUBLIC "-//W3C//DTD SVG 1.1//EN"
 "http://www.w3.org/Graphics/SVG/1.1/DTD/svg11.dtd">
<!-- Generated by graphviz version 2.38.0 (20140413.2041)
 -->
<!-- Title: services::ConnectionSerial::ConnectionSerial Pages: 1 -->
<!--zoomable 307 -->
<svg id="main" version="1.1" xmlns="http://www.w3.org/2000/svg" xmlns:xlink="http://www.w3.org/1999/xlink" xml:space="preserve" onload="init(evt)">
<style type="text/css"><![CDATA[
.edge:hover path { stroke: red; }
.edge:hover polygon { stroke: red; fill: red; }
]]></style>
<script type="text/javascript"><![CDATA[
var edges = document.getElementsByTagName('g');
if (edges && edges.length) {
  for (var i=0;i<edges.length;i++) {
    if (edges[i].id.substr(0,4)=='edge') {
      edges[i].setAttribute('class','edge');
    }
  }
}
]]></script>
        <defs>
                <circle id="rim" cx="0" cy="0" r="7"/>
                <circle id="rim2" cx="0" cy="0" r="3.5"/>
                <g id="zoomPlus">
                        <use xlink:href="#rim" fill="#404040">
                                <set attributeName="fill" to="#808080" begin="zoomplus.mouseover" end="zoomplus.mouseout"/>
                        </use>
                        <path d="M-4,0h8M0,-4v8" fill="none" stroke="white" stroke-width="1.5" pointer-events="none"/>
                </g>
                <g id="zoomMin">
                        <use xlink:href="#rim" fill="#404040">
                                <set attributeName="fill" to="#808080" begin="zoomminus.mouseover" end="zoomminus.mouseout"/>
                        </use>
                        <path d="M-4,0h8" fill="none" stroke="white" stroke-width="1.5" pointer-events="none"/>
                </g>
                <g id="dirArrow">
                        <path fill="none" stroke="white" stroke-width="1.5" d="M0,-3.0v7 M-2.5,-0.5L0,-3.0L2.5,-0.5"/>
                </g>
               <g id="resetDef">
                       <use xlink:href="#rim2" fill="#404040">
                               <set attributeName="fill" to="#808080" begin="reset.mouseover" end="reset.mouseout"/>
                       </use>
               </g>
        </defs>

<script type="text/javascript">
var viewWidth = 664;
var viewHeight = 307;
var sectionId = 'dynsection-2';
</script>
<script xlink:href="../../svgpan.js"/>
<svg id="graph" class="graph">
<g id="viewport">
<title>services::ConnectionSerial::ConnectionSerial</title>
<polygon fill="white" stroke="none" points="-4,4 -4,-303 660,-303 660,4 -4,4"/>
<!-- Node0 -->
<g id="node1" class="node"><title>Node0</title>
<polygon fill="#bfbfbf" stroke="black" points="0,-137.5 0,-167.5 131,-167.5 131,-137.5 0,-137.5"/>
<text text-anchor="start" x="8" y="-155.5" font-family="Helvetica,sans-Serif" font-size="10.00">services::ConnectionSerial</text>
<text text-anchor="middle" x="65.5" y="-144.5" font-family="Helvetica,sans-Serif" font-size="10.00">::ConnectionSerial</text>
</g>
<!-- Node1 -->
<g id="node2" class="node"><title>Node1</title>
<g id="a_node2"><a xlink:href="../../d3/d9a/classservices_1_1_connection_serial.html#aa73b9bcb4977f524024f1fdcc547e0bc" target="_top" xlink:title="services::ConnectionSerial\l::DataReceived">
<polygon fill="white" stroke="black" points="167,-137.5 167,-167.5 298,-167.5 298,-137.5 167,-137.5"/>
<text text-anchor="start" x="175" y="-155.5" font-family="Helvetica,sans-Serif" font-size="10.00">services::ConnectionSerial</text>
<text text-anchor="middle" x="232.5" y="-144.5" font-family="Helvetica,sans-Serif" font-size="10.00">::DataReceived</text>
</a>
</g>
</g>
<!-- Node0&#45;&gt;Node1 -->
<g id="edge1" class="edge"><title>Node0&#45;&gt;Node1</title>
<path fill="none" stroke="midnightblue" d="M131.239,-152.5C139.583,-152.5 148.182,-152.5 156.671,-152.5"/>
<polygon fill="midnightblue" stroke="midnightblue" points="156.948,-156 166.948,-152.5 156.948,-149 156.948,-156"/>
</g>
<!-- Node2 -->
<g id="node3" class="node"><title>Node2</title>
<g id="a_node3"><a xlink:href="../../db/de0/classinfra_1_1_queue_for_one_reader_one_irq_writer.html#a7aba41b19d15b485af1c84e09fb73233" target="_top" xlink:title="infra::QueueForOneReader\lOneIrqWriter::Empty">
<polygon fill="white" stroke="black" points="524,-202.5 524,-232.5 656,-232.5 656,-202.5 524,-202.5"/>
<text text-anchor="start" x="532" y="-220.5" font-family="Helvetica,sans-Serif" font-size="10.00">infra::QueueForOneReader</text>
<text text-anchor="middle" x="590" y="-209.5" font-family="Helvetica,sans-Serif" font-size="10.00">OneIrqWriter::Empty</text>
</a>
</g>
</g>
<!-- Node1&#45;&gt;Node2 -->
<g id="edge2" class="edge"><title>Node1&#45;&gt;Node2</title>
<path fill="none" stroke="midnightblue" d="M247.739,-167.733C265.783,-185.805 298.799,-214.938 334,-226.5 392.198,-245.615 461.926,-241.453 513.747,-233.584"/>
<polygon fill="midnightblue" stroke="midnightblue" points="514.541,-237.002 523.863,-231.967 513.436,-230.09 514.541,-237.002"/>
</g>
<!-- Node3 -->
<g id="node4" class="node"><title>Node3</title>
<g id="a_node4"><a xlink:href="../../db/de0/classinfra_1_1_queue_for_one_reader_one_irq_writer.html#ac5d69da54e3c91602f13164262424007" target="_top" xlink:title="infra::QueueForOneReader\lOneIrqWriter::Consume">
<polygon fill="white" stroke="black" points="524,-109.5 524,-139.5 656,-139.5 656,-109.5 524,-109.5"/>
<text text-anchor="start" x="532" y="-127.5" font-family="Helvetica,sans-Serif" font-size="10.00">infra::QueueForOneReader</text>
<text text-anchor="middle" x="590" y="-116.5" font-family="Helvetica,sans-Serif" font-size="10.00">OneIrqWriter::Consume</text>
</a>
</g>
</g>
<!-- Node1&#45;&gt;Node3 -->
<g id="edge3" class="edge"><title>Node1&#45;&gt;Node3</title>
<path fill="none" stroke="midnightblue" d="M247.739,-137.267C265.783,-119.195 298.799,-90.0617 334,-78.5 399.027,-57.1423 421.112,-63.9854 488,-78.5 511.463,-83.5915 536.015,-94.6252 555.036,-104.61"/>
<polygon fill="midnightblue" stroke="midnightblue" points="553.438,-107.725 563.9,-109.397 556.764,-101.566 553.438,-107.725"/>
</g>
<!-- Node4 -->
<g id="node5" class="node"><title>Node4</title>
<g id="a_node5"><a xlink:href="../../d0/de3/namespaceinfra.html#a97dc5194236a205b697e668f00d42353" target="_top" xlink:title="infra::Head">
<polygon fill="white" stroke="black" points="379.5,-274 379.5,-293 442.5,-293 442.5,-274 379.5,-274"/>
<text text-anchor="middle" x="411" y="-281" font-family="Helvetica,sans-Serif" font-size="10.00">infra::Head</text>
</a>
</g>
</g>
<!-- Node1&#45;&gt;Node4 -->
<g id="edge4" class="edge"><title>Node1&#45;&gt;Node4</title>
<path fill="none" stroke="midnightblue" d="M243.724,-167.584C260.127,-190.665 294.517,-234.675 334,-259.5 344.707,-266.232 357.457,-271.216 369.426,-274.843"/>
<polygon fill="midnightblue" stroke="midnightblue" points="368.662,-278.263 379.235,-277.578 370.543,-271.521 368.662,-278.263"/>
</g>
<!-- Node6 -->
<g id="node7" class="node"><title>Node6</title>
<g id="a_node7"><a xlink:href="../../db/de0/classinfra_1_1_queue_for_one_reader_one_irq_writer.html#aac4934838fab809443a21e15aca4da54" target="_top" xlink:title="infra::QueueForOneReader\lOneIrqWriter::ContiguousRange">
<polygon fill="white" stroke="black" points="334,-137.5 334,-167.5 488,-167.5 488,-137.5 334,-137.5"/>
<text text-anchor="start" x="342" y="-155.5" font-family="Helvetica,sans-Serif" font-size="10.00">infra::QueueForOneReader</text>
<text text-anchor="middle" x="411" y="-144.5" font-family="Helvetica,sans-Serif" font-size="10.00">OneIrqWriter::ContiguousRange</text>
</a>
</g>
</g>
<!-- Node1&#45;&gt;Node6 -->
<g id="edge6" class="edge"><title>Node1&#45;&gt;Node6</title>
<path fill="none" stroke="midnightblue" d="M298.22,-152.5C306.564,-152.5 315.211,-152.5 323.832,-152.5"/>
<polygon fill="midnightblue" stroke="midnightblue" points="323.92,-156 333.92,-152.5 323.92,-149 323.92,-156"/>
</g>
<!-- Node7 -->
<g id="node8" class="node"><title>Node7</title>
<g id="a_node8"><a xlink:href="../../db/de0/classinfra_1_1_queue_for_one_reader_one_irq_writer.html#a88a65f2fc6596fef39c5cde661448b68" target="_top" xlink:title="infra::QueueForOneReader\lOneIrqWriter::Size">
<polygon fill="white" stroke="black" points="345,-88.5 345,-118.5 477,-118.5 477,-88.5 345,-88.5"/>
<text text-anchor="start" x="353" y="-106.5" font-family="Helvetica,sans-Serif" font-size="10.00">infra::QueueForOneReader</text>
<text text-anchor="middle" x="411" y="-95.5" font-family="Helvetica,sans-Serif" font-size="10.00">OneIrqWriter::Size</text>
</a>
</g>
</g>
<!-- Node1&#45;&gt;Node7 -->
<g id="edge7" class="edge"><title>Node1&#45;&gt;Node7</title>
<path fill="none" stroke="midnightblue" d="M287.896,-137.399C306.268,-132.298 326.947,-126.557 345.993,-121.27"/>
<polygon fill="midnightblue" stroke="midnightblue" points="347.084,-124.599 355.784,-118.552 345.212,-117.854 347.084,-124.599"/>
</g>
<!-- Node8 -->
<g id="node9" class="node"><title>Node8</title>
<g id="a_node9"><a xlink:href="../../d3/d9a/classservices_1_1_connection_serial.html#a21cabf2d09faeaccb3858424f490538d" target="_top" xlink:title="services::ConnectionSerial\l::TryConstructHeader">
<polygon fill="white" stroke="black" points="345.5,-186.5 345.5,-216.5 476.5,-216.5 476.5,-186.5 345.5,-186.5"/>
<text text-anchor="start" x="353.5" y="-204.5" font-family="Helvetica,sans-Serif" font-size="10.00">services::ConnectionSerial</text>
<text text-anchor="middle" x="411" y="-193.5" font-family="Helvetica,sans-Serif" font-size="10.00">::TryConstructHeader</text>
</a>
</g>
</g>
<!-- Node1&#45;&gt;Node8 -->
<g id="edge8" class="edge"><title>Node1&#45;&gt;Node8</title>
<path fill="none" stroke="midnightblue" d="M287.896,-167.601C306.268,-172.702 326.947,-178.443 345.993,-183.73"/>
<polygon fill="midnightblue" stroke="midnightblue" points="345.212,-187.146 355.784,-186.448 347.084,-180.401 345.212,-187.146"/>
</g>
<!-- Node9 -->
<g id="node10" class="node"><title>Node9</title>
<g id="a_node10"><a xlink:href="../../d3/d9a/classservices_1_1_connection_serial.html#a2309e96e69775ad65e421888a7a330b5" target="_top" xlink:title="services::ConnectionSerial\l::TryProcessHeader">
<polygon fill="white" stroke="black" points="345.5,-0.5 345.5,-30.5 476.5,-30.5 476.5,-0.5 345.5,-0.5"/>
<text text-anchor="start" x="353.5" y="-18.5" font-family="Helvetica,sans-Serif" font-size="10.00">services::ConnectionSerial</text>
<text text-anchor="middle" x="411" y="-7.5" font-family="Helvetica,sans-Serif" font-size="10.00">::TryProcessHeader</text>
</a>
</g>
</g>
<!-- Node1&#45;&gt;Node9 -->
<g id="edge11" class="edge"><title>Node1&#45;&gt;Node9</title>
<path fill="none" stroke="midnightblue" d="M244.217,-137.377C261.017,-114.641 295.622,-71.5498 334,-45.5 339.757,-41.5926 346.097,-38.0813 352.586,-34.9576"/>
<polygon fill="midnightblue" stroke="midnightblue" points="354.465,-37.9507 362.15,-30.6576 351.594,-31.5663 354.465,-37.9507"/>
</g>
<!-- Node5 -->
<g id="node6" class="node"><title>Node5</title>
<g id="a_node6"><a xlink:href="../../d0/d6d/classinfra_1_1_memory_range.html#a322f6976f2774c6ba7494b9e27f07624" target="_top" xlink:title="infra::MemoryRange\l::shrink_from_back_to">
<polygon fill="white" stroke="black" points="533.5,-268.5 533.5,-298.5 646.5,-298.5 646.5,-268.5 533.5,-268.5"/>
<text text-anchor="start" x="541.5" y="-286.5" font-family="Helvetica,sans-Serif" font-size="10.00">infra::MemoryRange</text>
<text text-anchor="middle" x="590" y="-275.5" font-family="Helvetica,sans-Serif" font-size="10.00">::shrink_from_back_to</text>
</a>
</g>
</g>
<!-- Node4&#45;&gt;Node5 -->
<g id="edge5" class="edge"><title>Node4&#45;&gt;Node5</title>
<path fill="none" stroke="midnightblue" d="M442.831,-283.5C464.875,-283.5 495.375,-283.5 522.813,-283.5"/>
<polygon fill="midnightblue" stroke="midnightblue" points="523.156,-287 533.156,-283.5 523.156,-280 523.156,-287"/>
</g>
<!-- Node8&#45;&gt;Node2 -->
<g id="edge9" class="edge"><title>Node8&#45;&gt;Node2</title>
<path fill="none" stroke="midnightblue" d="M476.652,-207.344C488.688,-208.432 501.36,-209.578 513.683,-210.692"/>
<polygon fill="midnightblue" stroke="midnightblue" points="513.656,-214.203 523.93,-211.618 514.286,-207.232 513.656,-214.203"/>
</g>
<!-- Node8&#45;&gt;Node3 -->
<g id="edge10" class="edge"><title>Node8&#45;&gt;Node3</title>
<path fill="none" stroke="midnightblue" d="M463.955,-186.449C472.09,-183.705 480.336,-180.691 488,-177.5 510.78,-168.015 535.313,-155.206 554.496,-144.557"/>
<polygon fill="midnightblue" stroke="midnightblue" points="556.447,-147.475 563.452,-139.526 553.019,-141.372 556.447,-147.475"/>
</g>
<!-- Node10 -->
<g id="node11" class="node"><title>Node10</title>
<g id="a_node11"><a xlink:href="../../d3/d9a/classservices_1_1_connection_serial.html#ac09952b64af6df62b42579b233cd1c8d" target="_top" xlink:title="services::ConnectionSerial\l::ProcessHeader">
<polygon fill="white" stroke="black" points="524.5,-0.5 524.5,-30.5 655.5,-30.5 655.5,-0.5 524.5,-0.5"/>
<text text-anchor="start" x="532.5" y="-18.5" font-family="Helvetica,sans-Serif" font-size="10.00">services::ConnectionSerial</text>
<text text-anchor="middle" x="590" y="-7.5" font-family="Helvetica,sans-Serif" font-size="10.00">::ProcessHeader</text>
</a>
</g>
</g>
<!-- Node9&#45;&gt;Node10 -->
<g id="edge12" class="edge"><title>Node9&#45;&gt;Node10</title>
<path fill="none" stroke="midnightblue" d="M476.652,-15.5C488.765,-15.5 501.522,-15.5 513.92,-15.5"/>
<polygon fill="midnightblue" stroke="midnightblue" points="514.227,-19.0001 524.227,-15.5 514.227,-12.0001 514.227,-19.0001"/>
</g>
</g>
</svg>
        <g id="navigator" transform="translate(0 0)" fill="#404254">
                <rect fill="#f2f5e9" fill-opacity="0.5" stroke="#606060" stroke-width=".5" x="0" y="0" width="60" height="60"/>
                <use id="zoomplus" xlink:href="#zoomPlus" x="17" y="9" onmousedown="handleZoom(evt,'in')"/>
                <use id="zoomminus" xlink:href="#zoomMin" x="42" y="9" onmousedown="handleZoom(evt,'out')"/>
                <use id="reset" xlink:href="#resetDef" x="30" y="36" onmousedown="handleReset()"/>
                <g id="arrowUp" xlink:href="#dirArrow" transform="translate(30 24)" onmousedown="handlePan(0,-1)">
                  <use xlink:href="#rim" fill="#404040">
                        <set attributeName="fill" to="#808080" begin="arrowUp.mouseover" end="arrowUp.mouseout"/>
                  </use>
                  <path fill="none" stroke="white" stroke-width="1.5" d="M0,-3.0v7 M-2.5,-0.5L0,-3.0L2.5,-0.5"/>
                </g>
                <g id="arrowRight" xlink:href="#dirArrow" transform="rotate(90) translate(36 -43)" onmousedown="handlePan(1,0)">
                  <use xlink:href="#rim" fill="#404040">
                        <set attributeName="fill" to="#808080" begin="arrowRight.mouseover" end="arrowRight.mouseout"/>
                  </use>
                  <path fill="none" stroke="white" stroke-width="1.5" d="M0,-3.0v7 M-2.5,-0.5L0,-3.0L2.5,-0.5"/>
                </g>
                <g id="arrowDown" xlink:href="#dirArrow" transform="rotate(180) translate(-30 -48)" onmousedown="handlePan(0,1)">
                  <use xlink:href="#rim" fill="#404040">
                        <set attributeName="fill" to="#808080" begin="arrowDown.mouseover" end="arrowDown.mouseout"/>
                  </use>
                  <path fill="none" stroke="white" stroke-width="1.5" d="M0,-3.0v7 M-2.5,-0.5L0,-3.0L2.5,-0.5"/>
                </g>
                <g id="arrowLeft" xlink:href="#dirArrow" transform="rotate(270) translate(-36 17)" onmousedown="handlePan(-1,0)">
                  <use xlink:href="#rim" fill="#404040">
                        <set attributeName="fill" to="#808080" begin="arrowLeft.mouseover" end="arrowLeft.mouseout"/>
                  </use>
                  <path fill="none" stroke="white" stroke-width="1.5" d="M0,-3.0v7 M-2.5,-0.5L0,-3.0L2.5,-0.5"/>
                </g>
        </g>
        <svg viewBox="0 0 15 15" width="100%" height="30px" preserveAspectRatio="xMaxYMin meet">
         <g id="arrow_out" transform="scale(0.3 0.3)">
          <a xlink:href="classservices_1_1_connection_serial_a8b3be5e9bc93c0c1d1343437e8af2d8f_cgraph_org.svg" target="_base">
           <rect id="button" ry="5" rx="5" y="6" x="6" height="38" width="38"
                fill="#f2f5e9" fill-opacity="0.5" stroke="#606060" stroke-width="1.0"/>
           <path id="arrow"
             d="M 11.500037,31.436501 C 11.940474,20.09759 22.043105,11.32322 32.158766,21.979434 L 37.068811,17.246167 C 37.068811,17.246167 37.088388,32 37.088388,32 L 22.160133,31.978069 C 22.160133,31.978069 26.997745,27.140456 26.997745,27.140456 C 18.528582,18.264221 13.291696,25.230495 11.500037,31.436501 z"
             style="fill:#404040;"/>
          </a>
         </g>
        </svg>
</svg>
