<?xml version="1.0" encoding="UTF-8" standalone="no"?>
<!DOCTYPE svg PUBLIC "-//W3C//DTD SVG 1.1//EN"
 "http://www.w3.org/Graphics/SVG/1.1/DTD/svg11.dtd">
<!-- Generated by graphviz version 2.38.0 (20140413.2041)
 -->
<!-- Title: services::ConnectionSerial::ProcessHeader Pages: 1 -->
<svg width="640pt" height="39pt"
 viewBox="0.00 0.00 640.00 39.00" xmlns="http://www.w3.org/2000/svg" xmlns:xlink="http://www.w3.org/1999/xlink">
<g id="graph0" class="graph" transform="scale(1 1) rotate(0) translate(4 35)">
<title>services::ConnectionSerial::ProcessHeader</title>
<polygon fill="white" stroke="none" points="-4,4 -4,-35 636,-35 636,4 -4,4"/>
<!-- Node66 -->
<g id="node1" class="node"><title>Node66</title>
<polygon fill="#bfbfbf" stroke="black" points="0,-0.5 0,-30.5 131,-30.5 131,-0.5 0,-0.5"/>
<text text-anchor="start" x="8" y="-18.5" font-family="Helvetica,sans-Serif" font-size="10.00">services::ConnectionSerial</text>
<text text-anchor="middle" x="65.5" y="-7.5" font-family="Helvetica,sans-Serif" font-size="10.00">::ProcessHeader</text>
</g>
<!-- Node67 -->
<g id="node2" class="node"><title>Node67</title>
<g id="a_node2"><a xlink:href="../../d3/d9a/classservices_1_1_connection_serial.html#a2309e96e69775ad65e421888a7a330b5" target="_top" xlink:title="services::ConnectionSerial\l::TryProcessHeader">
<polygon fill="white" stroke="black" points="167,-0.5 167,-30.5 298,-30.5 298,-0.5 167,-0.5"/>
<text text-anchor="start" x="175" y="-18.5" font-family="Helvetica,sans-Serif" font-size="10.00">services::ConnectionSerial</text>
<text text-anchor="middle" x="232.5" y="-7.5" font-family="Helvetica,sans-Serif" font-size="10.00">::TryProcessHeader</text>
</a>
</g>
</g>
<!-- Node66&#45;&gt;Node67 -->
<g id="edge1" class="edge"><title>Node66&#45;&gt;Node67</title>
<path fill="none" stroke="midnightblue" d="M141.239,-15.5C149.821,-15.5 158.516,-15.5 166.948,-15.5"/>
<polygon fill="midnightblue" stroke="midnightblue" points="141.239,-12.0001 131.239,-15.5 141.239,-19.0001 141.239,-12.0001"/>
</g>
<!-- Node68 -->
<g id="node3" class="node"><title>Node68</title>
<g id="a_node3"><a xlink:href="../../d3/d9a/classservices_1_1_connection_serial.html#aa73b9bcb4977f524024f1fdcc547e0bc" target="_top" xlink:title="services::ConnectionSerial\l::DataReceived">
<polygon fill="white" stroke="black" points="334,-0.5 334,-30.5 465,-30.5 465,-0.5 334,-0.5"/>
<text text-anchor="start" x="342" y="-18.5" font-family="Helvetica,sans-Serif" font-size="10.00">services::ConnectionSerial</text>
<text text-anchor="middle" x="399.5" y="-7.5" font-family="Helvetica,sans-Serif" font-size="10.00">::DataReceived</text>
</a>
</g>
</g>
<!-- Node67&#45;&gt;Node68 -->
<g id="edge2" class="edge"><title>Node67&#45;&gt;Node68</title>
<path fill="none" stroke="midnightblue" d="M308.239,-15.5C316.821,-15.5 325.516,-15.5 333.948,-15.5"/>
<polygon fill="midnightblue" stroke="midnightblue" points="308.239,-12.0001 298.239,-15.5 308.239,-19.0001 308.239,-12.0001"/>
</g>
<!-- Node69 -->
<g id="node4" class="node"><title>Node69</title>
<g id="a_node4"><a xlink:href="../../d3/d9a/classservices_1_1_connection_serial.html#a8b3be5e9bc93c0c1d1343437e8af2d8f" target="_top" xlink:title="services::ConnectionSerial\l::ConnectionSerial">
<polygon fill="white" stroke="black" points="501,-0.5 501,-30.5 632,-30.5 632,-0.5 501,-0.5"/>
<text text-anchor="start" x="509" y="-18.5" font-family="Helvetica,sans-Serif" font-size="10.00">services::ConnectionSerial</text>
<text text-anchor="middle" x="566.5" y="-7.5" font-family="Helvetica,sans-Serif" font-size="10.00">::ConnectionSerial</text>
</a>
</g>
</g>
<!-- Node68&#45;&gt;Node69 -->
<g id="edge3" class="edge"><title>Node68&#45;&gt;Node69</title>
<path fill="none" stroke="midnightblue" d="M475.239,-15.5C483.821,-15.5 492.516,-15.5 500.948,-15.5"/>
<polygon fill="midnightblue" stroke="midnightblue" points="475.239,-12.0001 465.239,-15.5 475.239,-19.0001 475.239,-12.0001"/>
</g>
</g>
</svg>
