<?xml version="1.0" encoding="UTF-8" standalone="no"?>
<!DOCTYPE svg PUBLIC "-//W3C//DTD SVG 1.1//EN"
 "http://www.w3.org/Graphics/SVG/1.1/DTD/svg11.dtd">
<!-- Generated by graphviz version 2.38.0 (20140413.2041)
 -->
<!-- Title: services::ConnectionSerial::DataReceived Pages: 1 -->
<svg width="497pt" height="308pt"
 viewBox="0.00 0.00 497.00 308.00" xmlns="http://www.w3.org/2000/svg" xmlns:xlink="http://www.w3.org/1999/xlink">
<g id="graph0" class="graph" transform="scale(1 1) rotate(0) translate(4 304)">
<title>services::ConnectionSerial::DataReceived</title>
<polygon fill="white" stroke="none" points="-4,4 -4,-304 493,-304 493,4 -4,4"/>
<!-- Node27 -->
<g id="node1" class="node"><title>Node27</title>
<polygon fill="#bfbfbf" stroke="black" points="0,-137.5 0,-167.5 131,-167.5 131,-137.5 0,-137.5"/>
<text text-anchor="start" x="8" y="-155.5" font-family="Helvetica,sans-Serif" font-size="10.00">services::ConnectionSerial</text>
<text text-anchor="middle" x="65.5" y="-144.5" font-family="Helvetica,sans-Serif" font-size="10.00">::DataReceived</text>
</g>
<!-- Node28 -->
<g id="node2" class="node"><title>Node28</title>
<g id="a_node2"><a xlink:href="../../db/de0/classinfra_1_1_queue_for_one_reader_one_irq_writer.html#ac5d69da54e3c91602f13164262424007" target="_top" xlink:title="infra::QueueForOneReader\lOneIrqWriter::Consume">
<polygon fill="white" stroke="black" points="357,-159.5 357,-189.5 489,-189.5 489,-159.5 357,-159.5"/>
<text text-anchor="start" x="365" y="-177.5" font-family="Helvetica,sans-Serif" font-size="10.00">infra::QueueForOneReader</text>
<text text-anchor="middle" x="423" y="-166.5" font-family="Helvetica,sans-Serif" font-size="10.00">OneIrqWriter::Consume</text>
</a>
</g>
</g>
<!-- Node27&#45;&gt;Node28 -->
<g id="edge1" class="edge"><title>Node27&#45;&gt;Node28</title>
<path fill="none" stroke="midnightblue" d="M116.661,-167.526C132.601,-171.611 150.403,-175.467 167,-177.5 227.025,-184.854 295.59,-183.506 346.494,-180.649"/>
<polygon fill="midnightblue" stroke="midnightblue" points="346.98,-184.127 356.755,-180.039 346.565,-177.139 346.98,-184.127"/>
</g>
<!-- Node29 -->
<g id="node3" class="node"><title>Node29</title>
<g id="a_node3"><a xlink:href="../../db/de0/classinfra_1_1_queue_for_one_reader_one_irq_writer.html#aac4934838fab809443a21e15aca4da54" target="_top" xlink:title="infra::QueueForOneReader\lOneIrqWriter::ContiguousRange">
<polygon fill="white" stroke="black" points="167,-225.5 167,-255.5 321,-255.5 321,-225.5 167,-225.5"/>
<text text-anchor="start" x="175" y="-243.5" font-family="Helvetica,sans-Serif" font-size="10.00">infra::QueueForOneReader</text>
<text text-anchor="middle" x="244" y="-232.5" font-family="Helvetica,sans-Serif" font-size="10.00">OneIrqWriter::ContiguousRange</text>
</a>
</g>
</g>
<!-- Node27&#45;&gt;Node29 -->
<g id="edge2" class="edge"><title>Node27&#45;&gt;Node29</title>
<path fill="none" stroke="midnightblue" d="M90.3275,-167.589C110.358,-179.945 139.968,-197.452 167,-210.5 174.982,-214.353 183.596,-218.112 192.057,-221.594"/>
<polygon fill="midnightblue" stroke="midnightblue" points="190.919,-224.909 201.502,-225.398 193.534,-218.416 190.919,-224.909"/>
</g>
<!-- Node30 -->
<g id="node4" class="node"><title>Node30</title>
<g id="a_node4"><a xlink:href="../../db/de0/classinfra_1_1_queue_for_one_reader_one_irq_writer.html#a7aba41b19d15b485af1c84e09fb73233" target="_top" xlink:title="infra::QueueForOneReader\lOneIrqWriter::Empty">
<polygon fill="white" stroke="black" points="357,-91.5 357,-121.5 489,-121.5 489,-91.5 357,-91.5"/>
<text text-anchor="start" x="365" y="-109.5" font-family="Helvetica,sans-Serif" font-size="10.00">infra::QueueForOneReader</text>
<text text-anchor="middle" x="423" y="-98.5" font-family="Helvetica,sans-Serif" font-size="10.00">OneIrqWriter::Empty</text>
</a>
</g>
</g>
<!-- Node27&#45;&gt;Node30 -->
<g id="edge3" class="edge"><title>Node27&#45;&gt;Node30</title>
<path fill="none" stroke="midnightblue" d="M80.7389,-137.267C98.7828,-119.195 131.799,-90.0617 167,-78.5 234.974,-56.1742 318.053,-72.8945 370.513,-88.4477"/>
<polygon fill="midnightblue" stroke="midnightblue" points="369.675,-91.8515 380.262,-91.4295 371.723,-85.1576 369.675,-91.8515"/>
</g>
<!-- Node31 -->
<g id="node5" class="node"><title>Node31</title>
<g id="a_node5"><a xlink:href="../../d0/de3/namespaceinfra.html#a97dc5194236a205b697e668f00d42353" target="_top" xlink:title="infra::Head">
<polygon fill="white" stroke="black" points="212.5,-275 212.5,-294 275.5,-294 275.5,-275 212.5,-275"/>
<text text-anchor="middle" x="244" y="-282" font-family="Helvetica,sans-Serif" font-size="10.00">infra::Head</text>
</a>
</g>
</g>
<!-- Node27&#45;&gt;Node31 -->
<g id="edge4" class="edge"><title>Node27&#45;&gt;Node31</title>
<path fill="none" stroke="midnightblue" d="M75.5634,-167.553C91.102,-192.016 125.227,-240.208 167,-265.5 177.634,-271.939 190.364,-276.202 202.336,-279.022"/>
<polygon fill="midnightblue" stroke="midnightblue" points="201.649,-282.454 212.153,-281.068 203.077,-275.601 201.649,-282.454"/>
</g>
<!-- Node33 -->
<g id="node7" class="node"><title>Node33</title>
<g id="a_node7"><a xlink:href="../../db/de0/classinfra_1_1_queue_for_one_reader_one_irq_writer.html#a88a65f2fc6596fef39c5cde661448b68" target="_top" xlink:title="infra::QueueForOneReader\lOneIrqWriter::Size">
<polygon fill="white" stroke="black" points="178,-88.5 178,-118.5 310,-118.5 310,-88.5 178,-88.5"/>
<text text-anchor="start" x="186" y="-106.5" font-family="Helvetica,sans-Serif" font-size="10.00">infra::QueueForOneReader</text>
<text text-anchor="middle" x="244" y="-95.5" font-family="Helvetica,sans-Serif" font-size="10.00">OneIrqWriter::Size</text>
</a>
</g>
</g>
<!-- Node27&#45;&gt;Node33 -->
<g id="edge6" class="edge"><title>Node27&#45;&gt;Node33</title>
<path fill="none" stroke="midnightblue" d="M120.896,-137.399C139.268,-132.298 159.947,-126.557 178.993,-121.27"/>
<polygon fill="midnightblue" stroke="midnightblue" points="180.084,-124.599 188.784,-118.552 178.212,-117.854 180.084,-124.599"/>
</g>
<!-- Node34 -->
<g id="node8" class="node"><title>Node34</title>
<g id="a_node8"><a xlink:href="../../d3/d9a/classservices_1_1_connection_serial.html#a21cabf2d09faeaccb3858424f490538d" target="_top" xlink:title="services::ConnectionSerial\l::TryConstructHeader">
<polygon fill="white" stroke="black" points="178.5,-137.5 178.5,-167.5 309.5,-167.5 309.5,-137.5 178.5,-137.5"/>
<text text-anchor="start" x="186.5" y="-155.5" font-family="Helvetica,sans-Serif" font-size="10.00">services::ConnectionSerial</text>
<text text-anchor="middle" x="244" y="-144.5" font-family="Helvetica,sans-Serif" font-size="10.00">::TryConstructHeader</text>
</a>
</g>
</g>
<!-- Node27&#45;&gt;Node34 -->
<g id="edge7" class="edge"><title>Node27&#45;&gt;Node34</title>
<path fill="none" stroke="midnightblue" d="M131.22,-152.5C143.211,-152.5 155.826,-152.5 168.09,-152.5"/>
<polygon fill="midnightblue" stroke="midnightblue" points="168.288,-156 178.288,-152.5 168.288,-149 168.288,-156"/>
</g>
<!-- Node35 -->
<g id="node9" class="node"><title>Node35</title>
<g id="a_node9"><a xlink:href="../../d3/d9a/classservices_1_1_connection_serial.html#a2309e96e69775ad65e421888a7a330b5" target="_top" xlink:title="services::ConnectionSerial\l::TryProcessHeader">
<polygon fill="white" stroke="black" points="178.5,-0.5 178.5,-30.5 309.5,-30.5 309.5,-0.5 178.5,-0.5"/>
<text text-anchor="start" x="186.5" y="-18.5" font-family="Helvetica,sans-Serif" font-size="10.00">services::ConnectionSerial</text>
<text text-anchor="middle" x="244" y="-7.5" font-family="Helvetica,sans-Serif" font-size="10.00">::TryProcessHeader</text>
</a>
</g>
</g>
<!-- Node27&#45;&gt;Node35 -->
<g id="edge10" class="edge"><title>Node27&#45;&gt;Node35</title>
<path fill="none" stroke="midnightblue" d="M77.2175,-137.377C94.0169,-114.641 128.622,-71.5498 167,-45.5 172.757,-41.5926 179.097,-38.0813 185.586,-34.9576"/>
<polygon fill="midnightblue" stroke="midnightblue" points="187.465,-37.9507 195.15,-30.6576 184.594,-31.5663 187.465,-37.9507"/>
</g>
<!-- Node32 -->
<g id="node6" class="node"><title>Node32</title>
<g id="a_node6"><a xlink:href="../../d0/d6d/classinfra_1_1_memory_range.html#a322f6976f2774c6ba7494b9e27f07624" target="_top" xlink:title="infra::MemoryRange\l::shrink_from_back_to">
<polygon fill="white" stroke="black" points="366.5,-269.5 366.5,-299.5 479.5,-299.5 479.5,-269.5 366.5,-269.5"/>
<text text-anchor="start" x="374.5" y="-287.5" font-family="Helvetica,sans-Serif" font-size="10.00">infra::MemoryRange</text>
<text text-anchor="middle" x="423" y="-276.5" font-family="Helvetica,sans-Serif" font-size="10.00">::shrink_from_back_to</text>
</a>
</g>
</g>
<!-- Node31&#45;&gt;Node32 -->
<g id="edge5" class="edge"><title>Node31&#45;&gt;Node32</title>
<path fill="none" stroke="midnightblue" d="M275.831,-284.5C297.875,-284.5 328.375,-284.5 355.813,-284.5"/>
<polygon fill="midnightblue" stroke="midnightblue" points="356.156,-288 366.156,-284.5 356.156,-281 356.156,-288"/>
</g>
<!-- Node34&#45;&gt;Node28 -->
<g id="edge9" class="edge"><title>Node34&#45;&gt;Node28</title>
<path fill="none" stroke="midnightblue" d="M309.652,-160.536C321.688,-162.032 334.36,-163.607 346.683,-165.139"/>
<polygon fill="midnightblue" stroke="midnightblue" points="346.575,-168.652 356.93,-166.412 347.438,-161.705 346.575,-168.652"/>
</g>
<!-- Node34&#45;&gt;Node30 -->
<g id="edge8" class="edge"><title>Node34&#45;&gt;Node30</title>
<path fill="none" stroke="midnightblue" d="M302.956,-137.438C319.391,-133.167 337.428,-128.479 354.38,-124.074"/>
<polygon fill="midnightblue" stroke="midnightblue" points="355.418,-127.42 364.216,-121.517 353.657,-120.645 355.418,-127.42"/>
</g>
<!-- Node36 -->
<g id="node10" class="node"><title>Node36</title>
<g id="a_node10"><a xlink:href="../../d3/d9a/classservices_1_1_connection_serial.html#ac09952b64af6df62b42579b233cd1c8d" target="_top" xlink:title="services::ConnectionSerial\l::ProcessHeader">
<polygon fill="white" stroke="black" points="357.5,-0.5 357.5,-30.5 488.5,-30.5 488.5,-0.5 357.5,-0.5"/>
<text text-anchor="start" x="365.5" y="-18.5" font-family="Helvetica,sans-Serif" font-size="10.00">services::ConnectionSerial</text>
<text text-anchor="middle" x="423" y="-7.5" font-family="Helvetica,sans-Serif" font-size="10.00">::ProcessHeader</text>
</a>
</g>
</g>
<!-- Node35&#45;&gt;Node36 -->
<g id="edge11" class="edge"><title>Node35&#45;&gt;Node36</title>
<path fill="none" stroke="midnightblue" d="M309.652,-15.5C321.765,-15.5 334.522,-15.5 346.92,-15.5"/>
<polygon fill="midnightblue" stroke="midnightblue" points="347.227,-19.0001 357.227,-15.5 347.227,-12.0001 347.227,-19.0001"/>
</g>
</g>
</svg>
