<?xml version="1.0" encoding="UTF-8" standalone="no"?>
<!DOCTYPE svg PUBLIC "-//W3C//DTD SVG 1.1//EN"
 "http://www.w3.org/Graphics/SVG/1.1/DTD/svg11.dtd">
<!-- Generated by graphviz version 2.38.0 (20140413.2041)
 -->
<!-- Title: services::TracingFlash::WriteBuffer Pages: 1 -->
<svg width="437pt" height="104pt"
 viewBox="0.00 0.00 437.00 104.00" xmlns="http://www.w3.org/2000/svg" xmlns:xlink="http://www.w3.org/1999/xlink">
<g id="graph0" class="graph" transform="scale(1 1) rotate(0) translate(4 100)">
<title>services::TracingFlash::WriteBuffer</title>
<polygon fill="white" stroke="none" points="-4,4 -4,-100 433,-100 433,4 -4,4"/>
<!-- Node27 -->
<g id="node1" class="node"><title>Node27</title>
<polygon fill="#bfbfbf" stroke="black" points="0,-33 0,-63 113,-63 113,-33 0,-33"/>
<text text-anchor="start" x="8" y="-51" font-family="Helvetica,sans-Serif" font-size="10.00">services::TracingFlash</text>
<text text-anchor="middle" x="56.5" y="-40" font-family="Helvetica,sans-Serif" font-size="10.00">::WriteBuffer</text>
</g>
<!-- Node28 -->
<g id="node2" class="node"><title>Node28</title>
<g id="a_node2"><a xlink:href="../../d0/de3/namespaceinfra.html#abcc96346504ff058726ec5eea5fd3c06" target="_top" xlink:title="infra::AsHex">
<polygon fill="white" stroke="black" points="171.5,-76.5 171.5,-95.5 241.5,-95.5 241.5,-76.5 171.5,-76.5"/>
<text text-anchor="middle" x="206.5" y="-83.5" font-family="Helvetica,sans-Serif" font-size="10.00">infra::AsHex</text>
</a>
</g>
</g>
<!-- Node27&#45;&gt;Node28 -->
<g id="edge1" class="edge"><title>Node27&#45;&gt;Node28</title>
<path fill="none" stroke="midnightblue" d="M113.031,-62.2579C128.892,-66.3304 145.962,-70.7133 161.066,-74.5913"/>
<polygon fill="midnightblue" stroke="midnightblue" points="160.613,-78.0885 171.169,-77.1854 162.354,-71.3084 160.613,-78.0885"/>
</g>
<!-- Node29 -->
<g id="node3" class="node"><title>Node29</title>
<g id="a_node3"><a xlink:href="../../dc/d42/classservices_1_1_tracer.html#a25248c7fb378a73f189defd30a4593f2" target="_top" xlink:title="services::Tracer::Trace">
<polygon fill="white" stroke="black" points="149,-38.5 149,-57.5 264,-57.5 264,-38.5 149,-38.5"/>
<text text-anchor="middle" x="206.5" y="-45.5" font-family="Helvetica,sans-Serif" font-size="10.00">services::Tracer::Trace</text>
</a>
</g>
</g>
<!-- Node27&#45;&gt;Node29 -->
<g id="edge2" class="edge"><title>Node27&#45;&gt;Node29</title>
<path fill="none" stroke="midnightblue" d="M113.031,-48C121.311,-48 129.921,-48 138.409,-48"/>
<polygon fill="midnightblue" stroke="midnightblue" points="138.671,-51.5001 148.671,-48 138.671,-44.5001 138.671,-51.5001"/>
</g>
<!-- Node32 -->
<g id="node6" class="node"><title>Node32</title>
<g id="a_node6"><a xlink:href="../../dd/d95/classhal_1_1_flash.html#afe92eb7daa1043f56eac569140d018f9" target="_top" xlink:title="hal::Flash::WriteBuffer">
<polygon fill="white" stroke="black" points="150,-0.5 150,-19.5 263,-19.5 263,-0.5 150,-0.5"/>
<text text-anchor="middle" x="206.5" y="-7.5" font-family="Helvetica,sans-Serif" font-size="10.00">hal::Flash::WriteBuffer</text>
</a>
</g>
</g>
<!-- Node27&#45;&gt;Node32 -->
<g id="edge5" class="edge"><title>Node27&#45;&gt;Node32</title>
<path fill="none" stroke="midnightblue" d="M113.031,-33.7421C127.959,-29.9092 143.958,-25.8012 158.381,-22.0981"/>
<polygon fill="midnightblue" stroke="midnightblue" points="159.266,-25.4844 168.082,-19.6074 157.525,-18.7044 159.266,-25.4844"/>
</g>
<!-- Node30 -->
<g id="node4" class="node"><title>Node30</title>
<g id="a_node4"><a xlink:href="../../dc/d42/classservices_1_1_tracer.html#a9bbd41af2cd3049df3e56fe63ebad051" target="_top" xlink:title="services::Tracer::Continue">
<polygon fill="white" stroke="black" points="300,-60.5 300,-79.5 429,-79.5 429,-60.5 300,-60.5"/>
<text text-anchor="middle" x="364.5" y="-67.5" font-family="Helvetica,sans-Serif" font-size="10.00">services::Tracer::Continue</text>
</a>
</g>
</g>
<!-- Node29&#45;&gt;Node30 -->
<g id="edge3" class="edge"><title>Node29&#45;&gt;Node30</title>
<path fill="none" stroke="midnightblue" d="M264.261,-56.0047C272.589,-57.1792 281.266,-58.4029 289.873,-59.6167"/>
<polygon fill="midnightblue" stroke="midnightblue" points="289.527,-63.1025 299.918,-61.0333 290.505,-56.1711 289.527,-63.1025"/>
</g>
<!-- Node31 -->
<g id="node5" class="node"><title>Node31</title>
<g id="a_node5"><a xlink:href="../../dc/d42/classservices_1_1_tracer.html#a38963ac748f455f5439fd9e312273588" target="_top" xlink:title="services::Tracer::Insert\lHeader">
<polygon fill="white" stroke="black" points="307,-11 307,-41 422,-41 422,-11 307,-11"/>
<text text-anchor="start" x="315" y="-29" font-family="Helvetica,sans-Serif" font-size="10.00">services::Tracer::Insert</text>
<text text-anchor="middle" x="364.5" y="-18" font-family="Helvetica,sans-Serif" font-size="10.00">Header</text>
</a>
</g>
</g>
<!-- Node29&#45;&gt;Node31 -->
<g id="edge4" class="edge"><title>Node29&#45;&gt;Node31</title>
<path fill="none" stroke="midnightblue" d="M264.261,-39.9953C274.758,-38.5149 285.81,-36.9562 296.576,-35.4381"/>
<polygon fill="midnightblue" stroke="midnightblue" points="297.368,-38.861 306.781,-33.9988 296.391,-31.9296 297.368,-38.861"/>
</g>
</g>
</svg>
