<?xml version="1.0" encoding="UTF-8" standalone="no"?>
<!DOCTYPE svg PUBLIC "-//W3C//DTD SVG 1.1//EN"
 "http://www.w3.org/Graphics/SVG/1.1/DTD/svg11.dtd">
<!-- Generated by graphviz version 2.38.0 (20140413.2041)
 -->
<!-- Title: services::TracingFlash::ReadBuffer Pages: 1 -->
<svg width="437pt" height="132pt"
 viewBox="0.00 0.00 437.00 131.50" xmlns="http://www.w3.org/2000/svg" xmlns:xlink="http://www.w3.org/1999/xlink">
<g id="graph0" class="graph" transform="scale(1 1) rotate(0) translate(4 127.5)">
<title>services::TracingFlash::ReadBuffer</title>
<polygon fill="white" stroke="none" points="-4,4 -4,-127.5 433,-127.5 433,4 -4,4"/>
<!-- Node14 -->
<g id="node1" class="node"><title>Node14</title>
<polygon fill="#bfbfbf" stroke="black" points="0,-60.5 0,-90.5 113,-90.5 113,-60.5 0,-60.5"/>
<text text-anchor="start" x="8" y="-78.5" font-family="Helvetica,sans-Serif" font-size="10.00">services::TracingFlash</text>
<text text-anchor="middle" x="56.5" y="-67.5" font-family="Helvetica,sans-Serif" font-size="10.00">::ReadBuffer</text>
</g>
<!-- Node15 -->
<g id="node2" class="node"><title>Node15</title>
<g id="a_node2"><a xlink:href="../../d0/de3/namespaceinfra.html#abcc96346504ff058726ec5eea5fd3c06" target="_top" xlink:title="infra::AsHex">
<polygon fill="white" stroke="black" points="171.5,-104 171.5,-123 241.5,-123 241.5,-104 171.5,-104"/>
<text text-anchor="middle" x="206.5" y="-111" font-family="Helvetica,sans-Serif" font-size="10.00">infra::AsHex</text>
</a>
</g>
</g>
<!-- Node14&#45;&gt;Node15 -->
<g id="edge1" class="edge"><title>Node14&#45;&gt;Node15</title>
<path fill="none" stroke="midnightblue" d="M113.031,-89.7579C128.892,-93.8304 145.962,-98.2133 161.066,-102.091"/>
<polygon fill="midnightblue" stroke="midnightblue" points="160.613,-105.588 171.169,-104.685 162.354,-98.8084 160.613,-105.588"/>
</g>
<!-- Node16 -->
<g id="node3" class="node"><title>Node16</title>
<g id="a_node3"><a xlink:href="../../dd/d95/classhal_1_1_flash.html#a5ab65baa666ed4c293c957a1545f997c" target="_top" xlink:title="hal::Flash::ReadBuffer">
<polygon fill="white" stroke="black" points="150,-66 150,-85 263,-85 263,-66 150,-66"/>
<text text-anchor="middle" x="206.5" y="-73" font-family="Helvetica,sans-Serif" font-size="10.00">hal::Flash::ReadBuffer</text>
</a>
</g>
</g>
<!-- Node14&#45;&gt;Node16 -->
<g id="edge2" class="edge"><title>Node14&#45;&gt;Node16</title>
<path fill="none" stroke="midnightblue" d="M113.031,-75.5C121.638,-75.5 130.601,-75.5 139.413,-75.5"/>
<polygon fill="midnightblue" stroke="midnightblue" points="139.658,-79.0001 149.658,-75.5 139.658,-72.0001 139.658,-79.0001"/>
</g>
<!-- Node17 -->
<g id="node4" class="node"><title>Node17</title>
<g id="a_node4"><a xlink:href="../../dc/d42/classservices_1_1_tracer.html#a25248c7fb378a73f189defd30a4593f2" target="_top" xlink:title="services::Tracer::Trace">
<polygon fill="white" stroke="black" points="149,-28 149,-47 264,-47 264,-28 149,-28"/>
<text text-anchor="middle" x="206.5" y="-35" font-family="Helvetica,sans-Serif" font-size="10.00">services::Tracer::Trace</text>
</a>
</g>
</g>
<!-- Node14&#45;&gt;Node17 -->
<g id="edge3" class="edge"><title>Node14&#45;&gt;Node17</title>
<path fill="none" stroke="midnightblue" d="M113.031,-61.2421C127.959,-57.4092 143.958,-53.3012 158.381,-49.5981"/>
<polygon fill="midnightblue" stroke="midnightblue" points="159.266,-52.9844 168.082,-47.1074 157.525,-46.2044 159.266,-52.9844"/>
</g>
<!-- Node18 -->
<g id="node5" class="node"><title>Node18</title>
<g id="a_node5"><a xlink:href="../../dc/d42/classservices_1_1_tracer.html#a9bbd41af2cd3049df3e56fe63ebad051" target="_top" xlink:title="services::Tracer::Continue">
<polygon fill="white" stroke="black" points="300,-50 300,-69 429,-69 429,-50 300,-50"/>
<text text-anchor="middle" x="364.5" y="-57" font-family="Helvetica,sans-Serif" font-size="10.00">services::Tracer::Continue</text>
</a>
</g>
</g>
<!-- Node17&#45;&gt;Node18 -->
<g id="edge4" class="edge"><title>Node17&#45;&gt;Node18</title>
<path fill="none" stroke="midnightblue" d="M264.261,-45.5047C272.589,-46.6792 281.266,-47.9029 289.873,-49.1167"/>
<polygon fill="midnightblue" stroke="midnightblue" points="289.527,-52.6025 299.918,-50.5333 290.505,-45.6711 289.527,-52.6025"/>
</g>
<!-- Node19 -->
<g id="node6" class="node"><title>Node19</title>
<g id="a_node6"><a xlink:href="../../dc/d42/classservices_1_1_tracer.html#a38963ac748f455f5439fd9e312273588" target="_top" xlink:title="services::Tracer::Insert\lHeader">
<polygon fill="white" stroke="black" points="307,-0.5 307,-30.5 422,-30.5 422,-0.5 307,-0.5"/>
<text text-anchor="start" x="315" y="-18.5" font-family="Helvetica,sans-Serif" font-size="10.00">services::Tracer::Insert</text>
<text text-anchor="middle" x="364.5" y="-7.5" font-family="Helvetica,sans-Serif" font-size="10.00">Header</text>
</a>
</g>
</g>
<!-- Node17&#45;&gt;Node19 -->
<g id="edge5" class="edge"><title>Node17&#45;&gt;Node19</title>
<path fill="none" stroke="midnightblue" d="M264.261,-29.4953C274.758,-28.0149 285.81,-26.4562 296.576,-24.9381"/>
<polygon fill="midnightblue" stroke="midnightblue" points="297.368,-28.361 306.781,-23.4988 296.391,-21.4296 297.368,-28.361"/>
</g>
</g>
</svg>
