<?xml version="1.0" encoding="UTF-8" standalone="no"?>
<!DOCTYPE svg PUBLIC "-//W3C//DTD SVG 1.1//EN"
 "http://www.w3.org/Graphics/SVG/1.1/DTD/svg11.dtd">
<!-- Generated by graphviz version 2.38.0 (20140413.2041)
 -->
<!-- Title: services::DebugLed Pages: 1 -->
<svg width="1290pt" height="289pt"
 viewBox="0.00 0.00 1290.00 289.00" xmlns="http://www.w3.org/2000/svg" xmlns:xlink="http://www.w3.org/1999/xlink">
<g id="graph0" class="graph" transform="scale(1 1) rotate(0) translate(4 285)">
<title>services::DebugLed</title>
<polygon fill="white" stroke="none" points="-4,4 -4,-285 1286,-285 1286,4 -4,4"/>
<!-- Node1 -->
<g id="node1" class="node"><title>Node1</title>
<polygon fill="#bfbfbf" stroke="black" points="1181,-204.5 1181,-223.5 1282,-223.5 1282,-204.5 1181,-204.5"/>
<text text-anchor="middle" x="1231.5" y="-211.5" font-family="Helvetica,sans-Serif" font-size="10.00">services::DebugLed</text>
</g>
<!-- Node2 -->
<g id="node2" class="node"><title>Node2</title>
<g id="a_node2"><a xlink:href="../../df/d03/classhal_1_1_output_pin.html" target="_top" xlink:title="hal::OutputPin">
<polygon fill="white" stroke="black" points="980,-239.5 980,-258.5 1059,-258.5 1059,-239.5 980,-239.5"/>
<text text-anchor="middle" x="1019.5" y="-246.5" font-family="Helvetica,sans-Serif" font-size="10.00">hal::OutputPin</text>
</a>
</g>
</g>
<!-- Node2&#45;&gt;Node1 -->
<g id="edge1" class="edge"><title>Node2&#45;&gt;Node1</title>
<path fill="none" stroke="#9a32cd" stroke-dasharray="5,2" d="M1069.04,-240.91C1102.54,-235.327 1146.95,-227.924 1180.72,-222.297"/>
<polygon fill="#9a32cd" stroke="#9a32cd" points="1068.31,-237.484 1059.02,-242.58 1069.46,-244.389 1068.31,-237.484"/>
<text text-anchor="middle" x="1128" y="-240" font-family="Helvetica,sans-Serif" font-size="10.00"> pin</text>
</g>
<!-- Node3 -->
<g id="node3" class="node"><title>Node3</title>
<g id="a_node3"><a xlink:href="../../d7/d8c/classhal_1_1_gpio_pin.html" target="_top" xlink:title="hal::GpioPin">
<polygon fill="white" stroke="black" points="756.5,-261.5 756.5,-280.5 826.5,-280.5 826.5,-261.5 756.5,-261.5"/>
<text text-anchor="middle" x="791.5" y="-268.5" font-family="Helvetica,sans-Serif" font-size="10.00">hal::GpioPin</text>
</a>
</g>
</g>
<!-- Node3&#45;&gt;Node2 -->
<g id="edge2" class="edge"><title>Node3&#45;&gt;Node2</title>
<path fill="none" stroke="#9a32cd" stroke-dasharray="5,2" d="M836.942,-266.674C878.524,-262.626 940.017,-256.64 979.675,-252.779"/>
<polygon fill="#9a32cd" stroke="#9a32cd" points="836.438,-263.206 826.825,-267.659 837.117,-270.173 836.438,-263.206"/>
<text text-anchor="middle" x="905" y="-267" font-family="Helvetica,sans-Serif" font-size="10.00"> pin</text>
</g>
<!-- Node4 -->
<g id="node4" class="node"><title>Node4</title>
<g id="a_node4"><a xlink:href="../../d9/dec/classinfra_1_1_timer_alternating.html" target="_top" xlink:title="infra::TimerAlternating">
<polygon fill="white" stroke="black" points="964,-157.5 964,-176.5 1075,-176.5 1075,-157.5 964,-157.5"/>
<text text-anchor="middle" x="1019.5" y="-164.5" font-family="Helvetica,sans-Serif" font-size="10.00">infra::TimerAlternating</text>
</a>
</g>
</g>
<!-- Node4&#45;&gt;Node1 -->
<g id="edge3" class="edge"><title>Node4&#45;&gt;Node1</title>
<path fill="none" stroke="#9a32cd" stroke-dasharray="5,2" d="M1073.14,-178.782C1108.53,-186.702 1154.58,-197.008 1187.71,-204.422"/>
<polygon fill="#9a32cd" stroke="#9a32cd" points="1073.52,-175.28 1063,-176.511 1071.99,-182.111 1073.52,-175.28"/>
<text text-anchor="middle" x="1128" y="-202" font-family="Helvetica,sans-Serif" font-size="10.00"> debugLedTimer</text>
</g>
<!-- Node5 -->
<g id="node5" class="node"><title>Node5</title>
<g id="a_node5"><a xlink:href="../../d5/da5/classinfra_1_1_timer.html" target="_top" xlink:title="infra::Timer">
<polygon fill="white" stroke="black" points="759,-97.5 759,-116.5 824,-116.5 824,-97.5 759,-97.5"/>
<text text-anchor="middle" x="791.5" y="-104.5" font-family="Helvetica,sans-Serif" font-size="10.00">infra::Timer</text>
</a>
</g>
</g>
<!-- Node5&#45;&gt;Node4 -->
<g id="edge4" class="edge"><title>Node5&#45;&gt;Node4</title>
<path fill="none" stroke="midnightblue" d="M834.184,-118.067C876.799,-129.38 942.298,-146.769 982.659,-157.485"/>
<polygon fill="midnightblue" stroke="midnightblue" points="834.964,-114.653 824.401,-115.469 833.168,-121.418 834.964,-114.653"/>
</g>
<!-- Node6 -->
<g id="node6" class="node"><title>Node6</title>
<g id="a_node6"><a xlink:href="../../d7/d4a/classinfra_1_1detail_1_1_intrusive_forward_list_node.html" target="_top" xlink:title="infra::IntrusiveForwardList\l\&lt; Timer \&gt;::NodeType">
<polygon fill="white" stroke="black" points="368,-216 368,-246 494,-246 494,-216 368,-216"/>
<text text-anchor="start" x="376" y="-234" font-family="Helvetica,sans-Serif" font-size="10.00">infra::IntrusiveForwardList</text>
<text text-anchor="middle" x="431" y="-223" font-family="Helvetica,sans-Serif" font-size="10.00">&lt; Timer &gt;::NodeType</text>
</a>
</g>
</g>
<!-- Node6&#45;&gt;Node5 -->
<g id="edge5" class="edge"><title>Node6&#45;&gt;Node5</title>
<path fill="none" stroke="midnightblue" d="M504.304,-223.674C565.882,-214.541 654.391,-194.314 719,-150 729.996,-142.458 726.26,-133.901 737,-126 743.51,-121.21 751.339,-117.54 758.974,-114.763"/>
<polygon fill="midnightblue" stroke="midnightblue" points="503.687,-220.226 494.279,-225.098 504.672,-227.157 503.687,-220.226"/>
</g>
<!-- Node7 -->
<g id="node7" class="node"><title>Node7</title>
<polygon fill="white" stroke="#bfbfbf" points="0,-217 0,-247 125,-247 125,-217 0,-217"/>
<text text-anchor="start" x="8" y="-235" font-family="Helvetica,sans-Serif" font-size="10.00">IntrusiveForwardListNode</text>
<text text-anchor="middle" x="62.5" y="-224" font-family="Helvetica,sans-Serif" font-size="10.00">&lt; T &gt; *</text>
</g>
<!-- Node7&#45;&gt;Node6 -->
<g id="edge6" class="edge"><title>Node7&#45;&gt;Node6</title>
<path fill="none" stroke="#9a32cd" stroke-dasharray="5,2" d="M135.426,-231.804C203.193,-231.619 303.666,-231.345 367.989,-231.169"/>
<polygon fill="#9a32cd" stroke="#9a32cd" points="135.248,-228.304 125.257,-231.831 135.267,-235.304 135.248,-228.304"/>
<text text-anchor="middle" x="167.5" y="-235" font-family="Helvetica,sans-Serif" font-size="10.00"> next</text>
</g>
<!-- Node11 -->
<g id="node11" class="node"><title>Node11</title>
<g id="a_node11"><a xlink:href="../../d7/d4a/classinfra_1_1detail_1_1_intrusive_forward_list_node.html" target="_top" xlink:title="infra::IntrusiveForwardList\l\&lt; TimerService \&gt;::NodeType">
<polygon fill="white" stroke="black" points="210,-178 210,-208 350,-208 350,-178 210,-178"/>
<text text-anchor="start" x="218" y="-196" font-family="Helvetica,sans-Serif" font-size="10.00">infra::IntrusiveForwardList</text>
<text text-anchor="middle" x="280" y="-185" font-family="Helvetica,sans-Serif" font-size="10.00">&lt; TimerService &gt;::NodeType</text>
</a>
</g>
</g>
<!-- Node7&#45;&gt;Node11 -->
<g id="edge11" class="edge"><title>Node7&#45;&gt;Node11</title>
<path fill="none" stroke="#9a32cd" stroke-dasharray="5,2" d="M109.77,-213.452C120.527,-209.773 132.042,-206.332 143,-204 164.432,-199.439 188.132,-196.738 209.662,-195.149"/>
<polygon fill="#9a32cd" stroke="#9a32cd" points="108.392,-210.227 100.14,-216.872 110.735,-216.823 108.392,-210.227"/>
<text text-anchor="middle" x="167.5" y="-207" font-family="Helvetica,sans-Serif" font-size="10.00"> next</text>
</g>
<!-- Node8 -->
<g id="node8" class="node"><title>Node8</title>
<g id="a_node8"><a xlink:href="../../da/d07/classinfra_1_1_function.html" target="_top" xlink:title="infra::Function\&lt; void()\&gt;">
<polygon fill="white" stroke="black" points="512,-59.5 512,-78.5 628,-78.5 628,-59.5 512,-59.5"/>
<text text-anchor="middle" x="570" y="-66.5" font-family="Helvetica,sans-Serif" font-size="10.00">infra::Function&lt; void()&gt;</text>
</a>
</g>
</g>
<!-- Node8&#45;&gt;Node5 -->
<g id="edge7" class="edge"><title>Node8&#45;&gt;Node5</title>
<path fill="none" stroke="#9a32cd" stroke-dasharray="5,2" d="M637.957,-78.6421C663.384,-82.504 692.578,-87.1789 719,-92 732.101,-94.3906 746.484,-97.3435 758.892,-99.9954"/>
<polygon fill="#9a32cd" stroke="#9a32cd" points="638.455,-75.1777 628.045,-77.1487 637.412,-82.0996 638.455,-75.1777"/>
<text text-anchor="middle" x="682.5" y="-95" font-family="Helvetica,sans-Serif" font-size="10.00"> action</text>
</g>
<!-- Node9 -->
<g id="node9" class="node"><title>Node9</title>
<polygon fill="white" stroke="#bfbfbf" points="519,-135.5 519,-154.5 621,-154.5 621,-135.5 519,-135.5"/>
<text text-anchor="middle" x="570" y="-142.5" font-family="Helvetica,sans-Serif" font-size="10.00">array&lt; uint32_t, 2 &gt;</text>
</g>
<!-- Node9&#45;&gt;Node5 -->
<g id="edge8" class="edge"><title>Node9&#45;&gt;Node5</title>
<path fill="none" stroke="#9a32cd" stroke-dasharray="5,2" d="M631.167,-136.383C658.091,-132.339 690.193,-127.256 719,-122 732.101,-119.609 746.484,-116.656 758.892,-114.005"/>
<polygon fill="#9a32cd" stroke="#9a32cd" points="630.494,-132.945 621.12,-137.881 631.526,-139.868 630.494,-132.945"/>
<text text-anchor="middle" x="682.5" y="-138" font-family="Helvetica,sans-Serif" font-size="10.00"> nextTriggerTime</text>
</g>
<!-- Node10 -->
<g id="node10" class="node"><title>Node10</title>
<g id="a_node10"><a xlink:href="../../da/def/classinfra_1_1_timer_service.html" target="_top" xlink:title="infra::TimerService">
<polygon fill="white" stroke="black" points="522,-97.5 522,-116.5 618,-116.5 618,-97.5 522,-97.5"/>
<text text-anchor="middle" x="570" y="-104.5" font-family="Helvetica,sans-Serif" font-size="10.00">infra::TimerService</text>
</a>
</g>
</g>
<!-- Node10&#45;&gt;Node5 -->
<g id="edge9" class="edge"><title>Node10&#45;&gt;Node5</title>
<path fill="none" stroke="#9a32cd" stroke-dasharray="5,2" d="M628.097,-107C669.732,-107 724.614,-107 758.721,-107"/>
<polygon fill="#9a32cd" stroke="#9a32cd" points="628.088,-103.5 618.088,-107 628.088,-110.5 628.088,-103.5"/>
<text text-anchor="middle" x="682.5" y="-110" font-family="Helvetica,sans-Serif" font-size="10.00"> timerService</text>
</g>
<!-- Node11&#45;&gt;Node10 -->
<g id="edge10" class="edge"><title>Node11&#45;&gt;Node10</title>
<path fill="none" stroke="midnightblue" d="M360.57,-198.472C403.722,-197.51 455.868,-189.561 494,-162 508.498,-151.521 498.486,-137.721 512,-126 516.492,-122.104 521.809,-119.002 527.362,-116.532"/>
<polygon fill="midnightblue" stroke="midnightblue" points="360.341,-194.974 350.377,-198.575 360.412,-201.974 360.341,-194.974"/>
</g>
<!-- Node12 -->
<g id="node12" class="node"><title>Node12</title>
<polygon fill="white" stroke="#bfbfbf" points="249,-0.5 249,-19.5 311,-19.5 311,-0.5 249,-0.5"/>
<text text-anchor="middle" x="280" y="-7.5" font-family="Helvetica,sans-Serif" font-size="10.00">time_point</text>
</g>
<!-- Node12&#45;&gt;Node4 -->
<g id="edge18" class="edge"><title>Node12&#45;&gt;Node4</title>
<path fill="none" stroke="#9a32cd" stroke-dasharray="5,2" d="M321.144,-7.95768C364.073,-6.33772 434.072,-5.31949 494,-12 653.064,-29.7318 691.95,-44.5915 846,-88 891.323,-100.771 903.419,-102.898 946,-123 967.303,-133.057 990.298,-147.73 1004.55,-157.321"/>
<polygon fill="#9a32cd" stroke="#9a32cd" points="320.948,-4.46268 311.099,-8.36668 321.233,-11.4569 320.948,-4.46268"/>
<text text-anchor="middle" x="682.5" y="-55" font-family="Helvetica,sans-Serif" font-size="10.00"> triggerStart</text>
</g>
<!-- Node12&#45;&gt;Node10 -->
<g id="edge12" class="edge"><title>Node12&#45;&gt;Node10</title>
<path fill="none" stroke="#9a32cd" stroke-dasharray="5,2" d="M321.312,-11.7973C375.467,-14.9768 467.935,-23.3337 494,-44 510.556,-57.1269 496.571,-73.5652 512,-88 516.113,-91.8482 521.028,-94.9184 526.222,-97.3675"/>
<polygon fill="#9a32cd" stroke="#9a32cd" points="321.201,-8.28592 311.023,-11.2284 320.815,-15.2752 321.201,-8.28592"/>
<text text-anchor="middle" x="431" y="-47" font-family="Helvetica,sans-Serif" font-size="10.00"> nextTrigger</text>
</g>
<!-- Node13 -->
<g id="node13" class="node"><title>Node13</title>
<g id="a_node13"><a xlink:href="../../d3/d66/classinfra_1_1_intrusive_forward_list.html" target="_top" xlink:title="infra::IntrusiveForwardList\l\&lt; infra::Timer \&gt;">
<polygon fill="white" stroke="black" points="217,-129 217,-159 343,-159 343,-129 217,-129"/>
<text text-anchor="start" x="225" y="-147" font-family="Helvetica,sans-Serif" font-size="10.00">infra::IntrusiveForwardList</text>
<text text-anchor="middle" x="280" y="-136" font-family="Helvetica,sans-Serif" font-size="10.00">&lt; infra::Timer &gt;</text>
</a>
</g>
</g>
<!-- Node13&#45;&gt;Node10 -->
<g id="edge13" class="edge"><title>Node13&#45;&gt;Node10</title>
<path fill="none" stroke="#9a32cd" stroke-dasharray="5,2" d="M353.122,-137.605C394.458,-133.591 447.257,-127.876 494,-121 503.042,-119.67 512.659,-118.04 521.883,-116.368"/>
<polygon fill="#9a32cd" stroke="#9a32cd" points="352.761,-134.123 343.141,-138.562 353.43,-141.091 352.761,-134.123"/>
<text text-anchor="middle" x="431" y="-150" font-family="Helvetica,sans-Serif" font-size="10.00"> timerIterator</text>
<text text-anchor="middle" x="431" y="-139" font-family="Helvetica,sans-Serif" font-size="10.00">scheduledTimers</text>
</g>
<!-- Node14 -->
<g id="node14" class="node"><title>Node14</title>
<g id="a_node14"><a xlink:href="../../d7/d4a/classinfra_1_1detail_1_1_intrusive_forward_list_node.html" target="_top" xlink:title="infra::detail::Intrusive\lForwardListNode\&lt; infra\l::Timer \&gt;">
<polygon fill="white" stroke="black" points="4.5,-123.5 4.5,-164.5 120.5,-164.5 120.5,-123.5 4.5,-123.5"/>
<text text-anchor="start" x="12.5" y="-152.5" font-family="Helvetica,sans-Serif" font-size="10.00">infra::detail::Intrusive</text>
<text text-anchor="start" x="12.5" y="-141.5" font-family="Helvetica,sans-Serif" font-size="10.00">ForwardListNode&lt; infra</text>
<text text-anchor="middle" x="62.5" y="-130.5" font-family="Helvetica,sans-Serif" font-size="10.00">::Timer &gt;</text>
</a>
</g>
</g>
<!-- Node14&#45;&gt;Node13 -->
<g id="edge14" class="edge"><title>Node14&#45;&gt;Node13</title>
<path fill="none" stroke="#9a32cd" stroke-dasharray="5,2" d="M130.962,-144C158.344,-144 189.781,-144 216.622,-144"/>
<polygon fill="#9a32cd" stroke="#9a32cd" points="130.684,-140.5 120.684,-144 130.684,-147.5 130.684,-140.5"/>
<text text-anchor="middle" x="167.5" y="-147" font-family="Helvetica,sans-Serif" font-size="10.00"> beginNode</text>
</g>
<!-- Node14&#45;&gt;Node14 -->
<g id="edge15" class="edge"><title>Node14&#45;&gt;Node14</title>
<path fill="none" stroke="#9a32cd" stroke-dasharray="5,2" d="M44.6074,-174.856C47.2682,-179.697 53.2324,-183 62.5,-183 77.3281,-183 83.6996,-174.543 81.6144,-164.864"/>
<polygon fill="#9a32cd" stroke="#9a32cd" points="48.0736,-174.366 43.3856,-164.864 41.1254,-175.215 48.0736,-174.366"/>
<text text-anchor="middle" x="62.5" y="-186" font-family="Helvetica,sans-Serif" font-size="10.00"> next</text>
</g>
<!-- Node15 -->
<g id="node15" class="node"><title>Node15</title>
<polygon fill="white" stroke="#bfbfbf" points="254.5,-90.5 254.5,-109.5 305.5,-109.5 305.5,-90.5 254.5,-90.5"/>
<text text-anchor="middle" x="280" y="-97.5" font-family="Helvetica,sans-Serif" font-size="10.00">uint32_t</text>
</g>
<!-- Node15&#45;&gt;Node10 -->
<g id="edge16" class="edge"><title>Node15&#45;&gt;Node10</title>
<path fill="none" stroke="#9a32cd" stroke-dasharray="5,2" d="M315.84,-100.847C367.393,-102.1 464.112,-104.451 521.926,-105.856"/>
<polygon fill="#9a32cd" stroke="#9a32cd" points="315.637,-97.3409 305.555,-100.597 315.467,-104.339 315.637,-97.3409"/>
<text text-anchor="middle" x="431" y="-109" font-family="Helvetica,sans-Serif" font-size="10.00"> id</text>
</g>
<!-- Node16 -->
<g id="node16" class="node"><title>Node16</title>
<polygon fill="white" stroke="#bfbfbf" points="262.5,-52.5 262.5,-71.5 297.5,-71.5 297.5,-52.5 262.5,-52.5"/>
<text text-anchor="middle" x="280" y="-59.5" font-family="Helvetica,sans-Serif" font-size="10.00">bool</text>
</g>
<!-- Node16&#45;&gt;Node10 -->
<g id="edge17" class="edge"><title>Node16&#45;&gt;Node10</title>
<path fill="none" stroke="#9a32cd" stroke-dasharray="5,2" d="M307.537,-59.9116C348.592,-57.5492 429.497,-56.3785 494,-77 502.93,-79.855 503.498,-84.0478 512,-88 519.662,-91.5617 528.182,-94.7717 536.249,-97.4959"/>
<polygon fill="#9a32cd" stroke="#9a32cd" points="307.279,-56.4208 297.526,-60.5587 307.731,-63.4062 307.279,-56.4208"/>
<text text-anchor="middle" x="431" y="-91" font-family="Helvetica,sans-Serif" font-size="10.00"> holdUpdate</text>
<text text-anchor="middle" x="431" y="-80" font-family="Helvetica,sans-Serif" font-size="10.00">updateNeeded</text>
</g>
<!-- Node17 -->
<g id="node17" class="node"><title>Node17</title>
<polygon fill="white" stroke="#bfbfbf" points="739.5,-223.5 739.5,-242.5 843.5,-242.5 843.5,-223.5 739.5,-223.5"/>
<text text-anchor="middle" x="791.5" y="-230.5" font-family="Helvetica,sans-Serif" font-size="10.00">array&lt; Duration, 2 &gt;</text>
</g>
<!-- Node17&#45;&gt;Node4 -->
<g id="edge19" class="edge"><title>Node17&#45;&gt;Node4</title>
<path fill="none" stroke="#9a32cd" stroke-dasharray="5,2" d="M852.021,-221.392C880.723,-215.2 915.466,-206.826 946,-197 963.894,-191.241 983.564,-182.974 997.895,-176.575"/>
<polygon fill="#9a32cd" stroke="#9a32cd" points="851.193,-217.989 842.138,-223.49 852.647,-224.837 851.193,-217.989"/>
<text text-anchor="middle" x="905" y="-222" font-family="Helvetica,sans-Serif" font-size="10.00"> durations</text>
</g>
<!-- Node18 -->
<g id="node18" class="node"><title>Node18</title>
<polygon fill="white" stroke="#bfbfbf" points="737,-174 737,-204 846,-204 846,-174 737,-174"/>
<text text-anchor="start" x="745" y="-192" font-family="Helvetica,sans-Serif" font-size="10.00">array&lt; infra::Function</text>
<text text-anchor="middle" x="791.5" y="-181" font-family="Helvetica,sans-Serif" font-size="10.00">&lt; void()&gt;, 2 &gt;</text>
</g>
<!-- Node18&#45;&gt;Node4 -->
<g id="edge20" class="edge"><title>Node18&#45;&gt;Node4</title>
<path fill="none" stroke="#9a32cd" stroke-dasharray="5,2" d="M856.315,-182.788C890.178,-179.492 931.362,-175.482 963.756,-172.329"/>
<polygon fill="#9a32cd" stroke="#9a32cd" points="855.673,-179.334 846.059,-183.786 856.351,-186.301 855.673,-179.334"/>
<text text-anchor="middle" x="905" y="-185" font-family="Helvetica,sans-Serif" font-size="10.00"> scheduledTriggers</text>
</g>
<!-- Node19 -->
<g id="node19" class="node"><title>Node19</title>
<polygon fill="white" stroke="#bfbfbf" points="770,-135.5 770,-154.5 813,-154.5 813,-135.5 770,-135.5"/>
<text text-anchor="middle" x="791.5" y="-142.5" font-family="Helvetica,sans-Serif" font-size="10.00">size_t</text>
</g>
<!-- Node19&#45;&gt;Node4 -->
<g id="edge21" class="edge"><title>Node19&#45;&gt;Node4</title>
<path fill="none" stroke="#9a32cd" stroke-dasharray="5,2" d="M823.741,-148.041C859.82,-151.553 919.83,-157.395 963.72,-161.667"/>
<polygon fill="#9a32cd" stroke="#9a32cd" points="823.649,-144.516 813.356,-147.03 822.97,-151.483 823.649,-144.516"/>
<text text-anchor="middle" x="905" y="-163" font-family="Helvetica,sans-Serif" font-size="10.00"> index</text>
</g>
</g>
</svg>
