<?xml version="1.0" encoding="UTF-8" standalone="no"?>
<!DOCTYPE svg PUBLIC "-//W3C//DTD SVG 1.1//EN"
 "http://www.w3.org/Graphics/SVG/1.1/DTD/svg11.dtd">
<!-- Generated by graphviz version 2.38.0 (20140413.2041)
 -->
<!-- Title: services::ListenerBsd::~ListenerBsd Pages: 1 -->
<svg width="311pt" height="39pt"
 viewBox="0.00 0.00 311.00 39.00" xmlns="http://www.w3.org/2000/svg" xmlns:xlink="http://www.w3.org/1999/xlink">
<g id="graph0" class="graph" transform="scale(1 1) rotate(0) translate(4 35)">
<title>services::ListenerBsd::~ListenerBsd</title>
<polygon fill="white" stroke="none" points="-4,4 -4,-35 307,-35 307,4 -4,4"/>
<!-- Node3 -->
<g id="node1" class="node"><title>Node3</title>
<polygon fill="#bfbfbf" stroke="black" points="0,-0.5 0,-30.5 110,-30.5 110,-0.5 0,-0.5"/>
<text text-anchor="start" x="8" y="-18.5" font-family="Helvetica,sans-Serif" font-size="10.00">services::ListenerBsd</text>
<text text-anchor="middle" x="55" y="-7.5" font-family="Helvetica,sans-Serif" font-size="10.00">::~ListenerBsd</text>
</g>
<!-- Node4 -->
<g id="node2" class="node"><title>Node4</title>
<g id="a_node2"><a xlink:href="../../d0/d67/classservices_1_1_event_dispatcher_with_network.html#a4f1c1a187d7a7b7b90d1cee423640e15" target="_top" xlink:title="services::EventDispatcher\lWithNetwork::DeregisterListener">
<polygon fill="white" stroke="black" points="146,-0.5 146,-30.5 303,-30.5 303,-0.5 146,-0.5"/>
<text text-anchor="start" x="154" y="-18.5" font-family="Helvetica,sans-Serif" font-size="10.00">services::EventDispatcher</text>
<text text-anchor="middle" x="224.5" y="-7.5" font-family="Helvetica,sans-Serif" font-size="10.00">WithNetwork::DeregisterListener</text>
</a>
</g>
</g>
<!-- Node3&#45;&gt;Node4 -->
<g id="edge1" class="edge"><title>Node3&#45;&gt;Node4</title>
<path fill="none" stroke="midnightblue" d="M110.382,-15.5C118.553,-15.5 127.15,-15.5 135.804,-15.5"/>
<polygon fill="midnightblue" stroke="midnightblue" points="135.966,-19.0001 145.966,-15.5 135.966,-12.0001 135.966,-19.0001"/>
</g>
</g>
</svg>
