<?xml version="1.0" encoding="UTF-8" standalone="no"?>
<!DOCTYPE svg PUBLIC "-//W3C//DTD SVG 1.1//EN"
 "http://www.w3.org/Graphics/SVG/1.1/DTD/svg11.dtd">
<!-- Generated by graphviz version 2.38.0 (20140413.2041)
 -->
<!-- Title: infra::LimitedStreamReader::Extract Pages: 1 -->
<svg width="298pt" height="186pt"
 viewBox="0.00 0.00 298.00 186.00" xmlns="http://www.w3.org/2000/svg" xmlns:xlink="http://www.w3.org/1999/xlink">
<g id="graph0" class="graph" transform="scale(1 1) rotate(0) translate(4 182)">
<title>infra::LimitedStreamReader::Extract</title>
<polygon fill="white" stroke="none" points="-4,4 -4,-182 294,-182 294,4 -4,4"/>
<!-- Node10 -->
<g id="node1" class="node"><title>Node10</title>
<polygon fill="#bfbfbf" stroke="black" points="0,-73.5 0,-103.5 134,-103.5 134,-73.5 0,-73.5"/>
<text text-anchor="start" x="8" y="-91.5" font-family="Helvetica,sans-Serif" font-size="10.00">infra::LimitedStreamReader</text>
<text text-anchor="middle" x="67" y="-80.5" font-family="Helvetica,sans-Serif" font-size="10.00">::Extract</text>
</g>
<!-- Node11 -->
<g id="node2" class="node"><title>Node11</title>
<g id="a_node2"><a xlink:href="../../d2/d90/classinfra_1_1_stream_reader.html#a31b3e381cbdb9a8628c4176904c90d6c" target="_top" xlink:title="infra::StreamReader\l::Extract">
<polygon fill="white" stroke="black" points="178.5,-147.5 178.5,-177.5 281.5,-177.5 281.5,-147.5 178.5,-147.5"/>
<text text-anchor="start" x="186.5" y="-165.5" font-family="Helvetica,sans-Serif" font-size="10.00">infra::StreamReader</text>
<text text-anchor="middle" x="230" y="-154.5" font-family="Helvetica,sans-Serif" font-size="10.00">::Extract</text>
</a>
</g>
</g>
<!-- Node10&#45;&gt;Node11 -->
<g id="edge1" class="edge"><title>Node10&#45;&gt;Node11</title>
<path fill="none" stroke="midnightblue" d="M97.6453,-103.709C117.863,-113.914 145.341,-127.457 170,-138.5 173.643,-140.131 177.431,-141.78 181.252,-143.408"/>
<polygon fill="midnightblue" stroke="midnightblue" points="180.175,-146.752 190.75,-147.393 182.882,-140.297 180.175,-146.752"/>
</g>
<!-- Node12 -->
<g id="node3" class="node"><title>Node12</title>
<g id="a_node3"><a xlink:href="../../d5/d4a/classinfra_1_1_stream_error_policy.html#a708126a1c40b64fd503bed2d8b8f9700" target="_top" xlink:title="infra::StreamErrorPolicy\l::ReportResult">
<polygon fill="white" stroke="black" points="170,-98.5 170,-128.5 290,-128.5 290,-98.5 170,-98.5"/>
<text text-anchor="start" x="178" y="-116.5" font-family="Helvetica,sans-Serif" font-size="10.00">infra::StreamErrorPolicy</text>
<text text-anchor="middle" x="230" y="-105.5" font-family="Helvetica,sans-Serif" font-size="10.00">::ReportResult</text>
</a>
</g>
</g>
<!-- Node10&#45;&gt;Node12 -->
<g id="edge2" class="edge"><title>Node10&#45;&gt;Node12</title>
<path fill="none" stroke="midnightblue" d="M134.414,-98.8128C142.789,-100.113 151.374,-101.446 159.791,-102.753"/>
<polygon fill="midnightblue" stroke="midnightblue" points="159.531,-106.255 169.949,-104.331 160.605,-99.3376 159.531,-106.255"/>
</g>
<!-- Node13 -->
<g id="node4" class="node"><title>Node13</title>
<g id="a_node4"><a xlink:href="../../d0/d6d/classinfra_1_1_memory_range.html#a322f6976f2774c6ba7494b9e27f07624" target="_top" xlink:title="infra::MemoryRange\l::shrink_from_back_to">
<polygon fill="white" stroke="black" points="173.5,-49.5 173.5,-79.5 286.5,-79.5 286.5,-49.5 173.5,-49.5"/>
<text text-anchor="start" x="181.5" y="-67.5" font-family="Helvetica,sans-Serif" font-size="10.00">infra::MemoryRange</text>
<text text-anchor="middle" x="230" y="-56.5" font-family="Helvetica,sans-Serif" font-size="10.00">::shrink_from_back_to</text>
</a>
</g>
</g>
<!-- Node10&#45;&gt;Node13 -->
<g id="edge3" class="edge"><title>Node10&#45;&gt;Node13</title>
<path fill="none" stroke="midnightblue" d="M134.414,-78.5997C144.058,-77.1622 153.979,-75.6832 163.602,-74.2488"/>
<polygon fill="midnightblue" stroke="midnightblue" points="164.123,-77.7098 173.498,-72.7736 163.091,-70.7863 164.123,-77.7098"/>
</g>
<!-- Node14 -->
<g id="node5" class="node"><title>Node14</title>
<g id="a_node5"><a xlink:href="../../d0/d6d/classinfra_1_1_memory_range.html#ae8fbbf531d3696b6a64ac13385acdc66" target="_top" xlink:title="infra::MemoryRange\l::size">
<polygon fill="white" stroke="black" points="178,-0.5 178,-30.5 282,-30.5 282,-0.5 178,-0.5"/>
<text text-anchor="start" x="186" y="-18.5" font-family="Helvetica,sans-Serif" font-size="10.00">infra::MemoryRange</text>
<text text-anchor="middle" x="230" y="-7.5" font-family="Helvetica,sans-Serif" font-size="10.00">::size</text>
</a>
</g>
</g>
<!-- Node10&#45;&gt;Node14 -->
<g id="edge4" class="edge"><title>Node10&#45;&gt;Node14</title>
<path fill="none" stroke="midnightblue" d="M99.1037,-73.4774C119.233,-63.851 146.057,-51.2013 170,-40.5 174.342,-38.5594 178.879,-36.5698 183.425,-34.6016"/>
<polygon fill="midnightblue" stroke="midnightblue" points="184.902,-37.7766 192.709,-30.6144 182.139,-31.3446 184.902,-37.7766"/>
</g>
</g>
</svg>
