<?xml version="1.0" encoding="UTF-8" standalone="no"?>
<!DOCTYPE svg PUBLIC "-//W3C//DTD SVG 1.1//EN"
 "http://www.w3.org/Graphics/SVG/1.1/DTD/svg11.dtd">
<!-- Generated by graphviz version 2.38.0 (20140413.2041)
 -->
<!-- Title: infra::LimitedStreamReader::Peek Pages: 1 -->
<svg width="298pt" height="88pt"
 viewBox="0.00 0.00 298.00 88.00" xmlns="http://www.w3.org/2000/svg" xmlns:xlink="http://www.w3.org/1999/xlink">
<g id="graph0" class="graph" transform="scale(1 1) rotate(0) translate(4 84)">
<title>infra::LimitedStreamReader::Peek</title>
<polygon fill="white" stroke="none" points="-4,4 -4,-84 294,-84 294,4 -4,4"/>
<!-- Node20 -->
<g id="node1" class="node"><title>Node20</title>
<polygon fill="#bfbfbf" stroke="black" points="0,-24.5 0,-54.5 134,-54.5 134,-24.5 0,-24.5"/>
<text text-anchor="start" x="8" y="-42.5" font-family="Helvetica,sans-Serif" font-size="10.00">infra::LimitedStreamReader</text>
<text text-anchor="middle" x="67" y="-31.5" font-family="Helvetica,sans-Serif" font-size="10.00">::Peek</text>
</g>
<!-- Node21 -->
<g id="node2" class="node"><title>Node21</title>
<g id="a_node2"><a xlink:href="../../d2/d90/classinfra_1_1_stream_reader.html#ad97bdd8c19a5601c54e975b904c85a88" target="_top" xlink:title="infra::StreamReader\l::Peek">
<polygon fill="white" stroke="black" points="178.5,-49.5 178.5,-79.5 281.5,-79.5 281.5,-49.5 178.5,-49.5"/>
<text text-anchor="start" x="186.5" y="-67.5" font-family="Helvetica,sans-Serif" font-size="10.00">infra::StreamReader</text>
<text text-anchor="middle" x="230" y="-56.5" font-family="Helvetica,sans-Serif" font-size="10.00">::Peek</text>
</a>
</g>
</g>
<!-- Node20&#45;&gt;Node21 -->
<g id="edge1" class="edge"><title>Node20&#45;&gt;Node21</title>
<path fill="none" stroke="midnightblue" d="M134.414,-49.8128C145.688,-51.5634 157.343,-53.3731 168.456,-55.0988"/>
<polygon fill="midnightblue" stroke="midnightblue" points="168.064,-58.5798 178.483,-56.6558 169.139,-51.6627 168.064,-58.5798"/>
</g>
<!-- Node22 -->
<g id="node3" class="node"><title>Node22</title>
<g id="a_node3"><a xlink:href="../../d5/d4a/classinfra_1_1_stream_error_policy.html#a708126a1c40b64fd503bed2d8b8f9700" target="_top" xlink:title="infra::StreamErrorPolicy\l::ReportResult">
<polygon fill="white" stroke="black" points="170,-0.5 170,-30.5 290,-30.5 290,-0.5 170,-0.5"/>
<text text-anchor="start" x="178" y="-18.5" font-family="Helvetica,sans-Serif" font-size="10.00">infra::StreamErrorPolicy</text>
<text text-anchor="middle" x="230" y="-7.5" font-family="Helvetica,sans-Serif" font-size="10.00">::ReportResult</text>
</a>
</g>
</g>
<!-- Node20&#45;&gt;Node22 -->
<g id="edge2" class="edge"><title>Node20&#45;&gt;Node22</title>
<path fill="none" stroke="midnightblue" d="M134.414,-29.5997C142.789,-28.3513 151.374,-27.0715 159.791,-25.8168"/>
<polygon fill="midnightblue" stroke="midnightblue" points="160.575,-29.2388 169.949,-24.3026 159.543,-22.3153 160.575,-29.2388"/>
</g>
</g>
</svg>
