<?xml version="1.0" encoding="UTF-8" standalone="no"?>
<!DOCTYPE svg PUBLIC "-//W3C//DTD SVG 1.1//EN"
 "http://www.w3.org/Graphics/SVG/1.1/DTD/svg11.dtd">
<!-- Generated by graphviz version 2.38.0 (20140413.2041)
 -->
<!-- Title: services::ConnectionFactoryWithNameResolverForTls Pages: 1 -->
<svg width="862pt" height="109pt"
 viewBox="0.00 0.00 862.00 108.50" xmlns="http://www.w3.org/2000/svg" xmlns:xlink="http://www.w3.org/1999/xlink">
<g id="graph0" class="graph" transform="scale(1 1) rotate(0) translate(4 104.5)">
<title>services::ConnectionFactoryWithNameResolverForTls</title>
<polygon fill="white" stroke="none" points="-4,4 -4,-104.5 858,-104.5 858,4 -4,4"/>
<!-- Node4 -->
<g id="node1" class="node"><title>Node4</title>
<polygon fill="#bfbfbf" stroke="black" points="714,-35 714,-65 854,-65 854,-35 714,-35"/>
<text text-anchor="start" x="722" y="-53" font-family="Helvetica,sans-Serif" font-size="10.00">services::ConnectionFactory</text>
<text text-anchor="middle" x="784" y="-42" font-family="Helvetica,sans-Serif" font-size="10.00">WithNameResolverForTls</text>
</g>
<!-- Node5 -->
<g id="node2" class="node"><title>Node5</title>
<g id="a_node2"><a xlink:href="../../dc/dfc/classservices_1_1_connection_factory_with_name_resolver.html" target="_top" xlink:title="services::ConnectionFactory\lWithNameResolver">
<polygon fill="white" stroke="black" points="393,-70 393,-100 533,-100 533,-70 393,-70"/>
<text text-anchor="start" x="401" y="-88" font-family="Helvetica,sans-Serif" font-size="10.00">services::ConnectionFactory</text>
<text text-anchor="middle" x="463" y="-77" font-family="Helvetica,sans-Serif" font-size="10.00">WithNameResolver</text>
</a>
</g>
</g>
<!-- Node5&#45;&gt;Node4 -->
<g id="edge1" class="edge"><title>Node5&#45;&gt;Node4</title>
<path fill="none" stroke="midnightblue" d="M543.141,-95.8501C588.409,-99.792 645.965,-100.951 696,-90 717.924,-85.2015 740.919,-74.3403 757.758,-65.145"/>
<polygon fill="midnightblue" stroke="midnightblue" points="543.372,-92.3565 533.09,-94.912 542.721,-99.3263 543.372,-92.3565"/>
</g>
<!-- Node5&#45;&gt;Node4 -->
<g id="edge5" class="edge"><title>Node5&#45;&gt;Node4</title>
<path fill="none" stroke="#9a32cd" stroke-dasharray="5,2" d="M540.265,-68.101C548.916,-66.5408 557.629,-65.1263 566,-64 615.201,-57.3806 671.113,-53.8676 713.859,-52.0162"/>
<polygon fill="#9a32cd" stroke="#9a32cd" points="539.348,-64.7117 530.162,-69.9908 540.635,-71.5924 539.348,-64.7117"/>
<text text-anchor="start" x="566" y="-78" font-family="Helvetica,sans-Serif" font-size="10.00"> connectionFactoryWithName</text>
<text text-anchor="middle" x="631" y="-67" font-family="Helvetica,sans-Serif" font-size="10.00">Resolver</text>
</g>
<!-- Node6 -->
<g id="node3" class="node"><title>Node6</title>
<g id="a_node3"><a xlink:href="../../de/d08/classservices_1_1_client_connection_observer_factory_with_name_resolver.html" target="_top" xlink:title="services::ClientConnection\lObserverFactoryWithNameResolver">
<polygon fill="white" stroke="black" points="378,-6 378,-36 548,-36 548,-6 378,-6"/>
<text text-anchor="start" x="386" y="-24" font-family="Helvetica,sans-Serif" font-size="10.00">services::ClientConnection</text>
<text text-anchor="middle" x="463" y="-13" font-family="Helvetica,sans-Serif" font-size="10.00">ObserverFactoryWithNameResolver</text>
</a>
</g>
</g>
<!-- Node6&#45;&gt;Node4 -->
<g id="edge2" class="edge"><title>Node6&#45;&gt;Node4</title>
<path fill="none" stroke="midnightblue" d="M558.387,-29.5806C608.273,-34.1157 668.418,-39.5834 713.911,-43.7192"/>
<polygon fill="midnightblue" stroke="midnightblue" points="558.507,-26.0772 548.231,-28.6573 557.873,-33.0484 558.507,-26.0772"/>
</g>
<!-- Node6&#45;&gt;Node4 -->
<g id="edge6" class="edge"><title>Node6&#45;&gt;Node4</title>
<path fill="none" stroke="#9a32cd" stroke-dasharray="5,2" d="M558.256,-9.38758C600.702,-6.50123 651.231,-6.33231 696,-15 715.98,-18.8683 737.19,-27.3036 753.666,-34.9237"/>
<polygon fill="#9a32cd" stroke="#9a32cd" points="557.925,-5.90242 548.211,-10.131 558.442,-12.8833 557.925,-5.90242"/>
<text text-anchor="middle" x="631" y="-18" font-family="Helvetica,sans-Serif" font-size="10.00"> clientConnectionFactory</text>
</g>
<!-- Node7 -->
<g id="node4" class="node"><title>Node7</title>
<g id="a_node4"><a xlink:href="../../d7/da5/classinfra_1_1detail_1_1_intrusive_list_node.html" target="_top" xlink:title="infra::IntrusiveList\l\&lt; ClientConnectionObserverFactory\lWithNameResolver \&gt;::NodeType">
<polygon fill="white" stroke="black" points="171,-0.5 171,-41.5 341,-41.5 341,-0.5 171,-0.5"/>
<text text-anchor="start" x="179" y="-29.5" font-family="Helvetica,sans-Serif" font-size="10.00">infra::IntrusiveList</text>
<text text-anchor="start" x="179" y="-18.5" font-family="Helvetica,sans-Serif" font-size="10.00">&lt; ClientConnectionObserverFactory</text>
<text text-anchor="middle" x="256" y="-7.5" font-family="Helvetica,sans-Serif" font-size="10.00">WithNameResolver &gt;::NodeType</text>
</a>
</g>
</g>
<!-- Node7&#45;&gt;Node6 -->
<g id="edge3" class="edge"><title>Node7&#45;&gt;Node6</title>
<path fill="none" stroke="midnightblue" d="M351.492,-21C360.245,-21 369.075,-21 377.727,-21"/>
<polygon fill="midnightblue" stroke="midnightblue" points="351.269,-17.5001 341.269,-21 351.269,-24.5001 351.269,-17.5001"/>
</g>
<!-- Node8 -->
<g id="node5" class="node"><title>Node8</title>
<polygon fill="white" stroke="#bfbfbf" points="0,-6 0,-36 96,-36 96,-6 0,-6"/>
<text text-anchor="start" x="8" y="-24" font-family="Helvetica,sans-Serif" font-size="10.00">IntrusiveListNode&lt;</text>
<text text-anchor="middle" x="48" y="-13" font-family="Helvetica,sans-Serif" font-size="10.00"> T &gt; *</text>
</g>
<!-- Node8&#45;&gt;Node7 -->
<g id="edge4" class="edge"><title>Node8&#45;&gt;Node7</title>
<path fill="none" stroke="#9a32cd" stroke-dasharray="5,2" d="M106.199,-21C126.246,-21 149.2,-21 170.98,-21"/>
<polygon fill="#9a32cd" stroke="#9a32cd" points="106.002,-17.5001 96.0024,-21 106.002,-24.5001 106.002,-17.5001"/>
<text text-anchor="middle" x="133.5" y="-35" font-family="Helvetica,sans-Serif" font-size="10.00"> previous</text>
<text text-anchor="middle" x="133.5" y="-24" font-family="Helvetica,sans-Serif" font-size="10.00">next</text>
</g>
</g>
</svg>
