<?xml version="1.0" encoding="UTF-8" standalone="no"?>
<!DOCTYPE svg PUBLIC "-//W3C//DTD SVG 1.1//EN"
 "http://www.w3.org/Graphics/SVG/1.1/DTD/svg11.dtd">
<!-- Generated by graphviz version 2.38.0 (20140413.2041)
 -->
<!-- Title: infra::StreamReaderWithRewinding::ConstructSaveMarker Pages: 1 -->
<svg width="391pt" height="39pt"
 viewBox="0.00 0.00 391.00 39.00" xmlns="http://www.w3.org/2000/svg" xmlns:xlink="http://www.w3.org/1999/xlink">
<g id="graph0" class="graph" transform="scale(1 1) rotate(0) translate(4 35)">
<title>infra::StreamReaderWithRewinding::ConstructSaveMarker</title>
<polygon fill="white" stroke="none" points="-4,4 -4,-35 387,-35 387,4 -4,4"/>
<!-- Node1 -->
<g id="node1" class="node"><title>Node1</title>
<polygon fill="#bfbfbf" stroke="black" points="0,-0.5 0,-30.5 167,-30.5 167,-0.5 0,-0.5"/>
<text text-anchor="start" x="8" y="-18.5" font-family="Helvetica,sans-Serif" font-size="10.00">infra::StreamReaderWithRewinding</text>
<text text-anchor="middle" x="83.5" y="-7.5" font-family="Helvetica,sans-Serif" font-size="10.00">::ConstructSaveMarker</text>
</g>
<!-- Node2 -->
<g id="node2" class="node"><title>Node2</title>
<g id="a_node2"><a xlink:href="../../d1/d68/classservices_1_1_http_client_impl_1_1_http_response_parser.html#a0a3548eaeba6fbb9da20db77122292e4" target="_top" xlink:title="services::HttpClientImpl\l::HttpResponseParser::ParseHeaders">
<polygon fill="white" stroke="black" points="203,-0.5 203,-30.5 383,-30.5 383,-0.5 203,-0.5"/>
<text text-anchor="start" x="211" y="-18.5" font-family="Helvetica,sans-Serif" font-size="10.00">services::HttpClientImpl</text>
<text text-anchor="middle" x="293" y="-7.5" font-family="Helvetica,sans-Serif" font-size="10.00">::HttpResponseParser::ParseHeaders</text>
</a>
</g>
</g>
<!-- Node1&#45;&gt;Node2 -->
<g id="edge1" class="edge"><title>Node1&#45;&gt;Node2</title>
<path fill="none" stroke="midnightblue" d="M177.378,-15.5C185.852,-15.5 194.423,-15.5 202.863,-15.5"/>
<polygon fill="midnightblue" stroke="midnightblue" points="177.106,-12.0001 167.106,-15.5 177.106,-19.0001 177.106,-12.0001"/>
</g>
</g>
</svg>
