<?xml version="1.0" encoding="UTF-8" standalone="no"?>
<!DOCTYPE svg PUBLIC "-//W3C//DTD SVG 1.1//EN"
 "http://www.w3.org/Graphics/SVG/1.1/DTD/svg11.dtd">
<!-- Generated by graphviz version 2.38.0 (20140413.2041)
 -->
<!-- Title: services::HttpClientImpl::HttpResponseParser Pages: 1 -->
<!--zoomable 759 -->
<svg id="main" version="1.1" xmlns="http://www.w3.org/2000/svg" xmlns:xlink="http://www.w3.org/1999/xlink" xml:space="preserve" onload="init(evt)">
<style type="text/css"><![CDATA[
.edge:hover path { stroke: red; }
.edge:hover polygon { stroke: red; fill: red; }
]]></style>
<script type="text/javascript"><![CDATA[
var edges = document.getElementsByTagName('g');
if (edges && edges.length) {
  for (var i=0;i<edges.length;i++) {
    if (edges[i].id.substr(0,4)=='edge') {
      edges[i].setAttribute('class','edge');
    }
  }
}
]]></script>
        <defs>
                <circle id="rim" cx="0" cy="0" r="7"/>
                <circle id="rim2" cx="0" cy="0" r="3.5"/>
                <g id="zoomPlus">
                        <use xlink:href="#rim" fill="#404040">
                                <set attributeName="fill" to="#808080" begin="zoomplus.mouseover" end="zoomplus.mouseout"/>
                        </use>
                        <path d="M-4,0h8M0,-4v8" fill="none" stroke="white" stroke-width="1.5" pointer-events="none"/>
                </g>
                <g id="zoomMin">
                        <use xlink:href="#rim" fill="#404040">
                                <set attributeName="fill" to="#808080" begin="zoomminus.mouseover" end="zoomminus.mouseout"/>
                        </use>
                        <path d="M-4,0h8" fill="none" stroke="white" stroke-width="1.5" pointer-events="none"/>
                </g>
                <g id="dirArrow">
                        <path fill="none" stroke="white" stroke-width="1.5" d="M0,-3.0v7 M-2.5,-0.5L0,-3.0L2.5,-0.5"/>
                </g>
               <g id="resetDef">
                       <use xlink:href="#rim2" fill="#404040">
                               <set attributeName="fill" to="#808080" begin="reset.mouseover" end="reset.mouseout"/>
                       </use>
               </g>
        </defs>

<script type="text/javascript">
var viewWidth = 1395;
var viewHeight = 759;
var sectionId = 'dynsection-0';
</script>
<script xlink:href="../../svgpan.js"/>
<svg id="graph" class="graph">
<g id="viewport">
<title>services::HttpClientImpl::HttpResponseParser</title>
<polygon fill="white" stroke="none" points="-4,4 -4,-755 1391,-755 1391,4 -4,4"/>
<!-- Node1 -->
<g id="node1" class="node"><title>Node1</title>
<polygon fill="#bfbfbf" stroke="black" points="1268,-548 1268,-578 1387,-578 1387,-548 1268,-548"/>
<text text-anchor="start" x="1276" y="-566" font-family="Helvetica,sans-Serif" font-size="10.00">services::HttpClientImpl</text>
<text text-anchor="middle" x="1327.5" y="-555" font-family="Helvetica,sans-Serif" font-size="10.00">::HttpResponseParser</text>
</g>
<!-- Node2 -->
<g id="node2" class="node"><title>Node2</title>
<g id="a_node2"><a xlink:href="../../d1/d2a/classinfra_1_1_bounded_string_base.html" target="_top" xlink:title="infra::BoundedStringBase\&lt; T \&gt;">
<polygon fill="white" stroke="black" points="785,-36.5 785,-55.5 935,-55.5 935,-36.5 785,-36.5"/>
<text text-anchor="middle" x="860" y="-43.5" font-family="Helvetica,sans-Serif" font-size="10.00">infra::BoundedStringBase&lt; T &gt;</text>
</a>
</g>
</g>
<!-- Node2&#45;&gt;Node1 -->
<g id="edge1" class="edge"><title>Node2&#45;&gt;Node1</title>
<path fill="none" stroke="#9a32cd" stroke-dasharray="5,2" d="M930.948,-35.8172C968.966,-33.8641 1015.19,-37.6338 1050,-60 1238.64,-181.193 1309.28,-477.907 1323.62,-547.99"/>
<polygon fill="#9a32cd" stroke="#9a32cd" points="930.717,-32.3247 920.966,-36.4687 931.173,-39.3098 930.717,-32.3247"/>
<text text-anchor="middle" x="1127.5" y="-204" font-family="Helvetica,sans-Serif" font-size="10.00"> headerBuffer</text>
</g>
<!-- Node10 -->
<g id="node10" class="node"><title>Node10</title>
<g id="a_node10"><a xlink:href="../../db/dd6/classservices_1_1_http_client_impl.html" target="_top" xlink:title="services::HttpClientImpl">
<polygon fill="white" stroke="black" points="1068,-412.5 1068,-431.5 1187,-431.5 1187,-412.5 1068,-412.5"/>
<text text-anchor="middle" x="1127.5" y="-419.5" font-family="Helvetica,sans-Serif" font-size="10.00">services::HttpClientImpl</text>
</a>
</g>
</g>
<!-- Node2&#45;&gt;Node10 -->
<g id="edge18" class="edge"><title>Node2&#45;&gt;Node10</title>
<path fill="none" stroke="#9a32cd" stroke-dasharray="5,2" d="M945.412,-56.3761C992.002,-62.8664 1042.05,-71.4072 1050,-79 1100.31,-127.023 1121.69,-361.577 1125.76,-412.311"/>
<polygon fill="#9a32cd" stroke="#9a32cd" points="945.612,-52.871 935.229,-54.9818 944.662,-59.8063 945.612,-52.871"/>
<text text-anchor="middle" x="1002" y="-82" font-family="Helvetica,sans-Serif" font-size="10.00"> headerBuffer</text>
</g>
<!-- Node3 -->
<g id="node3" class="node"><title>Node3</title>
<polygon fill="white" stroke="#bfbfbf" points="465.5,-38.5 465.5,-57.5 568.5,-57.5 568.5,-38.5 465.5,-38.5"/>
<text text-anchor="middle" x="517" y="-45.5" font-family="Helvetica,sans-Serif" font-size="10.00">MemoryRange&lt; T &gt;</text>
</g>
<!-- Node3&#45;&gt;Node2 -->
<g id="edge2" class="edge"><title>Node3&#45;&gt;Node2</title>
<path fill="none" stroke="#9a32cd" stroke-dasharray="5,2" d="M578.747,-47.6437C636.439,-47.3053 723.287,-46.796 784.995,-46.434"/>
<polygon fill="#9a32cd" stroke="#9a32cd" points="578.662,-44.1441 568.683,-47.7027 578.703,-51.1439 578.662,-44.1441"/>
<text text-anchor="middle" x="693.5" y="-51" font-family="Helvetica,sans-Serif" font-size="10.00"> range</text>
</g>
<!-- Node4 -->
<g id="node4" class="node"><title>Node4</title>
<polygon fill="white" stroke="#bfbfbf" points="495.5,-95.5 495.5,-114.5 538.5,-114.5 538.5,-95.5 495.5,-95.5"/>
<text text-anchor="middle" x="517" y="-102.5" font-family="Helvetica,sans-Serif" font-size="10.00">size_t</text>
</g>
<!-- Node4&#45;&gt;Node2 -->
<g id="edge3" class="edge"><title>Node4&#45;&gt;Node2</title>
<path fill="none" stroke="#9a32cd" stroke-dasharray="5,2" d="M548.692,-99.9343C595.568,-92.1677 687.798,-76.7689 766,-63 779.417,-60.6378 793.909,-58.0203 807.37,-55.5614"/>
<polygon fill="#9a32cd" stroke="#9a32cd" points="547.886,-96.52 538.592,-101.606 549.029,-103.426 547.886,-96.52"/>
<text text-anchor="middle" x="693.5" y="-91" font-family="Helvetica,sans-Serif" font-size="10.00"> length</text>
</g>
<!-- Node4&#45;&gt;Node10 -->
<g id="edge44" class="edge"><title>Node4&#45;&gt;Node10</title>
<path fill="none" stroke="#9a32cd" stroke-dasharray="5,2" d="M548.89,-104.575C619.222,-104.425 796.034,-108.684 936,-151 990.609,-167.51 1012.39,-167.1 1050,-210 1105.46,-273.26 1121.72,-379.795 1125.51,-412.296"/>
<polygon fill="#9a32cd" stroke="#9a32cd" points="548.519,-101.077 538.538,-104.632 548.557,-108.077 548.519,-101.077"/>
<text text-anchor="middle" x="860" y="-154" font-family="Helvetica,sans-Serif" font-size="10.00"> streamingContentSize</text>
</g>
<!-- Node5 -->
<g id="node5" class="node"><title>Node5</title>
<polygon fill="white" stroke="#bfbfbf" points="460.5,-0.5 460.5,-19.5 573.5,-19.5 573.5,-0.5 460.5,-0.5"/>
<text text-anchor="middle" x="517" y="-7.5" font-family="Helvetica,sans-Serif" font-size="10.00">static const size_type</text>
</g>
<!-- Node5&#45;&gt;Node2 -->
<g id="edge4" class="edge"><title>Node5&#45;&gt;Node2</title>
<path fill="none" stroke="#9a32cd" stroke-dasharray="5,2" d="M583.793,-14.7387C633.84,-18.6091 704.365,-24.634 766,-32 776.862,-33.2982 788.409,-34.8758 799.538,-36.4976"/>
<polygon fill="#9a32cd" stroke="#9a32cd" points="583.989,-11.2435 573.751,-13.9697 583.454,-18.2231 583.989,-11.2435"/>
<text text-anchor="middle" x="693.5" y="-35" font-family="Helvetica,sans-Serif" font-size="10.00"> npos</text>
</g>
<!-- Node6 -->
<g id="node6" class="node"><title>Node6</title>
<g id="a_node6"><a xlink:href="../../dc/df7/classinfra_1_1_optional.html" target="_top" xlink:title="infra::Optional\&lt; uint32_t \&gt;">
<polygon fill="white" stroke="black" points="795.5,-600.5 795.5,-619.5 924.5,-619.5 924.5,-600.5 795.5,-600.5"/>
<text text-anchor="middle" x="860" y="-607.5" font-family="Helvetica,sans-Serif" font-size="10.00">infra::Optional&lt; uint32_t &gt;</text>
</a>
</g>
</g>
<!-- Node6&#45;&gt;Node1 -->
<g id="edge5" class="edge"><title>Node6&#45;&gt;Node1</title>
<path fill="none" stroke="#9a32cd" stroke-dasharray="5,2" d="M885.145,-624.713C903.338,-634.899 929.294,-647.565 954,-653 1022.84,-668.144 1248.22,-633.796 1250,-633 1277.45,-620.731 1301.64,-594.681 1315.14,-578.05"/>
<polygon fill="#9a32cd" stroke="#9a32cd" points="886.798,-621.626 876.386,-619.664 883.301,-627.69 886.798,-621.626"/>
<text text-anchor="middle" x="1127.5" y="-657" font-family="Helvetica,sans-Serif" font-size="10.00"> contentLength</text>
</g>
<!-- Node6&#45;&gt;Node10 -->
<g id="edge19" class="edge"><title>Node6&#45;&gt;Node10</title>
<path fill="none" stroke="#9a32cd" stroke-dasharray="5,2" d="M907.948,-597.808C962.982,-583.447 1047.12,-561.245 1050,-559 1094.24,-524.48 1116.82,-456.805 1123.95,-431.686"/>
<polygon fill="#9a32cd" stroke="#9a32cd" points="906.831,-594.482 898.037,-600.392 908.596,-601.256 906.831,-594.482"/>
<text text-anchor="middle" x="1002" y="-588" font-family="Helvetica,sans-Serif" font-size="10.00"> contentLength</text>
</g>
<!-- Node7 -->
<g id="node7" class="node"><title>Node7</title>
<polygon fill="white" stroke="#bfbfbf" points="499.5,-528.5 499.5,-547.5 534.5,-547.5 534.5,-528.5 499.5,-528.5"/>
<text text-anchor="middle" x="517" y="-535.5" font-family="Helvetica,sans-Serif" font-size="10.00">bool</text>
</g>
<!-- Node7&#45;&gt;Node1 -->
<g id="edge9" class="edge"><title>Node7&#45;&gt;Node1</title>
<path fill="none" stroke="#9a32cd" stroke-dasharray="5,2" d="M544.692,-537.888C563.562,-539.288 588.065,-544.347 603,-560 629.957,-588.253 590.69,-621.378 621,-646 670.895,-686.533 1107.5,-605.985 1267.8,-574.698"/>
<polygon fill="#9a32cd" stroke="#9a32cd" points="544.763,-534.388 534.617,-537.438 544.451,-541.381 544.763,-534.388"/>
<text text-anchor="middle" x="1002" y="-655" font-family="Helvetica,sans-Serif" font-size="10.00"> error</text>
<text text-anchor="middle" x="1002" y="-644" font-family="Helvetica,sans-Serif" font-size="10.00">done</text>
<text text-anchor="middle" x="1002" y="-633" font-family="Helvetica,sans-Serif" font-size="10.00">statusParsed</text>
</g>
<!-- Node7&#45;&gt;Node6 -->
<g id="edge6" class="edge"><title>Node7&#45;&gt;Node6</title>
<path fill="none" stroke="#9a32cd" stroke-dasharray="5,2" d="M544.776,-541.905C565.565,-544.936 595.112,-549.24 621,-553 685.441,-562.359 703.015,-557.475 766,-574 791.622,-580.722 819.837,-592.268 838.393,-600.471"/>
<polygon fill="#9a32cd" stroke="#9a32cd" points="545.17,-538.426 534.769,-540.446 544.16,-545.353 545.17,-538.426"/>
<text text-anchor="middle" x="693.5" y="-577" font-family="Helvetica,sans-Serif" font-size="10.00"> initialized</text>
</g>
<!-- Node7&#45;&gt;Node10 -->
<g id="edge28" class="edge"><title>Node7&#45;&gt;Node10</title>
<path fill="none" stroke="#9a32cd" stroke-dasharray="5,2" d="M545.054,-536.665C624.327,-532.168 862.298,-514.471 1050,-457 1071.09,-450.543 1093.91,-439.526 1109.09,-431.575"/>
<polygon fill="#9a32cd" stroke="#9a32cd" points="544.738,-533.177 534.943,-537.215 545.119,-540.167 544.738,-533.177"/>
<text text-anchor="middle" x="860" y="-516" font-family="Helvetica,sans-Serif" font-size="10.00"> forwardingStream</text>
</g>
<!-- Node17 -->
<g id="node17" class="node"><title>Node17</title>
<g id="a_node17"><a xlink:href="../../dc/df7/classinfra_1_1_optional.html" target="_top" xlink:title="infra::Optional\&lt; services\l::HttpClientImpl::HttpResponse\lParser \&gt;">
<polygon fill="white" stroke="black" points="784.5,-376.5 784.5,-417.5 935.5,-417.5 935.5,-376.5 784.5,-376.5"/>
<text text-anchor="start" x="792.5" y="-405.5" font-family="Helvetica,sans-Serif" font-size="10.00">infra::Optional&lt; services</text>
<text text-anchor="start" x="792.5" y="-394.5" font-family="Helvetica,sans-Serif" font-size="10.00">::HttpClientImpl::HttpResponse</text>
<text text-anchor="middle" x="860" y="-383.5" font-family="Helvetica,sans-Serif" font-size="10.00">Parser &gt;</text>
</a>
</g>
</g>
<!-- Node7&#45;&gt;Node17 -->
<g id="edge23" class="edge"><title>Node7&#45;&gt;Node17</title>
<path fill="none" stroke="#9a32cd" stroke-dasharray="5,2" d="M544.756,-537.076C563.657,-534.964 588.171,-529.023 603,-513 629.229,-484.659 592.636,-454.203 621,-428 644.223,-406.546 723.543,-399.634 784.293,-397.562"/>
<polygon fill="#9a32cd" stroke="#9a32cd" points="544.338,-533.599 534.661,-537.911 544.915,-540.575 544.338,-533.599"/>
<text text-anchor="middle" x="693.5" y="-431" font-family="Helvetica,sans-Serif" font-size="10.00"> initialized</text>
</g>
<!-- Node19 -->
<g id="node19" class="node"><title>Node19</title>
<g id="a_node19"><a xlink:href="../../dc/df7/classinfra_1_1_optional.html" target="_top" xlink:title="infra::Optional\&lt; services\l::HttpRequestFormatter \&gt;">
<polygon fill="white" stroke="black" points="796,-538 796,-568 924,-568 924,-538 796,-538"/>
<text text-anchor="start" x="804" y="-556" font-family="Helvetica,sans-Serif" font-size="10.00">infra::Optional&lt; services</text>
<text text-anchor="middle" x="860" y="-545" font-family="Helvetica,sans-Serif" font-size="10.00">::HttpRequestFormatter &gt;</text>
</a>
</g>
</g>
<!-- Node7&#45;&gt;Node19 -->
<g id="edge27" class="edge"><title>Node7&#45;&gt;Node19</title>
<path fill="none" stroke="#9a32cd" stroke-dasharray="5,2" d="M544.772,-537.542C590.284,-536.963 685.624,-536.612 766,-542 775.652,-542.647 785.841,-543.587 795.797,-544.65"/>
<polygon fill="#9a32cd" stroke="#9a32cd" points="544.516,-534.045 534.567,-537.687 544.616,-541.045 544.516,-534.045"/>
<text text-anchor="middle" x="693.5" y="-545" font-family="Helvetica,sans-Serif" font-size="10.00"> initialized</text>
</g>
<!-- Node30 -->
<g id="node30" class="node"><title>Node30</title>
<g id="a_node30"><a xlink:href="../../dc/df7/classinfra_1_1_optional.html" target="_top" xlink:title="infra::Optional\&lt; services\l::HttpClientImpl::BodyReader \&gt;">
<polygon fill="white" stroke="black" points="784,-437 784,-467 936,-467 936,-437 784,-437"/>
<text text-anchor="start" x="792" y="-455" font-family="Helvetica,sans-Serif" font-size="10.00">infra::Optional&lt; services</text>
<text text-anchor="middle" x="860" y="-444" font-family="Helvetica,sans-Serif" font-size="10.00">::HttpClientImpl::BodyReader &gt;</text>
</a>
</g>
</g>
<!-- Node7&#45;&gt;Node30 -->
<g id="edge43" class="edge"><title>Node7&#45;&gt;Node30</title>
<path fill="none" stroke="#9a32cd" stroke-dasharray="5,2" d="M544.78,-535.246C562.78,-532.246 586.193,-525.996 603,-513 615.301,-503.488 607.993,-491.521 621,-483 634.528,-474.138 719.179,-464.623 783.713,-458.507"/>
<polygon fill="#9a32cd" stroke="#9a32cd" points="544.045,-531.815 534.64,-536.694 545.035,-538.745 544.045,-531.815"/>
<text text-anchor="middle" x="693.5" y="-486" font-family="Helvetica,sans-Serif" font-size="10.00"> initialized</text>
</g>
<!-- Node8 -->
<g id="node8" class="node"><title>Node8</title>
<g id="a_node8"><a xlink:href="../../d0/d8c/classinfra_1_1_static_storage.html" target="_top" xlink:title="infra::StaticStorage\l\&lt; uint32_t \&gt;">
<polygon fill="white" stroke="black" points="467,-621 467,-651 567,-651 567,-621 467,-621"/>
<text text-anchor="start" x="475" y="-639" font-family="Helvetica,sans-Serif" font-size="10.00">infra::StaticStorage</text>
<text text-anchor="middle" x="517" y="-628" font-family="Helvetica,sans-Serif" font-size="10.00">&lt; uint32_t &gt;</text>
</a>
</g>
</g>
<!-- Node8&#45;&gt;Node6 -->
<g id="edge7" class="edge"><title>Node8&#45;&gt;Node6</title>
<path fill="none" stroke="#9a32cd" stroke-dasharray="5,2" d="M577.514,-633.359C627.796,-630.899 701.689,-626.743 766,-621 775.473,-620.154 785.474,-619.12 795.265,-618.029"/>
<polygon fill="#9a32cd" stroke="#9a32cd" points="577.288,-629.866 567.469,-633.844 577.626,-636.858 577.288,-629.866"/>
<text text-anchor="middle" x="693.5" y="-634" font-family="Helvetica,sans-Serif" font-size="10.00"> data</text>
</g>
<!-- Node9 -->
<g id="node9" class="node"><title>Node9</title>
<polygon fill="white" stroke="#bfbfbf" points="196,-524.5 196,-543.5 231,-543.5 231,-524.5 196,-524.5"/>
<text text-anchor="middle" x="213.5" y="-531.5" font-family="Helvetica,sans-Serif" font-size="10.00">type</text>
</g>
<!-- Node9&#45;&gt;Node8 -->
<g id="edge8" class="edge"><title>Node9&#45;&gt;Node8</title>
<path fill="none" stroke="#9a32cd" stroke-dasharray="5,2" d="M236.511,-549.547C252.61,-560.288 275.332,-574.177 297,-583 353.156,-605.867 421.595,-620.473 466.856,-628.438"/>
<polygon fill="#9a32cd" stroke="#9a32cd" points="238.09,-546.387 227.855,-543.648 234.148,-552.172 238.09,-546.387"/>
<text text-anchor="middle" x="355" y="-620" font-family="Helvetica,sans-Serif" font-size="10.00"> data</text>
</g>
<!-- Node18 -->
<g id="node18" class="node"><title>Node18</title>
<g id="a_node18"><a xlink:href="../../d0/d8c/classinfra_1_1_static_storage.html" target="_top" xlink:title="infra::StaticStorage\l\&lt; services::HttpClientImpl\l::HttpResponseParser \&gt;">
<polygon fill="white" stroke="black" points="453,-390.5 453,-431.5 581,-431.5 581,-390.5 453,-390.5"/>
<text text-anchor="start" x="461" y="-419.5" font-family="Helvetica,sans-Serif" font-size="10.00">infra::StaticStorage</text>
<text text-anchor="start" x="461" y="-408.5" font-family="Helvetica,sans-Serif" font-size="10.00">&lt; services::HttpClientImpl</text>
<text text-anchor="middle" x="517" y="-397.5" font-family="Helvetica,sans-Serif" font-size="10.00">::HttpResponseParser &gt;</text>
</a>
</g>
</g>
<!-- Node9&#45;&gt;Node18 -->
<g id="edge22" class="edge"><title>Node9&#45;&gt;Node18</title>
<path fill="none" stroke="#9a32cd" stroke-dasharray="5,2" d="M237.692,-518.847C253.874,-508.693 276.21,-495.496 297,-486 347.996,-462.708 408.444,-442.53 452.9,-428.989"/>
<polygon fill="#9a32cd" stroke="#9a32cd" points="235.491,-516.099 228.935,-524.422 239.25,-522.004 235.491,-516.099"/>
<text text-anchor="middle" x="355" y="-489" font-family="Helvetica,sans-Serif" font-size="10.00"> data</text>
</g>
<!-- Node20 -->
<g id="node20" class="node"><title>Node20</title>
<g id="a_node20"><a xlink:href="../../d0/d8c/classinfra_1_1_static_storage.html" target="_top" xlink:title="infra::StaticStorage\l\&lt; services::HttpRequestFormatter \&gt;">
<polygon fill="white" stroke="black" points="431,-570 431,-600 603,-600 603,-570 431,-570"/>
<text text-anchor="start" x="439" y="-588" font-family="Helvetica,sans-Serif" font-size="10.00">infra::StaticStorage</text>
<text text-anchor="middle" x="517" y="-577" font-family="Helvetica,sans-Serif" font-size="10.00">&lt; services::HttpRequestFormatter &gt;</text>
</a>
</g>
</g>
<!-- Node9&#45;&gt;Node20 -->
<g id="edge26" class="edge"><title>Node9&#45;&gt;Node20</title>
<path fill="none" stroke="#9a32cd" stroke-dasharray="5,2" d="M241.134,-538.505C283.174,-545.616 366.707,-559.746 430.707,-570.572"/>
<polygon fill="#9a32cd" stroke="#9a32cd" points="241.583,-535.032 231.139,-536.815 240.416,-541.934 241.583,-535.032"/>
<text text-anchor="middle" x="355" y="-571" font-family="Helvetica,sans-Serif" font-size="10.00"> data</text>
</g>
<!-- Node31 -->
<g id="node31" class="node"><title>Node31</title>
<g id="a_node31"><a xlink:href="../../d0/d8c/classinfra_1_1_static_storage.html" target="_top" xlink:title="infra::StaticStorage\l\&lt; services::HttpClientImpl\l::BodyReader \&gt;">
<polygon fill="white" stroke="black" points="453,-462.5 453,-503.5 581,-503.5 581,-462.5 453,-462.5"/>
<text text-anchor="start" x="461" y="-491.5" font-family="Helvetica,sans-Serif" font-size="10.00">infra::StaticStorage</text>
<text text-anchor="start" x="461" y="-480.5" font-family="Helvetica,sans-Serif" font-size="10.00">&lt; services::HttpClientImpl</text>
<text text-anchor="middle" x="517" y="-469.5" font-family="Helvetica,sans-Serif" font-size="10.00">::BodyReader &gt;</text>
</a>
</g>
</g>
<!-- Node9&#45;&gt;Node31 -->
<g id="edge42" class="edge"><title>Node9&#45;&gt;Node31</title>
<path fill="none" stroke="#9a32cd" stroke-dasharray="5,2" d="M241.16,-529.49C288.271,-521.521 387.432,-504.748 452.865,-493.68"/>
<polygon fill="#9a32cd" stroke="#9a32cd" points="240.416,-526.066 231.139,-531.185 241.583,-532.968 240.416,-526.066"/>
<text text-anchor="middle" x="355" y="-522" font-family="Helvetica,sans-Serif" font-size="10.00"> data</text>
</g>
<!-- Node10&#45;&gt;Node1 -->
<g id="edge10" class="edge"><title>Node10&#45;&gt;Node1</title>
<path fill="none" stroke="#9a32cd" stroke-dasharray="5,2" d="M1150.52,-437.678C1188.87,-464.991 1267.45,-520.951 1305.26,-547.873"/>
<polygon fill="#9a32cd" stroke="#9a32cd" points="1152.29,-434.641 1142.11,-431.692 1148.22,-440.343 1152.29,-434.641"/>
<text text-anchor="middle" x="1227.5" y="-509" font-family="Helvetica,sans-Serif" font-size="10.00"> httpClient</text>
</g>
<!-- Node11 -->
<g id="node11" class="node"><title>Node11</title>
<g id="a_node11"><a xlink:href="../../dc/de5/classservices_1_1_connection_observer.html" target="_top" xlink:title="services::ConnectionObserver">
<polygon fill="white" stroke="black" points="621,-720.5 621,-739.5 766,-739.5 766,-720.5 621,-720.5"/>
<text text-anchor="middle" x="693.5" y="-727.5" font-family="Helvetica,sans-Serif" font-size="10.00">services::ConnectionObserver</text>
</a>
</g>
</g>
<!-- Node11&#45;&gt;Node10 -->
<g id="edge11" class="edge"><title>Node11&#45;&gt;Node10</title>
<path fill="none" stroke="midnightblue" d="M748.558,-741.211C825.919,-753.827 967.907,-763.702 1050,-688 1059.98,-678.797 1111.96,-478.534 1124.01,-431.724"/>
<polygon fill="midnightblue" stroke="midnightblue" points="748.986,-737.734 738.54,-739.503 747.809,-744.634 748.986,-737.734"/>
</g>
<!-- Node12 -->
<g id="node12" class="node"><title>Node12</title>
<g id="a_node12"><a xlink:href="../../dc/d4c/classinfra_1_1_single_observer.html" target="_top" xlink:title="infra::SingleObserver\l\&lt; ConnectionObserver,\l Connection \&gt;">
<polygon fill="white" stroke="black" points="297,-709.5 297,-750.5 413,-750.5 413,-709.5 297,-709.5"/>
<text text-anchor="start" x="305" y="-738.5" font-family="Helvetica,sans-Serif" font-size="10.00">infra::SingleObserver</text>
<text text-anchor="start" x="305" y="-727.5" font-family="Helvetica,sans-Serif" font-size="10.00">&lt; ConnectionObserver,</text>
<text text-anchor="middle" x="355" y="-716.5" font-family="Helvetica,sans-Serif" font-size="10.00"> Connection &gt;</text>
</a>
</g>
</g>
<!-- Node12&#45;&gt;Node11 -->
<g id="edge12" class="edge"><title>Node12&#45;&gt;Node11</title>
<path fill="none" stroke="midnightblue" d="M423.106,-730C480.297,-730 562.282,-730 620.762,-730"/>
<polygon fill="midnightblue" stroke="midnightblue" points="423.083,-726.5 413.083,-730 423.083,-733.5 423.083,-726.5"/>
</g>
<!-- Node13 -->
<g id="node13" class="node"><title>Node13</title>
<polygon fill="white" stroke="#bfbfbf" points="0,-671.5 0,-690.5 77,-690.5 77,-671.5 0,-671.5"/>
<text text-anchor="middle" x="38.5" y="-678.5" font-family="Helvetica,sans-Serif" font-size="10.00">SubjectType *</text>
</g>
<!-- Node13&#45;&gt;Node12 -->
<g id="edge13" class="edge"><title>Node13&#45;&gt;Node12</title>
<path fill="none" stroke="#9a32cd" stroke-dasharray="5,2" d="M78.2674,-693.524C98.7915,-699.693 124.54,-706.71 148,-711 197.815,-720.109 255.248,-724.948 296.795,-727.457"/>
<polygon fill="#9a32cd" stroke="#9a32cd" points="79.231,-690.159 68.6445,-690.579 77.1826,-696.852 79.231,-690.159"/>
<text text-anchor="middle" x="112.5" y="-710" font-family="Helvetica,sans-Serif" font-size="10.00"> subject</text>
</g>
<!-- Node16 -->
<g id="node16" class="node"><title>Node16</title>
<g id="a_node16"><a xlink:href="../../dc/d4c/classinfra_1_1_single_observer.html" target="_top" xlink:title="infra::SingleObserver\l\&lt; HttpClientObserver,\l ObserverSubjectType \&gt;">
<polygon fill="white" stroke="black" points="153,-660.5 153,-701.5 274,-701.5 274,-660.5 153,-660.5"/>
<text text-anchor="start" x="161" y="-689.5" font-family="Helvetica,sans-Serif" font-size="10.00">infra::SingleObserver</text>
<text text-anchor="start" x="161" y="-678.5" font-family="Helvetica,sans-Serif" font-size="10.00">&lt; HttpClientObserver,</text>
<text text-anchor="middle" x="213.5" y="-667.5" font-family="Helvetica,sans-Serif" font-size="10.00"> ObserverSubjectType &gt;</text>
</a>
</g>
</g>
<!-- Node13&#45;&gt;Node16 -->
<g id="edge17" class="edge"><title>Node13&#45;&gt;Node16</title>
<path fill="none" stroke="#9a32cd" stroke-dasharray="5,2" d="M87.2976,-681C107.602,-681 131.49,-681 152.927,-681"/>
<polygon fill="#9a32cd" stroke="#9a32cd" points="87.0385,-677.5 77.0384,-681 87.0384,-684.5 87.0385,-677.5"/>
<text text-anchor="middle" x="112.5" y="-684" font-family="Helvetica,sans-Serif" font-size="10.00"> subject</text>
</g>
<!-- Node29 -->
<g id="node29" class="node"><title>Node29</title>
<g id="a_node29"><a xlink:href="../../dc/d4c/classinfra_1_1_single_observer.html" target="_top" xlink:title="infra::SingleObserver\l\&lt; HttpClientObserver,\l HttpClient \&gt;">
<polygon fill="white" stroke="black" points="158.5,-251.5 158.5,-292.5 268.5,-292.5 268.5,-251.5 158.5,-251.5"/>
<text text-anchor="start" x="166.5" y="-280.5" font-family="Helvetica,sans-Serif" font-size="10.00">infra::SingleObserver</text>
<text text-anchor="start" x="166.5" y="-269.5" font-family="Helvetica,sans-Serif" font-size="10.00">&lt; HttpClientObserver,</text>
<text text-anchor="middle" x="213.5" y="-258.5" font-family="Helvetica,sans-Serif" font-size="10.00"> HttpClient &gt;</text>
</a>
</g>
</g>
<!-- Node13&#45;&gt;Node29 -->
<g id="edge39" class="edge"><title>Node13&#45;&gt;Node29</title>
<path fill="none" stroke="#9a32cd" stroke-dasharray="5,2" d="M39.6532,-661.309C41.1515,-600.393 53.5963,-412.471 148,-302 151.049,-298.432 154.614,-295.263 158.474,-292.452"/>
<polygon fill="#9a32cd" stroke="#9a32cd" points="36.1514,-661.392 39.4809,-671.45 43.1503,-661.511 36.1514,-661.392"/>
<text text-anchor="middle" x="112.5" y="-386" font-family="Helvetica,sans-Serif" font-size="10.00"> subject</text>
</g>
<!-- Node14 -->
<g id="node14" class="node"><title>Node14</title>
<g id="a_node14"><a xlink:href="../../dc/d97/classservices_1_1_http_client.html" target="_top" xlink:title="services::HttpClient">
<polygon fill="white" stroke="black" points="809.5,-682.5 809.5,-701.5 910.5,-701.5 910.5,-682.5 809.5,-682.5"/>
<text text-anchor="middle" x="860" y="-689.5" font-family="Helvetica,sans-Serif" font-size="10.00">services::HttpClient</text>
</a>
</g>
</g>
<!-- Node14&#45;&gt;Node10 -->
<g id="edge14" class="edge"><title>Node14&#45;&gt;Node10</title>
<path fill="none" stroke="midnightblue" d="M920.919,-695.544C961.912,-694.721 1014.97,-686.814 1050,-656 1119.96,-594.455 1126.24,-468.042 1126.57,-431.869"/>
<polygon fill="midnightblue" stroke="midnightblue" points="920.752,-692.045 910.775,-695.611 920.798,-699.045 920.752,-692.045"/>
</g>
<!-- Node15 -->
<g id="node15" class="node"><title>Node15</title>
<g id="a_node15"><a xlink:href="../../d1/db2/classinfra_1_1_subject.html" target="_top" xlink:title="infra::Subject\&lt; HttpClient\lObserver \&gt;">
<polygon fill="white" stroke="black" points="454.5,-671 454.5,-701 579.5,-701 579.5,-671 454.5,-671"/>
<text text-anchor="start" x="462.5" y="-689" font-family="Helvetica,sans-Serif" font-size="10.00">infra::Subject&lt; HttpClient</text>
<text text-anchor="middle" x="517" y="-678" font-family="Helvetica,sans-Serif" font-size="10.00">Observer &gt;</text>
</a>
</g>
</g>
<!-- Node15&#45;&gt;Node14 -->
<g id="edge15" class="edge"><title>Node15&#45;&gt;Node14</title>
<path fill="none" stroke="midnightblue" d="M590.058,-687.268C655.931,-688.427 751.623,-690.111 809.329,-691.126"/>
<polygon fill="midnightblue" stroke="midnightblue" points="589.813,-683.763 579.753,-687.087 589.689,-690.762 589.813,-683.763"/>
</g>
<!-- Node16&#45;&gt;Node15 -->
<g id="edge16" class="edge"><title>Node16&#45;&gt;Node15</title>
<path fill="none" stroke="#9a32cd" stroke-dasharray="5,2" d="M284.111,-682.154C335.587,-683.008 405.043,-684.16 454.487,-684.98"/>
<polygon fill="#9a32cd" stroke="#9a32cd" points="284.123,-678.654 274.067,-681.988 284.007,-685.653 284.123,-678.654"/>
<text text-anchor="middle" x="355" y="-687" font-family="Helvetica,sans-Serif" font-size="10.00"> observer</text>
</g>
<!-- Node17&#45;&gt;Node10 -->
<g id="edge20" class="edge"><title>Node17&#45;&gt;Node10</title>
<path fill="none" stroke="#9a32cd" stroke-dasharray="5,2" d="M946.062,-400.499C978.641,-402.337 1016.11,-405.056 1050,-409 1058.03,-409.934 1066.5,-411.145 1074.76,-412.451"/>
<polygon fill="#9a32cd" stroke="#9a32cd" points="945.843,-396.982 935.667,-399.933 945.462,-403.972 945.843,-396.982"/>
<text text-anchor="middle" x="1002" y="-412" font-family="Helvetica,sans-Serif" font-size="10.00"> response</text>
</g>
<!-- Node18&#45;&gt;Node17 -->
<g id="edge21" class="edge"><title>Node18&#45;&gt;Node17</title>
<path fill="none" stroke="#9a32cd" stroke-dasharray="5,2" d="M587.809,-387.796C598.804,-384.978 610.13,-382.551 621,-381 684.798,-371.898 701.789,-375.517 766,-381 771.958,-381.509 778.108,-382.198 784.273,-383.005"/>
<polygon fill="#9a32cd" stroke="#9a32cd" points="586.575,-384.504 577.827,-390.48 588.393,-391.264 586.575,-384.504"/>
<text text-anchor="middle" x="693.5" y="-384" font-family="Helvetica,sans-Serif" font-size="10.00"> data</text>
</g>
<!-- Node19&#45;&gt;Node10 -->
<g id="edge24" class="edge"><title>Node19&#45;&gt;Node10</title>
<path fill="none" stroke="#9a32cd" stroke-dasharray="5,2" d="M934.131,-546.587C978.683,-541.619 1030.65,-533.606 1050,-522 1087.12,-499.742 1112.58,-452.094 1122.21,-431.646"/>
<polygon fill="#9a32cd" stroke="#9a32cd" points="933.734,-543.11 924.167,-547.662 934.485,-550.069 933.734,-543.11"/>
<text text-anchor="middle" x="1002" y="-547" font-family="Helvetica,sans-Serif" font-size="10.00"> request</text>
</g>
<!-- Node20&#45;&gt;Node19 -->
<g id="edge25" class="edge"><title>Node20&#45;&gt;Node19</title>
<path fill="none" stroke="#9a32cd" stroke-dasharray="5,2" d="M613.062,-593.848C659.513,-596.125 716.034,-595.847 766,-587 786.821,-583.313 809.103,-575.32 826.636,-568.01"/>
<polygon fill="#9a32cd" stroke="#9a32cd" points="613.18,-590.349 603.007,-593.308 612.805,-597.339 613.18,-590.349"/>
<text text-anchor="middle" x="693.5" y="-599" font-family="Helvetica,sans-Serif" font-size="10.00"> data</text>
</g>
<!-- Node21 -->
<g id="node21" class="node"><title>Node21</title>
<g id="a_node21"><a xlink:href="../../d1/d17/classinfra_1_1_shared_ptr.html" target="_top" xlink:title="infra::SharedPtr\&lt; infra\l::StreamWriter \&gt;">
<polygon fill="white" stroke="black" points="804.5,-172 804.5,-202 915.5,-202 915.5,-172 804.5,-172"/>
<text text-anchor="start" x="812.5" y="-190" font-family="Helvetica,sans-Serif" font-size="10.00">infra::SharedPtr&lt; infra</text>
<text text-anchor="middle" x="860" y="-179" font-family="Helvetica,sans-Serif" font-size="10.00">::StreamWriter &gt;</text>
</a>
</g>
</g>
<!-- Node21&#45;&gt;Node10 -->
<g id="edge29" class="edge"><title>Node21&#45;&gt;Node10</title>
<path fill="none" stroke="#9a32cd" stroke-dasharray="5,2" d="M925.166,-203.076C965.047,-215.769 1015.18,-236.957 1050,-270 1094.58,-312.296 1117.22,-386.205 1124.14,-412.434"/>
<polygon fill="#9a32cd" stroke="#9a32cd" points="926.111,-199.705 915.524,-200.108 924.051,-206.395 926.111,-199.705"/>
<text text-anchor="middle" x="1002" y="-273" font-family="Helvetica,sans-Serif" font-size="10.00"> forwardStreamPtr</text>
</g>
<!-- Node22 -->
<g id="node22" class="node"><title>Node22</title>
<g id="a_node22"><a xlink:href="../../dd/d9a/classinfra_1_1detail_1_1_shared_ptr_control.html" target="_top" xlink:title="infra::detail::SharedPtr\lControl">
<polygon fill="white" stroke="black" points="460.5,-203 460.5,-233 573.5,-233 573.5,-203 460.5,-203"/>
<text text-anchor="start" x="468.5" y="-221" font-family="Helvetica,sans-Serif" font-size="10.00">infra::detail::SharedPtr</text>
<text text-anchor="middle" x="517" y="-210" font-family="Helvetica,sans-Serif" font-size="10.00">Control</text>
</a>
</g>
</g>
<!-- Node22&#45;&gt;Node21 -->
<g id="edge30" class="edge"><title>Node22&#45;&gt;Node21</title>
<path fill="none" stroke="#9a32cd" stroke-dasharray="5,2" d="M566.643,-199.591C583.588,-194.067 602.893,-188.748 621,-186 683.299,-176.545 755.832,-178.71 804.298,-182.006"/>
<polygon fill="#9a32cd" stroke="#9a32cd" points="565.325,-196.342 556.965,-202.85 567.559,-202.976 565.325,-196.342"/>
<text text-anchor="middle" x="693.5" y="-189" font-family="Helvetica,sans-Serif" font-size="10.00"> control</text>
</g>
<!-- Node27 -->
<g id="node27" class="node"><title>Node27</title>
<g id="a_node27"><a xlink:href="../../d1/d17/classinfra_1_1_shared_ptr.html" target="_top" xlink:title="infra::SharedPtr\&lt; services\l::HttpClientObserver \&gt;">
<polygon fill="white" stroke="black" points="796,-238 796,-268 924,-268 924,-238 796,-238"/>
<text text-anchor="start" x="804" y="-256" font-family="Helvetica,sans-Serif" font-size="10.00">infra::SharedPtr&lt; services</text>
<text text-anchor="middle" x="860" y="-245" font-family="Helvetica,sans-Serif" font-size="10.00">::HttpClientObserver &gt;</text>
</a>
</g>
</g>
<!-- Node22&#45;&gt;Node27 -->
<g id="edge36" class="edge"><title>Node22&#45;&gt;Node27</title>
<path fill="none" stroke="#9a32cd" stroke-dasharray="5,2" d="M583.873,-220.835C633.961,-223.461 704.503,-228.171 766,-236 775.688,-237.233 785.896,-238.812 795.86,-240.508"/>
<polygon fill="#9a32cd" stroke="#9a32cd" points="583.987,-217.336 573.822,-220.321 583.63,-224.327 583.987,-217.336"/>
<text text-anchor="middle" x="693.5" y="-239" font-family="Helvetica,sans-Serif" font-size="10.00"> control</text>
</g>
<!-- Node32 -->
<g id="node32" class="node"><title>Node32</title>
<g id="a_node32"><a xlink:href="../../da/d78/classinfra_1_1_accessed_by_shared_ptr.html" target="_top" xlink:title="infra::AccessedBySharedPtr">
<polygon fill="white" stroke="black" points="790,-323.5 790,-342.5 930,-342.5 930,-323.5 790,-323.5"/>
<text text-anchor="middle" x="860" y="-330.5" font-family="Helvetica,sans-Serif" font-size="10.00">infra::AccessedBySharedPtr</text>
</a>
</g>
</g>
<!-- Node22&#45;&gt;Node32 -->
<g id="edge48" class="edge"><title>Node22&#45;&gt;Node32</title>
<path fill="none" stroke="#9a32cd" stroke-dasharray="5,2" d="M575.791,-236.755C585.135,-240.63 594.518,-245.06 603,-250 611.999,-255.241 611.517,-260.697 621,-265 680.418,-291.965 703.742,-268.469 766,-288 794.239,-296.859 824.71,-312.992 842.805,-323.342"/>
<polygon fill="#9a32cd" stroke="#9a32cd" points="577.081,-233.501 566.495,-233.066 574.499,-240.007 577.081,-233.501"/>
<text text-anchor="middle" x="693.5" y="-291" font-family="Helvetica,sans-Serif" font-size="10.00"> control</text>
</g>
<!-- Node23 -->
<g id="node23" class="node"><title>Node23</title>
<polygon fill="white" stroke="#bfbfbf" points="180,-160.5 180,-179.5 247,-179.5 247,-160.5 180,-160.5"/>
<text text-anchor="middle" x="213.5" y="-167.5" font-family="Helvetica,sans-Serif" font-size="10.00">const void *</text>
</g>
<!-- Node23&#45;&gt;Node22 -->
<g id="edge31" class="edge"><title>Node23&#45;&gt;Node22</title>
<path fill="none" stroke="#9a32cd" stroke-dasharray="5,2" d="M257.038,-173.02C297.398,-176.284 359.641,-182.355 413,-192 429.152,-194.92 446.523,-198.952 462.312,-202.97"/>
<polygon fill="#9a32cd" stroke="#9a32cd" points="257.26,-169.527 247.016,-172.231 256.71,-176.505 257.26,-169.527"/>
<text text-anchor="middle" x="355" y="-195" font-family="Helvetica,sans-Serif" font-size="10.00"> object</text>
</g>
<!-- Node24 -->
<g id="node24" class="node"><title>Node24</title>
<polygon fill="white" stroke="#bfbfbf" points="188,-198.5 188,-217.5 239,-217.5 239,-198.5 188,-198.5"/>
<text text-anchor="middle" x="213.5" y="-205.5" font-family="Helvetica,sans-Serif" font-size="10.00">uint16_t</text>
</g>
<!-- Node24&#45;&gt;Node22 -->
<g id="edge32" class="edge"><title>Node24&#45;&gt;Node22</title>
<path fill="none" stroke="#9a32cd" stroke-dasharray="5,2" d="M249.478,-207.309C289.15,-206.727 355.765,-206.36 413,-209 428.421,-209.711 445.105,-210.96 460.463,-212.306"/>
<polygon fill="#9a32cd" stroke="#9a32cd" points="249.216,-203.813 239.273,-207.472 249.328,-210.812 249.216,-203.813"/>
<text text-anchor="middle" x="355" y="-223" font-family="Helvetica,sans-Serif" font-size="10.00"> weakPtrCount</text>
<text text-anchor="middle" x="355" y="-212" font-family="Helvetica,sans-Serif" font-size="10.00">sharedPtrCount</text>
</g>
<!-- Node25 -->
<g id="node25" class="node"><title>Node25</title>
<g id="a_node25"><a xlink:href="../../da/dcd/classinfra_1_1_shared_object_deleter.html" target="_top" xlink:title="infra::SharedObjectDeleter">
<polygon fill="white" stroke="black" points="148,-311.5 148,-330.5 279,-330.5 279,-311.5 148,-311.5"/>
<text text-anchor="middle" x="213.5" y="-318.5" font-family="Helvetica,sans-Serif" font-size="10.00">infra::SharedObjectDeleter</text>
</a>
</g>
</g>
<!-- Node25&#45;&gt;Node22 -->
<g id="edge33" class="edge"><title>Node25&#45;&gt;Node22</title>
<path fill="none" stroke="#9a32cd" stroke-dasharray="5,2" d="M264.785,-308.218C269.688,-306.372 274.506,-304.304 279,-302 288.019,-297.376 288.035,-292.727 297,-288 349.433,-260.355 414.727,-241.228 460.318,-230.039"/>
<polygon fill="#9a32cd" stroke="#9a32cd" points="263.617,-304.919 255.313,-311.498 265.908,-311.533 263.617,-304.919"/>
<text text-anchor="middle" x="355" y="-291" font-family="Helvetica,sans-Serif" font-size="10.00"> deleter</text>
</g>
<!-- Node25&#45;&gt;Node32 -->
<g id="edge46" class="edge"><title>Node25&#45;&gt;Node32</title>
<path fill="none" stroke="#8b1a1a" d="M289.575,-322.398C415.639,-324.745 668.008,-329.444 789.929,-331.714"/>
<polygon fill="#8b1a1a" stroke="#8b1a1a" points="289.311,-318.892 279.248,-322.206 289.181,-325.891 289.311,-318.892"/>
</g>
<!-- Node26 -->
<g id="node26" class="node"><title>Node26</title>
<g id="a_node26"><a xlink:href="../../de/dba/classinfra_1_1_stream_writer.html" target="_top" xlink:title="infra::StreamWriter">
<polygon fill="white" stroke="black" points="468,-141.5 468,-160.5 566,-160.5 566,-141.5 468,-141.5"/>
<text text-anchor="middle" x="517" y="-148.5" font-family="Helvetica,sans-Serif" font-size="10.00">infra::StreamWriter</text>
</a>
</g>
</g>
<!-- Node26&#45;&gt;Node21 -->
<g id="edge34" class="edge"><title>Node26&#45;&gt;Node21</title>
<path fill="none" stroke="#9a32cd" stroke-dasharray="5,2" d="M576.325,-151.405C626.766,-152.442 701.521,-155.628 766,-165 778.478,-166.814 791.744,-169.49 804.23,-172.356"/>
<polygon fill="#9a32cd" stroke="#9a32cd" points="576.32,-147.904 566.257,-151.219 576.191,-154.903 576.32,-147.904"/>
<text text-anchor="middle" x="693.5" y="-168" font-family="Helvetica,sans-Serif" font-size="10.00"> object</text>
</g>
<!-- Node27&#45;&gt;Node10 -->
<g id="edge35" class="edge"><title>Node27&#45;&gt;Node10</title>
<path fill="none" stroke="#9a32cd" stroke-dasharray="5,2" d="M921.15,-271.432C960.157,-285.163 1010.82,-306.466 1050,-335 1081.05,-357.615 1108.35,-394.913 1120.21,-412.396"/>
<polygon fill="#9a32cd" stroke="#9a32cd" points="922.093,-268.055 911.498,-268.104 919.811,-274.672 922.093,-268.055"/>
<text text-anchor="middle" x="1002" y="-338" font-family="Helvetica,sans-Serif" font-size="10.00"> observer</text>
</g>
<!-- Node28 -->
<g id="node28" class="node"><title>Node28</title>
<g id="a_node28"><a xlink:href="../../d3/db1/classservices_1_1_http_client_observer.html" target="_top" xlink:title="services::HttpClientObserver">
<polygon fill="white" stroke="black" points="447.5,-259.5 447.5,-278.5 586.5,-278.5 586.5,-259.5 447.5,-259.5"/>
<text text-anchor="middle" x="517" y="-266.5" font-family="Helvetica,sans-Serif" font-size="10.00">services::HttpClientObserver</text>
</a>
</g>
</g>
<!-- Node28&#45;&gt;Node27 -->
<g id="edge37" class="edge"><title>Node28&#45;&gt;Node27</title>
<path fill="none" stroke="#9a32cd" stroke-dasharray="5,2" d="M583.681,-258.03C596.045,-256.365 608.892,-254.903 621,-254 680.13,-249.592 747.752,-249.812 795.767,-250.856"/>
<polygon fill="#9a32cd" stroke="#9a32cd" points="582.851,-254.612 573.435,-259.469 583.825,-261.544 582.851,-254.612"/>
<text text-anchor="middle" x="693.5" y="-257" font-family="Helvetica,sans-Serif" font-size="10.00"> object</text>
</g>
<!-- Node29&#45;&gt;Node28 -->
<g id="edge38" class="edge"><title>Node29&#45;&gt;Node28</title>
<path fill="none" stroke="midnightblue" d="M279.024,-271.358C328.564,-270.865 396.82,-270.186 447.359,-269.683"/>
<polygon fill="midnightblue" stroke="midnightblue" points="278.715,-267.861 268.75,-271.46 278.785,-274.86 278.715,-267.861"/>
</g>
<!-- Node30&#45;&gt;Node10 -->
<g id="edge40" class="edge"><title>Node30&#45;&gt;Node10</title>
<path fill="none" stroke="#9a32cd" stroke-dasharray="5,2" d="M945.955,-442.401C985.643,-437.916 1031.91,-432.688 1067.67,-428.648"/>
<polygon fill="#9a32cd" stroke="#9a32cd" points="945.561,-438.923 936.017,-443.523 946.347,-445.878 945.561,-438.923"/>
<text text-anchor="middle" x="1002" y="-445" font-family="Helvetica,sans-Serif" font-size="10.00"> bodyReader</text>
</g>
<!-- Node31&#45;&gt;Node30 -->
<g id="edge41" class="edge"><title>Node31&#45;&gt;Node30</title>
<path fill="none" stroke="#9a32cd" stroke-dasharray="5,2" d="M579.057,-459.309C592.662,-455.031 607.161,-451.225 621,-449 674.956,-440.325 736.682,-441.413 783.749,-444.493"/>
<polygon fill="#9a32cd" stroke="#9a32cd" points="577.746,-456.056 569.33,-462.493 579.923,-462.708 577.746,-456.056"/>
<text text-anchor="middle" x="693.5" y="-452" font-family="Helvetica,sans-Serif" font-size="10.00"> data</text>
</g>
<!-- Node32&#45;&gt;Node10 -->
<g id="edge45" class="edge"><title>Node32&#45;&gt;Node10</title>
<path fill="none" stroke="#9a32cd" stroke-dasharray="5,2" d="M936.218,-344.433C971.553,-351.226 1013.77,-361.423 1050,-376 1073.72,-385.545 1098.64,-401.895 1113.37,-412.313"/>
<polygon fill="#9a32cd" stroke="#9a32cd" points="936.44,-340.914 925.967,-342.52 935.155,-347.796 936.44,-340.914"/>
<text text-anchor="middle" x="1002" y="-390" font-family="Helvetica,sans-Serif" font-size="10.00"> bodyReaderAccess</text>
<text text-anchor="middle" x="1002" y="-379" font-family="Helvetica,sans-Serif" font-size="10.00">forwardStreamAccess</text>
</g>
<!-- Node33 -->
<g id="node33" class="node"><title>Node33</title>
<g id="a_node33"><a xlink:href="../../da/d07/classinfra_1_1_function.html" target="_top" xlink:title="infra::Function\&lt; void()\&gt;">
<polygon fill="white" stroke="black" points="459,-341.5 459,-360.5 575,-360.5 575,-341.5 459,-341.5"/>
<text text-anchor="middle" x="517" y="-348.5" font-family="Helvetica,sans-Serif" font-size="10.00">infra::Function&lt; void()&gt;</text>
</a>
</g>
</g>
<!-- Node33&#45;&gt;Node32 -->
<g id="edge47" class="edge"><title>Node33&#45;&gt;Node32</title>
<path fill="none" stroke="#9a32cd" stroke-dasharray="5,2" d="M585.07,-347.46C644.259,-344.335 730.18,-339.8 789.955,-336.645"/>
<polygon fill="#9a32cd" stroke="#9a32cd" points="584.877,-343.965 575.076,-347.987 585.246,-350.955 584.877,-343.965"/>
<text text-anchor="middle" x="693.5" y="-349" font-family="Helvetica,sans-Serif" font-size="10.00"> onUnReferenced</text>
</g>
<!-- Node34 -->
<g id="node34" class="node"><title>Node34</title>
<polygon fill="white" stroke="#bfbfbf" points="805.5,-75 805.5,-105 914.5,-105 914.5,-75 805.5,-75"/>
<text text-anchor="start" x="813.5" y="-93" font-family="Helvetica,sans-Serif" font-size="10.00">BoundedStringBase&lt;</text>
<text text-anchor="middle" x="860" y="-82" font-family="Helvetica,sans-Serif" font-size="10.00"> const char &gt;</text>
</g>
<!-- Node34&#45;&gt;Node10 -->
<g id="edge49" class="edge"><title>Node34&#45;&gt;Node10</title>
<path fill="none" stroke="#9a32cd" stroke-dasharray="5,2" d="M925.029,-91.6601C972.487,-94.2326 1031.94,-100.72 1050,-117 1095.93,-158.389 1120.47,-365.296 1125.52,-412.432"/>
<polygon fill="#9a32cd" stroke="#9a32cd" points="924.958,-88.1524 914.798,-91.1548 924.613,-95.1439 924.958,-88.1524"/>
<text text-anchor="middle" x="1002" y="-120" font-family="Helvetica,sans-Serif" font-size="10.00"> hostname</text>
</g>
</g>
</svg>
        <g id="navigator" transform="translate(0 0)" fill="#404254">
                <rect fill="#f2f5e9" fill-opacity="0.5" stroke="#606060" stroke-width=".5" x="0" y="0" width="60" height="60"/>
                <use id="zoomplus" xlink:href="#zoomPlus" x="17" y="9" onmousedown="handleZoom(evt,'in')"/>
                <use id="zoomminus" xlink:href="#zoomMin" x="42" y="9" onmousedown="handleZoom(evt,'out')"/>
                <use id="reset" xlink:href="#resetDef" x="30" y="36" onmousedown="handleReset()"/>
                <g id="arrowUp" xlink:href="#dirArrow" transform="translate(30 24)" onmousedown="handlePan(0,-1)">
                  <use xlink:href="#rim" fill="#404040">
                        <set attributeName="fill" to="#808080" begin="arrowUp.mouseover" end="arrowUp.mouseout"/>
                  </use>
                  <path fill="none" stroke="white" stroke-width="1.5" d="M0,-3.0v7 M-2.5,-0.5L0,-3.0L2.5,-0.5"/>
                </g>
                <g id="arrowRight" xlink:href="#dirArrow" transform="rotate(90) translate(36 -43)" onmousedown="handlePan(1,0)">
                  <use xlink:href="#rim" fill="#404040">
                        <set attributeName="fill" to="#808080" begin="arrowRight.mouseover" end="arrowRight.mouseout"/>
                  </use>
                  <path fill="none" stroke="white" stroke-width="1.5" d="M0,-3.0v7 M-2.5,-0.5L0,-3.0L2.5,-0.5"/>
                </g>
                <g id="arrowDown" xlink:href="#dirArrow" transform="rotate(180) translate(-30 -48)" onmousedown="handlePan(0,1)">
                  <use xlink:href="#rim" fill="#404040">
                        <set attributeName="fill" to="#808080" begin="arrowDown.mouseover" end="arrowDown.mouseout"/>
                  </use>
                  <path fill="none" stroke="white" stroke-width="1.5" d="M0,-3.0v7 M-2.5,-0.5L0,-3.0L2.5,-0.5"/>
                </g>
                <g id="arrowLeft" xlink:href="#dirArrow" transform="rotate(270) translate(-36 17)" onmousedown="handlePan(-1,0)">
                  <use xlink:href="#rim" fill="#404040">
                        <set attributeName="fill" to="#808080" begin="arrowLeft.mouseover" end="arrowLeft.mouseout"/>
                  </use>
                  <path fill="none" stroke="white" stroke-width="1.5" d="M0,-3.0v7 M-2.5,-0.5L0,-3.0L2.5,-0.5"/>
                </g>
        </g>
        <svg viewBox="0 0 15 15" width="100%" height="30px" preserveAspectRatio="xMaxYMin meet">
         <g id="arrow_out" transform="scale(0.3 0.3)">
          <a xlink:href="classservices_1_1_http_client_impl_1_1_http_response_parser__coll__graph_org.svg" target="_base">
           <rect id="button" ry="5" rx="5" y="6" x="6" height="38" width="38"
                fill="#f2f5e9" fill-opacity="0.5" stroke="#606060" stroke-width="1.0"/>
           <path id="arrow"
             d="M 11.500037,31.436501 C 11.940474,20.09759 22.043105,11.32322 32.158766,21.979434 L 37.068811,17.246167 C 37.068811,17.246167 37.088388,32 37.088388,32 L 22.160133,31.978069 C 22.160133,31.978069 26.997745,27.140456 26.997745,27.140456 C 18.528582,18.264221 13.291696,25.230495 11.500037,31.436501 z"
             style="fill:#404040;"/>
          </a>
         </g>
        </svg>
</svg>
