<?xml version="1.0" encoding="UTF-8" standalone="no"?>
<!DOCTYPE svg PUBLIC "-//W3C//DTD SVG 1.1//EN"
 "http://www.w3.org/Graphics/SVG/1.1/DTD/svg11.dtd">
<!-- Generated by graphviz version 2.38.0 (20140413.2041)
 -->
<!-- Title: hal::UsbLinkLayer Pages: 1 -->
<svg width="150pt" height="252pt"
 viewBox="0.00 0.00 150.00 252.00" xmlns="http://www.w3.org/2000/svg" xmlns:xlink="http://www.w3.org/1999/xlink">
<g id="graph0" class="graph" transform="scale(1 1) rotate(0) translate(4 248)">
<title>hal::UsbLinkLayer</title>
<polygon fill="white" stroke="none" points="-4,4 -4,-248 146,-248 146,4 -4,4"/>
<!-- Node2 -->
<g id="node1" class="node"><title>Node2</title>
<polygon fill="#bfbfbf" stroke="black" points="23.5,-0.5 23.5,-19.5 118.5,-19.5 118.5,-0.5 23.5,-0.5"/>
<text text-anchor="middle" x="71" y="-7.5" font-family="Helvetica,sans-Serif" font-size="10.00">hal::UsbLinkLayer</text>
</g>
<!-- Node3 -->
<g id="node2" class="node"><title>Node3</title>
<g id="a_node2"><a xlink:href="../../d1/db2/classinfra_1_1_subject.html" target="_top" xlink:title="infra::Subject\&lt; UsbLinkLayer\lObserver \&gt;">
<polygon fill="white" stroke="black" points="0,-57.5 0,-87.5 142,-87.5 142,-57.5 0,-57.5"/>
<text text-anchor="start" x="8" y="-75.5" font-family="Helvetica,sans-Serif" font-size="10.00">infra::Subject&lt; UsbLinkLayer</text>
<text text-anchor="middle" x="71" y="-64.5" font-family="Helvetica,sans-Serif" font-size="10.00">Observer &gt;</text>
</a>
</g>
</g>
<!-- Node3&#45;&gt;Node2 -->
<g id="edge1" class="edge"><title>Node3&#45;&gt;Node2</title>
<path fill="none" stroke="midnightblue" d="M71,-47.3524C71,-37.5132 71,-26.7753 71,-19.5399"/>
<polygon fill="midnightblue" stroke="midnightblue" points="67.5001,-47.468 71,-57.468 74.5001,-47.4681 67.5001,-47.468"/>
</g>
<!-- Node4 -->
<g id="node3" class="node"><title>Node4</title>
<g id="a_node3"><a xlink:href="../../dc/d4c/classinfra_1_1_single_observer.html" target="_top" xlink:title="infra::SingleObserver\l\&lt; UsbLinkLayerObserver,\l ObserverSubjectType \&gt;">
<polygon fill="white" stroke="black" points="8,-135.5 8,-176.5 134,-176.5 134,-135.5 8,-135.5"/>
<text text-anchor="start" x="16" y="-164.5" font-family="Helvetica,sans-Serif" font-size="10.00">infra::SingleObserver</text>
<text text-anchor="start" x="16" y="-153.5" font-family="Helvetica,sans-Serif" font-size="10.00">&lt; UsbLinkLayerObserver,</text>
<text text-anchor="middle" x="71" y="-142.5" font-family="Helvetica,sans-Serif" font-size="10.00"> ObserverSubjectType &gt;</text>
</a>
</g>
</g>
<!-- Node4&#45;&gt;Node3 -->
<g id="edge2" class="edge"><title>Node4&#45;&gt;Node3</title>
<path fill="none" stroke="#9a32cd" stroke-dasharray="5,2" d="M71,-125.025C71,-112.258 71,-97.9702 71,-87.6846"/>
<polygon fill="#9a32cd" stroke="#9a32cd" points="67.5001,-125.271 71,-135.271 74.5001,-125.271 67.5001,-125.271"/>
<text text-anchor="middle" x="91" y="-109" font-family="Helvetica,sans-Serif" font-size="10.00"> observer</text>
</g>
<!-- Node5 -->
<g id="node4" class="node"><title>Node5</title>
<polygon fill="white" stroke="#bfbfbf" points="32.5,-224.5 32.5,-243.5 109.5,-243.5 109.5,-224.5 32.5,-224.5"/>
<text text-anchor="middle" x="71" y="-231.5" font-family="Helvetica,sans-Serif" font-size="10.00">SubjectType *</text>
</g>
<!-- Node5&#45;&gt;Node4 -->
<g id="edge3" class="edge"><title>Node5&#45;&gt;Node4</title>
<path fill="none" stroke="#9a32cd" stroke-dasharray="5,2" d="M71,-214.137C71,-202.729 71,-188.207 71,-176.658"/>
<polygon fill="#9a32cd" stroke="#9a32cd" points="67.5001,-214.282 71,-224.282 74.5001,-214.282 67.5001,-214.282"/>
<text text-anchor="middle" x="88.5" y="-198" font-family="Helvetica,sans-Serif" font-size="10.00"> subject</text>
</g>
</g>
</svg>
