<?xml version="1.0" encoding="UTF-8" standalone="no"?>
<!DOCTYPE svg PUBLIC "-//W3C//DTD SVG 1.1//EN"
 "http://www.w3.org/Graphics/SVG/1.1/DTD/svg11.dtd">
<!-- Generated by graphviz version 2.38.0 (20140413.2041)
 -->
<!-- Title: infra::EventDispatcherWithWeakPtrWorker::ActionFunction Pages: 1 -->
<svg width="274pt" height="117pt"
 viewBox="0.00 0.00 273.50 117.00" xmlns="http://www.w3.org/2000/svg" xmlns:xlink="http://www.w3.org/1999/xlink">
<g id="graph0" class="graph" transform="scale(1 1) rotate(0) translate(4 113)">
<title>infra::EventDispatcherWithWeakPtrWorker::ActionFunction</title>
<polygon fill="white" stroke="none" points="-4,4 -4,-113 269.5,-113 269.5,4 -4,4"/>
<!-- Node2 -->
<g id="node1" class="node"><title>Node2</title>
<polygon fill="#bfbfbf" stroke="black" points="57.5,-0.5 57.5,-30.5 215.5,-30.5 215.5,-0.5 57.5,-0.5"/>
<text text-anchor="start" x="65.5" y="-18.5" font-family="Helvetica,sans-Serif" font-size="10.00">infra::EventDispatcherWith</text>
<text text-anchor="middle" x="136.5" y="-7.5" font-family="Helvetica,sans-Serif" font-size="10.00">WeakPtrWorker::ActionFunction</text>
</g>
<!-- Node3 -->
<g id="node2" class="node"><title>Node3</title>
<g id="a_node2"><a xlink:href="../../db/d25/classinfra_1_1_event_dispatcher_with_weak_ptr_worker_1_1_action.html" target="_top" xlink:title="infra::EventDispatcherWith\lWeakPtrWorker::Action">
<polygon fill="white" stroke="black" points="0,-78.5 0,-108.5 131,-108.5 131,-78.5 0,-78.5"/>
<text text-anchor="start" x="8" y="-96.5" font-family="Helvetica,sans-Serif" font-size="10.00">infra::EventDispatcherWith</text>
<text text-anchor="middle" x="65.5" y="-85.5" font-family="Helvetica,sans-Serif" font-size="10.00">WeakPtrWorker::Action</text>
</a>
</g>
</g>
<!-- Node3&#45;&gt;Node2 -->
<g id="edge1" class="edge"><title>Node3&#45;&gt;Node2</title>
<path fill="none" stroke="midnightblue" d="M85.8932,-70.6707C97.8873,-57.8319 112.71,-41.9656 123.205,-30.7309"/>
<polygon fill="midnightblue" stroke="midnightblue" points="83.1236,-68.5083 78.8546,-78.205 88.2388,-73.2869 83.1236,-68.5083"/>
</g>
<!-- Node4 -->
<g id="node3" class="node"><title>Node4</title>
<g id="a_node3"><a xlink:href="../../da/d07/classinfra_1_1_function.html" target="_top" xlink:title="infra::Function\&lt; void()\&gt;">
<polygon fill="white" stroke="black" points="149.5,-84 149.5,-103 265.5,-103 265.5,-84 149.5,-84"/>
<text text-anchor="middle" x="207.5" y="-91" font-family="Helvetica,sans-Serif" font-size="10.00">infra::Function&lt; void()&gt;</text>
</a>
</g>
</g>
<!-- Node4&#45;&gt;Node2 -->
<g id="edge2" class="edge"><title>Node4&#45;&gt;Node2</title>
<path fill="none" stroke="#9a32cd" stroke-dasharray="5,2" d="M192.217,-76.1406C179.52,-62.5495 161.647,-43.4181 149.597,-30.5198"/>
<polygon fill="#9a32cd" stroke="#9a32cd" points="189.971,-78.8638 199.355,-83.7818 195.086,-74.0851 189.971,-78.8638"/>
<text text-anchor="middle" x="195" y="-52" font-family="Helvetica,sans-Serif" font-size="10.00"> function</text>
</g>
</g>
</svg>
