<?xml version="1.0" encoding="UTF-8" standalone="no"?>
<!DOCTYPE svg PUBLIC "-//W3C//DTD SVG 1.1//EN"
 "http://www.w3.org/Graphics/SVG/1.1/DTD/svg11.dtd">
<!-- Generated by graphviz version 2.38.0 (20140413.2041)
 -->
<!-- Title: services::ClientConnectionObserverFactoryWithNameResolver::ConnectionFailed Pages: 1 -->
<svg width="354pt" height="50pt"
 viewBox="0.00 0.00 354.00 50.00" xmlns="http://www.w3.org/2000/svg" xmlns:xlink="http://www.w3.org/1999/xlink">
<g id="graph0" class="graph" transform="scale(1 1) rotate(0) translate(4 46)">
<title>services::ClientConnectionObserverFactoryWithNameResolver::ConnectionFailed</title>
<polygon fill="white" stroke="none" points="-4,4 -4,-46 350,-46 350,4 -4,4"/>
<!-- Node10 -->
<g id="node1" class="node"><title>Node10</title>
<polygon fill="#bfbfbf" stroke="black" points="0,-0.5 0,-41.5 170,-41.5 170,-0.5 0,-0.5"/>
<text text-anchor="start" x="8" y="-29.5" font-family="Helvetica,sans-Serif" font-size="10.00">services::ClientConnection</text>
<text text-anchor="start" x="8" y="-18.5" font-family="Helvetica,sans-Serif" font-size="10.00">ObserverFactoryWithNameResolver</text>
<text text-anchor="middle" x="85" y="-7.5" font-family="Helvetica,sans-Serif" font-size="10.00">::ConnectionFailed</text>
</g>
<!-- Node11 -->
<g id="node2" class="node"><title>Node11</title>
<g id="a_node2"><a xlink:href="../../d6/d9f/classservices_1_1_connection_factory_with_name_resolver_for_tls.html#a15471324fe6c42c5b150d5e745b8109c" target="_top" xlink:title="services::ConnectionFactory\lWithNameResolverForTls::\lConnectionFailed">
<polygon fill="white" stroke="black" points="206,-0.5 206,-41.5 346,-41.5 346,-0.5 206,-0.5"/>
<text text-anchor="start" x="214" y="-29.5" font-family="Helvetica,sans-Serif" font-size="10.00">services::ConnectionFactory</text>
<text text-anchor="start" x="214" y="-18.5" font-family="Helvetica,sans-Serif" font-size="10.00">WithNameResolverForTls::</text>
<text text-anchor="middle" x="276" y="-7.5" font-family="Helvetica,sans-Serif" font-size="10.00">ConnectionFailed</text>
</a>
</g>
</g>
<!-- Node10&#45;&gt;Node11 -->
<g id="edge1" class="edge"><title>Node10&#45;&gt;Node11</title>
<path fill="none" stroke="midnightblue" d="M180.359,-21C188.965,-21 197.572,-21 205.896,-21"/>
<polygon fill="midnightblue" stroke="midnightblue" points="180.274,-17.5001 170.274,-21 180.274,-24.5001 180.274,-17.5001"/>
</g>
</g>
</svg>
