<?xml version="1.0" encoding="UTF-8" standalone="no"?>
<!DOCTYPE svg PUBLIC "-//W3C//DTD SVG 1.1//EN"
 "http://www.w3.org/Graphics/SVG/1.1/DTD/svg11.dtd">
<!-- Generated by graphviz version 2.38.0 (20140413.2041)
 -->
<!-- Title: infra::SystemStateManager::GoToNextState Pages: 1 -->
<svg width="494pt" height="137pt"
 viewBox="0.00 0.00 494.00 137.00" xmlns="http://www.w3.org/2000/svg" xmlns:xlink="http://www.w3.org/1999/xlink">
<g id="graph0" class="graph" transform="scale(1 1) rotate(0) translate(4 133)">
<title>infra::SystemStateManager::GoToNextState</title>
<polygon fill="white" stroke="none" points="-4,4 -4,-133 490,-133 490,4 -4,4"/>
<!-- Node9 -->
<g id="node1" class="node"><title>Node9</title>
<polygon fill="#bfbfbf" stroke="black" points="0,-73.5 0,-103.5 135,-103.5 135,-73.5 0,-73.5"/>
<text text-anchor="start" x="8" y="-91.5" font-family="Helvetica,sans-Serif" font-size="10.00">infra::SystemStateManager</text>
<text text-anchor="middle" x="67.5" y="-80.5" font-family="Helvetica,sans-Serif" font-size="10.00">::GoToNextState</text>
</g>
<!-- Node10 -->
<g id="node2" class="node"><title>Node10</title>
<g id="a_node2"><a xlink:href="../../df/d73/classinfra_1_1_system_state_manager.html#a913ae6f9d9655a40f7ab6697cc24b315" target="_top" xlink:title="infra::SystemStateManager\l::InformAllParticipants">
<polygon fill="white" stroke="black" points="171,-98.5 171,-128.5 306,-128.5 306,-98.5 171,-98.5"/>
<text text-anchor="start" x="179" y="-116.5" font-family="Helvetica,sans-Serif" font-size="10.00">infra::SystemStateManager</text>
<text text-anchor="middle" x="238.5" y="-105.5" font-family="Helvetica,sans-Serif" font-size="10.00">::InformAllParticipants</text>
</a>
</g>
</g>
<!-- Node9&#45;&gt;Node10 -->
<g id="edge1" class="edge"><title>Node9&#45;&gt;Node10</title>
<path fill="none" stroke="midnightblue" d="M145.293,-93.135C156.753,-94.7556 168.403,-96.5712 179.392,-98.4556"/>
<polygon fill="midnightblue" stroke="midnightblue" points="145.676,-89.6548 135.293,-91.7641 144.725,-96.5899 145.676,-89.6548"/>
</g>
<!-- Node11 -->
<g id="node3" class="node"><title>Node11</title>
<g id="a_node3"><a xlink:href="../../df/d73/classinfra_1_1_system_state_manager.html#a113a3fb016683d199280ea150069372b" target="_top" xlink:title="infra::SystemStateManager\l::ReachedState">
<polygon fill="white" stroke="black" points="171,-49.5 171,-79.5 306,-79.5 306,-49.5 171,-49.5"/>
<text text-anchor="start" x="179" y="-67.5" font-family="Helvetica,sans-Serif" font-size="10.00">infra::SystemStateManager</text>
<text text-anchor="middle" x="238.5" y="-56.5" font-family="Helvetica,sans-Serif" font-size="10.00">::ReachedState</text>
</a>
</g>
</g>
<!-- Node9&#45;&gt;Node11 -->
<g id="edge3" class="edge"><title>Node9&#45;&gt;Node11</title>
<path fill="none" stroke="midnightblue" d="M145.271,-77.5976C153.831,-76.382 162.497,-75.1512 170.915,-73.9558"/>
<polygon fill="midnightblue" stroke="midnightblue" points="144.702,-74.1432 135.293,-79.0146 145.686,-81.0737 144.702,-74.1432"/>
</g>
<!-- Node13 -->
<g id="node5" class="node"><title>Node13</title>
<g id="a_node5"><a xlink:href="../../df/d73/classinfra_1_1_system_state_manager.html#aa51e6449beae5e1c31343f0ac83491fc" target="_top" xlink:title="infra::SystemStateManager\l::RunStates">
<polygon fill="white" stroke="black" points="171,-0.5 171,-30.5 306,-30.5 306,-0.5 171,-0.5"/>
<text text-anchor="start" x="179" y="-18.5" font-family="Helvetica,sans-Serif" font-size="10.00">infra::SystemStateManager</text>
<text text-anchor="middle" x="238.5" y="-7.5" font-family="Helvetica,sans-Serif" font-size="10.00">::RunStates</text>
</a>
</g>
</g>
<!-- Node9&#45;&gt;Node13 -->
<g id="edge5" class="edge"><title>Node9&#45;&gt;Node13</title>
<path fill="none" stroke="midnightblue" d="M108.34,-68.9561C127.183,-59.9416 150.087,-49.3116 171,-40.5 178.956,-37.1476 187.534,-33.7593 195.797,-30.6054"/>
<polygon fill="midnightblue" stroke="midnightblue" points="106.66,-65.8803 99.1663,-73.3702 109.695,-72.1881 106.66,-65.8803"/>
</g>
<!-- Node10&#45;&gt;Node9 -->
<g id="edge2" class="edge"><title>Node10&#45;&gt;Node9</title>
<path fill="none" stroke="midnightblue" d="M160.801,-108.878C149.329,-107.257 137.664,-105.44 126.66,-103.553"/>
<polygon fill="midnightblue" stroke="midnightblue" points="160.428,-112.36 170.811,-110.25 161.379,-105.425 160.428,-112.36"/>
</g>
<!-- Node12 -->
<g id="node4" class="node"><title>Node12</title>
<g id="a_node4"><a xlink:href="../../de/d21/classinfra_1_1_system_state_participant.html#a611ff2cda764c08411e59fa4fc4d18b4" target="_top" xlink:title="infra::SystemStateParticipant\l::ReachedState">
<polygon fill="white" stroke="black" points="342,-49.5 342,-79.5 486,-79.5 486,-49.5 342,-49.5"/>
<text text-anchor="start" x="350" y="-67.5" font-family="Helvetica,sans-Serif" font-size="10.00">infra::SystemStateParticipant</text>
<text text-anchor="middle" x="414" y="-56.5" font-family="Helvetica,sans-Serif" font-size="10.00">::ReachedState</text>
</a>
</g>
</g>
<!-- Node11&#45;&gt;Node12 -->
<g id="edge4" class="edge"><title>Node11&#45;&gt;Node12</title>
<path fill="none" stroke="midnightblue" d="M316.104,-64.5C324.711,-64.5 333.453,-64.5 341.985,-64.5"/>
<polygon fill="midnightblue" stroke="midnightblue" points="316.083,-61.0001 306.083,-64.5 316.083,-68.0001 316.083,-61.0001"/>
</g>
</g>
</svg>
