<?xml version="1.0" encoding="UTF-8" standalone="no"?>
<!DOCTYPE svg PUBLIC "-//W3C//DTD SVG 1.1//EN"
 "http://www.w3.org/Graphics/SVG/1.1/DTD/svg11.dtd">
<!-- Generated by graphviz version 2.38.0 (20140413.2041)
 -->
<!-- Title: services::DatagramWin::TryAllocateSendStream Pages: 1 -->
<svg width="286pt" height="39pt"
 viewBox="0.00 0.00 286.00 39.00" xmlns="http://www.w3.org/2000/svg" xmlns:xlink="http://www.w3.org/1999/xlink">
<g id="graph0" class="graph" transform="scale(1 1) rotate(0) translate(4 35)">
<title>services::DatagramWin::TryAllocateSendStream</title>
<polygon fill="white" stroke="none" points="-4,4 -4,-35 282,-35 282,4 -4,4"/>
<!-- Node108 -->
<g id="node1" class="node"><title>Node108</title>
<polygon fill="#bfbfbf" stroke="black" points="0,-0.5 0,-30.5 125,-30.5 125,-0.5 0,-0.5"/>
<text text-anchor="start" x="8" y="-18.5" font-family="Helvetica,sans-Serif" font-size="10.00">services::DatagramWin</text>
<text text-anchor="middle" x="62.5" y="-7.5" font-family="Helvetica,sans-Serif" font-size="10.00">::TryAllocateSendStream</text>
</g>
<!-- Node109 -->
<g id="node2" class="node"><title>Node109</title>
<g id="a_node2"><a xlink:href="../../d2/d7b/classservices_1_1_datagram_win.html#a24db8b1b98bf5db7a650de7d78afbf27" target="_top" xlink:title="services::DatagramWin\l::RequestSendStream">
<polygon fill="white" stroke="black" points="161,-0.5 161,-30.5 278,-30.5 278,-0.5 161,-0.5"/>
<text text-anchor="start" x="169" y="-18.5" font-family="Helvetica,sans-Serif" font-size="10.00">services::DatagramWin</text>
<text text-anchor="middle" x="219.5" y="-7.5" font-family="Helvetica,sans-Serif" font-size="10.00">::RequestSendStream</text>
</a>
</g>
</g>
<!-- Node108&#45;&gt;Node109 -->
<g id="edge1" class="edge"><title>Node108&#45;&gt;Node109</title>
<path fill="none" stroke="midnightblue" d="M135.481,-15.5C143.963,-15.5 152.534,-15.5 160.785,-15.5"/>
<polygon fill="midnightblue" stroke="midnightblue" points="135.206,-12.0001 125.205,-15.5 135.205,-19.0001 135.206,-12.0001"/>
</g>
</g>
</svg>
