<?xml version="1.0" encoding="UTF-8" standalone="no"?>
<!DOCTYPE svg PUBLIC "-//W3C//DTD SVG 1.1//EN"
 "http://www.w3.org/Graphics/SVG/1.1/DTD/svg11.dtd">
<!-- Generated by graphviz version 2.38.0 (20140413.2041)
 -->
<!-- Title: services::DatagramWin::Receive Pages: 1 -->
<svg width="513pt" height="100pt"
 viewBox="0.00 0.00 513.00 99.50" xmlns="http://www.w3.org/2000/svg" xmlns:xlink="http://www.w3.org/1999/xlink">
<g id="graph0" class="graph" transform="scale(1 1) rotate(0) translate(4 95.5)">
<title>services::DatagramWin::Receive</title>
<polygon fill="white" stroke="none" points="-4,4 -4,-95.5 509,-95.5 509,4 -4,4"/>
<!-- Node77 -->
<g id="node1" class="node"><title>Node77</title>
<polygon fill="#bfbfbf" stroke="black" points="0,-39 0,-69 117,-69 117,-39 0,-39"/>
<text text-anchor="start" x="8" y="-57" font-family="Helvetica,sans-Serif" font-size="10.00">services::DatagramWin</text>
<text text-anchor="middle" x="58.5" y="-46" font-family="Helvetica,sans-Serif" font-size="10.00">::Receive</text>
</g>
<!-- Node78 -->
<g id="node2" class="node"><title>Node78</title>
<g id="a_node2"><a xlink:href="../../d1/db2/classinfra_1_1_subject.html#ae6779efb6b9b18a7638fef4ce0553466" target="_top" xlink:title="infra::Subject\&lt; Datagram\lExchangeObserver \&gt;::GetObserver">
<polygon fill="white" stroke="black" points="153,-61 153,-91 320,-91 320,-61 153,-61"/>
<text text-anchor="start" x="161" y="-79" font-family="Helvetica,sans-Serif" font-size="10.00">infra::Subject&lt; Datagram</text>
<text text-anchor="middle" x="236.5" y="-68" font-family="Helvetica,sans-Serif" font-size="10.00">ExchangeObserver &gt;::GetObserver</text>
</a>
</g>
</g>
<!-- Node77&#45;&gt;Node78 -->
<g id="edge1" class="edge"><title>Node77&#45;&gt;Node78</title>
<path fill="none" stroke="midnightblue" d="M117.129,-61.2036C125.343,-62.2304 133.96,-63.3075 142.64,-64.3925"/>
<polygon fill="midnightblue" stroke="midnightblue" points="142.482,-67.8999 152.839,-65.6673 143.35,-60.9539 142.482,-67.8999"/>
</g>
<!-- Node79 -->
<g id="node3" class="node"><title>Node79</title>
<g id="a_node3"><a xlink:href="../../d0/de3/namespaceinfra.html#afe38b7d4318537de2f28b244211c4275" target="_top" xlink:title="infra::MakeRange">
<polygon fill="white" stroke="black" points="190.5,-22.5 190.5,-41.5 282.5,-41.5 282.5,-22.5 190.5,-22.5"/>
<text text-anchor="middle" x="236.5" y="-29.5" font-family="Helvetica,sans-Serif" font-size="10.00">infra::MakeRange</text>
</a>
</g>
</g>
<!-- Node77&#45;&gt;Node79 -->
<g id="edge2" class="edge"><title>Node77&#45;&gt;Node79</title>
<path fill="none" stroke="midnightblue" d="M117.129,-46.7964C137.455,-44.2557 160.244,-41.407 180.359,-38.8926"/>
<polygon fill="midnightblue" stroke="midnightblue" points="180.812,-42.3633 190.301,-37.6499 179.944,-35.4174 180.812,-42.3633"/>
</g>
<!-- Node80 -->
<g id="node4" class="node"><title>Node80</title>
<g id="a_node4"><a xlink:href="../../d1/d2a/classinfra_1_1_bounded_string_base.html#aef23e4250cad2fdc69ccc39f68734233" target="_top" xlink:title="infra::BoundedStringBase\l::begin">
<polygon fill="white" stroke="black" points="367,-39 367,-69 494,-69 494,-39 367,-39"/>
<text text-anchor="start" x="375" y="-57" font-family="Helvetica,sans-Serif" font-size="10.00">infra::BoundedStringBase</text>
<text text-anchor="middle" x="430.5" y="-46" font-family="Helvetica,sans-Serif" font-size="10.00">::begin</text>
</a>
</g>
</g>
<!-- Node79&#45;&gt;Node80 -->
<g id="edge3" class="edge"><title>Node79&#45;&gt;Node80</title>
<path fill="none" stroke="midnightblue" d="M282.515,-37.158C304.629,-39.6919 331.827,-42.8083 356.79,-45.6686"/>
<polygon fill="midnightblue" stroke="midnightblue" points="356.627,-49.1728 366.961,-46.8341 357.424,-42.2183 356.627,-49.1728"/>
</g>
<!-- Node81 -->
<g id="node5" class="node"><title>Node81</title>
<g id="a_node5"><a xlink:href="../../d1/d2a/classinfra_1_1_bounded_string_base.html#af5021f1ea3898146d0a55c2895f07dbf" target="_top" xlink:title="infra::BoundedStringBase::end">
<polygon fill="white" stroke="black" points="356,-0.5 356,-19.5 505,-19.5 505,-0.5 356,-0.5"/>
<text text-anchor="middle" x="430.5" y="-7.5" font-family="Helvetica,sans-Serif" font-size="10.00">infra::BoundedStringBase::end</text>
</a>
</g>
</g>
<!-- Node79&#45;&gt;Node81 -->
<g id="edge4" class="edge"><title>Node79&#45;&gt;Node81</title>
<path fill="none" stroke="midnightblue" d="M282.515,-26.842C301.451,-24.6723 324.114,-22.0755 345.909,-19.5781"/>
<polygon fill="midnightblue" stroke="midnightblue" points="346.309,-23.0553 355.846,-18.4395 345.512,-16.1008 346.309,-23.0553"/>
</g>
</g>
</svg>
