<?xml version="1.0" encoding="UTF-8" standalone="no"?>
<!DOCTYPE svg PUBLIC "-//W3C//DTD SVG 1.1//EN"
 "http://www.w3.org/Graphics/SVG/1.1/DTD/svg11.dtd">
<!-- Generated by graphviz version 2.38.0 (20140413.2041)
 -->
<!-- Title: services::DatagramWin::TrySend Pages: 1 -->
<svg width="431pt" height="176pt"
 viewBox="0.00 0.00 431.00 176.00" xmlns="http://www.w3.org/2000/svg" xmlns:xlink="http://www.w3.org/1999/xlink">
<g id="graph0" class="graph" transform="scale(1 1) rotate(0) translate(4 172)">
<title>services::DatagramWin::TrySend</title>
<polygon fill="white" stroke="none" points="-4,4 -4,-172 427,-172 427,4 -4,4"/>
<!-- Node110 -->
<g id="node1" class="node"><title>Node110</title>
<polygon fill="#bfbfbf" stroke="black" points="0,-71.5 0,-101.5 117,-101.5 117,-71.5 0,-71.5"/>
<text text-anchor="start" x="8" y="-89.5" font-family="Helvetica,sans-Serif" font-size="10.00">services::DatagramWin</text>
<text text-anchor="middle" x="58.5" y="-78.5" font-family="Helvetica,sans-Serif" font-size="10.00">::TrySend</text>
</g>
<!-- Node111 -->
<g id="node2" class="node"><title>Node111</title>
<g id="a_node2"><a xlink:href="../../d2/d7b/classservices_1_1_datagram_win.html#a911fc384f3243be0610ac6542aa8674e" target="_top" xlink:title="services::DatagramWin\l::Send">
<polygon fill="white" stroke="black" points="153,-71.5 153,-101.5 270,-101.5 270,-71.5 153,-71.5"/>
<text text-anchor="start" x="161" y="-89.5" font-family="Helvetica,sans-Serif" font-size="10.00">services::DatagramWin</text>
<text text-anchor="middle" x="211.5" y="-78.5" font-family="Helvetica,sans-Serif" font-size="10.00">::Send</text>
</a>
</g>
</g>
<!-- Node110&#45;&gt;Node111 -->
<g id="edge1" class="edge"><title>Node110&#45;&gt;Node111</title>
<path fill="none" stroke="midnightblue" d="M117.017,-86.5C125.464,-86.5 134.229,-86.5 142.856,-86.5"/>
<polygon fill="midnightblue" stroke="midnightblue" points="142.893,-90.0001 152.893,-86.5 142.892,-83.0001 142.893,-90.0001"/>
</g>
<!-- Node112 -->
<g id="node3" class="node"><title>Node112</title>
<g id="a_node3"><a xlink:href="../../dc/de7/classinfra_1_1_bounded_vector.html#a2acdc0e18f57006a615569baaf8232e7" target="_top" xlink:title="infra::BoundedVector\l::data">
<polygon fill="white" stroke="black" points="311,-137.5 311,-167.5 418,-167.5 418,-137.5 311,-137.5"/>
<text text-anchor="start" x="319" y="-155.5" font-family="Helvetica,sans-Serif" font-size="10.00">infra::BoundedVector</text>
<text text-anchor="middle" x="364.5" y="-144.5" font-family="Helvetica,sans-Serif" font-size="10.00">::data</text>
</a>
</g>
</g>
<!-- Node111&#45;&gt;Node112 -->
<g id="edge2" class="edge"><title>Node111&#45;&gt;Node112</title>
<path fill="none" stroke="midnightblue" d="M246.684,-101.52C264.382,-109.289 286.345,-118.918 306,-127.5 310.383,-129.414 314.955,-131.407 319.523,-133.396"/>
<polygon fill="midnightblue" stroke="midnightblue" points="318.263,-136.665 328.829,-137.447 321.057,-130.247 318.263,-136.665"/>
</g>
<!-- Node113 -->
<g id="node4" class="node"><title>Node113</title>
<g id="a_node4"><a xlink:href="../../da/d2a/classinfra_1_1_variant.html#a5c22ee95a815d91911bf3ce196c852a0" target="_top" xlink:title="infra::Variant::Get">
<polygon fill="white" stroke="black" points="318,-99 318,-118 411,-118 411,-99 318,-99"/>
<text text-anchor="middle" x="364.5" y="-106" font-family="Helvetica,sans-Serif" font-size="10.00">infra::Variant::Get</text>
</a>
</g>
</g>
<!-- Node111&#45;&gt;Node113 -->
<g id="edge3" class="edge"><title>Node111&#45;&gt;Node113</title>
<path fill="none" stroke="midnightblue" d="M270.017,-94.88C282.389,-96.6825 295.444,-98.5846 307.747,-100.377"/>
<polygon fill="midnightblue" stroke="midnightblue" points="307.473,-103.874 317.873,-101.852 308.482,-96.9472 307.473,-103.874"/>
</g>
<!-- Node114 -->
<g id="node5" class="node"><title>Node114</title>
<g id="a_node5"><a xlink:href="../../dc/de7/classinfra_1_1_bounded_vector.html#a605f344af39e74f48bb205c86f57b5da" target="_top" xlink:title="infra::BoundedVector\l::size">
<polygon fill="white" stroke="black" points="311,-49.5 311,-79.5 418,-79.5 418,-49.5 311,-49.5"/>
<text text-anchor="start" x="319" y="-67.5" font-family="Helvetica,sans-Serif" font-size="10.00">infra::BoundedVector</text>
<text text-anchor="middle" x="364.5" y="-56.5" font-family="Helvetica,sans-Serif" font-size="10.00">::size</text>
</a>
</g>
</g>
<!-- Node111&#45;&gt;Node114 -->
<g id="edge4" class="edge"><title>Node111&#45;&gt;Node114</title>
<path fill="none" stroke="midnightblue" d="M270.017,-78.12C280.019,-76.6628 290.467,-75.1405 300.604,-73.6637"/>
<polygon fill="midnightblue" stroke="midnightblue" points="301.217,-77.1114 310.608,-72.2061 300.208,-70.1845 301.217,-77.1114"/>
</g>
<!-- Node115 -->
<g id="node6" class="node"><title>Node115</title>
<g id="a_node6"><a xlink:href="../../d2/d7b/classservices_1_1_datagram_win.html#ae66296075cc2209397617642c029f697" target="_top" xlink:title="services::DatagramWin\l::UpdateEventFlags">
<polygon fill="white" stroke="black" points="306,-0.5 306,-30.5 423,-30.5 423,-0.5 306,-0.5"/>
<text text-anchor="start" x="314" y="-18.5" font-family="Helvetica,sans-Serif" font-size="10.00">services::DatagramWin</text>
<text text-anchor="middle" x="364.5" y="-7.5" font-family="Helvetica,sans-Serif" font-size="10.00">::UpdateEventFlags</text>
</a>
</g>
</g>
<!-- Node111&#45;&gt;Node115 -->
<g id="edge5" class="edge"><title>Node111&#45;&gt;Node115</title>
<path fill="none" stroke="midnightblue" d="M242.225,-71.4312C260.515,-62.2703 284.495,-50.4584 306,-40.5 310.112,-38.596 314.406,-36.6503 318.716,-34.7267"/>
<polygon fill="midnightblue" stroke="midnightblue" points="320.377,-37.8193 328.109,-30.5757 317.547,-31.4166 320.377,-37.8193"/>
</g>
</g>
</svg>
