<?xml version="1.0" encoding="UTF-8" standalone="no"?>
<!DOCTYPE svg PUBLIC "-//W3C//DTD SVG 1.1//EN"
 "http://www.w3.org/Graphics/SVG/1.1/DTD/svg11.dtd">
<!-- Generated by graphviz version 2.38.0 (20140413.2041)
 -->
<!-- Title: services::DatagramWin::DatagramWin Pages: 1 -->
<svg width="845pt" height="337pt"
 viewBox="0.00 0.00 845.00 337.00" xmlns="http://www.w3.org/2000/svg" xmlns:xlink="http://www.w3.org/1999/xlink">
<g id="graph0" class="graph" transform="scale(1 1) rotate(0) translate(4 333)">
<title>services::DatagramWin::DatagramWin</title>
<polygon fill="white" stroke="none" points="-4,4 -4,-333 841,-333 841,4 -4,4"/>
<!-- Node41 -->
<g id="node1" class="node"><title>Node41</title>
<polygon fill="#bfbfbf" stroke="black" points="0,-224.5 0,-254.5 117,-254.5 117,-224.5 0,-224.5"/>
<text text-anchor="start" x="8" y="-242.5" font-family="Helvetica,sans-Serif" font-size="10.00">services::DatagramWin</text>
<text text-anchor="middle" x="58.5" y="-231.5" font-family="Helvetica,sans-Serif" font-size="10.00">::DatagramWin</text>
</g>
<!-- Node42 -->
<g id="node2" class="node"><title>Node42</title>
<g id="a_node2"><a xlink:href="../../dc/d4c/classinfra_1_1_single_observer.html#a7691ac8d2aa56fb17be6a73d1b47e9b5" target="_top" xlink:title="infra::SingleObserver\l::Attach">
<polygon fill="white" stroke="black" points="158.5,-298.5 158.5,-328.5 264.5,-328.5 264.5,-298.5 158.5,-298.5"/>
<text text-anchor="start" x="166.5" y="-316.5" font-family="Helvetica,sans-Serif" font-size="10.00">infra::SingleObserver</text>
<text text-anchor="middle" x="211.5" y="-305.5" font-family="Helvetica,sans-Serif" font-size="10.00">::Attach</text>
</a>
</g>
</g>
<!-- Node41&#45;&gt;Node42 -->
<g id="edge1" class="edge"><title>Node41&#45;&gt;Node42</title>
<path fill="none" stroke="midnightblue" d="M86.1557,-254.632C104.675,-264.927 130.052,-278.606 153,-289.5 156.374,-291.102 159.885,-292.708 163.433,-294.289"/>
<polygon fill="midnightblue" stroke="midnightblue" points="162.28,-297.605 172.846,-298.392 165.077,-291.188 162.28,-297.605"/>
</g>
<!-- Node43 -->
<g id="node3" class="node"><title>Node43</title>
<g id="a_node3"><a xlink:href="../../d2/d7b/classservices_1_1_datagram_win.html#abdc6d19d4f802dedd73e3e51ccce1c94" target="_top" xlink:title="services::DatagramWin\l::BindLocal">
<polygon fill="white" stroke="black" points="153,-249.5 153,-279.5 270,-279.5 270,-249.5 153,-249.5"/>
<text text-anchor="start" x="161" y="-267.5" font-family="Helvetica,sans-Serif" font-size="10.00">services::DatagramWin</text>
<text text-anchor="middle" x="211.5" y="-256.5" font-family="Helvetica,sans-Serif" font-size="10.00">::BindLocal</text>
</a>
</g>
</g>
<!-- Node41&#45;&gt;Node43 -->
<g id="edge2" class="edge"><title>Node41&#45;&gt;Node43</title>
<path fill="none" stroke="midnightblue" d="M117.017,-249.023C125.464,-250.421 134.229,-251.872 142.856,-253.301"/>
<polygon fill="midnightblue" stroke="midnightblue" points="142.455,-256.782 152.893,-254.962 143.599,-249.876 142.455,-256.782"/>
</g>
<!-- Node44 -->
<g id="node4" class="node"><title>Node44</title>
<g id="a_node4"><a xlink:href="../../d2/d7b/classservices_1_1_datagram_win.html#ad53bd9b4506aab075386639f61479be5" target="_top" xlink:title="services::DatagramWin\l::BindRemote">
<polygon fill="white" stroke="black" points="153,-200.5 153,-230.5 270,-230.5 270,-200.5 153,-200.5"/>
<text text-anchor="start" x="161" y="-218.5" font-family="Helvetica,sans-Serif" font-size="10.00">services::DatagramWin</text>
<text text-anchor="middle" x="211.5" y="-207.5" font-family="Helvetica,sans-Serif" font-size="10.00">::BindRemote</text>
</a>
</g>
</g>
<!-- Node41&#45;&gt;Node44 -->
<g id="edge3" class="edge"><title>Node41&#45;&gt;Node44</title>
<path fill="none" stroke="midnightblue" d="M117.017,-230.358C125.464,-229.016 134.229,-227.623 142.856,-226.251"/>
<polygon fill="midnightblue" stroke="midnightblue" points="143.566,-229.683 152.893,-224.656 142.467,-222.769 143.566,-229.683"/>
</g>
<!-- Node46 -->
<g id="node6" class="node"><title>Node46</title>
<g id="a_node6"><a xlink:href="../../d2/d7b/classservices_1_1_datagram_win.html#a658541984182e1f50cdd52ccafefd00f" target="_top" xlink:title="services::DatagramWin\l::InitSocket">
<polygon fill="white" stroke="black" points="153,-126.5 153,-156.5 270,-156.5 270,-126.5 153,-126.5"/>
<text text-anchor="start" x="161" y="-144.5" font-family="Helvetica,sans-Serif" font-size="10.00">services::DatagramWin</text>
<text text-anchor="middle" x="211.5" y="-133.5" font-family="Helvetica,sans-Serif" font-size="10.00">::InitSocket</text>
</a>
</g>
</g>
<!-- Node41&#45;&gt;Node46 -->
<g id="edge5" class="edge"><title>Node41&#45;&gt;Node46</title>
<path fill="none" stroke="midnightblue" d="M82.7628,-224.402C108.478,-207.713 150.052,-180.731 178.75,-162.106"/>
<polygon fill="midnightblue" stroke="midnightblue" points="180.728,-164.995 187.211,-156.615 176.917,-159.123 180.728,-164.995"/>
</g>
<!-- Node45 -->
<g id="node5" class="node"><title>Node45</title>
<g id="a_node5"><a xlink:href="../../da/d2a/classinfra_1_1_variant.html#a5c22ee95a815d91911bf3ce196c852a0" target="_top" xlink:title="infra::Variant::Get">
<polygon fill="white" stroke="black" points="331,-231 331,-250 424,-250 424,-231 331,-231"/>
<text text-anchor="middle" x="377.5" y="-238" font-family="Helvetica,sans-Serif" font-size="10.00">infra::Variant::Get</text>
</a>
</g>
</g>
<!-- Node44&#45;&gt;Node45 -->
<g id="edge4" class="edge"><title>Node44&#45;&gt;Node45</title>
<path fill="none" stroke="midnightblue" d="M270.32,-224.314C286.74,-226.817 304.58,-229.537 320.867,-232.019"/>
<polygon fill="midnightblue" stroke="midnightblue" points="320.367,-235.483 330.78,-233.531 321.422,-228.563 320.367,-235.483"/>
</g>
<!-- Node47 -->
<g id="node7" class="node"><title>Node47</title>
<g id="a_node7"><a xlink:href="../../d2/d7b/classservices_1_1_datagram_win.html#ae66296075cc2209397617642c029f697" target="_top" xlink:title="services::DatagramWin\l::UpdateEventFlags">
<polygon fill="white" stroke="black" points="319,-181.5 319,-211.5 436,-211.5 436,-181.5 319,-181.5"/>
<text text-anchor="start" x="327" y="-199.5" font-family="Helvetica,sans-Serif" font-size="10.00">services::DatagramWin</text>
<text text-anchor="middle" x="377.5" y="-188.5" font-family="Helvetica,sans-Serif" font-size="10.00">::UpdateEventFlags</text>
</a>
</g>
</g>
<!-- Node46&#45;&gt;Node47 -->
<g id="edge6" class="edge"><title>Node46&#45;&gt;Node47</title>
<path fill="none" stroke="midnightblue" d="M257.314,-156.529C277.291,-163.229 301.003,-171.181 321.997,-178.221"/>
<polygon fill="midnightblue" stroke="midnightblue" points="321.147,-181.628 331.74,-181.489 323.372,-174.991 321.147,-181.628"/>
</g>
<!-- Node48 -->
<g id="node8" class="node"><title>Node48</title>
<g id="a_node8"><a xlink:href="../../d3/d0e/classinfra_1_1_interface_connector.html#aed1d9e952d3d0dfa68e59ee4e868b380" target="_top" xlink:title="infra::InterfaceConnector\l\&lt; EventDispatcherWorker\l \&gt;::Instance">
<polygon fill="white" stroke="black" points="313.5,-121 313.5,-162 441.5,-162 441.5,-121 313.5,-121"/>
<text text-anchor="start" x="321.5" y="-150" font-family="Helvetica,sans-Serif" font-size="10.00">infra::InterfaceConnector</text>
<text text-anchor="start" x="321.5" y="-139" font-family="Helvetica,sans-Serif" font-size="10.00">&lt; EventDispatcherWorker</text>
<text text-anchor="middle" x="377.5" y="-128" font-family="Helvetica,sans-Serif" font-size="10.00"> &gt;::Instance</text>
</a>
</g>
</g>
<!-- Node46&#45;&gt;Node48 -->
<g id="edge7" class="edge"><title>Node46&#45;&gt;Node48</title>
<path fill="none" stroke="midnightblue" d="M270.32,-141.5C280.982,-141.5 292.242,-141.5 303.287,-141.5"/>
<polygon fill="midnightblue" stroke="midnightblue" points="303.347,-145 313.347,-141.5 303.347,-138 303.347,-145"/>
</g>
<!-- Node49 -->
<g id="node9" class="node"><title>Node49</title>
<g id="a_node9"><a xlink:href="../../d7/d34/classinfra_1_1_event_dispatcher_worker.html#a5922b8fd5101b15f20b639fcd11fa272" target="_top" xlink:title="infra::EventDispatcherWorker\l::Schedule">
<polygon fill="white" stroke="black" points="306,-71.5 306,-101.5 449,-101.5 449,-71.5 306,-71.5"/>
<text text-anchor="start" x="314" y="-89.5" font-family="Helvetica,sans-Serif" font-size="10.00">infra::EventDispatcherWorker</text>
<text text-anchor="middle" x="377.5" y="-78.5" font-family="Helvetica,sans-Serif" font-size="10.00">::Schedule</text>
</a>
</g>
</g>
<!-- Node46&#45;&gt;Node49 -->
<g id="edge8" class="edge"><title>Node46&#45;&gt;Node49</title>
<path fill="none" stroke="midnightblue" d="M257.314,-126.471C277.291,-119.771 301.003,-111.819 321.997,-104.779"/>
<polygon fill="midnightblue" stroke="midnightblue" points="323.372,-108.009 331.74,-101.511 321.147,-101.372 323.372,-108.009"/>
</g>
<!-- Node50 -->
<g id="node10" class="node"><title>Node50</title>
<g id="a_node10"><a xlink:href="../../d2/d7b/classservices_1_1_datagram_win.html#a04983b6b6e3fccbd852f95426b349115" target="_top" xlink:title="services::DatagramWin\l::Receive">
<polygon fill="white" stroke="black" points="319,-22.5 319,-52.5 436,-52.5 436,-22.5 319,-22.5"/>
<text text-anchor="start" x="327" y="-40.5" font-family="Helvetica,sans-Serif" font-size="10.00">services::DatagramWin</text>
<text text-anchor="middle" x="377.5" y="-29.5" font-family="Helvetica,sans-Serif" font-size="10.00">::Receive</text>
</a>
</g>
</g>
<!-- Node46&#45;&gt;Node50 -->
<g id="edge9" class="edge"><title>Node46&#45;&gt;Node50</title>
<path fill="none" stroke="midnightblue" d="M227.073,-126.214C244.446,-108.743 275.038,-80.2753 306,-62.5 309.674,-60.3906 313.557,-58.4128 317.536,-56.5673"/>
<polygon fill="midnightblue" stroke="midnightblue" points="319.149,-59.6828 326.939,-52.5017 316.372,-53.2575 319.149,-59.6828"/>
</g>
<!-- Node51 -->
<g id="node11" class="node"><title>Node51</title>
<g id="a_node11"><a xlink:href="../../d0/de3/namespaceinfra.html#afe38b7d4318537de2f28b244211c4275" target="_top" xlink:title="infra::MakeRange">
<polygon fill="white" stroke="black" points="522.5,-50 522.5,-69 614.5,-69 614.5,-50 522.5,-50"/>
<text text-anchor="middle" x="568.5" y="-57" font-family="Helvetica,sans-Serif" font-size="10.00">infra::MakeRange</text>
</a>
</g>
</g>
<!-- Node50&#45;&gt;Node51 -->
<g id="edge10" class="edge"><title>Node50&#45;&gt;Node51</title>
<path fill="none" stroke="midnightblue" d="M436.233,-44.2203C460.455,-47.0397 488.495,-50.3037 512.425,-53.0892"/>
<polygon fill="midnightblue" stroke="midnightblue" points="512.069,-56.5712 522.406,-54.251 512.878,-49.6182 512.069,-56.5712"/>
</g>
<!-- Node54 -->
<g id="node14" class="node"><title>Node54</title>
<g id="a_node14"><a xlink:href="../../d1/db2/classinfra_1_1_subject.html#ae6779efb6b9b18a7638fef4ce0553466" target="_top" xlink:title="infra::Subject\&lt; Datagram\lExchangeObserver \&gt;::GetObserver">
<polygon fill="white" stroke="black" points="485,-0.5 485,-30.5 652,-30.5 652,-0.5 485,-0.5"/>
<text text-anchor="start" x="493" y="-18.5" font-family="Helvetica,sans-Serif" font-size="10.00">infra::Subject&lt; Datagram</text>
<text text-anchor="middle" x="568.5" y="-7.5" font-family="Helvetica,sans-Serif" font-size="10.00">ExchangeObserver &gt;::GetObserver</text>
</a>
</g>
</g>
<!-- Node50&#45;&gt;Node54 -->
<g id="edge13" class="edge"><title>Node50&#45;&gt;Node54</title>
<path fill="none" stroke="midnightblue" d="M436.233,-30.7797C448.431,-29.3599 461.596,-27.8274 474.718,-26.3"/>
<polygon fill="midnightblue" stroke="midnightblue" points="475.198,-29.7678 484.726,-25.135 474.389,-22.8148 475.198,-29.7678"/>
</g>
<!-- Node52 -->
<g id="node12" class="node"><title>Node52</title>
<g id="a_node12"><a xlink:href="../../d1/d2a/classinfra_1_1_bounded_string_base.html#aef23e4250cad2fdc69ccc39f68734233" target="_top" xlink:title="infra::BoundedStringBase\l::begin">
<polygon fill="white" stroke="black" points="699,-66.5 699,-96.5 826,-96.5 826,-66.5 699,-66.5"/>
<text text-anchor="start" x="707" y="-84.5" font-family="Helvetica,sans-Serif" font-size="10.00">infra::BoundedStringBase</text>
<text text-anchor="middle" x="762.5" y="-73.5" font-family="Helvetica,sans-Serif" font-size="10.00">::begin</text>
</a>
</g>
</g>
<!-- Node51&#45;&gt;Node52 -->
<g id="edge11" class="edge"><title>Node51&#45;&gt;Node52</title>
<path fill="none" stroke="midnightblue" d="M614.515,-64.658C636.629,-67.1919 663.827,-70.3083 688.79,-73.1686"/>
<polygon fill="midnightblue" stroke="midnightblue" points="688.627,-76.6728 698.961,-74.3341 689.424,-69.7183 688.627,-76.6728"/>
</g>
<!-- Node53 -->
<g id="node13" class="node"><title>Node53</title>
<g id="a_node13"><a xlink:href="../../d1/d2a/classinfra_1_1_bounded_string_base.html#af5021f1ea3898146d0a55c2895f07dbf" target="_top" xlink:title="infra::BoundedStringBase::end">
<polygon fill="white" stroke="black" points="688,-28 688,-47 837,-47 837,-28 688,-28"/>
<text text-anchor="middle" x="762.5" y="-35" font-family="Helvetica,sans-Serif" font-size="10.00">infra::BoundedStringBase::end</text>
</a>
</g>
</g>
<!-- Node51&#45;&gt;Node53 -->
<g id="edge12" class="edge"><title>Node51&#45;&gt;Node53</title>
<path fill="none" stroke="midnightblue" d="M614.515,-54.342C633.451,-52.1723 656.114,-49.5755 677.909,-47.0781"/>
<polygon fill="midnightblue" stroke="midnightblue" points="678.309,-50.5553 687.846,-45.9395 677.512,-43.6008 678.309,-50.5553"/>
</g>
</g>
</svg>
