<?xml version="1.0" encoding="UTF-8" standalone="no"?>
<!DOCTYPE svg PUBLIC "-//W3C//DTD SVG 1.1//EN"
 "http://www.w3.org/Graphics/SVG/1.1/DTD/svg11.dtd">
<!-- Generated by graphviz version 2.38.0 (20140413.2041)
 -->
<!-- Title: services::HttpRequestParserImpl Pages: 1 -->
<svg width="950pt" height="242pt"
 viewBox="0.00 0.00 950.00 241.50" xmlns="http://www.w3.org/2000/svg" xmlns:xlink="http://www.w3.org/1999/xlink">
<g id="graph0" class="graph" transform="scale(1 1) rotate(0) translate(4 237.5)">
<title>services::HttpRequestParserImpl</title>
<polygon fill="white" stroke="none" points="-4,4 -4,-237.5 946,-237.5 946,4 -4,4"/>
<!-- Node2 -->
<g id="node1" class="node"><title>Node2</title>
<polygon fill="#bfbfbf" stroke="black" points="784,-109 784,-128 942,-128 942,-109 784,-109"/>
<text text-anchor="middle" x="863" y="-116" font-family="Helvetica,sans-Serif" font-size="10.00">services::HttpRequestParserImpl</text>
</g>
<!-- Node3 -->
<g id="node2" class="node"><title>Node3</title>
<g id="a_node2"><a xlink:href="../../db/d75/classservices_1_1_http_request_parser.html" target="_top" xlink:title="services::HttpRequestParser">
<polygon fill="white" stroke="black" points="554,-214 554,-233 694,-233 694,-214 554,-214"/>
<text text-anchor="middle" x="624" y="-221" font-family="Helvetica,sans-Serif" font-size="10.00">services::HttpRequestParser</text>
</a>
</g>
</g>
<!-- Node3&#45;&gt;Node2 -->
<g id="edge1" class="edge"><title>Node3&#45;&gt;Node2</title>
<path fill="none" stroke="midnightblue" d="M692.313,-211.693C716.251,-206.111 742.962,-198.25 766,-187.5 800.224,-171.531 834.845,-142.872 851.612,-128.014"/>
<polygon fill="midnightblue" stroke="midnightblue" points="691.236,-208.348 682.242,-213.948 692.765,-215.179 691.236,-208.348"/>
</g>
<!-- Node4 -->
<g id="node3" class="node"><title>Node4</title>
<g id="a_node3"><a xlink:href="../../d6/dbd/classinfra_1_1_tokenizer.html" target="_top" xlink:title="infra::Tokenizer">
<polygon fill="white" stroke="black" points="582.5,-176 582.5,-195 665.5,-195 665.5,-176 582.5,-176"/>
<text text-anchor="middle" x="624" y="-183" font-family="Helvetica,sans-Serif" font-size="10.00">infra::Tokenizer</text>
</a>
</g>
</g>
<!-- Node4&#45;&gt;Node2 -->
<g id="edge2" class="edge"><title>Node4&#45;&gt;Node2</title>
<path fill="none" stroke="#9a32cd" stroke-dasharray="5,2" d="M675.726,-178.925C702.854,-174.716 736.627,-168.361 766,-159.5 793.588,-151.178 823.939,-137.377 842.979,-128.114"/>
<polygon fill="#9a32cd" stroke="#9a32cd" points="675.047,-175.488 665.677,-180.434 676.086,-182.41 675.047,-175.488"/>
<text text-anchor="middle" x="739" y="-175.5" font-family="Helvetica,sans-Serif" font-size="10.00"> pathTokens</text>
</g>
<!-- Node5 -->
<g id="node4" class="node"><title>Node5</title>
<polygon fill="white" stroke="#bfbfbf" points="393,-193 393,-212 428,-212 428,-193 393,-193"/>
<text text-anchor="middle" x="410.5" y="-200" font-family="Helvetica,sans-Serif" font-size="10.00">char</text>
</g>
<!-- Node5&#45;&gt;Node4 -->
<g id="edge3" class="edge"><title>Node5&#45;&gt;Node4</title>
<path fill="none" stroke="#9a32cd" stroke-dasharray="5,2" d="M438.39,-200.339C474.718,-197.419 539.792,-192.188 582.174,-188.782"/>
<polygon fill="#9a32cd" stroke="#9a32cd" points="437.783,-196.876 428.096,-201.166 438.344,-203.853 437.783,-196.876"/>
<text text-anchor="middle" x="514" y="-199.5" font-family="Helvetica,sans-Serif" font-size="10.00"> separator</text>
</g>
<!-- Node6 -->
<g id="node5" class="node"><title>Node6</title>
<g id="a_node5"><a xlink:href="../../d1/d2a/classinfra_1_1_bounded_string_base.html" target="_top" xlink:title="infra::BoundedStringBase\l\&lt; const char \&gt;">
<polygon fill="white" stroke="black" points="347,-143.5 347,-173.5 474,-173.5 474,-143.5 347,-143.5"/>
<text text-anchor="start" x="355" y="-161.5" font-family="Helvetica,sans-Serif" font-size="10.00">infra::BoundedStringBase</text>
<text text-anchor="middle" x="410.5" y="-150.5" font-family="Helvetica,sans-Serif" font-size="10.00">&lt; const char &gt;</text>
</a>
</g>
</g>
<!-- Node6&#45;&gt;Node4 -->
<g id="edge4" class="edge"><title>Node6&#45;&gt;Node4</title>
<path fill="none" stroke="#9a32cd" stroke-dasharray="5,2" d="M484.115,-167.77C516.932,-171.959 554.484,-176.753 582.26,-180.299"/>
<polygon fill="#9a32cd" stroke="#9a32cd" points="484.461,-164.286 474.099,-166.491 483.575,-171.23 484.461,-164.286"/>
<text text-anchor="middle" x="514" y="-177.5" font-family="Helvetica,sans-Serif" font-size="10.00"> string</text>
</g>
<!-- Node7 -->
<g id="node6" class="node"><title>Node7</title>
<g id="a_node6"><a xlink:href="../../d0/d6d/classinfra_1_1_memory_range.html" target="_top" xlink:title="infra::MemoryRange\l\&lt; const char \&gt;">
<polygon fill="white" stroke="black" points="172.5,-187.5 172.5,-217.5 276.5,-217.5 276.5,-187.5 172.5,-187.5"/>
<text text-anchor="start" x="180.5" y="-205.5" font-family="Helvetica,sans-Serif" font-size="10.00">infra::MemoryRange</text>
<text text-anchor="middle" x="224.5" y="-194.5" font-family="Helvetica,sans-Serif" font-size="10.00">&lt; const char &gt;</text>
</a>
</g>
</g>
<!-- Node7&#45;&gt;Node6 -->
<g id="edge5" class="edge"><title>Node7&#45;&gt;Node6</title>
<path fill="none" stroke="#9a32cd" stroke-dasharray="5,2" d="M286.643,-187.879C305.952,-183.261 327.312,-178.154 346.732,-173.51"/>
<polygon fill="#9a32cd" stroke="#9a32cd" points="285.666,-184.514 276.754,-190.244 287.294,-191.322 285.666,-184.514"/>
<text text-anchor="middle" x="314" y="-187.5" font-family="Helvetica,sans-Serif" font-size="10.00"> range</text>
</g>
<!-- Node8 -->
<g id="node7" class="node"><title>Node8</title>
<polygon fill="white" stroke="#bfbfbf" points="0,-193 0,-212 69,-212 69,-193 0,-193"/>
<text text-anchor="middle" x="34.5" y="-200" font-family="Helvetica,sans-Serif" font-size="10.00">const char *</text>
</g>
<!-- Node8&#45;&gt;Node7 -->
<g id="edge6" class="edge"><title>Node8&#45;&gt;Node7</title>
<path fill="none" stroke="#9a32cd" stroke-dasharray="5,2" d="M79.344,-202.5C107.189,-202.5 143.337,-202.5 172.47,-202.5"/>
<polygon fill="#9a32cd" stroke="#9a32cd" points="79.1107,-199 69.1106,-202.5 79.1106,-206 79.1107,-199"/>
<text text-anchor="middle" x="118.5" y="-216.5" font-family="Helvetica,sans-Serif" font-size="10.00"> beginElement</text>
<text text-anchor="middle" x="118.5" y="-205.5" font-family="Helvetica,sans-Serif" font-size="10.00">endElement</text>
</g>
<!-- Node9 -->
<g id="node8" class="node"><title>Node9</title>
<polygon fill="white" stroke="#bfbfbf" points="203,-149 203,-168 246,-168 246,-149 203,-149"/>
<text text-anchor="middle" x="224.5" y="-156" font-family="Helvetica,sans-Serif" font-size="10.00">size_t</text>
</g>
<!-- Node9&#45;&gt;Node6 -->
<g id="edge7" class="edge"><title>Node9&#45;&gt;Node6</title>
<path fill="none" stroke="#9a32cd" stroke-dasharray="5,2" d="M256.425,-158.5C281.031,-158.5 316.269,-158.5 346.734,-158.5"/>
<polygon fill="#9a32cd" stroke="#9a32cd" points="256.25,-155 246.249,-158.5 256.249,-162 256.25,-155"/>
<text text-anchor="middle" x="314" y="-161.5" font-family="Helvetica,sans-Serif" font-size="10.00"> length</text>
</g>
<!-- Node10 -->
<g id="node9" class="node"><title>Node10</title>
<polygon fill="white" stroke="#bfbfbf" points="168,-111 168,-130 281,-130 281,-111 168,-111"/>
<text text-anchor="middle" x="224.5" y="-118" font-family="Helvetica,sans-Serif" font-size="10.00">static const size_type</text>
</g>
<!-- Node10&#45;&gt;Node6 -->
<g id="edge8" class="edge"><title>Node10&#45;&gt;Node6</title>
<path fill="none" stroke="#9a32cd" stroke-dasharray="5,2" d="M281.768,-132.121C302.314,-136.364 325.674,-141.188 346.749,-145.54"/>
<polygon fill="#9a32cd" stroke="#9a32cd" points="282.432,-128.684 271.931,-130.089 281.016,-135.539 282.432,-128.684"/>
<text text-anchor="middle" x="314" y="-145.5" font-family="Helvetica,sans-Serif" font-size="10.00"> npos</text>
</g>
<!-- Node11 -->
<g id="node10" class="node"><title>Node11</title>
<polygon fill="white" stroke="#bfbfbf" points="569.5,-126.5 569.5,-156.5 678.5,-156.5 678.5,-126.5 569.5,-126.5"/>
<text text-anchor="start" x="577.5" y="-144.5" font-family="Helvetica,sans-Serif" font-size="10.00">BoundedStringBase&lt;</text>
<text text-anchor="middle" x="624" y="-133.5" font-family="Helvetica,sans-Serif" font-size="10.00"> char &gt;</text>
</g>
<!-- Node11&#45;&gt;Node2 -->
<g id="edge9" class="edge"><title>Node11&#45;&gt;Node2</title>
<path fill="none" stroke="#9a32cd" stroke-dasharray="5,2" d="M688.857,-135.303C718.062,-132.469 752.936,-129.084 783.707,-126.098"/>
<polygon fill="#9a32cd" stroke="#9a32cd" points="688.394,-131.831 678.779,-136.281 689.07,-138.799 688.394,-131.831"/>
<text text-anchor="middle" x="739" y="-147.5" font-family="Helvetica,sans-Serif" font-size="10.00"> body</text>
<text text-anchor="middle" x="739" y="-136.5" font-family="Helvetica,sans-Serif" font-size="10.00">headers</text>
</g>
<!-- Node12 -->
<g id="node11" class="node"><title>Node12</title>
<polygon fill="white" stroke="#bfbfbf" points="606.5,-88 606.5,-107 641.5,-107 641.5,-88 606.5,-88"/>
<text text-anchor="middle" x="624" y="-95" font-family="Helvetica,sans-Serif" font-size="10.00">bool</text>
</g>
<!-- Node12&#45;&gt;Node2 -->
<g id="edge10" class="edge"><title>Node12&#45;&gt;Node2</title>
<path fill="none" stroke="#9a32cd" stroke-dasharray="5,2" d="M651.893,-95.7875C680.334,-94.3763 726.467,-93.2266 766,-97.5 786.524,-99.7186 809.093,-104.531 827.189,-108.99"/>
<polygon fill="#9a32cd" stroke="#9a32cd" points="651.354,-92.3117 641.56,-96.3513 651.735,-99.3013 651.354,-92.3117"/>
<text text-anchor="middle" x="739" y="-111.5" font-family="Helvetica,sans-Serif" font-size="10.00"> valid</text>
<text text-anchor="middle" x="739" y="-100.5" font-family="Helvetica,sans-Serif" font-size="10.00">complete</text>
</g>
<!-- Node13 -->
<g id="node12" class="node"><title>Node13</title>
<polygon fill="white" stroke="#bfbfbf" points="596.5,-50 596.5,-69 651.5,-69 651.5,-50 596.5,-50"/>
<text text-anchor="middle" x="624" y="-57" font-family="Helvetica,sans-Serif" font-size="10.00">HttpVerb</text>
</g>
<!-- Node13&#45;&gt;Node2 -->
<g id="edge11" class="edge"><title>Node13&#45;&gt;Node2</title>
<path fill="none" stroke="#9a32cd" stroke-dasharray="5,2" d="M661.624,-62.6322C690.364,-65.6442 731.194,-71.1522 766,-80.5 793.006,-87.753 822.747,-100.277 841.861,-108.955"/>
<polygon fill="#9a32cd" stroke="#9a32cd" points="661.915,-59.1439 651.616,-61.6329 661.219,-66.1092 661.915,-59.1439"/>
<text text-anchor="middle" x="739" y="-83.5" font-family="Helvetica,sans-Serif" font-size="10.00"> verb</text>
</g>
<!-- Node14 -->
<g id="node13" class="node"><title>Node14</title>
<polygon fill="white" stroke="#bfbfbf" points="569.5,-0.5 569.5,-30.5 678.5,-30.5 678.5,-0.5 569.5,-0.5"/>
<text text-anchor="start" x="577.5" y="-18.5" font-family="Helvetica,sans-Serif" font-size="10.00">BoundedStringBase&lt;</text>
<text text-anchor="middle" x="624" y="-7.5" font-family="Helvetica,sans-Serif" font-size="10.00"> const char &gt;</text>
</g>
<!-- Node14&#45;&gt;Node2 -->
<g id="edge12" class="edge"><title>Node14&#45;&gt;Node2</title>
<path fill="none" stroke="#9a32cd" stroke-dasharray="5,2" d="M688.654,-28.5396C713.419,-34.7787 741.639,-43.3593 766,-54.5 798.789,-69.4953 832.93,-95.0441 850.311,-108.892"/>
<polygon fill="#9a32cd" stroke="#9a32cd" points="689.178,-25.0649 678.633,-26.0936 687.518,-31.8652 689.178,-25.0649"/>
<text text-anchor="middle" x="739" y="-57.5" font-family="Helvetica,sans-Serif" font-size="10.00"> path</text>
</g>
</g>
</svg>
