<?xml version="1.0" encoding="UTF-8" standalone="no"?>
<!DOCTYPE svg PUBLIC "-//W3C//DTD SVG 1.1//EN"
 "http://www.w3.org/Graphics/SVG/1.1/DTD/svg11.dtd">
<!-- Generated by graphviz version 2.38.0 (20140413.2041)
 -->
<!-- Title: services::FlashQuadSpiSingleSpeed::PageProgram Pages: 1 -->
<svg width="830pt" height="652pt"
 viewBox="0.00 0.00 830.00 651.50" xmlns="http://www.w3.org/2000/svg" xmlns:xlink="http://www.w3.org/1999/xlink">
<g id="graph0" class="graph" transform="scale(1 1) rotate(0) translate(4 647.5)">
<title>services::FlashQuadSpiSingleSpeed::PageProgram</title>
<polygon fill="white" stroke="none" points="-4,4 -4,-647.5 826,-647.5 826,4 -4,4"/>
<!-- Node43 -->
<g id="node1" class="node"><title>Node43</title>
<polygon fill="#bfbfbf" stroke="black" points="0,-181.5 0,-211.5 146,-211.5 146,-181.5 0,-181.5"/>
<text text-anchor="start" x="8" y="-199.5" font-family="Helvetica,sans-Serif" font-size="10.00">services::FlashQuadSpiSingle</text>
<text text-anchor="middle" x="73" y="-188.5" font-family="Helvetica,sans-Serif" font-size="10.00">Speed::PageProgram</text>
</g>
<!-- Node44 -->
<g id="node2" class="node"><title>Node44</title>
<g id="a_node2"><a xlink:href="../../dd/d95/classhal_1_1_flash.html#a86b9f5311a7ab95c5a9524b1c2cc2953" target="_top" xlink:title="hal::Flash::AddressOffset\lInSector">
<polygon fill="white" stroke="black" points="184,-479.5 184,-509.5 311,-509.5 311,-479.5 184,-479.5"/>
<text text-anchor="start" x="192" y="-497.5" font-family="Helvetica,sans-Serif" font-size="10.00">hal::Flash::AddressOffset</text>
<text text-anchor="middle" x="247.5" y="-486.5" font-family="Helvetica,sans-Serif" font-size="10.00">InSector</text>
</a>
</g>
</g>
<!-- Node43&#45;&gt;Node44 -->
<g id="edge1" class="edge"><title>Node43&#45;&gt;Node44</title>
<path fill="none" stroke="midnightblue" d="M82.7915,-211.688C110.822,-260.111 198.244,-411.136 232.516,-470.342"/>
<polygon fill="midnightblue" stroke="midnightblue" points="229.687,-472.442 237.726,-479.343 235.746,-468.935 229.687,-472.442"/>
</g>
<!-- Node48 -->
<g id="node6" class="node"><title>Node48</title>
<g id="a_node6"><a xlink:href="../../d8/dcc/classinfra_1_1_sequencer.html#a540855dbc1e4f39faed3b55ec7c947c0" target="_top" xlink:title="infra::Sequencer::Continue">
<polygon fill="white" stroke="black" points="182,-354 182,-373 313,-373 313,-354 182,-354"/>
<text text-anchor="middle" x="247.5" y="-361" font-family="Helvetica,sans-Serif" font-size="10.00">infra::Sequencer::Continue</text>
</a>
</g>
</g>
<!-- Node43&#45;&gt;Node48 -->
<g id="edge5" class="edge"><title>Node43&#45;&gt;Node48</title>
<path fill="none" stroke="midnightblue" d="M88.8789,-211.537C109.572,-232.381 148.299,-271.146 182,-303.5 197.532,-318.411 215.487,-335.067 228.503,-347.04"/>
<polygon fill="midnightblue" stroke="midnightblue" points="226.169,-349.649 235.903,-353.832 230.902,-344.491 226.169,-349.649"/>
</g>
<!-- Node60 -->
<g id="node18" class="node"><title>Node60</title>
<g id="a_node18"><a xlink:href="../../d0/db3/classservices_1_1_flash_quad_spi.html#afa24eb06baec2e2b6413ed10a567e876" target="_top" xlink:title="services::FlashQuadSpi\l::ConvertAddress">
<polygon fill="white" stroke="black" points="188,-263.5 188,-293.5 307,-293.5 307,-263.5 188,-263.5"/>
<text text-anchor="start" x="196" y="-281.5" font-family="Helvetica,sans-Serif" font-size="10.00">services::FlashQuadSpi</text>
<text text-anchor="middle" x="247.5" y="-270.5" font-family="Helvetica,sans-Serif" font-size="10.00">::ConvertAddress</text>
</a>
</g>
</g>
<!-- Node43&#45;&gt;Node60 -->
<g id="edge22" class="edge"><title>Node43&#45;&gt;Node60</title>
<path fill="none" stroke="midnightblue" d="M100.642,-211.67C122.24,-223.698 153.642,-240.573 182,-253.5 186.595,-255.594 191.42,-257.675 196.277,-259.691"/>
<polygon fill="midnightblue" stroke="midnightblue" points="195.019,-262.957 205.601,-263.471 197.649,-256.47 195.019,-262.957"/>
</g>
<!-- Node62 -->
<g id="node20" class="node"><title>Node62</title>
<g id="a_node20"><a xlink:href="../../d0/de3/namespaceinfra.html#a97dc5194236a205b697e668f00d42353" target="_top" xlink:title="infra::Head">
<polygon fill="white" stroke="black" points="216,-225 216,-244 279,-244 279,-225 216,-225"/>
<text text-anchor="middle" x="247.5" y="-232" font-family="Helvetica,sans-Serif" font-size="10.00">infra::Head</text>
</a>
</g>
</g>
<!-- Node43&#45;&gt;Node62 -->
<g id="edge24" class="edge"><title>Node43&#45;&gt;Node62</title>
<path fill="none" stroke="midnightblue" d="M142.177,-211.519C163.73,-216.267 186.859,-221.362 205.85,-225.545"/>
<polygon fill="midnightblue" stroke="midnightblue" points="205.135,-228.972 215.654,-227.705 206.641,-222.136 205.135,-228.972"/>
</g>
<!-- Node64 -->
<g id="node22" class="node"><title>Node64</title>
<g id="a_node22"><a xlink:href="../../d0/de3/namespaceinfra.html#a0ec8c0f8585063ab97f13228d4888974" target="_top" xlink:title="infra::MakeOptional">
<polygon fill="white" stroke="black" points="197,-187 197,-206 298,-206 298,-187 197,-187"/>
<text text-anchor="middle" x="247.5" y="-194" font-family="Helvetica,sans-Serif" font-size="10.00">infra::MakeOptional</text>
</a>
</g>
</g>
<!-- Node43&#45;&gt;Node64 -->
<g id="edge26" class="edge"><title>Node43&#45;&gt;Node64</title>
<path fill="none" stroke="midnightblue" d="M146.156,-196.5C159.633,-196.5 173.582,-196.5 186.638,-196.5"/>
<polygon fill="midnightblue" stroke="midnightblue" points="186.892,-200 196.891,-196.5 186.891,-193 186.892,-200"/>
</g>
<!-- Node65 -->
<g id="node23" class="node"><title>Node65</title>
<g id="a_node23"><a xlink:href="../../d0/d6d/classinfra_1_1_memory_range.html#adf5b31ae0a4ccba88bb4b284935e8a1a" target="_top" xlink:title="infra::MemoryRange\l::pop_front">
<polygon fill="white" stroke="black" points="195.5,-137.5 195.5,-167.5 299.5,-167.5 299.5,-137.5 195.5,-137.5"/>
<text text-anchor="start" x="203.5" y="-155.5" font-family="Helvetica,sans-Serif" font-size="10.00">infra::MemoryRange</text>
<text text-anchor="middle" x="247.5" y="-144.5" font-family="Helvetica,sans-Serif" font-size="10.00">::pop_front</text>
</a>
</g>
</g>
<!-- Node43&#45;&gt;Node65 -->
<g id="edge27" class="edge"><title>Node43&#45;&gt;Node65</title>
<path fill="none" stroke="midnightblue" d="M132.882,-181.481C149.853,-177.152 168.4,-172.421 185.496,-168.06"/>
<polygon fill="midnightblue" stroke="midnightblue" points="186.547,-171.405 195.372,-165.541 184.817,-164.622 186.547,-171.405"/>
</g>
<!-- Node66 -->
<g id="node24" class="node"><title>Node66</title>
<g id="a_node24"><a xlink:href="../../dd/df2/classhal_1_1_quad_spi.html#a34a6210e60687a16a723e6dfef934968" target="_top" xlink:title="hal::QuadSpi::SendData">
<polygon fill="white" stroke="black" points="186.5,-99 186.5,-118 308.5,-118 308.5,-99 186.5,-99"/>
<text text-anchor="middle" x="247.5" y="-106" font-family="Helvetica,sans-Serif" font-size="10.00">hal::QuadSpi::SendData</text>
</a>
</g>
</g>
<!-- Node43&#45;&gt;Node66 -->
<g id="edge28" class="edge"><title>Node43&#45;&gt;Node66</title>
<path fill="none" stroke="midnightblue" d="M93.723,-181.467C114.663,-166.106 149.199,-142.444 182,-127.5 187.046,-125.201 192.44,-123.101 197.879,-121.206"/>
<polygon fill="midnightblue" stroke="midnightblue" points="199.233,-124.445 207.653,-118.015 197.061,-117.791 199.233,-124.445"/>
</g>
<!-- Node67 -->
<g id="node25" class="node"><title>Node67</title>
<g id="a_node25"><a xlink:href="../../da/d1d/structhal_1_1_quad_spi_1_1_lines.html#a4e953de94e4c5d8501f26d0f880f15fa" target="_top" xlink:title="hal::QuadSpi::Lines\l::SingleSpeed">
<polygon fill="white" stroke="black" points="196.5,-49.5 196.5,-79.5 298.5,-79.5 298.5,-49.5 196.5,-49.5"/>
<text text-anchor="start" x="204.5" y="-67.5" font-family="Helvetica,sans-Serif" font-size="10.00">hal::QuadSpi::Lines</text>
<text text-anchor="middle" x="247.5" y="-56.5" font-family="Helvetica,sans-Serif" font-size="10.00">::SingleSpeed</text>
</a>
</g>
</g>
<!-- Node43&#45;&gt;Node67 -->
<g id="edge29" class="edge"><title>Node43&#45;&gt;Node67</title>
<path fill="none" stroke="midnightblue" d="M85.7519,-181.398C104.112,-158.69 141.694,-115.635 182,-89.5 184.962,-87.5797 188.093,-85.7707 191.317,-84.073"/>
<polygon fill="midnightblue" stroke="midnightblue" points="193.109,-87.0938 200.581,-79.5824 190.056,-80.7948 193.109,-87.0938"/>
</g>
<!-- Node68 -->
<g id="node26" class="node"><title>Node68</title>
<g id="a_node26"><a xlink:href="../../d0/d6d/classinfra_1_1_memory_range.html#ae8fbbf531d3696b6a64ac13385acdc66" target="_top" xlink:title="infra::MemoryRange\l::size">
<polygon fill="white" stroke="black" points="195.5,-0.5 195.5,-30.5 299.5,-30.5 299.5,-0.5 195.5,-0.5"/>
<text text-anchor="start" x="203.5" y="-18.5" font-family="Helvetica,sans-Serif" font-size="10.00">infra::MemoryRange</text>
<text text-anchor="middle" x="247.5" y="-7.5" font-family="Helvetica,sans-Serif" font-size="10.00">::size</text>
</a>
</g>
</g>
<!-- Node43&#45;&gt;Node68 -->
<g id="edge30" class="edge"><title>Node43&#45;&gt;Node68</title>
<path fill="none" stroke="midnightblue" d="M80.5898,-181.24C94.722,-150.22 130.863,-79.3706 182,-39.5 183.761,-38.1271 185.608,-36.8268 187.52,-35.5957"/>
<polygon fill="midnightblue" stroke="midnightblue" points="189.287,-38.6176 196.249,-30.6316 185.826,-32.5328 189.287,-38.6176"/>
</g>
<!-- Node45 -->
<g id="node3" class="node"><title>Node45</title>
<g id="a_node3"><a xlink:href="../../dd/d95/classhal_1_1_flash.html#a82859c1d11698c606553fd546d0070f9" target="_top" xlink:title="hal::Flash::StartOfSector">
<polygon fill="white" stroke="black" points="363.5,-586 363.5,-605 488.5,-605 488.5,-586 363.5,-586"/>
<text text-anchor="middle" x="426" y="-593" font-family="Helvetica,sans-Serif" font-size="10.00">hal::Flash::StartOfSector</text>
</a>
</g>
</g>
<!-- Node44&#45;&gt;Node45 -->
<g id="edge2" class="edge"><title>Node44&#45;&gt;Node45</title>
<path fill="none" stroke="midnightblue" d="M274.924,-509.621C308.503,-528.836 366.081,-561.784 399.307,-580.797"/>
<polygon fill="midnightblue" stroke="midnightblue" points="397.575,-583.839 407.993,-585.768 401.052,-577.763 397.575,-583.839"/>
</g>
<!-- Node46 -->
<g id="node4" class="node"><title>Node46</title>
<g id="a_node4"><a xlink:href="../../dd/d95/classhal_1_1_flash.html#a57e55c9b32c2eacb23e8a4e9dcb3133f" target="_top" xlink:title="hal::Flash::AddressOfSector">
<polygon fill="white" stroke="black" points="539,-586 539,-605 679,-605 679,-586 539,-586"/>
<text text-anchor="middle" x="609" y="-593" font-family="Helvetica,sans-Serif" font-size="10.00">hal::Flash::AddressOfSector</text>
</a>
</g>
</g>
<!-- Node45&#45;&gt;Node46 -->
<g id="edge3" class="edge"><title>Node45&#45;&gt;Node46</title>
<path fill="none" stroke="midnightblue" d="M488.531,-595.5C501.434,-595.5 515.216,-595.5 528.664,-595.5"/>
<polygon fill="midnightblue" stroke="midnightblue" points="528.863,-599 538.863,-595.5 528.863,-592 528.863,-599"/>
</g>
<!-- Node47 -->
<g id="node5" class="node"><title>Node47</title>
<g id="a_node5"><a xlink:href="../../dd/d95/classhal_1_1_flash.html#a8fdc674c7384cdfb555cad2201848751" target="_top" xlink:title="hal::Flash::SectorOfAddress">
<polygon fill="white" stroke="black" points="539,-624 539,-643 679,-643 679,-624 539,-624"/>
<text text-anchor="middle" x="609" y="-631" font-family="Helvetica,sans-Serif" font-size="10.00">hal::Flash::SectorOfAddress</text>
</a>
</g>
</g>
<!-- Node45&#45;&gt;Node47 -->
<g id="edge4" class="edge"><title>Node45&#45;&gt;Node47</title>
<path fill="none" stroke="midnightblue" d="M472.674,-605.089C496.989,-610.194 527.08,-616.511 552.708,-621.892"/>
<polygon fill="midnightblue" stroke="midnightblue" points="552.149,-625.351 562.654,-623.98 553.587,-618.5 552.149,-625.351"/>
</g>
<!-- Node49 -->
<g id="node7" class="node"><title>Node49</title>
<g id="a_node7"><a xlink:href="../../dc/de7/classinfra_1_1_bounded_vector.html#a0d65fc52854eb5ee43419e451e3cd49a" target="_top" xlink:title="infra::BoundedVector\l::clear">
<polygon fill="white" stroke="black" points="372.5,-285.5 372.5,-315.5 479.5,-315.5 479.5,-285.5 372.5,-285.5"/>
<text text-anchor="start" x="380.5" y="-303.5" font-family="Helvetica,sans-Serif" font-size="10.00">infra::BoundedVector</text>
<text text-anchor="middle" x="426" y="-292.5" font-family="Helvetica,sans-Serif" font-size="10.00">::clear</text>
</a>
</g>
</g>
<!-- Node48&#45;&gt;Node49 -->
<g id="edge6" class="edge"><title>Node48&#45;&gt;Node49</title>
<path fill="none" stroke="midnightblue" d="M272.76,-353.987C293.048,-346.113 322.794,-334.76 349,-325.5 355.335,-323.261 361.99,-320.976 368.618,-318.742"/>
<polygon fill="midnightblue" stroke="midnightblue" points="369.893,-322.006 378.267,-315.516 367.674,-315.367 369.893,-322.006"/>
</g>
<!-- Node50 -->
<g id="node8" class="node"><title>Node50</title>
<g id="a_node8"><a xlink:href="../../d8/dcc/classinfra_1_1_sequencer.html#a144aefdee6184f0c01287ef64e4e588a" target="_top" xlink:title="infra::Sequencer::Execute\lNextStep">
<polygon fill="white" stroke="black" points="544.5,-362.5 544.5,-392.5 673.5,-392.5 673.5,-362.5 544.5,-362.5"/>
<text text-anchor="start" x="552.5" y="-380.5" font-family="Helvetica,sans-Serif" font-size="10.00">infra::Sequencer::Execute</text>
<text text-anchor="middle" x="609" y="-369.5" font-family="Helvetica,sans-Serif" font-size="10.00">NextStep</text>
</a>
</g>
</g>
<!-- Node48&#45;&gt;Node50 -->
<g id="edge7" class="edge"><title>Node48&#45;&gt;Node50</title>
<path fill="none" stroke="midnightblue" d="M313.187,-366.019C375.358,-368.44 469.212,-372.095 534.255,-374.628"/>
<polygon fill="midnightblue" stroke="midnightblue" points="534.308,-378.133 544.437,-375.025 534.581,-371.138 534.308,-378.133"/>
</g>
<!-- Node52 -->
<g id="node10" class="node"><title>Node52</title>
<g id="a_node10"><a xlink:href="../../d8/dcc/classinfra_1_1_sequencer.html#aa8d62e488058da02b14a31017a33b199" target="_top" xlink:title="infra::Sequencer::Finished">
<polygon fill="white" stroke="black" points="544,-548 544,-567 674,-567 674,-548 544,-548"/>
<text text-anchor="middle" x="609" y="-555" font-family="Helvetica,sans-Serif" font-size="10.00">infra::Sequencer::Finished</text>
</a>
</g>
</g>
<!-- Node48&#45;&gt;Node52 -->
<g id="edge9" class="edge"><title>Node48&#45;&gt;Node52</title>
<path fill="none" stroke="midnightblue" d="M258.368,-373.097C275.63,-389.515 312.915,-423.36 349,-445.5 422.357,-490.508 517.003,-526.487 569.173,-544.634"/>
<polygon fill="midnightblue" stroke="midnightblue" points="568.119,-547.973 578.714,-547.918 570.398,-541.354 568.119,-547.973"/>
</g>
<!-- Node54 -->
<g id="node12" class="node"><title>Node54</title>
<g id="a_node12"><a xlink:href="../../d8/dcc/classinfra_1_1_sequencer.html#a5a0bb79e770ee68910377bcbd24f9c14" target="_top" xlink:title="infra::Sequencer::PopContext">
<polygon fill="white" stroke="black" points="354,-417 354,-436 498,-436 498,-417 354,-417"/>
<text text-anchor="middle" x="426" y="-424" font-family="Helvetica,sans-Serif" font-size="10.00">infra::Sequencer::PopContext</text>
</a>
</g>
</g>
<!-- Node48&#45;&gt;Node54 -->
<g id="edge11" class="edge"><title>Node48&#45;&gt;Node54</title>
<path fill="none" stroke="midnightblue" d="M275.307,-373.068C305.588,-383.877 355.03,-401.525 388.741,-413.558"/>
<polygon fill="midnightblue" stroke="midnightblue" points="387.636,-416.88 398.231,-416.945 389.989,-410.287 387.636,-416.88"/>
</g>
<!-- Node58 -->
<g id="node16" class="node"><title>Node58</title>
<g id="a_node16"><a xlink:href="../../d8/dcc/classinfra_1_1_sequencer.html#adb44b85c61f00faae6ca6ad1de6a7380" target="_top" xlink:title="infra::Sequencer::PushContext">
<polygon fill="white" stroke="black" points="351.5,-335 351.5,-354 500.5,-354 500.5,-335 351.5,-335"/>
<text text-anchor="middle" x="426" y="-342" font-family="Helvetica,sans-Serif" font-size="10.00">infra::Sequencer::PushContext</text>
</a>
</g>
</g>
<!-- Node48&#45;&gt;Node58 -->
<g id="edge19" class="edge"><title>Node48&#45;&gt;Node58</title>
<path fill="none" stroke="midnightblue" d="M313.22,-356.533C322.324,-355.553 331.788,-354.534 341.184,-353.523"/>
<polygon fill="midnightblue" stroke="midnightblue" points="341.766,-356.98 351.334,-352.43 341.017,-350.021 341.766,-356.98"/>
</g>
<!-- Node51 -->
<g id="node9" class="node"><title>Node51</title>
<g id="a_node9"><a xlink:href="../../dc/de7/classinfra_1_1_bounded_vector.html#aa142a336c186d6e58c5573ba860be106" target="_top" xlink:title="infra::BoundedVector\l::back">
<polygon fill="white" stroke="black" points="715,-428.5 715,-458.5 822,-458.5 822,-428.5 715,-428.5"/>
<text text-anchor="start" x="723" y="-446.5" font-family="Helvetica,sans-Serif" font-size="10.00">infra::BoundedVector</text>
<text text-anchor="middle" x="768.5" y="-435.5" font-family="Helvetica,sans-Serif" font-size="10.00">::back</text>
</a>
</g>
</g>
<!-- Node50&#45;&gt;Node51 -->
<g id="edge8" class="edge"><title>Node50&#45;&gt;Node51</title>
<path fill="none" stroke="midnightblue" d="M653.284,-392.535C661.858,-395.695 670.753,-399.103 679,-402.5 695.078,-409.122 712.497,-417.029 727.594,-424.124"/>
<polygon fill="midnightblue" stroke="midnightblue" points="726.126,-427.301 736.662,-428.418 729.122,-420.975 726.126,-427.301"/>
</g>
<!-- Node53 -->
<g id="node11" class="node"><title>Node53</title>
<g id="a_node11"><a xlink:href="../../dc/de7/classinfra_1_1_bounded_vector.html#ab9477e08e53eb7d020fac8bd1d37fda7" target="_top" xlink:title="infra::BoundedVector\l::empty">
<polygon fill="white" stroke="black" points="715,-523.5 715,-553.5 822,-553.5 822,-523.5 715,-523.5"/>
<text text-anchor="start" x="723" y="-541.5" font-family="Helvetica,sans-Serif" font-size="10.00">infra::BoundedVector</text>
<text text-anchor="middle" x="768.5" y="-530.5" font-family="Helvetica,sans-Serif" font-size="10.00">::empty</text>
</a>
</g>
</g>
<!-- Node52&#45;&gt;Node53 -->
<g id="edge10" class="edge"><title>Node52&#45;&gt;Node53</title>
<path fill="none" stroke="midnightblue" d="M674.061,-549.772C684.048,-548.567 694.362,-547.323 704.329,-546.121"/>
<polygon fill="midnightblue" stroke="midnightblue" points="705.053,-549.559 714.562,-544.886 704.215,-542.609 705.053,-549.559"/>
</g>
<!-- Node54&#45;&gt;Node50 -->
<g id="edge14" class="edge"><title>Node54&#45;&gt;Node50</title>
<path fill="none" stroke="midnightblue" d="M462.328,-416.936C485.143,-410.76 515.523,-402.535 542.635,-395.196"/>
<polygon fill="midnightblue" stroke="midnightblue" points="543.717,-398.529 552.455,-392.537 541.888,-391.772 543.717,-398.529"/>
</g>
<!-- Node54&#45;&gt;Node52 -->
<g id="edge15" class="edge"><title>Node54&#45;&gt;Node52</title>
<path fill="none" stroke="midnightblue" d="M437.431,-436.036C452.175,-449.563 479.89,-475.163 503,-497.5 519.27,-513.226 519.83,-521.479 539,-533.5 545.875,-537.811 553.624,-541.467 561.381,-544.525"/>
<polygon fill="midnightblue" stroke="midnightblue" points="560.193,-547.817 570.787,-547.963 562.596,-541.242 560.193,-547.817"/>
</g>
<!-- Node54&#45;&gt;Node53 -->
<g id="edge12" class="edge"><title>Node54&#45;&gt;Node53</title>
<path fill="none" stroke="midnightblue" d="M438.183,-436.257C457.373,-452.425 498.437,-484.565 539,-500.5 592.528,-521.529 657.557,-530.921 704.534,-535.116"/>
<polygon fill="midnightblue" stroke="midnightblue" points="704.314,-538.61 714.572,-535.958 704.899,-531.634 704.314,-538.61"/>
</g>
<!-- Node55 -->
<g id="node13" class="node"><title>Node55</title>
<g id="a_node13"><a xlink:href="../../d8/dcc/classinfra_1_1_sequencer.html#abfc36f76cfc75495f321bc6643826c98" target="_top" xlink:title="infra::Sequencer::Execute\lCurrentStep">
<polygon fill="white" stroke="black" points="544.5,-313.5 544.5,-343.5 673.5,-343.5 673.5,-313.5 544.5,-313.5"/>
<text text-anchor="start" x="552.5" y="-331.5" font-family="Helvetica,sans-Serif" font-size="10.00">infra::Sequencer::Execute</text>
<text text-anchor="middle" x="609" y="-320.5" font-family="Helvetica,sans-Serif" font-size="10.00">CurrentStep</text>
</a>
</g>
</g>
<!-- Node54&#45;&gt;Node55 -->
<g id="edge13" class="edge"><title>Node54&#45;&gt;Node55</title>
<path fill="none" stroke="midnightblue" d="M439.526,-416.948C459.643,-401.933 500.782,-372.56 539,-353.5 543.265,-351.373 547.757,-349.334 552.318,-347.402"/>
<polygon fill="midnightblue" stroke="midnightblue" points="553.771,-350.59 561.728,-343.595 551.145,-344.101 553.771,-350.59"/>
</g>
<!-- Node56 -->
<g id="node14" class="node"><title>Node56</title>
<g id="a_node14"><a xlink:href="../../d8/dcc/classinfra_1_1_sequencer.html#aa1da1c05382c54296fe23b30d6cf6cf8" target="_top" xlink:title="infra::Sequencer::Increase\lCurrentStep">
<polygon fill="white" stroke="black" points="544,-460.5 544,-490.5 674,-490.5 674,-460.5 544,-460.5"/>
<text text-anchor="start" x="552" y="-478.5" font-family="Helvetica,sans-Serif" font-size="10.00">infra::Sequencer::Increase</text>
<text text-anchor="middle" x="609" y="-467.5" font-family="Helvetica,sans-Serif" font-size="10.00">CurrentStep</text>
</a>
</g>
</g>
<!-- Node54&#45;&gt;Node56 -->
<g id="edge16" class="edge"><title>Node54&#45;&gt;Node56</title>
<path fill="none" stroke="midnightblue" d="M462.328,-436.064C485.143,-442.24 515.523,-450.465 542.635,-457.804"/>
<polygon fill="midnightblue" stroke="midnightblue" points="541.888,-461.228 552.455,-460.463 543.717,-454.471 541.888,-461.228"/>
</g>
<!-- Node57 -->
<g id="node15" class="node"><title>Node57</title>
<g id="a_node15"><a xlink:href="../../dc/de7/classinfra_1_1_bounded_vector.html#acd442a237e9f5935f766dd3ef4a818e9" target="_top" xlink:title="infra::BoundedVector\l::pop_back">
<polygon fill="white" stroke="black" points="555.5,-411.5 555.5,-441.5 662.5,-441.5 662.5,-411.5 555.5,-411.5"/>
<text text-anchor="start" x="563.5" y="-429.5" font-family="Helvetica,sans-Serif" font-size="10.00">infra::BoundedVector</text>
<text text-anchor="middle" x="609" y="-418.5" font-family="Helvetica,sans-Serif" font-size="10.00">::pop_back</text>
</a>
</g>
</g>
<!-- Node54&#45;&gt;Node57 -->
<g id="edge18" class="edge"><title>Node54&#45;&gt;Node57</title>
<path fill="none" stroke="midnightblue" d="M498.016,-426.5C513.547,-426.5 529.881,-426.5 545.07,-426.5"/>
<polygon fill="midnightblue" stroke="midnightblue" points="545.379,-430 555.379,-426.5 545.378,-423 545.379,-430"/>
</g>
<!-- Node56&#45;&gt;Node51 -->
<g id="edge17" class="edge"><title>Node56&#45;&gt;Node51</title>
<path fill="none" stroke="midnightblue" d="M674.061,-462.484C684.153,-460.434 694.579,-458.316 704.644,-456.271"/>
<polygon fill="midnightblue" stroke="midnightblue" points="705.459,-459.677 714.562,-454.256 704.065,-452.817 705.459,-459.677"/>
</g>
<!-- Node58&#45;&gt;Node55 -->
<g id="edge20" class="edge"><title>Node58&#45;&gt;Node55</title>
<path fill="none" stroke="midnightblue" d="M500.62,-337.992C511.71,-337.012 523.151,-336 534.244,-335.02"/>
<polygon fill="midnightblue" stroke="midnightblue" points="534.661,-338.497 544.313,-334.13 534.044,-331.524 534.661,-338.497"/>
</g>
<!-- Node59 -->
<g id="node17" class="node"><title>Node59</title>
<g id="a_node17"><a xlink:href="../../dc/de7/classinfra_1_1_bounded_vector.html#a17cb2ff4e6291f156cb5a41cca1b4edf" target="_top" xlink:title="infra::BoundedVector\l::push_back">
<polygon fill="white" stroke="black" points="555.5,-264.5 555.5,-294.5 662.5,-294.5 662.5,-264.5 555.5,-264.5"/>
<text text-anchor="start" x="563.5" y="-282.5" font-family="Helvetica,sans-Serif" font-size="10.00">infra::BoundedVector</text>
<text text-anchor="middle" x="609" y="-271.5" font-family="Helvetica,sans-Serif" font-size="10.00">::push_back</text>
</a>
</g>
</g>
<!-- Node58&#45;&gt;Node59 -->
<g id="edge21" class="edge"><title>Node58&#45;&gt;Node59</title>
<path fill="none" stroke="midnightblue" d="M473.887,-334.991C483.673,-332.396 493.804,-329.243 503,-325.5 520.157,-318.517 522.224,-312.354 539,-304.5 543.571,-302.36 548.379,-300.284 553.241,-298.303"/>
<polygon fill="midnightblue" stroke="midnightblue" points="554.586,-301.536 562.612,-294.619 552.025,-295.021 554.586,-301.536"/>
</g>
<!-- Node61 -->
<g id="node19" class="node"><title>Node61</title>
<g id="a_node19"><a xlink:href="../../dd/df2/classhal_1_1_quad_spi.html#a962b4ce2b2f8ae4fb7b83324db78244c" target="_top" xlink:title="hal::QuadSpi::AddressToVector">
<polygon fill="white" stroke="black" points="349,-247 349,-266 503,-266 503,-247 349,-247"/>
<text text-anchor="middle" x="426" y="-254" font-family="Helvetica,sans-Serif" font-size="10.00">hal::QuadSpi::AddressToVector</text>
</a>
</g>
</g>
<!-- Node60&#45;&gt;Node61 -->
<g id="edge23" class="edge"><title>Node60&#45;&gt;Node61</title>
<path fill="none" stroke="midnightblue" d="M307.272,-271.174C317.379,-269.914 328.069,-268.582 338.721,-267.254"/>
<polygon fill="midnightblue" stroke="midnightblue" points="339.411,-270.695 348.902,-265.985 338.545,-263.749 339.411,-270.695"/>
</g>
<!-- Node63 -->
<g id="node21" class="node"><title>Node63</title>
<g id="a_node21"><a xlink:href="../../d0/d6d/classinfra_1_1_memory_range.html#a322f6976f2774c6ba7494b9e27f07624" target="_top" xlink:title="infra::MemoryRange\l::shrink_from_back_to">
<polygon fill="white" stroke="black" points="369.5,-197.5 369.5,-227.5 482.5,-227.5 482.5,-197.5 369.5,-197.5"/>
<text text-anchor="start" x="377.5" y="-215.5" font-family="Helvetica,sans-Serif" font-size="10.00">infra::MemoryRange</text>
<text text-anchor="middle" x="426" y="-204.5" font-family="Helvetica,sans-Serif" font-size="10.00">::shrink_from_back_to</text>
</a>
</g>
</g>
<!-- Node62&#45;&gt;Node63 -->
<g id="edge25" class="edge"><title>Node62&#45;&gt;Node63</title>
<path fill="none" stroke="midnightblue" d="M279.244,-230.668C301.323,-227.916 331.908,-224.104 359.362,-220.682"/>
<polygon fill="midnightblue" stroke="midnightblue" points="359.823,-224.151 369.313,-219.441 358.957,-217.205 359.823,-224.151"/>
</g>
</g>
</svg>
