<?xml version="1.0" encoding="UTF-8" standalone="no"?>
<!DOCTYPE svg PUBLIC "-//W3C//DTD SVG 1.1//EN"
 "http://www.w3.org/Graphics/SVG/1.1/DTD/svg11.dtd">
<!-- Generated by graphviz version 2.38.0 (20140413.2041)
 -->
<!-- Title: services::FlashQuadSpiSingleSpeed::HoldWhileWriteInProgress Pages: 1 -->
<svg width="833pt" height="313pt"
 viewBox="0.00 0.00 833.00 313.00" xmlns="http://www.w3.org/2000/svg" xmlns:xlink="http://www.w3.org/1999/xlink">
<g id="graph0" class="graph" transform="scale(1 1) rotate(0) translate(4 309)">
<title>services::FlashQuadSpiSingleSpeed::HoldWhileWriteInProgress</title>
<polygon fill="white" stroke="none" points="-4,4 -4,-309 829,-309 829,4 -4,4"/>
<!-- Node26 -->
<g id="node1" class="node"><title>Node26</title>
<polygon fill="#bfbfbf" stroke="black" points="0,-80.5 0,-110.5 164,-110.5 164,-80.5 0,-80.5"/>
<text text-anchor="start" x="8" y="-98.5" font-family="Helvetica,sans-Serif" font-size="10.00">services::FlashQuadSpiSingle</text>
<text text-anchor="middle" x="82" y="-87.5" font-family="Helvetica,sans-Serif" font-size="10.00">Speed::HoldWhileWriteInProgress</text>
</g>
<!-- Node27 -->
<g id="node2" class="node"><title>Node27</title>
<g id="a_node2"><a xlink:href="../../d8/dcc/classinfra_1_1_sequencer.html#a540855dbc1e4f39faed3b55ec7c947c0" target="_top" xlink:title="infra::Sequencer::Continue">
<polygon fill="white" stroke="black" points="200,-143 200,-162 331,-162 331,-143 200,-143"/>
<text text-anchor="middle" x="265.5" y="-150" font-family="Helvetica,sans-Serif" font-size="10.00">infra::Sequencer::Continue</text>
</a>
</g>
</g>
<!-- Node26&#45;&gt;Node27 -->
<g id="edge1" class="edge"><title>Node26&#45;&gt;Node27</title>
<path fill="none" stroke="midnightblue" d="M128.469,-110.59C150.093,-117.684 176.334,-126.173 200,-133.5 206.977,-135.66 214.395,-137.899 221.624,-140.05"/>
<polygon fill="midnightblue" stroke="midnightblue" points="220.721,-143.432 231.303,-142.911 222.706,-136.72 220.721,-143.432"/>
</g>
<!-- Node39 -->
<g id="node14" class="node"><title>Node39</title>
<g id="a_node14"><a xlink:href="../../d0/de3/namespaceinfra.html#a0ec8c0f8585063ab97f13228d4888974" target="_top" xlink:title="infra::MakeOptional">
<polygon fill="white" stroke="black" points="215,-105 215,-124 316,-124 316,-105 215,-105"/>
<text text-anchor="middle" x="265.5" y="-112" font-family="Helvetica,sans-Serif" font-size="10.00">infra::MakeOptional</text>
</a>
</g>
</g>
<!-- Node26&#45;&gt;Node39 -->
<g id="edge18" class="edge"><title>Node26&#45;&gt;Node39</title>
<path fill="none" stroke="midnightblue" d="M164.194,-104C177.824,-105.426 191.743,-106.884 204.706,-108.241"/>
<polygon fill="midnightblue" stroke="midnightblue" points="204.562,-111.745 214.872,-109.305 205.291,-104.783 204.562,-111.745"/>
</g>
<!-- Node40 -->
<g id="node15" class="node"><title>Node40</title>
<g id="a_node15"><a xlink:href="../../dd/df2/classhal_1_1_quad_spi.html#ae3c762d296100a64639d1f7fc338d5d9" target="_top" xlink:title="hal::QuadSpi::PollStatus">
<polygon fill="white" stroke="black" points="203.5,-67 203.5,-86 327.5,-86 327.5,-67 203.5,-67"/>
<text text-anchor="middle" x="265.5" y="-74" font-family="Helvetica,sans-Serif" font-size="10.00">hal::QuadSpi::PollStatus</text>
</a>
</g>
</g>
<!-- Node26&#45;&gt;Node40 -->
<g id="edge19" class="edge"><title>Node26&#45;&gt;Node40</title>
<path fill="none" stroke="midnightblue" d="M164.194,-87.0003C173.829,-85.9917 183.609,-84.9679 193.093,-83.9751"/>
<polygon fill="midnightblue" stroke="midnightblue" points="193.667,-87.4343 203.248,-82.912 192.938,-80.4723 193.667,-87.4343"/>
</g>
<!-- Node41 -->
<g id="node16" class="node"><title>Node41</title>
<g id="a_node16"><a xlink:href="../../da/d1d/structhal_1_1_quad_spi_1_1_lines.html#a4e953de94e4c5d8501f26d0f880f15fa" target="_top" xlink:title="hal::QuadSpi::Lines\l::SingleSpeed">
<polygon fill="white" stroke="black" points="214.5,-17.5 214.5,-47.5 316.5,-47.5 316.5,-17.5 214.5,-17.5"/>
<text text-anchor="start" x="222.5" y="-35.5" font-family="Helvetica,sans-Serif" font-size="10.00">hal::QuadSpi::Lines</text>
<text text-anchor="middle" x="265.5" y="-24.5" font-family="Helvetica,sans-Serif" font-size="10.00">::SingleSpeed</text>
</a>
</g>
</g>
<!-- Node26&#45;&gt;Node41 -->
<g id="edge20" class="edge"><title>Node26&#45;&gt;Node41</title>
<path fill="none" stroke="midnightblue" d="M126.474,-80.4099C151.973,-71.559 184.381,-60.31 211.385,-50.9366"/>
<polygon fill="midnightblue" stroke="midnightblue" points="212.767,-54.1617 221.067,-47.576 210.472,-47.5487 212.767,-54.1617"/>
</g>
<!-- Node28 -->
<g id="node3" class="node"><title>Node28</title>
<g id="a_node3"><a xlink:href="../../dc/de7/classinfra_1_1_bounded_vector.html#a0d65fc52854eb5ee43419e451e3cd49a" target="_top" xlink:title="infra::BoundedVector\l::clear">
<polygon fill="white" stroke="black" points="388,-219.5 388,-249.5 495,-249.5 495,-219.5 388,-219.5"/>
<text text-anchor="start" x="396" y="-237.5" font-family="Helvetica,sans-Serif" font-size="10.00">infra::BoundedVector</text>
<text text-anchor="middle" x="441.5" y="-226.5" font-family="Helvetica,sans-Serif" font-size="10.00">::clear</text>
</a>
</g>
</g>
<!-- Node27&#45;&gt;Node28 -->
<g id="edge2" class="edge"><title>Node27&#45;&gt;Node28</title>
<path fill="none" stroke="midnightblue" d="M284.052,-162.194C303.924,-173.025 337.392,-190.831 367,-204.5 375.092,-208.236 383.785,-211.998 392.26,-215.536"/>
<polygon fill="midnightblue" stroke="midnightblue" points="391.112,-218.848 401.692,-219.42 393.778,-212.376 391.112,-218.848"/>
</g>
<!-- Node29 -->
<g id="node4" class="node"><title>Node29</title>
<g id="a_node4"><a xlink:href="../../d8/dcc/classinfra_1_1_sequencer.html#a144aefdee6184f0c01287ef64e4e588a" target="_top" xlink:title="infra::Sequencer::Execute\lNextStep">
<polygon fill="white" stroke="black" points="552.5,-274.5 552.5,-304.5 681.5,-304.5 681.5,-274.5 552.5,-274.5"/>
<text text-anchor="start" x="560.5" y="-292.5" font-family="Helvetica,sans-Serif" font-size="10.00">infra::Sequencer::Execute</text>
<text text-anchor="middle" x="617" y="-281.5" font-family="Helvetica,sans-Serif" font-size="10.00">NextStep</text>
</a>
</g>
</g>
<!-- Node27&#45;&gt;Node29 -->
<g id="edge3" class="edge"><title>Node27&#45;&gt;Node29</title>
<path fill="none" stroke="midnightblue" d="M316.495,-162.048C384.526,-175.354 499.709,-199.118 516,-210.5 539.949,-227.232 529.191,-247.243 552,-265.5 553.598,-266.779 555.271,-267.995 557.003,-269.15"/>
<polygon fill="midnightblue" stroke="midnightblue" points="555.658,-272.418 566.06,-274.432 559.185,-266.371 555.658,-272.418"/>
</g>
<!-- Node31 -->
<g id="node6" class="node"><title>Node31</title>
<g id="a_node6"><a xlink:href="../../d8/dcc/classinfra_1_1_sequencer.html#aa8d62e488058da02b14a31017a33b199" target="_top" xlink:title="infra::Sequencer::Finished">
<polygon fill="white" stroke="black" points="552,-99 552,-118 682,-118 682,-99 552,-99"/>
<text text-anchor="middle" x="617" y="-106" font-family="Helvetica,sans-Serif" font-size="10.00">infra::Sequencer::Finished</text>
</a>
</g>
</g>
<!-- Node27&#45;&gt;Node31 -->
<g id="edge5" class="edge"><title>Node27&#45;&gt;Node31</title>
<path fill="none" stroke="midnightblue" d="M312.389,-142.956C329.478,-139.632 349.074,-136.089 367,-133.5 425.533,-125.045 492.219,-118.513 541.839,-114.25"/>
<polygon fill="midnightblue" stroke="midnightblue" points="542.175,-117.734 551.843,-113.401 541.583,-110.759 542.175,-117.734"/>
</g>
<!-- Node33 -->
<g id="node8" class="node"><title>Node33</title>
<g id="a_node8"><a xlink:href="../../d8/dcc/classinfra_1_1_sequencer.html#a5a0bb79e770ee68910377bcbd24f9c14" target="_top" xlink:title="infra::Sequencer::PopContext">
<polygon fill="white" stroke="black" points="369.5,-143 369.5,-162 513.5,-162 513.5,-143 369.5,-143"/>
<text text-anchor="middle" x="441.5" y="-150" font-family="Helvetica,sans-Serif" font-size="10.00">infra::Sequencer::PopContext</text>
</a>
</g>
</g>
<!-- Node27&#45;&gt;Node33 -->
<g id="edge7" class="edge"><title>Node27&#45;&gt;Node33</title>
<path fill="none" stroke="midnightblue" d="M331.291,-152.5C340.374,-152.5 349.802,-152.5 359.144,-152.5"/>
<polygon fill="midnightblue" stroke="midnightblue" points="359.226,-156 369.225,-152.5 359.225,-149 359.226,-156"/>
</g>
<!-- Node37 -->
<g id="node12" class="node"><title>Node37</title>
<g id="a_node12"><a xlink:href="../../d8/dcc/classinfra_1_1_sequencer.html#adb44b85c61f00faae6ca6ad1de6a7380" target="_top" xlink:title="infra::Sequencer::PushContext">
<polygon fill="white" stroke="black" points="367,-55 367,-74 516,-74 516,-55 367,-55"/>
<text text-anchor="middle" x="441.5" y="-62" font-family="Helvetica,sans-Serif" font-size="10.00">infra::Sequencer::PushContext</text>
</a>
</g>
</g>
<!-- Node27&#45;&gt;Node37 -->
<g id="edge15" class="edge"><title>Node27&#45;&gt;Node37</title>
<path fill="none" stroke="midnightblue" d="M310.082,-142.907C317.333,-140.41 324.576,-137.315 331,-133.5 350.455,-121.945 348.372,-110.345 367,-97.5 378.176,-89.7932 391.442,-83.1869 403.607,-77.9543"/>
<polygon fill="midnightblue" stroke="midnightblue" points="405.154,-81.1028 413.067,-74.0576 402.487,-74.6304 405.154,-81.1028"/>
</g>
<!-- Node30 -->
<g id="node5" class="node"><title>Node30</title>
<g id="a_node5"><a xlink:href="../../dc/de7/classinfra_1_1_bounded_vector.html#aa142a336c186d6e58c5573ba860be106" target="_top" xlink:title="infra::BoundedVector\l::back">
<polygon fill="white" stroke="black" points="718,-248.5 718,-278.5 825,-278.5 825,-248.5 718,-248.5"/>
<text text-anchor="start" x="726" y="-266.5" font-family="Helvetica,sans-Serif" font-size="10.00">infra::BoundedVector</text>
<text text-anchor="middle" x="771.5" y="-255.5" font-family="Helvetica,sans-Serif" font-size="10.00">::back</text>
</a>
</g>
</g>
<!-- Node29&#45;&gt;Node30 -->
<g id="edge4" class="edge"><title>Node29&#45;&gt;Node30</title>
<path fill="none" stroke="midnightblue" d="M681.79,-278.624C690.355,-277.164 699.135,-275.667 707.683,-274.21"/>
<polygon fill="midnightblue" stroke="midnightblue" points="708.315,-277.653 717.584,-272.522 707.138,-270.752 708.315,-277.653"/>
</g>
<!-- Node32 -->
<g id="node7" class="node"><title>Node32</title>
<g id="a_node7"><a xlink:href="../../dc/de7/classinfra_1_1_bounded_vector.html#ab9477e08e53eb7d020fac8bd1d37fda7" target="_top" xlink:title="infra::BoundedVector\l::empty">
<polygon fill="white" stroke="black" points="718,-158.5 718,-188.5 825,-188.5 825,-158.5 718,-158.5"/>
<text text-anchor="start" x="726" y="-176.5" font-family="Helvetica,sans-Serif" font-size="10.00">infra::BoundedVector</text>
<text text-anchor="middle" x="771.5" y="-165.5" font-family="Helvetica,sans-Serif" font-size="10.00">::empty</text>
</a>
</g>
</g>
<!-- Node31&#45;&gt;Node32 -->
<g id="edge6" class="edge"><title>Node31&#45;&gt;Node32</title>
<path fill="none" stroke="midnightblue" d="M652.253,-118.044C661.985,-121.067 672.512,-124.637 682,-128.5 699.749,-135.726 718.774,-145.164 734.618,-153.528"/>
<polygon fill="midnightblue" stroke="midnightblue" points="733.078,-156.673 743.546,-158.304 736.38,-150.501 733.078,-156.673"/>
</g>
<!-- Node33&#45;&gt;Node29 -->
<g id="edge10" class="edge"><title>Node33&#45;&gt;Node29</title>
<path fill="none" stroke="midnightblue" d="M492.022,-162.092C500.769,-165.523 509.229,-170.18 516,-176.5 547.191,-205.617 521.445,-235.717 552,-265.5 553.089,-266.561 554.229,-267.576 555.412,-268.547"/>
<polygon fill="midnightblue" stroke="midnightblue" points="553.557,-271.52 563.771,-274.336 557.543,-265.765 553.557,-271.52"/>
</g>
<!-- Node33&#45;&gt;Node31 -->
<g id="edge11" class="edge"><title>Node33&#45;&gt;Node31</title>
<path fill="none" stroke="midnightblue" d="M480.147,-142.953C506.066,-136.38 540.704,-127.595 568.517,-120.542"/>
<polygon fill="midnightblue" stroke="midnightblue" points="569.594,-123.88 578.427,-118.029 567.873,-117.094 569.594,-123.88"/>
</g>
<!-- Node33&#45;&gt;Node32 -->
<g id="edge8" class="edge"><title>Node33&#45;&gt;Node32</title>
<path fill="none" stroke="midnightblue" d="M475.712,-162.128C497.25,-167.861 526.035,-174.574 552,-177.5 609.414,-183.971 624.237,-178.805 682,-177.5 690.289,-177.313 699.011,-177.027 707.616,-176.693"/>
<polygon fill="midnightblue" stroke="midnightblue" points="707.784,-180.189 717.632,-176.281 707.497,-173.195 707.784,-180.189"/>
</g>
<!-- Node34 -->
<g id="node9" class="node"><title>Node34</title>
<g id="a_node9"><a xlink:href="../../d8/dcc/classinfra_1_1_sequencer.html#abfc36f76cfc75495f321bc6643826c98" target="_top" xlink:title="infra::Sequencer::Execute\lCurrentStep">
<polygon fill="white" stroke="black" points="552.5,-49.5 552.5,-79.5 681.5,-79.5 681.5,-49.5 552.5,-49.5"/>
<text text-anchor="start" x="560.5" y="-67.5" font-family="Helvetica,sans-Serif" font-size="10.00">infra::Sequencer::Execute</text>
<text text-anchor="middle" x="617" y="-56.5" font-family="Helvetica,sans-Serif" font-size="10.00">CurrentStep</text>
</a>
</g>
</g>
<!-- Node33&#45;&gt;Node34 -->
<g id="edge9" class="edge"><title>Node33&#45;&gt;Node34</title>
<path fill="none" stroke="midnightblue" d="M457.7,-142.779C478.492,-129.711 517.196,-106.194 552,-89.5 556.279,-87.4477 560.773,-85.4295 565.313,-83.4845"/>
<polygon fill="midnightblue" stroke="midnightblue" points="566.75,-86.6776 574.64,-79.6071 564.063,-80.2138 566.75,-86.6776"/>
</g>
<!-- Node35 -->
<g id="node10" class="node"><title>Node35</title>
<g id="a_node10"><a xlink:href="../../d8/dcc/classinfra_1_1_sequencer.html#aa1da1c05382c54296fe23b30d6cf6cf8" target="_top" xlink:title="infra::Sequencer::Increase\lCurrentStep">
<polygon fill="white" stroke="black" points="552,-225.5 552,-255.5 682,-255.5 682,-225.5 552,-225.5"/>
<text text-anchor="start" x="560" y="-243.5" font-family="Helvetica,sans-Serif" font-size="10.00">infra::Sequencer::Increase</text>
<text text-anchor="middle" x="617" y="-232.5" font-family="Helvetica,sans-Serif" font-size="10.00">CurrentStep</text>
</a>
</g>
</g>
<!-- Node33&#45;&gt;Node35 -->
<g id="edge12" class="edge"><title>Node33&#45;&gt;Node35</title>
<path fill="none" stroke="midnightblue" d="M482.415,-162.022C493.717,-165.636 505.73,-170.396 516,-176.5 534.919,-187.744 533.806,-198.117 552,-210.5 557.521,-214.258 563.587,-217.773 569.716,-220.98"/>
<polygon fill="midnightblue" stroke="midnightblue" points="568.175,-224.123 578.687,-225.45 571.297,-217.857 568.175,-224.123"/>
</g>
<!-- Node36 -->
<g id="node11" class="node"><title>Node36</title>
<g id="a_node11"><a xlink:href="../../dc/de7/classinfra_1_1_bounded_vector.html#acd442a237e9f5935f766dd3ef4a818e9" target="_top" xlink:title="infra::BoundedVector\l::pop_back">
<polygon fill="white" stroke="black" points="563.5,-137.5 563.5,-167.5 670.5,-167.5 670.5,-137.5 563.5,-137.5"/>
<text text-anchor="start" x="571.5" y="-155.5" font-family="Helvetica,sans-Serif" font-size="10.00">infra::BoundedVector</text>
<text text-anchor="middle" x="617" y="-144.5" font-family="Helvetica,sans-Serif" font-size="10.00">::pop_back</text>
</a>
</g>
</g>
<!-- Node33&#45;&gt;Node36 -->
<g id="edge14" class="edge"><title>Node33&#45;&gt;Node36</title>
<path fill="none" stroke="midnightblue" d="M513.57,-152.5C526.714,-152.5 540.354,-152.5 553.23,-152.5"/>
<polygon fill="midnightblue" stroke="midnightblue" points="553.368,-156 563.368,-152.5 553.368,-149 553.368,-156"/>
</g>
<!-- Node35&#45;&gt;Node30 -->
<g id="edge13" class="edge"><title>Node35&#45;&gt;Node30</title>
<path fill="none" stroke="midnightblue" d="M682.232,-250.187C690.681,-251.462 699.332,-252.766 707.756,-254.037"/>
<polygon fill="midnightblue" stroke="midnightblue" points="707.48,-257.535 717.89,-255.565 708.524,-250.613 707.48,-257.535"/>
</g>
<!-- Node37&#45;&gt;Node34 -->
<g id="edge16" class="edge"><title>Node37&#45;&gt;Node34</title>
<path fill="none" stroke="midnightblue" d="M516.08,-64.5C524.776,-64.5 533.653,-64.5 542.35,-64.5"/>
<polygon fill="midnightblue" stroke="midnightblue" points="542.455,-68.0001 552.455,-64.5 542.455,-61.0001 542.455,-68.0001"/>
</g>
<!-- Node38 -->
<g id="node13" class="node"><title>Node38</title>
<g id="a_node13"><a xlink:href="../../dc/de7/classinfra_1_1_bounded_vector.html#a17cb2ff4e6291f156cb5a41cca1b4edf" target="_top" xlink:title="infra::BoundedVector\l::push_back">
<polygon fill="white" stroke="black" points="563.5,-0.5 563.5,-30.5 670.5,-30.5 670.5,-0.5 563.5,-0.5"/>
<text text-anchor="start" x="571.5" y="-18.5" font-family="Helvetica,sans-Serif" font-size="10.00">infra::BoundedVector</text>
<text text-anchor="middle" x="617" y="-7.5" font-family="Helvetica,sans-Serif" font-size="10.00">::push_back</text>
</a>
</g>
</g>
<!-- Node37&#45;&gt;Node38 -->
<g id="edge17" class="edge"><title>Node37&#45;&gt;Node38</title>
<path fill="none" stroke="midnightblue" d="M476.364,-54.936C498.313,-48.7372 527.566,-40.4757 553.625,-33.1161"/>
<polygon fill="midnightblue" stroke="midnightblue" points="554.762,-36.432 563.434,-30.3458 552.859,-29.6955 554.762,-36.432"/>
</g>
</g>
</svg>
