<?xml version="1.0" encoding="UTF-8" standalone="no"?>
<!DOCTYPE svg PUBLIC "-//W3C//DTD SVG 1.1//EN"
 "http://www.w3.org/Graphics/SVG/1.1/DTD/svg11.dtd">
<!-- Generated by graphviz version 2.38.0 (20140413.2041)
 -->
<!-- Title: services::IPv4InterfaceAddresses Pages: 1 -->
<svg width="167pt" height="117pt"
 viewBox="0.00 0.00 167.00 117.00" xmlns="http://www.w3.org/2000/svg" xmlns:xlink="http://www.w3.org/1999/xlink">
<g id="graph0" class="graph" transform="scale(1 1) rotate(0) translate(4 113)">
<title>services::IPv4InterfaceAddresses</title>
<polygon fill="white" stroke="none" points="-4,4 -4,-113 163,-113 163,4 -4,4"/>
<!-- Node1 -->
<g id="node1" class="node"><title>Node1</title>
<polygon fill="#bfbfbf" stroke="black" points="0,-0.5 0,-19.5 159,-19.5 159,-0.5 0,-0.5"/>
<text text-anchor="middle" x="79.5" y="-7.5" font-family="Helvetica,sans-Serif" font-size="10.00">services::IPv4InterfaceAddresses</text>
</g>
<!-- Node2 -->
<g id="node2" class="node"><title>Node2</title>
<polygon fill="white" stroke="#bfbfbf" points="31,-89.5 31,-108.5 128,-108.5 128,-89.5 31,-89.5"/>
<text text-anchor="middle" x="79.5" y="-96.5" font-family="Helvetica,sans-Serif" font-size="10.00">array&lt; uint8_t, 4 &gt;</text>
</g>
<!-- Node2&#45;&gt;Node1 -->
<g id="edge1" class="edge"><title>Node2&#45;&gt;Node1</title>
<path fill="none" stroke="#9a32cd" stroke-dasharray="5,2" d="M79.5,-79.1946C79.5,-60.7379 79.5,-33.412 79.5,-19.6249"/>
<polygon fill="#9a32cd" stroke="#9a32cd" points="76.0001,-79.34 79.5,-89.34 83.0001,-79.3401 76.0001,-79.34"/>
<text text-anchor="middle" x="98.5" y="-63" font-family="Helvetica,sans-Serif" font-size="10.00"> address</text>
<text text-anchor="middle" x="98.5" y="-52" font-family="Helvetica,sans-Serif" font-size="10.00">netmask</text>
<text text-anchor="middle" x="98.5" y="-41" font-family="Helvetica,sans-Serif" font-size="10.00">gateway</text>
</g>
</g>
</svg>
