<?xml version="1.0" encoding="UTF-8" standalone="no"?>
<!DOCTYPE svg PUBLIC "-//W3C//DTD SVG 1.1//EN"
 "http://www.w3.org/Graphics/SVG/1.1/DTD/svg11.dtd">
<!-- Generated by graphviz version 2.38.0 (20140413.2041)
 -->
<!-- Title: infra::Creator&lt; void, U, void(ConstructionArgs...)&gt; Pages: 1 -->
<!--zoomable 167 -->
<svg id="main" version="1.1" xmlns="http://www.w3.org/2000/svg" xmlns:xlink="http://www.w3.org/1999/xlink" xml:space="preserve" onload="init(evt)">
<style type="text/css"><![CDATA[
.edge:hover path { stroke: red; }
.edge:hover polygon { stroke: red; fill: red; }
]]></style>
<script type="text/javascript"><![CDATA[
var edges = document.getElementsByTagName('g');
if (edges && edges.length) {
  for (var i=0;i<edges.length;i++) {
    if (edges[i].id.substr(0,4)=='edge') {
      edges[i].setAttribute('class','edge');
    }
  }
}
]]></script>
        <defs>
                <circle id="rim" cx="0" cy="0" r="7"/>
                <circle id="rim2" cx="0" cy="0" r="3.5"/>
                <g id="zoomPlus">
                        <use xlink:href="#rim" fill="#404040">
                                <set attributeName="fill" to="#808080" begin="zoomplus.mouseover" end="zoomplus.mouseout"/>
                        </use>
                        <path d="M-4,0h8M0,-4v8" fill="none" stroke="white" stroke-width="1.5" pointer-events="none"/>
                </g>
                <g id="zoomMin">
                        <use xlink:href="#rim" fill="#404040">
                                <set attributeName="fill" to="#808080" begin="zoomminus.mouseover" end="zoomminus.mouseout"/>
                        </use>
                        <path d="M-4,0h8" fill="none" stroke="white" stroke-width="1.5" pointer-events="none"/>
                </g>
                <g id="dirArrow">
                        <path fill="none" stroke="white" stroke-width="1.5" d="M0,-3.0v7 M-2.5,-0.5L0,-3.0L2.5,-0.5"/>
                </g>
               <g id="resetDef">
                       <use xlink:href="#rim2" fill="#404040">
                               <set attributeName="fill" to="#808080" begin="reset.mouseover" end="reset.mouseout"/>
                       </use>
               </g>
        </defs>

<script type="text/javascript">
var viewWidth = 726;
var viewHeight = 167;
var sectionId = 'dynsection-1';
</script>
<script xlink:href="../../svgpan.js"/>
<svg id="graph" class="graph">
<g id="viewport">
<title>infra::Creator&lt; void, U, void(ConstructionArgs...)&gt;</title>
<polygon fill="white" stroke="none" points="-4,4 -4,-162.5 722,-162.5 722,4 -4,4"/>
<!-- Node2 -->
<g id="node1" class="node"><title>Node2</title>
<polygon fill="#bfbfbf" stroke="black" points="573,-68 573,-98 718,-98 718,-68 573,-68"/>
<text text-anchor="start" x="581" y="-86" font-family="Helvetica,sans-Serif" font-size="10.00">infra::Creator&lt; void,</text>
<text text-anchor="middle" x="645.5" y="-75" font-family="Helvetica,sans-Serif" font-size="10.00"> U, void(ConstructionArgs...)&gt;</text>
</g>
<!-- Node3 -->
<g id="node2" class="node"><title>Node3</title>
<g id="a_node2"><a xlink:href="../../d9/dab/classinfra_1_1_creator_base_3_01void_00_01void_07_construction_args_8_8_8_08_4.html" target="_top" xlink:title="infra::CreatorBase\l\&lt; void, void(ConstructionArgs...)\&gt;">
<polygon fill="white" stroke="black" points="298,-128 298,-158 459,-158 459,-128 298,-128"/>
<text text-anchor="start" x="306" y="-146" font-family="Helvetica,sans-Serif" font-size="10.00">infra::CreatorBase</text>
<text text-anchor="middle" x="378.5" y="-135" font-family="Helvetica,sans-Serif" font-size="10.00">&lt; void, void(ConstructionArgs...)&gt;</text>
</a>
</g>
</g>
<!-- Node3&#45;&gt;Node2 -->
<g id="edge1" class="edge"><title>Node3&#45;&gt;Node2</title>
<path fill="none" stroke="midnightblue" d="M456.161,-125.643C494.688,-116.92 540.925,-106.451 577.944,-98.0693"/>
<polygon fill="midnightblue" stroke="midnightblue" points="455.009,-122.315 446.029,-127.937 456.555,-129.142 455.009,-122.315"/>
</g>
<!-- Node4 -->
<g id="node3" class="node"><title>Node4</title>
<g id="a_node3"><a xlink:href="../../da/d07/classinfra_1_1_function.html" target="_top" xlink:title="infra::Function\&lt; void\l(infra::Optional\&lt; U \&gt;\l &amp;object, ConstructionArgs...\l args)\&gt;">
<polygon fill="white" stroke="black" points="307,-57 307,-109 450,-109 450,-57 307,-57"/>
<text text-anchor="start" x="315" y="-97" font-family="Helvetica,sans-Serif" font-size="10.00">infra::Function&lt; void</text>
<text text-anchor="start" x="315" y="-86" font-family="Helvetica,sans-Serif" font-size="10.00">(infra::Optional&lt; U &gt;</text>
<text text-anchor="start" x="315" y="-75" font-family="Helvetica,sans-Serif" font-size="10.00"> &amp;object, ConstructionArgs...</text>
<text text-anchor="middle" x="378.5" y="-64" font-family="Helvetica,sans-Serif" font-size="10.00"> args)&gt;</text>
</a>
</g>
</g>
<!-- Node4&#45;&gt;Node2 -->
<g id="edge2" class="edge"><title>Node4&#45;&gt;Node2</title>
<path fill="none" stroke="#9a32cd" stroke-dasharray="5,2" d="M460.572,-83C496.336,-83 538.016,-83 572.647,-83"/>
<polygon fill="#9a32cd" stroke="#9a32cd" points="460.167,-79.5001 450.167,-83 460.167,-86.5001 460.167,-79.5001"/>
<text text-anchor="middle" x="516" y="-86" font-family="Helvetica,sans-Serif" font-size="10.00"> emplaceFunction</text>
</g>
<!-- Node5 -->
<g id="node4" class="node"><title>Node5</title>
<g id="a_node4"><a xlink:href="../../dc/df7/classinfra_1_1_optional.html" target="_top" xlink:title="infra::Optional\&lt; U \&gt;">
<polygon fill="white" stroke="black" points="328,-18.5 328,-37.5 429,-37.5 429,-18.5 328,-18.5"/>
<text text-anchor="middle" x="378.5" y="-25.5" font-family="Helvetica,sans-Serif" font-size="10.00">infra::Optional&lt; U &gt;</text>
</a>
</g>
</g>
<!-- Node5&#45;&gt;Node2 -->
<g id="edge3" class="edge"><title>Node5&#45;&gt;Node2</title>
<path fill="none" stroke="#9a32cd" stroke-dasharray="5,2" d="M435.208,-39.5621C475.228,-47.868 529.519,-59.1361 572.778,-68.1142"/>
<polygon fill="#9a32cd" stroke="#9a32cd" points="435.86,-36.1228 425.357,-37.5175 434.437,-42.9767 435.86,-36.1228"/>
<text text-anchor="middle" x="516" y="-67" font-family="Helvetica,sans-Serif" font-size="10.00"> object</text>
</g>
<!-- Node6 -->
<g id="node5" class="node"><title>Node6</title>
<g id="a_node5"><a xlink:href="../../d0/d8c/classinfra_1_1_static_storage.html" target="_top" xlink:title="infra::StaticStorage\&lt; U \&gt;">
<polygon fill="white" stroke="black" points="93,-38.5 93,-57.5 218,-57.5 218,-38.5 93,-38.5"/>
<text text-anchor="middle" x="155.5" y="-45.5" font-family="Helvetica,sans-Serif" font-size="10.00">infra::StaticStorage&lt; U &gt;</text>
</a>
</g>
</g>
<!-- Node6&#45;&gt;Node5 -->
<g id="edge4" class="edge"><title>Node6&#45;&gt;Node5</title>
<path fill="none" stroke="#9a32cd" stroke-dasharray="5,2" d="M228.414,-41.492C260.904,-38.5517 298.483,-35.1508 327.785,-32.4991"/>
<polygon fill="#9a32cd" stroke="#9a32cd" points="227.705,-38.0417 218.061,-42.4289 228.336,-45.0133 227.705,-38.0417"/>
<text text-anchor="middle" x="258" y="-44" font-family="Helvetica,sans-Serif" font-size="10.00"> data</text>
</g>
<!-- Node7 -->
<g id="node6" class="node"><title>Node7</title>
<polygon fill="white" stroke="#bfbfbf" points="0,-38.5 0,-57.5 35,-57.5 35,-38.5 0,-38.5"/>
<text text-anchor="middle" x="17.5" y="-45.5" font-family="Helvetica,sans-Serif" font-size="10.00">type</text>
</g>
<!-- Node7&#45;&gt;Node6 -->
<g id="edge5" class="edge"><title>Node7&#45;&gt;Node6</title>
<path fill="none" stroke="#9a32cd" stroke-dasharray="5,2" d="M45.2987,-48C58.9716,-48 76.2116,-48 92.9287,-48"/>
<polygon fill="#9a32cd" stroke="#9a32cd" points="45.1763,-44.5001 35.1763,-48 45.1762,-51.5001 45.1763,-44.5001"/>
<text text-anchor="middle" x="64" y="-51" font-family="Helvetica,sans-Serif" font-size="10.00"> data</text>
</g>
<!-- Node8 -->
<g id="node7" class="node"><title>Node8</title>
<polygon fill="white" stroke="#bfbfbf" points="138,-0.5 138,-19.5 173,-19.5 173,-0.5 138,-0.5"/>
<text text-anchor="middle" x="155.5" y="-7.5" font-family="Helvetica,sans-Serif" font-size="10.00">bool</text>
</g>
<!-- Node8&#45;&gt;Node5 -->
<g id="edge6" class="edge"><title>Node8&#45;&gt;Node5</title>
<path fill="none" stroke="#9a32cd" stroke-dasharray="5,2" d="M183.512,-9.66097C208.57,-9.5823 246.875,-10.0618 280,-13 295.609,-14.3845 312.516,-16.6956 327.799,-19.094"/>
<polygon fill="#9a32cd" stroke="#9a32cd" points="183.295,-6.1622 173.318,-9.72641 183.34,-13.1621 183.295,-6.1622"/>
<text text-anchor="middle" x="258" y="-16" font-family="Helvetica,sans-Serif" font-size="10.00"> initialized</text>
</g>
</g>
</svg>
        <g id="navigator" transform="translate(0 0)" fill="#404254">
                <rect fill="#f2f5e9" fill-opacity="0.5" stroke="#606060" stroke-width=".5" x="0" y="0" width="60" height="60"/>
                <use id="zoomplus" xlink:href="#zoomPlus" x="17" y="9" onmousedown="handleZoom(evt,'in')"/>
                <use id="zoomminus" xlink:href="#zoomMin" x="42" y="9" onmousedown="handleZoom(evt,'out')"/>
                <use id="reset" xlink:href="#resetDef" x="30" y="36" onmousedown="handleReset()"/>
                <g id="arrowUp" xlink:href="#dirArrow" transform="translate(30 24)" onmousedown="handlePan(0,-1)">
                  <use xlink:href="#rim" fill="#404040">
                        <set attributeName="fill" to="#808080" begin="arrowUp.mouseover" end="arrowUp.mouseout"/>
                  </use>
                  <path fill="none" stroke="white" stroke-width="1.5" d="M0,-3.0v7 M-2.5,-0.5L0,-3.0L2.5,-0.5"/>
                </g>
                <g id="arrowRight" xlink:href="#dirArrow" transform="rotate(90) translate(36 -43)" onmousedown="handlePan(1,0)">
                  <use xlink:href="#rim" fill="#404040">
                        <set attributeName="fill" to="#808080" begin="arrowRight.mouseover" end="arrowRight.mouseout"/>
                  </use>
                  <path fill="none" stroke="white" stroke-width="1.5" d="M0,-3.0v7 M-2.5,-0.5L0,-3.0L2.5,-0.5"/>
                </g>
                <g id="arrowDown" xlink:href="#dirArrow" transform="rotate(180) translate(-30 -48)" onmousedown="handlePan(0,1)">
                  <use xlink:href="#rim" fill="#404040">
                        <set attributeName="fill" to="#808080" begin="arrowDown.mouseover" end="arrowDown.mouseout"/>
                  </use>
                  <path fill="none" stroke="white" stroke-width="1.5" d="M0,-3.0v7 M-2.5,-0.5L0,-3.0L2.5,-0.5"/>
                </g>
                <g id="arrowLeft" xlink:href="#dirArrow" transform="rotate(270) translate(-36 17)" onmousedown="handlePan(-1,0)">
                  <use xlink:href="#rim" fill="#404040">
                        <set attributeName="fill" to="#808080" begin="arrowLeft.mouseover" end="arrowLeft.mouseout"/>
                  </use>
                  <path fill="none" stroke="white" stroke-width="1.5" d="M0,-3.0v7 M-2.5,-0.5L0,-3.0L2.5,-0.5"/>
                </g>
        </g>
        <svg viewBox="0 0 15 15" width="100%" height="30px" preserveAspectRatio="xMaxYMin meet">
         <g id="arrow_out" transform="scale(0.3 0.3)">
          <a xlink:href="classinfra_1_1_creator_3_01void_00_01_u_00_01void_07_construction_args_8_8_8_08_4__coll__graph_org.svg" target="_base">
           <rect id="button" ry="5" rx="5" y="6" x="6" height="38" width="38"
                fill="#f2f5e9" fill-opacity="0.5" stroke="#606060" stroke-width="1.0"/>
           <path id="arrow"
             d="M 11.500037,31.436501 C 11.940474,20.09759 22.043105,11.32322 32.158766,21.979434 L 37.068811,17.246167 C 37.068811,17.246167 37.088388,32 37.088388,32 L 22.160133,31.978069 C 22.160133,31.978069 26.997745,27.140456 26.997745,27.140456 C 18.528582,18.264221 13.291696,25.230495 11.500037,31.436501 z"
             style="fill:#404040;"/>
          </a>
         </g>
        </svg>
</svg>
