<?xml version="1.0" encoding="UTF-8" standalone="no"?>
<!DOCTYPE svg PUBLIC "-//W3C//DTD SVG 1.1//EN"
 "http://www.w3.org/Graphics/SVG/1.1/DTD/svg11.dtd">
<!-- Generated by graphviz version 2.38.0 (20140413.2041)
 -->
<!-- Title: services::DnsResolver::ReplyParser Pages: 1 -->
<svg width="1292pt" height="502pt"
 viewBox="0.00 0.00 1292.00 502.00" xmlns="http://www.w3.org/2000/svg" xmlns:xlink="http://www.w3.org/1999/xlink">
<g id="graph0" class="graph" transform="scale(1 1) rotate(0) translate(4 498)">
<title>services::DnsResolver::ReplyParser</title>
<polygon fill="white" stroke="none" points="-4,4 -4,-498 1288,-498 1288,4 -4,4"/>
<!-- Node1 -->
<g id="node1" class="node"><title>Node1</title>
<polygon fill="#bfbfbf" stroke="black" points="1172,-138 1172,-168 1284,-168 1284,-138 1172,-138"/>
<text text-anchor="start" x="1180" y="-156" font-family="Helvetica,sans-Serif" font-size="10.00">services::DnsResolver</text>
<text text-anchor="middle" x="1228" y="-145" font-family="Helvetica,sans-Serif" font-size="10.00">::ReplyParser</text>
</g>
<!-- Node2 -->
<g id="node2" class="node"><title>Node2</title>
<g id="a_node2"><a xlink:href="../../d1/d2a/classinfra_1_1_bounded_string_base.html" target="_top" xlink:title="infra::BoundedStringBase\&lt; T \&gt;">
<polygon fill="white" stroke="black" points="940,-417.5 940,-436.5 1090,-436.5 1090,-417.5 940,-417.5"/>
<text text-anchor="middle" x="1015" y="-424.5" font-family="Helvetica,sans-Serif" font-size="10.00">infra::BoundedStringBase&lt; T &gt;</text>
</a>
</g>
</g>
<!-- Node2&#45;&gt;Node1 -->
<g id="edge1" class="edge"><title>Node2&#45;&gt;Node1</title>
<path fill="none" stroke="#9a32cd" stroke-dasharray="5,2" d="M1029.76,-409.554C1054.7,-377.894 1108.95,-308.81 1154,-250 1176.04,-221.222 1201.42,-187.327 1215.7,-168.182"/>
<polygon fill="#9a32cd" stroke="#9a32cd" points="1026.98,-407.431 1023.54,-417.451 1032.48,-411.764 1026.98,-407.431"/>
<text text-anchor="middle" x="1131" y="-312" font-family="Helvetica,sans-Serif" font-size="10.00"> hostname</text>
</g>
<!-- Node3 -->
<g id="node3" class="node"><title>Node3</title>
<polygon fill="white" stroke="#bfbfbf" points="681,-436.5 681,-455.5 784,-455.5 784,-436.5 681,-436.5"/>
<text text-anchor="middle" x="732.5" y="-443.5" font-family="Helvetica,sans-Serif" font-size="10.00">MemoryRange&lt; T &gt;</text>
</g>
<!-- Node3&#45;&gt;Node2 -->
<g id="edge2" class="edge"><title>Node3&#45;&gt;Node2</title>
<path fill="none" stroke="#9a32cd" stroke-dasharray="5,2" d="M794.274,-441.883C836.993,-438.99 894.398,-435.101 939.819,-432.025"/>
<polygon fill="#9a32cd" stroke="#9a32cd" points="794.037,-438.391 784.296,-442.559 794.51,-445.375 794.037,-438.391"/>
<text text-anchor="middle" x="870.5" y="-442" font-family="Helvetica,sans-Serif" font-size="10.00"> range</text>
</g>
<!-- Node4 -->
<g id="node4" class="node"><title>Node4</title>
<polygon fill="white" stroke="#bfbfbf" points="711,-398.5 711,-417.5 754,-417.5 754,-398.5 711,-398.5"/>
<text text-anchor="middle" x="732.5" y="-405.5" font-family="Helvetica,sans-Serif" font-size="10.00">size_t</text>
</g>
<!-- Node4&#45;&gt;Node2 -->
<g id="edge3" class="edge"><title>Node4&#45;&gt;Node2</title>
<path fill="none" stroke="#9a32cd" stroke-dasharray="5,2" d="M764.377,-409.532C801.727,-411.447 866.502,-414.969 922,-419 927.757,-419.418 933.713,-419.877 939.7,-420.357"/>
<polygon fill="#9a32cd" stroke="#9a32cd" points="764.318,-406.024 754.153,-409.013 763.963,-413.015 764.318,-406.024"/>
<text text-anchor="middle" x="870.5" y="-422" font-family="Helvetica,sans-Serif" font-size="10.00"> length</text>
</g>
<!-- Node5 -->
<g id="node5" class="node"><title>Node5</title>
<polygon fill="white" stroke="#bfbfbf" points="676,-474.5 676,-493.5 789,-493.5 789,-474.5 676,-474.5"/>
<text text-anchor="middle" x="732.5" y="-481.5" font-family="Helvetica,sans-Serif" font-size="10.00">static const size_type</text>
</g>
<!-- Node5&#45;&gt;Node2 -->
<g id="edge4" class="edge"><title>Node5&#45;&gt;Node2</title>
<path fill="none" stroke="#9a32cd" stroke-dasharray="5,2" d="M799.121,-475.654C835.536,-470.499 881.518,-463.122 922,-454 943.273,-449.206 966.865,-442.249 984.832,-436.597"/>
<polygon fill="#9a32cd" stroke="#9a32cd" points="798.538,-472.202 789.117,-477.049 799.504,-479.135 798.538,-472.202"/>
<text text-anchor="middle" x="870.5" y="-475" font-family="Helvetica,sans-Serif" font-size="10.00"> npos</text>
</g>
<!-- Node6 -->
<g id="node6" class="node"><title>Node6</title>
<g id="a_node6"><a xlink:href="../../de/d9b/structservices_1_1_dns_resolver_1_1_question_footer.html" target="_top" xlink:title="services::DnsResolver\l::QuestionFooter">
<polygon fill="white" stroke="black" points="959,-284 959,-314 1071,-314 1071,-284 959,-284"/>
<text text-anchor="start" x="967" y="-302" font-family="Helvetica,sans-Serif" font-size="10.00">services::DnsResolver</text>
<text text-anchor="middle" x="1015" y="-291" font-family="Helvetica,sans-Serif" font-size="10.00">::QuestionFooter</text>
</a>
</g>
</g>
<!-- Node6&#45;&gt;Node1 -->
<g id="edge5" class="edge"><title>Node6&#45;&gt;Node1</title>
<path fill="none" stroke="#9a32cd" stroke-dasharray="5,2" d="M1046.15,-278.138C1089.14,-248.389 1167.05,-194.481 1205.02,-168.211"/>
<polygon fill="#9a32cd" stroke="#9a32cd" points="1044.02,-275.357 1037.79,-283.925 1048,-281.113 1044.02,-275.357"/>
<text text-anchor="middle" x="1131" y="-238" font-family="Helvetica,sans-Serif" font-size="10.00"> footer</text>
</g>
<!-- Node7 -->
<g id="node7" class="node"><title>Node7</title>
<polygon fill="white" stroke="#bfbfbf" points="389,-259.5 389,-278.5 440,-278.5 440,-259.5 389,-259.5"/>
<text text-anchor="middle" x="414.5" y="-266.5" font-family="Helvetica,sans-Serif" font-size="10.00">uint16_t</text>
</g>
<!-- Node7&#45;&gt;Node6 -->
<g id="edge6" class="edge"><title>Node7&#45;&gt;Node6</title>
<path fill="none" stroke="#9a32cd" stroke-dasharray="5,2" d="M449.864,-278.051C459.259,-280.269 469.476,-282.449 479,-284 673.804,-315.727 725.361,-331.972 922,-315 933.952,-313.968 946.682,-312.196 958.741,-310.198"/>
<polygon fill="#9a32cd" stroke="#9a32cd" points="450.611,-274.63 440.066,-275.656 448.949,-281.43 450.611,-274.63"/>
<text text-anchor="middle" x="732.5" y="-358" font-family="Helvetica,sans-Serif" font-size="10.00"> typeNameServer</text>
<text text-anchor="middle" x="732.5" y="-347" font-family="Helvetica,sans-Serif" font-size="10.00">classIn</text>
<text text-anchor="middle" x="732.5" y="-336" font-family="Helvetica,sans-Serif" font-size="10.00">typeA</text>
<text text-anchor="middle" x="732.5" y="-325" font-family="Helvetica,sans-Serif" font-size="10.00">typeCName</text>
</g>
<!-- Node8 -->
<g id="node8" class="node"><title>Node8</title>
<g id="a_node8"><a xlink:href="../../d9/d13/classinfra_1_1_big_endian.html" target="_top" xlink:title="infra::BigEndian\&lt; uint16_t \&gt;">
<polygon fill="white" stroke="black" points="664,-259.5 664,-278.5 801,-278.5 801,-259.5 664,-259.5"/>
<text text-anchor="middle" x="732.5" y="-266.5" font-family="Helvetica,sans-Serif" font-size="10.00">infra::BigEndian&lt; uint16_t &gt;</text>
</a>
</g>
</g>
<!-- Node7&#45;&gt;Node8 -->
<g id="edge8" class="edge"><title>Node7&#45;&gt;Node8</title>
<path fill="none" stroke="#9a32cd" stroke-dasharray="5,2" d="M450.24,-269C501.443,-269 598.177,-269 663.734,-269"/>
<polygon fill="#9a32cd" stroke="#9a32cd" points="450.033,-265.5 440.033,-269 450.033,-272.5 450.033,-265.5"/>
<text text-anchor="middle" x="562.5" y="-272" font-family="Helvetica,sans-Serif" font-size="10.00"> value</text>
</g>
<!-- Node9 -->
<g id="node9" class="node"><title>Node9</title>
<g id="a_node9"><a xlink:href="../../d2/dc9/structservices_1_1_dns_resolver_1_1_query_header.html" target="_top" xlink:title="services::DnsResolver\l::QueryHeader">
<polygon fill="white" stroke="black" points="959,-163 959,-193 1071,-193 1071,-163 959,-163"/>
<text text-anchor="start" x="967" y="-181" font-family="Helvetica,sans-Serif" font-size="10.00">services::DnsResolver</text>
<text text-anchor="middle" x="1015" y="-170" font-family="Helvetica,sans-Serif" font-size="10.00">::QueryHeader</text>
</a>
</g>
</g>
<!-- Node7&#45;&gt;Node9 -->
<g id="edge10" class="edge"><title>Node7&#45;&gt;Node9</title>
<path fill="none" stroke="#9a32cd" stroke-dasharray="5,2" d="M450.083,-258.456C497.763,-244.329 586.589,-219.478 664,-206 732.185,-194.128 750.019,-196.636 819,-191 866.174,-187.146 919.839,-183.632 958.913,-181.232"/>
<polygon fill="#9a32cd" stroke="#9a32cd" points="448.854,-255.17 440.273,-261.384 450.856,-261.878 448.854,-255.17"/>
<text text-anchor="middle" x="732.5" y="-242" font-family="Helvetica,sans-Serif" font-size="10.00"> flagsQuery</text>
<text text-anchor="middle" x="732.5" y="-231" font-family="Helvetica,sans-Serif" font-size="10.00">flagsResponse</text>
<text text-anchor="middle" x="732.5" y="-220" font-family="Helvetica,sans-Serif" font-size="10.00">flagsRecursionDesired</text>
<text text-anchor="middle" x="732.5" y="-209" font-family="Helvetica,sans-Serif" font-size="10.00">flagsErrorMask</text>
</g>
<!-- Node8&#45;&gt;Node6 -->
<g id="edge7" class="edge"><title>Node8&#45;&gt;Node6</title>
<path fill="none" stroke="#9a32cd" stroke-dasharray="5,2" d="M811.163,-277.306C858.043,-282.32 916.66,-288.589 958.808,-293.097"/>
<polygon fill="#9a32cd" stroke="#9a32cd" points="811.359,-273.807 801.044,-276.224 810.615,-280.768 811.359,-273.807"/>
<text text-anchor="middle" x="870.5" y="-303" font-family="Helvetica,sans-Serif" font-size="10.00"> class_</text>
<text text-anchor="middle" x="870.5" y="-292" font-family="Helvetica,sans-Serif" font-size="10.00">type</text>
</g>
<!-- Node8&#45;&gt;Node9 -->
<g id="edge11" class="edge"><title>Node8&#45;&gt;Node9</title>
<path fill="none" stroke="#9a32cd" stroke-dasharray="5,2" d="M758.63,-253.869C771.599,-245.751 787.491,-235.316 801,-225 809.507,-218.504 809.326,-213.58 819,-209 831.471,-203.096 905.383,-192.357 958.522,-185.2"/>
<polygon fill="#9a32cd" stroke="#9a32cd" points="756.448,-251.103 749.779,-259.336 760.126,-257.059 756.448,-251.103"/>
<text text-anchor="middle" x="870.5" y="-267" font-family="Helvetica,sans-Serif" font-size="10.00"> flags</text>
<text text-anchor="middle" x="870.5" y="-256" font-family="Helvetica,sans-Serif" font-size="10.00">answersCount</text>
<text text-anchor="middle" x="870.5" y="-245" font-family="Helvetica,sans-Serif" font-size="10.00">nameServersCount</text>
<text text-anchor="middle" x="870.5" y="-234" font-family="Helvetica,sans-Serif" font-size="10.00">questionsCount</text>
<text text-anchor="middle" x="870.5" y="-223" font-family="Helvetica,sans-Serif" font-size="10.00">additionalRecordsCount</text>
<text text-anchor="middle" x="870.5" y="-212" font-family="Helvetica,sans-Serif" font-size="10.00">id</text>
</g>
<!-- Node9&#45;&gt;Node1 -->
<g id="edge9" class="edge"><title>Node9&#45;&gt;Node1</title>
<path fill="none" stroke="#9a32cd" stroke-dasharray="5,2" d="M1081.21,-170.274C1110.23,-166.835 1144.04,-162.829 1171.79,-159.541"/>
<polygon fill="#9a32cd" stroke="#9a32cd" points="1080.68,-166.812 1071.16,-171.464 1081.5,-173.763 1080.68,-166.812"/>
<text text-anchor="middle" x="1131" y="-170" font-family="Helvetica,sans-Serif" font-size="10.00"> header</text>
</g>
<!-- Node10 -->
<g id="node10" class="node"><title>Node10</title>
<g id="a_node10"><a xlink:href="../../d6/deb/classinfra_1_1_data_input_stream_1_1_with_error_policy.html" target="_top" xlink:title="infra::DataInputStream\l::WithErrorPolicy">
<polygon fill="white" stroke="black" points="958.5,-114 958.5,-144 1071.5,-144 1071.5,-114 958.5,-114"/>
<text text-anchor="start" x="966.5" y="-132" font-family="Helvetica,sans-Serif" font-size="10.00">infra::DataInputStream</text>
<text text-anchor="middle" x="1015" y="-121" font-family="Helvetica,sans-Serif" font-size="10.00">::WithErrorPolicy</text>
</a>
</g>
</g>
<!-- Node10&#45;&gt;Node1 -->
<g id="edge12" class="edge"><title>Node10&#45;&gt;Node1</title>
<path fill="none" stroke="#9a32cd" stroke-dasharray="5,2" d="M1082.1,-133.718C1104.92,-135.62 1130.62,-138.066 1154,-141 1159.73,-141.72 1165.71,-142.557 1171.66,-143.449"/>
<polygon fill="#9a32cd" stroke="#9a32cd" points="1082.08,-130.205 1071.83,-132.883 1081.52,-137.182 1082.08,-130.205"/>
<text text-anchor="middle" x="1131" y="-144" font-family="Helvetica,sans-Serif" font-size="10.00"> stream</text>
</g>
<!-- Node11 -->
<g id="node11" class="node"><title>Node11</title>
<g id="a_node11"><a xlink:href="../../d0/db4/classinfra_1_1_data_input_stream.html" target="_top" xlink:title="infra::DataInputStream">
<polygon fill="white" stroke="black" points="676,-83.5 676,-102.5 789,-102.5 789,-83.5 676,-83.5"/>
<text text-anchor="middle" x="732.5" y="-90.5" font-family="Helvetica,sans-Serif" font-size="10.00">infra::DataInputStream</text>
</a>
</g>
</g>
<!-- Node11&#45;&gt;Node10 -->
<g id="edge13" class="edge"><title>Node11&#45;&gt;Node10</title>
<path fill="none" stroke="midnightblue" d="M799.135,-101.307C835.37,-105.905 881.176,-111.739 922,-117 933.662,-118.503 946.154,-120.125 958.054,-121.675"/>
<polygon fill="midnightblue" stroke="midnightblue" points="799.541,-97.8302 789.18,-100.044 798.66,-104.775 799.541,-97.8302"/>
</g>
<!-- Node12 -->
<g id="node12" class="node"><title>Node12</title>
<g id="a_node12"><a xlink:href="../../db/dda/classinfra_1_1_input_stream.html" target="_top" xlink:title="infra::InputStream">
<polygon fill="white" stroke="black" points="368,-83.5 368,-102.5 461,-102.5 461,-83.5 368,-83.5"/>
<text text-anchor="middle" x="414.5" y="-90.5" font-family="Helvetica,sans-Serif" font-size="10.00">infra::InputStream</text>
</a>
</g>
</g>
<!-- Node12&#45;&gt;Node11 -->
<g id="edge14" class="edge"><title>Node12&#45;&gt;Node11</title>
<path fill="none" stroke="midnightblue" d="M471.126,-93C528.712,-93 618.16,-93 675.781,-93"/>
<polygon fill="midnightblue" stroke="midnightblue" points="471.112,-89.5001 461.112,-93 471.112,-96.5001 471.112,-89.5001"/>
</g>
<!-- Node13 -->
<g id="node13" class="node"><title>Node13</title>
<g id="a_node13"><a xlink:href="../../d2/d90/classinfra_1_1_stream_reader.html" target="_top" xlink:title="infra::StreamReader">
<polygon fill="white" stroke="black" points="170.5,-43.5 170.5,-62.5 273.5,-62.5 273.5,-43.5 170.5,-43.5"/>
<text text-anchor="middle" x="222" y="-50.5" font-family="Helvetica,sans-Serif" font-size="10.00">infra::StreamReader</text>
</a>
</g>
</g>
<!-- Node13&#45;&gt;Node12 -->
<g id="edge15" class="edge"><title>Node13&#45;&gt;Node12</title>
<path fill="none" stroke="#9a32cd" stroke-dasharray="5,2" d="M278.458,-64.6447C306.991,-70.6359 341.332,-77.8466 368.243,-83.4972"/>
<polygon fill="#9a32cd" stroke="#9a32cd" points="279.135,-61.2107 268.629,-62.581 277.697,-68.0613 279.135,-61.2107"/>
<text text-anchor="middle" x="325" y="-82" font-family="Helvetica,sans-Serif" font-size="10.00"> reader</text>
</g>
<!-- Node17 -->
<g id="node17" class="node"><title>Node17</title>
<g id="a_node17"><a xlink:href="../../d0/d1b/classinfra_1_1_stream_reader_with_rewinding.html" target="_top" xlink:title="infra::StreamReaderWithRewinding">
<polygon fill="white" stroke="black" points="479,-36.5 479,-55.5 646,-55.5 646,-36.5 479,-36.5"/>
<text text-anchor="middle" x="562.5" y="-43.5" font-family="Helvetica,sans-Serif" font-size="10.00">infra::StreamReaderWithRewinding</text>
</a>
</g>
</g>
<!-- Node13&#45;&gt;Node17 -->
<g id="edge22" class="edge"><title>Node13&#45;&gt;Node17</title>
<path fill="none" stroke="midnightblue" d="M283.873,-51.7412C338.335,-50.6149 418.638,-48.9543 478.886,-47.7084"/>
<polygon fill="midnightblue" stroke="midnightblue" points="283.602,-48.2459 273.677,-51.952 283.747,-55.2444 283.602,-48.2459"/>
</g>
<!-- Node14 -->
<g id="node14" class="node"><title>Node14</title>
<g id="a_node14"><a xlink:href="../../d5/d4a/classinfra_1_1_stream_error_policy.html" target="_top" xlink:title="infra::StreamErrorPolicy">
<polygon fill="white" stroke="black" points="162,-95.5 162,-114.5 282,-114.5 282,-95.5 162,-95.5"/>
<text text-anchor="middle" x="222" y="-102.5" font-family="Helvetica,sans-Serif" font-size="10.00">infra::StreamErrorPolicy</text>
</a>
</g>
</g>
<!-- Node14&#45;&gt;Node10 -->
<g id="edge19" class="edge"><title>Node14&#45;&gt;Node10</title>
<path fill="none" stroke="#9a32cd" stroke-dasharray="5,2" d="M292.292,-115.307C294.892,-115.564 297.468,-115.797 300,-116 544.692,-135.63 837.995,-132.671 958.338,-130.323"/>
<polygon fill="#9a32cd" stroke="#9a32cd" points="292.512,-111.811 282.192,-114.209 291.755,-118.77 292.512,-111.811"/>
<text text-anchor="middle" x="562.5" y="-134" font-family="Helvetica,sans-Serif" font-size="10.00"> errorPolicy</text>
</g>
<!-- Node14&#45;&gt;Node12 -->
<g id="edge16" class="edge"><title>Node14&#45;&gt;Node12</title>
<path fill="none" stroke="#9a32cd" stroke-dasharray="5,2" d="M292.458,-100.625C317.607,-99.0405 345.351,-97.2929 367.925,-95.8708"/>
<polygon fill="#9a32cd" stroke="#9a32cd" points="291.991,-97.1471 282.231,-101.269 292.431,-104.133 291.991,-97.1471"/>
<text text-anchor="middle" x="325" y="-104" font-family="Helvetica,sans-Serif" font-size="10.00"> errorPolicy</text>
</g>
<!-- Node15 -->
<g id="node15" class="node"><title>Node15</title>
<polygon fill="white" stroke="#bfbfbf" points="17.5,-20.5 17.5,-39.5 52.5,-39.5 52.5,-20.5 17.5,-20.5"/>
<text text-anchor="middle" x="35" y="-27.5" font-family="Helvetica,sans-Serif" font-size="10.00">bool</text>
</g>
<!-- Node15&#45;&gt;Node1 -->
<g id="edge20" class="edge"><title>Node15&#45;&gt;Node1</title>
<path fill="none" stroke="#9a32cd" stroke-dasharray="5,2" d="M62.7984,-22.8762C98.5868,-14.004 164.09,-0 221,-0 221,-0 221,-0 1016,-0 1109.21,-0 1189.04,-99.0709 1216.66,-137.77"/>
<polygon fill="#9a32cd" stroke="#9a32cd" points="61.5189,-19.5899 52.688,-25.4436 63.2419,-26.3746 61.5189,-19.5899"/>
<text text-anchor="middle" x="562.5" y="-14" font-family="Helvetica,sans-Serif" font-size="10.00"> hostnameMatches</text>
<text text-anchor="middle" x="562.5" y="-3" font-family="Helvetica,sans-Serif" font-size="10.00">recurse</text>
</g>
<!-- Node15&#45;&gt;Node14 -->
<g id="edge17" class="edge"><title>Node15&#45;&gt;Node14</title>
<path fill="none" stroke="#9a32cd" stroke-dasharray="5,2" d="M62.1281,-40.5925C98.255,-55.2385 162.917,-81.4528 197.561,-95.4976"/>
<polygon fill="#9a32cd" stroke="#9a32cd" points="63.3262,-37.3016 52.7438,-36.788 60.6962,-43.7887 63.3262,-37.3016"/>
<text text-anchor="middle" x="116" y="-86" font-family="Helvetica,sans-Serif" font-size="10.00"> checkedFail</text>
<text text-anchor="middle" x="116" y="-75" font-family="Helvetica,sans-Serif" font-size="10.00">failed</text>
</g>
<!-- Node16 -->
<g id="node16" class="node"><title>Node16</title>
<polygon fill="white" stroke="#bfbfbf" points="0,-95.5 0,-114.5 70,-114.5 70,-95.5 0,-95.5"/>
<text text-anchor="middle" x="35" y="-102.5" font-family="Helvetica,sans-Serif" font-size="10.00">FailureMode</text>
</g>
<!-- Node16&#45;&gt;Node14 -->
<g id="edge18" class="edge"><title>Node16&#45;&gt;Node14</title>
<path fill="none" stroke="#9a32cd" stroke-dasharray="5,2" d="M80.4021,-105C104.778,-105 135.327,-105 161.716,-105"/>
<polygon fill="#9a32cd" stroke="#9a32cd" points="80.3636,-101.5 70.3635,-105 80.3635,-108.5 80.3636,-101.5"/>
<text text-anchor="middle" x="116" y="-108" font-family="Helvetica,sans-Serif" font-size="10.00"> failureMode</text>
</g>
<!-- Node17&#45;&gt;Node1 -->
<g id="edge21" class="edge"><title>Node17&#45;&gt;Node1</title>
<path fill="none" stroke="#9a32cd" stroke-dasharray="5,2" d="M656.152,-49.6593C762.18,-55.3503 940.473,-69.5247 1090,-104 1125.69,-112.229 1164.9,-126.856 1192.2,-137.993"/>
<polygon fill="#9a32cd" stroke="#9a32cd" points="656.289,-46.1618 646.12,-49.1346 655.924,-53.1522 656.289,-46.1618"/>
<text text-anchor="middle" x="870.5" y="-77" font-family="Helvetica,sans-Serif" font-size="10.00"> reader</text>
</g>
</g>
</svg>
