<?xml version="1.0" encoding="UTF-8" standalone="no"?>
<!DOCTYPE svg PUBLIC "-//W3C//DTD SVG 1.1//EN"
 "http://www.w3.org/Graphics/SVG/1.1/DTD/svg11.dtd">
<!-- Generated by graphviz version 2.38.0 (20140413.2041)
 -->
<!-- Title: services::EventDispatcherWithNetwork Pages: 1 -->
<!--zoomable 642 -->
<svg id="main" version="1.1" xmlns="http://www.w3.org/2000/svg" xmlns:xlink="http://www.w3.org/1999/xlink" xml:space="preserve" onload="init(evt)">
<style type="text/css"><![CDATA[
.edge:hover path { stroke: red; }
.edge:hover polygon { stroke: red; fill: red; }
]]></style>
<script type="text/javascript"><![CDATA[
var edges = document.getElementsByTagName('g');
if (edges && edges.length) {
  for (var i=0;i<edges.length;i++) {
    if (edges[i].id.substr(0,4)=='edge') {
      edges[i].setAttribute('class','edge');
    }
  }
}
]]></script>
        <defs>
                <circle id="rim" cx="0" cy="0" r="7"/>
                <circle id="rim2" cx="0" cy="0" r="3.5"/>
                <g id="zoomPlus">
                        <use xlink:href="#rim" fill="#404040">
                                <set attributeName="fill" to="#808080" begin="zoomplus.mouseover" end="zoomplus.mouseout"/>
                        </use>
                        <path d="M-4,0h8M0,-4v8" fill="none" stroke="white" stroke-width="1.5" pointer-events="none"/>
                </g>
                <g id="zoomMin">
                        <use xlink:href="#rim" fill="#404040">
                                <set attributeName="fill" to="#808080" begin="zoomminus.mouseover" end="zoomminus.mouseout"/>
                        </use>
                        <path d="M-4,0h8" fill="none" stroke="white" stroke-width="1.5" pointer-events="none"/>
                </g>
                <g id="dirArrow">
                        <path fill="none" stroke="white" stroke-width="1.5" d="M0,-3.0v7 M-2.5,-0.5L0,-3.0L2.5,-0.5"/>
                </g>
               <g id="resetDef">
                       <use xlink:href="#rim2" fill="#404040">
                               <set attributeName="fill" to="#808080" begin="reset.mouseover" end="reset.mouseout"/>
                       </use>
               </g>
        </defs>

<script type="text/javascript">
var viewWidth = 894;
var viewHeight = 642;
var sectionId = 'dynsection-1';
</script>
<script xlink:href="../../svgpan.js"/>
<svg id="graph" class="graph">
<g id="viewport">
<title>services::EventDispatcherWithNetwork</title>
<polygon fill="white" stroke="none" points="-4,4 -4,-638.011 890,-638.011 890,4 -4,4"/>
<!-- Node4 -->
<g id="node1" class="node"><title>Node4</title>
<polygon fill="#bfbfbf" stroke="black" points="758,-389.511 758,-419.511 886,-419.511 886,-389.511 758,-389.511"/>
<text text-anchor="start" x="766" y="-407.511" font-family="Helvetica,sans-Serif" font-size="10.00">services::EventDispatcher</text>
<text text-anchor="middle" x="822" y="-396.511" font-family="Helvetica,sans-Serif" font-size="10.00">WithNetwork</text>
</g>
<!-- Node5 -->
<g id="node2" class="node"><title>Node5</title>
<g id="a_node2"><a xlink:href="../../db/da8/classinfra_1_1_event_dispatcher_with_weak_ptr_1_1_with_size.html" target="_top" xlink:title="infra::EventDispatcherWith\lWeakPtr::WithSize\&lt; 50 \&gt;">
<polygon fill="white" stroke="black" points="470,-603.511 470,-633.511 601,-633.511 601,-603.511 470,-603.511"/>
<text text-anchor="start" x="478" y="-621.511" font-family="Helvetica,sans-Serif" font-size="10.00">infra::EventDispatcherWith</text>
<text text-anchor="middle" x="535.5" y="-610.511" font-family="Helvetica,sans-Serif" font-size="10.00">WeakPtr::WithSize&lt; 50 &gt;</text>
</a>
</g>
</g>
<!-- Node5&#45;&gt;Node4 -->
<g id="edge1" class="edge"><title>Node5&#45;&gt;Node4</title>
<path fill="none" stroke="midnightblue" d="M611.544,-611.457C653.255,-607.176 703.868,-596.894 740,-568.511 789.682,-529.484 810.276,-452.743 817.563,-419.736"/>
<polygon fill="midnightblue" stroke="midnightblue" points="611.054,-607.988 601.422,-612.401 611.703,-614.958 611.054,-607.988"/>
</g>
<!-- Node5&#45;&gt;Node4 -->
<g id="edge4" class="edge"><title>Node5&#45;&gt;Node4</title>
<path fill="none" stroke="midnightblue" d="M611.544,-627.234C653.255,-625.176 703.868,-614.894 740,-586.511 794.506,-543.695 814.002,-455.482 819.323,-419.637"/>
<polygon fill="midnightblue" stroke="midnightblue" points="611.296,-623.741 601.422,-627.581 611.536,-630.737 611.296,-623.741"/>
</g>
<!-- Node6 -->
<g id="node3" class="node"><title>Node6</title>
<g id="a_node3"><a xlink:href="../../db/db4/classservices_1_1_connection_factory.html" target="_top" xlink:title="services::ConnectionFactory">
<polygon fill="white" stroke="black" points="465.5,-565.011 465.5,-584.011 605.5,-584.011 605.5,-565.011 465.5,-565.011"/>
<text text-anchor="middle" x="535.5" y="-572.011" font-family="Helvetica,sans-Serif" font-size="10.00">services::ConnectionFactory</text>
</a>
</g>
</g>
<!-- Node6&#45;&gt;Node4 -->
<g id="edge2" class="edge"><title>Node6&#45;&gt;Node4</title>
<path fill="none" stroke="midnightblue" d="M616.014,-566.541C656.208,-562.105 703.966,-552.296 740,-527.511 779.654,-500.236 803.456,-446.568 814.187,-419.827"/>
<polygon fill="midnightblue" stroke="midnightblue" points="615.566,-563.068 605.97,-567.559 616.272,-570.033 615.566,-563.068"/>
</g>
<!-- Node6&#45;&gt;Node4 -->
<g id="edge5" class="edge"><title>Node6&#45;&gt;Node4</title>
<path fill="none" stroke="midnightblue" d="M616.014,-582.608C656.208,-580.105 703.966,-570.296 740,-545.511 784.97,-514.579 809.553,-449.702 817.805,-419.677"/>
<polygon fill="midnightblue" stroke="midnightblue" points="615.79,-579.114 605.97,-583.091 616.127,-586.106 615.79,-579.114"/>
</g>
<!-- Node7 -->
<g id="node4" class="node"><title>Node7</title>
<g id="a_node4"><a xlink:href="../../d7/da1/classservices_1_1_datagram_factory.html" target="_top" xlink:title="services::DatagramFactory">
<polygon fill="white" stroke="black" points="469,-527.011 469,-546.011 602,-546.011 602,-527.011 469,-527.011"/>
<text text-anchor="middle" x="535.5" y="-534.011" font-family="Helvetica,sans-Serif" font-size="10.00">services::DatagramFactory</text>
</a>
</g>
</g>
<!-- Node7&#45;&gt;Node4 -->
<g id="edge3" class="edge"><title>Node7&#45;&gt;Node4</title>
<path fill="none" stroke="midnightblue" d="M605.651,-525.715C646.949,-520.159 699.142,-509.967 740,-486.511 769.165,-469.768 793.348,-438.719 807.487,-419.75"/>
<polygon fill="midnightblue" stroke="midnightblue" points="605.142,-522.251 595.67,-526.999 606.035,-529.194 605.142,-522.251"/>
</g>
<!-- Node7&#45;&gt;Node4 -->
<g id="edge6" class="edge"><title>Node7&#45;&gt;Node4</title>
<path fill="none" stroke="midnightblue" d="M612.113,-540.773C652.293,-537.074 701.246,-526.759 740,-504.511 775.402,-484.188 803.463,-442.786 815.13,-419.783"/>
<polygon fill="midnightblue" stroke="midnightblue" points="611.787,-537.288 602.098,-541.575 612.345,-544.266 611.787,-537.288"/>
</g>
<!-- Node8 -->
<g id="node5" class="node"><title>Node8</title>
<polygon fill="white" stroke="#bfbfbf" points="463.5,-477.511 463.5,-507.511 607.5,-507.511 607.5,-477.511 463.5,-477.511"/>
<text text-anchor="start" x="471.5" y="-495.511" font-family="Helvetica,sans-Serif" font-size="10.00">list&lt; infra::WeakPtr</text>
<text text-anchor="middle" x="535.5" y="-484.511" font-family="Helvetica,sans-Serif" font-size="10.00">&lt; services::DatagramBsd &gt; &gt;</text>
</g>
<!-- Node8&#45;&gt;Node4 -->
<g id="edge7" class="edge"><title>Node8&#45;&gt;Node4</title>
<path fill="none" stroke="#9a32cd" stroke-dasharray="5,2" d="M617.773,-482.376C655.723,-476.078 701.021,-466.285 740,-451.511 761.436,-443.386 783.831,-429.954 799.626,-419.525"/>
<polygon fill="#9a32cd" stroke="#9a32cd" points="617.102,-478.939 607.785,-483.981 618.214,-485.85 617.102,-478.939"/>
<text text-anchor="middle" x="684.5" y="-483.511" font-family="Helvetica,sans-Serif" font-size="10.00"> datagrams</text>
</g>
<!-- Node9 -->
<g id="node6" class="node"><title>Node9</title>
<polygon fill="white" stroke="#bfbfbf" points="499.5,-439.011 499.5,-458.011 571.5,-458.011 571.5,-439.011 499.5,-439.011"/>
<text text-anchor="middle" x="535.5" y="-446.011" font-family="Helvetica,sans-Serif" font-size="10.00">WSAEVENT</text>
</g>
<!-- Node9&#45;&gt;Node4 -->
<g id="edge8" class="edge"><title>Node9&#45;&gt;Node4</title>
<path fill="none" stroke="#9a32cd" stroke-dasharray="5,2" d="M581.882,-442.594C623.177,-437.078 685.781,-428.391 740,-419.511 745.787,-418.563 751.797,-417.535 757.812,-416.475"/>
<polygon fill="#9a32cd" stroke="#9a32cd" points="581.312,-439.138 571.861,-443.926 582.235,-446.077 581.312,-439.138"/>
<text text-anchor="middle" x="684.5" y="-439.511" font-family="Helvetica,sans-Serif" font-size="10.00"> wakeUpEvent</text>
</g>
<!-- Node10 -->
<g id="node7" class="node"><title>Node10</title>
<polygon fill="white" stroke="#bfbfbf" points="473.5,-389.511 473.5,-419.511 597.5,-419.511 597.5,-389.511 473.5,-389.511"/>
<text text-anchor="start" x="481.5" y="-407.511" font-family="Helvetica,sans-Serif" font-size="10.00">list&lt; services::Connector</text>
<text text-anchor="middle" x="535.5" y="-396.511" font-family="Helvetica,sans-Serif" font-size="10.00">Bsd &gt;</text>
</g>
<!-- Node10&#45;&gt;Node4 -->
<g id="edge9" class="edge"><title>Node10&#45;&gt;Node4</title>
<path fill="none" stroke="#9a32cd" stroke-dasharray="5,2" d="M607.739,-404.511C653.789,-404.511 713.193,-404.511 757.605,-404.511"/>
<polygon fill="#9a32cd" stroke="#9a32cd" points="607.532,-401.011 597.532,-404.511 607.532,-408.011 607.532,-401.011"/>
<text text-anchor="middle" x="684.5" y="-407.511" font-family="Helvetica,sans-Serif" font-size="10.00"> connectors</text>
</g>
<!-- Node11 -->
<g id="node8" class="node"><title>Node11</title>
<polygon fill="white" stroke="#bfbfbf" points="460,-340.511 460,-370.511 611,-370.511 611,-340.511 460,-340.511"/>
<text text-anchor="start" x="468" y="-358.511" font-family="Helvetica,sans-Serif" font-size="10.00">list&lt; infra::WeakPtr</text>
<text text-anchor="middle" x="535.5" y="-347.511" font-family="Helvetica,sans-Serif" font-size="10.00">&lt; services::ConnectionBsd &gt; &gt;</text>
</g>
<!-- Node11&#45;&gt;Node4 -->
<g id="edge10" class="edge"><title>Node11&#45;&gt;Node4</title>
<path fill="none" stroke="#9a32cd" stroke-dasharray="5,2" d="M621.564,-369.381C658.053,-375.42 701.145,-382.668 740,-389.511 745.775,-390.528 751.777,-391.604 757.787,-392.694"/>
<polygon fill="#9a32cd" stroke="#9a32cd" points="621.893,-365.888 611.456,-367.711 620.752,-372.795 621.893,-365.888"/>
<text text-anchor="middle" x="684.5" y="-392.511" font-family="Helvetica,sans-Serif" font-size="10.00"> connections</text>
</g>
<!-- Node12 -->
<g id="node9" class="node"><title>Node12</title>
<polygon fill="white" stroke="#bfbfbf" points="521,-302.011 521,-321.011 550,-321.011 550,-302.011 521,-302.011"/>
<text text-anchor="middle" x="535.5" y="-309.011" font-family="Helvetica,sans-Serif" font-size="10.00">int</text>
</g>
<!-- Node12&#45;&gt;Node4 -->
<g id="edge11" class="edge"><title>Node12&#45;&gt;Node4</title>
<path fill="none" stroke="#9a32cd" stroke-dasharray="5,2" d="M560.289,-311.971C599.31,-313.483 678.699,-319.771 740,-345.511 765.024,-356.018 789.628,-375.629 805.032,-389.346"/>
<polygon fill="#9a32cd" stroke="#9a32cd" points="560.291,-308.469 550.186,-311.654 560.071,-315.466 560.291,-308.469"/>
<text text-anchor="middle" x="684.5" y="-359.511" font-family="Helvetica,sans-Serif" font-size="10.00"> numberOfFileDescriptors</text>
<text text-anchor="middle" x="684.5" y="-348.511" font-family="Helvetica,sans-Serif" font-size="10.00">wakeUpEvent</text>
</g>
<!-- Node13 -->
<g id="node10" class="node"><title>Node13</title>
<polygon fill="white" stroke="#bfbfbf" points="460,-252.511 460,-282.511 611,-282.511 611,-252.511 460,-252.511"/>
<text text-anchor="start" x="468" y="-270.511" font-family="Helvetica,sans-Serif" font-size="10.00">list&lt; infra::WeakPtr</text>
<text text-anchor="middle" x="535.5" y="-259.511" font-family="Helvetica,sans-Serif" font-size="10.00">&lt; services::ConnectionWin &gt; &gt;</text>
</g>
<!-- Node13&#45;&gt;Node4 -->
<g id="edge12" class="edge"><title>Node13&#45;&gt;Node4</title>
<path fill="none" stroke="#9a32cd" stroke-dasharray="5,2" d="M621.188,-269.079C659.674,-273.041 704.441,-282.439 740,-303.511 775.193,-324.367 801.286,-366.617 813.43,-389.3"/>
<polygon fill="#9a32cd" stroke="#9a32cd" points="621.312,-265.576 611.032,-268.143 620.669,-272.546 621.312,-265.576"/>
<text text-anchor="middle" x="684.5" y="-306.511" font-family="Helvetica,sans-Serif" font-size="10.00"> connections</text>
</g>
<!-- Node14 -->
<g id="node11" class="node"><title>Node14</title>
<g id="a_node11"><a xlink:href="../../df/da4/classinfra_1_1_intrusive_list.html" target="_top" xlink:title="infra::IntrusiveList\l\&lt; services::ListenerWin \&gt;">
<polygon fill="white" stroke="black" points="471.5,-203.511 471.5,-233.511 599.5,-233.511 599.5,-203.511 471.5,-203.511"/>
<text text-anchor="start" x="479.5" y="-221.511" font-family="Helvetica,sans-Serif" font-size="10.00">infra::IntrusiveList</text>
<text text-anchor="middle" x="535.5" y="-210.511" font-family="Helvetica,sans-Serif" font-size="10.00">&lt; services::ListenerWin &gt;</text>
</a>
</g>
</g>
<!-- Node14&#45;&gt;Node4 -->
<g id="edge13" class="edge"><title>Node14&#45;&gt;Node4</title>
<path fill="none" stroke="#9a32cd" stroke-dasharray="5,2" d="M609.915,-217.232C651.552,-219.947 702.635,-229.421 740,-256.511 786.48,-290.21 809.268,-359.062 817.397,-389.486"/>
<polygon fill="#9a32cd" stroke="#9a32cd" points="609.994,-213.732 599.821,-216.693 609.62,-220.722 609.994,-213.732"/>
<text text-anchor="middle" x="684.5" y="-259.511" font-family="Helvetica,sans-Serif" font-size="10.00"> listeners</text>
</g>
<!-- Node15 -->
<g id="node12" class="node"><title>Node15</title>
<g id="a_node12"><a xlink:href="../../d7/da5/classinfra_1_1detail_1_1_intrusive_list_node.html" target="_top" xlink:title="infra::detail::Intrusive\lListNode\&lt; services::ListenerWin \&gt;">
<polygon fill="white" stroke="black" points="171,-264.511 171,-294.511 337,-294.511 337,-264.511 171,-264.511"/>
<text text-anchor="start" x="179" y="-282.511" font-family="Helvetica,sans-Serif" font-size="10.00">infra::detail::Intrusive</text>
<text text-anchor="middle" x="254" y="-271.511" font-family="Helvetica,sans-Serif" font-size="10.00">ListNode&lt; services::ListenerWin &gt;</text>
</a>
</g>
</g>
<!-- Node15&#45;&gt;Node14 -->
<g id="edge14" class="edge"><title>Node15&#45;&gt;Node14</title>
<path fill="none" stroke="#9a32cd" stroke-dasharray="5,2" d="M342.965,-262.45C374.289,-256.16 409.779,-248.787 442,-241.511 452.815,-239.069 464.305,-236.33 475.376,-233.616"/>
<polygon fill="#9a32cd" stroke="#9a32cd" points="342.07,-259.06 332.951,-264.453 343.443,-265.924 342.07,-259.06"/>
<text text-anchor="middle" x="398.5" y="-263.511" font-family="Helvetica,sans-Serif" font-size="10.00"> endNode</text>
</g>
<!-- Node15&#45;&gt;Node15 -->
<g id="edge15" class="edge"><title>Node15&#45;&gt;Node15</title>
<path fill="none" stroke="#9a32cd" stroke-dasharray="5,2" d="M232.677,-304.969C235.324,-309.69 242.431,-313.011 254,-313.011 272.984,-313.011 279.955,-304.068 274.912,-294.67"/>
<polygon fill="#9a32cd" stroke="#9a32cd" points="236.187,-304.802 233.088,-294.67 229.192,-304.523 236.187,-304.802"/>
<text text-anchor="middle" x="254" y="-327.011" font-family="Helvetica,sans-Serif" font-size="10.00"> previous</text>
<text text-anchor="middle" x="254" y="-316.011" font-family="Helvetica,sans-Serif" font-size="10.00">next</text>
</g>
<!-- Node16 -->
<g id="node13" class="node"><title>Node16</title>
<g id="a_node13"><a xlink:href="../../d7/da5/classinfra_1_1detail_1_1_intrusive_list_node.html" target="_top" xlink:title="infra::detail::Intrusive\lListNode\&lt; T \&gt;">
<polygon fill="white" stroke="black" points="201.5,-162.511 201.5,-192.511 306.5,-192.511 306.5,-162.511 201.5,-162.511"/>
<text text-anchor="start" x="209.5" y="-180.511" font-family="Helvetica,sans-Serif" font-size="10.00">infra::detail::Intrusive</text>
<text text-anchor="middle" x="254" y="-169.511" font-family="Helvetica,sans-Serif" font-size="10.00">ListNode&lt; T &gt;</text>
</a>
</g>
</g>
<!-- Node16&#45;&gt;Node14 -->
<g id="edge16" class="edge"><title>Node16&#45;&gt;Node14</title>
<path fill="none" stroke="#9a32cd" stroke-dasharray="5,2" d="M316.886,-167.538C354.23,-164.006 402.137,-163.958 442,-178.511 451.782,-182.082 450.908,-188.434 460,-193.511 466.671,-197.236 473.988,-200.527 481.349,-203.397"/>
<polygon fill="#9a32cd" stroke="#9a32cd" points="316.226,-164.088 306.648,-168.617 316.96,-171.049 316.226,-164.088"/>
<text text-anchor="middle" x="398.5" y="-181.511" font-family="Helvetica,sans-Serif" font-size="10.00"> beginNode</text>
</g>
<!-- Node19 -->
<g id="node16" class="node"><title>Node19</title>
<g id="a_node16"><a xlink:href="../../df/da4/classinfra_1_1_intrusive_list.html" target="_top" xlink:title="infra::IntrusiveList\l\&lt; services::ListenerBsd \&gt;">
<polygon fill="white" stroke="black" points="471.5,-154.511 471.5,-184.511 599.5,-184.511 599.5,-154.511 471.5,-154.511"/>
<text text-anchor="start" x="479.5" y="-172.511" font-family="Helvetica,sans-Serif" font-size="10.00">infra::IntrusiveList</text>
<text text-anchor="middle" x="535.5" y="-161.511" font-family="Helvetica,sans-Serif" font-size="10.00">&lt; services::ListenerBsd &gt;</text>
</a>
</g>
</g>
<!-- Node16&#45;&gt;Node19 -->
<g id="edge20" class="edge"><title>Node16&#45;&gt;Node19</title>
<path fill="none" stroke="#9a32cd" stroke-dasharray="5,2" d="M316.122,-159.782C323.204,-157.46 330.289,-155.015 337,-152.511 345.202,-149.451 346.436,-146.329 355,-144.511 400.091,-134.942 452.358,-144.512 488.821,-154.45"/>
<polygon fill="#9a32cd" stroke="#9a32cd" points="314.957,-156.479 306.502,-162.864 317.093,-163.146 314.957,-156.479"/>
<text text-anchor="middle" x="398.5" y="-147.511" font-family="Helvetica,sans-Serif" font-size="10.00"> beginNode</text>
</g>
<!-- Node17 -->
<g id="node14" class="node"><title>Node17</title>
<polygon fill="white" stroke="#bfbfbf" points="0,-162.511 0,-192.511 96,-192.511 96,-162.511 0,-162.511"/>
<text text-anchor="start" x="8" y="-180.511" font-family="Helvetica,sans-Serif" font-size="10.00">IntrusiveListNode&lt;</text>
<text text-anchor="middle" x="48" y="-169.511" font-family="Helvetica,sans-Serif" font-size="10.00"> T &gt; *</text>
</g>
<!-- Node17&#45;&gt;Node16 -->
<g id="edge17" class="edge"><title>Node17&#45;&gt;Node16</title>
<path fill="none" stroke="#9a32cd" stroke-dasharray="5,2" d="M106.307,-177.511C136.094,-177.511 172.218,-177.511 201.165,-177.511"/>
<polygon fill="#9a32cd" stroke="#9a32cd" points="106.058,-174.011 96.0579,-177.511 106.058,-181.011 106.058,-174.011"/>
<text text-anchor="middle" x="133.5" y="-191.511" font-family="Helvetica,sans-Serif" font-size="10.00"> previous</text>
<text text-anchor="middle" x="133.5" y="-180.511" font-family="Helvetica,sans-Serif" font-size="10.00">next</text>
</g>
<!-- Node18 -->
<g id="node15" class="node"><title>Node18</title>
<polygon fill="white" stroke="#bfbfbf" points="232.5,-219.011 232.5,-238.011 275.5,-238.011 275.5,-219.011 232.5,-219.011"/>
<text text-anchor="middle" x="254" y="-226.011" font-family="Helvetica,sans-Serif" font-size="10.00">size_t</text>
</g>
<!-- Node18&#45;&gt;Node14 -->
<g id="edge18" class="edge"><title>Node18&#45;&gt;Node14</title>
<path fill="none" stroke="#9a32cd" stroke-dasharray="5,2" d="M285.921,-227.942C323.011,-227.201 387.065,-225.73 442,-223.511 451.481,-223.128 461.505,-222.656 471.318,-222.157"/>
<polygon fill="#9a32cd" stroke="#9a32cd" points="285.69,-224.446 275.76,-228.141 285.827,-231.445 285.69,-224.446"/>
<text text-anchor="middle" x="398.5" y="-229.511" font-family="Helvetica,sans-Serif" font-size="10.00"> numberOfElements</text>
</g>
<!-- Node18&#45;&gt;Node19 -->
<g id="edge23" class="edge"><title>Node18&#45;&gt;Node19</title>
<path fill="none" stroke="#9a32cd" stroke-dasharray="5,2" d="M285.927,-222.134C323.022,-214.467 387.082,-201.175 442,-189.511 451.482,-187.497 461.507,-185.349 471.321,-183.236"/>
<polygon fill="#9a32cd" stroke="#9a32cd" points="284.85,-218.782 275.764,-224.232 286.266,-225.637 284.85,-218.782"/>
<text text-anchor="middle" x="398.5" y="-210.511" font-family="Helvetica,sans-Serif" font-size="10.00"> numberOfElements</text>
</g>
<!-- Node19&#45;&gt;Node4 -->
<g id="edge19" class="edge"><title>Node19&#45;&gt;Node4</title>
<path fill="none" stroke="#9a32cd" stroke-dasharray="5,2" d="M610.14,-165.375C652.328,-166.794 703.894,-175.424 740,-204.511 799.658,-252.573 815.691,-351.474 819.728,-389.321"/>
<polygon fill="#9a32cd" stroke="#9a32cd" points="609.98,-161.871 599.91,-165.163 609.835,-168.869 609.98,-161.871"/>
<text text-anchor="middle" x="684.5" y="-207.511" font-family="Helvetica,sans-Serif" font-size="10.00"> listeners</text>
</g>
<!-- Node20 -->
<g id="node17" class="node"><title>Node20</title>
<g id="a_node17"><a xlink:href="../../d7/da5/classinfra_1_1detail_1_1_intrusive_list_node.html" target="_top" xlink:title="infra::detail::Intrusive\lListNode\&lt; services::ListenerBsd \&gt;">
<polygon fill="white" stroke="black" points="171,-73.5111 171,-103.511 337,-103.511 337,-73.5111 171,-73.5111"/>
<text text-anchor="start" x="179" y="-91.5111" font-family="Helvetica,sans-Serif" font-size="10.00">infra::detail::Intrusive</text>
<text text-anchor="middle" x="254" y="-80.5111" font-family="Helvetica,sans-Serif" font-size="10.00">ListNode&lt; services::ListenerBsd &gt;</text>
</a>
</g>
</g>
<!-- Node20&#45;&gt;Node19 -->
<g id="edge21" class="edge"><title>Node20&#45;&gt;Node19</title>
<path fill="none" stroke="#9a32cd" stroke-dasharray="5,2" d="M347.315,-96.3774C378.73,-101.827 413.164,-111.021 442,-126.511 451.967,-131.865 450.382,-138.553 460,-144.511 466.147,-148.319 472.942,-151.621 479.853,-154.465"/>
<polygon fill="#9a32cd" stroke="#9a32cd" points="347.665,-92.8884 337.233,-94.7362 346.54,-99.7974 347.665,-92.8884"/>
<text text-anchor="middle" x="398.5" y="-129.511" font-family="Helvetica,sans-Serif" font-size="10.00"> endNode</text>
</g>
<!-- Node20&#45;&gt;Node20 -->
<g id="edge22" class="edge"><title>Node20&#45;&gt;Node20</title>
<path fill="none" stroke="#9a32cd" stroke-dasharray="5,2" d="M232.677,-113.969C235.324,-118.69 242.431,-122.011 254,-122.011 272.984,-122.011 279.955,-113.068 274.912,-103.67"/>
<polygon fill="#9a32cd" stroke="#9a32cd" points="236.187,-113.802 233.088,-103.67 229.192,-113.523 236.187,-113.802"/>
<text text-anchor="middle" x="254" y="-136.011" font-family="Helvetica,sans-Serif" font-size="10.00"> previous</text>
<text text-anchor="middle" x="254" y="-125.011" font-family="Helvetica,sans-Serif" font-size="10.00">next</text>
</g>
<!-- Node21 -->
<g id="node18" class="node"><title>Node21</title>
<polygon fill="white" stroke="#bfbfbf" points="463.5,-105.511 463.5,-135.511 607.5,-135.511 607.5,-105.511 463.5,-105.511"/>
<text text-anchor="start" x="471.5" y="-123.511" font-family="Helvetica,sans-Serif" font-size="10.00">list&lt; infra::WeakPtr</text>
<text text-anchor="middle" x="535.5" y="-112.511" font-family="Helvetica,sans-Serif" font-size="10.00">&lt; services::DatagramWin &gt; &gt;</text>
</g>
<!-- Node21&#45;&gt;Node4 -->
<g id="edge24" class="edge"><title>Node21&#45;&gt;Node4</title>
<path fill="none" stroke="#9a32cd" stroke-dasharray="5,2" d="M618.003,-114.311C658.964,-115.522 706.811,-124.106 740,-152.511 813.493,-215.41 820.89,-345.252 821.198,-389.42"/>
<polygon fill="#9a32cd" stroke="#9a32cd" points="617.802,-110.808 607.75,-114.155 617.696,-117.807 617.802,-110.808"/>
<text text-anchor="middle" x="684.5" y="-155.511" font-family="Helvetica,sans-Serif" font-size="10.00"> datagrams</text>
</g>
<!-- Node22 -->
<g id="node19" class="node"><title>Node22</title>
<polygon fill="white" stroke="#bfbfbf" points="473.5,-56.5111 473.5,-86.5111 597.5,-86.5111 597.5,-56.5111 473.5,-56.5111"/>
<text text-anchor="start" x="481.5" y="-74.5111" font-family="Helvetica,sans-Serif" font-size="10.00">list&lt; services::Connector</text>
<text text-anchor="middle" x="535.5" y="-63.5111" font-family="Helvetica,sans-Serif" font-size="10.00">Win &gt;</text>
</g>
<!-- Node22&#45;&gt;Node4 -->
<g id="edge25" class="edge"><title>Node22&#45;&gt;Node4</title>
<path fill="none" stroke="#9a32cd" stroke-dasharray="5,2" d="M607.855,-63.337C651.085,-62.4201 704.545,-69.0374 740,-100.511 784.625,-140.125 812.081,-333.577 819.168,-389.403"/>
<polygon fill="#9a32cd" stroke="#9a32cd" points="607.542,-59.8458 597.67,-63.6939 607.787,-66.8415 607.542,-59.8458"/>
<text text-anchor="middle" x="684.5" y="-103.511" font-family="Helvetica,sans-Serif" font-size="10.00"> connectors</text>
</g>
<!-- Node23 -->
<g id="node20" class="node"><title>Node23</title>
<polygon fill="white" stroke="#bfbfbf" points="514,-12.0111 514,-31.0111 557,-31.0111 557,-12.0111 514,-12.0111"/>
<text text-anchor="middle" x="535.5" y="-19.0111" font-family="Helvetica,sans-Serif" font-size="10.00">fd_set</text>
</g>
<!-- Node23&#45;&gt;Node4 -->
<g id="edge26" class="edge"><title>Node23&#45;&gt;Node4</title>
<path fill="none" stroke="#9a32cd" stroke-dasharray="5,2" d="M567.02,-11.9426C610.72,-0.314137 691.216,13.1076 740,-27.5111 797.234,-75.1657 816.167,-324.771 820.142,-389.281"/>
<polygon fill="#9a32cd" stroke="#9a32cd" points="565.941,-8.61003 557.255,-14.676 567.828,-15.3509 565.941,-8.61003"/>
<text text-anchor="middle" x="684.5" y="-52.5111" font-family="Helvetica,sans-Serif" font-size="10.00"> exceptFileDescriptors</text>
<text text-anchor="middle" x="684.5" y="-41.5111" font-family="Helvetica,sans-Serif" font-size="10.00">writeFileDescriptors</text>
<text text-anchor="middle" x="684.5" y="-30.5111" font-family="Helvetica,sans-Serif" font-size="10.00">readFileDescriptors</text>
</g>
</g>
</svg>
        <g id="navigator" transform="translate(0 0)" fill="#404254">
                <rect fill="#f2f5e9" fill-opacity="0.5" stroke="#606060" stroke-width=".5" x="0" y="0" width="60" height="60"/>
                <use id="zoomplus" xlink:href="#zoomPlus" x="17" y="9" onmousedown="handleZoom(evt,'in')"/>
                <use id="zoomminus" xlink:href="#zoomMin" x="42" y="9" onmousedown="handleZoom(evt,'out')"/>
                <use id="reset" xlink:href="#resetDef" x="30" y="36" onmousedown="handleReset()"/>
                <g id="arrowUp" xlink:href="#dirArrow" transform="translate(30 24)" onmousedown="handlePan(0,-1)">
                  <use xlink:href="#rim" fill="#404040">
                        <set attributeName="fill" to="#808080" begin="arrowUp.mouseover" end="arrowUp.mouseout"/>
                  </use>
                  <path fill="none" stroke="white" stroke-width="1.5" d="M0,-3.0v7 M-2.5,-0.5L0,-3.0L2.5,-0.5"/>
                </g>
                <g id="arrowRight" xlink:href="#dirArrow" transform="rotate(90) translate(36 -43)" onmousedown="handlePan(1,0)">
                  <use xlink:href="#rim" fill="#404040">
                        <set attributeName="fill" to="#808080" begin="arrowRight.mouseover" end="arrowRight.mouseout"/>
                  </use>
                  <path fill="none" stroke="white" stroke-width="1.5" d="M0,-3.0v7 M-2.5,-0.5L0,-3.0L2.5,-0.5"/>
                </g>
                <g id="arrowDown" xlink:href="#dirArrow" transform="rotate(180) translate(-30 -48)" onmousedown="handlePan(0,1)">
                  <use xlink:href="#rim" fill="#404040">
                        <set attributeName="fill" to="#808080" begin="arrowDown.mouseover" end="arrowDown.mouseout"/>
                  </use>
                  <path fill="none" stroke="white" stroke-width="1.5" d="M0,-3.0v7 M-2.5,-0.5L0,-3.0L2.5,-0.5"/>
                </g>
                <g id="arrowLeft" xlink:href="#dirArrow" transform="rotate(270) translate(-36 17)" onmousedown="handlePan(-1,0)">
                  <use xlink:href="#rim" fill="#404040">
                        <set attributeName="fill" to="#808080" begin="arrowLeft.mouseover" end="arrowLeft.mouseout"/>
                  </use>
                  <path fill="none" stroke="white" stroke-width="1.5" d="M0,-3.0v7 M-2.5,-0.5L0,-3.0L2.5,-0.5"/>
                </g>
        </g>
        <svg viewBox="0 0 15 15" width="100%" height="30px" preserveAspectRatio="xMaxYMin meet">
         <g id="arrow_out" transform="scale(0.3 0.3)">
          <a xlink:href="classservices_1_1_event_dispatcher_with_network__coll__graph_org.svg" target="_base">
           <rect id="button" ry="5" rx="5" y="6" x="6" height="38" width="38"
                fill="#f2f5e9" fill-opacity="0.5" stroke="#606060" stroke-width="1.0"/>
           <path id="arrow"
             d="M 11.500037,31.436501 C 11.940474,20.09759 22.043105,11.32322 32.158766,21.979434 L 37.068811,17.246167 C 37.068811,17.246167 37.088388,32 37.088388,32 L 22.160133,31.978069 C 22.160133,31.978069 26.997745,27.140456 26.997745,27.140456 C 18.528582,18.264221 13.291696,25.230495 11.500037,31.436501 z"
             style="fill:#404040;"/>
          </a>
         </g>
        </svg>
</svg>
