<?xml version="1.0" encoding="UTF-8" standalone="no"?>
<!DOCTYPE svg PUBLIC "-//W3C//DTD SVG 1.1//EN"
 "http://www.w3.org/Graphics/SVG/1.1/DTD/svg11.dtd">
<!-- Generated by graphviz version 2.38.0 (20140413.2041)
 -->
<!-- Title: services::ConnectionFactoryMbedTls::Listen Pages: 1 -->
<svg width="333pt" height="88pt"
 viewBox="0.00 0.00 333.00 88.00" xmlns="http://www.w3.org/2000/svg" xmlns:xlink="http://www.w3.org/1999/xlink">
<g id="graph0" class="graph" transform="scale(1 1) rotate(0) translate(4 84)">
<title>services::ConnectionFactoryMbedTls::Listen</title>
<polygon fill="white" stroke="none" points="-4,4 -4,-84 329,-84 329,4 -4,4"/>
<!-- Node12 -->
<g id="node1" class="node"><title>Node12</title>
<polygon fill="#bfbfbf" stroke="black" points="0,-24.5 0,-54.5 140,-54.5 140,-24.5 0,-24.5"/>
<text text-anchor="start" x="8" y="-42.5" font-family="Helvetica,sans-Serif" font-size="10.00">services::ConnectionFactory</text>
<text text-anchor="middle" x="70" y="-31.5" font-family="Helvetica,sans-Serif" font-size="10.00">MbedTls::Listen</text>
</g>
<!-- Node13 -->
<g id="node2" class="node"><title>Node13</title>
<g id="a_node2"><a xlink:href="../../db/db4/classservices_1_1_connection_factory.html#a8078b56318c87528f3ad3ff0f3090820" target="_top" xlink:title="services::ConnectionFactory\l::Listen">
<polygon fill="white" stroke="black" points="180.5,-49.5 180.5,-79.5 320.5,-79.5 320.5,-49.5 180.5,-49.5"/>
<text text-anchor="start" x="188.5" y="-67.5" font-family="Helvetica,sans-Serif" font-size="10.00">services::ConnectionFactory</text>
<text text-anchor="middle" x="250.5" y="-56.5" font-family="Helvetica,sans-Serif" font-size="10.00">::Listen</text>
</a>
</g>
</g>
<!-- Node12&#45;&gt;Node13 -->
<g id="edge1" class="edge"><title>Node12&#45;&gt;Node13</title>
<path fill="none" stroke="midnightblue" d="M140.013,-49.1657C149.946,-50.5569 160.232,-51.9975 170.343,-53.4136"/>
<polygon fill="midnightblue" stroke="midnightblue" points="169.988,-56.8979 180.376,-54.8188 170.959,-49.9656 169.988,-56.8979"/>
</g>
<!-- Node14 -->
<g id="node3" class="node"><title>Node14</title>
<g id="a_node3"><a xlink:href="../../d3/d92/classservices_1_1_connection_factory_mbed_tls.html#aa259cf2a53dcb6e7a6bdeb4374142787" target="_top" xlink:title="services::ConnectionFactory\lMbedTls::NeedsAuthentication">
<polygon fill="white" stroke="black" points="176,-0.5 176,-30.5 325,-30.5 325,-0.5 176,-0.5"/>
<text text-anchor="start" x="184" y="-18.5" font-family="Helvetica,sans-Serif" font-size="10.00">services::ConnectionFactory</text>
<text text-anchor="middle" x="250.5" y="-7.5" font-family="Helvetica,sans-Serif" font-size="10.00">MbedTls::NeedsAuthentication</text>
</a>
</g>
</g>
<!-- Node12&#45;&gt;Node14 -->
<g id="edge2" class="edge"><title>Node12&#45;&gt;Node14</title>
<path fill="none" stroke="midnightblue" d="M140.013,-30.221C148.474,-29.0833 157.192,-27.9111 165.84,-26.7485"/>
<polygon fill="midnightblue" stroke="midnightblue" points="166.495,-30.1919 175.939,-25.3905 165.562,-23.2544 166.495,-30.1919"/>
</g>
</g>
</svg>
