<?xml version="1.0" encoding="UTF-8" standalone="no"?>
<!DOCTYPE svg PUBLIC "-//W3C//DTD SVG 1.1//EN"
 "http://www.w3.org/Graphics/SVG/1.1/DTD/svg11.dtd">
<!-- Generated by graphviz version 2.38.0 (20140413.2041)
 -->
<!-- Title: infra::SavedMarkerDataStream Pages: 1 -->
<svg width="739pt" height="88pt"
 viewBox="0.00 0.00 739.00 88.00" xmlns="http://www.w3.org/2000/svg" xmlns:xlink="http://www.w3.org/1999/xlink">
<g id="graph0" class="graph" transform="scale(1 1) rotate(0) translate(4 84)">
<title>infra::SavedMarkerDataStream</title>
<polygon fill="white" stroke="none" points="-4,4 -4,-84 735,-84 735,4 -4,4"/>
<!-- Node0 -->
<g id="node1" class="node"><title>Node0</title>
<polygon fill="#bfbfbf" stroke="black" points="582,-24.5 582,-43.5 731,-43.5 731,-24.5 582,-24.5"/>
<text text-anchor="middle" x="656.5" y="-31.5" font-family="Helvetica,sans-Serif" font-size="10.00">infra::SavedMarkerDataStream</text>
</g>
<!-- Node1 -->
<g id="node2" class="node"><title>Node1</title>
<g id="a_node2"><a xlink:href="../../dd/dd9/classinfra_1_1_data_output_stream_1_1_with_writer.html" target="_top" xlink:title="infra::DataOutputStream\l::WithWriter\&lt; SavedMarkerStream\lWriter \&gt;">
<polygon fill="white" stroke="black" points="380,-13.5 380,-54.5 546,-54.5 546,-13.5 380,-13.5"/>
<text text-anchor="start" x="388" y="-42.5" font-family="Helvetica,sans-Serif" font-size="10.00">infra::DataOutputStream</text>
<text text-anchor="start" x="388" y="-31.5" font-family="Helvetica,sans-Serif" font-size="10.00">::WithWriter&lt; SavedMarkerStream</text>
<text text-anchor="middle" x="463" y="-20.5" font-family="Helvetica,sans-Serif" font-size="10.00">Writer &gt;</text>
</a>
</g>
</g>
<!-- Node1&#45;&gt;Node0 -->
<g id="edge1" class="edge"><title>Node1&#45;&gt;Node0</title>
<path fill="none" stroke="midnightblue" d="M556.12,-34C564.73,-34 573.379,-34 581.789,-34"/>
<polygon fill="midnightblue" stroke="midnightblue" points="556.047,-30.5001 546.047,-34 556.047,-37.5001 556.047,-30.5001"/>
</g>
<!-- Node2 -->
<g id="node3" class="node"><title>Node2</title>
<g id="a_node3"><a xlink:href="../../d9/d00/classinfra_1_1detail_1_1_storage_holder.html" target="_top" xlink:title="infra::detail::StorageHolder\l\&lt; SavedMarkerStreamWriter,\l WithWriter\&lt; SavedMarkerStreamWriter \&gt; \&gt;">
<polygon fill="white" stroke="black" points="137,-38.5 137,-79.5 344,-79.5 344,-38.5 137,-38.5"/>
<text text-anchor="start" x="145" y="-67.5" font-family="Helvetica,sans-Serif" font-size="10.00">infra::detail::StorageHolder</text>
<text text-anchor="start" x="145" y="-56.5" font-family="Helvetica,sans-Serif" font-size="10.00">&lt; SavedMarkerStreamWriter,</text>
<text text-anchor="middle" x="240.5" y="-45.5" font-family="Helvetica,sans-Serif" font-size="10.00"> WithWriter&lt; SavedMarkerStreamWriter &gt; &gt;</text>
</a>
</g>
</g>
<!-- Node2&#45;&gt;Node1 -->
<g id="edge2" class="edge"><title>Node2&#45;&gt;Node1</title>
<path fill="none" stroke="#8b1a1a" d="M354.174,-46.2252C362.84,-45.2426 371.487,-44.2623 379.899,-43.3085"/>
<polygon fill="#8b1a1a" stroke="#8b1a1a" points="353.546,-42.7739 344.004,-47.3783 354.334,-49.7293 353.546,-42.7739"/>
</g>
<!-- Node3 -->
<g id="node4" class="node"><title>Node3</title>
<g id="a_node4"><a xlink:href="../../d6/d7d/classinfra_1_1_data_output_stream.html" target="_top" xlink:title="infra::DataOutputStream">
<polygon fill="white" stroke="black" points="179.5,-0.5 179.5,-19.5 301.5,-19.5 301.5,-0.5 179.5,-0.5"/>
<text text-anchor="middle" x="240.5" y="-7.5" font-family="Helvetica,sans-Serif" font-size="10.00">infra::DataOutputStream</text>
</a>
</g>
</g>
<!-- Node3&#45;&gt;Node1 -->
<g id="edge3" class="edge"><title>Node3&#45;&gt;Node1</title>
<path fill="none" stroke="midnightblue" d="M311.848,-17.6569C333.506,-20.0143 357.539,-22.6301 379.914,-25.0654"/>
<polygon fill="midnightblue" stroke="midnightblue" points="312.073,-14.1608 301.753,-16.5581 311.315,-21.1197 312.073,-14.1608"/>
</g>
<!-- Node4 -->
<g id="node5" class="node"><title>Node4</title>
<g id="a_node5"><a xlink:href="../../d6/d97/classinfra_1_1_output_stream.html" target="_top" xlink:title="infra::OutputStream">
<polygon fill="white" stroke="black" points="0,-0.5 0,-19.5 101,-19.5 101,-0.5 0,-0.5"/>
<text text-anchor="middle" x="50.5" y="-7.5" font-family="Helvetica,sans-Serif" font-size="10.00">infra::OutputStream</text>
</a>
</g>
</g>
<!-- Node4&#45;&gt;Node3 -->
<g id="edge4" class="edge"><title>Node4&#45;&gt;Node3</title>
<path fill="none" stroke="midnightblue" d="M111.457,-10C133.142,-10 157.621,-10 179.325,-10"/>
<polygon fill="midnightblue" stroke="midnightblue" points="111.387,-6.5001 101.387,-10 111.387,-13.5001 111.387,-6.5001"/>
</g>
</g>
</svg>
