<?xml version="1.0" encoding="UTF-8" standalone="no"?>
<!DOCTYPE svg PUBLIC "-//W3C//DTD SVG 1.1//EN"
 "http://www.w3.org/Graphics/SVG/1.1/DTD/svg11.dtd">
<!-- Generated by graphviz version 2.38.0 (20140413.2041)
 -->
<!-- Title: hal::FlashHomogeneous Pages: 1 -->
<!--zoomable 116 -->
<svg id="main" version="1.1" xmlns="http://www.w3.org/2000/svg" xmlns:xlink="http://www.w3.org/1999/xlink" xml:space="preserve" onload="init(evt)">
<style type="text/css"><![CDATA[
.edge:hover path { stroke: red; }
.edge:hover polygon { stroke: red; fill: red; }
]]></style>
<script type="text/javascript"><![CDATA[
var edges = document.getElementsByTagName('g');
if (edges && edges.length) {
  for (var i=0;i<edges.length;i++) {
    if (edges[i].id.substr(0,4)=='edge') {
      edges[i].setAttribute('class','edge');
    }
  }
}
]]></script>
        <defs>
                <circle id="rim" cx="0" cy="0" r="7"/>
                <circle id="rim2" cx="0" cy="0" r="3.5"/>
                <g id="zoomPlus">
                        <use xlink:href="#rim" fill="#404040">
                                <set attributeName="fill" to="#808080" begin="zoomplus.mouseover" end="zoomplus.mouseout"/>
                        </use>
                        <path d="M-4,0h8M0,-4v8" fill="none" stroke="white" stroke-width="1.5" pointer-events="none"/>
                </g>
                <g id="zoomMin">
                        <use xlink:href="#rim" fill="#404040">
                                <set attributeName="fill" to="#808080" begin="zoomminus.mouseover" end="zoomminus.mouseout"/>
                        </use>
                        <path d="M-4,0h8" fill="none" stroke="white" stroke-width="1.5" pointer-events="none"/>
                </g>
                <g id="dirArrow">
                        <path fill="none" stroke="white" stroke-width="1.5" d="M0,-3.0v7 M-2.5,-0.5L0,-3.0L2.5,-0.5"/>
                </g>
               <g id="resetDef">
                       <use xlink:href="#rim2" fill="#404040">
                               <set attributeName="fill" to="#808080" begin="reset.mouseover" end="reset.mouseout"/>
                       </use>
               </g>
        </defs>

<script type="text/javascript">
var viewWidth = 587;
var viewHeight = 116;
var sectionId = 'dynsection-0';
</script>
<script xlink:href="../../svgpan.js"/>
<svg id="graph" class="graph">
<g id="viewport">
<title>hal::FlashHomogeneous</title>
<polygon fill="white" stroke="none" points="-4,4 -4,-111.5 583,-111.5 583,4 -4,4"/>
<!-- Node0 -->
<g id="node1" class="node"><title>Node0</title>
<polygon fill="#bfbfbf" stroke="black" points="95,-31 95,-50 217,-50 217,-31 95,-31"/>
<text text-anchor="middle" x="156" y="-38" font-family="Helvetica,sans-Serif" font-size="10.00">hal::FlashHomogeneous</text>
</g>
<!-- Node2 -->
<g id="node3" class="node"><title>Node2</title>
<g id="a_node3"><a xlink:href="../../d0/db3/classservices_1_1_flash_quad_spi.html" target="_top" xlink:title="services::FlashQuadSpi">
<polygon fill="white" stroke="black" points="253,-50 253,-69 372,-69 372,-50 253,-50"/>
<text text-anchor="middle" x="312.5" y="-57" font-family="Helvetica,sans-Serif" font-size="10.00">services::FlashQuadSpi</text>
</a>
</g>
</g>
<!-- Node0&#45;&gt;Node2 -->
<g id="edge2" class="edge"><title>Node0&#45;&gt;Node2</title>
<path fill="none" stroke="midnightblue" d="M227.147,-49.1264C235.708,-50.1792 244.386,-51.2465 252.756,-52.2758"/>
<polygon fill="midnightblue" stroke="midnightblue" points="227.529,-45.6471 217.176,-47.9003 226.674,-52.5948 227.529,-45.6471"/>
</g>
<!-- Node6 -->
<g id="node7" class="node"><title>Node6</title>
<g id="a_node7"><a xlink:href="../../df/d28/classservices_1_1_flash_spi.html" target="_top" xlink:title="services::FlashSpi">
<polygon fill="white" stroke="black" points="264.5,-12 264.5,-31 360.5,-31 360.5,-12 264.5,-12"/>
<text text-anchor="middle" x="312.5" y="-19" font-family="Helvetica,sans-Serif" font-size="10.00">services::FlashSpi</text>
</a>
</g>
</g>
<!-- Node0&#45;&gt;Node6 -->
<g id="edge6" class="edge"><title>Node0&#45;&gt;Node6</title>
<path fill="none" stroke="midnightblue" d="M227.147,-31.8736C239.678,-30.3325 252.461,-28.7605 264.161,-27.3217"/>
<polygon fill="midnightblue" stroke="midnightblue" points="226.674,-28.4052 217.176,-33.0997 227.529,-35.3529 226.674,-28.4052"/>
</g>
<!-- Node1 -->
<g id="node2" class="node"><title>Node1</title>
<g id="a_node2"><a xlink:href="../../dd/d95/classhal_1_1_flash.html" target="_top" xlink:title="hal::Flash">
<polygon fill="white" stroke="black" points="0,-31 0,-50 59,-50 59,-31 0,-31"/>
<text text-anchor="middle" x="29.5" y="-38" font-family="Helvetica,sans-Serif" font-size="10.00">hal::Flash</text>
</a>
</g>
</g>
<!-- Node1&#45;&gt;Node0 -->
<g id="edge1" class="edge"><title>Node1&#45;&gt;Node0</title>
<path fill="none" stroke="midnightblue" d="M69.3123,-40.5C77.4248,-40.5 86.159,-40.5 94.8391,-40.5"/>
<polygon fill="midnightblue" stroke="midnightblue" points="69.0628,-37.0001 59.0628,-40.5 69.0628,-44.0001 69.0628,-37.0001"/>
</g>
<!-- Node3 -->
<g id="node4" class="node"><title>Node3</title>
<g id="a_node4"><a xlink:href="../../d1/d88/classservices_1_1_flash_quad_spi_cypress_fll.html" target="_top" xlink:title="services::FlashQuadSpiCypressFll">
<polygon fill="white" stroke="black" points="410.5,-88 410.5,-107 576.5,-107 576.5,-88 410.5,-88"/>
<text text-anchor="middle" x="493.5" y="-95" font-family="Helvetica,sans-Serif" font-size="10.00">services::FlashQuadSpiCypressFll</text>
</a>
</g>
</g>
<!-- Node2&#45;&gt;Node3 -->
<g id="edge3" class="edge"><title>Node2&#45;&gt;Node3</title>
<path fill="none" stroke="midnightblue" d="M368.524,-71.181C393.908,-76.5699 423.661,-82.8861 447.656,-87.9799"/>
<polygon fill="midnightblue" stroke="midnightblue" points="369.178,-67.742 358.669,-69.089 367.724,-74.5894 369.178,-67.742"/>
</g>
<!-- Node4 -->
<g id="node5" class="node"><title>Node4</title>
<g id="a_node5"><a xlink:href="../../d8/dbe/classservices_1_1_flash_quad_spi_micron_n25q.html" target="_top" xlink:title="services::FlashQuadSpiMicronN25q">
<polygon fill="white" stroke="black" points="408,-50 408,-69 579,-69 579,-50 408,-50"/>
<text text-anchor="middle" x="493.5" y="-57" font-family="Helvetica,sans-Serif" font-size="10.00">services::FlashQuadSpiMicronN25q</text>
</a>
</g>
</g>
<!-- Node2&#45;&gt;Node4 -->
<g id="edge4" class="edge"><title>Node2&#45;&gt;Node4</title>
<path fill="none" stroke="midnightblue" d="M382.185,-59.5C390.565,-59.5 399.204,-59.5 407.783,-59.5"/>
<polygon fill="midnightblue" stroke="midnightblue" points="382.111,-56.0001 372.111,-59.5 382.111,-63.0001 382.111,-56.0001"/>
</g>
<!-- Node5 -->
<g id="node6" class="node"><title>Node5</title>
<g id="a_node6"><a xlink:href="../../d2/d0c/classservices_1_1_flash_quad_spi_single_speed.html" target="_top" xlink:title="services::FlashQuadSpiSingle\lSpeed">
<polygon fill="white" stroke="black" points="420.5,-0.5 420.5,-30.5 566.5,-30.5 566.5,-0.5 420.5,-0.5"/>
<text text-anchor="start" x="428.5" y="-18.5" font-family="Helvetica,sans-Serif" font-size="10.00">services::FlashQuadSpiSingle</text>
<text text-anchor="middle" x="493.5" y="-7.5" font-family="Helvetica,sans-Serif" font-size="10.00">Speed</text>
</a>
</g>
</g>
<!-- Node2&#45;&gt;Node5 -->
<g id="edge5" class="edge"><title>Node2&#45;&gt;Node5</title>
<path fill="none" stroke="midnightblue" d="M362.135,-47.545C383.429,-42.3108 408.652,-36.1107 431.211,-30.5654"/>
<polygon fill="midnightblue" stroke="midnightblue" points="361.216,-44.1667 352.34,-49.9527 362.887,-50.9644 361.216,-44.1667"/>
</g>
</g>
</svg>
        <g id="navigator" transform="translate(0 0)" fill="#404254">
                <rect fill="#f2f5e9" fill-opacity="0.5" stroke="#606060" stroke-width=".5" x="0" y="0" width="60" height="60"/>
                <use id="zoomplus" xlink:href="#zoomPlus" x="17" y="9" onmousedown="handleZoom(evt,'in')"/>
                <use id="zoomminus" xlink:href="#zoomMin" x="42" y="9" onmousedown="handleZoom(evt,'out')"/>
                <use id="reset" xlink:href="#resetDef" x="30" y="36" onmousedown="handleReset()"/>
                <g id="arrowUp" xlink:href="#dirArrow" transform="translate(30 24)" onmousedown="handlePan(0,-1)">
                  <use xlink:href="#rim" fill="#404040">
                        <set attributeName="fill" to="#808080" begin="arrowUp.mouseover" end="arrowUp.mouseout"/>
                  </use>
                  <path fill="none" stroke="white" stroke-width="1.5" d="M0,-3.0v7 M-2.5,-0.5L0,-3.0L2.5,-0.5"/>
                </g>
                <g id="arrowRight" xlink:href="#dirArrow" transform="rotate(90) translate(36 -43)" onmousedown="handlePan(1,0)">
                  <use xlink:href="#rim" fill="#404040">
                        <set attributeName="fill" to="#808080" begin="arrowRight.mouseover" end="arrowRight.mouseout"/>
                  </use>
                  <path fill="none" stroke="white" stroke-width="1.5" d="M0,-3.0v7 M-2.5,-0.5L0,-3.0L2.5,-0.5"/>
                </g>
                <g id="arrowDown" xlink:href="#dirArrow" transform="rotate(180) translate(-30 -48)" onmousedown="handlePan(0,1)">
                  <use xlink:href="#rim" fill="#404040">
                        <set attributeName="fill" to="#808080" begin="arrowDown.mouseover" end="arrowDown.mouseout"/>
                  </use>
                  <path fill="none" stroke="white" stroke-width="1.5" d="M0,-3.0v7 M-2.5,-0.5L0,-3.0L2.5,-0.5"/>
                </g>
                <g id="arrowLeft" xlink:href="#dirArrow" transform="rotate(270) translate(-36 17)" onmousedown="handlePan(-1,0)">
                  <use xlink:href="#rim" fill="#404040">
                        <set attributeName="fill" to="#808080" begin="arrowLeft.mouseover" end="arrowLeft.mouseout"/>
                  </use>
                  <path fill="none" stroke="white" stroke-width="1.5" d="M0,-3.0v7 M-2.5,-0.5L0,-3.0L2.5,-0.5"/>
                </g>
        </g>
        <svg viewBox="0 0 15 15" width="100%" height="30px" preserveAspectRatio="xMaxYMin meet">
         <g id="arrow_out" transform="scale(0.3 0.3)">
          <a xlink:href="classhal_1_1_flash_homogeneous__inherit__graph_org.svg" target="_base">
           <rect id="button" ry="5" rx="5" y="6" x="6" height="38" width="38"
                fill="#f2f5e9" fill-opacity="0.5" stroke="#606060" stroke-width="1.0"/>
           <path id="arrow"
             d="M 11.500037,31.436501 C 11.940474,20.09759 22.043105,11.32322 32.158766,21.979434 L 37.068811,17.246167 C 37.068811,17.246167 37.088388,32 37.088388,32 L 22.160133,31.978069 C 22.160133,31.978069 26.997745,27.140456 26.997745,27.140456 C 18.528582,18.264221 13.291696,25.230495 11.500037,31.436501 z"
             style="fill:#404040;"/>
          </a>
         </g>
        </svg>
</svg>
