<?xml version="1.0" encoding="UTF-8" standalone="no"?>
<!DOCTYPE svg PUBLIC "-//W3C//DTD SVG 1.1//EN"
 "http://www.w3.org/Graphics/SVG/1.1/DTD/svg11.dtd">
<!-- Generated by graphviz version 2.38.0 (20140413.2041)
 -->
<!-- Title: services::ConnectionMbedTls::TryAllocateEncryptedSendStream Pages: 1 -->
<svg width="493pt" height="50pt"
 viewBox="0.00 0.00 493.00 50.00" xmlns="http://www.w3.org/2000/svg" xmlns:xlink="http://www.w3.org/1999/xlink">
<g id="graph0" class="graph" transform="scale(1 1) rotate(0) translate(4 46)">
<title>services::ConnectionMbedTls::TryAllocateEncryptedSendStream</title>
<polygon fill="white" stroke="none" points="-4,4 -4,-46 489,-46 489,4 -4,4"/>
<!-- Node231 -->
<g id="node1" class="node"><title>Node231</title>
<polygon fill="#bfbfbf" stroke="black" points="0,-0.5 0,-41.5 151,-41.5 151,-0.5 0,-0.5"/>
<text text-anchor="start" x="8" y="-29.5" font-family="Helvetica,sans-Serif" font-size="10.00">services::ConnectionMbed</text>
<text text-anchor="start" x="8" y="-18.5" font-family="Helvetica,sans-Serif" font-size="10.00">Tls::TryAllocateEncryptedSend</text>
<text text-anchor="middle" x="75.5" y="-7.5" font-family="Helvetica,sans-Serif" font-size="10.00">Stream</text>
</g>
<!-- Node232 -->
<g id="node2" class="node"><title>Node232</title>
<g id="a_node2"><a xlink:href="../../de/dcb/classservices_1_1_connection_mbed_tls.html#aa57d924643b363c3f924ee74799cca91" target="_top" xlink:title="services::ConnectionMbed\lTls::InitTls">
<polygon fill="white" stroke="black" points="187,-6 187,-36 318,-36 318,-6 187,-6"/>
<text text-anchor="start" x="195" y="-24" font-family="Helvetica,sans-Serif" font-size="10.00">services::ConnectionMbed</text>
<text text-anchor="middle" x="252.5" y="-13" font-family="Helvetica,sans-Serif" font-size="10.00">Tls::InitTls</text>
</a>
</g>
</g>
<!-- Node231&#45;&gt;Node232 -->
<g id="edge1" class="edge"><title>Node231&#45;&gt;Node232</title>
<path fill="none" stroke="midnightblue" d="M161.313,-21C169.938,-21 178.598,-21 186.958,-21"/>
<polygon fill="midnightblue" stroke="midnightblue" points="161.223,-17.5001 151.223,-21 161.223,-24.5001 161.223,-17.5001"/>
</g>
<!-- Node233 -->
<g id="node3" class="node"><title>Node233</title>
<g id="a_node3"><a xlink:href="../../de/dcb/classservices_1_1_connection_mbed_tls.html#ae5074c013c9085347e77fe1d824eff54" target="_top" xlink:title="services::ConnectionMbed\lTls::Connected">
<polygon fill="white" stroke="black" points="354,-6 354,-36 485,-36 485,-6 354,-6"/>
<text text-anchor="start" x="362" y="-24" font-family="Helvetica,sans-Serif" font-size="10.00">services::ConnectionMbed</text>
<text text-anchor="middle" x="419.5" y="-13" font-family="Helvetica,sans-Serif" font-size="10.00">Tls::Connected</text>
</a>
</g>
</g>
<!-- Node232&#45;&gt;Node233 -->
<g id="edge2" class="edge"><title>Node232&#45;&gt;Node233</title>
<path fill="none" stroke="midnightblue" d="M328.239,-21C336.821,-21 345.516,-21 353.948,-21"/>
<polygon fill="midnightblue" stroke="midnightblue" points="328.239,-17.5001 318.239,-21 328.239,-24.5001 328.239,-17.5001"/>
</g>
</g>
</svg>
