<?xml version="1.0" encoding="UTF-8" standalone="no"?>
<!DOCTYPE svg PUBLIC "-//W3C//DTD SVG 1.1//EN"
 "http://www.w3.org/Graphics/SVG/1.1/DTD/svg11.dtd">
<!-- Generated by graphviz version 2.38.0 (20140413.2041)
 -->
<!-- Title: services::ConnectionMbedTls::TlsReadFailure Pages: 1 -->
<svg width="473pt" height="39pt"
 viewBox="0.00 0.00 473.00 39.00" xmlns="http://www.w3.org/2000/svg" xmlns:xlink="http://www.w3.org/1999/xlink">
<g id="graph0" class="graph" transform="scale(1 1) rotate(0) translate(4 35)">
<title>services::ConnectionMbedTls::TlsReadFailure</title>
<polygon fill="white" stroke="none" points="-4,4 -4,-35 469,-35 469,4 -4,4"/>
<!-- Node222 -->
<g id="node1" class="node"><title>Node222</title>
<polygon fill="#bfbfbf" stroke="black" points="0,-0.5 0,-30.5 131,-30.5 131,-0.5 0,-0.5"/>
<text text-anchor="start" x="8" y="-18.5" font-family="Helvetica,sans-Serif" font-size="10.00">services::ConnectionMbed</text>
<text text-anchor="middle" x="65.5" y="-7.5" font-family="Helvetica,sans-Serif" font-size="10.00">Tls::TlsReadFailure</text>
</g>
<!-- Node223 -->
<g id="node2" class="node"><title>Node223</title>
<g id="a_node2"><a xlink:href="../../de/dcb/classservices_1_1_connection_mbed_tls.html#a53639b78d992c6e48dbab1e8228d054d" target="_top" xlink:title="services::ConnectionMbed\lTls::DataReceived">
<polygon fill="white" stroke="black" points="167,-0.5 167,-30.5 298,-30.5 298,-0.5 167,-0.5"/>
<text text-anchor="start" x="175" y="-18.5" font-family="Helvetica,sans-Serif" font-size="10.00">services::ConnectionMbed</text>
<text text-anchor="middle" x="232.5" y="-7.5" font-family="Helvetica,sans-Serif" font-size="10.00">Tls::DataReceived</text>
</a>
</g>
</g>
<!-- Node222&#45;&gt;Node223 -->
<g id="edge1" class="edge"><title>Node222&#45;&gt;Node223</title>
<path fill="none" stroke="midnightblue" d="M141.239,-15.5C149.821,-15.5 158.516,-15.5 166.948,-15.5"/>
<polygon fill="midnightblue" stroke="midnightblue" points="141.239,-12.0001 131.239,-15.5 141.239,-19.0001 141.239,-12.0001"/>
</g>
<!-- Node224 -->
<g id="node3" class="node"><title>Node224</title>
<g id="a_node3"><a xlink:href="../../de/dcb/classservices_1_1_connection_mbed_tls.html#a68236d63ecd3cacd23fd95bf9c17d70f" target="_top" xlink:title="services::ConnectionMbed\lTls::AckReceived">
<polygon fill="white" stroke="black" points="334,-0.5 334,-30.5 465,-30.5 465,-0.5 334,-0.5"/>
<text text-anchor="start" x="342" y="-18.5" font-family="Helvetica,sans-Serif" font-size="10.00">services::ConnectionMbed</text>
<text text-anchor="middle" x="399.5" y="-7.5" font-family="Helvetica,sans-Serif" font-size="10.00">Tls::AckReceived</text>
</a>
</g>
</g>
<!-- Node223&#45;&gt;Node224 -->
<g id="edge2" class="edge"><title>Node223&#45;&gt;Node224</title>
<path fill="none" stroke="midnightblue" d="M308.239,-15.5C316.821,-15.5 325.516,-15.5 333.948,-15.5"/>
<polygon fill="midnightblue" stroke="midnightblue" points="308.239,-12.0001 298.239,-15.5 308.239,-19.0001 308.239,-12.0001"/>
</g>
</g>
</svg>
