<?xml version="1.0" encoding="UTF-8" standalone="no"?>
<!DOCTYPE svg PUBLIC "-//W3C//DTD SVG 1.1//EN"
 "http://www.w3.org/Graphics/SVG/1.1/DTD/svg11.dtd">
<!-- Generated by graphviz version 2.38.0 (20140413.2041)
 -->
<!-- Title: services::ConnectionMbedTls::SendStreamAvailable Pages: 1 -->
<svg width="921pt" height="547pt"
 viewBox="0.00 0.00 921.00 547.00" xmlns="http://www.w3.org/2000/svg" xmlns:xlink="http://www.w3.org/1999/xlink">
<g id="graph0" class="graph" transform="scale(1 1) rotate(0) translate(4 543)">
<title>services::ConnectionMbedTls::SendStreamAvailable</title>
<polygon fill="white" stroke="none" points="-4,4 -4,-543 917,-543 917,4 -4,4"/>
<!-- Node128 -->
<g id="node1" class="node"><title>Node128</title>
<polygon fill="#bfbfbf" stroke="black" points="0,-312.5 0,-342.5 131,-342.5 131,-312.5 0,-312.5"/>
<text text-anchor="start" x="8" y="-330.5" font-family="Helvetica,sans-Serif" font-size="10.00">services::ConnectionMbed</text>
<text text-anchor="middle" x="65.5" y="-319.5" font-family="Helvetica,sans-Serif" font-size="10.00">Tls::SendStreamAvailable</text>
</g>
<!-- Node129 -->
<g id="node2" class="node"><title>Node129</title>
<g id="a_node2"><a xlink:href="../../de/dcb/classservices_1_1_connection_mbed_tls.html#a4ee3315ea0084ee8d0e8269b0e08b6ee" target="_top" xlink:title="services::ConnectionMbed\lTls::TrySend">
<polygon fill="white" stroke="black" points="167,-312.5 167,-342.5 298,-342.5 298,-312.5 167,-312.5"/>
<text text-anchor="start" x="175" y="-330.5" font-family="Helvetica,sans-Serif" font-size="10.00">services::ConnectionMbed</text>
<text text-anchor="middle" x="232.5" y="-319.5" font-family="Helvetica,sans-Serif" font-size="10.00">Tls::TrySend</text>
</a>
</g>
</g>
<!-- Node128&#45;&gt;Node129 -->
<g id="edge1" class="edge"><title>Node128&#45;&gt;Node129</title>
<path fill="none" stroke="midnightblue" d="M131.239,-327.5C139.583,-327.5 148.182,-327.5 156.671,-327.5"/>
<polygon fill="midnightblue" stroke="midnightblue" points="156.948,-331 166.948,-327.5 156.948,-324 156.948,-331"/>
</g>
<!-- Node130 -->
<g id="node3" class="node"><title>Node130</title>
<g id="a_node3"><a xlink:href="../../d5/db7/classinfra_1_1_bounded_deque.html#aefd90e50dffa5df25589ca940842d2a8" target="_top" xlink:title="infra::BoundedDeque\l::empty">
<polygon fill="white" stroke="black" points="349.5,-508.5 349.5,-538.5 456.5,-538.5 456.5,-508.5 349.5,-508.5"/>
<text text-anchor="start" x="357.5" y="-526.5" font-family="Helvetica,sans-Serif" font-size="10.00">infra::BoundedDeque</text>
<text text-anchor="middle" x="403" y="-515.5" font-family="Helvetica,sans-Serif" font-size="10.00">::empty</text>
</a>
</g>
</g>
<!-- Node129&#45;&gt;Node130 -->
<g id="edge2" class="edge"><title>Node129&#45;&gt;Node130</title>
<path fill="none" stroke="midnightblue" d="M238.253,-342.513C249.49,-375.642 280.815,-455.547 334,-499.5 336.027,-501.175 338.178,-502.736 340.421,-504.192"/>
<polygon fill="midnightblue" stroke="midnightblue" points="339.022,-507.421 349.449,-509.296 342.467,-501.328 339.022,-507.421"/>
</g>
<!-- Node131 -->
<g id="node4" class="node"><title>Node131</title>
<g id="a_node4"><a xlink:href="../../d5/db7/classinfra_1_1_bounded_deque.html#ae7bdbe1764e9168b674e51e2c1ea973c" target="_top" xlink:title="infra::BoundedDeque\l::contiguous_range">
<polygon fill="white" stroke="black" points="349.5,-459.5 349.5,-489.5 456.5,-489.5 456.5,-459.5 349.5,-459.5"/>
<text text-anchor="start" x="357.5" y="-477.5" font-family="Helvetica,sans-Serif" font-size="10.00">infra::BoundedDeque</text>
<text text-anchor="middle" x="403" y="-466.5" font-family="Helvetica,sans-Serif" font-size="10.00">::contiguous_range</text>
</a>
</g>
</g>
<!-- Node129&#45;&gt;Node131 -->
<g id="edge3" class="edge"><title>Node129&#45;&gt;Node131</title>
<path fill="none" stroke="midnightblue" d="M242.027,-342.616C257.265,-368.331 291.582,-420.694 334,-450.5 336.106,-451.98 338.313,-453.377 340.59,-454.695"/>
<polygon fill="midnightblue" stroke="midnightblue" points="339.172,-457.902 349.661,-459.394 342.392,-451.687 339.172,-457.902"/>
</g>
<!-- Node132 -->
<g id="node5" class="node"><title>Node132</title>
<g id="a_node5"><a xlink:href="../../d5/db7/classinfra_1_1_bounded_deque.html#a11e8b6093e259d16920cdcd2b83999c4" target="_top" xlink:title="infra::BoundedDeque\l::begin">
<polygon fill="white" stroke="black" points="349.5,-410.5 349.5,-440.5 456.5,-440.5 456.5,-410.5 349.5,-410.5"/>
<text text-anchor="start" x="357.5" y="-428.5" font-family="Helvetica,sans-Serif" font-size="10.00">infra::BoundedDeque</text>
<text text-anchor="middle" x="403" y="-417.5" font-family="Helvetica,sans-Serif" font-size="10.00">::begin</text>
</a>
</g>
</g>
<!-- Node129&#45;&gt;Node132 -->
<g id="edge4" class="edge"><title>Node129&#45;&gt;Node132</title>
<path fill="none" stroke="midnightblue" d="M250.592,-342.562C269.788,-358.865 302.405,-384.769 334,-401.5 337.291,-403.243 340.736,-404.905 344.254,-406.481"/>
<polygon fill="midnightblue" stroke="midnightblue" points="343.108,-409.796 353.683,-410.45 345.824,-403.344 343.108,-409.796"/>
</g>
<!-- Node133 -->
<g id="node6" class="node"><title>Node133</title>
<g id="a_node6"><a xlink:href="../../d0/d6d/classinfra_1_1_memory_range.html#a7a83ceae17802af5ecebfb9557912ece" target="_top" xlink:title="infra::MemoryRange\l::begin">
<polygon fill="white" stroke="black" points="351,-361.5 351,-391.5 455,-391.5 455,-361.5 351,-361.5"/>
<text text-anchor="start" x="359" y="-379.5" font-family="Helvetica,sans-Serif" font-size="10.00">infra::MemoryRange</text>
<text text-anchor="middle" x="403" y="-368.5" font-family="Helvetica,sans-Serif" font-size="10.00">::begin</text>
</a>
</g>
</g>
<!-- Node129&#45;&gt;Node133 -->
<g id="edge5" class="edge"><title>Node129&#45;&gt;Node133</title>
<path fill="none" stroke="midnightblue" d="M285.43,-342.601C303.053,-347.726 322.9,-353.498 341.154,-358.806"/>
<polygon fill="midnightblue" stroke="midnightblue" points="340.24,-362.185 350.82,-361.617 342.195,-355.464 340.24,-362.185"/>
</g>
<!-- Node134 -->
<g id="node7" class="node"><title>Node134</title>
<g id="a_node7"><a xlink:href="../../d0/d6d/classinfra_1_1_memory_range.html#ae8fbbf531d3696b6a64ac13385acdc66" target="_top" xlink:title="infra::MemoryRange\l::size">
<polygon fill="white" stroke="black" points="351,-312.5 351,-342.5 455,-342.5 455,-312.5 351,-312.5"/>
<text text-anchor="start" x="359" y="-330.5" font-family="Helvetica,sans-Serif" font-size="10.00">infra::MemoryRange</text>
<text text-anchor="middle" x="403" y="-319.5" font-family="Helvetica,sans-Serif" font-size="10.00">::size</text>
</a>
</g>
</g>
<!-- Node129&#45;&gt;Node134 -->
<g id="edge6" class="edge"><title>Node129&#45;&gt;Node134</title>
<path fill="none" stroke="midnightblue" d="M298.165,-327.5C312.068,-327.5 326.726,-327.5 340.505,-327.5"/>
<polygon fill="midnightblue" stroke="midnightblue" points="340.844,-331 350.844,-327.5 340.844,-324 340.844,-331"/>
</g>
<!-- Node135 -->
<g id="node8" class="node"><title>Node135</title>
<g id="a_node8"><a xlink:href="../../de/dcb/classservices_1_1_connection_mbed_tls.html#abed38d556a97b72b3a495d99a8610fcc" target="_top" xlink:title="services::ConnectionMbed\lTls::TlsWriteFailure">
<polygon fill="white" stroke="black" points="337.5,-263.5 337.5,-293.5 468.5,-293.5 468.5,-263.5 337.5,-263.5"/>
<text text-anchor="start" x="345.5" y="-281.5" font-family="Helvetica,sans-Serif" font-size="10.00">services::ConnectionMbed</text>
<text text-anchor="middle" x="403" y="-270.5" font-family="Helvetica,sans-Serif" font-size="10.00">Tls::TlsWriteFailure</text>
</a>
</g>
</g>
<!-- Node129&#45;&gt;Node135 -->
<g id="edge7" class="edge"><title>Node129&#45;&gt;Node135</title>
<path fill="none" stroke="midnightblue" d="M285.43,-312.399C302.809,-307.345 322.35,-301.662 340.394,-296.415"/>
<polygon fill="midnightblue" stroke="midnightblue" points="341.616,-299.705 350.241,-293.552 339.661,-292.983 341.616,-299.705"/>
</g>
<!-- Node136 -->
<g id="node9" class="node"><title>Node136</title>
<g id="a_node9"><a xlink:href="../../dc/d4c/classinfra_1_1_single_observer.html#abb13c69cc61182baf350ff1736fa772e" target="_top" xlink:title="infra::SingleObserver\l\&lt; ConnectionObserver,\l Connection \&gt;::Subject">
<polygon fill="white" stroke="black" points="345,-203 345,-244 461,-244 461,-203 345,-203"/>
<text text-anchor="start" x="353" y="-232" font-family="Helvetica,sans-Serif" font-size="10.00">infra::SingleObserver</text>
<text text-anchor="start" x="353" y="-221" font-family="Helvetica,sans-Serif" font-size="10.00">&lt; ConnectionObserver,</text>
<text text-anchor="middle" x="403" y="-210" font-family="Helvetica,sans-Serif" font-size="10.00"> Connection &gt;::Subject</text>
</a>
</g>
</g>
<!-- Node129&#45;&gt;Node136 -->
<g id="edge8" class="edge"><title>Node129&#45;&gt;Node136</title>
<path fill="none" stroke="midnightblue" d="M251.993,-312.32C271.592,-296.658 303.822,-272.1 334,-254.5 337.371,-252.534 340.889,-250.602 344.472,-248.723"/>
<polygon fill="midnightblue" stroke="midnightblue" points="346.124,-251.81 353.468,-244.174 342.964,-245.564 346.124,-251.81"/>
</g>
<!-- Node137 -->
<g id="node10" class="node"><title>Node137</title>
<g id="a_node10"><a xlink:href="../../d5/db7/classinfra_1_1_bounded_deque.html#adb958e9757694e13abb837098e5c4f53" target="_top" xlink:title="infra::BoundedDeque\l::erase">
<polygon fill="white" stroke="black" points="349.5,-153.5 349.5,-183.5 456.5,-183.5 456.5,-153.5 349.5,-153.5"/>
<text text-anchor="start" x="357.5" y="-171.5" font-family="Helvetica,sans-Serif" font-size="10.00">infra::BoundedDeque</text>
<text text-anchor="middle" x="403" y="-160.5" font-family="Helvetica,sans-Serif" font-size="10.00">::erase</text>
</a>
</g>
</g>
<!-- Node129&#45;&gt;Node137 -->
<g id="edge9" class="edge"><title>Node129&#45;&gt;Node137</title>
<path fill="none" stroke="midnightblue" d="M241.03,-312.384C255.429,-284.931 289.443,-226.661 334,-193.5 336.493,-191.645 339.137,-189.915 341.882,-188.303"/>
<polygon fill="midnightblue" stroke="midnightblue" points="343.698,-191.303 350.921,-183.551 340.441,-185.107 343.698,-191.303"/>
</g>
<!-- Node138 -->
<g id="node11" class="node"><title>Node138</title>
<g id="a_node11"><a xlink:href="../../de/dcb/classservices_1_1_connection_mbed_tls.html#af7399ddab8fb76d87a37e8c6c9151a22" target="_top" xlink:title="services::ConnectionMbed\lTls::TryAllocateSendStream">
<polygon fill="white" stroke="black" points="334,-104.5 334,-134.5 472,-134.5 472,-104.5 334,-104.5"/>
<text text-anchor="start" x="342" y="-122.5" font-family="Helvetica,sans-Serif" font-size="10.00">services::ConnectionMbed</text>
<text text-anchor="middle" x="403" y="-111.5" font-family="Helvetica,sans-Serif" font-size="10.00">Tls::TryAllocateSendStream</text>
</a>
</g>
</g>
<!-- Node129&#45;&gt;Node138 -->
<g id="edge10" class="edge"><title>Node129&#45;&gt;Node138</title>
<path fill="none" stroke="midnightblue" d="M237.775,-312.368C248.313,-277.73 278.77,-192.014 334,-144.5 335.961,-142.813 338.045,-141.236 340.221,-139.762"/>
<polygon fill="midnightblue" stroke="midnightblue" points="342.17,-142.675 348.996,-134.572 338.607,-136.65 342.17,-142.675"/>
</g>
<!-- Node139 -->
<g id="node12" class="node"><title>Node139</title>
<g id="a_node12"><a xlink:href="../../d5/db7/classinfra_1_1_bounded_deque.html#a092bec48cdf6aeba4065e1c9c44f37cd" target="_top" xlink:title="infra::BoundedDeque\l::max_size">
<polygon fill="white" stroke="black" points="553,-208.5 553,-238.5 660,-238.5 660,-208.5 553,-208.5"/>
<text text-anchor="start" x="561" y="-226.5" font-family="Helvetica,sans-Serif" font-size="10.00">infra::BoundedDeque</text>
<text text-anchor="middle" x="606.5" y="-215.5" font-family="Helvetica,sans-Serif" font-size="10.00">::max_size</text>
</a>
</g>
</g>
<!-- Node138&#45;&gt;Node139 -->
<g id="edge11" class="edge"><title>Node138&#45;&gt;Node139</title>
<path fill="none" stroke="midnightblue" d="M456.017,-134.579C461.707,-137.381 467.176,-140.664 472,-144.5 494.867,-162.683 484.16,-182.613 508,-199.5 518.327,-206.815 530.637,-211.911 542.975,-215.458"/>
<polygon fill="midnightblue" stroke="midnightblue" points="542.283,-218.894 552.839,-217.984 544.02,-212.113 542.283,-218.894"/>
</g>
<!-- Node140 -->
<g id="node13" class="node"><title>Node140</title>
<g id="a_node13"><a xlink:href="../../d5/db7/classinfra_1_1_bounded_deque.html#ac32cda72da6791ea7b4e2244b84c09d4" target="_top" xlink:title="infra::BoundedDeque\l::size">
<polygon fill="white" stroke="black" points="553,-159.5 553,-189.5 660,-189.5 660,-159.5 553,-159.5"/>
<text text-anchor="start" x="561" y="-177.5" font-family="Helvetica,sans-Serif" font-size="10.00">infra::BoundedDeque</text>
<text text-anchor="middle" x="606.5" y="-166.5" font-family="Helvetica,sans-Serif" font-size="10.00">::size</text>
</a>
</g>
</g>
<!-- Node138&#45;&gt;Node140 -->
<g id="edge12" class="edge"><title>Node138&#45;&gt;Node140</title>
<path fill="none" stroke="midnightblue" d="M454.961,-134.529C471.815,-139.411 490.685,-144.784 508,-149.5 519.328,-152.585 531.426,-155.773 543.109,-158.797"/>
<polygon fill="midnightblue" stroke="midnightblue" points="542.243,-162.188 552.8,-161.293 543.989,-155.41 542.243,-162.188"/>
</g>
<!-- Node141 -->
<g id="node14" class="node"><title>Node141</title>
<g id="a_node14"><a xlink:href="../../d3/d0e/classinfra_1_1_interface_connector.html#aed1d9e952d3d0dfa68e59ee4e868b380" target="_top" xlink:title="infra::InterfaceConnector\l\&lt; EventDispatcherWithWeakPtrWorker\l \&gt;::Instance">
<polygon fill="white" stroke="black" points="513.5,-99 513.5,-140 699.5,-140 699.5,-99 513.5,-99"/>
<text text-anchor="start" x="521.5" y="-128" font-family="Helvetica,sans-Serif" font-size="10.00">infra::InterfaceConnector</text>
<text text-anchor="start" x="521.5" y="-117" font-family="Helvetica,sans-Serif" font-size="10.00">&lt; EventDispatcherWithWeakPtrWorker</text>
<text text-anchor="middle" x="606.5" y="-106" font-family="Helvetica,sans-Serif" font-size="10.00"> &gt;::Instance</text>
</a>
</g>
</g>
<!-- Node138&#45;&gt;Node141 -->
<g id="edge13" class="edge"><title>Node138&#45;&gt;Node141</title>
<path fill="none" stroke="midnightblue" d="M472.219,-119.5C482.255,-119.5 492.774,-119.5 503.314,-119.5"/>
<polygon fill="midnightblue" stroke="midnightblue" points="503.411,-123 513.411,-119.5 503.411,-116 503.411,-123"/>
</g>
<!-- Node142 -->
<g id="node15" class="node"><title>Node142</title>
<g id="a_node15"><a xlink:href="../../de/d88/classinfra_1_1_event_dispatcher_with_weak_ptr_worker.html#a0444150202eeeeb51399634d6e24b13b" target="_top" xlink:title="infra::EventDispatcherWith\lWeakPtrWorker::Schedule">
<polygon fill="white" stroke="black" points="540,-49.5 540,-79.5 673,-79.5 673,-49.5 540,-49.5"/>
<text text-anchor="start" x="548" y="-67.5" font-family="Helvetica,sans-Serif" font-size="10.00">infra::EventDispatcherWith</text>
<text text-anchor="middle" x="606.5" y="-56.5" font-family="Helvetica,sans-Serif" font-size="10.00">WeakPtrWorker::Schedule</text>
</a>
</g>
</g>
<!-- Node138&#45;&gt;Node142 -->
<g id="edge14" class="edge"><title>Node138&#45;&gt;Node142</title>
<path fill="none" stroke="midnightblue" d="M454.961,-104.471C471.815,-99.5886 490.685,-94.2162 508,-89.5 517.01,-87.046 526.507,-84.5272 535.894,-82.0775"/>
<polygon fill="midnightblue" stroke="midnightblue" points="536.813,-85.4552 545.613,-79.5554 535.054,-78.6796 536.813,-85.4552"/>
</g>
<!-- Node144 -->
<g id="node17" class="node"><title>Node144</title>
<g id="a_node17"><a xlink:href="../../dd/df1/classinfra_1_1_enable_shared_from_this.html#af905d6b4aef4f252a28b1f4edebc99b3" target="_top" xlink:title="infra::EnableSharedFromThis\l\&lt; ConnectionMbedTls \&gt;::SharedFromThis">
<polygon fill="white" stroke="black" points="508,-0.5 508,-30.5 705,-30.5 705,-0.5 508,-0.5"/>
<text text-anchor="start" x="516" y="-18.5" font-family="Helvetica,sans-Serif" font-size="10.00">infra::EnableSharedFromThis</text>
<text text-anchor="middle" x="606.5" y="-7.5" font-family="Helvetica,sans-Serif" font-size="10.00">&lt; ConnectionMbedTls &gt;::SharedFromThis</text>
</a>
</g>
</g>
<!-- Node138&#45;&gt;Node144 -->
<g id="edge16" class="edge"><title>Node138&#45;&gt;Node144</title>
<path fill="none" stroke="midnightblue" d="M419.576,-104.424C438.822,-86.6094 473.297,-57.277 508,-40.5 512.966,-38.0994 518.189,-35.9107 523.531,-33.9182"/>
<polygon fill="midnightblue" stroke="midnightblue" points="524.949,-37.1308 533.244,-30.5402 522.649,-30.5192 524.949,-37.1308"/>
</g>
<!-- Node143 -->
<g id="node16" class="node"><title>Node143</title>
<g id="a_node16"><a xlink:href="../../de/d88/classinfra_1_1_event_dispatcher_with_weak_ptr_worker.html#ac68250c0670ca6c8c2bfadb6cdbadff7" target="_top" xlink:title="infra::EventDispatcherWith\lWeakPtrWorker::RequestExecution">
<polygon fill="white" stroke="black" points="741,-49.5 741,-79.5 913,-79.5 913,-49.5 741,-49.5"/>
<text text-anchor="start" x="749" y="-67.5" font-family="Helvetica,sans-Serif" font-size="10.00">infra::EventDispatcherWith</text>
<text text-anchor="middle" x="827" y="-56.5" font-family="Helvetica,sans-Serif" font-size="10.00">WeakPtrWorker::RequestExecution</text>
</a>
</g>
</g>
<!-- Node142&#45;&gt;Node143 -->
<g id="edge15" class="edge"><title>Node142&#45;&gt;Node143</title>
<path fill="none" stroke="midnightblue" d="M673.057,-64.5C691.148,-64.5 711.152,-64.5 730.565,-64.5"/>
<polygon fill="midnightblue" stroke="midnightblue" points="730.65,-68.0001 740.649,-64.5 730.649,-61.0001 730.65,-68.0001"/>
</g>
</g>
</svg>
