<?xml version="1.0" encoding="UTF-8" standalone="no"?>
<!DOCTYPE svg PUBLIC "-//W3C//DTD SVG 1.1//EN"
 "http://www.w3.org/Graphics/SVG/1.1/DTD/svg11.dtd">
<!-- Generated by graphviz version 2.38.0 (20140413.2041)
 -->
<!-- Title: services::ConnectionMbedTls::SslReceive Pages: 1 -->
<svg width="580pt" height="444pt"
 viewBox="0.00 0.00 580.00 443.50" xmlns="http://www.w3.org/2000/svg" xmlns:xlink="http://www.w3.org/1999/xlink">
<g id="graph0" class="graph" transform="scale(1 1) rotate(0) translate(4 439.5)">
<title>services::ConnectionMbedTls::SslReceive</title>
<polygon fill="white" stroke="none" points="-4,4 -4,-439.5 576,-439.5 576,4 -4,4"/>
<!-- Node148 -->
<g id="node1" class="node"><title>Node148</title>
<polygon fill="#bfbfbf" stroke="black" points="0,-214 0,-244 131,-244 131,-214 0,-214"/>
<text text-anchor="start" x="8" y="-232" font-family="Helvetica,sans-Serif" font-size="10.00">services::ConnectionMbed</text>
<text text-anchor="middle" x="65.5" y="-221" font-family="Helvetica,sans-Serif" font-size="10.00">Tls::SslReceive</text>
</g>
<!-- Node149 -->
<g id="node2" class="node"><title>Node149</title>
<g id="a_node2"><a xlink:href="../../d0/d6d/classinfra_1_1_memory_range.html#a7a83ceae17802af5ecebfb9557912ece" target="_top" xlink:title="infra::MemoryRange\l::begin">
<polygon fill="white" stroke="black" points="213.5,-405 213.5,-435 317.5,-435 317.5,-405 213.5,-405"/>
<text text-anchor="start" x="221.5" y="-423" font-family="Helvetica,sans-Serif" font-size="10.00">infra::MemoryRange</text>
<text text-anchor="middle" x="265.5" y="-412" font-family="Helvetica,sans-Serif" font-size="10.00">::begin</text>
</a>
</g>
</g>
<!-- Node148&#45;&gt;Node149 -->
<g id="edge1" class="edge"><title>Node148&#45;&gt;Node149</title>
<path fill="none" stroke="midnightblue" d="M71.1668,-244.208C82.1339,-277.296 112.796,-356.045 167,-396 177.679,-403.871 190.625,-409.184 203.546,-412.763"/>
<polygon fill="midnightblue" stroke="midnightblue" points="202.838,-416.193 213.384,-415.176 204.506,-409.395 202.838,-416.193"/>
</g>
<!-- Node150 -->
<g id="node3" class="node"><title>Node150</title>
<g id="a_node3"><a xlink:href="../../db/dda/classinfra_1_1_input_stream.html#aa253f0d673d3e4b6189993c7af8ff389" target="_top" xlink:title="infra::InputStream\l::ContiguousRange">
<polygon fill="white" stroke="black" points="216,-356 216,-386 315,-386 315,-356 216,-356"/>
<text text-anchor="start" x="224" y="-374" font-family="Helvetica,sans-Serif" font-size="10.00">infra::InputStream</text>
<text text-anchor="middle" x="265.5" y="-363" font-family="Helvetica,sans-Serif" font-size="10.00">::ContiguousRange</text>
</a>
</g>
</g>
<!-- Node148&#45;&gt;Node150 -->
<g id="edge2" class="edge"><title>Node148&#45;&gt;Node150</title>
<path fill="none" stroke="midnightblue" d="M75.137,-244.333C90.2968,-269.782 124.189,-320.555 167,-347 178.582,-354.154 192.171,-359.177 205.465,-362.703"/>
<polygon fill="midnightblue" stroke="midnightblue" points="204.994,-366.189 215.535,-365.118 206.627,-359.382 204.994,-366.189"/>
</g>
<!-- Node152 -->
<g id="node5" class="node"><title>Node152</title>
<g id="a_node5"><a xlink:href="../../d0/d6d/classinfra_1_1_memory_range.html#a0dc90caa282524ee9828bf8128e3a569" target="_top" xlink:title="infra::MemoryRange\l::empty">
<polygon fill="white" stroke="black" points="213.5,-307 213.5,-337 317.5,-337 317.5,-307 213.5,-307"/>
<text text-anchor="start" x="221.5" y="-325" font-family="Helvetica,sans-Serif" font-size="10.00">infra::MemoryRange</text>
<text text-anchor="middle" x="265.5" y="-314" font-family="Helvetica,sans-Serif" font-size="10.00">::empty</text>
</a>
</g>
</g>
<!-- Node148&#45;&gt;Node152 -->
<g id="edge4" class="edge"><title>Node148&#45;&gt;Node152</title>
<path fill="none" stroke="midnightblue" d="M84.6116,-244.106C103.9,-259.483 135.879,-282.993 167,-297 178.442,-302.15 191.136,-306.378 203.479,-309.796"/>
<polygon fill="midnightblue" stroke="midnightblue" points="202.712,-313.213 213.273,-312.365 204.488,-306.442 202.712,-313.213"/>
</g>
<!-- Node153 -->
<g id="node6" class="node"><title>Node153</title>
<g id="a_node6"><a xlink:href="../../d0/d6d/classinfra_1_1_memory_range.html#a1be4daa094045e4e3bff3b2748646c12" target="_top" xlink:title="infra::MemoryRange::end">
<polygon fill="white" stroke="black" points="203,-268.5 203,-287.5 328,-287.5 328,-268.5 203,-268.5"/>
<text text-anchor="middle" x="265.5" y="-275.5" font-family="Helvetica,sans-Serif" font-size="10.00">infra::MemoryRange::end</text>
</a>
</g>
</g>
<!-- Node148&#45;&gt;Node153 -->
<g id="edge5" class="edge"><title>Node148&#45;&gt;Node153</title>
<path fill="none" stroke="midnightblue" d="M113.531,-244.073C130.308,-249.175 149.407,-254.671 167,-259 177.88,-261.677 189.517,-264.219 200.826,-266.522"/>
<polygon fill="midnightblue" stroke="midnightblue" points="200.162,-269.959 210.653,-268.482 201.531,-263.094 200.162,-269.959"/>
</g>
<!-- Node154 -->
<g id="node7" class="node"><title>Node154</title>
<g id="a_node7"><a xlink:href="../../d3/d0e/classinfra_1_1_interface_connector.html#aed1d9e952d3d0dfa68e59ee4e868b380" target="_top" xlink:title="infra::InterfaceConnector\l\&lt; EventDispatcherWithWeakPtrWorker\l \&gt;::Instance">
<polygon fill="white" stroke="black" points="172.5,-208.5 172.5,-249.5 358.5,-249.5 358.5,-208.5 172.5,-208.5"/>
<text text-anchor="start" x="180.5" y="-237.5" font-family="Helvetica,sans-Serif" font-size="10.00">infra::InterfaceConnector</text>
<text text-anchor="start" x="180.5" y="-226.5" font-family="Helvetica,sans-Serif" font-size="10.00">&lt; EventDispatcherWithWeakPtrWorker</text>
<text text-anchor="middle" x="265.5" y="-215.5" font-family="Helvetica,sans-Serif" font-size="10.00"> &gt;::Instance</text>
</a>
</g>
</g>
<!-- Node148&#45;&gt;Node154 -->
<g id="edge6" class="edge"><title>Node148&#45;&gt;Node154</title>
<path fill="none" stroke="midnightblue" d="M131.059,-229C141.065,-229 151.607,-229 162.199,-229"/>
<polygon fill="midnightblue" stroke="midnightblue" points="162.355,-232.5 172.355,-229 162.355,-225.5 162.355,-232.5"/>
</g>
<!-- Node155 -->
<g id="node8" class="node"><title>Node155</title>
<g id="a_node8"><a xlink:href="../../de/d88/classinfra_1_1_event_dispatcher_with_weak_ptr_worker.html#a0444150202eeeeb51399634d6e24b13b" target="_top" xlink:title="infra::EventDispatcherWith\lWeakPtrWorker::Schedule">
<polygon fill="white" stroke="black" points="199,-159 199,-189 332,-189 332,-159 199,-159"/>
<text text-anchor="start" x="207" y="-177" font-family="Helvetica,sans-Serif" font-size="10.00">infra::EventDispatcherWith</text>
<text text-anchor="middle" x="265.5" y="-166" font-family="Helvetica,sans-Serif" font-size="10.00">WeakPtrWorker::Schedule</text>
</a>
</g>
</g>
<!-- Node148&#45;&gt;Node155 -->
<g id="edge7" class="edge"><title>Node148&#45;&gt;Node155</title>
<path fill="none" stroke="midnightblue" d="M115.462,-213.967C131.812,-209.058 150.155,-203.672 167,-199 175.842,-196.548 185.158,-194.05 194.383,-191.628"/>
<polygon fill="midnightblue" stroke="midnightblue" points="195.536,-194.944 204.33,-189.036 193.77,-188.171 195.536,-194.944"/>
</g>
<!-- Node157 -->
<g id="node10" class="node"><title>Node157</title>
<g id="a_node10"><a xlink:href="../../dd/df1/classinfra_1_1_enable_shared_from_this.html#af905d6b4aef4f252a28b1f4edebc99b3" target="_top" xlink:title="infra::EnableSharedFromThis\l\&lt; ConnectionMbedTls \&gt;::SharedFromThis">
<polygon fill="white" stroke="black" points="167,-110 167,-140 364,-140 364,-110 167,-110"/>
<text text-anchor="start" x="175" y="-128" font-family="Helvetica,sans-Serif" font-size="10.00">infra::EnableSharedFromThis</text>
<text text-anchor="middle" x="265.5" y="-117" font-family="Helvetica,sans-Serif" font-size="10.00">&lt; ConnectionMbedTls &gt;::SharedFromThis</text>
</a>
</g>
</g>
<!-- Node148&#45;&gt;Node157 -->
<g id="edge9" class="edge"><title>Node148&#45;&gt;Node157</title>
<path fill="none" stroke="midnightblue" d="M81.4516,-213.898C99.952,-196.059 133.17,-166.702 167,-150 171.848,-147.607 176.948,-145.427 182.168,-143.444"/>
<polygon fill="midnightblue" stroke="midnightblue" points="183.407,-146.718 191.666,-140.083 181.072,-140.119 183.407,-146.718"/>
</g>
<!-- Node158 -->
<g id="node11" class="node"><title>Node158</title>
<g id="a_node11"><a xlink:href="../../d0/d6d/classinfra_1_1_memory_range.html#ae8fbbf531d3696b6a64ac13385acdc66" target="_top" xlink:title="infra::MemoryRange\l::size">
<polygon fill="white" stroke="black" points="213.5,-61 213.5,-91 317.5,-91 317.5,-61 213.5,-61"/>
<text text-anchor="start" x="221.5" y="-79" font-family="Helvetica,sans-Serif" font-size="10.00">infra::MemoryRange</text>
<text text-anchor="middle" x="265.5" y="-68" font-family="Helvetica,sans-Serif" font-size="10.00">::size</text>
</a>
</g>
</g>
<!-- Node148&#45;&gt;Node158 -->
<g id="edge10" class="edge"><title>Node148&#45;&gt;Node158</title>
<path fill="none" stroke="midnightblue" d="M74.1307,-213.712C88.4585,-186.633 122.041,-130.333 167,-101 177.963,-93.8475 190.858,-88.7403 203.615,-85.0938"/>
<polygon fill="midnightblue" stroke="midnightblue" points="204.509,-88.478 213.31,-82.5804 202.752,-81.702 204.509,-88.478"/>
</g>
<!-- Node159 -->
<g id="node12" class="node"><title>Node159</title>
<g id="a_node12"><a xlink:href="../../dc/d4c/classinfra_1_1_single_observer.html#abb13c69cc61182baf350ff1736fa772e" target="_top" xlink:title="infra::SingleObserver\l\&lt; ConnectionObserver,\l Connection \&gt;::Subject">
<polygon fill="white" stroke="black" points="207.5,-0.5 207.5,-41.5 323.5,-41.5 323.5,-0.5 207.5,-0.5"/>
<text text-anchor="start" x="215.5" y="-29.5" font-family="Helvetica,sans-Serif" font-size="10.00">infra::SingleObserver</text>
<text text-anchor="start" x="215.5" y="-18.5" font-family="Helvetica,sans-Serif" font-size="10.00">&lt; ConnectionObserver,</text>
<text text-anchor="middle" x="265.5" y="-7.5" font-family="Helvetica,sans-Serif" font-size="10.00"> Connection &gt;::Subject</text>
</a>
</g>
</g>
<!-- Node148&#45;&gt;Node159 -->
<g id="edge11" class="edge"><title>Node148&#45;&gt;Node159</title>
<path fill="none" stroke="midnightblue" d="M70.8616,-213.94C81.4867,-179.917 111.958,-96.6121 167,-52 175.965,-44.7338 186.659,-39.1592 197.628,-34.8854"/>
<polygon fill="midnightblue" stroke="midnightblue" points="199.046,-38.0961 207.3,-31.4547 196.706,-31.4988 199.046,-38.0961"/>
</g>
<!-- Node151 -->
<g id="node4" class="node"><title>Node151</title>
<g id="a_node4"><a xlink:href="../../d2/d90/classinfra_1_1_stream_reader.html#a7651d2a6bbbdcbbc5f71420b277aa956" target="_top" xlink:title="infra::StreamReader\l::ExtractContiguousRange">
<polygon fill="white" stroke="black" points="420.5,-356 420.5,-386 551.5,-386 551.5,-356 420.5,-356"/>
<text text-anchor="start" x="428.5" y="-374" font-family="Helvetica,sans-Serif" font-size="10.00">infra::StreamReader</text>
<text text-anchor="middle" x="486" y="-363" font-family="Helvetica,sans-Serif" font-size="10.00">::ExtractContiguousRange</text>
</a>
</g>
</g>
<!-- Node150&#45;&gt;Node151 -->
<g id="edge3" class="edge"><title>Node150&#45;&gt;Node151</title>
<path fill="none" stroke="midnightblue" d="M315.264,-371C343.183,-371 378.798,-371 410.188,-371"/>
<polygon fill="midnightblue" stroke="midnightblue" points="410.216,-374.5 420.216,-371 410.215,-367.5 410.216,-374.5"/>
</g>
<!-- Node156 -->
<g id="node9" class="node"><title>Node156</title>
<g id="a_node9"><a xlink:href="../../de/d88/classinfra_1_1_event_dispatcher_with_weak_ptr_worker.html#ac68250c0670ca6c8c2bfadb6cdbadff7" target="_top" xlink:title="infra::EventDispatcherWith\lWeakPtrWorker::RequestExecution">
<polygon fill="white" stroke="black" points="400,-159 400,-189 572,-189 572,-159 400,-159"/>
<text text-anchor="start" x="408" y="-177" font-family="Helvetica,sans-Serif" font-size="10.00">infra::EventDispatcherWith</text>
<text text-anchor="middle" x="486" y="-166" font-family="Helvetica,sans-Serif" font-size="10.00">WeakPtrWorker::RequestExecution</text>
</a>
</g>
</g>
<!-- Node155&#45;&gt;Node156 -->
<g id="edge8" class="edge"><title>Node155&#45;&gt;Node156</title>
<path fill="none" stroke="midnightblue" d="M332.057,-174C350.148,-174 370.152,-174 389.565,-174"/>
<polygon fill="midnightblue" stroke="midnightblue" points="389.65,-177.5 399.649,-174 389.649,-170.5 389.65,-177.5"/>
</g>
</g>
</svg>
