<?xml version="1.0" encoding="UTF-8" standalone="no"?>
<!DOCTYPE svg PUBLIC "-//W3C//DTD SVG 1.1//EN"
 "http://www.w3.org/Graphics/SVG/1.1/DTD/svg11.dtd">
<!-- Generated by graphviz version 2.38.0 (20140413.2041)
 -->
<!-- Title: infra::BoundedStringBase::substr Pages: 1 -->
<!--zoomable 759 -->
<svg id="main" version="1.1" xmlns="http://www.w3.org/2000/svg" xmlns:xlink="http://www.w3.org/1999/xlink" xml:space="preserve" onload="init(evt)">
<style type="text/css"><![CDATA[
.edge:hover path { stroke: red; }
.edge:hover polygon { stroke: red; fill: red; }
]]></style>
<script type="text/javascript"><![CDATA[
var edges = document.getElementsByTagName('g');
if (edges && edges.length) {
  for (var i=0;i<edges.length;i++) {
    if (edges[i].id.substr(0,4)=='edge') {
      edges[i].setAttribute('class','edge');
    }
  }
}
]]></script>
        <defs>
                <circle id="rim" cx="0" cy="0" r="7"/>
                <circle id="rim2" cx="0" cy="0" r="3.5"/>
                <g id="zoomPlus">
                        <use xlink:href="#rim" fill="#404040">
                                <set attributeName="fill" to="#808080" begin="zoomplus.mouseover" end="zoomplus.mouseout"/>
                        </use>
                        <path d="M-4,0h8M0,-4v8" fill="none" stroke="white" stroke-width="1.5" pointer-events="none"/>
                </g>
                <g id="zoomMin">
                        <use xlink:href="#rim" fill="#404040">
                                <set attributeName="fill" to="#808080" begin="zoomminus.mouseover" end="zoomminus.mouseout"/>
                        </use>
                        <path d="M-4,0h8" fill="none" stroke="white" stroke-width="1.5" pointer-events="none"/>
                </g>
                <g id="dirArrow">
                        <path fill="none" stroke="white" stroke-width="1.5" d="M0,-3.0v7 M-2.5,-0.5L0,-3.0L2.5,-0.5"/>
                </g>
               <g id="resetDef">
                       <use xlink:href="#rim2" fill="#404040">
                               <set attributeName="fill" to="#808080" begin="reset.mouseover" end="reset.mouseout"/>
                       </use>
               </g>
        </defs>

<script type="text/javascript">
var viewWidth = 1535;
var viewHeight = 759;
var sectionId = 'dynsection-16';
</script>
<script xlink:href="../../svgpan.js"/>
<svg id="graph" class="graph">
<g id="viewport">
<title>infra::BoundedStringBase::substr</title>
<polygon fill="white" stroke="none" points="-4,4 -4,-755 1531,-755 1531,4 -4,4"/>
<!-- Node763 -->
<g id="node1" class="node"><title>Node763</title>
<polygon fill="#bfbfbf" stroke="black" points="0,-375.5 0,-405.5 127,-405.5 127,-375.5 0,-375.5"/>
<text text-anchor="start" x="8" y="-393.5" font-family="Helvetica,sans-Serif" font-size="10.00">infra::BoundedStringBase</text>
<text text-anchor="middle" x="63.5" y="-382.5" font-family="Helvetica,sans-Serif" font-size="10.00">::substr</text>
</g>
<!-- Node764 -->
<g id="node2" class="node"><title>Node764</title>
<g id="a_node2"><a xlink:href="../../d2/d55/classinfra_1_1_json_sub_object_parser.html#a54ade2c865923d904fee7d9f5b029baf" target="_top" xlink:title="infra::JsonSubObjectParser\l::Feed">
<polygon fill="white" stroke="black" points="185.5,-720.5 185.5,-750.5 320.5,-750.5 320.5,-720.5 185.5,-720.5"/>
<text text-anchor="start" x="193.5" y="-738.5" font-family="Helvetica,sans-Serif" font-size="10.00">infra::JsonSubObjectParser</text>
<text text-anchor="middle" x="253" y="-727.5" font-family="Helvetica,sans-Serif" font-size="10.00">::Feed</text>
</a>
</g>
</g>
<!-- Node763&#45;&gt;Node764 -->
<g id="edge1" class="edge"><title>Node763&#45;&gt;Node764</title>
<path fill="none" stroke="midnightblue" d="M64.5704,-415.903C66.1633,-476.066 78.7835,-628.344 163,-710.5 169.319,-716.664 177.03,-721.333 185.245,-724.866"/>
<polygon fill="midnightblue" stroke="midnightblue" points="68.0676,-415.714 64.3865,-405.779 61.0688,-415.841 68.0676,-415.714"/>
</g>
<!-- Node765 -->
<g id="node3" class="node"><title>Node765</title>
<g id="a_node3"><a xlink:href="../../db/d91/namespaceservices.html#aa8907472cb10332218662596f42a737b" target="_top" xlink:title="services::HostFromUrl">
<polygon fill="white" stroke="black" points="196.5,-682 196.5,-701 309.5,-701 309.5,-682 196.5,-682"/>
<text text-anchor="middle" x="253" y="-689" font-family="Helvetica,sans-Serif" font-size="10.00">services::HostFromUrl</text>
</a>
</g>
</g>
<!-- Node763&#45;&gt;Node765 -->
<g id="edge2" class="edge"><title>Node763&#45;&gt;Node765</title>
<path fill="none" stroke="midnightblue" d="M65.9281,-415.87C70.3925,-470.273 88.6735,-598.774 163,-667.5 172.165,-675.975 184.007,-681.513 196.045,-685.118"/>
<polygon fill="midnightblue" stroke="midnightblue" points="69.4064,-415.444 65.1883,-405.725 62.4249,-415.953 69.4064,-415.444"/>
</g>
<!-- Node767 -->
<g id="node5" class="node"><title>Node767</title>
<g id="a_node5"><a xlink:href="../../d6/dbd/classinfra_1_1_tokenizer.html#a7d67c9a4cc86e9d94b8694ae59407e02" target="_top" xlink:title="infra::Tokenizer::MakeToken">
<polygon fill="white" stroke="black" points="183.5,-606 183.5,-625 322.5,-625 322.5,-606 183.5,-606"/>
<text text-anchor="middle" x="253" y="-613" font-family="Helvetica,sans-Serif" font-size="10.00">infra::Tokenizer::MakeToken</text>
</a>
</g>
</g>
<!-- Node763&#45;&gt;Node767 -->
<g id="edge4" class="edge"><title>Node763&#45;&gt;Node767</title>
<path fill="none" stroke="midnightblue" d="M69.0609,-415.646C78.4081,-459.572 104.04,-550.023 163,-596.5 169.08,-601.293 176.093,-604.947 183.459,-607.722"/>
<polygon fill="midnightblue" stroke="midnightblue" points="72.4792,-414.89 67.0714,-405.78 65.6173,-416.274 72.4792,-414.89"/>
</g>
<!-- Node769 -->
<g id="node7" class="node"><title>Node769</title>
<g id="a_node7"><a xlink:href="../../d1/d68/classservices_1_1_http_client_impl_1_1_http_response_parser.html#a03728efaf9cbc991702311c178f460e9" target="_top" xlink:title="services::HttpClientImpl\l::HttpResponseParser::ParseStatusLine">
<polygon fill="white" stroke="black" points="567,-709.5 567,-739.5 758,-739.5 758,-709.5 567,-709.5"/>
<text text-anchor="start" x="575" y="-727.5" font-family="Helvetica,sans-Serif" font-size="10.00">services::HttpClientImpl</text>
<text text-anchor="middle" x="662.5" y="-716.5" font-family="Helvetica,sans-Serif" font-size="10.00">::HttpResponseParser::ParseStatusLine</text>
</a>
</g>
</g>
<!-- Node763&#45;&gt;Node769 -->
<g id="edge14" class="edge"><title>Node763&#45;&gt;Node769</title>
<path fill="none" stroke="midnightblue" d="M66.4462,-415.817C71.8281,-466.608 91.6527,-580.671 163,-634.5 228.648,-684.029 454.197,-644.105 531,-673.5 549.433,-680.555 549.161,-691.057 567,-699.5 575.053,-703.312 583.778,-706.611 592.559,-709.449"/>
<polygon fill="midnightblue" stroke="midnightblue" points="69.9155,-415.328 65.4801,-405.707 62.9473,-415.994 69.9155,-415.328"/>
</g>
<!-- Node774 -->
<g id="node12" class="node"><title>Node774</title>
<g id="a_node12"><a xlink:href="../../da/dc6/classservices_1_1_time_with_localization.html#ab36906663651856dbdd7702369f5a921" target="_top" xlink:title="services::TimeWithLocalization\l::OffsetFromTimeString">
<polygon fill="white" stroke="black" points="177.5,-556.5 177.5,-586.5 328.5,-586.5 328.5,-556.5 177.5,-556.5"/>
<text text-anchor="start" x="185.5" y="-574.5" font-family="Helvetica,sans-Serif" font-size="10.00">services::TimeWithLocalization</text>
<text text-anchor="middle" x="253" y="-563.5" font-family="Helvetica,sans-Serif" font-size="10.00">::OffsetFromTimeString</text>
</a>
</g>
</g>
<!-- Node763&#45;&gt;Node774 -->
<g id="edge12" class="edge"><title>Node763&#45;&gt;Node774</title>
<path fill="none" stroke="midnightblue" d="M73.237,-415.094C86.8884,-449.923 116.619,-513.187 163,-547.5 167.632,-550.926 172.72,-553.864 178.047,-556.382"/>
<polygon fill="midnightblue" stroke="midnightblue" points="76.4808,-413.777 69.6638,-405.666 69.9352,-416.258 76.4808,-413.777"/>
</g>
<!-- Node775 -->
<g id="node13" class="node"><title>Node775</title>
<g id="a_node13"><a xlink:href="../../d1/d68/classservices_1_1_http_client_impl_1_1_http_response_parser.html#a0a3548eaeba6fbb9da20db77122292e4" target="_top" xlink:title="services::HttpClientImpl\l::HttpResponseParser::ParseHeaders">
<polygon fill="white" stroke="black" points="163,-507.5 163,-537.5 343,-537.5 343,-507.5 163,-507.5"/>
<text text-anchor="start" x="171" y="-525.5" font-family="Helvetica,sans-Serif" font-size="10.00">services::HttpClientImpl</text>
<text text-anchor="middle" x="253" y="-514.5" font-family="Helvetica,sans-Serif" font-size="10.00">::HttpResponseParser::ParseHeaders</text>
</a>
</g>
</g>
<!-- Node763&#45;&gt;Node775 -->
<g id="edge13" class="edge"><title>Node763&#45;&gt;Node775</title>
<path fill="none" stroke="midnightblue" d="M80.1693,-414.09C97.5848,-438.491 127.923,-475.98 163,-497.5 169.293,-501.361 176.198,-504.641 183.292,-507.425"/>
<polygon fill="midnightblue" stroke="midnightblue" points="82.9426,-411.948 74.3529,-405.745 77.2001,-415.951 82.9426,-411.948"/>
</g>
<!-- Node776 -->
<g id="node14" class="node"><title>Node776</title>
<g id="a_node14"><a xlink:href="../../db/d91/namespaceservices.html#a5bdfa2e0a65043c99778bf1360edfd82" target="_top" xlink:title="services::PathFromUrl">
<polygon fill="white" stroke="black" points="196.5,-469 196.5,-488 309.5,-488 309.5,-469 196.5,-469"/>
<text text-anchor="middle" x="253" y="-476" font-family="Helvetica,sans-Serif" font-size="10.00">services::PathFromUrl</text>
</a>
</g>
</g>
<!-- Node763&#45;&gt;Node776 -->
<g id="edge15" class="edge"><title>Node763&#45;&gt;Node776</title>
<path fill="none" stroke="midnightblue" d="M89.1877,-412.041C108.153,-427.486 135.653,-447.591 163,-459.5 173.43,-464.042 185.033,-467.532 196.324,-470.202"/>
<polygon fill="midnightblue" stroke="midnightblue" points="91.2844,-409.233 81.3568,-405.532 86.8099,-414.616 91.2844,-409.233"/>
</g>
<!-- Node780 -->
<g id="node18" class="node"><title>Node780</title>
<g id="a_node18"><a xlink:href="../../df/dff/classservices_1_1_dns_resolver_1_1_active_lookup.html#a38ec93691d00c78f49a4a3513703eb57" target="_top" xlink:title="services::DnsResolver\l::ActiveLookup::QuerySize">
<polygon fill="white" stroke="black" points="187,-419.5 187,-449.5 319,-449.5 319,-419.5 187,-419.5"/>
<text text-anchor="start" x="195" y="-437.5" font-family="Helvetica,sans-Serif" font-size="10.00">services::DnsResolver</text>
<text text-anchor="middle" x="253" y="-426.5" font-family="Helvetica,sans-Serif" font-size="10.00">::ActiveLookup::QuerySize</text>
</a>
</g>
</g>
<!-- Node763&#45;&gt;Node780 -->
<g id="edge19" class="edge"><title>Node763&#45;&gt;Node780</title>
<path fill="none" stroke="midnightblue" d="M137.4,-407.607C154.012,-411.505 171.543,-415.619 187.763,-419.426"/>
<polygon fill="midnightblue" stroke="midnightblue" points="137.731,-404.09 127.195,-405.213 136.131,-410.905 137.731,-404.09"/>
</g>
<!-- Node781 -->
<g id="node19" class="node"><title>Node781</title>
<g id="a_node19"><a xlink:href="../../df/dd0/classinfra_1_1_json_iterator.html#a5cbc18726700531f5f5e28ccca321d87" target="_top" xlink:title="infra::JsonIterator\l::ReadArrayValue">
<polygon fill="white" stroke="black" points="818,-238.5 818,-268.5 911,-268.5 911,-238.5 818,-238.5"/>
<text text-anchor="start" x="826" y="-256.5" font-family="Helvetica,sans-Serif" font-size="10.00">infra::JsonIterator</text>
<text text-anchor="middle" x="864.5" y="-245.5" font-family="Helvetica,sans-Serif" font-size="10.00">::ReadArrayValue</text>
</a>
</g>
</g>
<!-- Node763&#45;&gt;Node781 -->
<g id="edge20" class="edge"><title>Node763&#45;&gt;Node781</title>
<path fill="none" stroke="midnightblue" d="M70.8264,-365.563C82.0562,-327.203 109.497,-254.966 163,-224.5 193.597,-207.078 483.193,-196.959 758,-229.5 777.866,-231.852 799.462,-236.401 817.91,-240.912"/>
<polygon fill="midnightblue" stroke="midnightblue" points="67.3922,-364.849 68.0808,-375.421 74.1356,-366.727 67.3922,-364.849"/>
</g>
<!-- Node788 -->
<g id="node26" class="node"><title>Node788</title>
<g id="a_node26"><a xlink:href="../../df/dd0/classinfra_1_1_json_iterator.html#a95bf1b7210594ae3d6a4615f1815b7ec" target="_top" xlink:title="infra::JsonIterator\l::ReadObjectValue">
<polygon fill="white" stroke="black" points="815.5,-364.5 815.5,-394.5 913.5,-394.5 913.5,-364.5 815.5,-364.5"/>
<text text-anchor="start" x="823.5" y="-382.5" font-family="Helvetica,sans-Serif" font-size="10.00">infra::JsonIterator</text>
<text text-anchor="middle" x="864.5" y="-371.5" font-family="Helvetica,sans-Serif" font-size="10.00">::ReadObjectValue</text>
</a>
</g>
</g>
<!-- Node763&#45;&gt;Node788 -->
<g id="edge27" class="edge"><title>Node763&#45;&gt;Node788</title>
<path fill="none" stroke="midnightblue" d="M137.323,-394.482C290.091,-402.423 639.688,-418.327 758,-404.5 776.976,-402.282 797.49,-397.893 815.338,-393.403"/>
<polygon fill="midnightblue" stroke="midnightblue" points="137.279,-390.975 127.109,-393.947 136.913,-397.965 137.279,-390.975"/>
</g>
<!-- Node789 -->
<g id="node27" class="node"><title>Node789</title>
<g id="a_node27"><a xlink:href="../../d2/db3/classservices_1_1_http_server_connection_observer.html#a6213f7b12f5fb1c0ddbabdb859ddca0a" target="_top" xlink:title="services::HttpServerConnection\lObserver::ReceivedRequest">
<polygon fill="white" stroke="black" points="177,-137.5 177,-167.5 329,-167.5 329,-137.5 177,-137.5"/>
<text text-anchor="start" x="185" y="-155.5" font-family="Helvetica,sans-Serif" font-size="10.00">services::HttpServerConnection</text>
<text text-anchor="middle" x="253" y="-144.5" font-family="Helvetica,sans-Serif" font-size="10.00">Observer::ReceivedRequest</text>
</a>
</g>
</g>
<!-- Node763&#45;&gt;Node789 -->
<g id="edge29" class="edge"><title>Node763&#45;&gt;Node789</title>
<path fill="none" stroke="midnightblue" d="M69.6901,-365.198C79.9082,-321.688 106.71,-232.554 163,-182.5 169.945,-176.324 178.21,-171.411 186.863,-167.505"/>
<polygon fill="midnightblue" stroke="midnightblue" points="66.2145,-364.702 67.4417,-375.226 73.0449,-366.234 66.2145,-364.702"/>
</g>
<!-- Node792 -->
<g id="node30" class="node"><title>Node792</title>
<g id="a_node30"><a xlink:href="../../db/d91/namespaceservices.html#ae6f6cb3667dbdb5ca982b2eb40f37a46" target="_top" xlink:title="services::SchemeFromUrl">
<polygon fill="white" stroke="black" points="189,-99 189,-118 317,-118 317,-99 189,-99"/>
<text text-anchor="middle" x="253" y="-106" font-family="Helvetica,sans-Serif" font-size="10.00">services::SchemeFromUrl</text>
</a>
</g>
</g>
<!-- Node763&#45;&gt;Node792 -->
<g id="edge32" class="edge"><title>Node763&#45;&gt;Node792</title>
<path fill="none" stroke="midnightblue" d="M66.2777,-365.17C71.3858,-312.603 90.7886,-191.34 163,-128.5 170.407,-122.054 179.446,-117.558 188.893,-114.444"/>
<polygon fill="midnightblue" stroke="midnightblue" points="62.7765,-365.032 65.3908,-375.299 69.7498,-365.642 62.7765,-365.032"/>
</g>
<!-- Node793 -->
<g id="node31" class="node"><title>Node793</title>
<g id="a_node31"><a xlink:href="../../d9/d36/classservices_1_1_tracing_connection_mbed_tls.html#a2068fde3a3e451d63ebfd73f0f295f8a" target="_top" xlink:title="services::TracingConnection\lMbedTls::TlsLog">
<polygon fill="white" stroke="black" points="184,-49.5 184,-79.5 322,-79.5 322,-49.5 184,-49.5"/>
<text text-anchor="start" x="192" y="-67.5" font-family="Helvetica,sans-Serif" font-size="10.00">services::TracingConnection</text>
<text text-anchor="middle" x="253" y="-56.5" font-family="Helvetica,sans-Serif" font-size="10.00">MbedTls::TlsLog</text>
</a>
</g>
</g>
<!-- Node763&#45;&gt;Node793 -->
<g id="edge33" class="edge"><title>Node763&#45;&gt;Node793</title>
<path fill="none" stroke="midnightblue" d="M65.1358,-365.416C67.9875,-307.978 83.1956,-165.989 163,-89.5 168.909,-83.8362 175.996,-79.4369 183.557,-76.023"/>
<polygon fill="midnightblue" stroke="midnightblue" points="61.638,-365.292 64.7244,-375.427 68.6321,-365.58 61.638,-365.292"/>
</g>
<!-- Node794 -->
<g id="node32" class="node"><title>Node794</title>
<g id="a_node32"><a xlink:href="../../d3/d5c/classinfra_1_1_json_tokenizer.html#a7fde4788359094c8ac575d0aea08a33b" target="_top" xlink:title="infra::JsonTokenizer\l::TryCreateIdentifierToken">
<polygon fill="white" stroke="black" points="189.5,-331.5 189.5,-361.5 316.5,-361.5 316.5,-331.5 189.5,-331.5"/>
<text text-anchor="start" x="197.5" y="-349.5" font-family="Helvetica,sans-Serif" font-size="10.00">infra::JsonTokenizer</text>
<text text-anchor="middle" x="253" y="-338.5" font-family="Helvetica,sans-Serif" font-size="10.00">::TryCreateIdentifierToken</text>
</a>
</g>
</g>
<!-- Node763&#45;&gt;Node794 -->
<g id="edge34" class="edge"><title>Node763&#45;&gt;Node794</title>
<path fill="none" stroke="midnightblue" d="M137.199,-373.44C154.418,-369.399 172.636,-365.124 189.364,-361.199"/>
<polygon fill="midnightblue" stroke="midnightblue" points="136.131,-370.095 127.195,-375.787 137.731,-376.91 136.131,-370.095"/>
</g>
<!-- Node799 -->
<g id="node37" class="node"><title>Node799</title>
<g id="a_node37"><a xlink:href="../../d3/d5c/classinfra_1_1_json_tokenizer.html#a4203f4a0d1a65b20672053d7a4e5b8be" target="_top" xlink:title="infra::JsonTokenizer\l::TryCreateIntegerToken">
<polygon fill="white" stroke="black" points="193,-282.5 193,-312.5 313,-312.5 313,-282.5 193,-282.5"/>
<text text-anchor="start" x="201" y="-300.5" font-family="Helvetica,sans-Serif" font-size="10.00">infra::JsonTokenizer</text>
<text text-anchor="middle" x="253" y="-289.5" font-family="Helvetica,sans-Serif" font-size="10.00">::TryCreateIntegerToken</text>
</a>
</g>
</g>
<!-- Node763&#45;&gt;Node799 -->
<g id="edge43" class="edge"><title>Node763&#45;&gt;Node799</title>
<path fill="none" stroke="midnightblue" d="M90.5239,-368.962C109.582,-354.111 136.621,-334.888 163,-322.5 172.297,-318.134 182.509,-314.388 192.596,-311.226"/>
<polygon fill="midnightblue" stroke="midnightblue" points="88.2772,-366.277 82.6153,-375.232 92.6259,-371.763 88.2772,-366.277"/>
</g>
<!-- Node800 -->
<g id="node38" class="node"><title>Node800</title>
<g id="a_node38"><a xlink:href="../../d3/d5c/classinfra_1_1_json_tokenizer.html#a6b99af199f5f080d408375a0f23ac32c" target="_top" xlink:title="infra::JsonTokenizer\l::TryCreateStringToken">
<polygon fill="white" stroke="black" points="195,-233.5 195,-263.5 311,-263.5 311,-233.5 195,-233.5"/>
<text text-anchor="start" x="203" y="-251.5" font-family="Helvetica,sans-Serif" font-size="10.00">infra::JsonTokenizer</text>
<text text-anchor="middle" x="253" y="-240.5" font-family="Helvetica,sans-Serif" font-size="10.00">::TryCreateStringToken</text>
</a>
</g>
</g>
<!-- Node763&#45;&gt;Node800 -->
<g id="edge45" class="edge"><title>Node763&#45;&gt;Node800</title>
<path fill="none" stroke="midnightblue" d="M78.3392,-366.751C95.0648,-340.132 125.665,-297.56 163,-273.5 172.579,-267.327 183.69,-262.656 194.747,-259.127"/>
<polygon fill="midnightblue" stroke="midnightblue" points="75.2528,-365.089 73.0135,-375.445 81.2218,-368.746 75.2528,-365.089"/>
</g>
<!-- Node801 -->
<g id="node39" class="node"><title>Node801</title>
<g id="a_node39"><a xlink:href="../../df/dff/classservices_1_1_dns_resolver_1_1_active_lookup.html#afb9dc39f9a86289a352ceff132e6c0b5" target="_top" xlink:title="services::DnsResolver\l::ActiveLookup::WriteHostname">
<polygon fill="white" stroke="black" points="176,-0.5 176,-30.5 330,-30.5 330,-0.5 176,-0.5"/>
<text text-anchor="start" x="184" y="-18.5" font-family="Helvetica,sans-Serif" font-size="10.00">services::DnsResolver</text>
<text text-anchor="middle" x="253" y="-7.5" font-family="Helvetica,sans-Serif" font-size="10.00">::ActiveLookup::WriteHostname</text>
</a>
</g>
</g>
<!-- Node763&#45;&gt;Node801 -->
<g id="edge47" class="edge"><title>Node763&#45;&gt;Node801</title>
<path fill="none" stroke="midnightblue" d="M63.7711,-364.982C63.3928,-300.906 71.6044,-131.851 163,-40.5 166.859,-36.6424 171.264,-33.3685 176,-30.5913"/>
<polygon fill="midnightblue" stroke="midnightblue" points="60.2765,-365.398 63.916,-375.348 67.2758,-365.3 60.2765,-365.398"/>
</g>
<!-- Node766 -->
<g id="node4" class="node"><title>Node766</title>
<g id="a_node4"><a xlink:href="../../db/dae/classservices_1_1_http_client_basic.html#a3131b408e83a8d53e6b1b67da0c07ba8" target="_top" xlink:title="services::HttpClientBasic\l::Hostname">
<polygon fill="white" stroke="black" points="392.5,-682.5 392.5,-712.5 517.5,-712.5 517.5,-682.5 392.5,-682.5"/>
<text text-anchor="start" x="400.5" y="-700.5" font-family="Helvetica,sans-Serif" font-size="10.00">services::HttpClientBasic</text>
<text text-anchor="middle" x="455" y="-689.5" font-family="Helvetica,sans-Serif" font-size="10.00">::Hostname</text>
</a>
</g>
</g>
<!-- Node765&#45;&gt;Node766 -->
<g id="edge3" class="edge"><title>Node765&#45;&gt;Node766</title>
<path fill="none" stroke="midnightblue" d="M319.858,-693.476C343.173,-694.175 369.303,-694.959 392.263,-695.648"/>
<polygon fill="midnightblue" stroke="midnightblue" points="319.812,-689.973 309.711,-693.171 319.602,-696.97 319.812,-689.973"/>
</g>
<!-- Node768 -->
<g id="node6" class="node"><title>Node768</title>
<g id="a_node6"><a xlink:href="../../d6/dbd/classinfra_1_1_tokenizer.html#a9fea0107788ee101b1718a3cf526af72" target="_top" xlink:title="infra::Tokenizer::Token">
<polygon fill="white" stroke="black" points="397.5,-606 397.5,-625 512.5,-625 512.5,-606 397.5,-606"/>
<text text-anchor="middle" x="455" y="-613" font-family="Helvetica,sans-Serif" font-size="10.00">infra::Tokenizer::Token</text>
</a>
</g>
</g>
<!-- Node767&#45;&gt;Node768 -->
<g id="edge5" class="edge"><title>Node767&#45;&gt;Node768</title>
<path fill="none" stroke="midnightblue" d="M332.706,-615.5C354.341,-615.5 377.371,-615.5 397.486,-615.5"/>
<polygon fill="midnightblue" stroke="midnightblue" points="332.549,-612 322.549,-615.5 332.549,-619 332.549,-612"/>
</g>
<!-- Node768&#45;&gt;Node769 -->
<g id="edge6" class="edge"><title>Node768&#45;&gt;Node769</title>
<path fill="none" stroke="midnightblue" d="M513.235,-628.914C519.585,-631.792 525.672,-635.279 531,-639.5 555.375,-658.813 542.14,-680.816 567,-699.5 572.155,-703.374 577.862,-706.65 583.843,-709.418"/>
<polygon fill="midnightblue" stroke="midnightblue" points="514.383,-625.603 503.799,-625.117 511.77,-632.097 514.383,-625.603"/>
</g>
<!-- Node770 -->
<g id="node8" class="node"><title>Node770</title>
<g id="a_node8"><a xlink:href="../../d1/d68/classservices_1_1_http_client_impl_1_1_http_response_parser.html#ab86e0af86e056eae73398d07d0460d93" target="_top" xlink:title="services::HttpClientImpl\l::HttpResponseParser::HeaderFrom\lString">
<polygon fill="white" stroke="black" points="576.5,-649 576.5,-690 748.5,-690 748.5,-649 576.5,-649"/>
<text text-anchor="start" x="584.5" y="-678" font-family="Helvetica,sans-Serif" font-size="10.00">services::HttpClientImpl</text>
<text text-anchor="start" x="584.5" y="-667" font-family="Helvetica,sans-Serif" font-size="10.00">::HttpResponseParser::HeaderFrom</text>
<text text-anchor="middle" x="662.5" y="-656" font-family="Helvetica,sans-Serif" font-size="10.00">String</text>
</a>
</g>
</g>
<!-- Node768&#45;&gt;Node770 -->
<g id="edge7" class="edge"><title>Node768&#45;&gt;Node770</title>
<path fill="none" stroke="midnightblue" d="M502.144,-627.625C526.102,-633.921 556.028,-641.785 583.458,-648.993"/>
<polygon fill="midnightblue" stroke="midnightblue" points="502.827,-624.186 492.266,-625.03 501.048,-630.956 502.827,-624.186"/>
</g>
<!-- Node771 -->
<g id="node9" class="node"><title>Node771</title>
<g id="a_node9"><a xlink:href="../../d2/d29/classservices_1_1_http_request_parser_impl.html#a9eeee4c3c375323c0bc2b6a80157aa9e" target="_top" xlink:title="services::HttpRequestParser\lImpl::FindVerb">
<polygon fill="white" stroke="black" points="592.5,-599.5 592.5,-629.5 732.5,-629.5 732.5,-599.5 592.5,-599.5"/>
<text text-anchor="start" x="600.5" y="-617.5" font-family="Helvetica,sans-Serif" font-size="10.00">services::HttpRequestParser</text>
<text text-anchor="middle" x="662.5" y="-606.5" font-family="Helvetica,sans-Serif" font-size="10.00">Impl::FindVerb</text>
</a>
</g>
</g>
<!-- Node768&#45;&gt;Node771 -->
<g id="edge8" class="edge"><title>Node768&#45;&gt;Node771</title>
<path fill="none" stroke="midnightblue" d="M522.713,-615.175C544.945,-615.067 569.754,-614.946 592.179,-614.837"/>
<polygon fill="midnightblue" stroke="midnightblue" points="522.681,-611.675 512.698,-615.224 522.715,-618.675 522.681,-611.675"/>
</g>
<!-- Node773 -->
<g id="node11" class="node"><title>Node773</title>
<g id="a_node11"><a xlink:href="../../d2/d29/classservices_1_1_http_request_parser_impl.html#ac4dd3a05dbd4289b4f12f85bd444f0d5" target="_top" xlink:title="services::HttpRequestParser\lImpl::FindPath">
<polygon fill="white" stroke="black" points="592.5,-550.5 592.5,-580.5 732.5,-580.5 732.5,-550.5 592.5,-550.5"/>
<text text-anchor="start" x="600.5" y="-568.5" font-family="Helvetica,sans-Serif" font-size="10.00">services::HttpRequestParser</text>
<text text-anchor="middle" x="662.5" y="-557.5" font-family="Helvetica,sans-Serif" font-size="10.00">Impl::FindPath</text>
</a>
</g>
</g>
<!-- Node768&#45;&gt;Node773 -->
<g id="edge10" class="edge"><title>Node768&#45;&gt;Node773</title>
<path fill="none" stroke="midnightblue" d="M505.193,-603.531C533.476,-596.649 569.275,-587.939 599.474,-580.591"/>
<polygon fill="midnightblue" stroke="midnightblue" points="504.026,-600.213 495.137,-605.978 505.681,-607.014 504.026,-600.213"/>
</g>
<!-- Node772 -->
<g id="node10" class="node"><title>Node772</title>
<g id="a_node10"><a xlink:href="../../d2/d29/classservices_1_1_http_request_parser_impl.html#a0cbb30e51fa49af4b15ec76f087c2725" target="_top" xlink:title="services::HttpRequestParser\lImpl::HttpRequestParserImpl">
<polygon fill="white" stroke="black" points="794,-574.5 794,-604.5 935,-604.5 935,-574.5 794,-574.5"/>
<text text-anchor="start" x="802" y="-592.5" font-family="Helvetica,sans-Serif" font-size="10.00">services::HttpRequestParser</text>
<text text-anchor="middle" x="864.5" y="-581.5" font-family="Helvetica,sans-Serif" font-size="10.00">Impl::HttpRequestParserImpl</text>
</a>
</g>
</g>
<!-- Node771&#45;&gt;Node772 -->
<g id="edge9" class="edge"><title>Node771&#45;&gt;Node772</title>
<path fill="none" stroke="midnightblue" d="M742.937,-604.57C759.722,-602.472 777.314,-600.273 793.71,-598.224"/>
<polygon fill="midnightblue" stroke="midnightblue" points="742.097,-601.148 732.609,-605.861 742.966,-608.094 742.097,-601.148"/>
</g>
<!-- Node773&#45;&gt;Node772 -->
<g id="edge11" class="edge"><title>Node773&#45;&gt;Node772</title>
<path fill="none" stroke="midnightblue" d="M742.937,-575.032C759.722,-577.047 777.314,-579.158 793.71,-581.125"/>
<polygon fill="midnightblue" stroke="midnightblue" points="742.955,-571.51 732.609,-573.793 742.12,-578.46 742.955,-571.51"/>
</g>
<!-- Node777 -->
<g id="node15" class="node"><title>Node777</title>
<g id="a_node15"><a xlink:href="../../db/dae/classservices_1_1_http_client_basic.html#afe3f34509600d5aa457f0fe9c59af112" target="_top" xlink:title="services::HttpClientBasic\l::Path">
<polygon fill="white" stroke="black" points="392.5,-463.5 392.5,-493.5 517.5,-493.5 517.5,-463.5 392.5,-463.5"/>
<text text-anchor="start" x="400.5" y="-481.5" font-family="Helvetica,sans-Serif" font-size="10.00">services::HttpClientBasic</text>
<text text-anchor="middle" x="455" y="-470.5" font-family="Helvetica,sans-Serif" font-size="10.00">::Path</text>
</a>
</g>
</g>
<!-- Node776&#45;&gt;Node777 -->
<g id="edge16" class="edge"><title>Node776&#45;&gt;Node777</title>
<path fill="none" stroke="midnightblue" d="M319.858,-478.5C343.173,-478.5 369.303,-478.5 392.263,-478.5"/>
<polygon fill="midnightblue" stroke="midnightblue" points="319.711,-475 309.711,-478.5 319.711,-482 319.711,-475"/>
</g>
<!-- Node778 -->
<g id="node16" class="node"><title>Node778</title>
<g id="a_node16"><a xlink:href="../../df/dd9/classservices_1_1_http_client_json.html#ab4d16df0033aab2282ed087d7eaf8b19" target="_top" xlink:title="services::HttpClientJson\l::Connected">
<polygon fill="white" stroke="black" points="602,-501.5 602,-531.5 723,-531.5 723,-501.5 602,-501.5"/>
<text text-anchor="start" x="610" y="-519.5" font-family="Helvetica,sans-Serif" font-size="10.00">services::HttpClientJson</text>
<text text-anchor="middle" x="662.5" y="-508.5" font-family="Helvetica,sans-Serif" font-size="10.00">::Connected</text>
</a>
</g>
</g>
<!-- Node777&#45;&gt;Node778 -->
<g id="edge17" class="edge"><title>Node777&#45;&gt;Node778</title>
<path fill="none" stroke="midnightblue" d="M527.498,-491.721C551.698,-496.196 578.454,-501.144 601.653,-505.433"/>
<polygon fill="midnightblue" stroke="midnightblue" points="528.127,-488.278 517.657,-489.901 526.854,-495.161 528.127,-488.278"/>
</g>
<!-- Node779 -->
<g id="node17" class="node"><title>Node779</title>
<g id="a_node17"><a xlink:href="../../d7/da4/classapplication_1_1_tracing_http_client.html#afaf22b944651d759337a20329916d4ef" target="_top" xlink:title="application::TracingHttp\lClient::Connected">
<polygon fill="white" stroke="black" points="603,-452.5 603,-482.5 722,-482.5 722,-452.5 603,-452.5"/>
<text text-anchor="start" x="611" y="-470.5" font-family="Helvetica,sans-Serif" font-size="10.00">application::TracingHttp</text>
<text text-anchor="middle" x="662.5" y="-459.5" font-family="Helvetica,sans-Serif" font-size="10.00">Client::Connected</text>
</a>
</g>
</g>
<!-- Node777&#45;&gt;Node779 -->
<g id="edge18" class="edge"><title>Node777&#45;&gt;Node779</title>
<path fill="none" stroke="midnightblue" d="M527.958,-474.648C552.405,-473.34 579.413,-471.894 602.707,-470.647"/>
<polygon fill="midnightblue" stroke="midnightblue" points="527.455,-471.17 517.657,-475.2 527.83,-478.16 527.455,-471.17"/>
</g>
<!-- Node782 -->
<g id="node20" class="node"><title>Node782</title>
<g id="a_node20"><a xlink:href="../../df/dd0/classinfra_1_1_json_iterator.html#a64881daeae1df6109b9de0a523ead550" target="_top" xlink:title="infra::JsonIterator\l::ConvertValue">
<polygon fill="white" stroke="black" points="971,-238.5 971,-268.5 1062,-268.5 1062,-238.5 971,-238.5"/>
<text text-anchor="start" x="979" y="-256.5" font-family="Helvetica,sans-Serif" font-size="10.00">infra::JsonIterator</text>
<text text-anchor="middle" x="1016.5" y="-245.5" font-family="Helvetica,sans-Serif" font-size="10.00">::ConvertValue</text>
</a>
</g>
</g>
<!-- Node781&#45;&gt;Node782 -->
<g id="edge21" class="edge"><title>Node781&#45;&gt;Node782</title>
<path fill="none" stroke="midnightblue" d="M921.324,-253.5C937.712,-253.5 955.409,-253.5 970.99,-253.5"/>
<polygon fill="midnightblue" stroke="midnightblue" points="921.32,-250 911.32,-253.5 921.32,-257 921.32,-250"/>
</g>
<!-- Node783 -->
<g id="node21" class="node"><title>Node783</title>
<g id="a_node21"><a xlink:href="../../dd/d2a/classinfra_1_1_json_object_iterator.html#a44bd40e5f060140d1825eac9864bb371" target="_top" xlink:title="infra::JsonObjectIterator\l::ReadValue">
<polygon fill="white" stroke="black" points="1098,-272.5 1098,-302.5 1217,-302.5 1217,-272.5 1098,-272.5"/>
<text text-anchor="start" x="1106" y="-290.5" font-family="Helvetica,sans-Serif" font-size="10.00">infra::JsonObjectIterator</text>
<text text-anchor="middle" x="1157.5" y="-279.5" font-family="Helvetica,sans-Serif" font-size="10.00">::ReadValue</text>
</a>
</g>
</g>
<!-- Node782&#45;&gt;Node783 -->
<g id="edge22" class="edge"><title>Node782&#45;&gt;Node783</title>
<path fill="none" stroke="midnightblue" d="M1072.03,-266.838C1080.51,-268.913 1089.31,-271.065 1097.88,-273.161"/>
<polygon fill="midnightblue" stroke="midnightblue" points="1072.79,-263.421 1062.25,-264.445 1071.13,-270.221 1072.79,-263.421"/>
</g>
<!-- Node786 -->
<g id="node24" class="node"><title>Node786</title>
<g id="a_node24"><a xlink:href="../../d8/ddc/classinfra_1_1_json_array_iterator.html#a5f9b30fbc98817ad106c0b731c51393f" target="_top" xlink:title="infra::JsonArrayIterator\l::ReadValue">
<polygon fill="white" stroke="black" points="1100.5,-223.5 1100.5,-253.5 1214.5,-253.5 1214.5,-223.5 1100.5,-223.5"/>
<text text-anchor="start" x="1108.5" y="-241.5" font-family="Helvetica,sans-Serif" font-size="10.00">infra::JsonArrayIterator</text>
<text text-anchor="middle" x="1157.5" y="-230.5" font-family="Helvetica,sans-Serif" font-size="10.00">::ReadValue</text>
</a>
</g>
</g>
<!-- Node782&#45;&gt;Node786 -->
<g id="edge25" class="edge"><title>Node782&#45;&gt;Node786</title>
<path fill="none" stroke="midnightblue" d="M1072.36,-247.58C1081.49,-246.595 1090.96,-245.572 1100.13,-244.584"/>
<polygon fill="midnightblue" stroke="midnightblue" points="1071.81,-244.119 1062.25,-248.671 1072.56,-251.078 1071.81,-244.119"/>
</g>
<!-- Node784 -->
<g id="node22" class="node"><title>Node784</title>
<g id="a_node22"><a xlink:href="../../dd/d2a/classinfra_1_1_json_object_iterator.html#ac505bfd75a0906a2f69e1d6fe252710a" target="_top" xlink:title="infra::JsonObjectIterator\l::ParseNextToken">
<polygon fill="white" stroke="black" points="1253,-283.5 1253,-313.5 1372,-313.5 1372,-283.5 1253,-283.5"/>
<text text-anchor="start" x="1261" y="-301.5" font-family="Helvetica,sans-Serif" font-size="10.00">infra::JsonObjectIterator</text>
<text text-anchor="middle" x="1312.5" y="-290.5" font-family="Helvetica,sans-Serif" font-size="10.00">::ParseNextToken</text>
</a>
</g>
</g>
<!-- Node783&#45;&gt;Node784 -->
<g id="edge23" class="edge"><title>Node783&#45;&gt;Node784</title>
<path fill="none" stroke="midnightblue" d="M1227.21,-292.44C1235.8,-293.058 1244.53,-293.685 1252.94,-294.29"/>
<polygon fill="midnightblue" stroke="midnightblue" points="1227.44,-288.948 1217.22,-291.721 1226.94,-295.93 1227.44,-288.948"/>
</g>
<!-- Node785 -->
<g id="node23" class="node"><title>Node785</title>
<g id="a_node23"><a xlink:href="../../dd/d2a/classinfra_1_1_json_object_iterator.html#a5da85e17d711d0e3fb813e1cabb4e6b4" target="_top" xlink:title="infra::JsonObjectIterator\l::operator++">
<polygon fill="white" stroke="black" points="1408,-283.5 1408,-313.5 1527,-313.5 1527,-283.5 1408,-283.5"/>
<text text-anchor="start" x="1416" y="-301.5" font-family="Helvetica,sans-Serif" font-size="10.00">infra::JsonObjectIterator</text>
<text text-anchor="middle" x="1467.5" y="-290.5" font-family="Helvetica,sans-Serif" font-size="10.00">::operator++</text>
</a>
</g>
</g>
<!-- Node784&#45;&gt;Node785 -->
<g id="edge24" class="edge"><title>Node784&#45;&gt;Node785</title>
<path fill="none" stroke="midnightblue" d="M1382.49,-298.5C1390.99,-298.5 1399.62,-298.5 1407.94,-298.5"/>
<polygon fill="midnightblue" stroke="midnightblue" points="1382.22,-295 1372.22,-298.5 1382.22,-302 1382.22,-295"/>
</g>
<!-- Node787 -->
<g id="node25" class="node"><title>Node787</title>
<g id="a_node25"><a xlink:href="../../d8/ddc/classinfra_1_1_json_array_iterator.html#a913ccca2cb5a578d9c07d88029416e7f" target="_top" xlink:title="infra::JsonArrayIterator\l::operator++">
<polygon fill="white" stroke="black" points="1255.5,-212.5 1255.5,-242.5 1369.5,-242.5 1369.5,-212.5 1255.5,-212.5"/>
<text text-anchor="start" x="1263.5" y="-230.5" font-family="Helvetica,sans-Serif" font-size="10.00">infra::JsonArrayIterator</text>
<text text-anchor="middle" x="1312.5" y="-219.5" font-family="Helvetica,sans-Serif" font-size="10.00">::operator++</text>
</a>
</g>
</g>
<!-- Node786&#45;&gt;Node787 -->
<g id="edge26" class="edge"><title>Node786&#45;&gt;Node787</title>
<path fill="none" stroke="midnightblue" d="M1224.72,-233.739C1234.95,-233.004 1245.43,-232.25 1255.4,-231.533"/>
<polygon fill="midnightblue" stroke="midnightblue" points="1224.33,-230.258 1214.6,-234.466 1224.83,-237.24 1224.33,-230.258"/>
</g>
<!-- Node788&#45;&gt;Node782 -->
<g id="edge28" class="edge"><title>Node788&#45;&gt;Node782</title>
<path fill="none" stroke="midnightblue" d="M891.595,-357.58C921.857,-332.16 970.952,-290.92 997.342,-268.752"/>
<polygon fill="midnightblue" stroke="midnightblue" points="888.999,-355.19 883.594,-364.301 893.502,-360.549 888.999,-355.19"/>
</g>
<!-- Node790 -->
<g id="node28" class="node"><title>Node790</title>
<g id="a_node28"><a xlink:href="../../d2/db3/classservices_1_1_http_server_connection_observer.html#a3c5cabea13da6e140280b1b8c77244b3" target="_top" xlink:title="services::HttpServerConnection\lObserver::DataReceived">
<polygon fill="white" stroke="black" points="379,-117.5 379,-147.5 531,-147.5 531,-117.5 379,-117.5"/>
<text text-anchor="start" x="387" y="-135.5" font-family="Helvetica,sans-Serif" font-size="10.00">services::HttpServerConnection</text>
<text text-anchor="middle" x="455" y="-124.5" font-family="Helvetica,sans-Serif" font-size="10.00">Observer::DataReceived</text>
</a>
</g>
</g>
<!-- Node789&#45;&gt;Node790 -->
<g id="edge30" class="edge"><title>Node789&#45;&gt;Node790</title>
<path fill="none" stroke="midnightblue" d="M339.072,-143.993C352.299,-142.67 365.884,-141.312 378.87,-140.013"/>
<polygon fill="midnightblue" stroke="midnightblue" points="338.644,-140.518 329.042,-144.996 339.34,-147.483 338.644,-140.518"/>
</g>
<!-- Node791 -->
<g id="node29" class="node"><title>Node791</title>
<g id="a_node29"><a xlink:href="../../d2/db3/classservices_1_1_http_server_connection_observer.html#a579fc75f469c5b79141187fc04dbf74c" target="_top" xlink:title="services::HttpServerConnection\lObserver::SendStreamAvailable">
<polygon fill="white" stroke="black" points="586,-112.5 586,-142.5 739,-142.5 739,-112.5 586,-112.5"/>
<text text-anchor="start" x="594" y="-130.5" font-family="Helvetica,sans-Serif" font-size="10.00">services::HttpServerConnection</text>
<text text-anchor="middle" x="662.5" y="-119.5" font-family="Helvetica,sans-Serif" font-size="10.00">Observer::SendStreamAvailable</text>
</a>
</g>
</g>
<!-- Node790&#45;&gt;Node791 -->
<g id="edge31" class="edge"><title>Node790&#45;&gt;Node791</title>
<path fill="none" stroke="midnightblue" d="M541.235,-130.426C556.068,-130.065 571.403,-129.692 585.953,-129.338"/>
<polygon fill="midnightblue" stroke="midnightblue" points="540.974,-126.931 531.063,-130.674 541.145,-133.929 540.974,-126.931"/>
</g>
<!-- Node795 -->
<g id="node33" class="node"><title>Node795</title>
<g id="a_node33"><a xlink:href="../../d3/d5c/classinfra_1_1_json_tokenizer.html#a02d850fd493943206196aff4c975aac5" target="_top" xlink:title="infra::JsonTokenizer\l::Token">
<polygon fill="white" stroke="black" points="403.5,-282.5 403.5,-312.5 506.5,-312.5 506.5,-282.5 403.5,-282.5"/>
<text text-anchor="start" x="411.5" y="-300.5" font-family="Helvetica,sans-Serif" font-size="10.00">infra::JsonTokenizer</text>
<text text-anchor="middle" x="455" y="-289.5" font-family="Helvetica,sans-Serif" font-size="10.00">::Token</text>
</a>
</g>
</g>
<!-- Node794&#45;&gt;Node795 -->
<g id="edge35" class="edge"><title>Node794&#45;&gt;Node795</title>
<path fill="none" stroke="midnightblue" d="M325.136,-329.072C351.033,-322.727 379.753,-315.69 403.496,-309.873"/>
<polygon fill="midnightblue" stroke="midnightblue" points="324.246,-325.686 315.366,-331.465 325.911,-332.485 324.246,-325.686"/>
</g>
<!-- Node795&#45;&gt;Node784 -->
<g id="edge40" class="edge"><title>Node795&#45;&gt;Node784</title>
<path fill="none" stroke="midnightblue" d="M517.033,-299.401C631.121,-302.848 884.49,-310.006 1098,-312.5 1150.89,-313.118 1164.25,-316.386 1217,-312.5 1228.66,-311.641 1241.07,-310.193 1252.92,-308.546"/>
<polygon fill="midnightblue" stroke="midnightblue" points="516.862,-295.894 506.76,-299.089 516.65,-302.891 516.862,-295.894"/>
</g>
<!-- Node795&#45;&gt;Node787 -->
<g id="edge41" class="edge"><title>Node795&#45;&gt;Node787</title>
<path fill="none" stroke="midnightblue" d="M481.727,-276.305C503.097,-260.105 535.063,-238.994 567,-229.5 793.307,-162.228 861.929,-217.834 1098,-214.5 1150.88,-213.753 1164.23,-210.888 1217,-214.5 1229.47,-215.354 1242.81,-216.835 1255.41,-218.499"/>
<polygon fill="midnightblue" stroke="midnightblue" points="479.555,-273.56 473.802,-282.458 483.848,-279.09 479.555,-273.56"/>
</g>
<!-- Node796 -->
<g id="node34" class="node"><title>Node796</title>
<g id="a_node34"><a xlink:href="../../df/dd0/classinfra_1_1_json_iterator.html#a7fa7a63543c9f03f7010952d42a9cfef" target="_top" xlink:title="infra::JsonIterator\l::SearchObjectEnd">
<polygon fill="white" stroke="black" points="613,-364.5 613,-394.5 712,-394.5 712,-364.5 613,-364.5"/>
<text text-anchor="start" x="621" y="-382.5" font-family="Helvetica,sans-Serif" font-size="10.00">infra::JsonIterator</text>
<text text-anchor="middle" x="662.5" y="-371.5" font-family="Helvetica,sans-Serif" font-size="10.00">::SearchObjectEnd</text>
</a>
</g>
</g>
<!-- Node795&#45;&gt;Node796 -->
<g id="edge36" class="edge"><title>Node795&#45;&gt;Node796</title>
<path fill="none" stroke="midnightblue" d="M490.476,-317.656C511.952,-329.587 540.456,-344.311 567,-354.5 581.576,-360.095 597.88,-364.897 612.788,-368.754"/>
<polygon fill="midnightblue" stroke="midnightblue" points="492.161,-314.588 481.729,-312.735 488.729,-320.689 492.161,-314.588"/>
</g>
<!-- Node797 -->
<g id="node35" class="node"><title>Node797</title>
<g id="a_node35"><a xlink:href="../../df/dd0/classinfra_1_1_json_iterator.html#ae3b34ea711511b26a00f08c17f53ecc1" target="_top" xlink:title="infra::JsonIterator\l::SearchArrayEnd">
<polygon fill="white" stroke="black" points="615.5,-238.5 615.5,-268.5 709.5,-268.5 709.5,-238.5 615.5,-238.5"/>
<text text-anchor="start" x="623.5" y="-256.5" font-family="Helvetica,sans-Serif" font-size="10.00">infra::JsonIterator</text>
<text text-anchor="middle" x="662.5" y="-245.5" font-family="Helvetica,sans-Serif" font-size="10.00">::SearchArrayEnd</text>
</a>
</g>
</g>
<!-- Node795&#45;&gt;Node797 -->
<g id="edge38" class="edge"><title>Node795&#45;&gt;Node797</title>
<path fill="none" stroke="midnightblue" d="M516.548,-284.536C548.148,-277.77 586.194,-269.624 615.378,-263.375"/>
<polygon fill="midnightblue" stroke="midnightblue" points="515.58,-281.164 506.534,-286.68 517.045,-288.009 515.58,-281.164"/>
</g>
<!-- Node798 -->
<g id="node36" class="node"><title>Node798</title>
<g id="a_node36"><a xlink:href="../../d0/de3/namespaceinfra.html#a0bf0e1b13a5554bab59232357b442701" target="_top" xlink:title="infra::CleanJsonContents">
<polygon fill="white" stroke="black" points="600,-326 600,-345 725,-345 725,-326 600,-326"/>
<text text-anchor="middle" x="662.5" y="-333" font-family="Helvetica,sans-Serif" font-size="10.00">infra::CleanJsonContents</text>
</a>
</g>
</g>
<!-- Node795&#45;&gt;Node798 -->
<g id="edge42" class="edge"><title>Node795&#45;&gt;Node798</title>
<path fill="none" stroke="midnightblue" d="M516.387,-308.666C546.144,-314.169 581.648,-320.734 610.089,-325.993"/>
<polygon fill="midnightblue" stroke="midnightblue" points="517.004,-305.221 506.534,-306.845 515.731,-312.105 517.004,-305.221"/>
</g>
<!-- Node796&#45;&gt;Node788 -->
<g id="edge37" class="edge"><title>Node796&#45;&gt;Node788</title>
<path fill="none" stroke="midnightblue" d="M722.37,-379.5C751.956,-379.5 787.359,-379.5 815.305,-379.5"/>
<polygon fill="midnightblue" stroke="midnightblue" points="722.17,-376 712.17,-379.5 722.17,-383 722.17,-376"/>
</g>
<!-- Node797&#45;&gt;Node781 -->
<g id="edge39" class="edge"><title>Node797&#45;&gt;Node781</title>
<path fill="none" stroke="midnightblue" d="M719.86,-253.5C750.864,-253.5 788.83,-253.5 817.942,-253.5"/>
<polygon fill="midnightblue" stroke="midnightblue" points="719.635,-250 709.635,-253.5 719.635,-257 719.635,-250"/>
</g>
<!-- Node799&#45;&gt;Node795 -->
<g id="edge44" class="edge"><title>Node799&#45;&gt;Node795</title>
<path fill="none" stroke="midnightblue" d="M323.481,-297.5C349.774,-297.5 379.18,-297.5 403.414,-297.5"/>
<polygon fill="midnightblue" stroke="midnightblue" points="323.195,-294 313.195,-297.5 323.195,-301 323.195,-294"/>
</g>
<!-- Node800&#45;&gt;Node795 -->
<g id="edge46" class="edge"><title>Node800&#45;&gt;Node795</title>
<path fill="none" stroke="midnightblue" d="M320.789,-264.863C347.731,-271.464 378.302,-278.954 403.356,-285.092"/>
<polygon fill="midnightblue" stroke="midnightblue" points="321.59,-261.456 311.044,-262.476 319.924,-268.255 321.59,-261.456"/>
</g>
</g>
</svg>
        <g id="navigator" transform="translate(0 0)" fill="#404254">
                <rect fill="#f2f5e9" fill-opacity="0.5" stroke="#606060" stroke-width=".5" x="0" y="0" width="60" height="60"/>
                <use id="zoomplus" xlink:href="#zoomPlus" x="17" y="9" onmousedown="handleZoom(evt,'in')"/>
                <use id="zoomminus" xlink:href="#zoomMin" x="42" y="9" onmousedown="handleZoom(evt,'out')"/>
                <use id="reset" xlink:href="#resetDef" x="30" y="36" onmousedown="handleReset()"/>
                <g id="arrowUp" xlink:href="#dirArrow" transform="translate(30 24)" onmousedown="handlePan(0,-1)">
                  <use xlink:href="#rim" fill="#404040">
                        <set attributeName="fill" to="#808080" begin="arrowUp.mouseover" end="arrowUp.mouseout"/>
                  </use>
                  <path fill="none" stroke="white" stroke-width="1.5" d="M0,-3.0v7 M-2.5,-0.5L0,-3.0L2.5,-0.5"/>
                </g>
                <g id="arrowRight" xlink:href="#dirArrow" transform="rotate(90) translate(36 -43)" onmousedown="handlePan(1,0)">
                  <use xlink:href="#rim" fill="#404040">
                        <set attributeName="fill" to="#808080" begin="arrowRight.mouseover" end="arrowRight.mouseout"/>
                  </use>
                  <path fill="none" stroke="white" stroke-width="1.5" d="M0,-3.0v7 M-2.5,-0.5L0,-3.0L2.5,-0.5"/>
                </g>
                <g id="arrowDown" xlink:href="#dirArrow" transform="rotate(180) translate(-30 -48)" onmousedown="handlePan(0,1)">
                  <use xlink:href="#rim" fill="#404040">
                        <set attributeName="fill" to="#808080" begin="arrowDown.mouseover" end="arrowDown.mouseout"/>
                  </use>
                  <path fill="none" stroke="white" stroke-width="1.5" d="M0,-3.0v7 M-2.5,-0.5L0,-3.0L2.5,-0.5"/>
                </g>
                <g id="arrowLeft" xlink:href="#dirArrow" transform="rotate(270) translate(-36 17)" onmousedown="handlePan(-1,0)">
                  <use xlink:href="#rim" fill="#404040">
                        <set attributeName="fill" to="#808080" begin="arrowLeft.mouseover" end="arrowLeft.mouseout"/>
                  </use>
                  <path fill="none" stroke="white" stroke-width="1.5" d="M0,-3.0v7 M-2.5,-0.5L0,-3.0L2.5,-0.5"/>
                </g>
        </g>
        <svg viewBox="0 0 15 15" width="100%" height="30px" preserveAspectRatio="xMaxYMin meet">
         <g id="arrow_out" transform="scale(0.3 0.3)">
          <a xlink:href="classinfra_1_1_bounded_string_base_a46ec1a3a673136ace03af8c6ec94aa89_icgraph_org.svg" target="_base">
           <rect id="button" ry="5" rx="5" y="6" x="6" height="38" width="38"
                fill="#f2f5e9" fill-opacity="0.5" stroke="#606060" stroke-width="1.0"/>
           <path id="arrow"
             d="M 11.500037,31.436501 C 11.940474,20.09759 22.043105,11.32322 32.158766,21.979434 L 37.068811,17.246167 C 37.068811,17.246167 37.088388,32 37.088388,32 L 22.160133,31.978069 C 22.160133,31.978069 26.997745,27.140456 26.997745,27.140456 C 18.528582,18.264221 13.291696,25.230495 11.500037,31.436501 z"
             style="fill:#404040;"/>
          </a>
         </g>
        </svg>
</svg>
