<?xml version="1.0" encoding="UTF-8" standalone="no"?>
<!DOCTYPE svg PUBLIC "-//W3C//DTD SVG 1.1//EN"
 "http://www.w3.org/Graphics/SVG/1.1/DTD/svg11.dtd">
<!-- Generated by graphviz version 2.38.0 (20140413.2041)
 -->
<!-- Title: infra::BoundedStringBase::resize Pages: 1 -->
<svg width="739pt" height="137pt"
 viewBox="0.00 0.00 739.00 137.00" xmlns="http://www.w3.org/2000/svg" xmlns:xlink="http://www.w3.org/1999/xlink">
<g id="graph0" class="graph" transform="scale(1 1) rotate(0) translate(4 133)">
<title>infra::BoundedStringBase::resize</title>
<polygon fill="white" stroke="none" points="-4,4 -4,-133 735,-133 735,4 -4,4"/>
<!-- Node679 -->
<g id="node1" class="node"><title>Node679</title>
<polygon fill="#bfbfbf" stroke="black" points="0,-49.5 0,-79.5 127,-79.5 127,-49.5 0,-49.5"/>
<text text-anchor="start" x="8" y="-67.5" font-family="Helvetica,sans-Serif" font-size="10.00">infra::BoundedStringBase</text>
<text text-anchor="middle" x="63.5" y="-56.5" font-family="Helvetica,sans-Serif" font-size="10.00">::resize</text>
</g>
<!-- Node680 -->
<g id="node2" class="node"><title>Node680</title>
<g id="a_node2"><a xlink:href="../../d1/d68/classservices_1_1_http_client_impl_1_1_http_response_parser.html#a0a3548eaeba6fbb9da20db77122292e4" target="_top" xlink:title="services::HttpClientImpl\l::HttpResponseParser::ParseHeaders">
<polygon fill="white" stroke="black" points="168.5,-98.5 168.5,-128.5 348.5,-128.5 348.5,-98.5 168.5,-98.5"/>
<text text-anchor="start" x="176.5" y="-116.5" font-family="Helvetica,sans-Serif" font-size="10.00">services::HttpClientImpl</text>
<text text-anchor="middle" x="258.5" y="-105.5" font-family="Helvetica,sans-Serif" font-size="10.00">::HttpResponseParser::ParseHeaders</text>
</a>
</g>
</g>
<!-- Node679&#45;&gt;Node680 -->
<g id="edge1" class="edge"><title>Node679&#45;&gt;Node680</title>
<path fill="none" stroke="midnightblue" d="M133.625,-82.0498C154.819,-87.4306 177.933,-93.299 198.394,-98.4938"/>
<polygon fill="midnightblue" stroke="midnightblue" points="134.272,-78.6031 123.718,-79.5346 132.549,-85.3879 134.272,-78.6031"/>
</g>
<!-- Node681 -->
<g id="node3" class="node"><title>Node681</title>
<g id="a_node3"><a xlink:href="../../d1/d68/classservices_1_1_http_client_impl_1_1_http_response_parser.html#a03728efaf9cbc991702311c178f460e9" target="_top" xlink:title="services::HttpClientImpl\l::HttpResponseParser::ParseStatusLine">
<polygon fill="white" stroke="black" points="163,-49.5 163,-79.5 354,-79.5 354,-49.5 163,-49.5"/>
<text text-anchor="start" x="171" y="-67.5" font-family="Helvetica,sans-Serif" font-size="10.00">services::HttpClientImpl</text>
<text text-anchor="middle" x="258.5" y="-56.5" font-family="Helvetica,sans-Serif" font-size="10.00">::HttpResponseParser::ParseStatusLine</text>
</a>
</g>
</g>
<!-- Node679&#45;&gt;Node681 -->
<g id="edge2" class="edge"><title>Node679&#45;&gt;Node681</title>
<path fill="none" stroke="midnightblue" d="M137.252,-64.5C145.644,-64.5 154.291,-64.5 162.917,-64.5"/>
<polygon fill="midnightblue" stroke="midnightblue" points="137.162,-61.0001 127.162,-64.5 137.162,-68.0001 137.162,-61.0001"/>
</g>
<!-- Node682 -->
<g id="node4" class="node"><title>Node682</title>
<g id="a_node4"><a xlink:href="../../d2/db3/classservices_1_1_http_server_connection_observer.html#a6213f7b12f5fb1c0ddbabdb859ddca0a" target="_top" xlink:title="services::HttpServerConnection\lObserver::ReceivedRequest">
<polygon fill="white" stroke="black" points="182.5,-0.5 182.5,-30.5 334.5,-30.5 334.5,-0.5 182.5,-0.5"/>
<text text-anchor="start" x="190.5" y="-18.5" font-family="Helvetica,sans-Serif" font-size="10.00">services::HttpServerConnection</text>
<text text-anchor="middle" x="258.5" y="-7.5" font-family="Helvetica,sans-Serif" font-size="10.00">Observer::ReceivedRequest</text>
</a>
</g>
</g>
<!-- Node679&#45;&gt;Node682 -->
<g id="edge3" class="edge"><title>Node679&#45;&gt;Node682</title>
<path fill="none" stroke="midnightblue" d="M133.625,-46.9502C154.819,-41.5694 177.933,-35.701 198.394,-30.5062"/>
<polygon fill="midnightblue" stroke="midnightblue" points="132.549,-43.6121 123.718,-49.4654 134.272,-50.3969 132.549,-43.6121"/>
</g>
<!-- Node683 -->
<g id="node5" class="node"><title>Node683</title>
<g id="a_node5"><a xlink:href="../../d2/db3/classservices_1_1_http_server_connection_observer.html#a3c5cabea13da6e140280b1b8c77244b3" target="_top" xlink:title="services::HttpServerConnection\lObserver::DataReceived">
<polygon fill="white" stroke="black" points="390,-0.5 390,-30.5 542,-30.5 542,-0.5 390,-0.5"/>
<text text-anchor="start" x="398" y="-18.5" font-family="Helvetica,sans-Serif" font-size="10.00">services::HttpServerConnection</text>
<text text-anchor="middle" x="466" y="-7.5" font-family="Helvetica,sans-Serif" font-size="10.00">Observer::DataReceived</text>
</a>
</g>
</g>
<!-- Node682&#45;&gt;Node683 -->
<g id="edge4" class="edge"><title>Node682&#45;&gt;Node683</title>
<path fill="none" stroke="midnightblue" d="M344.801,-15.5C359.73,-15.5 375.166,-15.5 389.797,-15.5"/>
<polygon fill="midnightblue" stroke="midnightblue" points="344.563,-12.0001 334.563,-15.5 344.562,-19.0001 344.563,-12.0001"/>
</g>
<!-- Node684 -->
<g id="node6" class="node"><title>Node684</title>
<g id="a_node6"><a xlink:href="../../d2/db3/classservices_1_1_http_server_connection_observer.html#a579fc75f469c5b79141187fc04dbf74c" target="_top" xlink:title="services::HttpServerConnection\lObserver::SendStreamAvailable">
<polygon fill="white" stroke="black" points="578,-0.5 578,-30.5 731,-30.5 731,-0.5 578,-0.5"/>
<text text-anchor="start" x="586" y="-18.5" font-family="Helvetica,sans-Serif" font-size="10.00">services::HttpServerConnection</text>
<text text-anchor="middle" x="654.5" y="-7.5" font-family="Helvetica,sans-Serif" font-size="10.00">Observer::SendStreamAvailable</text>
</a>
</g>
</g>
<!-- Node683&#45;&gt;Node684 -->
<g id="edge5" class="edge"><title>Node683&#45;&gt;Node684</title>
<path fill="none" stroke="midnightblue" d="M552.121,-15.5C560.752,-15.5 569.476,-15.5 577.996,-15.5"/>
<polygon fill="midnightblue" stroke="midnightblue" points="552.051,-12.0001 542.051,-15.5 552.05,-19.0001 552.051,-12.0001"/>
</g>
</g>
</svg>
