<?xml version="1.0" encoding="UTF-8" standalone="no"?>
<!DOCTYPE svg PUBLIC "-//W3C//DTD SVG 1.1//EN"
 "http://www.w3.org/Graphics/SVG/1.1/DTD/svg11.dtd">
<!-- Generated by graphviz version 2.38.0 (20140413.2041)
 -->
<!-- Title: infra::BoundedStringBase::max_size Pages: 1 -->
<svg width="551pt" height="259pt"
 viewBox="0.00 0.00 551.00 259.00" xmlns="http://www.w3.org/2000/svg" xmlns:xlink="http://www.w3.org/1999/xlink">
<g id="graph0" class="graph" transform="scale(1 1) rotate(0) translate(4 255)">
<title>infra::BoundedStringBase::max_size</title>
<polygon fill="white" stroke="none" points="-4,4 -4,-255 547,-255 547,4 -4,4"/>
<!-- Node593 -->
<g id="node1" class="node"><title>Node593</title>
<polygon fill="#bfbfbf" stroke="black" points="0,-122.5 0,-152.5 127,-152.5 127,-122.5 0,-122.5"/>
<text text-anchor="start" x="8" y="-140.5" font-family="Helvetica,sans-Serif" font-size="10.00">infra::BoundedStringBase</text>
<text text-anchor="middle" x="63.5" y="-129.5" font-family="Helvetica,sans-Serif" font-size="10.00">::max_size</text>
</g>
<!-- Node594 -->
<g id="node2" class="node"><title>Node594</title>
<g id="a_node2"><a xlink:href="../../d2/db3/classservices_1_1_http_server_connection_observer.html#a3c5cabea13da6e140280b1b8c77244b3" target="_top" xlink:title="services::HttpServerConnection\lObserver::DataReceived">
<polygon fill="white" stroke="black" points="182.5,-220.5 182.5,-250.5 334.5,-250.5 334.5,-220.5 182.5,-220.5"/>
<text text-anchor="start" x="190.5" y="-238.5" font-family="Helvetica,sans-Serif" font-size="10.00">services::HttpServerConnection</text>
<text text-anchor="middle" x="258.5" y="-227.5" font-family="Helvetica,sans-Serif" font-size="10.00">Observer::DataReceived</text>
</a>
</g>
</g>
<!-- Node593&#45;&gt;Node594 -->
<g id="edge1" class="edge"><title>Node593&#45;&gt;Node594</title>
<path fill="none" stroke="midnightblue" d="M87.7801,-159.235C106.709,-175.805 134.81,-198.004 163,-211.5 170.176,-214.935 177.902,-217.918 185.735,-220.499"/>
<polygon fill="midnightblue" stroke="midnightblue" points="90.0473,-156.567 80.2559,-152.52 85.3865,-161.79 90.0473,-156.567"/>
</g>
<!-- Node596 -->
<g id="node4" class="node"><title>Node596</title>
<g id="a_node4"><a xlink:href="../../d2/d55/classinfra_1_1_json_sub_object_parser.html#a54ade2c865923d904fee7d9f5b029baf" target="_top" xlink:title="infra::JsonSubObjectParser\l::Feed">
<polygon fill="white" stroke="black" points="191,-171.5 191,-201.5 326,-201.5 326,-171.5 191,-171.5"/>
<text text-anchor="start" x="199" y="-189.5" font-family="Helvetica,sans-Serif" font-size="10.00">infra::JsonSubObjectParser</text>
<text text-anchor="middle" x="258.5" y="-178.5" font-family="Helvetica,sans-Serif" font-size="10.00">::Feed</text>
</a>
</g>
</g>
<!-- Node593&#45;&gt;Node596 -->
<g id="edge3" class="edge"><title>Node593&#45;&gt;Node596</title>
<path fill="none" stroke="midnightblue" d="M133.625,-155.05C154.819,-160.431 177.933,-166.299 198.394,-171.494"/>
<polygon fill="midnightblue" stroke="midnightblue" points="134.272,-151.603 123.718,-152.535 132.549,-158.388 134.272,-151.603"/>
</g>
<!-- Node597 -->
<g id="node5" class="node"><title>Node597</title>
<g id="a_node5"><a xlink:href="../../d1/d68/classservices_1_1_http_client_impl_1_1_http_response_parser.html#a0a3548eaeba6fbb9da20db77122292e4" target="_top" xlink:title="services::HttpClientImpl\l::HttpResponseParser::ParseHeaders">
<polygon fill="white" stroke="black" points="168.5,-122.5 168.5,-152.5 348.5,-152.5 348.5,-122.5 168.5,-122.5"/>
<text text-anchor="start" x="176.5" y="-140.5" font-family="Helvetica,sans-Serif" font-size="10.00">services::HttpClientImpl</text>
<text text-anchor="middle" x="258.5" y="-129.5" font-family="Helvetica,sans-Serif" font-size="10.00">::HttpResponseParser::ParseHeaders</text>
</a>
</g>
</g>
<!-- Node593&#45;&gt;Node597 -->
<g id="edge4" class="edge"><title>Node593&#45;&gt;Node597</title>
<path fill="none" stroke="midnightblue" d="M137.462,-137.5C147.491,-137.5 157.881,-137.5 168.163,-137.5"/>
<polygon fill="midnightblue" stroke="midnightblue" points="137.162,-134 127.162,-137.5 137.162,-141 137.162,-134"/>
</g>
<!-- Node598 -->
<g id="node6" class="node"><title>Node598</title>
<g id="a_node6"><a xlink:href="../../d1/d68/classservices_1_1_http_client_impl_1_1_http_response_parser.html#a03728efaf9cbc991702311c178f460e9" target="_top" xlink:title="services::HttpClientImpl\l::HttpResponseParser::ParseStatusLine">
<polygon fill="white" stroke="black" points="163,-73.5 163,-103.5 354,-103.5 354,-73.5 163,-73.5"/>
<text text-anchor="start" x="171" y="-91.5" font-family="Helvetica,sans-Serif" font-size="10.00">services::HttpClientImpl</text>
<text text-anchor="middle" x="258.5" y="-80.5" font-family="Helvetica,sans-Serif" font-size="10.00">::HttpResponseParser::ParseStatusLine</text>
</a>
</g>
</g>
<!-- Node593&#45;&gt;Node598 -->
<g id="edge5" class="edge"><title>Node593&#45;&gt;Node598</title>
<path fill="none" stroke="midnightblue" d="M133.625,-119.95C154.819,-114.569 177.933,-108.701 198.394,-103.506"/>
<polygon fill="midnightblue" stroke="midnightblue" points="132.549,-116.612 123.718,-122.465 134.272,-123.397 132.549,-116.612"/>
</g>
<!-- Node599 -->
<g id="node7" class="node"><title>Node599</title>
<g id="a_node7"><a xlink:href="../../db/dae/classservices_1_1_http_client_basic.html#afe3f34509600d5aa457f0fe9c59af112" target="_top" xlink:title="services::HttpClientBasic\l::Path">
<polygon fill="white" stroke="black" points="196,-24.5 196,-54.5 321,-54.5 321,-24.5 196,-24.5"/>
<text text-anchor="start" x="204" y="-42.5" font-family="Helvetica,sans-Serif" font-size="10.00">services::HttpClientBasic</text>
<text text-anchor="middle" x="258.5" y="-31.5" font-family="Helvetica,sans-Serif" font-size="10.00">::Path</text>
</a>
</g>
</g>
<!-- Node593&#45;&gt;Node599 -->
<g id="edge6" class="edge"><title>Node593&#45;&gt;Node599</title>
<path fill="none" stroke="midnightblue" d="M88.2103,-115.856C107.183,-99.5926 135.137,-77.8977 163,-64.5 173.247,-59.5726 184.604,-55.512 195.787,-52.202"/>
<polygon fill="midnightblue" stroke="midnightblue" points="85.8854,-113.24 80.6556,-122.454 90.4899,-118.512 85.8854,-113.24"/>
</g>
<!-- Node595 -->
<g id="node3" class="node"><title>Node595</title>
<g id="a_node3"><a xlink:href="../../d2/db3/classservices_1_1_http_server_connection_observer.html#a579fc75f469c5b79141187fc04dbf74c" target="_top" xlink:title="services::HttpServerConnection\lObserver::SendStreamAvailable">
<polygon fill="white" stroke="black" points="390,-220.5 390,-250.5 543,-250.5 543,-220.5 390,-220.5"/>
<text text-anchor="start" x="398" y="-238.5" font-family="Helvetica,sans-Serif" font-size="10.00">services::HttpServerConnection</text>
<text text-anchor="middle" x="466.5" y="-227.5" font-family="Helvetica,sans-Serif" font-size="10.00">Observer::SendStreamAvailable</text>
</a>
</g>
</g>
<!-- Node594&#45;&gt;Node595 -->
<g id="edge2" class="edge"><title>Node594&#45;&gt;Node595</title>
<path fill="none" stroke="midnightblue" d="M344.943,-235.5C359.812,-235.5 375.183,-235.5 389.769,-235.5"/>
<polygon fill="midnightblue" stroke="midnightblue" points="344.745,-232 334.745,-235.5 344.745,-239 344.745,-232"/>
</g>
<!-- Node600 -->
<g id="node8" class="node"><title>Node600</title>
<g id="a_node8"><a xlink:href="../../df/dd9/classservices_1_1_http_client_json.html#ab4d16df0033aab2282ed087d7eaf8b19" target="_top" xlink:title="services::HttpClientJson\l::Connected">
<polygon fill="white" stroke="black" points="406,-49.5 406,-79.5 527,-79.5 527,-49.5 406,-49.5"/>
<text text-anchor="start" x="414" y="-67.5" font-family="Helvetica,sans-Serif" font-size="10.00">services::HttpClientJson</text>
<text text-anchor="middle" x="466.5" y="-56.5" font-family="Helvetica,sans-Serif" font-size="10.00">::Connected</text>
</a>
</g>
</g>
<!-- Node599&#45;&gt;Node600 -->
<g id="edge7" class="edge"><title>Node599&#45;&gt;Node600</title>
<path fill="none" stroke="midnightblue" d="M331.268,-48.2097C355.571,-51.159 382.435,-54.4193 405.706,-57.2434"/>
<polygon fill="midnightblue" stroke="midnightblue" points="331.377,-44.6973 321.028,-46.967 330.533,-51.6463 331.377,-44.6973"/>
</g>
<!-- Node601 -->
<g id="node9" class="node"><title>Node601</title>
<g id="a_node9"><a xlink:href="../../d7/da4/classapplication_1_1_tracing_http_client.html#afaf22b944651d759337a20329916d4ef" target="_top" xlink:title="application::TracingHttp\lClient::Connected">
<polygon fill="white" stroke="black" points="407,-0.5 407,-30.5 526,-30.5 526,-0.5 407,-0.5"/>
<text text-anchor="start" x="415" y="-18.5" font-family="Helvetica,sans-Serif" font-size="10.00">application::TracingHttp</text>
<text text-anchor="middle" x="466.5" y="-7.5" font-family="Helvetica,sans-Serif" font-size="10.00">Client::Connected</text>
</a>
</g>
</g>
<!-- Node599&#45;&gt;Node601 -->
<g id="edge8" class="edge"><title>Node599&#45;&gt;Node601</title>
<path fill="none" stroke="midnightblue" d="M331.077,-31.161C355.798,-28.2808 383.19,-25.0895 406.762,-22.3432"/>
<polygon fill="midnightblue" stroke="midnightblue" points="330.556,-27.6979 321.028,-32.3317 331.366,-34.6509 330.556,-27.6979"/>
</g>
</g>
</svg>
