<?xml version="1.0" encoding="UTF-8" standalone="no"?>
<!DOCTYPE svg PUBLIC "-//W3C//DTD SVG 1.1//EN"
 "http://www.w3.org/Graphics/SVG/1.1/DTD/svg11.dtd">
<!-- Generated by graphviz version 2.38.0 (20140413.2041)
 -->
<!-- Title: services::ConnectionFactoryWithNameResolverForTls::ConnectionEstablished Pages: 1 -->
<svg width="560pt" height="160pt"
 viewBox="0.00 0.00 560.00 159.50" xmlns="http://www.w3.org/2000/svg" xmlns:xlink="http://www.w3.org/1999/xlink">
<g id="graph0" class="graph" transform="scale(1 1) rotate(0) translate(4 155.5)">
<title>services::ConnectionFactoryWithNameResolverForTls::ConnectionEstablished</title>
<polygon fill="white" stroke="none" points="-4,4 -4,-155.5 556,-155.5 556,4 -4,4"/>
<!-- Node8 -->
<g id="node1" class="node"><title>Node8</title>
<polygon fill="#bfbfbf" stroke="black" points="0,-50 0,-91 140,-91 140,-50 0,-50"/>
<text text-anchor="start" x="8" y="-79" font-family="Helvetica,sans-Serif" font-size="10.00">services::ConnectionFactory</text>
<text text-anchor="start" x="8" y="-68" font-family="Helvetica,sans-Serif" font-size="10.00">WithNameResolverForTls::</text>
<text text-anchor="middle" x="70" y="-57" font-family="Helvetica,sans-Serif" font-size="10.00">ConnectionEstablished</text>
</g>
<!-- Node9 -->
<g id="node2" class="node"><title>Node9</title>
<g id="a_node2"><a xlink:href="../../de/d08/classservices_1_1_client_connection_observer_factory_with_name_resolver.html#a680d0e9eabaa54766d487c9ed90f6280" target="_top" xlink:title="services::ClientConnection\lObserverFactoryWithNameResolver\l::ConnectionEstablished">
<polygon fill="white" stroke="black" points="176,-110 176,-151 346,-151 346,-110 176,-110"/>
<text text-anchor="start" x="184" y="-139" font-family="Helvetica,sans-Serif" font-size="10.00">services::ClientConnection</text>
<text text-anchor="start" x="184" y="-128" font-family="Helvetica,sans-Serif" font-size="10.00">ObserverFactoryWithNameResolver</text>
<text text-anchor="middle" x="261" y="-117" font-family="Helvetica,sans-Serif" font-size="10.00">::ConnectionEstablished</text>
</a>
</g>
</g>
<!-- Node8&#45;&gt;Node9 -->
<g id="edge1" class="edge"><title>Node8&#45;&gt;Node9</title>
<path fill="none" stroke="midnightblue" d="M135.779,-91.0647C151.858,-96.1691 169.215,-101.679 185.71,-106.916"/>
<polygon fill="midnightblue" stroke="midnightblue" points="184.716,-110.272 195.306,-109.962 186.834,-103.6 184.716,-110.272"/>
</g>
<!-- Node10 -->
<g id="node3" class="node"><title>Node10</title>
<g id="a_node3"><a xlink:href="../../d6/d9f/classservices_1_1_connection_factory_with_name_resolver_for_tls.html#a59dfdf8133d15df7e6e479095541ed6b" target="_top" xlink:title="services::ConnectionFactory\lWithNameResolverForTls::\lHostname">
<polygon fill="white" stroke="black" points="191,-50 191,-91 331,-91 331,-50 191,-50"/>
<text text-anchor="start" x="199" y="-79" font-family="Helvetica,sans-Serif" font-size="10.00">services::ConnectionFactory</text>
<text text-anchor="start" x="199" y="-68" font-family="Helvetica,sans-Serif" font-size="10.00">WithNameResolverForTls::</text>
<text text-anchor="middle" x="261" y="-57" font-family="Helvetica,sans-Serif" font-size="10.00">Hostname</text>
</a>
</g>
</g>
<!-- Node8&#45;&gt;Node10 -->
<g id="edge2" class="edge"><title>Node8&#45;&gt;Node10</title>
<path fill="none" stroke="midnightblue" d="M140.036,-70.5C153.228,-70.5 167.137,-70.5 180.623,-70.5"/>
<polygon fill="midnightblue" stroke="midnightblue" points="180.835,-74.0001 190.835,-70.5 180.835,-67.0001 180.835,-74.0001"/>
</g>
<!-- Node12 -->
<g id="node5" class="node"><title>Node12</title>
<g id="a_node5"><a xlink:href="../../dc/d4c/classinfra_1_1_single_observer.html#abb13c69cc61182baf350ff1736fa772e" target="_top" xlink:title="infra::SingleObserver\l::Subject">
<polygon fill="white" stroke="black" points="208,-0.5 208,-30.5 314,-30.5 314,-0.5 208,-0.5"/>
<text text-anchor="start" x="216" y="-18.5" font-family="Helvetica,sans-Serif" font-size="10.00">infra::SingleObserver</text>
<text text-anchor="middle" x="261" y="-7.5" font-family="Helvetica,sans-Serif" font-size="10.00">::Subject</text>
</a>
</g>
</g>
<!-- Node8&#45;&gt;Node12 -->
<g id="edge4" class="edge"><title>Node8&#45;&gt;Node12</title>
<path fill="none" stroke="midnightblue" d="M140.036,-50.4103C159.164,-44.8438 179.797,-38.8396 198.467,-33.4065"/>
<polygon fill="midnightblue" stroke="midnightblue" points="199.699,-36.6932 208.323,-30.5384 197.743,-29.972 199.699,-36.6932"/>
</g>
<!-- Node11 -->
<g id="node4" class="node"><title>Node11</title>
<g id="a_node4"><a xlink:href="../../de/d08/classservices_1_1_client_connection_observer_factory_with_name_resolver.html#a8a55ce30807f1639ccdc2bb7e9bc4b68" target="_top" xlink:title="services::ClientConnection\lObserverFactoryWithNameResolver\l::Hostname">
<polygon fill="white" stroke="black" points="382,-50 382,-91 552,-91 552,-50 382,-50"/>
<text text-anchor="start" x="390" y="-79" font-family="Helvetica,sans-Serif" font-size="10.00">services::ClientConnection</text>
<text text-anchor="start" x="390" y="-68" font-family="Helvetica,sans-Serif" font-size="10.00">ObserverFactoryWithNameResolver</text>
<text text-anchor="middle" x="467" y="-57" font-family="Helvetica,sans-Serif" font-size="10.00">::Hostname</text>
</a>
</g>
</g>
<!-- Node10&#45;&gt;Node11 -->
<g id="edge3" class="edge"><title>Node10&#45;&gt;Node11</title>
<path fill="none" stroke="midnightblue" d="M331.065,-70.5C344.053,-70.5 357.838,-70.5 371.446,-70.5"/>
<polygon fill="midnightblue" stroke="midnightblue" points="371.802,-74.0001 381.802,-70.5 371.802,-67.0001 371.802,-74.0001"/>
</g>
</g>
</svg>
