<?xml version="1.0" encoding="UTF-8" standalone="no"?>
<!DOCTYPE svg PUBLIC "-//W3C//DTD SVG 1.1//EN"
 "http://www.w3.org/Graphics/SVG/1.1/DTD/svg11.dtd">
<!-- Generated by graphviz version 2.38.0 (20140413.2041)
 -->
<!-- Title: services::TimeWithLocalization::GetOffsetFromLocalToUtc Pages: 1 -->
<svg width="323pt" height="39pt"
 viewBox="0.00 0.00 323.00 39.00" xmlns="http://www.w3.org/2000/svg" xmlns:xlink="http://www.w3.org/1999/xlink">
<g id="graph0" class="graph" transform="scale(1 1) rotate(0) translate(4 35)">
<title>services::TimeWithLocalization::GetOffsetFromLocalToUtc</title>
<polygon fill="white" stroke="none" points="-4,4 -4,-35 319,-35 319,4 -4,4"/>
<!-- Node9 -->
<g id="node1" class="node"><title>Node9</title>
<polygon fill="#bfbfbf" stroke="black" points="0,-0.5 0,-30.5 151,-30.5 151,-0.5 0,-0.5"/>
<text text-anchor="start" x="8" y="-18.5" font-family="Helvetica,sans-Serif" font-size="10.00">services::TimeWithLocalization</text>
<text text-anchor="middle" x="75.5" y="-7.5" font-family="Helvetica,sans-Serif" font-size="10.00">::GetOffsetFromLocalToUtc</text>
</g>
<!-- Node10 -->
<g id="node2" class="node"><title>Node10</title>
<g id="a_node2"><a xlink:href="../../db/d9d/classinfra_1_1_derived_timer_service.html#a43ab37daeff5235b38695b3f8568a2b0" target="_top" xlink:title="infra::DerivedTimerService\l::GetCurrentShift">
<polygon fill="white" stroke="black" points="187,-0.5 187,-30.5 315,-30.5 315,-0.5 187,-0.5"/>
<text text-anchor="start" x="195" y="-18.5" font-family="Helvetica,sans-Serif" font-size="10.00">infra::DerivedTimerService</text>
<text text-anchor="middle" x="251" y="-7.5" font-family="Helvetica,sans-Serif" font-size="10.00">::GetCurrentShift</text>
</a>
</g>
</g>
<!-- Node9&#45;&gt;Node10 -->
<g id="edge1" class="edge"><title>Node9&#45;&gt;Node10</title>
<path fill="none" stroke="midnightblue" d="M151.087,-15.5C159.575,-15.5 168.222,-15.5 176.694,-15.5"/>
<polygon fill="midnightblue" stroke="midnightblue" points="176.918,-19.0001 186.918,-15.5 176.918,-12.0001 176.918,-19.0001"/>
</g>
</g>
</svg>
