<?xml version="1.0" encoding="UTF-8" standalone="no"?>
<!DOCTYPE svg PUBLIC "-//W3C//DTD SVG 1.1//EN"
 "http://www.w3.org/Graphics/SVG/1.1/DTD/svg11.dtd">
<!-- Generated by graphviz version 2.38.0 (20140413.2041)
 -->
<!-- Title: services::ConnectionFactoryWithNameResolverImpl Pages: 1 -->
<!--zoomable 334 -->
<svg id="main" version="1.1" xmlns="http://www.w3.org/2000/svg" xmlns:xlink="http://www.w3.org/1999/xlink" xml:space="preserve" onload="init(evt)">
<style type="text/css"><![CDATA[
.edge:hover path { stroke: red; }
.edge:hover polygon { stroke: red; fill: red; }
]]></style>
<script type="text/javascript"><![CDATA[
var edges = document.getElementsByTagName('g');
if (edges && edges.length) {
  for (var i=0;i<edges.length;i++) {
    if (edges[i].id.substr(0,4)=='edge') {
      edges[i].setAttribute('class','edge');
    }
  }
}
]]></script>
        <defs>
                <circle id="rim" cx="0" cy="0" r="7"/>
                <circle id="rim2" cx="0" cy="0" r="3.5"/>
                <g id="zoomPlus">
                        <use xlink:href="#rim" fill="#404040">
                                <set attributeName="fill" to="#808080" begin="zoomplus.mouseover" end="zoomplus.mouseout"/>
                        </use>
                        <path d="M-4,0h8M0,-4v8" fill="none" stroke="white" stroke-width="1.5" pointer-events="none"/>
                </g>
                <g id="zoomMin">
                        <use xlink:href="#rim" fill="#404040">
                                <set attributeName="fill" to="#808080" begin="zoomminus.mouseover" end="zoomminus.mouseout"/>
                        </use>
                        <path d="M-4,0h8" fill="none" stroke="white" stroke-width="1.5" pointer-events="none"/>
                </g>
                <g id="dirArrow">
                        <path fill="none" stroke="white" stroke-width="1.5" d="M0,-3.0v7 M-2.5,-0.5L0,-3.0L2.5,-0.5"/>
                </g>
               <g id="resetDef">
                       <use xlink:href="#rim2" fill="#404040">
                               <set attributeName="fill" to="#808080" begin="reset.mouseover" end="reset.mouseout"/>
                       </use>
               </g>
        </defs>

<script type="text/javascript">
var viewWidth = 1124;
var viewHeight = 334;
var sectionId = 'dynsection-1';
</script>
<script xlink:href="../../svgpan.js"/>
<svg id="graph" class="graph">
<g id="viewport">
<title>services::ConnectionFactoryWithNameResolverImpl</title>
<polygon fill="white" stroke="none" points="-4,4 -4,-330 1120,-330 1120,4 -4,4"/>
<!-- Node2 -->
<g id="node1" class="node"><title>Node2</title>
<polygon fill="#bfbfbf" stroke="black" points="976,-174 976,-204 1116,-204 1116,-174 976,-174"/>
<text text-anchor="start" x="984" y="-192" font-family="Helvetica,sans-Serif" font-size="10.00">services::ConnectionFactory</text>
<text text-anchor="middle" x="1046" y="-181" font-family="Helvetica,sans-Serif" font-size="10.00">WithNameResolverImpl</text>
</g>
<!-- Node3 -->
<g id="node2" class="node"><title>Node3</title>
<g id="a_node2"><a xlink:href="../../dc/dfc/classservices_1_1_connection_factory_with_name_resolver.html" target="_top" xlink:title="services::ConnectionFactory\lWithNameResolver">
<polygon fill="white" stroke="black" points="696.5,-267 696.5,-297 836.5,-297 836.5,-267 696.5,-267"/>
<text text-anchor="start" x="704.5" y="-285" font-family="Helvetica,sans-Serif" font-size="10.00">services::ConnectionFactory</text>
<text text-anchor="middle" x="766.5" y="-274" font-family="Helvetica,sans-Serif" font-size="10.00">WithNameResolver</text>
</a>
</g>
</g>
<!-- Node3&#45;&gt;Node2 -->
<g id="edge1" class="edge"><title>Node3&#45;&gt;Node2</title>
<path fill="none" stroke="midnightblue" d="M847.009,-265.608C881.637,-257.437 922.366,-246.413 958,-233 979.227,-225.01 1002.07,-213.329 1019.02,-204.011"/>
<polygon fill="midnightblue" stroke="midnightblue" points="845.894,-262.274 836.944,-267.945 847.477,-269.093 845.894,-262.274"/>
</g>
<!-- Node4 -->
<g id="node3" class="node"><title>Node4</title>
<g id="a_node3"><a xlink:href="../../d0/d69/classservices_1_1_name_resolver.html" target="_top" xlink:title="services::NameResolver">
<polygon fill="white" stroke="black" points="706.5,-228.5 706.5,-247.5 826.5,-247.5 826.5,-228.5 706.5,-228.5"/>
<text text-anchor="middle" x="766.5" y="-235.5" font-family="Helvetica,sans-Serif" font-size="10.00">services::NameResolver</text>
</a>
</g>
</g>
<!-- Node4&#45;&gt;Node2 -->
<g id="edge2" class="edge"><title>Node4&#45;&gt;Node2</title>
<path fill="none" stroke="#9a32cd" stroke-dasharray="5,2" d="M831.436,-226.71C874.599,-219.089 931.543,-209.034 975.775,-201.224"/>
<polygon fill="#9a32cd" stroke="#9a32cd" points="830.573,-223.309 821.334,-228.494 831.79,-230.202 830.573,-223.309"/>
<text text-anchor="middle" x="916" y="-221" font-family="Helvetica,sans-Serif" font-size="10.00"> nameLookup</text>
</g>
<!-- Node5 -->
<g id="node4" class="node"><title>Node5</title>
<g id="a_node4"><a xlink:href="../../df/da4/classinfra_1_1_intrusive_list.html" target="_top" xlink:title="infra::IntrusiveList\l\&lt; services::ClientConnection\lObserverFactoryWithNameResolver \&gt;">
<polygon fill="white" stroke="black" points="677,-168.5 677,-209.5 856,-209.5 856,-168.5 677,-168.5"/>
<text text-anchor="start" x="685" y="-197.5" font-family="Helvetica,sans-Serif" font-size="10.00">infra::IntrusiveList</text>
<text text-anchor="start" x="685" y="-186.5" font-family="Helvetica,sans-Serif" font-size="10.00">&lt; services::ClientConnection</text>
<text text-anchor="middle" x="766.5" y="-175.5" font-family="Helvetica,sans-Serif" font-size="10.00">ObserverFactoryWithNameResolver &gt;</text>
</a>
</g>
</g>
<!-- Node5&#45;&gt;Node2 -->
<g id="edge3" class="edge"><title>Node5&#45;&gt;Node2</title>
<path fill="none" stroke="#9a32cd" stroke-dasharray="5,2" d="M866.168,-189C902.392,-189 942.604,-189 975.708,-189"/>
<polygon fill="#9a32cd" stroke="#9a32cd" points="866.066,-185.5 856.066,-189 866.066,-192.5 866.066,-185.5"/>
<text text-anchor="middle" x="916" y="-192" font-family="Helvetica,sans-Serif" font-size="10.00"> waitingActions</text>
</g>
<!-- Node6 -->
<g id="node5" class="node"><title>Node6</title>
<g id="a_node5"><a xlink:href="../../d7/da5/classinfra_1_1detail_1_1_intrusive_list_node.html" target="_top" xlink:title="infra::detail::Intrusive\lListNode\&lt; T \&gt;">
<polygon fill="white" stroke="black" points="406,-289 406,-319 511,-319 511,-289 406,-289"/>
<text text-anchor="start" x="414" y="-307" font-family="Helvetica,sans-Serif" font-size="10.00">infra::detail::Intrusive</text>
<text text-anchor="middle" x="458.5" y="-296" font-family="Helvetica,sans-Serif" font-size="10.00">ListNode&lt; T &gt;</text>
</a>
</g>
</g>
<!-- Node6&#45;&gt;Node5 -->
<g id="edge4" class="edge"><title>Node6&#45;&gt;Node5</title>
<path fill="none" stroke="#9a32cd" stroke-dasharray="5,2" d="M520.788,-289.656C531.959,-286.515 543.421,-282.937 554,-279 611.005,-257.788 620.751,-242.143 677,-219 684.952,-215.728 693.404,-212.525 701.809,-209.503"/>
<polygon fill="#9a32cd" stroke="#9a32cd" points="519.804,-286.297 511.076,-292.302 521.644,-293.051 519.804,-286.297"/>
<text text-anchor="middle" x="615.5" y="-275" font-family="Helvetica,sans-Serif" font-size="10.00"> beginNode</text>
</g>
<!-- Node7 -->
<g id="node6" class="node"><title>Node7</title>
<polygon fill="white" stroke="#bfbfbf" points="130.5,-289 130.5,-319 226.5,-319 226.5,-289 130.5,-289"/>
<text text-anchor="start" x="138.5" y="-307" font-family="Helvetica,sans-Serif" font-size="10.00">IntrusiveListNode&lt;</text>
<text text-anchor="middle" x="178.5" y="-296" font-family="Helvetica,sans-Serif" font-size="10.00"> T &gt; *</text>
</g>
<!-- Node7&#45;&gt;Node6 -->
<g id="edge5" class="edge"><title>Node7&#45;&gt;Node6</title>
<path fill="none" stroke="#9a32cd" stroke-dasharray="5,2" d="M236.925,-304C286.642,-304 357.907,-304 405.854,-304"/>
<polygon fill="#9a32cd" stroke="#9a32cd" points="236.659,-300.5 226.659,-304 236.659,-307.5 236.659,-300.5"/>
<text text-anchor="middle" x="313.5" y="-318" font-family="Helvetica,sans-Serif" font-size="10.00"> previous</text>
<text text-anchor="middle" x="313.5" y="-307" font-family="Helvetica,sans-Serif" font-size="10.00">next</text>
</g>
<!-- Node8 -->
<g id="node7" class="node"><title>Node8</title>
<g id="a_node7"><a xlink:href="../../d7/da5/classinfra_1_1detail_1_1_intrusive_list_node.html" target="_top" xlink:title="infra::detail::Intrusive\lListNode\&lt; services::ClientConnection\lObserverFactoryWithNameResolver \&gt;">
<polygon fill="white" stroke="black" points="369,-188.5 369,-229.5 548,-229.5 548,-188.5 369,-188.5"/>
<text text-anchor="start" x="377" y="-217.5" font-family="Helvetica,sans-Serif" font-size="10.00">infra::detail::Intrusive</text>
<text text-anchor="start" x="377" y="-206.5" font-family="Helvetica,sans-Serif" font-size="10.00">ListNode&lt; services::ClientConnection</text>
<text text-anchor="middle" x="458.5" y="-195.5" font-family="Helvetica,sans-Serif" font-size="10.00">ObserverFactoryWithNameResolver &gt;</text>
</a>
</g>
</g>
<!-- Node8&#45;&gt;Node5 -->
<g id="edge6" class="edge"><title>Node8&#45;&gt;Node5</title>
<path fill="none" stroke="#9a32cd" stroke-dasharray="5,2" d="M558.118,-202.554C596.325,-200.057 639.733,-197.22 676.926,-194.789"/>
<polygon fill="#9a32cd" stroke="#9a32cd" points="557.758,-199.07 548.008,-203.215 558.215,-206.055 557.758,-199.07"/>
<text text-anchor="middle" x="615.5" y="-205" font-family="Helvetica,sans-Serif" font-size="10.00"> endNode</text>
</g>
<!-- Node8&#45;&gt;Node8 -->
<g id="edge7" class="edge"><title>Node8&#45;&gt;Node8</title>
<path fill="none" stroke="#9a32cd" stroke-dasharray="5,2" d="M433.726,-239.856C437.41,-244.697 445.668,-248 458.5,-248 479.031,-248 487.853,-239.543 484.966,-229.864"/>
<polygon fill="#9a32cd" stroke="#9a32cd" points="437.154,-239.14 432.034,-229.864 430.253,-240.308 437.154,-239.14"/>
<text text-anchor="middle" x="458.5" y="-262" font-family="Helvetica,sans-Serif" font-size="10.00"> previous</text>
<text text-anchor="middle" x="458.5" y="-251" font-family="Helvetica,sans-Serif" font-size="10.00">next</text>
</g>
<!-- Node9 -->
<g id="node8" class="node"><title>Node9</title>
<polygon fill="white" stroke="#bfbfbf" points="437,-144.5 437,-163.5 480,-163.5 480,-144.5 437,-144.5"/>
<text text-anchor="middle" x="458.5" y="-151.5" font-family="Helvetica,sans-Serif" font-size="10.00">size_t</text>
</g>
<!-- Node9&#45;&gt;Node5 -->
<g id="edge8" class="edge"><title>Node9&#45;&gt;Node5</title>
<path fill="none" stroke="#9a32cd" stroke-dasharray="5,2" d="M490.204,-157.512C533.425,-162.456 613.948,-171.666 676.787,-178.853"/>
<polygon fill="#9a32cd" stroke="#9a32cd" points="490.386,-154.01 480.053,-156.351 489.59,-160.965 490.386,-154.01"/>
<text text-anchor="middle" x="615.5" y="-180" font-family="Helvetica,sans-Serif" font-size="10.00"> numberOfElements</text>
</g>
<!-- Node10 -->
<g id="node9" class="node"><title>Node10</title>
<g id="a_node9"><a xlink:href="../../d8/d38/classinfra_1_1_bounded_list.html" target="_top" xlink:title="infra::BoundedList\l\&lt; services::ConnectionFactory\lWithNameResolverImpl::Action \&gt;">
<polygon fill="white" stroke="black" points="686.5,-108.5 686.5,-149.5 846.5,-149.5 846.5,-108.5 686.5,-108.5"/>
<text text-anchor="start" x="694.5" y="-137.5" font-family="Helvetica,sans-Serif" font-size="10.00">infra::BoundedList</text>
<text text-anchor="start" x="694.5" y="-126.5" font-family="Helvetica,sans-Serif" font-size="10.00">&lt; services::ConnectionFactory</text>
<text text-anchor="middle" x="766.5" y="-115.5" font-family="Helvetica,sans-Serif" font-size="10.00">WithNameResolverImpl::Action &gt;</text>
</a>
</g>
</g>
<!-- Node9&#45;&gt;Node10 -->
<g id="edge16" class="edge"><title>Node9&#45;&gt;Node10</title>
<path fill="none" stroke="#9a32cd" stroke-dasharray="5,2" d="M490.168,-148.837C512.734,-145.234 544.193,-140.618 572,-138 609.5,-134.469 651.224,-132.305 686.299,-130.988"/>
<polygon fill="#9a32cd" stroke="#9a32cd" points="489.475,-145.404 480.165,-150.461 490.597,-152.313 489.475,-145.404"/>
<text text-anchor="middle" x="615.5" y="-152" font-family="Helvetica,sans-Serif" font-size="10.00"> numAllocated</text>
<text text-anchor="middle" x="615.5" y="-141" font-family="Helvetica,sans-Serif" font-size="10.00">numInitialized</text>
</g>
<!-- Node10&#45;&gt;Node2 -->
<g id="edge9" class="edge"><title>Node10&#45;&gt;Node2</title>
<path fill="none" stroke="#9a32cd" stroke-dasharray="5,2" d="M856.823,-148.313C895.333,-156.64 939.688,-166.23 975.659,-174.007"/>
<polygon fill="#9a32cd" stroke="#9a32cd" points="857.163,-144.806 846.649,-146.113 855.683,-151.648 857.163,-144.806"/>
<text text-anchor="middle" x="916" y="-173" font-family="Helvetica,sans-Serif" font-size="10.00"> actions</text>
</g>
<!-- Node11 -->
<g id="node10" class="node"><title>Node11</title>
<g id="a_node10"><a xlink:href="../../df/dad/structinfra_1_1detail_1_1_bounded_list_node.html" target="_top" xlink:title="infra::detail::BoundedList\lNode\&lt; T \&gt;">
<polygon fill="white" stroke="black" points="396.5,-83 396.5,-113 520.5,-113 520.5,-83 396.5,-83"/>
<text text-anchor="start" x="404.5" y="-101" font-family="Helvetica,sans-Serif" font-size="10.00">infra::detail::BoundedList</text>
<text text-anchor="middle" x="458.5" y="-90" font-family="Helvetica,sans-Serif" font-size="10.00">Node&lt; T &gt;</text>
</a>
</g>
</g>
<!-- Node11&#45;&gt;Node10 -->
<g id="edge10" class="edge"><title>Node11&#45;&gt;Node10</title>
<path fill="none" stroke="#9a32cd" stroke-dasharray="5,2" d="M530.548,-91.8002C568.814,-89.8377 616.716,-89.5991 659,-96 676.034,-98.5785 694.096,-103.353 710.412,-108.484"/>
<polygon fill="#9a32cd" stroke="#9a32cd" points="530.319,-88.3075 520.531,-92.3641 530.712,-95.2964 530.319,-88.3075"/>
<text text-anchor="middle" x="615.5" y="-121" font-family="Helvetica,sans-Serif" font-size="10.00"> lastNode</text>
<text text-anchor="middle" x="615.5" y="-110" font-family="Helvetica,sans-Serif" font-size="10.00">freeList</text>
<text text-anchor="middle" x="615.5" y="-99" font-family="Helvetica,sans-Serif" font-size="10.00">firstNode</text>
</g>
<!-- Node12 -->
<g id="node11" class="node"><title>Node12</title>
<polygon fill="white" stroke="#bfbfbf" points="117,-120.5 117,-139.5 240,-139.5 240,-120.5 117,-120.5"/>
<text text-anchor="middle" x="178.5" y="-127.5" font-family="Helvetica,sans-Serif" font-size="10.00">BoundedListNode&lt; T &gt; *</text>
</g>
<!-- Node12&#45;&gt;Node11 -->
<g id="edge11" class="edge"><title>Node12&#45;&gt;Node11</title>
<path fill="none" stroke="#9a32cd" stroke-dasharray="5,2" d="M250.181,-121.864C295.351,-116.665 353.331,-109.991 396.485,-105.023"/>
<polygon fill="#9a32cd" stroke="#9a32cd" points="249.699,-118.396 240.165,-123.017 250.499,-125.35 249.699,-118.396"/>
<text text-anchor="middle" x="313.5" y="-132" font-family="Helvetica,sans-Serif" font-size="10.00"> previous</text>
<text text-anchor="middle" x="313.5" y="-121" font-family="Helvetica,sans-Serif" font-size="10.00">next</text>
</g>
<!-- Node13 -->
<g id="node12" class="node"><title>Node13</title>
<polygon fill="white" stroke="#bfbfbf" points="129,-82.5 129,-101.5 228,-101.5 228,-82.5 129,-82.5"/>
<text text-anchor="middle" x="178.5" y="-89.5" font-family="Helvetica,sans-Serif" font-size="10.00">StaticStorage&lt; T &gt;</text>
</g>
<!-- Node13&#45;&gt;Node11 -->
<g id="edge12" class="edge"><title>Node13&#45;&gt;Node11</title>
<path fill="none" stroke="#9a32cd" stroke-dasharray="5,2" d="M238.454,-93.2724C284.897,-94.2748 349.428,-95.6675 396.413,-96.6816"/>
<polygon fill="#9a32cd" stroke="#9a32cd" points="238.315,-89.7687 228.242,-93.052 238.164,-96.767 238.315,-89.7687"/>
<text text-anchor="middle" x="313.5" y="-99" font-family="Helvetica,sans-Serif" font-size="10.00"> storage</text>
</g>
<!-- Node14 -->
<g id="node13" class="node"><title>Node14</title>
<g id="a_node13"><a xlink:href="../../d0/d6d/classinfra_1_1_memory_range.html" target="_top" xlink:title="infra::MemoryRange\l\&lt; infra::StaticStorage\l\&lt; infra::detail::BoundedList\lNode\&lt; services::ConnectionFactoryWith\lNameResolverImpl::Action \&gt; \&gt; \&gt;">
<polygon fill="white" stroke="black" points="363,-0.5 363,-63.5 554,-63.5 554,-0.5 363,-0.5"/>
<text text-anchor="start" x="371" y="-51.5" font-family="Helvetica,sans-Serif" font-size="10.00">infra::MemoryRange</text>
<text text-anchor="start" x="371" y="-40.5" font-family="Helvetica,sans-Serif" font-size="10.00">&lt; infra::StaticStorage</text>
<text text-anchor="start" x="371" y="-29.5" font-family="Helvetica,sans-Serif" font-size="10.00">&lt; infra::detail::BoundedList</text>
<text text-anchor="start" x="371" y="-18.5" font-family="Helvetica,sans-Serif" font-size="10.00">Node&lt; services::ConnectionFactoryWith</text>
<text text-anchor="middle" x="458.5" y="-7.5" font-family="Helvetica,sans-Serif" font-size="10.00">NameResolverImpl::Action &gt; &gt; &gt;</text>
</a>
</g>
</g>
<!-- Node14&#45;&gt;Node10 -->
<g id="edge13" class="edge"><title>Node14&#45;&gt;Node10</title>
<path fill="none" stroke="#9a32cd" stroke-dasharray="5,2" d="M564.141,-41.2143C596.377,-47.5802 630.78,-58.232 659,-76 669.985,-82.9161 666.411,-91.4918 677,-99 681.897,-102.472 687.226,-105.567 692.762,-108.322"/>
<polygon fill="#9a32cd" stroke="#9a32cd" points="564.686,-37.7558 554.215,-39.3731 563.409,-44.6384 564.686,-37.7558"/>
<text text-anchor="middle" x="615.5" y="-79" font-family="Helvetica,sans-Serif" font-size="10.00"> storage</text>
</g>
<!-- Node15 -->
<g id="node14" class="node"><title>Node15</title>
<g id="a_node14"><a xlink:href="../../d0/d8c/classinfra_1_1_static_storage.html" target="_top" xlink:title="infra::StaticStorage\l\&lt; infra::detail::BoundedList\lNode\&lt; services::ConnectionFactory\lWithNameResolverImpl::Action \&gt; \&gt;">
<polygon fill="white" stroke="black" points="93,-6 93,-58 264,-58 264,-6 93,-6"/>
<text text-anchor="start" x="101" y="-46" font-family="Helvetica,sans-Serif" font-size="10.00">infra::StaticStorage</text>
<text text-anchor="start" x="101" y="-35" font-family="Helvetica,sans-Serif" font-size="10.00">&lt; infra::detail::BoundedList</text>
<text text-anchor="start" x="101" y="-24" font-family="Helvetica,sans-Serif" font-size="10.00">Node&lt; services::ConnectionFactory</text>
<text text-anchor="middle" x="178.5" y="-13" font-family="Helvetica,sans-Serif" font-size="10.00">WithNameResolverImpl::Action &gt; &gt;</text>
</a>
</g>
</g>
<!-- Node15&#45;&gt;Node14 -->
<g id="edge14" class="edge"><title>Node15&#45;&gt;Node14</title>
<path fill="none" stroke="#9a32cd" stroke-dasharray="5,2" d="M274.408,-32C302.912,-32 334.176,-32 362.675,-32"/>
<polygon fill="#9a32cd" stroke="#9a32cd" points="274.041,-28.5001 264.041,-32 274.041,-35.5001 274.041,-28.5001"/>
<text text-anchor="middle" x="313.5" y="-46" font-family="Helvetica,sans-Serif" font-size="10.00"> beginElement</text>
<text text-anchor="middle" x="313.5" y="-35" font-family="Helvetica,sans-Serif" font-size="10.00">endElement</text>
</g>
<!-- Node16 -->
<g id="node15" class="node"><title>Node16</title>
<polygon fill="white" stroke="#bfbfbf" points="0,-22.5 0,-41.5 35,-41.5 35,-22.5 0,-22.5"/>
<text text-anchor="middle" x="17.5" y="-29.5" font-family="Helvetica,sans-Serif" font-size="10.00">type</text>
</g>
<!-- Node16&#45;&gt;Node15 -->
<g id="edge15" class="edge"><title>Node16&#45;&gt;Node15</title>
<path fill="none" stroke="#9a32cd" stroke-dasharray="5,2" d="M45.5098,-32C58.8479,-32 75.75,-32 92.9681,-32"/>
<polygon fill="#9a32cd" stroke="#9a32cd" points="45.2153,-28.5001 35.2153,-32 45.2152,-35.5001 45.2153,-28.5001"/>
<text text-anchor="middle" x="64" y="-35" font-family="Helvetica,sans-Serif" font-size="10.00"> data</text>
</g>
<!-- Node17 -->
<g id="node16" class="node"><title>Node17</title>
<g id="a_node16"><a xlink:href="../../db/db4/classservices_1_1_connection_factory.html" target="_top" xlink:title="services::ConnectionFactory">
<polygon fill="white" stroke="black" points="696.5,-70.5 696.5,-89.5 836.5,-89.5 836.5,-70.5 696.5,-70.5"/>
<text text-anchor="middle" x="766.5" y="-77.5" font-family="Helvetica,sans-Serif" font-size="10.00">services::ConnectionFactory</text>
</a>
</g>
</g>
<!-- Node17&#45;&gt;Node2 -->
<g id="edge17" class="edge"><title>Node17&#45;&gt;Node2</title>
<path fill="none" stroke="#9a32cd" stroke-dasharray="5,2" d="M828.761,-91.7962C837.952,-93.9566 847.271,-96.3703 856,-99 902.625,-113.046 914.104,-117.922 958,-139 979.829,-149.482 1003.6,-163.322 1020.77,-173.783"/>
<polygon fill="#9a32cd" stroke="#9a32cd" points="829.397,-88.3517 818.871,-89.5531 827.849,-95.1783 829.397,-88.3517"/>
<text text-anchor="middle" x="916" y="-142" font-family="Helvetica,sans-Serif" font-size="10.00"> connectionFactory</text>
</g>
</g>
</svg>
        <g id="navigator" transform="translate(0 0)" fill="#404254">
                <rect fill="#f2f5e9" fill-opacity="0.5" stroke="#606060" stroke-width=".5" x="0" y="0" width="60" height="60"/>
                <use id="zoomplus" xlink:href="#zoomPlus" x="17" y="9" onmousedown="handleZoom(evt,'in')"/>
                <use id="zoomminus" xlink:href="#zoomMin" x="42" y="9" onmousedown="handleZoom(evt,'out')"/>
                <use id="reset" xlink:href="#resetDef" x="30" y="36" onmousedown="handleReset()"/>
                <g id="arrowUp" xlink:href="#dirArrow" transform="translate(30 24)" onmousedown="handlePan(0,-1)">
                  <use xlink:href="#rim" fill="#404040">
                        <set attributeName="fill" to="#808080" begin="arrowUp.mouseover" end="arrowUp.mouseout"/>
                  </use>
                  <path fill="none" stroke="white" stroke-width="1.5" d="M0,-3.0v7 M-2.5,-0.5L0,-3.0L2.5,-0.5"/>
                </g>
                <g id="arrowRight" xlink:href="#dirArrow" transform="rotate(90) translate(36 -43)" onmousedown="handlePan(1,0)">
                  <use xlink:href="#rim" fill="#404040">
                        <set attributeName="fill" to="#808080" begin="arrowRight.mouseover" end="arrowRight.mouseout"/>
                  </use>
                  <path fill="none" stroke="white" stroke-width="1.5" d="M0,-3.0v7 M-2.5,-0.5L0,-3.0L2.5,-0.5"/>
                </g>
                <g id="arrowDown" xlink:href="#dirArrow" transform="rotate(180) translate(-30 -48)" onmousedown="handlePan(0,1)">
                  <use xlink:href="#rim" fill="#404040">
                        <set attributeName="fill" to="#808080" begin="arrowDown.mouseover" end="arrowDown.mouseout"/>
                  </use>
                  <path fill="none" stroke="white" stroke-width="1.5" d="M0,-3.0v7 M-2.5,-0.5L0,-3.0L2.5,-0.5"/>
                </g>
                <g id="arrowLeft" xlink:href="#dirArrow" transform="rotate(270) translate(-36 17)" onmousedown="handlePan(-1,0)">
                  <use xlink:href="#rim" fill="#404040">
                        <set attributeName="fill" to="#808080" begin="arrowLeft.mouseover" end="arrowLeft.mouseout"/>
                  </use>
                  <path fill="none" stroke="white" stroke-width="1.5" d="M0,-3.0v7 M-2.5,-0.5L0,-3.0L2.5,-0.5"/>
                </g>
        </g>
        <svg viewBox="0 0 15 15" width="100%" height="30px" preserveAspectRatio="xMaxYMin meet">
         <g id="arrow_out" transform="scale(0.3 0.3)">
          <a xlink:href="classservices_1_1_connection_factory_with_name_resolver_impl__coll__graph_org.svg" target="_base">
           <rect id="button" ry="5" rx="5" y="6" x="6" height="38" width="38"
                fill="#f2f5e9" fill-opacity="0.5" stroke="#606060" stroke-width="1.0"/>
           <path id="arrow"
             d="M 11.500037,31.436501 C 11.940474,20.09759 22.043105,11.32322 32.158766,21.979434 L 37.068811,17.246167 C 37.068811,17.246167 37.088388,32 37.088388,32 L 22.160133,31.978069 C 22.160133,31.978069 26.997745,27.140456 26.997745,27.140456 C 18.528582,18.264221 13.291696,25.230495 11.500037,31.436501 z"
             style="fill:#404040;"/>
          </a>
         </g>
        </svg>
</svg>
