<?xml version="1.0" encoding="UTF-8" standalone="no"?>
<!DOCTYPE svg PUBLIC "-//W3C//DTD SVG 1.1//EN"
 "http://www.w3.org/Graphics/SVG/1.1/DTD/svg11.dtd">
<!-- Generated by graphviz version 2.38.0 (20140413.2041)
 -->
<!-- Title: infra::TimerServiceManager::RegisterTimerService Pages: 1 -->
<svg width="274pt" height="39pt"
 viewBox="0.00 0.00 274.00 39.00" xmlns="http://www.w3.org/2000/svg" xmlns:xlink="http://www.w3.org/1999/xlink">
<g id="graph0" class="graph" transform="scale(1 1) rotate(0) translate(4 35)">
<title>infra::TimerServiceManager::RegisterTimerService</title>
<polygon fill="white" stroke="none" points="-4,4 -4,-35 270,-35 270,4 -4,4"/>
<!-- Node17 -->
<g id="node1" class="node"><title>Node17</title>
<polygon fill="#bfbfbf" stroke="black" points="0,-0.5 0,-30.5 134,-30.5 134,-0.5 0,-0.5"/>
<text text-anchor="start" x="8" y="-18.5" font-family="Helvetica,sans-Serif" font-size="10.00">infra::TimerServiceManager</text>
<text text-anchor="middle" x="67" y="-7.5" font-family="Helvetica,sans-Serif" font-size="10.00">::RegisterTimerService</text>
</g>
<!-- Node18 -->
<g id="node2" class="node"><title>Node18</title>
<g id="a_node2"><a xlink:href="../../da/def/classinfra_1_1_timer_service.html#a8231b5f386b33ca47c44f5c5c4ec85ff" target="_top" xlink:title="infra::TimerService\l::TimerService">
<polygon fill="white" stroke="black" points="170,-0.5 170,-30.5 266,-30.5 266,-0.5 170,-0.5"/>
<text text-anchor="start" x="178" y="-18.5" font-family="Helvetica,sans-Serif" font-size="10.00">infra::TimerService</text>
<text text-anchor="middle" x="218" y="-7.5" font-family="Helvetica,sans-Serif" font-size="10.00">::TimerService</text>
</a>
</g>
</g>
<!-- Node17&#45;&gt;Node18 -->
<g id="edge1" class="edge"><title>Node17&#45;&gt;Node18</title>
<path fill="none" stroke="midnightblue" d="M144.361,-15.5C153.009,-15.5 161.624,-15.5 169.739,-15.5"/>
<polygon fill="midnightblue" stroke="midnightblue" points="144.221,-12.0001 134.221,-15.5 144.221,-19.0001 144.221,-12.0001"/>
</g>
</g>
</svg>
