<?xml version="1.0" encoding="UTF-8" standalone="no"?>
<!DOCTYPE svg PUBLIC "-//W3C//DTD SVG 1.1//EN"
 "http://www.w3.org/Graphics/SVG/1.1/DTD/svg11.dtd">
<!-- Generated by graphviz version 2.38.0 (20140413.2041)
 -->
<!-- Title: infra::ClaimableResource::ClaimerWithSize&lt; ExtraSize &gt; Pages: 1 -->
<svg width="164pt" height="173pt"
 viewBox="0.00 0.00 164.00 173.00" xmlns="http://www.w3.org/2000/svg" xmlns:xlink="http://www.w3.org/1999/xlink">
<g id="graph0" class="graph" transform="scale(1 1) rotate(0) translate(4 169)">
<title>infra::ClaimableResource::ClaimerWithSize&lt; ExtraSize &gt;</title>
<polygon fill="white" stroke="none" points="-4,4 -4,-169 160,-169 160,4 -4,4"/>
<!-- Node0 -->
<g id="node1" class="node"><title>Node0</title>
<polygon fill="#bfbfbf" stroke="black" points="0,-0.5 0,-30.5 156,-30.5 156,-0.5 0,-0.5"/>
<text text-anchor="start" x="8" y="-18.5" font-family="Helvetica,sans-Serif" font-size="10.00">infra::ClaimableResource</text>
<text text-anchor="middle" x="78" y="-7.5" font-family="Helvetica,sans-Serif" font-size="10.00">::ClaimerWithSize&lt; ExtraSize &gt;</text>
</g>
<!-- Node1 -->
<g id="node2" class="node"><title>Node1</title>
<g id="a_node2"><a xlink:href="../../da/d20/classinfra_1_1_claimable_resource_1_1_claimer_base.html" target="_top" xlink:title="infra::ClaimableResource\l::ClaimerBase">
<polygon fill="white" stroke="black" points="15.5,-67.5 15.5,-97.5 140.5,-97.5 140.5,-67.5 15.5,-67.5"/>
<text text-anchor="start" x="23.5" y="-85.5" font-family="Helvetica,sans-Serif" font-size="10.00">infra::ClaimableResource</text>
<text text-anchor="middle" x="78" y="-74.5" font-family="Helvetica,sans-Serif" font-size="10.00">::ClaimerBase</text>
</a>
</g>
</g>
<!-- Node1&#45;&gt;Node0 -->
<g id="edge1" class="edge"><title>Node1&#45;&gt;Node0</title>
<path fill="none" stroke="midnightblue" d="M78,-57.1081C78,-48.1539 78,-38.3227 78,-30.5765"/>
<polygon fill="midnightblue" stroke="midnightblue" points="74.5001,-57.3959 78,-67.396 81.5001,-57.396 74.5001,-57.3959"/>
</g>
<!-- Node2 -->
<g id="node3" class="node"><title>Node2</title>
<g id="a_node3"><a xlink:href="../../d7/da5/classinfra_1_1detail_1_1_intrusive_list_node.html" target="_top" xlink:title="infra::IntrusiveList\l\&lt; ClaimerBase \&gt;::NodeType">
<polygon fill="white" stroke="black" points="8,-134.5 8,-164.5 148,-164.5 148,-134.5 8,-134.5"/>
<text text-anchor="start" x="16" y="-152.5" font-family="Helvetica,sans-Serif" font-size="10.00">infra::IntrusiveList</text>
<text text-anchor="middle" x="78" y="-141.5" font-family="Helvetica,sans-Serif" font-size="10.00">&lt; ClaimerBase &gt;::NodeType</text>
</a>
</g>
</g>
<!-- Node2&#45;&gt;Node1 -->
<g id="edge2" class="edge"><title>Node2&#45;&gt;Node1</title>
<path fill="none" stroke="midnightblue" d="M78,-124.108C78,-115.154 78,-105.323 78,-97.5765"/>
<polygon fill="midnightblue" stroke="midnightblue" points="74.5001,-124.396 78,-134.396 81.5001,-124.396 74.5001,-124.396"/>
</g>
</g>
</svg>
