<?xml version="1.0" encoding="UTF-8" standalone="no"?>
<!DOCTYPE svg PUBLIC "-//W3C//DTD SVG 1.1//EN"
 "http://www.w3.org/Graphics/SVG/1.1/DTD/svg11.dtd">
<!-- Generated by graphviz version 2.38.0 (20140413.2041)
 -->
<!-- Title: infra::detail::SharedPtrControl::IncreaseWeakCount Pages: 1 -->
<svg width="331pt" height="39pt"
 viewBox="0.00 0.00 331.00 39.00" xmlns="http://www.w3.org/2000/svg" xmlns:xlink="http://www.w3.org/1999/xlink">
<g id="graph0" class="graph" transform="scale(1 1) rotate(0) translate(4 35)">
<title>infra::detail::SharedPtrControl::IncreaseWeakCount</title>
<polygon fill="white" stroke="none" points="-4,4 -4,-35 327,-35 327,4 -4,4"/>
<!-- Node22 -->
<g id="node1" class="node"><title>Node22</title>
<polygon fill="#bfbfbf" stroke="black" points="0,-0.5 0,-30.5 141,-30.5 141,-0.5 0,-0.5"/>
<text text-anchor="start" x="8" y="-18.5" font-family="Helvetica,sans-Serif" font-size="10.00">infra::detail::SharedPtr</text>
<text text-anchor="middle" x="70.5" y="-7.5" font-family="Helvetica,sans-Serif" font-size="10.00">Control::IncreaseWeakCount</text>
</g>
<!-- Node23 -->
<g id="node2" class="node"><title>Node23</title>
<g id="a_node2"><a xlink:href="../../dd/d9a/classinfra_1_1detail_1_1_shared_ptr_control.html#abc21e4e4d8048ac08c00463d41611eb2" target="_top" xlink:title="infra::detail::SharedPtr\lControl::IncreaseSharedCount">
<polygon fill="white" stroke="black" points="177,-0.5 177,-30.5 323,-30.5 323,-0.5 177,-0.5"/>
<text text-anchor="start" x="185" y="-18.5" font-family="Helvetica,sans-Serif" font-size="10.00">infra::detail::SharedPtr</text>
<text text-anchor="middle" x="250" y="-7.5" font-family="Helvetica,sans-Serif" font-size="10.00">Control::IncreaseSharedCount</text>
</a>
</g>
</g>
<!-- Node22&#45;&gt;Node23 -->
<g id="edge1" class="edge"><title>Node22&#45;&gt;Node23</title>
<path fill="none" stroke="midnightblue" d="M151.151,-15.5C159.737,-15.5 168.439,-15.5 176.929,-15.5"/>
<polygon fill="midnightblue" stroke="midnightblue" points="151.143,-12.0001 141.143,-15.5 151.143,-19.0001 151.143,-12.0001"/>
</g>
</g>
</svg>
