<?xml version="1.0" encoding="UTF-8" standalone="no"?>
<!DOCTYPE svg PUBLIC "-//W3C//DTD SVG 1.1//EN"
 "http://www.w3.org/Graphics/SVG/1.1/DTD/svg11.dtd">
<!-- Generated by graphviz version 2.38.0 (20140413.2041)
 -->
<!-- Title: infra::detail::SharedPtrControl::DecreaseSharedCount Pages: 1 -->
<svg width="508pt" height="88pt"
 viewBox="0.00 0.00 508.00 88.00" xmlns="http://www.w3.org/2000/svg" xmlns:xlink="http://www.w3.org/1999/xlink">
<g id="graph0" class="graph" transform="scale(1 1) rotate(0) translate(4 84)">
<title>infra::detail::SharedPtrControl::DecreaseSharedCount</title>
<polygon fill="white" stroke="none" points="-4,4 -4,-84 504,-84 504,4 -4,4"/>
<!-- Node4 -->
<g id="node1" class="node"><title>Node4</title>
<polygon fill="#bfbfbf" stroke="black" points="0,-24.5 0,-54.5 151,-54.5 151,-24.5 0,-24.5"/>
<text text-anchor="start" x="8" y="-42.5" font-family="Helvetica,sans-Serif" font-size="10.00">infra::detail::SharedPtr</text>
<text text-anchor="middle" x="75.5" y="-31.5" font-family="Helvetica,sans-Serif" font-size="10.00">Control::DecreaseSharedCount</text>
</g>
<!-- Node5 -->
<g id="node2" class="node"><title>Node5</title>
<g id="a_node2"><a xlink:href="../../dd/d9a/classinfra_1_1detail_1_1_shared_ptr_control.html#a114ef466ae1f9db484748a1a352ab669" target="_top" xlink:title="infra::detail::SharedPtr\lControl::DecreaseWeakCount">
<polygon fill="white" stroke="black" points="187,-49.5 187,-79.5 333,-79.5 333,-49.5 187,-49.5"/>
<text text-anchor="start" x="195" y="-67.5" font-family="Helvetica,sans-Serif" font-size="10.00">infra::detail::SharedPtr</text>
<text text-anchor="middle" x="260" y="-56.5" font-family="Helvetica,sans-Serif" font-size="10.00">Control::DecreaseWeakCount</text>
</a>
</g>
</g>
<!-- Node4&#45;&gt;Node5 -->
<g id="edge1" class="edge"><title>Node4&#45;&gt;Node5</title>
<path fill="none" stroke="midnightblue" d="M151.256,-49.7406C159.676,-50.8939 168.289,-52.0738 176.796,-53.2392"/>
<polygon fill="midnightblue" stroke="midnightblue" points="176.334,-56.7085 186.717,-54.5982 177.284,-49.7733 176.334,-56.7085"/>
</g>
<!-- Node7 -->
<g id="node4" class="node"><title>Node7</title>
<g id="a_node4"><a xlink:href="../../da/dcd/classinfra_1_1_shared_object_deleter.html#ab12194a326aae3c975d7f8a8fbd6c9eb" target="_top" xlink:title="infra::SharedObjectDeleter\l::Destruct">
<polygon fill="white" stroke="black" points="194.5,-0.5 194.5,-30.5 325.5,-30.5 325.5,-0.5 194.5,-0.5"/>
<text text-anchor="start" x="202.5" y="-18.5" font-family="Helvetica,sans-Serif" font-size="10.00">infra::SharedObjectDeleter</text>
<text text-anchor="middle" x="260" y="-7.5" font-family="Helvetica,sans-Serif" font-size="10.00">::Destruct</text>
</a>
</g>
</g>
<!-- Node4&#45;&gt;Node7 -->
<g id="edge3" class="edge"><title>Node4&#45;&gt;Node7</title>
<path fill="none" stroke="midnightblue" d="M151.256,-29.669C162.184,-28.2319 173.439,-26.7519 184.365,-25.3151"/>
<polygon fill="midnightblue" stroke="midnightblue" points="184.829,-28.7842 194.287,-24.0102 183.916,-21.844 184.829,-28.7842"/>
</g>
<!-- Node6 -->
<g id="node3" class="node"><title>Node6</title>
<g id="a_node3"><a xlink:href="../../da/dcd/classinfra_1_1_shared_object_deleter.html#a1988ff805e9d1fe771c204c4c4fb1ab8" target="_top" xlink:title="infra::SharedObjectDeleter\l::Deallocate">
<polygon fill="white" stroke="black" points="369,-49.5 369,-79.5 500,-79.5 500,-49.5 369,-49.5"/>
<text text-anchor="start" x="377" y="-67.5" font-family="Helvetica,sans-Serif" font-size="10.00">infra::SharedObjectDeleter</text>
<text text-anchor="middle" x="434.5" y="-56.5" font-family="Helvetica,sans-Serif" font-size="10.00">::Deallocate</text>
</a>
</g>
</g>
<!-- Node5&#45;&gt;Node6 -->
<g id="edge2" class="edge"><title>Node5&#45;&gt;Node6</title>
<path fill="none" stroke="midnightblue" d="M333.156,-64.5C341.557,-64.5 350.142,-64.5 358.58,-64.5"/>
<polygon fill="midnightblue" stroke="midnightblue" points="358.777,-68.0001 368.777,-64.5 358.777,-61.0001 358.777,-68.0001"/>
</g>
</g>
</svg>
