<?xml version="1.0" encoding="UTF-8" standalone="no"?>
<!DOCTYPE svg PUBLIC "-//W3C//DTD SVG 1.1//EN"
 "http://www.w3.org/Graphics/SVG/1.1/DTD/svg11.dtd">
<!-- Generated by graphviz version 2.38.0 (20140413.2041)
 -->
<!-- Title: application::ImageSignerRsa::MyRandom Pages: 1 -->
<svg width="306pt" height="39pt"
 viewBox="0.00 0.00 306.00 39.00" xmlns="http://www.w3.org/2000/svg" xmlns:xlink="http://www.w3.org/1999/xlink">
<g id="graph0" class="graph" transform="scale(1 1) rotate(0) translate(4 35)">
<title>application::ImageSignerRsa::MyRandom</title>
<polygon fill="white" stroke="none" points="-4,4 -4,-35 302,-35 302,4 -4,4"/>
<!-- Node26 -->
<g id="node1" class="node"><title>Node26</title>
<polygon fill="#bfbfbf" stroke="black" points="0,-0.5 0,-30.5 123,-30.5 123,-0.5 0,-0.5"/>
<text text-anchor="start" x="8" y="-18.5" font-family="Helvetica,sans-Serif" font-size="10.00">application::ImageSigner</text>
<text text-anchor="middle" x="61.5" y="-7.5" font-family="Helvetica,sans-Serif" font-size="10.00">Rsa::MyRandom</text>
</g>
<!-- Node27 -->
<g id="node2" class="node"><title>Node27</title>
<g id="a_node2"><a xlink:href="../../d8/de9/classapplication_1_1_random_number_generator.html#a226fdf347dd939a50def6dec3ea8a4ca" target="_top" xlink:title="application::RandomNumber\lGenerator::Generate">
<polygon fill="white" stroke="black" points="159,-0.5 159,-30.5 298,-30.5 298,-0.5 159,-0.5"/>
<text text-anchor="start" x="167" y="-18.5" font-family="Helvetica,sans-Serif" font-size="10.00">application::RandomNumber</text>
<text text-anchor="middle" x="228.5" y="-7.5" font-family="Helvetica,sans-Serif" font-size="10.00">Generator::Generate</text>
</a>
</g>
</g>
<!-- Node26&#45;&gt;Node27 -->
<g id="edge1" class="edge"><title>Node26&#45;&gt;Node27</title>
<path fill="none" stroke="midnightblue" d="M123.003,-15.5C131.399,-15.5 140.122,-15.5 148.789,-15.5"/>
<polygon fill="midnightblue" stroke="midnightblue" points="148.916,-19.0001 158.916,-15.5 148.916,-12.0001 148.916,-19.0001"/>
</g>
</g>
</svg>
