<?xml version="1.0" encoding="UTF-8" standalone="no"?>
<!DOCTYPE svg PUBLIC "-//W3C//DTD SVG 1.1//EN"
 "http://www.w3.org/Graphics/SVG/1.1/DTD/svg11.dtd">
<!-- Generated by graphviz version 2.38.0 (20140413.2041)
 -->
<!-- Title: application::UpgradePackInputFactory Pages: 1 -->
<svg width="409pt" height="242pt"
 viewBox="0.00 0.00 409.00 241.50" xmlns="http://www.w3.org/2000/svg" xmlns:xlink="http://www.w3.org/1999/xlink">
<g id="graph0" class="graph" transform="scale(1 1) rotate(0) translate(4 237.5)">
<title>application::UpgradePackInputFactory</title>
<polygon fill="white" stroke="none" points="-4,4 -4,-237.5 405,-237.5 405,4 -4,4"/>
<!-- Node2 -->
<g id="node1" class="node"><title>Node2</title>
<polygon fill="#bfbfbf" stroke="black" points="273,-104.5 273,-134.5 401,-134.5 401,-104.5 273,-104.5"/>
<text text-anchor="start" x="281" y="-122.5" font-family="Helvetica,sans-Serif" font-size="10.00">application::UpgradePack</text>
<text text-anchor="middle" x="337" y="-111.5" font-family="Helvetica,sans-Serif" font-size="10.00">InputFactory</text>
</g>
<!-- Node3 -->
<g id="node2" class="node"><title>Node3</title>
<g id="a_node2"><a xlink:href="../../d3/d0c/classapplication_1_1_input_factory.html" target="_top" xlink:title="application::InputFactory">
<polygon fill="white" stroke="black" points="4,-214 4,-233 127,-233 127,-214 4,-214"/>
<text text-anchor="middle" x="65.5" y="-221" font-family="Helvetica,sans-Serif" font-size="10.00">application::InputFactory</text>
</a>
</g>
</g>
<!-- Node3&#45;&gt;Node2 -->
<g id="edge1" class="edge"><title>Node3&#45;&gt;Node2</title>
<path fill="none" stroke="midnightblue" d="M137.17,-218.576C173.735,-213.941 218.278,-204.947 255,-187.5 282.198,-174.578 307.791,-150.305 322.673,-134.528"/>
<polygon fill="midnightblue" stroke="midnightblue" points="136.601,-215.119 127.082,-219.771 137.424,-222.07 136.601,-215.119"/>
</g>
<!-- Node4 -->
<g id="node3" class="node"><title>Node4</title>
<g id="a_node3"><a xlink:href="../../d2/d51/classhal_1_1_file_system.html" target="_top" xlink:title="hal::FileSystem">
<polygon fill="white" stroke="black" points="23,-176 23,-195 108,-195 108,-176 23,-176"/>
<text text-anchor="middle" x="65.5" y="-183" font-family="Helvetica,sans-Serif" font-size="10.00">hal::FileSystem</text>
</a>
</g>
</g>
<!-- Node4&#45;&gt;Node2 -->
<g id="edge2" class="edge"><title>Node4&#45;&gt;Node2</title>
<path fill="none" stroke="#9a32cd" stroke-dasharray="5,2" d="M118.494,-177.954C156.652,-171.841 209.528,-162.168 255,-149.5 269.735,-145.395 285.587,-139.799 299.326,-134.551"/>
<polygon fill="#9a32cd" stroke="#9a32cd" points="117.475,-174.571 108.141,-179.583 118.563,-181.486 117.475,-174.571"/>
<text text-anchor="middle" x="202" y="-175.5" font-family="Helvetica,sans-Serif" font-size="10.00"> fileSystem</text>
</g>
<!-- Node5 -->
<g id="node4" class="node"><title>Node5</title>
<polygon fill="white" stroke="#bfbfbf" points="4.5,-126.5 4.5,-156.5 126.5,-156.5 126.5,-126.5 4.5,-126.5"/>
<text text-anchor="start" x="12.5" y="-144.5" font-family="Helvetica,sans-Serif" font-size="10.00">vector&lt; std::pair&lt;</text>
<text text-anchor="middle" x="65.5" y="-133.5" font-family="Helvetica,sans-Serif" font-size="10.00"> std::string, uint32_t &gt; &gt;</text>
</g>
<!-- Node5&#45;&gt;Node2 -->
<g id="edge3" class="edge"><title>Node5&#45;&gt;Node2</title>
<path fill="none" stroke="#9a32cd" stroke-dasharray="5,2" d="M136.822,-135.759C178.917,-132.323 231.984,-127.991 272.756,-124.663"/>
<polygon fill="#9a32cd" stroke="#9a32cd" points="136.328,-132.288 126.646,-136.59 136.897,-139.265 136.328,-132.288"/>
<text text-anchor="middle" x="202" y="-137.5" font-family="Helvetica,sans-Serif" font-size="10.00"> supportedBinaryTargets</text>
</g>
<!-- Node6 -->
<g id="node5" class="node"><title>Node6</title>
<g id="a_node5"><a xlink:href="../../da/dd4/classapplication_1_1_image_security.html" target="_top" xlink:title="application::ImageSecurity">
<polygon fill="white" stroke="black" points="0,-88 0,-107 131,-107 131,-88 0,-88"/>
<text text-anchor="middle" x="65.5" y="-95" font-family="Helvetica,sans-Serif" font-size="10.00">application::ImageSecurity</text>
</a>
</g>
</g>
<!-- Node6&#45;&gt;Node2 -->
<g id="edge4" class="edge"><title>Node6&#45;&gt;Node2</title>
<path fill="none" stroke="#9a32cd" stroke-dasharray="5,2" d="M141.108,-103.32C175.749,-106.052 217.481,-109.386 255,-112.5 260.767,-112.979 266.765,-113.484 272.771,-113.994"/>
<polygon fill="#9a32cd" stroke="#9a32cd" points="141.312,-99.8249 131.068,-102.529 140.762,-106.803 141.312,-99.8249"/>
<text text-anchor="middle" x="202" y="-115.5" font-family="Helvetica,sans-Serif" font-size="10.00"> imageSecurity</text>
</g>
<!-- Node7 -->
<g id="node6" class="node"><title>Node7</title>
<polygon fill="white" stroke="#bfbfbf" points="13.5,-50 13.5,-69 117.5,-69 117.5,-50 13.5,-50"/>
<text text-anchor="middle" x="65.5" y="-57" font-family="Helvetica,sans-Serif" font-size="10.00">vector&lt; std::string &gt;</text>
</g>
<!-- Node7&#45;&gt;Node2 -->
<g id="edge5" class="edge"><title>Node7&#45;&gt;Node2</title>
<path fill="none" stroke="#9a32cd" stroke-dasharray="5,2" d="M128.039,-66.1849C165.183,-70.9856 213.247,-78.5594 255,-89.5 269.941,-93.4151 285.972,-99.0362 299.797,-104.357"/>
<polygon fill="#9a32cd" stroke="#9a32cd" points="128.225,-62.6808 117.866,-64.9038 127.351,-69.6259 128.225,-62.6808"/>
<text text-anchor="middle" x="202" y="-92.5" font-family="Helvetica,sans-Serif" font-size="10.00"> supportedHexTargets</text>
</g>
<!-- Node8 -->
<g id="node7" class="node"><title>Node8</title>
<polygon fill="white" stroke="#bfbfbf" points="0.5,-0.5 0.5,-30.5 130.5,-30.5 130.5,-0.5 0.5,-0.5"/>
<text text-anchor="start" x="8.5" y="-18.5" font-family="Helvetica,sans-Serif" font-size="10.00">vector&lt; application</text>
<text text-anchor="middle" x="65.5" y="-7.5" font-family="Helvetica,sans-Serif" font-size="10.00">::NoFileInputFactory * &gt; &amp;</text>
</g>
<!-- Node8&#45;&gt;Node2 -->
<g id="edge6" class="edge"><title>Node8&#45;&gt;Node2</title>
<path fill="none" stroke="#9a32cd" stroke-dasharray="5,2" d="M140.698,-23.2276C176.487,-28.9302 219.291,-38.7372 255,-55.5 280.958,-67.6855 306.109,-89.6391 321.322,-104.391"/>
<polygon fill="#9a32cd" stroke="#9a32cd" points="141.214,-19.7659 130.802,-21.7256 140.164,-26.6866 141.214,-19.7659"/>
<text text-anchor="middle" x="202" y="-58.5" font-family="Helvetica,sans-Serif" font-size="10.00"> otherTargets</text>
</g>
</g>
</svg>
