<?xml version="1.0" encoding="UTF-8" standalone="no"?>
<!DOCTYPE svg PUBLIC "-//W3C//DTD SVG 1.1//EN"
 "http://www.w3.org/Graphics/SVG/1.1/DTD/svg11.dtd">
<!-- Generated by graphviz version 2.38.0 (20140413.2041)
 -->
<!-- Title: infra::EventDispatcherConnector&lt; T &gt; Pages: 1 -->
<svg width="244pt" height="163pt"
 viewBox="0.00 0.00 244.00 163.00" xmlns="http://www.w3.org/2000/svg" xmlns:xlink="http://www.w3.org/1999/xlink">
<g id="graph0" class="graph" transform="scale(1 1) rotate(0) translate(4 159)">
<title>infra::EventDispatcherConnector&lt; T &gt;</title>
<polygon fill="white" stroke="none" points="-4,4 -4,-159 240,-159 240,4 -4,4"/>
<!-- Node3 -->
<g id="node1" class="node"><title>Node3</title>
<polygon fill="#bfbfbf" stroke="black" points="57,-0.5 57,-19.5 236,-19.5 236,-0.5 57,-0.5"/>
<text text-anchor="middle" x="146.5" y="-7.5" font-family="Helvetica,sans-Serif" font-size="10.00">infra::EventDispatcherConnector&lt; T &gt;</text>
</g>
<!-- Node4 -->
<g id="node2" class="node"><title>Node4</title>
<g id="a_node2"><a xlink:href="../../d3/d0e/classinfra_1_1_interface_connector.html" target="_top" xlink:title="infra::InterfaceConnector\l\&lt; EventDispatcherWorker \&gt;">
<polygon fill="white" stroke="black" points="3,-57.5 3,-87.5 140,-87.5 140,-57.5 3,-57.5"/>
<text text-anchor="start" x="11" y="-75.5" font-family="Helvetica,sans-Serif" font-size="10.00">infra::InterfaceConnector</text>
<text text-anchor="middle" x="71.5" y="-64.5" font-family="Helvetica,sans-Serif" font-size="10.00">&lt; EventDispatcherWorker &gt;</text>
</a>
</g>
</g>
<!-- Node4&#45;&gt;Node3 -->
<g id="edge1" class="edge"><title>Node4&#45;&gt;Node3</title>
<path fill="none" stroke="midnightblue" d="M96.8295,-51.0675C110.163,-40.3119 125.799,-27.699 135.913,-19.5399"/>
<polygon fill="midnightblue" stroke="midnightblue" points="94.4809,-48.4653 88.895,-57.468 98.8759,-53.9136 94.4809,-48.4653"/>
</g>
<!-- Node5 -->
<g id="node3" class="node"><title>Node5</title>
<g id="a_node3"><a xlink:href="../../d7/d34/classinfra_1_1_event_dispatcher_worker.html" target="_top" xlink:title="infra::EventDispatcherWorker">
<polygon fill="white" stroke="black" points="0,-135.5 0,-154.5 143,-154.5 143,-135.5 0,-135.5"/>
<text text-anchor="middle" x="71.5" y="-142.5" font-family="Helvetica,sans-Serif" font-size="10.00">infra::EventDispatcherWorker</text>
</a>
</g>
</g>
<!-- Node5&#45;&gt;Node4 -->
<g id="edge2" class="edge"><title>Node5&#45;&gt;Node4</title>
<path fill="none" stroke="#9a32cd" stroke-dasharray="5,2" d="M71.5,-125.236C71.5,-113.408 71.5,-98.3829 71.5,-87.5762"/>
<polygon fill="#9a32cd" stroke="#9a32cd" points="68.0001,-125.355 71.5,-135.355 75.0001,-125.355 68.0001,-125.355"/>
<text text-anchor="middle" x="94.5" y="-109" font-family="Helvetica,sans-Serif" font-size="10.00"> sInstance</text>
</g>
<!-- Node6 -->
<g id="node4" class="node"><title>Node6</title>
<g id="a_node4"><a xlink:href="../../d3/dee/class_t.html" target="_top" xlink:title="T">
<polygon fill="white" stroke="black" points="158,-63 158,-82 187,-82 187,-63 158,-63"/>
<text text-anchor="middle" x="172.5" y="-70" font-family="Helvetica,sans-Serif" font-size="10.00">T</text>
</a>
</g>
</g>
<!-- Node6&#45;&gt;Node3 -->
<g id="edge3" class="edge"><title>Node6&#45;&gt;Node3</title>
<path fill="none" stroke="midnightblue" d="M164.781,-53.5377C159.971,-42.3462 154,-28.4514 150.218,-19.6521"/>
<polygon fill="midnightblue" stroke="midnightblue" points="161.611,-55.0262 168.775,-62.8318 168.042,-52.2624 161.611,-55.0262"/>
</g>
</g>
</svg>
