<?xml version="1.0" encoding="UTF-8" standalone="no"?>
<!DOCTYPE svg PUBLIC "-//W3C//DTD SVG 1.1//EN"
 "http://www.w3.org/Graphics/SVG/1.1/DTD/svg11.dtd">
<!-- Generated by graphviz version 2.38.0 (20140413.2041)
 -->
<!-- Title: infra::InputStream::Empty Pages: 1 -->
<svg width="694pt" height="421pt"
 viewBox="0.00 0.00 694.00 421.00" xmlns="http://www.w3.org/2000/svg" xmlns:xlink="http://www.w3.org/1999/xlink">
<g id="graph0" class="graph" transform="scale(1 1) rotate(0) translate(4 417)">
<title>infra::InputStream::Empty</title>
<polygon fill="white" stroke="none" points="-4,4 -4,-417 690,-417 690,4 -4,4"/>
<!-- Node33 -->
<g id="node1" class="node"><title>Node33</title>
<polygon fill="#bfbfbf" stroke="black" points="0,-186.5 0,-216.5 93,-216.5 93,-186.5 0,-186.5"/>
<text text-anchor="start" x="8" y="-204.5" font-family="Helvetica,sans-Serif" font-size="10.00">infra::InputStream</text>
<text text-anchor="middle" x="46.5" y="-193.5" font-family="Helvetica,sans-Serif" font-size="10.00">::Empty</text>
</g>
<!-- Node34 -->
<g id="node2" class="node"><title>Node34</title>
<g id="a_node2"><a xlink:href="../../df/dd9/classservices_1_1_http_client_json.html#a4a2a1339e9f36b1cad73648cd070d9be" target="_top" xlink:title="services::HttpClientJson\l::BodyAvailable">
<polygon fill="white" stroke="black" points="158.5,-382.5 158.5,-412.5 279.5,-412.5 279.5,-382.5 158.5,-382.5"/>
<text text-anchor="start" x="166.5" y="-400.5" font-family="Helvetica,sans-Serif" font-size="10.00">services::HttpClientJson</text>
<text text-anchor="middle" x="219" y="-389.5" font-family="Helvetica,sans-Serif" font-size="10.00">::BodyAvailable</text>
</a>
</g>
</g>
<!-- Node33&#45;&gt;Node34 -->
<g id="edge1" class="edge"><title>Node33&#45;&gt;Node34</title>
<path fill="none" stroke="midnightblue" d="M52.4178,-226.624C61.1148,-264.254 82.8343,-334.942 129,-373.5 137.475,-380.579 147.847,-385.585 158.478,-389.122"/>
<polygon fill="midnightblue" stroke="midnightblue" points="55.7624,-225.534 50.212,-216.509 48.9232,-227.025 55.7624,-225.534"/>
</g>
<!-- Node35 -->
<g id="node3" class="node"><title>Node35</title>
<g id="a_node3"><a xlink:href="../../d7/da4/classapplication_1_1_tracing_http_client.html#ada950b62a2814b3604a73b9566e09a79" target="_top" xlink:title="application::TracingHttp\lClient::BodyAvailable">
<polygon fill="white" stroke="black" points="159.5,-333.5 159.5,-363.5 278.5,-363.5 278.5,-333.5 159.5,-333.5"/>
<text text-anchor="start" x="167.5" y="-351.5" font-family="Helvetica,sans-Serif" font-size="10.00">application::TracingHttp</text>
<text text-anchor="middle" x="219" y="-340.5" font-family="Helvetica,sans-Serif" font-size="10.00">Client::BodyAvailable</text>
</a>
</g>
</g>
<!-- Node33&#45;&gt;Node35 -->
<g id="edge2" class="edge"><title>Node33&#45;&gt;Node35</title>
<path fill="none" stroke="midnightblue" d="M57.3208,-226.026C69.8039,-254.053 94.019,-299.288 129,-324.5 137.958,-330.956 148.553,-335.676 159.251,-339.126"/>
<polygon fill="midnightblue" stroke="midnightblue" points="60.4137,-224.358 53.2544,-216.548 53.9808,-227.118 60.4137,-224.358"/>
</g>
<!-- Node36 -->
<g id="node4" class="node"><title>Node36</title>
<g id="a_node4"><a xlink:href="../../df/d09/classservices_1_1_tracing_http_client_impl.html#a2a4ebdef9cd37da3c11625013714992d" target="_top" xlink:title="services::TracingHttpClient\lImpl::DataReceived">
<polygon fill="white" stroke="black" points="153,-284.5 153,-314.5 285,-314.5 285,-284.5 153,-284.5"/>
<text text-anchor="start" x="161" y="-302.5" font-family="Helvetica,sans-Serif" font-size="10.00">services::TracingHttpClient</text>
<text text-anchor="middle" x="219" y="-291.5" font-family="Helvetica,sans-Serif" font-size="10.00">Impl::DataReceived</text>
</a>
</g>
</g>
<!-- Node33&#45;&gt;Node36 -->
<g id="edge3" class="edge"><title>Node33&#45;&gt;Node36</title>
<path fill="none" stroke="midnightblue" d="M66.9377,-224.185C82.2368,-240.681 104.933,-262.343 129,-275.5 136.442,-279.569 144.618,-282.981 152.904,-285.835"/>
<polygon fill="midnightblue" stroke="midnightblue" points="69.3498,-221.634 60.0479,-216.562 64.1565,-226.328 69.3498,-221.634"/>
</g>
<!-- Node37 -->
<g id="node5" class="node"><title>Node37</title>
<g id="a_node5"><a xlink:href="../../de/db9/classinfra_1_1_proto_parser.html#ac9a7287c767e32217a0af48d4afbcdb6" target="_top" xlink:title="infra::ProtoParser\l::Empty">
<polygon fill="white" stroke="black" points="173,-235.5 173,-265.5 265,-265.5 265,-235.5 173,-235.5"/>
<text text-anchor="start" x="181" y="-253.5" font-family="Helvetica,sans-Serif" font-size="10.00">infra::ProtoParser</text>
<text text-anchor="middle" x="219" y="-242.5" font-family="Helvetica,sans-Serif" font-size="10.00">::Empty</text>
</a>
</g>
</g>
<!-- Node33&#45;&gt;Node37 -->
<g id="edge4" class="edge"><title>Node33&#45;&gt;Node37</title>
<path fill="none" stroke="midnightblue" d="M102.848,-218.757C111.584,-221.4 120.527,-224.059 129,-226.5 143.148,-230.576 158.621,-234.822 172.64,-238.59"/>
<polygon fill="midnightblue" stroke="midnightblue" points="103.695,-215.356 93.1089,-215.792 101.656,-222.053 103.695,-215.356"/>
</g>
<!-- Node38 -->
<g id="node6" class="node"><title>Node38</title>
<g id="a_node6"><a xlink:href="../../d5/df5/structapplication_1_1_binary_object_1_1_line_contents.html#a74f818b7374ceefb5bc167dae1864ea3" target="_top" xlink:title="application::BinaryObject\l::LineContents::LineContents">
<polygon fill="white" stroke="black" points="147.5,-186.5 147.5,-216.5 290.5,-216.5 290.5,-186.5 147.5,-186.5"/>
<text text-anchor="start" x="155.5" y="-204.5" font-family="Helvetica,sans-Serif" font-size="10.00">application::BinaryObject</text>
<text text-anchor="middle" x="219" y="-193.5" font-family="Helvetica,sans-Serif" font-size="10.00">::LineContents::LineContents</text>
</a>
</g>
</g>
<!-- Node33&#45;&gt;Node38 -->
<g id="edge5" class="edge"><title>Node33&#45;&gt;Node38</title>
<path fill="none" stroke="midnightblue" d="M103.229,-201.5C117.35,-201.5 132.704,-201.5 147.453,-201.5"/>
<polygon fill="midnightblue" stroke="midnightblue" points="103.191,-198 93.1909,-201.5 103.191,-205 103.191,-198"/>
</g>
<!-- Node39 -->
<g id="node7" class="node"><title>Node39</title>
<g id="a_node7"><a xlink:href="../../d0/de3/namespaceinfra.html#a8ed078d50b54d6ed4ef6062d1a593c9a" target="_top" xlink:title="infra::operator\&gt;\&gt;">
<polygon fill="white" stroke="black" points="175,-148 175,-167 263,-167 263,-148 175,-148"/>
<text text-anchor="middle" x="219" y="-155" font-family="Helvetica,sans-Serif" font-size="10.00">infra::operator&gt;&gt;</text>
</a>
</g>
</g>
<!-- Node33&#45;&gt;Node39 -->
<g id="edge6" class="edge"><title>Node33&#45;&gt;Node39</title>
<path fill="none" stroke="midnightblue" d="M102.789,-184.69C111.532,-182.185 120.494,-179.706 129,-177.5 143.87,-173.644 160.249,-169.839 174.859,-166.6"/>
<polygon fill="midnightblue" stroke="midnightblue" points="101.674,-181.369 93.0449,-187.517 103.624,-188.092 101.674,-181.369"/>
</g>
<!-- Node40 -->
<g id="node8" class="node"><title>Node40</title>
<g id="a_node8"><a xlink:href="../../d1/d68/classservices_1_1_http_client_impl_1_1_http_response_parser.html#a0a3548eaeba6fbb9da20db77122292e4" target="_top" xlink:title="services::HttpClientImpl\l::HttpResponseParser::ParseHeaders">
<polygon fill="white" stroke="black" points="129,-98.5 129,-128.5 309,-128.5 309,-98.5 129,-98.5"/>
<text text-anchor="start" x="137" y="-116.5" font-family="Helvetica,sans-Serif" font-size="10.00">services::HttpClientImpl</text>
<text text-anchor="middle" x="219" y="-105.5" font-family="Helvetica,sans-Serif" font-size="10.00">::HttpResponseParser::ParseHeaders</text>
</a>
</g>
</g>
<!-- Node33&#45;&gt;Node40 -->
<g id="edge7" class="edge"><title>Node33&#45;&gt;Node40</title>
<path fill="none" stroke="midnightblue" d="M70.6107,-179.714C86.09,-166.16 107.503,-149.31 129,-138.5 136.599,-134.678 144.867,-131.368 153.2,-128.52"/>
<polygon fill="midnightblue" stroke="midnightblue" points="68.2015,-177.173 63.0879,-186.453 72.8719,-182.388 68.2015,-177.173"/>
</g>
<!-- Node41 -->
<g id="node9" class="node"><title>Node41</title>
<g id="a_node9"><a xlink:href="../../d2/db3/classservices_1_1_http_server_connection_observer.html#afd24d585e0b90fc44643244b0712f92f" target="_top" xlink:title="services::HttpServerConnection\lObserver::ReceivedTooMuchData">
<polygon fill="white" stroke="black" points="139,-49.5 139,-79.5 299,-79.5 299,-49.5 139,-49.5"/>
<text text-anchor="start" x="147" y="-67.5" font-family="Helvetica,sans-Serif" font-size="10.00">services::HttpServerConnection</text>
<text text-anchor="middle" x="219" y="-56.5" font-family="Helvetica,sans-Serif" font-size="10.00">Observer::ReceivedTooMuchData</text>
</a>
</g>
</g>
<!-- Node33&#45;&gt;Node41 -->
<g id="edge8" class="edge"><title>Node33&#45;&gt;Node41</title>
<path fill="none" stroke="midnightblue" d="M58.9576,-177.248C72.2699,-151.673 96.6162,-112.027 129,-89.5 134.534,-85.6507 140.647,-82.3915 147.001,-79.6324"/>
<polygon fill="midnightblue" stroke="midnightblue" points="55.773,-175.79 54.402,-186.296 62.0252,-178.938 55.773,-175.79"/>
</g>
<!-- Node44 -->
<g id="node12" class="node"><title>Node44</title>
<g id="a_node12"><a xlink:href="../../d9/de8/classinfra_1_1_proto_length_delimited.html#a56c72a9a3f142165035adaad1c35ddd3" target="_top" xlink:title="infra::ProtoLengthDelimited\l::SkipEverything">
<polygon fill="white" stroke="black" points="152,-0.5 152,-30.5 286,-30.5 286,-0.5 152,-0.5"/>
<text text-anchor="start" x="160" y="-18.5" font-family="Helvetica,sans-Serif" font-size="10.00">infra::ProtoLengthDelimited</text>
<text text-anchor="middle" x="219" y="-7.5" font-family="Helvetica,sans-Serif" font-size="10.00">::SkipEverything</text>
</a>
</g>
</g>
<!-- Node33&#45;&gt;Node44 -->
<g id="edge11" class="edge"><title>Node33&#45;&gt;Node44</title>
<path fill="none" stroke="midnightblue" d="M53.5029,-175.95C63.2123,-140.298 85.7926,-76.0168 129,-40.5 135.695,-34.9966 143.526,-30.7026 151.715,-27.3526"/>
<polygon fill="midnightblue" stroke="midnightblue" points="50.0109,-175.474 50.8942,-186.032 56.7877,-177.227 50.0109,-175.474"/>
</g>
<!-- Node42 -->
<g id="node10" class="node"><title>Node42</title>
<g id="a_node10"><a xlink:href="../../d2/db3/classservices_1_1_http_server_connection_observer.html#a3c5cabea13da6e140280b1b8c77244b3" target="_top" xlink:title="services::HttpServerConnection\lObserver::DataReceived">
<polygon fill="white" stroke="black" points="345,-49.5 345,-79.5 497,-79.5 497,-49.5 345,-49.5"/>
<text text-anchor="start" x="353" y="-67.5" font-family="Helvetica,sans-Serif" font-size="10.00">services::HttpServerConnection</text>
<text text-anchor="middle" x="421" y="-56.5" font-family="Helvetica,sans-Serif" font-size="10.00">Observer::DataReceived</text>
</a>
</g>
</g>
<!-- Node41&#45;&gt;Node42 -->
<g id="edge9" class="edge"><title>Node41&#45;&gt;Node42</title>
<path fill="none" stroke="midnightblue" d="M309.372,-64.5C321.201,-64.5 333.231,-64.5 344.789,-64.5"/>
<polygon fill="midnightblue" stroke="midnightblue" points="309.045,-61.0001 299.045,-64.5 309.045,-68.0001 309.045,-61.0001"/>
</g>
<!-- Node43 -->
<g id="node11" class="node"><title>Node43</title>
<g id="a_node11"><a xlink:href="../../d2/db3/classservices_1_1_http_server_connection_observer.html#a579fc75f469c5b79141187fc04dbf74c" target="_top" xlink:title="services::HttpServerConnection\lObserver::SendStreamAvailable">
<polygon fill="white" stroke="black" points="533,-49.5 533,-79.5 686,-79.5 686,-49.5 533,-49.5"/>
<text text-anchor="start" x="541" y="-67.5" font-family="Helvetica,sans-Serif" font-size="10.00">services::HttpServerConnection</text>
<text text-anchor="middle" x="609.5" y="-56.5" font-family="Helvetica,sans-Serif" font-size="10.00">Observer::SendStreamAvailable</text>
</a>
</g>
</g>
<!-- Node42&#45;&gt;Node43 -->
<g id="edge10" class="edge"><title>Node42&#45;&gt;Node43</title>
<path fill="none" stroke="midnightblue" d="M507.121,-64.5C515.752,-64.5 524.476,-64.5 532.996,-64.5"/>
<polygon fill="midnightblue" stroke="midnightblue" points="507.051,-61.0001 497.051,-64.5 507.05,-68.0001 507.051,-61.0001"/>
</g>
</g>
</svg>
