<?xml version="1.0" encoding="UTF-8" standalone="no"?>
<!DOCTYPE svg PUBLIC "-//W3C//DTD SVG 1.1//EN"
 "http://www.w3.org/Graphics/SVG/1.1/DTD/svg11.dtd">
<!-- Generated by graphviz version 2.38.0 (20140413.2041)
 -->
<!-- Title: infra::InputStream::Reader Pages: 1 -->
<svg width="694pt" height="212pt"
 viewBox="0.00 0.00 694.00 212.00" xmlns="http://www.w3.org/2000/svg" xmlns:xlink="http://www.w3.org/1999/xlink">
<g id="graph0" class="graph" transform="scale(1 1) rotate(0) translate(4 208)">
<title>infra::InputStream::Reader</title>
<polygon fill="white" stroke="none" points="-4,4 -4,-208 690,-208 690,4 -4,4"/>
<!-- Node75 -->
<g id="node1" class="node"><title>Node75</title>
<polygon fill="#bfbfbf" stroke="black" points="0,-80.5 0,-110.5 93,-110.5 93,-80.5 0,-80.5"/>
<text text-anchor="start" x="8" y="-98.5" font-family="Helvetica,sans-Serif" font-size="10.00">infra::InputStream</text>
<text text-anchor="middle" x="46.5" y="-87.5" font-family="Helvetica,sans-Serif" font-size="10.00">::Reader</text>
</g>
<!-- Node76 -->
<g id="node2" class="node"><title>Node76</title>
<g id="a_node2"><a xlink:href="../../d0/db4/classinfra_1_1_data_input_stream.html#a95f524fbb8b64a99b0534bcbb0fa5e78" target="_top" xlink:title="infra::DataInputStream\l::operator\&gt;\&gt;">
<polygon fill="white" stroke="black" points="129,-173.5 129,-203.5 242,-203.5 242,-173.5 129,-173.5"/>
<text text-anchor="start" x="137" y="-191.5" font-family="Helvetica,sans-Serif" font-size="10.00">infra::DataInputStream</text>
<text text-anchor="middle" x="185.5" y="-180.5" font-family="Helvetica,sans-Serif" font-size="10.00">::operator&gt;&gt;</text>
</a>
</g>
</g>
<!-- Node75&#45;&gt;Node76 -->
<g id="edge1" class="edge"><title>Node75&#45;&gt;Node76</title>
<path fill="none" stroke="midnightblue" d="M70.2262,-117.927C85.8336,-132.495 107.536,-151.182 129,-164.5 134.174,-167.71 139.852,-170.698 145.54,-173.399"/>
<polygon fill="midnightblue" stroke="midnightblue" points="72.3147,-115.083 62.6537,-110.734 67.4939,-120.159 72.3147,-115.083"/>
</g>
<!-- Node77 -->
<g id="node3" class="node"><title>Node77</title>
<g id="a_node3"><a xlink:href="../../d7/d93/classinfra_1_1_text_input_stream.html#a81177021104b578af501153a665750bf" target="_top" xlink:title="infra::TextInputStream\l::operator\&gt;\&gt;">
<polygon fill="white" stroke="black" points="129.5,-124.5 129.5,-154.5 241.5,-154.5 241.5,-124.5 129.5,-124.5"/>
<text text-anchor="start" x="137.5" y="-142.5" font-family="Helvetica,sans-Serif" font-size="10.00">infra::TextInputStream</text>
<text text-anchor="middle" x="185.5" y="-131.5" font-family="Helvetica,sans-Serif" font-size="10.00">::operator&gt;&gt;</text>
</a>
</g>
</g>
<!-- Node75&#45;&gt;Node77 -->
<g id="edge2" class="edge"><title>Node75&#45;&gt;Node77</title>
<path fill="none" stroke="midnightblue" d="M102.704,-113.23C114.299,-116.954 126.422,-120.847 137.676,-124.462"/>
<polygon fill="midnightblue" stroke="midnightblue" points="103.71,-109.877 93.119,-110.151 101.57,-116.542 103.71,-109.877"/>
</g>
<!-- Node79 -->
<g id="node5" class="node"><title>Node79</title>
<g id="a_node5"><a xlink:href="../../d7/d93/classinfra_1_1_text_input_stream.html#a37f8a18ba4c7477ffa9d26b83aa0849d" target="_top" xlink:title="infra::TextInputStream\l::ReadAsDecimal">
<polygon fill="white" stroke="black" points="278,-66.5 278,-96.5 390,-96.5 390,-66.5 278,-66.5"/>
<text text-anchor="start" x="286" y="-84.5" font-family="Helvetica,sans-Serif" font-size="10.00">infra::TextInputStream</text>
<text text-anchor="middle" x="334" y="-73.5" font-family="Helvetica,sans-Serif" font-size="10.00">::ReadAsDecimal</text>
</a>
</g>
</g>
<!-- Node75&#45;&gt;Node79 -->
<g id="edge4" class="edge"><title>Node75&#45;&gt;Node79</title>
<path fill="none" stroke="midnightblue" d="M103.13,-92.7721C153.576,-90.2984 227.525,-86.6722 277.828,-84.2055"/>
<polygon fill="midnightblue" stroke="midnightblue" points="102.871,-89.2805 93.054,-93.2662 103.213,-96.2721 102.871,-89.2805"/>
</g>
<!-- Node83 -->
<g id="node9" class="node"><title>Node83</title>
<g id="a_node9"><a xlink:href="../../d7/d93/classinfra_1_1_text_input_stream.html#ac76645a4fee308debc716ae6e5a2961a" target="_top" xlink:title="infra::TextInputStream\l::ReadAsHex">
<polygon fill="white" stroke="black" points="278,-0.5 278,-30.5 390,-30.5 390,-0.5 278,-0.5"/>
<text text-anchor="start" x="286" y="-18.5" font-family="Helvetica,sans-Serif" font-size="10.00">infra::TextInputStream</text>
<text text-anchor="middle" x="334" y="-7.5" font-family="Helvetica,sans-Serif" font-size="10.00">::ReadAsHex</text>
</a>
</g>
</g>
<!-- Node75&#45;&gt;Node83 -->
<g id="edge8" class="edge"><title>Node75&#45;&gt;Node83</title>
<path fill="none" stroke="midnightblue" d="M66.5555,-72.9325C81.6569,-56.819 104.274,-36.3245 129,-26.5 176.63,-7.57547 235.486,-6.51028 277.72,-9.1724"/>
<polygon fill="midnightblue" stroke="midnightblue" points="63.8884,-70.6635 59.7695,-80.4249 69.0767,-75.3626 63.8884,-70.6635"/>
</g>
<!-- Node85 -->
<g id="node11" class="node"><title>Node85</title>
<g id="a_node11"><a xlink:href="../../d7/d93/classinfra_1_1_text_input_stream.html#a9acce538269dafb453bd83f20808a458" target="_top" xlink:title="infra::TextInputStream\l::SkipSpaces">
<polygon fill="white" stroke="black" points="129.5,-36.5 129.5,-66.5 241.5,-66.5 241.5,-36.5 129.5,-36.5"/>
<text text-anchor="start" x="137.5" y="-54.5" font-family="Helvetica,sans-Serif" font-size="10.00">infra::TextInputStream</text>
<text text-anchor="middle" x="185.5" y="-43.5" font-family="Helvetica,sans-Serif" font-size="10.00">::SkipSpaces</text>
</a>
</g>
</g>
<!-- Node75&#45;&gt;Node85 -->
<g id="edge11" class="edge"><title>Node75&#45;&gt;Node85</title>
<path fill="none" stroke="midnightblue" d="M102.704,-77.7703C114.299,-74.0464 126.422,-70.1527 137.676,-66.5385"/>
<polygon fill="midnightblue" stroke="midnightblue" points="101.57,-74.4584 93.119,-80.8486 103.71,-81.1231 101.57,-74.4584"/>
</g>
<!-- Node78 -->
<g id="node4" class="node"><title>Node78</title>
<g id="a_node4"><a xlink:href="../../d7/d93/classinfra_1_1_text_input_stream.html#a0c4a6602a4104666cb247a15ce1f1a57" target="_top" xlink:title="infra::TextInputStream\l::operator\&gt;\&gt;">
<polygon fill="white" stroke="black" points="278,-124.5 278,-154.5 390,-154.5 390,-124.5 278,-124.5"/>
<text text-anchor="start" x="286" y="-142.5" font-family="Helvetica,sans-Serif" font-size="10.00">infra::TextInputStream</text>
<text text-anchor="middle" x="334" y="-131.5" font-family="Helvetica,sans-Serif" font-size="10.00">::operator&gt;&gt;</text>
</a>
</g>
</g>
<!-- Node77&#45;&gt;Node78 -->
<g id="edge3" class="edge"><title>Node77&#45;&gt;Node78</title>
<path fill="none" stroke="midnightblue" d="M252.134,-139.5C260.618,-139.5 269.239,-139.5 277.536,-139.5"/>
<polygon fill="midnightblue" stroke="midnightblue" points="251.885,-136 241.885,-139.5 251.885,-143 251.885,-136"/>
</g>
<!-- Node80 -->
<g id="node6" class="node"><title>Node80</title>
<g id="a_node6"><a xlink:href="../../d7/d93/classinfra_1_1_text_input_stream.html#ac3a7e4a3e77144f3b309730fcd91e570" target="_top" xlink:title="infra::TextInputStream\l::Read">
<polygon fill="white" stroke="black" points="426,-49.5 426,-79.5 538,-79.5 538,-49.5 426,-49.5"/>
<text text-anchor="start" x="434" y="-67.5" font-family="Helvetica,sans-Serif" font-size="10.00">infra::TextInputStream</text>
<text text-anchor="middle" x="482" y="-56.5" font-family="Helvetica,sans-Serif" font-size="10.00">::Read</text>
</a>
</g>
</g>
<!-- Node79&#45;&gt;Node80 -->
<g id="edge5" class="edge"><title>Node79&#45;&gt;Node80</title>
<path fill="none" stroke="midnightblue" d="M400.131,-73.9162C408.676,-72.9213 417.366,-71.9095 425.726,-70.9361"/>
<polygon fill="midnightblue" stroke="midnightblue" points="399.724,-70.4399 390.196,-75.073 400.534,-77.3929 399.724,-70.4399"/>
</g>
<!-- Node82 -->
<g id="node8" class="node"><title>Node82</title>
<g id="a_node8"><a xlink:href="../../d7/d93/classinfra_1_1_text_input_stream.html#a73e0b4b5d322edd1bcd38335442f5f35" target="_top" xlink:title="infra::TextInputStream\l::ReadAsDecimal">
<polygon fill="white" stroke="black" points="426,-98.5 426,-128.5 538,-128.5 538,-98.5 426,-98.5"/>
<text text-anchor="start" x="434" y="-116.5" font-family="Helvetica,sans-Serif" font-size="10.00">infra::TextInputStream</text>
<text text-anchor="middle" x="482" y="-105.5" font-family="Helvetica,sans-Serif" font-size="10.00">::ReadAsDecimal</text>
</a>
</g>
</g>
<!-- Node79&#45;&gt;Node82 -->
<g id="edge7" class="edge"><title>Node79&#45;&gt;Node82</title>
<path fill="none" stroke="midnightblue" d="M400.131,-95.7754C408.676,-97.6481 417.366,-99.5528 425.726,-101.385"/>
<polygon fill="midnightblue" stroke="midnightblue" points="400.714,-92.32 390.196,-93.5978 399.215,-99.1577 400.714,-92.32"/>
</g>
<!-- Node81 -->
<g id="node7" class="node"><title>Node81</title>
<g id="a_node7"><a xlink:href="../../d7/d93/classinfra_1_1_text_input_stream.html#a8b90f80f1548f6cc603e0807e68b9a78" target="_top" xlink:title="infra::TextInputStream\l::operator\&gt;\&gt;">
<polygon fill="white" stroke="black" points="574,-49.5 574,-79.5 686,-79.5 686,-49.5 574,-49.5"/>
<text text-anchor="start" x="582" y="-67.5" font-family="Helvetica,sans-Serif" font-size="10.00">infra::TextInputStream</text>
<text text-anchor="middle" x="630" y="-56.5" font-family="Helvetica,sans-Serif" font-size="10.00">::operator&gt;&gt;</text>
</a>
</g>
</g>
<!-- Node80&#45;&gt;Node81 -->
<g id="edge6" class="edge"><title>Node80&#45;&gt;Node81</title>
<path fill="none" stroke="midnightblue" d="M548.41,-64.5C556.865,-64.5 565.457,-64.5 573.726,-64.5"/>
<polygon fill="midnightblue" stroke="midnightblue" points="548.196,-61.0001 538.196,-64.5 548.196,-68.0001 548.196,-61.0001"/>
</g>
<!-- Node83&#45;&gt;Node80 -->
<g id="edge9" class="edge"><title>Node83&#45;&gt;Node80</title>
<path fill="none" stroke="midnightblue" d="M389.841,-33.9055C405.116,-39.0322 421.525,-44.5392 436.152,-49.4484"/>
<polygon fill="midnightblue" stroke="midnightblue" points="390.59,-30.4651 379.996,-30.6014 388.363,-37.1014 390.59,-30.4651"/>
</g>
<!-- Node84 -->
<g id="node10" class="node"><title>Node84</title>
<g id="a_node10"><a xlink:href="../../d7/d93/classinfra_1_1_text_input_stream.html#ac6378625d4c4df73b79a7ec22f09994b" target="_top" xlink:title="infra::TextInputStream\l::ReadAsHex">
<polygon fill="white" stroke="black" points="426,-0.5 426,-30.5 538,-30.5 538,-0.5 426,-0.5"/>
<text text-anchor="start" x="434" y="-18.5" font-family="Helvetica,sans-Serif" font-size="10.00">infra::TextInputStream</text>
<text text-anchor="middle" x="482" y="-7.5" font-family="Helvetica,sans-Serif" font-size="10.00">::ReadAsHex</text>
</a>
</g>
</g>
<!-- Node83&#45;&gt;Node84 -->
<g id="edge10" class="edge"><title>Node83&#45;&gt;Node84</title>
<path fill="none" stroke="midnightblue" d="M400.41,-15.5C408.865,-15.5 417.457,-15.5 425.726,-15.5"/>
<polygon fill="midnightblue" stroke="midnightblue" points="400.196,-12.0001 390.196,-15.5 400.196,-19.0001 400.196,-12.0001"/>
</g>
<!-- Node85&#45;&gt;Node79 -->
<g id="edge12" class="edge"><title>Node85&#45;&gt;Node79</title>
<path fill="none" stroke="midnightblue" d="M251.854,-64.8832C260.428,-66.6389 269.148,-68.4245 277.536,-70.1422"/>
<polygon fill="midnightblue" stroke="midnightblue" points="252.384,-61.4191 241.885,-62.8417 250.98,-68.2768 252.384,-61.4191"/>
</g>
<!-- Node85&#45;&gt;Node83 -->
<g id="edge13" class="edge"><title>Node85&#45;&gt;Node83</title>
<path fill="none" stroke="midnightblue" d="M251.854,-35.4402C260.428,-33.3333 269.148,-31.1906 277.536,-29.1293"/>
<polygon fill="midnightblue" stroke="midnightblue" points="250.761,-32.1046 241.885,-37.8899 252.432,-38.9024 250.761,-32.1046"/>
</g>
</g>
</svg>
