<?xml version="1.0" encoding="UTF-8" standalone="no"?>
<!DOCTYPE svg PUBLIC "-//W3C//DTD SVG 1.1//EN"
 "http://www.w3.org/Graphics/SVG/1.1/DTD/svg11.dtd">
<!-- Generated by graphviz version 2.38.0 (20140413.2041)
 -->
<!-- Title: infra::InputStream::Available Pages: 1 -->
<svg width="517pt" height="284pt"
 viewBox="0.00 0.00 517.00 284.00" xmlns="http://www.w3.org/2000/svg" xmlns:xlink="http://www.w3.org/1999/xlink">
<g id="graph0" class="graph" transform="scale(1 1) rotate(0) translate(4 280)">
<title>infra::InputStream::Available</title>
<polygon fill="white" stroke="none" points="-4,4 -4,-280 513,-280 513,4 -4,4"/>
<!-- Node6 -->
<g id="node1" class="node"><title>Node6</title>
<polygon fill="#bfbfbf" stroke="black" points="0,-122.5 0,-152.5 93,-152.5 93,-122.5 0,-122.5"/>
<text text-anchor="start" x="8" y="-140.5" font-family="Helvetica,sans-Serif" font-size="10.00">infra::InputStream</text>
<text text-anchor="middle" x="46.5" y="-129.5" font-family="Helvetica,sans-Serif" font-size="10.00">::Available</text>
</g>
<!-- Node7 -->
<g id="node2" class="node"><title>Node7</title>
<g id="a_node2"><a xlink:href="../../d2/db3/classservices_1_1_http_server_connection_observer.html#a3c5cabea13da6e140280b1b8c77244b3" target="_top" xlink:title="services::HttpServerConnection\lObserver::DataReceived">
<polygon fill="white" stroke="black" points="148.5,-245.5 148.5,-275.5 300.5,-275.5 300.5,-245.5 148.5,-245.5"/>
<text text-anchor="start" x="156.5" y="-263.5" font-family="Helvetica,sans-Serif" font-size="10.00">services::HttpServerConnection</text>
<text text-anchor="middle" x="224.5" y="-252.5" font-family="Helvetica,sans-Serif" font-size="10.00">Observer::DataReceived</text>
</a>
</g>
</g>
<!-- Node6&#45;&gt;Node7 -->
<g id="edge1" class="edge"><title>Node6&#45;&gt;Node7</title>
<path fill="none" stroke="midnightblue" d="M61.0743,-161.544C75.1533,-184.276 99.2609,-217.631 129,-236.5 135.003,-240.309 141.58,-243.514 148.381,-246.211"/>
<polygon fill="midnightblue" stroke="midnightblue" points="63.9848,-159.592 55.8376,-152.819 57.9829,-163.194 63.9848,-159.592"/>
</g>
<!-- Node9 -->
<g id="node4" class="node"><title>Node9</title>
<g id="a_node4"><a xlink:href="../../d9/de8/classinfra_1_1_proto_length_delimited.html#a46493aebd6ea0d395aa2edc6fbd0292c" target="_top" xlink:title="infra::ProtoLengthDelimited\l::GetBytes">
<polygon fill="white" stroke="black" points="157.5,-196.5 157.5,-226.5 291.5,-226.5 291.5,-196.5 157.5,-196.5"/>
<text text-anchor="start" x="165.5" y="-214.5" font-family="Helvetica,sans-Serif" font-size="10.00">infra::ProtoLengthDelimited</text>
<text text-anchor="middle" x="224.5" y="-203.5" font-family="Helvetica,sans-Serif" font-size="10.00">::GetBytes</text>
</a>
</g>
</g>
<!-- Node6&#45;&gt;Node9 -->
<g id="edge3" class="edge"><title>Node6&#45;&gt;Node9</title>
<path fill="none" stroke="midnightblue" d="M76.7015,-158.396C91.7404,-168.37 110.719,-179.782 129,-187.5 137.967,-191.286 147.673,-194.582 157.334,-197.417"/>
<polygon fill="midnightblue" stroke="midnightblue" points="78.5791,-155.44 68.3371,-152.729 74.6526,-161.236 78.5791,-155.44"/>
</g>
<!-- Node10 -->
<g id="node5" class="node"><title>Node10</title>
<g id="a_node5"><a xlink:href="../../d9/de8/classinfra_1_1_proto_length_delimited.html#abec8d6a15eb68e8e4493c20537b9a6f2" target="_top" xlink:title="infra::ProtoLengthDelimited\l::GetString">
<polygon fill="white" stroke="black" points="157.5,-147.5 157.5,-177.5 291.5,-177.5 291.5,-147.5 157.5,-147.5"/>
<text text-anchor="start" x="165.5" y="-165.5" font-family="Helvetica,sans-Serif" font-size="10.00">infra::ProtoLengthDelimited</text>
<text text-anchor="middle" x="224.5" y="-154.5" font-family="Helvetica,sans-Serif" font-size="10.00">::GetString</text>
</a>
</g>
</g>
<!-- Node6&#45;&gt;Node10 -->
<g id="edge4" class="edge"><title>Node6&#45;&gt;Node10</title>
<path fill="none" stroke="midnightblue" d="M103.661,-145.477C120.759,-147.906 139.71,-150.598 157.401,-153.111"/>
<polygon fill="midnightblue" stroke="midnightblue" points="103.675,-141.944 93.2825,-144.003 102.691,-148.875 103.675,-141.944"/>
</g>
<!-- Node11 -->
<g id="node6" class="node"><title>Node11</title>
<g id="a_node6"><a xlink:href="../../d1/d68/classservices_1_1_http_client_impl_1_1_http_response_parser.html#a0a3548eaeba6fbb9da20db77122292e4" target="_top" xlink:title="services::HttpClientImpl\l::HttpResponseParser::ParseHeaders">
<polygon fill="white" stroke="black" points="134.5,-98.5 134.5,-128.5 314.5,-128.5 314.5,-98.5 134.5,-98.5"/>
<text text-anchor="start" x="142.5" y="-116.5" font-family="Helvetica,sans-Serif" font-size="10.00">services::HttpClientImpl</text>
<text text-anchor="middle" x="224.5" y="-105.5" font-family="Helvetica,sans-Serif" font-size="10.00">::HttpResponseParser::ParseHeaders</text>
</a>
</g>
</g>
<!-- Node6&#45;&gt;Node11 -->
<g id="edge5" class="edge"><title>Node6&#45;&gt;Node11</title>
<path fill="none" stroke="midnightblue" d="M103.329,-129.887C113.211,-128.539 123.721,-127.106 134.255,-125.67"/>
<polygon fill="midnightblue" stroke="midnightblue" points="102.718,-126.438 93.2825,-131.257 103.664,-133.374 102.718,-126.438"/>
</g>
<!-- Node12 -->
<g id="node7" class="node"><title>Node12</title>
<g id="a_node7"><a xlink:href="../../d1/d68/classservices_1_1_http_client_impl_1_1_http_response_parser.html#a03728efaf9cbc991702311c178f460e9" target="_top" xlink:title="services::HttpClientImpl\l::HttpResponseParser::ParseStatusLine">
<polygon fill="white" stroke="black" points="129,-49.5 129,-79.5 320,-79.5 320,-49.5 129,-49.5"/>
<text text-anchor="start" x="137" y="-67.5" font-family="Helvetica,sans-Serif" font-size="10.00">services::HttpClientImpl</text>
<text text-anchor="middle" x="224.5" y="-56.5" font-family="Helvetica,sans-Serif" font-size="10.00">::HttpResponseParser::ParseStatusLine</text>
</a>
</g>
</g>
<!-- Node6&#45;&gt;Node12 -->
<g id="edge6" class="edge"><title>Node6&#45;&gt;Node12</title>
<path fill="none" stroke="midnightblue" d="M78.2162,-116.703C93.0598,-107.37 111.431,-96.8338 129,-89.5 138.005,-85.741 147.732,-82.4094 157.403,-79.5028"/>
<polygon fill="midnightblue" stroke="midnightblue" points="75.9922,-113.972 69.4685,-122.32 79.7743,-119.862 75.9922,-113.972"/>
</g>
<!-- Node13 -->
<g id="node8" class="node"><title>Node13</title>
<g id="a_node8"><a xlink:href="../../d9/de8/classinfra_1_1_proto_length_delimited.html#af6b8eb4d899cf2c1fc2aeb3eebf41b41" target="_top" xlink:title="infra::ProtoLengthDelimited\l::ProtoLengthDelimited">
<polygon fill="white" stroke="black" points="157.5,-0.5 157.5,-30.5 291.5,-30.5 291.5,-0.5 157.5,-0.5"/>
<text text-anchor="start" x="165.5" y="-18.5" font-family="Helvetica,sans-Serif" font-size="10.00">infra::ProtoLengthDelimited</text>
<text text-anchor="middle" x="224.5" y="-7.5" font-family="Helvetica,sans-Serif" font-size="10.00">::ProtoLengthDelimited</text>
</a>
</g>
</g>
<!-- Node6&#45;&gt;Node13 -->
<g id="edge7" class="edge"><title>Node6&#45;&gt;Node13</title>
<path fill="none" stroke="midnightblue" d="M61.4675,-113.637C75.6939,-91.4241 99.7797,-59.0369 129,-40.5 137.598,-35.0454 147.357,-30.7744 157.26,-27.4318"/>
<polygon fill="midnightblue" stroke="midnightblue" points="58.4664,-111.836 56.161,-122.177 64.4119,-115.53 58.4664,-111.836"/>
</g>
<!-- Node8 -->
<g id="node3" class="node"><title>Node8</title>
<g id="a_node3"><a xlink:href="../../d2/db3/classservices_1_1_http_server_connection_observer.html#a579fc75f469c5b79141187fc04dbf74c" target="_top" xlink:title="services::HttpServerConnection\lObserver::SendStreamAvailable">
<polygon fill="white" stroke="black" points="356,-245.5 356,-275.5 509,-275.5 509,-245.5 356,-245.5"/>
<text text-anchor="start" x="364" y="-263.5" font-family="Helvetica,sans-Serif" font-size="10.00">services::HttpServerConnection</text>
<text text-anchor="middle" x="432.5" y="-252.5" font-family="Helvetica,sans-Serif" font-size="10.00">Observer::SendStreamAvailable</text>
</a>
</g>
</g>
<!-- Node7&#45;&gt;Node8 -->
<g id="edge2" class="edge"><title>Node7&#45;&gt;Node8</title>
<path fill="none" stroke="midnightblue" d="M310.943,-260.5C325.812,-260.5 341.183,-260.5 355.769,-260.5"/>
<polygon fill="midnightblue" stroke="midnightblue" points="310.745,-257 300.745,-260.5 310.745,-264 310.745,-257"/>
</g>
</g>
</svg>
