<?xml version="1.0" encoding="UTF-8" standalone="no"?>
<!DOCTYPE svg PUBLIC "-//W3C//DTD SVG 1.1//EN"
 "http://www.w3.org/Graphics/SVG/1.1/DTD/svg11.dtd">
<!-- Generated by graphviz version 2.38.0 (20140413.2041)
 -->
<!-- Title: infra::Timer::UnregisterSelf Pages: 1 -->
<svg width="1471pt" height="804pt"
 viewBox="0.00 0.00 1471.00 804.00" xmlns="http://www.w3.org/2000/svg" xmlns:xlink="http://www.w3.org/1999/xlink">
<g id="graph0" class="graph" transform="scale(1 1) rotate(0) translate(4 800)">
<title>infra::Timer::UnregisterSelf</title>
<polygon fill="white" stroke="none" points="-4,4 -4,-800 1467,-800 1467,4 -4,4"/>
<!-- Node368 -->
<g id="node1" class="node"><title>Node368</title>
<polygon fill="#bfbfbf" stroke="black" points="0,-290 0,-309 131,-309 131,-290 0,-290"/>
<text text-anchor="middle" x="65.5" y="-297" font-family="Helvetica,sans-Serif" font-size="10.00">infra::Timer::UnregisterSelf</text>
</g>
<!-- Node369 -->
<g id="node2" class="node"><title>Node369</title>
<g id="a_node2"><a xlink:href="../../d5/da5/classinfra_1_1_timer.html#abf5658fb078dc1dad0705a7791f7b84c" target="_top" xlink:title="infra::Timer::Cancel">
<polygon fill="white" stroke="black" points="167,-290 167,-309 268,-309 268,-290 167,-290"/>
<text text-anchor="middle" x="217.5" y="-297" font-family="Helvetica,sans-Serif" font-size="10.00">infra::Timer::Cancel</text>
</a>
</g>
</g>
<!-- Node368&#45;&gt;Node369 -->
<g id="edge1" class="edge"><title>Node368&#45;&gt;Node369</title>
<path fill="none" stroke="midnightblue" d="M141.495,-299.5C150.101,-299.5 158.707,-299.5 166.86,-299.5"/>
<polygon fill="midnightblue" stroke="midnightblue" points="141.42,-296 131.42,-299.5 141.42,-303 141.42,-296"/>
</g>
<!-- Node370 -->
<g id="node3" class="node"><title>Node370</title>
<g id="a_node3"><a xlink:href="../../db/dae/classservices_1_1_http_client_basic.html#ac76e2a1fb9d9dc6bfe80509321fd1fd7" target="_top" xlink:title="services::HttpClientBasic\l::BodyComplete">
<polygon fill="white" stroke="black" points="565.5,-765.5 565.5,-795.5 690.5,-795.5 690.5,-765.5 565.5,-765.5"/>
<text text-anchor="start" x="573.5" y="-783.5" font-family="Helvetica,sans-Serif" font-size="10.00">services::HttpClientBasic</text>
<text text-anchor="middle" x="628" y="-772.5" font-family="Helvetica,sans-Serif" font-size="10.00">::BodyComplete</text>
</a>
</g>
</g>
<!-- Node369&#45;&gt;Node370 -->
<g id="edge2" class="edge"><title>Node369&#45;&gt;Node370</title>
<path fill="none" stroke="midnightblue" d="M219.873,-319.273C225.402,-393.074 248.457,-651.078 304,-707.5 372.564,-777.149 492.503,-786.487 565.349,-784.901"/>
<polygon fill="midnightblue" stroke="midnightblue" points="223.348,-318.79 219.134,-309.069 216.366,-319.296 223.348,-318.79"/>
</g>
<!-- Node371 -->
<g id="node4" class="node"><title>Node371</title>
<g id="a_node4"><a xlink:href="../../d0/d08/classservices_1_1_repeating_button.html#a0162b5f3d2e2ce1bc02c448c9dbfa1f4" target="_top" xlink:title="services::RepeatingButton\l::ButtonReleased">
<polygon fill="white" stroke="black" points="345,-431.5 345,-461.5 475,-461.5 475,-431.5 345,-431.5"/>
<text text-anchor="start" x="353" y="-449.5" font-family="Helvetica,sans-Serif" font-size="10.00">services::RepeatingButton</text>
<text text-anchor="middle" x="410" y="-438.5" font-family="Helvetica,sans-Serif" font-size="10.00">::ButtonReleased</text>
</a>
</g>
</g>
<!-- Node369&#45;&gt;Node371 -->
<g id="edge3" class="edge"><title>Node369&#45;&gt;Node371</title>
<path fill="none" stroke="midnightblue" d="M226.449,-318.455C238.862,-345.652 265.487,-395.342 304,-421.5 316.091,-429.712 330.562,-435.241 344.839,-438.959"/>
<polygon fill="midnightblue" stroke="midnightblue" points="229.621,-316.974 222.392,-309.229 223.213,-319.792 229.621,-316.974"/>
</g>
<!-- Node374 -->
<g id="node7" class="node"><title>Node374</title>
<g id="a_node7"><a xlink:href="../../db/dae/classservices_1_1_http_client_basic.html#a7546f777efacb9d02ebfda4164526bda" target="_top" xlink:title="services::HttpClientBasic\l::Close">
<polygon fill="white" stroke="black" points="347.5,-667.5 347.5,-697.5 472.5,-697.5 472.5,-667.5 347.5,-667.5"/>
<text text-anchor="start" x="355.5" y="-685.5" font-family="Helvetica,sans-Serif" font-size="10.00">services::HttpClientBasic</text>
<text text-anchor="middle" x="410" y="-674.5" font-family="Helvetica,sans-Serif" font-size="10.00">::Close</text>
</a>
</g>
</g>
<!-- Node369&#45;&gt;Node374 -->
<g id="edge6" class="edge"><title>Node369&#45;&gt;Node374</title>
<path fill="none" stroke="midnightblue" d="M222.127,-318.927C231.066,-363.768 256.919,-477.038 304,-560.5 328.439,-603.824 369.656,-645.883 392.504,-667.49"/>
<polygon fill="midnightblue" stroke="midnightblue" points="225.554,-318.213 220.216,-309.061 218.682,-319.544 225.554,-318.213"/>
</g>
<!-- Node382 -->
<g id="node15" class="node"><title>Node382</title>
<g id="a_node15"><a xlink:href="../../db/d9e/classinfra_1_1_timer_limited_repeating.html#aad715048de6f39f1fdb691a2ebf465b9" target="_top" xlink:title="infra::TimerLimitedRepeating\l::ComputeNextTriggerTime">
<polygon fill="white" stroke="black" points="340,-382.5 340,-412.5 480,-412.5 480,-382.5 340,-382.5"/>
<text text-anchor="start" x="348" y="-400.5" font-family="Helvetica,sans-Serif" font-size="10.00">infra::TimerLimitedRepeating</text>
<text text-anchor="middle" x="410" y="-389.5" font-family="Helvetica,sans-Serif" font-size="10.00">::ComputeNextTriggerTime</text>
</a>
</g>
</g>
<!-- Node369&#45;&gt;Node382 -->
<g id="edge15" class="edge"><title>Node369&#45;&gt;Node382</title>
<path fill="none" stroke="midnightblue" d="M233.855,-316.677C249.773,-333.421 276.188,-358.365 304,-372.5 315.109,-378.146 327.531,-382.546 339.836,-385.966"/>
<polygon fill="midnightblue" stroke="midnightblue" points="236.288,-314.154 226.923,-309.2 231.154,-318.913 236.288,-314.154"/>
</g>
<!-- Node385 -->
<g id="node18" class="node"><title>Node385</title>
<g id="a_node18"><a xlink:href="../../df/d93/classinfra_1_1_timer_limited_repeating_with_closing_action.html#a0d8d9ed0cdc1f0802a79c9acf9ec1f84" target="_top" xlink:title="infra::TimerLimitedRepeating\lWithClosingAction::ComputeNextTriggerTime">
<polygon fill="white" stroke="black" points="304,-333.5 304,-363.5 516,-363.5 516,-333.5 304,-333.5"/>
<text text-anchor="start" x="312" y="-351.5" font-family="Helvetica,sans-Serif" font-size="10.00">infra::TimerLimitedRepeating</text>
<text text-anchor="middle" x="410" y="-340.5" font-family="Helvetica,sans-Serif" font-size="10.00">WithClosingAction::ComputeNextTriggerTime</text>
</a>
</g>
</g>
<!-- Node369&#45;&gt;Node385 -->
<g id="edge18" class="edge"><title>Node369&#45;&gt;Node385</title>
<path fill="none" stroke="midnightblue" d="M260.965,-311.781C274.669,-315.647 289.949,-319.857 304,-323.5 316.879,-326.839 330.69,-330.249 343.927,-333.434"/>
<polygon fill="midnightblue" stroke="midnightblue" points="261.88,-308.402 251.304,-309.039 259.968,-315.136 261.88,-308.402"/>
</g>
<!-- Node388 -->
<g id="node21" class="node"><title>Node388</title>
<g id="a_node21"><a xlink:href="../../d8/d87/classinfra_1_1_timer_single_shot.html#aa4138ae5879edfc05a812eaf942806fd" target="_top" xlink:title="infra::TimerSingleShot\l::ComputeNextTriggerTime">
<polygon fill="white" stroke="black" points="344,-284.5 344,-314.5 476,-314.5 476,-284.5 344,-284.5"/>
<text text-anchor="start" x="352" y="-302.5" font-family="Helvetica,sans-Serif" font-size="10.00">infra::TimerSingleShot</text>
<text text-anchor="middle" x="410" y="-291.5" font-family="Helvetica,sans-Serif" font-size="10.00">::ComputeNextTriggerTime</text>
</a>
</g>
</g>
<!-- Node369&#45;&gt;Node388 -->
<g id="edge21" class="edge"><title>Node369&#45;&gt;Node388</title>
<path fill="none" stroke="midnightblue" d="M278.08,-299.5C298.984,-299.5 322.567,-299.5 343.901,-299.5"/>
<polygon fill="midnightblue" stroke="midnightblue" points="278.054,-296 268.054,-299.5 278.054,-303 278.054,-296"/>
</g>
<!-- Node389 -->
<g id="node22" class="node"><title>Node389</title>
<g id="a_node22"><a xlink:href="../../d0/d08/classservices_1_1_repeating_button.html#af638e60aa4aeb7793404af3ab6534034" target="_top" xlink:title="services::RepeatingButton\l::DebounceEnd">
<polygon fill="white" stroke="black" points="345,-235.5 345,-265.5 475,-265.5 475,-235.5 345,-235.5"/>
<text text-anchor="start" x="353" y="-253.5" font-family="Helvetica,sans-Serif" font-size="10.00">services::RepeatingButton</text>
<text text-anchor="middle" x="410" y="-242.5" font-family="Helvetica,sans-Serif" font-size="10.00">::DebounceEnd</text>
</a>
</g>
</g>
<!-- Node369&#45;&gt;Node389 -->
<g id="edge22" class="edge"><title>Node369&#45;&gt;Node389</title>
<path fill="none" stroke="midnightblue" d="M259.517,-286.967C273.571,-282.816 289.427,-278.292 304,-274.5 317.21,-271.062 331.425,-267.633 344.996,-264.488"/>
<polygon fill="midnightblue" stroke="midnightblue" points="258.229,-283.698 249.645,-289.907 260.228,-290.407 258.229,-283.698"/>
</g>
<!-- Node390 -->
<g id="node23" class="node"><title>Node390</title>
<g id="a_node23"><a xlink:href="../../d0/d7e/classinfra_1_1_timer_evolving.html#a84bf5ab3bb05419e23ffb029750e3532" target="_top" xlink:title="infra::TimerEvolving\l::Evolve">
<polygon fill="white" stroke="black" points="360.5,-186.5 360.5,-216.5 459.5,-216.5 459.5,-186.5 360.5,-186.5"/>
<text text-anchor="start" x="368.5" y="-204.5" font-family="Helvetica,sans-Serif" font-size="10.00">infra::TimerEvolving</text>
<text text-anchor="middle" x="410" y="-193.5" font-family="Helvetica,sans-Serif" font-size="10.00">::Evolve</text>
</a>
</g>
</g>
<!-- Node369&#45;&gt;Node390 -->
<g id="edge23" class="edge"><title>Node369&#45;&gt;Node390</title>
<path fill="none" stroke="midnightblue" d="M233.524,-282.3C249.356,-265.279 275.859,-239.761 304,-225.5 321.347,-216.709 341.928,-211.099 360.254,-207.538"/>
<polygon fill="midnightblue" stroke="midnightblue" points="230.771,-280.127 226.649,-289.887 235.958,-284.827 230.771,-280.127"/>
</g>
<!-- Node394 -->
<g id="node27" class="node"><title>Node394</title>
<g id="a_node27"><a xlink:href="../../da/dc4/classinfra_1_1_scalable_derived_timer_service.html#a28598eb5eaf5bdf3d3ff98fabe0824ab" target="_top" xlink:title="infra::ScalableDerivedTimer\lService::NextTriggerChanged">
<polygon fill="white" stroke="black" points="339,-137.5 339,-167.5 481,-167.5 481,-137.5 339,-137.5"/>
<text text-anchor="start" x="347" y="-155.5" font-family="Helvetica,sans-Serif" font-size="10.00">infra::ScalableDerivedTimer</text>
<text text-anchor="middle" x="410" y="-144.5" font-family="Helvetica,sans-Serif" font-size="10.00">Service::NextTriggerChanged</text>
</a>
</g>
</g>
<!-- Node369&#45;&gt;Node394 -->
<g id="edge27" class="edge"><title>Node369&#45;&gt;Node394</title>
<path fill="none" stroke="midnightblue" d="M226.375,-280.344C238.696,-252.868 265.207,-202.701 304,-176.5 314.382,-169.488 326.522,-164.502 338.789,-160.962"/>
<polygon fill="midnightblue" stroke="midnightblue" points="223.1,-279.098 222.351,-289.666 229.527,-281.872 223.1,-279.098"/>
</g>
<!-- Node397 -->
<g id="node30" class="node"><title>Node397</title>
<g id="a_node30"><a xlink:href="../../db/d9d/classinfra_1_1_derived_timer_service.html#a561871017cf0ba4564f3d2d576d2710e" target="_top" xlink:title="infra::DerivedTimerService\l::NextTriggerChanged">
<polygon fill="white" stroke="black" points="346,-88.5 346,-118.5 474,-118.5 474,-88.5 346,-88.5"/>
<text text-anchor="start" x="354" y="-106.5" font-family="Helvetica,sans-Serif" font-size="10.00">infra::DerivedTimerService</text>
<text text-anchor="middle" x="410" y="-95.5" font-family="Helvetica,sans-Serif" font-size="10.00">::NextTriggerChanged</text>
</a>
</g>
</g>
<!-- Node369&#45;&gt;Node397 -->
<g id="edge30" class="edge"><title>Node369&#45;&gt;Node397</title>
<path fill="none" stroke="midnightblue" d="M222.52,-279.655C230.924,-243.494 253.884,-166.968 304,-127.5 315.973,-118.071 330.964,-112.213 345.839,-108.608"/>
<polygon fill="midnightblue" stroke="midnightblue" points="219.001,-279.363 220.287,-289.88 225.84,-280.857 219.001,-279.363"/>
</g>
<!-- Node399 -->
<g id="node32" class="node"><title>Node399</title>
<g id="a_node32"><a xlink:href="../../db/dae/classservices_1_1_http_client_basic.html#adbf11cf7b70f6aaeff6c80b205ac97dd" target="_top" xlink:title="services::HttpClientBasic\l::ReportError">
<polygon fill="white" stroke="black" points="347.5,-520.5 347.5,-550.5 472.5,-550.5 472.5,-520.5 347.5,-520.5"/>
<text text-anchor="start" x="355.5" y="-538.5" font-family="Helvetica,sans-Serif" font-size="10.00">services::HttpClientBasic</text>
<text text-anchor="middle" x="410" y="-527.5" font-family="Helvetica,sans-Serif" font-size="10.00">::ReportError</text>
</a>
</g>
</g>
<!-- Node369&#45;&gt;Node399 -->
<g id="edge32" class="edge"><title>Node369&#45;&gt;Node399</title>
<path fill="none" stroke="midnightblue" d="M224.226,-318.724C235.117,-352.677 261.587,-424.057 304,-470.5 323.807,-492.189 352.485,-509.279 374.867,-520.482"/>
<polygon fill="midnightblue" stroke="midnightblue" points="227.544,-317.607 221.237,-309.094 220.859,-319.682 227.544,-317.607"/>
</g>
<!-- Node405 -->
<g id="node38" class="node"><title>Node405</title>
<g id="a_node38"><a xlink:href="../../d2/db3/classservices_1_1_http_server_connection_observer.html#ad9ee8e60b54a215cd8edec275193b645" target="_top" xlink:title="services::HttpServerConnection\lObserver::RequestIsNowInProgress">
<polygon fill="white" stroke="black" points="325,-39.5 325,-69.5 495,-69.5 495,-39.5 325,-39.5"/>
<text text-anchor="start" x="333" y="-57.5" font-family="Helvetica,sans-Serif" font-size="10.00">services::HttpServerConnection</text>
<text text-anchor="middle" x="410" y="-46.5" font-family="Helvetica,sans-Serif" font-size="10.00">Observer::RequestIsNowInProgress</text>
</a>
</g>
</g>
<!-- Node369&#45;&gt;Node405 -->
<g id="edge39" class="edge"><title>Node369&#45;&gt;Node405</title>
<path fill="none" stroke="midnightblue" d="M220.106,-279.607C224.729,-236.102 242.023,-132.115 304,-78.5 310.152,-73.1783 317.245,-68.9721 324.781,-65.6561"/>
<polygon fill="midnightblue" stroke="midnightblue" points="216.605,-279.457 219.148,-289.742 223.574,-280.116 216.605,-279.457"/>
</g>
<!-- Node411 -->
<g id="node44" class="node"><title>Node411</title>
<g id="a_node44"><a xlink:href="../../d5/da5/classinfra_1_1_timer.html#a90bf77d5b6592006ea3252b031dcae6d" target="_top" xlink:title="infra::Timer::~Timer">
<polygon fill="white" stroke="black" points="359.5,-1 359.5,-20 460.5,-20 460.5,-1 359.5,-1"/>
<text text-anchor="middle" x="410" y="-8" font-family="Helvetica,sans-Serif" font-size="10.00">infra::Timer::~Timer</text>
</a>
</g>
</g>
<!-- Node369&#45;&gt;Node411 -->
<g id="edge45" class="edge"><title>Node369&#45;&gt;Node411</title>
<path fill="none" stroke="midnightblue" d="M218.317,-279.571C219.019,-229.205 228.314,-96.092 304,-29.5 319.021,-16.284 340.056,-10.8374 359.357,-8.95693"/>
<polygon fill="midnightblue" stroke="midnightblue" points="214.817,-279.753 218.283,-289.765 221.817,-279.777 214.817,-279.753"/>
</g>
<!-- Node372 -->
<g id="node5" class="node"><title>Node372</title>
<g id="a_node5"><a xlink:href="../../d0/d08/classservices_1_1_repeating_button.html#af9db5b4934e4610beb5e5071de6c58b7" target="_top" xlink:title="services::RepeatingButton\l::ButtonChanged">
<polygon fill="white" stroke="black" points="563,-422.5 563,-452.5 693,-452.5 693,-422.5 563,-422.5"/>
<text text-anchor="start" x="571" y="-440.5" font-family="Helvetica,sans-Serif" font-size="10.00">services::RepeatingButton</text>
<text text-anchor="middle" x="628" y="-429.5" font-family="Helvetica,sans-Serif" font-size="10.00">::ButtonChanged</text>
</a>
</g>
</g>
<!-- Node371&#45;&gt;Node372 -->
<g id="edge4" class="edge"><title>Node371&#45;&gt;Node372</title>
<path fill="none" stroke="midnightblue" d="M485.437,-443.398C510.561,-442.352 538.376,-441.193 562.652,-440.181"/>
<polygon fill="midnightblue" stroke="midnightblue" points="485.068,-439.911 475.222,-443.824 485.359,-446.905 485.068,-439.911"/>
</g>
<!-- Node373 -->
<g id="node6" class="node"><title>Node373</title>
<g id="a_node6"><a xlink:href="../../d0/d08/classservices_1_1_repeating_button.html#aa38e30277c5df615ae1a86617c4127c0" target="_top" xlink:title="services::RepeatingButton\l::RepeatingButton">
<polygon fill="white" stroke="black" points="754,-422.5 754,-452.5 884,-452.5 884,-422.5 754,-422.5"/>
<text text-anchor="start" x="762" y="-440.5" font-family="Helvetica,sans-Serif" font-size="10.00">services::RepeatingButton</text>
<text text-anchor="middle" x="819" y="-429.5" font-family="Helvetica,sans-Serif" font-size="10.00">::RepeatingButton</text>
</a>
</g>
</g>
<!-- Node372&#45;&gt;Node373 -->
<g id="edge5" class="edge"><title>Node372&#45;&gt;Node373</title>
<path fill="none" stroke="midnightblue" d="M703.5,-437.5C720.174,-437.5 737.719,-437.5 753.927,-437.5"/>
<polygon fill="midnightblue" stroke="midnightblue" points="703.251,-434 693.251,-437.5 703.25,-441 703.251,-434"/>
</g>
<!-- Node374&#45;&gt;Node370 -->
<g id="edge12" class="edge"><title>Node374&#45;&gt;Node370</title>
<path fill="none" stroke="midnightblue" d="M447.184,-702.408C481.792,-721.279 531.634,-747.973 552,-756.5 559.566,-759.668 567.706,-762.669 575.734,-765.408"/>
<polygon fill="midnightblue" stroke="midnightblue" points="448.757,-699.278 438.303,-697.554 445.4,-705.421 448.757,-699.278"/>
</g>
<!-- Node375 -->
<g id="node8" class="node"><title>Node375</title>
<g id="a_node8"><a xlink:href="../../db/dae/classservices_1_1_http_client_basic.html#a7013193bda83830a96e57ed41c5a87d1" target="_top" xlink:title="services::HttpClientBasic\l::Cancel">
<polygon fill="white" stroke="black" points="565.5,-716.5 565.5,-746.5 690.5,-746.5 690.5,-716.5 565.5,-716.5"/>
<text text-anchor="start" x="573.5" y="-734.5" font-family="Helvetica,sans-Serif" font-size="10.00">services::HttpClientBasic</text>
<text text-anchor="middle" x="628" y="-723.5" font-family="Helvetica,sans-Serif" font-size="10.00">::Cancel</text>
</a>
</g>
</g>
<!-- Node374&#45;&gt;Node375 -->
<g id="edge7" class="edge"><title>Node374&#45;&gt;Node375</title>
<path fill="none" stroke="midnightblue" d="M482.678,-698.76C509.426,-704.828 539.538,-711.659 565.31,-717.506"/>
<polygon fill="midnightblue" stroke="midnightblue" points="483.134,-695.275 472.608,-696.476 481.586,-702.102 483.134,-695.275"/>
</g>
<!-- Node377 -->
<g id="node10" class="node"><title>Node377</title>
<g id="a_node10"><a xlink:href="../../db/dae/classservices_1_1_http_client_basic.html#a5dddcabc1a37c6c9d218e3707de51c67" target="_top" xlink:title="services::HttpClientBasic\l::ContentError">
<polygon fill="white" stroke="black" points="565.5,-667.5 565.5,-697.5 690.5,-697.5 690.5,-667.5 565.5,-667.5"/>
<text text-anchor="start" x="573.5" y="-685.5" font-family="Helvetica,sans-Serif" font-size="10.00">services::HttpClientBasic</text>
<text text-anchor="middle" x="628" y="-674.5" font-family="Helvetica,sans-Serif" font-size="10.00">::ContentError</text>
</a>
</g>
</g>
<!-- Node374&#45;&gt;Node377 -->
<g id="edge9" class="edge"><title>Node374&#45;&gt;Node377</title>
<path fill="none" stroke="midnightblue" d="M482.678,-682.5C509.426,-682.5 539.538,-682.5 565.31,-682.5"/>
<polygon fill="midnightblue" stroke="midnightblue" points="482.608,-679 472.608,-682.5 482.608,-686 482.608,-679"/>
</g>
<!-- Node380 -->
<g id="node13" class="node"><title>Node380</title>
<g id="a_node13"><a xlink:href="../../db/dae/classservices_1_1_http_client_basic.html#a10d4df541459a417c1517c4a83c3c598" target="_top" xlink:title="services::HttpClientBasic\l::Timeout">
<polygon fill="white" stroke="black" points="565.5,-618.5 565.5,-648.5 690.5,-648.5 690.5,-618.5 565.5,-618.5"/>
<text text-anchor="start" x="573.5" y="-636.5" font-family="Helvetica,sans-Serif" font-size="10.00">services::HttpClientBasic</text>
<text text-anchor="middle" x="628" y="-625.5" font-family="Helvetica,sans-Serif" font-size="10.00">::Timeout</text>
</a>
</g>
</g>
<!-- Node374&#45;&gt;Node380 -->
<g id="edge13" class="edge"><title>Node374&#45;&gt;Node380</title>
<path fill="none" stroke="midnightblue" d="M482.678,-666.24C509.426,-660.172 539.538,-653.341 565.31,-647.494"/>
<polygon fill="midnightblue" stroke="midnightblue" points="481.586,-662.898 472.608,-668.524 483.134,-669.725 481.586,-662.898"/>
</g>
<!-- Node376 -->
<g id="node9" class="node"><title>Node376</title>
<g id="a_node9"><a xlink:href="../../df/dd9/classservices_1_1_http_client_json.html#ad4647fcc0e0ed96424ca89969a32d82d" target="_top" xlink:title="services::HttpClientJson\l::Cancel">
<polygon fill="white" stroke="black" points="758.5,-765.5 758.5,-795.5 879.5,-795.5 879.5,-765.5 758.5,-765.5"/>
<text text-anchor="start" x="766.5" y="-783.5" font-family="Helvetica,sans-Serif" font-size="10.00">services::HttpClientJson</text>
<text text-anchor="middle" x="819" y="-772.5" font-family="Helvetica,sans-Serif" font-size="10.00">::Cancel</text>
</a>
</g>
</g>
<!-- Node375&#45;&gt;Node376 -->
<g id="edge8" class="edge"><title>Node375&#45;&gt;Node376</title>
<path fill="none" stroke="midnightblue" d="M696.692,-749.05C717.447,-754.431 740.082,-760.299 760.119,-765.494"/>
<polygon fill="midnightblue" stroke="midnightblue" points="697.549,-745.656 686.991,-746.535 695.792,-752.432 697.549,-745.656"/>
</g>
<!-- Node378 -->
<g id="node11" class="node"><title>Node378</title>
<g id="a_node11"><a xlink:href="../../df/dd9/classservices_1_1_http_client_json.html#a74d34299fd89804a97cbd56c0b65251a" target="_top" xlink:title="services::HttpClientJson\l::StatusAvailable">
<polygon fill="white" stroke="black" points="758.5,-716.5 758.5,-746.5 879.5,-746.5 879.5,-716.5 758.5,-716.5"/>
<text text-anchor="start" x="766.5" y="-734.5" font-family="Helvetica,sans-Serif" font-size="10.00">services::HttpClientJson</text>
<text text-anchor="middle" x="819" y="-723.5" font-family="Helvetica,sans-Serif" font-size="10.00">::StatusAvailable</text>
</a>
</g>
</g>
<!-- Node377&#45;&gt;Node378 -->
<g id="edge10" class="edge"><title>Node377&#45;&gt;Node378</title>
<path fill="none" stroke="midnightblue" d="M696.692,-700.05C717.447,-705.431 740.082,-711.299 760.119,-716.494"/>
<polygon fill="midnightblue" stroke="midnightblue" points="697.549,-696.656 686.991,-697.535 695.792,-703.432 697.549,-696.656"/>
</g>
<!-- Node379 -->
<g id="node12" class="node"><title>Node379</title>
<g id="a_node12"><a xlink:href="../../df/dd9/classservices_1_1_http_client_json.html#a972155f1b6521ea28456acaf8d84c7fe" target="_top" xlink:title="services::HttpClientJson\l::HeaderAvailable">
<polygon fill="white" stroke="black" points="758.5,-667.5 758.5,-697.5 879.5,-697.5 879.5,-667.5 758.5,-667.5"/>
<text text-anchor="start" x="766.5" y="-685.5" font-family="Helvetica,sans-Serif" font-size="10.00">services::HttpClientJson</text>
<text text-anchor="middle" x="819" y="-674.5" font-family="Helvetica,sans-Serif" font-size="10.00">::HeaderAvailable</text>
</a>
</g>
</g>
<!-- Node377&#45;&gt;Node379 -->
<g id="edge11" class="edge"><title>Node377&#45;&gt;Node379</title>
<path fill="none" stroke="midnightblue" d="M700.735,-682.5C719.758,-682.5 740.09,-682.5 758.391,-682.5"/>
<polygon fill="midnightblue" stroke="midnightblue" points="700.624,-679 690.624,-682.5 700.624,-686 700.624,-679"/>
</g>
<!-- Node381 -->
<g id="node14" class="node"><title>Node381</title>
<g id="a_node14"><a xlink:href="../../db/dae/classservices_1_1_http_client_basic.html#a1b97214767813f813dee6ee393533e23" target="_top" xlink:title="services::HttpClientBasic\l::ConnectionEstablished">
<polygon fill="white" stroke="black" points="756.5,-618.5 756.5,-648.5 881.5,-648.5 881.5,-618.5 756.5,-618.5"/>
<text text-anchor="start" x="764.5" y="-636.5" font-family="Helvetica,sans-Serif" font-size="10.00">services::HttpClientBasic</text>
<text text-anchor="middle" x="819" y="-625.5" font-family="Helvetica,sans-Serif" font-size="10.00">::ConnectionEstablished</text>
</a>
</g>
</g>
<!-- Node380&#45;&gt;Node381 -->
<g id="edge14" class="edge"><title>Node380&#45;&gt;Node381</title>
<path fill="none" stroke="midnightblue" d="M700.685,-633.5C719.056,-633.5 738.651,-633.5 756.46,-633.5"/>
<polygon fill="midnightblue" stroke="midnightblue" points="700.624,-630 690.624,-633.5 700.624,-637 700.624,-630"/>
</g>
<!-- Node383 -->
<g id="node16" class="node"><title>Node383</title>
<g id="a_node16"><a xlink:href="../../db/d9e/classinfra_1_1_timer_limited_repeating.html#a9b10d097885e6940c419ddbb62502939" target="_top" xlink:title="infra::TimerLimitedRepeating\l::Start">
<polygon fill="white" stroke="black" points="558,-373.5 558,-403.5 698,-403.5 698,-373.5 558,-373.5"/>
<text text-anchor="start" x="566" y="-391.5" font-family="Helvetica,sans-Serif" font-size="10.00">infra::TimerLimitedRepeating</text>
<text text-anchor="middle" x="628" y="-380.5" font-family="Helvetica,sans-Serif" font-size="10.00">::Start</text>
</a>
</g>
</g>
<!-- Node382&#45;&gt;Node383 -->
<g id="edge16" class="edge"><title>Node382&#45;&gt;Node383</title>
<path fill="none" stroke="midnightblue" d="M490.269,-394.197C512.406,-393.275 536.279,-392.28 557.786,-391.384"/>
<polygon fill="midnightblue" stroke="midnightblue" points="490.081,-390.702 480.235,-394.615 490.372,-397.696 490.081,-390.702"/>
</g>
<!-- Node384 -->
<g id="node17" class="node"><title>Node384</title>
<g id="a_node17"><a xlink:href="../../db/d9e/classinfra_1_1_timer_limited_repeating.html#a791dd159790bfc74601eb909ea9594fa" target="_top" xlink:title="infra::TimerLimitedRepeating\l::TimerLimitedRepeating">
<polygon fill="white" stroke="black" points="749,-373.5 749,-403.5 889,-403.5 889,-373.5 749,-373.5"/>
<text text-anchor="start" x="757" y="-391.5" font-family="Helvetica,sans-Serif" font-size="10.00">infra::TimerLimitedRepeating</text>
<text text-anchor="middle" x="819" y="-380.5" font-family="Helvetica,sans-Serif" font-size="10.00">::TimerLimitedRepeating</text>
</a>
</g>
</g>
<!-- Node383&#45;&gt;Node384 -->
<g id="edge17" class="edge"><title>Node383&#45;&gt;Node384</title>
<path fill="none" stroke="midnightblue" d="M708.245,-388.5C721.729,-388.5 735.638,-388.5 748.835,-388.5"/>
<polygon fill="midnightblue" stroke="midnightblue" points="708.036,-385 698.036,-388.5 708.036,-392 708.036,-385"/>
</g>
<!-- Node386 -->
<g id="node19" class="node"><title>Node386</title>
<g id="a_node19"><a xlink:href="../../df/d93/classinfra_1_1_timer_limited_repeating_with_closing_action.html#a260a7dcf1446a2456aa93e8cfccf73f7" target="_top" xlink:title="infra::TimerLimitedRepeating\lWithClosingAction::Start">
<polygon fill="white" stroke="black" points="558,-324.5 558,-354.5 698,-354.5 698,-324.5 558,-324.5"/>
<text text-anchor="start" x="566" y="-342.5" font-family="Helvetica,sans-Serif" font-size="10.00">infra::TimerLimitedRepeating</text>
<text text-anchor="middle" x="628" y="-331.5" font-family="Helvetica,sans-Serif" font-size="10.00">WithClosingAction::Start</text>
</a>
</g>
</g>
<!-- Node385&#45;&gt;Node386 -->
<g id="edge19" class="edge"><title>Node385&#45;&gt;Node386</title>
<path fill="none" stroke="midnightblue" d="M526.44,-343.69C537.153,-343.244 547.768,-342.801 557.86,-342.381"/>
<polygon fill="midnightblue" stroke="midnightblue" points="525.998,-340.205 516.153,-344.119 526.29,-347.199 525.998,-340.205"/>
</g>
<!-- Node387 -->
<g id="node20" class="node"><title>Node387</title>
<g id="a_node20"><a xlink:href="../../df/d93/classinfra_1_1_timer_limited_repeating_with_closing_action.html#ae946a652778084b2413971986f5f0f52" target="_top" xlink:title="infra::TimerLimitedRepeating\lWithClosingAction::TimerLimited\lRepeatingWithClosingAction">
<polygon fill="white" stroke="black" points="740,-313 740,-354 898,-354 898,-313 740,-313"/>
<text text-anchor="start" x="748" y="-342" font-family="Helvetica,sans-Serif" font-size="10.00">infra::TimerLimitedRepeating</text>
<text text-anchor="start" x="748" y="-331" font-family="Helvetica,sans-Serif" font-size="10.00">WithClosingAction::TimerLimited</text>
<text text-anchor="middle" x="819" y="-320" font-family="Helvetica,sans-Serif" font-size="10.00">RepeatingWithClosingAction</text>
</a>
</g>
</g>
<!-- Node386&#45;&gt;Node387 -->
<g id="edge20" class="edge"><title>Node386&#45;&gt;Node387</title>
<path fill="none" stroke="midnightblue" d="M708.035,-336.991C718.568,-336.657 729.363,-336.314 739.88,-335.98"/>
<polygon fill="midnightblue" stroke="midnightblue" points="707.919,-333.493 698.036,-337.308 708.142,-340.489 707.919,-333.493"/>
</g>
<!-- Node391 -->
<g id="node24" class="node"><title>Node391</title>
<g id="a_node24"><a xlink:href="../../d0/d7e/classinfra_1_1_timer_evolving.html#a5635a0cace39581c32bb3e488f83854c" target="_top" xlink:title="infra::TimerEvolving\l::Start">
<polygon fill="white" stroke="black" points="578.5,-245.5 578.5,-275.5 677.5,-275.5 677.5,-245.5 578.5,-245.5"/>
<text text-anchor="start" x="586.5" y="-263.5" font-family="Helvetica,sans-Serif" font-size="10.00">infra::TimerEvolving</text>
<text text-anchor="middle" x="628" y="-252.5" font-family="Helvetica,sans-Serif" font-size="10.00">::Start</text>
</a>
</g>
</g>
<!-- Node390&#45;&gt;Node391 -->
<g id="edge24" class="edge"><title>Node390&#45;&gt;Node391</title>
<path fill="none" stroke="midnightblue" d="M469.38,-213.964C484.616,-217.457 500.974,-221.421 516,-225.5 537.938,-231.455 562.031,-238.936 582.148,-245.451"/>
<polygon fill="midnightblue" stroke="midnightblue" points="470.082,-210.534 459.556,-211.74 468.537,-217.361 470.082,-210.534"/>
</g>
<!-- Node393 -->
<g id="node26" class="node"><title>Node393</title>
<g id="a_node26"><a xlink:href="../../d0/d7e/classinfra_1_1_timer_evolving.html#a0a94bad474fcdd26bf9d69ae74de01cc" target="_top" xlink:title="infra::TimerEvolving\l::ComputeNextTriggerTime">
<polygon fill="white" stroke="black" points="562,-196.5 562,-226.5 694,-226.5 694,-196.5 562,-196.5"/>
<text text-anchor="start" x="570" y="-214.5" font-family="Helvetica,sans-Serif" font-size="10.00">infra::TimerEvolving</text>
<text text-anchor="middle" x="628" y="-203.5" font-family="Helvetica,sans-Serif" font-size="10.00">::ComputeNextTriggerTime</text>
</a>
</g>
</g>
<!-- Node390&#45;&gt;Node393 -->
<g id="edge26" class="edge"><title>Node390&#45;&gt;Node393</title>
<path fill="none" stroke="midnightblue" d="M469.924,-204.228C498.315,-205.542 532.452,-207.123 561.64,-208.474"/>
<polygon fill="midnightblue" stroke="midnightblue" points="469.895,-200.723 459.744,-203.757 469.571,-207.715 469.895,-200.723"/>
</g>
<!-- Node392 -->
<g id="node25" class="node"><title>Node392</title>
<g id="a_node25"><a xlink:href="../../d0/d7e/classinfra_1_1_timer_evolving.html#ab19975502faf4280dc2e25a22f6d6e92" target="_top" xlink:title="infra::TimerEvolving\l::TimerEvolving">
<polygon fill="white" stroke="black" points="769.5,-245.5 769.5,-275.5 868.5,-275.5 868.5,-245.5 769.5,-245.5"/>
<text text-anchor="start" x="777.5" y="-263.5" font-family="Helvetica,sans-Serif" font-size="10.00">infra::TimerEvolving</text>
<text text-anchor="middle" x="819" y="-252.5" font-family="Helvetica,sans-Serif" font-size="10.00">::TimerEvolving</text>
</a>
</g>
</g>
<!-- Node391&#45;&gt;Node392 -->
<g id="edge25" class="edge"><title>Node391&#45;&gt;Node392</title>
<path fill="none" stroke="midnightblue" d="M687.866,-260.5C714.091,-260.5 744.606,-260.5 769.493,-260.5"/>
<polygon fill="midnightblue" stroke="midnightblue" points="687.672,-257 677.672,-260.5 687.672,-264 687.672,-257"/>
</g>
<!-- Node395 -->
<g id="node28" class="node"><title>Node395</title>
<g id="a_node28"><a xlink:href="../../da/dc4/classinfra_1_1_scalable_derived_timer_service.html#a30e873a4b4cf8cbacf09c1cddd55970b" target="_top" xlink:title="infra::ScalableDerivedTimer\lService::Scale">
<polygon fill="white" stroke="black" points="561,-147.5 561,-177.5 695,-177.5 695,-147.5 561,-147.5"/>
<text text-anchor="start" x="569" y="-165.5" font-family="Helvetica,sans-Serif" font-size="10.00">infra::ScalableDerivedTimer</text>
<text text-anchor="middle" x="628" y="-154.5" font-family="Helvetica,sans-Serif" font-size="10.00">Service::Scale</text>
</a>
</g>
</g>
<!-- Node394&#45;&gt;Node395 -->
<g id="edge28" class="edge"><title>Node394&#45;&gt;Node395</title>
<path fill="none" stroke="midnightblue" d="M491.185,-156.212C514.137,-157.275 538.886,-158.421 560.891,-159.439"/>
<polygon fill="midnightblue" stroke="midnightblue" points="491.28,-152.713 481.129,-155.747 490.956,-159.706 491.28,-152.713"/>
</g>
<!-- Node396 -->
<g id="node29" class="node"><title>Node396</title>
<g id="a_node29"><a xlink:href="../../da/dc4/classinfra_1_1_scalable_derived_timer_service.html#a5e73baf089685fb705478e7ad5db4915" target="_top" xlink:title="infra::ScalableDerivedTimer\lService::Shift">
<polygon fill="white" stroke="black" points="561,-98.5 561,-128.5 695,-128.5 695,-98.5 561,-98.5"/>
<text text-anchor="start" x="569" y="-116.5" font-family="Helvetica,sans-Serif" font-size="10.00">infra::ScalableDerivedTimer</text>
<text text-anchor="middle" x="628" y="-105.5" font-family="Helvetica,sans-Serif" font-size="10.00">Service::Shift</text>
</a>
</g>
</g>
<!-- Node394&#45;&gt;Node396 -->
<g id="edge29" class="edge"><title>Node394&#45;&gt;Node396</title>
<path fill="none" stroke="midnightblue" d="M491.185,-138.022C514.137,-133.878 538.886,-129.409 560.891,-125.436"/>
<polygon fill="midnightblue" stroke="midnightblue" points="490.348,-134.617 481.129,-139.838 491.592,-141.505 490.348,-134.617"/>
</g>
<!-- Node398 -->
<g id="node31" class="node"><title>Node398</title>
<g id="a_node31"><a xlink:href="../../db/d9d/classinfra_1_1_derived_timer_service.html#a757e398797fa31a9637392778a8693d8" target="_top" xlink:title="infra::DerivedTimerService\l::Shift">
<polygon fill="white" stroke="black" points="564,-49.5 564,-79.5 692,-79.5 692,-49.5 564,-49.5"/>
<text text-anchor="start" x="572" y="-67.5" font-family="Helvetica,sans-Serif" font-size="10.00">infra::DerivedTimerService</text>
<text text-anchor="middle" x="628" y="-56.5" font-family="Helvetica,sans-Serif" font-size="10.00">::Shift</text>
</a>
</g>
</g>
<!-- Node397&#45;&gt;Node398 -->
<g id="edge31" class="edge"><title>Node397&#45;&gt;Node398</title>
<path fill="none" stroke="midnightblue" d="M484.184,-90.2862C510.051,-85.6157 538.903,-80.4065 563.865,-75.8994"/>
<polygon fill="midnightblue" stroke="midnightblue" points="483.276,-86.8935 474.057,-92.1147 484.52,-93.7821 483.276,-86.8935"/>
</g>
<!-- Node399&#45;&gt;Node380 -->
<g id="edge36" class="edge"><title>Node399&#45;&gt;Node380</title>
<path fill="none" stroke="midnightblue" d="M445.334,-555.675C473.395,-571.632 514.426,-593.769 552,-609.5 559.566,-612.668 567.706,-615.669 575.734,-618.408"/>
<polygon fill="midnightblue" stroke="midnightblue" points="446.755,-552.455 436.338,-550.518 443.273,-558.528 446.755,-552.455"/>
</g>
<!-- Node400 -->
<g id="node33" class="node"><title>Node400</title>
<g id="a_node33"><a xlink:href="../../db/dae/classservices_1_1_http_client_basic.html#a0420ebb92a4e9ca3c878e68d824aafaa" target="_top" xlink:title="services::HttpClientBasic\l::ClosingConnection">
<polygon fill="white" stroke="black" points="565.5,-569.5 565.5,-599.5 690.5,-599.5 690.5,-569.5 565.5,-569.5"/>
<text text-anchor="start" x="573.5" y="-587.5" font-family="Helvetica,sans-Serif" font-size="10.00">services::HttpClientBasic</text>
<text text-anchor="middle" x="628" y="-576.5" font-family="Helvetica,sans-Serif" font-size="10.00">::ClosingConnection</text>
</a>
</g>
</g>
<!-- Node399&#45;&gt;Node400 -->
<g id="edge33" class="edge"><title>Node399&#45;&gt;Node400</title>
<path fill="none" stroke="midnightblue" d="M482.678,-551.76C509.426,-557.828 539.538,-564.659 565.31,-570.506"/>
<polygon fill="midnightblue" stroke="midnightblue" points="483.134,-548.275 472.608,-549.476 481.586,-555.102 483.134,-548.275"/>
</g>
<!-- Node402 -->
<g id="node35" class="node"><title>Node402</title>
<g id="a_node35"><a xlink:href="../../db/dae/classservices_1_1_http_client_basic.html#a5d615f9558bb48c31fa377f26e678972" target="_top" xlink:title="services::HttpClientBasic\l::ConnectionFailed">
<polygon fill="white" stroke="black" points="565.5,-520.5 565.5,-550.5 690.5,-550.5 690.5,-520.5 565.5,-520.5"/>
<text text-anchor="start" x="573.5" y="-538.5" font-family="Helvetica,sans-Serif" font-size="10.00">services::HttpClientBasic</text>
<text text-anchor="middle" x="628" y="-527.5" font-family="Helvetica,sans-Serif" font-size="10.00">::ConnectionFailed</text>
</a>
</g>
</g>
<!-- Node399&#45;&gt;Node402 -->
<g id="edge35" class="edge"><title>Node399&#45;&gt;Node402</title>
<path fill="none" stroke="midnightblue" d="M482.678,-535.5C509.426,-535.5 539.538,-535.5 565.31,-535.5"/>
<polygon fill="midnightblue" stroke="midnightblue" points="482.608,-532 472.608,-535.5 482.608,-539 482.608,-532"/>
</g>
<!-- Node403 -->
<g id="node36" class="node"><title>Node403</title>
<g id="a_node36"><a xlink:href="../../db/dae/classservices_1_1_http_client_basic.html#af98d44e6c6d129dab5f14af6502d9316" target="_top" xlink:title="services::HttpClientBasic\l::Expire">
<polygon fill="white" stroke="black" points="565.5,-471.5 565.5,-501.5 690.5,-501.5 690.5,-471.5 565.5,-471.5"/>
<text text-anchor="start" x="573.5" y="-489.5" font-family="Helvetica,sans-Serif" font-size="10.00">services::HttpClientBasic</text>
<text text-anchor="middle" x="628" y="-478.5" font-family="Helvetica,sans-Serif" font-size="10.00">::Expire</text>
</a>
</g>
</g>
<!-- Node399&#45;&gt;Node403 -->
<g id="edge37" class="edge"><title>Node399&#45;&gt;Node403</title>
<path fill="none" stroke="midnightblue" d="M482.678,-519.24C509.426,-513.172 539.538,-506.341 565.31,-500.494"/>
<polygon fill="midnightblue" stroke="midnightblue" points="481.586,-515.898 472.608,-521.524 483.134,-522.725 481.586,-515.898"/>
</g>
<!-- Node401 -->
<g id="node34" class="node"><title>Node401</title>
<g id="a_node34"><a xlink:href="../../df/dd9/classservices_1_1_http_client_json.html#aa4b84ba5a9e0b4ee403629f556dbcd84" target="_top" xlink:title="services::HttpClientJson\l::ClosingConnection">
<polygon fill="white" stroke="black" points="758.5,-569.5 758.5,-599.5 879.5,-599.5 879.5,-569.5 758.5,-569.5"/>
<text text-anchor="start" x="766.5" y="-587.5" font-family="Helvetica,sans-Serif" font-size="10.00">services::HttpClientJson</text>
<text text-anchor="middle" x="819" y="-576.5" font-family="Helvetica,sans-Serif" font-size="10.00">::ClosingConnection</text>
</a>
</g>
</g>
<!-- Node400&#45;&gt;Node401 -->
<g id="edge34" class="edge"><title>Node400&#45;&gt;Node401</title>
<path fill="none" stroke="midnightblue" d="M700.735,-584.5C719.758,-584.5 740.09,-584.5 758.391,-584.5"/>
<polygon fill="midnightblue" stroke="midnightblue" points="700.624,-581 690.624,-584.5 700.624,-588 700.624,-581"/>
</g>
<!-- Node404 -->
<g id="node37" class="node"><title>Node404</title>
<g id="a_node37"><a xlink:href="../../db/dae/classservices_1_1_http_client_basic.html#a63bbe384851e0ed4a82d563773246263" target="_top" xlink:title="services::HttpClientBasic\l::HttpClientBasic">
<polygon fill="white" stroke="black" points="756.5,-471.5 756.5,-501.5 881.5,-501.5 881.5,-471.5 756.5,-471.5"/>
<text text-anchor="start" x="764.5" y="-489.5" font-family="Helvetica,sans-Serif" font-size="10.00">services::HttpClientBasic</text>
<text text-anchor="middle" x="819" y="-478.5" font-family="Helvetica,sans-Serif" font-size="10.00">::HttpClientBasic</text>
</a>
</g>
</g>
<!-- Node403&#45;&gt;Node404 -->
<g id="edge38" class="edge"><title>Node403&#45;&gt;Node404</title>
<path fill="none" stroke="midnightblue" d="M700.685,-486.5C719.056,-486.5 738.651,-486.5 756.46,-486.5"/>
<polygon fill="midnightblue" stroke="midnightblue" points="700.624,-483 690.624,-486.5 700.624,-490 700.624,-483"/>
</g>
<!-- Node406 -->
<g id="node39" class="node"><title>Node406</title>
<g id="a_node39"><a xlink:href="../../d2/db3/classservices_1_1_http_server_connection_observer.html#a52e5c280fabbed909272946c730d6aff" target="_top" xlink:title="services::HttpServerConnection\lObserver::HandleRequest">
<polygon fill="white" stroke="black" points="552,-0.5 552,-30.5 704,-30.5 704,-0.5 552,-0.5"/>
<text text-anchor="start" x="560" y="-18.5" font-family="Helvetica,sans-Serif" font-size="10.00">services::HttpServerConnection</text>
<text text-anchor="middle" x="628" y="-7.5" font-family="Helvetica,sans-Serif" font-size="10.00">Observer::HandleRequest</text>
</a>
</g>
</g>
<!-- Node405&#45;&gt;Node406 -->
<g id="edge40" class="edge"><title>Node405&#45;&gt;Node406</title>
<path fill="none" stroke="midnightblue" d="M504.09,-37.6921C520.084,-34.8044 536.522,-31.8364 551.965,-29.0479"/>
<polygon fill="midnightblue" stroke="midnightblue" points="503.421,-34.2562 494.202,-39.4774 504.665,-41.1448 503.421,-34.2562"/>
</g>
<!-- Node407 -->
<g id="node40" class="node"><title>Node407</title>
<g id="a_node40"><a xlink:href="../../d2/db3/classservices_1_1_http_server_connection_observer.html#a54d34389a1f80059a349bfb5b5f273dc" target="_top" xlink:title="services::HttpServerConnection\lObserver::TryHandleRequest">
<polygon fill="white" stroke="black" points="743,-0.5 743,-30.5 895,-30.5 895,-0.5 743,-0.5"/>
<text text-anchor="start" x="751" y="-18.5" font-family="Helvetica,sans-Serif" font-size="10.00">services::HttpServerConnection</text>
<text text-anchor="middle" x="819" y="-7.5" font-family="Helvetica,sans-Serif" font-size="10.00">Observer::TryHandleRequest</text>
</a>
</g>
</g>
<!-- Node406&#45;&gt;Node407 -->
<g id="edge41" class="edge"><title>Node406&#45;&gt;Node407</title>
<path fill="none" stroke="midnightblue" d="M714.415,-15.5C723.851,-15.5 733.41,-15.5 742.709,-15.5"/>
<polygon fill="midnightblue" stroke="midnightblue" points="714.241,-12.0001 704.241,-15.5 714.241,-19.0001 714.241,-12.0001"/>
</g>
<!-- Node408 -->
<g id="node41" class="node"><title>Node408</title>
<g id="a_node41"><a xlink:href="../../d2/db3/classservices_1_1_http_server_connection_observer.html#a6213f7b12f5fb1c0ddbabdb859ddca0a" target="_top" xlink:title="services::HttpServerConnection\lObserver::ReceivedRequest">
<polygon fill="white" stroke="black" points="934,-0.5 934,-30.5 1086,-30.5 1086,-0.5 934,-0.5"/>
<text text-anchor="start" x="942" y="-18.5" font-family="Helvetica,sans-Serif" font-size="10.00">services::HttpServerConnection</text>
<text text-anchor="middle" x="1010" y="-7.5" font-family="Helvetica,sans-Serif" font-size="10.00">Observer::ReceivedRequest</text>
</a>
</g>
</g>
<!-- Node407&#45;&gt;Node408 -->
<g id="edge42" class="edge"><title>Node407&#45;&gt;Node408</title>
<path fill="none" stroke="midnightblue" d="M905.415,-15.5C914.851,-15.5 924.41,-15.5 933.709,-15.5"/>
<polygon fill="midnightblue" stroke="midnightblue" points="905.241,-12.0001 895.241,-15.5 905.241,-19.0001 905.241,-12.0001"/>
</g>
<!-- Node409 -->
<g id="node42" class="node"><title>Node409</title>
<g id="a_node42"><a xlink:href="../../d2/db3/classservices_1_1_http_server_connection_observer.html#a3c5cabea13da6e140280b1b8c77244b3" target="_top" xlink:title="services::HttpServerConnection\lObserver::DataReceived">
<polygon fill="white" stroke="black" points="1122,-0.5 1122,-30.5 1274,-30.5 1274,-0.5 1122,-0.5"/>
<text text-anchor="start" x="1130" y="-18.5" font-family="Helvetica,sans-Serif" font-size="10.00">services::HttpServerConnection</text>
<text text-anchor="middle" x="1198" y="-7.5" font-family="Helvetica,sans-Serif" font-size="10.00">Observer::DataReceived</text>
</a>
</g>
</g>
<!-- Node408&#45;&gt;Node409 -->
<g id="edge43" class="edge"><title>Node408&#45;&gt;Node409</title>
<path fill="none" stroke="midnightblue" d="M1096.15,-15.5C1104.74,-15.5 1113.43,-15.5 1121.9,-15.5"/>
<polygon fill="midnightblue" stroke="midnightblue" points="1096.12,-12.0001 1086.12,-15.5 1096.12,-19.0001 1096.12,-12.0001"/>
</g>
<!-- Node410 -->
<g id="node43" class="node"><title>Node410</title>
<g id="a_node43"><a xlink:href="../../d2/db3/classservices_1_1_http_server_connection_observer.html#a579fc75f469c5b79141187fc04dbf74c" target="_top" xlink:title="services::HttpServerConnection\lObserver::SendStreamAvailable">
<polygon fill="white" stroke="black" points="1310,-0.5 1310,-30.5 1463,-30.5 1463,-0.5 1310,-0.5"/>
<text text-anchor="start" x="1318" y="-18.5" font-family="Helvetica,sans-Serif" font-size="10.00">services::HttpServerConnection</text>
<text text-anchor="middle" x="1386.5" y="-7.5" font-family="Helvetica,sans-Serif" font-size="10.00">Observer::SendStreamAvailable</text>
</a>
</g>
</g>
<!-- Node409&#45;&gt;Node410 -->
<g id="edge44" class="edge"><title>Node409&#45;&gt;Node410</title>
<path fill="none" stroke="midnightblue" d="M1284.12,-15.5C1292.75,-15.5 1301.48,-15.5 1310,-15.5"/>
<polygon fill="midnightblue" stroke="midnightblue" points="1284.05,-12.0001 1274.05,-15.5 1284.05,-19.0001 1284.05,-12.0001"/>
</g>
</g>
</svg>
