<?xml version="1.0" encoding="UTF-8" standalone="no"?>
<!DOCTYPE svg PUBLIC "-//W3C//DTD SVG 1.1//EN"
 "http://www.w3.org/Graphics/SVG/1.1/DTD/svg11.dtd">
<!-- Generated by graphviz version 2.38.0 (20140413.2041)
 -->
<!-- Title: infra::Timer::SetNextTriggerTime Pages: 1 -->
<svg width="1168pt" height="868pt"
 viewBox="0.00 0.00 1168.00 868.00" xmlns="http://www.w3.org/2000/svg" xmlns:xlink="http://www.w3.org/1999/xlink">
<g id="graph0" class="graph" transform="scale(1 1) rotate(0) translate(4 864)">
<title>infra::Timer::SetNextTriggerTime</title>
<polygon fill="white" stroke="none" points="-4,4 -4,-864 1164,-864 1164,4 -4,4"/>
<!-- Node321 -->
<g id="node1" class="node"><title>Node321</title>
<polygon fill="#bfbfbf" stroke="black" points="0,-682 0,-701 156,-701 156,-682 0,-682"/>
<text text-anchor="middle" x="78" y="-689" font-family="Helvetica,sans-Serif" font-size="10.00">infra::Timer::SetNextTriggerTime</text>
</g>
<!-- Node322 -->
<g id="node2" class="node"><title>Node322</title>
<g id="a_node2"><a xlink:href="../../db/d9e/classinfra_1_1_timer_limited_repeating.html#aad715048de6f39f1fdb691a2ebf465b9" target="_top" xlink:title="infra::TimerLimitedRepeating\l::ComputeNextTriggerTime">
<polygon fill="white" stroke="black" points="228,-826.5 228,-856.5 368,-856.5 368,-826.5 228,-826.5"/>
<text text-anchor="start" x="236" y="-844.5" font-family="Helvetica,sans-Serif" font-size="10.00">infra::TimerLimitedRepeating</text>
<text text-anchor="middle" x="298" y="-833.5" font-family="Helvetica,sans-Serif" font-size="10.00">::ComputeNextTriggerTime</text>
</a>
</g>
</g>
<!-- Node321&#45;&gt;Node322 -->
<g id="edge1" class="edge"><title>Node321&#45;&gt;Node322</title>
<path fill="none" stroke="midnightblue" d="M90.6417,-709.776C108.884,-736.881 146.828,-787.44 192,-814.5 202.899,-821.029 215.35,-825.992 227.778,-829.761"/>
<polygon fill="midnightblue" stroke="midnightblue" points="93.4499,-707.676 85.0314,-701.243 87.601,-711.522 93.4499,-707.676"/>
</g>
<!-- Node325 -->
<g id="node5" class="node"><title>Node325</title>
<g id="a_node5"><a xlink:href="../../df/d93/classinfra_1_1_timer_limited_repeating_with_closing_action.html#a0d8d9ed0cdc1f0802a79c9acf9ec1f84" target="_top" xlink:title="infra::TimerLimitedRepeating\lWithClosingAction::ComputeNextTriggerTime">
<polygon fill="white" stroke="black" points="192,-774.5 192,-804.5 404,-804.5 404,-774.5 192,-774.5"/>
<text text-anchor="start" x="200" y="-792.5" font-family="Helvetica,sans-Serif" font-size="10.00">infra::TimerLimitedRepeating</text>
<text text-anchor="middle" x="298" y="-781.5" font-family="Helvetica,sans-Serif" font-size="10.00">WithClosingAction::ComputeNextTriggerTime</text>
</a>
</g>
</g>
<!-- Node321&#45;&gt;Node325 -->
<g id="edge4" class="edge"><title>Node321&#45;&gt;Node325</title>
<path fill="none" stroke="midnightblue" d="M98.7884,-707.63C120.421,-724.475 156.724,-750.492 192,-765.5 200.001,-768.904 208.56,-771.863 217.21,-774.427"/>
<polygon fill="midnightblue" stroke="midnightblue" points="100.735,-704.708 90.7232,-701.243 96.3894,-710.195 100.735,-704.708"/>
</g>
<!-- Node328 -->
<g id="node8" class="node"><title>Node328</title>
<g id="a_node8"><a xlink:href="../../d9/dec/classinfra_1_1_timer_alternating.html#a859df16c1f3cfb21c899f743a4adca80" target="_top" xlink:title="infra::TimerAlternating\l::ComputeNextTriggerTime">
<polygon fill="white" stroke="black" points="232,-725.5 232,-755.5 364,-755.5 364,-725.5 232,-725.5"/>
<text text-anchor="start" x="240" y="-743.5" font-family="Helvetica,sans-Serif" font-size="10.00">infra::TimerAlternating</text>
<text text-anchor="middle" x="298" y="-732.5" font-family="Helvetica,sans-Serif" font-size="10.00">::ComputeNextTriggerTime</text>
</a>
</g>
</g>
<!-- Node321&#45;&gt;Node328 -->
<g id="edge7" class="edge"><title>Node321&#45;&gt;Node328</title>
<path fill="none" stroke="midnightblue" d="M131.185,-703.23C161.329,-710.005 199.52,-718.589 231.65,-725.811"/>
<polygon fill="midnightblue" stroke="midnightblue" points="131.815,-699.784 121.291,-701.006 130.28,-706.614 131.815,-699.784"/>
</g>
<!-- Node331 -->
<g id="node11" class="node"><title>Node331</title>
<g id="a_node11"><a xlink:href="../../d3/d9e/classinfra_1_1_timer_repeating.html#acef61c6675df5a97b7c6ea1f8325adbe" target="_top" xlink:title="infra::TimerRepeating\l::ComputeNextTriggerTime">
<polygon fill="white" stroke="black" points="232,-676.5 232,-706.5 364,-706.5 364,-676.5 232,-676.5"/>
<text text-anchor="start" x="240" y="-694.5" font-family="Helvetica,sans-Serif" font-size="10.00">infra::TimerRepeating</text>
<text text-anchor="middle" x="298" y="-683.5" font-family="Helvetica,sans-Serif" font-size="10.00">::ComputeNextTriggerTime</text>
</a>
</g>
</g>
<!-- Node321&#45;&gt;Node331 -->
<g id="edge10" class="edge"><title>Node321&#45;&gt;Node331</title>
<path fill="none" stroke="midnightblue" d="M166.433,-691.5C188.266,-691.5 211.301,-691.5 231.843,-691.5"/>
<polygon fill="midnightblue" stroke="midnightblue" points="166.165,-688 156.165,-691.5 166.165,-695 166.165,-688"/>
</g>
<!-- Node333 -->
<g id="node13" class="node"><title>Node333</title>
<g id="a_node13"><a xlink:href="../../d3/d9e/classinfra_1_1_timer_repeating.html#ad2eeb1fcc08e3eab3ceb404e2338597b" target="_top" xlink:title="infra::TimerRepeating\l::Start">
<polygon fill="white" stroke="black" points="659,-653.5 659,-683.5 767,-683.5 767,-653.5 659,-653.5"/>
<text text-anchor="start" x="667" y="-671.5" font-family="Helvetica,sans-Serif" font-size="10.00">infra::TimerRepeating</text>
<text text-anchor="middle" x="713" y="-660.5" font-family="Helvetica,sans-Serif" font-size="10.00">::Start</text>
</a>
</g>
</g>
<!-- Node321&#45;&gt;Node333 -->
<g id="edge44" class="edge"><title>Node321&#45;&gt;Node333</title>
<path fill="none" stroke="midnightblue" d="M124.564,-679.552C145.024,-674.776 169.562,-669.857 192,-667.5 361.692,-649.678 564.254,-658.717 658.659,-664.668"/>
<polygon fill="midnightblue" stroke="midnightblue" points="123.481,-676.212 114.573,-681.947 125.113,-683.019 123.481,-676.212"/>
</g>
<!-- Node336 -->
<g id="node16" class="node"><title>Node336</title>
<g id="a_node16"><a xlink:href="../../d0/d7e/classinfra_1_1_timer_evolving.html#a84bf5ab3bb05419e23ffb029750e3532" target="_top" xlink:title="infra::TimerEvolving\l::Evolve">
<polygon fill="white" stroke="black" points="248.5,-588.5 248.5,-618.5 347.5,-618.5 347.5,-588.5 248.5,-588.5"/>
<text text-anchor="start" x="256.5" y="-606.5" font-family="Helvetica,sans-Serif" font-size="10.00">infra::TimerEvolving</text>
<text text-anchor="middle" x="298" y="-595.5" font-family="Helvetica,sans-Serif" font-size="10.00">::Evolve</text>
</a>
</g>
</g>
<!-- Node321&#45;&gt;Node336 -->
<g id="edge15" class="edge"><title>Node321&#45;&gt;Node336</title>
<path fill="none" stroke="midnightblue" d="M104.25,-676.721C126.723,-664.014 160.775,-645.836 192,-633.5 209.985,-626.395 230.307,-620.189 248.249,-615.294"/>
<polygon fill="midnightblue" stroke="midnightblue" points="102.314,-673.797 95.3702,-681.799 105.789,-679.873 102.314,-673.797"/>
</g>
<!-- Node340 -->
<g id="node20" class="node"><title>Node340</title>
<g id="a_node20"><a xlink:href="../../d8/d87/classinfra_1_1_timer_single_shot.html#aa76a7526e88f2818fbc6567db181f24d" target="_top" xlink:title="infra::TimerSingleShot\l::Start">
<polygon fill="white" stroke="black" points="242,-270.5 242,-300.5 354,-300.5 354,-270.5 242,-270.5"/>
<text text-anchor="start" x="250" y="-288.5" font-family="Helvetica,sans-Serif" font-size="10.00">infra::TimerSingleShot</text>
<text text-anchor="middle" x="298" y="-277.5" font-family="Helvetica,sans-Serif" font-size="10.00">::Start</text>
</a>
</g>
</g>
<!-- Node321&#45;&gt;Node340 -->
<g id="edge19" class="edge"><title>Node321&#45;&gt;Node340</title>
<path fill="none" stroke="midnightblue" d="M88.9298,-673.007C125.84,-604.265 254.752,-364.181 288.736,-300.891"/>
<polygon fill="midnightblue" stroke="midnightblue" points="85.8209,-671.398 84.1738,-681.864 91.9881,-674.71 85.8209,-671.398"/>
</g>
<!-- Node323 -->
<g id="node3" class="node"><title>Node323</title>
<g id="a_node3"><a xlink:href="../../db/d9e/classinfra_1_1_timer_limited_repeating.html#a9b10d097885e6940c419ddbb62502939" target="_top" xlink:title="infra::TimerLimitedRepeating\l::Start">
<polygon fill="white" stroke="black" points="449,-827.5 449,-857.5 589,-857.5 589,-827.5 449,-827.5"/>
<text text-anchor="start" x="457" y="-845.5" font-family="Helvetica,sans-Serif" font-size="10.00">infra::TimerLimitedRepeating</text>
<text text-anchor="middle" x="519" y="-834.5" font-family="Helvetica,sans-Serif" font-size="10.00">::Start</text>
</a>
</g>
</g>
<!-- Node322&#45;&gt;Node323 -->
<g id="edge2" class="edge"><title>Node322&#45;&gt;Node323</title>
<path fill="none" stroke="midnightblue" d="M378.384,-841.862C401.432,-841.968 426.41,-842.082 448.782,-842.184"/>
<polygon fill="midnightblue" stroke="midnightblue" points="378.309,-838.362 368.293,-841.816 378.277,-845.362 378.309,-838.362"/>
</g>
<!-- Node324 -->
<g id="node4" class="node"><title>Node324</title>
<g id="a_node4"><a xlink:href="../../db/d9e/classinfra_1_1_timer_limited_repeating.html#a791dd159790bfc74601eb909ea9594fa" target="_top" xlink:title="infra::TimerLimitedRepeating\l::TimerLimitedRepeating">
<polygon fill="white" stroke="black" points="643,-829.5 643,-859.5 783,-859.5 783,-829.5 643,-829.5"/>
<text text-anchor="start" x="651" y="-847.5" font-family="Helvetica,sans-Serif" font-size="10.00">infra::TimerLimitedRepeating</text>
<text text-anchor="middle" x="713" y="-836.5" font-family="Helvetica,sans-Serif" font-size="10.00">::TimerLimitedRepeating</text>
</a>
</g>
</g>
<!-- Node323&#45;&gt;Node324 -->
<g id="edge3" class="edge"><title>Node323&#45;&gt;Node324</title>
<path fill="none" stroke="midnightblue" d="M599.443,-843.328C613.874,-843.478 628.82,-843.634 642.923,-843.78"/>
<polygon fill="midnightblue" stroke="midnightblue" points="599.081,-839.824 589.045,-843.219 599.008,-846.823 599.081,-839.824"/>
</g>
<!-- Node326 -->
<g id="node6" class="node"><title>Node326</title>
<g id="a_node6"><a xlink:href="../../df/d93/classinfra_1_1_timer_limited_repeating_with_closing_action.html#a260a7dcf1446a2456aa93e8cfccf73f7" target="_top" xlink:title="infra::TimerLimitedRepeating\lWithClosingAction::Start">
<polygon fill="white" stroke="black" points="449,-774.5 449,-804.5 589,-804.5 589,-774.5 449,-774.5"/>
<text text-anchor="start" x="457" y="-792.5" font-family="Helvetica,sans-Serif" font-size="10.00">infra::TimerLimitedRepeating</text>
<text text-anchor="middle" x="519" y="-781.5" font-family="Helvetica,sans-Serif" font-size="10.00">WithClosingAction::Start</text>
</a>
</g>
</g>
<!-- Node325&#45;&gt;Node326 -->
<g id="edge5" class="edge"><title>Node325&#45;&gt;Node326</title>
<path fill="none" stroke="midnightblue" d="M414.028,-789.5C425.944,-789.5 437.773,-789.5 448.948,-789.5"/>
<polygon fill="midnightblue" stroke="midnightblue" points="414.01,-786 404.01,-789.5 414.01,-793 414.01,-786"/>
</g>
<!-- Node327 -->
<g id="node7" class="node"><title>Node327</title>
<g id="a_node7"><a xlink:href="../../df/d93/classinfra_1_1_timer_limited_repeating_with_closing_action.html#ae946a652778084b2413971986f5f0f52" target="_top" xlink:title="infra::TimerLimitedRepeating\lWithClosingAction::TimerLimited\lRepeatingWithClosingAction">
<polygon fill="white" stroke="black" points="634,-769 634,-810 792,-810 792,-769 634,-769"/>
<text text-anchor="start" x="642" y="-798" font-family="Helvetica,sans-Serif" font-size="10.00">infra::TimerLimitedRepeating</text>
<text text-anchor="start" x="642" y="-787" font-family="Helvetica,sans-Serif" font-size="10.00">WithClosingAction::TimerLimited</text>
<text text-anchor="middle" x="713" y="-776" font-family="Helvetica,sans-Serif" font-size="10.00">RepeatingWithClosingAction</text>
</a>
</g>
</g>
<!-- Node326&#45;&gt;Node327 -->
<g id="edge6" class="edge"><title>Node326&#45;&gt;Node327</title>
<path fill="none" stroke="midnightblue" d="M599.378,-789.5C610.749,-789.5 622.441,-789.5 633.789,-789.5"/>
<polygon fill="midnightblue" stroke="midnightblue" points="599.045,-786 589.045,-789.5 599.045,-793 599.045,-786"/>
</g>
<!-- Node329 -->
<g id="node9" class="node"><title>Node329</title>
<g id="a_node9"><a xlink:href="../../d9/dec/classinfra_1_1_timer_alternating.html#a19acbb208e43bd8cc6bdf6c110830095" target="_top" xlink:title="infra::TimerAlternating\l::Start">
<polygon fill="white" stroke="black" points="463.5,-725.5 463.5,-755.5 574.5,-755.5 574.5,-725.5 463.5,-725.5"/>
<text text-anchor="start" x="471.5" y="-743.5" font-family="Helvetica,sans-Serif" font-size="10.00">infra::TimerAlternating</text>
<text text-anchor="middle" x="519" y="-732.5" font-family="Helvetica,sans-Serif" font-size="10.00">::Start</text>
</a>
</g>
</g>
<!-- Node328&#45;&gt;Node329 -->
<g id="edge8" class="edge"><title>Node328&#45;&gt;Node329</title>
<path fill="none" stroke="midnightblue" d="M374.311,-740.5C403.61,-740.5 436.539,-740.5 463.475,-740.5"/>
<polygon fill="midnightblue" stroke="midnightblue" points="374.114,-737 364.114,-740.5 374.114,-744 374.114,-737"/>
</g>
<!-- Node330 -->
<g id="node10" class="node"><title>Node330</title>
<g id="a_node10"><a xlink:href="../../d9/dec/classinfra_1_1_timer_alternating.html#a159973a5309091eb4f916dd3c80b4650" target="_top" xlink:title="infra::TimerAlternating\l::TimerAlternating">
<polygon fill="white" stroke="black" points="657.5,-719.5 657.5,-749.5 768.5,-749.5 768.5,-719.5 657.5,-719.5"/>
<text text-anchor="start" x="665.5" y="-737.5" font-family="Helvetica,sans-Serif" font-size="10.00">infra::TimerAlternating</text>
<text text-anchor="middle" x="713" y="-726.5" font-family="Helvetica,sans-Serif" font-size="10.00">::TimerAlternating</text>
</a>
</g>
</g>
<!-- Node329&#45;&gt;Node330 -->
<g id="edge9" class="edge"><title>Node329&#45;&gt;Node330</title>
<path fill="none" stroke="midnightblue" d="M584.767,-738.476C608.345,-737.739 634.744,-736.914 657.358,-736.208"/>
<polygon fill="midnightblue" stroke="midnightblue" points="584.392,-734.986 574.506,-738.797 584.61,-741.983 584.392,-734.986"/>
</g>
<!-- Node332 -->
<g id="node12" class="node"><title>Node332</title>
<g id="a_node12"><a xlink:href="../../d3/d9e/classinfra_1_1_timer_repeating.html#aa967ed7eba7a60ca38ac6f9dd9bc4987" target="_top" xlink:title="infra::TimerRepeating\l::SetDuration">
<polygon fill="white" stroke="black" points="465,-676.5 465,-706.5 573,-706.5 573,-676.5 465,-676.5"/>
<text text-anchor="start" x="473" y="-694.5" font-family="Helvetica,sans-Serif" font-size="10.00">infra::TimerRepeating</text>
<text text-anchor="middle" x="519" y="-683.5" font-family="Helvetica,sans-Serif" font-size="10.00">::SetDuration</text>
</a>
</g>
</g>
<!-- Node331&#45;&gt;Node332 -->
<g id="edge11" class="edge"><title>Node331&#45;&gt;Node332</title>
<path fill="none" stroke="midnightblue" d="M374.476,-691.5C404.256,-691.5 437.763,-691.5 464.909,-691.5"/>
<polygon fill="midnightblue" stroke="midnightblue" points="374.114,-688 364.114,-691.5 374.114,-695 374.114,-688"/>
</g>
<!-- Node332&#45;&gt;Node333 -->
<g id="edge12" class="edge"><title>Node332&#45;&gt;Node333</title>
<path fill="none" stroke="midnightblue" d="M583.453,-683.899C607.816,-680.98 635.351,-677.682 658.669,-674.889"/>
<polygon fill="midnightblue" stroke="midnightblue" points="582.74,-680.459 573.228,-685.124 583.573,-687.409 582.74,-680.459"/>
</g>
<!-- Node334 -->
<g id="node14" class="node"><title>Node334</title>
<g id="a_node14"><a xlink:href="../../d3/d9e/classinfra_1_1_timer_repeating.html#aa9d1504266e538abb13f5d8209bc48e6" target="_top" xlink:title="infra::TimerRepeating\l::TimerRepeating">
<polygon fill="white" stroke="black" points="848,-677.5 848,-707.5 956,-707.5 956,-677.5 848,-677.5"/>
<text text-anchor="start" x="856" y="-695.5" font-family="Helvetica,sans-Serif" font-size="10.00">infra::TimerRepeating</text>
<text text-anchor="middle" x="902" y="-684.5" font-family="Helvetica,sans-Serif" font-size="10.00">::TimerRepeating</text>
</a>
</g>
</g>
<!-- Node333&#45;&gt;Node334 -->
<g id="edge13" class="edge"><title>Node333&#45;&gt;Node334</title>
<path fill="none" stroke="midnightblue" d="M777.08,-676.596C800.044,-679.543 825.756,-682.843 847.781,-685.67"/>
<polygon fill="midnightblue" stroke="midnightblue" points="777.451,-673.115 767.086,-675.313 776.56,-680.058 777.451,-673.115"/>
</g>
<!-- Node335 -->
<g id="node15" class="node"><title>Node335</title>
<g id="a_node15"><a xlink:href="../../d3/d9e/classinfra_1_1_timer_repeating.html#a04e65f09da5c159f0a7834c237027cee" target="_top" xlink:title="infra::TimerRepeating\l::Start">
<polygon fill="white" stroke="black" points="848,-628.5 848,-658.5 956,-658.5 956,-628.5 848,-628.5"/>
<text text-anchor="start" x="856" y="-646.5" font-family="Helvetica,sans-Serif" font-size="10.00">infra::TimerRepeating</text>
<text text-anchor="middle" x="902" y="-635.5" font-family="Helvetica,sans-Serif" font-size="10.00">::Start</text>
</a>
</g>
</g>
<!-- Node333&#45;&gt;Node335 -->
<g id="edge14" class="edge"><title>Node333&#45;&gt;Node335</title>
<path fill="none" stroke="midnightblue" d="M777.08,-660.067C800.044,-656.997 825.756,-653.559 847.781,-650.615"/>
<polygon fill="midnightblue" stroke="midnightblue" points="776.534,-656.609 767.086,-661.403 777.462,-663.547 776.534,-656.609"/>
</g>
<!-- Node337 -->
<g id="node17" class="node"><title>Node337</title>
<g id="a_node17"><a xlink:href="../../d0/d7e/classinfra_1_1_timer_evolving.html#a5635a0cace39581c32bb3e488f83854c" target="_top" xlink:title="infra::TimerEvolving\l::Start">
<polygon fill="white" stroke="black" points="469.5,-588.5 469.5,-618.5 568.5,-618.5 568.5,-588.5 469.5,-588.5"/>
<text text-anchor="start" x="477.5" y="-606.5" font-family="Helvetica,sans-Serif" font-size="10.00">infra::TimerEvolving</text>
<text text-anchor="middle" x="519" y="-595.5" font-family="Helvetica,sans-Serif" font-size="10.00">::Start</text>
</a>
</g>
</g>
<!-- Node336&#45;&gt;Node337 -->
<g id="edge16" class="edge"><title>Node336&#45;&gt;Node337</title>
<path fill="none" stroke="midnightblue" d="M357.647,-603.5C392.498,-603.5 436.185,-603.5 469.154,-603.5"/>
<polygon fill="midnightblue" stroke="midnightblue" points="357.603,-600 347.603,-603.5 357.603,-607 357.603,-600"/>
</g>
<!-- Node339 -->
<g id="node19" class="node"><title>Node339</title>
<g id="a_node19"><a xlink:href="../../d0/d7e/classinfra_1_1_timer_evolving.html#a0a94bad474fcdd26bf9d69ae74de01cc" target="_top" xlink:title="infra::TimerEvolving\l::ComputeNextTriggerTime">
<polygon fill="white" stroke="black" points="453,-539.5 453,-569.5 585,-569.5 585,-539.5 453,-539.5"/>
<text text-anchor="start" x="461" y="-557.5" font-family="Helvetica,sans-Serif" font-size="10.00">infra::TimerEvolving</text>
<text text-anchor="middle" x="519" y="-546.5" font-family="Helvetica,sans-Serif" font-size="10.00">::ComputeNextTriggerTime</text>
</a>
</g>
</g>
<!-- Node336&#45;&gt;Node339 -->
<g id="edge18" class="edge"><title>Node336&#45;&gt;Node339</title>
<path fill="none" stroke="midnightblue" d="M357.711,-590.364C387.08,-583.793 422.711,-575.82 452.913,-569.063"/>
<polygon fill="midnightblue" stroke="midnightblue" points="356.598,-587.026 347.603,-592.625 358.126,-593.857 356.598,-587.026"/>
</g>
<!-- Node338 -->
<g id="node18" class="node"><title>Node338</title>
<g id="a_node18"><a xlink:href="../../d0/d7e/classinfra_1_1_timer_evolving.html#ab19975502faf4280dc2e25a22f6d6e92" target="_top" xlink:title="infra::TimerEvolving\l::TimerEvolving">
<polygon fill="white" stroke="black" points="663.5,-588.5 663.5,-618.5 762.5,-618.5 762.5,-588.5 663.5,-588.5"/>
<text text-anchor="start" x="671.5" y="-606.5" font-family="Helvetica,sans-Serif" font-size="10.00">infra::TimerEvolving</text>
<text text-anchor="middle" x="713" y="-595.5" font-family="Helvetica,sans-Serif" font-size="10.00">::TimerEvolving</text>
</a>
</g>
</g>
<!-- Node337&#45;&gt;Node338 -->
<g id="edge17" class="edge"><title>Node337&#45;&gt;Node338</title>
<path fill="none" stroke="midnightblue" d="M579.072,-603.5C606.14,-603.5 637.829,-603.5 663.476,-603.5"/>
<polygon fill="midnightblue" stroke="midnightblue" points="578.947,-600 568.946,-603.5 578.946,-607 578.947,-600"/>
</g>
<!-- Node341 -->
<g id="node21" class="node"><title>Node341</title>
<g id="a_node21"><a xlink:href="../../d1/dfe/classservices_1_1_debounced_button.html#aff73660a88f1c178ca8c7122b89ec584" target="_top" xlink:title="services::DebouncedButton\l::ButtonPressed">
<polygon fill="white" stroke="black" points="451.5,-490.5 451.5,-520.5 586.5,-520.5 586.5,-490.5 451.5,-490.5"/>
<text text-anchor="start" x="459.5" y="-508.5" font-family="Helvetica,sans-Serif" font-size="10.00">services::DebouncedButton</text>
<text text-anchor="middle" x="519" y="-497.5" font-family="Helvetica,sans-Serif" font-size="10.00">::ButtonPressed</text>
</a>
</g>
</g>
<!-- Node340&#45;&gt;Node341 -->
<g id="edge20" class="edge"><title>Node340&#45;&gt;Node341</title>
<path fill="none" stroke="midnightblue" d="M310.123,-309.75C330.213,-350.898 376.442,-434.406 440,-480.5 445.295,-484.34 451.206,-487.608 457.34,-490.384"/>
<polygon fill="midnightblue" stroke="midnightblue" points="313.273,-308.222 305.8,-300.711 306.958,-311.243 313.273,-308.222"/>
</g>
<!-- Node344 -->
<g id="node24" class="node"><title>Node344</title>
<g id="a_node24"><a xlink:href="../../d1/dfe/classservices_1_1_debounced_button.html#a04ba592736f64e1d65e1f103cfa934f6" target="_top" xlink:title="services::DebouncedButton\l::ButtonReleased">
<polygon fill="white" stroke="black" points="451.5,-441.5 451.5,-471.5 586.5,-471.5 586.5,-441.5 451.5,-441.5"/>
<text text-anchor="start" x="459.5" y="-459.5" font-family="Helvetica,sans-Serif" font-size="10.00">services::DebouncedButton</text>
<text text-anchor="middle" x="519" y="-448.5" font-family="Helvetica,sans-Serif" font-size="10.00">::ButtonReleased</text>
</a>
</g>
</g>
<!-- Node340&#45;&gt;Node344 -->
<g id="edge23" class="edge"><title>Node340&#45;&gt;Node344</title>
<path fill="none" stroke="midnightblue" d="M315.731,-309.039C339.735,-341.16 386.942,-398.494 440,-431.5 446.158,-435.331 452.958,-438.627 459.9,-441.451"/>
<polygon fill="midnightblue" stroke="midnightblue" points="318.335,-306.672 309.591,-300.689 312.696,-310.819 318.335,-306.672"/>
</g>
<!-- Node345 -->
<g id="node25" class="node"><title>Node345</title>
<g id="a_node25"><a xlink:href="../../db/d9d/classinfra_1_1_derived_timer_service.html#a561871017cf0ba4564f3d2d576d2710e" target="_top" xlink:title="infra::DerivedTimerService\l::NextTriggerChanged">
<polygon fill="white" stroke="black" points="455,-392.5 455,-422.5 583,-422.5 583,-392.5 455,-392.5"/>
<text text-anchor="start" x="463" y="-410.5" font-family="Helvetica,sans-Serif" font-size="10.00">infra::DerivedTimerService</text>
<text text-anchor="middle" x="519" y="-399.5" font-family="Helvetica,sans-Serif" font-size="10.00">::NextTriggerChanged</text>
</a>
</g>
</g>
<!-- Node340&#45;&gt;Node345 -->
<g id="edge25" class="edge"><title>Node340&#45;&gt;Node345</title>
<path fill="none" stroke="midnightblue" d="M324.942,-306.825C352.187,-328.36 396.976,-361.377 440,-382.5 447.531,-386.197 455.734,-389.518 463.899,-392.44"/>
<polygon fill="midnightblue" stroke="midnightblue" points="327.068,-304.044 317.07,-300.536 322.698,-309.513 327.068,-304.044"/>
</g>
<!-- Node347 -->
<g id="node27" class="node"><title>Node347</title>
<g id="a_node27"><a xlink:href="../../d1/d88/classservices_1_1_flash_quad_spi_cypress_fll.html#a90cf929fd86b0302556e665e336f08d0" target="_top" xlink:title="services::FlashQuadSpiCypress\lFll::FlashQuadSpiCypressFll">
<polygon fill="white" stroke="black" points="441.5,-343.5 441.5,-373.5 596.5,-373.5 596.5,-343.5 441.5,-343.5"/>
<text text-anchor="start" x="449.5" y="-361.5" font-family="Helvetica,sans-Serif" font-size="10.00">services::FlashQuadSpiCypress</text>
<text text-anchor="middle" x="519" y="-350.5" font-family="Helvetica,sans-Serif" font-size="10.00">Fll::FlashQuadSpiCypressFll</text>
</a>
</g>
</g>
<!-- Node340&#45;&gt;Node347 -->
<g id="edge27" class="edge"><title>Node340&#45;&gt;Node347</title>
<path fill="none" stroke="midnightblue" d="M352.236,-303.874C378.601,-312.91 410.935,-323.896 440,-333.5 449.857,-336.757 460.434,-340.189 470.52,-343.432"/>
<polygon fill="midnightblue" stroke="midnightblue" points="353.037,-300.449 342.442,-300.514 350.765,-307.07 353.037,-300.449"/>
</g>
<!-- Node348 -->
<g id="node28" class="node"><title>Node348</title>
<g id="a_node28"><a xlink:href="../../d8/dbe/classservices_1_1_flash_quad_spi_micron_n25q.html#ab936eba5af1f7e92e96d364095237b38" target="_top" xlink:title="services::FlashQuadSpiMicron\lN25q::FlashQuadSpiMicronN25q">
<polygon fill="white" stroke="black" points="440,-294.5 440,-324.5 598,-324.5 598,-294.5 440,-294.5"/>
<text text-anchor="start" x="448" y="-312.5" font-family="Helvetica,sans-Serif" font-size="10.00">services::FlashQuadSpiMicron</text>
<text text-anchor="middle" x="519" y="-301.5" font-family="Helvetica,sans-Serif" font-size="10.00">N25q::FlashQuadSpiMicronN25q</text>
</a>
</g>
</g>
<!-- Node340&#45;&gt;Node348 -->
<g id="edge28" class="edge"><title>Node340&#45;&gt;Node348</title>
<path fill="none" stroke="midnightblue" d="M364.51,-292.679C388.118,-295.266 414.997,-298.212 439.593,-300.907"/>
<polygon fill="midnightblue" stroke="midnightblue" points="364.585,-289.166 354.263,-291.556 363.822,-296.125 364.585,-289.166"/>
</g>
<!-- Node349 -->
<g id="node29" class="node"><title>Node349</title>
<g id="a_node29"><a xlink:href="../../df/d28/classservices_1_1_flash_spi.html#a84fae0acb54bc7f4841ee1e2c970618f" target="_top" xlink:title="services::FlashSpi\l::HoldWhileWriteInProgress">
<polygon fill="white" stroke="black" points="450.5,-245.5 450.5,-275.5 587.5,-275.5 587.5,-245.5 450.5,-245.5"/>
<text text-anchor="start" x="458.5" y="-263.5" font-family="Helvetica,sans-Serif" font-size="10.00">services::FlashSpi</text>
<text text-anchor="middle" x="519" y="-252.5" font-family="Helvetica,sans-Serif" font-size="10.00">::HoldWhileWriteInProgress</text>
</a>
</g>
</g>
<!-- Node340&#45;&gt;Node349 -->
<g id="edge29" class="edge"><title>Node340&#45;&gt;Node349</title>
<path fill="none" stroke="midnightblue" d="M364.414,-278.033C391.497,-274.941 422.9,-271.356 450.226,-268.237"/>
<polygon fill="midnightblue" stroke="midnightblue" points="363.801,-274.58 354.263,-279.191 364.595,-281.535 363.801,-274.58"/>
</g>
<!-- Node352 -->
<g id="node32" class="node"><title>Node352</title>
<g id="a_node32"><a xlink:href="../../db/dae/classservices_1_1_http_client_basic.html#a1b97214767813f813dee6ee393533e23" target="_top" xlink:title="services::HttpClientBasic\l::ConnectionEstablished">
<polygon fill="white" stroke="black" points="456.5,-196.5 456.5,-226.5 581.5,-226.5 581.5,-196.5 456.5,-196.5"/>
<text text-anchor="start" x="464.5" y="-214.5" font-family="Helvetica,sans-Serif" font-size="10.00">services::HttpClientBasic</text>
<text text-anchor="middle" x="519" y="-203.5" font-family="Helvetica,sans-Serif" font-size="10.00">::ConnectionEstablished</text>
</a>
</g>
</g>
<!-- Node340&#45;&gt;Node352 -->
<g id="edge32" class="edge"><title>Node340&#45;&gt;Node352</title>
<path fill="none" stroke="midnightblue" d="M349.424,-267.037C376.233,-257.368 409.805,-245.494 440,-235.5 449.012,-232.517 458.649,-229.452 467.968,-226.551"/>
<polygon fill="midnightblue" stroke="midnightblue" points="348.086,-263.799 339.872,-270.491 350.467,-270.382 348.086,-263.799"/>
</g>
<!-- Node353 -->
<g id="node33" class="node"><title>Node353</title>
<g id="a_node33"><a xlink:href="../../d0/d0e/classservices_1_1_name_resolver_cache.html#a94507ff8cefc3037d6695fdc82c827e3" target="_top" xlink:title="services::NameResolverCache\l::Cleanup">
<polygon fill="white" stroke="black" points="445,-147.5 445,-177.5 593,-177.5 593,-147.5 445,-147.5"/>
<text text-anchor="start" x="453" y="-165.5" font-family="Helvetica,sans-Serif" font-size="10.00">services::NameResolverCache</text>
<text text-anchor="middle" x="519" y="-154.5" font-family="Helvetica,sans-Serif" font-size="10.00">::Cleanup</text>
</a>
</g>
</g>
<!-- Node340&#45;&gt;Node353 -->
<g id="edge33" class="edge"><title>Node340&#45;&gt;Node353</title>
<path fill="none" stroke="midnightblue" d="M324.359,-263.967C351.456,-241.885 396.423,-207.837 440,-186.5 446.744,-183.198 454.039,-180.234 461.367,-177.611"/>
<polygon fill="midnightblue" stroke="midnightblue" points="322.034,-261.347 316.544,-270.409 326.487,-266.749 322.034,-261.347"/>
</g>
<!-- Node357 -->
<g id="node37" class="node"><title>Node357</title>
<g id="a_node37"><a xlink:href="../../d0/d08/classservices_1_1_repeating_button.html#a18153734f98c67f2096d641f5fb8d66f" target="_top" xlink:title="services::RepeatingButton\l::ButtonPressed">
<polygon fill="white" stroke="black" points="454,-98.5 454,-128.5 584,-128.5 584,-98.5 454,-98.5"/>
<text text-anchor="start" x="462" y="-116.5" font-family="Helvetica,sans-Serif" font-size="10.00">services::RepeatingButton</text>
<text text-anchor="middle" x="519" y="-105.5" font-family="Helvetica,sans-Serif" font-size="10.00">::ButtonPressed</text>
</a>
</g>
</g>
<!-- Node340&#45;&gt;Node357 -->
<g id="edge37" class="edge"><title>Node340&#45;&gt;Node357</title>
<path fill="none" stroke="midnightblue" d="M315.235,-262.043C338.969,-229.465 386.208,-170.781 440,-137.5 445.542,-134.071 451.611,-131.099 457.839,-128.531"/>
<polygon fill="midnightblue" stroke="midnightblue" points="312.157,-260.33 309.178,-270.497 317.847,-264.407 312.157,-260.33"/>
</g>
<!-- Node360 -->
<g id="node40" class="node"><title>Node360</title>
<g id="a_node40"><a xlink:href="../../da/dc4/classinfra_1_1_scalable_derived_timer_service.html#a28598eb5eaf5bdf3d3ff98fabe0824ab" target="_top" xlink:title="infra::ScalableDerivedTimer\lService::NextTriggerChanged">
<polygon fill="white" stroke="black" points="448,-49.5 448,-79.5 590,-79.5 590,-49.5 448,-49.5"/>
<text text-anchor="start" x="456" y="-67.5" font-family="Helvetica,sans-Serif" font-size="10.00">infra::ScalableDerivedTimer</text>
<text text-anchor="middle" x="519" y="-56.5" font-family="Helvetica,sans-Serif" font-size="10.00">Service::NextTriggerChanged</text>
</a>
</g>
</g>
<!-- Node340&#45;&gt;Node360 -->
<g id="edge40" class="edge"><title>Node340&#45;&gt;Node360</title>
<path fill="none" stroke="midnightblue" d="M309.852,-261.228C329.675,-219.646 375.697,-134.8 440,-88.5 444.714,-85.1057 449.919,-82.183 455.336,-79.668"/>
<polygon fill="midnightblue" stroke="midnightblue" points="306.652,-259.811 305.594,-270.353 312.995,-262.771 306.652,-259.811"/>
</g>
<!-- Node363 -->
<g id="node43" class="node"><title>Node363</title>
<g id="a_node43"><a xlink:href="../../d8/d87/classinfra_1_1_timer_single_shot.html#aa0fa630e9c4e0d0cecbc5b6ea6dca746" target="_top" xlink:title="infra::TimerSingleShot\l::TimerSingleShot">
<polygon fill="white" stroke="black" points="463,-0.5 463,-30.5 575,-30.5 575,-0.5 463,-0.5"/>
<text text-anchor="start" x="471" y="-18.5" font-family="Helvetica,sans-Serif" font-size="10.00">infra::TimerSingleShot</text>
<text text-anchor="middle" x="519" y="-7.5" font-family="Helvetica,sans-Serif" font-size="10.00">::TimerSingleShot</text>
</a>
</g>
</g>
<!-- Node340&#45;&gt;Node363 -->
<g id="edge43" class="edge"><title>Node340&#45;&gt;Node363</title>
<path fill="none" stroke="midnightblue" d="M306.287,-260.912C322.203,-211.471 364.798,-99.6218 440,-39.5 446.75,-34.1032 454.713,-29.9156 462.926,-26.6674"/>
<polygon fill="midnightblue" stroke="midnightblue" points="302.941,-259.885 303.293,-270.474 309.621,-261.976 302.941,-259.885"/>
</g>
<!-- Node342 -->
<g id="node22" class="node"><title>Node342</title>
<g id="a_node22"><a xlink:href="../../d1/dfe/classservices_1_1_debounced_button.html#a1256f1c824fb2ad839ca74f87622feab" target="_top" xlink:title="services::DebouncedButton\l::ButtonChanged">
<polygon fill="white" stroke="black" points="645.5,-466.5 645.5,-496.5 780.5,-496.5 780.5,-466.5 645.5,-466.5"/>
<text text-anchor="start" x="653.5" y="-484.5" font-family="Helvetica,sans-Serif" font-size="10.00">services::DebouncedButton</text>
<text text-anchor="middle" x="713" y="-473.5" font-family="Helvetica,sans-Serif" font-size="10.00">::ButtonChanged</text>
</a>
</g>
</g>
<!-- Node341&#45;&gt;Node342 -->
<g id="edge21" class="edge"><title>Node341&#45;&gt;Node342</title>
<path fill="none" stroke="midnightblue" d="M596.975,-495.878C612.933,-493.883 629.621,-491.797 645.179,-489.853"/>
<polygon fill="midnightblue" stroke="midnightblue" points="596.102,-492.46 586.613,-497.173 596.97,-499.406 596.102,-492.46"/>
</g>
<!-- Node343 -->
<g id="node23" class="node"><title>Node343</title>
<g id="a_node23"><a xlink:href="../../d1/dfe/classservices_1_1_debounced_button.html#aa4d2ea4a1751a1d33ddb65e61ae719b1" target="_top" xlink:title="services::DebouncedButton\l::DebouncedButton">
<polygon fill="white" stroke="black" points="834.5,-466.5 834.5,-496.5 969.5,-496.5 969.5,-466.5 834.5,-466.5"/>
<text text-anchor="start" x="842.5" y="-484.5" font-family="Helvetica,sans-Serif" font-size="10.00">services::DebouncedButton</text>
<text text-anchor="middle" x="902" y="-473.5" font-family="Helvetica,sans-Serif" font-size="10.00">::DebouncedButton</text>
</a>
</g>
</g>
<!-- Node342&#45;&gt;Node343 -->
<g id="edge22" class="edge"><title>Node342&#45;&gt;Node343</title>
<path fill="none" stroke="midnightblue" d="M791.056,-481.5C805.409,-481.5 820.296,-481.5 834.306,-481.5"/>
<polygon fill="midnightblue" stroke="midnightblue" points="790.719,-478 780.719,-481.5 790.719,-485 790.719,-478"/>
</g>
<!-- Node344&#45;&gt;Node342 -->
<g id="edge24" class="edge"><title>Node344&#45;&gt;Node342</title>
<path fill="none" stroke="midnightblue" d="M596.975,-466.523C612.933,-468.601 629.621,-470.774 645.179,-472.799"/>
<polygon fill="midnightblue" stroke="midnightblue" points="596.982,-462.994 586.613,-465.174 596.078,-469.936 596.982,-462.994"/>
</g>
<!-- Node346 -->
<g id="node26" class="node"><title>Node346</title>
<g id="a_node26"><a xlink:href="../../db/d9d/classinfra_1_1_derived_timer_service.html#a757e398797fa31a9637392778a8693d8" target="_top" xlink:title="infra::DerivedTimerService\l::Shift">
<polygon fill="white" stroke="black" points="649,-392.5 649,-422.5 777,-422.5 777,-392.5 649,-392.5"/>
<text text-anchor="start" x="657" y="-410.5" font-family="Helvetica,sans-Serif" font-size="10.00">infra::DerivedTimerService</text>
<text text-anchor="middle" x="713" y="-399.5" font-family="Helvetica,sans-Serif" font-size="10.00">::Shift</text>
</a>
</g>
</g>
<!-- Node345&#45;&gt;Node346 -->
<g id="edge26" class="edge"><title>Node345&#45;&gt;Node346</title>
<path fill="none" stroke="midnightblue" d="M593.18,-407.5C611.514,-407.5 631.027,-407.5 648.828,-407.5"/>
<polygon fill="midnightblue" stroke="midnightblue" points="593.134,-404 583.134,-407.5 593.134,-411 593.134,-404"/>
</g>
<!-- Node350 -->
<g id="node30" class="node"><title>Node350</title>
<g id="a_node30"><a xlink:href="../../df/d28/classservices_1_1_flash_spi.html#a565d63c057e750b2c5703b83e2987e0d" target="_top" xlink:title="services::FlashSpi\l::WriteBuffer">
<polygon fill="white" stroke="black" points="665,-269.5 665,-299.5 761,-299.5 761,-269.5 665,-269.5"/>
<text text-anchor="start" x="673" y="-287.5" font-family="Helvetica,sans-Serif" font-size="10.00">services::FlashSpi</text>
<text text-anchor="middle" x="713" y="-276.5" font-family="Helvetica,sans-Serif" font-size="10.00">::WriteBuffer</text>
</a>
</g>
</g>
<!-- Node349&#45;&gt;Node350 -->
<g id="edge30" class="edge"><title>Node349&#45;&gt;Node350</title>
<path fill="none" stroke="midnightblue" d="M597.674,-270.209C620.408,-273.051 644.566,-276.071 664.789,-278.599"/>
<polygon fill="midnightblue" stroke="midnightblue" points="598.049,-266.729 587.692,-268.962 597.181,-273.675 598.049,-266.729"/>
</g>
<!-- Node351 -->
<g id="node31" class="node"><title>Node351</title>
<g id="a_node31"><a xlink:href="../../df/d28/classservices_1_1_flash_spi.html#a5b3e05583977f2aebb2cb4b25491390a" target="_top" xlink:title="services::FlashSpi\l::EraseSectors">
<polygon fill="white" stroke="black" points="665,-220.5 665,-250.5 761,-250.5 761,-220.5 665,-220.5"/>
<text text-anchor="start" x="673" y="-238.5" font-family="Helvetica,sans-Serif" font-size="10.00">services::FlashSpi</text>
<text text-anchor="middle" x="713" y="-227.5" font-family="Helvetica,sans-Serif" font-size="10.00">::EraseSectors</text>
</a>
</g>
</g>
<!-- Node349&#45;&gt;Node351 -->
<g id="edge31" class="edge"><title>Node349&#45;&gt;Node351</title>
<path fill="none" stroke="midnightblue" d="M597.674,-250.386C620.408,-247.426 644.566,-244.28 664.789,-241.647"/>
<polygon fill="midnightblue" stroke="midnightblue" points="597.156,-246.924 587.692,-251.686 598.06,-253.865 597.156,-246.924"/>
</g>
<!-- Node354 -->
<g id="node34" class="node"><title>Node354</title>
<g id="a_node34"><a xlink:href="../../d0/d0e/classservices_1_1_name_resolver_cache.html#a4bea9f7ed8aa9320e48906769a0ad9f6" target="_top" xlink:title="services::NameResolverCache\l::AddToCache">
<polygon fill="white" stroke="black" points="639,-147.5 639,-177.5 787,-177.5 787,-147.5 639,-147.5"/>
<text text-anchor="start" x="647" y="-165.5" font-family="Helvetica,sans-Serif" font-size="10.00">services::NameResolverCache</text>
<text text-anchor="middle" x="713" y="-154.5" font-family="Helvetica,sans-Serif" font-size="10.00">::AddToCache</text>
</a>
</g>
</g>
<!-- Node353&#45;&gt;Node354 -->
<g id="edge34" class="edge"><title>Node353&#45;&gt;Node354</title>
<path fill="none" stroke="midnightblue" d="M603.394,-162.5C615.163,-162.5 627.191,-162.5 638.751,-162.5"/>
<polygon fill="midnightblue" stroke="midnightblue" points="603.135,-159 593.135,-162.5 603.135,-166 603.135,-159"/>
</g>
<!-- Node355 -->
<g id="node35" class="node"><title>Node355</title>
<g id="a_node35"><a xlink:href="../../d0/d0e/classservices_1_1_name_resolver_cache.html#a8d759a5e4b14b66215080996aed525c0" target="_top" xlink:title="services::NameResolverCache\l::TryAddToCache">
<polygon fill="white" stroke="black" points="828,-147.5 828,-177.5 976,-177.5 976,-147.5 828,-147.5"/>
<text text-anchor="start" x="836" y="-165.5" font-family="Helvetica,sans-Serif" font-size="10.00">services::NameResolverCache</text>
<text text-anchor="middle" x="902" y="-154.5" font-family="Helvetica,sans-Serif" font-size="10.00">::TryAddToCache</text>
</a>
</g>
</g>
<!-- Node354&#45;&gt;Node355 -->
<g id="edge35" class="edge"><title>Node354&#45;&gt;Node355</title>
<path fill="none" stroke="midnightblue" d="M797.259,-162.5C807.489,-162.5 817.885,-162.5 827.948,-162.5"/>
<polygon fill="midnightblue" stroke="midnightblue" points="797.103,-159 787.103,-162.5 797.102,-166 797.103,-159"/>
</g>
<!-- Node356 -->
<g id="node36" class="node"><title>Node356</title>
<g id="a_node36"><a xlink:href="../../d0/d0e/classservices_1_1_name_resolver_cache.html#acf7510ed181dff53bc67837c490b6062" target="_top" xlink:title="services::NameResolverCache\l::NameLookupSuccess">
<polygon fill="white" stroke="black" points="1012,-147.5 1012,-177.5 1160,-177.5 1160,-147.5 1012,-147.5"/>
<text text-anchor="start" x="1020" y="-165.5" font-family="Helvetica,sans-Serif" font-size="10.00">services::NameResolverCache</text>
<text text-anchor="middle" x="1086" y="-154.5" font-family="Helvetica,sans-Serif" font-size="10.00">::NameLookupSuccess</text>
</a>
</g>
</g>
<!-- Node355&#45;&gt;Node356 -->
<g id="edge36" class="edge"><title>Node355&#45;&gt;Node356</title>
<path fill="none" stroke="midnightblue" d="M986.516,-162.5C994.992,-162.5 1003.56,-162.5 1011.91,-162.5"/>
<polygon fill="midnightblue" stroke="midnightblue" points="986.24,-159 976.24,-162.5 986.24,-166 986.24,-159"/>
</g>
<!-- Node358 -->
<g id="node38" class="node"><title>Node358</title>
<g id="a_node38"><a xlink:href="../../d0/d08/classservices_1_1_repeating_button.html#af9db5b4934e4610beb5e5071de6c58b7" target="_top" xlink:title="services::RepeatingButton\l::ButtonChanged">
<polygon fill="white" stroke="black" points="648,-98.5 648,-128.5 778,-128.5 778,-98.5 648,-98.5"/>
<text text-anchor="start" x="656" y="-116.5" font-family="Helvetica,sans-Serif" font-size="10.00">services::RepeatingButton</text>
<text text-anchor="middle" x="713" y="-105.5" font-family="Helvetica,sans-Serif" font-size="10.00">::ButtonChanged</text>
</a>
</g>
</g>
<!-- Node357&#45;&gt;Node358 -->
<g id="edge38" class="edge"><title>Node357&#45;&gt;Node358</title>
<path fill="none" stroke="midnightblue" d="M594.444,-113.5C612.076,-113.5 630.732,-113.5 647.86,-113.5"/>
<polygon fill="midnightblue" stroke="midnightblue" points="594.2,-110 584.2,-113.5 594.2,-117 594.2,-110"/>
</g>
<!-- Node359 -->
<g id="node39" class="node"><title>Node359</title>
<g id="a_node39"><a xlink:href="../../d0/d08/classservices_1_1_repeating_button.html#aa38e30277c5df615ae1a86617c4127c0" target="_top" xlink:title="services::RepeatingButton\l::RepeatingButton">
<polygon fill="white" stroke="black" points="837,-98.5 837,-128.5 967,-128.5 967,-98.5 837,-98.5"/>
<text text-anchor="start" x="845" y="-116.5" font-family="Helvetica,sans-Serif" font-size="10.00">services::RepeatingButton</text>
<text text-anchor="middle" x="902" y="-105.5" font-family="Helvetica,sans-Serif" font-size="10.00">::RepeatingButton</text>
</a>
</g>
</g>
<!-- Node358&#45;&gt;Node359 -->
<g id="edge39" class="edge"><title>Node358&#45;&gt;Node359</title>
<path fill="none" stroke="midnightblue" d="M788.506,-113.5C804.555,-113.5 821.384,-113.5 836.991,-113.5"/>
<polygon fill="midnightblue" stroke="midnightblue" points="788.093,-110 778.093,-113.5 788.093,-117 788.093,-110"/>
</g>
<!-- Node361 -->
<g id="node41" class="node"><title>Node361</title>
<g id="a_node41"><a xlink:href="../../da/dc4/classinfra_1_1_scalable_derived_timer_service.html#a30e873a4b4cf8cbacf09c1cddd55970b" target="_top" xlink:title="infra::ScalableDerivedTimer\lService::Scale">
<polygon fill="white" stroke="black" points="646,-49.5 646,-79.5 780,-79.5 780,-49.5 646,-49.5"/>
<text text-anchor="start" x="654" y="-67.5" font-family="Helvetica,sans-Serif" font-size="10.00">infra::ScalableDerivedTimer</text>
<text text-anchor="middle" x="713" y="-56.5" font-family="Helvetica,sans-Serif" font-size="10.00">Service::Scale</text>
</a>
</g>
</g>
<!-- Node360&#45;&gt;Node361 -->
<g id="edge41" class="edge"><title>Node360&#45;&gt;Node361</title>
<path fill="none" stroke="midnightblue" d="M600.498,-64.5C615.62,-64.5 631.27,-64.5 645.892,-64.5"/>
<polygon fill="midnightblue" stroke="midnightblue" points="600.131,-61.0001 590.131,-64.5 600.131,-68.0001 600.131,-61.0001"/>
</g>
<!-- Node362 -->
<g id="node42" class="node"><title>Node362</title>
<g id="a_node42"><a xlink:href="../../da/dc4/classinfra_1_1_scalable_derived_timer_service.html#a5e73baf089685fb705478e7ad5db4915" target="_top" xlink:title="infra::ScalableDerivedTimer\lService::Shift">
<polygon fill="white" stroke="black" points="646,-0.5 646,-30.5 780,-30.5 780,-0.5 646,-0.5"/>
<text text-anchor="start" x="654" y="-18.5" font-family="Helvetica,sans-Serif" font-size="10.00">infra::ScalableDerivedTimer</text>
<text text-anchor="middle" x="713" y="-7.5" font-family="Helvetica,sans-Serif" font-size="10.00">Service::Shift</text>
</a>
</g>
</g>
<!-- Node360&#45;&gt;Node362 -->
<g id="edge42" class="edge"><title>Node360&#45;&gt;Node362</title>
<path fill="none" stroke="midnightblue" d="M588.767,-46.9502C609.851,-41.5694 632.845,-35.701 653.2,-30.5062"/>
<polygon fill="midnightblue" stroke="midnightblue" points="587.735,-43.6012 578.911,-49.4654 589.466,-50.3838 587.735,-43.6012"/>
</g>
</g>
</svg>
