<?xml version="1.0" encoding="UTF-8" standalone="no"?>
<!DOCTYPE svg PUBLIC "-//W3C//DTD SVG 1.1//EN"
 "http://www.w3.org/Graphics/SVG/1.1/DTD/svg11.dtd">
<!-- Generated by graphviz version 2.38.0 (20140413.2041)
 -->
<!-- Title: infra::IntrusivePriorityQueue&lt; T, Compare &gt; Pages: 1 -->
<svg width="242pt" height="106pt"
 viewBox="0.00 0.00 242.00 106.00" xmlns="http://www.w3.org/2000/svg" xmlns:xlink="http://www.w3.org/1999/xlink">
<g id="graph0" class="graph" transform="scale(1 1) rotate(0) translate(4 102)">
<title>infra::IntrusivePriorityQueue&lt; T, Compare &gt;</title>
<polygon fill="white" stroke="none" points="-4,4 -4,-102 238,-102 238,4 -4,4"/>
<!-- Node1 -->
<g id="node1" class="node"><title>Node1</title>
<polygon fill="#bfbfbf" stroke="black" points="39.5,-0.5 39.5,-30.5 152.5,-30.5 152.5,-0.5 39.5,-0.5"/>
<text text-anchor="start" x="47.5" y="-18.5" font-family="Helvetica,sans-Serif" font-size="10.00">infra::IntrusivePriority</text>
<text text-anchor="middle" x="96" y="-7.5" font-family="Helvetica,sans-Serif" font-size="10.00">Queue&lt; T, Compare &gt;</text>
</g>
<!-- Node2 -->
<g id="node2" class="node"><title>Node2</title>
<polygon fill="white" stroke="#bfbfbf" points="0,-78.5 0,-97.5 56,-97.5 56,-78.5 0,-78.5"/>
<text text-anchor="middle" x="28" y="-85.5" font-family="Helvetica,sans-Serif" font-size="10.00">Compare</text>
</g>
<!-- Node2&#45;&gt;Node1 -->
<g id="edge1" class="edge"><title>Node2&#45;&gt;Node1</title>
<path fill="none" stroke="#9a32cd" stroke-dasharray="5,2" d="M36.712,-69.3698C40.5493,-62.5801 45.4512,-55.0188 51,-49 57.2709,-42.1981 65.1667,-35.9273 72.587,-30.7458"/>
<polygon fill="#9a32cd" stroke="#9a32cd" points="33.4683,-68.0175 31.9002,-78.4957 39.6603,-71.2824 33.4683,-68.0175"/>
<text text-anchor="middle" x="71.5" y="-52" font-family="Helvetica,sans-Serif" font-size="10.00"> compare</text>
</g>
<!-- Node3 -->
<g id="node3" class="node"><title>Node3</title>
<polygon fill="white" stroke="#bfbfbf" points="74.5,-78.5 74.5,-97.5 117.5,-97.5 117.5,-78.5 74.5,-78.5"/>
<text text-anchor="middle" x="96" y="-85.5" font-family="Helvetica,sans-Serif" font-size="10.00">size_t</text>
</g>
<!-- Node3&#45;&gt;Node1 -->
<g id="edge2" class="edge"><title>Node3&#45;&gt;Node1</title>
<path fill="none" stroke="#9a32cd" stroke-dasharray="5,2" d="M96,-68.2362C96,-56.4079 96,-41.3829 96,-30.5762"/>
<polygon fill="#9a32cd" stroke="#9a32cd" points="92.5001,-68.3553 96,-78.3553 99.5001,-68.3554 92.5001,-68.3553"/>
<text text-anchor="middle" x="139.5" y="-52" font-family="Helvetica,sans-Serif" font-size="10.00"> numberOfElements</text>
</g>
<!-- Node4 -->
<g id="node4" class="node"><title>Node4</title>
<polygon fill="white" stroke="#bfbfbf" points="191.5,-78.5 191.5,-97.5 220.5,-97.5 220.5,-78.5 191.5,-78.5"/>
<text text-anchor="middle" x="206" y="-85.5" font-family="Helvetica,sans-Serif" font-size="10.00">T</text>
</g>
<!-- Node4&#45;&gt;Node1 -->
<g id="edge3" class="edge"><title>Node4&#45;&gt;Node1</title>
<path fill="none" stroke="#9a32cd" stroke-dasharray="5,2" d="M198.708,-68.8031C195.152,-61.8247 190.268,-54.2786 184,-49 174.781,-41.2369 163.539,-35.2463 152.214,-30.652"/>
<polygon fill="#9a32cd" stroke="#9a32cd" points="195.681,-70.6066 202.975,-78.291 202.065,-67.7353 195.681,-70.6066"/>
<text text-anchor="middle" x="214" y="-52" font-family="Helvetica,sans-Serif" font-size="10.00"> topNode</text>
</g>
</g>
</svg>
