<?xml version="1.0" encoding="UTF-8" standalone="no"?>
<!DOCTYPE svg PUBLIC "-//W3C//DTD SVG 1.1//EN"
 "http://www.w3.org/Graphics/SVG/1.1/DTD/svg11.dtd">
<!-- Generated by graphviz version 2.38.0 (20140413.2041)
 -->
<!-- Title: application::ImageSigner::SignatureMethod Pages: 1 -->
<svg width="687pt" height="39pt"
 viewBox="0.00 0.00 687.00 39.00" xmlns="http://www.w3.org/2000/svg" xmlns:xlink="http://www.w3.org/1999/xlink">
<g id="graph0" class="graph" transform="scale(1 1) rotate(0) translate(4 35)">
<title>application::ImageSigner::SignatureMethod</title>
<polygon fill="white" stroke="none" points="-4,4 -4,-35 683,-35 683,4 -4,4"/>
<!-- Node20 -->
<g id="node1" class="node"><title>Node20</title>
<polygon fill="#bfbfbf" stroke="black" points="0,-0.5 0,-30.5 123,-30.5 123,-0.5 0,-0.5"/>
<text text-anchor="start" x="8" y="-18.5" font-family="Helvetica,sans-Serif" font-size="10.00">application::ImageSigner</text>
<text text-anchor="middle" x="61.5" y="-7.5" font-family="Helvetica,sans-Serif" font-size="10.00">::SignatureMethod</text>
</g>
<!-- Node21 -->
<g id="node2" class="node"><title>Node21</title>
<g id="a_node2"><a xlink:href="../../db/dab/classapplication_1_1_upgrade_pack_builder.html#a1b80aa84f448859013555a9d77e030fc" target="_top" xlink:title="application::UpgradePack\lBuilder::AddPrologueAndSignature">
<polygon fill="white" stroke="black" points="159,-0.5 159,-30.5 326,-30.5 326,-0.5 159,-0.5"/>
<text text-anchor="start" x="167" y="-18.5" font-family="Helvetica,sans-Serif" font-size="10.00">application::UpgradePack</text>
<text text-anchor="middle" x="242.5" y="-7.5" font-family="Helvetica,sans-Serif" font-size="10.00">Builder::AddPrologueAndSignature</text>
</a>
</g>
</g>
<!-- Node20&#45;&gt;Node21 -->
<g id="edge1" class="edge"><title>Node20&#45;&gt;Node21</title>
<path fill="none" stroke="midnightblue" d="M133.197,-15.5C141.584,-15.5 150.202,-15.5 158.738,-15.5"/>
<polygon fill="midnightblue" stroke="midnightblue" points="133.101,-12.0001 123.101,-15.5 133.101,-19.0001 133.101,-12.0001"/>
</g>
<!-- Node22 -->
<g id="node3" class="node"><title>Node22</title>
<g id="a_node3"><a xlink:href="../../db/dab/classapplication_1_1_upgrade_pack_builder.html#af2b0b0df0753894f42d41294a2f47e78" target="_top" xlink:title="application::UpgradePack\lBuilder::CreateUpgradePack">
<polygon fill="white" stroke="black" points="362,-0.5 362,-30.5 502,-30.5 502,-0.5 362,-0.5"/>
<text text-anchor="start" x="370" y="-18.5" font-family="Helvetica,sans-Serif" font-size="10.00">application::UpgradePack</text>
<text text-anchor="middle" x="432" y="-7.5" font-family="Helvetica,sans-Serif" font-size="10.00">Builder::CreateUpgradePack</text>
</a>
</g>
</g>
<!-- Node21&#45;&gt;Node22 -->
<g id="edge2" class="edge"><title>Node21&#45;&gt;Node22</title>
<path fill="none" stroke="midnightblue" d="M336.168,-15.5C344.838,-15.5 353.521,-15.5 361.919,-15.5"/>
<polygon fill="midnightblue" stroke="midnightblue" points="336.013,-12.0001 326.013,-15.5 336.013,-19.0001 336.013,-12.0001"/>
</g>
<!-- Node23 -->
<g id="node4" class="node"><title>Node23</title>
<g id="a_node4"><a xlink:href="../../db/dab/classapplication_1_1_upgrade_pack_builder.html#a6318c52ba63f7022d709a546764cf453" target="_top" xlink:title="application::UpgradePack\lBuilder::UpgradePackBuilder">
<polygon fill="white" stroke="black" points="538,-0.5 538,-30.5 679,-30.5 679,-0.5 538,-0.5"/>
<text text-anchor="start" x="546" y="-18.5" font-family="Helvetica,sans-Serif" font-size="10.00">application::UpgradePack</text>
<text text-anchor="middle" x="608.5" y="-7.5" font-family="Helvetica,sans-Serif" font-size="10.00">Builder::UpgradePackBuilder</text>
</a>
</g>
</g>
<!-- Node22&#45;&gt;Node23 -->
<g id="edge3" class="edge"><title>Node22&#45;&gt;Node23</title>
<path fill="none" stroke="midnightblue" d="M512.459,-15.5C520.913,-15.5 529.465,-15.5 537.795,-15.5"/>
<polygon fill="midnightblue" stroke="midnightblue" points="512.218,-12.0001 502.218,-15.5 512.218,-19.0001 512.218,-12.0001"/>
</g>
</g>
</svg>
