<?xml version="1.0" encoding="UTF-8" standalone="no"?>
<!DOCTYPE svg PUBLIC "-//W3C//DTD SVG 1.1//EN"
 "http://www.w3.org/Graphics/SVG/1.1/DTD/svg11.dtd">
<!-- Generated by graphviz version 2.38.0 (20140413.2041)
 -->
<!-- Title: infra::JsonIterator::ConvertValue Pages: 1 -->
<svg width="907pt" height="604pt"
 viewBox="0.00 0.00 907.00 604.27" xmlns="http://www.w3.org/2000/svg" xmlns:xlink="http://www.w3.org/1999/xlink">
<g id="graph0" class="graph" transform="scale(1 1) rotate(0) translate(4 600.274)">
<title>infra::JsonIterator::ConvertValue</title>
<polygon fill="white" stroke="none" points="-4,4 -4,-600.274 903,-600.274 903,4 -4,4"/>
<!-- Node2 -->
<g id="node1" class="node"><title>Node2</title>
<polygon fill="#bfbfbf" stroke="black" points="0,-173.5 0,-203.5 91,-203.5 91,-173.5 0,-173.5"/>
<text text-anchor="start" x="8" y="-191.5" font-family="Helvetica,sans-Serif" font-size="10.00">infra::JsonIterator</text>
<text text-anchor="middle" x="45.5" y="-180.5" font-family="Helvetica,sans-Serif" font-size="10.00">::ConvertValue</text>
</g>
<!-- Node3 -->
<g id="node2" class="node"><title>Node3</title>
<g id="a_node2"><a xlink:href="../../da/d2a/classinfra_1_1_variant.html#a5c22ee95a815d91911bf3ce196c852a0" target="_top" xlink:title="infra::Variant::Get">
<polygon fill="white" stroke="black" points="475,-264 475,-283 568,-283 568,-264 475,-264"/>
<text text-anchor="middle" x="521.5" y="-271" font-family="Helvetica,sans-Serif" font-size="10.00">infra::Variant::Get</text>
</a>
</g>
</g>
<!-- Node2&#45;&gt;Node3 -->
<g id="edge1" class="edge"><title>Node2&#45;&gt;Node3</title>
<path fill="none" stroke="midnightblue" d="M91.296,-177.934C165.697,-162.647 318.031,-141.057 434,-188.5 466.952,-201.981 494.114,-234.74 508.757,-255.427"/>
<polygon fill="midnightblue" stroke="midnightblue" points="506.055,-257.678 514.579,-263.969 511.839,-253.735 506.055,-257.678"/>
</g>
<!-- Node4 -->
<g id="node3" class="node"><title>Node4</title>
<g id="a_node3"><a xlink:href="../../da/d2a/classinfra_1_1_variant.html#a6d0669e4f430569c9019345cfab21a8e" target="_top" xlink:title="infra::Variant::Is">
<polygon fill="white" stroke="black" points="479,-384 479,-403 564,-403 564,-384 479,-384"/>
<text text-anchor="middle" x="521.5" y="-391" font-family="Helvetica,sans-Serif" font-size="10.00">infra::Variant::Is</text>
</a>
</g>
</g>
<!-- Node2&#45;&gt;Node4 -->
<g id="edge2" class="edge"><title>Node2&#45;&gt;Node4</title>
<path fill="none" stroke="midnightblue" d="M65.4906,-203.72C81.2856,-215.874 104.708,-232.756 127,-244.5 248.291,-308.401 403.225,-358.688 477.289,-380.979"/>
<polygon fill="midnightblue" stroke="midnightblue" points="476.608,-384.429 487.192,-383.937 478.612,-377.721 476.608,-384.429"/>
</g>
<!-- Node5 -->
<g id="node4" class="node"><title>Node5</title>
<g id="a_node4"><a xlink:href="../../d0/de3/namespaceinfra.html#a0ec8c0f8585063ab97f13228d4888974" target="_top" xlink:title="infra::MakeOptional">
<polygon fill="white" stroke="black" points="471,-477 471,-496 572,-496 572,-477 471,-477"/>
<text text-anchor="middle" x="521.5" y="-484" font-family="Helvetica,sans-Serif" font-size="10.00">infra::MakeOptional</text>
</a>
</g>
</g>
<!-- Node2&#45;&gt;Node5 -->
<g id="edge3" class="edge"><title>Node2&#45;&gt;Node5</title>
<path fill="none" stroke="midnightblue" d="M48.2603,-203.523C53.7023,-244.892 73.253,-362.692 127,-442.5 179.894,-521.04 201.926,-546.372 291,-578.5 350.785,-600.064 375.664,-603.723 434,-578.5 468.687,-563.502 495.88,-526.99 509.944,-504.736"/>
<polygon fill="midnightblue" stroke="midnightblue" points="512.944,-506.539 515.151,-496.176 506.964,-502.901 512.944,-506.539"/>
</g>
<!-- Node6 -->
<g id="node5" class="node"><title>Node6</title>
<g id="a_node5"><a xlink:href="../../df/dd0/classinfra_1_1_json_iterator.html#a5cbc18726700531f5f5e28ccca321d87" target="_top" xlink:title="infra::JsonIterator\l::ReadArrayValue">
<polygon fill="white" stroke="black" points="144.5,-205.5 144.5,-235.5 237.5,-235.5 237.5,-205.5 144.5,-205.5"/>
<text text-anchor="start" x="152.5" y="-223.5" font-family="Helvetica,sans-Serif" font-size="10.00">infra::JsonIterator</text>
<text text-anchor="middle" x="191" y="-212.5" font-family="Helvetica,sans-Serif" font-size="10.00">::ReadArrayValue</text>
</a>
</g>
</g>
<!-- Node2&#45;&gt;Node6 -->
<g id="edge4" class="edge"><title>Node2&#45;&gt;Node6</title>
<path fill="none" stroke="midnightblue" d="M91.1177,-198.45C104.888,-201.52 120.223,-204.94 134.627,-208.152"/>
<polygon fill="midnightblue" stroke="midnightblue" points="133.898,-211.575 144.42,-210.336 135.422,-204.743 133.898,-211.575"/>
</g>
<!-- Node16 -->
<g id="node15" class="node"><title>Node16</title>
<g id="a_node15"><a xlink:href="../../df/dd0/classinfra_1_1_json_iterator.html#a95bf1b7210594ae3d6a4615f1815b7ec" target="_top" xlink:title="infra::JsonIterator\l::ReadObjectValue">
<polygon fill="white" stroke="black" points="142,-403.5 142,-433.5 240,-433.5 240,-403.5 142,-403.5"/>
<text text-anchor="start" x="150" y="-421.5" font-family="Helvetica,sans-Serif" font-size="10.00">infra::JsonIterator</text>
<text text-anchor="middle" x="191" y="-410.5" font-family="Helvetica,sans-Serif" font-size="10.00">::ReadObjectValue</text>
</a>
</g>
</g>
<!-- Node2&#45;&gt;Node16 -->
<g id="edge26" class="edge"><title>Node2&#45;&gt;Node16</title>
<path fill="none" stroke="midnightblue" d="M51.0694,-203.694C61.1431,-235.55 87.5444,-310.74 127,-363.5 136.306,-375.944 148.842,-387.596 160.281,-396.943"/>
<polygon fill="midnightblue" stroke="midnightblue" points="158.337,-399.868 168.354,-403.32 162.676,-394.375 158.337,-399.868"/>
</g>
<!-- Node19 -->
<g id="node18" class="node"><title>Node19</title>
<g id="a_node18"><a xlink:href="../../d7/d8e/classinfra_1_1_json_token_1_1_string.html#aea92d0c88471555f3ddbb7facdf2d2a0" target="_top" xlink:title="infra::JsonToken::String\l::Value">
<polygon fill="white" stroke="black" points="131.5,-98.5 131.5,-128.5 250.5,-128.5 250.5,-98.5 131.5,-98.5"/>
<text text-anchor="start" x="139.5" y="-116.5" font-family="Helvetica,sans-Serif" font-size="10.00">infra::JsonToken::String</text>
<text text-anchor="middle" x="191" y="-105.5" font-family="Helvetica,sans-Serif" font-size="10.00">::Value</text>
</a>
</g>
</g>
<!-- Node2&#45;&gt;Node19 -->
<g id="edge36" class="edge"><title>Node2&#45;&gt;Node19</title>
<path fill="none" stroke="midnightblue" d="M72.369,-173.473C88.0398,-164.513 108.51,-153.058 127,-143.5 133.733,-140.02 140.937,-136.449 147.981,-133.04"/>
<polygon fill="midnightblue" stroke="midnightblue" points="149.921,-135.991 157.427,-128.514 146.896,-129.678 149.921,-135.991"/>
</g>
<!-- Node20 -->
<g id="node19" class="node"><title>Node20</title>
<g id="a_node19"><a xlink:href="../../d2/d84/classinfra_1_1_json_token_1_1_integer.html#a97f8d96410727e87e9f8ffc53b3dc13d" target="_top" xlink:title="infra::JsonToken::Integer\l::Value">
<polygon fill="white" stroke="black" points="130,-49.5 130,-79.5 252,-79.5 252,-49.5 130,-49.5"/>
<text text-anchor="start" x="138" y="-67.5" font-family="Helvetica,sans-Serif" font-size="10.00">infra::JsonToken::Integer</text>
<text text-anchor="middle" x="191" y="-56.5" font-family="Helvetica,sans-Serif" font-size="10.00">::Value</text>
</a>
</g>
</g>
<!-- Node2&#45;&gt;Node20 -->
<g id="edge37" class="edge"><title>Node2&#45;&gt;Node20</title>
<path fill="none" stroke="midnightblue" d="M55.2087,-173.167C68.2299,-151.5 94.7289,-111.955 127,-88.5 128.885,-87.1302 130.857,-85.8283 132.892,-84.592"/>
<polygon fill="midnightblue" stroke="midnightblue" points="135.013,-87.4241 142.14,-79.585 131.68,-81.2684 135.013,-87.4241"/>
</g>
<!-- Node21 -->
<g id="node20" class="node"><title>Node21</title>
<g id="a_node20"><a xlink:href="../../db/d82/classinfra_1_1_json_token_1_1_boolean.html#a760328927920e1bd169d852c5f0e61dc" target="_top" xlink:title="infra::JsonToken::Boolean\l::Value">
<polygon fill="white" stroke="black" points="127,-0.5 127,-30.5 255,-30.5 255,-0.5 127,-0.5"/>
<text text-anchor="start" x="135" y="-18.5" font-family="Helvetica,sans-Serif" font-size="10.00">infra::JsonToken::Boolean</text>
<text text-anchor="middle" x="191" y="-7.5" font-family="Helvetica,sans-Serif" font-size="10.00">::Value</text>
</a>
</g>
</g>
<!-- Node2&#45;&gt;Node21 -->
<g id="edge38" class="edge"><title>Node2&#45;&gt;Node21</title>
<path fill="none" stroke="midnightblue" d="M50.8303,-173.131C59.9939,-143.28 84.1065,-77.0991 127,-39.5 128.331,-38.3331 129.725,-37.2203 131.169,-36.1593"/>
<polygon fill="midnightblue" stroke="midnightblue" points="133.329,-38.9349 139.911,-30.6327 129.588,-33.0182 133.329,-38.9349"/>
</g>
<!-- Node6&#45;&gt;Node3 -->
<g id="edge24" class="edge"><title>Node6&#45;&gt;Node3</title>
<path fill="none" stroke="midnightblue" d="M237.592,-207.06C287.343,-194.75 368.625,-181.619 434,-204.5 463.138,-214.698 489.78,-239.283 505.578,-256.174"/>
<polygon fill="midnightblue" stroke="midnightblue" points="503.123,-258.678 512.425,-263.75 508.317,-253.984 503.123,-258.678"/>
</g>
<!-- Node6&#45;&gt;Node5 -->
<g id="edge22" class="edge"><title>Node6&#45;&gt;Node5</title>
<path fill="none" stroke="midnightblue" d="M197.628,-235.733C217.104,-288.269 280.989,-459.084 291,-466.5 339.557,-502.469 410.74,-502.947 460.928,-497.298"/>
<polygon fill="midnightblue" stroke="midnightblue" points="461.493,-500.755 470.987,-496.053 460.633,-493.808 461.493,-500.755"/>
</g>
<!-- Node7 -->
<g id="node6" class="node"><title>Node7</title>
<g id="a_node6"><a xlink:href="../../df/dd0/classinfra_1_1_json_iterator.html#ae3b34ea711511b26a00f08c17f53ecc1" target="_top" xlink:title="infra::JsonIterator\l::SearchArrayEnd">
<polygon fill="white" stroke="black" points="315.5,-378.5 315.5,-408.5 409.5,-408.5 409.5,-378.5 315.5,-378.5"/>
<text text-anchor="start" x="323.5" y="-396.5" font-family="Helvetica,sans-Serif" font-size="10.00">infra::JsonIterator</text>
<text text-anchor="middle" x="362.5" y="-385.5" font-family="Helvetica,sans-Serif" font-size="10.00">::SearchArrayEnd</text>
</a>
</g>
</g>
<!-- Node6&#45;&gt;Node7 -->
<g id="edge5" class="edge"><title>Node6&#45;&gt;Node7</title>
<path fill="none" stroke="midnightblue" d="M206.745,-235.55C236.548,-265.968 304.099,-334.914 339.273,-370.814"/>
<polygon fill="midnightblue" stroke="midnightblue" points="337.169,-373.668 346.668,-378.362 342.169,-368.769 337.169,-373.668"/>
</g>
<!-- Node12 -->
<g id="node11" class="node"><title>Node12</title>
<g id="a_node11"><a xlink:href="../../d1/d2a/classinfra_1_1_bounded_string_base.html#a46ec1a3a673136ace03af8c6ec94aa89" target="_top" xlink:title="infra::BoundedStringBase\l::substr">
<polygon fill="white" stroke="black" points="772,-340.5 772,-370.5 899,-370.5 899,-340.5 772,-340.5"/>
<text text-anchor="start" x="780" y="-358.5" font-family="Helvetica,sans-Serif" font-size="10.00">infra::BoundedStringBase</text>
<text text-anchor="middle" x="835.5" y="-347.5" font-family="Helvetica,sans-Serif" font-size="10.00">::substr</text>
</a>
</g>
</g>
<!-- Node6&#45;&gt;Node12 -->
<g id="edge23" class="edge"><title>Node6&#45;&gt;Node12</title>
<path fill="none" stroke="midnightblue" d="M229.401,-205.353C247.651,-198.757 270.124,-191.79 291,-188.5 353.781,-178.606 371.68,-176.027 434,-188.5 576.512,-217.022 731.684,-297.4 799.497,-335.277"/>
<polygon fill="midnightblue" stroke="midnightblue" points="798.044,-338.475 808.475,-340.329 801.477,-332.375 798.044,-338.475"/>
</g>
<!-- Node15 -->
<g id="node14" class="node"><title>Node15</title>
<g id="a_node14"><a xlink:href="../../dd/db4/classinfra_1_1_json_token_1_1_left_bracket.html#ad5be8717da6da142903e2e6576c5f75e" target="_top" xlink:title="infra::JsonToken::LeftBracket\l::Index">
<polygon fill="white" stroke="black" points="291,-214.5 291,-244.5 434,-244.5 434,-214.5 291,-214.5"/>
<text text-anchor="start" x="299" y="-232.5" font-family="Helvetica,sans-Serif" font-size="10.00">infra::JsonToken::LeftBracket</text>
<text text-anchor="middle" x="362.5" y="-221.5" font-family="Helvetica,sans-Serif" font-size="10.00">::Index</text>
</a>
</g>
</g>
<!-- Node6&#45;&gt;Node15 -->
<g id="edge25" class="edge"><title>Node6&#45;&gt;Node15</title>
<path fill="none" stroke="midnightblue" d="M237.869,-222.936C251.093,-223.638 265.929,-224.425 280.61,-225.205"/>
<polygon fill="midnightblue" stroke="midnightblue" points="280.556,-228.707 290.727,-225.742 280.927,-221.717 280.556,-228.707"/>
</g>
<!-- Node7&#45;&gt;Node3 -->
<g id="edge21" class="edge"><title>Node7&#45;&gt;Node3</title>
<path fill="none" stroke="midnightblue" d="M383.384,-378.302C413.274,-355.456 469.504,-312.478 499.842,-289.29"/>
<polygon fill="midnightblue" stroke="midnightblue" points="502.199,-291.893 508.018,-283.04 497.948,-286.332 502.199,-291.893"/>
</g>
<!-- Node7&#45;&gt;Node4 -->
<g id="edge19" class="edge"><title>Node7&#45;&gt;Node4</title>
<path fill="none" stroke="midnightblue" d="M409.756,-393.5C428.311,-393.5 449.774,-393.5 468.837,-393.5"/>
<polygon fill="midnightblue" stroke="midnightblue" points="468.852,-397 478.852,-393.5 468.852,-390 468.852,-397"/>
</g>
<!-- Node7&#45;&gt;Node5 -->
<g id="edge20" class="edge"><title>Node7&#45;&gt;Node5</title>
<path fill="none" stroke="midnightblue" d="M409.51,-404.623C418.123,-407.929 426.701,-412.149 434,-417.5 455.794,-433.478 448.604,-449.993 470,-466.5 472.81,-468.668 475.886,-470.631 479.088,-472.402"/>
<polygon fill="midnightblue" stroke="midnightblue" points="477.809,-475.672 488.332,-476.898 480.87,-469.377 477.809,-475.672"/>
</g>
<!-- Node8 -->
<g id="node7" class="node"><title>Node8</title>
<g id="a_node7"><a xlink:href="../../d3/d5c/classinfra_1_1_json_tokenizer.html#a02d850fd493943206196aff4c975aac5" target="_top" xlink:title="infra::JsonTokenizer\l::Token">
<polygon fill="white" stroke="black" points="470,-427.5 470,-457.5 573,-457.5 573,-427.5 470,-427.5"/>
<text text-anchor="start" x="478" y="-445.5" font-family="Helvetica,sans-Serif" font-size="10.00">infra::JsonTokenizer</text>
<text text-anchor="middle" x="521.5" y="-434.5" font-family="Helvetica,sans-Serif" font-size="10.00">::Token</text>
</a>
</g>
</g>
<!-- Node7&#45;&gt;Node8 -->
<g id="edge6" class="edge"><title>Node7&#45;&gt;Node8</title>
<path fill="none" stroke="midnightblue" d="M409.756,-407.937C426.239,-413.081 445.018,-418.942 462.371,-424.358"/>
<polygon fill="midnightblue" stroke="midnightblue" points="461.806,-427.848 472.395,-427.486 463.892,-421.166 461.806,-427.848"/>
</g>
<!-- Node9 -->
<g id="node8" class="node"><title>Node9</title>
<g id="a_node8"><a xlink:href="../../d3/d5c/classinfra_1_1_json_tokenizer.html#acfe1cf5bc676fd35b038e1b604756165" target="_top" xlink:title="infra::JsonTokenizer\l::SkipWhitespace">
<polygon fill="white" stroke="black" points="621,-487.5 621,-517.5 724,-517.5 724,-487.5 621,-487.5"/>
<text text-anchor="start" x="629" y="-505.5" font-family="Helvetica,sans-Serif" font-size="10.00">infra::JsonTokenizer</text>
<text text-anchor="middle" x="672.5" y="-494.5" font-family="Helvetica,sans-Serif" font-size="10.00">::SkipWhitespace</text>
</a>
</g>
</g>
<!-- Node8&#45;&gt;Node9 -->
<g id="edge7" class="edge"><title>Node8&#45;&gt;Node9</title>
<path fill="none" stroke="midnightblue" d="M558.181,-457.611C573.747,-464.136 592.236,-471.794 609,-478.5 613.243,-480.197 617.656,-481.939 622.088,-483.672"/>
<polygon fill="midnightblue" stroke="midnightblue" points="621.171,-487.07 631.76,-487.43 623.706,-480.546 621.171,-487.07"/>
</g>
<!-- Node10 -->
<g id="node9" class="node"><title>Node10</title>
<g id="a_node9"><a xlink:href="../../d1/d2a/classinfra_1_1_bounded_string_base.html#aab36b8eaee21d6ab3be734e07f499382" target="_top" xlink:title="infra::BoundedStringBase\l::size">
<polygon fill="white" stroke="black" points="772,-438.5 772,-468.5 899,-468.5 899,-438.5 772,-438.5"/>
<text text-anchor="start" x="780" y="-456.5" font-family="Helvetica,sans-Serif" font-size="10.00">infra::BoundedStringBase</text>
<text text-anchor="middle" x="835.5" y="-445.5" font-family="Helvetica,sans-Serif" font-size="10.00">::size</text>
</a>
</g>
</g>
<!-- Node8&#45;&gt;Node10 -->
<g id="edge9" class="edge"><title>Node8&#45;&gt;Node10</title>
<path fill="none" stroke="midnightblue" d="M559.434,-457.633C564.291,-460.5 568.973,-463.786 573,-467.5 595.859,-488.584 581.938,-512.178 609,-527.5 658.118,-555.31 682.459,-545.371 736,-527.5 766.357,-517.367 794.877,-493.8 813.337,-475.964"/>
<polygon fill="midnightblue" stroke="midnightblue" points="815.989,-478.262 820.608,-468.727 811.051,-473.301 815.989,-478.262"/>
</g>
<!-- Node11 -->
<g id="node10" class="node"><title>Node11</title>
<g id="a_node10"><a xlink:href="../../d3/d5c/classinfra_1_1_json_tokenizer.html#a6b99af199f5f080d408375a0f23ac32c" target="_top" xlink:title="infra::JsonTokenizer\l::TryCreateStringToken">
<polygon fill="white" stroke="black" points="614.5,-438.5 614.5,-468.5 730.5,-468.5 730.5,-438.5 614.5,-438.5"/>
<text text-anchor="start" x="622.5" y="-456.5" font-family="Helvetica,sans-Serif" font-size="10.00">infra::JsonTokenizer</text>
<text text-anchor="middle" x="672.5" y="-445.5" font-family="Helvetica,sans-Serif" font-size="10.00">::TryCreateStringToken</text>
</a>
</g>
</g>
<!-- Node8&#45;&gt;Node11 -->
<g id="edge10" class="edge"><title>Node8&#45;&gt;Node11</title>
<path fill="none" stroke="midnightblue" d="M573.361,-446.255C583.288,-446.988 593.839,-447.767 604.203,-448.532"/>
<polygon fill="midnightblue" stroke="midnightblue" points="604.244,-452.044 614.474,-449.29 604.759,-445.063 604.244,-452.044"/>
</g>
<!-- Node13 -->
<g id="node12" class="node"><title>Node13</title>
<g id="a_node12"><a xlink:href="../../d3/d5c/classinfra_1_1_json_tokenizer.html#a4203f4a0d1a65b20672053d7a4e5b8be" target="_top" xlink:title="infra::JsonTokenizer\l::TryCreateIntegerToken">
<polygon fill="white" stroke="black" points="612.5,-389.5 612.5,-419.5 732.5,-419.5 732.5,-389.5 612.5,-389.5"/>
<text text-anchor="start" x="620.5" y="-407.5" font-family="Helvetica,sans-Serif" font-size="10.00">infra::JsonTokenizer</text>
<text text-anchor="middle" x="672.5" y="-396.5" font-family="Helvetica,sans-Serif" font-size="10.00">::TryCreateIntegerToken</text>
</a>
</g>
</g>
<!-- Node8&#45;&gt;Node13 -->
<g id="edge13" class="edge"><title>Node8&#45;&gt;Node13</title>
<path fill="none" stroke="midnightblue" d="M573.361,-429.529C582.845,-427.11 592.899,-424.546 602.816,-422.017"/>
<polygon fill="midnightblue" stroke="midnightblue" points="603.835,-425.369 612.66,-419.506 602.105,-418.586 603.835,-425.369"/>
</g>
<!-- Node14 -->
<g id="node13" class="node"><title>Node14</title>
<g id="a_node13"><a xlink:href="../../d3/d5c/classinfra_1_1_json_tokenizer.html#a7fde4788359094c8ac575d0aea08a33b" target="_top" xlink:title="infra::JsonTokenizer\l::TryCreateIdentifierToken">
<polygon fill="white" stroke="black" points="609,-340.5 609,-370.5 736,-370.5 736,-340.5 609,-340.5"/>
<text text-anchor="start" x="617" y="-358.5" font-family="Helvetica,sans-Serif" font-size="10.00">infra::JsonTokenizer</text>
<text text-anchor="middle" x="672.5" y="-347.5" font-family="Helvetica,sans-Serif" font-size="10.00">::TryCreateIdentifierToken</text>
</a>
</g>
</g>
<!-- Node8&#45;&gt;Node14 -->
<g id="edge16" class="edge"><title>Node8&#45;&gt;Node14</title>
<path fill="none" stroke="midnightblue" d="M550.156,-427.457C557.765,-422.951 565.878,-417.791 573,-412.5 590.423,-399.555 590.545,-390.924 609,-379.5 611.585,-377.9 614.294,-376.376 617.075,-374.93"/>
<polygon fill="midnightblue" stroke="midnightblue" points="618.64,-378.061 626.138,-370.576 615.608,-371.752 618.64,-378.061"/>
</g>
<!-- Node9&#45;&gt;Node10 -->
<g id="edge8" class="edge"><title>Node9&#45;&gt;Node10</title>
<path fill="none" stroke="midnightblue" d="M723.119,-487.399C739.57,-482.392 758.049,-476.768 775.157,-471.561"/>
<polygon fill="midnightblue" stroke="midnightblue" points="776.497,-474.812 785.045,-468.552 774.459,-468.115 776.497,-474.812"/>
</g>
<!-- Node11&#45;&gt;Node10 -->
<g id="edge11" class="edge"><title>Node11&#45;&gt;Node10</title>
<path fill="none" stroke="midnightblue" d="M730.716,-453.5C740.681,-453.5 751.166,-453.5 761.486,-453.5"/>
<polygon fill="midnightblue" stroke="midnightblue" points="761.726,-457 771.726,-453.5 761.725,-450 761.726,-457"/>
</g>
<!-- Node11&#45;&gt;Node12 -->
<g id="edge12" class="edge"><title>Node11&#45;&gt;Node12</title>
<path fill="none" stroke="midnightblue" d="M715.546,-438.416C722.522,-435.425 729.571,-432.089 736,-428.5 762.389,-413.769 789.806,-392.922 808.993,-377.275"/>
<polygon fill="midnightblue" stroke="midnightblue" points="811.462,-379.775 816.941,-370.707 807.003,-374.379 811.462,-379.775"/>
</g>
<!-- Node13&#45;&gt;Node10 -->
<g id="edge14" class="edge"><title>Node13&#45;&gt;Node10</title>
<path fill="none" stroke="midnightblue" d="M723.119,-419.601C739.57,-424.608 758.049,-430.232 775.157,-435.439"/>
<polygon fill="midnightblue" stroke="midnightblue" points="774.459,-438.885 785.045,-438.448 776.497,-432.188 774.459,-438.885"/>
</g>
<!-- Node13&#45;&gt;Node12 -->
<g id="edge15" class="edge"><title>Node13&#45;&gt;Node12</title>
<path fill="none" stroke="midnightblue" d="M723.119,-389.399C739.57,-384.392 758.049,-378.768 775.157,-373.561"/>
<polygon fill="midnightblue" stroke="midnightblue" points="776.497,-376.812 785.045,-370.552 774.459,-370.115 776.497,-376.812"/>
</g>
<!-- Node14&#45;&gt;Node10 -->
<g id="edge17" class="edge"><title>Node14&#45;&gt;Node10</title>
<path fill="none" stroke="midnightblue" d="M717.244,-370.504C723.668,-373.218 730.102,-376.236 736,-379.5 762.855,-394.362 790.553,-415.814 809.711,-431.798"/>
<polygon fill="midnightblue" stroke="midnightblue" points="807.476,-434.492 817.371,-438.279 811.997,-429.148 807.476,-434.492"/>
</g>
<!-- Node14&#45;&gt;Node12 -->
<g id="edge18" class="edge"><title>Node14&#45;&gt;Node12</title>
<path fill="none" stroke="midnightblue" d="M736.208,-355.5C744.648,-355.5 753.363,-355.5 761.956,-355.5"/>
<polygon fill="midnightblue" stroke="midnightblue" points="761.963,-359 771.963,-355.5 761.963,-352 761.963,-359"/>
</g>
<!-- Node16&#45;&gt;Node3 -->
<g id="edge34" class="edge"><title>Node16&#45;&gt;Node3</title>
<path fill="none" stroke="midnightblue" d="M199.297,-403.401C213.063,-376.775 245.611,-321.981 291,-297.5 344.821,-268.472 416.053,-265.527 464.798,-267.882"/>
<polygon fill="midnightblue" stroke="midnightblue" points="464.66,-271.38 474.844,-268.457 465.06,-264.391 464.66,-271.38"/>
</g>
<!-- Node16&#45;&gt;Node5 -->
<g id="edge32" class="edge"><title>Node16&#45;&gt;Node5</title>
<path fill="none" stroke="midnightblue" d="M197.505,-433.693C209.277,-463.599 240.048,-529.456 291,-555.5 347.591,-584.426 374.012,-576.495 434,-555.5 463.138,-545.302 489.78,-520.717 505.578,-503.826"/>
<polygon fill="midnightblue" stroke="midnightblue" points="508.317,-506.016 512.425,-496.25 503.123,-501.322 508.317,-506.016"/>
</g>
<!-- Node16&#45;&gt;Node12 -->
<g id="edge33" class="edge"><title>Node16&#45;&gt;Node12</title>
<path fill="none" stroke="midnightblue" d="M215.823,-403.476C235.283,-391.955 263.904,-376.684 291,-368.5 481.02,-311.111 539.033,-305.894 736,-330.5 748.974,-332.121 762.691,-334.898 775.634,-338.027"/>
<polygon fill="midnightblue" stroke="midnightblue" points="774.803,-341.427 785.355,-340.475 776.512,-334.639 774.803,-341.427"/>
</g>
<!-- Node17 -->
<g id="node16" class="node"><title>Node17</title>
<g id="a_node16"><a xlink:href="../../df/dd0/classinfra_1_1_json_iterator.html#a7fa7a63543c9f03f7010952d42a9cfef" target="_top" xlink:title="infra::JsonIterator\l::SearchObjectEnd">
<polygon fill="white" stroke="black" points="313,-427.5 313,-457.5 412,-457.5 412,-427.5 313,-427.5"/>
<text text-anchor="start" x="321" y="-445.5" font-family="Helvetica,sans-Serif" font-size="10.00">infra::JsonIterator</text>
<text text-anchor="middle" x="362.5" y="-434.5" font-family="Helvetica,sans-Serif" font-size="10.00">::SearchObjectEnd</text>
</a>
</g>
</g>
<!-- Node16&#45;&gt;Node17 -->
<g id="edge27" class="edge"><title>Node16&#45;&gt;Node17</title>
<path fill="none" stroke="midnightblue" d="M240.119,-425.313C259.627,-428.076 282.343,-431.292 302.811,-434.19"/>
<polygon fill="midnightblue" stroke="midnightblue" points="302.575,-437.691 312.967,-435.628 303.557,-430.761 302.575,-437.691"/>
</g>
<!-- Node18 -->
<g id="node17" class="node"><title>Node18</title>
<g id="a_node17"><a xlink:href="../../da/d9b/classinfra_1_1_json_token_1_1_left_brace.html#a225ac8062d80f91b1305ad9c051263a3" target="_top" xlink:title="infra::JsonToken::LeftBrace\l::Index">
<polygon fill="white" stroke="black" points="295.5,-515.5 295.5,-545.5 429.5,-545.5 429.5,-515.5 295.5,-515.5"/>
<text text-anchor="start" x="303.5" y="-533.5" font-family="Helvetica,sans-Serif" font-size="10.00">infra::JsonToken::LeftBrace</text>
<text text-anchor="middle" x="362.5" y="-522.5" font-family="Helvetica,sans-Serif" font-size="10.00">::Index</text>
</a>
</g>
</g>
<!-- Node16&#45;&gt;Node18 -->
<g id="edge35" class="edge"><title>Node16&#45;&gt;Node18</title>
<path fill="none" stroke="midnightblue" d="M207.369,-433.677C225.961,-451.429 258.787,-480.881 291,-500.5 297.326,-504.353 304.236,-507.949 311.177,-511.218"/>
<polygon fill="midnightblue" stroke="midnightblue" points="310.053,-514.551 320.608,-515.466 312.928,-508.168 310.053,-514.551"/>
</g>
<!-- Node17&#45;&gt;Node3 -->
<g id="edge31" class="edge"><title>Node17&#45;&gt;Node3</title>
<path fill="none" stroke="midnightblue" d="M412.126,-430.283C419.942,-426.953 427.565,-422.76 434,-417.5 455.783,-399.692 493.87,-326.922 511.309,-292.16"/>
<polygon fill="midnightblue" stroke="midnightblue" points="514.512,-293.578 515.834,-283.065 508.245,-290.459 514.512,-293.578"/>
</g>
<!-- Node17&#45;&gt;Node4 -->
<g id="edge29" class="edge"><title>Node17&#45;&gt;Node4</title>
<path fill="none" stroke="midnightblue" d="M411.886,-427.399C433.721,-420.584 459.22,-412.626 480.022,-406.133"/>
<polygon fill="midnightblue" stroke="midnightblue" points="481.317,-409.396 489.82,-403.075 479.231,-402.714 481.317,-409.396"/>
</g>
<!-- Node17&#45;&gt;Node5 -->
<g id="edge30" class="edge"><title>Node17&#45;&gt;Node5</title>
<path fill="none" stroke="midnightblue" d="M412.315,-456.181C432.799,-461.921 456.444,-468.548 476.395,-474.139"/>
<polygon fill="midnightblue" stroke="midnightblue" points="475.584,-477.547 486.158,-476.875 477.473,-470.807 475.584,-477.547"/>
</g>
<!-- Node17&#45;&gt;Node8 -->
<g id="edge28" class="edge"><title>Node17&#45;&gt;Node8</title>
<path fill="none" stroke="midnightblue" d="M412.315,-442.5C427.305,-442.5 443.988,-442.5 459.677,-442.5"/>
<polygon fill="midnightblue" stroke="midnightblue" points="459.816,-446 469.816,-442.5 459.816,-439 459.816,-446"/>
</g>
</g>
</svg>
