<?xml version="1.0" encoding="UTF-8" standalone="no"?>
<!DOCTYPE svg PUBLIC "-//W3C//DTD SVG 1.1//EN"
 "http://www.w3.org/Graphics/SVG/1.1/DTD/svg11.dtd">
<!-- Generated by graphviz version 2.38.0 (20140413.2041)
 -->
<!-- Title: infra::JsonIterator::SearchArrayEnd Pages: 1 -->
<!--zoomable 252 -->
<svg id="main" version="1.1" xmlns="http://www.w3.org/2000/svg" xmlns:xlink="http://www.w3.org/1999/xlink" xml:space="preserve" onload="init(evt)">
<style type="text/css"><![CDATA[
.edge:hover path { stroke: red; }
.edge:hover polygon { stroke: red; fill: red; }
]]></style>
<script type="text/javascript"><![CDATA[
var edges = document.getElementsByTagName('g');
if (edges && edges.length) {
  for (var i=0;i<edges.length;i++) {
    if (edges[i].id.substr(0,4)=='edge') {
      edges[i].setAttribute('class','edge');
    }
  }
}
]]></script>
        <defs>
                <circle id="rim" cx="0" cy="0" r="7"/>
                <circle id="rim2" cx="0" cy="0" r="3.5"/>
                <g id="zoomPlus">
                        <use xlink:href="#rim" fill="#404040">
                                <set attributeName="fill" to="#808080" begin="zoomplus.mouseover" end="zoomplus.mouseout"/>
                        </use>
                        <path d="M-4,0h8M0,-4v8" fill="none" stroke="white" stroke-width="1.5" pointer-events="none"/>
                </g>
                <g id="zoomMin">
                        <use xlink:href="#rim" fill="#404040">
                                <set attributeName="fill" to="#808080" begin="zoomminus.mouseover" end="zoomminus.mouseout"/>
                        </use>
                        <path d="M-4,0h8" fill="none" stroke="white" stroke-width="1.5" pointer-events="none"/>
                </g>
                <g id="dirArrow">
                        <path fill="none" stroke="white" stroke-width="1.5" d="M0,-3.0v7 M-2.5,-0.5L0,-3.0L2.5,-0.5"/>
                </g>
               <g id="resetDef">
                       <use xlink:href="#rim2" fill="#404040">
                               <set attributeName="fill" to="#808080" begin="reset.mouseover" end="reset.mouseout"/>
                       </use>
               </g>
        </defs>

<script type="text/javascript">
var viewWidth = 567;
var viewHeight = 252;
var sectionId = 'dynsection-8';
</script>
<script xlink:href="../../svgpan.js"/>
<svg id="graph" class="graph">
<g id="viewport">
<title>infra::JsonIterator::SearchArrayEnd</title>
<polygon fill="white" stroke="none" points="-4,4 -4,-247.5 563,-247.5 563,4 -4,4"/>
<!-- Node68 -->
<g id="node1" class="node"><title>Node68</title>
<polygon fill="#bfbfbf" stroke="black" points="0,-161.5 0,-191.5 94,-191.5 94,-161.5 0,-161.5"/>
<text text-anchor="start" x="8" y="-179.5" font-family="Helvetica,sans-Serif" font-size="10.00">infra::JsonIterator</text>
<text text-anchor="middle" x="47" y="-168.5" font-family="Helvetica,sans-Serif" font-size="10.00">::SearchArrayEnd</text>
</g>
<!-- Node69 -->
<g id="node2" class="node"><title>Node69</title>
<g id="a_node2"><a xlink:href="../../da/d2a/classinfra_1_1_variant.html#a5c22ee95a815d91911bf3ce196c852a0" target="_top" xlink:title="infra::Variant::Get">
<polygon fill="white" stroke="black" points="135,-224 135,-243 228,-243 228,-224 135,-224"/>
<text text-anchor="middle" x="181.5" y="-231" font-family="Helvetica,sans-Serif" font-size="10.00">infra::Variant::Get</text>
</a>
</g>
</g>
<!-- Node68&#45;&gt;Node69 -->
<g id="edge1" class="edge"><title>Node68&#45;&gt;Node69</title>
<path fill="none" stroke="midnightblue" d="M79.2978,-191.667C94.4863,-198.856 113.069,-207.404 130,-214.5 134.565,-216.414 139.398,-218.347 144.192,-220.21"/>
<polygon fill="midnightblue" stroke="midnightblue" points="143.292,-223.612 153.883,-223.907 145.788,-217.072 143.292,-223.612"/>
</g>
<!-- Node70 -->
<g id="node3" class="node"><title>Node70</title>
<g id="a_node3"><a xlink:href="../../da/d2a/classinfra_1_1_variant.html#a6d0669e4f430569c9019345cfab21a8e" target="_top" xlink:title="infra::Variant::Is">
<polygon fill="white" stroke="black" points="139,-186 139,-205 224,-205 224,-186 139,-186"/>
<text text-anchor="middle" x="181.5" y="-193" font-family="Helvetica,sans-Serif" font-size="10.00">infra::Variant::Is</text>
</a>
</g>
</g>
<!-- Node68&#45;&gt;Node70 -->
<g id="edge2" class="edge"><title>Node68&#45;&gt;Node70</title>
<path fill="none" stroke="midnightblue" d="M94.3421,-183.145C105.427,-184.735 117.331,-186.442 128.646,-188.064"/>
<polygon fill="midnightblue" stroke="midnightblue" points="128.436,-191.57 138.832,-189.525 129.43,-184.641 128.436,-191.57"/>
</g>
<!-- Node71 -->
<g id="node4" class="node"><title>Node71</title>
<g id="a_node4"><a xlink:href="../../d0/de3/namespaceinfra.html#a0ec8c0f8585063ab97f13228d4888974" target="_top" xlink:title="infra::MakeOptional">
<polygon fill="white" stroke="black" points="131,-148 131,-167 232,-167 232,-148 131,-148"/>
<text text-anchor="middle" x="181.5" y="-155" font-family="Helvetica,sans-Serif" font-size="10.00">infra::MakeOptional</text>
</a>
</g>
</g>
<!-- Node68&#45;&gt;Node71 -->
<g id="edge3" class="edge"><title>Node68&#45;&gt;Node71</title>
<path fill="none" stroke="midnightblue" d="M94.3421,-169.855C102.909,-168.626 111.966,-167.328 120.862,-166.052"/>
<polygon fill="midnightblue" stroke="midnightblue" points="121.401,-169.511 130.803,-164.626 120.407,-162.581 121.401,-169.511"/>
</g>
<!-- Node72 -->
<g id="node5" class="node"><title>Node72</title>
<g id="a_node5"><a xlink:href="../../d3/d5c/classinfra_1_1_json_tokenizer.html#a02d850fd493943206196aff4c975aac5" target="_top" xlink:title="infra::JsonTokenizer\l::Token">
<polygon fill="white" stroke="black" points="130,-98.5 130,-128.5 233,-128.5 233,-98.5 130,-98.5"/>
<text text-anchor="start" x="138" y="-116.5" font-family="Helvetica,sans-Serif" font-size="10.00">infra::JsonTokenizer</text>
<text text-anchor="middle" x="181.5" y="-105.5" font-family="Helvetica,sans-Serif" font-size="10.00">::Token</text>
</a>
</g>
</g>
<!-- Node68&#45;&gt;Node72 -->
<g id="edge4" class="edge"><title>Node68&#45;&gt;Node72</title>
<path fill="none" stroke="midnightblue" d="M79.7371,-161.41C97.6331,-152.901 120.191,-142.175 139.423,-133.031"/>
<polygon fill="midnightblue" stroke="midnightblue" points="141.034,-136.14 148.563,-128.685 138.029,-129.818 141.034,-136.14"/>
</g>
<!-- Node73 -->
<g id="node6" class="node"><title>Node73</title>
<g id="a_node6"><a xlink:href="../../d3/d5c/classinfra_1_1_json_tokenizer.html#acfe1cf5bc676fd35b038e1b604756165" target="_top" xlink:title="infra::JsonTokenizer\l::SkipWhitespace">
<polygon fill="white" stroke="black" points="281,-186.5 281,-216.5 384,-216.5 384,-186.5 281,-186.5"/>
<text text-anchor="start" x="289" y="-204.5" font-family="Helvetica,sans-Serif" font-size="10.00">infra::JsonTokenizer</text>
<text text-anchor="middle" x="332.5" y="-193.5" font-family="Helvetica,sans-Serif" font-size="10.00">::SkipWhitespace</text>
</a>
</g>
</g>
<!-- Node72&#45;&gt;Node73 -->
<g id="edge5" class="edge"><title>Node72&#45;&gt;Node73</title>
<path fill="none" stroke="midnightblue" d="M216.394,-128.621C222.097,-131.628 227.835,-134.961 233,-138.5 250.904,-150.77 251.022,-159.339 269,-171.5 274.365,-175.129 280.236,-178.558 286.163,-181.71"/>
<polygon fill="midnightblue" stroke="midnightblue" points="284.958,-185.023 295.459,-186.426 288.124,-178.781 284.958,-185.023"/>
</g>
<!-- Node74 -->
<g id="node7" class="node"><title>Node74</title>
<g id="a_node7"><a xlink:href="../../d1/d2a/classinfra_1_1_bounded_string_base.html#aab36b8eaee21d6ab3be734e07f499382" target="_top" xlink:title="infra::BoundedStringBase\l::size">
<polygon fill="white" stroke="black" points="432,-98.5 432,-128.5 559,-128.5 559,-98.5 432,-98.5"/>
<text text-anchor="start" x="440" y="-116.5" font-family="Helvetica,sans-Serif" font-size="10.00">infra::BoundedStringBase</text>
<text text-anchor="middle" x="495.5" y="-105.5" font-family="Helvetica,sans-Serif" font-size="10.00">::size</text>
</a>
</g>
</g>
<!-- Node72&#45;&gt;Node74 -->
<g id="edge7" class="edge"><title>Node72&#45;&gt;Node74</title>
<path fill="none" stroke="midnightblue" d="M225.541,-128.52C239.254,-132.605 254.606,-136.462 269,-138.5 324.887,-146.414 339.991,-145.497 396,-138.5 408.974,-136.879 422.691,-134.102 435.634,-130.973"/>
<polygon fill="midnightblue" stroke="midnightblue" points="436.512,-134.361 445.355,-128.525 434.803,-127.573 436.512,-134.361"/>
</g>
<!-- Node75 -->
<g id="node8" class="node"><title>Node75</title>
<g id="a_node8"><a xlink:href="../../d3/d5c/classinfra_1_1_json_tokenizer.html#a6b99af199f5f080d408375a0f23ac32c" target="_top" xlink:title="infra::JsonTokenizer\l::TryCreateStringToken">
<polygon fill="white" stroke="black" points="274.5,-98.5 274.5,-128.5 390.5,-128.5 390.5,-98.5 274.5,-98.5"/>
<text text-anchor="start" x="282.5" y="-116.5" font-family="Helvetica,sans-Serif" font-size="10.00">infra::JsonTokenizer</text>
<text text-anchor="middle" x="332.5" y="-105.5" font-family="Helvetica,sans-Serif" font-size="10.00">::TryCreateStringToken</text>
</a>
</g>
</g>
<!-- Node72&#45;&gt;Node75 -->
<g id="edge8" class="edge"><title>Node72&#45;&gt;Node75</title>
<path fill="none" stroke="midnightblue" d="M233.361,-113.5C243.288,-113.5 253.839,-113.5 264.203,-113.5"/>
<polygon fill="midnightblue" stroke="midnightblue" points="264.474,-117 274.474,-113.5 264.474,-110 264.474,-117"/>
</g>
<!-- Node77 -->
<g id="node10" class="node"><title>Node77</title>
<g id="a_node10"><a xlink:href="../../d3/d5c/classinfra_1_1_json_tokenizer.html#a4203f4a0d1a65b20672053d7a4e5b8be" target="_top" xlink:title="infra::JsonTokenizer\l::TryCreateIntegerToken">
<polygon fill="white" stroke="black" points="272.5,-49.5 272.5,-79.5 392.5,-79.5 392.5,-49.5 272.5,-49.5"/>
<text text-anchor="start" x="280.5" y="-67.5" font-family="Helvetica,sans-Serif" font-size="10.00">infra::JsonTokenizer</text>
<text text-anchor="middle" x="332.5" y="-56.5" font-family="Helvetica,sans-Serif" font-size="10.00">::TryCreateIntegerToken</text>
</a>
</g>
</g>
<!-- Node72&#45;&gt;Node77 -->
<g id="edge11" class="edge"><title>Node72&#45;&gt;Node77</title>
<path fill="none" stroke="midnightblue" d="M228.421,-98.3986C243.503,-93.4385 260.428,-87.8726 276.136,-82.7071"/>
<polygon fill="midnightblue" stroke="midnightblue" points="277.325,-86.0005 285.731,-79.5516 275.138,-79.3508 277.325,-86.0005"/>
</g>
<!-- Node78 -->
<g id="node11" class="node"><title>Node78</title>
<g id="a_node11"><a xlink:href="../../d3/d5c/classinfra_1_1_json_tokenizer.html#a7fde4788359094c8ac575d0aea08a33b" target="_top" xlink:title="infra::JsonTokenizer\l::TryCreateIdentifierToken">
<polygon fill="white" stroke="black" points="269,-0.5 269,-30.5 396,-30.5 396,-0.5 269,-0.5"/>
<text text-anchor="start" x="277" y="-18.5" font-family="Helvetica,sans-Serif" font-size="10.00">infra::JsonTokenizer</text>
<text text-anchor="middle" x="332.5" y="-7.5" font-family="Helvetica,sans-Serif" font-size="10.00">::TryCreateIdentifierToken</text>
</a>
</g>
</g>
<!-- Node72&#45;&gt;Node78 -->
<g id="edge14" class="edge"><title>Node72&#45;&gt;Node78</title>
<path fill="none" stroke="midnightblue" d="M196.899,-98.4213C213.148,-82.1036 240.984,-56.1857 269,-39.5 271.66,-37.9155 274.444,-36.401 277.296,-34.9588"/>
<polygon fill="midnightblue" stroke="midnightblue" points="279.009,-38.0215 286.573,-30.603 276.033,-31.6852 279.009,-38.0215"/>
</g>
<!-- Node73&#45;&gt;Node74 -->
<g id="edge6" class="edge"><title>Node73&#45;&gt;Node74</title>
<path fill="none" stroke="midnightblue" d="M366.2,-186.445C375.879,-181.817 386.441,-176.596 396,-171.5 418.222,-159.651 442.617,-145.297 461.57,-133.833"/>
<polygon fill="midnightblue" stroke="midnightblue" points="463.409,-136.812 470.135,-128.626 459.773,-130.83 463.409,-136.812"/>
</g>
<!-- Node75&#45;&gt;Node74 -->
<g id="edge9" class="edge"><title>Node75&#45;&gt;Node74</title>
<path fill="none" stroke="midnightblue" d="M390.716,-113.5C400.681,-113.5 411.166,-113.5 421.486,-113.5"/>
<polygon fill="midnightblue" stroke="midnightblue" points="421.726,-117 431.726,-113.5 421.725,-110 421.726,-117"/>
</g>
<!-- Node76 -->
<g id="node9" class="node"><title>Node76</title>
<g id="a_node9"><a xlink:href="../../d1/d2a/classinfra_1_1_bounded_string_base.html#a46ec1a3a673136ace03af8c6ec94aa89" target="_top" xlink:title="infra::BoundedStringBase\l::substr">
<polygon fill="white" stroke="black" points="432,-49.5 432,-79.5 559,-79.5 559,-49.5 432,-49.5"/>
<text text-anchor="start" x="440" y="-67.5" font-family="Helvetica,sans-Serif" font-size="10.00">infra::BoundedStringBase</text>
<text text-anchor="middle" x="495.5" y="-56.5" font-family="Helvetica,sans-Serif" font-size="10.00">::substr</text>
</a>
</g>
</g>
<!-- Node75&#45;&gt;Node76 -->
<g id="edge10" class="edge"><title>Node75&#45;&gt;Node76</title>
<path fill="none" stroke="midnightblue" d="M383.119,-98.3986C399.57,-93.3917 418.049,-87.7676 435.157,-82.561"/>
<polygon fill="midnightblue" stroke="midnightblue" points="436.497,-85.8116 445.045,-79.5516 434.459,-79.1149 436.497,-85.8116"/>
</g>
<!-- Node77&#45;&gt;Node74 -->
<g id="edge12" class="edge"><title>Node77&#45;&gt;Node74</title>
<path fill="none" stroke="midnightblue" d="M383.119,-79.6014C399.57,-84.6083 418.049,-90.2324 435.157,-95.439"/>
<polygon fill="midnightblue" stroke="midnightblue" points="434.459,-98.8851 445.045,-98.4484 436.497,-92.1884 434.459,-98.8851"/>
</g>
<!-- Node77&#45;&gt;Node76 -->
<g id="edge13" class="edge"><title>Node77&#45;&gt;Node76</title>
<path fill="none" stroke="midnightblue" d="M392.536,-64.5C402.061,-64.5 412.018,-64.5 421.82,-64.5"/>
<polygon fill="midnightblue" stroke="midnightblue" points="421.953,-68.0001 431.953,-64.5 421.952,-61.0001 421.953,-68.0001"/>
</g>
<!-- Node78&#45;&gt;Node74 -->
<g id="edge15" class="edge"><title>Node78&#45;&gt;Node74</title>
<path fill="none" stroke="midnightblue" d="M381.481,-30.5394C386.622,-33.1213 391.581,-36.0939 396,-39.5 417.688,-56.2176 410.312,-72.7824 432,-89.5 433.795,-90.8837 435.679,-92.1959 437.629,-93.4394"/>
<polygon fill="midnightblue" stroke="midnightblue" points="436.091,-96.5902 446.519,-98.4606 439.533,-90.4952 436.091,-96.5902"/>
</g>
<!-- Node78&#45;&gt;Node76 -->
<g id="edge16" class="edge"><title>Node78&#45;&gt;Node76</title>
<path fill="none" stroke="midnightblue" d="M383.119,-30.6014C399.57,-35.6083 418.049,-41.2324 435.157,-46.439"/>
<polygon fill="midnightblue" stroke="midnightblue" points="434.459,-49.8851 445.045,-49.4484 436.497,-43.1884 434.459,-49.8851"/>
</g>
</g>
</svg>
        <g id="navigator" transform="translate(0 0)" fill="#404254">
                <rect fill="#f2f5e9" fill-opacity="0.5" stroke="#606060" stroke-width=".5" x="0" y="0" width="60" height="60"/>
                <use id="zoomplus" xlink:href="#zoomPlus" x="17" y="9" onmousedown="handleZoom(evt,'in')"/>
                <use id="zoomminus" xlink:href="#zoomMin" x="42" y="9" onmousedown="handleZoom(evt,'out')"/>
                <use id="reset" xlink:href="#resetDef" x="30" y="36" onmousedown="handleReset()"/>
                <g id="arrowUp" xlink:href="#dirArrow" transform="translate(30 24)" onmousedown="handlePan(0,-1)">
                  <use xlink:href="#rim" fill="#404040">
                        <set attributeName="fill" to="#808080" begin="arrowUp.mouseover" end="arrowUp.mouseout"/>
                  </use>
                  <path fill="none" stroke="white" stroke-width="1.5" d="M0,-3.0v7 M-2.5,-0.5L0,-3.0L2.5,-0.5"/>
                </g>
                <g id="arrowRight" xlink:href="#dirArrow" transform="rotate(90) translate(36 -43)" onmousedown="handlePan(1,0)">
                  <use xlink:href="#rim" fill="#404040">
                        <set attributeName="fill" to="#808080" begin="arrowRight.mouseover" end="arrowRight.mouseout"/>
                  </use>
                  <path fill="none" stroke="white" stroke-width="1.5" d="M0,-3.0v7 M-2.5,-0.5L0,-3.0L2.5,-0.5"/>
                </g>
                <g id="arrowDown" xlink:href="#dirArrow" transform="rotate(180) translate(-30 -48)" onmousedown="handlePan(0,1)">
                  <use xlink:href="#rim" fill="#404040">
                        <set attributeName="fill" to="#808080" begin="arrowDown.mouseover" end="arrowDown.mouseout"/>
                  </use>
                  <path fill="none" stroke="white" stroke-width="1.5" d="M0,-3.0v7 M-2.5,-0.5L0,-3.0L2.5,-0.5"/>
                </g>
                <g id="arrowLeft" xlink:href="#dirArrow" transform="rotate(270) translate(-36 17)" onmousedown="handlePan(-1,0)">
                  <use xlink:href="#rim" fill="#404040">
                        <set attributeName="fill" to="#808080" begin="arrowLeft.mouseover" end="arrowLeft.mouseout"/>
                  </use>
                  <path fill="none" stroke="white" stroke-width="1.5" d="M0,-3.0v7 M-2.5,-0.5L0,-3.0L2.5,-0.5"/>
                </g>
        </g>
        <svg viewBox="0 0 15 15" width="100%" height="30px" preserveAspectRatio="xMaxYMin meet">
         <g id="arrow_out" transform="scale(0.3 0.3)">
          <a xlink:href="classinfra_1_1_json_iterator_ae3b34ea711511b26a00f08c17f53ecc1_cgraph_org.svg" target="_base">
           <rect id="button" ry="5" rx="5" y="6" x="6" height="38" width="38"
                fill="#f2f5e9" fill-opacity="0.5" stroke="#606060" stroke-width="1.0"/>
           <path id="arrow"
             d="M 11.500037,31.436501 C 11.940474,20.09759 22.043105,11.32322 32.158766,21.979434 L 37.068811,17.246167 C 37.068811,17.246167 37.088388,32 37.088388,32 L 22.160133,31.978069 C 22.160133,31.978069 26.997745,27.140456 26.997745,27.140456 C 18.528582,18.264221 13.291696,25.230495 11.500037,31.436501 z"
             style="fill:#404040;"/>
          </a>
         </g>
        </svg>
</svg>
