<?xml version="1.0" encoding="UTF-8" standalone="no"?>
<!DOCTYPE svg PUBLIC "-//W3C//DTD SVG 1.1//EN"
 "http://www.w3.org/Graphics/SVG/1.1/DTD/svg11.dtd">
<!-- Generated by graphviz version 2.38.0 (20140413.2041)
 -->
<!-- Title: services::FlashSpi::ConvertAddress Pages: 1 -->
<svg width="531pt" height="186pt"
 viewBox="0.00 0.00 531.00 186.00" xmlns="http://www.w3.org/2000/svg" xmlns:xlink="http://www.w3.org/1999/xlink">
<g id="graph0" class="graph" transform="scale(1 1) rotate(0) translate(4 182)">
<title>services::FlashSpi::ConvertAddress</title>
<polygon fill="white" stroke="none" points="-4,4 -4,-182 527,-182 527,4 -4,4"/>
<!-- Node3 -->
<g id="node1" class="node"><title>Node3</title>
<polygon fill="#bfbfbf" stroke="black" points="0,-73.5 0,-103.5 96,-103.5 96,-73.5 0,-73.5"/>
<text text-anchor="start" x="8" y="-91.5" font-family="Helvetica,sans-Serif" font-size="10.00">services::FlashSpi</text>
<text text-anchor="middle" x="48" y="-80.5" font-family="Helvetica,sans-Serif" font-size="10.00">::ConvertAddress</text>
</g>
<!-- Node4 -->
<g id="node2" class="node"><title>Node4</title>
<g id="a_node2"><a xlink:href="../../df/d28/classservices_1_1_flash_spi.html#aea31dd62ec4d7cc0ac72c485fab0dece" target="_top" xlink:title="services::FlashSpi\l::PageProgram">
<polygon fill="white" stroke="black" points="142,-147.5 142,-177.5 238,-177.5 238,-147.5 142,-147.5"/>
<text text-anchor="start" x="150" y="-165.5" font-family="Helvetica,sans-Serif" font-size="10.00">services::FlashSpi</text>
<text text-anchor="middle" x="190" y="-154.5" font-family="Helvetica,sans-Serif" font-size="10.00">::PageProgram</text>
</a>
</g>
</g>
<!-- Node3&#45;&gt;Node4 -->
<g id="edge1" class="edge"><title>Node3&#45;&gt;Node4</title>
<path fill="none" stroke="midnightblue" d="M80.635,-109.023C95.8697,-118.524 114.576,-129.641 132,-138.5 138.03,-141.566 144.544,-144.576 150.939,-147.372"/>
<polygon fill="midnightblue" stroke="midnightblue" points="82.4283,-106.016 72.1021,-103.645 78.6959,-111.938 82.4283,-106.016"/>
</g>
<!-- Node6 -->
<g id="node4" class="node"><title>Node6</title>
<g id="a_node4"><a xlink:href="../../df/d28/classservices_1_1_flash_spi.html#a779453e98e31045c379a8db1d69f5573" target="_top" xlink:title="services::FlashSpi\l::ReadBuffer">
<polygon fill="white" stroke="black" points="142,-98.5 142,-128.5 238,-128.5 238,-98.5 142,-98.5"/>
<text text-anchor="start" x="150" y="-116.5" font-family="Helvetica,sans-Serif" font-size="10.00">services::FlashSpi</text>
<text text-anchor="middle" x="190" y="-105.5" font-family="Helvetica,sans-Serif" font-size="10.00">::ReadBuffer</text>
</a>
</g>
</g>
<!-- Node3&#45;&gt;Node6 -->
<g id="edge3" class="edge"><title>Node3&#45;&gt;Node6</title>
<path fill="none" stroke="midnightblue" d="M105.892,-98.6593C117.846,-100.794 130.329,-103.023 141.878,-105.085"/>
<polygon fill="midnightblue" stroke="midnightblue" points="106.467,-95.2067 96.0074,-96.8942 105.236,-102.098 106.467,-95.2067"/>
</g>
<!-- Node7 -->
<g id="node5" class="node"><title>Node7</title>
<g id="a_node5"><a xlink:href="../../df/d28/classservices_1_1_flash_spi.html#a83fb0df7e373ebbcb9b3fc4fa5855dce" target="_top" xlink:title="services::FlashSpi\l::SendEraseSector">
<polygon fill="white" stroke="black" points="140.5,-49.5 140.5,-79.5 239.5,-79.5 239.5,-49.5 140.5,-49.5"/>
<text text-anchor="start" x="148.5" y="-67.5" font-family="Helvetica,sans-Serif" font-size="10.00">services::FlashSpi</text>
<text text-anchor="middle" x="190" y="-56.5" font-family="Helvetica,sans-Serif" font-size="10.00">::SendEraseSector</text>
</a>
</g>
</g>
<!-- Node3&#45;&gt;Node7 -->
<g id="edge4" class="edge"><title>Node3&#45;&gt;Node7</title>
<path fill="none" stroke="midnightblue" d="M105.915,-78.7431C117.369,-76.7797 129.307,-74.7332 140.443,-72.8241"/>
<polygon fill="midnightblue" stroke="midnightblue" points="105.272,-75.3022 96.0074,-80.4416 106.455,-82.2015 105.272,-75.3022"/>
</g>
<!-- Node10 -->
<g id="node8" class="node"><title>Node10</title>
<g id="a_node8"><a xlink:href="../../df/d28/classservices_1_1_flash_spi.html#a27212b42f9853b69cd597d96779d2f4f" target="_top" xlink:title="services::FlashSpi\l::SendEraseSubSector">
<polygon fill="white" stroke="black" points="132,-0.5 132,-30.5 248,-30.5 248,-0.5 132,-0.5"/>
<text text-anchor="start" x="140" y="-18.5" font-family="Helvetica,sans-Serif" font-size="10.00">services::FlashSpi</text>
<text text-anchor="middle" x="190" y="-7.5" font-family="Helvetica,sans-Serif" font-size="10.00">::SendEraseSubSector</text>
</a>
</g>
</g>
<!-- Node3&#45;&gt;Node10 -->
<g id="edge7" class="edge"><title>Node3&#45;&gt;Node10</title>
<path fill="none" stroke="midnightblue" d="M82.2036,-68.1676C97.202,-59.2786 115.275,-48.9708 132,-40.5 138.748,-37.0823 146.067,-33.6644 153.141,-30.502"/>
<polygon fill="midnightblue" stroke="midnightblue" points="80.0888,-65.3541 73.3019,-73.4897 83.6809,-71.3622 80.0888,-65.3541"/>
</g>
<!-- Node5 -->
<g id="node3" class="node"><title>Node5</title>
<g id="a_node3"><a xlink:href="../../df/d28/classservices_1_1_flash_spi.html#a565d63c057e750b2c5703b83e2987e0d" target="_top" xlink:title="services::FlashSpi\l::WriteBuffer">
<polygon fill="white" stroke="black" points="289.5,-147.5 289.5,-177.5 385.5,-177.5 385.5,-147.5 289.5,-147.5"/>
<text text-anchor="start" x="297.5" y="-165.5" font-family="Helvetica,sans-Serif" font-size="10.00">services::FlashSpi</text>
<text text-anchor="middle" x="337.5" y="-154.5" font-family="Helvetica,sans-Serif" font-size="10.00">::WriteBuffer</text>
</a>
</g>
</g>
<!-- Node4&#45;&gt;Node5 -->
<g id="edge2" class="edge"><title>Node4&#45;&gt;Node5</title>
<path fill="none" stroke="midnightblue" d="M248.464,-162.5C262.069,-162.5 276.42,-162.5 289.497,-162.5"/>
<polygon fill="midnightblue" stroke="midnightblue" points="248.24,-159 238.24,-162.5 248.24,-166 248.24,-159"/>
</g>
<!-- Node8 -->
<g id="node6" class="node"><title>Node8</title>
<g id="a_node6"><a xlink:href="../../df/d28/classservices_1_1_flash_spi.html#aa87d4ca73eedb68b123567cb8d678743" target="_top" xlink:title="services::FlashSpi\l::EraseSomeSectors">
<polygon fill="white" stroke="black" points="284,-25.5 284,-55.5 391,-55.5 391,-25.5 284,-25.5"/>
<text text-anchor="start" x="292" y="-43.5" font-family="Helvetica,sans-Serif" font-size="10.00">services::FlashSpi</text>
<text text-anchor="middle" x="337.5" y="-32.5" font-family="Helvetica,sans-Serif" font-size="10.00">::EraseSomeSectors</text>
</a>
</g>
</g>
<!-- Node7&#45;&gt;Node8 -->
<g id="edge5" class="edge"><title>Node7&#45;&gt;Node8</title>
<path fill="none" stroke="midnightblue" d="M249.971,-54.7728C261.16,-52.9272 272.801,-51.0071 283.781,-49.196"/>
<polygon fill="midnightblue" stroke="midnightblue" points="249.151,-51.3607 239.854,-56.4416 250.29,-58.2673 249.151,-51.3607"/>
</g>
<!-- Node9 -->
<g id="node7" class="node"><title>Node9</title>
<g id="a_node7"><a xlink:href="../../df/d28/classservices_1_1_flash_spi.html#a5b3e05583977f2aebb2cb4b25491390a" target="_top" xlink:title="services::FlashSpi\l::EraseSectors">
<polygon fill="white" stroke="black" points="427,-25.5 427,-55.5 523,-55.5 523,-25.5 427,-25.5"/>
<text text-anchor="start" x="435" y="-43.5" font-family="Helvetica,sans-Serif" font-size="10.00">services::FlashSpi</text>
<text text-anchor="middle" x="475" y="-32.5" font-family="Helvetica,sans-Serif" font-size="10.00">::EraseSectors</text>
</a>
</g>
</g>
<!-- Node8&#45;&gt;Node9 -->
<g id="edge6" class="edge"><title>Node8&#45;&gt;Node9</title>
<path fill="none" stroke="midnightblue" d="M401.298,-40.5C409.907,-40.5 418.622,-40.5 426.885,-40.5"/>
<polygon fill="midnightblue" stroke="midnightblue" points="401.276,-37.0001 391.276,-40.5 401.276,-44.0001 401.276,-37.0001"/>
</g>
<!-- Node10&#45;&gt;Node8 -->
<g id="edge8" class="edge"><title>Node10&#45;&gt;Node8</title>
<path fill="none" stroke="midnightblue" d="M258.137,-27.0356C266.764,-28.5178 275.496,-30.0183 283.846,-31.4529"/>
<polygon fill="midnightblue" stroke="midnightblue" points="258.536,-23.5529 248.088,-25.3089 257.351,-30.4518 258.536,-23.5529"/>
</g>
</g>
</svg>
