<?xml version="1.0" encoding="UTF-8" standalone="no"?>
<!DOCTYPE svg PUBLIC "-//W3C//DTD SVG 1.1//EN"
 "http://www.w3.org/Graphics/SVG/1.1/DTD/svg11.dtd">
<!-- Generated by graphviz version 2.38.0 (20140413.2041)
 -->
<!-- Title: services::FlashSpi::ReadStatusRegister Pages: 1 -->
<svg width="423pt" height="88pt"
 viewBox="0.00 0.00 423.00 88.00" xmlns="http://www.w3.org/2000/svg" xmlns:xlink="http://www.w3.org/1999/xlink">
<g id="graph0" class="graph" transform="scale(1 1) rotate(0) translate(4 84)">
<title>services::FlashSpi::ReadStatusRegister</title>
<polygon fill="white" stroke="none" points="-4,4 -4,-84 419,-84 419,4 -4,4"/>
<!-- Node211 -->
<g id="node1" class="node"><title>Node211</title>
<polygon fill="#bfbfbf" stroke="black" points="0,-24.5 0,-54.5 110,-54.5 110,-24.5 0,-24.5"/>
<text text-anchor="start" x="8" y="-42.5" font-family="Helvetica,sans-Serif" font-size="10.00">services::FlashSpi</text>
<text text-anchor="middle" x="55" y="-31.5" font-family="Helvetica,sans-Serif" font-size="10.00">::ReadStatusRegister</text>
</g>
<!-- Node212 -->
<g id="node2" class="node"><title>Node212</title>
<g id="a_node2"><a xlink:href="../../df/d28/classservices_1_1_flash_spi.html#a84fae0acb54bc7f4841ee1e2c970618f" target="_top" xlink:title="services::FlashSpi\l::HoldWhileWriteInProgress">
<polygon fill="white" stroke="black" points="146,-24.5 146,-54.5 283,-54.5 283,-24.5 146,-24.5"/>
<text text-anchor="start" x="154" y="-42.5" font-family="Helvetica,sans-Serif" font-size="10.00">services::FlashSpi</text>
<text text-anchor="middle" x="214.5" y="-31.5" font-family="Helvetica,sans-Serif" font-size="10.00">::HoldWhileWriteInProgress</text>
</a>
</g>
</g>
<!-- Node211&#45;&gt;Node212 -->
<g id="edge1" class="edge"><title>Node211&#45;&gt;Node212</title>
<path fill="none" stroke="midnightblue" d="M120.324,-39.5C128.736,-39.5 137.375,-39.5 145.84,-39.5"/>
<polygon fill="midnightblue" stroke="midnightblue" points="120.203,-36.0001 110.203,-39.5 120.203,-43.0001 120.203,-36.0001"/>
</g>
<!-- Node213 -->
<g id="node3" class="node"><title>Node213</title>
<g id="a_node3"><a xlink:href="../../df/d28/classservices_1_1_flash_spi.html#a5b3e05583977f2aebb2cb4b25491390a" target="_top" xlink:title="services::FlashSpi\l::EraseSectors">
<polygon fill="white" stroke="black" points="319,-49.5 319,-79.5 415,-79.5 415,-49.5 319,-49.5"/>
<text text-anchor="start" x="327" y="-67.5" font-family="Helvetica,sans-Serif" font-size="10.00">services::FlashSpi</text>
<text text-anchor="middle" x="367" y="-56.5" font-family="Helvetica,sans-Serif" font-size="10.00">::EraseSectors</text>
</a>
</g>
</g>
<!-- Node212&#45;&gt;Node213 -->
<g id="edge2" class="edge"><title>Node212&#45;&gt;Node213</title>
<path fill="none" stroke="midnightblue" d="M293.154,-52.3993C301.918,-53.8552 310.639,-55.3039 318.841,-56.6662"/>
<polygon fill="midnightblue" stroke="midnightblue" points="293.704,-48.9428 283.265,-50.7567 292.557,-55.8482 293.704,-48.9428"/>
</g>
<!-- Node214 -->
<g id="node4" class="node"><title>Node214</title>
<g id="a_node4"><a xlink:href="../../df/d28/classservices_1_1_flash_spi.html#a565d63c057e750b2c5703b83e2987e0d" target="_top" xlink:title="services::FlashSpi\l::WriteBuffer">
<polygon fill="white" stroke="black" points="319,-0.5 319,-30.5 415,-30.5 415,-0.5 319,-0.5"/>
<text text-anchor="start" x="327" y="-18.5" font-family="Helvetica,sans-Serif" font-size="10.00">services::FlashSpi</text>
<text text-anchor="middle" x="367" y="-7.5" font-family="Helvetica,sans-Serif" font-size="10.00">::WriteBuffer</text>
</a>
</g>
</g>
<!-- Node212&#45;&gt;Node214 -->
<g id="edge3" class="edge"><title>Node212&#45;&gt;Node214</title>
<path fill="none" stroke="midnightblue" d="M293.154,-27.1167C301.918,-25.719 310.639,-24.3283 318.841,-23.0205"/>
<polygon fill="midnightblue" stroke="midnightblue" points="292.589,-23.6624 283.265,-28.6936 293.692,-30.575 292.589,-23.6624"/>
</g>
</g>
</svg>
