<?xml version="1.0" encoding="UTF-8" standalone="no"?>
<!DOCTYPE svg PUBLIC "-//W3C//DTD SVG 1.1//EN"
 "http://www.w3.org/Graphics/SVG/1.1/DTD/svg11.dtd">
<!-- Generated by graphviz version 2.38.0 (20140413.2041)
 -->
<!-- Title: services::FlashSpi::EraseSomeSectors Pages: 1 -->
<svg width="963pt" height="400pt"
 viewBox="0.00 0.00 963.00 399.50" xmlns="http://www.w3.org/2000/svg" xmlns:xlink="http://www.w3.org/1999/xlink">
<g id="graph0" class="graph" transform="scale(1 1) rotate(0) translate(4 395.5)">
<title>services::FlashSpi::EraseSomeSectors</title>
<polygon fill="white" stroke="none" points="-4,4 -4,-395.5 959,-395.5 959,4 -4,4"/>
<!-- Node67 -->
<g id="node1" class="node"><title>Node67</title>
<polygon fill="#bfbfbf" stroke="black" points="0,-233.5 0,-263.5 107,-263.5 107,-233.5 0,-233.5"/>
<text text-anchor="start" x="8" y="-251.5" font-family="Helvetica,sans-Serif" font-size="10.00">services::FlashSpi</text>
<text text-anchor="middle" x="53.5" y="-240.5" font-family="Helvetica,sans-Serif" font-size="10.00">::EraseSomeSectors</text>
</g>
<!-- Node68 -->
<g id="node2" class="node"><title>Node68</title>
<g id="a_node2"><a xlink:href="../../d8/d29/classhal_1_1_flash_homogeneous.html#a51f40ebc3117a8a4f9b56b0b22bd1785" target="_top" xlink:title="hal::FlashHomogeneous\l::NumberOfSectors">
<polygon fill="white" stroke="black" points="143,-307.5 143,-337.5 265,-337.5 265,-307.5 143,-307.5"/>
<text text-anchor="start" x="151" y="-325.5" font-family="Helvetica,sans-Serif" font-size="10.00">hal::FlashHomogeneous</text>
<text text-anchor="middle" x="204" y="-314.5" font-family="Helvetica,sans-Serif" font-size="10.00">::NumberOfSectors</text>
</a>
</g>
</g>
<!-- Node67&#45;&gt;Node68 -->
<g id="edge1" class="edge"><title>Node67&#45;&gt;Node68</title>
<path fill="none" stroke="midnightblue" d="M79.2017,-263.636C96.694,-274.059 120.885,-287.888 143,-298.5 146.54,-300.199 150.234,-301.882 153.973,-303.521"/>
<polygon fill="midnightblue" stroke="midnightblue" points="152.727,-306.795 163.299,-307.492 155.469,-300.354 152.727,-306.795"/>
</g>
<!-- Node69 -->
<g id="node3" class="node"><title>Node69</title>
<g id="a_node3"><a xlink:href="../../df/d28/classservices_1_1_flash_spi.html#a9bfd6424435cd4435c372b573cecabed" target="_top" xlink:title="services::FlashSpi\l::SendEraseBulk">
<polygon fill="white" stroke="black" points="156,-258.5 156,-288.5 252,-288.5 252,-258.5 156,-258.5"/>
<text text-anchor="start" x="164" y="-276.5" font-family="Helvetica,sans-Serif" font-size="10.00">services::FlashSpi</text>
<text text-anchor="middle" x="204" y="-265.5" font-family="Helvetica,sans-Serif" font-size="10.00">::SendEraseBulk</text>
</a>
</g>
</g>
<!-- Node67&#45;&gt;Node69 -->
<g id="edge2" class="edge"><title>Node67&#45;&gt;Node69</title>
<path fill="none" stroke="midnightblue" d="M107.274,-257.384C119.772,-259.489 133.159,-261.742 145.842,-263.877"/>
<polygon fill="midnightblue" stroke="midnightblue" points="145.39,-267.35 155.832,-265.559 146.552,-260.448 145.39,-267.35"/>
</g>
<!-- Node77 -->
<g id="node11" class="node"><title>Node77</title>
<g id="a_node11"><a xlink:href="../../df/d28/classservices_1_1_flash_spi.html#a83fb0df7e373ebbcb9b3fc4fa5855dce" target="_top" xlink:title="services::FlashSpi\l::SendEraseSector">
<polygon fill="white" stroke="black" points="154.5,-209.5 154.5,-239.5 253.5,-239.5 253.5,-209.5 154.5,-209.5"/>
<text text-anchor="start" x="162.5" y="-227.5" font-family="Helvetica,sans-Serif" font-size="10.00">services::FlashSpi</text>
<text text-anchor="middle" x="204" y="-216.5" font-family="Helvetica,sans-Serif" font-size="10.00">::SendEraseSector</text>
</a>
</g>
</g>
<!-- Node67&#45;&gt;Node77 -->
<g id="edge10" class="edge"><title>Node67&#45;&gt;Node77</title>
<path fill="none" stroke="midnightblue" d="M107.274,-239.971C119.257,-238.034 132.058,-235.965 144.272,-233.991"/>
<polygon fill="midnightblue" stroke="midnightblue" points="145.049,-237.411 154.363,-232.361 143.932,-230.501 145.049,-237.411"/>
</g>
<!-- Node92 -->
<g id="node26" class="node"><title>Node92</title>
<g id="a_node26"><a xlink:href="../../df/d28/classservices_1_1_flash_spi.html#a27212b42f9853b69cd597d96779d2f4f" target="_top" xlink:title="services::FlashSpi\l::SendEraseSubSector">
<polygon fill="white" stroke="black" points="146,-160.5 146,-190.5 262,-190.5 262,-160.5 146,-160.5"/>
<text text-anchor="start" x="154" y="-178.5" font-family="Helvetica,sans-Serif" font-size="10.00">services::FlashSpi</text>
<text text-anchor="middle" x="204" y="-167.5" font-family="Helvetica,sans-Serif" font-size="10.00">::SendEraseSubSector</text>
</a>
</g>
</g>
<!-- Node67&#45;&gt;Node92 -->
<g id="edge32" class="edge"><title>Node67&#45;&gt;Node92</title>
<path fill="none" stroke="midnightblue" d="M80.8552,-233.287C98.2636,-223.468 121.71,-210.676 143,-200.5 147.12,-198.531 151.437,-196.559 155.786,-194.635"/>
<polygon fill="midnightblue" stroke="midnightblue" points="157.506,-197.705 165.292,-190.52 154.724,-191.281 157.506,-197.705"/>
</g>
<!-- Node70 -->
<g id="node4" class="node"><title>Node70</title>
<g id="a_node4"><a xlink:href="../../dd/da3/classhal_1_1_spi_master.html#ab747ab8280139238e9220f3ad336049c" target="_top" xlink:title="hal::SpiMaster::SendData">
<polygon fill="white" stroke="black" points="302.5,-237 302.5,-256 430.5,-256 430.5,-237 302.5,-237"/>
<text text-anchor="middle" x="366.5" y="-244" font-family="Helvetica,sans-Serif" font-size="10.00">hal::SpiMaster::SendData</text>
</a>
</g>
</g>
<!-- Node69&#45;&gt;Node70 -->
<g id="edge3" class="edge"><title>Node69&#45;&gt;Node70</title>
<path fill="none" stroke="midnightblue" d="M252.287,-265.545C266.851,-263.095 283.168,-260.35 298.781,-257.724"/>
<polygon fill="midnightblue" stroke="midnightblue" points="299.633,-261.13 308.914,-256.019 298.472,-254.227 299.633,-261.13"/>
</g>
<!-- Node72 -->
<g id="node6" class="node"><title>Node72</title>
<g id="a_node6"><a xlink:href="../../d0/de3/namespaceinfra.html#ae4478bf95f90ceb679642cb4180f205f" target="_top" xlink:title="infra::MakeByteRange">
<polygon fill="white" stroke="black" points="310,-275 310,-294 423,-294 423,-275 310,-275"/>
<text text-anchor="middle" x="366.5" y="-282" font-family="Helvetica,sans-Serif" font-size="10.00">infra::MakeByteRange</text>
</a>
</g>
</g>
<!-- Node69&#45;&gt;Node72 -->
<g id="edge5" class="edge"><title>Node69&#45;&gt;Node72</title>
<path fill="none" stroke="midnightblue" d="M252.287,-276.741C267.078,-277.755 283.678,-278.892 299.512,-279.977"/>
<polygon fill="midnightblue" stroke="midnightblue" points="299.564,-283.489 309.78,-280.681 300.043,-276.506 299.564,-283.489"/>
</g>
<!-- Node71 -->
<g id="node5" class="node"><title>Node71</title>
<g id="a_node5"><a xlink:href="../../dd/da3/classhal_1_1_spi_master.html#a99395ac01971c6ea87f58016bc8032d1" target="_top" xlink:title="hal::SpiMaster::SendAndReceive">
<polygon fill="white" stroke="black" points="468,-252 468,-271 627,-271 627,-252 468,-252"/>
<text text-anchor="middle" x="547.5" y="-259" font-family="Helvetica,sans-Serif" font-size="10.00">hal::SpiMaster::SendAndReceive</text>
</a>
</g>
</g>
<!-- Node70&#45;&gt;Node71 -->
<g id="edge4" class="edge"><title>Node70&#45;&gt;Node71</title>
<path fill="none" stroke="midnightblue" d="M430.609,-251.788C439.479,-252.532 448.729,-253.307 457.965,-254.081"/>
<polygon fill="midnightblue" stroke="midnightblue" points="457.706,-257.571 467.964,-254.919 458.291,-250.596 457.706,-257.571"/>
</g>
<!-- Node73 -->
<g id="node7" class="node"><title>Node73</title>
<g id="a_node7"><a xlink:href="../../d0/de3/namespaceinfra.html#afe38b7d4318537de2f28b244211c4275" target="_top" xlink:title="infra::MakeRange">
<polygon fill="white" stroke="black" points="501.5,-305 501.5,-324 593.5,-324 593.5,-305 501.5,-305"/>
<text text-anchor="middle" x="547.5" y="-312" font-family="Helvetica,sans-Serif" font-size="10.00">infra::MakeRange</text>
</a>
</g>
</g>
<!-- Node72&#45;&gt;Node73 -->
<g id="edge6" class="edge"><title>Node72&#45;&gt;Node73</title>
<path fill="none" stroke="midnightblue" d="M423.156,-293.828C444.862,-297.466 469.683,-301.626 491.341,-305.256"/>
<polygon fill="midnightblue" stroke="midnightblue" points="490.928,-308.735 501.369,-306.936 492.085,-301.831 490.928,-308.735"/>
</g>
<!-- Node76 -->
<g id="node10" class="node"><title>Node76</title>
<g id="a_node10"><a xlink:href="../../d0/de3/namespaceinfra.html#a74203fdf2e029d2667c7e4925092cc9a" target="_top" xlink:title="infra::ReinterpretCastByte\lRange">
<polygon fill="white" stroke="black" points="483.5,-343.5 483.5,-373.5 611.5,-373.5 611.5,-343.5 483.5,-343.5"/>
<text text-anchor="start" x="491.5" y="-361.5" font-family="Helvetica,sans-Serif" font-size="10.00">infra::ReinterpretCastByte</text>
<text text-anchor="middle" x="547.5" y="-350.5" font-family="Helvetica,sans-Serif" font-size="10.00">Range</text>
</a>
</g>
</g>
<!-- Node72&#45;&gt;Node76 -->
<g id="edge9" class="edge"><title>Node72&#45;&gt;Node76</title>
<path fill="none" stroke="midnightblue" d="M385.298,-294.158C405.113,-304.678 438.268,-321.591 468,-333.5 473.751,-335.803 479.803,-338.043 485.889,-340.175"/>
<polygon fill="midnightblue" stroke="midnightblue" points="484.849,-343.518 495.444,-343.429 487.106,-336.892 484.849,-343.518"/>
</g>
<!-- Node74 -->
<g id="node8" class="node"><title>Node74</title>
<g id="a_node8"><a xlink:href="../../d1/d2a/classinfra_1_1_bounded_string_base.html#aef23e4250cad2fdc69ccc39f68734233" target="_top" xlink:title="infra::BoundedStringBase\l::begin">
<polygon fill="white" stroke="black" points="674,-322.5 674,-352.5 801,-352.5 801,-322.5 674,-322.5"/>
<text text-anchor="start" x="682" y="-340.5" font-family="Helvetica,sans-Serif" font-size="10.00">infra::BoundedStringBase</text>
<text text-anchor="middle" x="737.5" y="-329.5" font-family="Helvetica,sans-Serif" font-size="10.00">::begin</text>
</a>
</g>
</g>
<!-- Node73&#45;&gt;Node74 -->
<g id="edge7" class="edge"><title>Node73&#45;&gt;Node74</title>
<path fill="none" stroke="midnightblue" d="M593.531,-320.009C614.537,-322.579 640.07,-325.703 663.713,-328.595"/>
<polygon fill="midnightblue" stroke="midnightblue" points="663.361,-332.078 673.712,-329.818 664.211,-325.13 663.361,-332.078"/>
</g>
<!-- Node75 -->
<g id="node9" class="node"><title>Node75</title>
<g id="a_node9"><a xlink:href="../../d1/d2a/classinfra_1_1_bounded_string_base.html#af5021f1ea3898146d0a55c2895f07dbf" target="_top" xlink:title="infra::BoundedStringBase::end">
<polygon fill="white" stroke="black" points="663,-372 663,-391 812,-391 812,-372 663,-372"/>
<text text-anchor="middle" x="737.5" y="-379" font-family="Helvetica,sans-Serif" font-size="10.00">infra::BoundedStringBase::end</text>
</a>
</g>
</g>
<!-- Node73&#45;&gt;Node75 -->
<g id="edge8" class="edge"><title>Node73&#45;&gt;Node75</title>
<path fill="none" stroke="midnightblue" d="M593.642,-322.631C604.866,-325.555 616.642,-329.429 627,-334.5 645.205,-343.412 644.81,-353.556 663,-362.5 667.879,-364.899 673.094,-367.018 678.41,-368.885"/>
<polygon fill="midnightblue" stroke="midnightblue" points="677.445,-372.252 688.037,-371.981 679.588,-365.588 677.445,-372.252"/>
</g>
<!-- Node77&#45;&gt;Node70 -->
<g id="edge13" class="edge"><title>Node77&#45;&gt;Node70</title>
<path fill="none" stroke="midnightblue" d="M253.591,-231.16C265.796,-232.833 279.164,-234.666 292.28,-236.464"/>
<polygon fill="midnightblue" stroke="midnightblue" points="291.854,-239.938 302.237,-237.828 292.805,-233.003 291.854,-239.938"/>
</g>
<!-- Node77&#45;&gt;Node72 -->
<g id="edge14" class="edge"><title>Node77&#45;&gt;Node72</title>
<path fill="none" stroke="midnightblue" d="M241.546,-239.567C249.303,-242.81 257.433,-246.243 265,-249.5 281.082,-256.423 284.567,-259.458 301,-265.5 307.112,-267.747 313.622,-269.917 320.068,-271.937"/>
<polygon fill="midnightblue" stroke="midnightblue" points="319.491,-275.419 330.076,-274.977 321.525,-268.722 319.491,-275.419"/>
</g>
<!-- Node78 -->
<g id="node12" class="node"><title>Node78</title>
<g id="a_node12"><a xlink:href="../../df/d28/classservices_1_1_flash_spi.html#ab3e39e788eabd2a0e2c71e1e8a0cea85" target="_top" xlink:title="services::FlashSpi\l::ConvertAddress">
<polygon fill="white" stroke="black" points="318.5,-149.5 318.5,-179.5 414.5,-179.5 414.5,-149.5 318.5,-149.5"/>
<text text-anchor="start" x="326.5" y="-167.5" font-family="Helvetica,sans-Serif" font-size="10.00">services::FlashSpi</text>
<text text-anchor="middle" x="366.5" y="-156.5" font-family="Helvetica,sans-Serif" font-size="10.00">::ConvertAddress</text>
</a>
</g>
</g>
<!-- Node77&#45;&gt;Node78 -->
<g id="edge11" class="edge"><title>Node77&#45;&gt;Node78</title>
<path fill="none" stroke="midnightblue" d="M245.501,-209.359C266.871,-201.37 293.273,-191.501 315.866,-183.055"/>
<polygon fill="midnightblue" stroke="midnightblue" points="317.149,-186.312 325.29,-179.532 314.698,-179.755 317.149,-186.312"/>
</g>
<!-- Node79 -->
<g id="node13" class="node"><title>Node79</title>
<g id="a_node13"><a xlink:href="../../d8/d29/classhal_1_1_flash_homogeneous.html#addb167ba9e733c6041f17ebf9eda5ad1" target="_top" xlink:title="hal::FlashHomogeneous\l::AddressOfSector">
<polygon fill="white" stroke="black" points="305.5,-100.5 305.5,-130.5 427.5,-130.5 427.5,-100.5 305.5,-100.5"/>
<text text-anchor="start" x="313.5" y="-118.5" font-family="Helvetica,sans-Serif" font-size="10.00">hal::FlashHomogeneous</text>
<text text-anchor="middle" x="366.5" y="-107.5" font-family="Helvetica,sans-Serif" font-size="10.00">::AddressOfSector</text>
</a>
</g>
</g>
<!-- Node77&#45;&gt;Node79 -->
<g id="edge12" class="edge"><title>Node77&#45;&gt;Node79</title>
<path fill="none" stroke="midnightblue" d="M251.673,-209.495C256.443,-206.915 260.998,-203.933 265,-200.5 288.892,-180.002 276.86,-159.706 301,-139.5 302.546,-138.206 304.169,-136.978 305.851,-135.813"/>
<polygon fill="midnightblue" stroke="midnightblue" points="307.915,-138.656 314.681,-130.503 304.307,-132.657 307.915,-138.656"/>
</g>
<!-- Node80 -->
<g id="node14" class="node"><title>Node80</title>
<g id="a_node14"><a xlink:href="../../d8/dcc/classinfra_1_1_sequencer.html#a540855dbc1e4f39faed3b55ec7c947c0" target="_top" xlink:title="infra::Sequencer::Continue">
<polygon fill="white" stroke="black" points="301,-199 301,-218 432,-218 432,-199 301,-199"/>
<text text-anchor="middle" x="366.5" y="-206" font-family="Helvetica,sans-Serif" font-size="10.00">infra::Sequencer::Continue</text>
</a>
</g>
</g>
<!-- Node77&#45;&gt;Node80 -->
<g id="edge15" class="edge"><title>Node77&#45;&gt;Node80</title>
<path fill="none" stroke="midnightblue" d="M253.591,-219.656C265.312,-218.488 278.106,-217.212 290.72,-215.955"/>
<polygon fill="midnightblue" stroke="midnightblue" points="291.169,-219.427 300.772,-214.953 290.474,-212.462 291.169,-219.427"/>
</g>
<!-- Node81 -->
<g id="node15" class="node"><title>Node81</title>
<g id="a_node15"><a xlink:href="../../dc/de7/classinfra_1_1_bounded_vector.html#a0d65fc52854eb5ee43419e451e3cd49a" target="_top" xlink:title="infra::BoundedVector\l::clear">
<polygon fill="white" stroke="black" points="494,-19.5 494,-49.5 601,-49.5 601,-19.5 494,-19.5"/>
<text text-anchor="start" x="502" y="-37.5" font-family="Helvetica,sans-Serif" font-size="10.00">infra::BoundedVector</text>
<text text-anchor="middle" x="547.5" y="-26.5" font-family="Helvetica,sans-Serif" font-size="10.00">::clear</text>
</a>
</g>
</g>
<!-- Node80&#45;&gt;Node81 -->
<g id="edge16" class="edge"><title>Node80&#45;&gt;Node81</title>
<path fill="none" stroke="midnightblue" d="M418.898,-198.848C423.739,-196.394 428.234,-193.328 432,-189.5 474.045,-146.763 426.424,-102.694 468,-59.5 472.732,-54.5843 478.426,-50.6325 484.559,-47.4561"/>
<polygon fill="midnightblue" stroke="midnightblue" points="486.091,-50.605 493.799,-43.3351 483.24,-44.212 486.091,-50.605"/>
</g>
<!-- Node82 -->
<g id="node16" class="node"><title>Node82</title>
<g id="a_node16"><a xlink:href="../../d8/dcc/classinfra_1_1_sequencer.html#a144aefdee6184f0c01287ef64e4e588a" target="_top" xlink:title="infra::Sequencer::Execute\lNextStep">
<polygon fill="white" stroke="black" points="673,-98.5 673,-128.5 802,-128.5 802,-98.5 673,-98.5"/>
<text text-anchor="start" x="681" y="-116.5" font-family="Helvetica,sans-Serif" font-size="10.00">infra::Sequencer::Execute</text>
<text text-anchor="middle" x="737.5" y="-105.5" font-family="Helvetica,sans-Serif" font-size="10.00">NextStep</text>
</a>
</g>
</g>
<!-- Node80&#45;&gt;Node82 -->
<g id="edge17" class="edge"><title>Node80&#45;&gt;Node82</title>
<path fill="none" stroke="midnightblue" d="M406.347,-198.985C414.962,-196.347 423.926,-193.178 432,-189.5 449.278,-181.628 450.38,-173.573 468,-166.5 531.096,-141.174 607.545,-127.601 662.706,-120.555"/>
<polygon fill="midnightblue" stroke="midnightblue" points="663.255,-124.014 672.75,-119.314 662.396,-117.067 663.255,-124.014"/>
</g>
<!-- Node84 -->
<g id="node18" class="node"><title>Node84</title>
<g id="a_node18"><a xlink:href="../../d8/dcc/classinfra_1_1_sequencer.html#aa8d62e488058da02b14a31017a33b199" target="_top" xlink:title="infra::Sequencer::Finished">
<polygon fill="white" stroke="black" points="672.5,-284 672.5,-303 802.5,-303 802.5,-284 672.5,-284"/>
<text text-anchor="middle" x="737.5" y="-291" font-family="Helvetica,sans-Serif" font-size="10.00">infra::Sequencer::Finished</text>
</a>
</g>
</g>
<!-- Node80&#45;&gt;Node84 -->
<g id="edge19" class="edge"><title>Node80&#45;&gt;Node84</title>
<path fill="none" stroke="midnightblue" d="M432.204,-207.95C486.16,-209.58 564.092,-216.87 627,-242.5 645.522,-250.046 645.256,-260.272 663,-269.5 671.309,-273.821 680.547,-277.569 689.592,-280.736"/>
<polygon fill="midnightblue" stroke="midnightblue" points="688.684,-284.122 699.278,-283.944 690.885,-277.477 688.684,-284.122"/>
</g>
<!-- Node86 -->
<g id="node20" class="node"><title>Node86</title>
<g id="a_node20"><a xlink:href="../../d8/dcc/classinfra_1_1_sequencer.html#a5a0bb79e770ee68910377bcbd24f9c14" target="_top" xlink:title="infra::Sequencer::PopContext">
<polygon fill="white" stroke="black" points="475.5,-176 475.5,-195 619.5,-195 619.5,-176 475.5,-176"/>
<text text-anchor="middle" x="547.5" y="-183" font-family="Helvetica,sans-Serif" font-size="10.00">infra::Sequencer::PopContext</text>
</a>
</g>
</g>
<!-- Node80&#45;&gt;Node86 -->
<g id="edge21" class="edge"><title>Node80&#45;&gt;Node86</title>
<path fill="none" stroke="midnightblue" d="M432.123,-200.196C442.857,-198.817 454.109,-197.371 465.193,-195.947"/>
<polygon fill="midnightblue" stroke="midnightblue" points="465.832,-199.394 475.304,-194.648 464.94,-192.451 465.832,-199.394"/>
</g>
<!-- Node90 -->
<g id="node24" class="node"><title>Node90</title>
<g id="a_node24"><a xlink:href="../../d8/dcc/classinfra_1_1_sequencer.html#adb44b85c61f00faae6ca6ad1de6a7380" target="_top" xlink:title="infra::Sequencer::PushContext">
<polygon fill="white" stroke="black" points="473,-69 473,-88 622,-88 622,-69 473,-69"/>
<text text-anchor="middle" x="547.5" y="-76" font-family="Helvetica,sans-Serif" font-size="10.00">infra::Sequencer::PushContext</text>
</a>
</g>
</g>
<!-- Node80&#45;&gt;Node90 -->
<g id="edge29" class="edge"><title>Node80&#45;&gt;Node90</title>
<path fill="none" stroke="midnightblue" d="M416.249,-198.979C421.936,-196.513 427.355,-193.409 432,-189.5 459.679,-166.208 442.327,-141.986 468,-116.5 478.549,-106.028 492.552,-97.9992 505.808,-92.08"/>
<polygon fill="midnightblue" stroke="midnightblue" points="507.383,-95.2151 515.268,-88.138 504.691,-88.7536 507.383,-95.2151"/>
</g>
<!-- Node83 -->
<g id="node17" class="node"><title>Node83</title>
<g id="a_node17"><a xlink:href="../../dc/de7/classinfra_1_1_bounded_vector.html#aa142a336c186d6e58c5573ba860be106" target="_top" xlink:title="infra::BoundedVector\l::back">
<polygon fill="white" stroke="black" points="848,-164.5 848,-194.5 955,-194.5 955,-164.5 848,-164.5"/>
<text text-anchor="start" x="856" y="-182.5" font-family="Helvetica,sans-Serif" font-size="10.00">infra::BoundedVector</text>
<text text-anchor="middle" x="901.5" y="-171.5" font-family="Helvetica,sans-Serif" font-size="10.00">::back</text>
</a>
</g>
</g>
<!-- Node82&#45;&gt;Node83 -->
<g id="edge18" class="edge"><title>Node82&#45;&gt;Node83</title>
<path fill="none" stroke="midnightblue" d="M787.442,-128.515C795.704,-131.324 804.144,-134.368 812,-137.5 828.615,-144.124 846.515,-152.394 861.84,-159.84"/>
<polygon fill="midnightblue" stroke="midnightblue" points="860.496,-163.079 871.015,-164.347 863.583,-156.796 860.496,-163.079"/>
</g>
<!-- Node85 -->
<g id="node19" class="node"><title>Node85</title>
<g id="a_node19"><a xlink:href="../../dc/de7/classinfra_1_1_bounded_vector.html#ab9477e08e53eb7d020fac8bd1d37fda7" target="_top" xlink:title="infra::BoundedVector\l::empty">
<polygon fill="white" stroke="black" points="848,-259.5 848,-289.5 955,-289.5 955,-259.5 848,-259.5"/>
<text text-anchor="start" x="856" y="-277.5" font-family="Helvetica,sans-Serif" font-size="10.00">infra::BoundedVector</text>
<text text-anchor="middle" x="901.5" y="-266.5" font-family="Helvetica,sans-Serif" font-size="10.00">::empty</text>
</a>
</g>
</g>
<!-- Node84&#45;&gt;Node85 -->
<g id="edge20" class="edge"><title>Node84&#45;&gt;Node85</title>
<path fill="none" stroke="midnightblue" d="M802.527,-285.991C814.155,-284.627 826.273,-283.206 837.861,-281.847"/>
<polygon fill="midnightblue" stroke="midnightblue" points="838.358,-285.312 847.882,-280.671 837.543,-278.36 838.358,-285.312"/>
</g>
<!-- Node86&#45;&gt;Node82 -->
<g id="edge24" class="edge"><title>Node86&#45;&gt;Node82</title>
<path fill="none" stroke="midnightblue" d="M569.817,-175.95C592.657,-165.863 630.073,-149.755 663,-137.5 668.111,-135.598 673.45,-133.695 678.818,-131.84"/>
<polygon fill="midnightblue" stroke="midnightblue" points="680.123,-135.093 688.465,-128.562 677.87,-128.465 680.123,-135.093"/>
</g>
<!-- Node86&#45;&gt;Node84 -->
<g id="edge25" class="edge"><title>Node86&#45;&gt;Node84</title>
<path fill="none" stroke="midnightblue" d="M599.336,-195.078C609.17,-198.517 618.916,-203.18 627,-209.5 651.5,-228.654 638.682,-250.115 663,-269.5 668.289,-273.716 674.344,-277.203 680.658,-280.083"/>
<polygon fill="midnightblue" stroke="midnightblue" points="679.453,-283.371 690.035,-283.884 682.083,-276.884 679.453,-283.371"/>
</g>
<!-- Node86&#45;&gt;Node85 -->
<g id="edge22" class="edge"><title>Node86&#45;&gt;Node85</title>
<path fill="none" stroke="midnightblue" d="M600.433,-195.112C609.562,-197.806 618.768,-201.212 627,-205.5 645.727,-215.254 643.85,-227.606 663,-236.5 718.334,-262.198 787.868,-270.941 837.37,-273.711"/>
<polygon fill="midnightblue" stroke="midnightblue" points="837.456,-277.22 847.616,-274.216 837.8,-270.228 837.456,-277.22"/>
</g>
<!-- Node87 -->
<g id="node21" class="node"><title>Node87</title>
<g id="a_node21"><a xlink:href="../../d8/dcc/classinfra_1_1_sequencer.html#abfc36f76cfc75495f321bc6643826c98" target="_top" xlink:title="infra::Sequencer::Execute\lCurrentStep">
<polygon fill="white" stroke="black" points="673,-49.5 673,-79.5 802,-79.5 802,-49.5 673,-49.5"/>
<text text-anchor="start" x="681" y="-67.5" font-family="Helvetica,sans-Serif" font-size="10.00">infra::Sequencer::Execute</text>
<text text-anchor="middle" x="737.5" y="-56.5" font-family="Helvetica,sans-Serif" font-size="10.00">CurrentStep</text>
</a>
</g>
</g>
<!-- Node86&#45;&gt;Node87 -->
<g id="edge23" class="edge"><title>Node86&#45;&gt;Node87</title>
<path fill="none" stroke="midnightblue" d="M557.35,-175.821C575.426,-156.584 618.643,-113.267 663,-88.5 666.082,-86.7791 669.307,-85.1586 672.612,-83.6358"/>
<polygon fill="midnightblue" stroke="midnightblue" points="674.258,-86.739 682.088,-79.6016 671.516,-80.2983 674.258,-86.739"/>
</g>
<!-- Node88 -->
<g id="node22" class="node"><title>Node88</title>
<g id="a_node22"><a xlink:href="../../d8/dcc/classinfra_1_1_sequencer.html#aa1da1c05382c54296fe23b30d6cf6cf8" target="_top" xlink:title="infra::Sequencer::Increase\lCurrentStep">
<polygon fill="white" stroke="black" points="672.5,-196.5 672.5,-226.5 802.5,-226.5 802.5,-196.5 672.5,-196.5"/>
<text text-anchor="start" x="680.5" y="-214.5" font-family="Helvetica,sans-Serif" font-size="10.00">infra::Sequencer::Increase</text>
<text text-anchor="middle" x="737.5" y="-203.5" font-family="Helvetica,sans-Serif" font-size="10.00">CurrentStep</text>
</a>
</g>
</g>
<!-- Node86&#45;&gt;Node88 -->
<g id="edge26" class="edge"><title>Node86&#45;&gt;Node88</title>
<path fill="none" stroke="midnightblue" d="M617.437,-195.034C631.997,-197.047 647.422,-199.181 662.171,-201.22"/>
<polygon fill="midnightblue" stroke="midnightblue" points="661.87,-204.712 672.255,-202.615 662.829,-197.778 661.87,-204.712"/>
</g>
<!-- Node89 -->
<g id="node23" class="node"><title>Node89</title>
<g id="a_node23"><a xlink:href="../../dc/de7/classinfra_1_1_bounded_vector.html#acd442a237e9f5935f766dd3ef4a818e9" target="_top" xlink:title="infra::BoundedVector\l::pop_back">
<polygon fill="white" stroke="black" points="684,-147.5 684,-177.5 791,-177.5 791,-147.5 684,-147.5"/>
<text text-anchor="start" x="692" y="-165.5" font-family="Helvetica,sans-Serif" font-size="10.00">infra::BoundedVector</text>
<text text-anchor="middle" x="737.5" y="-154.5" font-family="Helvetica,sans-Serif" font-size="10.00">::pop_back</text>
</a>
</g>
</g>
<!-- Node86&#45;&gt;Node89 -->
<g id="edge28" class="edge"><title>Node86&#45;&gt;Node89</title>
<path fill="none" stroke="midnightblue" d="M619.575,-176.805C637.394,-174.625 656.383,-172.302 673.763,-170.175"/>
<polygon fill="midnightblue" stroke="midnightblue" points="674.289,-173.637 683.79,-168.949 673.439,-166.689 674.289,-173.637"/>
</g>
<!-- Node88&#45;&gt;Node83 -->
<g id="edge27" class="edge"><title>Node88&#45;&gt;Node83</title>
<path fill="none" stroke="midnightblue" d="M802.527,-198.853C814.155,-196.556 826.273,-194.162 837.861,-191.873"/>
<polygon fill="midnightblue" stroke="midnightblue" points="838.75,-195.265 847.882,-189.894 837.394,-188.398 838.75,-195.265"/>
</g>
<!-- Node90&#45;&gt;Node87 -->
<g id="edge30" class="edge"><title>Node90&#45;&gt;Node87</title>
<path fill="none" stroke="midnightblue" d="M622.263,-73.007C635.625,-72.012 649.559,-70.9743 662.916,-69.9797"/>
<polygon fill="midnightblue" stroke="midnightblue" points="663.286,-73.4619 672.998,-69.2289 662.766,-66.4812 663.286,-73.4619"/>
</g>
<!-- Node91 -->
<g id="node25" class="node"><title>Node91</title>
<g id="a_node25"><a xlink:href="../../dc/de7/classinfra_1_1_bounded_vector.html#a17cb2ff4e6291f156cb5a41cca1b4edf" target="_top" xlink:title="infra::BoundedVector\l::push_back">
<polygon fill="white" stroke="black" points="684,-0.5 684,-30.5 791,-30.5 791,-0.5 684,-0.5"/>
<text text-anchor="start" x="692" y="-18.5" font-family="Helvetica,sans-Serif" font-size="10.00">infra::BoundedVector</text>
<text text-anchor="middle" x="737.5" y="-7.5" font-family="Helvetica,sans-Serif" font-size="10.00">::push_back</text>
</a>
</g>
</g>
<!-- Node90&#45;&gt;Node91 -->
<g id="edge31" class="edge"><title>Node90&#45;&gt;Node91</title>
<path fill="none" stroke="midnightblue" d="M593.493,-68.9782C604.607,-66.0986 616.369,-62.5933 627,-58.5 643.883,-51.9992 646.341,-46.5555 663,-39.5 667.477,-37.604 672.158,-35.764 676.896,-34.0023"/>
<polygon fill="midnightblue" stroke="midnightblue" points="678.423,-37.173 686.655,-30.5029 676.061,-30.5838 678.423,-37.173"/>
</g>
<!-- Node92&#45;&gt;Node70 -->
<g id="edge35" class="edge"><title>Node92&#45;&gt;Node70</title>
<path fill="none" stroke="midnightblue" d="M245.043,-190.547C251.844,-193.563 258.729,-196.917 265,-200.5 282.365,-210.423 283.123,-218.532 301,-227.5 305.514,-229.765 310.345,-231.807 315.257,-233.636"/>
<polygon fill="midnightblue" stroke="midnightblue" points="314.144,-236.955 324.739,-236.896 316.42,-230.335 314.144,-236.955"/>
</g>
<!-- Node92&#45;&gt;Node72 -->
<g id="edge36" class="edge"><title>Node92&#45;&gt;Node72</title>
<path fill="none" stroke="midnightblue" d="M250.554,-190.536C255.75,-193.362 260.711,-196.662 265,-200.5 289.611,-222.52 275.233,-244.845 301,-265.5 303.263,-267.314 305.694,-268.955 308.239,-270.439"/>
<polygon fill="midnightblue" stroke="midnightblue" points="306.741,-273.603 317.255,-274.906 309.849,-267.33 306.741,-273.603"/>
</g>
<!-- Node92&#45;&gt;Node78 -->
<g id="edge33" class="edge"><title>Node92&#45;&gt;Node78</title>
<path fill="none" stroke="midnightblue" d="M262.038,-171.591C277.046,-170.562 293.239,-169.453 308.257,-168.423"/>
<polygon fill="midnightblue" stroke="midnightblue" points="308.7,-171.901 318.438,-167.725 308.222,-164.917 308.7,-171.901"/>
</g>
<!-- Node92&#45;&gt;Node79 -->
<g id="edge34" class="edge"><title>Node92&#45;&gt;Node79</title>
<path fill="none" stroke="midnightblue" d="M245.161,-160.414C262.354,-153.962 282.658,-146.352 301,-139.5 305.706,-137.742 310.606,-135.914 315.51,-134.087"/>
<polygon fill="midnightblue" stroke="midnightblue" points="316.744,-137.362 324.894,-130.591 314.301,-130.802 316.744,-137.362"/>
</g>
<!-- Node92&#45;&gt;Node80 -->
<g id="edge37" class="edge"><title>Node92&#45;&gt;Node80</title>
<path fill="none" stroke="midnightblue" d="M262.038,-187.227C277.412,-190.388 294.029,-193.805 309.354,-196.956"/>
<polygon fill="midnightblue" stroke="midnightblue" points="308.711,-200.397 319.211,-198.983 310.121,-193.54 308.711,-200.397"/>
</g>
</g>
</svg>
