<?xml version="1.0" encoding="UTF-8" standalone="no"?>
<!DOCTYPE svg PUBLIC "-//W3C//DTD SVG 1.1//EN"
 "http://www.w3.org/Graphics/SVG/1.1/DTD/svg11.dtd">
<!-- Generated by graphviz version 2.38.0 (20140413.2041)
 -->
<!-- Title: services::FactoryDefaultConfigurationStore&lt; T &gt; Pages: 1 -->
<!--zoomable 279 -->
<svg id="main" version="1.1" xmlns="http://www.w3.org/2000/svg" xmlns:xlink="http://www.w3.org/1999/xlink" xml:space="preserve" onload="init(evt)">
<style type="text/css"><![CDATA[
.edge:hover path { stroke: red; }
.edge:hover polygon { stroke: red; fill: red; }
]]></style>
<script type="text/javascript"><![CDATA[
var edges = document.getElementsByTagName('g');
if (edges && edges.length) {
  for (var i=0;i<edges.length;i++) {
    if (edges[i].id.substr(0,4)=='edge') {
      edges[i].setAttribute('class','edge');
    }
  }
}
]]></script>
        <defs>
                <circle id="rim" cx="0" cy="0" r="7"/>
                <circle id="rim2" cx="0" cy="0" r="3.5"/>
                <g id="zoomPlus">
                        <use xlink:href="#rim" fill="#404040">
                                <set attributeName="fill" to="#808080" begin="zoomplus.mouseover" end="zoomplus.mouseout"/>
                        </use>
                        <path d="M-4,0h8M0,-4v8" fill="none" stroke="white" stroke-width="1.5" pointer-events="none"/>
                </g>
                <g id="zoomMin">
                        <use xlink:href="#rim" fill="#404040">
                                <set attributeName="fill" to="#808080" begin="zoomminus.mouseover" end="zoomminus.mouseout"/>
                        </use>
                        <path d="M-4,0h8" fill="none" stroke="white" stroke-width="1.5" pointer-events="none"/>
                </g>
                <g id="dirArrow">
                        <path fill="none" stroke="white" stroke-width="1.5" d="M0,-3.0v7 M-2.5,-0.5L0,-3.0L2.5,-0.5"/>
                </g>
               <g id="resetDef">
                       <use xlink:href="#rim2" fill="#404040">
                               <set attributeName="fill" to="#808080" begin="reset.mouseover" end="reset.mouseout"/>
                       </use>
               </g>
        </defs>

<script type="text/javascript">
var viewWidth = 926;
var viewHeight = 279;
var sectionId = 'dynsection-1';
</script>
<script xlink:href="../../svgpan.js"/>
<svg id="graph" class="graph">
<g id="viewport">
<title>services::FactoryDefaultConfigurationStore&lt; T &gt;</title>
<polygon fill="white" stroke="none" points="-4,4 -4,-274.5 922,-274.5 922,4 -4,4"/>
<!-- Node5 -->
<g id="node1" class="node"><title>Node5</title>
<polygon fill="#bfbfbf" stroke="black" points="797,-65 797,-95 918,-95 918,-65 797,-65"/>
<text text-anchor="start" x="805" y="-83" font-family="Helvetica,sans-Serif" font-size="10.00">services::FactoryDefault</text>
<text text-anchor="middle" x="857.5" y="-72" font-family="Helvetica,sans-Serif" font-size="10.00">ConfigurationStore&lt; T &gt;</text>
</g>
<!-- Node6 -->
<g id="node2" class="node"><title>Node6</title>
<g id="a_node2"><a xlink:href="../../de/def/classservices_1_1_factory_default_configuration_store_base.html" target="_top" xlink:title="services::FactoryDefault\lConfigurationStoreBase">
<polygon fill="white" stroke="black" points="538,-109 538,-139 659,-139 659,-109 538,-109"/>
<text text-anchor="start" x="546" y="-127" font-family="Helvetica,sans-Serif" font-size="10.00">services::FactoryDefault</text>
<text text-anchor="middle" x="598.5" y="-116" font-family="Helvetica,sans-Serif" font-size="10.00">ConfigurationStoreBase</text>
</a>
</g>
</g>
<!-- Node6&#45;&gt;Node5 -->
<g id="edge1" class="edge"><title>Node6&#45;&gt;Node5</title>
<path fill="none" stroke="midnightblue" d="M669.437,-112.53C702.651,-107.027 742.891,-100.279 779,-94 784.792,-92.9928 790.825,-91.929 796.855,-90.856"/>
<polygon fill="midnightblue" stroke="midnightblue" points="668.661,-109.111 659.367,-114.196 669.804,-116.017 668.661,-109.111"/>
</g>
<!-- Node7 -->
<g id="node3" class="node"><title>Node7</title>
<g id="a_node3"><a xlink:href="../../d7/d56/classservices_1_1_configuration_store_interface.html" target="_top" xlink:title="services::ConfigurationStore\lInterface">
<polygon fill="white" stroke="black" points="0,-240 0,-270 137,-270 137,-240 0,-240"/>
<text text-anchor="start" x="8" y="-258" font-family="Helvetica,sans-Serif" font-size="10.00">services::ConfigurationStore</text>
<text text-anchor="middle" x="68.5" y="-247" font-family="Helvetica,sans-Serif" font-size="10.00">Interface</text>
</a>
</g>
</g>
<!-- Node7&#45;&gt;Node6 -->
<g id="edge2" class="edge"><title>Node7&#45;&gt;Node6</title>
<path fill="none" stroke="midnightblue" d="M147.165,-250.365C171.259,-248.259 197.828,-245.253 222,-241 347.812,-218.863 379.584,-210.644 500,-168 523.282,-159.755 548.689,-148.201 567.729,-139.001"/>
<polygon fill="midnightblue" stroke="midnightblue" points="146.679,-246.893 137.005,-251.213 147.262,-253.869 146.679,-246.893"/>
</g>
<!-- Node11 -->
<g id="node7" class="node"><title>Node11</title>
<g id="a_node7"><a xlink:href="../../d4/dc9/classservices_1_1_configuration_store_base.html" target="_top" xlink:title="services::ConfigurationStoreBase">
<polygon fill="white" stroke="black" points="240,-114.5 240,-133.5 400,-133.5 400,-114.5 240,-114.5"/>
<text text-anchor="middle" x="320" y="-121.5" font-family="Helvetica,sans-Serif" font-size="10.00">services::ConfigurationStoreBase</text>
</a>
</g>
</g>
<!-- Node7&#45;&gt;Node11 -->
<g id="edge7" class="edge"><title>Node7&#45;&gt;Node11</title>
<path fill="none" stroke="midnightblue" d="M147.177,-241.622C178.983,-234.656 210.924,-225.236 222,-214 244.853,-190.816 216.84,-165.877 240,-143 243.814,-139.233 248.236,-136.166 253.002,-133.673"/>
<polygon fill="midnightblue" stroke="midnightblue" points="146.393,-238.21 137.334,-243.704 147.842,-245.059 146.393,-238.21"/>
</g>
<!-- Node8 -->
<g id="node4" class="node"><title>Node8</title>
<g id="a_node4"><a xlink:href="../../d5/d33/classinfra_1_1_auto_reset_function.html" target="_top" xlink:title="infra::AutoResetFunction\l\&lt; void(bool isFactoryDefault)\&gt;">
<polygon fill="white" stroke="black" points="247,-153 247,-183 393,-183 393,-153 247,-153"/>
<text text-anchor="start" x="255" y="-171" font-family="Helvetica,sans-Serif" font-size="10.00">infra::AutoResetFunction</text>
<text text-anchor="middle" x="320" y="-160" font-family="Helvetica,sans-Serif" font-size="10.00">&lt; void(bool isFactoryDefault)&gt;</text>
</a>
</g>
</g>
<!-- Node8&#45;&gt;Node6 -->
<g id="edge3" class="edge"><title>Node8&#45;&gt;Node6</title>
<path fill="none" stroke="#9a32cd" stroke-dasharray="5,2" d="M403.214,-154.917C446.427,-148.041 498.433,-139.765 537.76,-133.507"/>
<polygon fill="#9a32cd" stroke="#9a32cd" points="402.612,-151.469 393.286,-156.497 403.712,-158.382 402.612,-151.469"/>
<text text-anchor="middle" x="459" y="-156" font-family="Helvetica,sans-Serif" font-size="10.00"> onRecovered</text>
</g>
<!-- Node9 -->
<g id="node5" class="node"><title>Node9</title>
<g id="a_node5"><a xlink:href="../../d5/d33/classinfra_1_1_auto_reset_function.html" target="_top" xlink:title="infra::AutoResetFunction\l\&lt; void()\&gt;">
<polygon fill="white" stroke="black" points="6.5,-52 6.5,-82 130.5,-82 130.5,-52 6.5,-52"/>
<text text-anchor="start" x="14.5" y="-70" font-family="Helvetica,sans-Serif" font-size="10.00">infra::AutoResetFunction</text>
<text text-anchor="middle" x="68.5" y="-59" font-family="Helvetica,sans-Serif" font-size="10.00">&lt; void()&gt;</text>
</a>
</g>
</g>
<!-- Node9&#45;&gt;Node6 -->
<g id="edge4" class="edge"><title>Node9&#45;&gt;Node6</title>
<path fill="none" stroke="#9a32cd" stroke-dasharray="5,2" d="M140.568,-71.3781C207.593,-75.8449 310.801,-83.5945 400,-94 446.332,-99.4049 498.497,-107.411 537.575,-113.794"/>
<polygon fill="#9a32cd" stroke="#9a32cd" points="140.748,-67.8825 130.539,-70.7163 140.287,-74.8673 140.748,-67.8825"/>
<text text-anchor="middle" x="320" y="-97" font-family="Helvetica,sans-Serif" font-size="10.00"> onLoadFactoryDefault</text>
</g>
<!-- Node9&#45;&gt;Node11 -->
<g id="edge8" class="edge"><title>Node9&#45;&gt;Node11</title>
<path fill="none" stroke="#9a32cd" stroke-dasharray="5,2" d="M140.368,-83.1903C184.612,-93.2981 240.048,-105.963 277.332,-114.481"/>
<polygon fill="#9a32cd" stroke="#9a32cd" points="141.063,-79.7589 130.535,-80.9438 139.504,-86.5831 141.063,-79.7589"/>
<text text-anchor="middle" x="188.5" y="-104" font-family="Helvetica,sans-Serif" font-size="10.00"> onWriteDone</text>
</g>
<!-- Node10 -->
<g id="node6" class="node"><title>Node10</title>
<g id="a_node6"><a xlink:href="../../d1/da2/classservices_1_1_configuration_blob.html" target="_top" xlink:title="services::ConfigurationBlob">
<polygon fill="white" stroke="black" points="1.5,-0.5 1.5,-19.5 135.5,-19.5 135.5,-0.5 1.5,-0.5"/>
<text text-anchor="middle" x="68.5" y="-7.5" font-family="Helvetica,sans-Serif" font-size="10.00">services::ConfigurationBlob</text>
</a>
</g>
</g>
<!-- Node10&#45;&gt;Node6 -->
<g id="edge5" class="edge"><title>Node10&#45;&gt;Node6</title>
<path fill="none" stroke="#9a32cd" stroke-dasharray="5,2" d="M145.577,-20.3641C170.014,-23.8566 197.178,-27.9104 222,-32 346.812,-52.5641 379.057,-55.935 500,-93 508.063,-95.4709 509.978,-96.4017 518,-99 528.048,-102.254 538.83,-105.686 549.11,-108.928"/>
<polygon fill="#9a32cd" stroke="#9a32cd" points="146.038,-16.8945 135.645,-18.9539 145.054,-23.825 146.038,-16.8945"/>
<text text-anchor="middle" x="320" y="-68" font-family="Helvetica,sans-Serif" font-size="10.00"> factoryDefaultBlob</text>
</g>
<!-- Node10&#45;&gt;Node11 -->
<g id="edge12" class="edge"><title>Node10&#45;&gt;Node11</title>
<path fill="none" stroke="#9a32cd" stroke-dasharray="5,2" d="M114.928,-22.3649C145.858,-31.5316 187.318,-45.3032 222,-62 238.748,-70.0627 282.364,-99.1386 304.965,-114.437"/>
<polygon fill="#9a32cd" stroke="#9a32cd" points="115.857,-18.9903 105.277,-19.5526 113.899,-25.7107 115.857,-18.9903"/>
<text text-anchor="middle" x="188.5" y="-76" font-family="Helvetica,sans-Serif" font-size="10.00"> activeBlob</text>
<text text-anchor="middle" x="188.5" y="-65" font-family="Helvetica,sans-Serif" font-size="10.00">inactiveBlob</text>
</g>
<!-- Node11&#45;&gt;Node6 -->
<g id="edge6" class="edge"><title>Node11&#45;&gt;Node6</title>
<path fill="none" stroke="#9a32cd" stroke-dasharray="5,2" d="M410.384,-124C452.021,-124 500.443,-124 537.597,-124"/>
<polygon fill="#9a32cd" stroke="#9a32cd" points="410.234,-120.5 400.234,-124 410.234,-127.5 410.234,-120.5"/>
<text text-anchor="middle" x="459" y="-127" font-family="Helvetica,sans-Serif" font-size="10.00"> configurationStore</text>
</g>
<!-- Node12 -->
<g id="node8" class="node"><title>Node12</title>
<g id="a_node8"><a xlink:href="../../d5/d33/classinfra_1_1_auto_reset_function.html" target="_top" xlink:title="infra::AutoResetFunction\l\&lt; void(bool success)\&gt;">
<polygon fill="white" stroke="black" points="6.5,-191 6.5,-221 130.5,-221 130.5,-191 6.5,-191"/>
<text text-anchor="start" x="14.5" y="-209" font-family="Helvetica,sans-Serif" font-size="10.00">infra::AutoResetFunction</text>
<text text-anchor="middle" x="68.5" y="-198" font-family="Helvetica,sans-Serif" font-size="10.00">&lt; void(bool success)&gt;</text>
</a>
</g>
</g>
<!-- Node12&#45;&gt;Node11 -->
<g id="edge9" class="edge"><title>Node12&#45;&gt;Node11</title>
<path fill="none" stroke="#9a32cd" stroke-dasharray="5,2" d="M140.618,-201.14C168.001,-196.472 198.345,-187.622 222,-171 234.104,-162.494 227.94,-151.569 240,-143 245.405,-139.16 251.488,-136.089 257.818,-133.635"/>
<polygon fill="#9a32cd" stroke="#9a32cd" points="140.028,-197.69 130.681,-202.677 141.099,-204.607 140.028,-197.69"/>
<text text-anchor="middle" x="188.5" y="-202" font-family="Helvetica,sans-Serif" font-size="10.00"> onRecovered</text>
</g>
<!-- Node13 -->
<g id="node9" class="node"><title>Node13</title>
<polygon fill="white" stroke="#bfbfbf" points="43,-152.5 43,-171.5 94,-171.5 94,-152.5 43,-152.5"/>
<text text-anchor="middle" x="68.5" y="-159.5" font-family="Helvetica,sans-Serif" font-size="10.00">uint32_t</text>
</g>
<!-- Node13&#45;&gt;Node11 -->
<g id="edge10" class="edge"><title>Node13&#45;&gt;Node11</title>
<path fill="none" stroke="#9a32cd" stroke-dasharray="5,2" d="M104.492,-159.904C135.516,-157.726 181.979,-153.682 222,-147 224.998,-146.499 253.923,-139.62 279.413,-133.515"/>
<polygon fill="#9a32cd" stroke="#9a32cd" points="103.94,-156.433 94.198,-160.598 104.411,-163.417 103.94,-156.433"/>
<text text-anchor="middle" x="188.5" y="-159" font-family="Helvetica,sans-Serif" font-size="10.00"> lockCount</text>
</g>
<!-- Node14 -->
<g id="node10" class="node"><title>Node14</title>
<polygon fill="white" stroke="#bfbfbf" points="51,-114.5 51,-133.5 86,-133.5 86,-114.5 51,-114.5"/>
<text text-anchor="middle" x="68.5" y="-121.5" font-family="Helvetica,sans-Serif" font-size="10.00">bool</text>
</g>
<!-- Node14&#45;&gt;Node11 -->
<g id="edge11" class="edge"><title>Node14&#45;&gt;Node11</title>
<path fill="none" stroke="#9a32cd" stroke-dasharray="5,2" d="M96.3457,-124C130.392,-124 190.591,-124 239.816,-124"/>
<polygon fill="#9a32cd" stroke="#9a32cd" points="96.2579,-120.5 86.2578,-124 96.2578,-127.5 96.2579,-120.5"/>
<text text-anchor="middle" x="188.5" y="-138" font-family="Helvetica,sans-Serif" font-size="10.00"> writingBlob</text>
<text text-anchor="middle" x="188.5" y="-127" font-family="Helvetica,sans-Serif" font-size="10.00">writeRequested</text>
</g>
<!-- Node15 -->
<g id="node11" class="node"><title>Node15</title>
<g id="a_node11"><a xlink:href="../../d3/db6/classservices_1_1_configuration_store.html" target="_top" xlink:title="services::ConfigurationStore\&lt; T \&gt;">
<polygon fill="white" stroke="black" points="518,-70.5 518,-89.5 679,-89.5 679,-70.5 518,-70.5"/>
<text text-anchor="middle" x="598.5" y="-77.5" font-family="Helvetica,sans-Serif" font-size="10.00">services::ConfigurationStore&lt; T &gt;</text>
</a>
</g>
</g>
<!-- Node15&#45;&gt;Node5 -->
<g id="edge13" class="edge"><title>Node15&#45;&gt;Node5</title>
<path fill="none" stroke="midnightblue" d="M689.459,-80C725.055,-80 764.999,-80 796.899,-80"/>
<polygon fill="midnightblue" stroke="midnightblue" points="689.056,-76.5001 679.056,-80 689.056,-83.5001 689.056,-76.5001"/>
</g>
<!-- Node16 -->
<g id="node12" class="node"><title>Node16</title>
<polygon fill="white" stroke="#bfbfbf" points="530,-32.5 530,-51.5 667,-51.5 667,-32.5 530,-32.5"/>
<text text-anchor="middle" x="598.5" y="-39.5" font-family="Helvetica,sans-Serif" font-size="10.00">ConfigurationStoreImpl&lt; T &gt;</text>
</g>
<!-- Node16&#45;&gt;Node5 -->
<g id="edge14" class="edge"><title>Node16&#45;&gt;Node5</title>
<path fill="none" stroke="#9a32cd" stroke-dasharray="5,2" d="M677.471,-50.8927C709.054,-54.7806 745.831,-59.6706 779,-65 784.818,-65.9349 790.869,-66.9789 796.909,-68.069"/>
<polygon fill="#9a32cd" stroke="#9a32cd" points="677.76,-47.4022 667.41,-49.6664 676.913,-54.3507 677.76,-47.4022"/>
<text text-anchor="middle" x="738" y="-68" font-family="Helvetica,sans-Serif" font-size="10.00"> configurationStore</text>
</g>
</g>
</svg>
        <g id="navigator" transform="translate(0 0)" fill="#404254">
                <rect fill="#f2f5e9" fill-opacity="0.5" stroke="#606060" stroke-width=".5" x="0" y="0" width="60" height="60"/>
                <use id="zoomplus" xlink:href="#zoomPlus" x="17" y="9" onmousedown="handleZoom(evt,'in')"/>
                <use id="zoomminus" xlink:href="#zoomMin" x="42" y="9" onmousedown="handleZoom(evt,'out')"/>
                <use id="reset" xlink:href="#resetDef" x="30" y="36" onmousedown="handleReset()"/>
                <g id="arrowUp" xlink:href="#dirArrow" transform="translate(30 24)" onmousedown="handlePan(0,-1)">
                  <use xlink:href="#rim" fill="#404040">
                        <set attributeName="fill" to="#808080" begin="arrowUp.mouseover" end="arrowUp.mouseout"/>
                  </use>
                  <path fill="none" stroke="white" stroke-width="1.5" d="M0,-3.0v7 M-2.5,-0.5L0,-3.0L2.5,-0.5"/>
                </g>
                <g id="arrowRight" xlink:href="#dirArrow" transform="rotate(90) translate(36 -43)" onmousedown="handlePan(1,0)">
                  <use xlink:href="#rim" fill="#404040">
                        <set attributeName="fill" to="#808080" begin="arrowRight.mouseover" end="arrowRight.mouseout"/>
                  </use>
                  <path fill="none" stroke="white" stroke-width="1.5" d="M0,-3.0v7 M-2.5,-0.5L0,-3.0L2.5,-0.5"/>
                </g>
                <g id="arrowDown" xlink:href="#dirArrow" transform="rotate(180) translate(-30 -48)" onmousedown="handlePan(0,1)">
                  <use xlink:href="#rim" fill="#404040">
                        <set attributeName="fill" to="#808080" begin="arrowDown.mouseover" end="arrowDown.mouseout"/>
                  </use>
                  <path fill="none" stroke="white" stroke-width="1.5" d="M0,-3.0v7 M-2.5,-0.5L0,-3.0L2.5,-0.5"/>
                </g>
                <g id="arrowLeft" xlink:href="#dirArrow" transform="rotate(270) translate(-36 17)" onmousedown="handlePan(-1,0)">
                  <use xlink:href="#rim" fill="#404040">
                        <set attributeName="fill" to="#808080" begin="arrowLeft.mouseover" end="arrowLeft.mouseout"/>
                  </use>
                  <path fill="none" stroke="white" stroke-width="1.5" d="M0,-3.0v7 M-2.5,-0.5L0,-3.0L2.5,-0.5"/>
                </g>
        </g>
        <svg viewBox="0 0 15 15" width="100%" height="30px" preserveAspectRatio="xMaxYMin meet">
         <g id="arrow_out" transform="scale(0.3 0.3)">
          <a xlink:href="classservices_1_1_factory_default_configuration_store__coll__graph_org.svg" target="_base">
           <rect id="button" ry="5" rx="5" y="6" x="6" height="38" width="38"
                fill="#f2f5e9" fill-opacity="0.5" stroke="#606060" stroke-width="1.0"/>
           <path id="arrow"
             d="M 11.500037,31.436501 C 11.940474,20.09759 22.043105,11.32322 32.158766,21.979434 L 37.068811,17.246167 C 37.068811,17.246167 37.088388,32 37.088388,32 L 22.160133,31.978069 C 22.160133,31.978069 26.997745,27.140456 26.997745,27.140456 C 18.528582,18.264221 13.291696,25.230495 11.500037,31.436501 z"
             style="fill:#404040;"/>
          </a>
         </g>
        </svg>
</svg>
