<?xml version="1.0" encoding="UTF-8" standalone="no"?>
<!DOCTYPE svg PUBLIC "-//W3C//DTD SVG 1.1//EN"
 "http://www.w3.org/Graphics/SVG/1.1/DTD/svg11.dtd">
<!-- Generated by graphviz version 2.38.0 (20140413.2041)
 -->
<!-- Title: Graphical Class Hierarchy Pages: 1 -->
<svg width="270pt" height="78pt"
 viewBox="0.00 0.00 270.00 77.50" xmlns="http://www.w3.org/2000/svg" xmlns:xlink="http://www.w3.org/1999/xlink">
<g id="graph0" class="graph" transform="scale(1 1) rotate(0) translate(4 73.5)">
<title>Graphical Class Hierarchy</title>
<polygon fill="white" stroke="none" points="-4,4 -4,-73.5 266,-73.5 266,4 -4,4"/>
<!-- Node1014 -->
<g id="node1" class="node"><title>Node1014</title>
<polygon fill="white" stroke="#bfbfbf" points="49.5,-50 49.5,-69 81.5,-69 81.5,-50 49.5,-50"/>
<text text-anchor="middle" x="65.5" y="-57" font-family="Helvetica,sans-Serif" font-size="10.00">256</text>
</g>
<!-- Node1 -->
<g id="node2" class="node"><title>Node1</title>
<g id="a_node2"><a xlink:href="d2/d40/classinfra_1_1_with_storage.html" target="_top" xlink:title="infra::WithStorage\l\&lt; 256 \&gt;">
<polygon fill="white" stroke="black" points="167,-22.5 167,-52.5 262,-52.5 262,-22.5 167,-22.5"/>
<text text-anchor="start" x="175" y="-40.5" font-family="Helvetica,sans-Serif" font-size="10.00">infra::WithStorage</text>
<text text-anchor="middle" x="214.5" y="-29.5" font-family="Helvetica,sans-Serif" font-size="10.00">&lt; 256 &gt;</text>
</a>
</g>
</g>
<!-- Node1014&#45;&gt;Node1 -->
<g id="edge1" class="edge"><title>Node1014&#45;&gt;Node1</title>
<path fill="none" stroke="midnightblue" d="M91.8312,-55.7089C112.432,-52.6258 142.055,-48.1925 166.913,-44.4723"/>
<polygon fill="midnightblue" stroke="midnightblue" points="91.0497,-52.2868 81.6779,-57.2285 92.0858,-59.2097 91.0497,-52.2868"/>
</g>
<!-- Node0 -->
<g id="node3" class="node"><title>Node0</title>
<g id="a_node3"><a xlink:href="d9/d00/classinfra_1_1detail_1_1_storage_holder.html" target="_top" xlink:title="infra::detail::StorageHolder\l\&lt; StorageType, 256 \&gt;">
<polygon fill="white" stroke="black" points="0,-0.5 0,-30.5 131,-30.5 131,-0.5 0,-0.5"/>
<text text-anchor="start" x="8" y="-18.5" font-family="Helvetica,sans-Serif" font-size="10.00">infra::detail::StorageHolder</text>
<text text-anchor="middle" x="65.5" y="-7.5" font-family="Helvetica,sans-Serif" font-size="10.00">&lt; StorageType, 256 &gt;</text>
</a>
</g>
</g>
<!-- Node0&#45;&gt;Node1 -->
<g id="edge2" class="edge"><title>Node0&#45;&gt;Node1</title>
<path fill="none" stroke="#8b1a1a" d="M141.442,-26.7158C150.006,-27.9975 158.544,-29.2753 166.59,-30.4795"/>
<polygon fill="#8b1a1a" stroke="#8b1a1a" points="141.812,-23.2323 131.404,-25.2136 140.776,-30.1552 141.812,-23.2323"/>
</g>
</g>
</svg>
