<?xml version="1.0" encoding="UTF-8" standalone="no"?>
<!DOCTYPE svg PUBLIC "-//W3C//DTD SVG 1.1//EN"
 "http://www.w3.org/Graphics/SVG/1.1/DTD/svg11.dtd">
<!-- Generated by graphviz version 2.38.0 (20140413.2041)
 -->
<!-- Title: Graphical Class Hierarchy Pages: 1 -->
<svg width="250pt" height="66pt"
 viewBox="0.00 0.00 250.00 66.00" xmlns="http://www.w3.org/2000/svg" xmlns:xlink="http://www.w3.org/1999/xlink">
<g id="graph0" class="graph" transform="scale(1 1) rotate(0) translate(4 62)">
<title>Graphical Class Hierarchy</title>
<polygon fill="white" stroke="none" points="-4,4 -4,-62 246,-62 246,4 -4,4"/>
<!-- Node0 -->
<g id="node1" class="node"><title>Node0</title>
<g id="a_node1"><a xlink:href="df/d20/classinfra_1_1_json_visitor.html" target="_top" xlink:title="infra::JsonVisitor">
<polygon fill="white" stroke="black" points="0,-19.5 0,-38.5 89,-38.5 89,-19.5 0,-19.5"/>
<text text-anchor="middle" x="44.5" y="-26.5" font-family="Helvetica,sans-Serif" font-size="10.00">infra::JsonVisitor</text>
</a>
</g>
</g>
<!-- Node1 -->
<g id="node2" class="node"><title>Node1</title>
<g id="a_node2"><a xlink:href="da/d3e/classinfra_1_1_json_array_visitor.html" target="_top" xlink:title="infra::JsonArrayVisitor">
<polygon fill="white" stroke="black" points="127.5,-38.5 127.5,-57.5 239.5,-57.5 239.5,-38.5 127.5,-38.5"/>
<text text-anchor="middle" x="183.5" y="-45.5" font-family="Helvetica,sans-Serif" font-size="10.00">infra::JsonArrayVisitor</text>
</a>
</g>
</g>
<!-- Node0&#45;&gt;Node1 -->
<g id="edge1" class="edge"><title>Node0&#45;&gt;Node1</title>
<path fill="none" stroke="midnightblue" d="M99.3456,-36.4676C108.48,-37.7345 117.979,-39.0519 127.152,-40.324"/>
<polygon fill="midnightblue" stroke="midnightblue" points="99.6104,-32.9709 89.2243,-35.064 98.6487,-39.9046 99.6104,-32.9709"/>
</g>
<!-- Node2 -->
<g id="node3" class="node"><title>Node2</title>
<g id="a_node3"><a xlink:href="d8/d16/classinfra_1_1_json_object_visitor.html" target="_top" xlink:title="infra::JsonObjectVisitor">
<polygon fill="white" stroke="black" points="125,-0.5 125,-19.5 242,-19.5 242,-0.5 125,-0.5"/>
<text text-anchor="middle" x="183.5" y="-7.5" font-family="Helvetica,sans-Serif" font-size="10.00">infra::JsonObjectVisitor</text>
</a>
</g>
</g>
<!-- Node0&#45;&gt;Node2 -->
<g id="edge2" class="edge"><title>Node0&#45;&gt;Node2</title>
<path fill="none" stroke="midnightblue" d="M99.227,-21.5488C107.582,-20.3901 116.244,-19.1887 124.685,-18.0181"/>
<polygon fill="midnightblue" stroke="midnightblue" points="98.6487,-18.0954 89.2243,-22.936 99.6104,-25.0291 98.6487,-18.0954"/>
</g>
</g>
</svg>
