<?xml version="1.0" encoding="UTF-8" standalone="no"?>
<!DOCTYPE svg PUBLIC "-//W3C//DTD SVG 1.1//EN"
 "http://www.w3.org/Graphics/SVG/1.1/DTD/svg11.dtd">
<!-- Generated by graphviz version 2.38.0 (20140413.2041)
 -->
<!-- Title: Graphical Class Hierarchy Pages: 1 -->
<svg width="441pt" height="531pt"
 viewBox="0.00 0.00 441.00 531.00" xmlns="http://www.w3.org/2000/svg" xmlns:xlink="http://www.w3.org/1999/xlink">
<g id="graph0" class="graph" transform="scale(1 1) rotate(0) translate(4 527)">
<title>Graphical Class Hierarchy</title>
<polygon fill="white" stroke="none" points="-4,4 -4,-527 437,-527 437,4 -4,4"/>
<!-- Node0 -->
<g id="node1" class="node"><title>Node0</title>
<g id="a_node1"><a xlink:href="d7/d4a/classinfra_1_1detail_1_1_intrusive_forward_list_node.html" target="_top" xlink:title="infra::detail::Intrusive\lForwardListNode\&lt; T \&gt;">
<polygon fill="white" stroke="black" points="0,-110 0,-140 113,-140 113,-110 0,-110"/>
<text text-anchor="start" x="8" y="-128" font-family="Helvetica,sans-Serif" font-size="10.00">infra::detail::Intrusive</text>
<text text-anchor="middle" x="56.5" y="-117" font-family="Helvetica,sans-Serif" font-size="10.00">ForwardListNode&lt; T &gt;</text>
</a>
</g>
</g>
<!-- Node1 -->
<g id="node2" class="node"><title>Node1</title>
<g id="a_node2"><a xlink:href="d5/da5/classinfra_1_1_timer.html" target="_top" xlink:title="infra::Timer">
<polygon fill="white" stroke="black" points="170.5,-361.5 170.5,-380.5 235.5,-380.5 235.5,-361.5 170.5,-361.5"/>
<text text-anchor="middle" x="203" y="-368.5" font-family="Helvetica,sans-Serif" font-size="10.00">infra::Timer</text>
</a>
</g>
</g>
<!-- Node0&#45;&gt;Node1 -->
<g id="edge1" class="edge"><title>Node0&#45;&gt;Node1</title>
<path fill="none" stroke="midnightblue" d="M71.4009,-148.665C102.251,-201.184 175.364,-325.654 196.305,-361.304"/>
<polygon fill="midnightblue" stroke="midnightblue" points="74.4044,-146.868 66.3216,-140.018 68.3686,-150.413 74.4044,-146.868"/>
</g>
<!-- Node9 -->
<g id="node10" class="node"><title>Node9</title>
<g id="a_node10"><a xlink:href="da/def/classinfra_1_1_timer_service.html" target="_top" xlink:title="infra::TimerService">
<polygon fill="white" stroke="black" points="155,-137.5 155,-156.5 251,-156.5 251,-137.5 155,-137.5"/>
<text text-anchor="middle" x="203" y="-144.5" font-family="Helvetica,sans-Serif" font-size="10.00">infra::TimerService</text>
</a>
</g>
</g>
<!-- Node0&#45;&gt;Node9 -->
<g id="edge9" class="edge"><title>Node0&#45;&gt;Node9</title>
<path fill="none" stroke="midnightblue" d="M123.408,-135.034C133.969,-136.642 144.712,-138.278 154.726,-139.803"/>
<polygon fill="midnightblue" stroke="midnightblue" points="123.78,-131.551 113.367,-133.506 122.727,-138.471 123.78,-131.551"/>
</g>
<!-- Node15 -->
<g id="node16" class="node"><title>Node15</title>
<g id="a_node16"><a xlink:href="d8/d2e/classservices_1_1_cyclic_store_1_1_iterator.html" target="_top" xlink:title="services::CyclicStore\l::Iterator">
<polygon fill="white" stroke="black" points="149,-88 149,-118 257,-118 257,-88 149,-88"/>
<text text-anchor="start" x="157" y="-106" font-family="Helvetica,sans-Serif" font-size="10.00">services::CyclicStore</text>
<text text-anchor="middle" x="203" y="-95" font-family="Helvetica,sans-Serif" font-size="10.00">::Iterator</text>
</a>
</g>
</g>
<!-- Node0&#45;&gt;Node15 -->
<g id="edge15" class="edge"><title>Node0&#45;&gt;Node15</title>
<path fill="none" stroke="midnightblue" d="M123.263,-114.988C131.765,-113.693 140.387,-112.381 148.654,-111.122"/>
<polygon fill="midnightblue" stroke="midnightblue" points="122.727,-111.529 113.367,-116.494 123.78,-118.449 122.727,-111.529"/>
</g>
<!-- Node16 -->
<g id="node17" class="node"><title>Node16</title>
<g id="a_node17"><a xlink:href="d7/d62/classservices_1_1_http_page.html" target="_top" xlink:title="services::HttpPage">
<polygon fill="white" stroke="black" points="154,-25.5 154,-44.5 252,-44.5 252,-25.5 154,-25.5"/>
<text text-anchor="middle" x="203" y="-32.5" font-family="Helvetica,sans-Serif" font-size="10.00">services::HttpPage</text>
</a>
</g>
</g>
<!-- Node0&#45;&gt;Node16 -->
<g id="edge16" class="edge"><title>Node0&#45;&gt;Node16</title>
<path fill="none" stroke="midnightblue" d="M90.1954,-104.636C120.352,-85.8535 163.798,-58.7935 186.636,-44.569"/>
<polygon fill="midnightblue" stroke="midnightblue" points="88.3239,-101.678 81.6861,-109.936 92.0247,-107.62 88.3239,-101.678"/>
</g>
<!-- Node2 -->
<g id="node3" class="node"><title>Node2</title>
<g id="a_node3"><a xlink:href="d9/dec/classinfra_1_1_timer_alternating.html" target="_top" xlink:title="infra::TimerAlternating">
<polygon fill="white" stroke="black" points="307.5,-503.5 307.5,-522.5 418.5,-522.5 418.5,-503.5 307.5,-503.5"/>
<text text-anchor="middle" x="363" y="-510.5" font-family="Helvetica,sans-Serif" font-size="10.00">infra::TimerAlternating</text>
</a>
</g>
</g>
<!-- Node1&#45;&gt;Node2 -->
<g id="edge2" class="edge"><title>Node1&#45;&gt;Node2</title>
<path fill="none" stroke="midnightblue" d="M212.567,-389.932C225.854,-417.13 254.018,-466.954 293,-494 298.615,-497.896 305.002,-500.994 311.57,-503.459"/>
<polygon fill="midnightblue" stroke="midnightblue" points="215.647,-388.259 208.212,-380.711 209.318,-391.248 215.647,-388.259"/>
</g>
<!-- Node3 -->
<g id="node4" class="node"><title>Node3</title>
<g id="a_node4"><a xlink:href="d0/d7e/classinfra_1_1_timer_evolving.html" target="_top" xlink:title="infra::TimerEvolving">
<polygon fill="white" stroke="black" points="313.5,-465.5 313.5,-484.5 412.5,-484.5 412.5,-465.5 313.5,-465.5"/>
<text text-anchor="middle" x="363" y="-472.5" font-family="Helvetica,sans-Serif" font-size="10.00">infra::TimerEvolving</text>
</a>
</g>
</g>
<!-- Node1&#45;&gt;Node3 -->
<g id="edge3" class="edge"><title>Node1&#45;&gt;Node3</title>
<path fill="none" stroke="midnightblue" d="M217.931,-388.775C234.006,-408.1 262.211,-438.552 293,-456 299.81,-459.859 307.447,-462.97 315.092,-465.466"/>
<polygon fill="midnightblue" stroke="midnightblue" points="220.451,-386.326 211.433,-380.765 215.015,-390.736 220.451,-386.326"/>
</g>
<!-- Node4 -->
<g id="node5" class="node"><title>Node4</title>
<g id="a_node5"><a xlink:href="db/d9e/classinfra_1_1_timer_limited_repeating.html" target="_top" xlink:title="infra::TimerLimitedRepeating">
<polygon fill="white" stroke="black" points="293,-427.5 293,-446.5 433,-446.5 433,-427.5 293,-427.5"/>
<text text-anchor="middle" x="363" y="-434.5" font-family="Helvetica,sans-Serif" font-size="10.00">infra::TimerLimitedRepeating</text>
</a>
</g>
</g>
<!-- Node1&#45;&gt;Node4 -->
<g id="edge4" class="edge"><title>Node1&#45;&gt;Node4</title>
<path fill="none" stroke="midnightblue" d="M228.546,-385.824C246.045,-395.924 270.384,-409.038 293,-418 302.125,-421.616 312.19,-424.81 321.744,-427.497"/>
<polygon fill="midnightblue" stroke="midnightblue" points="229.979,-382.607 219.582,-380.568 226.438,-388.645 229.979,-382.607"/>
</g>
<!-- Node5 -->
<g id="node6" class="node"><title>Node5</title>
<g id="a_node6"><a xlink:href="df/d93/classinfra_1_1_timer_limited_repeating_with_closing_action.html" target="_top" xlink:title="infra::TimerLimitedRepeating\lWithClosingAction">
<polygon fill="white" stroke="black" points="293,-378 293,-408 433,-408 433,-378 293,-378"/>
<text text-anchor="start" x="301" y="-396" font-family="Helvetica,sans-Serif" font-size="10.00">infra::TimerLimitedRepeating</text>
<text text-anchor="middle" x="363" y="-385" font-family="Helvetica,sans-Serif" font-size="10.00">WithClosingAction</text>
</a>
</g>
</g>
<!-- Node1&#45;&gt;Node5 -->
<g id="edge5" class="edge"><title>Node1&#45;&gt;Node5</title>
<path fill="none" stroke="midnightblue" d="M245.711,-376.808C260.185,-378.823 276.826,-381.14 292.91,-383.38"/>
<polygon fill="midnightblue" stroke="midnightblue" points="245.981,-373.312 235.594,-375.399 245.016,-380.245 245.981,-373.312"/>
</g>
<!-- Node6 -->
<g id="node7" class="node"><title>Node6</title>
<g id="a_node7"><a xlink:href="d3/d9e/classinfra_1_1_timer_repeating.html" target="_top" xlink:title="infra::TimerRepeating">
<polygon fill="white" stroke="black" points="309,-339.5 309,-358.5 417,-358.5 417,-339.5 309,-339.5"/>
<text text-anchor="middle" x="363" y="-346.5" font-family="Helvetica,sans-Serif" font-size="10.00">infra::TimerRepeating</text>
</a>
</g>
</g>
<!-- Node1&#45;&gt;Node6 -->
<g id="edge6" class="edge"><title>Node1&#45;&gt;Node6</title>
<path fill="none" stroke="midnightblue" d="M245.639,-365.202C265.041,-362.501 288.35,-359.255 308.994,-356.381"/>
<polygon fill="midnightblue" stroke="midnightblue" points="245.016,-361.755 235.594,-366.601 245.981,-368.688 245.016,-361.755"/>
</g>
<!-- Node7 -->
<g id="node8" class="node"><title>Node7</title>
<g id="a_node8"><a xlink:href="d8/d87/classinfra_1_1_timer_single_shot.html" target="_top" xlink:title="infra::TimerSingleShot">
<polygon fill="white" stroke="black" points="307,-301.5 307,-320.5 419,-320.5 419,-301.5 307,-301.5"/>
<text text-anchor="middle" x="363" y="-308.5" font-family="Helvetica,sans-Serif" font-size="10.00">infra::TimerSingleShot</text>
</a>
</g>
</g>
<!-- Node1&#45;&gt;Node7 -->
<g id="edge7" class="edge"><title>Node1&#45;&gt;Node7</title>
<path fill="none" stroke="midnightblue" d="M231.384,-356.974C248.74,-348.44 271.832,-337.732 293,-330 302.57,-326.504 313.089,-323.299 322.966,-320.556"/>
<polygon fill="midnightblue" stroke="midnightblue" points="229.771,-353.867 222.38,-361.459 232.892,-360.133 229.771,-353.867"/>
</g>
<!-- Node8 -->
<g id="node9" class="node"><title>Node8</title>
<g id="a_node9"><a xlink:href="d5/dcb/classservices_1_1_repeating_button_1_1_fire_timer.html" target="_top" xlink:title="services::RepeatingButton\l::FireTimer">
<polygon fill="white" stroke="black" points="298,-252 298,-282 428,-282 428,-252 298,-252"/>
<text text-anchor="start" x="306" y="-270" font-family="Helvetica,sans-Serif" font-size="10.00">services::RepeatingButton</text>
<text text-anchor="middle" x="363" y="-259" font-family="Helvetica,sans-Serif" font-size="10.00">::FireTimer</text>
</a>
</g>
</g>
<!-- Node1&#45;&gt;Node8 -->
<g id="edge8" class="edge"><title>Node1&#45;&gt;Node8</title>
<path fill="none" stroke="midnightblue" d="M219.688,-353.648C236.388,-336.059 264.315,-309.069 293,-292 299.241,-288.286 306.124,-284.987 313.053,-282.101"/>
<polygon fill="midnightblue" stroke="midnightblue" points="216.685,-351.738 212.437,-361.444 221.811,-356.505 216.685,-351.738"/>
</g>
<!-- Node10 -->
<g id="node11" class="node"><title>Node10</title>
<g id="a_node11"><a xlink:href="d7/d8f/classhal_1_1_timer_service_bsd.html" target="_top" xlink:title="hal::TimerServiceBsd">
<polygon fill="white" stroke="black" points="309,-213.5 309,-232.5 417,-232.5 417,-213.5 309,-213.5"/>
<text text-anchor="middle" x="363" y="-220.5" font-family="Helvetica,sans-Serif" font-size="10.00">hal::TimerServiceBsd</text>
</a>
</g>
</g>
<!-- Node9&#45;&gt;Node10 -->
<g id="edge10" class="edge"><title>Node9&#45;&gt;Node10</title>
<path fill="none" stroke="midnightblue" d="M224.551,-162.712C241.967,-175.384 268.023,-192.871 293,-204 301.285,-207.692 310.456,-210.823 319.333,-213.413"/>
<polygon fill="midnightblue" stroke="midnightblue" points="226.401,-159.726 216.283,-156.583 222.232,-165.35 226.401,-159.726"/>
</g>
<!-- Node11 -->
<g id="node12" class="node"><title>Node11</title>
<g id="a_node12"><a xlink:href="d1/d79/classhal_1_1_timer_service_win.html" target="_top" xlink:title="hal::TimerServiceWin">
<polygon fill="white" stroke="black" points="309,-175.5 309,-194.5 417,-194.5 417,-175.5 309,-175.5"/>
<text text-anchor="middle" x="363" y="-182.5" font-family="Helvetica,sans-Serif" font-size="10.00">hal::TimerServiceWin</text>
</a>
</g>
</g>
<!-- Node9&#45;&gt;Node11 -->
<g id="edge11" class="edge"><title>Node9&#45;&gt;Node11</title>
<path fill="none" stroke="midnightblue" d="M253.762,-158.968C275.903,-164.293 301.612,-170.476 322.417,-175.48"/>
<polygon fill="midnightblue" stroke="midnightblue" points="254.411,-155.524 243.87,-156.589 252.774,-162.33 254.411,-155.524"/>
</g>
<!-- Node12 -->
<g id="node13" class="node"><title>Node12</title>
<g id="a_node13"><a xlink:href="db/d9d/classinfra_1_1_derived_timer_service.html" target="_top" xlink:title="infra::DerivedTimerService">
<polygon fill="white" stroke="black" points="299,-137.5 299,-156.5 427,-156.5 427,-137.5 299,-137.5"/>
<text text-anchor="middle" x="363" y="-144.5" font-family="Helvetica,sans-Serif" font-size="10.00">infra::DerivedTimerService</text>
</a>
</g>
</g>
<!-- Node9&#45;&gt;Node12 -->
<g id="edge12" class="edge"><title>Node9&#45;&gt;Node12</title>
<path fill="none" stroke="midnightblue" d="M261.418,-147C273.578,-147 286.478,-147 298.838,-147"/>
<polygon fill="midnightblue" stroke="midnightblue" points="261.405,-143.5 251.405,-147 261.405,-150.5 261.405,-143.5"/>
</g>
<!-- Node13 -->
<g id="node14" class="node"><title>Node13</title>
<g id="a_node14"><a xlink:href="da/dc4/classinfra_1_1_scalable_derived_timer_service.html" target="_top" xlink:title="infra::ScalableDerivedTimer\lService">
<polygon fill="white" stroke="black" points="296,-88 296,-118 430,-118 430,-88 296,-88"/>
<text text-anchor="start" x="304" y="-106" font-family="Helvetica,sans-Serif" font-size="10.00">infra::ScalableDerivedTimer</text>
<text text-anchor="middle" x="363" y="-95" font-family="Helvetica,sans-Serif" font-size="10.00">Service</text>
</a>
</g>
</g>
<!-- Node9&#45;&gt;Node13 -->
<g id="edge13" class="edge"><title>Node9&#45;&gt;Node13</title>
<path fill="none" stroke="midnightblue" d="M247.953,-134.76C266.53,-129.587 288.349,-123.51 307.902,-118.065"/>
<polygon fill="midnightblue" stroke="midnightblue" points="246.978,-131.398 238.284,-137.453 248.856,-138.142 246.978,-131.398"/>
</g>
<!-- Node14 -->
<g id="node15" class="node"><title>Node14</title>
<g id="a_node15"><a xlink:href="df/d2e/classinfra_1_1_tick_on_interrupt_timer_service.html" target="_top" xlink:title="infra::TickOnInterruptTimer\lService">
<polygon fill="white" stroke="black" points="297.5,-39 297.5,-69 428.5,-69 428.5,-39 297.5,-39"/>
<text text-anchor="start" x="305.5" y="-57" font-family="Helvetica,sans-Serif" font-size="10.00">infra::TickOnInterruptTimer</text>
<text text-anchor="middle" x="363" y="-46" font-family="Helvetica,sans-Serif" font-size="10.00">Service</text>
</a>
</g>
</g>
<!-- Node9&#45;&gt;Node14 -->
<g id="edge14" class="edge"><title>Node9&#45;&gt;Node14</title>
<path fill="none" stroke="midnightblue" d="M247.299,-133.141C250.718,-131.314 254.003,-129.274 257,-127 278.529,-110.667 271.259,-94.0504 293,-78 297.592,-74.6101 302.701,-71.6704 308.004,-69.1274"/>
<polygon fill="midnightblue" stroke="midnightblue" points="245.603,-130.071 238.038,-137.489 248.578,-136.407 245.603,-130.071"/>
</g>
<!-- Node17 -->
<g id="node18" class="node"><title>Node17</title>
<g id="a_node18"><a xlink:href="dc/d21/classapplication_1_1_time_http_page.html" target="_top" xlink:title="application::TimeHttpPage">
<polygon fill="white" stroke="black" points="297.5,-0.5 297.5,-19.5 428.5,-19.5 428.5,-0.5 297.5,-0.5"/>
<text text-anchor="middle" x="363" y="-7.5" font-family="Helvetica,sans-Serif" font-size="10.00">application::TimeHttpPage</text>
</a>
</g>
</g>
<!-- Node16&#45;&gt;Node17 -->
<g id="edge17" class="edge"><title>Node16&#45;&gt;Node17</title>
<path fill="none" stroke="midnightblue" d="M262.366,-25.7648C275.208,-23.733 288.831,-21.5773 301.746,-19.5339"/>
<polygon fill="midnightblue" stroke="midnightblue" points="261.594,-22.3434 252.264,-27.3633 262.688,-29.2574 261.594,-22.3434"/>
</g>
</g>
</svg>
