<?xml version="1.0" encoding="UTF-8" standalone="no"?>
<!DOCTYPE svg PUBLIC "-//W3C//DTD SVG 1.1//EN"
 "http://www.w3.org/Graphics/SVG/1.1/DTD/svg11.dtd">
<!-- Generated by graphviz version 2.38.0 (20140413.2041)
 -->
<!-- Title: Graphical Class Hierarchy Pages: 1 -->
<svg width="252pt" height="104pt"
 viewBox="0.00 0.00 252.00 104.00" xmlns="http://www.w3.org/2000/svg" xmlns:xlink="http://www.w3.org/1999/xlink">
<g id="graph0" class="graph" transform="scale(1 1) rotate(0) translate(4 100)">
<title>Graphical Class Hierarchy</title>
<polygon fill="white" stroke="none" points="-4,4 -4,-100 248,-100 248,4 -4,4"/>
<!-- Node0 -->
<g id="node1" class="node"><title>Node0</title>
<g id="a_node1"><a xlink:href="d8/dbd/classapplication_1_1_input.html" target="_top" xlink:title="application::Input">
<polygon fill="white" stroke="black" points="0,-38.5 0,-57.5 90,-57.5 90,-38.5 0,-38.5"/>
<text text-anchor="middle" x="45" y="-45.5" font-family="Helvetica,sans-Serif" font-size="10.00">application::Input</text>
</a>
</g>
</g>
<!-- Node1 -->
<g id="node2" class="node"><title>Node1</title>
<g id="a_node2"><a xlink:href="d9/dec/classapplication_1_1_input_binary.html" target="_top" xlink:title="application::InputBinary">
<polygon fill="white" stroke="black" points="126,-76.5 126,-95.5 244,-95.5 244,-76.5 126,-76.5"/>
<text text-anchor="middle" x="185" y="-83.5" font-family="Helvetica,sans-Serif" font-size="10.00">application::InputBinary</text>
</a>
</g>
</g>
<!-- Node0&#45;&gt;Node1 -->
<g id="edge1" class="edge"><title>Node0&#45;&gt;Node1</title>
<path fill="none" stroke="midnightblue" d="M90.473,-60.2462C109.495,-65.484 131.375,-71.5091 149.188,-76.4141"/>
<polygon fill="midnightblue" stroke="midnightblue" points="91.3936,-56.8695 80.8232,-57.589 89.5352,-63.6183 91.3936,-56.8695"/>
</g>
<!-- Node2 -->
<g id="node3" class="node"><title>Node2</title>
<g id="a_node3"><a xlink:href="dd/dac/classapplication_1_1_input_hex.html" target="_top" xlink:title="application::InputHex">
<polygon fill="white" stroke="black" points="131.5,-38.5 131.5,-57.5 238.5,-57.5 238.5,-38.5 131.5,-38.5"/>
<text text-anchor="middle" x="185" y="-45.5" font-family="Helvetica,sans-Serif" font-size="10.00">application::InputHex</text>
</a>
</g>
</g>
<!-- Node0&#45;&gt;Node2 -->
<g id="edge2" class="edge"><title>Node0&#45;&gt;Node2</title>
<path fill="none" stroke="midnightblue" d="M100.088,-48C110.322,-48 121.015,-48 131.208,-48"/>
<polygon fill="midnightblue" stroke="midnightblue" points="100.044,-44.5001 90.0435,-48 100.043,-51.5001 100.044,-44.5001"/>
</g>
<!-- Node3 -->
<g id="node4" class="node"><title>Node3</title>
<g id="a_node4"><a xlink:href="d6/de5/classapplication_1_1_no_file_input.html" target="_top" xlink:title="application::NoFileInput">
<polygon fill="white" stroke="black" points="126,-0.5 126,-19.5 244,-19.5 244,-0.5 126,-0.5"/>
<text text-anchor="middle" x="185" y="-7.5" font-family="Helvetica,sans-Serif" font-size="10.00">application::NoFileInput</text>
</a>
</g>
</g>
<!-- Node0&#45;&gt;Node3 -->
<g id="edge3" class="edge"><title>Node0&#45;&gt;Node3</title>
<path fill="none" stroke="midnightblue" d="M90.473,-35.7538C109.495,-30.516 131.375,-24.4909 149.188,-19.5859"/>
<polygon fill="midnightblue" stroke="midnightblue" points="89.5352,-32.3817 80.8232,-38.411 91.3936,-39.1305 89.5352,-32.3817"/>
</g>
</g>
</svg>
