<?xml version="1.0" encoding="UTF-8" standalone="no"?>
<!DOCTYPE svg PUBLIC "-//W3C//DTD SVG 1.1//EN"
 "http://www.w3.org/Graphics/SVG/1.1/DTD/svg11.dtd">
<!-- Generated by graphviz version 2.38.0 (20140413.2041)
 -->
<!-- Title: Graphical Class Hierarchy Pages: 1 -->
<svg width="319pt" height="88pt"
 viewBox="0.00 0.00 319.00 88.00" xmlns="http://www.w3.org/2000/svg" xmlns:xlink="http://www.w3.org/1999/xlink">
<g id="graph0" class="graph" transform="scale(1 1) rotate(0) translate(4 84)">
<title>Graphical Class Hierarchy</title>
<polygon fill="white" stroke="none" points="-4,4 -4,-84 315,-84 315,4 -4,4"/>
<!-- Node0 -->
<g id="node1" class="node"><title>Node0</title>
<g id="a_node1"><a xlink:href="d8/de9/classapplication_1_1_random_number_generator.html" target="_top" xlink:title="application::RandomNumber\lGenerator">
<polygon fill="white" stroke="black" points="0,-24.5 0,-54.5 139,-54.5 139,-24.5 0,-24.5"/>
<text text-anchor="start" x="8" y="-42.5" font-family="Helvetica,sans-Serif" font-size="10.00">application::RandomNumber</text>
<text text-anchor="middle" x="69.5" y="-31.5" font-family="Helvetica,sans-Serif" font-size="10.00">Generator</text>
</a>
</g>
</g>
<!-- Node1 -->
<g id="node2" class="node"><title>Node1</title>
<g id="a_node2"><a xlink:href="d1/d80/classapplication_1_1_fixed_random_number_generator.html" target="_top" xlink:title="application::FixedRandom\lNumberGenerator">
<polygon fill="white" stroke="black" points="178.5,-49.5 178.5,-79.5 307.5,-79.5 307.5,-49.5 178.5,-49.5"/>
<text text-anchor="start" x="186.5" y="-67.5" font-family="Helvetica,sans-Serif" font-size="10.00">application::FixedRandom</text>
<text text-anchor="middle" x="243" y="-56.5" font-family="Helvetica,sans-Serif" font-size="10.00">NumberGenerator</text>
</a>
</g>
</g>
<!-- Node0&#45;&gt;Node1 -->
<g id="edge1" class="edge"><title>Node0&#45;&gt;Node1</title>
<path fill="none" stroke="midnightblue" d="M149.372,-50.9974C159.13,-52.4199 169.008,-53.8598 178.496,-55.2428"/>
<polygon fill="midnightblue" stroke="midnightblue" points="149.668,-47.5036 139.267,-49.5244 148.658,-54.4304 149.668,-47.5036"/>
</g>
<!-- Node2 -->
<g id="node3" class="node"><title>Node2</title>
<g id="a_node3"><a xlink:href="db/db5/classapplication_1_1_secure_random_number_generator.html" target="_top" xlink:title="application::SecureRandom\lNumberGenerator">
<polygon fill="white" stroke="black" points="175,-0.5 175,-30.5 311,-30.5 311,-0.5 175,-0.5"/>
<text text-anchor="start" x="183" y="-18.5" font-family="Helvetica,sans-Serif" font-size="10.00">application::SecureRandom</text>
<text text-anchor="middle" x="243" y="-7.5" font-family="Helvetica,sans-Serif" font-size="10.00">NumberGenerator</text>
</a>
</g>
</g>
<!-- Node0&#45;&gt;Node2 -->
<g id="edge2" class="edge"><title>Node0&#45;&gt;Node2</title>
<path fill="none" stroke="midnightblue" d="M149.259,-28.4783C157.824,-27.2797 166.484,-26.0679 174.891,-24.8913"/>
<polygon fill="midnightblue" stroke="midnightblue" points="148.686,-25.0243 139.267,-29.8766 149.656,-31.9568 148.686,-25.0243"/>
</g>
</g>
</svg>
