<?xml version="1.0" encoding="UTF-8" standalone="no"?>
<!DOCTYPE svg PUBLIC "-//W3C//DTD SVG 1.1//EN"
 "http://www.w3.org/Graphics/SVG/1.1/DTD/svg11.dtd">
<!-- Generated by graphviz version 2.38.0 (20140413.2041)
 -->
<!-- Title: Graphical Class Hierarchy Pages: 1 -->
<svg width="315pt" height="284pt"
 viewBox="0.00 0.00 315.00 284.00" xmlns="http://www.w3.org/2000/svg" xmlns:xlink="http://www.w3.org/1999/xlink">
<g id="graph0" class="graph" transform="scale(1 1) rotate(0) translate(4 280)">
<title>Graphical Class Hierarchy</title>
<polygon fill="white" stroke="none" points="-4,4 -4,-280 311,-280 311,4 -4,4"/>
<!-- Node0 -->
<g id="node1" class="node"><title>Node0</title>
<g id="a_node1"><a xlink:href="d6/d53/structapplication_1_1_line_exception.html" target="_top" xlink:title="application::LineException">
<polygon fill="white" stroke="black" points="0,-128 0,-147 131,-147 131,-128 0,-128"/>
<text text-anchor="middle" x="65.5" y="-135" font-family="Helvetica,sans-Serif" font-size="10.00">application::LineException</text>
</a>
</g>
</g>
<!-- Node1 -->
<g id="node2" class="node"><title>Node1</title>
<g id="a_node2"><a xlink:href="d9/dcc/structapplication_1_1_data_after_end_of_file_exception.html" target="_top" xlink:title="application::DataAfterEnd\lOfFileException">
<polygon fill="white" stroke="black" points="173.5,-245.5 173.5,-275.5 300.5,-275.5 300.5,-245.5 173.5,-245.5"/>
<text text-anchor="start" x="181.5" y="-263.5" font-family="Helvetica,sans-Serif" font-size="10.00">application::DataAfterEnd</text>
<text text-anchor="middle" x="237" y="-252.5" font-family="Helvetica,sans-Serif" font-size="10.00">OfFileException</text>
</a>
</g>
</g>
<!-- Node0&#45;&gt;Node1 -->
<g id="edge1" class="edge"><title>Node0&#45;&gt;Node1</title>
<path fill="none" stroke="midnightblue" d="M80.223,-155.195C98.0542,-177.097 131.171,-214.221 167,-236.5 172.385,-239.849 178.299,-242.805 184.33,-245.394"/>
<polygon fill="midnightblue" stroke="midnightblue" points="82.7282,-152.723 73.7562,-147.088 77.2558,-157.088 82.7282,-152.723"/>
</g>
<!-- Node2 -->
<g id="node3" class="node"><title>Node2</title>
<g id="a_node3"><a xlink:href="d9/d91/structapplication_1_1_incorrect_crc_exception.html" target="_top" xlink:title="application::IncorrectCrc\lException">
<polygon fill="white" stroke="black" points="176,-196.5 176,-226.5 298,-226.5 298,-196.5 176,-196.5"/>
<text text-anchor="start" x="184" y="-214.5" font-family="Helvetica,sans-Serif" font-size="10.00">application::IncorrectCrc</text>
<text text-anchor="middle" x="237" y="-203.5" font-family="Helvetica,sans-Serif" font-size="10.00">Exception</text>
</a>
</g>
</g>
<!-- Node0&#45;&gt;Node2 -->
<g id="edge2" class="edge"><title>Node0&#45;&gt;Node2</title>
<path fill="none" stroke="midnightblue" d="M92.8147,-151.742C112.843,-162.298 141.258,-176.671 167,-187.5 174.365,-190.598 182.284,-193.625 190.038,-196.428"/>
<polygon fill="midnightblue" stroke="midnightblue" points="94.4468,-148.646 83.9739,-147.043 91.1615,-154.827 94.4468,-148.646"/>
</g>
<!-- Node3 -->
<g id="node4" class="node"><title>Node3</title>
<g id="a_node4"><a xlink:href="d7/d0e/structapplication_1_1_no_end_of_file_exception.html" target="_top" xlink:title="application::NoEndOfFile\lException">
<polygon fill="white" stroke="black" points="175,-147.5 175,-177.5 299,-177.5 299,-147.5 175,-147.5"/>
<text text-anchor="start" x="183" y="-165.5" font-family="Helvetica,sans-Serif" font-size="10.00">application::NoEndOfFile</text>
<text text-anchor="middle" x="237" y="-154.5" font-family="Helvetica,sans-Serif" font-size="10.00">Exception</text>
</a>
</g>
</g>
<!-- Node0&#45;&gt;Node3 -->
<g id="edge3" class="edge"><title>Node0&#45;&gt;Node3</title>
<path fill="none" stroke="midnightblue" d="M140.963,-148.483C152.325,-150.159 163.937,-151.871 174.966,-153.498"/>
<polygon fill="midnightblue" stroke="midnightblue" points="141.468,-145.019 131.064,-147.023 140.446,-151.945 141.468,-145.019"/>
</g>
<!-- Node4 -->
<g id="node5" class="node"><title>Node4</title>
<g id="a_node5"><a xlink:href="d6/ded/structapplication_1_1_record_too_long_exception.html" target="_top" xlink:title="application::RecordTooLong\lException">
<polygon fill="white" stroke="black" points="168.5,-98.5 168.5,-128.5 305.5,-128.5 305.5,-98.5 168.5,-98.5"/>
<text text-anchor="start" x="176.5" y="-116.5" font-family="Helvetica,sans-Serif" font-size="10.00">application::RecordTooLong</text>
<text text-anchor="middle" x="237" y="-105.5" font-family="Helvetica,sans-Serif" font-size="10.00">Exception</text>
</a>
</g>
</g>
<!-- Node0&#45;&gt;Node4 -->
<g id="edge4" class="edge"><title>Node0&#45;&gt;Node4</title>
<path fill="none" stroke="midnightblue" d="M141.151,-126.93C150.163,-125.654 159.329,-124.356 168.235,-123.095"/>
<polygon fill="midnightblue" stroke="midnightblue" points="140.475,-123.491 131.064,-128.358 141.456,-130.422 140.475,-123.491"/>
</g>
<!-- Node5 -->
<g id="node6" class="node"><title>Node5</title>
<g id="a_node6"><a xlink:href="d4/d94/structapplication_1_1_record_too_short_exception.html" target="_top" xlink:title="application::RecordTooShort\lException">
<polygon fill="white" stroke="black" points="167.5,-49.5 167.5,-79.5 306.5,-79.5 306.5,-49.5 167.5,-49.5"/>
<text text-anchor="start" x="175.5" y="-67.5" font-family="Helvetica,sans-Serif" font-size="10.00">application::RecordTooShort</text>
<text text-anchor="middle" x="237" y="-56.5" font-family="Helvetica,sans-Serif" font-size="10.00">Exception</text>
</a>
</g>
</g>
<!-- Node0&#45;&gt;Node5 -->
<g id="edge5" class="edge"><title>Node0&#45;&gt;Node5</title>
<path fill="none" stroke="midnightblue" d="M94.2907,-123.323C114.284,-113.347 142.017,-99.9624 167,-89.5 175.109,-86.1041 183.859,-82.7226 192.316,-79.5945"/>
<polygon fill="midnightblue" stroke="midnightblue" points="92.5078,-120.302 85.1435,-127.919 95.6504,-126.556 92.5078,-120.302"/>
</g>
<!-- Node6 -->
<g id="node7" class="node"><title>Node6</title>
<g id="a_node7"><a xlink:href="de/d08/structapplication_1_1_unknown_record_exception.html" target="_top" xlink:title="application::UnknownRecord\lException">
<polygon fill="white" stroke="black" points="167,-0.5 167,-30.5 307,-30.5 307,-0.5 167,-0.5"/>
<text text-anchor="start" x="175" y="-18.5" font-family="Helvetica,sans-Serif" font-size="10.00">application::UnknownRecord</text>
<text text-anchor="middle" x="237" y="-7.5" font-family="Helvetica,sans-Serif" font-size="10.00">Exception</text>
</a>
</g>
</g>
<!-- Node0&#45;&gt;Node6 -->
<g id="edge6" class="edge"><title>Node0&#45;&gt;Node6</title>
<path fill="none" stroke="midnightblue" d="M80.6224,-119.923C98.6448,-98.5139 131.736,-62.493 167,-40.5 173.054,-36.7242 179.761,-33.404 186.546,-30.5208"/>
<polygon fill="midnightblue" stroke="midnightblue" points="77.733,-117.925 74.065,-127.865 83.1309,-122.382 77.733,-117.925"/>
</g>
</g>
</svg>
