<?xml version="1.0" encoding="UTF-8" standalone="no"?>
<!DOCTYPE svg PUBLIC "-//W3C//DTD SVG 1.1//EN"
 "http://www.w3.org/Graphics/SVG/1.1/DTD/svg11.dtd">
<!-- Generated by graphviz version 2.38.0 (20140413.2041)
 -->
<!-- Title: Graphical Class Hierarchy Pages: 1 -->
<svg width="288pt" height="214pt"
 viewBox="0.00 0.00 288.00 213.50" xmlns="http://www.w3.org/2000/svg" xmlns:xlink="http://www.w3.org/1999/xlink">
<g id="graph0" class="graph" transform="scale(1 1) rotate(0) translate(4 209.5)">
<title>Graphical Class Hierarchy</title>
<polygon fill="white" stroke="none" points="-4,4 -4,-209.5 284,-209.5 284,4 -4,4"/>
<!-- Node0 -->
<g id="node1" class="node"><title>Node0</title>
<g id="a_node1"><a xlink:href="d2/dca/classinfra_1_1_static_visitor.html" target="_top" xlink:title="infra::StaticVisitor\l\&lt; void \&gt;">
<polygon fill="white" stroke="black" points="0,-77 0,-107 94,-107 94,-77 0,-77"/>
<text text-anchor="start" x="8" y="-95" font-family="Helvetica,sans-Serif" font-size="10.00">infra::StaticVisitor</text>
<text text-anchor="middle" x="47" y="-84" font-family="Helvetica,sans-Serif" font-size="10.00">&lt; void &gt;</text>
</a>
</g>
</g>
<!-- Node1 -->
<g id="node2" class="node"><title>Node1</title>
<g id="a_node2"><a xlink:href="d8/db6/structinfra_1_1detail_1_1_construct_polymorphic_visitor.html" target="_top" xlink:title="infra::detail::Construct\lPolymorphicVisitor\&lt; Base, T \&gt;">
<polygon fill="white" stroke="black" points="130,-175 130,-205 280,-205 280,-175 130,-175"/>
<text text-anchor="start" x="138" y="-193" font-family="Helvetica,sans-Serif" font-size="10.00">infra::detail::Construct</text>
<text text-anchor="middle" x="205" y="-182" font-family="Helvetica,sans-Serif" font-size="10.00">PolymorphicVisitor&lt; Base, T &gt;</text>
</a>
</g>
</g>
<!-- Node0&#45;&gt;Node1 -->
<g id="edge1" class="edge"><title>Node0&#45;&gt;Node1</title>
<path fill="none" stroke="midnightblue" d="M68.0592,-114.625C83.5621,-130.903 106.313,-152.315 130,-166 135.847,-169.378 142.233,-172.352 148.725,-174.951"/>
<polygon fill="midnightblue" stroke="midnightblue" points="70.4335,-112.039 61.0586,-107.103 65.3093,-116.808 70.4335,-112.039"/>
</g>
<!-- Node2 -->
<g id="node3" class="node"><title>Node2</title>
<g id="a_node3"><a xlink:href="d2/d2c/structinfra_1_1detail_1_1_construct_visitor.html" target="_top" xlink:title="infra::detail::Construct\lVisitor\&lt; T \&gt;">
<polygon fill="white" stroke="black" points="149,-126 149,-156 261,-156 261,-126 149,-126"/>
<text text-anchor="start" x="157" y="-144" font-family="Helvetica,sans-Serif" font-size="10.00">infra::detail::Construct</text>
<text text-anchor="middle" x="205" y="-133" font-family="Helvetica,sans-Serif" font-size="10.00">Visitor&lt; T &gt;</text>
</a>
</g>
</g>
<!-- Node0&#45;&gt;Node2 -->
<g id="edge2" class="edge"><title>Node0&#45;&gt;Node2</title>
<path fill="none" stroke="midnightblue" d="M104.204,-109.654C121.226,-115.001 139.754,-120.82 156.174,-125.978"/>
<polygon fill="midnightblue" stroke="midnightblue" points="104.972,-106.227 94.3828,-106.569 102.874,-112.905 104.972,-106.227"/>
</g>
<!-- Node3 -->
<g id="node4" class="node"><title>Node3</title>
<g id="a_node4"><a xlink:href="d1/dad/structinfra_1_1detail_1_1_copy_polymorphic_visitor.html" target="_top" xlink:title="infra::detail::CopyPolymorphic\lVisitor\&lt; Base, T \&gt;">
<polygon fill="white" stroke="black" points="132,-77 132,-107 278,-107 278,-77 132,-77"/>
<text text-anchor="start" x="140" y="-95" font-family="Helvetica,sans-Serif" font-size="10.00">infra::detail::CopyPolymorphic</text>
<text text-anchor="middle" x="205" y="-84" font-family="Helvetica,sans-Serif" font-size="10.00">Visitor&lt; Base, T &gt;</text>
</a>
</g>
</g>
<!-- Node0&#45;&gt;Node3 -->
<g id="edge3" class="edge"><title>Node0&#45;&gt;Node3</title>
<path fill="none" stroke="midnightblue" d="M104.554,-92C113.4,-92 122.645,-92 131.784,-92"/>
<polygon fill="midnightblue" stroke="midnightblue" points="104.383,-88.5001 94.3828,-92 104.383,-95.5001 104.383,-88.5001"/>
</g>
<!-- Node4 -->
<g id="node5" class="node"><title>Node4</title>
<g id="a_node5"><a xlink:href="d2/d1e/structinfra_1_1detail_1_1_copy_visitor.html" target="_top" xlink:title="infra::detail::CopyVisitor\&lt; T \&gt;">
<polygon fill="white" stroke="black" points="133.5,-38.5 133.5,-57.5 276.5,-57.5 276.5,-38.5 133.5,-38.5"/>
<text text-anchor="middle" x="205" y="-45.5" font-family="Helvetica,sans-Serif" font-size="10.00">infra::detail::CopyVisitor&lt; T &gt;</text>
</a>
</g>
</g>
<!-- Node0&#45;&gt;Node4 -->
<g id="edge4" class="edge"><title>Node0&#45;&gt;Node4</title>
<path fill="none" stroke="midnightblue" d="M104.041,-75.4298C112.724,-72.911 121.597,-70.365 130,-68 142.426,-64.5027 156.06,-60.7843 168.202,-57.5145"/>
<polygon fill="midnightblue" stroke="midnightblue" points="102.976,-72.0945 94.3532,-78.251 104.933,-78.8153 102.976,-72.0945"/>
</g>
<!-- Node5 -->
<g id="node6" class="node"><title>Node5</title>
<g id="a_node6"><a xlink:href="dc/d6f/structinfra_1_1detail_1_1_destroy_visitor.html" target="_top" xlink:title="infra::detail::DestroyVisitor">
<polygon fill="white" stroke="black" points="139.5,-0.5 139.5,-19.5 270.5,-19.5 270.5,-0.5 139.5,-0.5"/>
<text text-anchor="middle" x="205" y="-7.5" font-family="Helvetica,sans-Serif" font-size="10.00">infra::detail::DestroyVisitor</text>
</a>
</g>
</g>
<!-- Node0&#45;&gt;Node5 -->
<g id="edge5" class="edge"><title>Node0&#45;&gt;Node5</title>
<path fill="none" stroke="midnightblue" d="M71.1936,-70.0562C86.744,-56.4378 108.284,-39.5764 130,-29 137.87,-25.1669 146.601,-22.0473 155.226,-19.5282"/>
<polygon fill="midnightblue" stroke="midnightblue" points="68.7465,-67.5495 63.6385,-76.8317 73.4201,-72.7608 68.7465,-67.5495"/>
</g>
</g>
</svg>
