<?xml version="1.0" encoding="UTF-8" standalone="no"?>
<!DOCTYPE svg PUBLIC "-//W3C//DTD SVG 1.1//EN"
 "http://www.w3.org/Graphics/SVG/1.1/DTD/svg11.dtd">
<!-- Generated by graphviz version 2.38.0 (20140413.2041)
 -->
<!-- Title: Graphical Class Hierarchy Pages: 1 -->
<svg width="462pt" height="100pt"
 viewBox="0.00 0.00 462.00 99.50" xmlns="http://www.w3.org/2000/svg" xmlns:xlink="http://www.w3.org/1999/xlink">
<g id="graph0" class="graph" transform="scale(1 1) rotate(0) translate(4 95.5)">
<title>Graphical Class Hierarchy</title>
<polygon fill="white" stroke="none" points="-4,4 -4,-95.5 458,-95.5 458,4 -4,4"/>
<!-- Node0 -->
<g id="node1" class="node"><title>Node0</title>
<g id="a_node1"><a xlink:href="df/db7/classinfra_1_1_allocator_base.html" target="_top" xlink:title="infra::AllocatorBase">
<polygon fill="white" stroke="black" points="0,-33 0,-52 101,-52 101,-33 0,-33"/>
<text text-anchor="middle" x="50.5" y="-40" font-family="Helvetica,sans-Serif" font-size="10.00">infra::AllocatorBase</text>
</a>
</g>
</g>
<!-- Node1 -->
<g id="node2" class="node"><title>Node1</title>
<g id="a_node2"><a xlink:href="dc/d81/classinfra_1_1_allocator_3_01_t_00_01void_07_construction_args_8_8_8_08_4.html" target="_top" xlink:title="infra::Allocator\&lt; T,\l void(ConstructionArgs...)\&gt;">
<polygon fill="white" stroke="black" points="137,-27.5 137,-57.5 269,-57.5 269,-27.5 137,-27.5"/>
<text text-anchor="start" x="145" y="-45.5" font-family="Helvetica,sans-Serif" font-size="10.00">infra::Allocator&lt; T,</text>
<text text-anchor="middle" x="203" y="-34.5" font-family="Helvetica,sans-Serif" font-size="10.00"> void(ConstructionArgs...)&gt;</text>
</a>
</g>
</g>
<!-- Node0&#45;&gt;Node1 -->
<g id="edge1" class="edge"><title>Node0&#45;&gt;Node1</title>
<path fill="none" stroke="midnightblue" d="M111.264,-42.5C119.651,-42.5 128.306,-42.5 136.788,-42.5"/>
<polygon fill="midnightblue" stroke="midnightblue" points="111.196,-39.0001 101.196,-42.5 111.196,-46.0001 111.196,-39.0001"/>
</g>
<!-- Node2 -->
<g id="node3" class="node"><title>Node2</title>
<g id="a_node3"><a xlink:href="dc/df0/classinfra_1_1_allocator_fixed_space_3_01_t_00_01_number_of_elements_00_01void_07_construction_args_8_8_8_08_4.html" target="_top" xlink:title="infra::AllocatorFixedSpace\l\&lt; T, NumberOfElements, void\l(ConstructionArgs...)\&gt;">
<polygon fill="white" stroke="black" points="307.5,-50 307.5,-91 451.5,-91 451.5,-50 307.5,-50"/>
<text text-anchor="start" x="315.5" y="-79" font-family="Helvetica,sans-Serif" font-size="10.00">infra::AllocatorFixedSpace</text>
<text text-anchor="start" x="315.5" y="-68" font-family="Helvetica,sans-Serif" font-size="10.00">&lt; T, NumberOfElements, void</text>
<text text-anchor="middle" x="379.5" y="-57" font-family="Helvetica,sans-Serif" font-size="10.00">(ConstructionArgs...)&gt;</text>
</a>
</g>
</g>
<!-- Node1&#45;&gt;Node2 -->
<g id="edge2" class="edge"><title>Node1&#45;&gt;Node2</title>
<path fill="none" stroke="midnightblue" d="M279.45,-54.6066C288.728,-56.0954 298.188,-57.6132 307.398,-59.0911"/>
<polygon fill="midnightblue" stroke="midnightblue" points="279.902,-51.1344 269.474,-53.0058 278.793,-58.046 279.902,-51.1344"/>
</g>
<!-- Node3 -->
<g id="node4" class="node"><title>Node3</title>
<g id="a_node4"><a xlink:href="d9/da5/classinfra_1_1_allocator_heap_3_01_t_00_01void_07_construction_args_8_8_8_08_4.html" target="_top" xlink:title="infra::AllocatorHeap\l\&lt; T, void(ConstructionArgs...)\&gt;">
<polygon fill="white" stroke="black" points="305,-0.5 305,-30.5 454,-30.5 454,-0.5 305,-0.5"/>
<text text-anchor="start" x="313" y="-18.5" font-family="Helvetica,sans-Serif" font-size="10.00">infra::AllocatorHeap</text>
<text text-anchor="middle" x="379.5" y="-7.5" font-family="Helvetica,sans-Serif" font-size="10.00">&lt; T, void(ConstructionArgs...)&gt;</text>
</a>
</g>
</g>
<!-- Node1&#45;&gt;Node3 -->
<g id="edge3" class="edge"><title>Node1&#45;&gt;Node3</title>
<path fill="none" stroke="midnightblue" d="M279.568,-30.8075C287.92,-29.5153 296.417,-28.2005 304.746,-26.9118"/>
<polygon fill="midnightblue" stroke="midnightblue" points="278.821,-27.3814 269.474,-32.3694 279.891,-34.2991 278.821,-27.3814"/>
</g>
</g>
</svg>
