<?xml version="1.0" encoding="UTF-8" standalone="no"?>
<!DOCTYPE svg PUBLIC "-//W3C//DTD SVG 1.1//EN"
 "http://www.w3.org/Graphics/SVG/1.1/DTD/svg11.dtd">
<!-- Generated by graphviz version 2.38.0 (20140413.2041)
 -->
<!-- Title: services::HttpServerConnectionObserver::TryHandleRequest Pages: 1 -->
<svg width="1450pt" height="679pt"
 viewBox="0.00 0.00 1450.00 679.00" xmlns="http://www.w3.org/2000/svg" xmlns:xlink="http://www.w3.org/1999/xlink">
<g id="graph0" class="graph" transform="scale(1 1) rotate(0) translate(4 675)">
<title>services::HttpServerConnectionObserver::TryHandleRequest</title>
<polygon fill="white" stroke="none" points="-4,4 -4,-675 1446,-675 1446,4 -4,4"/>
<!-- Node404 -->
<g id="node1" class="node"><title>Node404</title>
<polygon fill="#bfbfbf" stroke="black" points="0,-343.5 0,-373.5 152,-373.5 152,-343.5 0,-343.5"/>
<text text-anchor="start" x="8" y="-361.5" font-family="Helvetica,sans-Serif" font-size="10.00">services::HttpServerConnection</text>
<text text-anchor="middle" x="76" y="-350.5" font-family="Helvetica,sans-Serif" font-size="10.00">Observer::TryHandleRequest</text>
</g>
<!-- Node405 -->
<g id="node2" class="node"><title>Node405</title>
<g id="a_node2"><a xlink:href="../../d2/db3/classservices_1_1_http_server_connection_observer.html#a15fda946dfcd1bef1595df4ba747def9" target="_top" xlink:title="services::HttpServerConnection\lObserver::Close">
<polygon fill="white" stroke="black" points="973,-637.5 973,-667.5 1125,-667.5 1125,-637.5 973,-637.5"/>
<text text-anchor="start" x="981" y="-655.5" font-family="Helvetica,sans-Serif" font-size="10.00">services::HttpServerConnection</text>
<text text-anchor="middle" x="1049" y="-644.5" font-family="Helvetica,sans-Serif" font-size="10.00">Observer::Close</text>
</a>
</g>
</g>
<!-- Node404&#45;&gt;Node405 -->
<g id="edge1" class="edge"><title>Node404&#45;&gt;Node405</title>
<path fill="none" stroke="midnightblue" d="M86.8414,-373.554C126.18,-431.713 278.792,-638.5 460,-638.5 460,-638.5 460,-638.5 660,-638.5 764.181,-638.5 883.996,-643.603 962.59,-647.648"/>
<polygon fill="midnightblue" stroke="midnightblue" points="962.754,-651.161 972.922,-648.185 963.118,-644.17 962.754,-651.161"/>
</g>
<!-- Node407 -->
<g id="node4" class="node"><title>Node407</title>
<g id="a_node4"><a xlink:href="../../d2/db3/classservices_1_1_http_server_connection_observer.html#a52e5c280fabbed909272946c730d6aff" target="_top" xlink:title="services::HttpServerConnection\lObserver::HandleRequest">
<polygon fill="white" stroke="black" points="188,-343.5 188,-373.5 340,-373.5 340,-343.5 188,-343.5"/>
<text text-anchor="start" x="196" y="-361.5" font-family="Helvetica,sans-Serif" font-size="10.00">services::HttpServerConnection</text>
<text text-anchor="middle" x="264" y="-350.5" font-family="Helvetica,sans-Serif" font-size="10.00">Observer::HandleRequest</text>
</a>
</g>
</g>
<!-- Node404&#45;&gt;Node407 -->
<g id="edge3" class="edge"><title>Node404&#45;&gt;Node407</title>
<path fill="none" stroke="midnightblue" d="M152.117,-358.5C160.596,-358.5 169.281,-358.5 177.875,-358.5"/>
<polygon fill="midnightblue" stroke="midnightblue" points="177.905,-362 187.905,-358.5 177.905,-355 177.905,-362"/>
</g>
<!-- Node423 -->
<g id="node20" class="node"><title>Node423</title>
<g id="a_node20"><a xlink:href="../../d2/db3/classservices_1_1_http_server_connection_observer.html#a48786ed298c958e0c90a861ab09f01b2" target="_top" xlink:title="services::HttpServerConnection\lObserver::SendResponse">
<polygon fill="white" stroke="black" points="583,-392.5 583,-422.5 735,-422.5 735,-392.5 583,-392.5"/>
<text text-anchor="start" x="591" y="-410.5" font-family="Helvetica,sans-Serif" font-size="10.00">services::HttpServerConnection</text>
<text text-anchor="middle" x="659" y="-399.5" font-family="Helvetica,sans-Serif" font-size="10.00">Observer::SendResponse</text>
</a>
</g>
</g>
<!-- Node404&#45;&gt;Node423 -->
<g id="edge40" class="edge"><title>Node404&#45;&gt;Node423</title>
<path fill="none" stroke="midnightblue" d="M138.05,-373.531C154.201,-377.004 171.683,-380.316 188,-382.5 321.625,-400.383 478.231,-405.599 572.694,-407.048"/>
<polygon fill="midnightblue" stroke="midnightblue" points="572.719,-410.549 582.768,-407.192 572.819,-403.549 572.719,-410.549"/>
</g>
<!-- Node441 -->
<g id="node38" class="node"><title>Node441</title>
<g id="a_node38"><a xlink:href="../../d6/dc5/classservices_1_1_http_response_bad_request.html#ac7a9bfd1b57747a52a9d28fe78925dbc" target="_top" xlink:title="services::HttpResponseBad\lRequest::Instance">
<polygon fill="white" stroke="black" points="195.5,-294.5 195.5,-324.5 332.5,-324.5 332.5,-294.5 195.5,-294.5"/>
<text text-anchor="start" x="203.5" y="-312.5" font-family="Helvetica,sans-Serif" font-size="10.00">services::HttpResponseBad</text>
<text text-anchor="middle" x="264" y="-301.5" font-family="Helvetica,sans-Serif" font-size="10.00">Request::Instance</text>
</a>
</g>
</g>
<!-- Node404&#45;&gt;Node441 -->
<g id="edge39" class="edge"><title>Node404&#45;&gt;Node441</title>
<path fill="none" stroke="midnightblue" d="M134.07,-343.465C153.709,-338.292 175.874,-332.452 196.217,-327.093"/>
<polygon fill="midnightblue" stroke="midnightblue" points="197.259,-330.438 206.038,-324.506 195.476,-323.669 197.259,-330.438"/>
</g>
<!-- Node442 -->
<g id="node39" class="node"><title>Node442</title>
<g id="a_node39"><a xlink:href="../../db/d75/classservices_1_1_http_request_parser.html#a331860a7900c2f6bb4fda3f102dfc2e1" target="_top" xlink:title="services::HttpRequestParser\l::Valid">
<polygon fill="white" stroke="black" points="194,-245.5 194,-275.5 334,-275.5 334,-245.5 194,-245.5"/>
<text text-anchor="start" x="202" y="-263.5" font-family="Helvetica,sans-Serif" font-size="10.00">services::HttpRequestParser</text>
<text text-anchor="middle" x="264" y="-252.5" font-family="Helvetica,sans-Serif" font-size="10.00">::Valid</text>
</a>
</g>
</g>
<!-- Node404&#45;&gt;Node442 -->
<g id="edge41" class="edge"><title>Node404&#45;&gt;Node442</title>
<path fill="none" stroke="midnightblue" d="M96.0544,-343.382C117.411,-327.03 153.57,-301.083 188,-284.5 191.811,-282.665 195.796,-280.922 199.857,-279.278"/>
<polygon fill="midnightblue" stroke="midnightblue" points="201.336,-282.459 209.427,-275.618 198.836,-275.921 201.336,-282.459"/>
</g>
<!-- Node406 -->
<g id="node3" class="node"><title>Node406</title>
<g id="a_node3"><a xlink:href="../../d0/dde/classservices_1_1_connection.html#aa46394f498a40168584a97003f31aa22" target="_top" xlink:title="services::Connection\l::CloseAndDestroy">
<polygon fill="white" stroke="black" points="1175,-640.5 1175,-670.5 1282,-670.5 1282,-640.5 1175,-640.5"/>
<text text-anchor="start" x="1183" y="-658.5" font-family="Helvetica,sans-Serif" font-size="10.00">services::Connection</text>
<text text-anchor="middle" x="1228.5" y="-647.5" font-family="Helvetica,sans-Serif" font-size="10.00">::CloseAndDestroy</text>
</a>
</g>
</g>
<!-- Node405&#45;&gt;Node406 -->
<g id="edge2" class="edge"><title>Node405&#45;&gt;Node406</title>
<path fill="none" stroke="midnightblue" d="M1125.02,-653.768C1138.23,-653.991 1151.86,-654.222 1164.7,-654.439"/>
<polygon fill="midnightblue" stroke="midnightblue" points="1164.74,-657.94 1174.8,-654.609 1164.86,-650.941 1164.74,-657.94"/>
</g>
<!-- Node408 -->
<g id="node5" class="node"><title>Node408</title>
<g id="a_node5"><a xlink:href="../../d2/db3/classservices_1_1_http_server_connection_observer.html#aa52a5ace9f82b99c120ac085f0fab841" target="_top" xlink:title="services::HttpServerConnection\lObserver::Expect100">
<polygon fill="white" stroke="black" points="385,-343.5 385,-373.5 537,-373.5 537,-343.5 385,-343.5"/>
<text text-anchor="start" x="393" y="-361.5" font-family="Helvetica,sans-Serif" font-size="10.00">services::HttpServerConnection</text>
<text text-anchor="middle" x="461" y="-350.5" font-family="Helvetica,sans-Serif" font-size="10.00">Observer::Expect100</text>
</a>
</g>
</g>
<!-- Node407&#45;&gt;Node408 -->
<g id="edge4" class="edge"><title>Node407&#45;&gt;Node408</title>
<path fill="none" stroke="midnightblue" d="M340.113,-358.5C351.482,-358.5 363.279,-358.5 374.842,-358.5"/>
<polygon fill="midnightblue" stroke="midnightblue" points="374.926,-362 384.926,-358.5 374.925,-355 374.926,-362"/>
</g>
<!-- Node410 -->
<g id="node7" class="node"><title>Node410</title>
<g id="a_node7"><a xlink:href="../../d2/db3/classservices_1_1_http_server_connection_observer.html#ad9ee8e60b54a215cd8edec275193b645" target="_top" xlink:title="services::HttpServerConnection\lObserver::RequestIsNowInProgress">
<polygon fill="white" stroke="black" points="376,-294.5 376,-324.5 546,-324.5 546,-294.5 376,-294.5"/>
<text text-anchor="start" x="384" y="-312.5" font-family="Helvetica,sans-Serif" font-size="10.00">services::HttpServerConnection</text>
<text text-anchor="middle" x="461" y="-301.5" font-family="Helvetica,sans-Serif" font-size="10.00">Observer::RequestIsNowInProgress</text>
</a>
</g>
</g>
<!-- Node407&#45;&gt;Node410 -->
<g id="edge6" class="edge"><title>Node407&#45;&gt;Node410</title>
<path fill="none" stroke="midnightblue" d="M324.832,-343.465C345.608,-338.245 369.081,-332.346 390.567,-326.947"/>
<polygon fill="midnightblue" stroke="midnightblue" points="391.436,-330.338 400.282,-324.506 389.73,-323.549 391.436,-330.338"/>
</g>
<!-- Node418 -->
<g id="node15" class="node"><title>Node418</title>
<g id="a_node15"><a xlink:href="../../d2/db3/classservices_1_1_http_server_connection_observer.html#a9d0c9926c69222f44621afb71304247d" target="_top" xlink:title="services::HttpServerConnection\lObserver::ServePage">
<polygon fill="white" stroke="black" points="385,-225.5 385,-255.5 537,-255.5 537,-225.5 385,-225.5"/>
<text text-anchor="start" x="393" y="-243.5" font-family="Helvetica,sans-Serif" font-size="10.00">services::HttpServerConnection</text>
<text text-anchor="middle" x="461" y="-232.5" font-family="Helvetica,sans-Serif" font-size="10.00">Observer::ServePage</text>
</a>
</g>
</g>
<!-- Node407&#45;&gt;Node418 -->
<g id="edge14" class="edge"><title>Node407&#45;&gt;Node418</title>
<path fill="none" stroke="midnightblue" d="M322.532,-343.488C328.709,-340.681 334.675,-337.378 340,-333.5 361.844,-317.591 355.504,-302.112 376,-284.5 387.053,-275.003 400.504,-266.813 413.375,-260.162"/>
<polygon fill="midnightblue" stroke="midnightblue" points="415.193,-263.168 422.601,-255.594 412.087,-256.894 415.193,-263.168"/>
</g>
<!-- Node409 -->
<g id="node6" class="node"><title>Node409</title>
<g id="a_node6"><a xlink:href="../../db/d75/classservices_1_1_http_request_parser.html#aa122d68f6d00413c0cc9221ebd51cf54" target="_top" xlink:title="services::HttpRequestParser\l::Header">
<polygon fill="white" stroke="black" points="589,-343.5 589,-373.5 729,-373.5 729,-343.5 589,-343.5"/>
<text text-anchor="start" x="597" y="-361.5" font-family="Helvetica,sans-Serif" font-size="10.00">services::HttpRequestParser</text>
<text text-anchor="middle" x="659" y="-350.5" font-family="Helvetica,sans-Serif" font-size="10.00">::Header</text>
</a>
</g>
</g>
<!-- Node408&#45;&gt;Node409 -->
<g id="edge5" class="edge"><title>Node408&#45;&gt;Node409</title>
<path fill="none" stroke="midnightblue" d="M537.218,-358.5C550.724,-358.5 564.842,-358.5 578.465,-358.5"/>
<polygon fill="midnightblue" stroke="midnightblue" points="578.769,-362 588.768,-358.5 578.768,-355 578.769,-362"/>
</g>
<!-- Node411 -->
<g id="node8" class="node"><title>Node411</title>
<g id="a_node8"><a xlink:href="../../d5/da5/classinfra_1_1_timer.html#abf5658fb078dc1dad0705a7791f7b84c" target="_top" xlink:title="infra::Timer::Cancel">
<polygon fill="white" stroke="black" points="608.5,-256 608.5,-275 709.5,-275 709.5,-256 608.5,-256"/>
<text text-anchor="middle" x="659" y="-263" font-family="Helvetica,sans-Serif" font-size="10.00">infra::Timer::Cancel</text>
</a>
</g>
</g>
<!-- Node410&#45;&gt;Node411 -->
<g id="edge7" class="edge"><title>Node410&#45;&gt;Node411</title>
<path fill="none" stroke="midnightblue" d="M528.904,-294.481C554.036,-288.839 582.212,-282.514 605.814,-277.215"/>
<polygon fill="midnightblue" stroke="midnightblue" points="606.636,-280.618 615.626,-275.012 605.103,-273.788 606.636,-280.618"/>
</g>
<!-- Node417 -->
<g id="node14" class="node"><title>Node417</title>
<g id="a_node14"><a xlink:href="../../d2/db3/classservices_1_1_http_server_connection_observer.html#a74367c8b1bee862090307f7d4d6d6ffc" target="_top" xlink:title="services::HttpServerConnection\lObserver::ReceivedHttpRequest">
<polygon fill="white" stroke="black" points="582,-294.5 582,-324.5 736,-324.5 736,-294.5 582,-294.5"/>
<text text-anchor="start" x="590" y="-312.5" font-family="Helvetica,sans-Serif" font-size="10.00">services::HttpServerConnection</text>
<text text-anchor="middle" x="659" y="-301.5" font-family="Helvetica,sans-Serif" font-size="10.00">Observer::ReceivedHttpRequest</text>
</a>
</g>
</g>
<!-- Node410&#45;&gt;Node417 -->
<g id="edge13" class="edge"><title>Node410&#45;&gt;Node417</title>
<path fill="none" stroke="midnightblue" d="M546.259,-309.5C554.668,-309.5 563.215,-309.5 571.645,-309.5"/>
<polygon fill="midnightblue" stroke="midnightblue" points="571.853,-313 581.853,-309.5 571.853,-306 571.853,-313"/>
</g>
<!-- Node412 -->
<g id="node9" class="node"><title>Node412</title>
<g id="a_node9"><a xlink:href="../../d5/da5/classinfra_1_1_timer.html#a11b396e8d4300da06b8ce83624991b73" target="_top" xlink:title="infra::Timer::Convert">
<polygon fill="white" stroke="black" points="803,-256 803,-275 906,-275 906,-256 803,-256"/>
<text text-anchor="middle" x="854.5" y="-263" font-family="Helvetica,sans-Serif" font-size="10.00">infra::Timer::Convert</text>
</a>
</g>
</g>
<!-- Node411&#45;&gt;Node412 -->
<g id="edge8" class="edge"><title>Node411&#45;&gt;Node412</title>
<path fill="none" stroke="midnightblue" d="M709.58,-265.5C734.899,-265.5 765.924,-265.5 792.678,-265.5"/>
<polygon fill="midnightblue" stroke="midnightblue" points="792.701,-269 802.701,-265.5 792.701,-262 792.701,-269"/>
</g>
<!-- Node413 -->
<g id="node10" class="node"><title>Node413</title>
<g id="a_node10"><a xlink:href="../../d5/da5/classinfra_1_1_timer.html#a2b0bc71ca10c69d01f4965c576af73fd" target="_top" xlink:title="infra::Timer::UnregisterSelf">
<polygon fill="white" stroke="black" points="789,-95 789,-114 920,-114 920,-95 789,-95"/>
<text text-anchor="middle" x="854.5" y="-102" font-family="Helvetica,sans-Serif" font-size="10.00">infra::Timer::UnregisterSelf</text>
</a>
</g>
</g>
<!-- Node411&#45;&gt;Node413 -->
<g id="edge9" class="edge"><title>Node411&#45;&gt;Node413</title>
<path fill="none" stroke="midnightblue" d="M709.699,-257.166C718.875,-254.336 728.057,-250.554 736,-245.5 786.215,-213.548 825.705,-153.16 843.389,-122.841"/>
<polygon fill="midnightblue" stroke="midnightblue" points="846.443,-124.55 848.35,-114.128 840.36,-121.086 846.443,-124.55"/>
</g>
<!-- Node414 -->
<g id="node11" class="node"><title>Node414</title>
<g id="a_node11"><a xlink:href="../../da/def/classinfra_1_1_timer_service.html#a51f86cbeef8dc4866c087b68c24635d8" target="_top" xlink:title="infra::TimerService\l::UnregisterTimer">
<polygon fill="white" stroke="black" points="1001,-49.5 1001,-79.5 1097,-79.5 1097,-49.5 1001,-49.5"/>
<text text-anchor="start" x="1009" y="-67.5" font-family="Helvetica,sans-Serif" font-size="10.00">infra::TimerService</text>
<text text-anchor="middle" x="1049" y="-56.5" font-family="Helvetica,sans-Serif" font-size="10.00">::UnregisterTimer</text>
</a>
</g>
</g>
<!-- Node413&#45;&gt;Node414 -->
<g id="edge10" class="edge"><title>Node413&#45;&gt;Node414</title>
<path fill="none" stroke="midnightblue" d="M901.609,-94.919C928.473,-89.3368 962.568,-82.2521 991.094,-76.3247"/>
<polygon fill="midnightblue" stroke="midnightblue" points="991.852,-79.742 1000.93,-74.2807 990.427,-72.8884 991.852,-79.742"/>
</g>
<!-- Node415 -->
<g id="node12" class="node"><title>Node415</title>
<g id="a_node12"><a xlink:href="../../da/def/classinfra_1_1_timer_service.html#afb8a6ef3ee5ba728f1a8f232514bad8c" target="_top" xlink:title="infra::TimerService\l::ComputeNextTrigger">
<polygon fill="white" stroke="black" points="1173,-49.5 1173,-79.5 1284,-79.5 1284,-49.5 1173,-49.5"/>
<text text-anchor="start" x="1181" y="-67.5" font-family="Helvetica,sans-Serif" font-size="10.00">infra::TimerService</text>
<text text-anchor="middle" x="1228.5" y="-56.5" font-family="Helvetica,sans-Serif" font-size="10.00">::ComputeNextTrigger</text>
</a>
</g>
</g>
<!-- Node414&#45;&gt;Node415 -->
<g id="edge11" class="edge"><title>Node414&#45;&gt;Node415</title>
<path fill="none" stroke="midnightblue" d="M1097.1,-64.5C1117.23,-64.5 1141.05,-64.5 1162.79,-64.5"/>
<polygon fill="midnightblue" stroke="midnightblue" points="1162.94,-68.0001 1172.94,-64.5 1162.94,-61.0001 1162.94,-68.0001"/>
</g>
<!-- Node416 -->
<g id="node13" class="node"><title>Node416</title>
<g id="a_node13"><a xlink:href="../../da/def/classinfra_1_1_timer_service.html#a6ae66196dc18d8b383ba5e0f0b6f22fa" target="_top" xlink:title="infra::TimerService\l::NextTriggerChanged">
<polygon fill="white" stroke="black" points="1332,-49.5 1332,-79.5 1442,-79.5 1442,-49.5 1332,-49.5"/>
<text text-anchor="start" x="1340" y="-67.5" font-family="Helvetica,sans-Serif" font-size="10.00">infra::TimerService</text>
<text text-anchor="middle" x="1387" y="-56.5" font-family="Helvetica,sans-Serif" font-size="10.00">::NextTriggerChanged</text>
</a>
</g>
</g>
<!-- Node415&#45;&gt;Node416 -->
<g id="edge12" class="edge"><title>Node415&#45;&gt;Node416</title>
<path fill="none" stroke="midnightblue" d="M1284.24,-64.5C1296.29,-64.5 1309.16,-64.5 1321.55,-64.5"/>
<polygon fill="midnightblue" stroke="midnightblue" points="1321.82,-68.0001 1331.82,-64.5 1321.82,-61.0001 1321.82,-68.0001"/>
</g>
<!-- Node419 -->
<g id="node16" class="node"><title>Node419</title>
<g id="a_node16"><a xlink:href="../../de/d59/classservices_1_1_http_response_not_found.html#af6e3282676c8e6d94feb7018ad44dc11" target="_top" xlink:title="services::HttpResponseNot\lFound::Instance">
<polygon fill="white" stroke="black" points="592,-206.5 592,-236.5 726,-236.5 726,-206.5 592,-206.5"/>
<text text-anchor="start" x="600" y="-224.5" font-family="Helvetica,sans-Serif" font-size="10.00">services::HttpResponseNot</text>
<text text-anchor="middle" x="659" y="-213.5" font-family="Helvetica,sans-Serif" font-size="10.00">Found::Instance</text>
</a>
</g>
</g>
<!-- Node418&#45;&gt;Node419 -->
<g id="edge15" class="edge"><title>Node418&#45;&gt;Node419</title>
<path fill="none" stroke="midnightblue" d="M537.218,-233.208C551.866,-231.788 567.233,-230.299 581.91,-228.876"/>
<polygon fill="midnightblue" stroke="midnightblue" points="582.327,-232.352 591.942,-227.904 581.651,-225.385 582.327,-232.352"/>
</g>
<!-- Node420 -->
<g id="node17" class="node"><title>Node420</title>
<g id="a_node17"><a xlink:href="../../d2/db3/classservices_1_1_http_server_connection_observer.html#af1a6d6c094837fcb1232b483d53b5129" target="_top" xlink:title="services::HttpServerConnection\lObserver::PageForRequest">
<polygon fill="white" stroke="black" points="583,-118.5 583,-148.5 735,-148.5 735,-118.5 583,-118.5"/>
<text text-anchor="start" x="591" y="-136.5" font-family="Helvetica,sans-Serif" font-size="10.00">services::HttpServerConnection</text>
<text text-anchor="middle" x="659" y="-125.5" font-family="Helvetica,sans-Serif" font-size="10.00">Observer::PageForRequest</text>
</a>
</g>
</g>
<!-- Node418&#45;&gt;Node420 -->
<g id="edge16" class="edge"><title>Node418&#45;&gt;Node420</title>
<path fill="none" stroke="midnightblue" d="M489.666,-225.396C524.103,-206.597 583.029,-174.428 621.235,-153.571"/>
<polygon fill="midnightblue" stroke="midnightblue" points="623.374,-156.39 630.474,-148.527 620.02,-150.246 623.374,-156.39"/>
</g>
<!-- Node418&#45;&gt;Node423 -->
<g id="edge19" class="edge"><title>Node418&#45;&gt;Node423</title>
<path fill="none" stroke="midnightblue" d="M505.032,-255.612C519.646,-262.516 535.034,-272.001 546,-284.5 576.602,-319.38 548.632,-350.256 582,-382.5 583.498,-383.948 585.082,-385.312 586.736,-386.597"/>
<polygon fill="midnightblue" stroke="midnightblue" points="585.244,-389.805 595.52,-392.386 589.096,-383.961 585.244,-389.805"/>
</g>
<!-- Node421 -->
<g id="node18" class="node"><title>Node421</title>
<g id="a_node18"><a xlink:href="../../d9/da2/classservices_1_1_http_page_server.html#ae1e2d17c4d96872596b4b44d1eac86c8" target="_top" xlink:title="services::HttpPageServer\l::PageForRequest">
<polygon fill="white" stroke="black" points="792,-40.5 792,-70.5 917,-70.5 917,-40.5 792,-40.5"/>
<text text-anchor="start" x="800" y="-58.5" font-family="Helvetica,sans-Serif" font-size="10.00">services::HttpPageServer</text>
<text text-anchor="middle" x="854.5" y="-47.5" font-family="Helvetica,sans-Serif" font-size="10.00">::PageForRequest</text>
</a>
</g>
</g>
<!-- Node420&#45;&gt;Node421 -->
<g id="edge17" class="edge"><title>Node420&#45;&gt;Node421</title>
<path fill="none" stroke="midnightblue" d="M694.12,-118.329C716.21,-108.643 745.662,-95.9831 772,-85.5 781.456,-81.7364 791.591,-77.8718 801.391,-74.2212"/>
<polygon fill="midnightblue" stroke="midnightblue" points="802.874,-77.4042 811.04,-70.6535 800.447,-70.8385 802.874,-77.4042"/>
</g>
<!-- Node422 -->
<g id="node19" class="node"><title>Node422</title>
<g id="a_node19"><a xlink:href="../../db/d75/classservices_1_1_http_request_parser.html#a1dc03cddacd9b36dba269230c74e8f93" target="_top" xlink:title="services::HttpRequestParser\l::PathTokens">
<polygon fill="white" stroke="black" points="979,-0.5 979,-30.5 1119,-30.5 1119,-0.5 979,-0.5"/>
<text text-anchor="start" x="987" y="-18.5" font-family="Helvetica,sans-Serif" font-size="10.00">services::HttpRequestParser</text>
<text text-anchor="middle" x="1049" y="-7.5" font-family="Helvetica,sans-Serif" font-size="10.00">::PathTokens</text>
</a>
</g>
</g>
<!-- Node421&#45;&gt;Node422 -->
<g id="edge18" class="edge"><title>Node421&#45;&gt;Node422</title>
<path fill="none" stroke="midnightblue" d="M917.203,-42.6787C933.658,-39.2594 951.667,-35.5173 968.915,-31.9332"/>
<polygon fill="midnightblue" stroke="midnightblue" points="969.887,-35.3062 978.966,-29.8448 968.463,-28.4525 969.887,-35.3062"/>
</g>
<!-- Node424 -->
<g id="node21" class="node"><title>Node424</title>
<g id="a_node21"><a xlink:href="../../d1/d2a/classinfra_1_1_bounded_string_base.html#a997d5df64b1649389d4bf107c2a91cb4" target="_top" xlink:title="infra::BoundedStringBase\l::clear">
<polygon fill="white" stroke="black" points="985.5,-539.5 985.5,-569.5 1112.5,-569.5 1112.5,-539.5 985.5,-539.5"/>
<text text-anchor="start" x="993.5" y="-557.5" font-family="Helvetica,sans-Serif" font-size="10.00">infra::BoundedStringBase</text>
<text text-anchor="middle" x="1049" y="-546.5" font-family="Helvetica,sans-Serif" font-size="10.00">::clear</text>
</a>
</g>
</g>
<!-- Node423&#45;&gt;Node424 -->
<g id="edge20" class="edge"><title>Node423&#45;&gt;Node424</title>
<path fill="none" stroke="midnightblue" d="M696.333,-422.664C754.376,-446.688 871.795,-494.464 973,-530.5 978.445,-532.439 984.138,-534.392 989.848,-536.302"/>
<polygon fill="midnightblue" stroke="midnightblue" points="988.838,-539.654 999.432,-539.465 991.032,-533.007 988.838,-539.654"/>
</g>
<!-- Node425 -->
<g id="node22" class="node"><title>Node425</title>
<g id="a_node22"><a xlink:href="../../d2/db3/classservices_1_1_http_server_connection_observer.html#acf269a06771d6241e79fe2533ac19b88" target="_top" xlink:title="services::HttpServerConnection\lObserver::PrepareForNextRequest">
<polygon fill="white" stroke="black" points="772,-552.5 772,-582.5 937,-582.5 937,-552.5 772,-552.5"/>
<text text-anchor="start" x="780" y="-570.5" font-family="Helvetica,sans-Serif" font-size="10.00">services::HttpServerConnection</text>
<text text-anchor="middle" x="854.5" y="-559.5" font-family="Helvetica,sans-Serif" font-size="10.00">Observer::PrepareForNextRequest</text>
</a>
</g>
</g>
<!-- Node423&#45;&gt;Node425 -->
<g id="edge21" class="edge"><title>Node423&#45;&gt;Node425</title>
<path fill="none" stroke="midnightblue" d="M678.204,-422.552C712.634,-451.022 787.406,-512.848 827.257,-545.8"/>
<polygon fill="midnightblue" stroke="midnightblue" points="825.266,-548.696 835.203,-552.371 829.727,-543.301 825.266,-548.696"/>
</g>
<!-- Node428 -->
<g id="node25" class="node"><title>Node428</title>
<g id="a_node25"><a xlink:href="../../d2/db3/classservices_1_1_http_server_connection_observer.html#a5370331203b027dcae35fed243549608" target="_top" xlink:title="services::HttpServerConnection\lObserver::SendingHttpResponse">
<polygon fill="white" stroke="black" points="775.5,-392.5 775.5,-422.5 933.5,-422.5 933.5,-392.5 775.5,-392.5"/>
<text text-anchor="start" x="783.5" y="-410.5" font-family="Helvetica,sans-Serif" font-size="10.00">services::HttpServerConnection</text>
<text text-anchor="middle" x="854.5" y="-399.5" font-family="Helvetica,sans-Serif" font-size="10.00">Observer::SendingHttpResponse</text>
</a>
</g>
</g>
<!-- Node423&#45;&gt;Node428 -->
<g id="edge26" class="edge"><title>Node423&#45;&gt;Node428</title>
<path fill="none" stroke="midnightblue" d="M735.089,-407.5C744.969,-407.5 755.166,-407.5 765.24,-407.5"/>
<polygon fill="midnightblue" stroke="midnightblue" points="765.256,-411 775.256,-407.5 765.256,-404 765.256,-411"/>
</g>
<!-- Node429 -->
<g id="node26" class="node"><title>Node429</title>
<g id="a_node26"><a xlink:href="../../d9/dce/classservices_1_1_http_response.html#a2bdfd05b582453e0ba050dfa18009be7" target="_top" xlink:title="services::HttpResponse\l::WriteResponse">
<polygon fill="white" stroke="black" points="795,-318.5 795,-348.5 914,-348.5 914,-318.5 795,-318.5"/>
<text text-anchor="start" x="803" y="-336.5" font-family="Helvetica,sans-Serif" font-size="10.00">services::HttpResponse</text>
<text text-anchor="middle" x="854.5" y="-325.5" font-family="Helvetica,sans-Serif" font-size="10.00">::WriteResponse</text>
</a>
</g>
</g>
<!-- Node423&#45;&gt;Node429 -->
<g id="edge27" class="edge"><title>Node423&#45;&gt;Node429</title>
<path fill="none" stroke="midnightblue" d="M707.63,-392.458C717.077,-389.299 726.888,-385.893 736,-382.5 760.719,-373.296 787.926,-362.025 809.929,-352.614"/>
<polygon fill="midnightblue" stroke="midnightblue" points="811.527,-355.737 819.331,-348.571 808.762,-349.306 811.527,-355.737"/>
</g>
<!-- Node425&#45;&gt;Node405 -->
<g id="edge23" class="edge"><title>Node425&#45;&gt;Node405</title>
<path fill="none" stroke="midnightblue" d="M881.489,-582.618C904.903,-595.841 940.532,-614.991 973,-628.5 977.497,-630.371 982.194,-632.186 986.95,-633.924"/>
<polygon fill="midnightblue" stroke="midnightblue" points="986.152,-637.354 996.747,-637.378 988.479,-630.752 986.152,-637.354"/>
</g>
<!-- Node425&#45;&gt;Node424 -->
<g id="edge22" class="edge"><title>Node425&#45;&gt;Node424</title>
<path fill="none" stroke="midnightblue" d="M937.137,-561.987C949.706,-561.138 962.615,-560.266 974.981,-559.431"/>
<polygon fill="midnightblue" stroke="midnightblue" points="975.479,-562.906 985.22,-558.74 975.007,-555.922 975.479,-562.906"/>
</g>
<!-- Node426 -->
<g id="node23" class="node"><title>Node426</title>
<g id="a_node23"><a xlink:href="../../d2/db3/classservices_1_1_http_server_connection_observer.html#a5f1596968e2b15c170065391cfd7b29b" target="_top" xlink:title="services::HttpServerConnection\lObserver::RequestSendStream">
<polygon fill="white" stroke="black" points="973,-588.5 973,-618.5 1125,-618.5 1125,-588.5 973,-588.5"/>
<text text-anchor="start" x="981" y="-606.5" font-family="Helvetica,sans-Serif" font-size="10.00">services::HttpServerConnection</text>
<text text-anchor="middle" x="1049" y="-595.5" font-family="Helvetica,sans-Serif" font-size="10.00">Observer::RequestSendStream</text>
</a>
</g>
</g>
<!-- Node425&#45;&gt;Node426 -->
<g id="edge24" class="edge"><title>Node425&#45;&gt;Node426</title>
<path fill="none" stroke="midnightblue" d="M935.743,-582.507C944.663,-584.175 953.771,-585.878 962.75,-587.557"/>
<polygon fill="midnightblue" stroke="midnightblue" points="962.343,-591.042 972.816,-589.44 963.63,-584.161 962.343,-591.042"/>
</g>
<!-- Node427 -->
<g id="node24" class="node"><title>Node427</title>
<g id="a_node24"><a xlink:href="../../dc/d4c/classinfra_1_1_single_observer.html#abb13c69cc61182baf350ff1736fa772e" target="_top" xlink:title="infra::SingleObserver\l\&lt; ConnectionObserver,\l Connection \&gt;::Subject">
<polygon fill="white" stroke="black" points="1170.5,-580 1170.5,-621 1286.5,-621 1286.5,-580 1170.5,-580"/>
<text text-anchor="start" x="1178.5" y="-609" font-family="Helvetica,sans-Serif" font-size="10.00">infra::SingleObserver</text>
<text text-anchor="start" x="1178.5" y="-598" font-family="Helvetica,sans-Serif" font-size="10.00">&lt; ConnectionObserver,</text>
<text text-anchor="middle" x="1228.5" y="-587" font-family="Helvetica,sans-Serif" font-size="10.00"> Connection &gt;::Subject</text>
</a>
</g>
</g>
<!-- Node426&#45;&gt;Node427 -->
<g id="edge25" class="edge"><title>Node426&#45;&gt;Node427</title>
<path fill="none" stroke="midnightblue" d="M1125.02,-602.232C1136.61,-602.036 1148.52,-601.835 1159.93,-601.642"/>
<polygon fill="midnightblue" stroke="midnightblue" points="1160.31,-605.136 1170.25,-601.468 1160.2,-598.137 1160.31,-605.136"/>
</g>
<!-- Node430 -->
<g id="node27" class="node"><title>Node430</title>
<g id="a_node27"><a xlink:href="../../db/d21/classservices_1_1_http_response_header_builder.html#a4f2665f76fa3590ae24cf999f4a0aaf0" target="_top" xlink:title="services::HttpResponseHeader\lBuilder::AddHeader">
<polygon fill="white" stroke="black" points="974,-294.5 974,-324.5 1124,-324.5 1124,-294.5 974,-294.5"/>
<text text-anchor="start" x="982" y="-312.5" font-family="Helvetica,sans-Serif" font-size="10.00">services::HttpResponseHeader</text>
<text text-anchor="middle" x="1049" y="-301.5" font-family="Helvetica,sans-Serif" font-size="10.00">Builder::AddHeader</text>
</a>
</g>
</g>
<!-- Node429&#45;&gt;Node430 -->
<g id="edge28" class="edge"><title>Node429&#45;&gt;Node430</title>
<path fill="none" stroke="midnightblue" d="M914.04,-326.201C929.613,-324.26 946.75,-322.123 963.413,-320.046"/>
<polygon fill="midnightblue" stroke="midnightblue" points="964.219,-323.473 973.709,-318.762 963.353,-316.526 964.219,-323.473"/>
</g>
<!-- Node431 -->
<g id="node28" class="node"><title>Node431</title>
<g id="a_node28"><a xlink:href="../../d9/dce/classservices_1_1_http_response.html#a8d2d044801b3c9e8f6a46d0b6f249972" target="_top" xlink:title="services::HttpResponse\l::AddHeaders">
<polygon fill="white" stroke="black" points="989.5,-245.5 989.5,-275.5 1108.5,-275.5 1108.5,-245.5 989.5,-245.5"/>
<text text-anchor="start" x="997.5" y="-263.5" font-family="Helvetica,sans-Serif" font-size="10.00">services::HttpResponse</text>
<text text-anchor="middle" x="1049" y="-252.5" font-family="Helvetica,sans-Serif" font-size="10.00">::AddHeaders</text>
</a>
</g>
</g>
<!-- Node429&#45;&gt;Node431 -->
<g id="edge29" class="edge"><title>Node429&#45;&gt;Node431</title>
<path fill="none" stroke="midnightblue" d="M889.387,-318.465C912.697,-308.347 944.477,-294.989 973,-284.5 978.213,-282.583 983.66,-280.67 989.135,-278.808"/>
<polygon fill="midnightblue" stroke="midnightblue" points="990.601,-282.009 998.978,-275.522 988.384,-275.369 990.601,-282.009"/>
</g>
<!-- Node432 -->
<g id="node29" class="node"><title>Node432</title>
<g id="a_node29"><a xlink:href="../../d9/dce/classservices_1_1_http_response.html#ad0cbb88b07ffa2418487f756aecee7c9" target="_top" xlink:title="services::HttpResponse\l::ContentType">
<polygon fill="white" stroke="black" points="989.5,-196.5 989.5,-226.5 1108.5,-226.5 1108.5,-196.5 989.5,-196.5"/>
<text text-anchor="start" x="997.5" y="-214.5" font-family="Helvetica,sans-Serif" font-size="10.00">services::HttpResponse</text>
<text text-anchor="middle" x="1049" y="-203.5" font-family="Helvetica,sans-Serif" font-size="10.00">::ContentType</text>
</a>
</g>
</g>
<!-- Node429&#45;&gt;Node432 -->
<g id="edge30" class="edge"><title>Node429&#45;&gt;Node432</title>
<path fill="none" stroke="midnightblue" d="M886.879,-318.433C902.908,-309.835 922.116,-298.07 937,-284.5 956.97,-266.293 951.06,-251.277 973,-235.5 975.341,-233.816 977.806,-232.247 980.358,-230.785"/>
<polygon fill="midnightblue" stroke="midnightblue" points="981.999,-233.877 989.317,-226.216 978.818,-227.641 981.999,-233.877"/>
</g>
<!-- Node433 -->
<g id="node30" class="node"><title>Node433</title>
<g id="a_node30"><a xlink:href="../../d6/d97/classinfra_1_1_output_stream.html#a0a450346655274469b89ef62d85869c8" target="_top" xlink:title="infra::OutputStream\l::ProcessedBytesSince">
<polygon fill="white" stroke="black" points="989.5,-147.5 989.5,-177.5 1108.5,-177.5 1108.5,-147.5 989.5,-147.5"/>
<text text-anchor="start" x="997.5" y="-165.5" font-family="Helvetica,sans-Serif" font-size="10.00">infra::OutputStream</text>
<text text-anchor="middle" x="1049" y="-154.5" font-family="Helvetica,sans-Serif" font-size="10.00">::ProcessedBytesSince</text>
</a>
</g>
</g>
<!-- Node429&#45;&gt;Node433 -->
<g id="edge31" class="edge"><title>Node429&#45;&gt;Node433</title>
<path fill="none" stroke="midnightblue" d="M891.84,-318.387C907.535,-310.31 925.009,-299.007 937,-284.5 966.563,-248.736 939.502,-218.609 973,-186.5 975.295,-184.3 977.791,-182.303 980.434,-180.488"/>
<polygon fill="midnightblue" stroke="midnightblue" points="982.444,-183.367 989.304,-175.292 978.906,-177.326 982.444,-183.367"/>
</g>
<!-- Node435 -->
<g id="node32" class="node"><title>Node435</title>
<g id="a_node32"><a xlink:href="../../d6/d97/classinfra_1_1_output_stream.html#a206389ce4c805263bd5b70c5bfe84a26" target="_top" xlink:title="infra::OutputStream\l::SaveMarker">
<polygon fill="white" stroke="black" points="998.5,-98.5 998.5,-128.5 1099.5,-128.5 1099.5,-98.5 998.5,-98.5"/>
<text text-anchor="start" x="1006.5" y="-116.5" font-family="Helvetica,sans-Serif" font-size="10.00">infra::OutputStream</text>
<text text-anchor="middle" x="1049" y="-105.5" font-family="Helvetica,sans-Serif" font-size="10.00">::SaveMarker</text>
</a>
</g>
</g>
<!-- Node429&#45;&gt;Node435 -->
<g id="edge33" class="edge"><title>Node429&#45;&gt;Node435</title>
<path fill="none" stroke="midnightblue" d="M893.861,-318.349C909.366,-310.427 926.132,-299.256 937,-284.5 976.89,-230.341 927.119,-186.687 973,-137.5 977.467,-132.711 982.889,-128.873 988.752,-125.8"/>
<polygon fill="midnightblue" stroke="midnightblue" points="990.541,-128.834 998.253,-121.571 987.694,-122.439 990.541,-128.834"/>
</g>
<!-- Node437 -->
<g id="node34" class="node"><title>Node437</title>
<g id="a_node34"><a xlink:href="../../db/d21/classservices_1_1_http_response_header_builder.html#a819f30b8ceafbb85d7f72dd986b8f948" target="_top" xlink:title="services::HttpResponseHeader\lBuilder::StartBody">
<polygon fill="white" stroke="black" points="974,-490.5 974,-520.5 1124,-520.5 1124,-490.5 974,-490.5"/>
<text text-anchor="start" x="982" y="-508.5" font-family="Helvetica,sans-Serif" font-size="10.00">services::HttpResponseHeader</text>
<text text-anchor="middle" x="1049" y="-497.5" font-family="Helvetica,sans-Serif" font-size="10.00">Builder::StartBody</text>
</a>
</g>
</g>
<!-- Node429&#45;&gt;Node437 -->
<g id="edge35" class="edge"><title>Node429&#45;&gt;Node437</title>
<path fill="none" stroke="midnightblue" d="M891.862,-348.595C907.562,-356.668 925.032,-367.974 937,-382.5 966.77,-418.635 939.254,-449.047 973,-481.5 974.109,-482.566 975.265,-483.585 976.462,-484.558"/>
<polygon fill="midnightblue" stroke="midnightblue" points="974.667,-487.572 984.892,-490.349 978.631,-481.802 974.667,-487.572"/>
</g>
<!-- Node438 -->
<g id="node35" class="node"><title>Node438</title>
<g id="a_node35"><a xlink:href="../../d9/dce/classservices_1_1_http_response.html#ad35784befa3276d3828ac8f1ffcbde32" target="_top" xlink:title="services::HttpResponse\l::Status">
<polygon fill="white" stroke="black" points="989.5,-441.5 989.5,-471.5 1108.5,-471.5 1108.5,-441.5 989.5,-441.5"/>
<text text-anchor="start" x="997.5" y="-459.5" font-family="Helvetica,sans-Serif" font-size="10.00">services::HttpResponse</text>
<text text-anchor="middle" x="1049" y="-448.5" font-family="Helvetica,sans-Serif" font-size="10.00">::Status</text>
</a>
</g>
</g>
<!-- Node429&#45;&gt;Node438 -->
<g id="edge36" class="edge"><title>Node429&#45;&gt;Node438</title>
<path fill="none" stroke="midnightblue" d="M886.932,-348.509C902.977,-357.091 922.181,-368.858 937,-382.5 957.147,-401.046 950.845,-416.406 973,-432.5 975.333,-434.195 977.791,-435.773 980.337,-437.243"/>
<polygon fill="midnightblue" stroke="midnightblue" points="978.787,-440.381 989.282,-441.833 981.982,-434.153 978.787,-440.381"/>
</g>
<!-- Node439 -->
<g id="node36" class="node"><title>Node439</title>
<g id="a_node36"><a xlink:href="../../d9/dce/classservices_1_1_http_response.html#a5f6fa1332ba1a8b3b7fa2f8e7d723601" target="_top" xlink:title="services::HttpResponse\l::WriteBody">
<polygon fill="white" stroke="black" points="989.5,-392.5 989.5,-422.5 1108.5,-422.5 1108.5,-392.5 989.5,-392.5"/>
<text text-anchor="start" x="997.5" y="-410.5" font-family="Helvetica,sans-Serif" font-size="10.00">services::HttpResponse</text>
<text text-anchor="middle" x="1049" y="-399.5" font-family="Helvetica,sans-Serif" font-size="10.00">::WriteBody</text>
</a>
</g>
</g>
<!-- Node429&#45;&gt;Node439 -->
<g id="edge37" class="edge"><title>Node429&#45;&gt;Node439</title>
<path fill="none" stroke="midnightblue" d="M889.683,-348.535C912.987,-358.592 944.644,-371.878 973,-382.5 978.904,-384.712 985.105,-386.935 991.305,-389.094"/>
<polygon fill="midnightblue" stroke="midnightblue" points="990.41,-392.487 1001,-392.423 992.682,-385.866 990.41,-392.487"/>
</g>
<!-- Node440 -->
<g id="node37" class="node"><title>Node440</title>
<g id="a_node37"><a xlink:href="../../d6/d97/classinfra_1_1_output_stream.html#a84a64f5c0f2237260bbc1aa42f39eacc" target="_top" xlink:title="infra::OutputStream\l::Writer">
<polygon fill="white" stroke="black" points="998.5,-343.5 998.5,-373.5 1099.5,-373.5 1099.5,-343.5 998.5,-343.5"/>
<text text-anchor="start" x="1006.5" y="-361.5" font-family="Helvetica,sans-Serif" font-size="10.00">infra::OutputStream</text>
<text text-anchor="middle" x="1049" y="-350.5" font-family="Helvetica,sans-Serif" font-size="10.00">::Writer</text>
</a>
</g>
</g>
<!-- Node429&#45;&gt;Node440 -->
<g id="edge38" class="edge"><title>Node429&#45;&gt;Node440</title>
<path fill="none" stroke="midnightblue" d="M914.04,-341.103C937.657,-344.17 964.87,-347.704 988.575,-350.782"/>
<polygon fill="midnightblue" stroke="midnightblue" points="988.131,-354.254 998.499,-352.071 989.033,-347.312 988.131,-354.254"/>
</g>
<!-- Node434 -->
<g id="node31" class="node"><title>Node434</title>
<g id="a_node31"><a xlink:href="../../de/dba/classinfra_1_1_stream_writer.html#af0dd36973b3af708faa536741e5b5420" target="_top" xlink:title="infra::StreamWriter\l::GetProcessedBytesSince">
<polygon fill="white" stroke="black" points="1161,-147.5 1161,-177.5 1296,-177.5 1296,-147.5 1161,-147.5"/>
<text text-anchor="start" x="1169" y="-165.5" font-family="Helvetica,sans-Serif" font-size="10.00">infra::StreamWriter</text>
<text text-anchor="middle" x="1228.5" y="-154.5" font-family="Helvetica,sans-Serif" font-size="10.00">::GetProcessedBytesSince</text>
</a>
</g>
</g>
<!-- Node433&#45;&gt;Node434 -->
<g id="edge32" class="edge"><title>Node433&#45;&gt;Node434</title>
<path fill="none" stroke="midnightblue" d="M1108.61,-162.5C1122.1,-162.5 1136.64,-162.5 1150.77,-162.5"/>
<polygon fill="midnightblue" stroke="midnightblue" points="1150.97,-166 1160.97,-162.5 1150.97,-159 1150.97,-166"/>
</g>
<!-- Node436 -->
<g id="node33" class="node"><title>Node436</title>
<g id="a_node33"><a xlink:href="../../de/dba/classinfra_1_1_stream_writer.html#af17d6e8ca06960c86a745c9f60f08949" target="_top" xlink:title="infra::StreamWriter\l::ConstructSaveMarker">
<polygon fill="white" stroke="black" points="1170.5,-98.5 1170.5,-128.5 1286.5,-128.5 1286.5,-98.5 1170.5,-98.5"/>
<text text-anchor="start" x="1178.5" y="-116.5" font-family="Helvetica,sans-Serif" font-size="10.00">infra::StreamWriter</text>
<text text-anchor="middle" x="1228.5" y="-105.5" font-family="Helvetica,sans-Serif" font-size="10.00">::ConstructSaveMarker</text>
</a>
</g>
</g>
<!-- Node435&#45;&gt;Node436 -->
<g id="edge34" class="edge"><title>Node435&#45;&gt;Node436</title>
<path fill="none" stroke="midnightblue" d="M1099.92,-113.5C1118.69,-113.5 1140.35,-113.5 1160.43,-113.5"/>
<polygon fill="midnightblue" stroke="midnightblue" points="1160.45,-117 1170.45,-113.5 1160.45,-110 1160.45,-117"/>
</g>
</g>
</svg>
