<?xml version="1.0" encoding="UTF-8" standalone="no"?>
<!DOCTYPE svg PUBLIC "-//W3C//DTD SVG 1.1//EN"
 "http://www.w3.org/Graphics/SVG/1.1/DTD/svg11.dtd">
<!-- Generated by graphviz version 2.38.0 (20140413.2041)
 -->
<!-- Title: services::HttpServerConnectionObserver::RequestIsNowInProgress Pages: 1 -->
<svg width="1119pt" height="39pt"
 viewBox="0.00 0.00 1119.00 39.00" xmlns="http://www.w3.org/2000/svg" xmlns:xlink="http://www.w3.org/1999/xlink">
<g id="graph0" class="graph" transform="scale(1 1) rotate(0) translate(4 35)">
<title>services::HttpServerConnectionObserver::RequestIsNowInProgress</title>
<polygon fill="white" stroke="none" points="-4,4 -4,-35 1115,-35 1115,4 -4,4"/>
<!-- Node252 -->
<g id="node1" class="node"><title>Node252</title>
<polygon fill="#bfbfbf" stroke="black" points="0,-0.5 0,-30.5 170,-30.5 170,-0.5 0,-0.5"/>
<text text-anchor="start" x="8" y="-18.5" font-family="Helvetica,sans-Serif" font-size="10.00">services::HttpServerConnection</text>
<text text-anchor="middle" x="85" y="-7.5" font-family="Helvetica,sans-Serif" font-size="10.00">Observer::RequestIsNowInProgress</text>
</g>
<!-- Node253 -->
<g id="node2" class="node"><title>Node253</title>
<g id="a_node2"><a xlink:href="../../d2/db3/classservices_1_1_http_server_connection_observer.html#a52e5c280fabbed909272946c730d6aff" target="_top" xlink:title="services::HttpServerConnection\lObserver::HandleRequest">
<polygon fill="white" stroke="black" points="206,-0.5 206,-30.5 358,-30.5 358,-0.5 206,-0.5"/>
<text text-anchor="start" x="214" y="-18.5" font-family="Helvetica,sans-Serif" font-size="10.00">services::HttpServerConnection</text>
<text text-anchor="middle" x="282" y="-7.5" font-family="Helvetica,sans-Serif" font-size="10.00">Observer::HandleRequest</text>
</a>
</g>
</g>
<!-- Node252&#45;&gt;Node253 -->
<g id="edge1" class="edge"><title>Node252&#45;&gt;Node253</title>
<path fill="none" stroke="midnightblue" d="M180.162,-15.5C188.75,-15.5 197.373,-15.5 205.763,-15.5"/>
<polygon fill="midnightblue" stroke="midnightblue" points="180.112,-12.0001 170.112,-15.5 180.112,-19.0001 180.112,-12.0001"/>
</g>
<!-- Node254 -->
<g id="node3" class="node"><title>Node254</title>
<g id="a_node3"><a xlink:href="../../d2/db3/classservices_1_1_http_server_connection_observer.html#a54d34389a1f80059a349bfb5b5f273dc" target="_top" xlink:title="services::HttpServerConnection\lObserver::TryHandleRequest">
<polygon fill="white" stroke="black" points="394,-0.5 394,-30.5 546,-30.5 546,-0.5 394,-0.5"/>
<text text-anchor="start" x="402" y="-18.5" font-family="Helvetica,sans-Serif" font-size="10.00">services::HttpServerConnection</text>
<text text-anchor="middle" x="470" y="-7.5" font-family="Helvetica,sans-Serif" font-size="10.00">Observer::TryHandleRequest</text>
</a>
</g>
</g>
<!-- Node253&#45;&gt;Node254 -->
<g id="edge2" class="edge"><title>Node253&#45;&gt;Node254</title>
<path fill="none" stroke="midnightblue" d="M368.147,-15.5C376.742,-15.5 385.426,-15.5 393.905,-15.5"/>
<polygon fill="midnightblue" stroke="midnightblue" points="368.117,-12.0001 358.117,-15.5 368.117,-19.0001 368.117,-12.0001"/>
</g>
<!-- Node255 -->
<g id="node4" class="node"><title>Node255</title>
<g id="a_node4"><a xlink:href="../../d2/db3/classservices_1_1_http_server_connection_observer.html#a6213f7b12f5fb1c0ddbabdb859ddca0a" target="_top" xlink:title="services::HttpServerConnection\lObserver::ReceivedRequest">
<polygon fill="white" stroke="black" points="582,-0.5 582,-30.5 734,-30.5 734,-0.5 582,-0.5"/>
<text text-anchor="start" x="590" y="-18.5" font-family="Helvetica,sans-Serif" font-size="10.00">services::HttpServerConnection</text>
<text text-anchor="middle" x="658" y="-7.5" font-family="Helvetica,sans-Serif" font-size="10.00">Observer::ReceivedRequest</text>
</a>
</g>
</g>
<!-- Node254&#45;&gt;Node255 -->
<g id="edge3" class="edge"><title>Node254&#45;&gt;Node255</title>
<path fill="none" stroke="midnightblue" d="M556.147,-15.5C564.742,-15.5 573.426,-15.5 581.905,-15.5"/>
<polygon fill="midnightblue" stroke="midnightblue" points="556.117,-12.0001 546.117,-15.5 556.117,-19.0001 556.117,-12.0001"/>
</g>
<!-- Node256 -->
<g id="node5" class="node"><title>Node256</title>
<g id="a_node5"><a xlink:href="../../d2/db3/classservices_1_1_http_server_connection_observer.html#a3c5cabea13da6e140280b1b8c77244b3" target="_top" xlink:title="services::HttpServerConnection\lObserver::DataReceived">
<polygon fill="white" stroke="black" points="770,-0.5 770,-30.5 922,-30.5 922,-0.5 770,-0.5"/>
<text text-anchor="start" x="778" y="-18.5" font-family="Helvetica,sans-Serif" font-size="10.00">services::HttpServerConnection</text>
<text text-anchor="middle" x="846" y="-7.5" font-family="Helvetica,sans-Serif" font-size="10.00">Observer::DataReceived</text>
</a>
</g>
</g>
<!-- Node255&#45;&gt;Node256 -->
<g id="edge4" class="edge"><title>Node255&#45;&gt;Node256</title>
<path fill="none" stroke="midnightblue" d="M744.147,-15.5C752.742,-15.5 761.426,-15.5 769.905,-15.5"/>
<polygon fill="midnightblue" stroke="midnightblue" points="744.117,-12.0001 734.117,-15.5 744.117,-19.0001 744.117,-12.0001"/>
</g>
<!-- Node257 -->
<g id="node6" class="node"><title>Node257</title>
<g id="a_node6"><a xlink:href="../../d2/db3/classservices_1_1_http_server_connection_observer.html#a579fc75f469c5b79141187fc04dbf74c" target="_top" xlink:title="services::HttpServerConnection\lObserver::SendStreamAvailable">
<polygon fill="white" stroke="black" points="958,-0.5 958,-30.5 1111,-30.5 1111,-0.5 958,-0.5"/>
<text text-anchor="start" x="966" y="-18.5" font-family="Helvetica,sans-Serif" font-size="10.00">services::HttpServerConnection</text>
<text text-anchor="middle" x="1034.5" y="-7.5" font-family="Helvetica,sans-Serif" font-size="10.00">Observer::SendStreamAvailable</text>
</a>
</g>
</g>
<!-- Node256&#45;&gt;Node257 -->
<g id="edge5" class="edge"><title>Node256&#45;&gt;Node257</title>
<path fill="none" stroke="midnightblue" d="M932.121,-15.5C940.752,-15.5 949.476,-15.5 957.996,-15.5"/>
<polygon fill="midnightblue" stroke="midnightblue" points="932.051,-12.0001 922.051,-15.5 932.05,-19.0001 932.051,-12.0001"/>
</g>
</g>
</svg>
