<?xml version="1.0" encoding="UTF-8" standalone="no"?>
<!DOCTYPE svg PUBLIC "-//W3C//DTD SVG 1.1//EN"
 "http://www.w3.org/Graphics/SVG/1.1/DTD/svg11.dtd">
<!-- Generated by graphviz version 2.38.0 (20140413.2041)
 -->
<!-- Title: services::HttpServerConnectionObserver::PrepareForNextRequest Pages: 1 -->
<!--zoomable 147 -->
<svg id="main" version="1.1" xmlns="http://www.w3.org/2000/svg" xmlns:xlink="http://www.w3.org/1999/xlink" xml:space="preserve" onload="init(evt)">
<style type="text/css"><![CDATA[
.edge:hover path { stroke: red; }
.edge:hover polygon { stroke: red; fill: red; }
]]></style>
<script type="text/javascript"><![CDATA[
var edges = document.getElementsByTagName('g');
if (edges && edges.length) {
  for (var i=0;i<edges.length;i++) {
    if (edges[i].id.substr(0,4)=='edge') {
      edges[i].setAttribute('class','edge');
    }
  }
}
]]></script>
        <defs>
                <circle id="rim" cx="0" cy="0" r="7"/>
                <circle id="rim2" cx="0" cy="0" r="3.5"/>
                <g id="zoomPlus">
                        <use xlink:href="#rim" fill="#404040">
                                <set attributeName="fill" to="#808080" begin="zoomplus.mouseover" end="zoomplus.mouseout"/>
                        </use>
                        <path d="M-4,0h8M0,-4v8" fill="none" stroke="white" stroke-width="1.5" pointer-events="none"/>
                </g>
                <g id="zoomMin">
                        <use xlink:href="#rim" fill="#404040">
                                <set attributeName="fill" to="#808080" begin="zoomminus.mouseover" end="zoomminus.mouseout"/>
                        </use>
                        <path d="M-4,0h8" fill="none" stroke="white" stroke-width="1.5" pointer-events="none"/>
                </g>
                <g id="dirArrow">
                        <path fill="none" stroke="white" stroke-width="1.5" d="M0,-3.0v7 M-2.5,-0.5L0,-3.0L2.5,-0.5"/>
                </g>
               <g id="resetDef">
                       <use xlink:href="#rim2" fill="#404040">
                               <set attributeName="fill" to="#808080" begin="reset.mouseover" end="reset.mouseout"/>
                       </use>
               </g>
        </defs>

<script type="text/javascript">
var viewWidth = 513;
var viewHeight = 147;
var sectionId = 'dynsection-15';
</script>
<script xlink:href="../../svgpan.js"/>
<svg id="graph" class="graph">
<g id="viewport">
<title>services::HttpServerConnectionObserver::PrepareForNextRequest</title>
<polygon fill="white" stroke="none" points="-4,4 -4,-142.5 509,-142.5 509,4 -4,4"/>
<!-- Node145 -->
<g id="node1" class="node"><title>Node145</title>
<polygon fill="#bfbfbf" stroke="black" points="0,-59 0,-89 165,-89 165,-59 0,-59"/>
<text text-anchor="start" x="8" y="-77" font-family="Helvetica,sans-Serif" font-size="10.00">services::HttpServerConnection</text>
<text text-anchor="middle" x="82.5" y="-66" font-family="Helvetica,sans-Serif" font-size="10.00">Observer::PrepareForNextRequest</text>
</g>
<!-- Node146 -->
<g id="node2" class="node"><title>Node146</title>
<g id="a_node2"><a xlink:href="../../d1/d2a/classinfra_1_1_bounded_string_base.html#a997d5df64b1649389d4bf107c2a91cb4" target="_top" xlink:title="infra::BoundedStringBase\l::clear">
<polygon fill="white" stroke="black" points="213.5,-108 213.5,-138 340.5,-138 340.5,-108 213.5,-108"/>
<text text-anchor="start" x="221.5" y="-126" font-family="Helvetica,sans-Serif" font-size="10.00">infra::BoundedStringBase</text>
<text text-anchor="middle" x="277" y="-115" font-family="Helvetica,sans-Serif" font-size="10.00">::clear</text>
</a>
</g>
</g>
<!-- Node145&#45;&gt;Node146 -->
<g id="edge1" class="edge"><title>Node145&#45;&gt;Node146</title>
<path fill="none" stroke="midnightblue" d="M142.565,-89.0346C162.982,-94.2318 186.038,-100.101 207.17,-105.48"/>
<polygon fill="midnightblue" stroke="midnightblue" points="206.493,-108.919 217.047,-107.994 208.22,-102.135 206.493,-108.919"/>
</g>
<!-- Node147 -->
<g id="node3" class="node"><title>Node147</title>
<g id="a_node3"><a xlink:href="../../d2/db3/classservices_1_1_http_server_connection_observer.html#a15fda946dfcd1bef1595df4ba747def9" target="_top" xlink:title="services::HttpServerConnection\lObserver::Close">
<polygon fill="white" stroke="black" points="201,-59 201,-89 353,-89 353,-59 201,-59"/>
<text text-anchor="start" x="209" y="-77" font-family="Helvetica,sans-Serif" font-size="10.00">services::HttpServerConnection</text>
<text text-anchor="middle" x="277" y="-66" font-family="Helvetica,sans-Serif" font-size="10.00">Observer::Close</text>
</a>
</g>
</g>
<!-- Node145&#45;&gt;Node147 -->
<g id="edge2" class="edge"><title>Node145&#45;&gt;Node147</title>
<path fill="none" stroke="midnightblue" d="M165.137,-74C173.681,-74 182.382,-74 190.962,-74"/>
<polygon fill="midnightblue" stroke="midnightblue" points="190.963,-77.5001 200.963,-74 190.963,-70.5001 190.963,-77.5001"/>
</g>
<!-- Node149 -->
<g id="node5" class="node"><title>Node149</title>
<g id="a_node5"><a xlink:href="../../d2/db3/classservices_1_1_http_server_connection_observer.html#a5f1596968e2b15c170065391cfd7b29b" target="_top" xlink:title="services::HttpServerConnection\lObserver::RequestSendStream">
<polygon fill="white" stroke="black" points="201,-9 201,-39 353,-39 353,-9 201,-9"/>
<text text-anchor="start" x="209" y="-27" font-family="Helvetica,sans-Serif" font-size="10.00">services::HttpServerConnection</text>
<text text-anchor="middle" x="277" y="-16" font-family="Helvetica,sans-Serif" font-size="10.00">Observer::RequestSendStream</text>
</a>
</g>
</g>
<!-- Node145&#45;&gt;Node149 -->
<g id="edge4" class="edge"><title>Node145&#45;&gt;Node149</title>
<path fill="none" stroke="midnightblue" d="M141.256,-58.9984C162.289,-53.5354 186.257,-47.3099 208.089,-41.6391"/>
<polygon fill="midnightblue" stroke="midnightblue" points="209.153,-44.9791 217.952,-39.0774 207.393,-38.2039 209.153,-44.9791"/>
</g>
<!-- Node148 -->
<g id="node4" class="node"><title>Node148</title>
<g id="a_node4"><a xlink:href="../../d0/dde/classservices_1_1_connection.html#aa46394f498a40168584a97003f31aa22" target="_top" xlink:title="services::Connection\l::CloseAndDestroy">
<polygon fill="white" stroke="black" points="393.5,-61 393.5,-91 500.5,-91 500.5,-61 393.5,-61"/>
<text text-anchor="start" x="401.5" y="-79" font-family="Helvetica,sans-Serif" font-size="10.00">services::Connection</text>
<text text-anchor="middle" x="447" y="-68" font-family="Helvetica,sans-Serif" font-size="10.00">::CloseAndDestroy</text>
</a>
</g>
</g>
<!-- Node147&#45;&gt;Node148 -->
<g id="edge3" class="edge"><title>Node147&#45;&gt;Node148</title>
<path fill="none" stroke="midnightblue" d="M353.155,-74.8947C363.036,-75.0123 373.081,-75.1319 382.737,-75.2469"/>
<polygon fill="midnightblue" stroke="midnightblue" points="382.994,-78.7501 393.035,-75.3695 383.077,-71.7506 382.994,-78.7501"/>
</g>
<!-- Node150 -->
<g id="node6" class="node"><title>Node150</title>
<g id="a_node6"><a xlink:href="../../dc/d4c/classinfra_1_1_single_observer.html#abb13c69cc61182baf350ff1736fa772e" target="_top" xlink:title="infra::SingleObserver\l\&lt; ConnectionObserver,\l Connection \&gt;::Subject">
<polygon fill="white" stroke="black" points="389,-0.5 389,-41.5 505,-41.5 505,-0.5 389,-0.5"/>
<text text-anchor="start" x="397" y="-29.5" font-family="Helvetica,sans-Serif" font-size="10.00">infra::SingleObserver</text>
<text text-anchor="start" x="397" y="-18.5" font-family="Helvetica,sans-Serif" font-size="10.00">&lt; ConnectionObserver,</text>
<text text-anchor="middle" x="447" y="-7.5" font-family="Helvetica,sans-Serif" font-size="10.00"> Connection &gt;::Subject</text>
</a>
</g>
</g>
<!-- Node149&#45;&gt;Node150 -->
<g id="edge5" class="edge"><title>Node149&#45;&gt;Node150</title>
<path fill="none" stroke="midnightblue" d="M353.155,-22.6579C361.664,-22.506 370.296,-22.3519 378.696,-22.2019"/>
<polygon fill="midnightblue" stroke="midnightblue" points="378.866,-25.6995 388.802,-22.0214 378.741,-18.7006 378.866,-25.6995"/>
</g>
</g>
</svg>
        <g id="navigator" transform="translate(0 0)" fill="#404254">
                <rect fill="#f2f5e9" fill-opacity="0.5" stroke="#606060" stroke-width=".5" x="0" y="0" width="60" height="60"/>
                <use id="zoomplus" xlink:href="#zoomPlus" x="17" y="9" onmousedown="handleZoom(evt,'in')"/>
                <use id="zoomminus" xlink:href="#zoomMin" x="42" y="9" onmousedown="handleZoom(evt,'out')"/>
                <use id="reset" xlink:href="#resetDef" x="30" y="36" onmousedown="handleReset()"/>
                <g id="arrowUp" xlink:href="#dirArrow" transform="translate(30 24)" onmousedown="handlePan(0,-1)">
                  <use xlink:href="#rim" fill="#404040">
                        <set attributeName="fill" to="#808080" begin="arrowUp.mouseover" end="arrowUp.mouseout"/>
                  </use>
                  <path fill="none" stroke="white" stroke-width="1.5" d="M0,-3.0v7 M-2.5,-0.5L0,-3.0L2.5,-0.5"/>
                </g>
                <g id="arrowRight" xlink:href="#dirArrow" transform="rotate(90) translate(36 -43)" onmousedown="handlePan(1,0)">
                  <use xlink:href="#rim" fill="#404040">
                        <set attributeName="fill" to="#808080" begin="arrowRight.mouseover" end="arrowRight.mouseout"/>
                  </use>
                  <path fill="none" stroke="white" stroke-width="1.5" d="M0,-3.0v7 M-2.5,-0.5L0,-3.0L2.5,-0.5"/>
                </g>
                <g id="arrowDown" xlink:href="#dirArrow" transform="rotate(180) translate(-30 -48)" onmousedown="handlePan(0,1)">
                  <use xlink:href="#rim" fill="#404040">
                        <set attributeName="fill" to="#808080" begin="arrowDown.mouseover" end="arrowDown.mouseout"/>
                  </use>
                  <path fill="none" stroke="white" stroke-width="1.5" d="M0,-3.0v7 M-2.5,-0.5L0,-3.0L2.5,-0.5"/>
                </g>
                <g id="arrowLeft" xlink:href="#dirArrow" transform="rotate(270) translate(-36 17)" onmousedown="handlePan(-1,0)">
                  <use xlink:href="#rim" fill="#404040">
                        <set attributeName="fill" to="#808080" begin="arrowLeft.mouseover" end="arrowLeft.mouseout"/>
                  </use>
                  <path fill="none" stroke="white" stroke-width="1.5" d="M0,-3.0v7 M-2.5,-0.5L0,-3.0L2.5,-0.5"/>
                </g>
        </g>
        <svg viewBox="0 0 15 15" width="100%" height="30px" preserveAspectRatio="xMaxYMin meet">
         <g id="arrow_out" transform="scale(0.3 0.3)">
          <a xlink:href="classservices_1_1_http_server_connection_observer_acf269a06771d6241e79fe2533ac19b88_cgraph_org.svg" target="_base">
           <rect id="button" ry="5" rx="5" y="6" x="6" height="38" width="38"
                fill="#f2f5e9" fill-opacity="0.5" stroke="#606060" stroke-width="1.0"/>
           <path id="arrow"
             d="M 11.500037,31.436501 C 11.940474,20.09759 22.043105,11.32322 32.158766,21.979434 L 37.068811,17.246167 C 37.068811,17.246167 37.088388,32 37.088388,32 L 22.160133,31.978069 C 22.160133,31.978069 26.997745,27.140456 26.997745,27.140456 C 18.528582,18.264221 13.291696,25.230495 11.500037,31.436501 z"
             style="fill:#404040;"/>
          </a>
         </g>
        </svg>
</svg>
