<?xml version="1.0" encoding="UTF-8" standalone="no"?>
<!DOCTYPE svg PUBLIC "-//W3C//DTD SVG 1.1//EN"
 "http://www.w3.org/Graphics/SVG/1.1/DTD/svg11.dtd">
<!-- Generated by graphviz version 2.38.0 (20140413.2041)
 -->
<!-- Title: services::HttpServerConnectionObserver::SendResponse Pages: 1 -->
<svg width="1297pt" height="110pt"
 viewBox="0.00 0.00 1297.00 110.32" xmlns="http://www.w3.org/2000/svg" xmlns:xlink="http://www.w3.org/1999/xlink">
<g id="graph0" class="graph" transform="scale(1 1) rotate(0) translate(4 106.322)">
<title>services::HttpServerConnectionObserver::SendResponse</title>
<polygon fill="white" stroke="none" points="-4,4 -4,-106.322 1293,-106.322 1293,4 -4,4"/>
<!-- Node301 -->
<g id="node1" class="node"><title>Node301</title>
<polygon fill="#bfbfbf" stroke="black" points="0,-22.8224 0,-52.8224 152,-52.8224 152,-22.8224 0,-22.8224"/>
<text text-anchor="start" x="8" y="-40.8224" font-family="Helvetica,sans-Serif" font-size="10.00">services::HttpServerConnection</text>
<text text-anchor="middle" x="76" y="-29.8224" font-family="Helvetica,sans-Serif" font-size="10.00">Observer::SendResponse</text>
</g>
<!-- Node302 -->
<g id="node2" class="node"><title>Node302</title>
<g id="a_node2"><a xlink:href="../../d2/db3/classservices_1_1_http_server_connection_observer.html#afd24d585e0b90fc44643244b0712f92f" target="_top" xlink:title="services::HttpServerConnection\lObserver::ReceivedTooMuchData">
<polygon fill="white" stroke="black" points="376,-71.8224 376,-101.822 536,-101.822 536,-71.8224 376,-71.8224"/>
<text text-anchor="start" x="384" y="-89.8224" font-family="Helvetica,sans-Serif" font-size="10.00">services::HttpServerConnection</text>
<text text-anchor="middle" x="456" y="-78.8224" font-family="Helvetica,sans-Serif" font-size="10.00">Observer::ReceivedTooMuchData</text>
</a>
</g>
</g>
<!-- Node301&#45;&gt;Node302 -->
<g id="edge1" class="edge"><title>Node301&#45;&gt;Node302</title>
<path fill="none" stroke="midnightblue" d="M150.135,-54.9311C162.717,-57.5022 175.7,-59.9238 188,-61.8224 250.806,-71.5171 322.545,-77.9809 375.835,-81.9031"/>
<polygon fill="midnightblue" stroke="midnightblue" points="150.656,-51.4645 140.152,-52.8441 149.224,-58.3163 150.656,-51.4645"/>
</g>
<!-- Node305 -->
<g id="node5" class="node"><title>Node305</title>
<g id="a_node5"><a xlink:href="../../d2/db3/classservices_1_1_http_server_connection_observer.html#a9d0c9926c69222f44621afb71304247d" target="_top" xlink:title="services::HttpServerConnection\lObserver::ServePage">
<polygon fill="white" stroke="black" points="188,-22.8224 188,-52.8224 340,-52.8224 340,-22.8224 188,-22.8224"/>
<text text-anchor="start" x="196" y="-40.8224" font-family="Helvetica,sans-Serif" font-size="10.00">services::HttpServerConnection</text>
<text text-anchor="middle" x="264" y="-29.8224" font-family="Helvetica,sans-Serif" font-size="10.00">Observer::ServePage</text>
</a>
</g>
</g>
<!-- Node301&#45;&gt;Node305 -->
<g id="edge4" class="edge"><title>Node301&#45;&gt;Node305</title>
<path fill="none" stroke="midnightblue" d="M162.147,-37.8224C170.742,-37.8224 179.426,-37.8224 187.905,-37.8224"/>
<polygon fill="midnightblue" stroke="midnightblue" points="162.117,-34.3225 152.117,-37.8224 162.117,-41.3225 162.117,-34.3225"/>
</g>
<!-- Node307 -->
<g id="node7" class="node"><title>Node307</title>
<g id="a_node7"><a xlink:href="../../d2/db3/classservices_1_1_http_server_connection_observer.html#a54d34389a1f80059a349bfb5b5f273dc" target="_top" xlink:title="services::HttpServerConnection\lObserver::TryHandleRequest">
<polygon fill="white" stroke="black" points="572,-22.8224 572,-52.8224 724,-52.8224 724,-22.8224 572,-22.8224"/>
<text text-anchor="start" x="580" y="-40.8224" font-family="Helvetica,sans-Serif" font-size="10.00">services::HttpServerConnection</text>
<text text-anchor="middle" x="648" y="-29.8224" font-family="Helvetica,sans-Serif" font-size="10.00">Observer::TryHandleRequest</text>
</a>
</g>
</g>
<!-- Node301&#45;&gt;Node307 -->
<g id="edge9" class="edge"><title>Node301&#45;&gt;Node307</title>
<path fill="none" stroke="midnightblue" d="M142.588,-20.5298C157.417,-17.3263 173.165,-14.4723 188,-12.8224 341.719,4.27414 382.281,4.27414 536,-12.8224 554.258,-14.8531 573.9,-18.7077 591.51,-22.793"/>
<polygon fill="midnightblue" stroke="midnightblue" points="141.483,-17.1906 132.49,-22.793 143.013,-24.0211 141.483,-17.1906"/>
</g>
<!-- Node303 -->
<g id="node3" class="node"><title>Node303</title>
<g id="a_node3"><a xlink:href="../../d2/db3/classservices_1_1_http_server_connection_observer.html#a3c5cabea13da6e140280b1b8c77244b3" target="_top" xlink:title="services::HttpServerConnection\lObserver::DataReceived">
<polygon fill="white" stroke="black" points="948,-46.8224 948,-76.8224 1100,-76.8224 1100,-46.8224 948,-46.8224"/>
<text text-anchor="start" x="956" y="-64.8224" font-family="Helvetica,sans-Serif" font-size="10.00">services::HttpServerConnection</text>
<text text-anchor="middle" x="1024" y="-53.8224" font-family="Helvetica,sans-Serif" font-size="10.00">Observer::DataReceived</text>
</a>
</g>
</g>
<!-- Node302&#45;&gt;Node303 -->
<g id="edge2" class="edge"><title>Node302&#45;&gt;Node303</title>
<path fill="none" stroke="midnightblue" d="M546.447,-82.8716C657.264,-77.9768 844.097,-69.7245 947.85,-65.1418"/>
<polygon fill="midnightblue" stroke="midnightblue" points="546.132,-79.382 536.296,-83.3199 546.441,-86.3752 546.132,-79.382"/>
</g>
<!-- Node304 -->
<g id="node4" class="node"><title>Node304</title>
<g id="a_node4"><a xlink:href="../../d2/db3/classservices_1_1_http_server_connection_observer.html#a579fc75f469c5b79141187fc04dbf74c" target="_top" xlink:title="services::HttpServerConnection\lObserver::SendStreamAvailable">
<polygon fill="white" stroke="black" points="1136,-46.8224 1136,-76.8224 1289,-76.8224 1289,-46.8224 1136,-46.8224"/>
<text text-anchor="start" x="1144" y="-64.8224" font-family="Helvetica,sans-Serif" font-size="10.00">services::HttpServerConnection</text>
<text text-anchor="middle" x="1212.5" y="-53.8224" font-family="Helvetica,sans-Serif" font-size="10.00">Observer::SendStreamAvailable</text>
</a>
</g>
</g>
<!-- Node303&#45;&gt;Node304 -->
<g id="edge3" class="edge"><title>Node303&#45;&gt;Node304</title>
<path fill="none" stroke="midnightblue" d="M1110.12,-61.8224C1118.75,-61.8224 1127.48,-61.8224 1136,-61.8224"/>
<polygon fill="midnightblue" stroke="midnightblue" points="1110.05,-58.3225 1100.05,-61.8224 1110.05,-65.3225 1110.05,-58.3225"/>
</g>
<!-- Node306 -->
<g id="node6" class="node"><title>Node306</title>
<g id="a_node6"><a xlink:href="../../d2/db3/classservices_1_1_http_server_connection_observer.html#a52e5c280fabbed909272946c730d6aff" target="_top" xlink:title="services::HttpServerConnection\lObserver::HandleRequest">
<polygon fill="white" stroke="black" points="380,-22.8224 380,-52.8224 532,-52.8224 532,-22.8224 380,-22.8224"/>
<text text-anchor="start" x="388" y="-40.8224" font-family="Helvetica,sans-Serif" font-size="10.00">services::HttpServerConnection</text>
<text text-anchor="middle" x="456" y="-29.8224" font-family="Helvetica,sans-Serif" font-size="10.00">Observer::HandleRequest</text>
</a>
</g>
</g>
<!-- Node305&#45;&gt;Node306 -->
<g id="edge5" class="edge"><title>Node305&#45;&gt;Node306</title>
<path fill="none" stroke="midnightblue" d="M350.289,-37.8224C360.138,-37.8224 370.129,-37.8224 379.83,-37.8224"/>
<polygon fill="midnightblue" stroke="midnightblue" points="350.093,-34.3225 340.093,-37.8224 350.093,-41.3225 350.093,-34.3225"/>
</g>
<!-- Node306&#45;&gt;Node307 -->
<g id="edge6" class="edge"><title>Node306&#45;&gt;Node307</title>
<path fill="none" stroke="midnightblue" d="M542.289,-37.8224C552.138,-37.8224 562.129,-37.8224 571.83,-37.8224"/>
<polygon fill="midnightblue" stroke="midnightblue" points="542.093,-34.3225 532.093,-37.8224 542.093,-41.3225 542.093,-34.3225"/>
</g>
<!-- Node308 -->
<g id="node8" class="node"><title>Node308</title>
<g id="a_node8"><a xlink:href="../../d2/db3/classservices_1_1_http_server_connection_observer.html#a6213f7b12f5fb1c0ddbabdb859ddca0a" target="_top" xlink:title="services::HttpServerConnection\lObserver::ReceivedRequest">
<polygon fill="white" stroke="black" points="760,-23.8224 760,-53.8224 912,-53.8224 912,-23.8224 760,-23.8224"/>
<text text-anchor="start" x="768" y="-41.8224" font-family="Helvetica,sans-Serif" font-size="10.00">services::HttpServerConnection</text>
<text text-anchor="middle" x="836" y="-30.8224" font-family="Helvetica,sans-Serif" font-size="10.00">Observer::ReceivedRequest</text>
</a>
</g>
</g>
<!-- Node307&#45;&gt;Node308 -->
<g id="edge7" class="edge"><title>Node307&#45;&gt;Node308</title>
<path fill="none" stroke="midnightblue" d="M734.147,-38.2802C742.742,-38.3264 751.426,-38.3731 759.905,-38.4187"/>
<polygon fill="midnightblue" stroke="midnightblue" points="734.136,-34.7802 724.117,-38.2263 734.098,-41.7801 734.136,-34.7802"/>
</g>
<!-- Node308&#45;&gt;Node303 -->
<g id="edge8" class="edge"><title>Node308&#45;&gt;Node303</title>
<path fill="none" stroke="midnightblue" d="M922.147,-49.3514C930.742,-50.4141 939.426,-51.4881 947.905,-52.5364"/>
<polygon fill="midnightblue" stroke="midnightblue" points="922.471,-45.8649 912.117,-48.1111 921.612,-52.8119 922.471,-45.8649"/>
</g>
</g>
</svg>
