<?xml version="1.0" encoding="UTF-8" standalone="no"?>
<!DOCTYPE svg PUBLIC "-//W3C//DTD SVG 1.1//EN"
 "http://www.w3.org/Graphics/SVG/1.1/DTD/svg11.dtd">
<!-- Generated by graphviz version 2.38.0 (20140413.2041)
 -->
<!-- Title: services::HttpClientBasic::Expire Pages: 1 -->
<svg width="1047pt" height="110pt"
 viewBox="0.00 0.00 1047.00 110.00" xmlns="http://www.w3.org/2000/svg" xmlns:xlink="http://www.w3.org/1999/xlink">
<g id="graph0" class="graph" transform="scale(1 1) rotate(0) translate(4 106)">
<title>services::HttpClientBasic::Expire</title>
<polygon fill="white" stroke="none" points="-4,4 -4,-106 1043,-106 1043,4 -4,4"/>
<!-- Node144 -->
<g id="node1" class="node"><title>Node144</title>
<polygon fill="#bfbfbf" stroke="black" points="0,-46.5 0,-76.5 125,-76.5 125,-46.5 0,-46.5"/>
<text text-anchor="start" x="8" y="-64.5" font-family="Helvetica,sans-Serif" font-size="10.00">services::HttpClientBasic</text>
<text text-anchor="middle" x="62.5" y="-53.5" font-family="Helvetica,sans-Serif" font-size="10.00">::Expire</text>
</g>
<!-- Node145 -->
<g id="node2" class="node"><title>Node145</title>
<g id="a_node2"><a xlink:href="../../db/dae/classservices_1_1_http_client_basic.html#a1dfe913f464b1378285ebffced34d1e5" target="_top" xlink:title="services::HttpClientBasic\l::Done">
<polygon fill="white" stroke="black" points="161,-71.5 161,-101.5 286,-101.5 286,-71.5 161,-71.5"/>
<text text-anchor="start" x="169" y="-89.5" font-family="Helvetica,sans-Serif" font-size="10.00">services::HttpClientBasic</text>
<text text-anchor="middle" x="223.5" y="-78.5" font-family="Helvetica,sans-Serif" font-size="10.00">::Done</text>
</a>
</g>
</g>
<!-- Node144&#45;&gt;Node145 -->
<g id="edge1" class="edge"><title>Node144&#45;&gt;Node145</title>
<path fill="none" stroke="midnightblue" d="M125.429,-71.2372C133.764,-72.5478 142.371,-73.9011 150.857,-75.2354"/>
<polygon fill="midnightblue" stroke="midnightblue" points="150.318,-78.6935 160.74,-76.7893 151.405,-71.7785 150.318,-78.6935"/>
</g>
<!-- Node146 -->
<g id="node3" class="node"><title>Node146</title>
<g id="a_node3"><a xlink:href="../../db/dae/classservices_1_1_http_client_basic.html#adbf11cf7b70f6aaeff6c80b205ac97dd" target="_top" xlink:title="services::HttpClientBasic\l::ReportError">
<polygon fill="white" stroke="black" points="161,-22.5 161,-52.5 286,-52.5 286,-22.5 161,-22.5"/>
<text text-anchor="start" x="169" y="-40.5" font-family="Helvetica,sans-Serif" font-size="10.00">services::HttpClientBasic</text>
<text text-anchor="middle" x="223.5" y="-29.5" font-family="Helvetica,sans-Serif" font-size="10.00">::ReportError</text>
</a>
</g>
</g>
<!-- Node144&#45;&gt;Node146 -->
<g id="edge2" class="edge"><title>Node144&#45;&gt;Node146</title>
<path fill="none" stroke="midnightblue" d="M125.429,-52.1523C133.674,-50.9077 142.184,-49.6232 150.58,-48.3558"/>
<polygon fill="midnightblue" stroke="midnightblue" points="151.375,-51.7756 160.74,-46.8222 150.33,-44.854 151.375,-51.7756"/>
</g>
<!-- Node147 -->
<g id="node4" class="node"><title>Node147</title>
<g id="a_node4"><a xlink:href="../../d5/da5/classinfra_1_1_timer.html#abf5658fb078dc1dad0705a7791f7b84c" target="_top" xlink:title="infra::Timer::Cancel">
<polygon fill="white" stroke="black" points="334,-50 334,-69 435,-69 435,-50 334,-50"/>
<text text-anchor="middle" x="384.5" y="-57" font-family="Helvetica,sans-Serif" font-size="10.00">infra::Timer::Cancel</text>
</a>
</g>
</g>
<!-- Node146&#45;&gt;Node147 -->
<g id="edge3" class="edge"><title>Node146&#45;&gt;Node147</title>
<path fill="none" stroke="midnightblue" d="M286.429,-46.0688C298.691,-47.7654 311.54,-49.5433 323.728,-51.2297"/>
<polygon fill="midnightblue" stroke="midnightblue" points="323.399,-54.7174 333.784,-52.6211 324.358,-47.7834 323.399,-54.7174"/>
</g>
<!-- Node153 -->
<g id="node10" class="node"><title>Node153</title>
<g id="a_node10"><a xlink:href="../../db/dae/classservices_1_1_http_client_basic.html#a13235ae81afcffea28aa1612a3050ed4" target="_top" xlink:title="services::HttpClientBasic\l::Error">
<polygon fill="white" stroke="black" points="322,-0.5 322,-30.5 447,-30.5 447,-0.5 322,-0.5"/>
<text text-anchor="start" x="330" y="-18.5" font-family="Helvetica,sans-Serif" font-size="10.00">services::HttpClientBasic</text>
<text text-anchor="middle" x="384.5" y="-7.5" font-family="Helvetica,sans-Serif" font-size="10.00">::Error</text>
</a>
</g>
</g>
<!-- Node146&#45;&gt;Node153 -->
<g id="edge9" class="edge"><title>Node146&#45;&gt;Node153</title>
<path fill="none" stroke="midnightblue" d="M286.429,-28.9312C294.674,-27.7904 303.184,-26.6129 311.58,-25.4511"/>
<polygon fill="midnightblue" stroke="midnightblue" points="312.314,-28.883 321.74,-24.0454 311.355,-21.9491 312.314,-28.883"/>
</g>
<!-- Node148 -->
<g id="node5" class="node"><title>Node148</title>
<g id="a_node5"><a xlink:href="../../d5/da5/classinfra_1_1_timer.html#a11b396e8d4300da06b8ce83624991b73" target="_top" xlink:title="infra::Timer::Convert">
<polygon fill="white" stroke="black" points="497,-69 497,-88 600,-88 600,-69 497,-69"/>
<text text-anchor="middle" x="548.5" y="-76" font-family="Helvetica,sans-Serif" font-size="10.00">infra::Timer::Convert</text>
</a>
</g>
</g>
<!-- Node147&#45;&gt;Node148 -->
<g id="edge4" class="edge"><title>Node147&#45;&gt;Node148</title>
<path fill="none" stroke="midnightblue" d="M435.427,-65.3557C451.595,-67.2519 469.709,-69.3764 486.583,-71.3554"/>
<polygon fill="midnightblue" stroke="midnightblue" points="486.56,-74.8767 496.9,-72.5654 487.376,-67.9243 486.56,-74.8767"/>
</g>
<!-- Node149 -->
<g id="node6" class="node"><title>Node149</title>
<g id="a_node6"><a xlink:href="../../d5/da5/classinfra_1_1_timer.html#a2b0bc71ca10c69d01f4965c576af73fd" target="_top" xlink:title="infra::Timer::UnregisterSelf">
<polygon fill="white" stroke="black" points="483,-31 483,-50 614,-50 614,-31 483,-31"/>
<text text-anchor="middle" x="548.5" y="-38" font-family="Helvetica,sans-Serif" font-size="10.00">infra::Timer::UnregisterSelf</text>
</a>
</g>
</g>
<!-- Node147&#45;&gt;Node149 -->
<g id="edge5" class="edge"><title>Node147&#45;&gt;Node149</title>
<path fill="none" stroke="midnightblue" d="M435.427,-53.6443C447.238,-52.2592 460.087,-50.7521 472.733,-49.269"/>
<polygon fill="midnightblue" stroke="midnightblue" points="473.283,-52.7286 482.807,-48.0875 472.467,-45.7762 473.283,-52.7286"/>
</g>
<!-- Node150 -->
<g id="node7" class="node"><title>Node150</title>
<g id="a_node7"><a xlink:href="../../da/def/classinfra_1_1_timer_service.html#a51f86cbeef8dc4866c087b68c24635d8" target="_top" xlink:title="infra::TimerService\l::UnregisterTimer">
<polygon fill="white" stroke="black" points="650,-25.5 650,-55.5 746,-55.5 746,-25.5 650,-25.5"/>
<text text-anchor="start" x="658" y="-43.5" font-family="Helvetica,sans-Serif" font-size="10.00">infra::TimerService</text>
<text text-anchor="middle" x="698" y="-32.5" font-family="Helvetica,sans-Serif" font-size="10.00">::UnregisterTimer</text>
</a>
</g>
</g>
<!-- Node149&#45;&gt;Node150 -->
<g id="edge6" class="edge"><title>Node149&#45;&gt;Node150</title>
<path fill="none" stroke="midnightblue" d="M614.196,-40.5C622.577,-40.5 631.117,-40.5 639.374,-40.5"/>
<polygon fill="midnightblue" stroke="midnightblue" points="639.647,-44.0001 649.647,-40.5 639.647,-37.0001 639.647,-44.0001"/>
</g>
<!-- Node151 -->
<g id="node8" class="node"><title>Node151</title>
<g id="a_node8"><a xlink:href="../../da/def/classinfra_1_1_timer_service.html#afb8a6ef3ee5ba728f1a8f232514bad8c" target="_top" xlink:title="infra::TimerService\l::ComputeNextTrigger">
<polygon fill="white" stroke="black" points="782,-25.5 782,-55.5 893,-55.5 893,-25.5 782,-25.5"/>
<text text-anchor="start" x="790" y="-43.5" font-family="Helvetica,sans-Serif" font-size="10.00">infra::TimerService</text>
<text text-anchor="middle" x="837.5" y="-32.5" font-family="Helvetica,sans-Serif" font-size="10.00">::ComputeNextTrigger</text>
</a>
</g>
</g>
<!-- Node150&#45;&gt;Node151 -->
<g id="edge7" class="edge"><title>Node150&#45;&gt;Node151</title>
<path fill="none" stroke="midnightblue" d="M746.32,-40.5C754.383,-40.5 762.883,-40.5 771.312,-40.5"/>
<polygon fill="midnightblue" stroke="midnightblue" points="771.523,-44.0001 781.523,-40.5 771.523,-37.0001 771.523,-44.0001"/>
</g>
<!-- Node152 -->
<g id="node9" class="node"><title>Node152</title>
<g id="a_node9"><a xlink:href="../../da/def/classinfra_1_1_timer_service.html#a6ae66196dc18d8b383ba5e0f0b6f22fa" target="_top" xlink:title="infra::TimerService\l::NextTriggerChanged">
<polygon fill="white" stroke="black" points="929,-25.5 929,-55.5 1039,-55.5 1039,-25.5 929,-25.5"/>
<text text-anchor="start" x="937" y="-43.5" font-family="Helvetica,sans-Serif" font-size="10.00">infra::TimerService</text>
<text text-anchor="middle" x="984" y="-32.5" font-family="Helvetica,sans-Serif" font-size="10.00">::NextTriggerChanged</text>
</a>
</g>
</g>
<!-- Node151&#45;&gt;Node152 -->
<g id="edge8" class="edge"><title>Node151&#45;&gt;Node152</title>
<path fill="none" stroke="midnightblue" d="M893.129,-40.5C901.425,-40.5 910.051,-40.5 918.532,-40.5"/>
<polygon fill="midnightblue" stroke="midnightblue" points="918.773,-44.0001 928.773,-40.5 918.773,-37.0001 918.773,-44.0001"/>
</g>
</g>
</svg>
