<?xml version="1.0" encoding="UTF-8" standalone="no"?>
<!DOCTYPE svg PUBLIC "-//W3C//DTD SVG 1.1//EN"
 "http://www.w3.org/Graphics/SVG/1.1/DTD/svg11.dtd">
<!-- Generated by graphviz version 2.38.0 (20140413.2041)
 -->
<!-- Title: services::HttpClientBasic::Error Pages: 1 -->
<svg width="616pt" height="186pt"
 viewBox="0.00 0.00 616.00 186.00" xmlns="http://www.w3.org/2000/svg" xmlns:xlink="http://www.w3.org/1999/xlink">
<g id="graph0" class="graph" transform="scale(1 1) rotate(0) translate(4 182)">
<title>services::HttpClientBasic::Error</title>
<polygon fill="white" stroke="none" points="-4,4 -4,-182 612,-182 612,4 -4,4"/>
<!-- Node132 -->
<g id="node1" class="node"><title>Node132</title>
<polygon fill="#bfbfbf" stroke="black" points="0,-73.5 0,-103.5 125,-103.5 125,-73.5 0,-73.5"/>
<text text-anchor="start" x="8" y="-91.5" font-family="Helvetica,sans-Serif" font-size="10.00">services::HttpClientBasic</text>
<text text-anchor="middle" x="62.5" y="-80.5" font-family="Helvetica,sans-Serif" font-size="10.00">::Error</text>
</g>
<!-- Node133 -->
<g id="node2" class="node"><title>Node133</title>
<g id="a_node2"><a xlink:href="../../db/dae/classservices_1_1_http_client_basic.html#adbf11cf7b70f6aaeff6c80b205ac97dd" target="_top" xlink:title="services::HttpClientBasic\l::ReportError">
<polygon fill="white" stroke="black" points="161,-73.5 161,-103.5 286,-103.5 286,-73.5 161,-73.5"/>
<text text-anchor="start" x="169" y="-91.5" font-family="Helvetica,sans-Serif" font-size="10.00">services::HttpClientBasic</text>
<text text-anchor="middle" x="223.5" y="-80.5" font-family="Helvetica,sans-Serif" font-size="10.00">::ReportError</text>
</a>
</g>
</g>
<!-- Node132&#45;&gt;Node133 -->
<g id="edge1" class="edge"><title>Node132&#45;&gt;Node133</title>
<path fill="none" stroke="midnightblue" d="M135.592,-88.5C143.99,-88.5 152.499,-88.5 160.74,-88.5"/>
<polygon fill="midnightblue" stroke="midnightblue" points="135.429,-85.0001 125.429,-88.5 135.429,-92.0001 135.429,-85.0001"/>
</g>
<!-- Node134 -->
<g id="node3" class="node"><title>Node134</title>
<g id="a_node3"><a xlink:href="../../db/dae/classservices_1_1_http_client_basic.html#a0420ebb92a4e9ca3c878e68d824aafaa" target="_top" xlink:title="services::HttpClientBasic\l::ClosingConnection">
<polygon fill="white" stroke="black" points="322,-147.5 322,-177.5 447,-177.5 447,-147.5 322,-147.5"/>
<text text-anchor="start" x="330" y="-165.5" font-family="Helvetica,sans-Serif" font-size="10.00">services::HttpClientBasic</text>
<text text-anchor="middle" x="384.5" y="-154.5" font-family="Helvetica,sans-Serif" font-size="10.00">::ClosingConnection</text>
</a>
</g>
</g>
<!-- Node133&#45;&gt;Node134 -->
<g id="edge2" class="edge"><title>Node133&#45;&gt;Node134</title>
<path fill="none" stroke="midnightblue" d="M261.33,-108.509C279.4,-118.036 301.615,-129.324 322,-138.5 328.793,-141.558 336.102,-144.61 343.226,-147.463"/>
<polygon fill="midnightblue" stroke="midnightblue" points="262.764,-105.308 252.291,-103.708 259.48,-111.49 262.764,-105.308"/>
</g>
<!-- Node136 -->
<g id="node5" class="node"><title>Node136</title>
<g id="a_node5"><a xlink:href="../../db/dae/classservices_1_1_http_client_basic.html#a5d615f9558bb48c31fa377f26e678972" target="_top" xlink:title="services::HttpClientBasic\l::ConnectionFailed">
<polygon fill="white" stroke="black" points="322,-98.5 322,-128.5 447,-128.5 447,-98.5 322,-98.5"/>
<text text-anchor="start" x="330" y="-116.5" font-family="Helvetica,sans-Serif" font-size="10.00">services::HttpClientBasic</text>
<text text-anchor="middle" x="384.5" y="-105.5" font-family="Helvetica,sans-Serif" font-size="10.00">::ConnectionFailed</text>
</a>
</g>
</g>
<!-- Node133&#45;&gt;Node136 -->
<g id="edge4" class="edge"><title>Node133&#45;&gt;Node136</title>
<path fill="none" stroke="midnightblue" d="M296.315,-99.7917C304.803,-101.126 313.408,-102.479 321.74,-103.789"/>
<polygon fill="midnightblue" stroke="midnightblue" points="296.851,-96.333 286.429,-98.2372 295.764,-103.248 296.851,-96.333"/>
</g>
<!-- Node137 -->
<g id="node6" class="node"><title>Node137</title>
<g id="a_node6"><a xlink:href="../../db/dae/classservices_1_1_http_client_basic.html#a10d4df541459a417c1517c4a83c3c598" target="_top" xlink:title="services::HttpClientBasic\l::Timeout">
<polygon fill="white" stroke="black" points="322,-49.5 322,-79.5 447,-79.5 447,-49.5 322,-49.5"/>
<text text-anchor="start" x="330" y="-67.5" font-family="Helvetica,sans-Serif" font-size="10.00">services::HttpClientBasic</text>
<text text-anchor="middle" x="384.5" y="-56.5" font-family="Helvetica,sans-Serif" font-size="10.00">::Timeout</text>
</a>
</g>
</g>
<!-- Node133&#45;&gt;Node137 -->
<g id="edge5" class="edge"><title>Node133&#45;&gt;Node137</title>
<path fill="none" stroke="midnightblue" d="M296.592,-77.6182C304.99,-76.3506 313.499,-75.0662 321.74,-73.8222"/>
<polygon fill="midnightblue" stroke="midnightblue" points="295.794,-74.1988 286.429,-79.1523 296.839,-81.1204 295.794,-74.1988"/>
</g>
<!-- Node139 -->
<g id="node8" class="node"><title>Node139</title>
<g id="a_node8"><a xlink:href="../../db/dae/classservices_1_1_http_client_basic.html#af98d44e6c6d129dab5f14af6502d9316" target="_top" xlink:title="services::HttpClientBasic\l::Expire">
<polygon fill="white" stroke="black" points="322,-0.5 322,-30.5 447,-30.5 447,-0.5 322,-0.5"/>
<text text-anchor="start" x="330" y="-18.5" font-family="Helvetica,sans-Serif" font-size="10.00">services::HttpClientBasic</text>
<text text-anchor="middle" x="384.5" y="-7.5" font-family="Helvetica,sans-Serif" font-size="10.00">::Expire</text>
</a>
</g>
</g>
<!-- Node133&#45;&gt;Node139 -->
<g id="edge7" class="edge"><title>Node133&#45;&gt;Node139</title>
<path fill="none" stroke="midnightblue" d="M262.654,-68.9311C280.533,-59.9639 302.211,-49.3797 322,-40.5 329.466,-37.1499 337.521,-33.7351 345.265,-30.5491"/>
<polygon fill="midnightblue" stroke="midnightblue" points="261.034,-65.8281 253.68,-73.4554 264.185,-72.0786 261.034,-65.8281"/>
</g>
<!-- Node135 -->
<g id="node4" class="node"><title>Node135</title>
<g id="a_node4"><a xlink:href="../../df/dd9/classservices_1_1_http_client_json.html#aa4b84ba5a9e0b4ee403629f556dbcd84" target="_top" xlink:title="services::HttpClientJson\l::ClosingConnection">
<polygon fill="white" stroke="black" points="485,-147.5 485,-177.5 606,-177.5 606,-147.5 485,-147.5"/>
<text text-anchor="start" x="493" y="-165.5" font-family="Helvetica,sans-Serif" font-size="10.00">services::HttpClientJson</text>
<text text-anchor="middle" x="545.5" y="-154.5" font-family="Helvetica,sans-Serif" font-size="10.00">::ClosingConnection</text>
</a>
</g>
</g>
<!-- Node134&#45;&gt;Node135 -->
<g id="edge3" class="edge"><title>Node134&#45;&gt;Node135</title>
<path fill="none" stroke="midnightblue" d="M457.621,-162.5C466.72,-162.5 475.949,-162.5 484.826,-162.5"/>
<polygon fill="midnightblue" stroke="midnightblue" points="457.429,-159 447.429,-162.5 457.429,-166 457.429,-159"/>
</g>
<!-- Node138 -->
<g id="node7" class="node"><title>Node138</title>
<g id="a_node7"><a xlink:href="../../db/dae/classservices_1_1_http_client_basic.html#a1b97214767813f813dee6ee393533e23" target="_top" xlink:title="services::HttpClientBasic\l::ConnectionEstablished">
<polygon fill="white" stroke="black" points="483,-49.5 483,-79.5 608,-79.5 608,-49.5 483,-49.5"/>
<text text-anchor="start" x="491" y="-67.5" font-family="Helvetica,sans-Serif" font-size="10.00">services::HttpClientBasic</text>
<text text-anchor="middle" x="545.5" y="-56.5" font-family="Helvetica,sans-Serif" font-size="10.00">::ConnectionEstablished</text>
</a>
</g>
</g>
<!-- Node137&#45;&gt;Node138 -->
<g id="edge6" class="edge"><title>Node137&#45;&gt;Node138</title>
<path fill="none" stroke="midnightblue" d="M457.592,-64.5C465.99,-64.5 474.499,-64.5 482.74,-64.5"/>
<polygon fill="midnightblue" stroke="midnightblue" points="457.429,-61.0001 447.429,-64.5 457.429,-68.0001 457.429,-61.0001"/>
</g>
<!-- Node140 -->
<g id="node9" class="node"><title>Node140</title>
<g id="a_node9"><a xlink:href="../../db/dae/classservices_1_1_http_client_basic.html#a63bbe384851e0ed4a82d563773246263" target="_top" xlink:title="services::HttpClientBasic\l::HttpClientBasic">
<polygon fill="white" stroke="black" points="483,-0.5 483,-30.5 608,-30.5 608,-0.5 483,-0.5"/>
<text text-anchor="start" x="491" y="-18.5" font-family="Helvetica,sans-Serif" font-size="10.00">services::HttpClientBasic</text>
<text text-anchor="middle" x="545.5" y="-7.5" font-family="Helvetica,sans-Serif" font-size="10.00">::HttpClientBasic</text>
</a>
</g>
</g>
<!-- Node139&#45;&gt;Node140 -->
<g id="edge8" class="edge"><title>Node139&#45;&gt;Node140</title>
<path fill="none" stroke="midnightblue" d="M457.592,-15.5C465.99,-15.5 474.499,-15.5 482.74,-15.5"/>
<polygon fill="midnightblue" stroke="midnightblue" points="457.429,-12.0001 447.429,-15.5 457.429,-19.0001 457.429,-12.0001"/>
</g>
</g>
</svg>
