<?xml version="1.0" encoding="UTF-8" standalone="no"?>
<!DOCTYPE svg PUBLIC "-//W3C//DTD SVG 1.1//EN"
 "http://www.w3.org/Graphics/SVG/1.1/DTD/svg11.dtd">
<!-- Generated by graphviz version 2.38.0 (20140413.2041)
 -->
<!-- Title: services::HttpClientBasic::HttpClientBasic Pages: 1 -->
<svg width="1208pt" height="124pt"
 viewBox="0.00 0.00 1208.00 123.50" xmlns="http://www.w3.org/2000/svg" xmlns:xlink="http://www.w3.org/1999/xlink">
<g id="graph0" class="graph" transform="scale(1 1) rotate(0) translate(4 119.5)">
<title>services::HttpClientBasic::HttpClientBasic</title>
<polygon fill="white" stroke="none" points="-4,4 -4,-119.5 1204,-119.5 1204,4 -4,4"/>
<!-- Node2 -->
<g id="node1" class="node"><title>Node2</title>
<polygon fill="#bfbfbf" stroke="black" points="0,-24.5 0,-54.5 125,-54.5 125,-24.5 0,-24.5"/>
<text text-anchor="start" x="8" y="-42.5" font-family="Helvetica,sans-Serif" font-size="10.00">services::HttpClientBasic</text>
<text text-anchor="middle" x="62.5" y="-31.5" font-family="Helvetica,sans-Serif" font-size="10.00">::HttpClientBasic</text>
</g>
<!-- Node3 -->
<g id="node2" class="node"><title>Node3</title>
<g id="a_node2"><a xlink:href="../../db/dae/classservices_1_1_http_client_basic.html#af98d44e6c6d129dab5f14af6502d9316" target="_top" xlink:title="services::HttpClientBasic\l::Expire">
<polygon fill="white" stroke="black" points="161,-24.5 161,-54.5 286,-54.5 286,-24.5 161,-24.5"/>
<text text-anchor="start" x="169" y="-42.5" font-family="Helvetica,sans-Serif" font-size="10.00">services::HttpClientBasic</text>
<text text-anchor="middle" x="223.5" y="-31.5" font-family="Helvetica,sans-Serif" font-size="10.00">::Expire</text>
</a>
</g>
</g>
<!-- Node2&#45;&gt;Node3 -->
<g id="edge1" class="edge"><title>Node2&#45;&gt;Node3</title>
<path fill="none" stroke="midnightblue" d="M125.429,-39.5C133.674,-39.5 142.184,-39.5 150.58,-39.5"/>
<polygon fill="midnightblue" stroke="midnightblue" points="150.74,-43.0001 160.74,-39.5 150.74,-36.0001 150.74,-43.0001"/>
</g>
<!-- Node4 -->
<g id="node3" class="node"><title>Node4</title>
<g id="a_node3"><a xlink:href="../../db/dae/classservices_1_1_http_client_basic.html#adbf11cf7b70f6aaeff6c80b205ac97dd" target="_top" xlink:title="services::HttpClientBasic\l::ReportError">
<polygon fill="white" stroke="black" points="322,-49.5 322,-79.5 447,-79.5 447,-49.5 322,-49.5"/>
<text text-anchor="start" x="330" y="-67.5" font-family="Helvetica,sans-Serif" font-size="10.00">services::HttpClientBasic</text>
<text text-anchor="middle" x="384.5" y="-56.5" font-family="Helvetica,sans-Serif" font-size="10.00">::ReportError</text>
</a>
</g>
</g>
<!-- Node3&#45;&gt;Node4 -->
<g id="edge2" class="edge"><title>Node3&#45;&gt;Node4</title>
<path fill="none" stroke="midnightblue" d="M286.429,-49.2372C294.764,-50.5478 303.371,-51.9011 311.857,-53.2354"/>
<polygon fill="midnightblue" stroke="midnightblue" points="311.318,-56.6935 321.74,-54.7893 312.405,-49.7785 311.318,-56.6935"/>
</g>
<!-- Node12 -->
<g id="node11" class="node"><title>Node12</title>
<g id="a_node11"><a xlink:href="../../db/dae/classservices_1_1_http_client_basic.html#a1dfe913f464b1378285ebffced34d1e5" target="_top" xlink:title="services::HttpClientBasic\l::Done">
<polygon fill="white" stroke="black" points="322,-0.5 322,-30.5 447,-30.5 447,-0.5 322,-0.5"/>
<text text-anchor="start" x="330" y="-18.5" font-family="Helvetica,sans-Serif" font-size="10.00">services::HttpClientBasic</text>
<text text-anchor="middle" x="384.5" y="-7.5" font-family="Helvetica,sans-Serif" font-size="10.00">::Done</text>
</a>
</g>
</g>
<!-- Node3&#45;&gt;Node12 -->
<g id="edge10" class="edge"><title>Node3&#45;&gt;Node12</title>
<path fill="none" stroke="midnightblue" d="M286.429,-30.1523C294.674,-28.9077 303.184,-27.6232 311.58,-26.3558"/>
<polygon fill="midnightblue" stroke="midnightblue" points="312.375,-29.7756 321.74,-24.8222 311.33,-22.854 312.375,-29.7756"/>
</g>
<!-- Node5 -->
<g id="node4" class="node"><title>Node5</title>
<g id="a_node4"><a xlink:href="../../d5/da5/classinfra_1_1_timer.html#abf5658fb078dc1dad0705a7791f7b84c" target="_top" xlink:title="infra::Timer::Cancel">
<polygon fill="white" stroke="black" points="495,-77 495,-96 596,-96 596,-77 495,-77"/>
<text text-anchor="middle" x="545.5" y="-84" font-family="Helvetica,sans-Serif" font-size="10.00">infra::Timer::Cancel</text>
</a>
</g>
</g>
<!-- Node4&#45;&gt;Node5 -->
<g id="edge3" class="edge"><title>Node4&#45;&gt;Node5</title>
<path fill="none" stroke="midnightblue" d="M447.429,-73.0688C459.691,-74.7654 472.54,-76.5433 484.728,-78.2297"/>
<polygon fill="midnightblue" stroke="midnightblue" points="484.399,-81.7174 494.784,-79.6211 485.358,-74.7834 484.399,-81.7174"/>
</g>
<!-- Node11 -->
<g id="node10" class="node"><title>Node11</title>
<g id="a_node10"><a xlink:href="../../db/dae/classservices_1_1_http_client_basic.html#a13235ae81afcffea28aa1612a3050ed4" target="_top" xlink:title="services::HttpClientBasic\l::Error">
<polygon fill="white" stroke="black" points="483,-27.5 483,-57.5 608,-57.5 608,-27.5 483,-27.5"/>
<text text-anchor="start" x="491" y="-45.5" font-family="Helvetica,sans-Serif" font-size="10.00">services::HttpClientBasic</text>
<text text-anchor="middle" x="545.5" y="-34.5" font-family="Helvetica,sans-Serif" font-size="10.00">::Error</text>
</a>
</g>
</g>
<!-- Node4&#45;&gt;Node11 -->
<g id="edge9" class="edge"><title>Node4&#45;&gt;Node11</title>
<path fill="none" stroke="midnightblue" d="M447.429,-55.9312C455.674,-54.7904 464.184,-53.6129 472.58,-52.4511"/>
<polygon fill="midnightblue" stroke="midnightblue" points="473.314,-55.883 482.74,-51.0454 472.355,-48.9491 473.314,-55.883"/>
</g>
<!-- Node6 -->
<g id="node5" class="node"><title>Node6</title>
<g id="a_node5"><a xlink:href="../../d5/da5/classinfra_1_1_timer.html#a11b396e8d4300da06b8ce83624991b73" target="_top" xlink:title="infra::Timer::Convert">
<polygon fill="white" stroke="black" points="658,-96 658,-115 761,-115 761,-96 658,-96"/>
<text text-anchor="middle" x="709.5" y="-103" font-family="Helvetica,sans-Serif" font-size="10.00">infra::Timer::Convert</text>
</a>
</g>
</g>
<!-- Node5&#45;&gt;Node6 -->
<g id="edge4" class="edge"><title>Node5&#45;&gt;Node6</title>
<path fill="none" stroke="midnightblue" d="M596.427,-92.3557C612.595,-94.2519 630.709,-96.3764 647.583,-98.3554"/>
<polygon fill="midnightblue" stroke="midnightblue" points="647.56,-101.877 657.9,-99.5654 648.376,-94.9243 647.56,-101.877"/>
</g>
<!-- Node7 -->
<g id="node6" class="node"><title>Node7</title>
<g id="a_node6"><a xlink:href="../../d5/da5/classinfra_1_1_timer.html#a2b0bc71ca10c69d01f4965c576af73fd" target="_top" xlink:title="infra::Timer::UnregisterSelf">
<polygon fill="white" stroke="black" points="644,-58 644,-77 775,-77 775,-58 644,-58"/>
<text text-anchor="middle" x="709.5" y="-65" font-family="Helvetica,sans-Serif" font-size="10.00">infra::Timer::UnregisterSelf</text>
</a>
</g>
</g>
<!-- Node5&#45;&gt;Node7 -->
<g id="edge5" class="edge"><title>Node5&#45;&gt;Node7</title>
<path fill="none" stroke="midnightblue" d="M596.427,-80.6443C608.238,-79.2592 621.087,-77.7521 633.733,-76.269"/>
<polygon fill="midnightblue" stroke="midnightblue" points="634.283,-79.7286 643.807,-75.0875 633.467,-72.7762 634.283,-79.7286"/>
</g>
<!-- Node8 -->
<g id="node7" class="node"><title>Node8</title>
<g id="a_node7"><a xlink:href="../../da/def/classinfra_1_1_timer_service.html#a51f86cbeef8dc4866c087b68c24635d8" target="_top" xlink:title="infra::TimerService\l::UnregisterTimer">
<polygon fill="white" stroke="black" points="811,-52.5 811,-82.5 907,-82.5 907,-52.5 811,-52.5"/>
<text text-anchor="start" x="819" y="-70.5" font-family="Helvetica,sans-Serif" font-size="10.00">infra::TimerService</text>
<text text-anchor="middle" x="859" y="-59.5" font-family="Helvetica,sans-Serif" font-size="10.00">::UnregisterTimer</text>
</a>
</g>
</g>
<!-- Node7&#45;&gt;Node8 -->
<g id="edge6" class="edge"><title>Node7&#45;&gt;Node8</title>
<path fill="none" stroke="midnightblue" d="M775.196,-67.5C783.577,-67.5 792.117,-67.5 800.374,-67.5"/>
<polygon fill="midnightblue" stroke="midnightblue" points="800.647,-71.0001 810.647,-67.5 800.647,-64.0001 800.647,-71.0001"/>
</g>
<!-- Node9 -->
<g id="node8" class="node"><title>Node9</title>
<g id="a_node8"><a xlink:href="../../da/def/classinfra_1_1_timer_service.html#afb8a6ef3ee5ba728f1a8f232514bad8c" target="_top" xlink:title="infra::TimerService\l::ComputeNextTrigger">
<polygon fill="white" stroke="black" points="943,-52.5 943,-82.5 1054,-82.5 1054,-52.5 943,-52.5"/>
<text text-anchor="start" x="951" y="-70.5" font-family="Helvetica,sans-Serif" font-size="10.00">infra::TimerService</text>
<text text-anchor="middle" x="998.5" y="-59.5" font-family="Helvetica,sans-Serif" font-size="10.00">::ComputeNextTrigger</text>
</a>
</g>
</g>
<!-- Node8&#45;&gt;Node9 -->
<g id="edge7" class="edge"><title>Node8&#45;&gt;Node9</title>
<path fill="none" stroke="midnightblue" d="M907.32,-67.5C915.383,-67.5 923.883,-67.5 932.312,-67.5"/>
<polygon fill="midnightblue" stroke="midnightblue" points="932.523,-71.0001 942.523,-67.5 932.523,-64.0001 932.523,-71.0001"/>
</g>
<!-- Node10 -->
<g id="node9" class="node"><title>Node10</title>
<g id="a_node9"><a xlink:href="../../da/def/classinfra_1_1_timer_service.html#a6ae66196dc18d8b383ba5e0f0b6f22fa" target="_top" xlink:title="infra::TimerService\l::NextTriggerChanged">
<polygon fill="white" stroke="black" points="1090,-52.5 1090,-82.5 1200,-82.5 1200,-52.5 1090,-52.5"/>
<text text-anchor="start" x="1098" y="-70.5" font-family="Helvetica,sans-Serif" font-size="10.00">infra::TimerService</text>
<text text-anchor="middle" x="1145" y="-59.5" font-family="Helvetica,sans-Serif" font-size="10.00">::NextTriggerChanged</text>
</a>
</g>
</g>
<!-- Node9&#45;&gt;Node10 -->
<g id="edge8" class="edge"><title>Node9&#45;&gt;Node10</title>
<path fill="none" stroke="midnightblue" d="M1054.13,-67.5C1062.42,-67.5 1071.05,-67.5 1079.53,-67.5"/>
<polygon fill="midnightblue" stroke="midnightblue" points="1079.77,-71.0001 1089.77,-67.5 1079.77,-64.0001 1079.77,-71.0001"/>
</g>
</g>
</svg>
