<?xml version="1.0" encoding="UTF-8" standalone="no"?>
<!DOCTYPE svg PUBLIC "-//W3C//DTD SVG 1.1//EN"
 "http://www.w3.org/Graphics/SVG/1.1/DTD/svg11.dtd">
<!-- Generated by graphviz version 2.38.0 (20140413.2041)
 -->
<!-- Title: services::HttpClientBasic::ClosingConnection Pages: 1 -->
<svg width="1062pt" height="149pt"
 viewBox="0.00 0.00 1062.00 148.50" xmlns="http://www.w3.org/2000/svg" xmlns:xlink="http://www.w3.org/1999/xlink">
<g id="graph0" class="graph" transform="scale(1 1) rotate(0) translate(4 144.5)">
<title>services::HttpClientBasic::ClosingConnection</title>
<polygon fill="white" stroke="none" points="-4,4 -4,-144.5 1058,-144.5 1058,4 -4,4"/>
<!-- Node57 -->
<g id="node1" class="node"><title>Node57</title>
<polygon fill="#bfbfbf" stroke="black" points="0,-49.5 0,-79.5 125,-79.5 125,-49.5 0,-49.5"/>
<text text-anchor="start" x="8" y="-67.5" font-family="Helvetica,sans-Serif" font-size="10.00">services::HttpClientBasic</text>
<text text-anchor="middle" x="62.5" y="-56.5" font-family="Helvetica,sans-Serif" font-size="10.00">::ClosingConnection</text>
</g>
<!-- Node58 -->
<g id="node2" class="node"><title>Node58</title>
<g id="a_node2"><a xlink:href="../../dc/d4c/classinfra_1_1_single_observer.html#afb2ca130bf5c6b4333736d0df3e098ea" target="_top" xlink:title="infra::SingleObserver\l\&lt; HttpClientObserver,\l HttpClient \&gt;::Detach">
<polygon fill="white" stroke="black" points="176,-99 176,-140 286,-140 286,-99 176,-99"/>
<text text-anchor="start" x="184" y="-128" font-family="Helvetica,sans-Serif" font-size="10.00">infra::SingleObserver</text>
<text text-anchor="start" x="184" y="-117" font-family="Helvetica,sans-Serif" font-size="10.00">&lt; HttpClientObserver,</text>
<text text-anchor="middle" x="231" y="-106" font-family="Helvetica,sans-Serif" font-size="10.00"> HttpClient &gt;::Detach</text>
</a>
</g>
</g>
<!-- Node57&#45;&gt;Node58 -->
<g id="edge1" class="edge"><title>Node57&#45;&gt;Node58</title>
<path fill="none" stroke="midnightblue" d="M108.997,-79.529C126.706,-85.3789 147.307,-92.1839 166.437,-98.5031"/>
<polygon fill="midnightblue" stroke="midnightblue" points="165.392,-101.844 175.985,-101.657 167.588,-95.1973 165.392,-101.844"/>
</g>
<!-- Node59 -->
<g id="node3" class="node"><title>Node59</title>
<g id="a_node3"><a xlink:href="../../db/dae/classservices_1_1_http_client_basic.html#adbf11cf7b70f6aaeff6c80b205ac97dd" target="_top" xlink:title="services::HttpClientBasic\l::ReportError">
<polygon fill="white" stroke="black" points="168.5,-49.5 168.5,-79.5 293.5,-79.5 293.5,-49.5 168.5,-49.5"/>
<text text-anchor="start" x="176.5" y="-67.5" font-family="Helvetica,sans-Serif" font-size="10.00">services::HttpClientBasic</text>
<text text-anchor="middle" x="231" y="-56.5" font-family="Helvetica,sans-Serif" font-size="10.00">::ReportError</text>
</a>
</g>
</g>
<!-- Node57&#45;&gt;Node59 -->
<g id="edge2" class="edge"><title>Node57&#45;&gt;Node59</title>
<path fill="none" stroke="midnightblue" d="M125.025,-64.5C135.877,-64.5 147.258,-64.5 158.358,-64.5"/>
<polygon fill="midnightblue" stroke="midnightblue" points="158.45,-68.0001 168.45,-64.5 158.45,-61.0001 158.45,-68.0001"/>
</g>
<!-- Node67 -->
<g id="node11" class="node"><title>Node67</title>
<g id="a_node11"><a xlink:href="../../da/d78/classinfra_1_1_accessed_by_shared_ptr.html#afed78c7dc79ccbb4711b34a1d7c7e63e" target="_top" xlink:title="infra::AccessedBySharedPtr\l::SetAction">
<polygon fill="white" stroke="black" points="161,-0.5 161,-30.5 301,-30.5 301,-0.5 161,-0.5"/>
<text text-anchor="start" x="169" y="-18.5" font-family="Helvetica,sans-Serif" font-size="10.00">infra::AccessedBySharedPtr</text>
<text text-anchor="middle" x="231" y="-7.5" font-family="Helvetica,sans-Serif" font-size="10.00">::SetAction</text>
</a>
</g>
</g>
<!-- Node57&#45;&gt;Node67 -->
<g id="edge10" class="edge"><title>Node57&#45;&gt;Node67</title>
<path fill="none" stroke="midnightblue" d="M114.814,-49.3986C131.986,-44.3449 151.295,-38.6624 169.125,-33.4152"/>
<polygon fill="midnightblue" stroke="midnightblue" points="170.25,-36.7325 178.855,-30.5516 168.274,-30.0172 170.25,-36.7325"/>
</g>
<!-- Node60 -->
<g id="node4" class="node"><title>Node60</title>
<g id="a_node4"><a xlink:href="../../d5/da5/classinfra_1_1_timer.html#abf5658fb078dc1dad0705a7791f7b84c" target="_top" xlink:title="infra::Timer::Cancel">
<polygon fill="white" stroke="black" points="349,-77 349,-96 450,-96 450,-77 349,-77"/>
<text text-anchor="middle" x="399.5" y="-84" font-family="Helvetica,sans-Serif" font-size="10.00">infra::Timer::Cancel</text>
</a>
</g>
</g>
<!-- Node59&#45;&gt;Node60 -->
<g id="edge3" class="edge"><title>Node59&#45;&gt;Node60</title>
<path fill="none" stroke="midnightblue" d="M293.525,-72.6295C308.353,-74.5887 324.169,-76.6785 338.907,-78.6258"/>
<polygon fill="midnightblue" stroke="midnightblue" points="338.539,-82.1076 348.912,-79.9478 339.456,-75.1679 338.539,-82.1076"/>
</g>
<!-- Node66 -->
<g id="node10" class="node"><title>Node66</title>
<g id="a_node10"><a xlink:href="../../db/dae/classservices_1_1_http_client_basic.html#a13235ae81afcffea28aa1612a3050ed4" target="_top" xlink:title="services::HttpClientBasic\l::Error">
<polygon fill="white" stroke="black" points="337,-27.5 337,-57.5 462,-57.5 462,-27.5 337,-27.5"/>
<text text-anchor="start" x="345" y="-45.5" font-family="Helvetica,sans-Serif" font-size="10.00">services::HttpClientBasic</text>
<text text-anchor="middle" x="399.5" y="-34.5" font-family="Helvetica,sans-Serif" font-size="10.00">::Error</text>
</a>
</g>
</g>
<!-- Node59&#45;&gt;Node66 -->
<g id="edge9" class="edge"><title>Node59&#45;&gt;Node66</title>
<path fill="none" stroke="midnightblue" d="M293.525,-56.3705C304.377,-54.9367 315.758,-53.4329 326.858,-51.9662"/>
<polygon fill="midnightblue" stroke="midnightblue" points="327.494,-55.4126 336.95,-50.6328 326.577,-48.473 327.494,-55.4126"/>
</g>
<!-- Node61 -->
<g id="node5" class="node"><title>Node61</title>
<g id="a_node5"><a xlink:href="../../d5/da5/classinfra_1_1_timer.html#a11b396e8d4300da06b8ce83624991b73" target="_top" xlink:title="infra::Timer::Convert">
<polygon fill="white" stroke="black" points="512,-96 512,-115 615,-115 615,-96 512,-96"/>
<text text-anchor="middle" x="563.5" y="-103" font-family="Helvetica,sans-Serif" font-size="10.00">infra::Timer::Convert</text>
</a>
</g>
</g>
<!-- Node60&#45;&gt;Node61 -->
<g id="edge4" class="edge"><title>Node60&#45;&gt;Node61</title>
<path fill="none" stroke="midnightblue" d="M450.427,-92.3557C466.595,-94.2519 484.709,-96.3764 501.583,-98.3554"/>
<polygon fill="midnightblue" stroke="midnightblue" points="501.56,-101.877 511.9,-99.5654 502.376,-94.9243 501.56,-101.877"/>
</g>
<!-- Node62 -->
<g id="node6" class="node"><title>Node62</title>
<g id="a_node6"><a xlink:href="../../d5/da5/classinfra_1_1_timer.html#a2b0bc71ca10c69d01f4965c576af73fd" target="_top" xlink:title="infra::Timer::UnregisterSelf">
<polygon fill="white" stroke="black" points="498,-58 498,-77 629,-77 629,-58 498,-58"/>
<text text-anchor="middle" x="563.5" y="-65" font-family="Helvetica,sans-Serif" font-size="10.00">infra::Timer::UnregisterSelf</text>
</a>
</g>
</g>
<!-- Node60&#45;&gt;Node62 -->
<g id="edge5" class="edge"><title>Node60&#45;&gt;Node62</title>
<path fill="none" stroke="midnightblue" d="M450.427,-80.6443C462.238,-79.2592 475.087,-77.7521 487.733,-76.269"/>
<polygon fill="midnightblue" stroke="midnightblue" points="488.283,-79.7286 497.807,-75.0875 487.467,-72.7762 488.283,-79.7286"/>
</g>
<!-- Node63 -->
<g id="node7" class="node"><title>Node63</title>
<g id="a_node7"><a xlink:href="../../da/def/classinfra_1_1_timer_service.html#a51f86cbeef8dc4866c087b68c24635d8" target="_top" xlink:title="infra::TimerService\l::UnregisterTimer">
<polygon fill="white" stroke="black" points="665,-52.5 665,-82.5 761,-82.5 761,-52.5 665,-52.5"/>
<text text-anchor="start" x="673" y="-70.5" font-family="Helvetica,sans-Serif" font-size="10.00">infra::TimerService</text>
<text text-anchor="middle" x="713" y="-59.5" font-family="Helvetica,sans-Serif" font-size="10.00">::UnregisterTimer</text>
</a>
</g>
</g>
<!-- Node62&#45;&gt;Node63 -->
<g id="edge6" class="edge"><title>Node62&#45;&gt;Node63</title>
<path fill="none" stroke="midnightblue" d="M629.196,-67.5C637.577,-67.5 646.117,-67.5 654.374,-67.5"/>
<polygon fill="midnightblue" stroke="midnightblue" points="654.647,-71.0001 664.647,-67.5 654.647,-64.0001 654.647,-71.0001"/>
</g>
<!-- Node64 -->
<g id="node8" class="node"><title>Node64</title>
<g id="a_node8"><a xlink:href="../../da/def/classinfra_1_1_timer_service.html#afb8a6ef3ee5ba728f1a8f232514bad8c" target="_top" xlink:title="infra::TimerService\l::ComputeNextTrigger">
<polygon fill="white" stroke="black" points="797,-52.5 797,-82.5 908,-82.5 908,-52.5 797,-52.5"/>
<text text-anchor="start" x="805" y="-70.5" font-family="Helvetica,sans-Serif" font-size="10.00">infra::TimerService</text>
<text text-anchor="middle" x="852.5" y="-59.5" font-family="Helvetica,sans-Serif" font-size="10.00">::ComputeNextTrigger</text>
</a>
</g>
</g>
<!-- Node63&#45;&gt;Node64 -->
<g id="edge7" class="edge"><title>Node63&#45;&gt;Node64</title>
<path fill="none" stroke="midnightblue" d="M761.32,-67.5C769.383,-67.5 777.883,-67.5 786.312,-67.5"/>
<polygon fill="midnightblue" stroke="midnightblue" points="786.523,-71.0001 796.523,-67.5 786.523,-64.0001 786.523,-71.0001"/>
</g>
<!-- Node65 -->
<g id="node9" class="node"><title>Node65</title>
<g id="a_node9"><a xlink:href="../../da/def/classinfra_1_1_timer_service.html#a6ae66196dc18d8b383ba5e0f0b6f22fa" target="_top" xlink:title="infra::TimerService\l::NextTriggerChanged">
<polygon fill="white" stroke="black" points="944,-52.5 944,-82.5 1054,-82.5 1054,-52.5 944,-52.5"/>
<text text-anchor="start" x="952" y="-70.5" font-family="Helvetica,sans-Serif" font-size="10.00">infra::TimerService</text>
<text text-anchor="middle" x="999" y="-59.5" font-family="Helvetica,sans-Serif" font-size="10.00">::NextTriggerChanged</text>
</a>
</g>
</g>
<!-- Node64&#45;&gt;Node65 -->
<g id="edge8" class="edge"><title>Node64&#45;&gt;Node65</title>
<path fill="none" stroke="midnightblue" d="M908.129,-67.5C916.425,-67.5 925.051,-67.5 933.532,-67.5"/>
<polygon fill="midnightblue" stroke="midnightblue" points="933.773,-71.0001 943.773,-67.5 933.773,-64.0001 933.773,-71.0001"/>
</g>
</g>
</svg>
