<?xml version="1.0" encoding="UTF-8" standalone="no"?>
<!DOCTYPE svg PUBLIC "-//W3C//DTD SVG 1.1//EN"
 "http://www.w3.org/Graphics/SVG/1.1/DTD/svg11.dtd">
<!-- Generated by graphviz version 2.38.0 (20140413.2041)
 -->
<!-- Title: infra::DataInputStream::WithReader&lt; TheReader &gt; Pages: 1 -->
<!--zoomable 131 -->
<svg id="main" version="1.1" xmlns="http://www.w3.org/2000/svg" xmlns:xlink="http://www.w3.org/1999/xlink" xml:space="preserve" onload="init(evt)">
<style type="text/css"><![CDATA[
.edge:hover path { stroke: red; }
.edge:hover polygon { stroke: red; fill: red; }
]]></style>
<script type="text/javascript"><![CDATA[
var edges = document.getElementsByTagName('g');
if (edges && edges.length) {
  for (var i=0;i<edges.length;i++) {
    if (edges[i].id.substr(0,4)=='edge') {
      edges[i].setAttribute('class','edge');
    }
  }
}
]]></script>
        <defs>
                <circle id="rim" cx="0" cy="0" r="7"/>
                <circle id="rim2" cx="0" cy="0" r="3.5"/>
                <g id="zoomPlus">
                        <use xlink:href="#rim" fill="#404040">
                                <set attributeName="fill" to="#808080" begin="zoomplus.mouseover" end="zoomplus.mouseout"/>
                        </use>
                        <path d="M-4,0h8M0,-4v8" fill="none" stroke="white" stroke-width="1.5" pointer-events="none"/>
                </g>
                <g id="zoomMin">
                        <use xlink:href="#rim" fill="#404040">
                                <set attributeName="fill" to="#808080" begin="zoomminus.mouseover" end="zoomminus.mouseout"/>
                        </use>
                        <path d="M-4,0h8" fill="none" stroke="white" stroke-width="1.5" pointer-events="none"/>
                </g>
                <g id="dirArrow">
                        <path fill="none" stroke="white" stroke-width="1.5" d="M0,-3.0v7 M-2.5,-0.5L0,-3.0L2.5,-0.5"/>
                </g>
               <g id="resetDef">
                       <use xlink:href="#rim2" fill="#404040">
                               <set attributeName="fill" to="#808080" begin="reset.mouseover" end="reset.mouseout"/>
                       </use>
               </g>
        </defs>

<script type="text/javascript">
var viewWidth = 865;
var viewHeight = 131;
var sectionId = 'dynsection-1';
</script>
<script xlink:href="../../svgpan.js"/>
<svg id="graph" class="graph">
<g id="viewport">
<title>infra::DataInputStream::WithReader&lt; TheReader &gt;</title>
<polygon fill="white" stroke="none" points="-4,4 -4,-127 861,-127 861,4 -4,4"/>
<!-- Node4 -->
<g id="node1" class="node"><title>Node4</title>
<polygon fill="#bfbfbf" stroke="black" points="719,-38 719,-68 857,-68 857,-38 719,-38"/>
<text text-anchor="start" x="727" y="-56" font-family="Helvetica,sans-Serif" font-size="10.00">infra::DataInputStream</text>
<text text-anchor="middle" x="788" y="-45" font-family="Helvetica,sans-Serif" font-size="10.00">::WithReader&lt; TheReader &gt;</text>
</g>
<!-- Node5 -->
<g id="node2" class="node"><title>Node5</title>
<g id="a_node2"><a xlink:href="../../d9/d00/classinfra_1_1detail_1_1_storage_holder.html" target="_top" xlink:title="infra::detail::StorageHolder\l\&lt; TheReader, WithReader\&lt;\l TheReader \&gt; \&gt;">
<polygon fill="white" stroke="black" points="547,-81.5 547,-122.5 682,-122.5 682,-81.5 547,-81.5"/>
<text text-anchor="start" x="555" y="-110.5" font-family="Helvetica,sans-Serif" font-size="10.00">infra::detail::StorageHolder</text>
<text text-anchor="start" x="555" y="-99.5" font-family="Helvetica,sans-Serif" font-size="10.00">&lt; TheReader, WithReader&lt;</text>
<text text-anchor="middle" x="614.5" y="-88.5" font-family="Helvetica,sans-Serif" font-size="10.00"> TheReader &gt; &gt;</text>
</a>
</g>
</g>
<!-- Node5&#45;&gt;Node4 -->
<g id="edge1" class="edge"><title>Node5&#45;&gt;Node4</title>
<path fill="none" stroke="#8b1a1a" d="M692.126,-80.1068C706.431,-76.0197 721.079,-71.8347 734.452,-68.0137"/>
<polygon fill="#8b1a1a" stroke="#8b1a1a" points="690.951,-76.8024 682.297,-82.915 692.874,-83.5331 690.951,-76.8024"/>
</g>
<!-- Node6 -->
<g id="node3" class="node"><title>Node6</title>
<g id="a_node3"><a xlink:href="../../d5/def/class_the_reader.html" target="_top" xlink:title="TheReader">
<polygon fill="white" stroke="black" points="383,-92.5 383,-111.5 446,-111.5 446,-92.5 383,-92.5"/>
<text text-anchor="middle" x="414.5" y="-99.5" font-family="Helvetica,sans-Serif" font-size="10.00">TheReader</text>
</a>
</g>
</g>
<!-- Node6&#45;&gt;Node5 -->
<g id="edge2" class="edge"><title>Node6&#45;&gt;Node5</title>
<path fill="none" stroke="#9a32cd" stroke-dasharray="5,2" d="M456.281,-102C482.382,-102 516.856,-102 546.87,-102"/>
<polygon fill="#9a32cd" stroke="#9a32cd" points="456.004,-98.5001 446.004,-102 456.004,-105.5 456.004,-98.5001"/>
<text text-anchor="middle" x="504" y="-105" font-family="Helvetica,sans-Serif" font-size="10.00"> storage</text>
</g>
<!-- Node7 -->
<g id="node4" class="node"><title>Node7</title>
<g id="a_node4"><a xlink:href="../../d0/db4/classinfra_1_1_data_input_stream.html" target="_top" xlink:title="infra::DataInputStream">
<polygon fill="white" stroke="black" points="558,-43.5 558,-62.5 671,-62.5 671,-43.5 558,-43.5"/>
<text text-anchor="middle" x="614.5" y="-50.5" font-family="Helvetica,sans-Serif" font-size="10.00">infra::DataInputStream</text>
</a>
</g>
</g>
<!-- Node7&#45;&gt;Node4 -->
<g id="edge3" class="edge"><title>Node7&#45;&gt;Node4</title>
<path fill="none" stroke="midnightblue" d="M681.312,-53C693.562,-53 706.387,-53 718.71,-53"/>
<polygon fill="midnightblue" stroke="midnightblue" points="681.181,-49.5001 671.181,-53 681.181,-56.5001 681.181,-49.5001"/>
</g>
<!-- Node8 -->
<g id="node5" class="node"><title>Node8</title>
<g id="a_node5"><a xlink:href="../../db/dda/classinfra_1_1_input_stream.html" target="_top" xlink:title="infra::InputStream">
<polygon fill="white" stroke="black" points="368,-43.5 368,-62.5 461,-62.5 461,-43.5 368,-43.5"/>
<text text-anchor="middle" x="414.5" y="-50.5" font-family="Helvetica,sans-Serif" font-size="10.00">infra::InputStream</text>
</a>
</g>
</g>
<!-- Node8&#45;&gt;Node7 -->
<g id="edge4" class="edge"><title>Node8&#45;&gt;Node7</title>
<path fill="none" stroke="midnightblue" d="M471.511,-53C498.572,-53 530.951,-53 557.951,-53"/>
<polygon fill="midnightblue" stroke="midnightblue" points="471.423,-49.5001 461.423,-53 471.423,-56.5001 471.423,-49.5001"/>
</g>
<!-- Node9 -->
<g id="node6" class="node"><title>Node9</title>
<g id="a_node6"><a xlink:href="../../d2/d90/classinfra_1_1_stream_reader.html" target="_top" xlink:title="infra::StreamReader">
<polygon fill="white" stroke="black" points="170.5,-72.5 170.5,-91.5 273.5,-91.5 273.5,-72.5 170.5,-72.5"/>
<text text-anchor="middle" x="222" y="-79.5" font-family="Helvetica,sans-Serif" font-size="10.00">infra::StreamReader</text>
</a>
</g>
</g>
<!-- Node9&#45;&gt;Node8 -->
<g id="edge5" class="edge"><title>Node9&#45;&gt;Node8</title>
<path fill="none" stroke="#9a32cd" stroke-dasharray="5,2" d="M283.774,-72.7484C311.064,-68.5939 342.72,-63.7749 367.929,-59.9373"/>
<polygon fill="#9a32cd" stroke="#9a32cd" points="282.91,-69.3395 273.55,-74.3047 283.963,-76.2598 282.91,-69.3395"/>
<text text-anchor="middle" x="325" y="-73" font-family="Helvetica,sans-Serif" font-size="10.00"> reader</text>
</g>
<!-- Node10 -->
<g id="node7" class="node"><title>Node10</title>
<g id="a_node7"><a xlink:href="../../d5/d4a/classinfra_1_1_stream_error_policy.html" target="_top" xlink:title="infra::StreamErrorPolicy">
<polygon fill="white" stroke="black" points="162,-19.5 162,-38.5 282,-38.5 282,-19.5 162,-19.5"/>
<text text-anchor="middle" x="222" y="-26.5" font-family="Helvetica,sans-Serif" font-size="10.00">infra::StreamErrorPolicy</text>
</a>
</g>
</g>
<!-- Node10&#45;&gt;Node4 -->
<g id="edge9" class="edge"><title>Node10&#45;&gt;Node4</title>
<path fill="none" stroke="#9a32cd" stroke-dasharray="5,2" d="M292.304,-26.1418C382.341,-23.2558 544.308,-20.8862 682,-34 693.987,-35.1417 706.656,-36.9285 718.888,-38.9592"/>
<polygon fill="#9a32cd" stroke="#9a32cd" points="292.098,-22.6466 282.22,-26.4769 292.331,-29.6428 292.098,-22.6466"/>
<text text-anchor="middle" x="504" y="-28" font-family="Helvetica,sans-Serif" font-size="10.00"> errorPolicy</text>
</g>
<!-- Node10&#45;&gt;Node8 -->
<g id="edge6" class="edge"><title>Node10&#45;&gt;Node8</title>
<path fill="none" stroke="#9a32cd" stroke-dasharray="5,2" d="M292.458,-37.7506C317.607,-40.919 345.351,-44.4143 367.925,-47.2583"/>
<polygon fill="#9a32cd" stroke="#9a32cd" points="292.59,-34.2397 282.231,-36.4622 291.715,-41.1848 292.59,-34.2397"/>
<text text-anchor="middle" x="325" y="-47" font-family="Helvetica,sans-Serif" font-size="10.00"> errorPolicy</text>
</g>
<!-- Node11 -->
<g id="node8" class="node"><title>Node11</title>
<polygon fill="white" stroke="#bfbfbf" points="17.5,-38.5 17.5,-57.5 52.5,-57.5 52.5,-38.5 17.5,-38.5"/>
<text text-anchor="middle" x="35" y="-45.5" font-family="Helvetica,sans-Serif" font-size="10.00">bool</text>
</g>
<!-- Node11&#45;&gt;Node10 -->
<g id="edge7" class="edge"><title>Node11&#45;&gt;Node10</title>
<path fill="none" stroke="#9a32cd" stroke-dasharray="5,2" d="M62.8993,-45.2374C88.7485,-42.5826 128.68,-38.4815 161.943,-35.0653"/>
<polygon fill="#9a32cd" stroke="#9a32cd" points="62.3339,-41.7769 52.7438,-46.2804 63.0491,-48.7403 62.3339,-41.7769"/>
<text text-anchor="middle" x="116" y="-56" font-family="Helvetica,sans-Serif" font-size="10.00"> checkedFail</text>
<text text-anchor="middle" x="116" y="-45" font-family="Helvetica,sans-Serif" font-size="10.00">failed</text>
</g>
<!-- Node12 -->
<g id="node9" class="node"><title>Node12</title>
<polygon fill="white" stroke="#bfbfbf" points="0,-0.5 0,-19.5 70,-19.5 70,-0.5 0,-0.5"/>
<text text-anchor="middle" x="35" y="-7.5" font-family="Helvetica,sans-Serif" font-size="10.00">FailureMode</text>
</g>
<!-- Node12&#45;&gt;Node10 -->
<g id="edge8" class="edge"><title>Node12&#45;&gt;Node10</title>
<path fill="none" stroke="#9a32cd" stroke-dasharray="5,2" d="M80.4021,-14.5602C104.778,-17.0636 135.327,-20.2011 161.716,-22.9114"/>
<polygon fill="#9a32cd" stroke="#9a32cd" points="80.6688,-11.0693 70.3635,-13.5292 79.9536,-18.0327 80.6688,-11.0693"/>
<text text-anchor="middle" x="116" y="-23" font-family="Helvetica,sans-Serif" font-size="10.00"> failureMode</text>
</g>
</g>
</svg>
        <g id="navigator" transform="translate(0 0)" fill="#404254">
                <rect fill="#f2f5e9" fill-opacity="0.5" stroke="#606060" stroke-width=".5" x="0" y="0" width="60" height="60"/>
                <use id="zoomplus" xlink:href="#zoomPlus" x="17" y="9" onmousedown="handleZoom(evt,'in')"/>
                <use id="zoomminus" xlink:href="#zoomMin" x="42" y="9" onmousedown="handleZoom(evt,'out')"/>
                <use id="reset" xlink:href="#resetDef" x="30" y="36" onmousedown="handleReset()"/>
                <g id="arrowUp" xlink:href="#dirArrow" transform="translate(30 24)" onmousedown="handlePan(0,-1)">
                  <use xlink:href="#rim" fill="#404040">
                        <set attributeName="fill" to="#808080" begin="arrowUp.mouseover" end="arrowUp.mouseout"/>
                  </use>
                  <path fill="none" stroke="white" stroke-width="1.5" d="M0,-3.0v7 M-2.5,-0.5L0,-3.0L2.5,-0.5"/>
                </g>
                <g id="arrowRight" xlink:href="#dirArrow" transform="rotate(90) translate(36 -43)" onmousedown="handlePan(1,0)">
                  <use xlink:href="#rim" fill="#404040">
                        <set attributeName="fill" to="#808080" begin="arrowRight.mouseover" end="arrowRight.mouseout"/>
                  </use>
                  <path fill="none" stroke="white" stroke-width="1.5" d="M0,-3.0v7 M-2.5,-0.5L0,-3.0L2.5,-0.5"/>
                </g>
                <g id="arrowDown" xlink:href="#dirArrow" transform="rotate(180) translate(-30 -48)" onmousedown="handlePan(0,1)">
                  <use xlink:href="#rim" fill="#404040">
                        <set attributeName="fill" to="#808080" begin="arrowDown.mouseover" end="arrowDown.mouseout"/>
                  </use>
                  <path fill="none" stroke="white" stroke-width="1.5" d="M0,-3.0v7 M-2.5,-0.5L0,-3.0L2.5,-0.5"/>
                </g>
                <g id="arrowLeft" xlink:href="#dirArrow" transform="rotate(270) translate(-36 17)" onmousedown="handlePan(-1,0)">
                  <use xlink:href="#rim" fill="#404040">
                        <set attributeName="fill" to="#808080" begin="arrowLeft.mouseover" end="arrowLeft.mouseout"/>
                  </use>
                  <path fill="none" stroke="white" stroke-width="1.5" d="M0,-3.0v7 M-2.5,-0.5L0,-3.0L2.5,-0.5"/>
                </g>
        </g>
        <svg viewBox="0 0 15 15" width="100%" height="30px" preserveAspectRatio="xMaxYMin meet">
         <g id="arrow_out" transform="scale(0.3 0.3)">
          <a xlink:href="classinfra_1_1_data_input_stream_1_1_with_reader__coll__graph_org.svg" target="_base">
           <rect id="button" ry="5" rx="5" y="6" x="6" height="38" width="38"
                fill="#f2f5e9" fill-opacity="0.5" stroke="#606060" stroke-width="1.0"/>
           <path id="arrow"
             d="M 11.500037,31.436501 C 11.940474,20.09759 22.043105,11.32322 32.158766,21.979434 L 37.068811,17.246167 C 37.068811,17.246167 37.088388,32 37.088388,32 L 22.160133,31.978069 C 22.160133,31.978069 26.997745,27.140456 26.997745,27.140456 C 18.528582,18.264221 13.291696,25.230495 11.500037,31.436501 z"
             style="fill:#404040;"/>
          </a>
         </g>
        </svg>
</svg>
