<?xml version="1.0" encoding="UTF-8" standalone="no"?>
<!DOCTYPE svg PUBLIC "-//W3C//DTD SVG 1.1//EN"
 "http://www.w3.org/Graphics/SVG/1.1/DTD/svg11.dtd">
<!-- Generated by graphviz version 2.38.0 (20140413.2041)
 -->
<!-- Title: services::SntpClient Pages: 1 -->
<svg width="305pt" height="173pt"
 viewBox="0.00 0.00 304.50 173.00" xmlns="http://www.w3.org/2000/svg" xmlns:xlink="http://www.w3.org/1999/xlink">
<g id="graph0" class="graph" transform="scale(1 1) rotate(0) translate(4 169)">
<title>services::SntpClient</title>
<polygon fill="white" stroke="none" points="-4,4 -4,-169 300.5,-169 300.5,4 -4,4"/>
<!-- Node0 -->
<g id="node1" class="node"><title>Node0</title>
<polygon fill="#bfbfbf" stroke="black" points="101.5,-0.5 101.5,-19.5 204.5,-19.5 204.5,-0.5 101.5,-0.5"/>
<text text-anchor="middle" x="153" y="-7.5" font-family="Helvetica,sans-Serif" font-size="10.00">services::SntpClient</text>
</g>
<!-- Node1 -->
<g id="node2" class="node"><title>Node1</title>
<g id="a_node2"><a xlink:href="../../d3/d18/classservices_1_1_datagram_exchange_observer.html" target="_top" xlink:title="services::DatagramExchange\lObserver">
<polygon fill="white" stroke="black" points="4.5,-56.5 4.5,-86.5 147.5,-86.5 147.5,-56.5 4.5,-56.5"/>
<text text-anchor="start" x="12.5" y="-74.5" font-family="Helvetica,sans-Serif" font-size="10.00">services::DatagramExchange</text>
<text text-anchor="middle" x="76" y="-63.5" font-family="Helvetica,sans-Serif" font-size="10.00">Observer</text>
</a>
</g>
</g>
<!-- Node1&#45;&gt;Node0 -->
<g id="edge1" class="edge"><title>Node1&#45;&gt;Node0</title>
<path fill="none" stroke="midnightblue" d="M102.285,-50.1886C115.766,-39.7719 131.475,-27.6329 141.796,-19.6578"/>
<polygon fill="midnightblue" stroke="midnightblue" points="100.021,-47.5153 94.2479,-56.3993 104.301,-53.0543 100.021,-47.5153"/>
</g>
<!-- Node2 -->
<g id="node3" class="node"><title>Node2</title>
<g id="a_node3"><a xlink:href="../../dc/d4c/classinfra_1_1_single_observer.html" target="_top" xlink:title="infra::SingleObserver\l\&lt; DatagramExchangeObserver,\l DatagramExchange \&gt;">
<polygon fill="white" stroke="black" points="0,-123.5 0,-164.5 152,-164.5 152,-123.5 0,-123.5"/>
<text text-anchor="start" x="8" y="-152.5" font-family="Helvetica,sans-Serif" font-size="10.00">infra::SingleObserver</text>
<text text-anchor="start" x="8" y="-141.5" font-family="Helvetica,sans-Serif" font-size="10.00">&lt; DatagramExchangeObserver,</text>
<text text-anchor="middle" x="76" y="-130.5" font-family="Helvetica,sans-Serif" font-size="10.00"> DatagramExchange &gt;</text>
</a>
</g>
</g>
<!-- Node2&#45;&gt;Node1 -->
<g id="edge2" class="edge"><title>Node2&#45;&gt;Node1</title>
<path fill="none" stroke="midnightblue" d="M76,-113.08C76,-104.006 76,-94.4498 76,-86.8916"/>
<polygon fill="midnightblue" stroke="midnightblue" points="72.5001,-113.362 76,-123.362 79.5001,-113.362 72.5001,-113.362"/>
</g>
<!-- Node3 -->
<g id="node4" class="node"><title>Node3</title>
<g id="a_node4"><a xlink:href="../../d1/db2/classinfra_1_1_subject.html" target="_top" xlink:title="infra::Subject\&lt; SntpResult\lObserver \&gt;">
<polygon fill="white" stroke="black" points="165.5,-56.5 165.5,-86.5 296.5,-86.5 296.5,-56.5 165.5,-56.5"/>
<text text-anchor="start" x="173.5" y="-74.5" font-family="Helvetica,sans-Serif" font-size="10.00">infra::Subject&lt; SntpResult</text>
<text text-anchor="middle" x="231" y="-63.5" font-family="Helvetica,sans-Serif" font-size="10.00">Observer &gt;</text>
</a>
</g>
</g>
<!-- Node3&#45;&gt;Node0 -->
<g id="edge3" class="edge"><title>Node3&#45;&gt;Node0</title>
<path fill="none" stroke="midnightblue" d="M204.373,-50.1886C190.718,-39.7719 174.804,-27.6329 164.35,-19.6578"/>
<polygon fill="midnightblue" stroke="midnightblue" points="202.441,-53.117 212.515,-56.3993 206.687,-47.5515 202.441,-53.117"/>
</g>
</g>
</svg>
