<?xml version="1.0" encoding="UTF-8" standalone="no"?>
<!DOCTYPE svg PUBLIC "-//W3C//DTD SVG 1.1//EN"
 "http://www.w3.org/Graphics/SVG/1.1/DTD/svg11.dtd">
<!-- Generated by graphviz version 2.38.0 (20140413.2041)
 -->
<!-- Title: services::ConnectionMbedTls::ParametersWorkaround Pages: 1 -->
<svg width="175pt" height="184pt"
 viewBox="0.00 0.00 175.00 184.00" xmlns="http://www.w3.org/2000/svg" xmlns:xlink="http://www.w3.org/1999/xlink">
<g id="graph0" class="graph" transform="scale(1 1) rotate(0) translate(4 180)">
<title>services::ConnectionMbedTls::ParametersWorkaround</title>
<polygon fill="white" stroke="none" points="-4,4 -4,-180 171,-180 171,4 -4,4"/>
<!-- Node1 -->
<g id="node1" class="node"><title>Node1</title>
<polygon fill="#bfbfbf" stroke="black" points="11.5,-0.5 11.5,-30.5 149.5,-30.5 149.5,-0.5 11.5,-0.5"/>
<text text-anchor="start" x="19.5" y="-18.5" font-family="Helvetica,sans-Serif" font-size="10.00">services::ConnectionMbed</text>
<text text-anchor="middle" x="80.5" y="-7.5" font-family="Helvetica,sans-Serif" font-size="10.00">Tls::ParametersWorkaround</text>
</g>
<!-- Node2 -->
<g id="node2" class="node"><title>Node2</title>
<g id="a_node2"><a xlink:href="../../da/d2a/classinfra_1_1_variant.html" target="_top" xlink:title="infra::Variant\&lt; ServerParameters,\l ClientParameters \&gt;">
<polygon fill="white" stroke="black" points="0,-78.5 0,-108.5 161,-108.5 161,-78.5 0,-78.5"/>
<text text-anchor="start" x="8" y="-96.5" font-family="Helvetica,sans-Serif" font-size="10.00">infra::Variant&lt; ServerParameters,</text>
<text text-anchor="middle" x="80.5" y="-85.5" font-family="Helvetica,sans-Serif" font-size="10.00"> ClientParameters &gt;</text>
</a>
</g>
</g>
<!-- Node2&#45;&gt;Node1 -->
<g id="edge1" class="edge"><title>Node2&#45;&gt;Node1</title>
<path fill="none" stroke="#9a32cd" stroke-dasharray="5,2" d="M80.5,-68.0898C80.5,-55.7565 80.5,-41.2237 80.5,-30.7309"/>
<polygon fill="#9a32cd" stroke="#9a32cd" points="77.0001,-68.2049 80.5,-78.205 84.0001,-68.205 77.0001,-68.2049"/>
<text text-anchor="middle" x="106.5" y="-52" font-family="Helvetica,sans-Serif" font-size="10.00"> parameters</text>
</g>
<!-- Node3 -->
<g id="node3" class="node"><title>Node3</title>
<polygon fill="white" stroke="#bfbfbf" points="36,-156.5 36,-175.5 79,-175.5 79,-156.5 36,-156.5"/>
<text text-anchor="middle" x="57.5" y="-163.5" font-family="Helvetica,sans-Serif" font-size="10.00">size_t</text>
</g>
<!-- Node3&#45;&gt;Node2 -->
<g id="edge2" class="edge"><title>Node3&#45;&gt;Node2</title>
<path fill="none" stroke="#9a32cd" stroke-dasharray="5,2" d="M40.73,-148.661C35.9322,-142.002 32.871,-134.192 36.5,-127 40.1792,-119.708 46.352,-113.648 52.9278,-108.815"/>
<polygon fill="#9a32cd" stroke="#9a32cd" points="38.1795,-151.062 47.3631,-156.346 43.4786,-146.489 38.1795,-151.062"/>
<text text-anchor="middle" x="47.5" y="-130" font-family="Helvetica,sans-Serif" font-size="10.00"> size</text>
</g>
<!-- Node3&#45;&gt;Node2 -->
<g id="edge3" class="edge"><title>Node3&#45;&gt;Node2</title>
<path fill="none" stroke="#9a32cd" stroke-dasharray="5,2" d="M63.5025,-146.601C67.3792,-134.718 72.3458,-119.494 75.9078,-108.576"/>
<polygon fill="#9a32cd" stroke="#9a32cd" points="60.0944,-145.763 60.3203,-156.355 66.7493,-147.934 60.0944,-145.763"/>
<text text-anchor="middle" x="93.5" y="-130" font-family="Helvetica,sans-Serif" font-size="10.00"> dataIndex</text>
</g>
<!-- Node4 -->
<g id="node4" class="node"><title>Node4</title>
<polygon fill="white" stroke="#bfbfbf" points="132,-156.5 132,-175.5 167,-175.5 167,-156.5 132,-156.5"/>
<text text-anchor="middle" x="149.5" y="-163.5" font-family="Helvetica,sans-Serif" font-size="10.00">type</text>
</g>
<!-- Node4&#45;&gt;Node2 -->
<g id="edge4" class="edge"><title>Node4&#45;&gt;Node2</title>
<path fill="none" stroke="#9a32cd" stroke-dasharray="5,2" d="M137.782,-147.891C132.792,-141.094 126.697,-133.389 120.5,-127 114.145,-120.449 106.505,-113.959 99.6113,-108.521"/>
<polygon fill="#9a32cd" stroke="#9a32cd" points="135.168,-150.257 143.808,-156.389 140.878,-146.207 135.168,-150.257"/>
<text text-anchor="middle" x="140.5" y="-130" font-family="Helvetica,sans-Serif" font-size="10.00"> data</text>
</g>
</g>
</svg>
