<?xml version="1.0" encoding="UTF-8" standalone="no"?>
<!DOCTYPE svg PUBLIC "-//W3C//DTD SVG 1.1//EN"
 "http://www.w3.org/Graphics/SVG/1.1/DTD/svg11.dtd">
<!-- Generated by graphviz version 2.38.0 (20140413.2041)
 -->
<!-- Title: infra::StreamReader::Extract Pages: 1 -->
<!--zoomable 372 -->
<svg id="main" version="1.1" xmlns="http://www.w3.org/2000/svg" xmlns:xlink="http://www.w3.org/1999/xlink" xml:space="preserve" onload="init(evt)">
<style type="text/css"><![CDATA[
.edge:hover path { stroke: red; }
.edge:hover polygon { stroke: red; fill: red; }
]]></style>
<script type="text/javascript"><![CDATA[
var edges = document.getElementsByTagName('g');
if (edges && edges.length) {
  for (var i=0;i<edges.length;i++) {
    if (edges[i].id.substr(0,4)=='edge') {
      edges[i].setAttribute('class','edge');
    }
  }
}
]]></script>
        <defs>
                <circle id="rim" cx="0" cy="0" r="7"/>
                <circle id="rim2" cx="0" cy="0" r="3.5"/>
                <g id="zoomPlus">
                        <use xlink:href="#rim" fill="#404040">
                                <set attributeName="fill" to="#808080" begin="zoomplus.mouseover" end="zoomplus.mouseout"/>
                        </use>
                        <path d="M-4,0h8M0,-4v8" fill="none" stroke="white" stroke-width="1.5" pointer-events="none"/>
                </g>
                <g id="zoomMin">
                        <use xlink:href="#rim" fill="#404040">
                                <set attributeName="fill" to="#808080" begin="zoomminus.mouseover" end="zoomminus.mouseout"/>
                        </use>
                        <path d="M-4,0h8" fill="none" stroke="white" stroke-width="1.5" pointer-events="none"/>
                </g>
                <g id="dirArrow">
                        <path fill="none" stroke="white" stroke-width="1.5" d="M0,-3.0v7 M-2.5,-0.5L0,-3.0L2.5,-0.5"/>
                </g>
               <g id="resetDef">
                       <use xlink:href="#rim2" fill="#404040">
                               <set attributeName="fill" to="#808080" begin="reset.mouseover" end="reset.mouseout"/>
                       </use>
               </g>
        </defs>

<script type="text/javascript">
var viewWidth = 743;
var viewHeight = 372;
var sectionId = 'dynsection-3';
</script>
<script xlink:href="../../svgpan.js"/>
<svg id="graph" class="graph">
<g id="viewport">
<title>infra::StreamReader::Extract</title>
<polygon fill="white" stroke="none" points="-4,4 -4,-368 739,-368 739,4 -4,4"/>
<!-- Node40 -->
<g id="node1" class="node"><title>Node40</title>
<polygon fill="#bfbfbf" stroke="black" points="0,-161.5 0,-191.5 103,-191.5 103,-161.5 0,-161.5"/>
<text text-anchor="start" x="8" y="-179.5" font-family="Helvetica,sans-Serif" font-size="10.00">infra::StreamReader</text>
<text text-anchor="middle" x="51.5" y="-168.5" font-family="Helvetica,sans-Serif" font-size="10.00">::Extract</text>
</g>
<!-- Node41 -->
<g id="node2" class="node"><title>Node41</title>
<g id="a_node2"><a xlink:href="../../df/dbd/classservices_1_1_tracing_stream_reader.html#a39adcec02f721adb154832c16e43d232" target="_top" xlink:title="services::TracingStreamReader\l::Extract">
<polygon fill="white" stroke="black" points="139,-333.5 139,-363.5 291,-363.5 291,-333.5 139,-333.5"/>
<text text-anchor="start" x="147" y="-351.5" font-family="Helvetica,sans-Serif" font-size="10.00">services::TracingStreamReader</text>
<text text-anchor="middle" x="215" y="-340.5" font-family="Helvetica,sans-Serif" font-size="10.00">::Extract</text>
</a>
</g>
</g>
<!-- Node40&#45;&gt;Node41 -->
<g id="edge1" class="edge"><title>Node40&#45;&gt;Node41</title>
<path fill="none" stroke="midnightblue" d="M60.5982,-201.251C72.5857,-234.097 98.1428,-291.744 139,-324.5 143.267,-327.921 148.031,-330.858 153.033,-333.38"/>
<polygon fill="midnightblue" stroke="midnightblue" points="63.7969,-199.797 57.1808,-191.521 57.1925,-202.116 63.7969,-199.797"/>
</g>
<!-- Node42 -->
<g id="node3" class="node"><title>Node42</title>
<g id="a_node3"><a xlink:href="../../d9/db6/classinfra_1_1_limited_stream_reader.html#adfb57f2e50af6558e35f4f730097e049" target="_top" xlink:title="infra::LimitedStreamReader\l::Extract">
<polygon fill="white" stroke="black" points="148,-284.5 148,-314.5 282,-314.5 282,-284.5 148,-284.5"/>
<text text-anchor="start" x="156" y="-302.5" font-family="Helvetica,sans-Serif" font-size="10.00">infra::LimitedStreamReader</text>
<text text-anchor="middle" x="215" y="-291.5" font-family="Helvetica,sans-Serif" font-size="10.00">::Extract</text>
</a>
</g>
</g>
<!-- Node40&#45;&gt;Node42 -->
<g id="edge2" class="edge"><title>Node40&#45;&gt;Node42</title>
<path fill="none" stroke="midnightblue" d="M67.513,-200.126C82.9073,-222.545 108.82,-255.676 139,-275.5 144.142,-278.878 149.794,-281.809 155.617,-284.348"/>
<polygon fill="midnightblue" stroke="midnightblue" points="70.234,-197.898 61.7654,-191.532 64.4153,-201.79 70.234,-197.898"/>
</g>
<!-- Node43 -->
<g id="node4" class="node"><title>Node43</title>
<g id="a_node4"><a xlink:href="../../d1/dc1/classinfra_1_1_counting_stream_reader.html#a37def697b6b961b8d31d4026b52b4a46" target="_top" xlink:title="infra::CountingStreamReader\l::Extract">
<polygon fill="white" stroke="black" points="144.5,-235.5 144.5,-265.5 285.5,-265.5 285.5,-235.5 144.5,-235.5"/>
<text text-anchor="start" x="152.5" y="-253.5" font-family="Helvetica,sans-Serif" font-size="10.00">infra::CountingStreamReader</text>
<text text-anchor="middle" x="215" y="-242.5" font-family="Helvetica,sans-Serif" font-size="10.00">::Extract</text>
</a>
</g>
</g>
<!-- Node40&#45;&gt;Node43 -->
<g id="edge3" class="edge"><title>Node40&#45;&gt;Node43</title>
<path fill="none" stroke="midnightblue" d="M84.5471,-197.231C100.49,-206.967 120.306,-218.221 139,-226.5 146.25,-229.711 154.065,-232.699 161.816,-235.4"/>
<polygon fill="midnightblue" stroke="midnightblue" points="85.9884,-194.007 75.6457,-191.709 82.298,-199.955 85.9884,-194.007"/>
</g>
<!-- Node44 -->
<g id="node5" class="node"><title>Node44</title>
<g id="a_node5"><a xlink:href="../../d0/db4/classinfra_1_1_data_input_stream.html#a916753eabcb53e3c7afb05b46b933799" target="_top" xlink:title="infra::DataInputStream\l::operator\&gt;\&gt;">
<polygon fill="white" stroke="black" points="158.5,-186.5 158.5,-216.5 271.5,-216.5 271.5,-186.5 158.5,-186.5"/>
<text text-anchor="start" x="166.5" y="-204.5" font-family="Helvetica,sans-Serif" font-size="10.00">infra::DataInputStream</text>
<text text-anchor="middle" x="215" y="-193.5" font-family="Helvetica,sans-Serif" font-size="10.00">::operator&gt;&gt;</text>
</a>
</g>
</g>
<!-- Node40&#45;&gt;Node44 -->
<g id="edge4" class="edge"><title>Node40&#45;&gt;Node44</title>
<path fill="none" stroke="midnightblue" d="M113.25,-185.904C128.091,-188.201 143.893,-190.648 158.476,-192.905"/>
<polygon fill="midnightblue" stroke="midnightblue" points="113.574,-182.413 103.157,-184.342 112.503,-189.33 113.574,-182.413"/>
</g>
<!-- Node45 -->
<g id="node6" class="node"><title>Node45</title>
<g id="a_node6"><a xlink:href="../../d7/d93/classinfra_1_1_text_input_stream.html#ae49a967c1eaf126acbc6166eaf3d791b" target="_top" xlink:title="infra::TextInputStream\l::operator\&gt;\&gt;">
<polygon fill="white" stroke="black" points="159,-137.5 159,-167.5 271,-167.5 271,-137.5 159,-137.5"/>
<text text-anchor="start" x="167" y="-155.5" font-family="Helvetica,sans-Serif" font-size="10.00">infra::TextInputStream</text>
<text text-anchor="middle" x="215" y="-144.5" font-family="Helvetica,sans-Serif" font-size="10.00">::operator&gt;&gt;</text>
</a>
</g>
</g>
<!-- Node40&#45;&gt;Node45 -->
<g id="edge5" class="edge"><title>Node40&#45;&gt;Node45</title>
<path fill="none" stroke="midnightblue" d="M113.304,-167.464C128.225,-165.247 144.116,-162.885 158.759,-160.709"/>
<polygon fill="midnightblue" stroke="midnightblue" points="112.533,-164.04 103.157,-168.972 113.562,-170.964 112.533,-164.04"/>
</g>
<!-- Node46 -->
<g id="node7" class="node"><title>Node46</title>
<g id="a_node7"><a xlink:href="../../d7/d93/classinfra_1_1_text_input_stream.html#a37f8a18ba4c7477ffa9d26b83aa0849d" target="_top" xlink:title="infra::TextInputStream\l::ReadAsDecimal">
<polygon fill="white" stroke="black" points="327,-73.5 327,-103.5 439,-103.5 439,-73.5 327,-73.5"/>
<text text-anchor="start" x="335" y="-91.5" font-family="Helvetica,sans-Serif" font-size="10.00">infra::TextInputStream</text>
<text text-anchor="middle" x="383" y="-80.5" font-family="Helvetica,sans-Serif" font-size="10.00">::ReadAsDecimal</text>
</a>
</g>
</g>
<!-- Node40&#45;&gt;Node46 -->
<g id="edge6" class="edge"><title>Node40&#45;&gt;Node46</title>
<path fill="none" stroke="midnightblue" d="M83.5036,-155.875C99.4678,-146.159 119.61,-135.247 139,-128.5 201.186,-106.86 276.49,-96.7809 326.627,-92.1841"/>
<polygon fill="midnightblue" stroke="midnightblue" points="81.2543,-153.154 74.6241,-161.417 84.9606,-159.092 81.2543,-153.154"/>
</g>
<!-- Node50 -->
<g id="node11" class="node"><title>Node50</title>
<g id="a_node11"><a xlink:href="../../d7/d93/classinfra_1_1_text_input_stream.html#ac76645a4fee308debc716ae6e5a2961a" target="_top" xlink:title="infra::TextInputStream\l::ReadAsHex">
<polygon fill="white" stroke="black" points="327,-24.5 327,-54.5 439,-54.5 439,-24.5 327,-24.5"/>
<text text-anchor="start" x="335" y="-42.5" font-family="Helvetica,sans-Serif" font-size="10.00">infra::TextInputStream</text>
<text text-anchor="middle" x="383" y="-31.5" font-family="Helvetica,sans-Serif" font-size="10.00">::ReadAsHex</text>
</a>
</g>
</g>
<!-- Node40&#45;&gt;Node50 -->
<g id="edge10" class="edge"><title>Node40&#45;&gt;Node50</title>
<path fill="none" stroke="midnightblue" d="M59.8686,-151.703C71.03,-119.164 95.655,-63.3943 139,-39.5 196.82,-7.62623 274.761,-14.7231 326.612,-25.0549"/>
<polygon fill="midnightblue" stroke="midnightblue" points="56.4853,-150.789 56.7112,-161.382 63.1401,-152.96 56.4853,-150.789"/>
</g>
<!-- Node52 -->
<g id="node13" class="node"><title>Node52</title>
<g id="a_node13"><a xlink:href="../../d7/d93/classinfra_1_1_text_input_stream.html#a9acce538269dafb453bd83f20808a458" target="_top" xlink:title="infra::TextInputStream\l::SkipSpaces">
<polygon fill="white" stroke="black" points="159,-49.5 159,-79.5 271,-79.5 271,-49.5 159,-49.5"/>
<text text-anchor="start" x="167" y="-67.5" font-family="Helvetica,sans-Serif" font-size="10.00">infra::TextInputStream</text>
<text text-anchor="middle" x="215" y="-56.5" font-family="Helvetica,sans-Serif" font-size="10.00">::SkipSpaces</text>
</a>
</g>
</g>
<!-- Node40&#45;&gt;Node52 -->
<g id="edge13" class="edge"><title>Node40&#45;&gt;Node52</title>
<path fill="none" stroke="midnightblue" d="M72.1182,-153.638C88.5234,-135.648 113.311,-110.952 139,-94.5 147.975,-88.7521 158.232,-83.773 168.217,-79.6127"/>
<polygon fill="midnightblue" stroke="midnightblue" points="69.2539,-151.591 65.1974,-161.378 74.4721,-156.257 69.2539,-151.591"/>
</g>
<!-- Node47 -->
<g id="node8" class="node"><title>Node47</title>
<g id="a_node8"><a xlink:href="../../d7/d93/classinfra_1_1_text_input_stream.html#ac3a7e4a3e77144f3b309730fcd91e570" target="_top" xlink:title="infra::TextInputStream\l::Read">
<polygon fill="white" stroke="black" points="475,-49.5 475,-79.5 587,-79.5 587,-49.5 475,-49.5"/>
<text text-anchor="start" x="483" y="-67.5" font-family="Helvetica,sans-Serif" font-size="10.00">infra::TextInputStream</text>
<text text-anchor="middle" x="531" y="-56.5" font-family="Helvetica,sans-Serif" font-size="10.00">::Read</text>
</a>
</g>
</g>
<!-- Node46&#45;&gt;Node47 -->
<g id="edge7" class="edge"><title>Node46&#45;&gt;Node47</title>
<path fill="none" stroke="midnightblue" d="M449.131,-77.7935C457.676,-76.3889 466.366,-74.9604 474.726,-73.5862"/>
<polygon fill="midnightblue" stroke="midnightblue" points="448.496,-74.3508 439.196,-79.4266 449.632,-81.2581 448.496,-74.3508"/>
</g>
<!-- Node49 -->
<g id="node10" class="node"><title>Node49</title>
<g id="a_node10"><a xlink:href="../../d7/d93/classinfra_1_1_text_input_stream.html#a73e0b4b5d322edd1bcd38335442f5f35" target="_top" xlink:title="infra::TextInputStream\l::ReadAsDecimal">
<polygon fill="white" stroke="black" points="475,-98.5 475,-128.5 587,-128.5 587,-98.5 475,-98.5"/>
<text text-anchor="start" x="483" y="-116.5" font-family="Helvetica,sans-Serif" font-size="10.00">infra::TextInputStream</text>
<text text-anchor="middle" x="531" y="-105.5" font-family="Helvetica,sans-Serif" font-size="10.00">::ReadAsDecimal</text>
</a>
</g>
</g>
<!-- Node46&#45;&gt;Node49 -->
<g id="edge9" class="edge"><title>Node46&#45;&gt;Node49</title>
<path fill="none" stroke="midnightblue" d="M449.131,-99.6526C457.676,-101.116 466.366,-102.604 474.726,-104.035"/>
<polygon fill="midnightblue" stroke="midnightblue" points="449.644,-96.1895 439.196,-97.9514 448.462,-103.089 449.644,-96.1895"/>
</g>
<!-- Node48 -->
<g id="node9" class="node"><title>Node48</title>
<g id="a_node9"><a xlink:href="../../d7/d93/classinfra_1_1_text_input_stream.html#a8b90f80f1548f6cc603e0807e68b9a78" target="_top" xlink:title="infra::TextInputStream\l::operator\&gt;\&gt;">
<polygon fill="white" stroke="black" points="623,-49.5 623,-79.5 735,-79.5 735,-49.5 623,-49.5"/>
<text text-anchor="start" x="631" y="-67.5" font-family="Helvetica,sans-Serif" font-size="10.00">infra::TextInputStream</text>
<text text-anchor="middle" x="679" y="-56.5" font-family="Helvetica,sans-Serif" font-size="10.00">::operator&gt;&gt;</text>
</a>
</g>
</g>
<!-- Node47&#45;&gt;Node48 -->
<g id="edge8" class="edge"><title>Node47&#45;&gt;Node48</title>
<path fill="none" stroke="midnightblue" d="M597.41,-64.5C605.865,-64.5 614.457,-64.5 622.726,-64.5"/>
<polygon fill="midnightblue" stroke="midnightblue" points="597.196,-61.0001 587.196,-64.5 597.196,-68.0001 597.196,-61.0001"/>
</g>
<!-- Node50&#45;&gt;Node47 -->
<g id="edge11" class="edge"><title>Node50&#45;&gt;Node47</title>
<path fill="none" stroke="midnightblue" d="M449.131,-50.6526C457.676,-52.1157 466.366,-53.6037 474.726,-55.0352"/>
<polygon fill="midnightblue" stroke="midnightblue" points="449.644,-47.1895 439.196,-48.9514 448.462,-54.0891 449.644,-47.1895"/>
</g>
<!-- Node51 -->
<g id="node12" class="node"><title>Node51</title>
<g id="a_node12"><a xlink:href="../../d7/d93/classinfra_1_1_text_input_stream.html#ac6378625d4c4df73b79a7ec22f09994b" target="_top" xlink:title="infra::TextInputStream\l::ReadAsHex">
<polygon fill="white" stroke="black" points="475,-0.5 475,-30.5 587,-30.5 587,-0.5 475,-0.5"/>
<text text-anchor="start" x="483" y="-18.5" font-family="Helvetica,sans-Serif" font-size="10.00">infra::TextInputStream</text>
<text text-anchor="middle" x="531" y="-7.5" font-family="Helvetica,sans-Serif" font-size="10.00">::ReadAsHex</text>
</a>
</g>
</g>
<!-- Node50&#45;&gt;Node51 -->
<g id="edge12" class="edge"><title>Node50&#45;&gt;Node51</title>
<path fill="none" stroke="midnightblue" d="M449.131,-28.7935C457.676,-27.3889 466.366,-25.9604 474.726,-24.5862"/>
<polygon fill="midnightblue" stroke="midnightblue" points="448.496,-25.3508 439.196,-30.4266 449.632,-32.2581 448.496,-25.3508"/>
</g>
<!-- Node52&#45;&gt;Node46 -->
<g id="edge14" class="edge"><title>Node52&#45;&gt;Node46</title>
<path fill="none" stroke="midnightblue" d="M281.535,-73.975C296.577,-76.1497 312.42,-78.4403 326.966,-80.5432"/>
<polygon fill="midnightblue" stroke="midnightblue" points="281.674,-70.4587 271.276,-72.4917 280.672,-77.3866 281.674,-70.4587"/>
</g>
<!-- Node52&#45;&gt;Node50 -->
<g id="edge15" class="edge"><title>Node52&#45;&gt;Node50</title>
<path fill="none" stroke="midnightblue" d="M281.535,-54.6302C296.577,-52.3649 312.42,-49.9789 326.966,-47.7883"/>
<polygon fill="midnightblue" stroke="midnightblue" points="280.643,-51.2251 271.276,-56.1754 281.685,-58.147 280.643,-51.2251"/>
</g>
</g>
</svg>
        <g id="navigator" transform="translate(0 0)" fill="#404254">
                <rect fill="#f2f5e9" fill-opacity="0.5" stroke="#606060" stroke-width=".5" x="0" y="0" width="60" height="60"/>
                <use id="zoomplus" xlink:href="#zoomPlus" x="17" y="9" onmousedown="handleZoom(evt,'in')"/>
                <use id="zoomminus" xlink:href="#zoomMin" x="42" y="9" onmousedown="handleZoom(evt,'out')"/>
                <use id="reset" xlink:href="#resetDef" x="30" y="36" onmousedown="handleReset()"/>
                <g id="arrowUp" xlink:href="#dirArrow" transform="translate(30 24)" onmousedown="handlePan(0,-1)">
                  <use xlink:href="#rim" fill="#404040">
                        <set attributeName="fill" to="#808080" begin="arrowUp.mouseover" end="arrowUp.mouseout"/>
                  </use>
                  <path fill="none" stroke="white" stroke-width="1.5" d="M0,-3.0v7 M-2.5,-0.5L0,-3.0L2.5,-0.5"/>
                </g>
                <g id="arrowRight" xlink:href="#dirArrow" transform="rotate(90) translate(36 -43)" onmousedown="handlePan(1,0)">
                  <use xlink:href="#rim" fill="#404040">
                        <set attributeName="fill" to="#808080" begin="arrowRight.mouseover" end="arrowRight.mouseout"/>
                  </use>
                  <path fill="none" stroke="white" stroke-width="1.5" d="M0,-3.0v7 M-2.5,-0.5L0,-3.0L2.5,-0.5"/>
                </g>
                <g id="arrowDown" xlink:href="#dirArrow" transform="rotate(180) translate(-30 -48)" onmousedown="handlePan(0,1)">
                  <use xlink:href="#rim" fill="#404040">
                        <set attributeName="fill" to="#808080" begin="arrowDown.mouseover" end="arrowDown.mouseout"/>
                  </use>
                  <path fill="none" stroke="white" stroke-width="1.5" d="M0,-3.0v7 M-2.5,-0.5L0,-3.0L2.5,-0.5"/>
                </g>
                <g id="arrowLeft" xlink:href="#dirArrow" transform="rotate(270) translate(-36 17)" onmousedown="handlePan(-1,0)">
                  <use xlink:href="#rim" fill="#404040">
                        <set attributeName="fill" to="#808080" begin="arrowLeft.mouseover" end="arrowLeft.mouseout"/>
                  </use>
                  <path fill="none" stroke="white" stroke-width="1.5" d="M0,-3.0v7 M-2.5,-0.5L0,-3.0L2.5,-0.5"/>
                </g>
        </g>
        <svg viewBox="0 0 15 15" width="100%" height="30px" preserveAspectRatio="xMaxYMin meet">
         <g id="arrow_out" transform="scale(0.3 0.3)">
          <a xlink:href="classinfra_1_1_stream_reader_a31b3e381cbdb9a8628c4176904c90d6c_icgraph_org.svg" target="_base">
           <rect id="button" ry="5" rx="5" y="6" x="6" height="38" width="38"
                fill="#f2f5e9" fill-opacity="0.5" stroke="#606060" stroke-width="1.0"/>
           <path id="arrow"
             d="M 11.500037,31.436501 C 11.940474,20.09759 22.043105,11.32322 32.158766,21.979434 L 37.068811,17.246167 C 37.068811,17.246167 37.088388,32 37.088388,32 L 22.160133,31.978069 C 22.160133,31.978069 26.997745,27.140456 26.997745,27.140456 C 18.528582,18.264221 13.291696,25.230495 11.500037,31.436501 z"
             style="fill:#404040;"/>
          </a>
         </g>
        </svg>
</svg>
