<?xml version="1.0" encoding="UTF-8" standalone="no"?>
<!DOCTYPE svg PUBLIC "-//W3C//DTD SVG 1.1//EN"
 "http://www.w3.org/Graphics/SVG/1.1/DTD/svg11.dtd">
<!-- Generated by graphviz version 2.38.0 (20140413.2041)
 -->
<!-- Title: application::Decryptor::DecryptAndAuthenticate Pages: 1 -->
<svg width="479pt" height="39pt"
 viewBox="0.00 0.00 479.00 39.00" xmlns="http://www.w3.org/2000/svg" xmlns:xlink="http://www.w3.org/1999/xlink">
<g id="graph0" class="graph" transform="scale(1 1) rotate(0) translate(4 35)">
<title>application::Decryptor::DecryptAndAuthenticate</title>
<polygon fill="white" stroke="none" points="-4,4 -4,-35 475,-35 475,4 -4,4"/>
<!-- Node3 -->
<g id="node1" class="node"><title>Node3</title>
<polygon fill="#bfbfbf" stroke="black" points="0,-0.5 0,-30.5 128,-30.5 128,-0.5 0,-0.5"/>
<text text-anchor="start" x="8" y="-18.5" font-family="Helvetica,sans-Serif" font-size="10.00">application::Decryptor</text>
<text text-anchor="middle" x="64" y="-7.5" font-family="Helvetica,sans-Serif" font-size="10.00">::DecryptAndAuthenticate</text>
</g>
<!-- Node4 -->
<g id="node2" class="node"><title>Node4</title>
<g id="a_node2"><a xlink:href="../../d5/dc9/classapplication_1_1_second_stage_to_ram_loader.html#a6eaba267be0f1fc5c12c3e4002d0fd78" target="_top" xlink:title="application::SecondStage\lToRamLoader::TryLoadImage">
<polygon fill="white" stroke="black" points="164,-0.5 164,-30.5 307,-30.5 307,-0.5 164,-0.5"/>
<text text-anchor="start" x="172" y="-18.5" font-family="Helvetica,sans-Serif" font-size="10.00">application::SecondStage</text>
<text text-anchor="middle" x="235.5" y="-7.5" font-family="Helvetica,sans-Serif" font-size="10.00">ToRamLoader::TryLoadImage</text>
</a>
</g>
</g>
<!-- Node3&#45;&gt;Node4 -->
<g id="edge1" class="edge"><title>Node3&#45;&gt;Node4</title>
<path fill="none" stroke="midnightblue" d="M138.36,-15.5C146.842,-15.5 155.478,-15.5 163.921,-15.5"/>
<polygon fill="midnightblue" stroke="midnightblue" points="138.116,-12.0001 128.116,-15.5 138.116,-19.0001 138.116,-12.0001"/>
</g>
<!-- Node5 -->
<g id="node3" class="node"><title>Node5</title>
<g id="a_node3"><a xlink:href="../../d5/dc9/classapplication_1_1_second_stage_to_ram_loader.html#a80d50e315681e442cdce991d9185340c" target="_top" xlink:title="application::SecondStage\lToRamLoader::Load">
<polygon fill="white" stroke="black" points="343,-0.5 343,-30.5 471,-30.5 471,-0.5 343,-0.5"/>
<text text-anchor="start" x="351" y="-18.5" font-family="Helvetica,sans-Serif" font-size="10.00">application::SecondStage</text>
<text text-anchor="middle" x="407" y="-7.5" font-family="Helvetica,sans-Serif" font-size="10.00">ToRamLoader::Load</text>
</a>
</g>
</g>
<!-- Node4&#45;&gt;Node5 -->
<g id="edge2" class="edge"><title>Node4&#45;&gt;Node5</title>
<path fill="none" stroke="midnightblue" d="M317.418,-15.5C325.989,-15.5 334.613,-15.5 342.937,-15.5"/>
<polygon fill="midnightblue" stroke="midnightblue" points="317.401,-12.0001 307.401,-15.5 317.401,-19.0001 317.401,-12.0001"/>
</g>
</g>
</svg>
