<?xml version="1.0" encoding="UTF-8" standalone="no"?>
<!DOCTYPE svg PUBLIC "-//W3C//DTD SVG 1.1//EN"
 "http://www.w3.org/Graphics/SVG/1.1/DTD/svg11.dtd">
<!-- Generated by graphviz version 2.38.0 (20140413.2041)
 -->
<!-- Title: hal::SynchronousFlash::WriteBuffer Pages: 1 -->
<svg width="633pt" height="279pt"
 viewBox="0.00 0.00 633.00 279.00" xmlns="http://www.w3.org/2000/svg" xmlns:xlink="http://www.w3.org/1999/xlink">
<g id="graph0" class="graph" transform="scale(1 1) rotate(0) translate(4 275)">
<title>hal::SynchronousFlash::WriteBuffer</title>
<polygon fill="white" stroke="none" points="-4,4 -4,-275 629,-275 629,4 -4,4"/>
<!-- Node125 -->
<g id="node1" class="node"><title>Node125</title>
<polygon fill="#bfbfbf" stroke="black" points="0,-122.5 0,-152.5 116,-152.5 116,-122.5 0,-122.5"/>
<text text-anchor="start" x="8" y="-140.5" font-family="Helvetica,sans-Serif" font-size="10.00">hal::SynchronousFlash</text>
<text text-anchor="middle" x="58" y="-129.5" font-family="Helvetica,sans-Serif" font-size="10.00">::WriteBuffer</text>
</g>
<!-- Node126 -->
<g id="node2" class="node"><title>Node126</title>
<g id="a_node2"><a xlink:href="../../d7/da5/classapplication_1_1_pack_upgrader.html#a6d81d95339a3312b78f65ef0b8b94229" target="_top" xlink:title="application::PackUpgrader\l::MarkAsDeployed">
<polygon fill="white" stroke="black" points="327,-240.5 327,-270.5 458,-270.5 458,-240.5 327,-240.5"/>
<text text-anchor="start" x="335" y="-258.5" font-family="Helvetica,sans-Serif" font-size="10.00">application::PackUpgrader</text>
<text text-anchor="middle" x="392.5" y="-247.5" font-family="Helvetica,sans-Serif" font-size="10.00">::MarkAsDeployed</text>
</a>
</g>
</g>
<!-- Node125&#45;&gt;Node126 -->
<g id="edge1" class="edge"><title>Node125&#45;&gt;Node126</title>
<path fill="none" stroke="midnightblue" d="M80.6809,-159.946C98.299,-176.807 124.637,-199.053 152,-211.5 207.798,-236.881 277.223,-247.626 326.937,-252.172"/>
<polygon fill="midnightblue" stroke="midnightblue" points="82.8165,-157.138 73.2273,-152.633 77.9139,-162.135 82.8165,-157.138"/>
</g>
<!-- Node128 -->
<g id="node4" class="node"><title>Node128</title>
<g id="a_node4"><a xlink:href="../../d7/da5/classapplication_1_1_pack_upgrader.html#a91eb5f598ef46b8027b49bf978a1e97b" target="_top" xlink:title="application::PackUpgrader\l::MarkAsDeployStarted">
<polygon fill="white" stroke="black" points="327,-191.5 327,-221.5 458,-221.5 458,-191.5 327,-191.5"/>
<text text-anchor="start" x="335" y="-209.5" font-family="Helvetica,sans-Serif" font-size="10.00">application::PackUpgrader</text>
<text text-anchor="middle" x="392.5" y="-198.5" font-family="Helvetica,sans-Serif" font-size="10.00">::MarkAsDeployStarted</text>
</a>
</g>
</g>
<!-- Node125&#45;&gt;Node128 -->
<g id="edge3" class="edge"><title>Node125&#45;&gt;Node128</title>
<path fill="none" stroke="midnightblue" d="M89.435,-158.033C106.956,-168.758 129.837,-180.977 152,-187.5 209.519,-204.429 277.958,-208.337 326.917,-208.509"/>
<polygon fill="midnightblue" stroke="midnightblue" points="91.1221,-154.959 80.7937,-152.598 87.3955,-160.885 91.1221,-154.959"/>
</g>
<!-- Node129 -->
<g id="node5" class="node"><title>Node129</title>
<g id="a_node5"><a xlink:href="../../d5/dc9/classapplication_1_1_second_stage_to_ram_loader.html#a2ea672dd0c1198a92881a9cb60cff7c0" target="_top" xlink:title="application::SecondStage\lToRamLoader::MarkAsError">
<polygon fill="white" stroke="black" points="153,-147.5 153,-177.5 290,-177.5 290,-147.5 153,-147.5"/>
<text text-anchor="start" x="161" y="-165.5" font-family="Helvetica,sans-Serif" font-size="10.00">application::SecondStage</text>
<text text-anchor="middle" x="221.5" y="-154.5" font-family="Helvetica,sans-Serif" font-size="10.00">ToRamLoader::MarkAsError</text>
</a>
</g>
</g>
<!-- Node125&#45;&gt;Node129 -->
<g id="edge5" class="edge"><title>Node125&#45;&gt;Node129</title>
<path fill="none" stroke="midnightblue" d="M126.486,-147.947C135.186,-149.294 144.098,-150.673 152.803,-152.021"/>
<polygon fill="midnightblue" stroke="midnightblue" points="126.811,-144.456 116.394,-146.384 125.74,-151.373 126.811,-144.456"/>
</g>
<!-- Node131 -->
<g id="node7" class="node"><title>Node131</title>
<g id="a_node7"><a xlink:href="../../d7/da5/classapplication_1_1_pack_upgrader.html#a6bc737ce61630bc7a68a046b2b464a90" target="_top" xlink:title="application::PackUpgrader\l::MarkAsError">
<polygon fill="white" stroke="black" points="156,-98.5 156,-128.5 287,-128.5 287,-98.5 156,-98.5"/>
<text text-anchor="start" x="164" y="-116.5" font-family="Helvetica,sans-Serif" font-size="10.00">application::PackUpgrader</text>
<text text-anchor="middle" x="221.5" y="-105.5" font-family="Helvetica,sans-Serif" font-size="10.00">::MarkAsError</text>
</a>
</g>
</g>
<!-- Node125&#45;&gt;Node131 -->
<g id="edge7" class="edge"><title>Node125&#45;&gt;Node131</title>
<path fill="none" stroke="midnightblue" d="M126.427,-127.48C136.17,-126.032 146.18,-124.544 155.868,-123.105"/>
<polygon fill="midnightblue" stroke="midnightblue" points="125.77,-124.039 116.394,-128.971 126.799,-130.963 125.77,-124.039"/>
</g>
<!-- Node133 -->
<g id="node9" class="node"><title>Node133</title>
<g id="a_node9"><a xlink:href="../../d7/d5d/classapplication_1_1_image_upgrader_internal_flash.html#a5930f5460a6be09433e3c5ecc18062a0" target="_top" xlink:title="application::ImageUpgrader\lInternalFlash::Upgrade">
<polygon fill="white" stroke="black" points="154.5,-49.5 154.5,-79.5 288.5,-79.5 288.5,-49.5 154.5,-49.5"/>
<text text-anchor="start" x="162.5" y="-67.5" font-family="Helvetica,sans-Serif" font-size="10.00">application::ImageUpgrader</text>
<text text-anchor="middle" x="221.5" y="-56.5" font-family="Helvetica,sans-Serif" font-size="10.00">InternalFlash::Upgrade</text>
</a>
</g>
</g>
<!-- Node125&#45;&gt;Node133 -->
<g id="edge11" class="edge"><title>Node125&#45;&gt;Node133</title>
<path fill="none" stroke="midnightblue" d="M95.2549,-117.433C112.243,-108.383 132.905,-97.8721 152,-89.5 159.884,-86.0433 168.413,-82.659 176.688,-79.5526"/>
<polygon fill="midnightblue" stroke="midnightblue" points="93.3777,-114.469 86.2285,-122.288 96.6934,-120.633 93.3777,-114.469"/>
</g>
<!-- Node134 -->
<g id="node10" class="node"><title>Node134</title>
<g id="a_node10"><a xlink:href="../../d0/d97/classservices_1_1_synchronous_flash_region.html#a173d778c280bd91b98f849891e919724" target="_top" xlink:title="services::SynchronousFlash\lRegion::WriteBuffer">
<polygon fill="white" stroke="black" points="152,-0.5 152,-30.5 291,-30.5 291,-0.5 152,-0.5"/>
<text text-anchor="start" x="160" y="-18.5" font-family="Helvetica,sans-Serif" font-size="10.00">services::SynchronousFlash</text>
<text text-anchor="middle" x="221.5" y="-7.5" font-family="Helvetica,sans-Serif" font-size="10.00">Region::WriteBuffer</text>
</a>
</g>
</g>
<!-- Node125&#45;&gt;Node134 -->
<g id="edge12" class="edge"><title>Node125&#45;&gt;Node134</title>
<path fill="none" stroke="midnightblue" d="M76.1597,-114.24C93.2467,-92.5227 121.298,-60.5356 152,-40.5 157.725,-36.7639 164.083,-33.4916 170.551,-30.6537"/>
<polygon fill="midnightblue" stroke="midnightblue" points="73.2854,-112.236 69.9542,-122.293 78.8303,-116.508 73.2854,-112.236"/>
</g>
<!-- Node127 -->
<g id="node3" class="node"><title>Node127</title>
<g id="a_node3"><a xlink:href="../../d7/da5/classapplication_1_1_pack_upgrader.html#aff7dca5e5b0c0c6ebbed6753cfc0f50a" target="_top" xlink:title="application::PackUpgrader\l::UpgradeFromImages">
<polygon fill="white" stroke="black" points="494,-144.5 494,-174.5 625,-174.5 625,-144.5 494,-144.5"/>
<text text-anchor="start" x="502" y="-162.5" font-family="Helvetica,sans-Serif" font-size="10.00">application::PackUpgrader</text>
<text text-anchor="middle" x="559.5" y="-151.5" font-family="Helvetica,sans-Serif" font-size="10.00">::UpgradeFromImages</text>
</a>
</g>
</g>
<!-- Node126&#45;&gt;Node127 -->
<g id="edge2" class="edge"><title>Node126&#45;&gt;Node127</title>
<path fill="none" stroke="midnightblue" d="M447.877,-236.473C451.348,-234.89 454.75,-233.229 458,-231.5 488.886,-215.068 521.185,-190.371 540.575,-174.596"/>
<polygon fill="midnightblue" stroke="midnightblue" points="446.385,-233.305 438.589,-240.479 449.157,-239.733 446.385,-233.305"/>
</g>
<!-- Node128&#45;&gt;Node127 -->
<g id="edge4" class="edge"><title>Node128&#45;&gt;Node127</title>
<path fill="none" stroke="midnightblue" d="M456.177,-188.647C472.532,-183.988 489.992,-179.014 505.774,-174.519"/>
<polygon fill="midnightblue" stroke="midnightblue" points="454.819,-185.394 446.161,-191.5 456.737,-192.126 454.819,-185.394"/>
</g>
<!-- Node130 -->
<g id="node6" class="node"><title>Node130</title>
<g id="a_node6"><a xlink:href="../../d5/dc9/classapplication_1_1_second_stage_to_ram_loader.html#a80d50e315681e442cdce991d9185340c" target="_top" xlink:title="application::SecondStage\lToRamLoader::Load">
<polygon fill="white" stroke="black" points="328.5,-142.5 328.5,-172.5 456.5,-172.5 456.5,-142.5 328.5,-142.5"/>
<text text-anchor="start" x="336.5" y="-160.5" font-family="Helvetica,sans-Serif" font-size="10.00">application::SecondStage</text>
<text text-anchor="middle" x="392.5" y="-149.5" font-family="Helvetica,sans-Serif" font-size="10.00">ToRamLoader::Load</text>
</a>
</g>
</g>
<!-- Node129&#45;&gt;Node130 -->
<g id="edge6" class="edge"><title>Node129&#45;&gt;Node130</title>
<path fill="none" stroke="midnightblue" d="M300.377,-160.196C309.757,-159.918 319.245,-159.638 328.377,-159.368"/>
<polygon fill="midnightblue" stroke="midnightblue" points="300.157,-156.701 290.265,-160.495 300.364,-163.698 300.157,-156.701"/>
</g>
<!-- Node131&#45;&gt;Node127 -->
<g id="edge10" class="edge"><title>Node131&#45;&gt;Node127</title>
<path fill="none" stroke="midnightblue" d="M297.088,-116.618C343.609,-119.356 404.584,-124.389 458,-133.5 474.167,-136.257 491.539,-140.34 507.217,-144.457"/>
<polygon fill="midnightblue" stroke="midnightblue" points="297.272,-113.123 287.09,-116.051 296.876,-120.111 297.272,-113.123"/>
</g>
<!-- Node132 -->
<g id="node8" class="node"><title>Node132</title>
<g id="a_node8"><a xlink:href="../../d7/da5/classapplication_1_1_pack_upgrader.html#a1337cb46d527469775a711277a01e516" target="_top" xlink:title="application::PackUpgrader\l::TryUpgradeImage">
<polygon fill="white" stroke="black" points="327,-54.5 327,-84.5 458,-84.5 458,-54.5 327,-54.5"/>
<text text-anchor="start" x="335" y="-72.5" font-family="Helvetica,sans-Serif" font-size="10.00">application::PackUpgrader</text>
<text text-anchor="middle" x="392.5" y="-61.5" font-family="Helvetica,sans-Serif" font-size="10.00">::TryUpgradeImage</text>
</a>
</g>
</g>
<!-- Node131&#45;&gt;Node132 -->
<g id="edge8" class="edge"><title>Node131&#45;&gt;Node132</title>
<path fill="none" stroke="midnightblue" d="M290.077,-95.9059C304.554,-92.1368 319.722,-88.1878 333.786,-84.5262"/>
<polygon fill="midnightblue" stroke="midnightblue" points="288.983,-92.574 280.188,-98.4808 290.747,-99.3482 288.983,-92.574"/>
</g>
<!-- Node132&#45;&gt;Node127 -->
<g id="edge9" class="edge"><title>Node132&#45;&gt;Node127</title>
<path fill="none" stroke="midnightblue" d="M437.104,-89.0366C444.15,-92.4062 451.321,-95.9651 458,-99.5 484.941,-113.759 514.814,-131.907 534.934,-144.492"/>
<polygon fill="midnightblue" stroke="midnightblue" points="438.169,-85.6698 427.631,-84.5792 435.189,-92.0037 438.169,-85.6698"/>
</g>
</g>
</svg>
