<?xml version="1.0" encoding="UTF-8" standalone="no"?>
<!DOCTYPE svg PUBLIC "-//W3C//DTD SVG 1.1//EN"
 "http://www.w3.org/Graphics/SVG/1.1/DTD/svg11.dtd">
<!-- Generated by graphviz version 2.38.0 (20140413.2041)
 -->
<!-- Title: hal::SynchronousFlash::SizeOfSector Pages: 1 -->
<svg width="299pt" height="88pt"
 viewBox="0.00 0.00 299.00 88.00" xmlns="http://www.w3.org/2000/svg" xmlns:xlink="http://www.w3.org/1999/xlink">
<g id="graph0" class="graph" transform="scale(1 1) rotate(0) translate(4 84)">
<title>hal::SynchronousFlash::SizeOfSector</title>
<polygon fill="white" stroke="none" points="-4,4 -4,-84 295,-84 295,4 -4,4"/>
<!-- Node88 -->
<g id="node1" class="node"><title>Node88</title>
<polygon fill="#bfbfbf" stroke="black" points="0,-24.5 0,-54.5 116,-54.5 116,-24.5 0,-24.5"/>
<text text-anchor="start" x="8" y="-42.5" font-family="Helvetica,sans-Serif" font-size="10.00">hal::SynchronousFlash</text>
<text text-anchor="middle" x="58" y="-31.5" font-family="Helvetica,sans-Serif" font-size="10.00">::SizeOfSector</text>
</g>
<!-- Node89 -->
<g id="node2" class="node"><title>Node89</title>
<g id="a_node2"><a xlink:href="../../d0/d97/classservices_1_1_synchronous_flash_region.html#a9a8fb31305d60d7319d4e9e035cfe280" target="_top" xlink:title="services::SynchronousFlash\lRegion::SizeOfSector">
<polygon fill="white" stroke="black" points="152,-49.5 152,-79.5 291,-79.5 291,-49.5 152,-49.5"/>
<text text-anchor="start" x="160" y="-67.5" font-family="Helvetica,sans-Serif" font-size="10.00">services::SynchronousFlash</text>
<text text-anchor="middle" x="221.5" y="-56.5" font-family="Helvetica,sans-Serif" font-size="10.00">Region::SizeOfSector</text>
</a>
</g>
</g>
<!-- Node88&#45;&gt;Node89 -->
<g id="edge1" class="edge"><title>Node88&#45;&gt;Node89</title>
<path fill="none" stroke="midnightblue" d="M126.527,-49.9531C134.935,-51.2547 143.54,-52.5867 151.964,-53.8907"/>
<polygon fill="midnightblue" stroke="midnightblue" points="126.811,-46.4555 116.394,-48.3845 125.74,-53.3731 126.811,-46.4555"/>
</g>
<!-- Node90 -->
<g id="node3" class="node"><title>Node90</title>
<g id="a_node3"><a xlink:href="../../d5/dff/classhal_1_1_synchronous_flash.html#afa3be37518bb3070d933ee542f476838" target="_top" xlink:title="hal::SynchronousFlash\l::TotalSize">
<polygon fill="white" stroke="black" points="163.5,-0.5 163.5,-30.5 279.5,-30.5 279.5,-0.5 163.5,-0.5"/>
<text text-anchor="start" x="171.5" y="-18.5" font-family="Helvetica,sans-Serif" font-size="10.00">hal::SynchronousFlash</text>
<text text-anchor="middle" x="221.5" y="-7.5" font-family="Helvetica,sans-Serif" font-size="10.00">::TotalSize</text>
</a>
</g>
</g>
<!-- Node88&#45;&gt;Node90 -->
<g id="edge2" class="edge"><title>Node88&#45;&gt;Node90</title>
<path fill="none" stroke="midnightblue" d="M126.538,-29.4634C138.761,-27.647 151.399,-25.7688 163.291,-24.0016"/>
<polygon fill="midnightblue" stroke="midnightblue" points="125.77,-26.0389 116.394,-30.9709 126.799,-32.9629 125.77,-26.0389"/>
</g>
</g>
</svg>
