<?xml version="1.0" encoding="UTF-8" standalone="no"?>
<!DOCTYPE svg PUBLIC "-//W3C//DTD SVG 1.1//EN"
 "http://www.w3.org/Graphics/SVG/1.1/DTD/svg11.dtd">
<!-- Generated by graphviz version 2.38.0 (20140413.2041)
 -->
<!-- Title: services::I2cMultipleAccess::ReceiveDataOnClaimed Pages: 1 -->
<svg width="492pt" height="39pt"
 viewBox="0.00 0.00 492.00 39.00" xmlns="http://www.w3.org/2000/svg" xmlns:xlink="http://www.w3.org/1999/xlink">
<g id="graph0" class="graph" transform="scale(1 1) rotate(0) translate(4 35)">
<title>services::I2cMultipleAccess::ReceiveDataOnClaimed</title>
<polygon fill="white" stroke="none" points="-4,4 -4,-35 488,-35 488,4 -4,4"/>
<!-- Node7 -->
<g id="node1" class="node"><title>Node7</title>
<polygon fill="#bfbfbf" stroke="black" points="0,-0.5 0,-30.5 137,-30.5 137,-0.5 0,-0.5"/>
<text text-anchor="start" x="8" y="-18.5" font-family="Helvetica,sans-Serif" font-size="10.00">services::I2cMultipleAccess</text>
<text text-anchor="middle" x="68.5" y="-7.5" font-family="Helvetica,sans-Serif" font-size="10.00">::ReceiveDataOnClaimed</text>
</g>
<!-- Node8 -->
<g id="node2" class="node"><title>Node8</title>
<g id="a_node2"><a xlink:href="../../de/d17/classservices_1_1_i2c_multiple_access_master.html#a028cbbfe486203e9b1cd8c6bc627735e" target="_top" xlink:title="services::I2cMultipleAccess\lMaster::ReceiveData">
<polygon fill="white" stroke="black" points="173,-0.5 173,-30.5 310,-30.5 310,-0.5 173,-0.5"/>
<text text-anchor="start" x="181" y="-18.5" font-family="Helvetica,sans-Serif" font-size="10.00">services::I2cMultipleAccess</text>
<text text-anchor="middle" x="241.5" y="-7.5" font-family="Helvetica,sans-Serif" font-size="10.00">Master::ReceiveData</text>
</a>
</g>
</g>
<!-- Node7&#45;&gt;Node8 -->
<g id="edge1" class="edge"><title>Node7&#45;&gt;Node8</title>
<path fill="none" stroke="midnightblue" d="M137.084,-15.5C145.538,-15.5 154.237,-15.5 162.83,-15.5"/>
<polygon fill="midnightblue" stroke="midnightblue" points="162.847,-19.0001 172.847,-15.5 162.847,-12.0001 162.847,-19.0001"/>
</g>
<!-- Node9 -->
<g id="node3" class="node"><title>Node9</title>
<g id="a_node3"><a xlink:href="../../df/d85/classhal_1_1_i2c_master.html#a086f4bc81f6f91121ed41f8522644fdd" target="_top" xlink:title="hal::I2cMaster::ReceiveData">
<polygon fill="white" stroke="black" points="346,-6 346,-25 484,-25 484,-6 346,-6"/>
<text text-anchor="middle" x="415" y="-13" font-family="Helvetica,sans-Serif" font-size="10.00">hal::I2cMaster::ReceiveData</text>
</a>
</g>
</g>
<!-- Node8&#45;&gt;Node9 -->
<g id="edge2" class="edge"><title>Node8&#45;&gt;Node9</title>
<path fill="none" stroke="midnightblue" d="M310.281,-15.5C318.602,-15.5 327.158,-15.5 335.619,-15.5"/>
<polygon fill="midnightblue" stroke="midnightblue" points="335.868,-19.0001 345.868,-15.5 335.868,-12.0001 335.868,-19.0001"/>
</g>
</g>
</svg>
