<?xml version="1.0" encoding="UTF-8" standalone="no"?>
<!DOCTYPE svg PUBLIC "-//W3C//DTD SVG 1.1//EN"
 "http://www.w3.org/Graphics/SVG/1.1/DTD/svg11.dtd">
<!-- Generated by graphviz version 2.38.0 (20140413.2041)
 -->
<!-- Title: infra::DerivedTimerService::Now Pages: 1 -->
<svg width="450pt" height="88pt"
 viewBox="0.00 0.00 450.00 88.00" xmlns="http://www.w3.org/2000/svg" xmlns:xlink="http://www.w3.org/1999/xlink">
<g id="graph0" class="graph" transform="scale(1 1) rotate(0) translate(4 84)">
<title>infra::DerivedTimerService::Now</title>
<polygon fill="white" stroke="none" points="-4,4 -4,-84 446,-84 446,4 -4,4"/>
<!-- Node29 -->
<g id="node1" class="node"><title>Node29</title>
<polygon fill="#bfbfbf" stroke="black" points="0,-30 0,-49 152,-49 152,-30 0,-30"/>
<text text-anchor="middle" x="76" y="-37" font-family="Helvetica,sans-Serif" font-size="10.00">infra::DerivedTimerService::Now</text>
</g>
<!-- Node30 -->
<g id="node2" class="node"><title>Node30</title>
<g id="a_node2"><a xlink:href="../../d8/d04/classservices_1_1_sntp_client.html#a221c7cd699661e4440413c96e75cea75" target="_top" xlink:title="services::SntpClient\l::NotifyOffsetAndDelay">
<polygon fill="white" stroke="black" points="188,-49.5 188,-79.5 303,-79.5 303,-49.5 188,-49.5"/>
<text text-anchor="start" x="196" y="-67.5" font-family="Helvetica,sans-Serif" font-size="10.00">services::SntpClient</text>
<text text-anchor="middle" x="245.5" y="-56.5" font-family="Helvetica,sans-Serif" font-size="10.00">::NotifyOffsetAndDelay</text>
</a>
</g>
</g>
<!-- Node29&#45;&gt;Node30 -->
<g id="edge1" class="edge"><title>Node29&#45;&gt;Node30</title>
<path fill="none" stroke="midnightblue" d="M151.049,-50.552C163.354,-52.3887 175.943,-54.2676 187.733,-56.0273"/>
<polygon fill="midnightblue" stroke="midnightblue" points="151.21,-47.0374 140.802,-49.0227 150.176,-53.9607 151.21,-47.0374"/>
</g>
<!-- Node32 -->
<g id="node4" class="node"><title>Node32</title>
<g id="a_node4"><a xlink:href="../../d8/d04/classservices_1_1_sntp_client.html#a11eacb36be58032d1e8fd43d53eae2ef" target="_top" xlink:title="services::SntpClient\l::SendStreamAvailable">
<polygon fill="white" stroke="black" points="188,-0.5 188,-30.5 303,-30.5 303,-0.5 188,-0.5"/>
<text text-anchor="start" x="196" y="-18.5" font-family="Helvetica,sans-Serif" font-size="10.00">services::SntpClient</text>
<text text-anchor="middle" x="245.5" y="-7.5" font-family="Helvetica,sans-Serif" font-size="10.00">::SendStreamAvailable</text>
</a>
</g>
</g>
<!-- Node29&#45;&gt;Node32 -->
<g id="edge3" class="edge"><title>Node29&#45;&gt;Node32</title>
<path fill="none" stroke="midnightblue" d="M153.693,-28.5112C165.161,-26.868 176.807,-25.1992 187.763,-23.6295"/>
<polygon fill="midnightblue" stroke="midnightblue" points="153.084,-25.0626 143.682,-29.9456 154.077,-31.9918 153.084,-25.0626"/>
</g>
<!-- Node31 -->
<g id="node3" class="node"><title>Node31</title>
<g id="a_node3"><a xlink:href="../../d8/d04/classservices_1_1_sntp_client.html#a34f569549a7c6f789382a6dd9f44ba24" target="_top" xlink:title="services::SntpClient\l::DataReceived">
<polygon fill="white" stroke="black" points="339,-49.5 339,-79.5 442,-79.5 442,-49.5 339,-49.5"/>
<text text-anchor="start" x="347" y="-67.5" font-family="Helvetica,sans-Serif" font-size="10.00">services::SntpClient</text>
<text text-anchor="middle" x="390.5" y="-56.5" font-family="Helvetica,sans-Serif" font-size="10.00">::DataReceived</text>
</a>
</g>
</g>
<!-- Node30&#45;&gt;Node31 -->
<g id="edge2" class="edge"><title>Node30&#45;&gt;Node31</title>
<path fill="none" stroke="midnightblue" d="M313.136,-64.5C321.819,-64.5 330.598,-64.5 338.958,-64.5"/>
<polygon fill="midnightblue" stroke="midnightblue" points="313.017,-61.0001 303.017,-64.5 313.017,-68.0001 313.017,-61.0001"/>
</g>
</g>
</svg>
