<?xml version="1.0" encoding="UTF-8" standalone="no"?>
<!DOCTYPE svg PUBLIC "-//W3C//DTD SVG 1.1//EN"
 "http://www.w3.org/Graphics/SVG/1.1/DTD/svg11.dtd">
<!-- Generated by graphviz version 2.38.0 (20140413.2041)
 -->
<!-- Title: services::FlashMultipleAccess::SizeOfSector Pages: 1 -->
<svg width="501pt" height="39pt"
 viewBox="0.00 0.00 501.00 39.00" xmlns="http://www.w3.org/2000/svg" xmlns:xlink="http://www.w3.org/1999/xlink">
<g id="graph0" class="graph" transform="scale(1 1) rotate(0) translate(4 35)">
<title>services::FlashMultipleAccess::SizeOfSector</title>
<polygon fill="white" stroke="none" points="-4,4 -4,-35 497,-35 497,4 -4,4"/>
<!-- Node22 -->
<g id="node1" class="node"><title>Node22</title>
<polygon fill="#bfbfbf" stroke="black" points="0,-0.5 0,-30.5 149,-30.5 149,-0.5 0,-0.5"/>
<text text-anchor="start" x="8" y="-18.5" font-family="Helvetica,sans-Serif" font-size="10.00">services::FlashMultipleAccess</text>
<text text-anchor="middle" x="74.5" y="-7.5" font-family="Helvetica,sans-Serif" font-size="10.00">::SizeOfSector</text>
</g>
<!-- Node23 -->
<g id="node2" class="node"><title>Node23</title>
<g id="a_node2"><a xlink:href="../../d8/d5b/classservices_1_1_flash_multiple_access_master.html#a558d41f14668209b169524f4dc27ee82" target="_top" xlink:title="services::FlashMultipleAccess\lMaster::SizeOfSector">
<polygon fill="white" stroke="black" points="185,-0.5 185,-30.5 334,-30.5 334,-0.5 185,-0.5"/>
<text text-anchor="start" x="193" y="-18.5" font-family="Helvetica,sans-Serif" font-size="10.00">services::FlashMultipleAccess</text>
<text text-anchor="middle" x="259.5" y="-7.5" font-family="Helvetica,sans-Serif" font-size="10.00">Master::SizeOfSector</text>
</a>
</g>
</g>
<!-- Node22&#45;&gt;Node23 -->
<g id="edge1" class="edge"><title>Node22&#45;&gt;Node23</title>
<path fill="none" stroke="midnightblue" d="M149.142,-15.5C157.474,-15.5 166.011,-15.5 174.463,-15.5"/>
<polygon fill="midnightblue" stroke="midnightblue" points="174.711,-19.0001 184.711,-15.5 174.711,-12.0001 174.711,-19.0001"/>
</g>
<!-- Node24 -->
<g id="node3" class="node"><title>Node24</title>
<g id="a_node3"><a xlink:href="../../dd/d95/classhal_1_1_flash.html#aa68cb41a2cbe038e3bff43597665ff79" target="_top" xlink:title="hal::Flash::SizeOfSector">
<polygon fill="white" stroke="black" points="370,-6 370,-25 493,-25 493,-6 370,-6"/>
<text text-anchor="middle" x="431.5" y="-13" font-family="Helvetica,sans-Serif" font-size="10.00">hal::Flash::SizeOfSector</text>
</a>
</g>
</g>
<!-- Node23&#45;&gt;Node24 -->
<g id="edge2" class="edge"><title>Node23&#45;&gt;Node24</title>
<path fill="none" stroke="midnightblue" d="M334.076,-15.5C342.561,-15.5 351.2,-15.5 359.648,-15.5"/>
<polygon fill="midnightblue" stroke="midnightblue" points="359.834,-19.0001 369.834,-15.5 359.834,-12.0001 359.834,-19.0001"/>
</g>
</g>
</svg>
