<?xml version="1.0" encoding="UTF-8" standalone="no"?>
<!DOCTYPE svg PUBLIC "-//W3C//DTD SVG 1.1//EN"
 "http://www.w3.org/Graphics/SVG/1.1/DTD/svg11.dtd">
<!-- Generated by graphviz version 2.38.0 (20140413.2041)
 -->
<!-- Title: infra::DerivedTimerService::Resolution Pages: 1 -->
<svg width="268pt" height="39pt"
 viewBox="0.00 0.00 268.00 39.00" xmlns="http://www.w3.org/2000/svg" xmlns:xlink="http://www.w3.org/1999/xlink">
<g id="graph0" class="graph" transform="scale(1 1) rotate(0) translate(4 35)">
<title>infra::DerivedTimerService::Resolution</title>
<polygon fill="white" stroke="none" points="-4,4 -4,-35 264,-35 264,4 -4,4"/>
<!-- Node33 -->
<g id="node1" class="node"><title>Node33</title>
<polygon fill="#bfbfbf" stroke="black" points="0,-0.5 0,-30.5 128,-30.5 128,-0.5 0,-0.5"/>
<text text-anchor="start" x="8" y="-18.5" font-family="Helvetica,sans-Serif" font-size="10.00">infra::DerivedTimerService</text>
<text text-anchor="middle" x="64" y="-7.5" font-family="Helvetica,sans-Serif" font-size="10.00">::Resolution</text>
</g>
<!-- Node34 -->
<g id="node2" class="node"><title>Node34</title>
<g id="a_node2"><a xlink:href="../../da/def/classinfra_1_1_timer_service.html#ab717e40a1a49d2f31f4a9e2e63f0f5ce" target="_top" xlink:title="infra::TimerService\l::Resolution">
<polygon fill="white" stroke="black" points="164,-0.5 164,-30.5 260,-30.5 260,-0.5 164,-0.5"/>
<text text-anchor="start" x="172" y="-18.5" font-family="Helvetica,sans-Serif" font-size="10.00">infra::TimerService</text>
<text text-anchor="middle" x="212" y="-7.5" font-family="Helvetica,sans-Serif" font-size="10.00">::Resolution</text>
</a>
</g>
</g>
<!-- Node33&#45;&gt;Node34 -->
<g id="edge1" class="edge"><title>Node33&#45;&gt;Node34</title>
<path fill="none" stroke="midnightblue" d="M128.189,-15.5C136.533,-15.5 145.053,-15.5 153.299,-15.5"/>
<polygon fill="midnightblue" stroke="midnightblue" points="153.565,-19.0001 163.565,-15.5 153.565,-12.0001 153.565,-19.0001"/>
</g>
</g>
</svg>
