<?xml version="1.0" encoding="UTF-8" standalone="no"?>
<!DOCTYPE svg PUBLIC "-//W3C//DTD SVG 1.1//EN"
 "http://www.w3.org/Graphics/SVG/1.1/DTD/svg11.dtd">
<!-- Generated by graphviz version 2.38.0 (20140413.2041)
 -->
<!-- Title: application::UpgradePackHeaderPrologue Pages: 1 -->
<svg width="420pt" height="117pt"
 viewBox="0.00 0.00 420.00 117.00" xmlns="http://www.w3.org/2000/svg" xmlns:xlink="http://www.w3.org/1999/xlink">
<g id="graph0" class="graph" transform="scale(1 1) rotate(0) translate(4 113)">
<title>application::UpgradePackHeaderPrologue</title>
<polygon fill="white" stroke="none" points="-4,4 -4,-113 416,-113 416,4 -4,4"/>
<!-- Node1 -->
<g id="node1" class="node"><title>Node1</title>
<polygon fill="#bfbfbf" stroke="black" points="118.5,-0.5 118.5,-30.5 246.5,-30.5 246.5,-0.5 118.5,-0.5"/>
<text text-anchor="start" x="126.5" y="-18.5" font-family="Helvetica,sans-Serif" font-size="10.00">application::UpgradePack</text>
<text text-anchor="middle" x="182.5" y="-7.5" font-family="Helvetica,sans-Serif" font-size="10.00">HeaderPrologue</text>
</g>
<!-- Node2 -->
<g id="node2" class="node"><title>Node2</title>
<polygon fill="white" stroke="#bfbfbf" points="0,-89.5 0,-108.5 51,-108.5 51,-89.5 0,-89.5"/>
<text text-anchor="middle" x="25.5" y="-96.5" font-family="Helvetica,sans-Serif" font-size="10.00">uint16_t</text>
</g>
<!-- Node2&#45;&gt;Node1 -->
<g id="edge1" class="edge"><title>Node2&#45;&gt;Node1</title>
<path fill="none" stroke="#9a32cd" stroke-dasharray="5,2" d="M26.7557,-79.2649C28.4257,-68.9651 32.1771,-56.7437 40.5,-49 52.1185,-38.19 86.4722,-30.1682 118.478,-24.7987"/>
<polygon fill="#9a32cd" stroke="#9a32cd" points="23.257,-79.0614 25.6427,-89.3841 30.2151,-79.8267 23.257,-79.0614"/>
<text text-anchor="middle" x="77" y="-63" font-family="Helvetica,sans-Serif" font-size="10.00"> signatureLength</text>
<text text-anchor="middle" x="77" y="-52" font-family="Helvetica,sans-Serif" font-size="10.00">signatureMethod</text>
</g>
<!-- Node3 -->
<g id="node3" class="node"><title>Node3</title>
<polygon fill="white" stroke="#bfbfbf" points="96,-89.5 96,-108.5 147,-108.5 147,-89.5 96,-89.5"/>
<text text-anchor="middle" x="121.5" y="-96.5" font-family="Helvetica,sans-Serif" font-size="10.00">uint32_t</text>
</g>
<!-- Node3&#45;&gt;Node1 -->
<g id="edge2" class="edge"><title>Node3&#45;&gt;Node1</title>
<path fill="none" stroke="#9a32cd" stroke-dasharray="5,2" d="M117.631,-79.4234C116.606,-69.6951 117.03,-57.974 122.5,-49 127.248,-41.2109 134.567,-35.1672 142.483,-30.5236"/>
<polygon fill="#9a32cd" stroke="#9a32cd" points="114.177,-79.9866 119.214,-89.3075 121.089,-78.8799 114.177,-79.9866"/>
<text text-anchor="middle" x="172.5" y="-63" font-family="Helvetica,sans-Serif" font-size="10.00"> signedContentsLength</text>
<text text-anchor="middle" x="172.5" y="-52" font-family="Helvetica,sans-Serif" font-size="10.00">errorCode</text>
</g>
<!-- Node4 -->
<g id="node4" class="node"><title>Node4</title>
<polygon fill="white" stroke="#bfbfbf" points="192.5,-89.5 192.5,-108.5 296.5,-108.5 296.5,-89.5 192.5,-89.5"/>
<text text-anchor="middle" x="244.5" y="-96.5" font-family="Helvetica,sans-Serif" font-size="10.00">UpgradePackStatus</text>
</g>
<!-- Node4&#45;&gt;Node1 -->
<g id="edge3" class="edge"><title>Node4&#45;&gt;Node1</title>
<path fill="none" stroke="#9a32cd" stroke-dasharray="5,2" d="M238.679,-79.8627C235.001,-70.1117 229.594,-58.2307 222.5,-49 217.266,-42.1891 210.332,-35.9161 203.71,-30.7353"/>
<polygon fill="#9a32cd" stroke="#9a32cd" points="235.399,-81.0863 241.99,-89.3814 242.011,-78.7866 235.399,-81.0863"/>
<text text-anchor="middle" x="251" y="-57.5" font-family="Helvetica,sans-Serif" font-size="10.00"> status</text>
</g>
<!-- Node5 -->
<g id="node5" class="node"><title>Node5</title>
<polygon fill="white" stroke="#bfbfbf" points="315,-89.5 315,-108.5 412,-108.5 412,-89.5 315,-89.5"/>
<text text-anchor="middle" x="363.5" y="-96.5" font-family="Helvetica,sans-Serif" font-size="10.00">array&lt; uint8_t, 3 &gt;</text>
</g>
<!-- Node5&#45;&gt;Node1 -->
<g id="edge4" class="edge"><title>Node5&#45;&gt;Node1</title>
<path fill="none" stroke="#9a32cd" stroke-dasharray="5,2" d="M339.751,-84.3788C321.209,-74.0174 294.63,-59.7571 270.5,-49 255.625,-42.3687 238.943,-35.959 224.136,-30.6096"/>
<polygon fill="#9a32cd" stroke="#9a32cd" points="338.229,-87.5389 348.659,-89.4026 341.668,-81.4417 338.229,-87.5389"/>
<text text-anchor="middle" x="329.5" y="-57.5" font-family="Helvetica,sans-Serif" font-size="10.00"> magic</text>
</g>
</g>
</svg>
