<?xml version="1.0" encoding="UTF-8" standalone="no"?>
<!DOCTYPE svg PUBLIC "-//W3C//DTD SVG 1.1//EN"
 "http://www.w3.org/Graphics/SVG/1.1/DTD/svg11.dtd">
<!-- Generated by graphviz version 2.38.0 (20140413.2041)
 -->
<!-- Title: infra::StdStringOutputStream Pages: 1 -->
<svg width="1189pt" height="252pt"
 viewBox="0.00 0.00 1189.00 252.00" xmlns="http://www.w3.org/2000/svg" xmlns:xlink="http://www.w3.org/1999/xlink">
<g id="graph0" class="graph" transform="scale(1 1) rotate(0) translate(4 248)">
<title>infra::StdStringOutputStream</title>
<polygon fill="white" stroke="none" points="-4,4 -4,-248 1185,-248 1185,4 -4,4"/>
<!-- Node5 -->
<g id="node1" class="node"><title>Node5</title>
<polygon fill="#bfbfbf" stroke="black" points="1039,-68.5 1039,-87.5 1181,-87.5 1181,-68.5 1039,-68.5"/>
<text text-anchor="middle" x="1110" y="-75.5" font-family="Helvetica,sans-Serif" font-size="10.00">infra::StdStringOutputStream</text>
</g>
<!-- Node6 -->
<g id="node2" class="node"><title>Node6</title>
<g id="a_node2"><a xlink:href="../../da/d99/classinfra_1_1_text_output_stream_1_1_with_writer.html" target="_top" xlink:title="infra::TextOutputStream\l::WithWriter\&lt; StdStringOutput\lStreamWriter \&gt;">
<polygon fill="white" stroke="black" points="854,-57.5 854,-98.5 1002,-98.5 1002,-57.5 854,-57.5"/>
<text text-anchor="start" x="862" y="-86.5" font-family="Helvetica,sans-Serif" font-size="10.00">infra::TextOutputStream</text>
<text text-anchor="start" x="862" y="-75.5" font-family="Helvetica,sans-Serif" font-size="10.00">::WithWriter&lt; StdStringOutput</text>
<text text-anchor="middle" x="928" y="-64.5" font-family="Helvetica,sans-Serif" font-size="10.00">StreamWriter &gt;</text>
</a>
</g>
</g>
<!-- Node6&#45;&gt;Node5 -->
<g id="edge1" class="edge"><title>Node6&#45;&gt;Node5</title>
<path fill="none" stroke="midnightblue" d="M1012.48,-78C1021.27,-78 1030.14,-78 1038.76,-78"/>
<polygon fill="midnightblue" stroke="midnightblue" points="1012.21,-74.5001 1002.21,-78 1012.21,-81.5001 1012.21,-74.5001"/>
</g>
<!-- Node7 -->
<g id="node3" class="node"><title>Node7</title>
<g id="a_node3"><a xlink:href="../../d9/d00/classinfra_1_1detail_1_1_storage_holder.html" target="_top" xlink:title="infra::detail::StorageHolder\l\&lt; StdStringOutputStreamWriter,\l WithWriter\&lt; StdStringOutputStreamWriter \&gt; \&gt;">
<polygon fill="white" stroke="black" points="596,-57.5 596,-98.5 817,-98.5 817,-57.5 596,-57.5"/>
<text text-anchor="start" x="604" y="-86.5" font-family="Helvetica,sans-Serif" font-size="10.00">infra::detail::StorageHolder</text>
<text text-anchor="start" x="604" y="-75.5" font-family="Helvetica,sans-Serif" font-size="10.00">&lt; StdStringOutputStreamWriter,</text>
<text text-anchor="middle" x="706.5" y="-64.5" font-family="Helvetica,sans-Serif" font-size="10.00"> WithWriter&lt; StdStringOutputStreamWriter &gt; &gt;</text>
</a>
</g>
</g>
<!-- Node7&#45;&gt;Node6 -->
<g id="edge2" class="edge"><title>Node7&#45;&gt;Node6</title>
<path fill="none" stroke="#8b1a1a" d="M827.436,-78C836.434,-78 845.34,-78 853.91,-78"/>
<polygon fill="#8b1a1a" stroke="#8b1a1a" points="827.25,-74.5001 817.25,-78 827.25,-81.5001 827.25,-74.5001"/>
</g>
<!-- Node8 -->
<g id="node4" class="node"><title>Node8</title>
<g id="a_node4"><a xlink:href="../../db/d61/classinfra_1_1_std_string_output_stream_writer.html" target="_top" xlink:title="infra::StdStringOutputStream\lWriter">
<polygon fill="white" stroke="black" points="368,-62 368,-92 510,-92 510,-62 368,-62"/>
<text text-anchor="start" x="376" y="-80" font-family="Helvetica,sans-Serif" font-size="10.00">infra::StdStringOutputStream</text>
<text text-anchor="middle" x="439" y="-69" font-family="Helvetica,sans-Serif" font-size="10.00">Writer</text>
</a>
</g>
</g>
<!-- Node8&#45;&gt;Node7 -->
<g id="edge3" class="edge"><title>Node8&#45;&gt;Node7</title>
<path fill="none" stroke="#9a32cd" stroke-dasharray="5,2" d="M520.144,-77.3019C543.981,-77.3916 570.519,-77.4916 595.892,-77.5872"/>
<polygon fill="#9a32cd" stroke="#9a32cd" points="520.117,-73.8018 510.104,-77.264 520.091,-80.8018 520.117,-73.8018"/>
<text text-anchor="middle" x="553" y="-81" font-family="Helvetica,sans-Serif" font-size="10.00"> storage</text>
</g>
<!-- Node9 -->
<g id="node5" class="node"><title>Node9</title>
<g id="a_node5"><a xlink:href="../../de/dba/classinfra_1_1_stream_writer.html" target="_top" xlink:title="infra::StreamWriter">
<polygon fill="white" stroke="black" points="173,-132.5 173,-151.5 271,-151.5 271,-132.5 173,-132.5"/>
<text text-anchor="middle" x="222" y="-139.5" font-family="Helvetica,sans-Serif" font-size="10.00">infra::StreamWriter</text>
</a>
</g>
</g>
<!-- Node9&#45;&gt;Node8 -->
<g id="edge4" class="edge"><title>Node9&#45;&gt;Node8</title>
<path fill="none" stroke="midnightblue" d="M281.07,-132.855C303.14,-128.323 328.201,-121.872 350,-113 358.684,-109.466 359.541,-106.042 368,-102 375.452,-98.439 383.553,-95.096 391.512,-92.0846"/>
<polygon fill="midnightblue" stroke="midnightblue" points="280.298,-129.44 271.162,-134.805 281.65,-136.308 280.298,-129.44"/>
</g>
<!-- Node12 -->
<g id="node8" class="node"><title>Node12</title>
<g id="a_node8"><a xlink:href="../../d6/d97/classinfra_1_1_output_stream.html" target="_top" xlink:title="infra::OutputStream">
<polygon fill="white" stroke="black" points="388.5,-149.5 388.5,-168.5 489.5,-168.5 489.5,-149.5 388.5,-149.5"/>
<text text-anchor="middle" x="439" y="-156.5" font-family="Helvetica,sans-Serif" font-size="10.00">infra::OutputStream</text>
</a>
</g>
</g>
<!-- Node9&#45;&gt;Node12 -->
<g id="edge11" class="edge"><title>Node9&#45;&gt;Node12</title>
<path fill="none" stroke="#9a32cd" stroke-dasharray="5,2" d="M281.37,-146.615C314.88,-149.265 356.505,-152.556 388.419,-155.08"/>
<polygon fill="#9a32cd" stroke="#9a32cd" points="281.495,-143.114 271.25,-145.815 280.943,-150.093 281.495,-143.114"/>
<text text-anchor="middle" x="325" y="-156" font-family="Helvetica,sans-Serif" font-size="10.00"> writer</text>
</g>
<!-- Node10 -->
<g id="node6" class="node"><title>Node10</title>
<polygon fill="white" stroke="#bfbfbf" points="197,-57.5 197,-76.5 247,-76.5 247,-57.5 197,-57.5"/>
<text text-anchor="middle" x="222" y="-64.5" font-family="Helvetica,sans-Serif" font-size="10.00">string &amp;</text>
</g>
<!-- Node10&#45;&gt;Node8 -->
<g id="edge5" class="edge"><title>Node10&#45;&gt;Node8</title>
<path fill="none" stroke="#9a32cd" stroke-dasharray="5,2" d="M257.66,-66.395C283.207,-66.1627 318.792,-66.2851 350,-68 355.827,-68.3202 361.863,-68.7437 367.918,-69.2326"/>
<polygon fill="#9a32cd" stroke="#9a32cd" points="257.327,-62.8985 247.368,-66.5127 257.407,-69.8981 257.327,-62.8985"/>
<text text-anchor="middle" x="325" y="-71" font-family="Helvetica,sans-Serif" font-size="10.00"> string</text>
</g>
<!-- Node11 -->
<g id="node7" class="node"><title>Node11</title>
<g id="a_node7"><a xlink:href="../../de/dad/classinfra_1_1_text_output_stream.html" target="_top" xlink:title="infra::TextOutputStream">
<polygon fill="white" stroke="black" points="646.5,-130.5 646.5,-149.5 766.5,-149.5 766.5,-130.5 646.5,-130.5"/>
<text text-anchor="middle" x="706.5" y="-137.5" font-family="Helvetica,sans-Serif" font-size="10.00">infra::TextOutputStream</text>
</a>
</g>
</g>
<!-- Node11&#45;&gt;Node6 -->
<g id="edge6" class="edge"><title>Node11&#45;&gt;Node6</title>
<path fill="none" stroke="midnightblue" d="M751.259,-127.64C780.622,-119.346 820.01,-108.221 854.054,-98.6044"/>
<polygon fill="midnightblue" stroke="midnightblue" points="749.988,-124.362 741.316,-130.448 751.891,-131.098 749.988,-124.362"/>
</g>
<!-- Node12&#45;&gt;Node11 -->
<g id="edge7" class="edge"><title>Node12&#45;&gt;Node11</title>
<path fill="none" stroke="midnightblue" d="M499.846,-154.717C543.633,-151.584 602.759,-147.352 646.376,-144.231"/>
<polygon fill="midnightblue" stroke="midnightblue" points="499.352,-151.244 489.627,-155.449 499.851,-158.226 499.352,-151.244"/>
</g>
<!-- Node13 -->
<g id="node9" class="node"><title>Node13</title>
<g id="a_node9"><a xlink:href="../../d5/d4a/classinfra_1_1_stream_error_policy.html" target="_top" xlink:title="infra::StreamErrorPolicy">
<polygon fill="white" stroke="black" points="162,-19.5 162,-38.5 282,-38.5 282,-19.5 162,-19.5"/>
<text text-anchor="middle" x="222" y="-26.5" font-family="Helvetica,sans-Serif" font-size="10.00">infra::StreamErrorPolicy</text>
</a>
</g>
</g>
<!-- Node13&#45;&gt;Node6 -->
<g id="edge16" class="edge"><title>Node13&#45;&gt;Node6</title>
<path fill="none" stroke="#9a32cd" stroke-dasharray="5,2" d="M292.088,-25.9997C403.336,-22.3335 628.759,-19.7208 817,-48 831.583,-50.1909 846.995,-53.6473 861.517,-57.4471"/>
<polygon fill="#9a32cd" stroke="#9a32cd" points="291.881,-22.5046 282.007,-26.3452 292.121,-29.5005 291.881,-22.5046"/>
<text text-anchor="middle" x="553" y="-30" font-family="Helvetica,sans-Serif" font-size="10.00"> errorPolicy</text>
</g>
<!-- Node13&#45;&gt;Node12 -->
<g id="edge8" class="edge"><title>Node13&#45;&gt;Node12</title>
<path fill="none" stroke="#9a32cd" stroke-dasharray="5,2" d="M274.818,-43.0816C277.347,-44.562 279.761,-46.1962 282,-48 294.407,-57.9948 289.947,-66.6402 300,-79 325.619,-110.497 332.333,-120.602 368,-140 375.08,-143.85 382.995,-146.963 390.885,-149.466"/>
<polygon fill="#9a32cd" stroke="#9a32cd" points="276.379,-39.9493 265.869,-38.618 273.255,-46.2134 276.379,-39.9493"/>
<text text-anchor="middle" x="325" y="-133" font-family="Helvetica,sans-Serif" font-size="10.00"> errorPolicy</text>
</g>
<!-- Node14 -->
<g id="node10" class="node"><title>Node14</title>
<polygon fill="white" stroke="#bfbfbf" points="17.5,-38.5 17.5,-57.5 52.5,-57.5 52.5,-38.5 17.5,-38.5"/>
<text text-anchor="middle" x="35" y="-45.5" font-family="Helvetica,sans-Serif" font-size="10.00">bool</text>
</g>
<!-- Node14&#45;&gt;Node13 -->
<g id="edge9" class="edge"><title>Node14&#45;&gt;Node13</title>
<path fill="none" stroke="#9a32cd" stroke-dasharray="5,2" d="M62.8993,-45.2374C88.7485,-42.5826 128.68,-38.4815 161.943,-35.0653"/>
<polygon fill="#9a32cd" stroke="#9a32cd" points="62.3339,-41.7769 52.7438,-46.2804 63.0491,-48.7403 62.3339,-41.7769"/>
<text text-anchor="middle" x="116" y="-57" font-family="Helvetica,sans-Serif" font-size="10.00"> checkedFail</text>
<text text-anchor="middle" x="116" y="-46" font-family="Helvetica,sans-Serif" font-size="10.00">failed</text>
</g>
<!-- Node15 -->
<g id="node11" class="node"><title>Node15</title>
<polygon fill="white" stroke="#bfbfbf" points="0,-0.5 0,-19.5 70,-19.5 70,-0.5 0,-0.5"/>
<text text-anchor="middle" x="35" y="-7.5" font-family="Helvetica,sans-Serif" font-size="10.00">FailureMode</text>
</g>
<!-- Node15&#45;&gt;Node13 -->
<g id="edge10" class="edge"><title>Node15&#45;&gt;Node13</title>
<path fill="none" stroke="#9a32cd" stroke-dasharray="5,2" d="M80.4021,-14.5602C104.778,-17.0636 135.327,-20.2011 161.716,-22.9114"/>
<polygon fill="#9a32cd" stroke="#9a32cd" points="80.6688,-11.0693 70.3635,-13.5292 79.9536,-18.0327 80.6688,-11.0693"/>
<text text-anchor="middle" x="116" y="-24" font-family="Helvetica,sans-Serif" font-size="10.00"> failureMode</text>
</g>
<!-- Node16 -->
<g id="node12" class="node"><title>Node16</title>
<polygon fill="white" stroke="#bfbfbf" points="418.5,-111.5 418.5,-130.5 459.5,-130.5 459.5,-111.5 418.5,-111.5"/>
<text text-anchor="middle" x="439" y="-118.5" font-family="Helvetica,sans-Serif" font-size="10.00">Radix</text>
</g>
<!-- Node16&#45;&gt;Node11 -->
<g id="edge12" class="edge"><title>Node16&#45;&gt;Node11</title>
<path fill="none" stroke="#9a32cd" stroke-dasharray="5,2" d="M469.501,-123.111C512.021,-126.154 591.443,-131.838 646.332,-135.766"/>
<polygon fill="#9a32cd" stroke="#9a32cd" points="469.747,-119.62 459.523,-122.397 469.247,-126.602 469.747,-119.62"/>
<text text-anchor="middle" x="553" y="-134" font-family="Helvetica,sans-Serif" font-size="10.00"> radix</text>
</g>
<!-- Node17 -->
<g id="node13" class="node"><title>Node17</title>
<g id="a_node13"><a xlink:href="../../d4/daa/structinfra_1_1_width.html" target="_top" xlink:title="infra::Width">
<polygon fill="white" stroke="black" points="406,-187.5 406,-206.5 472,-206.5 472,-187.5 406,-187.5"/>
<text text-anchor="middle" x="439" y="-194.5" font-family="Helvetica,sans-Serif" font-size="10.00">infra::Width</text>
</a>
</g>
</g>
<!-- Node17&#45;&gt;Node11 -->
<g id="edge13" class="edge"><title>Node17&#45;&gt;Node11</title>
<path fill="none" stroke="#9a32cd" stroke-dasharray="5,2" d="M481.945,-187.995C530.771,-177.512 611.07,-160.273 660.975,-149.559"/>
<polygon fill="#9a32cd" stroke="#9a32cd" points="481.068,-184.603 472.026,-190.124 482.537,-191.447 481.068,-184.603"/>
<text text-anchor="middle" x="553" y="-180" font-family="Helvetica,sans-Serif" font-size="10.00"> width</text>
</g>
<!-- Node18 -->
<g id="node14" class="node"><title>Node18</title>
<polygon fill="white" stroke="#bfbfbf" points="204.5,-186.5 204.5,-205.5 239.5,-205.5 239.5,-186.5 204.5,-186.5"/>
<text text-anchor="middle" x="222" y="-193.5" font-family="Helvetica,sans-Serif" font-size="10.00">char</text>
</g>
<!-- Node18&#45;&gt;Node17 -->
<g id="edge14" class="edge"><title>Node18&#45;&gt;Node17</title>
<path fill="none" stroke="#9a32cd" stroke-dasharray="5,2" d="M249.688,-196.124C289.19,-196.308 363.124,-196.652 405.653,-196.85"/>
<polygon fill="#9a32cd" stroke="#9a32cd" points="249.53,-192.623 239.514,-196.077 249.497,-199.623 249.53,-192.623"/>
<text text-anchor="middle" x="325" y="-200" font-family="Helvetica,sans-Serif" font-size="10.00"> padding</text>
</g>
<!-- Node19 -->
<g id="node15" class="node"><title>Node19</title>
<polygon fill="white" stroke="#bfbfbf" points="200.5,-224.5 200.5,-243.5 243.5,-243.5 243.5,-224.5 200.5,-224.5"/>
<text text-anchor="middle" x="222" y="-231.5" font-family="Helvetica,sans-Serif" font-size="10.00">size_t</text>
</g>
<!-- Node19&#45;&gt;Node17 -->
<g id="edge15" class="edge"><title>Node19&#45;&gt;Node17</title>
<path fill="none" stroke="#9a32cd" stroke-dasharray="5,2" d="M253.658,-228.724C293.978,-221.785 364.516,-209.646 405.658,-202.566"/>
<polygon fill="#9a32cd" stroke="#9a32cd" points="252.877,-225.307 243.615,-230.452 254.064,-232.205 252.877,-225.307"/>
<text text-anchor="middle" x="325" y="-222" font-family="Helvetica,sans-Serif" font-size="10.00"> width</text>
</g>
</g>
</svg>
