<?xml version="1.0" encoding="UTF-8" standalone="no"?>
<!DOCTYPE svg PUBLIC "-//W3C//DTD SVG 1.1//EN"
 "http://www.w3.org/Graphics/SVG/1.1/DTD/svg11.dtd">
<!-- Generated by graphviz version 2.38.0 (20140413.2041)
 -->
<!-- Title: infra::JsonIterator Pages: 1 -->
<svg width="260pt" height="84pt"
 viewBox="0.00 0.00 259.50 84.00" xmlns="http://www.w3.org/2000/svg" xmlns:xlink="http://www.w3.org/1999/xlink">
<g id="graph0" class="graph" transform="scale(1 1) rotate(0) translate(4 80)">
<title>infra::JsonIterator</title>
<polygon fill="white" stroke="none" points="-4,4 -4,-80 255.5,-80 255.5,4 -4,4"/>
<!-- Node0 -->
<g id="node1" class="node"><title>Node0</title>
<polygon fill="#bfbfbf" stroke="black" points="78.5,-56.5 78.5,-75.5 169.5,-75.5 169.5,-56.5 78.5,-56.5"/>
<text text-anchor="middle" x="124" y="-63.5" font-family="Helvetica,sans-Serif" font-size="10.00">infra::JsonIterator</text>
</g>
<!-- Node1 -->
<g id="node2" class="node"><title>Node1</title>
<g id="a_node2"><a xlink:href="../../d8/ddc/classinfra_1_1_json_array_iterator.html" target="_top" xlink:title="infra::JsonArrayIterator">
<polygon fill="white" stroke="black" points="0,-0.5 0,-19.5 114,-19.5 114,-0.5 0,-0.5"/>
<text text-anchor="middle" x="57" y="-7.5" font-family="Helvetica,sans-Serif" font-size="10.00">infra::JsonArrayIterator</text>
</a>
</g>
</g>
<!-- Node0&#45;&gt;Node1 -->
<g id="edge1" class="edge"><title>Node0&#45;&gt;Node1</title>
<path fill="none" stroke="#8b1a1a" d="M105.165,-49.8197C93.1616,-40.1452 78.0283,-27.9481 67.9606,-19.8339"/>
<polygon fill="#8b1a1a" stroke="#8b1a1a" points="103.253,-52.7738 113.235,-56.324 107.646,-47.3236 103.253,-52.7738"/>
</g>
<!-- Node2 -->
<g id="node3" class="node"><title>Node2</title>
<g id="a_node3"><a xlink:href="../../dd/d2a/classinfra_1_1_json_object_iterator.html" target="_top" xlink:title="infra::JsonObjectIterator">
<polygon fill="white" stroke="black" points="132.5,-0.5 132.5,-19.5 251.5,-19.5 251.5,-0.5 132.5,-0.5"/>
<text text-anchor="middle" x="192" y="-7.5" font-family="Helvetica,sans-Serif" font-size="10.00">infra::JsonObjectIterator</text>
</a>
</g>
</g>
<!-- Node0&#45;&gt;Node2 -->
<g id="edge2" class="edge"><title>Node0&#45;&gt;Node2</title>
<path fill="none" stroke="#8b1a1a" d="M142.762,-50.1008C155,-40.3824 170.559,-28.0269 180.876,-19.8339"/>
<polygon fill="#8b1a1a" stroke="#8b1a1a" points="140.58,-47.3642 134.925,-56.324 144.933,-52.846 140.58,-47.3642"/>
</g>
</g>
</svg>
