<?xml version="1.0" encoding="UTF-8" standalone="no"?>
<!DOCTYPE svg PUBLIC "-//W3C//DTD SVG 1.1//EN"
 "http://www.w3.org/Graphics/SVG/1.1/DTD/svg11.dtd">
<!-- Generated by graphviz version 2.38.0 (20140413.2041)
 -->
<!-- Title: infra::TextOutputStream::Formatter&lt; T &gt; Pages: 1 -->
<svg width="176pt" height="117pt"
 viewBox="0.00 0.00 175.50 117.00" xmlns="http://www.w3.org/2000/svg" xmlns:xlink="http://www.w3.org/1999/xlink">
<g id="graph0" class="graph" transform="scale(1 1) rotate(0) translate(4 113)">
<title>infra::TextOutputStream::Formatter&lt; T &gt;</title>
<polygon fill="white" stroke="none" points="-4,4 -4,-113 171.5,-113 171.5,4 -4,4"/>
<!-- Node2 -->
<g id="node1" class="node"><title>Node2</title>
<polygon fill="#bfbfbf" stroke="black" points="46,-0.5 46,-30.5 166,-30.5 166,-0.5 46,-0.5"/>
<text text-anchor="start" x="54" y="-18.5" font-family="Helvetica,sans-Serif" font-size="10.00">infra::TextOutputStream</text>
<text text-anchor="middle" x="106" y="-7.5" font-family="Helvetica,sans-Serif" font-size="10.00">::Formatter&lt; T &gt;</text>
</g>
<!-- Node3 -->
<g id="node2" class="node"><title>Node3</title>
<g id="a_node2"><a xlink:href="../../d7/d35/classinfra_1_1_text_output_stream_1_1_formatter_base.html" target="_top" xlink:title="infra::TextOutputStream\l::FormatterBase">
<polygon fill="white" stroke="black" points="0,-78.5 0,-108.5 120,-108.5 120,-78.5 0,-78.5"/>
<text text-anchor="start" x="8" y="-96.5" font-family="Helvetica,sans-Serif" font-size="10.00">infra::TextOutputStream</text>
<text text-anchor="middle" x="60" y="-85.5" font-family="Helvetica,sans-Serif" font-size="10.00">::FormatterBase</text>
</a>
</g>
</g>
<!-- Node3&#45;&gt;Node2 -->
<g id="edge1" class="edge"><title>Node3&#45;&gt;Node2</title>
<path fill="none" stroke="midnightblue" d="M73.8766,-69.5735C81.5247,-56.9375 90.7791,-41.6476 97.3865,-30.7309"/>
<polygon fill="midnightblue" stroke="midnightblue" points="70.8361,-67.8376 68.6522,-78.205 76.8246,-71.4623 70.8361,-67.8376"/>
</g>
<!-- Node4 -->
<g id="node3" class="node"><title>Node4</title>
<polygon fill="white" stroke="#bfbfbf" points="138.5,-84 138.5,-103 167.5,-103 167.5,-84 138.5,-84"/>
<text text-anchor="middle" x="153" y="-91" font-family="Helvetica,sans-Serif" font-size="10.00">T</text>
</g>
<!-- Node4&#45;&gt;Node2 -->
<g id="edge2" class="edge"><title>Node4&#45;&gt;Node2</title>
<path fill="none" stroke="#9a32cd" stroke-dasharray="5,2" d="M142.161,-74.9736C133.811,-61.4715 122.421,-43.0531 114.67,-30.5198"/>
<polygon fill="#9a32cd" stroke="#9a32cd" points="139.372,-77.1177 147.609,-83.7818 145.326,-73.4359 139.372,-77.1177"/>
<text text-anchor="middle" x="145.5" y="-52" font-family="Helvetica,sans-Serif" font-size="10.00"> value</text>
</g>
</g>
</svg>
