<?xml version="1.0" encoding="UTF-8" standalone="no"?>
<!DOCTYPE svg PUBLIC "-//W3C//DTD SVG 1.1//EN"
 "http://www.w3.org/Graphics/SVG/1.1/DTD/svg11.dtd">
<!-- Generated by graphviz version 2.38.0 (20140413.2041)
 -->
<!-- Title: services::DnsResolver::TryResolveNext Pages: 1 -->
<!--zoomable 137 -->
<svg id="main" version="1.1" xmlns="http://www.w3.org/2000/svg" xmlns:xlink="http://www.w3.org/1999/xlink" xml:space="preserve" onload="init(evt)">
<style type="text/css"><![CDATA[
.edge:hover path { stroke: red; }
.edge:hover polygon { stroke: red; fill: red; }
]]></style>
<script type="text/javascript"><![CDATA[
var edges = document.getElementsByTagName('g');
if (edges && edges.length) {
  for (var i=0;i<edges.length;i++) {
    if (edges[i].id.substr(0,4)=='edge') {
      edges[i].setAttribute('class','edge');
    }
  }
}
]]></script>
        <defs>
                <circle id="rim" cx="0" cy="0" r="7"/>
                <circle id="rim2" cx="0" cy="0" r="3.5"/>
                <g id="zoomPlus">
                        <use xlink:href="#rim" fill="#404040">
                                <set attributeName="fill" to="#808080" begin="zoomplus.mouseover" end="zoomplus.mouseout"/>
                        </use>
                        <path d="M-4,0h8M0,-4v8" fill="none" stroke="white" stroke-width="1.5" pointer-events="none"/>
                </g>
                <g id="zoomMin">
                        <use xlink:href="#rim" fill="#404040">
                                <set attributeName="fill" to="#808080" begin="zoomminus.mouseover" end="zoomminus.mouseout"/>
                        </use>
                        <path d="M-4,0h8" fill="none" stroke="white" stroke-width="1.5" pointer-events="none"/>
                </g>
                <g id="dirArrow">
                        <path fill="none" stroke="white" stroke-width="1.5" d="M0,-3.0v7 M-2.5,-0.5L0,-3.0L2.5,-0.5"/>
                </g>
               <g id="resetDef">
                       <use xlink:href="#rim2" fill="#404040">
                               <set attributeName="fill" to="#808080" begin="reset.mouseover" end="reset.mouseout"/>
                       </use>
               </g>
        </defs>

<script type="text/javascript">
var viewWidth = 574;
var viewHeight = 137;
var sectionId = 'dynsection-12';
</script>
<script xlink:href="../../svgpan.js"/>
<svg id="graph" class="graph">
<g id="viewport">
<title>services::DnsResolver::TryResolveNext</title>
<polygon fill="white" stroke="none" points="-4,4 -4,-133 570,-133 570,4 -4,4"/>
<!-- Node49 -->
<g id="node1" class="node"><title>Node49</title>
<polygon fill="#bfbfbf" stroke="black" points="0,-73.5 0,-103.5 112,-103.5 112,-73.5 0,-73.5"/>
<text text-anchor="start" x="8" y="-91.5" font-family="Helvetica,sans-Serif" font-size="10.00">services::DnsResolver</text>
<text text-anchor="middle" x="56" y="-80.5" font-family="Helvetica,sans-Serif" font-size="10.00">::TryResolveNext</text>
</g>
<!-- Node50 -->
<g id="node2" class="node"><title>Node50</title>
<g id="a_node2"><a xlink:href="../../df/d62/classservices_1_1_dns_resolver.html#ab35f7fd112e1480d5ef58f9a32297fd3" target="_top" xlink:title="services::DnsResolver\l::Lookup">
<polygon fill="white" stroke="black" points="148,-98.5 148,-128.5 260,-128.5 260,-98.5 148,-98.5"/>
<text text-anchor="start" x="156" y="-116.5" font-family="Helvetica,sans-Serif" font-size="10.00">services::DnsResolver</text>
<text text-anchor="middle" x="204" y="-105.5" font-family="Helvetica,sans-Serif" font-size="10.00">::Lookup</text>
</a>
</g>
</g>
<!-- Node49&#45;&gt;Node50 -->
<g id="edge1" class="edge"><title>Node49&#45;&gt;Node50</title>
<path fill="none" stroke="midnightblue" d="M122.131,-99.6526C130.676,-101.116 139.366,-102.604 147.726,-104.035"/>
<polygon fill="midnightblue" stroke="midnightblue" points="122.644,-96.1895 112.196,-97.9514 121.462,-103.089 122.644,-96.1895"/>
</g>
<!-- Node51 -->
<g id="node3" class="node"><title>Node51</title>
<g id="a_node3"><a xlink:href="../../df/d62/classservices_1_1_dns_resolver.html#a4991eb314b3dedddf21a8aaa3168d947" target="_top" xlink:title="services::DnsResolver\l::NameLookupDone">
<polygon fill="white" stroke="black" points="148,-49.5 148,-79.5 260,-79.5 260,-49.5 148,-49.5"/>
<text text-anchor="start" x="156" y="-67.5" font-family="Helvetica,sans-Serif" font-size="10.00">services::DnsResolver</text>
<text text-anchor="middle" x="204" y="-56.5" font-family="Helvetica,sans-Serif" font-size="10.00">::NameLookupDone</text>
</a>
</g>
</g>
<!-- Node49&#45;&gt;Node51 -->
<g id="edge2" class="edge"><title>Node49&#45;&gt;Node51</title>
<path fill="none" stroke="midnightblue" d="M122.131,-77.7935C130.676,-76.3889 139.366,-74.9604 147.726,-73.5862"/>
<polygon fill="midnightblue" stroke="midnightblue" points="121.496,-74.3508 112.196,-79.4266 122.632,-81.2581 121.496,-74.3508"/>
</g>
<!-- Node52 -->
<g id="node4" class="node"><title>Node52</title>
<g id="a_node4"><a xlink:href="../../df/d62/classservices_1_1_dns_resolver.html#aa0995cae4d7407f6f9ab6c41d10b1d49" target="_top" xlink:title="services::DnsResolver\l::NameLookupCancelled">
<polygon fill="white" stroke="black" points="296,-98.5 296,-128.5 418,-128.5 418,-98.5 296,-98.5"/>
<text text-anchor="start" x="304" y="-116.5" font-family="Helvetica,sans-Serif" font-size="10.00">services::DnsResolver</text>
<text text-anchor="middle" x="357" y="-105.5" font-family="Helvetica,sans-Serif" font-size="10.00">::NameLookupCancelled</text>
</a>
</g>
</g>
<!-- Node51&#45;&gt;Node52 -->
<g id="edge3" class="edge"><title>Node51&#45;&gt;Node52</title>
<path fill="none" stroke="midnightblue" d="M261.268,-82.7591C277.194,-87.9273 294.344,-93.4924 309.617,-98.4484"/>
<polygon fill="midnightblue" stroke="midnightblue" points="262.129,-79.359 251.537,-79.6014 259.968,-86.0172 262.129,-79.359"/>
</g>
<!-- Node54 -->
<g id="node6" class="node"><title>Node54</title>
<g id="a_node6"><a xlink:href="../../df/d62/classservices_1_1_dns_resolver.html#a75eaf1c890404b1bbc3a082fb92c2014" target="_top" xlink:title="services::DnsResolver\l::NameLookupFailed">
<polygon fill="white" stroke="black" points="301,-49.5 301,-79.5 413,-79.5 413,-49.5 301,-49.5"/>
<text text-anchor="start" x="309" y="-67.5" font-family="Helvetica,sans-Serif" font-size="10.00">services::DnsResolver</text>
<text text-anchor="middle" x="357" y="-56.5" font-family="Helvetica,sans-Serif" font-size="10.00">::NameLookupFailed</text>
</a>
</g>
</g>
<!-- Node51&#45;&gt;Node54 -->
<g id="edge5" class="edge"><title>Node51&#45;&gt;Node54</title>
<path fill="none" stroke="midnightblue" d="M270.419,-64.5C280.579,-64.5 290.987,-64.5 300.89,-64.5"/>
<polygon fill="midnightblue" stroke="midnightblue" points="270.369,-61.0001 260.369,-64.5 270.369,-68.0001 270.369,-61.0001"/>
</g>
<!-- Node55 -->
<g id="node7" class="node"><title>Node55</title>
<g id="a_node7"><a xlink:href="../../df/d62/classservices_1_1_dns_resolver.html#a8c895a1aa73b0be9a72d389462be2911" target="_top" xlink:title="services::DnsResolver\l::NameLookupSuccess">
<polygon fill="white" stroke="black" points="298,-0.5 298,-30.5 416,-30.5 416,-0.5 298,-0.5"/>
<text text-anchor="start" x="306" y="-18.5" font-family="Helvetica,sans-Serif" font-size="10.00">services::DnsResolver</text>
<text text-anchor="middle" x="357" y="-7.5" font-family="Helvetica,sans-Serif" font-size="10.00">::NameLookupSuccess</text>
</a>
</g>
</g>
<!-- Node51&#45;&gt;Node55 -->
<g id="edge6" class="edge"><title>Node51&#45;&gt;Node55</title>
<path fill="none" stroke="midnightblue" d="M261.268,-46.2409C277.194,-41.0727 294.344,-35.5076 309.617,-30.5516"/>
<polygon fill="midnightblue" stroke="midnightblue" points="259.968,-42.9828 251.537,-49.3986 262.129,-49.641 259.968,-42.9828"/>
</g>
<!-- Node53 -->
<g id="node5" class="node"><title>Node53</title>
<g id="a_node5"><a xlink:href="../../df/d62/classservices_1_1_dns_resolver.html#a1b8b71bf25c95f1c66dabb50b0485f96" target="_top" xlink:title="services::DnsResolver\l::CancelLookup">
<polygon fill="white" stroke="black" points="454,-98.5 454,-128.5 566,-128.5 566,-98.5 454,-98.5"/>
<text text-anchor="start" x="462" y="-116.5" font-family="Helvetica,sans-Serif" font-size="10.00">services::DnsResolver</text>
<text text-anchor="middle" x="510" y="-105.5" font-family="Helvetica,sans-Serif" font-size="10.00">::CancelLookup</text>
</a>
</g>
</g>
<!-- Node52&#45;&gt;Node53 -->
<g id="edge4" class="edge"><title>Node52&#45;&gt;Node53</title>
<path fill="none" stroke="midnightblue" d="M428.203,-113.5C436.859,-113.5 445.608,-113.5 453.992,-113.5"/>
<polygon fill="midnightblue" stroke="midnightblue" points="428.113,-110 418.113,-113.5 428.113,-117 428.113,-110"/>
</g>
</g>
</svg>
        <g id="navigator" transform="translate(0 0)" fill="#404254">
                <rect fill="#f2f5e9" fill-opacity="0.5" stroke="#606060" stroke-width=".5" x="0" y="0" width="60" height="60"/>
                <use id="zoomplus" xlink:href="#zoomPlus" x="17" y="9" onmousedown="handleZoom(evt,'in')"/>
                <use id="zoomminus" xlink:href="#zoomMin" x="42" y="9" onmousedown="handleZoom(evt,'out')"/>
                <use id="reset" xlink:href="#resetDef" x="30" y="36" onmousedown="handleReset()"/>
                <g id="arrowUp" xlink:href="#dirArrow" transform="translate(30 24)" onmousedown="handlePan(0,-1)">
                  <use xlink:href="#rim" fill="#404040">
                        <set attributeName="fill" to="#808080" begin="arrowUp.mouseover" end="arrowUp.mouseout"/>
                  </use>
                  <path fill="none" stroke="white" stroke-width="1.5" d="M0,-3.0v7 M-2.5,-0.5L0,-3.0L2.5,-0.5"/>
                </g>
                <g id="arrowRight" xlink:href="#dirArrow" transform="rotate(90) translate(36 -43)" onmousedown="handlePan(1,0)">
                  <use xlink:href="#rim" fill="#404040">
                        <set attributeName="fill" to="#808080" begin="arrowRight.mouseover" end="arrowRight.mouseout"/>
                  </use>
                  <path fill="none" stroke="white" stroke-width="1.5" d="M0,-3.0v7 M-2.5,-0.5L0,-3.0L2.5,-0.5"/>
                </g>
                <g id="arrowDown" xlink:href="#dirArrow" transform="rotate(180) translate(-30 -48)" onmousedown="handlePan(0,1)">
                  <use xlink:href="#rim" fill="#404040">
                        <set attributeName="fill" to="#808080" begin="arrowDown.mouseover" end="arrowDown.mouseout"/>
                  </use>
                  <path fill="none" stroke="white" stroke-width="1.5" d="M0,-3.0v7 M-2.5,-0.5L0,-3.0L2.5,-0.5"/>
                </g>
                <g id="arrowLeft" xlink:href="#dirArrow" transform="rotate(270) translate(-36 17)" onmousedown="handlePan(-1,0)">
                  <use xlink:href="#rim" fill="#404040">
                        <set attributeName="fill" to="#808080" begin="arrowLeft.mouseover" end="arrowLeft.mouseout"/>
                  </use>
                  <path fill="none" stroke="white" stroke-width="1.5" d="M0,-3.0v7 M-2.5,-0.5L0,-3.0L2.5,-0.5"/>
                </g>
        </g>
        <svg viewBox="0 0 15 15" width="100%" height="30px" preserveAspectRatio="xMaxYMin meet">
         <g id="arrow_out" transform="scale(0.3 0.3)">
          <a xlink:href="classservices_1_1_dns_resolver_a6ec127250fccdceecaf17aca6319b9c1_icgraph_org.svg" target="_base">
           <rect id="button" ry="5" rx="5" y="6" x="6" height="38" width="38"
                fill="#f2f5e9" fill-opacity="0.5" stroke="#606060" stroke-width="1.0"/>
           <path id="arrow"
             d="M 11.500037,31.436501 C 11.940474,20.09759 22.043105,11.32322 32.158766,21.979434 L 37.068811,17.246167 C 37.068811,17.246167 37.088388,32 37.088388,32 L 22.160133,31.978069 C 22.160133,31.978069 26.997745,27.140456 26.997745,27.140456 C 18.528582,18.264221 13.291696,25.230495 11.500037,31.436501 z"
             style="fill:#404040;"/>
          </a>
         </g>
        </svg>
</svg>
