<?xml version="1.0" encoding="UTF-8" standalone="no"?>
<!DOCTYPE svg PUBLIC "-//W3C//DTD SVG 1.1//EN"
 "http://www.w3.org/Graphics/SVG/1.1/DTD/svg11.dtd">
<!-- Generated by graphviz version 2.38.0 (20140413.2041)
 -->
<!-- Title: services::DnsResolver::NameLookupDone Pages: 1 -->
<svg width="416pt" height="39pt"
 viewBox="0.00 0.00 416.00 39.00" xmlns="http://www.w3.org/2000/svg" xmlns:xlink="http://www.w3.org/1999/xlink">
<g id="graph0" class="graph" transform="scale(1 1) rotate(0) translate(4 35)">
<title>services::DnsResolver::NameLookupDone</title>
<polygon fill="white" stroke="none" points="-4,4 -4,-35 412,-35 412,4 -4,4"/>
<!-- Node18 -->
<g id="node1" class="node"><title>Node18</title>
<polygon fill="#bfbfbf" stroke="black" points="0,-0.5 0,-30.5 112,-30.5 112,-0.5 0,-0.5"/>
<text text-anchor="start" x="8" y="-18.5" font-family="Helvetica,sans-Serif" font-size="10.00">services::DnsResolver</text>
<text text-anchor="middle" x="56" y="-7.5" font-family="Helvetica,sans-Serif" font-size="10.00">::NameLookupDone</text>
</g>
<!-- Node19 -->
<g id="node2" class="node"><title>Node19</title>
<g id="a_node2"><a xlink:href="../../df/d62/classservices_1_1_dns_resolver.html#a6ec127250fccdceecaf17aca6319b9c1" target="_top" xlink:title="services::DnsResolver\l::TryResolveNext">
<polygon fill="white" stroke="black" points="148,-0.5 148,-30.5 260,-30.5 260,-0.5 148,-0.5"/>
<text text-anchor="start" x="156" y="-18.5" font-family="Helvetica,sans-Serif" font-size="10.00">services::DnsResolver</text>
<text text-anchor="middle" x="204" y="-7.5" font-family="Helvetica,sans-Serif" font-size="10.00">::TryResolveNext</text>
</a>
</g>
</g>
<!-- Node18&#45;&gt;Node19 -->
<g id="edge1" class="edge"><title>Node18&#45;&gt;Node19</title>
<path fill="none" stroke="midnightblue" d="M112.196,-15.5C120.463,-15.5 129.055,-15.5 137.51,-15.5"/>
<polygon fill="midnightblue" stroke="midnightblue" points="137.726,-19.0001 147.726,-15.5 137.726,-12.0001 137.726,-19.0001"/>
</g>
<!-- Node20 -->
<g id="node3" class="node"><title>Node20</title>
<g id="a_node3"><a xlink:href="../../df/d62/classservices_1_1_dns_resolver.html#a64f257b248f4d277fb838d9da105d6e6" target="_top" xlink:title="services::DnsResolver\l::Resolve">
<polygon fill="white" stroke="black" points="296,-0.5 296,-30.5 408,-30.5 408,-0.5 296,-0.5"/>
<text text-anchor="start" x="304" y="-18.5" font-family="Helvetica,sans-Serif" font-size="10.00">services::DnsResolver</text>
<text text-anchor="middle" x="352" y="-7.5" font-family="Helvetica,sans-Serif" font-size="10.00">::Resolve</text>
</a>
</g>
</g>
<!-- Node19&#45;&gt;Node20 -->
<g id="edge2" class="edge"><title>Node19&#45;&gt;Node20</title>
<path fill="none" stroke="midnightblue" d="M260.196,-15.5C268.463,-15.5 277.055,-15.5 285.51,-15.5"/>
<polygon fill="midnightblue" stroke="midnightblue" points="285.726,-19.0001 295.726,-15.5 285.726,-12.0001 285.726,-19.0001"/>
</g>
</g>
</svg>
