<?xml version="1.0" encoding="UTF-8" standalone="no"?>
<!DOCTYPE svg PUBLIC "-//W3C//DTD SVG 1.1//EN"
 "http://www.w3.org/Graphics/SVG/1.1/DTD/svg11.dtd">
<!-- Generated by graphviz version 2.38.0 (20140413.2041)
 -->
<!-- Title: services::DnsResolver::NameLookupDone Pages: 1 -->
<svg width="426pt" height="137pt"
 viewBox="0.00 0.00 426.00 137.00" xmlns="http://www.w3.org/2000/svg" xmlns:xlink="http://www.w3.org/1999/xlink">
<g id="graph0" class="graph" transform="scale(1 1) rotate(0) translate(4 133)">
<title>services::DnsResolver::NameLookupDone</title>
<polygon fill="white" stroke="none" points="-4,4 -4,-133 422,-133 422,4 -4,4"/>
<!-- Node21 -->
<g id="node1" class="node"><title>Node21</title>
<polygon fill="#bfbfbf" stroke="black" points="0,-49.5 0,-79.5 112,-79.5 112,-49.5 0,-49.5"/>
<text text-anchor="start" x="8" y="-67.5" font-family="Helvetica,sans-Serif" font-size="10.00">services::DnsResolver</text>
<text text-anchor="middle" x="56" y="-56.5" font-family="Helvetica,sans-Serif" font-size="10.00">::NameLookupDone</text>
</g>
<!-- Node22 -->
<g id="node2" class="node"><title>Node22</title>
<g id="a_node2"><a xlink:href="../../df/d62/classservices_1_1_dns_resolver.html#aa0995cae4d7407f6f9ab6c41d10b1d49" target="_top" xlink:title="services::DnsResolver\l::NameLookupCancelled">
<polygon fill="white" stroke="black" points="148,-98.5 148,-128.5 270,-128.5 270,-98.5 148,-98.5"/>
<text text-anchor="start" x="156" y="-116.5" font-family="Helvetica,sans-Serif" font-size="10.00">services::DnsResolver</text>
<text text-anchor="middle" x="209" y="-105.5" font-family="Helvetica,sans-Serif" font-size="10.00">::NameLookupCancelled</text>
</a>
</g>
</g>
<!-- Node21&#45;&gt;Node22 -->
<g id="edge1" class="edge"><title>Node21&#45;&gt;Node22</title>
<path fill="none" stroke="midnightblue" d="M113.268,-82.7591C129.194,-87.9273 146.344,-93.4924 161.617,-98.4484"/>
<polygon fill="midnightblue" stroke="midnightblue" points="114.129,-79.359 103.537,-79.6014 111.968,-86.0172 114.129,-79.359"/>
</g>
<!-- Node24 -->
<g id="node4" class="node"><title>Node24</title>
<g id="a_node4"><a xlink:href="../../df/d62/classservices_1_1_dns_resolver.html#a75eaf1c890404b1bbc3a082fb92c2014" target="_top" xlink:title="services::DnsResolver\l::NameLookupFailed">
<polygon fill="white" stroke="black" points="153,-49.5 153,-79.5 265,-79.5 265,-49.5 153,-49.5"/>
<text text-anchor="start" x="161" y="-67.5" font-family="Helvetica,sans-Serif" font-size="10.00">services::DnsResolver</text>
<text text-anchor="middle" x="209" y="-56.5" font-family="Helvetica,sans-Serif" font-size="10.00">::NameLookupFailed</text>
</a>
</g>
</g>
<!-- Node21&#45;&gt;Node24 -->
<g id="edge3" class="edge"><title>Node21&#45;&gt;Node24</title>
<path fill="none" stroke="midnightblue" d="M122.419,-64.5C132.579,-64.5 142.987,-64.5 152.89,-64.5"/>
<polygon fill="midnightblue" stroke="midnightblue" points="122.369,-61.0001 112.369,-64.5 122.369,-68.0001 122.369,-61.0001"/>
</g>
<!-- Node25 -->
<g id="node5" class="node"><title>Node25</title>
<g id="a_node5"><a xlink:href="../../df/d62/classservices_1_1_dns_resolver.html#a8c895a1aa73b0be9a72d389462be2911" target="_top" xlink:title="services::DnsResolver\l::NameLookupSuccess">
<polygon fill="white" stroke="black" points="150,-0.5 150,-30.5 268,-30.5 268,-0.5 150,-0.5"/>
<text text-anchor="start" x="158" y="-18.5" font-family="Helvetica,sans-Serif" font-size="10.00">services::DnsResolver</text>
<text text-anchor="middle" x="209" y="-7.5" font-family="Helvetica,sans-Serif" font-size="10.00">::NameLookupSuccess</text>
</a>
</g>
</g>
<!-- Node21&#45;&gt;Node25 -->
<g id="edge4" class="edge"><title>Node21&#45;&gt;Node25</title>
<path fill="none" stroke="midnightblue" d="M113.268,-46.2409C129.194,-41.0727 146.344,-35.5076 161.617,-30.5516"/>
<polygon fill="midnightblue" stroke="midnightblue" points="111.968,-42.9828 103.537,-49.3986 114.129,-49.641 111.968,-42.9828"/>
</g>
<!-- Node23 -->
<g id="node3" class="node"><title>Node23</title>
<g id="a_node3"><a xlink:href="../../df/d62/classservices_1_1_dns_resolver.html#a1b8b71bf25c95f1c66dabb50b0485f96" target="_top" xlink:title="services::DnsResolver\l::CancelLookup">
<polygon fill="white" stroke="black" points="306,-98.5 306,-128.5 418,-128.5 418,-98.5 306,-98.5"/>
<text text-anchor="start" x="314" y="-116.5" font-family="Helvetica,sans-Serif" font-size="10.00">services::DnsResolver</text>
<text text-anchor="middle" x="362" y="-105.5" font-family="Helvetica,sans-Serif" font-size="10.00">::CancelLookup</text>
</a>
</g>
</g>
<!-- Node22&#45;&gt;Node23 -->
<g id="edge2" class="edge"><title>Node22&#45;&gt;Node23</title>
<path fill="none" stroke="midnightblue" d="M280.203,-113.5C288.859,-113.5 297.608,-113.5 305.992,-113.5"/>
<polygon fill="midnightblue" stroke="midnightblue" points="280.113,-110 270.113,-113.5 280.113,-117 280.113,-110"/>
</g>
</g>
</svg>
