<?xml version="1.0" encoding="UTF-8" standalone="no"?>
<!DOCTYPE svg PUBLIC "-//W3C//DTD SVG 1.1//EN"
 "http://www.w3.org/Graphics/SVG/1.1/DTD/svg11.dtd">
<!-- Generated by graphviz version 2.38.0 (20140413.2041)
 -->
<!-- Title: services::ConnectionFactoryMbedTls Pages: 1 -->
<!--zoomable 433 -->
<svg id="main" version="1.1" xmlns="http://www.w3.org/2000/svg" xmlns:xlink="http://www.w3.org/1999/xlink" xml:space="preserve" onload="init(evt)">
<style type="text/css"><![CDATA[
.edge:hover path { stroke: red; }
.edge:hover polygon { stroke: red; fill: red; }
]]></style>
<script type="text/javascript"><![CDATA[
var edges = document.getElementsByTagName('g');
if (edges && edges.length) {
  for (var i=0;i<edges.length;i++) {
    if (edges[i].id.substr(0,4)=='edge') {
      edges[i].setAttribute('class','edge');
    }
  }
}
]]></script>
        <defs>
                <circle id="rim" cx="0" cy="0" r="7"/>
                <circle id="rim2" cx="0" cy="0" r="3.5"/>
                <g id="zoomPlus">
                        <use xlink:href="#rim" fill="#404040">
                                <set attributeName="fill" to="#808080" begin="zoomplus.mouseover" end="zoomplus.mouseout"/>
                        </use>
                        <path d="M-4,0h8M0,-4v8" fill="none" stroke="white" stroke-width="1.5" pointer-events="none"/>
                </g>
                <g id="zoomMin">
                        <use xlink:href="#rim" fill="#404040">
                                <set attributeName="fill" to="#808080" begin="zoomminus.mouseover" end="zoomminus.mouseout"/>
                        </use>
                        <path d="M-4,0h8" fill="none" stroke="white" stroke-width="1.5" pointer-events="none"/>
                </g>
                <g id="dirArrow">
                        <path fill="none" stroke="white" stroke-width="1.5" d="M0,-3.0v7 M-2.5,-0.5L0,-3.0L2.5,-0.5"/>
                </g>
               <g id="resetDef">
                       <use xlink:href="#rim2" fill="#404040">
                               <set attributeName="fill" to="#808080" begin="reset.mouseover" end="reset.mouseout"/>
                       </use>
               </g>
        </defs>

<script type="text/javascript">
var viewWidth = 1210;
var viewHeight = 433;
var sectionId = 'dynsection-1';
</script>
<script xlink:href="../../svgpan.js"/>
<svg id="graph" class="graph">
<g id="viewport">
<title>services::ConnectionFactoryMbedTls</title>
<polygon fill="white" stroke="none" points="-4,4 -4,-428.5 1206,-428.5 1206,4 -4,4"/>
<!-- Node3 -->
<g id="node1" class="node"><title>Node3</title>
<polygon fill="#bfbfbf" stroke="black" points="1062,-236.5 1062,-266.5 1202,-266.5 1202,-236.5 1062,-236.5"/>
<text text-anchor="start" x="1070" y="-254.5" font-family="Helvetica,sans-Serif" font-size="10.00">services::ConnectionFactory</text>
<text text-anchor="middle" x="1132" y="-243.5" font-family="Helvetica,sans-Serif" font-size="10.00">MbedTls</text>
</g>
<!-- Node4 -->
<g id="node2" class="node"><title>Node4</title>
<g id="a_node2"><a xlink:href="../../db/db4/classservices_1_1_connection_factory.html" target="_top" xlink:title="services::ConnectionFactory">
<polygon fill="white" stroke="black" points="759.5,-395 759.5,-414 899.5,-414 899.5,-395 759.5,-395"/>
<text text-anchor="middle" x="829.5" y="-402" font-family="Helvetica,sans-Serif" font-size="10.00">services::ConnectionFactory</text>
</a>
</g>
</g>
<!-- Node4&#45;&gt;Node3 -->
<g id="edge1" class="edge"><title>Node4&#45;&gt;Node3</title>
<path fill="none" stroke="midnightblue" d="M889.992,-415.218C935.369,-420.232 997.738,-420.046 1044,-392.5 1092.19,-363.804 1117.45,-297.014 1126.74,-266.814"/>
<polygon fill="midnightblue" stroke="midnightblue" points="890.353,-411.736 880.003,-414 889.506,-418.685 890.353,-411.736"/>
</g>
<!-- Node4&#45;&gt;Node3 -->
<g id="edge17" class="edge"><title>Node4&#45;&gt;Node3</title>
<path fill="none" stroke="#9a32cd" stroke-dasharray="5,2" d="M872.325,-392.162C887.845,-387.825 905.648,-383.132 922,-379.5 975.71,-367.569 996.509,-386.281 1044,-358.5 1082.03,-336.256 1110.33,-290.712 1123.25,-266.852"/>
<polygon fill="#9a32cd" stroke="#9a32cd" points="871.162,-388.854 862.494,-394.946 873.07,-395.589 871.162,-388.854"/>
<text text-anchor="middle" x="983" y="-382.5" font-family="Helvetica,sans-Serif" font-size="10.00"> factory</text>
</g>
<!-- Node5 -->
<g id="node3" class="node"><title>Node5</title>
<g id="a_node3"><a xlink:href="../../de/d1a/classhal_1_1_synchronous_random_data_generator.html" target="_top" xlink:title="hal::SynchronousRandomData\lGenerator">
<polygon fill="white" stroke="black" points="755,-344.5 755,-374.5 904,-374.5 904,-344.5 755,-344.5"/>
<text text-anchor="start" x="763" y="-362.5" font-family="Helvetica,sans-Serif" font-size="10.00">hal::SynchronousRandomData</text>
<text text-anchor="middle" x="829.5" y="-351.5" font-family="Helvetica,sans-Serif" font-size="10.00">Generator</text>
</a>
</g>
</g>
<!-- Node5&#45;&gt;Node3 -->
<g id="edge2" class="edge"><title>Node5&#45;&gt;Node3</title>
<path fill="none" stroke="#9a32cd" stroke-dasharray="5,2" d="M914.306,-346.618C968.825,-337.887 1031.96,-326.975 1044,-321.5 1073.12,-308.257 1100.84,-283.006 1116.87,-266.727"/>
<polygon fill="#9a32cd" stroke="#9a32cd" points="913.565,-343.192 904.241,-348.222 914.667,-350.105 913.565,-343.192"/>
<text text-anchor="middle" x="983" y="-348.5" font-family="Helvetica,sans-Serif" font-size="10.00"> randomDataGenerator</text>
</g>
<!-- Node6 -->
<g id="node4" class="node"><title>Node6</title>
<polygon fill="white" stroke="#bfbfbf" points="812,-306 812,-325 847,-325 847,-306 812,-306"/>
<text text-anchor="middle" x="829.5" y="-313" font-family="Helvetica,sans-Serif" font-size="10.00">bool</text>
</g>
<!-- Node6&#45;&gt;Node3 -->
<g id="edge3" class="edge"><title>Node6&#45;&gt;Node3</title>
<path fill="none" stroke="#9a32cd" stroke-dasharray="5,2" d="M857.278,-313.5C898.089,-310.031 978.071,-301.571 1044,-284.5 1061.67,-279.924 1080.69,-272.958 1096.43,-266.604"/>
<polygon fill="#9a32cd" stroke="#9a32cd" points="856.764,-310.03 847.081,-314.331 857.333,-317.007 856.764,-310.03"/>
<text text-anchor="middle" x="983" y="-309.5" font-family="Helvetica,sans-Serif" font-size="10.00"> needsAuthenticationDefault</text>
</g>
<!-- Node7 -->
<g id="node5" class="node"><title>Node7</title>
<g id="a_node5"><a xlink:href="../../df/d23/classservices_1_1_certificates_mbed_tls.html" target="_top" xlink:title="services::CertificatesMbedTls">
<polygon fill="white" stroke="black" points="758,-268 758,-287 901,-287 901,-268 758,-268"/>
<text text-anchor="middle" x="829.5" y="-275" font-family="Helvetica,sans-Serif" font-size="10.00">services::CertificatesMbedTls</text>
</a>
</g>
</g>
<!-- Node7&#45;&gt;Node3 -->
<g id="edge4" class="edge"><title>Node7&#45;&gt;Node3</title>
<path fill="none" stroke="#9a32cd" stroke-dasharray="5,2" d="M911.487,-270.493C958.506,-266.425 1017.11,-261.354 1061.94,-257.476"/>
<polygon fill="#9a32cd" stroke="#9a32cd" points="910.995,-267.022 901.334,-271.371 911.598,-273.996 910.995,-267.022"/>
<text text-anchor="middle" x="983" y="-272.5" font-family="Helvetica,sans-Serif" font-size="10.00"> certificates</text>
</g>
<!-- Node8 -->
<g id="node6" class="node"><title>Node8</title>
<polygon fill="white" stroke="#bfbfbf" points="426,-390 426,-409 554,-409 554,-390 426,-390"/>
<text text-anchor="middle" x="490" y="-397" font-family="Helvetica,sans-Serif" font-size="10.00">const mbedtls_x509_time</text>
</g>
<!-- Node8&#45;&gt;Node7 -->
<g id="edge5" class="edge"><title>Node8&#45;&gt;Node7</title>
<path fill="none" stroke="#9a32cd" stroke-dasharray="5,2" d="M547.063,-410.453C602.231,-417.762 685.474,-418.986 737,-373.5 763.347,-350.241 730.44,-321.639 755,-296.5 758.776,-292.635 763.228,-289.52 768.042,-287.015"/>
<polygon fill="#9a32cd" stroke="#9a32cd" points="547.498,-406.98 537.103,-409.027 546.506,-413.909 547.498,-406.98"/>
<text text-anchor="middle" x="684" y="-416.5" font-family="Helvetica,sans-Serif" font-size="10.00"> unlimitedExpirationDate</text>
</g>
<!-- Node9 -->
<g id="node7" class="node"><title>Node9</title>
<polygon fill="white" stroke="#bfbfbf" points="443,-347 443,-366 537,-366 537,-347 443,-347"/>
<text text-anchor="middle" x="490" y="-354" font-family="Helvetica,sans-Serif" font-size="10.00">mbedtls_x509_crt</text>
</g>
<!-- Node9&#45;&gt;Node7 -->
<g id="edge6" class="edge"><title>Node9&#45;&gt;Node7</title>
<path fill="none" stroke="#9a32cd" stroke-dasharray="5,2" d="M547.18,-354.286C609.787,-350.903 706.27,-342.684 737,-323.5 749.234,-315.863 743.244,-304.855 755,-296.5 760.479,-292.606 766.692,-289.51 773.129,-287.047"/>
<polygon fill="#9a32cd" stroke="#9a32cd" points="546.863,-350.797 537.056,-354.807 547.223,-357.788 546.863,-350.797"/>
<text text-anchor="middle" x="684" y="-361.5" font-family="Helvetica,sans-Serif" font-size="10.00"> caCertificates</text>
<text text-anchor="middle" x="684" y="-350.5" font-family="Helvetica,sans-Serif" font-size="10.00">ownCertificate</text>
</g>
<!-- Node10 -->
<g id="node8" class="node"><title>Node10</title>
<polygon fill="white" stroke="#bfbfbf" points="438,-309 438,-328 542,-328 542,-309 438,-309"/>
<text text-anchor="middle" x="490" y="-316" font-family="Helvetica,sans-Serif" font-size="10.00">mbedtls_pk_context</text>
</g>
<!-- Node10&#45;&gt;Node7 -->
<g id="edge7" class="edge"><title>Node10&#45;&gt;Node7</title>
<path fill="none" stroke="#9a32cd" stroke-dasharray="5,2" d="M552.074,-315.007C601.992,-311.679 674.301,-305.782 737,-296.5 753.691,-294.029 771.922,-290.43 787.687,-287.027"/>
<polygon fill="#9a32cd" stroke="#9a32cd" points="551.837,-311.515 542.086,-315.658 552.293,-318.5 551.837,-311.515"/>
<text text-anchor="middle" x="684" y="-311.5" font-family="Helvetica,sans-Serif" font-size="10.00"> privateKey</text>
</g>
<!-- Node11 -->
<g id="node9" class="node"><title>Node11</title>
<g id="a_node9"><a xlink:href="../../d8/d38/classinfra_1_1_bounded_list.html" target="_top" xlink:title="infra::BoundedList\l\&lt; services::ConnectionMbed\lTlsConnector \&gt;">
<polygon fill="white" stroke="black" points="759.5,-208 759.5,-249 899.5,-249 899.5,-208 759.5,-208"/>
<text text-anchor="start" x="767.5" y="-237" font-family="Helvetica,sans-Serif" font-size="10.00">infra::BoundedList</text>
<text text-anchor="start" x="767.5" y="-226" font-family="Helvetica,sans-Serif" font-size="10.00">&lt; services::ConnectionMbed</text>
<text text-anchor="middle" x="829.5" y="-215" font-family="Helvetica,sans-Serif" font-size="10.00">TlsConnector &gt;</text>
</a>
</g>
</g>
<!-- Node11&#45;&gt;Node3 -->
<g id="edge8" class="edge"><title>Node11&#45;&gt;Node3</title>
<path fill="none" stroke="#9a32cd" stroke-dasharray="5,2" d="M909.881,-230.301C950.132,-231.701 999.742,-234.168 1044,-238.5 1049.78,-239.065 1055.75,-239.749 1061.75,-240.504"/>
<polygon fill="#9a32cd" stroke="#9a32cd" points="909.969,-226.802 899.858,-229.968 909.736,-233.798 909.969,-226.802"/>
<text text-anchor="middle" x="983" y="-241.5" font-family="Helvetica,sans-Serif" font-size="10.00"> connectors</text>
</g>
<!-- Node12 -->
<g id="node10" class="node"><title>Node12</title>
<g id="a_node10"><a xlink:href="../../df/dad/structinfra_1_1detail_1_1_bounded_list_node.html" target="_top" xlink:title="infra::detail::BoundedList\lNode\&lt; T \&gt;">
<polygon fill="white" stroke="black" points="428,-259.5 428,-289.5 552,-289.5 552,-259.5 428,-259.5"/>
<text text-anchor="start" x="436" y="-277.5" font-family="Helvetica,sans-Serif" font-size="10.00">infra::detail::BoundedList</text>
<text text-anchor="middle" x="490" y="-266.5" font-family="Helvetica,sans-Serif" font-size="10.00">Node&lt; T &gt;</text>
</a>
</g>
</g>
<!-- Node12&#45;&gt;Node11 -->
<g id="edge9" class="edge"><title>Node12&#45;&gt;Node11</title>
<path fill="none" stroke="#9a32cd" stroke-dasharray="5,2" d="M562.318,-264.78C620.406,-256.862 701.923,-245.752 759.403,-237.918"/>
<polygon fill="#9a32cd" stroke="#9a32cd" points="561.554,-261.351 552.119,-266.17 562.5,-268.287 561.554,-261.351"/>
<text text-anchor="middle" x="684" y="-279.5" font-family="Helvetica,sans-Serif" font-size="10.00"> lastNode</text>
<text text-anchor="middle" x="684" y="-268.5" font-family="Helvetica,sans-Serif" font-size="10.00">freeList</text>
<text text-anchor="middle" x="684" y="-257.5" font-family="Helvetica,sans-Serif" font-size="10.00">firstNode</text>
</g>
<!-- Node13 -->
<g id="node11" class="node"><title>Node13</title>
<polygon fill="white" stroke="#bfbfbf" points="119,-300 119,-319 242,-319 242,-300 119,-300"/>
<text text-anchor="middle" x="180.5" y="-307" font-family="Helvetica,sans-Serif" font-size="10.00">BoundedListNode&lt; T &gt; *</text>
</g>
<!-- Node13&#45;&gt;Node12 -->
<g id="edge10" class="edge"><title>Node13&#45;&gt;Node12</title>
<path fill="none" stroke="#9a32cd" stroke-dasharray="5,2" d="M252.269,-301.445C305.344,-295.404 377.256,-287.219 427.849,-281.46"/>
<polygon fill="#9a32cd" stroke="#9a32cd" points="251.792,-297.977 242.252,-302.585 252.584,-304.932 251.792,-297.977"/>
<text text-anchor="middle" x="317.5" y="-311.5" font-family="Helvetica,sans-Serif" font-size="10.00"> previous</text>
<text text-anchor="middle" x="317.5" y="-300.5" font-family="Helvetica,sans-Serif" font-size="10.00">next</text>
</g>
<!-- Node14 -->
<g id="node12" class="node"><title>Node14</title>
<polygon fill="white" stroke="#bfbfbf" points="131,-262 131,-281 230,-281 230,-262 131,-262"/>
<text text-anchor="middle" x="180.5" y="-269" font-family="Helvetica,sans-Serif" font-size="10.00">StaticStorage&lt; T &gt;</text>
</g>
<!-- Node14&#45;&gt;Node12 -->
<g id="edge11" class="edge"><title>Node14&#45;&gt;Node12</title>
<path fill="none" stroke="#9a32cd" stroke-dasharray="5,2" d="M240.289,-272.074C294.054,-272.598 373.282,-273.371 427.794,-273.903"/>
<polygon fill="#9a32cd" stroke="#9a32cd" points="240.258,-268.573 230.224,-271.975 240.19,-275.573 240.258,-268.573"/>
<text text-anchor="middle" x="317.5" y="-276.5" font-family="Helvetica,sans-Serif" font-size="10.00"> storage</text>
</g>
<!-- Node15 -->
<g id="node13" class="node"><title>Node15</title>
<g id="a_node13"><a xlink:href="../../d0/d6d/classinfra_1_1_memory_range.html" target="_top" xlink:title="infra::MemoryRange\l\&lt; infra::StaticStorage\l\&lt; infra::detail::BoundedList\lNode\&lt; services::ConnectionMbedTlsConnector \&gt; \&gt; \&gt;">
<polygon fill="white" stroke="black" points="367,-188.5 367,-240.5 613,-240.5 613,-188.5 367,-188.5"/>
<text text-anchor="start" x="375" y="-228.5" font-family="Helvetica,sans-Serif" font-size="10.00">infra::MemoryRange</text>
<text text-anchor="start" x="375" y="-217.5" font-family="Helvetica,sans-Serif" font-size="10.00">&lt; infra::StaticStorage</text>
<text text-anchor="start" x="375" y="-206.5" font-family="Helvetica,sans-Serif" font-size="10.00">&lt; infra::detail::BoundedList</text>
<text text-anchor="middle" x="490" y="-195.5" font-family="Helvetica,sans-Serif" font-size="10.00">Node&lt; services::ConnectionMbedTlsConnector &gt; &gt; &gt;</text>
</a>
</g>
</g>
<!-- Node15&#45;&gt;Node11 -->
<g id="edge12" class="edge"><title>Node15&#45;&gt;Node11</title>
<path fill="none" stroke="#9a32cd" stroke-dasharray="5,2" d="M623.455,-219.994C669.792,-221.917 719.963,-223.998 759.078,-225.62"/>
<polygon fill="#9a32cd" stroke="#9a32cd" points="623.459,-216.492 613.322,-219.574 623.169,-223.486 623.459,-216.492"/>
<text text-anchor="middle" x="684" y="-227.5" font-family="Helvetica,sans-Serif" font-size="10.00"> storage</text>
</g>
<!-- Node16 -->
<g id="node14" class="node"><title>Node16</title>
<g id="a_node14"><a xlink:href="../../d0/d8c/classinfra_1_1_static_storage.html" target="_top" xlink:title="infra::StaticStorage\l\&lt; infra::detail::BoundedList\lNode\&lt; services::ConnectionMbedTls\lConnector \&gt; \&gt;">
<polygon fill="white" stroke="black" points="93,-188.5 93,-240.5 268,-240.5 268,-188.5 93,-188.5"/>
<text text-anchor="start" x="101" y="-228.5" font-family="Helvetica,sans-Serif" font-size="10.00">infra::StaticStorage</text>
<text text-anchor="start" x="101" y="-217.5" font-family="Helvetica,sans-Serif" font-size="10.00">&lt; infra::detail::BoundedList</text>
<text text-anchor="start" x="101" y="-206.5" font-family="Helvetica,sans-Serif" font-size="10.00">Node&lt; services::ConnectionMbedTls</text>
<text text-anchor="middle" x="180.5" y="-195.5" font-family="Helvetica,sans-Serif" font-size="10.00">Connector &gt; &gt;</text>
</a>
</g>
</g>
<!-- Node16&#45;&gt;Node15 -->
<g id="edge13" class="edge"><title>Node16&#45;&gt;Node15</title>
<path fill="none" stroke="#9a32cd" stroke-dasharray="5,2" d="M278.556,-214.5C306.546,-214.5 337.451,-214.5 366.76,-214.5"/>
<polygon fill="#9a32cd" stroke="#9a32cd" points="278.384,-211 268.384,-214.5 278.384,-218 278.384,-211"/>
<text text-anchor="middle" x="317.5" y="-228.5" font-family="Helvetica,sans-Serif" font-size="10.00"> beginElement</text>
<text text-anchor="middle" x="317.5" y="-217.5" font-family="Helvetica,sans-Serif" font-size="10.00">endElement</text>
</g>
<!-- Node17 -->
<g id="node15" class="node"><title>Node17</title>
<polygon fill="white" stroke="#bfbfbf" points="0,-205 0,-224 35,-224 35,-205 0,-205"/>
<text text-anchor="middle" x="17.5" y="-212" font-family="Helvetica,sans-Serif" font-size="10.00">type</text>
</g>
<!-- Node17&#45;&gt;Node16 -->
<g id="edge14" class="edge"><title>Node17&#45;&gt;Node16</title>
<path fill="none" stroke="#9a32cd" stroke-dasharray="5,2" d="M45.3862,-214.5C58.6905,-214.5 75.5773,-214.5 92.844,-214.5"/>
<polygon fill="#9a32cd" stroke="#9a32cd" points="45.1235,-211 35.1234,-214.5 45.1234,-218 45.1235,-211"/>
<text text-anchor="middle" x="64" y="-217.5" font-family="Helvetica,sans-Serif" font-size="10.00"> data</text>
</g>
<!-- Node18 -->
<g id="node16" class="node"><title>Node18</title>
<polygon fill="white" stroke="#bfbfbf" points="468.5,-150 468.5,-169 511.5,-169 511.5,-150 468.5,-150"/>
<text text-anchor="middle" x="490" y="-157" font-family="Helvetica,sans-Serif" font-size="10.00">size_t</text>
</g>
<!-- Node18&#45;&gt;Node11 -->
<g id="edge15" class="edge"><title>Node18&#45;&gt;Node11</title>
<path fill="none" stroke="#9a32cd" stroke-dasharray="5,2" d="M521.808,-162.006C568.778,-166.275 660.871,-176.408 737,-195.5 750.268,-198.827 764.3,-203.353 777.284,-207.985"/>
<polygon fill="#9a32cd" stroke="#9a32cd" points="521.951,-158.506 511.682,-161.114 521.337,-165.479 521.951,-158.506"/>
<text text-anchor="middle" x="684" y="-209.5" font-family="Helvetica,sans-Serif" font-size="10.00"> numAllocated</text>
<text text-anchor="middle" x="684" y="-198.5" font-family="Helvetica,sans-Serif" font-size="10.00">numInitialized</text>
</g>
<!-- Node20 -->
<g id="node18" class="node"><title>Node20</title>
<g id="a_node18"><a xlink:href="../../df/da4/classinfra_1_1_intrusive_list.html" target="_top" xlink:title="infra::IntrusiveList\l\&lt; services::ClientConnection\lObserverFactory \&gt;">
<polygon fill="white" stroke="black" points="759.5,-148 759.5,-189 899.5,-189 899.5,-148 759.5,-148"/>
<text text-anchor="start" x="767.5" y="-177" font-family="Helvetica,sans-Serif" font-size="10.00">infra::IntrusiveList</text>
<text text-anchor="start" x="767.5" y="-166" font-family="Helvetica,sans-Serif" font-size="10.00">&lt; services::ClientConnection</text>
<text text-anchor="middle" x="829.5" y="-155" font-family="Helvetica,sans-Serif" font-size="10.00">ObserverFactory &gt;</text>
</a>
</g>
</g>
<!-- Node18&#45;&gt;Node20 -->
<g id="edge23" class="edge"><title>Node18&#45;&gt;Node20</title>
<path fill="none" stroke="#9a32cd" stroke-dasharray="5,2" d="M521.859,-155.735C568.541,-150.635 659.852,-142.984 737,-150.5 744.251,-151.206 751.78,-152.221 759.266,-153.413"/>
<polygon fill="#9a32cd" stroke="#9a32cd" points="521.335,-152.272 511.791,-156.872 522.12,-159.228 521.335,-152.272"/>
<text text-anchor="middle" x="684" y="-153.5" font-family="Helvetica,sans-Serif" font-size="10.00"> numberOfElements</text>
</g>
<!-- Node19 -->
<g id="node17" class="node"><title>Node19</title>
<polygon fill="white" stroke="#bfbfbf" points="760.5,-110 760.5,-129 898.5,-129 898.5,-110 760.5,-110"/>
<text text-anchor="middle" x="829.5" y="-117" font-family="Helvetica,sans-Serif" font-size="10.00">mbedtls_ssl_cache_context</text>
</g>
<!-- Node19&#45;&gt;Node3 -->
<g id="edge16" class="edge"><title>Node19&#45;&gt;Node3</title>
<path fill="none" stroke="#9a32cd" stroke-dasharray="5,2" d="M908.458,-128.829C950.464,-136.181 1002.11,-149.093 1044,-171.5 1074.94,-188.051 1103.36,-218.185 1118.83,-236.372"/>
<polygon fill="#9a32cd" stroke="#9a32cd" points="908.993,-125.37 898.551,-127.166 907.834,-132.273 908.993,-125.37"/>
<text text-anchor="middle" x="983" y="-174.5" font-family="Helvetica,sans-Serif" font-size="10.00"> serverCache</text>
</g>
<!-- Node20&#45;&gt;Node3 -->
<g id="edge18" class="edge"><title>Node20&#45;&gt;Node3</title>
<path fill="none" stroke="#9a32cd" stroke-dasharray="5,2" d="M909.359,-183.062C949.994,-191.361 1000.1,-202.833 1044,-216.5 1061.88,-222.065 1081.25,-229.694 1097.16,-236.408"/>
<polygon fill="#9a32cd" stroke="#9a32cd" points="910.004,-179.622 899.51,-181.075 908.62,-186.484 910.004,-179.622"/>
<text text-anchor="middle" x="983" y="-219.5" font-family="Helvetica,sans-Serif" font-size="10.00"> waitingConnects</text>
</g>
<!-- Node21 -->
<g id="node19" class="node"><title>Node21</title>
<g id="a_node19"><a xlink:href="../../d7/da5/classinfra_1_1detail_1_1_intrusive_list_node.html" target="_top" xlink:title="infra::detail::Intrusive\lListNode\&lt; services::ClientConnection\lObserverFactory \&gt;">
<polygon fill="white" stroke="black" points="400.5,-50 400.5,-91 579.5,-91 579.5,-50 400.5,-50"/>
<text text-anchor="start" x="408.5" y="-79" font-family="Helvetica,sans-Serif" font-size="10.00">infra::detail::Intrusive</text>
<text text-anchor="start" x="408.5" y="-68" font-family="Helvetica,sans-Serif" font-size="10.00">ListNode&lt; services::ClientConnection</text>
<text text-anchor="middle" x="490" y="-57" font-family="Helvetica,sans-Serif" font-size="10.00">ObserverFactory &gt;</text>
</a>
</g>
</g>
<!-- Node21&#45;&gt;Node20 -->
<g id="edge19" class="edge"><title>Node21&#45;&gt;Node20</title>
<path fill="none" stroke="#9a32cd" stroke-dasharray="5,2" d="M589.548,-92.2876C634.845,-103.079 689.046,-117.093 737,-132.5 750.977,-136.991 765.89,-142.527 779.531,-147.899"/>
<polygon fill="#9a32cd" stroke="#9a32cd" points="590.264,-88.8605 579.727,-89.965 588.653,-95.6725 590.264,-88.8605"/>
<text text-anchor="middle" x="684" y="-135.5" font-family="Helvetica,sans-Serif" font-size="10.00"> endNode</text>
</g>
<!-- Node21&#45;&gt;Node21 -->
<g id="edge20" class="edge"><title>Node21&#45;&gt;Node21</title>
<path fill="none" stroke="#9a32cd" stroke-dasharray="5,2" d="M460.408,-101.356C464.809,-106.197 474.673,-109.5 490,-109.5 514.523,-109.5 525.061,-101.043 521.612,-91.3644"/>
<polygon fill="#9a32cd" stroke="#9a32cd" points="463.801,-100.472 458.388,-91.3644 456.94,-101.86 463.801,-100.472"/>
<text text-anchor="middle" x="490" y="-123.5" font-family="Helvetica,sans-Serif" font-size="10.00"> previous</text>
<text text-anchor="middle" x="490" y="-112.5" font-family="Helvetica,sans-Serif" font-size="10.00">next</text>
</g>
<!-- Node22 -->
<g id="node20" class="node"><title>Node22</title>
<g id="a_node20"><a xlink:href="../../d7/da5/classinfra_1_1detail_1_1_intrusive_list_node.html" target="_top" xlink:title="infra::detail::Intrusive\lListNode\&lt; T \&gt;">
<polygon fill="white" stroke="black" points="437.5,-0.5 437.5,-30.5 542.5,-30.5 542.5,-0.5 437.5,-0.5"/>
<text text-anchor="start" x="445.5" y="-18.5" font-family="Helvetica,sans-Serif" font-size="10.00">infra::detail::Intrusive</text>
<text text-anchor="middle" x="490" y="-7.5" font-family="Helvetica,sans-Serif" font-size="10.00">ListNode&lt; T &gt;</text>
</a>
</g>
</g>
<!-- Node22&#45;&gt;Node20 -->
<g id="edge21" class="edge"><title>Node22&#45;&gt;Node20</title>
<path fill="none" stroke="#9a32cd" stroke-dasharray="5,2" d="M552.536,-25.9406C572.049,-29.8275 593.589,-34.7238 613,-40.5 669.797,-57.4009 695.61,-47.0926 737,-89.5 753.205,-106.103 738.888,-121.806 755,-138.5 758.35,-141.971 762.158,-145.054 766.236,-147.789"/>
<polygon fill="#9a32cd" stroke="#9a32cd" points="553.023,-22.4699 542.54,-24.0007 551.69,-29.3417 553.023,-22.4699"/>
<text text-anchor="middle" x="684" y="-92.5" font-family="Helvetica,sans-Serif" font-size="10.00"> beginNode</text>
</g>
<!-- Node23 -->
<g id="node21" class="node"><title>Node23</title>
<polygon fill="white" stroke="#bfbfbf" points="132.5,-0.5 132.5,-30.5 228.5,-30.5 228.5,-0.5 132.5,-0.5"/>
<text text-anchor="start" x="140.5" y="-18.5" font-family="Helvetica,sans-Serif" font-size="10.00">IntrusiveListNode&lt;</text>
<text text-anchor="middle" x="180.5" y="-7.5" font-family="Helvetica,sans-Serif" font-size="10.00"> T &gt; *</text>
</g>
<!-- Node23&#45;&gt;Node22 -->
<g id="edge22" class="edge"><title>Node23&#45;&gt;Node22</title>
<path fill="none" stroke="#9a32cd" stroke-dasharray="5,2" d="M238.819,-15.5C295.804,-15.5 382.429,-15.5 437.345,-15.5"/>
<polygon fill="#9a32cd" stroke="#9a32cd" points="238.537,-12.0001 228.537,-15.5 238.537,-19.0001 238.537,-12.0001"/>
<text text-anchor="middle" x="317.5" y="-29.5" font-family="Helvetica,sans-Serif" font-size="10.00"> previous</text>
<text text-anchor="middle" x="317.5" y="-18.5" font-family="Helvetica,sans-Serif" font-size="10.00">next</text>
</g>
<!-- Node24 -->
<g id="node22" class="node"><title>Node24</title>
<g id="a_node22"><a xlink:href="../../d9/d7e/classinfra_1_1_shared_object_allocator.html" target="_top" xlink:title="infra::SharedObjectAllocator\l\&lt; T, ConstructionArgs \&gt;">
<polygon fill="white" stroke="black" points="760.5,-60.5 760.5,-90.5 898.5,-90.5 898.5,-60.5 760.5,-60.5"/>
<text text-anchor="start" x="768.5" y="-78.5" font-family="Helvetica,sans-Serif" font-size="10.00">infra::SharedObjectAllocator</text>
<text text-anchor="middle" x="829.5" y="-67.5" font-family="Helvetica,sans-Serif" font-size="10.00">&lt; T, ConstructionArgs &gt;</text>
</a>
</g>
</g>
<!-- Node24&#45;&gt;Node3 -->
<g id="edge24" class="edge"><title>Node24&#45;&gt;Node3</title>
<path fill="none" stroke="#9a32cd" stroke-dasharray="5,2" d="M908.982,-71.1221C952.074,-72.3858 1004.6,-80.2737 1044,-106.5 1091.65,-138.22 1117.19,-205.748 1126.65,-236.128"/>
<polygon fill="#9a32cd" stroke="#9a32cd" points="908.872,-67.6197 898.811,-70.9398 908.747,-74.6185 908.872,-67.6197"/>
<text text-anchor="middle" x="983" y="-120.5" font-family="Helvetica,sans-Serif" font-size="10.00"> connectionAllocator</text>
<text text-anchor="middle" x="983" y="-109.5" font-family="Helvetica,sans-Serif" font-size="10.00">listenerAllocator</text>
</g>
<!-- Node25 -->
<g id="node23" class="node"><title>Node25</title>
<polygon fill="white" stroke="#bfbfbf" points="775.5,-22 775.5,-41 883.5,-41 883.5,-22 775.5,-22"/>
<text text-anchor="middle" x="829.5" y="-29" font-family="Helvetica,sans-Serif" font-size="10.00">mbedtls_ssl_session</text>
</g>
<!-- Node25&#45;&gt;Node3 -->
<g id="edge25" class="edge"><title>Node25&#45;&gt;Node3</title>
<path fill="none" stroke="#9a32cd" stroke-dasharray="5,2" d="M893.731,-23.6925C939.69,-21.4361 1001.11,-25.8828 1044,-57.5 1104.61,-102.179 1123.87,-198.843 1129.19,-236.269"/>
<polygon fill="#9a32cd" stroke="#9a32cd" points="893.352,-20.2091 883.583,-24.3107 893.777,-27.1961 893.352,-20.2091"/>
<text text-anchor="middle" x="983" y="-60.5" font-family="Helvetica,sans-Serif" font-size="10.00"> clientSession</text>
</g>
</g>
</svg>
        <g id="navigator" transform="translate(0 0)" fill="#404254">
                <rect fill="#f2f5e9" fill-opacity="0.5" stroke="#606060" stroke-width=".5" x="0" y="0" width="60" height="60"/>
                <use id="zoomplus" xlink:href="#zoomPlus" x="17" y="9" onmousedown="handleZoom(evt,'in')"/>
                <use id="zoomminus" xlink:href="#zoomMin" x="42" y="9" onmousedown="handleZoom(evt,'out')"/>
                <use id="reset" xlink:href="#resetDef" x="30" y="36" onmousedown="handleReset()"/>
                <g id="arrowUp" xlink:href="#dirArrow" transform="translate(30 24)" onmousedown="handlePan(0,-1)">
                  <use xlink:href="#rim" fill="#404040">
                        <set attributeName="fill" to="#808080" begin="arrowUp.mouseover" end="arrowUp.mouseout"/>
                  </use>
                  <path fill="none" stroke="white" stroke-width="1.5" d="M0,-3.0v7 M-2.5,-0.5L0,-3.0L2.5,-0.5"/>
                </g>
                <g id="arrowRight" xlink:href="#dirArrow" transform="rotate(90) translate(36 -43)" onmousedown="handlePan(1,0)">
                  <use xlink:href="#rim" fill="#404040">
                        <set attributeName="fill" to="#808080" begin="arrowRight.mouseover" end="arrowRight.mouseout"/>
                  </use>
                  <path fill="none" stroke="white" stroke-width="1.5" d="M0,-3.0v7 M-2.5,-0.5L0,-3.0L2.5,-0.5"/>
                </g>
                <g id="arrowDown" xlink:href="#dirArrow" transform="rotate(180) translate(-30 -48)" onmousedown="handlePan(0,1)">
                  <use xlink:href="#rim" fill="#404040">
                        <set attributeName="fill" to="#808080" begin="arrowDown.mouseover" end="arrowDown.mouseout"/>
                  </use>
                  <path fill="none" stroke="white" stroke-width="1.5" d="M0,-3.0v7 M-2.5,-0.5L0,-3.0L2.5,-0.5"/>
                </g>
                <g id="arrowLeft" xlink:href="#dirArrow" transform="rotate(270) translate(-36 17)" onmousedown="handlePan(-1,0)">
                  <use xlink:href="#rim" fill="#404040">
                        <set attributeName="fill" to="#808080" begin="arrowLeft.mouseover" end="arrowLeft.mouseout"/>
                  </use>
                  <path fill="none" stroke="white" stroke-width="1.5" d="M0,-3.0v7 M-2.5,-0.5L0,-3.0L2.5,-0.5"/>
                </g>
        </g>
        <svg viewBox="0 0 15 15" width="100%" height="30px" preserveAspectRatio="xMaxYMin meet">
         <g id="arrow_out" transform="scale(0.3 0.3)">
          <a xlink:href="classservices_1_1_connection_factory_mbed_tls__coll__graph_org.svg" target="_base">
           <rect id="button" ry="5" rx="5" y="6" x="6" height="38" width="38"
                fill="#f2f5e9" fill-opacity="0.5" stroke="#606060" stroke-width="1.0"/>
           <path id="arrow"
             d="M 11.500037,31.436501 C 11.940474,20.09759 22.043105,11.32322 32.158766,21.979434 L 37.068811,17.246167 C 37.068811,17.246167 37.088388,32 37.088388,32 L 22.160133,31.978069 C 22.160133,31.978069 26.997745,27.140456 26.997745,27.140456 C 18.528582,18.264221 13.291696,25.230495 11.500037,31.436501 z"
             style="fill:#404040;"/>
          </a>
         </g>
        </svg>
</svg>
