<?xml version="1.0" encoding="UTF-8" standalone="no"?>
<!DOCTYPE svg PUBLIC "-//W3C//DTD SVG 1.1//EN"
 "http://www.w3.org/Graphics/SVG/1.1/DTD/svg11.dtd">
<!-- Generated by graphviz version 2.38.0 (20140413.2041)
 -->
<!-- Title: infra::StreamWriter::Insert Pages: 1 -->
<svg width="584pt" height="341pt"
 viewBox="0.00 0.00 584.00 341.00" xmlns="http://www.w3.org/2000/svg" xmlns:xlink="http://www.w3.org/1999/xlink">
<g id="graph0" class="graph" transform="scale(1 1) rotate(0) translate(4 337)">
<title>infra::StreamWriter::Insert</title>
<polygon fill="white" stroke="none" points="-4,4 -4,-337 580,-337 580,4 -4,4"/>
<!-- Node47 -->
<g id="node1" class="node"><title>Node47</title>
<polygon fill="#bfbfbf" stroke="black" points="0,-141.5 0,-171.5 98,-171.5 98,-141.5 0,-141.5"/>
<text text-anchor="start" x="8" y="-159.5" font-family="Helvetica,sans-Serif" font-size="10.00">infra::StreamWriter</text>
<text text-anchor="middle" x="49" y="-148.5" font-family="Helvetica,sans-Serif" font-size="10.00">::Insert</text>
</g>
<!-- Node48 -->
<g id="node2" class="node"><title>Node48</title>
<g id="a_node2"><a xlink:href="../../de/dad/classinfra_1_1_text_output_stream.html#a48c069cf897f332dee1d405702870bc9" target="_top" xlink:title="infra::TextOutputStream\l::FormatArgs">
<polygon fill="white" stroke="black" points="139,-302.5 139,-332.5 259,-332.5 259,-302.5 139,-302.5"/>
<text text-anchor="start" x="147" y="-320.5" font-family="Helvetica,sans-Serif" font-size="10.00">infra::TextOutputStream</text>
<text text-anchor="middle" x="199" y="-309.5" font-family="Helvetica,sans-Serif" font-size="10.00">::FormatArgs</text>
</a>
</g>
</g>
<!-- Node47&#45;&gt;Node48 -->
<g id="edge1" class="edge"><title>Node47&#45;&gt;Node48</title>
<path fill="none" stroke="midnightblue" d="M59.1312,-180.943C71.6423,-211.317 96.8754,-262.874 134,-293.5 138.119,-296.898 142.768,-299.843 147.632,-302.39"/>
<polygon fill="midnightblue" stroke="midnightblue" points="62.3283,-179.511 55.3773,-171.515 55.8249,-182.1 62.3283,-179.511"/>
</g>
<!-- Node51 -->
<g id="node5" class="node"><title>Node51</title>
<g id="a_node5"><a xlink:href="../../dd/d12/classinfra_1_1_limited_stream_writer.html#a3969db62a50522b586459836d485d572" target="_top" xlink:title="infra::LimitedStreamWriter\l::Insert">
<polygon fill="white" stroke="black" points="134,-253.5 134,-283.5 264,-283.5 264,-253.5 134,-253.5"/>
<text text-anchor="start" x="142" y="-271.5" font-family="Helvetica,sans-Serif" font-size="10.00">infra::LimitedStreamWriter</text>
<text text-anchor="middle" x="199" y="-260.5" font-family="Helvetica,sans-Serif" font-size="10.00">::Insert</text>
</a>
</g>
</g>
<!-- Node47&#45;&gt;Node51 -->
<g id="edge4" class="edge"><title>Node47&#45;&gt;Node51</title>
<path fill="none" stroke="midnightblue" d="M67.1949,-179.676C82.7606,-199.258 107.288,-226.857 134,-244.5 139.05,-247.835 144.628,-250.794 150.323,-253.395"/>
<polygon fill="midnightblue" stroke="midnightblue" points="69.7946,-177.318 60.8953,-171.568 64.2669,-181.612 69.7946,-177.318"/>
</g>
<!-- Node52 -->
<g id="node6" class="node"><title>Node52</title>
<g id="a_node6"><a xlink:href="../../d6/d7d/classinfra_1_1_data_output_stream.html#ad3665d4bdb9335eac620f85b6554a384" target="_top" xlink:title="infra::DataOutputStream\l::operator\&lt;\&lt;">
<polygon fill="white" stroke="black" points="138,-204.5 138,-234.5 260,-234.5 260,-204.5 138,-204.5"/>
<text text-anchor="start" x="146" y="-222.5" font-family="Helvetica,sans-Serif" font-size="10.00">infra::DataOutputStream</text>
<text text-anchor="middle" x="199" y="-211.5" font-family="Helvetica,sans-Serif" font-size="10.00">::operator&lt;&lt;</text>
</a>
</g>
</g>
<!-- Node47&#45;&gt;Node52 -->
<g id="edge5" class="edge"><title>Node47&#45;&gt;Node52</title>
<path fill="none" stroke="midnightblue" d="M94.8016,-175.571C116.528,-184.819 142.253,-195.77 162.583,-204.424"/>
<polygon fill="midnightblue" stroke="midnightblue" points="96.0216,-172.286 85.4497,-171.59 93.2799,-178.727 96.0216,-172.286"/>
</g>
<!-- Node53 -->
<g id="node7" class="node"><title>Node53</title>
<g id="a_node7"><a xlink:href="../../de/dad/classinfra_1_1_text_output_stream.html#ad9a08dad6ccb61560ee3fe4988c46b14" target="_top" xlink:title="infra::TextOutputStream\l::operator\&lt;\&lt;">
<polygon fill="white" stroke="black" points="300,-152.5 300,-182.5 420,-182.5 420,-152.5 300,-152.5"/>
<text text-anchor="start" x="308" y="-170.5" font-family="Helvetica,sans-Serif" font-size="10.00">infra::TextOutputStream</text>
<text text-anchor="middle" x="360" y="-159.5" font-family="Helvetica,sans-Serif" font-size="10.00">::operator&lt;&lt;</text>
</a>
</g>
</g>
<!-- Node47&#45;&gt;Node53 -->
<g id="edge6" class="edge"><title>Node47&#45;&gt;Node53</title>
<path fill="none" stroke="midnightblue" d="M108.54,-158.584C163.392,-160.537 244.959,-163.44 299.97,-165.399"/>
<polygon fill="midnightblue" stroke="midnightblue" points="108.399,-155.077 98.2813,-158.219 108.15,-162.072 108.399,-155.077"/>
</g>
<!-- Node54 -->
<g id="node8" class="node"><title>Node54</title>
<g id="a_node8"><a xlink:href="../../de/dad/classinfra_1_1_text_output_stream.html#a9b627105e14075f43bb5fc5d4ad68471" target="_top" xlink:title="infra::TextOutputStream\l::OutputAsBinary">
<polygon fill="white" stroke="black" points="300,-98.5 300,-128.5 420,-128.5 420,-98.5 300,-98.5"/>
<text text-anchor="start" x="308" y="-116.5" font-family="Helvetica,sans-Serif" font-size="10.00">infra::TextOutputStream</text>
<text text-anchor="middle" x="360" y="-105.5" font-family="Helvetica,sans-Serif" font-size="10.00">::OutputAsBinary</text>
</a>
</g>
</g>
<!-- Node47&#45;&gt;Node54 -->
<g id="edge7" class="edge"><title>Node47&#45;&gt;Node54</title>
<path fill="none" stroke="midnightblue" d="M108.198,-148.401C163.052,-140.768 244.845,-129.386 299.97,-121.715"/>
<polygon fill="midnightblue" stroke="midnightblue" points="107.703,-144.936 98.2813,-149.781 108.668,-151.869 107.703,-144.936"/>
</g>
<!-- Node56 -->
<g id="node10" class="node"><title>Node56</title>
<g id="a_node10"><a xlink:href="../../de/dad/classinfra_1_1_text_output_stream.html#a55298d6ae079533b0ba5b3f39864e53d" target="_top" xlink:title="infra::TextOutputStream\l::OutputAsDecimal">
<polygon fill="white" stroke="black" points="300,-49.5 300,-79.5 420,-79.5 420,-49.5 300,-49.5"/>
<text text-anchor="start" x="308" y="-67.5" font-family="Helvetica,sans-Serif" font-size="10.00">infra::TextOutputStream</text>
<text text-anchor="middle" x="360" y="-56.5" font-family="Helvetica,sans-Serif" font-size="10.00">::OutputAsDecimal</text>
</a>
</g>
</g>
<!-- Node47&#45;&gt;Node56 -->
<g id="edge9" class="edge"><title>Node47&#45;&gt;Node56</title>
<path fill="none" stroke="midnightblue" d="M64.6958,-132.661C79.3121,-111.419 103.873,-81.7093 134,-68.5 186.597,-45.4384 252.978,-47.5427 299.971,-53.5155"/>
<polygon fill="midnightblue" stroke="midnightblue" points="61.6607,-130.905 59.0533,-141.174 67.4954,-134.773 61.6607,-130.905"/>
</g>
<!-- Node57 -->
<g id="node11" class="node"><title>Node57</title>
<g id="a_node11"><a xlink:href="../../de/dad/classinfra_1_1_text_output_stream.html#aa1bfa573ef214b73cb1e821d7a3d17e2" target="_top" xlink:title="infra::TextOutputStream\l::OutputAsHexadecimal">
<polygon fill="white" stroke="black" points="300,-0.5 300,-30.5 420,-30.5 420,-0.5 300,-0.5"/>
<text text-anchor="start" x="308" y="-18.5" font-family="Helvetica,sans-Serif" font-size="10.00">infra::TextOutputStream</text>
<text text-anchor="middle" x="360" y="-7.5" font-family="Helvetica,sans-Serif" font-size="10.00">::OutputAsHexadecimal</text>
</a>
</g>
</g>
<!-- Node47&#45;&gt;Node57 -->
<g id="edge11" class="edge"><title>Node47&#45;&gt;Node57</title>
<path fill="none" stroke="midnightblue" d="M61.3292,-132.219C74.7745,-106.357 99.762,-66.4582 134,-46.5 184.418,-17.1101 251.742,-11.3412 299.573,-11.7044"/>
<polygon fill="midnightblue" stroke="midnightblue" points="58.0935,-130.864 56.7461,-141.373 64.3528,-133.998 58.0935,-130.864"/>
</g>
<!-- Node58 -->
<g id="node12" class="node"><title>Node58</title>
<g id="a_node12"><a xlink:href="../../de/dad/classinfra_1_1_text_output_stream.html#a85526809e527b195bc5cee71e475cebc" target="_top" xlink:title="infra::TextOutputStream\l::OutputOptionalPadding">
<polygon fill="white" stroke="black" points="137.5,-78.5 137.5,-108.5 260.5,-108.5 260.5,-78.5 137.5,-78.5"/>
<text text-anchor="start" x="145.5" y="-96.5" font-family="Helvetica,sans-Serif" font-size="10.00">infra::TextOutputStream</text>
<text text-anchor="middle" x="199" y="-85.5" font-family="Helvetica,sans-Serif" font-size="10.00">::OutputOptionalPadding</text>
</a>
</g>
</g>
<!-- Node47&#45;&gt;Node58 -->
<g id="edge13" class="edge"><title>Node47&#45;&gt;Node58</title>
<path fill="none" stroke="midnightblue" d="M94.8016,-137.429C116.528,-128.181 142.253,-117.23 162.583,-108.576"/>
<polygon fill="midnightblue" stroke="midnightblue" points="93.2799,-134.273 85.4497,-141.41 96.0216,-140.714 93.2799,-134.273"/>
</g>
<!-- Node49 -->
<g id="node3" class="node"><title>Node49</title>
<g id="a_node3"><a xlink:href="../../de/dad/classinfra_1_1_text_output_stream.html#af330288c320a9be573f622c3461bb13e" target="_top" xlink:title="infra::TextOutputStream\l::FormatHelper">
<polygon fill="white" stroke="black" points="300,-302.5 300,-332.5 420,-332.5 420,-302.5 300,-302.5"/>
<text text-anchor="start" x="308" y="-320.5" font-family="Helvetica,sans-Serif" font-size="10.00">infra::TextOutputStream</text>
<text text-anchor="middle" x="360" y="-309.5" font-family="Helvetica,sans-Serif" font-size="10.00">::FormatHelper</text>
</a>
</g>
</g>
<!-- Node48&#45;&gt;Node49 -->
<g id="edge2" class="edge"><title>Node48&#45;&gt;Node49</title>
<path fill="none" stroke="midnightblue" d="M269.265,-317.5C279.424,-317.5 289.81,-317.5 299.745,-317.5"/>
<polygon fill="midnightblue" stroke="midnightblue" points="269.206,-314 259.206,-317.5 269.206,-321 269.206,-314"/>
</g>
<!-- Node50 -->
<g id="node4" class="node"><title>Node50</title>
<g id="a_node4"><a xlink:href="../../de/dad/classinfra_1_1_text_output_stream.html#a0cc7fbf3249a462792fed4557b33c4b2" target="_top" xlink:title="infra::TextOutputStream\l::Format">
<polygon fill="white" stroke="black" points="456,-302.5 456,-332.5 576,-332.5 576,-302.5 456,-302.5"/>
<text text-anchor="start" x="464" y="-320.5" font-family="Helvetica,sans-Serif" font-size="10.00">infra::TextOutputStream</text>
<text text-anchor="middle" x="516" y="-309.5" font-family="Helvetica,sans-Serif" font-size="10.00">::Format</text>
</a>
</g>
</g>
<!-- Node49&#45;&gt;Node50 -->
<g id="edge3" class="edge"><title>Node49&#45;&gt;Node50</title>
<path fill="none" stroke="midnightblue" d="M430.369,-317.5C438.862,-317.5 447.48,-317.5 455.804,-317.5"/>
<polygon fill="midnightblue" stroke="midnightblue" points="430.1,-314 420.1,-317.5 430.1,-321 430.1,-314"/>
</g>
<!-- Node55 -->
<g id="node9" class="node"><title>Node55</title>
<g id="a_node9"><a xlink:href="../../de/dad/classinfra_1_1_text_output_stream.html#ad5d6120732b9ad9d235c654c7eeb8a78" target="_top" xlink:title="infra::TextOutputStream\l::operator\&lt;\&lt;">
<polygon fill="white" stroke="black" points="456,-49.5 456,-79.5 576,-79.5 576,-49.5 456,-49.5"/>
<text text-anchor="start" x="464" y="-67.5" font-family="Helvetica,sans-Serif" font-size="10.00">infra::TextOutputStream</text>
<text text-anchor="middle" x="516" y="-56.5" font-family="Helvetica,sans-Serif" font-size="10.00">::operator&lt;&lt;</text>
</a>
</g>
</g>
<!-- Node54&#45;&gt;Node55 -->
<g id="edge8" class="edge"><title>Node54&#45;&gt;Node55</title>
<path fill="none" stroke="midnightblue" d="M418.386,-95.2409C434.629,-90.0727 452.119,-84.5076 467.695,-79.5516"/>
<polygon fill="midnightblue" stroke="midnightblue" points="416.93,-92.0312 408.462,-98.3986 419.052,-98.7017 416.93,-92.0312"/>
</g>
<!-- Node56&#45;&gt;Node55 -->
<g id="edge10" class="edge"><title>Node56&#45;&gt;Node55</title>
<path fill="none" stroke="midnightblue" d="M430.369,-64.5C438.862,-64.5 447.48,-64.5 455.804,-64.5"/>
<polygon fill="midnightblue" stroke="midnightblue" points="430.1,-61.0001 420.1,-64.5 430.1,-68.0001 430.1,-61.0001"/>
</g>
<!-- Node57&#45;&gt;Node55 -->
<g id="edge12" class="edge"><title>Node57&#45;&gt;Node55</title>
<path fill="none" stroke="midnightblue" d="M418.386,-33.7591C434.629,-38.9273 452.119,-44.4924 467.695,-49.4484"/>
<polygon fill="midnightblue" stroke="midnightblue" points="419.052,-30.2983 408.462,-30.6014 416.93,-36.9688 419.052,-30.2983"/>
</g>
<!-- Node58&#45;&gt;Node53 -->
<g id="edge14" class="edge"><title>Node58&#45;&gt;Node53</title>
<path fill="none" stroke="midnightblue" d="M241.633,-112.876C268.232,-125.256 302.211,-141.07 326.756,-152.493"/>
<polygon fill="midnightblue" stroke="midnightblue" points="243.103,-109.7 232.56,-108.654 240.149,-116.046 243.103,-109.7"/>
</g>
<!-- Node58&#45;&gt;Node54 -->
<g id="edge16" class="edge"><title>Node58&#45;&gt;Node54</title>
<path fill="none" stroke="midnightblue" d="M270.658,-102.388C280.431,-103.617 290.384,-104.869 299.917,-106.068"/>
<polygon fill="midnightblue" stroke="midnightblue" points="270.923,-98.8937 260.565,-101.118 270.05,-105.839 270.923,-98.8937"/>
</g>
<!-- Node58&#45;&gt;Node56 -->
<g id="edge15" class="edge"><title>Node58&#45;&gt;Node56</title>
<path fill="none" stroke="midnightblue" d="M270.658,-80.6126C280.431,-78.8302 290.384,-77.0149 299.917,-75.2761"/>
<polygon fill="midnightblue" stroke="midnightblue" points="269.774,-77.216 260.565,-82.4536 271.03,-84.1024 269.774,-77.216"/>
</g>
<!-- Node58&#45;&gt;Node57 -->
<g id="edge17" class="edge"><title>Node58&#45;&gt;Node57</title>
<path fill="none" stroke="midnightblue" d="M234.809,-73.4954C253.816,-62.8805 277.917,-49.9163 300,-39.5 306.501,-36.4337 313.504,-33.3772 320.336,-30.5233"/>
<polygon fill="midnightblue" stroke="midnightblue" points="232.918,-70.543 225.918,-78.4961 236.35,-76.6441 232.918,-70.543"/>
</g>
</g>
</svg>
