<?xml version="1.0" encoding="UTF-8" standalone="no"?>
<!DOCTYPE svg PUBLIC "-//W3C//DTD SVG 1.1//EN"
 "http://www.w3.org/Graphics/SVG/1.1/DTD/svg11.dtd">
<!-- Generated by graphviz version 2.38.0 (20140413.2041)
 -->
<!-- Title: services::FactoryDefaultConfigurationStore&lt; T &gt;::WithBlobs Pages: 1 -->
<svg width="316pt" height="251pt"
 viewBox="0.00 0.00 316.00 251.00" xmlns="http://www.w3.org/2000/svg" xmlns:xlink="http://www.w3.org/1999/xlink">
<g id="graph0" class="graph" transform="scale(1 1) rotate(0) translate(4 247)">
<title>services::FactoryDefaultConfigurationStore&lt; T &gt;::WithBlobs</title>
<polygon fill="white" stroke="none" points="-4,4 -4,-247 312,-247 312,4 -4,4"/>
<!-- Node0 -->
<g id="node1" class="node"><title>Node0</title>
<polygon fill="#bfbfbf" stroke="black" points="87,-0.5 87,-41.5 208,-41.5 208,-0.5 87,-0.5"/>
<text text-anchor="start" x="95" y="-29.5" font-family="Helvetica,sans-Serif" font-size="10.00">services::FactoryDefault</text>
<text text-anchor="start" x="95" y="-18.5" font-family="Helvetica,sans-Serif" font-size="10.00">ConfigurationStore&lt; T</text>
<text text-anchor="middle" x="147.5" y="-7.5" font-family="Helvetica,sans-Serif" font-size="10.00"> &gt;::WithBlobs</text>
</g>
<!-- Node1 -->
<g id="node2" class="node"><title>Node1</title>
<g id="a_node2"><a xlink:href="../../d0/dab/classservices_1_1_factory_default_configuration_store.html" target="_top" xlink:title="services::FactoryDefault\lConfigurationStore\&lt; T \&gt;">
<polygon fill="white" stroke="black" points="87,-78.5 87,-108.5 208,-108.5 208,-78.5 87,-78.5"/>
<text text-anchor="start" x="95" y="-96.5" font-family="Helvetica,sans-Serif" font-size="10.00">services::FactoryDefault</text>
<text text-anchor="middle" x="147.5" y="-85.5" font-family="Helvetica,sans-Serif" font-size="10.00">ConfigurationStore&lt; T &gt;</text>
</a>
</g>
</g>
<!-- Node1&#45;&gt;Node0 -->
<g id="edge1" class="edge"><title>Node1&#45;&gt;Node0</title>
<path fill="none" stroke="midnightblue" d="M147.5,-67.9815C147.5,-59.3468 147.5,-49.7625 147.5,-41.5884"/>
<polygon fill="midnightblue" stroke="midnightblue" points="144,-68.2332 147.5,-78.2333 151,-68.2333 144,-68.2332"/>
</g>
<!-- Node2 -->
<g id="node3" class="node"><title>Node2</title>
<g id="a_node3"><a xlink:href="../../de/def/classservices_1_1_factory_default_configuration_store_base.html" target="_top" xlink:title="services::FactoryDefault\lConfigurationStoreBase">
<polygon fill="white" stroke="black" points="8,-145.5 8,-175.5 129,-175.5 129,-145.5 8,-145.5"/>
<text text-anchor="start" x="16" y="-163.5" font-family="Helvetica,sans-Serif" font-size="10.00">services::FactoryDefault</text>
<text text-anchor="middle" x="68.5" y="-152.5" font-family="Helvetica,sans-Serif" font-size="10.00">ConfigurationStoreBase</text>
</a>
</g>
</g>
<!-- Node2&#45;&gt;Node1 -->
<g id="edge2" class="edge"><title>Node2&#45;&gt;Node1</title>
<path fill="none" stroke="midnightblue" d="M93.5573,-138.883C105.563,-129.005 119.632,-117.429 130.392,-108.577"/>
<polygon fill="midnightblue" stroke="midnightblue" points="91.1402,-136.34 85.6418,-145.396 95.5878,-141.745 91.1402,-136.34"/>
</g>
<!-- Node3 -->
<g id="node4" class="node"><title>Node3</title>
<g id="a_node4"><a xlink:href="../../d7/d56/classservices_1_1_configuration_store_interface.html" target="_top" xlink:title="services::ConfigurationStore\lInterface">
<polygon fill="white" stroke="black" points="0,-212.5 0,-242.5 137,-242.5 137,-212.5 0,-212.5"/>
<text text-anchor="start" x="8" y="-230.5" font-family="Helvetica,sans-Serif" font-size="10.00">services::ConfigurationStore</text>
<text text-anchor="middle" x="68.5" y="-219.5" font-family="Helvetica,sans-Serif" font-size="10.00">Interface</text>
</a>
</g>
</g>
<!-- Node3&#45;&gt;Node2 -->
<g id="edge3" class="edge"><title>Node3&#45;&gt;Node2</title>
<path fill="none" stroke="midnightblue" d="M68.5,-202.108C68.5,-193.154 68.5,-183.323 68.5,-175.577"/>
<polygon fill="midnightblue" stroke="midnightblue" points="65.0001,-202.396 68.5,-212.396 72.0001,-202.396 65.0001,-202.396"/>
</g>
<!-- Node4 -->
<g id="node5" class="node"><title>Node4</title>
<g id="a_node5"><a xlink:href="../../d3/db6/classservices_1_1_configuration_store.html" target="_top" xlink:title="services::ConfigurationStore\&lt; T \&gt;">
<polygon fill="white" stroke="black" points="147,-151 147,-170 308,-170 308,-151 147,-151"/>
<text text-anchor="middle" x="227.5" y="-158" font-family="Helvetica,sans-Serif" font-size="10.00">services::ConfigurationStore&lt; T &gt;</text>
</a>
</g>
</g>
<!-- Node4&#45;&gt;Node1 -->
<g id="edge4" class="edge"><title>Node4&#45;&gt;Node1</title>
<path fill="none" stroke="midnightblue" d="M208.715,-144.237C195.441,-133.452 177.78,-119.102 164.84,-108.589"/>
<polygon fill="midnightblue" stroke="midnightblue" points="206.743,-147.144 216.711,-150.734 211.157,-141.711 206.743,-147.144"/>
</g>
</g>
</svg>
