<?xml version="1.0" encoding="UTF-8" standalone="no"?>
<!DOCTYPE svg PUBLIC "-//W3C//DTD SVG 1.1//EN"
 "http://www.w3.org/Graphics/SVG/1.1/DTD/svg11.dtd">
<!-- Generated by graphviz version 2.38.0 (20140413.2041)
 -->
<!-- Title: services::IPAddresses Pages: 1 -->
<svg width="154pt" height="206pt"
 viewBox="0.00 0.00 153.50 206.00" xmlns="http://www.w3.org/2000/svg" xmlns:xlink="http://www.w3.org/1999/xlink">
<g id="graph0" class="graph" transform="scale(1 1) rotate(0) translate(4 202)">
<title>services::IPAddresses</title>
<polygon fill="white" stroke="none" points="-4,4 -4,-202 149.5,-202 149.5,4 -4,4"/>
<!-- Node1 -->
<g id="node1" class="node"><title>Node1</title>
<polygon fill="#bfbfbf" stroke="black" points="2.5,-0.5 2.5,-19.5 115.5,-19.5 115.5,-0.5 2.5,-0.5"/>
<text text-anchor="middle" x="59" y="-7.5" font-family="Helvetica,sans-Serif" font-size="10.00">services::IPAddresses</text>
</g>
<!-- Node2 -->
<g id="node2" class="node"><title>Node2</title>
<g id="a_node2"><a xlink:href="../../da/d2a/classinfra_1_1_variant.html" target="_top" xlink:title="infra::Variant\&lt; services\l::IPv4Address, services\l::IPv6Address \&gt;">
<polygon fill="white" stroke="black" points="0,-89.5 0,-130.5 118,-130.5 118,-89.5 0,-89.5"/>
<text text-anchor="start" x="8" y="-118.5" font-family="Helvetica,sans-Serif" font-size="10.00">infra::Variant&lt; services</text>
<text text-anchor="start" x="8" y="-107.5" font-family="Helvetica,sans-Serif" font-size="10.00">::IPv4Address, services</text>
<text text-anchor="middle" x="59" y="-96.5" font-family="Helvetica,sans-Serif" font-size="10.00">::IPv6Address &gt;</text>
</a>
</g>
</g>
<!-- Node2&#45;&gt;Node1 -->
<g id="edge1" class="edge"><title>Node2&#45;&gt;Node1</title>
<path fill="none" stroke="#9a32cd" stroke-dasharray="5,2" d="M59,-79.0372C59,-58.5691 59,-32.8532 59,-19.67"/>
<polygon fill="#9a32cd" stroke="#9a32cd" points="55.5001,-79.1682 59,-89.1682 62.5001,-79.1683 55.5001,-79.1682"/>
<text text-anchor="middle" x="78" y="-63" font-family="Helvetica,sans-Serif" font-size="10.00"> address</text>
<text text-anchor="middle" x="78" y="-52" font-family="Helvetica,sans-Serif" font-size="10.00">netmask</text>
<text text-anchor="middle" x="78" y="-41" font-family="Helvetica,sans-Serif" font-size="10.00">gateway</text>
</g>
<!-- Node3 -->
<g id="node3" class="node"><title>Node3</title>
<polygon fill="white" stroke="#bfbfbf" points="14.5,-178.5 14.5,-197.5 57.5,-197.5 57.5,-178.5 14.5,-178.5"/>
<text text-anchor="middle" x="36" y="-185.5" font-family="Helvetica,sans-Serif" font-size="10.00">size_t</text>
</g>
<!-- Node3&#45;&gt;Node2 -->
<g id="edge2" class="edge"><title>Node3&#45;&gt;Node2</title>
<path fill="none" stroke="#9a32cd" stroke-dasharray="5,2" d="M19.5114,-170.796C14.7543,-164.157 11.6475,-156.325 15,-149 18.1924,-142.025 23.3672,-135.842 29.066,-130.596"/>
<polygon fill="#9a32cd" stroke="#9a32cd" points="16.8944,-173.121 26.0578,-178.439 22.211,-168.567 16.8944,-173.121"/>
<text text-anchor="middle" x="26" y="-152" font-family="Helvetica,sans-Serif" font-size="10.00"> size</text>
</g>
<!-- Node3&#45;&gt;Node2 -->
<g id="edge3" class="edge"><title>Node3&#45;&gt;Node2</title>
<path fill="none" stroke="#9a32cd" stroke-dasharray="5,2" d="M41.6009,-168.493C45.0693,-157.032 49.5193,-142.327 53.0508,-130.658"/>
<polygon fill="#9a32cd" stroke="#9a32cd" points="38.1851,-167.697 38.6384,-178.282 44.885,-169.724 38.1851,-167.697"/>
<text text-anchor="middle" x="71" y="-152" font-family="Helvetica,sans-Serif" font-size="10.00"> dataIndex</text>
</g>
<!-- Node4 -->
<g id="node4" class="node"><title>Node4</title>
<polygon fill="white" stroke="#bfbfbf" points="110.5,-178.5 110.5,-197.5 145.5,-197.5 145.5,-178.5 110.5,-178.5"/>
<text text-anchor="middle" x="128" y="-185.5" font-family="Helvetica,sans-Serif" font-size="10.00">type</text>
</g>
<!-- Node4&#45;&gt;Node2 -->
<g id="edge4" class="edge"><title>Node4&#45;&gt;Node2</title>
<path fill="none" stroke="#9a32cd" stroke-dasharray="5,2" d="M115.295,-169.944C110.118,-163.254 103.957,-155.612 98,-149 92.4316,-142.819 86.0831,-136.398 80.1488,-130.631"/>
<polygon fill="#9a32cd" stroke="#9a32cd" points="112.798,-172.443 121.634,-178.29 118.373,-168.209 112.798,-172.443"/>
<text text-anchor="middle" x="117" y="-152" font-family="Helvetica,sans-Serif" font-size="10.00"> data</text>
</g>
</g>
</svg>
