<?xml version="1.0" encoding="UTF-8" standalone="no"?>
<!DOCTYPE svg PUBLIC "-//W3C//DTD SVG 1.1//EN"
 "http://www.w3.org/Graphics/SVG/1.1/DTD/svg11.dtd">
<!-- Generated by graphviz version 2.38.0 (20140413.2041)
 -->
<!-- Title: infra::StreamWriterPrintF::Insert Pages: 1 -->
<svg width="416pt" height="220pt"
 viewBox="0.00 0.00 416.00 220.00" xmlns="http://www.w3.org/2000/svg" xmlns:xlink="http://www.w3.org/1999/xlink">
<g id="graph0" class="graph" transform="scale(1 1) rotate(0) translate(4 216)">
<title>infra::StreamWriterPrintF::Insert</title>
<polygon fill="white" stroke="none" points="-4,4 -4,-216 412,-216 412,4 -4,4"/>
<!-- Node2 -->
<g id="node1" class="node"><title>Node2</title>
<polygon fill="#bfbfbf" stroke="black" points="0,-88.5 0,-118.5 119,-118.5 119,-88.5 0,-88.5"/>
<text text-anchor="start" x="8" y="-106.5" font-family="Helvetica,sans-Serif" font-size="10.00">infra::StreamWriterPrint</text>
<text text-anchor="middle" x="59.5" y="-95.5" font-family="Helvetica,sans-Serif" font-size="10.00">F::Insert</text>
</g>
<!-- Node3 -->
<g id="node2" class="node"><title>Node3</title>
<g id="a_node2"><a xlink:href="../../d0/de3/namespaceinfra.html#ad2eae6128b7a057916770ee2ccc8945c" target="_top" xlink:title="infra::Copy">
<polygon fill="white" stroke="black" points="175.5,-176 175.5,-195 238.5,-195 238.5,-176 175.5,-176"/>
<text text-anchor="middle" x="207" y="-183" font-family="Helvetica,sans-Serif" font-size="10.00">infra::Copy</text>
</a>
</g>
</g>
<!-- Node2&#45;&gt;Node3 -->
<g id="edge1" class="edge"><title>Node2&#45;&gt;Node3</title>
<path fill="none" stroke="midnightblue" d="M83.3812,-118.53C102.264,-130.692 129.932,-147.962 155,-161.5 161.364,-164.937 168.303,-168.389 174.957,-171.562"/>
<polygon fill="midnightblue" stroke="midnightblue" points="173.857,-174.912 184.398,-175.976 176.822,-168.57 173.857,-174.912"/>
</g>
<!-- Node5 -->
<g id="node4" class="node"><title>Node5</title>
<g id="a_node4"><a xlink:href="../../d0/d6d/classinfra_1_1_memory_range.html#ae8fbbf531d3696b6a64ac13385acdc66" target="_top" xlink:title="infra::MemoryRange\l::size">
<polygon fill="white" stroke="black" points="299.5,-132.5 299.5,-162.5 403.5,-162.5 403.5,-132.5 299.5,-132.5"/>
<text text-anchor="start" x="307.5" y="-150.5" font-family="Helvetica,sans-Serif" font-size="10.00">infra::MemoryRange</text>
<text text-anchor="middle" x="351.5" y="-139.5" font-family="Helvetica,sans-Serif" font-size="10.00">::size</text>
</a>
</g>
</g>
<!-- Node2&#45;&gt;Node5 -->
<g id="edge8" class="edge"><title>Node2&#45;&gt;Node5</title>
<path fill="none" stroke="midnightblue" d="M114.175,-118.584C127.437,-121.908 141.666,-125.138 155,-127.5 199.563,-135.394 250.433,-140.477 289.11,-143.543"/>
<polygon fill="midnightblue" stroke="midnightblue" points="288.934,-147.04 299.173,-144.317 289.471,-140.06 288.934,-147.04"/>
</g>
<!-- Node6 -->
<g id="node5" class="node"><title>Node6</title>
<g id="a_node5"><a xlink:href="../../d0/d6d/classinfra_1_1_memory_range.html#a0dc90caa282524ee9828bf8128e3a569" target="_top" xlink:title="infra::MemoryRange\l::empty">
<polygon fill="white" stroke="black" points="155,-88.5 155,-118.5 259,-118.5 259,-88.5 155,-88.5"/>
<text text-anchor="start" x="163" y="-106.5" font-family="Helvetica,sans-Serif" font-size="10.00">infra::MemoryRange</text>
<text text-anchor="middle" x="207" y="-95.5" font-family="Helvetica,sans-Serif" font-size="10.00">::empty</text>
</a>
</g>
</g>
<!-- Node2&#45;&gt;Node6 -->
<g id="edge4" class="edge"><title>Node2&#45;&gt;Node6</title>
<path fill="none" stroke="midnightblue" d="M119.261,-103.5C127.672,-103.5 136.342,-103.5 144.798,-103.5"/>
<polygon fill="midnightblue" stroke="midnightblue" points="144.975,-107 154.975,-103.5 144.975,-100 144.975,-107"/>
</g>
<!-- Node7 -->
<g id="node6" class="node"><title>Node7</title>
<g id="a_node6"><a xlink:href="../../d0/de3/namespaceinfra.html#a97dc5194236a205b697e668f00d42353" target="_top" xlink:title="infra::Head">
<polygon fill="white" stroke="black" points="175.5,-50 175.5,-69 238.5,-69 238.5,-50 175.5,-50"/>
<text text-anchor="middle" x="207" y="-57" font-family="Helvetica,sans-Serif" font-size="10.00">infra::Head</text>
</a>
</g>
</g>
<!-- Node2&#45;&gt;Node7 -->
<g id="edge5" class="edge"><title>Node2&#45;&gt;Node7</title>
<path fill="none" stroke="midnightblue" d="M110.166,-88.4808C128.196,-83.0283 148.337,-76.9376 165.484,-71.7524"/>
<polygon fill="midnightblue" stroke="midnightblue" points="166.636,-75.0605 175.195,-68.8157 164.61,-68.3602 166.636,-75.0605"/>
</g>
<!-- Node9 -->
<g id="node8" class="node"><title>Node9</title>
<g id="a_node8"><a xlink:href="../../d0/d6d/classinfra_1_1_memory_range.html#adf5b31ae0a4ccba88bb4b284935e8a1a" target="_top" xlink:title="infra::MemoryRange\l::pop_front">
<polygon fill="white" stroke="black" points="155,-0.5 155,-30.5 259,-30.5 259,-0.5 155,-0.5"/>
<text text-anchor="start" x="163" y="-18.5" font-family="Helvetica,sans-Serif" font-size="10.00">infra::MemoryRange</text>
<text text-anchor="middle" x="207" y="-7.5" font-family="Helvetica,sans-Serif" font-size="10.00">::pop_front</text>
</a>
</g>
</g>
<!-- Node2&#45;&gt;Node9 -->
<g id="edge7" class="edge"><title>Node2&#45;&gt;Node9</title>
<path fill="none" stroke="midnightblue" d="M81.3826,-88.4149C100.201,-75.1052 128.848,-55.5394 155,-40.5 158.041,-38.7511 161.222,-37.0054 164.445,-35.2958"/>
<polygon fill="midnightblue" stroke="midnightblue" points="166.272,-38.2919 173.559,-30.6009 163.067,-32.069 166.272,-38.2919"/>
</g>
<!-- Node4 -->
<g id="node3" class="node"><title>Node4</title>
<g id="a_node3"><a xlink:href="../../d0/d6d/classinfra_1_1_memory_range.html#a7a83ceae17802af5ecebfb9557912ece" target="_top" xlink:title="infra::MemoryRange\l::begin">
<polygon fill="white" stroke="black" points="299.5,-181.5 299.5,-211.5 403.5,-211.5 403.5,-181.5 299.5,-181.5"/>
<text text-anchor="start" x="307.5" y="-199.5" font-family="Helvetica,sans-Serif" font-size="10.00">infra::MemoryRange</text>
<text text-anchor="middle" x="351.5" y="-188.5" font-family="Helvetica,sans-Serif" font-size="10.00">::begin</text>
</a>
</g>
</g>
<!-- Node3&#45;&gt;Node4 -->
<g id="edge2" class="edge"><title>Node3&#45;&gt;Node4</title>
<path fill="none" stroke="midnightblue" d="M238.57,-187.86C253.336,-189 271.608,-190.41 289.077,-191.759"/>
<polygon fill="midnightblue" stroke="midnightblue" points="288.997,-195.263 299.237,-192.543 289.536,-188.283 288.997,-195.263"/>
</g>
<!-- Node3&#45;&gt;Node5 -->
<g id="edge3" class="edge"><title>Node3&#45;&gt;Node5</title>
<path fill="none" stroke="midnightblue" d="M238.57,-177.348C253.474,-173.374 271.95,-168.447 289.566,-163.749"/>
<polygon fill="midnightblue" stroke="midnightblue" points="290.476,-167.129 299.237,-161.17 288.672,-160.365 290.476,-167.129"/>
</g>
<!-- Node8 -->
<g id="node7" class="node"><title>Node8</title>
<g id="a_node7"><a xlink:href="../../d0/d6d/classinfra_1_1_memory_range.html#a322f6976f2774c6ba7494b9e27f07624" target="_top" xlink:title="infra::MemoryRange\l::shrink_from_back_to">
<polygon fill="white" stroke="black" points="295,-44.5 295,-74.5 408,-74.5 408,-44.5 295,-44.5"/>
<text text-anchor="start" x="303" y="-62.5" font-family="Helvetica,sans-Serif" font-size="10.00">infra::MemoryRange</text>
<text text-anchor="middle" x="351.5" y="-51.5" font-family="Helvetica,sans-Serif" font-size="10.00">::shrink_from_back_to</text>
</a>
</g>
</g>
<!-- Node7&#45;&gt;Node8 -->
<g id="edge6" class="edge"><title>Node7&#45;&gt;Node8</title>
<path fill="none" stroke="midnightblue" d="M238.57,-59.5C252.182,-59.5 268.774,-59.5 284.969,-59.5"/>
<polygon fill="midnightblue" stroke="midnightblue" points="284.971,-63.0001 294.971,-59.5 284.971,-56.0001 284.971,-63.0001"/>
</g>
</g>
</svg>
