<?xml version="1.0" encoding="UTF-8" standalone="no"?>
<!DOCTYPE svg PUBLIC "-//W3C//DTD SVG 1.1//EN"
 "http://www.w3.org/Graphics/SVG/1.1/DTD/svg11.dtd">
<!-- Generated by graphviz version 2.38.0 (20140413.2041)
 -->
<!-- Title: services::WiFiNetwork Pages: 1 -->
<!--zoomable 110 -->
<svg id="main" version="1.1" xmlns="http://www.w3.org/2000/svg" xmlns:xlink="http://www.w3.org/1999/xlink" xml:space="preserve" onload="init(evt)">
<style type="text/css"><![CDATA[
.edge:hover path { stroke: red; }
.edge:hover polygon { stroke: red; fill: red; }
]]></style>
<script type="text/javascript"><![CDATA[
var edges = document.getElementsByTagName('g');
if (edges && edges.length) {
  for (var i=0;i<edges.length;i++) {
    if (edges[i].id.substr(0,4)=='edge') {
      edges[i].setAttribute('class','edge');
    }
  }
}
]]></script>
        <defs>
                <circle id="rim" cx="0" cy="0" r="7"/>
                <circle id="rim2" cx="0" cy="0" r="3.5"/>
                <g id="zoomPlus">
                        <use xlink:href="#rim" fill="#404040">
                                <set attributeName="fill" to="#808080" begin="zoomplus.mouseover" end="zoomplus.mouseout"/>
                        </use>
                        <path d="M-4,0h8M0,-4v8" fill="none" stroke="white" stroke-width="1.5" pointer-events="none"/>
                </g>
                <g id="zoomMin">
                        <use xlink:href="#rim" fill="#404040">
                                <set attributeName="fill" to="#808080" begin="zoomminus.mouseover" end="zoomminus.mouseout"/>
                        </use>
                        <path d="M-4,0h8" fill="none" stroke="white" stroke-width="1.5" pointer-events="none"/>
                </g>
                <g id="dirArrow">
                        <path fill="none" stroke="white" stroke-width="1.5" d="M0,-3.0v7 M-2.5,-0.5L0,-3.0L2.5,-0.5"/>
                </g>
               <g id="resetDef">
                       <use xlink:href="#rim2" fill="#404040">
                               <set attributeName="fill" to="#808080" begin="reset.mouseover" end="reset.mouseout"/>
                       </use>
               </g>
        </defs>

<script type="text/javascript">
var viewWidth = 698;
var viewHeight = 110;
var sectionId = 'dynsection-1';
</script>
<script xlink:href="../../svgpan.js"/>
<svg id="graph" class="graph">
<g id="viewport">
<title>services::WiFiNetwork</title>
<polygon fill="white" stroke="none" points="-4,4 -4,-106 694,-106 694,4 -4,4"/>
<!-- Node3 -->
<g id="node1" class="node"><title>Node3</title>
<polygon fill="#bfbfbf" stroke="black" points="577,-39.5 577,-58.5 690,-58.5 690,-39.5 577,-39.5"/>
<text text-anchor="middle" x="633.5" y="-46.5" font-family="Helvetica,sans-Serif" font-size="10.00">services::WiFiNetwork</text>
</g>
<!-- Node4 -->
<g id="node2" class="node"><title>Node4</title>
<g id="a_node2"><a xlink:href="../../d1/db2/classinfra_1_1_subject.html" target="_top" xlink:title="infra::Subject\&lt; WiFiNetwork\lStationObserver \&gt;">
<polygon fill="white" stroke="black" points="402,-64 402,-94 540,-94 540,-64 402,-64"/>
<text text-anchor="start" x="410" y="-82" font-family="Helvetica,sans-Serif" font-size="10.00">infra::Subject&lt; WiFiNetwork</text>
<text text-anchor="middle" x="471" y="-71" font-family="Helvetica,sans-Serif" font-size="10.00">StationObserver &gt;</text>
</a>
</g>
</g>
<!-- Node4&#45;&gt;Node3 -->
<g id="edge1" class="edge"><title>Node4&#45;&gt;Node3</title>
<path fill="none" stroke="midnightblue" d="M550.186,-64.3858C560.781,-62.4055 571.424,-60.4161 581.376,-58.556"/>
<polygon fill="midnightblue" stroke="midnightblue" points="549.253,-60.9995 540.066,-66.2773 550.539,-67.8803 549.253,-60.9995"/>
</g>
<!-- Node5 -->
<g id="node3" class="node"><title>Node5</title>
<g id="a_node3"><a xlink:href="../../dc/d4c/classinfra_1_1_single_observer.html" target="_top" xlink:title="infra::SingleObserver\l\&lt; WiFiNetworkStationObserver,\l ObserverSubjectType \&gt;">
<polygon fill="white" stroke="black" points="160.5,-60.5 160.5,-101.5 313.5,-101.5 313.5,-60.5 160.5,-60.5"/>
<text text-anchor="start" x="168.5" y="-89.5" font-family="Helvetica,sans-Serif" font-size="10.00">infra::SingleObserver</text>
<text text-anchor="start" x="168.5" y="-78.5" font-family="Helvetica,sans-Serif" font-size="10.00">&lt; WiFiNetworkStationObserver,</text>
<text text-anchor="middle" x="237" y="-67.5" font-family="Helvetica,sans-Serif" font-size="10.00"> ObserverSubjectType &gt;</text>
</a>
</g>
</g>
<!-- Node5&#45;&gt;Node4 -->
<g id="edge2" class="edge"><title>Node5&#45;&gt;Node4</title>
<path fill="none" stroke="#9a32cd" stroke-dasharray="5,2" d="M323.778,-80.2605C349.542,-80.0384 377.444,-79.7979 401.901,-79.5871"/>
<polygon fill="#9a32cd" stroke="#9a32cd" points="323.614,-76.7617 313.644,-80.3479 323.674,-83.7615 323.614,-76.7617"/>
<text text-anchor="middle" x="364" y="-83" font-family="Helvetica,sans-Serif" font-size="10.00"> observer</text>
</g>
<!-- Node6 -->
<g id="node4" class="node"><title>Node6</title>
<polygon fill="white" stroke="#bfbfbf" points="0,-44.5 0,-63.5 77,-63.5 77,-44.5 0,-44.5"/>
<text text-anchor="middle" x="38.5" y="-51.5" font-family="Helvetica,sans-Serif" font-size="10.00">SubjectType *</text>
</g>
<!-- Node6&#45;&gt;Node5 -->
<g id="edge3" class="edge"><title>Node6&#45;&gt;Node5</title>
<path fill="none" stroke="#9a32cd" stroke-dasharray="5,2" d="M87.4357,-60.5866C109.366,-63.5999 135.876,-67.2426 160.397,-70.6118"/>
<polygon fill="#9a32cd" stroke="#9a32cd" points="87.7706,-57.0998 77.3872,-59.2059 86.8176,-64.0346 87.7706,-57.0998"/>
<text text-anchor="middle" x="112.5" y="-68" font-family="Helvetica,sans-Serif" font-size="10.00"> subject</text>
</g>
<!-- Node8 -->
<g id="node6" class="node"><title>Node8</title>
<g id="a_node6"><a xlink:href="../../dc/d4c/classinfra_1_1_single_observer.html" target="_top" xlink:title="infra::SingleObserver\l\&lt; WiFiNetworkAccessPointObserver,\l ObserverSubjectType \&gt;">
<polygon fill="white" stroke="black" points="148,-0.5 148,-41.5 326,-41.5 326,-0.5 148,-0.5"/>
<text text-anchor="start" x="156" y="-29.5" font-family="Helvetica,sans-Serif" font-size="10.00">infra::SingleObserver</text>
<text text-anchor="start" x="156" y="-18.5" font-family="Helvetica,sans-Serif" font-size="10.00">&lt; WiFiNetworkAccessPointObserver,</text>
<text text-anchor="middle" x="237" y="-7.5" font-family="Helvetica,sans-Serif" font-size="10.00"> ObserverSubjectType &gt;</text>
</a>
</g>
</g>
<!-- Node6&#45;&gt;Node8 -->
<g id="edge6" class="edge"><title>Node6&#45;&gt;Node8</title>
<path fill="none" stroke="#9a32cd" stroke-dasharray="5,2" d="M87.4287,-45.9509C105.628,-42.8945 126.983,-39.3082 147.737,-35.8228"/>
<polygon fill="#9a32cd" stroke="#9a32cd" points="86.6694,-42.5293 77.3872,-47.6373 87.8288,-49.4327 86.6694,-42.5293"/>
<text text-anchor="middle" x="112.5" y="-47" font-family="Helvetica,sans-Serif" font-size="10.00"> subject</text>
</g>
<!-- Node7 -->
<g id="node5" class="node"><title>Node7</title>
<g id="a_node5"><a xlink:href="../../d1/db2/classinfra_1_1_subject.html" target="_top" xlink:title="infra::Subject\&lt; WiFiNetwork\lAccessPointObserver \&gt;">
<polygon fill="white" stroke="black" points="402,-10 402,-40 540,-40 540,-10 402,-10"/>
<text text-anchor="start" x="410" y="-28" font-family="Helvetica,sans-Serif" font-size="10.00">infra::Subject&lt; WiFiNetwork</text>
<text text-anchor="middle" x="471" y="-17" font-family="Helvetica,sans-Serif" font-size="10.00">AccessPointObserver &gt;</text>
</a>
</g>
</g>
<!-- Node7&#45;&gt;Node3 -->
<g id="edge4" class="edge"><title>Node7&#45;&gt;Node3</title>
<path fill="none" stroke="midnightblue" d="M550.222,-36.6968C559.252,-38.047 568.316,-39.4023 576.956,-40.6943"/>
<polygon fill="midnightblue" stroke="midnightblue" points="550.474,-33.1956 540.066,-35.1782 549.439,-40.1186 550.474,-33.1956"/>
</g>
<!-- Node8&#45;&gt;Node7 -->
<g id="edge5" class="edge"><title>Node8&#45;&gt;Node7</title>
<path fill="none" stroke="#9a32cd" stroke-dasharray="5,2" d="M336.137,-22.692C358.275,-23.0737 381.303,-23.4707 401.889,-23.8257"/>
<polygon fill="#9a32cd" stroke="#9a32cd" points="336.099,-19.1909 326.04,-22.5179 335.978,-26.1899 336.099,-19.1909"/>
<text text-anchor="middle" x="364" y="-27" font-family="Helvetica,sans-Serif" font-size="10.00"> observer</text>
</g>
</g>
</svg>
        <g id="navigator" transform="translate(0 0)" fill="#404254">
                <rect fill="#f2f5e9" fill-opacity="0.5" stroke="#606060" stroke-width=".5" x="0" y="0" width="60" height="60"/>
                <use id="zoomplus" xlink:href="#zoomPlus" x="17" y="9" onmousedown="handleZoom(evt,'in')"/>
                <use id="zoomminus" xlink:href="#zoomMin" x="42" y="9" onmousedown="handleZoom(evt,'out')"/>
                <use id="reset" xlink:href="#resetDef" x="30" y="36" onmousedown="handleReset()"/>
                <g id="arrowUp" xlink:href="#dirArrow" transform="translate(30 24)" onmousedown="handlePan(0,-1)">
                  <use xlink:href="#rim" fill="#404040">
                        <set attributeName="fill" to="#808080" begin="arrowUp.mouseover" end="arrowUp.mouseout"/>
                  </use>
                  <path fill="none" stroke="white" stroke-width="1.5" d="M0,-3.0v7 M-2.5,-0.5L0,-3.0L2.5,-0.5"/>
                </g>
                <g id="arrowRight" xlink:href="#dirArrow" transform="rotate(90) translate(36 -43)" onmousedown="handlePan(1,0)">
                  <use xlink:href="#rim" fill="#404040">
                        <set attributeName="fill" to="#808080" begin="arrowRight.mouseover" end="arrowRight.mouseout"/>
                  </use>
                  <path fill="none" stroke="white" stroke-width="1.5" d="M0,-3.0v7 M-2.5,-0.5L0,-3.0L2.5,-0.5"/>
                </g>
                <g id="arrowDown" xlink:href="#dirArrow" transform="rotate(180) translate(-30 -48)" onmousedown="handlePan(0,1)">
                  <use xlink:href="#rim" fill="#404040">
                        <set attributeName="fill" to="#808080" begin="arrowDown.mouseover" end="arrowDown.mouseout"/>
                  </use>
                  <path fill="none" stroke="white" stroke-width="1.5" d="M0,-3.0v7 M-2.5,-0.5L0,-3.0L2.5,-0.5"/>
                </g>
                <g id="arrowLeft" xlink:href="#dirArrow" transform="rotate(270) translate(-36 17)" onmousedown="handlePan(-1,0)">
                  <use xlink:href="#rim" fill="#404040">
                        <set attributeName="fill" to="#808080" begin="arrowLeft.mouseover" end="arrowLeft.mouseout"/>
                  </use>
                  <path fill="none" stroke="white" stroke-width="1.5" d="M0,-3.0v7 M-2.5,-0.5L0,-3.0L2.5,-0.5"/>
                </g>
        </g>
        <svg viewBox="0 0 15 15" width="100%" height="30px" preserveAspectRatio="xMaxYMin meet">
         <g id="arrow_out" transform="scale(0.3 0.3)">
          <a xlink:href="classservices_1_1_wi_fi_network__coll__graph_org.svg" target="_base">
           <rect id="button" ry="5" rx="5" y="6" x="6" height="38" width="38"
                fill="#f2f5e9" fill-opacity="0.5" stroke="#606060" stroke-width="1.0"/>
           <path id="arrow"
             d="M 11.500037,31.436501 C 11.940474,20.09759 22.043105,11.32322 32.158766,21.979434 L 37.068811,17.246167 C 37.068811,17.246167 37.088388,32 37.088388,32 L 22.160133,31.978069 C 22.160133,31.978069 26.997745,27.140456 26.997745,27.140456 C 18.528582,18.264221 13.291696,25.230495 11.500037,31.436501 z"
             style="fill:#404040;"/>
          </a>
         </g>
        </svg>
</svg>
