<?xml version="1.0" encoding="UTF-8" standalone="no"?>
<!DOCTYPE svg PUBLIC "-//W3C//DTD SVG 1.1//EN"
 "http://www.w3.org/Graphics/SVG/1.1/DTD/svg11.dtd">
<!-- Generated by graphviz version 2.38.0 (20140413.2041)
 -->
<!-- Title: infra::detail::BoundedListNode&lt; T &gt; Pages: 1 -->
<svg width="248pt" height="117pt"
 viewBox="0.00 0.00 248.00 117.00" xmlns="http://www.w3.org/2000/svg" xmlns:xlink="http://www.w3.org/1999/xlink">
<g id="graph0" class="graph" transform="scale(1 1) rotate(0) translate(4 113)">
<title>infra::detail::BoundedListNode&lt; T &gt;</title>
<polygon fill="white" stroke="none" points="-4,4 -4,-113 244,-113 244,4 -4,4"/>
<!-- Node1 -->
<g id="node1" class="node"><title>Node1</title>
<polygon fill="#bfbfbf" stroke="black" points="63.5,-0.5 63.5,-30.5 187.5,-30.5 187.5,-0.5 63.5,-0.5"/>
<text text-anchor="start" x="71.5" y="-18.5" font-family="Helvetica,sans-Serif" font-size="10.00">infra::detail::BoundedList</text>
<text text-anchor="middle" x="125.5" y="-7.5" font-family="Helvetica,sans-Serif" font-size="10.00">Node&lt; T &gt;</text>
</g>
<!-- Node2 -->
<g id="node2" class="node"><title>Node2</title>
<polygon fill="white" stroke="#bfbfbf" points="0,-89.5 0,-108.5 123,-108.5 123,-89.5 0,-89.5"/>
<text text-anchor="middle" x="61.5" y="-96.5" font-family="Helvetica,sans-Serif" font-size="10.00">BoundedListNode&lt; T &gt; *</text>
</g>
<!-- Node2&#45;&gt;Node1 -->
<g id="edge1" class="edge"><title>Node2&#45;&gt;Node1</title>
<path fill="none" stroke="#9a32cd" stroke-dasharray="5,2" d="M74.5613,-81.3673C86.2991,-66.4199 103.347,-44.71 114.43,-30.5974"/>
<polygon fill="#9a32cd" stroke="#9a32cd" points="71.7725,-79.2516 68.3491,-89.2781 77.278,-83.5748 71.7725,-79.2516"/>
<text text-anchor="middle" x="119" y="-63" font-family="Helvetica,sans-Serif" font-size="10.00"> previous</text>
<text text-anchor="middle" x="119" y="-52" font-family="Helvetica,sans-Serif" font-size="10.00">next</text>
</g>
<!-- Node3 -->
<g id="node3" class="node"><title>Node3</title>
<polygon fill="white" stroke="#bfbfbf" points="141,-89.5 141,-108.5 240,-108.5 240,-89.5 141,-89.5"/>
<text text-anchor="middle" x="190.5" y="-96.5" font-family="Helvetica,sans-Serif" font-size="10.00">StaticStorage&lt; T &gt;</text>
</g>
<!-- Node3&#45;&gt;Node1 -->
<g id="edge2" class="edge"><title>Node3&#45;&gt;Node1</title>
<path fill="none" stroke="#9a32cd" stroke-dasharray="5,2" d="M177.235,-81.3673C165.313,-66.4199 147.999,-44.71 136.743,-30.5974"/>
<polygon fill="#9a32cd" stroke="#9a32cd" points="174.572,-83.6424 183.544,-89.2781 180.045,-79.2777 174.572,-83.6424"/>
<text text-anchor="middle" x="185.5" y="-57.5" font-family="Helvetica,sans-Serif" font-size="10.00"> storage</text>
</g>
</g>
</svg>
